<?xml version="1.0" encoding="utf-8" standalone="no"?>
<!DOCTYPE svg PUBLIC "-//W3C//DTD SVG 1.1//EN"
  "http://www.w3.org/Graphics/SVG/1.1/DTD/svg11.dtd">
<svg xmlns:xlink="http://www.w3.org/1999/xlink" width="443.2625pt" height="325.85pt" viewBox="0 0 443.2625 325.85" xmlns="http://www.w3.org/2000/svg" version="1.1">
 <metadata>
  <rdf:RDF xmlns:dc="http://purl.org/dc/elements/1.1/" xmlns:cc="http://creativecommons.org/ns#" xmlns:rdf="http://www.w3.org/1999/02/22-rdf-syntax-ns#">
   <cc:Work>
    <dc:type rdf:resource="http://purl.org/dc/dcmitype/StillImage"/>
    <dc:date>2024-01-28T20:54:40.597952</dc:date>
    <dc:format>image/svg+xml</dc:format>
    <dc:creator>
     <cc:Agent>
      <dc:title>Matplotlib v3.7.2, https://matplotlib.org/</dc:title>
     </cc:Agent>
    </dc:creator>
   </cc:Work>
  </rdf:RDF>
 </metadata>
 <defs>
  <style type="text/css">*{stroke-linejoin: round; stroke-linecap: butt}</style>
 </defs>
 <g id="figure_1">
  <g id="patch_1">
   <path d="M 0 325.85 
L 443.2625 325.85 
L 443.2625 0 
L 0 0 
z
" style="fill: #ffffff"/>
  </g>
  <g id="axes_1">
   <g id="patch_2">
    <path d="M 53.0525 54.696 
L 436.0625 54.696 
L 436.0625 7.2 
L 53.0525 7.2 
z
" style="fill: #ffffff"/>
   </g>
   <g id="PolyCollection_1">
    <defs>
     <path id="m3a0eb44c80" d="M 70.462045 -273.312909 
L 70.462045 -294.291923 
L 77.425864 -293.65071 
L 84.389682 -292.977166 
L 91.3535 -292.278565 
L 98.317318 -291.56245 
L 105.281136 -290.836403 
L 112.244955 -290.107938 
L 119.208773 -289.38433 
L 126.172591 -288.67243 
L 133.136409 -287.978555 
L 140.100227 -287.308356 
L 147.064045 -286.666751 
L 154.027864 -286.057879 
L 160.991682 -285.485091 
L 167.9555 -284.950984 
L 174.919318 -284.457443 
L 181.883136 -284.005729 
L 188.846955 -283.59656 
L 195.810773 -283.230212 
L 202.774591 -282.906612 
L 209.738409 -282.625438 
L 216.702227 -282.386208 
L 223.666045 -282.188345 
L 230.629864 -282.031261 
L 237.593682 -281.914403 
L 244.5575 -281.837289 
L 251.521318 -281.79956 
L 258.485136 -281.800974 
L 265.448955 -281.841436 
L 272.412773 -281.920978 
L 279.376591 -282.039757 
L 286.340409 -282.198034 
L 293.304227 -282.396136 
L 300.268045 -282.634416 
L 307.231864 -282.913208 
L 314.195682 -283.232771 
L 321.1595 -283.593225 
L 328.123318 -283.994503 
L 335.087136 -284.436279 
L 342.050955 -284.917913 
L 349.014773 -285.438433 
L 355.978591 -285.996485 
L 362.942409 -286.590327 
L 369.906227 -287.217869 
L 376.870045 -287.876696 
L 383.833864 -288.564145 
L 390.797682 -289.277417 
L 397.7615 -290.013658 
L 404.725318 -290.770128 
L 411.689136 -291.544313 
L 418.652955 -292.33407 
L 418.652955 -273.312909 
L 418.652955 -273.312909 
L 411.689136 -273.312909 
L 404.725318 -273.312909 
L 397.7615 -273.312909 
L 390.797682 -273.312909 
L 383.833864 -273.312909 
L 376.870045 -273.312909 
L 369.906227 -273.312909 
L 362.942409 -273.312909 
L 355.978591 -273.312909 
L 349.014773 -273.312909 
L 342.050955 -273.312909 
L 335.087136 -273.312909 
L 328.123318 -273.312909 
L 321.1595 -273.312909 
L 314.195682 -273.312909 
L 307.231864 -273.312909 
L 300.268045 -273.312909 
L 293.304227 -273.312909 
L 286.340409 -273.312909 
L 279.376591 -273.312909 
L 272.412773 -273.312909 
L 265.448955 -273.312909 
L 258.485136 -273.312909 
L 251.521318 -273.312909 
L 244.5575 -273.312909 
L 237.593682 -273.312909 
L 230.629864 -273.312909 
L 223.666045 -273.312909 
L 216.702227 -273.312909 
L 209.738409 -273.312909 
L 202.774591 -273.312909 
L 195.810773 -273.312909 
L 188.846955 -273.312909 
L 181.883136 -273.312909 
L 174.919318 -273.312909 
L 167.9555 -273.312909 
L 160.991682 -273.312909 
L 154.027864 -273.312909 
L 147.064045 -273.312909 
L 140.100227 -273.312909 
L 133.136409 -273.312909 
L 126.172591 -273.312909 
L 119.208773 -273.312909 
L 112.244955 -273.312909 
L 105.281136 -273.312909 
L 98.317318 -273.312909 
L 91.3535 -273.312909 
L 84.389682 -273.312909 
L 77.425864 -273.312909 
L 70.462045 -273.312909 
z
" style="stroke: #dc143c; stroke-opacity: 0.2"/>
    </defs>
    <g clip-path="url(#p12140bccdc)">
     <use xlink:href="#m3a0eb44c80" x="0" y="325.85" style="fill: #dc143c; fill-opacity: 0.2; stroke: #dc143c; stroke-opacity: 0.2"/>
    </g>
   </g>
   <g id="PolyCollection_2">
    <defs>
     <path id="m7da0e7f858" d="M 70.462045 -273.312909 
L 70.462045 -303.998728 
L 77.425864 -304.639941 
L 84.389682 -305.313485 
L 91.3535 -306.012085 
L 98.317318 -306.728201 
L 105.281136 -307.454247 
L 112.244955 -308.182712 
L 119.208773 -308.90632 
L 126.172591 -309.61822 
L 133.136409 -310.312096 
L 140.100227 -310.982295 
L 147.064045 -311.6239 
L 154.027864 -312.232771 
L 160.991682 -312.80556 
L 167.9555 -313.339666 
L 174.919318 -313.833207 
L 181.883136 -314.284922 
L 188.846955 -314.694091 
L 195.810773 -315.060439 
L 202.774591 -315.384039 
L 209.738409 -315.665213 
L 216.702227 -315.904443 
L 223.666045 -316.102306 
L 230.629864 -316.259389 
L 237.593682 -316.376247 
L 244.5575 -316.453361 
L 251.521318 -316.491091 
L 258.485136 -316.489677 
L 265.448955 -316.449214 
L 272.412773 -316.369673 
L 279.376591 -316.250893 
L 286.340409 -316.092616 
L 293.304227 -315.894515 
L 300.268045 -315.656234 
L 307.231864 -315.377443 
L 314.195682 -315.05788 
L 321.1595 -314.697426 
L 328.123318 -314.296147 
L 335.087136 -313.854372 
L 342.050955 -313.372737 
L 349.014773 -312.852217 
L 355.978591 -312.294165 
L 362.942409 -311.700323 
L 369.906227 -311.072782 
L 376.870045 -310.413954 
L 383.833864 -309.726505 
L 390.797682 -309.013233 
L 397.7615 -308.276993 
L 404.725318 -307.520522 
L 411.689136 -306.746337 
L 418.652955 -305.95658 
L 418.652955 -273.312909 
L 418.652955 -273.312909 
L 411.689136 -273.312909 
L 404.725318 -273.312909 
L 397.7615 -273.312909 
L 390.797682 -273.312909 
L 383.833864 -273.312909 
L 376.870045 -273.312909 
L 369.906227 -273.312909 
L 362.942409 -273.312909 
L 355.978591 -273.312909 
L 349.014773 -273.312909 
L 342.050955 -273.312909 
L 335.087136 -273.312909 
L 328.123318 -273.312909 
L 321.1595 -273.312909 
L 314.195682 -273.312909 
L 307.231864 -273.312909 
L 300.268045 -273.312909 
L 293.304227 -273.312909 
L 286.340409 -273.312909 
L 279.376591 -273.312909 
L 272.412773 -273.312909 
L 265.448955 -273.312909 
L 258.485136 -273.312909 
L 251.521318 -273.312909 
L 244.5575 -273.312909 
L 237.593682 -273.312909 
L 230.629864 -273.312909 
L 223.666045 -273.312909 
L 216.702227 -273.312909 
L 209.738409 -273.312909 
L 202.774591 -273.312909 
L 195.810773 -273.312909 
L 188.846955 -273.312909 
L 181.883136 -273.312909 
L 174.919318 -273.312909 
L 167.9555 -273.312909 
L 160.991682 -273.312909 
L 154.027864 -273.312909 
L 147.064045 -273.312909 
L 140.100227 -273.312909 
L 133.136409 -273.312909 
L 126.172591 -273.312909 
L 119.208773 -273.312909 
L 112.244955 -273.312909 
L 105.281136 -273.312909 
L 98.317318 -273.312909 
L 91.3535 -273.312909 
L 84.389682 -273.312909 
L 77.425864 -273.312909 
L 70.462045 -273.312909 
z
" style="stroke: #000080; stroke-opacity: 0.2"/>
    </defs>
    <g clip-path="url(#p12140bccdc)">
     <use xlink:href="#m7da0e7f858" x="0" y="325.85" style="fill: #000080; fill-opacity: 0.2; stroke: #000080; stroke-opacity: 0.2"/>
    </g>
   </g>
   <g id="matplotlib.axis_1"/>
   <g id="matplotlib.axis_2"/>
   <g id="line2d_1">
    <path d="M 70.462045 31.558077 
L 77.425864 32.19929 
L 84.389682 32.872834 
L 91.3535 33.571435 
L 98.317318 34.28755 
L 105.281136 35.013597 
L 112.244955 35.742062 
L 119.208773 36.46567 
L 126.172591 37.17757 
L 133.136409 37.871445 
L 140.100227 38.541644 
L 147.064045 39.183249 
L 154.027864 39.792121 
L 160.991682 40.364909 
L 167.9555 40.899016 
L 174.919318 41.392557 
L 181.883136 41.844271 
L 188.846955 42.25344 
L 195.810773 42.619788 
L 202.774591 42.943388 
L 209.738409 43.224562 
L 216.702227 43.463792 
L 223.666045 43.661655 
L 230.629864 43.818739 
L 237.593682 43.935597 
L 244.5575 44.012711 
L 251.521318 44.05044 
L 258.485136 44.049026 
L 265.448955 44.008564 
L 272.412773 43.929022 
L 279.376591 43.810243 
L 286.340409 43.651966 
L 293.304227 43.453864 
L 300.268045 43.215584 
L 307.231864 42.936792 
L 314.195682 42.617229 
L 321.1595 42.256775 
L 328.123318 41.855497 
L 335.087136 41.413721 
L 342.050955 40.932087 
L 349.014773 40.411567 
L 355.978591 39.853515 
L 362.942409 39.259673 
L 369.906227 38.632131 
L 376.870045 37.973304 
L 383.833864 37.285855 
L 390.797682 36.572583 
L 397.7615 35.836342 
L 404.725318 35.079872 
L 411.689136 34.305687 
L 418.652955 33.51593 
" clip-path="url(#p12140bccdc)" style="fill: none; stroke: #dc143c; stroke-width: 1.5; stroke-linecap: square"/>
   </g>
   <g id="line2d_2">
    <path d="M 70.462045 21.851272 
L 77.425864 21.210059 
L 84.389682 20.536515 
L 91.3535 19.837915 
L 98.317318 19.121799 
L 105.281136 18.395753 
L 112.244955 17.667288 
L 119.208773 16.94368 
L 126.172591 16.23178 
L 133.136409 15.537904 
L 140.100227 14.867705 
L 147.064045 14.2261 
L 154.027864 13.617229 
L 160.991682 13.04444 
L 167.9555 12.510334 
L 174.919318 12.016793 
L 181.883136 11.565078 
L 188.846955 11.155909 
L 195.810773 10.789561 
L 202.774591 10.465961 
L 209.738409 10.184787 
L 216.702227 9.945557 
L 223.666045 9.747694 
L 230.629864 9.590611 
L 237.593682 9.473753 
L 244.5575 9.396639 
L 251.521318 9.358909 
L 258.485136 9.360323 
L 265.448955 9.400786 
L 272.412773 9.480327 
L 279.376591 9.599107 
L 286.340409 9.757384 
L 293.304227 9.955485 
L 300.268045 10.193766 
L 307.231864 10.472557 
L 314.195682 10.79212 
L 321.1595 11.152574 
L 328.123318 11.553853 
L 335.087136 11.995628 
L 342.050955 12.477263 
L 349.014773 12.997783 
L 355.978591 13.555835 
L 362.942409 14.149677 
L 369.906227 14.777218 
L 376.870045 15.436046 
L 383.833864 16.123495 
L 390.797682 16.836767 
L 397.7615 17.573007 
L 404.725318 18.329478 
L 411.689136 19.103663 
L 418.652955 19.89342 
" clip-path="url(#p12140bccdc)" style="fill: none; stroke: #000080; stroke-width: 1.5; stroke-linecap: square"/>
   </g>
  </g>
  <g id="axes_2">
   <g id="patch_3">
    <path d="M 53.0525 165.688 
L 436.0625 165.688 
L 436.0625 70.696 
L 53.0525 70.696 
z
" style="fill: #ffffff"/>
   </g>
   <g id="PathCollection_1">
    <defs>
     <path id="m14ec9198ad" d="M 0 0.866025 
C 0.229673 0.866025 0.449969 0.774776 0.612372 0.612372 
C 0.774776 0.449969 0.866025 0.229673 0.866025 0 
C 0.866025 -0.229673 0.774776 -0.449969 0.612372 -0.612372 
C 0.449969 -0.774776 0.229673 -0.866025 0 -0.866025 
C -0.229673 -0.866025 -0.449969 -0.774776 -0.612372 -0.612372 
C -0.774776 -0.449969 -0.866025 -0.229673 -0.866025 0 
C -0.866025 0.229673 -0.774776 0.449969 -0.612372 0.612372 
C -0.449969 0.774776 -0.229673 0.866025 0 0.866025 
z
" style="stroke: #daa520"/>
    </defs>
    <g clip-path="url(#p829b87e592)">
     <use xlink:href="#m14ec9198ad" x="406.210749" y="117.5622" style="fill: #daa520; stroke: #daa520"/>
     <use xlink:href="#m14ec9198ad" x="86.322327" y="137.137559" style="fill: #daa520; stroke: #daa520"/>
     <use xlink:href="#m14ec9198ad" x="400.182503" y="120.356258" style="fill: #daa520; stroke: #daa520"/>
     <use xlink:href="#m14ec9198ad" x="142.203556" y="116.856624" style="fill: #daa520; stroke: #daa520"/>
     <use xlink:href="#m14ec9198ad" x="417.068178" y="93.088157" style="fill: #daa520; stroke: #daa520"/>
     <use xlink:href="#m14ec9198ad" x="330.368765" y="123.108433" style="fill: #daa520; stroke: #daa520"/>
     <use xlink:href="#m14ec9198ad" x="107.978107" y="152.931545" style="fill: #daa520; stroke: #daa520"/>
     <use xlink:href="#m14ec9198ad" x="336.006728" y="88.01307" style="fill: #daa520; stroke: #daa520"/>
     <use xlink:href="#m14ec9198ad" x="97.709141" y="147.672052" style="fill: #daa520; stroke: #daa520"/>
     <use xlink:href="#m14ec9198ad" x="405.131475" y="109.518373" style="fill: #daa520; stroke: #daa520"/>
     <use xlink:href="#m14ec9198ad" x="196.771715" y="145.890672" style="fill: #daa520; stroke: #daa520"/>
     <use xlink:href="#m14ec9198ad" x="368.022706" y="130.358343" style="fill: #daa520; stroke: #daa520"/>
     <use xlink:href="#m14ec9198ad" x="133.721355" y="131.758639" style="fill: #daa520; stroke: #daa520"/>
     <use xlink:href="#m14ec9198ad" x="208.750231" y="156.789578" style="fill: #daa520; stroke: #daa520"/>
     <use xlink:href="#m14ec9198ad" x="166.268758" y="141.2897" style="fill: #daa520; stroke: #daa520"/>
     <use xlink:href="#m14ec9198ad" x="370.2642" y="130.688417" style="fill: #daa520; stroke: #daa520"/>
     <use xlink:href="#m14ec9198ad" x="101.787047" y="127.496046" style="fill: #daa520; stroke: #daa520"/>
     <use xlink:href="#m14ec9198ad" x="205.683765" y="161.370182" style="fill: #daa520; stroke: #daa520"/>
     <use xlink:href="#m14ec9198ad" x="300.589705" y="78.299821" style="fill: #daa520; stroke: #daa520"/>
     <use xlink:href="#m14ec9198ad" x="204.463765" y="101.596951" style="fill: #daa520; stroke: #daa520"/>
     <use xlink:href="#m14ec9198ad" x="133.703491" y="122.504246" style="fill: #daa520; stroke: #daa520"/>
     <use xlink:href="#m14ec9198ad" x="414.532596" y="126.018144" style="fill: #daa520; stroke: #daa520"/>
     <use xlink:href="#m14ec9198ad" x="107.067657" y="100.419328" style="fill: #daa520; stroke: #daa520"/>
     <use xlink:href="#m14ec9198ad" x="414.162335" y="76.125797" style="fill: #daa520; stroke: #daa520"/>
     <use xlink:href="#m14ec9198ad" x="358.80915" y="98.775415" style="fill: #daa520; stroke: #daa520"/>
     <use xlink:href="#m14ec9198ad" x="143.690971" y="142.11675" style="fill: #daa520; stroke: #daa520"/>
     <use xlink:href="#m14ec9198ad" x="349.861227" y="93.042904" style="fill: #daa520; stroke: #daa520"/>
     <use xlink:href="#m14ec9198ad" x="383.109906" y="106.059214" style="fill: #daa520; stroke: #daa520"/>
     <use xlink:href="#m14ec9198ad" x="125.856631" y="152.339574" style="fill: #daa520; stroke: #daa520"/>
     <use xlink:href="#m14ec9198ad" x="86.592696" y="138.038507" style="fill: #daa520; stroke: #daa520"/>
     <use xlink:href="#m14ec9198ad" x="291.298538" y="143.332549" style="fill: #daa520; stroke: #daa520"/>
     <use xlink:href="#m14ec9198ad" x="407.260305" y="115.798333" style="fill: #daa520; stroke: #daa520"/>
     <use xlink:href="#m14ec9198ad" x="157.722584" y="140.008452" style="fill: #daa520; stroke: #daa520"/>
     <use xlink:href="#m14ec9198ad" x="384.571882" y="88.792339" style="fill: #daa520; stroke: #daa520"/>
     <use xlink:href="#m14ec9198ad" x="415.53562" y="119.979807" style="fill: #daa520; stroke: #daa520"/>
     <use xlink:href="#m14ec9198ad" x="294.871293" y="85.455921" style="fill: #daa520; stroke: #daa520"/>
     <use xlink:href="#m14ec9198ad" x="89.967285" y="149.912872" style="fill: #daa520; stroke: #daa520"/>
     <use xlink:href="#m14ec9198ad" x="373.002155" y="117.393724" style="fill: #daa520; stroke: #daa520"/>
     <use xlink:href="#m14ec9198ad" x="345.549284" y="127.145986" style="fill: #daa520; stroke: #daa520"/>
     <use xlink:href="#m14ec9198ad" x="142.160137" y="115.924377" style="fill: #daa520; stroke: #daa520"/>
     <use xlink:href="#m14ec9198ad" x="150.51174" y="113.067878" style="fill: #daa520; stroke: #daa520"/>
     <use xlink:href="#m14ec9198ad" x="348.273998" y="131.744132" style="fill: #daa520; stroke: #daa520"/>
     <use xlink:href="#m14ec9198ad" x="364.680455" y="123.045183" style="fill: #daa520; stroke: #daa520"/>
     <use xlink:href="#m14ec9198ad" x="210.482499" y="102.137771" style="fill: #daa520; stroke: #daa520"/>
     <use xlink:href="#m14ec9198ad" x="150.040782" y="121.305896" style="fill: #daa520; stroke: #daa520"/>
     <use xlink:href="#m14ec9198ad" x="407.73577" y="118.260245" style="fill: #daa520; stroke: #daa520"/>
     <use xlink:href="#m14ec9198ad" x="180.009884" y="100.874847" style="fill: #daa520; stroke: #daa520"/>
     <use xlink:href="#m14ec9198ad" x="89.134175" y="131.191539" style="fill: #daa520; stroke: #daa520"/>
     <use xlink:href="#m14ec9198ad" x="324.592497" y="102.850556" style="fill: #daa520; stroke: #daa520"/>
     <use xlink:href="#m14ec9198ad" x="408.460484" y="119.316906" style="fill: #daa520; stroke: #daa520"/>
     <use xlink:href="#m14ec9198ad" x="373.328465" y="108.130897" style="fill: #daa520; stroke: #daa520"/>
     <use xlink:href="#m14ec9198ad" x="108.708521" y="133.451672" style="fill: #daa520; stroke: #daa520"/>
     <use xlink:href="#m14ec9198ad" x="167.063138" y="152.945841" style="fill: #daa520; stroke: #daa520"/>
     <use xlink:href="#m14ec9198ad" x="390.578222" y="102.000106" style="fill: #daa520; stroke: #daa520"/>
     <use xlink:href="#m14ec9198ad" x="114.104129" y="126.476555" style="fill: #daa520; stroke: #daa520"/>
     <use xlink:href="#m14ec9198ad" x="168.033223" y="100.300863" style="fill: #daa520; stroke: #daa520"/>
     <use xlink:href="#m14ec9198ad" x="197.467936" y="88.996964" style="fill: #daa520; stroke: #daa520"/>
     <use xlink:href="#m14ec9198ad" x="82.503905" y="126.855879" style="fill: #daa520; stroke: #daa520"/>
     <use xlink:href="#m14ec9198ad" x="94.109568" y="147.383716" style="fill: #daa520; stroke: #daa520"/>
     <use xlink:href="#m14ec9198ad" x="104.544564" y="155.595857" style="fill: #daa520; stroke: #daa520"/>
     <use xlink:href="#m14ec9198ad" x="184.698055" y="92.790712" style="fill: #daa520; stroke: #daa520"/>
     <use xlink:href="#m14ec9198ad" x="100.880837" y="127.912432" style="fill: #daa520; stroke: #daa520"/>
     <use xlink:href="#m14ec9198ad" x="138.181873" y="128.117803" style="fill: #daa520; stroke: #daa520"/>
     <use xlink:href="#m14ec9198ad" x="227.09124" y="95.997488" style="fill: #daa520; stroke: #daa520"/>
     <use xlink:href="#m14ec9198ad" x="73.866525" y="110.236507" style="fill: #daa520; stroke: #daa520"/>
     <use xlink:href="#m14ec9198ad" x="348.610339" y="92.840571" style="fill: #daa520; stroke: #daa520"/>
     <use xlink:href="#m14ec9198ad" x="263.654572" y="86.076054" style="fill: #daa520; stroke: #daa520"/>
     <use xlink:href="#m14ec9198ad" x="283.026923" y="144.866606" style="fill: #daa520; stroke: #daa520"/>
     <use xlink:href="#m14ec9198ad" x="249.737192" y="75.013818" style="fill: #daa520; stroke: #daa520"/>
     <use xlink:href="#m14ec9198ad" x="88.384761" y="127.219696" style="fill: #daa520; stroke: #daa520"/>
     <use xlink:href="#m14ec9198ad" x="284.065217" y="144.086283" style="fill: #daa520; stroke: #daa520"/>
     <use xlink:href="#m14ec9198ad" x="408.442362" y="126.888185" style="fill: #daa520; stroke: #daa520"/>
     <use xlink:href="#m14ec9198ad" x="358.974902" y="116.549148" style="fill: #daa520; stroke: #daa520"/>
     <use xlink:href="#m14ec9198ad" x="131.546595" y="141.395165" style="fill: #daa520; stroke: #daa520"/>
     <use xlink:href="#m14ec9198ad" x="390.192785" y="124.22369" style="fill: #daa520; stroke: #daa520"/>
     <use xlink:href="#m14ec9198ad" x="97.354675" y="122.52368" style="fill: #daa520; stroke: #daa520"/>
     <use xlink:href="#m14ec9198ad" x="74.885254" y="149.228188" style="fill: #daa520; stroke: #daa520"/>
     <use xlink:href="#m14ec9198ad" x="302.205724" y="77.44199" style="fill: #daa520; stroke: #daa520"/>
     <use xlink:href="#m14ec9198ad" x="155.331334" y="156.050545" style="fill: #daa520; stroke: #daa520"/>
     <use xlink:href="#m14ec9198ad" x="376.029116" y="109.10935" style="fill: #daa520; stroke: #daa520"/>
     <use xlink:href="#m14ec9198ad" x="115.251774" y="121.98878" style="fill: #daa520; stroke: #daa520"/>
     <use xlink:href="#m14ec9198ad" x="398.425329" y="115.236512" style="fill: #daa520; stroke: #daa520"/>
     <use xlink:href="#m14ec9198ad" x="122.165783" y="133.115881" style="fill: #daa520; stroke: #daa520"/>
     <use xlink:href="#m14ec9198ad" x="266.890537" y="108.924007" style="fill: #daa520; stroke: #daa520"/>
     <use xlink:href="#m14ec9198ad" x="180.998752" y="113.670657" style="fill: #daa520; stroke: #daa520"/>
     <use xlink:href="#m14ec9198ad" x="352.144716" y="95.730604" style="fill: #daa520; stroke: #daa520"/>
     <use xlink:href="#m14ec9198ad" x="200.528067" y="90.167716" style="fill: #daa520; stroke: #daa520"/>
     <use xlink:href="#m14ec9198ad" x="335.074425" y="122.01118" style="fill: #daa520; stroke: #daa520"/>
     <use xlink:href="#m14ec9198ad" x="214.333828" y="104.115535" style="fill: #daa520; stroke: #daa520"/>
     <use xlink:href="#m14ec9198ad" x="101.67371" y="150.299285" style="fill: #daa520; stroke: #daa520"/>
     <use xlink:href="#m14ec9198ad" x="379.391775" y="122.397812" style="fill: #daa520; stroke: #daa520"/>
     <use xlink:href="#m14ec9198ad" x="313.172645" y="90.755741" style="fill: #daa520; stroke: #daa520"/>
     <use xlink:href="#m14ec9198ad" x="81.865299" y="137.733801" style="fill: #daa520; stroke: #daa520"/>
     <use xlink:href="#m14ec9198ad" x="133.224538" y="114.915921" style="fill: #daa520; stroke: #daa520"/>
     <use xlink:href="#m14ec9198ad" x="234.961287" y="78.65546" style="fill: #daa520; stroke: #daa520"/>
    </g>
   </g>
   <g id="matplotlib.axis_3"/>
   <g id="matplotlib.axis_4">
    <g id="ytick_1">
     <g id="line2d_3">
      <defs>
       <path id="mcb6ae5952f" d="M 0 0 
L -3.5 0 
" style="stroke: #696969; stroke-width: 0.8"/>
      </defs>
      <g>
       <use xlink:href="#mcb6ae5952f" x="53.0525" y="151.542961" style="fill: #696969; stroke: #696969; stroke-width: 0.8"/>
      </g>
     </g>
     <g id="text_1">
      <!-- −2.5 -->
      <g style="fill: #696969" transform="translate(7.2 157.621711) scale(0.16 -0.16)">
       <defs>
        <path id="DejaVuSans-2212" d="M 678 2272 
L 4684 2272 
L 4684 1741 
L 678 1741 
L 678 2272 
z
" transform="scale(0.015625)"/>
        <path id="DejaVuSans-32" d="M 1228 531 
L 3431 531 
L 3431 0 
L 469 0 
L 469 531 
Q 828 903 1448 1529 
Q 2069 2156 2228 2338 
Q 2531 2678 2651 2914 
Q 2772 3150 2772 3378 
Q 2772 3750 2511 3984 
Q 2250 4219 1831 4219 
Q 1534 4219 1204 4116 
Q 875 4013 500 3803 
L 500 4441 
Q 881 4594 1212 4672 
Q 1544 4750 1819 4750 
Q 2544 4750 2975 4387 
Q 3406 4025 3406 3419 
Q 3406 3131 3298 2873 
Q 3191 2616 2906 2266 
Q 2828 2175 2409 1742 
Q 1991 1309 1228 531 
z
" transform="scale(0.015625)"/>
        <path id="DejaVuSans-2e" d="M 684 794 
L 1344 794 
L 1344 0 
L 684 0 
L 684 794 
z
" transform="scale(0.015625)"/>
        <path id="DejaVuSans-35" d="M 691 4666 
L 3169 4666 
L 3169 4134 
L 1269 4134 
L 1269 2991 
Q 1406 3038 1543 3061 
Q 1681 3084 1819 3084 
Q 2600 3084 3056 2656 
Q 3513 2228 3513 1497 
Q 3513 744 3044 326 
Q 2575 -91 1722 -91 
Q 1428 -91 1123 -41 
Q 819 9 494 109 
L 494 744 
Q 775 591 1075 516 
Q 1375 441 1709 441 
Q 2250 441 2565 725 
Q 2881 1009 2881 1497 
Q 2881 1984 2565 2268 
Q 2250 2553 1709 2553 
Q 1456 2553 1204 2497 
Q 953 2441 691 2322 
L 691 4666 
z
" transform="scale(0.015625)"/>
       </defs>
       <use xlink:href="#DejaVuSans-2212"/>
       <use xlink:href="#DejaVuSans-32" x="83.789062"/>
       <use xlink:href="#DejaVuSans-2e" x="147.412109"/>
       <use xlink:href="#DejaVuSans-35" x="179.199219"/>
      </g>
     </g>
    </g>
    <g id="ytick_2">
     <g id="line2d_4">
      <g>
       <use xlink:href="#mcb6ae5952f" x="53.0525" y="122.482078" style="fill: #696969; stroke: #696969; stroke-width: 0.8"/>
      </g>
     </g>
     <g id="text_2">
      <!-- 0.0 -->
      <g style="fill: #696969" transform="translate(20.6075 128.560828) scale(0.16 -0.16)">
       <defs>
        <path id="DejaVuSans-30" d="M 2034 4250 
Q 1547 4250 1301 3770 
Q 1056 3291 1056 2328 
Q 1056 1369 1301 889 
Q 1547 409 2034 409 
Q 2525 409 2770 889 
Q 3016 1369 3016 2328 
Q 3016 3291 2770 3770 
Q 2525 4250 2034 4250 
z
M 2034 4750 
Q 2819 4750 3233 4129 
Q 3647 3509 3647 2328 
Q 3647 1150 3233 529 
Q 2819 -91 2034 -91 
Q 1250 -91 836 529 
Q 422 1150 422 2328 
Q 422 3509 836 4129 
Q 1250 4750 2034 4750 
z
" transform="scale(0.015625)"/>
       </defs>
       <use xlink:href="#DejaVuSans-30"/>
       <use xlink:href="#DejaVuSans-2e" x="63.623047"/>
       <use xlink:href="#DejaVuSans-30" x="95.410156"/>
      </g>
     </g>
    </g>
    <g id="ytick_3">
     <g id="line2d_5">
      <g>
       <use xlink:href="#mcb6ae5952f" x="53.0525" y="93.421195" style="fill: #696969; stroke: #696969; stroke-width: 0.8"/>
      </g>
     </g>
     <g id="text_3">
      <!-- 2.5 -->
      <g style="fill: #696969" transform="translate(20.6075 99.499945) scale(0.16 -0.16)">
       <use xlink:href="#DejaVuSans-32"/>
       <use xlink:href="#DejaVuSans-2e" x="63.623047"/>
       <use xlink:href="#DejaVuSans-35" x="95.410156"/>
      </g>
     </g>
    </g>
   </g>
   <g id="line2d_6">
    <path d="M 70.462045 133.111705 
L 77.425864 133.62116 
L 84.389682 134.026171 
L 91.3535 134.312941 
L 98.317318 134.473061 
L 105.281136 134.50301 
L 112.244955 134.403245 
L 119.208773 134.177032 
L 126.172591 133.82926 
L 133.136409 133.36533 
L 140.100227 132.790355 
L 147.064045 132.108731 
L 154.027864 131.324116 
L 160.991682 130.439816 
L 167.9555 129.459507 
L 174.919318 128.388103 
L 181.883136 127.232705 
L 188.846955 126.003368 
L 195.810773 124.713666 
L 202.774591 123.380809 
L 209.738409 122.025385 
L 216.702227 120.670645 
L 223.666045 119.34146 
L 230.629864 118.062996 
L 237.593682 116.859319 
L 244.5575 115.752032 
L 251.521318 114.759122 
L 258.485136 113.894097 
L 265.448955 113.165575 
L 272.412773 112.577211 
L 279.376591 112.128056 
L 286.340409 111.813193 
L 293.304227 111.62458 
L 300.268045 111.551933 
L 307.231864 111.583551 
L 314.195682 111.706984 
L 321.1595 111.909427 
L 328.123318 112.177858 
L 335.087136 112.498946 
L 342.050955 112.858736 
L 349.014773 113.242302 
L 355.978591 113.633406 
L 362.942409 114.014302 
L 369.906227 114.365826 
L 376.870045 114.667781 
L 383.833864 114.899665 
L 390.797682 115.04172 
L 397.7615 115.076171 
L 404.725318 114.988607 
L 411.689136 114.76926 
L 418.652955 114.414073 
" clip-path="url(#p829b87e592)" style="fill: none; stroke: #000000; stroke-width: 2; stroke-linecap: square"/>
   </g>
   <g id="line2d_7">
    <path d="M 70.462045 130.441962 
L 77.425864 132.691997 
L 84.389682 134.266249 
L 91.3535 135.232204 
L 98.317318 135.654616 
L 105.281136 135.595518 
L 112.244955 135.11421 
L 119.208773 134.26727 
L 126.172591 133.108544 
L 133.136409 131.689155 
L 140.100227 130.057497 
L 147.064045 128.259238 
L 154.027864 126.337317 
L 160.991682 124.331948 
L 167.9555 122.280616 
L 174.919318 120.218081 
L 181.883136 118.176375 
L 188.846955 116.184802 
L 195.810773 114.26994 
L 202.774591 112.45564 
L 209.738409 110.763026 
L 216.702227 109.210493 
L 223.666045 107.813711 
L 230.629864 106.585623 
L 237.593682 105.536444 
L 244.5575 104.673662 
L 251.521318 104.002037 
L 258.485136 103.523605 
L 265.448955 103.237672 
L 272.412773 103.140818 
L 279.376591 103.226896 
L 286.340409 103.487031 
L 293.304227 103.909622 
L 300.268045 104.48034 
L 307.231864 105.18213 
L 314.195682 105.99521 
L 321.1595 106.89707 
L 328.123318 107.862472 
L 335.087136 108.863453 
L 342.050955 109.869323 
L 349.014773 110.846662 
L 355.978591 111.759327 
L 362.942409 112.568444 
L 369.906227 113.232415 
L 376.870045 113.706913 
L 383.833864 113.944885 
L 390.797682 113.89655 
L 397.7615 113.5094 
L 404.725318 112.728202 
L 411.689136 111.494994 
L 418.652955 109.749085 
" clip-path="url(#p829b87e592)" style="fill: none; stroke-dasharray: 7.4,3.2; stroke-dashoffset: 0; stroke: #34b6c6; stroke-width: 2"/>
   </g>
   <g id="line2d_8">
    <path d="M 70.462045 136.518475 
L 77.425864 135.872312 
L 84.389682 135.228104 
L 91.3535 134.580393 
L 98.317318 133.922214 
L 105.281136 133.244951 
L 112.244955 132.538239 
L 119.208773 131.789975 
L 126.172591 130.986489 
L 133.136409 130.112959 
L 140.100227 129.154123 
L 147.064045 128.095311 
L 154.027864 126.923751 
L 160.991682 125.630032 
L 167.9555 124.209542 
L 174.919318 122.663736 
L 181.883136 121.001161 
L 188.846955 119.238194 
L 195.810773 117.399462 
L 202.774591 115.517772 
L 209.738409 113.633264 
L 216.702227 111.791553 
L 223.666045 110.040802 
L 230.629864 108.428008 
L 237.593682 106.995068 
L 244.5575 105.775357 
L 251.521318 104.79146 
L 258.485136 104.05439 
L 265.448955 103.564228 
L 272.412773 103.311779 
L 279.376591 103.280675 
L 286.340409 103.449429 
L 293.304227 103.793139 
L 300.268045 104.284771 
L 307.231864 104.896096 
L 314.195682 105.598474 
L 321.1595 106.363602 
L 328.123318 107.164295 
L 335.087136 107.975263 
L 342.050955 108.773778 
L 349.014773 109.540125 
L 355.978591 110.257773 
L 362.942409 110.913273 
L 369.906227 111.495931 
L 376.870045 111.99734 
L 383.833864 112.410864 
L 390.797682 112.731138 
L 397.7615 112.953622 
L 404.725318 113.074239 
L 411.689136 113.089088 
L 418.652955 112.994241 
" clip-path="url(#p829b87e592)" style="fill: none; stroke-dasharray: 7.4,3.2; stroke-dashoffset: 0; stroke: #9370db; stroke-width: 2"/>
   </g>
   <g id="line2d_9">
    <path d="M 70.462045 134.395243 
L 77.425864 134.634904 
L 84.389682 134.843435 
L 91.3535 135.013632 
L 98.317318 135.137008 
L 105.281136 135.203649 
L 112.244955 135.202122 
L 119.208773 135.119484 
L 126.172591 134.941447 
L 133.136409 134.652786 
L 140.100227 134.238023 
L 147.064045 133.682437 
L 154.027864 132.973331 
L 160.991682 132.101451 
L 167.9555 131.062384 
L 174.919318 129.857795 
L 181.883136 128.496417 
L 188.846955 126.994768 
L 195.810773 125.377565 
L 202.774591 123.677652 
L 209.738409 121.935174 
L 216.702227 120.195779 
L 223.666045 118.507767 
L 230.629864 116.918486 
L 237.593682 115.470504 
L 244.5575 114.198293 
L 251.521318 113.126015 
L 258.485136 112.266767 
L 265.448955 111.623207 
L 272.412773 111.189154 
L 279.376591 110.951636 
L 286.340409 110.89289 
L 293.304227 110.992011 
L 300.268045 111.2262 
L 307.231864 111.571681 
L 314.195682 112.004452 
L 321.1595 112.50102 
L 328.123318 113.039157 
L 335.087136 113.598657 
L 342.050955 114.16198 
L 349.014773 114.714693 
L 355.978591 115.245637 
L 362.942409 115.746827 
L 369.906227 116.213132 
L 376.870045 116.641823 
L 383.833864 117.032073 
L 390.797682 117.384465 
L 397.7615 117.700567 
L 404.725318 117.982572 
L 411.689136 118.233026 
L 418.652955 118.454626 
" clip-path="url(#p829b87e592)" style="fill: none; stroke-dasharray: 12.8,3.2,2,3.2; stroke-dashoffset: 0; stroke: #ff0000; stroke-width: 2"/>
   </g>
   <g id="patch_4">
    <path d="M 53.0525 165.688 
L 53.0525 70.696 
" style="fill: none; stroke: #000000; stroke-width: 0.8; stroke-linejoin: miter; stroke-linecap: square"/>
   </g>
   <g id="patch_5">
    <path d="M 436.0625 165.688 
L 436.0625 70.696 
" style="fill: none; stroke: #000000; stroke-width: 0.8; stroke-linejoin: miter; stroke-linecap: square"/>
   </g>
   <g id="patch_6">
    <path d="M 53.0525 165.688 
L 436.0625 165.688 
" style="fill: none; stroke: #000000; stroke-width: 0.8; stroke-linejoin: miter; stroke-linecap: square"/>
   </g>
   <g id="patch_7">
    <path d="M 53.0525 70.696 
L 436.0625 70.696 
" style="fill: none; stroke: #000000; stroke-width: 0.8; stroke-linejoin: miter; stroke-linecap: square"/>
   </g>
  </g>
  <g id="axes_3">
   <g id="patch_8">
    <path d="M 53.0525 276.68 
L 436.0625 276.68 
L 436.0625 181.688 
L 53.0525 181.688 
z
" style="fill: #ffffff"/>
   </g>
   <g id="PathCollection_2">
    <g clip-path="url(#p158e321e44)">
     <use xlink:href="#m14ec9198ad" x="406.210749" y="227.674189" style="fill: #daa520; stroke: #daa520"/>
     <use xlink:href="#m14ec9198ad" x="86.322327" y="224.761185" style="fill: #daa520; stroke: #daa520"/>
     <use xlink:href="#m14ec9198ad" x="400.182503" y="224.427788" style="fill: #daa520; stroke: #daa520"/>
     <use xlink:href="#m14ec9198ad" x="142.203556" y="245.621828" style="fill: #daa520; stroke: #daa520"/>
     <use xlink:href="#m14ec9198ad" x="417.068178" y="254.288186" style="fill: #daa520; stroke: #daa520"/>
     <use xlink:href="#m14ec9198ad" x="330.368765" y="216.568115" style="fill: #daa520; stroke: #daa520"/>
     <use xlink:href="#m14ec9198ad" x="107.978107" y="208.18024" style="fill: #daa520; stroke: #daa520"/>
     <use xlink:href="#m14ec9198ad" x="336.006728" y="254.654224" style="fill: #daa520; stroke: #daa520"/>
     <use xlink:href="#m14ec9198ad" x="97.709141" y="213.725441" style="fill: #daa520; stroke: #daa520"/>
     <use xlink:href="#m14ec9198ad" x="405.131475" y="236.248336" style="fill: #daa520; stroke: #daa520"/>
     <use xlink:href="#m14ec9198ad" x="196.771715" y="204.940684" style="fill: #daa520; stroke: #daa520"/>
     <use xlink:href="#m14ec9198ad" x="368.022706" y="211.878487" style="fill: #daa520; stroke: #daa520"/>
     <use xlink:href="#m14ec9198ad" x="133.721355" y="230.232539" style="fill: #daa520; stroke: #daa520"/>
     <use xlink:href="#m14ec9198ad" x="208.750231" y="190.089266" style="fill: #daa520; stroke: #daa520"/>
     <use xlink:href="#m14ec9198ad" x="166.268758" y="216.493149" style="fill: #daa520; stroke: #daa520"/>
     <use xlink:href="#m14ec9198ad" x="370.2642" y="211.6807" style="fill: #daa520; stroke: #daa520"/>
     <use xlink:href="#m14ec9198ad" x="101.787047" y="235.393725" style="fill: #daa520; stroke: #daa520"/>
     <use xlink:href="#m14ec9198ad" x="205.683765" y="186.005818" style="fill: #daa520; stroke: #daa520"/>
     <use xlink:href="#m14ec9198ad" x="300.589705" y="262.453451" style="fill: #daa520; stroke: #daa520"/>
     <use xlink:href="#m14ec9198ad" x="204.463765" y="250.369112" style="fill: #daa520; stroke: #daa520"/>
     <use xlink:href="#m14ec9198ad" x="133.703491" y="240.14801" style="fill: #daa520; stroke: #daa520"/>
     <use xlink:href="#m14ec9198ad" x="414.532596" y="218.923958" style="fill: #daa520; stroke: #daa520"/>
     <use xlink:href="#m14ec9198ad" x="107.067657" y="264.436319" style="fill: #daa520; stroke: #daa520"/>
     <use xlink:href="#m14ec9198ad" x="414.162335" y="272.362182" style="fill: #daa520; stroke: #daa520"/>
     <use xlink:href="#m14ec9198ad" x="358.80915" y="245.031324" style="fill: #daa520; stroke: #daa520"/>
     <use xlink:href="#m14ec9198ad" x="143.690971" y="218.436023" style="fill: #daa520; stroke: #daa520"/>
     <use xlink:href="#m14ec9198ad" x="349.861227" y="250.452023" style="fill: #daa520; stroke: #daa520"/>
     <use xlink:href="#m14ec9198ad" x="383.109906" y="238.877828" style="fill: #daa520; stroke: #daa520"/>
     <use xlink:href="#m14ec9198ad" x="125.856631" y="208.535869" style="fill: #daa520; stroke: #daa520"/>
     <use xlink:href="#m14ec9198ad" x="86.592696" y="223.803419" style="fill: #daa520; stroke: #daa520"/>
     <use xlink:href="#m14ec9198ad" x="291.298538" y="192.470039" style="fill: #daa520; stroke: #daa520"/>
     <use xlink:href="#m14ec9198ad" x="407.260305" y="229.605331" style="fill: #daa520; stroke: #daa520"/>
     <use xlink:href="#m14ec9198ad" x="157.722584" y="219.15352" style="fill: #daa520; stroke: #daa520"/>
     <use xlink:href="#m14ec9198ad" x="384.571882" y="257.459763" style="fill: #daa520; stroke: #daa520"/>
     <use xlink:href="#m14ec9198ad" x="415.53562" y="225.427253" style="fill: #daa520; stroke: #daa520"/>
     <use xlink:href="#m14ec9198ad" x="294.871293" y="254.566104" style="fill: #daa520; stroke: #daa520"/>
     <use xlink:href="#m14ec9198ad" x="89.967285" y="211.169292" style="fill: #daa520; stroke: #daa520"/>
     <use xlink:href="#m14ec9198ad" x="373.002155" y="226.108307" style="fill: #daa520; stroke: #daa520"/>
     <use xlink:href="#m14ec9198ad" x="345.549284" y="213.553457" style="fill: #daa520; stroke: #daa520"/>
     <use xlink:href="#m14ec9198ad" x="142.160137" y="246.624081" style="fill: #daa520; stroke: #daa520"/>
     <use xlink:href="#m14ec9198ad" x="150.51174" y="248.893966" style="fill: #daa520; stroke: #daa520"/>
     <use xlink:href="#m14ec9198ad" x="348.273998" y="208.857698" style="fill: #daa520; stroke: #daa520"/>
     <use xlink:href="#m14ec9198ad" x="364.680455" y="219.47327" style="fill: #daa520; stroke: #daa520"/>
     <use xlink:href="#m14ec9198ad" x="210.482499" y="248.173185" style="fill: #daa520; stroke: #daa520"/>
     <use xlink:href="#m14ec9198ad" x="150.040782" y="240.119257" style="fill: #daa520; stroke: #daa520"/>
     <use xlink:href="#m14ec9198ad" x="407.73577" y="226.986355" style="fill: #daa520; stroke: #daa520"/>
     <use xlink:href="#m14ec9198ad" x="180.009884" y="257.163593" style="fill: #daa520; stroke: #daa520"/>
     <use xlink:href="#m14ec9198ad" x="89.134175" y="231.205446" style="fill: #daa520; stroke: #daa520"/>
     <use xlink:href="#m14ec9198ad" x="324.592497" y="237.782716" style="fill: #daa520; stroke: #daa520"/>
     <use xlink:href="#m14ec9198ad" x="408.460484" y="225.882289" style="fill: #daa520; stroke: #daa520"/>
     <use xlink:href="#m14ec9198ad" x="373.328465" y="236.05341" style="fill: #daa520; stroke: #daa520"/>
     <use xlink:href="#m14ec9198ad" x="108.708521" y="229.049947" style="fill: #daa520; stroke: #daa520"/>
     <use xlink:href="#m14ec9198ad" x="167.063138" y="203.872177" style="fill: #daa520; stroke: #daa520"/>
     <use xlink:href="#m14ec9198ad" x="390.578222" y="243.634248" style="fill: #daa520; stroke: #daa520"/>
     <use xlink:href="#m14ec9198ad" x="114.104129" y="236.497273" style="fill: #daa520; stroke: #daa520"/>
     <use xlink:href="#m14ec9198ad" x="168.033223" y="260.106078" style="fill: #daa520; stroke: #daa520"/>
     <use xlink:href="#m14ec9198ad" x="197.467936" y="265.712552" style="fill: #daa520; stroke: #daa520"/>
     <use xlink:href="#m14ec9198ad" x="82.503905" y="235.664357" style="fill: #daa520; stroke: #daa520"/>
     <use xlink:href="#m14ec9198ad" x="94.109568" y="213.970317" style="fill: #daa520; stroke: #daa520"/>
     <use xlink:href="#m14ec9198ad" x="104.544564" y="205.312809" style="fill: #daa520; stroke: #daa520"/>
     <use xlink:href="#m14ec9198ad" x="184.698055" y="264.78286" style="fill: #daa520; stroke: #daa520"/>
     <use xlink:href="#m14ec9198ad" x="100.880837" y="234.937709" style="fill: #daa520; stroke: #daa520"/>
     <use xlink:href="#m14ec9198ad" x="138.181873" y="233.857439" style="fill: #daa520; stroke: #daa520"/>
     <use xlink:href="#m14ec9198ad" x="227.09124" y="250.426061" style="fill: #daa520; stroke: #daa520"/>
     <use xlink:href="#m14ec9198ad" x="73.866525" y="253.175024" style="fill: #daa520; stroke: #daa520"/>
     <use xlink:href="#m14ec9198ad" x="348.610339" y="250.564351" style="fill: #daa520; stroke: #daa520"/>
     <use xlink:href="#m14ec9198ad" x="263.654572" y="254.688998" style="fill: #daa520; stroke: #daa520"/>
     <use xlink:href="#m14ec9198ad" x="283.026923" y="190.774315" style="fill: #daa520; stroke: #daa520"/>
     <use xlink:href="#m14ec9198ad" x="249.737192" y="268.267413" style="fill: #daa520; stroke: #daa520"/>
     <use xlink:href="#m14ec9198ad" x="88.384761" y="235.441555" style="fill: #daa520; stroke: #daa520"/>
     <use xlink:href="#m14ec9198ad" x="284.065217" y="191.603696" style="fill: #daa520; stroke: #daa520"/>
     <use xlink:href="#m14ec9198ad" x="408.442362" y="217.770278" style="fill: #daa520; stroke: #daa520"/>
     <use xlink:href="#m14ec9198ad" x="358.974902" y="226.002695" style="fill: #daa520; stroke: #daa520"/>
     <use xlink:href="#m14ec9198ad" x="131.546595" y="220.022473" style="fill: #daa520; stroke: #daa520"/>
     <use xlink:href="#m14ec9198ad" x="390.192785" y="219.805591" style="fill: #daa520; stroke: #daa520"/>
     <use xlink:href="#m14ec9198ad" x="97.354675" y="240.661953" style="fill: #daa520; stroke: #daa520"/>
     <use xlink:href="#m14ec9198ad" x="74.885254" y="211.439504" style="fill: #daa520; stroke: #daa520"/>
     <use xlink:href="#m14ec9198ad" x="302.205724" y="263.449918" style="fill: #daa520; stroke: #daa520"/>
     <use xlink:href="#m14ec9198ad" x="155.331334" y="202.279265" style="fill: #daa520; stroke: #daa520"/>
     <use xlink:href="#m14ec9198ad" x="376.029116" y="235.180328" style="fill: #daa520; stroke: #daa520"/>
     <use xlink:href="#m14ec9198ad" x="115.251774" y="241.292972" style="fill: #daa520; stroke: #daa520"/>
     <use xlink:href="#m14ec9198ad" x="398.425329" y="229.834002" style="fill: #daa520; stroke: #daa520"/>
     <use xlink:href="#m14ec9198ad" x="122.165783" y="229.242798" style="fill: #daa520; stroke: #daa520"/>
     <use xlink:href="#m14ec9198ad" x="266.890537" y="229.941267" style="fill: #daa520; stroke: #daa520"/>
     <use xlink:href="#m14ec9198ad" x="180.998752" y="243.241106" style="fill: #daa520; stroke: #daa520"/>
     <use xlink:href="#m14ec9198ad" x="352.144716" y="247.76116" style="fill: #daa520; stroke: #daa520"/>
     <use xlink:href="#m14ec9198ad" x="200.528067" y="263.658667" style="fill: #daa520; stroke: #daa520"/>
     <use xlink:href="#m14ec9198ad" x="335.074425" y="218.150193" style="fill: #daa520; stroke: #daa520"/>
     <use xlink:href="#m14ec9198ad" x="214.333828" y="245.021262" style="fill: #daa520; stroke: #daa520"/>
     <use xlink:href="#m14ec9198ad" x="101.67371" y="210.962815" style="fill: #daa520; stroke: #daa520"/>
     <use xlink:href="#m14ec9198ad" x="379.391775" y="221.153461" style="fill: #daa520; stroke: #daa520"/>
     <use xlink:href="#m14ec9198ad" x="313.172645" y="249.855194" style="fill: #daa520; stroke: #daa520"/>
     <use xlink:href="#m14ec9198ad" x="81.865299" y="223.990661" style="fill: #daa520; stroke: #daa520"/>
     <use xlink:href="#m14ec9198ad" x="133.224538" y="248.303754" style="fill: #daa520; stroke: #daa520"/>
     <use xlink:href="#m14ec9198ad" x="234.961287" y="267.170842" style="fill: #daa520; stroke: #daa520"/>
    </g>
   </g>
   <g id="matplotlib.axis_5">
    <g id="xtick_1">
     <g id="line2d_10">
      <defs>
       <path id="m1559962065" d="M 0 0 
L 0 3.5 
" style="stroke: #696969; stroke-width: 0.8"/>
      </defs>
      <g>
       <use xlink:href="#m1559962065" x="70.462045" y="276.68" style="fill: #696969; stroke: #696969; stroke-width: 0.8"/>
      </g>
     </g>
     <g id="text_4">
      <!-- −1.0 -->
      <g style="fill: #696969" transform="translate(51.035795 295.8375) scale(0.16 -0.16)">
       <defs>
        <path id="DejaVuSans-31" d="M 794 531 
L 1825 531 
L 1825 4091 
L 703 3866 
L 703 4441 
L 1819 4666 
L 2450 4666 
L 2450 531 
L 3481 531 
L 3481 0 
L 794 0 
L 794 531 
z
" transform="scale(0.015625)"/>
       </defs>
       <use xlink:href="#DejaVuSans-2212"/>
       <use xlink:href="#DejaVuSans-31" x="83.789062"/>
       <use xlink:href="#DejaVuSans-2e" x="147.412109"/>
       <use xlink:href="#DejaVuSans-30" x="179.199219"/>
      </g>
     </g>
    </g>
    <g id="xtick_2">
     <g id="line2d_11">
      <g>
       <use xlink:href="#m1559962065" x="157.509773" y="276.68" style="fill: #696969; stroke: #696969; stroke-width: 0.8"/>
      </g>
     </g>
     <g id="text_5">
      <!-- −0.5 -->
      <g style="fill: #696969" transform="translate(138.083523 295.8375) scale(0.16 -0.16)">
       <use xlink:href="#DejaVuSans-2212"/>
       <use xlink:href="#DejaVuSans-30" x="83.789062"/>
       <use xlink:href="#DejaVuSans-2e" x="147.412109"/>
       <use xlink:href="#DejaVuSans-35" x="179.199219"/>
      </g>
     </g>
    </g>
    <g id="xtick_3">
     <g id="line2d_12">
      <g>
       <use xlink:href="#m1559962065" x="244.5575" y="276.68" style="fill: #696969; stroke: #696969; stroke-width: 0.8"/>
      </g>
     </g>
     <g id="text_6">
      <!-- 0.0 -->
      <g style="fill: #696969" transform="translate(231.835 295.8375) scale(0.16 -0.16)">
       <use xlink:href="#DejaVuSans-30"/>
       <use xlink:href="#DejaVuSans-2e" x="63.623047"/>
       <use xlink:href="#DejaVuSans-30" x="95.410156"/>
      </g>
     </g>
    </g>
    <g id="xtick_4">
     <g id="line2d_13">
      <g>
       <use xlink:href="#m1559962065" x="331.605227" y="276.68" style="fill: #696969; stroke: #696969; stroke-width: 0.8"/>
      </g>
     </g>
     <g id="text_7">
      <!-- 0.5 -->
      <g style="fill: #696969" transform="translate(318.882727 295.8375) scale(0.16 -0.16)">
       <use xlink:href="#DejaVuSans-30"/>
       <use xlink:href="#DejaVuSans-2e" x="63.623047"/>
       <use xlink:href="#DejaVuSans-35" x="95.410156"/>
      </g>
     </g>
    </g>
    <g id="xtick_5">
     <g id="line2d_14">
      <g>
       <use xlink:href="#m1559962065" x="418.652955" y="276.68" style="fill: #696969; stroke: #696969; stroke-width: 0.8"/>
      </g>
     </g>
     <g id="text_8">
      <!-- 1.0 -->
      <g style="fill: #696969" transform="translate(405.930455 295.8375) scale(0.16 -0.16)">
       <use xlink:href="#DejaVuSans-31"/>
       <use xlink:href="#DejaVuSans-2e" x="63.623047"/>
       <use xlink:href="#DejaVuSans-30" x="95.410156"/>
      </g>
     </g>
    </g>
    <g id="text_9">
     <!-- $X$ -->
     <g transform="translate(239.0375 315.3225) scale(0.16 -0.16)">
      <defs>
       <path id="DejaVuSans-Oblique-58" d="M 878 4666 
L 1516 4666 
L 2316 2981 
L 3763 4666 
L 4500 4666 
L 2578 2438 
L 3738 0 
L 3103 0 
L 2163 1966 
L 459 0 
L -275 0 
L 1906 2509 
L 878 4666 
z
" transform="scale(0.015625)"/>
      </defs>
      <use xlink:href="#DejaVuSans-Oblique-58" transform="translate(0 0.09375)"/>
     </g>
    </g>
   </g>
   <g id="matplotlib.axis_6">
    <g id="ytick_4">
     <g id="line2d_15">
      <g>
       <use xlink:href="#mcb6ae5952f" x="53.0525" y="258.297573" style="fill: #696969; stroke: #696969; stroke-width: 0.8"/>
      </g>
     </g>
     <g id="text_10">
      <!-- −2.5 -->
      <g style="fill: #696969" transform="translate(7.2 264.376323) scale(0.16 -0.16)">
       <use xlink:href="#DejaVuSans-2212"/>
       <use xlink:href="#DejaVuSans-32" x="83.789062"/>
       <use xlink:href="#DejaVuSans-2e" x="147.412109"/>
       <use xlink:href="#DejaVuSans-35" x="179.199219"/>
      </g>
     </g>
    </g>
    <g id="ytick_5">
     <g id="line2d_16">
      <g>
       <use xlink:href="#mcb6ae5952f" x="53.0525" y="227.16386" style="fill: #696969; stroke: #696969; stroke-width: 0.8"/>
      </g>
     </g>
     <g id="text_11">
      <!-- 0.0 -->
      <g style="fill: #696969" transform="translate(20.6075 233.24261) scale(0.16 -0.16)">
       <use xlink:href="#DejaVuSans-30"/>
       <use xlink:href="#DejaVuSans-2e" x="63.623047"/>
       <use xlink:href="#DejaVuSans-30" x="95.410156"/>
      </g>
     </g>
    </g>
    <g id="ytick_6">
     <g id="line2d_17">
      <g>
       <use xlink:href="#mcb6ae5952f" x="53.0525" y="196.030147" style="fill: #696969; stroke: #696969; stroke-width: 0.8"/>
      </g>
     </g>
     <g id="text_12">
      <!-- 2.5 -->
      <g style="fill: #696969" transform="translate(20.6075 202.108897) scale(0.16 -0.16)">
       <use xlink:href="#DejaVuSans-32"/>
       <use xlink:href="#DejaVuSans-2e" x="63.623047"/>
       <use xlink:href="#DejaVuSans-35" x="95.410156"/>
      </g>
     </g>
    </g>
   </g>
   <g id="line2d_18">
    <path d="M 70.462045 228.538948 
L 77.425864 228.249912 
L 84.389682 228.039417 
L 91.3535 227.91453 
L 98.317318 227.875164 
L 105.281136 227.914473 
L 112.244955 228.019719 
L 119.208773 228.173534 
L 126.172591 228.355377 
L 133.136409 228.543146 
L 140.100227 228.714786 
L 147.064045 228.849814 
L 154.027864 228.930709 
L 160.991682 228.944015 
L 167.9555 228.881065 
L 174.919318 228.738381 
L 181.883136 228.517709 
L 188.846955 228.225973 
L 195.810773 227.875114 
L 202.774591 227.481875 
L 209.738409 227.067215 
L 216.702227 226.655123 
L 223.666045 226.270702 
L 230.629864 225.937715 
L 237.593682 225.675985 
L 244.5575 225.499298 
L 251.521318 225.414268 
L 258.485136 225.420458 
L 265.448955 225.511479 
L 272.412773 225.676797 
L 279.376591 225.903529 
L 286.340409 226.177914 
L 293.304227 226.486171 
L 300.268045 226.814893 
L 307.231864 227.151142 
L 314.195682 227.482546 
L 321.1595 227.797649 
L 328.123318 228.086593 
L 335.087136 228.342011 
L 342.050955 228.560061 
L 349.014773 228.741272 
L 355.978591 228.891087 
L 362.942409 229.019961 
L 369.906227 229.142929 
L 376.870045 229.278705 
L 383.833864 229.448366 
L 390.797682 229.673707 
L 397.7615 229.975446 
L 404.725318 230.371375 
L 411.689136 230.874687 
L 418.652955 231.492614 
" clip-path="url(#p158e321e44)" style="fill: none; stroke: #696969; stroke-width: 2; stroke-linecap: square"/>
   </g>
   <g id="line2d_19">
    <path d="M 70.462045 224.793411 
L 77.425864 225.763014 
L 84.389682 226.698014 
L 91.3535 227.596173 
L 98.317318 228.455452 
L 105.281136 229.274012 
L 112.244955 230.050215 
L 119.208773 230.78262 
L 126.172591 231.469988 
L 133.136409 232.111279 
L 140.100227 232.705651 
L 147.064045 233.252464 
L 154.027864 233.751277 
L 160.991682 234.201846 
L 167.9555 234.604131 
L 174.919318 234.958288 
L 181.883136 235.264674 
L 188.846955 235.523846 
L 195.810773 235.73656 
L 202.774591 235.903771 
L 209.738409 236.026636 
L 216.702227 236.106509 
L 223.666045 236.144945 
L 230.629864 236.143697 
L 237.593682 236.104721 
L 244.5575 236.030169 
L 251.521318 235.922393 
L 258.485136 235.783948 
L 265.448955 235.617585 
L 272.412773 235.426256 
L 279.376591 235.213113 
L 286.340409 234.981506 
L 293.304227 234.734987 
L 300.268045 234.477305 
L 307.231864 234.212411 
L 314.195682 233.944454 
L 321.1595 233.677783 
L 328.123318 233.416948 
L 335.087136 233.166695 
L 342.050955 232.931974 
L 349.014773 232.717932 
L 355.978591 232.529917 
L 362.942409 232.373474 
L 369.906227 232.25435 
L 376.870045 232.178493 
L 383.833864 232.152046 
L 390.797682 232.181355 
L 397.7615 232.272966 
L 404.725318 232.433622 
L 411.689136 232.670268 
L 418.652955 232.990047 
" clip-path="url(#p158e321e44)" style="fill: none; stroke-dasharray: 7.4,3.2; stroke-dashoffset: 0; stroke: #79ad41; stroke-width: 2"/>
   </g>
   <g id="patch_9">
    <path d="M 53.0525 276.68 
L 53.0525 181.688 
" style="fill: none; stroke: #000000; stroke-width: 0.8; stroke-linejoin: miter; stroke-linecap: square"/>
   </g>
   <g id="patch_10">
    <path d="M 436.0625 276.68 
L 436.0625 181.688 
" style="fill: none; stroke: #000000; stroke-width: 0.8; stroke-linejoin: miter; stroke-linecap: square"/>
   </g>
   <g id="patch_11">
    <path d="M 53.0525 276.68 
L 436.0625 276.68 
" style="fill: none; stroke: #000000; stroke-width: 0.8; stroke-linejoin: miter; stroke-linecap: square"/>
   </g>
   <g id="patch_12">
    <path d="M 53.0525 181.688 
L 436.0625 181.688 
" style="fill: none; stroke: #000000; stroke-width: 0.8; stroke-linejoin: miter; stroke-linecap: square"/>
   </g>
  </g>
 </g>
 <defs>
  <clipPath id="p12140bccdc">
   <rect x="53.0525" y="7.2" width="383.01" height="47.496"/>
  </clipPath>
  <clipPath id="p829b87e592">
   <rect x="53.0525" y="70.696" width="383.01" height="94.992"/>
  </clipPath>
  <clipPath id="p158e321e44">
   <rect x="53.0525" y="181.688" width="383.01" height="94.992"/>
  </clipPath>
 </defs>
</svg>
