<?xml version="1.0" encoding="utf-8" standalone="no"?>
<!DOCTYPE svg PUBLIC "-//W3C//DTD SVG 1.1//EN"
  "http://www.w3.org/Graphics/SVG/1.1/DTD/svg11.dtd">
<svg xmlns:xlink="http://www.w3.org/1999/xlink" width="443.2175pt" height="325.85pt" viewBox="0 0 443.2175 325.85" xmlns="http://www.w3.org/2000/svg" version="1.1">
 <metadata>
  <rdf:RDF xmlns:dc="http://purl.org/dc/elements/1.1/" xmlns:cc="http://creativecommons.org/ns#" xmlns:rdf="http://www.w3.org/1999/02/22-rdf-syntax-ns#">
   <cc:Work>
    <dc:type rdf:resource="http://purl.org/dc/dcmitype/StillImage"/>
    <dc:date>2024-01-28T20:58:27.268855</dc:date>
    <dc:format>image/svg+xml</dc:format>
    <dc:creator>
     <cc:Agent>
      <dc:title>Matplotlib v3.7.2, https://matplotlib.org/</dc:title>
     </cc:Agent>
    </dc:creator>
   </cc:Work>
  </rdf:RDF>
 </metadata>
 <defs>
  <style type="text/css">*{stroke-linejoin: round; stroke-linecap: butt}</style>
 </defs>
 <g id="figure_1">
  <g id="patch_1">
   <path d="M 0 325.85 
L 443.2175 325.85 
L 443.2175 0 
L 0 0 
z
" style="fill: #ffffff"/>
  </g>
  <g id="axes_1">
   <g id="patch_2">
    <path d="M 47.9675 54.696 
L 436.0175 54.696 
L 436.0175 7.2 
L 47.9675 7.2 
z
" style="fill: #ffffff"/>
   </g>
   <g id="PolyCollection_1">
    <defs>
     <path id="madae15b770" d="M 65.606136 -273.312909 
L 65.606136 -311.503243 
L 72.661591 -310.85875 
L 79.717045 -310.135492 
L 86.7725 -309.328427 
L 93.827955 -308.433033 
L 100.883409 -307.445672 
L 107.938864 -306.364094 
L 114.994318 -305.187958 
L 122.049773 -303.919375 
L 129.105227 -302.563392 
L 136.160682 -301.128386 
L 143.216136 -299.62622 
L 150.271591 -298.072182 
L 157.327045 -296.484526 
L 164.3825 -294.88373 
L 171.437955 -293.291501 
L 178.493409 -291.729535 
L 185.548864 -290.21828 
L 192.604318 -288.775856 
L 199.659773 -287.417161 
L 206.715227 -286.153387 
L 213.770682 -284.991843 
L 220.826136 -283.936145 
L 227.881591 -282.986639 
L 234.937045 -282.14099 
L 241.9925 -281.394854 
L 249.047955 -280.7425 
L 256.103409 -280.177417 
L 263.158864 -279.692789 
L 270.214318 -279.281884 
L 277.269773 -278.938331 
L 284.325227 -278.656318 
L 291.380682 -278.430717 
L 298.436136 -278.257138 
L 305.491591 -278.131962 
L 312.547045 -278.110485 
L 319.6025 -278.110485 
L 326.657955 -278.110485 
L 333.713409 -278.110485 
L 340.768864 -278.157289 
L 347.824318 -278.287066 
L 354.879773 -278.459297 
L 361.935227 -278.675298 
L 368.990682 -278.936731 
L 376.046136 -279.245476 
L 383.101591 -279.603543 
L 390.157045 -280.012922 
L 397.2125 -280.475449 
L 404.267955 -280.99264 
L 411.323409 -281.565532 
L 418.378864 -282.194527 
L 418.378864 -273.312909 
L 418.378864 -273.312909 
L 411.323409 -273.312909 
L 404.267955 -273.312909 
L 397.2125 -273.312909 
L 390.157045 -273.312909 
L 383.101591 -273.312909 
L 376.046136 -273.312909 
L 368.990682 -273.312909 
L 361.935227 -273.312909 
L 354.879773 -273.312909 
L 347.824318 -273.312909 
L 340.768864 -273.312909 
L 333.713409 -273.312909 
L 326.657955 -273.312909 
L 319.6025 -273.312909 
L 312.547045 -273.312909 
L 305.491591 -273.312909 
L 298.436136 -273.312909 
L 291.380682 -273.312909 
L 284.325227 -273.312909 
L 277.269773 -273.312909 
L 270.214318 -273.312909 
L 263.158864 -273.312909 
L 256.103409 -273.312909 
L 249.047955 -273.312909 
L 241.9925 -273.312909 
L 234.937045 -273.312909 
L 227.881591 -273.312909 
L 220.826136 -273.312909 
L 213.770682 -273.312909 
L 206.715227 -273.312909 
L 199.659773 -273.312909 
L 192.604318 -273.312909 
L 185.548864 -273.312909 
L 178.493409 -273.312909 
L 171.437955 -273.312909 
L 164.3825 -273.312909 
L 157.327045 -273.312909 
L 150.271591 -273.312909 
L 143.216136 -273.312909 
L 136.160682 -273.312909 
L 129.105227 -273.312909 
L 122.049773 -273.312909 
L 114.994318 -273.312909 
L 107.938864 -273.312909 
L 100.883409 -273.312909 
L 93.827955 -273.312909 
L 86.7725 -273.312909 
L 79.717045 -273.312909 
L 72.661591 -273.312909 
L 65.606136 -273.312909 
z
" style="stroke: #dc143c; stroke-opacity: 0.2"/>
    </defs>
    <g clip-path="url(#pb8d1224450)">
     <use xlink:href="#madae15b770" x="0" y="325.85" style="fill: #dc143c; fill-opacity: 0.2; stroke: #dc143c; stroke-opacity: 0.2"/>
    </g>
   </g>
   <g id="PolyCollection_2">
    <defs>
     <path id="md5021a9e13" d="M 65.606136 -273.312909 
L 65.606136 -283.098333 
L 72.661591 -283.742825 
L 79.717045 -284.466084 
L 86.7725 -285.273148 
L 93.827955 -286.168543 
L 100.883409 -287.155903 
L 107.938864 -288.237482 
L 114.994318 -289.413618 
L 122.049773 -290.682201 
L 129.105227 -292.038184 
L 136.160682 -293.47319 
L 143.216136 -294.975355 
L 150.271591 -296.529394 
L 157.327045 -298.11705 
L 164.3825 -299.717846 
L 171.437955 -301.310074 
L 178.493409 -302.872041 
L 185.548864 -304.383296 
L 192.604318 -305.82572 
L 199.659773 -307.184414 
L 206.715227 -308.448189 
L 213.770682 -309.609733 
L 220.826136 -310.665431 
L 227.881591 -311.614936 
L 234.937045 -312.460585 
L 241.9925 -313.206722 
L 249.047955 -313.859076 
L 256.103409 -314.424159 
L 263.158864 -314.908787 
L 270.214318 -315.319692 
L 277.269773 -315.663245 
L 284.325227 -315.945257 
L 291.380682 -316.170859 
L 298.436136 -316.344438 
L 305.491591 -316.469614 
L 312.547045 -316.491091 
L 319.6025 -316.491091 
L 326.657955 -316.491091 
L 333.713409 -316.491091 
L 340.768864 -316.444287 
L 347.824318 -316.314509 
L 354.879773 -316.142279 
L 361.935227 -315.926278 
L 368.990682 -315.664845 
L 376.046136 -315.3561 
L 383.101591 -314.998033 
L 390.157045 -314.588653 
L 397.2125 -314.126127 
L 404.267955 -313.608936 
L 411.323409 -313.036044 
L 418.378864 -312.407049 
L 418.378864 -273.312909 
L 418.378864 -273.312909 
L 411.323409 -273.312909 
L 404.267955 -273.312909 
L 397.2125 -273.312909 
L 390.157045 -273.312909 
L 383.101591 -273.312909 
L 376.046136 -273.312909 
L 368.990682 -273.312909 
L 361.935227 -273.312909 
L 354.879773 -273.312909 
L 347.824318 -273.312909 
L 340.768864 -273.312909 
L 333.713409 -273.312909 
L 326.657955 -273.312909 
L 319.6025 -273.312909 
L 312.547045 -273.312909 
L 305.491591 -273.312909 
L 298.436136 -273.312909 
L 291.380682 -273.312909 
L 284.325227 -273.312909 
L 277.269773 -273.312909 
L 270.214318 -273.312909 
L 263.158864 -273.312909 
L 256.103409 -273.312909 
L 249.047955 -273.312909 
L 241.9925 -273.312909 
L 234.937045 -273.312909 
L 227.881591 -273.312909 
L 220.826136 -273.312909 
L 213.770682 -273.312909 
L 206.715227 -273.312909 
L 199.659773 -273.312909 
L 192.604318 -273.312909 
L 185.548864 -273.312909 
L 178.493409 -273.312909 
L 171.437955 -273.312909 
L 164.3825 -273.312909 
L 157.327045 -273.312909 
L 150.271591 -273.312909 
L 143.216136 -273.312909 
L 136.160682 -273.312909 
L 129.105227 -273.312909 
L 122.049773 -273.312909 
L 114.994318 -273.312909 
L 107.938864 -273.312909 
L 100.883409 -273.312909 
L 93.827955 -273.312909 
L 86.7725 -273.312909 
L 79.717045 -273.312909 
L 72.661591 -273.312909 
L 65.606136 -273.312909 
z
" style="stroke: #000080; stroke-opacity: 0.2"/>
    </defs>
    <g clip-path="url(#pb8d1224450)">
     <use xlink:href="#md5021a9e13" x="0" y="325.85" style="fill: #000080; fill-opacity: 0.2; stroke: #000080; stroke-opacity: 0.2"/>
    </g>
   </g>
   <g id="matplotlib.axis_1"/>
   <g id="matplotlib.axis_2"/>
   <g id="line2d_1">
    <path d="M 65.606136 14.346757 
L 72.661591 14.99125 
L 79.717045 15.714508 
L 86.7725 16.521573 
L 93.827955 17.416967 
L 100.883409 18.404328 
L 107.938864 19.485906 
L 114.994318 20.662042 
L 122.049773 21.930625 
L 129.105227 23.286608 
L 136.160682 24.721614 
L 143.216136 26.22378 
L 150.271591 27.777818 
L 157.327045 29.365474 
L 164.3825 30.96627 
L 171.437955 32.558499 
L 178.493409 34.120465 
L 185.548864 35.63172 
L 192.604318 37.074144 
L 199.659773 38.432839 
L 206.715227 39.696613 
L 213.770682 40.858157 
L 220.826136 41.913855 
L 227.881591 42.863361 
L 234.937045 43.70901 
L 241.9925 44.455146 
L 249.047955 45.1075 
L 256.103409 45.672583 
L 263.158864 46.157211 
L 270.214318 46.568116 
L 277.269773 46.911669 
L 284.325227 47.193682 
L 291.380682 47.419283 
L 298.436136 47.592862 
L 305.491591 47.718038 
L 312.547045 47.739515 
L 319.6025 47.739515 
L 326.657955 47.739515 
L 333.713409 47.739515 
L 340.768864 47.692711 
L 347.824318 47.562934 
L 354.879773 47.390703 
L 361.935227 47.174702 
L 368.990682 46.913269 
L 376.046136 46.604524 
L 383.101591 46.246457 
L 390.157045 45.837078 
L 397.2125 45.374551 
L 404.267955 44.85736 
L 411.323409 44.284468 
L 418.378864 43.655473 
" clip-path="url(#pb8d1224450)" style="fill: none; stroke: #dc143c; stroke-width: 1.5; stroke-linecap: square"/>
   </g>
   <g id="line2d_2">
    <path d="M 65.606136 42.751667 
L 72.661591 42.107175 
L 79.717045 41.383916 
L 86.7725 40.576852 
L 93.827955 39.681457 
L 100.883409 38.694097 
L 107.938864 37.612518 
L 114.994318 36.436382 
L 122.049773 35.167799 
L 129.105227 33.811816 
L 136.160682 32.37681 
L 143.216136 30.874645 
L 150.271591 29.320606 
L 157.327045 27.73295 
L 164.3825 26.132154 
L 171.437955 24.539926 
L 178.493409 22.977959 
L 185.548864 21.466704 
L 192.604318 20.02428 
L 199.659773 18.665586 
L 206.715227 17.401811 
L 213.770682 16.240267 
L 220.826136 15.184569 
L 227.881591 14.235064 
L 234.937045 13.389415 
L 241.9925 12.643278 
L 249.047955 11.990924 
L 256.103409 11.425841 
L 263.158864 10.941213 
L 270.214318 10.530308 
L 277.269773 10.186755 
L 284.325227 9.904743 
L 291.380682 9.679141 
L 298.436136 9.505562 
L 305.491591 9.380386 
L 312.547045 9.358909 
L 319.6025 9.358909 
L 326.657955 9.358909 
L 333.713409 9.358909 
L 340.768864 9.405713 
L 347.824318 9.535491 
L 354.879773 9.707721 
L 361.935227 9.923722 
L 368.990682 10.185155 
L 376.046136 10.4939 
L 383.101591 10.851967 
L 390.157045 11.261347 
L 397.2125 11.723873 
L 404.267955 12.241064 
L 411.323409 12.813956 
L 418.378864 13.442951 
" clip-path="url(#pb8d1224450)" style="fill: none; stroke: #000080; stroke-width: 1.5; stroke-linecap: square"/>
   </g>
  </g>
  <g id="axes_2">
   <g id="patch_3">
    <path d="M 47.9675 165.688 
L 436.0175 165.688 
L 436.0175 70.696 
L 47.9675 70.696 
z
" style="fill: #ffffff"/>
   </g>
   <g id="PathCollection_1">
    <defs>
     <path id="mb4f1b9ba22" d="M 0 0.866025 
C 0.229673 0.866025 0.449969 0.774776 0.612372 0.612372 
C 0.774776 0.449969 0.866025 0.229673 0.866025 0 
C 0.866025 -0.229673 0.774776 -0.449969 0.612372 -0.612372 
C 0.449969 -0.774776 0.229673 -0.866025 0 -0.866025 
C -0.229673 -0.866025 -0.449969 -0.774776 -0.612372 -0.612372 
C -0.774776 -0.449969 -0.866025 -0.229673 -0.866025 0 
C -0.866025 0.229673 -0.774776 0.449969 -0.612372 0.612372 
C -0.449969 0.774776 -0.229673 0.866025 0 0.866025 
z
" style="stroke: #daa520"/>
    </defs>
    <g clip-path="url(#pa81eb0ac01)">
     <use xlink:href="#mb4f1b9ba22" x="185.212297" y="111.699431" style="fill: #daa520; stroke: #daa520"/>
     <use xlink:href="#mb4f1b9ba22" x="90.257728" y="119.855177" style="fill: #daa520; stroke: #daa520"/>
     <use xlink:href="#mb4f1b9ba22" x="74.013042" y="133.507423" style="fill: #daa520; stroke: #daa520"/>
     <use xlink:href="#mb4f1b9ba22" x="145.642643" y="102.305364" style="fill: #daa520; stroke: #daa520"/>
     <use xlink:href="#mb4f1b9ba22" x="80.441273" y="121.899553" style="fill: #daa520; stroke: #daa520"/>
     <use xlink:href="#mb4f1b9ba22" x="154.41046" y="110.388597" style="fill: #daa520; stroke: #daa520"/>
     <use xlink:href="#mb4f1b9ba22" x="141.774333" y="124.756185" style="fill: #daa520; stroke: #daa520"/>
     <use xlink:href="#mb4f1b9ba22" x="169.042914" y="107.308794" style="fill: #daa520; stroke: #daa520"/>
     <use xlink:href="#mb4f1b9ba22" x="72.573156" y="124.408883" style="fill: #daa520; stroke: #daa520"/>
     <use xlink:href="#mb4f1b9ba22" x="87.794159" y="121.022972" style="fill: #daa520; stroke: #daa520"/>
     <use xlink:href="#mb4f1b9ba22" x="157.235505" y="104.341792" style="fill: #daa520; stroke: #daa520"/>
     <use xlink:href="#mb4f1b9ba22" x="139.758802" y="98.830209" style="fill: #daa520; stroke: #daa520"/>
     <use xlink:href="#mb4f1b9ba22" x="402.449251" y="118.857984" style="fill: #daa520; stroke: #daa520"/>
     <use xlink:href="#mb4f1b9ba22" x="231.974666" y="75.013818" style="fill: #daa520; stroke: #daa520"/>
     <use xlink:href="#mb4f1b9ba22" x="299.421684" y="97.526825" style="fill: #daa520; stroke: #daa520"/>
     <use xlink:href="#mb4f1b9ba22" x="192.392583" y="102.500855" style="fill: #daa520; stroke: #daa520"/>
     <use xlink:href="#mb4f1b9ba22" x="109.416131" y="111.337333" style="fill: #daa520; stroke: #daa520"/>
     <use xlink:href="#mb4f1b9ba22" x="73.983654" y="121.707871" style="fill: #daa520; stroke: #daa520"/>
     <use xlink:href="#mb4f1b9ba22" x="144.047346" y="104.333612" style="fill: #daa520; stroke: #daa520"/>
     <use xlink:href="#mb4f1b9ba22" x="161.0217" y="106.379536" style="fill: #daa520; stroke: #daa520"/>
     <use xlink:href="#mb4f1b9ba22" x="202.171401" y="129.156737" style="fill: #daa520; stroke: #daa520"/>
     <use xlink:href="#mb4f1b9ba22" x="77.843119" y="116.930444" style="fill: #daa520; stroke: #daa520"/>
     <use xlink:href="#mb4f1b9ba22" x="382.305771" y="103.29253" style="fill: #daa520; stroke: #daa520"/>
     <use xlink:href="#mb4f1b9ba22" x="184.656433" y="157.155773" style="fill: #daa520; stroke: #daa520"/>
     <use xlink:href="#mb4f1b9ba22" x="99.141888" y="121.84183" style="fill: #daa520; stroke: #daa520"/>
     <use xlink:href="#mb4f1b9ba22" x="75.798057" y="124.420339" style="fill: #daa520; stroke: #daa520"/>
     <use xlink:href="#mb4f1b9ba22" x="96.415829" y="121.008092" style="fill: #daa520; stroke: #daa520"/>
     <use xlink:href="#mb4f1b9ba22" x="95.029882" y="122.154722" style="fill: #daa520; stroke: #daa520"/>
     <use xlink:href="#mb4f1b9ba22" x="84.304335" y="123.128325" style="fill: #daa520; stroke: #daa520"/>
     <use xlink:href="#mb4f1b9ba22" x="160.671584" y="103.598905" style="fill: #daa520; stroke: #daa520"/>
     <use xlink:href="#mb4f1b9ba22" x="100.96086" y="100.927898" style="fill: #daa520; stroke: #daa520"/>
     <use xlink:href="#mb4f1b9ba22" x="111.377159" y="113.536102" style="fill: #daa520; stroke: #daa520"/>
     <use xlink:href="#mb4f1b9ba22" x="180.618469" y="115.130656" style="fill: #daa520; stroke: #daa520"/>
     <use xlink:href="#mb4f1b9ba22" x="279.619737" y="86.265417" style="fill: #daa520; stroke: #daa520"/>
     <use xlink:href="#mb4f1b9ba22" x="155.101332" y="110.328399" style="fill: #daa520; stroke: #daa520"/>
     <use xlink:href="#mb4f1b9ba22" x="281.250131" y="121.802777" style="fill: #daa520; stroke: #daa520"/>
     <use xlink:href="#mb4f1b9ba22" x="116.633727" y="97.704755" style="fill: #daa520; stroke: #daa520"/>
     <use xlink:href="#mb4f1b9ba22" x="144.635774" y="124.590247" style="fill: #daa520; stroke: #daa520"/>
     <use xlink:href="#mb4f1b9ba22" x="80.067871" y="125.85225" style="fill: #daa520; stroke: #daa520"/>
     <use xlink:href="#mb4f1b9ba22" x="218.011093" y="127.696771" style="fill: #daa520; stroke: #daa520"/>
     <use xlink:href="#mb4f1b9ba22" x="88.51249" y="128.802827" style="fill: #daa520; stroke: #daa520"/>
     <use xlink:href="#mb4f1b9ba22" x="79.802524" y="121.919843" style="fill: #daa520; stroke: #daa520"/>
     <use xlink:href="#mb4f1b9ba22" x="189.638644" y="109.8624" style="fill: #daa520; stroke: #daa520"/>
     <use xlink:href="#mb4f1b9ba22" x="173.066067" y="105.384304" style="fill: #daa520; stroke: #daa520"/>
     <use xlink:href="#mb4f1b9ba22" x="96.743603" y="120.859177" style="fill: #daa520; stroke: #daa520"/>
     <use xlink:href="#mb4f1b9ba22" x="309.545873" y="121.755415" style="fill: #daa520; stroke: #daa520"/>
     <use xlink:href="#mb4f1b9ba22" x="129.552018" y="105.868202" style="fill: #daa520; stroke: #daa520"/>
     <use xlink:href="#mb4f1b9ba22" x="276.24028" y="161.370182" style="fill: #daa520; stroke: #daa520"/>
     <use xlink:href="#mb4f1b9ba22" x="138.254843" y="105.263257" style="fill: #daa520; stroke: #daa520"/>
     <use xlink:href="#mb4f1b9ba22" x="355.722451" y="102.283425" style="fill: #daa520; stroke: #daa520"/>
     <use xlink:href="#mb4f1b9ba22" x="178.31632" y="111.216317" style="fill: #daa520; stroke: #daa520"/>
     <use xlink:href="#mb4f1b9ba22" x="187.989612" y="126.20165" style="fill: #daa520; stroke: #daa520"/>
     <use xlink:href="#mb4f1b9ba22" x="122.336186" y="98.315984" style="fill: #daa520; stroke: #daa520"/>
     <use xlink:href="#mb4f1b9ba22" x="161.218928" y="114.976706" style="fill: #daa520; stroke: #daa520"/>
     <use xlink:href="#mb4f1b9ba22" x="112.993202" y="110.688088" style="fill: #daa520; stroke: #daa520"/>
     <use xlink:href="#mb4f1b9ba22" x="338.488875" y="97.210513" style="fill: #daa520; stroke: #daa520"/>
     <use xlink:href="#mb4f1b9ba22" x="168.885808" y="115.073346" style="fill: #daa520; stroke: #daa520"/>
     <use xlink:href="#mb4f1b9ba22" x="112.598926" y="113.002387" style="fill: #daa520; stroke: #daa520"/>
     <use xlink:href="#mb4f1b9ba22" x="116.509311" y="110.749408" style="fill: #daa520; stroke: #daa520"/>
     <use xlink:href="#mb4f1b9ba22" x="91.280149" y="107.893774" style="fill: #daa520; stroke: #daa520"/>
     <use xlink:href="#mb4f1b9ba22" x="413.858284" y="106.957068" style="fill: #daa520; stroke: #daa520"/>
     <use xlink:href="#mb4f1b9ba22" x="196.970858" y="122.165499" style="fill: #daa520; stroke: #daa520"/>
     <use xlink:href="#mb4f1b9ba22" x="91.041922" y="125.957395" style="fill: #daa520; stroke: #daa520"/>
     <use xlink:href="#mb4f1b9ba22" x="124.484815" y="99.217135" style="fill: #daa520; stroke: #daa520"/>
     <use xlink:href="#mb4f1b9ba22" x="114.517046" y="108.940868" style="fill: #daa520; stroke: #daa520"/>
     <use xlink:href="#mb4f1b9ba22" x="80.578887" y="113.144675" style="fill: #daa520; stroke: #daa520"/>
     <use xlink:href="#mb4f1b9ba22" x="176.176346" y="106.807373" style="fill: #daa520; stroke: #daa520"/>
     <use xlink:href="#mb4f1b9ba22" x="112.814877" y="112.259981" style="fill: #daa520; stroke: #daa520"/>
     <use xlink:href="#mb4f1b9ba22" x="408.259092" y="104.933772" style="fill: #daa520; stroke: #daa520"/>
     <use xlink:href="#mb4f1b9ba22" x="157.396773" y="110.806886" style="fill: #daa520; stroke: #daa520"/>
     <use xlink:href="#mb4f1b9ba22" x="107.99153" y="107.77211" style="fill: #daa520; stroke: #daa520"/>
     <use xlink:href="#mb4f1b9ba22" x="74.401274" y="121.64788" style="fill: #daa520; stroke: #daa520"/>
     <use xlink:href="#mb4f1b9ba22" x="375.63943" y="101.807139" style="fill: #daa520; stroke: #daa520"/>
     <use xlink:href="#mb4f1b9ba22" x="77.440859" y="121.584137" style="fill: #daa520; stroke: #daa520"/>
     <use xlink:href="#mb4f1b9ba22" x="177.458897" y="112.074745" style="fill: #daa520; stroke: #daa520"/>
     <use xlink:href="#mb4f1b9ba22" x="224.862606" y="84.492519" style="fill: #daa520; stroke: #daa520"/>
     <use xlink:href="#mb4f1b9ba22" x="408.034801" y="98.673638" style="fill: #daa520; stroke: #daa520"/>
     <use xlink:href="#mb4f1b9ba22" x="68.074442" y="122.934297" style="fill: #daa520; stroke: #daa520"/>
     <use xlink:href="#mb4f1b9ba22" x="329.254405" y="111.204163" style="fill: #daa520; stroke: #daa520"/>
     <use xlink:href="#mb4f1b9ba22" x="67.813321" y="126.492404" style="fill: #daa520; stroke: #daa520"/>
     <use xlink:href="#mb4f1b9ba22" x="162.075638" y="112.393875" style="fill: #daa520; stroke: #daa520"/>
     <use xlink:href="#mb4f1b9ba22" x="199.830671" y="159.4133" style="fill: #daa520; stroke: #daa520"/>
     <use xlink:href="#mb4f1b9ba22" x="406.51515" y="109.811515" style="fill: #daa520; stroke: #daa520"/>
     <use xlink:href="#mb4f1b9ba22" x="209.048505" y="121.214375" style="fill: #daa520; stroke: #daa520"/>
     <use xlink:href="#mb4f1b9ba22" x="110.903707" y="112.480273" style="fill: #daa520; stroke: #daa520"/>
     <use xlink:href="#mb4f1b9ba22" x="253.083136" y="81.423775" style="fill: #daa520; stroke: #daa520"/>
     <use xlink:href="#mb4f1b9ba22" x="133.434896" y="103.607143" style="fill: #daa520; stroke: #daa520"/>
     <use xlink:href="#mb4f1b9ba22" x="92.20405" y="106.675639" style="fill: #daa520; stroke: #daa520"/>
     <use xlink:href="#mb4f1b9ba22" x="259.925148" y="77.514541" style="fill: #daa520; stroke: #daa520"/>
     <use xlink:href="#mb4f1b9ba22" x="142.159427" y="120.812617" style="fill: #daa520; stroke: #daa520"/>
     <use xlink:href="#mb4f1b9ba22" x="101.94077" y="117.744625" style="fill: #daa520; stroke: #daa520"/>
     <use xlink:href="#mb4f1b9ba22" x="160.048818" y="108.439165" style="fill: #daa520; stroke: #daa520"/>
     <use xlink:href="#mb4f1b9ba22" x="98.133774" y="120.984983" style="fill: #daa520; stroke: #daa520"/>
     <use xlink:href="#mb4f1b9ba22" x="160.768832" y="101.756414" style="fill: #daa520; stroke: #daa520"/>
     <use xlink:href="#mb4f1b9ba22" x="73.887761" y="116.739318" style="fill: #daa520; stroke: #daa520"/>
     <use xlink:href="#mb4f1b9ba22" x="113.826908" y="110.606562" style="fill: #daa520; stroke: #daa520"/>
     <use xlink:href="#mb4f1b9ba22" x="391.322028" y="106.462294" style="fill: #daa520; stroke: #daa520"/>
     <use xlink:href="#mb4f1b9ba22" x="119.867956" y="109.574005" style="fill: #daa520; stroke: #daa520"/>
     <use xlink:href="#mb4f1b9ba22" x="212.924348" y="156.706256" style="fill: #daa520; stroke: #daa520"/>
     <use xlink:href="#mb4f1b9ba22" x="84.710928" y="130.177649" style="fill: #daa520; stroke: #daa520"/>
     <use xlink:href="#mb4f1b9ba22" x="75.247497" y="116.225775" style="fill: #daa520; stroke: #daa520"/>
    </g>
   </g>
   <g id="matplotlib.axis_3"/>
   <g id="matplotlib.axis_4">
    <g id="ytick_1">
     <g id="line2d_3">
      <defs>
       <path id="m0b32d4d08d" d="M 0 0 
L -3.5 0 
" style="stroke: #696969; stroke-width: 0.8"/>
      </defs>
      <g>
       <use xlink:href="#m0b32d4d08d" x="47.9675" y="144.661953" style="fill: #696969; stroke: #696969; stroke-width: 0.8"/>
      </g>
     </g>
     <g id="text_1">
      <!-- −5 -->
      <g style="fill: #696969" transform="translate(17.38 150.740703) scale(0.16 -0.16)">
       <defs>
        <path id="DejaVuSans-2212" d="M 678 2272 
L 4684 2272 
L 4684 1741 
L 678 1741 
L 678 2272 
z
" transform="scale(0.015625)"/>
        <path id="DejaVuSans-35" d="M 691 4666 
L 3169 4666 
L 3169 4134 
L 1269 4134 
L 1269 2991 
Q 1406 3038 1543 3061 
Q 1681 3084 1819 3084 
Q 2600 3084 3056 2656 
Q 3513 2228 3513 1497 
Q 3513 744 3044 326 
Q 2575 -91 1722 -91 
Q 1428 -91 1123 -41 
Q 819 9 494 109 
L 494 744 
Q 775 591 1075 516 
Q 1375 441 1709 441 
Q 2250 441 2565 725 
Q 2881 1009 2881 1497 
Q 2881 1984 2565 2268 
Q 2250 2553 1709 2553 
Q 1456 2553 1204 2497 
Q 953 2441 691 2322 
L 691 4666 
z
" transform="scale(0.015625)"/>
       </defs>
       <use xlink:href="#DejaVuSans-2212"/>
       <use xlink:href="#DejaVuSans-35" x="83.789062"/>
      </g>
     </g>
    </g>
    <g id="ytick_2">
     <g id="line2d_4">
      <g>
       <use xlink:href="#m0b32d4d08d" x="47.9675" y="115.072978" style="fill: #696969; stroke: #696969; stroke-width: 0.8"/>
      </g>
     </g>
     <g id="text_2">
      <!-- 0 -->
      <g style="fill: #696969" transform="translate(30.7875 121.151728) scale(0.16 -0.16)">
       <defs>
        <path id="DejaVuSans-30" d="M 2034 4250 
Q 1547 4250 1301 3770 
Q 1056 3291 1056 2328 
Q 1056 1369 1301 889 
Q 1547 409 2034 409 
Q 2525 409 2770 889 
Q 3016 1369 3016 2328 
Q 3016 3291 2770 3770 
Q 2525 4250 2034 4250 
z
M 2034 4750 
Q 2819 4750 3233 4129 
Q 3647 3509 3647 2328 
Q 3647 1150 3233 529 
Q 2819 -91 2034 -91 
Q 1250 -91 836 529 
Q 422 1150 422 2328 
Q 422 3509 836 4129 
Q 1250 4750 2034 4750 
z
" transform="scale(0.015625)"/>
       </defs>
       <use xlink:href="#DejaVuSans-30"/>
      </g>
     </g>
    </g>
    <g id="ytick_3">
     <g id="line2d_5">
      <g>
       <use xlink:href="#m0b32d4d08d" x="47.9675" y="85.484002" style="fill: #696969; stroke: #696969; stroke-width: 0.8"/>
      </g>
     </g>
     <g id="text_3">
      <!-- 5 -->
      <g style="fill: #696969" transform="translate(30.7875 91.562752) scale(0.16 -0.16)">
       <use xlink:href="#DejaVuSans-35"/>
      </g>
     </g>
    </g>
   </g>
   <g id="line2d_6">
    <path d="M 65.606136 124.460049 
L 72.661591 124.652327 
L 79.717045 123.825275 
L 86.7725 121.73905 
L 93.827955 118.46143 
L 100.883409 114.409495 
L 107.938864 110.251082 
L 114.994318 106.707457 
L 122.049773 104.344653 
L 129.105227 103.439367 
L 136.160682 103.961255 
L 143.216136 105.653633 
L 150.271591 108.151833 
L 157.327045 111.075159 
L 164.3825 114.062384 
L 171.437955 116.766811 
L 178.493409 118.852941 
L 185.548864 120.026393 
L 192.604318 120.094633 
L 199.659773 119.027737 
L 206.715227 116.986614 
L 213.770682 114.306409 
L 220.826136 111.443934 
L 227.881591 108.904382 
L 234.937045 107.157155 
L 241.9925 106.54695 
L 249.047955 107.21145 
L 256.103409 109.026451 
L 263.158864 111.602971 
L 270.214318 114.35325 
L 277.269773 116.623283 
L 284.325227 117.863152 
L 291.380682 117.781747 
L 298.436136 116.425588 
L 305.491591 114.14437 
L 312.547045 111.455273 
L 319.6025 108.867469 
L 326.657955 106.745401 
L 333.713409 105.261426 
L 340.768864 104.434004 
L 347.824318 104.203837 
L 354.879773 104.493331 
L 361.935227 105.222333 
L 368.990682 106.290725 
L 376.046136 107.559751 
L 383.101591 108.859294 
L 390.157045 110.025737 
L 397.2125 110.952124 
L 404.267955 111.622642 
L 411.323409 112.110994 
L 418.378864 112.540673 
" clip-path="url(#pa81eb0ac01)" style="fill: none; stroke: #000000; stroke-width: 2; stroke-linecap: square"/>
   </g>
   <g id="line2d_7">
    <path d="M 65.606136 123.029766 
L 72.661591 121.19514 
L 79.717045 119.582664 
L 86.7725 118.174505 
L 93.827955 116.953496 
L 100.883409 115.903132 
L 107.938864 115.007576 
L 114.994318 114.251654 
L 122.049773 113.620858 
L 129.105227 113.101343 
L 136.160682 112.679931 
L 143.216136 112.344107 
L 150.271591 112.082022 
L 157.327045 111.882491 
L 164.3825 111.734994 
L 171.437955 111.629677 
L 178.493409 111.557349 
L 185.548864 111.509485 
L 192.604318 111.478224 
L 199.659773 111.456371 
L 206.715227 111.437395 
L 213.770682 111.415429 
L 220.826136 111.385272 
L 227.881591 111.342389 
L 234.937045 111.282906 
L 241.9925 111.203618 
L 249.047955 111.101983 
L 256.103409 110.976123 
L 263.158864 110.824825 
L 270.214318 110.647543 
L 277.269773 110.444393 
L 284.325227 110.216159 
L 291.380682 109.964285 
L 298.436136 109.690885 
L 305.491591 109.398735 
L 312.547045 109.091275 
L 319.6025 108.772613 
L 326.657955 108.44752 
L 333.713409 108.12143 
L 340.768864 107.800445 
L 347.824318 107.49133 
L 354.879773 107.201515 
L 361.935227 106.939096 
L 368.990682 106.712832 
L 376.046136 106.532147 
L 383.101591 106.407132 
L 390.157045 106.348541 
L 397.2125 106.367793 
L 404.267955 106.476972 
L 411.323409 106.688826 
L 418.378864 107.01677 
" clip-path="url(#pa81eb0ac01)" style="fill: none; stroke-dasharray: 7.4,3.2; stroke-dashoffset: 0; stroke: #34b6c6; stroke-width: 2"/>
   </g>
   <g id="line2d_8">
    <path d="M 65.606136 123.282227 
L 72.661591 122.578296 
L 79.717045 121.749672 
L 86.7725 120.607294 
L 93.827955 118.788882 
L 100.883409 115.977971 
L 107.938864 112.625152 
L 114.994318 109.814843 
L 122.049773 108.016382 
L 129.105227 106.998997 
L 136.160682 106.522804 
L 143.216136 106.686094 
L 150.271591 107.874702 
L 157.327045 109.86783 
L 164.3825 111.929406 
L 171.437955 113.955098 
L 178.493409 115.48855 
L 185.548864 116.177809 
L 192.604318 116.277129 
L 199.659773 116.105403 
L 206.715227 115.829707 
L 213.770682 115.519033 
L 220.826136 115.200806 
L 227.881591 114.886959 
L 234.937045 114.584809 
L 241.9925 114.303986 
L 249.047955 114.068473 
L 256.103409 113.946304 
L 263.158864 114.068827 
L 270.214318 114.406683 
L 277.269773 114.589829 
L 284.325227 114.504246 
L 291.380682 114.195859 
L 298.436136 113.394855 
L 305.491591 111.287187 
L 312.547045 107.775558 
L 319.6025 104.550217 
L 326.657955 102.101637 
L 333.713409 100.427747 
L 340.768864 99.731429 
L 347.824318 99.8534 
L 354.879773 100.532431 
L 361.935227 101.549482 
L 368.990682 102.674719 
L 376.046136 103.730468 
L 383.101591 104.653835 
L 390.157045 105.459575 
L 397.2125 106.18623 
L 404.267955 106.871289 
L 411.323409 107.545093 
L 418.378864 108.23097 
" clip-path="url(#pa81eb0ac01)" style="fill: none; stroke-dasharray: 7.4,3.2; stroke-dashoffset: 0; stroke: #9370db; stroke-width: 2"/>
   </g>
   <g id="line2d_9">
    <path d="M 65.606136 127.103786 
L 72.661591 126.858758 
L 79.717045 126.342976 
L 86.7725 125.200238 
L 93.827955 122.745617 
L 100.883409 118.380902 
L 107.938864 112.962611 
L 114.994318 108.549285 
L 122.049773 106.032643 
L 129.105227 104.976301 
L 136.160682 104.926408 
L 143.216136 106.070369 
L 150.271591 109.140804 
L 157.327045 113.719531 
L 164.3825 118.410847 
L 171.437955 123.017121 
L 178.493409 126.67284 
L 185.548864 128.710343 
L 192.604318 129.611603 
L 199.659773 129.98102 
L 206.715227 130.134859 
L 213.770682 130.203162 
L 220.826136 130.23696 
L 227.881591 130.257711 
L 234.937045 130.277947 
L 241.9925 130.314401 
L 249.047955 130.410859 
L 256.103409 130.694476 
L 263.158864 131.412324 
L 270.214318 132.506471 
L 277.269773 133.272623 
L 284.325227 133.491916 
L 291.380682 133.24868 
L 298.436136 132.028192 
L 305.491591 128.283283 
L 312.547045 121.826093 
L 319.6025 115.859091 
L 326.657955 111.308906 
L 333.713409 108.167761 
L 340.768864 106.816443 
L 347.824318 106.948628 
L 354.879773 108.064448 
L 361.935227 109.743876 
L 368.990682 111.546238 
L 376.046136 113.129611 
L 383.101591 114.369603 
L 390.157045 115.288923 
L 397.2125 115.955219 
L 404.267955 116.433966 
L 411.323409 116.776899 
L 418.378864 117.022272 
" clip-path="url(#pa81eb0ac01)" style="fill: none; stroke-dasharray: 12.8,3.2,2,3.2; stroke-dashoffset: 0; stroke: #ff0000; stroke-width: 2"/>
   </g>
   <g id="patch_4">
    <path d="M 47.9675 165.688 
L 47.9675 70.696 
" style="fill: none; stroke: #000000; stroke-width: 0.8; stroke-linejoin: miter; stroke-linecap: square"/>
   </g>
   <g id="patch_5">
    <path d="M 436.0175 165.688 
L 436.0175 70.696 
" style="fill: none; stroke: #000000; stroke-width: 0.8; stroke-linejoin: miter; stroke-linecap: square"/>
   </g>
   <g id="patch_6">
    <path d="M 47.9675 165.688 
L 436.0175 165.688 
" style="fill: none; stroke: #000000; stroke-width: 0.8; stroke-linejoin: miter; stroke-linecap: square"/>
   </g>
   <g id="patch_7">
    <path d="M 47.9675 70.696 
L 436.0175 70.696 
" style="fill: none; stroke: #000000; stroke-width: 0.8; stroke-linejoin: miter; stroke-linecap: square"/>
   </g>
  </g>
  <g id="axes_3">
   <g id="patch_8">
    <path d="M 47.9675 276.68 
L 436.0175 276.68 
L 436.0175 181.688 
L 47.9675 181.688 
z
" style="fill: #ffffff"/>
   </g>
   <g id="PathCollection_2">
    <g clip-path="url(#p5c5b9c2503)">
     <use xlink:href="#mb4f1b9ba22" x="185.212297" y="233.29499" style="fill: #daa520; stroke: #daa520"/>
     <use xlink:href="#mb4f1b9ba22" x="90.257728" y="220.449536" style="fill: #daa520; stroke: #daa520"/>
     <use xlink:href="#mb4f1b9ba22" x="74.013042" y="209.162306" style="fill: #daa520; stroke: #daa520"/>
     <use xlink:href="#mb4f1b9ba22" x="145.642643" y="220.68053" style="fill: #daa520; stroke: #daa520"/>
     <use xlink:href="#mb4f1b9ba22" x="80.441273" y="220.464637" style="fill: #daa520; stroke: #daa520"/>
     <use xlink:href="#mb4f1b9ba22" x="154.41046" y="217.412509" style="fill: #daa520; stroke: #daa520"/>
     <use xlink:href="#mb4f1b9ba22" x="141.774333" y="196.585551" style="fill: #daa520; stroke: #daa520"/>
     <use xlink:href="#mb4f1b9ba22" x="169.042914" y="230.480923" style="fill: #daa520; stroke: #daa520"/>
     <use xlink:href="#mb4f1b9ba22" x="72.573156" y="218.51725" style="fill: #daa520; stroke: #daa520"/>
     <use xlink:href="#mb4f1b9ba22" x="87.794159" y="220.015112" style="fill: #daa520; stroke: #daa520"/>
     <use xlink:href="#mb4f1b9ba22" x="157.235505" y="225.514975" style="fill: #daa520; stroke: #daa520"/>
     <use xlink:href="#mb4f1b9ba22" x="139.758802" y="222.630211" style="fill: #daa520; stroke: #daa520"/>
     <use xlink:href="#mb4f1b9ba22" x="402.449251" y="213.431859" style="fill: #daa520; stroke: #daa520"/>
     <use xlink:href="#mb4f1b9ba22" x="231.974666" y="272.362182" style="fill: #daa520; stroke: #daa520"/>
     <use xlink:href="#mb4f1b9ba22" x="299.421684" y="250.86365" style="fill: #daa520; stroke: #daa520"/>
     <use xlink:href="#mb4f1b9ba22" x="192.392583" y="243.644095" style="fill: #daa520; stroke: #daa520"/>
     <use xlink:href="#mb4f1b9ba22" x="109.416131" y="216.584791" style="fill: #daa520; stroke: #daa520"/>
     <use xlink:href="#mb4f1b9ba22" x="73.983654" y="221.196889" style="fill: #daa520; stroke: #daa520"/>
     <use xlink:href="#mb4f1b9ba22" x="144.047346" y="218.039705" style="fill: #daa520; stroke: #daa520"/>
     <use xlink:href="#mb4f1b9ba22" x="161.0217" y="226.013297" style="fill: #daa520; stroke: #daa520"/>
     <use xlink:href="#mb4f1b9ba22" x="202.171401" y="216.92669" style="fill: #daa520; stroke: #daa520"/>
     <use xlink:href="#mb4f1b9ba22" x="77.843119" y="225.794966" style="fill: #daa520; stroke: #daa520"/>
     <use xlink:href="#mb4f1b9ba22" x="382.305771" y="227.185543" style="fill: #daa520; stroke: #daa520"/>
     <use xlink:href="#mb4f1b9ba22" x="184.656433" y="186.823247" style="fill: #daa520; stroke: #daa520"/>
     <use xlink:href="#mb4f1b9ba22" x="99.141888" y="213.753931" style="fill: #daa520; stroke: #daa520"/>
     <use xlink:href="#mb4f1b9ba22" x="75.798057" y="218.316351" style="fill: #daa520; stroke: #daa520"/>
     <use xlink:href="#mb4f1b9ba22" x="96.415829" y="216.380305" style="fill: #daa520; stroke: #daa520"/>
     <use xlink:href="#mb4f1b9ba22" x="95.029882" y="215.999299" style="fill: #daa520; stroke: #daa520"/>
     <use xlink:href="#mb4f1b9ba22" x="84.304335" y="218.644378" style="fill: #daa520; stroke: #daa520"/>
     <use xlink:href="#mb4f1b9ba22" x="160.671584" y="228.612242" style="fill: #daa520; stroke: #daa520"/>
     <use xlink:href="#mb4f1b9ba22" x="100.96086" y="233.754343" style="fill: #daa520; stroke: #daa520"/>
     <use xlink:href="#mb4f1b9ba22" x="111.377159" y="213.005694" style="fill: #daa520; stroke: #daa520"/>
     <use xlink:href="#mb4f1b9ba22" x="180.618469" y="228.576231" style="fill: #daa520; stroke: #daa520"/>
     <use xlink:href="#mb4f1b9ba22" x="279.619737" y="264.078848" style="fill: #daa520; stroke: #daa520"/>
     <use xlink:href="#mb4f1b9ba22" x="155.101332" y="217.94528" style="fill: #daa520; stroke: #daa520"/>
     <use xlink:href="#mb4f1b9ba22" x="281.250131" y="227.894213" style="fill: #daa520; stroke: #daa520"/>
     <use xlink:href="#mb4f1b9ba22" x="116.633727" y="226.309553" style="fill: #daa520; stroke: #daa520"/>
     <use xlink:href="#mb4f1b9ba22" x="144.635774" y="197.580371" style="fill: #daa520; stroke: #daa520"/>
     <use xlink:href="#mb4f1b9ba22" x="80.067871" y="216.476479" style="fill: #daa520; stroke: #daa520"/>
     <use xlink:href="#mb4f1b9ba22" x="218.011093" y="218.593692" style="fill: #daa520; stroke: #daa520"/>
     <use xlink:href="#mb4f1b9ba22" x="88.51249" y="211.880929" style="fill: #daa520; stroke: #daa520"/>
     <use xlink:href="#mb4f1b9ba22" x="79.802524" y="220.515922" style="fill: #daa520; stroke: #daa520"/>
     <use xlink:href="#mb4f1b9ba22" x="189.638644" y="235.862956" style="fill: #daa520; stroke: #daa520"/>
     <use xlink:href="#mb4f1b9ba22" x="173.066067" y="234.989308" style="fill: #daa520; stroke: #daa520"/>
     <use xlink:href="#mb4f1b9ba22" x="96.743603" y="216.334004" style="fill: #daa520; stroke: #daa520"/>
     <use xlink:href="#mb4f1b9ba22" x="309.545873" y="219.026454" style="fill: #daa520; stroke: #daa520"/>
     <use xlink:href="#mb4f1b9ba22" x="129.552018" y="215.073341" style="fill: #daa520; stroke: #daa520"/>
     <use xlink:href="#mb4f1b9ba22" x="276.24028" y="187.28577" style="fill: #daa520; stroke: #daa520"/>
     <use xlink:href="#mb4f1b9ba22" x="138.254843" y="215.860583" style="fill: #daa520; stroke: #daa520"/>
     <use xlink:href="#mb4f1b9ba22" x="355.722451" y="222.092836" style="fill: #daa520; stroke: #daa520"/>
     <use xlink:href="#mb4f1b9ba22" x="178.31632" y="231.703635" style="fill: #daa520; stroke: #daa520"/>
     <use xlink:href="#mb4f1b9ba22" x="187.989612" y="218.984721" style="fill: #daa520; stroke: #daa520"/>
     <use xlink:href="#mb4f1b9ba22" x="122.336186" y="223.815621" style="fill: #daa520; stroke: #daa520"/>
     <use xlink:href="#mb4f1b9ba22" x="161.218928" y="217.379357" style="fill: #daa520; stroke: #daa520"/>
     <use xlink:href="#mb4f1b9ba22" x="112.993202" y="214.916402" style="fill: #daa520; stroke: #daa520"/>
     <use xlink:href="#mb4f1b9ba22" x="338.488875" y="226.063638" style="fill: #daa520; stroke: #daa520"/>
     <use xlink:href="#mb4f1b9ba22" x="168.885808" y="222.458379" style="fill: #daa520; stroke: #daa520"/>
     <use xlink:href="#mb4f1b9ba22" x="112.598926" y="212.789155" style="fill: #daa520; stroke: #daa520"/>
     <use xlink:href="#mb4f1b9ba22" x="116.509311" y="213.061078" style="fill: #daa520; stroke: #daa520"/>
     <use xlink:href="#mb4f1b9ba22" x="91.280149" y="232.272232" style="fill: #daa520; stroke: #daa520"/>
     <use xlink:href="#mb4f1b9ba22" x="413.858284" y="226.12827" style="fill: #daa520; stroke: #daa520"/>
     <use xlink:href="#mb4f1b9ba22" x="196.970858" y="223.878768" style="fill: #daa520; stroke: #daa520"/>
     <use xlink:href="#mb4f1b9ba22" x="91.041922" y="213.942277" style="fill: #daa520; stroke: #daa520"/>
     <use xlink:href="#mb4f1b9ba22" x="124.484815" y="222.457894" style="fill: #daa520; stroke: #daa520"/>
     <use xlink:href="#mb4f1b9ba22" x="114.517046" y="215.858436" style="fill: #daa520; stroke: #daa520"/>
     <use xlink:href="#mb4f1b9ba22" x="80.578887" y="229.376451" style="fill: #daa520; stroke: #daa520"/>
     <use xlink:href="#mb4f1b9ba22" x="176.176346" y="235.227531" style="fill: #daa520; stroke: #daa520"/>
     <use xlink:href="#mb4f1b9ba22" x="112.814877" y="213.417943" style="fill: #daa520; stroke: #daa520"/>
     <use xlink:href="#mb4f1b9ba22" x="408.259092" y="227.954238" style="fill: #daa520; stroke: #daa520"/>
     <use xlink:href="#mb4f1b9ba22" x="157.396773" y="219.032609" style="fill: #daa520; stroke: #daa520"/>
     <use xlink:href="#mb4f1b9ba22" x="107.99153" y="221.26796" style="fill: #daa520; stroke: #daa520"/>
     <use xlink:href="#mb4f1b9ba22" x="74.401274" y="221.23368" style="fill: #daa520; stroke: #daa520"/>
     <use xlink:href="#mb4f1b9ba22" x="375.63943" y="227.477106" style="fill: #daa520; stroke: #daa520"/>
     <use xlink:href="#mb4f1b9ba22" x="77.440859" y="221.083513" style="fill: #daa520; stroke: #daa520"/>
     <use xlink:href="#mb4f1b9ba22" x="177.458897" y="230.458312" style="fill: #daa520; stroke: #daa520"/>
     <use xlink:href="#mb4f1b9ba22" x="224.862606" y="262.676514" style="fill: #daa520; stroke: #daa520"/>
     <use xlink:href="#mb4f1b9ba22" x="408.034801" y="234.32729" style="fill: #daa520; stroke: #daa520"/>
     <use xlink:href="#mb4f1b9ba22" x="68.074442" y="220.19812" style="fill: #daa520; stroke: #daa520"/>
     <use xlink:href="#mb4f1b9ba22" x="329.254405" y="214.745206" style="fill: #daa520; stroke: #daa520"/>
     <use xlink:href="#mb4f1b9ba22" x="67.813321" y="216.577677" style="fill: #daa520; stroke: #daa520"/>
     <use xlink:href="#mb4f1b9ba22" x="162.075638" y="220.591698" style="fill: #daa520; stroke: #daa520"/>
     <use xlink:href="#mb4f1b9ba22" x="199.830671" y="186.005818" style="fill: #daa520; stroke: #daa520"/>
     <use xlink:href="#mb4f1b9ba22" x="406.51515" y="222.892281" style="fill: #daa520; stroke: #daa520"/>
     <use xlink:href="#mb4f1b9ba22" x="209.048505" y="225.140609" style="fill: #daa520; stroke: #daa520"/>
     <use xlink:href="#mb4f1b9ba22" x="110.903707" y="214.39267" style="fill: #daa520; stroke: #daa520"/>
     <use xlink:href="#mb4f1b9ba22" x="253.083136" y="266.098079" style="fill: #daa520; stroke: #daa520"/>
     <use xlink:href="#mb4f1b9ba22" x="133.434896" y="217.263487" style="fill: #daa520; stroke: #daa520"/>
     <use xlink:href="#mb4f1b9ba22" x="92.20405" y="233.141291" style="fill: #daa520; stroke: #daa520"/>
     <use xlink:href="#mb4f1b9ba22" x="259.925148" y="270.573098" style="fill: #daa520; stroke: #daa520"/>
     <use xlink:href="#mb4f1b9ba22" x="142.159427" y="200.698937" style="fill: #daa520; stroke: #daa520"/>
     <use xlink:href="#mb4f1b9ba22" x="101.94077" y="215.854991" style="fill: #daa520; stroke: #daa520"/>
     <use xlink:href="#mb4f1b9ba22" x="160.048818" y="223.254703" style="fill: #daa520; stroke: #daa520"/>
     <use xlink:href="#mb4f1b9ba22" x="98.133774" y="215.317401" style="fill: #daa520; stroke: #daa520"/>
     <use xlink:href="#mb4f1b9ba22" x="160.768832" y="230.55693" style="fill: #daa520; stroke: #daa520"/>
     <use xlink:href="#mb4f1b9ba22" x="73.887761" y="226.269149" style="fill: #daa520; stroke: #daa520"/>
     <use xlink:href="#mb4f1b9ba22" x="113.826908" y="214.528206" style="fill: #daa520; stroke: #daa520"/>
     <use xlink:href="#mb4f1b9ba22" x="391.322028" y="225.143792" style="fill: #daa520; stroke: #daa520"/>
     <use xlink:href="#mb4f1b9ba22" x="119.867956" y="213.006154" style="fill: #daa520; stroke: #daa520"/>
     <use xlink:href="#mb4f1b9ba22" x="212.924348" y="188.981461" style="fill: #daa520; stroke: #daa520"/>
     <use xlink:href="#mb4f1b9ba22" x="84.710928" y="211.380087" style="fill: #daa520; stroke: #daa520"/>
     <use xlink:href="#mb4f1b9ba22" x="75.247497" y="226.710101" style="fill: #daa520; stroke: #daa520"/>
    </g>
   </g>
   <g id="matplotlib.axis_5">
    <g id="xtick_1">
     <g id="line2d_10">
      <defs>
       <path id="m4fdc07ee01" d="M 0 0 
L 0 3.5 
" style="stroke: #696969; stroke-width: 0.8"/>
      </defs>
      <g>
       <use xlink:href="#m4fdc07ee01" x="65.606136" y="276.68" style="fill: #696969; stroke: #696969; stroke-width: 0.8"/>
      </g>
     </g>
     <g id="text_4">
      <!-- −1.0 -->
      <g style="fill: #696969" transform="translate(46.179886 295.8375) scale(0.16 -0.16)">
       <defs>
        <path id="DejaVuSans-31" d="M 794 531 
L 1825 531 
L 1825 4091 
L 703 3866 
L 703 4441 
L 1819 4666 
L 2450 4666 
L 2450 531 
L 3481 531 
L 3481 0 
L 794 0 
L 794 531 
z
" transform="scale(0.015625)"/>
        <path id="DejaVuSans-2e" d="M 684 794 
L 1344 794 
L 1344 0 
L 684 0 
L 684 794 
z
" transform="scale(0.015625)"/>
       </defs>
       <use xlink:href="#DejaVuSans-2212"/>
       <use xlink:href="#DejaVuSans-31" x="83.789062"/>
       <use xlink:href="#DejaVuSans-2e" x="147.412109"/>
       <use xlink:href="#DejaVuSans-30" x="179.199219"/>
      </g>
     </g>
    </g>
    <g id="xtick_2">
     <g id="line2d_11">
      <g>
       <use xlink:href="#m4fdc07ee01" x="153.799318" y="276.68" style="fill: #696969; stroke: #696969; stroke-width: 0.8"/>
      </g>
     </g>
     <g id="text_5">
      <!-- −0.5 -->
      <g style="fill: #696969" transform="translate(134.373068 295.8375) scale(0.16 -0.16)">
       <use xlink:href="#DejaVuSans-2212"/>
       <use xlink:href="#DejaVuSans-30" x="83.789062"/>
       <use xlink:href="#DejaVuSans-2e" x="147.412109"/>
       <use xlink:href="#DejaVuSans-35" x="179.199219"/>
      </g>
     </g>
    </g>
    <g id="xtick_3">
     <g id="line2d_12">
      <g>
       <use xlink:href="#m4fdc07ee01" x="241.9925" y="276.68" style="fill: #696969; stroke: #696969; stroke-width: 0.8"/>
      </g>
     </g>
     <g id="text_6">
      <!-- 0.0 -->
      <g style="fill: #696969" transform="translate(229.27 295.8375) scale(0.16 -0.16)">
       <use xlink:href="#DejaVuSans-30"/>
       <use xlink:href="#DejaVuSans-2e" x="63.623047"/>
       <use xlink:href="#DejaVuSans-30" x="95.410156"/>
      </g>
     </g>
    </g>
    <g id="xtick_4">
     <g id="line2d_13">
      <g>
       <use xlink:href="#m4fdc07ee01" x="330.185682" y="276.68" style="fill: #696969; stroke: #696969; stroke-width: 0.8"/>
      </g>
     </g>
     <g id="text_7">
      <!-- 0.5 -->
      <g style="fill: #696969" transform="translate(317.463182 295.8375) scale(0.16 -0.16)">
       <use xlink:href="#DejaVuSans-30"/>
       <use xlink:href="#DejaVuSans-2e" x="63.623047"/>
       <use xlink:href="#DejaVuSans-35" x="95.410156"/>
      </g>
     </g>
    </g>
    <g id="xtick_5">
     <g id="line2d_14">
      <g>
       <use xlink:href="#m4fdc07ee01" x="418.378864" y="276.68" style="fill: #696969; stroke: #696969; stroke-width: 0.8"/>
      </g>
     </g>
     <g id="text_8">
      <!-- 1.0 -->
      <g style="fill: #696969" transform="translate(405.656364 295.8375) scale(0.16 -0.16)">
       <use xlink:href="#DejaVuSans-31"/>
       <use xlink:href="#DejaVuSans-2e" x="63.623047"/>
       <use xlink:href="#DejaVuSans-30" x="95.410156"/>
      </g>
     </g>
    </g>
    <g id="text_9">
     <!-- $X$ -->
     <g transform="translate(236.4725 315.3225) scale(0.16 -0.16)">
      <defs>
       <path id="DejaVuSans-Oblique-58" d="M 878 4666 
L 1516 4666 
L 2316 2981 
L 3763 4666 
L 4500 4666 
L 2578 2438 
L 3738 0 
L 3103 0 
L 2163 1966 
L 459 0 
L -275 0 
L 1906 2509 
L 878 4666 
z
" transform="scale(0.015625)"/>
      </defs>
      <use xlink:href="#DejaVuSans-Oblique-58" transform="translate(0 0.09375)"/>
     </g>
    </g>
   </g>
   <g id="matplotlib.axis_6">
    <g id="ytick_4">
     <g id="line2d_15">
      <g>
       <use xlink:href="#m0b32d4d08d" x="47.9675" y="276.362826" style="fill: #696969; stroke: #696969; stroke-width: 0.8"/>
      </g>
     </g>
     <g id="text_10">
      <!-- −10 -->
      <g style="fill: #696969" transform="translate(7.2 282.441576) scale(0.16 -0.16)">
       <use xlink:href="#DejaVuSans-2212"/>
       <use xlink:href="#DejaVuSans-31" x="83.789062"/>
       <use xlink:href="#DejaVuSans-30" x="147.412109"/>
      </g>
     </g>
    </g>
    <g id="ytick_5">
     <g id="line2d_16">
      <g>
       <use xlink:href="#m0b32d4d08d" x="47.9675" y="216.014557" style="fill: #696969; stroke: #696969; stroke-width: 0.8"/>
      </g>
     </g>
     <g id="text_11">
      <!-- 0 -->
      <g style="fill: #696969" transform="translate(30.7875 222.093307) scale(0.16 -0.16)">
       <use xlink:href="#DejaVuSans-30"/>
      </g>
     </g>
    </g>
   </g>
   <g id="line2d_17">
    <path d="M 65.606136 218.710577 
L 72.661591 218.264623 
L 79.717045 218.582049 
L 86.7725 219.544195 
L 93.827955 220.38347 
L 100.883409 220.064503 
L 107.938864 218.779709 
L 114.994318 217.89281 
L 122.049773 217.735929 
L 129.105227 217.581886 
L 136.160682 216.998797 
L 143.216136 216.439534 
L 150.271591 217.023087 
L 157.327045 218.711225 
L 164.3825 220.449016 
L 171.437955 222.388475 
L 178.493409 223.989105 
L 185.548864 224.870243 
L 192.604318 225.719737 
L 199.659773 227.184455 
L 206.715227 229.422825 
L 213.770682 232.225689 
L 220.826136 235.179239 
L 227.881591 237.790175 
L 234.937045 239.592592 
L 241.9925 240.25204 
L 249.047955 239.672763 
L 256.103409 238.111095 
L 263.158864 236.215664 
L 270.214318 234.526782 
L 277.269773 232.993158 
L 284.325227 231.952399 
L 291.380682 231.787368 
L 298.436136 231.925723 
L 305.491591 230.433085 
L 312.547045 226.590473 
L 319.6025 223.144447 
L 326.657955 220.668311 
L 333.713409 218.978369 
L 340.768864 218.444113 
L 347.824318 218.81363 
L 354.879773 219.656297 
L 361.935227 220.62552 
L 368.990682 221.374005 
L 376.046136 221.694568 
L 383.101591 221.63384 
L 390.157045 221.381829 
L 397.2125 221.116594 
L 404.267955 220.921032 
L 411.323409 220.772737 
L 418.378864 220.584785 
" clip-path="url(#p5c5b9c2503)" style="fill: none; stroke: #696969; stroke-width: 2; stroke-linecap: square"/>
   </g>
   <g id="line2d_18">
    <path d="M 65.606136 219.680824 
L 72.661591 219.114811 
L 79.717045 218.717027 
L 86.7725 218.473612 
L 93.827955 218.371129 
L 100.883409 218.396571 
L 107.938864 218.537353 
L 114.994318 218.781318 
L 122.049773 219.116733 
L 129.105227 219.532295 
L 136.160682 220.017121 
L 143.216136 220.560759 
L 150.271591 221.153181 
L 157.327045 221.784785 
L 164.3825 222.446393 
L 171.437955 223.129257 
L 178.493409 223.825051 
L 185.548864 224.525878 
L 192.604318 225.224265 
L 199.659773 225.913165 
L 206.715227 226.585957 
L 213.770682 227.236446 
L 220.826136 227.858865 
L 227.881591 228.44787 
L 234.937045 228.998543 
L 241.9925 229.506394 
L 249.047955 229.967357 
L 256.103409 230.377793 
L 263.158864 230.734489 
L 270.214318 231.034657 
L 277.269773 231.275936 
L 284.325227 231.45639 
L 291.380682 231.574509 
L 298.436136 231.629209 
L 305.491591 231.619833 
L 312.547045 231.546148 
L 319.6025 231.408348 
L 326.657955 231.207054 
L 333.713409 230.94331 
L 340.768864 230.618589 
L 347.824318 230.234788 
L 354.879773 229.79423 
L 361.935227 229.299666 
L 368.990682 228.754269 
L 376.046136 228.161641 
L 383.101591 227.52581 
L 390.157045 226.851229 
L 397.2125 226.142776 
L 404.267955 225.405756 
L 411.323409 224.6459 
L 418.378864 223.869364 
" clip-path="url(#p5c5b9c2503)" style="fill: none; stroke-dasharray: 7.4,3.2; stroke-dashoffset: 0; stroke: #79ad41; stroke-width: 2"/>
   </g>
   <g id="patch_9">
    <path d="M 47.9675 276.68 
L 47.9675 181.688 
" style="fill: none; stroke: #000000; stroke-width: 0.8; stroke-linejoin: miter; stroke-linecap: square"/>
   </g>
   <g id="patch_10">
    <path d="M 436.0175 276.68 
L 436.0175 181.688 
" style="fill: none; stroke: #000000; stroke-width: 0.8; stroke-linejoin: miter; stroke-linecap: square"/>
   </g>
   <g id="patch_11">
    <path d="M 47.9675 276.68 
L 436.0175 276.68 
" style="fill: none; stroke: #000000; stroke-width: 0.8; stroke-linejoin: miter; stroke-linecap: square"/>
   </g>
   <g id="patch_12">
    <path d="M 47.9675 181.688 
L 436.0175 181.688 
" style="fill: none; stroke: #000000; stroke-width: 0.8; stroke-linejoin: miter; stroke-linecap: square"/>
   </g>
  </g>
 </g>
 <defs>
  <clipPath id="pb8d1224450">
   <rect x="47.9675" y="7.2" width="388.05" height="47.496"/>
  </clipPath>
  <clipPath id="pa81eb0ac01">
   <rect x="47.9675" y="70.696" width="388.05" height="94.992"/>
  </clipPath>
  <clipPath id="p5c5b9c2503">
   <rect x="47.9675" y="181.688" width="388.05" height="94.992"/>
  </clipPath>
 </defs>
</svg>
