<?xml version="1.0" encoding="utf-8" standalone="no"?>
<!DOCTYPE svg PUBLIC "-//W3C//DTD SVG 1.1//EN"
  "http://www.w3.org/Graphics/SVG/1.1/DTD/svg11.dtd">
<svg xmlns:xlink="http://www.w3.org/1999/xlink" width="443.2625pt" height="325.85pt" viewBox="0 0 443.2625 325.85" xmlns="http://www.w3.org/2000/svg" version="1.1">
 <metadata>
  <rdf:RDF xmlns:dc="http://purl.org/dc/elements/1.1/" xmlns:cc="http://creativecommons.org/ns#" xmlns:rdf="http://www.w3.org/1999/02/22-rdf-syntax-ns#">
   <cc:Work>
    <dc:type rdf:resource="http://purl.org/dc/dcmitype/StillImage"/>
    <dc:date>2024-01-28T20:53:18.131119</dc:date>
    <dc:format>image/svg+xml</dc:format>
    <dc:creator>
     <cc:Agent>
      <dc:title>Matplotlib v3.7.2, https://matplotlib.org/</dc:title>
     </cc:Agent>
    </dc:creator>
   </cc:Work>
  </rdf:RDF>
 </metadata>
 <defs>
  <style type="text/css">*{stroke-linejoin: round; stroke-linecap: butt}</style>
 </defs>
 <g id="figure_1">
  <g id="patch_1">
   <path d="M 0 325.85 
L 443.2625 325.85 
L 443.2625 0 
L 0 0 
z
" style="fill: #ffffff"/>
  </g>
  <g id="axes_1">
   <g id="patch_2">
    <path d="M 53.0525 54.696 
L 436.0625 54.696 
L 436.0625 7.2 
L 53.0525 7.2 
z
" style="fill: #ffffff"/>
   </g>
   <g id="PolyCollection_1">
    <defs>
     <path id="maacd1f5702" d="M 70.462045 -273.312909 
L 70.462045 -316.491091 
L 77.425864 -316.491091 
L 84.389682 -316.491091 
L 91.3535 -316.491091 
L 98.317318 -316.491091 
L 105.281136 -316.491091 
L 112.244955 -316.491091 
L 119.208773 -316.491091 
L 126.172591 -316.491091 
L 133.136409 -316.491091 
L 140.100227 -316.491091 
L 147.064045 -316.491091 
L 154.027864 -315.536541 
L 160.991682 -314.305535 
L 167.9555 -312.875768 
L 174.919318 -311.249317 
L 181.883136 -309.440938 
L 188.846955 -307.47885 
L 195.810773 -305.403416 
L 202.774591 -303.263709 
L 209.738409 -301.112587 
L 216.702227 -299.001295 
L 223.666045 -296.974731 
L 230.629864 -295.068253 
L 237.593682 -293.306278 
L 244.5575 -291.702569 
L 251.521318 -290.261634 
L 258.485136 -288.980679 
L 265.448955 -287.851739 
L 272.412773 -286.863535 
L 279.376591 -286.002979 
L 286.340409 -285.256311 
L 293.304227 -284.60982 
L 300.268045 -284.050335 
L 307.231864 -283.565452 
L 314.195682 -283.143648 
L 321.1595 -282.774279 
L 328.123318 -282.447535 
L 335.087136 -282.154394 
L 342.050955 -281.886543 
L 349.014773 -281.636349 
L 355.978591 -281.396814 
L 362.942409 -281.1616 
L 369.906227 -280.925038 
L 376.870045 -280.6822 
L 383.833864 -280.428952 
L 390.797682 -280.162033 
L 397.7615 -279.879145 
L 404.725318 -279.579013 
L 411.689136 -279.261435 
L 418.652955 -278.927284 
L 418.652955 -273.312909 
L 418.652955 -273.312909 
L 411.689136 -273.312909 
L 404.725318 -273.312909 
L 397.7615 -273.312909 
L 390.797682 -273.312909 
L 383.833864 -273.312909 
L 376.870045 -273.312909 
L 369.906227 -273.312909 
L 362.942409 -273.312909 
L 355.978591 -273.312909 
L 349.014773 -273.312909 
L 342.050955 -273.312909 
L 335.087136 -273.312909 
L 328.123318 -273.312909 
L 321.1595 -273.312909 
L 314.195682 -273.312909 
L 307.231864 -273.312909 
L 300.268045 -273.312909 
L 293.304227 -273.312909 
L 286.340409 -273.312909 
L 279.376591 -273.312909 
L 272.412773 -273.312909 
L 265.448955 -273.312909 
L 258.485136 -273.312909 
L 251.521318 -273.312909 
L 244.5575 -273.312909 
L 237.593682 -273.312909 
L 230.629864 -273.312909 
L 223.666045 -273.312909 
L 216.702227 -273.312909 
L 209.738409 -273.312909 
L 202.774591 -273.312909 
L 195.810773 -273.312909 
L 188.846955 -273.312909 
L 181.883136 -273.312909 
L 174.919318 -273.312909 
L 167.9555 -273.312909 
L 160.991682 -273.312909 
L 154.027864 -273.312909 
L 147.064045 -273.312909 
L 140.100227 -273.312909 
L 133.136409 -273.312909 
L 126.172591 -273.312909 
L 119.208773 -273.312909 
L 112.244955 -273.312909 
L 105.281136 -273.312909 
L 98.317318 -273.312909 
L 91.3535 -273.312909 
L 84.389682 -273.312909 
L 77.425864 -273.312909 
L 70.462045 -273.312909 
z
" style="stroke: #dc143c; stroke-opacity: 0.2"/>
    </defs>
    <g clip-path="url(#p89a8c03a55)">
     <use xlink:href="#maacd1f5702" x="0" y="325.85" style="fill: #dc143c; fill-opacity: 0.2; stroke: #dc143c; stroke-opacity: 0.2"/>
    </g>
   </g>
   <g id="PolyCollection_2">
    <defs>
     <path id="m0aad7988ec" d="M 70.462045 -273.312909 
L 70.462045 -278.110485 
L 77.425864 -278.110485 
L 84.389682 -278.110485 
L 91.3535 -278.110485 
L 98.317318 -278.110485 
L 105.281136 -278.110485 
L 112.244955 -278.110485 
L 119.208773 -278.110485 
L 126.172591 -278.110485 
L 133.136409 -278.110485 
L 140.100227 -278.110485 
L 147.064045 -278.110485 
L 154.027864 -279.065035 
L 160.991682 -280.296041 
L 167.9555 -281.725807 
L 174.919318 -283.352259 
L 181.883136 -285.160638 
L 188.846955 -287.122725 
L 195.810773 -289.19816 
L 202.774591 -291.337867 
L 209.738409 -293.488989 
L 216.702227 -295.600281 
L 223.666045 -297.626845 
L 230.629864 -299.533323 
L 237.593682 -301.295297 
L 244.5575 -302.899007 
L 251.521318 -304.339942 
L 258.485136 -305.620897 
L 265.448955 -306.749837 
L 272.412773 -307.738041 
L 279.376591 -308.598596 
L 286.340409 -309.345265 
L 293.304227 -309.991755 
L 300.268045 -310.551241 
L 307.231864 -311.036124 
L 314.195682 -311.457928 
L 321.1595 -311.827297 
L 328.123318 -312.154041 
L 335.087136 -312.447182 
L 342.050955 -312.715033 
L 349.014773 -312.965226 
L 355.978591 -313.204762 
L 362.942409 -313.439976 
L 369.906227 -313.676537 
L 376.870045 -313.919376 
L 383.833864 -314.172623 
L 390.797682 -314.439543 
L 397.7615 -314.722431 
L 404.725318 -315.022563 
L 411.689136 -315.340141 
L 418.652955 -315.674291 
L 418.652955 -273.312909 
L 418.652955 -273.312909 
L 411.689136 -273.312909 
L 404.725318 -273.312909 
L 397.7615 -273.312909 
L 390.797682 -273.312909 
L 383.833864 -273.312909 
L 376.870045 -273.312909 
L 369.906227 -273.312909 
L 362.942409 -273.312909 
L 355.978591 -273.312909 
L 349.014773 -273.312909 
L 342.050955 -273.312909 
L 335.087136 -273.312909 
L 328.123318 -273.312909 
L 321.1595 -273.312909 
L 314.195682 -273.312909 
L 307.231864 -273.312909 
L 300.268045 -273.312909 
L 293.304227 -273.312909 
L 286.340409 -273.312909 
L 279.376591 -273.312909 
L 272.412773 -273.312909 
L 265.448955 -273.312909 
L 258.485136 -273.312909 
L 251.521318 -273.312909 
L 244.5575 -273.312909 
L 237.593682 -273.312909 
L 230.629864 -273.312909 
L 223.666045 -273.312909 
L 216.702227 -273.312909 
L 209.738409 -273.312909 
L 202.774591 -273.312909 
L 195.810773 -273.312909 
L 188.846955 -273.312909 
L 181.883136 -273.312909 
L 174.919318 -273.312909 
L 167.9555 -273.312909 
L 160.991682 -273.312909 
L 154.027864 -273.312909 
L 147.064045 -273.312909 
L 140.100227 -273.312909 
L 133.136409 -273.312909 
L 126.172591 -273.312909 
L 119.208773 -273.312909 
L 112.244955 -273.312909 
L 105.281136 -273.312909 
L 98.317318 -273.312909 
L 91.3535 -273.312909 
L 84.389682 -273.312909 
L 77.425864 -273.312909 
L 70.462045 -273.312909 
z
" style="stroke: #000080; stroke-opacity: 0.2"/>
    </defs>
    <g clip-path="url(#p89a8c03a55)">
     <use xlink:href="#m0aad7988ec" x="0" y="325.85" style="fill: #000080; fill-opacity: 0.2; stroke: #000080; stroke-opacity: 0.2"/>
    </g>
   </g>
   <g id="matplotlib.axis_1"/>
   <g id="matplotlib.axis_2"/>
   <g id="line2d_1">
    <path d="M 70.462045 9.358909 
L 77.425864 9.358909 
L 84.389682 9.358909 
L 91.3535 9.358909 
L 98.317318 9.358909 
L 105.281136 9.358909 
L 112.244955 9.358909 
L 119.208773 9.358909 
L 126.172591 9.358909 
L 133.136409 9.358909 
L 140.100227 9.358909 
L 147.064045 9.358909 
L 154.027864 10.313459 
L 160.991682 11.544465 
L 167.9555 12.974232 
L 174.919318 14.600683 
L 181.883136 16.409062 
L 188.846955 18.37115 
L 195.810773 20.446584 
L 202.774591 22.586291 
L 209.738409 24.737413 
L 216.702227 26.848705 
L 223.666045 28.875269 
L 230.629864 30.781747 
L 237.593682 32.543722 
L 244.5575 34.147431 
L 251.521318 35.588366 
L 258.485136 36.869321 
L 265.448955 37.998261 
L 272.412773 38.986465 
L 279.376591 39.847021 
L 286.340409 40.593689 
L 293.304227 41.24018 
L 300.268045 41.799665 
L 307.231864 42.284548 
L 314.195682 42.706352 
L 321.1595 43.075721 
L 328.123318 43.402465 
L 335.087136 43.695606 
L 342.050955 43.963457 
L 349.014773 44.213651 
L 355.978591 44.453186 
L 362.942409 44.6884 
L 369.906227 44.924962 
L 376.870045 45.1678 
L 383.833864 45.421048 
L 390.797682 45.687967 
L 397.7615 45.970855 
L 404.725318 46.270987 
L 411.689136 46.588565 
L 418.652955 46.922716 
" clip-path="url(#p89a8c03a55)" style="fill: none; stroke: #dc143c; stroke-width: 1.5; stroke-linecap: square"/>
   </g>
   <g id="line2d_2">
    <path d="M 70.462045 47.739515 
L 77.425864 47.739515 
L 84.389682 47.739515 
L 91.3535 47.739515 
L 98.317318 47.739515 
L 105.281136 47.739515 
L 112.244955 47.739515 
L 119.208773 47.739515 
L 126.172591 47.739515 
L 133.136409 47.739515 
L 140.100227 47.739515 
L 147.064045 47.739515 
L 154.027864 46.784965 
L 160.991682 45.553959 
L 167.9555 44.124193 
L 174.919318 42.497741 
L 181.883136 40.689362 
L 188.846955 38.727275 
L 195.810773 36.65184 
L 202.774591 34.512133 
L 209.738409 32.361011 
L 216.702227 30.249719 
L 223.666045 28.223155 
L 230.629864 26.316677 
L 237.593682 24.554703 
L 244.5575 22.950993 
L 251.521318 21.510058 
L 258.485136 20.229103 
L 265.448955 19.100163 
L 272.412773 18.111959 
L 279.376591 17.251404 
L 286.340409 16.504735 
L 293.304227 15.858245 
L 300.268045 15.298759 
L 307.231864 14.813876 
L 314.195682 14.392072 
L 321.1595 14.022703 
L 328.123318 13.695959 
L 335.087136 13.402818 
L 342.050955 13.134967 
L 349.014773 12.884774 
L 355.978591 12.645238 
L 362.942409 12.410024 
L 369.906227 12.173463 
L 376.870045 11.930624 
L 383.833864 11.677377 
L 390.797682 11.410457 
L 397.7615 11.127569 
L 404.725318 10.827437 
L 411.689136 10.509859 
L 418.652955 10.175709 
" clip-path="url(#p89a8c03a55)" style="fill: none; stroke: #000080; stroke-width: 1.5; stroke-linecap: square"/>
   </g>
  </g>
  <g id="axes_2">
   <g id="patch_3">
    <path d="M 53.0525 165.688 
L 436.0625 165.688 
L 436.0625 70.696 
L 53.0525 70.696 
z
" style="fill: #ffffff"/>
   </g>
   <g id="PathCollection_1">
    <defs>
     <path id="m1b974a65d1" d="M 0 0.866025 
C 0.229673 0.866025 0.449969 0.774776 0.612372 0.612372 
C 0.774776 0.449969 0.866025 0.229673 0.866025 0 
C 0.866025 -0.229673 0.774776 -0.449969 0.612372 -0.612372 
C 0.449969 -0.774776 0.229673 -0.866025 0 -0.866025 
C -0.229673 -0.866025 -0.449969 -0.774776 -0.612372 -0.612372 
C -0.774776 -0.449969 -0.866025 -0.229673 -0.866025 0 
C -0.866025 0.229673 -0.774776 0.449969 -0.612372 0.612372 
C -0.449969 0.774776 -0.229673 0.866025 0 0.866025 
z
" style="stroke: #daa520"/>
    </defs>
    <g clip-path="url(#p675a9fe50d)">
     <use xlink:href="#m1b974a65d1" x="173.193461" y="111.234692" style="fill: #daa520; stroke: #daa520"/>
     <use xlink:href="#m1b974a65d1" x="131.167766" y="98.430723" style="fill: #daa520; stroke: #daa520"/>
     <use xlink:href="#m1b974a65d1" x="221.691549" y="126.860251" style="fill: #daa520; stroke: #daa520"/>
     <use xlink:href="#m1b974a65d1" x="256.34519" y="84.323944" style="fill: #daa520; stroke: #daa520"/>
     <use xlink:href="#m1b974a65d1" x="414.135751" y="108.945849" style="fill: #daa520; stroke: #daa520"/>
     <use xlink:href="#m1b974a65d1" x="186.504808" y="127.504288" style="fill: #daa520; stroke: #daa520"/>
     <use xlink:href="#m1b974a65d1" x="160.230759" y="102.010488" style="fill: #daa520; stroke: #daa520"/>
     <use xlink:href="#m1b974a65d1" x="124.110141" y="116.065578" style="fill: #daa520; stroke: #daa520"/>
     <use xlink:href="#m1b974a65d1" x="229.117926" y="106.13219" style="fill: #daa520; stroke: #daa520"/>
     <use xlink:href="#m1b974a65d1" x="335.835791" y="150.136754" style="fill: #daa520; stroke: #daa520"/>
     <use xlink:href="#m1b974a65d1" x="177.238864" y="107.540814" style="fill: #daa520; stroke: #daa520"/>
     <use xlink:href="#m1b974a65d1" x="154.929738" y="114.186282" style="fill: #daa520; stroke: #daa520"/>
     <use xlink:href="#m1b974a65d1" x="122.014441" y="124.75319" style="fill: #daa520; stroke: #daa520"/>
     <use xlink:href="#m1b974a65d1" x="302.191843" y="145.459437" style="fill: #daa520; stroke: #daa520"/>
     <use xlink:href="#m1b974a65d1" x="170.122691" y="117.258631" style="fill: #daa520; stroke: #daa520"/>
     <use xlink:href="#m1b974a65d1" x="208.842662" y="108.515556" style="fill: #daa520; stroke: #daa520"/>
     <use xlink:href="#m1b974a65d1" x="163.048158" y="95.595258" style="fill: #daa520; stroke: #daa520"/>
     <use xlink:href="#m1b974a65d1" x="126.469463" y="90.746445" style="fill: #daa520; stroke: #daa520"/>
     <use xlink:href="#m1b974a65d1" x="193.580334" y="112.357641" style="fill: #daa520; stroke: #daa520"/>
     <use xlink:href="#m1b974a65d1" x="86.948475" y="81.775406" style="fill: #daa520; stroke: #daa520"/>
     <use xlink:href="#m1b974a65d1" x="101.812751" y="125.774287" style="fill: #daa520; stroke: #daa520"/>
     <use xlink:href="#m1b974a65d1" x="273.249679" y="95.909505" style="fill: #daa520; stroke: #daa520"/>
     <use xlink:href="#m1b974a65d1" x="159.723898" y="90.221366" style="fill: #daa520; stroke: #daa520"/>
     <use xlink:href="#m1b974a65d1" x="229.214133" y="83.111687" style="fill: #daa520; stroke: #daa520"/>
     <use xlink:href="#m1b974a65d1" x="72.226427" y="122.616717" style="fill: #daa520; stroke: #daa520"/>
     <use xlink:href="#m1b974a65d1" x="228.313469" y="89.222237" style="fill: #daa520; stroke: #daa520"/>
     <use xlink:href="#m1b974a65d1" x="292.575333" y="93.656027" style="fill: #daa520; stroke: #daa520"/>
     <use xlink:href="#m1b974a65d1" x="317.69511" y="91.306983" style="fill: #daa520; stroke: #daa520"/>
     <use xlink:href="#m1b974a65d1" x="104.337255" y="105.046607" style="fill: #daa520; stroke: #daa520"/>
     <use xlink:href="#m1b974a65d1" x="161.531674" y="118.588366" style="fill: #daa520; stroke: #daa520"/>
     <use xlink:href="#m1b974a65d1" x="169.808144" y="94.690091" style="fill: #daa520; stroke: #daa520"/>
     <use xlink:href="#m1b974a65d1" x="147.759029" y="118.093511" style="fill: #daa520; stroke: #daa520"/>
     <use xlink:href="#m1b974a65d1" x="210.479679" y="102.818169" style="fill: #daa520; stroke: #daa520"/>
     <use xlink:href="#m1b974a65d1" x="189.863894" y="103.236711" style="fill: #daa520; stroke: #daa520"/>
     <use xlink:href="#m1b974a65d1" x="103.548064" y="107.511877" style="fill: #daa520; stroke: #daa520"/>
     <use xlink:href="#m1b974a65d1" x="146.463205" y="103.382423" style="fill: #daa520; stroke: #daa520"/>
     <use xlink:href="#m1b974a65d1" x="155.640749" y="89.925703" style="fill: #daa520; stroke: #daa520"/>
     <use xlink:href="#m1b974a65d1" x="87.895016" y="97.033252" style="fill: #daa520; stroke: #daa520"/>
     <use xlink:href="#m1b974a65d1" x="274.416996" y="75.013818" style="fill: #daa520; stroke: #daa520"/>
     <use xlink:href="#m1b974a65d1" x="391.208979" y="156.526506" style="fill: #daa520; stroke: #daa520"/>
     <use xlink:href="#m1b974a65d1" x="225.228967" y="99.614003" style="fill: #daa520; stroke: #daa520"/>
     <use xlink:href="#m1b974a65d1" x="121.510339" y="79.409142" style="fill: #daa520; stroke: #daa520"/>
     <use xlink:href="#m1b974a65d1" x="82.743048" y="117.984548" style="fill: #daa520; stroke: #daa520"/>
     <use xlink:href="#m1b974a65d1" x="143.488715" y="86.665418" style="fill: #daa520; stroke: #daa520"/>
     <use xlink:href="#m1b974a65d1" x="122.474856" y="105.579852" style="fill: #daa520; stroke: #daa520"/>
     <use xlink:href="#m1b974a65d1" x="288.273845" y="91.932918" style="fill: #daa520; stroke: #daa520"/>
     <use xlink:href="#m1b974a65d1" x="304.823957" y="124.715667" style="fill: #daa520; stroke: #daa520"/>
     <use xlink:href="#m1b974a65d1" x="238.03139" y="108.251838" style="fill: #daa520; stroke: #daa520"/>
     <use xlink:href="#m1b974a65d1" x="87.974697" y="87.14403" style="fill: #daa520; stroke: #daa520"/>
     <use xlink:href="#m1b974a65d1" x="221.294049" y="79.192085" style="fill: #daa520; stroke: #daa520"/>
     <use xlink:href="#m1b974a65d1" x="233.064881" y="102.431167" style="fill: #daa520; stroke: #daa520"/>
     <use xlink:href="#m1b974a65d1" x="227.041129" y="131.67708" style="fill: #daa520; stroke: #daa520"/>
     <use xlink:href="#m1b974a65d1" x="208.544981" y="132.957182" style="fill: #daa520; stroke: #daa520"/>
     <use xlink:href="#m1b974a65d1" x="185.818399" y="102.969309" style="fill: #daa520; stroke: #daa520"/>
     <use xlink:href="#m1b974a65d1" x="126.218094" y="99.233092" style="fill: #daa520; stroke: #daa520"/>
     <use xlink:href="#m1b974a65d1" x="145.539793" y="120.450871" style="fill: #daa520; stroke: #daa520"/>
     <use xlink:href="#m1b974a65d1" x="205.928803" y="108.727881" style="fill: #daa520; stroke: #daa520"/>
     <use xlink:href="#m1b974a65d1" x="109.76473" y="129.44546" style="fill: #daa520; stroke: #daa520"/>
     <use xlink:href="#m1b974a65d1" x="88.721467" y="84.972862" style="fill: #daa520; stroke: #daa520"/>
     <use xlink:href="#m1b974a65d1" x="114.47364" y="115.898661" style="fill: #daa520; stroke: #daa520"/>
     <use xlink:href="#m1b974a65d1" x="104.60222" y="116.359876" style="fill: #daa520; stroke: #daa520"/>
     <use xlink:href="#m1b974a65d1" x="234.769943" y="110.859455" style="fill: #daa520; stroke: #daa520"/>
     <use xlink:href="#m1b974a65d1" x="268.024749" y="128.441405" style="fill: #daa520; stroke: #daa520"/>
     <use xlink:href="#m1b974a65d1" x="345.891896" y="107.717239" style="fill: #daa520; stroke: #daa520"/>
     <use xlink:href="#m1b974a65d1" x="233.872923" y="135.584759" style="fill: #daa520; stroke: #daa520"/>
     <use xlink:href="#m1b974a65d1" x="78.524686" y="126.572044" style="fill: #daa520; stroke: #daa520"/>
     <use xlink:href="#m1b974a65d1" x="342.259063" y="102.286992" style="fill: #daa520; stroke: #daa520"/>
     <use xlink:href="#m1b974a65d1" x="78.813117" y="92.897851" style="fill: #daa520; stroke: #daa520"/>
     <use xlink:href="#m1b974a65d1" x="281.779546" y="141.314366" style="fill: #daa520; stroke: #daa520"/>
     <use xlink:href="#m1b974a65d1" x="287.325467" y="96.639019" style="fill: #daa520; stroke: #daa520"/>
     <use xlink:href="#m1b974a65d1" x="142.936026" y="123.549871" style="fill: #daa520; stroke: #daa520"/>
     <use xlink:href="#m1b974a65d1" x="243.321564" y="132.404154" style="fill: #daa520; stroke: #daa520"/>
     <use xlink:href="#m1b974a65d1" x="173.781812" y="107.546165" style="fill: #daa520; stroke: #daa520"/>
     <use xlink:href="#m1b974a65d1" x="124.133726" y="124.898757" style="fill: #daa520; stroke: #daa520"/>
     <use xlink:href="#m1b974a65d1" x="127.606642" y="101.112282" style="fill: #daa520; stroke: #daa520"/>
     <use xlink:href="#m1b974a65d1" x="408.182697" y="99.628809" style="fill: #daa520; stroke: #daa520"/>
     <use xlink:href="#m1b974a65d1" x="79.18164" y="92.699719" style="fill: #daa520; stroke: #daa520"/>
     <use xlink:href="#m1b974a65d1" x="350.700161" y="161.370182" style="fill: #daa520; stroke: #daa520"/>
     <use xlink:href="#m1b974a65d1" x="239.368372" y="103.981643" style="fill: #daa520; stroke: #daa520"/>
     <use xlink:href="#m1b974a65d1" x="171.679086" y="117.894125" style="fill: #daa520; stroke: #daa520"/>
     <use xlink:href="#m1b974a65d1" x="149.726091" y="123.135662" style="fill: #daa520; stroke: #daa520"/>
     <use xlink:href="#m1b974a65d1" x="254.842502" y="114.741044" style="fill: #daa520; stroke: #daa520"/>
     <use xlink:href="#m1b974a65d1" x="112.471149" y="108.742413" style="fill: #daa520; stroke: #daa520"/>
     <use xlink:href="#m1b974a65d1" x="114.271924" y="118.497088" style="fill: #daa520; stroke: #daa520"/>
     <use xlink:href="#m1b974a65d1" x="216.812173" y="130.680922" style="fill: #daa520; stroke: #daa520"/>
     <use xlink:href="#m1b974a65d1" x="267.527509" y="97.50264" style="fill: #daa520; stroke: #daa520"/>
     <use xlink:href="#m1b974a65d1" x="141.473766" y="102.018151" style="fill: #daa520; stroke: #daa520"/>
     <use xlink:href="#m1b974a65d1" x="118.317956" y="84.182673" style="fill: #daa520; stroke: #daa520"/>
     <use xlink:href="#m1b974a65d1" x="322.42571" y="99.824805" style="fill: #daa520; stroke: #daa520"/>
    </g>
   </g>
   <g id="matplotlib.axis_3"/>
   <g id="matplotlib.axis_4">
    <g id="ytick_1">
     <g id="line2d_3">
      <defs>
       <path id="m5ff1cf1b3c" d="M 0 0 
L -3.5 0 
" style="stroke: #696969; stroke-width: 0.8"/>
      </defs>
      <g>
       <use xlink:href="#m5ff1cf1b3c" x="53.0525" y="145.718262" style="fill: #696969; stroke: #696969; stroke-width: 0.8"/>
      </g>
     </g>
     <g id="text_1">
      <!-- −2.5 -->
      <g style="fill: #696969" transform="translate(7.2 151.797012) scale(0.16 -0.16)">
       <defs>
        <path id="DejaVuSans-2212" d="M 678 2272 
L 4684 2272 
L 4684 1741 
L 678 1741 
L 678 2272 
z
" transform="scale(0.015625)"/>
        <path id="DejaVuSans-32" d="M 1228 531 
L 3431 531 
L 3431 0 
L 469 0 
L 469 531 
Q 828 903 1448 1529 
Q 2069 2156 2228 2338 
Q 2531 2678 2651 2914 
Q 2772 3150 2772 3378 
Q 2772 3750 2511 3984 
Q 2250 4219 1831 4219 
Q 1534 4219 1204 4116 
Q 875 4013 500 3803 
L 500 4441 
Q 881 4594 1212 4672 
Q 1544 4750 1819 4750 
Q 2544 4750 2975 4387 
Q 3406 4025 3406 3419 
Q 3406 3131 3298 2873 
Q 3191 2616 2906 2266 
Q 2828 2175 2409 1742 
Q 1991 1309 1228 531 
z
" transform="scale(0.015625)"/>
        <path id="DejaVuSans-2e" d="M 684 794 
L 1344 794 
L 1344 0 
L 684 0 
L 684 794 
z
" transform="scale(0.015625)"/>
        <path id="DejaVuSans-35" d="M 691 4666 
L 3169 4666 
L 3169 4134 
L 1269 4134 
L 1269 2991 
Q 1406 3038 1543 3061 
Q 1681 3084 1819 3084 
Q 2600 3084 3056 2656 
Q 3513 2228 3513 1497 
Q 3513 744 3044 326 
Q 2575 -91 1722 -91 
Q 1428 -91 1123 -41 
Q 819 9 494 109 
L 494 744 
Q 775 591 1075 516 
Q 1375 441 1709 441 
Q 2250 441 2565 725 
Q 2881 1009 2881 1497 
Q 2881 1984 2565 2268 
Q 2250 2553 1709 2553 
Q 1456 2553 1204 2497 
Q 953 2441 691 2322 
L 691 4666 
z
" transform="scale(0.015625)"/>
       </defs>
       <use xlink:href="#DejaVuSans-2212"/>
       <use xlink:href="#DejaVuSans-32" x="83.789062"/>
       <use xlink:href="#DejaVuSans-2e" x="147.412109"/>
       <use xlink:href="#DejaVuSans-35" x="179.199219"/>
      </g>
     </g>
    </g>
    <g id="ytick_2">
     <g id="line2d_4">
      <g>
       <use xlink:href="#m5ff1cf1b3c" x="53.0525" y="114.572522" style="fill: #696969; stroke: #696969; stroke-width: 0.8"/>
      </g>
     </g>
     <g id="text_2">
      <!-- 0.0 -->
      <g style="fill: #696969" transform="translate(20.6075 120.651272) scale(0.16 -0.16)">
       <defs>
        <path id="DejaVuSans-30" d="M 2034 4250 
Q 1547 4250 1301 3770 
Q 1056 3291 1056 2328 
Q 1056 1369 1301 889 
Q 1547 409 2034 409 
Q 2525 409 2770 889 
Q 3016 1369 3016 2328 
Q 3016 3291 2770 3770 
Q 2525 4250 2034 4250 
z
M 2034 4750 
Q 2819 4750 3233 4129 
Q 3647 3509 3647 2328 
Q 3647 1150 3233 529 
Q 2819 -91 2034 -91 
Q 1250 -91 836 529 
Q 422 1150 422 2328 
Q 422 3509 836 4129 
Q 1250 4750 2034 4750 
z
" transform="scale(0.015625)"/>
       </defs>
       <use xlink:href="#DejaVuSans-30"/>
       <use xlink:href="#DejaVuSans-2e" x="63.623047"/>
       <use xlink:href="#DejaVuSans-30" x="95.410156"/>
      </g>
     </g>
    </g>
    <g id="ytick_3">
     <g id="line2d_5">
      <g>
       <use xlink:href="#m5ff1cf1b3c" x="53.0525" y="83.426783" style="fill: #696969; stroke: #696969; stroke-width: 0.8"/>
      </g>
     </g>
     <g id="text_3">
      <!-- 2.5 -->
      <g style="fill: #696969" transform="translate(20.6075 89.505533) scale(0.16 -0.16)">
       <use xlink:href="#DejaVuSans-32"/>
       <use xlink:href="#DejaVuSans-2e" x="63.623047"/>
       <use xlink:href="#DejaVuSans-35" x="95.410156"/>
      </g>
     </g>
    </g>
   </g>
   <g id="line2d_6">
    <path d="M 70.462045 108.809865 
L 77.425864 108.33038 
L 84.389682 107.881404 
L 91.3535 107.480152 
L 98.317318 107.142738 
L 105.281136 106.88241 
L 112.244955 106.708027 
L 119.208773 106.623058 
L 126.172591 106.625135 
L 133.136409 106.706255 
L 140.100227 106.853563 
L 147.064045 107.05065 
L 154.027864 107.279234 
L 160.991682 107.520984 
L 167.9555 107.759343 
L 174.919318 107.981138 
L 181.883136 108.177792 
L 188.846955 108.346054 
L 195.810773 108.48816 
L 202.774591 108.611493 
L 209.738409 108.727694 
L 216.702227 108.851454 
L 223.666045 108.999079 
L 230.629864 109.186939 
L 237.593682 109.430029 
L 244.5575 109.74072 
L 251.521318 110.127782 
L 258.485136 110.595773 
L 265.448955 111.144802 
L 272.412773 111.770614 
L 279.376591 112.465023 
L 286.340409 113.216583 
L 293.304227 114.011459 
L 300.268045 114.834412 
L 307.231864 115.669828 
L 314.195682 116.502769 
L 321.1595 117.319886 
L 328.123318 118.110272 
L 335.087136 118.866076 
L 342.050955 119.582914 
L 349.014773 120.26006 
L 355.978591 120.90034 
L 362.942409 121.5098 
L 369.906227 122.09715 
L 376.870045 122.673038 
L 383.833864 123.249211 
L 390.797682 123.837633 
L 397.7615 124.449629 
L 404.725318 125.095136 
L 411.689136 125.782075 
L 418.652955 126.515876 
" clip-path="url(#p675a9fe50d)" style="fill: none; stroke: #000000; stroke-width: 2; stroke-linecap: square"/>
   </g>
   <g id="line2d_7">
    <path d="M 70.462045 103.928657 
L 77.425864 104.503938 
L 84.389682 105.007519 
L 91.3535 105.4467 
L 98.317318 105.828489 
L 105.281136 106.159609 
L 112.244955 106.446494 
L 119.208773 106.695292 
L 126.172591 106.911863 
L 133.136409 107.101779 
L 140.100227 107.270324 
L 147.064045 107.422496 
L 154.027864 107.563004 
L 160.991682 107.696271 
L 167.9555 107.826431 
L 174.919318 107.957331 
L 181.883136 108.092531 
L 188.846955 108.235304 
L 195.810773 108.388632 
L 202.774591 108.555214 
L 209.738409 108.73746 
L 216.702227 108.93749 
L 223.666045 109.15714 
L 230.629864 109.397957 
L 237.593682 109.661199 
L 244.5575 109.94784 
L 251.521318 110.258562 
L 258.485136 110.593765 
L 265.448955 110.953555 
L 272.412773 111.337757 
L 279.376591 111.745903 
L 286.340409 112.17724 
L 293.304227 112.630729 
L 300.268045 113.105041 
L 307.231864 113.598559 
L 314.195682 114.109382 
L 321.1595 114.635317 
L 328.123318 115.173888 
L 335.087136 115.722327 
L 342.050955 116.277582 
L 349.014773 116.836312 
L 355.978591 117.394888 
L 362.942409 117.949395 
L 369.906227 118.495629 
L 376.870045 119.0291 
L 383.833864 119.545028 
L 390.797682 120.038348 
L 397.7615 120.503707 
L 404.725318 120.935463 
L 411.689136 121.327689 
L 418.652955 121.674167 
" clip-path="url(#p675a9fe50d)" style="fill: none; stroke-dasharray: 7.4,3.2; stroke-dashoffset: 0; stroke: #34b6c6; stroke-width: 2"/>
   </g>
   <g id="line2d_8">
    <path d="M 70.462045 103.776752 
L 77.425864 104.43199 
L 84.389682 104.998256 
L 91.3535 105.484292 
L 98.317318 105.898503 
L 105.281136 106.248965 
L 112.244955 106.543425 
L 119.208773 106.789306 
L 126.172591 106.993714 
L 133.136409 107.163441 
L 140.100227 107.304972 
L 147.064045 107.424493 
L 154.027864 107.527894 
L 160.991682 107.620782 
L 167.9555 107.708482 
L 174.919318 107.796051 
L 181.883136 107.88828 
L 188.846955 107.989702 
L 195.810773 108.104599 
L 202.774591 108.237002 
L 209.738409 108.390691 
L 216.702227 108.569191 
L 223.666045 108.775765 
L 230.629864 109.013392 
L 237.593682 109.28474 
L 244.5575 109.592134 
L 251.521318 109.937501 
L 258.485136 110.322304 
L 265.448955 110.74746 
L 272.412773 111.213243 
L 279.376591 111.719171 
L 286.340409 112.263884 
L 293.304227 112.845024 
L 300.268045 113.459124 
L 307.231864 114.101523 
L 314.195682 114.766331 
L 321.1595 115.446442 
L 328.123318 116.133623 
L 335.087136 116.818673 
L 342.050955 117.491636 
L 349.014773 118.142063 
L 355.978591 118.75928 
L 362.942409 119.332642 
L 369.906227 119.851745 
L 376.870045 120.306572 
L 383.833864 120.687571 
L 390.797682 120.985668 
L 397.7615 121.192221 
L 404.725318 121.298937 
L 411.689136 121.297763 
L 418.652955 121.18077 
" clip-path="url(#p675a9fe50d)" style="fill: none; stroke-dasharray: 7.4,3.2; stroke-dashoffset: 0; stroke: #9370db; stroke-width: 2"/>
   </g>
   <g id="line2d_9">
    <path d="M 70.462045 106.377495 
L 77.425864 106.432195 
L 84.389682 106.487738 
L 91.3535 106.544409 
L 98.317318 106.602535 
L 105.281136 106.662479 
L 112.244955 106.724655 
L 119.208773 106.789525 
L 126.172591 106.857611 
L 133.136409 106.929503 
L 140.100227 107.005863 
L 147.064045 107.087435 
L 154.027864 107.175057 
L 160.991682 107.269667 
L 167.9555 107.372316 
L 174.919318 107.484176 
L 181.883136 107.606551 
L 188.846955 107.740884 
L 195.810773 107.888764 
L 202.774591 108.05193 
L 209.738409 108.232271 
L 216.702227 108.431819 
L 223.666045 108.652737 
L 230.629864 108.897295 
L 237.593682 109.167833 
L 244.5575 109.466715 
L 251.521318 109.796255 
L 258.485136 110.158636 
L 265.448955 110.555796 
L 272.412773 110.989295 
L 279.376591 111.460171 
L 286.340409 111.968774 
L 293.304227 112.514607 
L 300.268045 113.096176 
L 307.231864 113.710879 
L 314.195682 114.354956 
L 321.1595 115.023512 
L 328.123318 115.710631 
L 335.087136 116.409588 
L 342.050955 117.113137 
L 349.014773 117.813856 
L 355.978591 118.504507 
L 362.942409 119.178374 
L 369.906227 119.829546 
L 376.870045 120.45311 
L 383.833864 121.045258 
L 390.797682 121.603302 
L 397.7615 122.125614 
L 404.725318 122.611516 
L 411.689136 123.061131 
L 418.652955 123.475232 
" clip-path="url(#p675a9fe50d)" style="fill: none; stroke-dasharray: 12.8,3.2,2,3.2; stroke-dashoffset: 0; stroke: #ff0000; stroke-width: 2"/>
   </g>
   <g id="patch_4">
    <path d="M 53.0525 165.688 
L 53.0525 70.696 
" style="fill: none; stroke: #000000; stroke-width: 0.8; stroke-linejoin: miter; stroke-linecap: square"/>
   </g>
   <g id="patch_5">
    <path d="M 436.0625 165.688 
L 436.0625 70.696 
" style="fill: none; stroke: #000000; stroke-width: 0.8; stroke-linejoin: miter; stroke-linecap: square"/>
   </g>
   <g id="patch_6">
    <path d="M 53.0525 165.688 
L 436.0625 165.688 
" style="fill: none; stroke: #000000; stroke-width: 0.8; stroke-linejoin: miter; stroke-linecap: square"/>
   </g>
   <g id="patch_7">
    <path d="M 53.0525 70.696 
L 436.0625 70.696 
" style="fill: none; stroke: #000000; stroke-width: 0.8; stroke-linejoin: miter; stroke-linecap: square"/>
   </g>
  </g>
  <g id="axes_3">
   <g id="patch_8">
    <path d="M 53.0525 276.68 
L 436.0625 276.68 
L 436.0625 181.688 
L 53.0525 181.688 
z
" style="fill: #ffffff"/>
   </g>
   <g id="PathCollection_2">
    <g clip-path="url(#p65534c43a5)">
     <use xlink:href="#m1b974a65d1" x="173.193461" y="229.033284" style="fill: #daa520; stroke: #daa520"/>
     <use xlink:href="#m1b974a65d1" x="131.167766" y="242.348405" style="fill: #daa520; stroke: #daa520"/>
     <use xlink:href="#m1b974a65d1" x="221.691549" y="213.289077" style="fill: #daa520; stroke: #daa520"/>
     <use xlink:href="#m1b974a65d1" x="256.34519" y="261.078221" style="fill: #daa520; stroke: #daa520"/>
     <use xlink:href="#m1b974a65d1" x="414.135751" y="248.634584" style="fill: #daa520; stroke: #daa520"/>
     <use xlink:href="#m1b974a65d1" x="186.504808" y="211.618808" style="fill: #daa520; stroke: #daa520"/>
     <use xlink:href="#m1b974a65d1" x="160.230759" y="238.840096" style="fill: #daa520; stroke: #daa520"/>
     <use xlink:href="#m1b974a65d1" x="124.110141" y="223.113615" style="fill: #daa520; stroke: #daa520"/>
     <use xlink:href="#m1b974a65d1" x="229.117926" y="236.082402" style="fill: #daa520; stroke: #daa520"/>
     <use xlink:href="#m1b974a65d1" x="335.835791" y="196.582531" style="fill: #daa520; stroke: #daa520"/>
     <use xlink:href="#m1b974a65d1" x="177.238864" y="233.12004" style="fill: #daa520; stroke: #daa520"/>
     <use xlink:href="#m1b974a65d1" x="154.929738" y="225.535123" style="fill: #daa520; stroke: #daa520"/>
     <use xlink:href="#m1b974a65d1" x="122.014441" y="213.653861" style="fill: #daa520; stroke: #daa520"/>
     <use xlink:href="#m1b974a65d1" x="302.191843" y="198.163112" style="fill: #daa520; stroke: #daa520"/>
     <use xlink:href="#m1b974a65d1" x="170.122691" y="222.435705" style="fill: #daa520; stroke: #daa520"/>
     <use xlink:href="#m1b974a65d1" x="208.842662" y="232.804574" style="fill: #daa520; stroke: #daa520"/>
     <use xlink:href="#m1b974a65d1" x="163.048158" y="245.852626" style="fill: #daa520; stroke: #daa520"/>
     <use xlink:href="#m1b974a65d1" x="126.469463" y="250.643595" style="fill: #daa520; stroke: #daa520"/>
     <use xlink:href="#m1b974a65d1" x="193.580334" y="228.230877" style="fill: #daa520; stroke: #daa520"/>
     <use xlink:href="#m1b974a65d1" x="86.948475" y="260.00635" style="fill: #daa520; stroke: #daa520"/>
     <use xlink:href="#m1b974a65d1" x="101.812751" y="212.344571" style="fill: #daa520; stroke: #daa520"/>
     <use xlink:href="#m1b974a65d1" x="273.249679" y="249.579271" style="fill: #daa520; stroke: #daa520"/>
     <use xlink:href="#m1b974a65d1" x="159.723898" y="251.639048" style="fill: #daa520; stroke: #daa520"/>
     <use xlink:href="#m1b974a65d1" x="229.214133" y="261.093589" style="fill: #daa520; stroke: #daa520"/>
     <use xlink:href="#m1b974a65d1" x="72.226427" y="215.512781" style="fill: #daa520; stroke: #daa520"/>
     <use xlink:href="#m1b974a65d1" x="228.313469" y="254.420472" style="fill: #daa520; stroke: #daa520"/>
     <use xlink:href="#m1b974a65d1" x="292.575333" y="253.560979" style="fill: #daa520; stroke: #daa520"/>
     <use xlink:href="#m1b974a65d1" x="317.69511" y="258.53789" style="fill: #daa520; stroke: #daa520"/>
     <use xlink:href="#m1b974a65d1" x="104.337255" y="234.885011" style="fill: #daa520; stroke: #daa520"/>
     <use xlink:href="#m1b974a65d1" x="161.531674" y="220.85133" style="fill: #daa520; stroke: #daa520"/>
     <use xlink:href="#m1b974a65d1" x="169.808144" y="246.946755" style="fill: #daa520; stroke: #daa520"/>
     <use xlink:href="#m1b974a65d1" x="147.759029" y="221.191805" style="fill: #daa520; stroke: #daa520"/>
     <use xlink:href="#m1b974a65d1" x="210.479679" y="239.042066" style="fill: #daa520; stroke: #daa520"/>
     <use xlink:href="#m1b974a65d1" x="189.863894" y="238.054057" style="fill: #daa520; stroke: #daa520"/>
     <use xlink:href="#m1b974a65d1" x="103.548064" y="232.199507" style="fill: #daa520; stroke: #daa520"/>
     <use xlink:href="#m1b974a65d1" x="146.463205" y="237.155532" style="fill: #daa520; stroke: #daa520"/>
     <use xlink:href="#m1b974a65d1" x="155.640749" y="251.899868" style="fill: #daa520; stroke: #daa520"/>
     <use xlink:href="#m1b974a65d1" x="87.895016" y="243.439948" style="fill: #daa520; stroke: #daa520"/>
     <use xlink:href="#m1b974a65d1" x="274.416996" y="272.362182" style="fill: #daa520; stroke: #daa520"/>
     <use xlink:href="#m1b974a65d1" x="391.208979" y="195.235798" style="fill: #daa520; stroke: #daa520"/>
     <use xlink:href="#m1b974a65d1" x="225.228967" y="243.0148" style="fill: #daa520; stroke: #daa520"/>
     <use xlink:href="#m1b974a65d1" x="121.510339" y="262.906248" style="fill: #daa520; stroke: #daa520"/>
     <use xlink:href="#m1b974a65d1" x="82.743048" y="220.635162" style="fill: #daa520; stroke: #daa520"/>
     <use xlink:href="#m1b974a65d1" x="143.488715" y="255.277019" style="fill: #daa520; stroke: #daa520"/>
     <use xlink:href="#m1b974a65d1" x="122.474856" y="234.486926" style="fill: #daa520; stroke: #daa520"/>
     <use xlink:href="#m1b974a65d1" x="288.273845" y="255.064404" style="fill: #daa520; stroke: #daa520"/>
     <use xlink:href="#m1b974a65d1" x="304.823957" y="220.949279" style="fill: #daa520; stroke: #daa520"/>
     <use xlink:href="#m1b974a65d1" x="238.03139" y="234.153159" style="fill: #daa520; stroke: #daa520"/>
     <use xlink:href="#m1b974a65d1" x="87.974697" y="254.183415" style="fill: #daa520; stroke: #daa520"/>
     <use xlink:href="#m1b974a65d1" x="221.294049" y="265.057537" style="fill: #daa520; stroke: #daa520"/>
     <use xlink:href="#m1b974a65d1" x="233.064881" y="240.262273" style="fill: #daa520; stroke: #daa520"/>
     <use xlink:href="#m1b974a65d1" x="227.041129" y="208.252445" style="fill: #daa520; stroke: #daa520"/>
     <use xlink:href="#m1b974a65d1" x="208.544981" y="206.244713" style="fill: #daa520; stroke: #daa520"/>
     <use xlink:href="#m1b974a65d1" x="185.818399" y="238.256874" style="fill: #daa520; stroke: #daa520"/>
     <use xlink:href="#m1b974a65d1" x="126.218094" y="241.421719" style="fill: #daa520; stroke: #daa520"/>
     <use xlink:href="#m1b974a65d1" x="145.539793" y="218.601868" style="fill: #daa520; stroke: #daa520"/>
     <use xlink:href="#m1b974a65d1" x="205.928803" y="232.490631" style="fill: #daa520; stroke: #daa520"/>
     <use xlink:href="#m1b974a65d1" x="109.76473" y="208.432422" style="fill: #daa520; stroke: #daa520"/>
     <use xlink:href="#m1b974a65d1" x="88.721467" y="256.548588" style="fill: #daa520; stroke: #daa520"/>
     <use xlink:href="#m1b974a65d1" x="114.47364" y="223.195021" style="fill: #daa520; stroke: #daa520"/>
     <use xlink:href="#m1b974a65d1" x="104.60222" y="222.597801" style="fill: #daa520; stroke: #daa520"/>
     <use xlink:href="#m1b974a65d1" x="234.769943" y="231.178269" style="fill: #daa520; stroke: #daa520"/>
     <use xlink:href="#m1b974a65d1" x="268.024749" y="213.878818" style="fill: #daa520; stroke: #daa520"/>
     <use xlink:href="#m1b974a65d1" x="345.891896" y="243.766226" style="fill: #daa520; stroke: #daa520"/>
     <use xlink:href="#m1b974a65d1" x="233.872923" y="204.280961" style="fill: #daa520; stroke: #daa520"/>
     <use xlink:href="#m1b974a65d1" x="78.524686" y="211.269958" style="fill: #daa520; stroke: #daa520"/>
     <use xlink:href="#m1b974a65d1" x="342.259063" y="249.267255" style="fill: #daa520; stroke: #daa520"/>
     <use xlink:href="#m1b974a65d1" x="78.813117" y="247.853064" style="fill: #daa520; stroke: #daa520"/>
     <use xlink:href="#m1b974a65d1" x="281.779546" y="200.893735" style="fill: #daa520; stroke: #daa520"/>
     <use xlink:href="#m1b974a65d1" x="287.325467" y="249.872944" style="fill: #daa520; stroke: #daa520"/>
     <use xlink:href="#m1b974a65d1" x="142.936026" y="215.202057" style="fill: #daa520; stroke: #daa520"/>
     <use xlink:href="#m1b974a65d1" x="243.321564" y="208.161471" style="fill: #daa520; stroke: #daa520"/>
     <use xlink:href="#m1b974a65d1" x="173.781812" y="233.0507" style="fill: #daa520; stroke: #daa520"/>
     <use xlink:href="#m1b974a65d1" x="124.133726" y="213.518296" style="fill: #daa520; stroke: #daa520"/>
     <use xlink:href="#m1b974a65d1" x="127.606642" y="239.395562" style="fill: #daa520; stroke: #daa520"/>
     <use xlink:href="#m1b974a65d1" x="408.182697" y="258.352359" style="fill: #daa520; stroke: #daa520"/>
     <use xlink:href="#m1b974a65d1" x="79.18164" y="248.071474" style="fill: #daa520; stroke: #daa520"/>
     <use xlink:href="#m1b974a65d1" x="350.700161" y="186.005818" style="fill: #daa520; stroke: #daa520"/>
     <use xlink:href="#m1b974a65d1" x="239.368372" y="238.852159" style="fill: #daa520; stroke: #daa520"/>
     <use xlink:href="#m1b974a65d1" x="171.679086" y="221.772324" style="fill: #daa520; stroke: #daa520"/>
     <use xlink:href="#m1b974a65d1" x="149.726091" y="215.740834" style="fill: #daa520; stroke: #daa520"/>
     <use xlink:href="#m1b974a65d1" x="254.842502" y="227.950211" style="fill: #daa520; stroke: #daa520"/>
     <use xlink:href="#m1b974a65d1" x="112.471149" y="230.948958" style="fill: #daa520; stroke: #daa520"/>
     <use xlink:href="#m1b974a65d1" x="114.271924" y="220.3703" style="fill: #daa520; stroke: #daa520"/>
     <use xlink:href="#m1b974a65d1" x="216.812173" y="208.972803" style="fill: #daa520; stroke: #daa520"/>
     <use xlink:href="#m1b974a65d1" x="267.527509" y="247.454768" style="fill: #daa520; stroke: #daa520"/>
     <use xlink:href="#m1b974a65d1" x="141.473766" y="238.573834" style="fill: #daa520; stroke: #daa520"/>
     <use xlink:href="#m1b974a65d1" x="118.317956" y="257.687487" style="fill: #daa520; stroke: #daa520"/>
     <use xlink:href="#m1b974a65d1" x="322.42571" y="249.783565" style="fill: #daa520; stroke: #daa520"/>
    </g>
   </g>
   <g id="matplotlib.axis_5">
    <g id="xtick_1">
     <g id="line2d_10">
      <defs>
       <path id="m4a6d29d205" d="M 0 0 
L 0 3.5 
" style="stroke: #696969; stroke-width: 0.8"/>
      </defs>
      <g>
       <use xlink:href="#m4a6d29d205" x="70.462045" y="276.68" style="fill: #696969; stroke: #696969; stroke-width: 0.8"/>
      </g>
     </g>
     <g id="text_4">
      <!-- −1.0 -->
      <g style="fill: #696969" transform="translate(51.035795 295.8375) scale(0.16 -0.16)">
       <defs>
        <path id="DejaVuSans-31" d="M 794 531 
L 1825 531 
L 1825 4091 
L 703 3866 
L 703 4441 
L 1819 4666 
L 2450 4666 
L 2450 531 
L 3481 531 
L 3481 0 
L 794 0 
L 794 531 
z
" transform="scale(0.015625)"/>
       </defs>
       <use xlink:href="#DejaVuSans-2212"/>
       <use xlink:href="#DejaVuSans-31" x="83.789062"/>
       <use xlink:href="#DejaVuSans-2e" x="147.412109"/>
       <use xlink:href="#DejaVuSans-30" x="179.199219"/>
      </g>
     </g>
    </g>
    <g id="xtick_2">
     <g id="line2d_11">
      <g>
       <use xlink:href="#m4a6d29d205" x="157.509773" y="276.68" style="fill: #696969; stroke: #696969; stroke-width: 0.8"/>
      </g>
     </g>
     <g id="text_5">
      <!-- −0.5 -->
      <g style="fill: #696969" transform="translate(138.083523 295.8375) scale(0.16 -0.16)">
       <use xlink:href="#DejaVuSans-2212"/>
       <use xlink:href="#DejaVuSans-30" x="83.789062"/>
       <use xlink:href="#DejaVuSans-2e" x="147.412109"/>
       <use xlink:href="#DejaVuSans-35" x="179.199219"/>
      </g>
     </g>
    </g>
    <g id="xtick_3">
     <g id="line2d_12">
      <g>
       <use xlink:href="#m4a6d29d205" x="244.5575" y="276.68" style="fill: #696969; stroke: #696969; stroke-width: 0.8"/>
      </g>
     </g>
     <g id="text_6">
      <!-- 0.0 -->
      <g style="fill: #696969" transform="translate(231.835 295.8375) scale(0.16 -0.16)">
       <use xlink:href="#DejaVuSans-30"/>
       <use xlink:href="#DejaVuSans-2e" x="63.623047"/>
       <use xlink:href="#DejaVuSans-30" x="95.410156"/>
      </g>
     </g>
    </g>
    <g id="xtick_4">
     <g id="line2d_13">
      <g>
       <use xlink:href="#m4a6d29d205" x="331.605227" y="276.68" style="fill: #696969; stroke: #696969; stroke-width: 0.8"/>
      </g>
     </g>
     <g id="text_7">
      <!-- 0.5 -->
      <g style="fill: #696969" transform="translate(318.882727 295.8375) scale(0.16 -0.16)">
       <use xlink:href="#DejaVuSans-30"/>
       <use xlink:href="#DejaVuSans-2e" x="63.623047"/>
       <use xlink:href="#DejaVuSans-35" x="95.410156"/>
      </g>
     </g>
    </g>
    <g id="xtick_5">
     <g id="line2d_14">
      <g>
       <use xlink:href="#m4a6d29d205" x="418.652955" y="276.68" style="fill: #696969; stroke: #696969; stroke-width: 0.8"/>
      </g>
     </g>
     <g id="text_8">
      <!-- 1.0 -->
      <g style="fill: #696969" transform="translate(405.930455 295.8375) scale(0.16 -0.16)">
       <use xlink:href="#DejaVuSans-31"/>
       <use xlink:href="#DejaVuSans-2e" x="63.623047"/>
       <use xlink:href="#DejaVuSans-30" x="95.410156"/>
      </g>
     </g>
    </g>
    <g id="text_9">
     <!-- $X$ -->
     <g transform="translate(239.0375 315.3225) scale(0.16 -0.16)">
      <defs>
       <path id="DejaVuSans-Oblique-58" d="M 878 4666 
L 1516 4666 
L 2316 2981 
L 3763 4666 
L 4500 4666 
L 2578 2438 
L 3738 0 
L 3103 0 
L 2163 1966 
L 459 0 
L -275 0 
L 1906 2509 
L 878 4666 
z
" transform="scale(0.015625)"/>
      </defs>
      <use xlink:href="#DejaVuSans-Oblique-58" transform="translate(0 0.09375)"/>
     </g>
    </g>
   </g>
   <g id="matplotlib.axis_6">
    <g id="ytick_4">
     <g id="line2d_15">
      <g>
       <use xlink:href="#m5ff1cf1b3c" x="53.0525" y="266.972565" style="fill: #696969; stroke: #696969; stroke-width: 0.8"/>
      </g>
     </g>
     <g id="text_10">
      <!-- −2.5 -->
      <g style="fill: #696969" transform="translate(7.2 273.051315) scale(0.16 -0.16)">
       <use xlink:href="#DejaVuSans-2212"/>
       <use xlink:href="#DejaVuSans-32" x="83.789062"/>
       <use xlink:href="#DejaVuSans-2e" x="147.412109"/>
       <use xlink:href="#DejaVuSans-35" x="179.199219"/>
      </g>
     </g>
    </g>
    <g id="ytick_5">
     <g id="line2d_16">
      <g>
       <use xlink:href="#m5ff1cf1b3c" x="53.0525" y="233.13863" style="fill: #696969; stroke: #696969; stroke-width: 0.8"/>
      </g>
     </g>
     <g id="text_11">
      <!-- 0.0 -->
      <g style="fill: #696969" transform="translate(20.6075 239.21738) scale(0.16 -0.16)">
       <use xlink:href="#DejaVuSans-30"/>
       <use xlink:href="#DejaVuSans-2e" x="63.623047"/>
       <use xlink:href="#DejaVuSans-30" x="95.410156"/>
      </g>
     </g>
    </g>
    <g id="ytick_6">
     <g id="line2d_17">
      <g>
       <use xlink:href="#m5ff1cf1b3c" x="53.0525" y="199.304694" style="fill: #696969; stroke: #696969; stroke-width: 0.8"/>
      </g>
     </g>
     <g id="text_12">
      <!-- 2.5 -->
      <g style="fill: #696969" transform="translate(20.6075 205.383444) scale(0.16 -0.16)">
       <use xlink:href="#DejaVuSans-32"/>
       <use xlink:href="#DejaVuSans-2e" x="63.623047"/>
       <use xlink:href="#DejaVuSans-35" x="95.410156"/>
      </g>
     </g>
    </g>
   </g>
   <g id="line2d_18">
    <path d="M 70.462045 230.496321 
L 77.425864 231.076612 
L 84.389682 231.624675 
L 91.3535 232.122123 
L 98.317318 232.551802 
L 105.281136 232.899716 
L 112.244955 233.156693 
L 119.208773 233.319464 
L 126.172591 233.391171 
L 133.136409 233.381146 
L 140.100227 233.304074 
L 147.064045 233.17859 
L 154.027864 233.025461 
L 160.991682 232.865621 
L 167.9555 232.718198 
L 174.919318 232.598775 
L 181.883136 232.518085 
L 188.846955 232.481227 
L 195.810773 232.487499 
L 202.774591 232.53077 
L 209.738409 232.600447 
L 216.702227 232.682776 
L 223.666045 232.762395 
L 230.629864 232.823987 
L 237.593682 232.853804 
L 244.5575 232.840974 
L 251.521318 232.778489 
L 258.485136 232.663764 
L 265.448955 232.498786 
L 272.412773 232.289875 
L 279.376591 232.047049 
L 286.340409 231.783123 
L 293.304227 231.512584 
L 300.268045 231.250366 
L 307.231864 231.010603 
L 314.195682 230.805439 
L 321.1595 230.644055 
L 328.123318 230.531875 
L 335.087136 230.470122 
L 342.050955 230.455686 
L 349.014773 230.481293 
L 355.978591 230.536012 
L 362.942409 230.605978 
L 369.906227 230.675308 
L 376.870045 230.7271 
L 383.833864 230.744453 
L 390.797682 230.711453 
L 397.7615 230.614029 
L 404.725318 230.440648 
L 411.689136 230.182841 
L 418.652955 229.835548 
" clip-path="url(#p65534c43a5)" style="fill: none; stroke: #696969; stroke-width: 2; stroke-linecap: square"/>
   </g>
   <g id="line2d_19">
    <path d="M 70.462045 236.018898 
L 77.425864 235.337549 
L 84.389682 234.760026 
L 91.3535 234.276622 
L 98.317318 233.878052 
L 105.281136 233.555449 
L 112.244955 233.300371 
L 119.208773 233.104794 
L 126.172591 232.961115 
L 133.136409 232.862153 
L 140.100227 232.801147 
L 147.064045 232.771756 
L 154.027864 232.768063 
L 160.991682 232.784569 
L 167.9555 232.816197 
L 174.919318 232.85829 
L 181.883136 232.906612 
L 188.846955 232.957349 
L 195.810773 233.007108 
L 202.774591 233.052914 
L 209.738409 233.092217 
L 216.702227 233.122884 
L 223.666045 233.143205 
L 230.629864 233.151891 
L 237.593682 233.148073 
L 244.5575 233.131303 
L 251.521318 233.101555 
L 258.485136 233.059221 
L 265.448955 233.005118 
L 272.412773 232.94048 
L 279.376591 232.866964 
L 286.340409 232.786647 
L 293.304227 232.702028 
L 300.268045 232.616025 
L 307.231864 232.531979 
L 314.195682 232.45365 
L 321.1595 232.38522 
L 328.123318 232.331291 
L 335.087136 232.296887 
L 342.050955 232.287452 
L 349.014773 232.308852 
L 355.978591 232.367371 
L 362.942409 232.469717 
L 369.906227 232.623017 
L 376.870045 232.83482 
L 383.833864 233.113096 
L 390.797682 233.466234 
L 397.7615 233.903046 
L 404.725318 234.432764 
L 411.689136 235.06504 
L 418.652955 235.809949 
" clip-path="url(#p65534c43a5)" style="fill: none; stroke-dasharray: 7.4,3.2; stroke-dashoffset: 0; stroke: #79ad41; stroke-width: 2"/>
   </g>
   <g id="patch_9">
    <path d="M 53.0525 276.68 
L 53.0525 181.688 
" style="fill: none; stroke: #000000; stroke-width: 0.8; stroke-linejoin: miter; stroke-linecap: square"/>
   </g>
   <g id="patch_10">
    <path d="M 436.0625 276.68 
L 436.0625 181.688 
" style="fill: none; stroke: #000000; stroke-width: 0.8; stroke-linejoin: miter; stroke-linecap: square"/>
   </g>
   <g id="patch_11">
    <path d="M 53.0525 276.68 
L 436.0625 276.68 
" style="fill: none; stroke: #000000; stroke-width: 0.8; stroke-linejoin: miter; stroke-linecap: square"/>
   </g>
   <g id="patch_12">
    <path d="M 53.0525 181.688 
L 436.0625 181.688 
" style="fill: none; stroke: #000000; stroke-width: 0.8; stroke-linejoin: miter; stroke-linecap: square"/>
   </g>
  </g>
 </g>
 <defs>
  <clipPath id="p89a8c03a55">
   <rect x="53.0525" y="7.2" width="383.01" height="47.496"/>
  </clipPath>
  <clipPath id="p675a9fe50d">
   <rect x="53.0525" y="70.696" width="383.01" height="94.992"/>
  </clipPath>
  <clipPath id="p65534c43a5">
   <rect x="53.0525" y="181.688" width="383.01" height="94.992"/>
  </clipPath>
 </defs>
</svg>
