<?xml version="1.0" encoding="utf-8" standalone="no"?>
<!DOCTYPE svg PUBLIC "-//W3C//DTD SVG 1.1//EN"
  "http://www.w3.org/Graphics/SVG/1.1/DTD/svg11.dtd">
<svg xmlns:xlink="http://www.w3.org/1999/xlink" width="443.2075pt" height="325.85pt" viewBox="0 0 443.2075 325.85" xmlns="http://www.w3.org/2000/svg" version="1.1">
 <metadata>
  <rdf:RDF xmlns:dc="http://purl.org/dc/elements/1.1/" xmlns:cc="http://creativecommons.org/ns#" xmlns:rdf="http://www.w3.org/1999/02/22-rdf-syntax-ns#">
   <cc:Work>
    <dc:type rdf:resource="http://purl.org/dc/dcmitype/StillImage"/>
    <dc:date>2024-01-28T20:55:56.141282</dc:date>
    <dc:format>image/svg+xml</dc:format>
    <dc:creator>
     <cc:Agent>
      <dc:title>Matplotlib v3.7.2, https://matplotlib.org/</dc:title>
     </cc:Agent>
    </dc:creator>
   </cc:Work>
  </rdf:RDF>
 </metadata>
 <defs>
  <style type="text/css">*{stroke-linejoin: round; stroke-linecap: butt}</style>
 </defs>
 <g id="figure_1">
  <g id="patch_1">
   <path d="M 0 325.85 
L 443.2075 325.85 
L 443.2075 0 
L 0 0 
z
" style="fill: #ffffff"/>
  </g>
  <g id="axes_1">
   <g id="patch_2">
    <path d="M 37.7875 54.696 
L 436.0075 54.696 
L 436.0075 7.2 
L 37.7875 7.2 
z
" style="fill: #ffffff"/>
   </g>
   <g id="PolyCollection_1">
    <defs>
     <path id="m22869ab02f" d="M 55.888409 -273.312909 
L 55.888409 -311.503243 
L 63.128773 -310.85875 
L 70.369136 -310.135492 
L 77.6095 -309.328427 
L 84.849864 -308.433033 
L 92.090227 -307.445672 
L 99.330591 -306.364094 
L 106.570955 -305.187958 
L 113.811318 -303.919375 
L 121.051682 -302.563392 
L 128.292045 -301.128386 
L 135.532409 -299.62622 
L 142.772773 -298.072182 
L 150.013136 -296.484526 
L 157.2535 -294.88373 
L 164.493864 -293.291501 
L 171.734227 -291.729535 
L 178.974591 -290.21828 
L 186.214955 -288.775856 
L 193.455318 -287.417161 
L 200.695682 -286.153387 
L 207.936045 -284.991843 
L 215.176409 -283.936145 
L 222.416773 -282.986639 
L 229.657136 -282.14099 
L 236.8975 -281.394854 
L 244.137864 -280.7425 
L 251.378227 -280.177417 
L 258.618591 -279.692789 
L 265.858955 -279.281884 
L 273.099318 -278.938331 
L 280.339682 -278.656318 
L 287.580045 -278.430717 
L 294.820409 -278.257138 
L 302.060773 -278.131962 
L 309.301136 -278.110485 
L 316.5415 -278.110485 
L 323.781864 -278.110485 
L 331.022227 -278.110485 
L 338.262591 -278.157289 
L 345.502955 -278.287066 
L 352.743318 -278.459297 
L 359.983682 -278.675298 
L 367.224045 -278.936731 
L 374.464409 -279.245476 
L 381.704773 -279.603543 
L 388.945136 -280.012922 
L 396.1855 -280.475449 
L 403.425864 -280.99264 
L 410.666227 -281.565532 
L 417.906591 -282.194527 
L 417.906591 -273.312909 
L 417.906591 -273.312909 
L 410.666227 -273.312909 
L 403.425864 -273.312909 
L 396.1855 -273.312909 
L 388.945136 -273.312909 
L 381.704773 -273.312909 
L 374.464409 -273.312909 
L 367.224045 -273.312909 
L 359.983682 -273.312909 
L 352.743318 -273.312909 
L 345.502955 -273.312909 
L 338.262591 -273.312909 
L 331.022227 -273.312909 
L 323.781864 -273.312909 
L 316.5415 -273.312909 
L 309.301136 -273.312909 
L 302.060773 -273.312909 
L 294.820409 -273.312909 
L 287.580045 -273.312909 
L 280.339682 -273.312909 
L 273.099318 -273.312909 
L 265.858955 -273.312909 
L 258.618591 -273.312909 
L 251.378227 -273.312909 
L 244.137864 -273.312909 
L 236.8975 -273.312909 
L 229.657136 -273.312909 
L 222.416773 -273.312909 
L 215.176409 -273.312909 
L 207.936045 -273.312909 
L 200.695682 -273.312909 
L 193.455318 -273.312909 
L 186.214955 -273.312909 
L 178.974591 -273.312909 
L 171.734227 -273.312909 
L 164.493864 -273.312909 
L 157.2535 -273.312909 
L 150.013136 -273.312909 
L 142.772773 -273.312909 
L 135.532409 -273.312909 
L 128.292045 -273.312909 
L 121.051682 -273.312909 
L 113.811318 -273.312909 
L 106.570955 -273.312909 
L 99.330591 -273.312909 
L 92.090227 -273.312909 
L 84.849864 -273.312909 
L 77.6095 -273.312909 
L 70.369136 -273.312909 
L 63.128773 -273.312909 
L 55.888409 -273.312909 
z
" style="stroke: #dc143c; stroke-opacity: 0.2"/>
    </defs>
    <g clip-path="url(#pe4b79a370d)">
     <use xlink:href="#m22869ab02f" x="0" y="325.85" style="fill: #dc143c; fill-opacity: 0.2; stroke: #dc143c; stroke-opacity: 0.2"/>
    </g>
   </g>
   <g id="PolyCollection_2">
    <defs>
     <path id="mf62920714b" d="M 55.888409 -273.312909 
L 55.888409 -283.098333 
L 63.128773 -283.742825 
L 70.369136 -284.466084 
L 77.6095 -285.273148 
L 84.849864 -286.168543 
L 92.090227 -287.155903 
L 99.330591 -288.237482 
L 106.570955 -289.413618 
L 113.811318 -290.682201 
L 121.051682 -292.038184 
L 128.292045 -293.47319 
L 135.532409 -294.975355 
L 142.772773 -296.529394 
L 150.013136 -298.11705 
L 157.2535 -299.717846 
L 164.493864 -301.310074 
L 171.734227 -302.872041 
L 178.974591 -304.383296 
L 186.214955 -305.82572 
L 193.455318 -307.184414 
L 200.695682 -308.448189 
L 207.936045 -309.609733 
L 215.176409 -310.665431 
L 222.416773 -311.614936 
L 229.657136 -312.460585 
L 236.8975 -313.206722 
L 244.137864 -313.859076 
L 251.378227 -314.424159 
L 258.618591 -314.908787 
L 265.858955 -315.319692 
L 273.099318 -315.663245 
L 280.339682 -315.945257 
L 287.580045 -316.170859 
L 294.820409 -316.344438 
L 302.060773 -316.469614 
L 309.301136 -316.491091 
L 316.5415 -316.491091 
L 323.781864 -316.491091 
L 331.022227 -316.491091 
L 338.262591 -316.444287 
L 345.502955 -316.314509 
L 352.743318 -316.142279 
L 359.983682 -315.926278 
L 367.224045 -315.664845 
L 374.464409 -315.3561 
L 381.704773 -314.998033 
L 388.945136 -314.588653 
L 396.1855 -314.126127 
L 403.425864 -313.608936 
L 410.666227 -313.036044 
L 417.906591 -312.407049 
L 417.906591 -273.312909 
L 417.906591 -273.312909 
L 410.666227 -273.312909 
L 403.425864 -273.312909 
L 396.1855 -273.312909 
L 388.945136 -273.312909 
L 381.704773 -273.312909 
L 374.464409 -273.312909 
L 367.224045 -273.312909 
L 359.983682 -273.312909 
L 352.743318 -273.312909 
L 345.502955 -273.312909 
L 338.262591 -273.312909 
L 331.022227 -273.312909 
L 323.781864 -273.312909 
L 316.5415 -273.312909 
L 309.301136 -273.312909 
L 302.060773 -273.312909 
L 294.820409 -273.312909 
L 287.580045 -273.312909 
L 280.339682 -273.312909 
L 273.099318 -273.312909 
L 265.858955 -273.312909 
L 258.618591 -273.312909 
L 251.378227 -273.312909 
L 244.137864 -273.312909 
L 236.8975 -273.312909 
L 229.657136 -273.312909 
L 222.416773 -273.312909 
L 215.176409 -273.312909 
L 207.936045 -273.312909 
L 200.695682 -273.312909 
L 193.455318 -273.312909 
L 186.214955 -273.312909 
L 178.974591 -273.312909 
L 171.734227 -273.312909 
L 164.493864 -273.312909 
L 157.2535 -273.312909 
L 150.013136 -273.312909 
L 142.772773 -273.312909 
L 135.532409 -273.312909 
L 128.292045 -273.312909 
L 121.051682 -273.312909 
L 113.811318 -273.312909 
L 106.570955 -273.312909 
L 99.330591 -273.312909 
L 92.090227 -273.312909 
L 84.849864 -273.312909 
L 77.6095 -273.312909 
L 70.369136 -273.312909 
L 63.128773 -273.312909 
L 55.888409 -273.312909 
z
" style="stroke: #000080; stroke-opacity: 0.2"/>
    </defs>
    <g clip-path="url(#pe4b79a370d)">
     <use xlink:href="#mf62920714b" x="0" y="325.85" style="fill: #000080; fill-opacity: 0.2; stroke: #000080; stroke-opacity: 0.2"/>
    </g>
   </g>
   <g id="matplotlib.axis_1"/>
   <g id="matplotlib.axis_2"/>
   <g id="line2d_1">
    <path d="M 55.888409 14.346757 
L 63.128773 14.99125 
L 70.369136 15.714508 
L 77.6095 16.521573 
L 84.849864 17.416967 
L 92.090227 18.404328 
L 99.330591 19.485906 
L 106.570955 20.662042 
L 113.811318 21.930625 
L 121.051682 23.286608 
L 128.292045 24.721614 
L 135.532409 26.22378 
L 142.772773 27.777818 
L 150.013136 29.365474 
L 157.2535 30.96627 
L 164.493864 32.558499 
L 171.734227 34.120465 
L 178.974591 35.63172 
L 186.214955 37.074144 
L 193.455318 38.432839 
L 200.695682 39.696613 
L 207.936045 40.858157 
L 215.176409 41.913855 
L 222.416773 42.863361 
L 229.657136 43.70901 
L 236.8975 44.455146 
L 244.137864 45.1075 
L 251.378227 45.672583 
L 258.618591 46.157211 
L 265.858955 46.568116 
L 273.099318 46.911669 
L 280.339682 47.193682 
L 287.580045 47.419283 
L 294.820409 47.592862 
L 302.060773 47.718038 
L 309.301136 47.739515 
L 316.5415 47.739515 
L 323.781864 47.739515 
L 331.022227 47.739515 
L 338.262591 47.692711 
L 345.502955 47.562934 
L 352.743318 47.390703 
L 359.983682 47.174702 
L 367.224045 46.913269 
L 374.464409 46.604524 
L 381.704773 46.246457 
L 388.945136 45.837078 
L 396.1855 45.374551 
L 403.425864 44.85736 
L 410.666227 44.284468 
L 417.906591 43.655473 
" clip-path="url(#pe4b79a370d)" style="fill: none; stroke: #dc143c; stroke-width: 1.5; stroke-linecap: square"/>
   </g>
   <g id="line2d_2">
    <path d="M 55.888409 42.751667 
L 63.128773 42.107175 
L 70.369136 41.383916 
L 77.6095 40.576852 
L 84.849864 39.681457 
L 92.090227 38.694097 
L 99.330591 37.612518 
L 106.570955 36.436382 
L 113.811318 35.167799 
L 121.051682 33.811816 
L 128.292045 32.37681 
L 135.532409 30.874645 
L 142.772773 29.320606 
L 150.013136 27.73295 
L 157.2535 26.132154 
L 164.493864 24.539926 
L 171.734227 22.977959 
L 178.974591 21.466704 
L 186.214955 20.02428 
L 193.455318 18.665586 
L 200.695682 17.401811 
L 207.936045 16.240267 
L 215.176409 15.184569 
L 222.416773 14.235064 
L 229.657136 13.389415 
L 236.8975 12.643278 
L 244.137864 11.990924 
L 251.378227 11.425841 
L 258.618591 10.941213 
L 265.858955 10.530308 
L 273.099318 10.186755 
L 280.339682 9.904743 
L 287.580045 9.679141 
L 294.820409 9.505562 
L 302.060773 9.380386 
L 309.301136 9.358909 
L 316.5415 9.358909 
L 323.781864 9.358909 
L 331.022227 9.358909 
L 338.262591 9.405713 
L 345.502955 9.535491 
L 352.743318 9.707721 
L 359.983682 9.923722 
L 367.224045 10.185155 
L 374.464409 10.4939 
L 381.704773 10.851967 
L 388.945136 11.261347 
L 396.1855 11.723873 
L 403.425864 12.241064 
L 410.666227 12.813956 
L 417.906591 13.442951 
" clip-path="url(#pe4b79a370d)" style="fill: none; stroke: #000080; stroke-width: 1.5; stroke-linecap: square"/>
   </g>
  </g>
  <g id="axes_2">
   <g id="patch_3">
    <path d="M 37.7875 165.688 
L 436.0075 165.688 
L 436.0075 70.696 
L 37.7875 70.696 
z
" style="fill: #ffffff"/>
   </g>
   <g id="PathCollection_1">
    <defs>
     <path id="m72a9c07576" d="M 0 0.866025 
C 0.229673 0.866025 0.449969 0.774776 0.612372 0.612372 
C 0.774776 0.449969 0.866025 0.229673 0.866025 0 
C 0.866025 -0.229673 0.774776 -0.449969 0.612372 -0.612372 
C 0.449969 -0.774776 0.229673 -0.866025 0 -0.866025 
C -0.229673 -0.866025 -0.449969 -0.774776 -0.612372 -0.612372 
C -0.774776 -0.449969 -0.866025 -0.229673 -0.866025 0 
C -0.866025 0.229673 -0.774776 0.449969 -0.612372 0.612372 
C -0.449969 0.774776 -0.229673 0.866025 0 0.866025 
z
" style="stroke: #daa520"/>
    </defs>
    <g clip-path="url(#p6488af07ba)">
     <use xlink:href="#m72a9c07576" x="122.311941" y="101.378899" style="fill: #daa520; stroke: #daa520"/>
     <use xlink:href="#m72a9c07576" x="296.800872" y="146.265921" style="fill: #daa520; stroke: #daa520"/>
     <use xlink:href="#m72a9c07576" x="83.29066" y="118.774823" style="fill: #daa520; stroke: #daa520"/>
     <use xlink:href="#m72a9c07576" x="257.776549" y="75.013818" style="fill: #daa520; stroke: #daa520"/>
     <use xlink:href="#m72a9c07576" x="73.590458" y="122.616793" style="fill: #daa520; stroke: #daa520"/>
     <use xlink:href="#m72a9c07576" x="121.500503" y="95.458396" style="fill: #daa520; stroke: #daa520"/>
     <use xlink:href="#m72a9c07576" x="85.29514" y="121.990916" style="fill: #daa520; stroke: #daa520"/>
     <use xlink:href="#m72a9c07576" x="302.710674" y="96.595723" style="fill: #daa520; stroke: #daa520"/>
     <use xlink:href="#m72a9c07576" x="59.130752" y="126.092664" style="fill: #daa520; stroke: #daa520"/>
     <use xlink:href="#m72a9c07576" x="389.131332" y="109.911702" style="fill: #daa520; stroke: #daa520"/>
     <use xlink:href="#m72a9c07576" x="209.020241" y="160.098488" style="fill: #daa520; stroke: #daa520"/>
     <use xlink:href="#m72a9c07576" x="57.666573" y="118.253567" style="fill: #daa520; stroke: #daa520"/>
     <use xlink:href="#m72a9c07576" x="66.317637" y="123.724795" style="fill: #daa520; stroke: #daa520"/>
     <use xlink:href="#m72a9c07576" x="195.983995" y="98.031281" style="fill: #daa520; stroke: #daa520"/>
     <use xlink:href="#m72a9c07576" x="416.166808" y="99.565199" style="fill: #daa520; stroke: #daa520"/>
     <use xlink:href="#m72a9c07576" x="57.99518" y="119.958077" style="fill: #daa520; stroke: #daa520"/>
     <use xlink:href="#m72a9c07576" x="138.166746" y="116.614914" style="fill: #daa520; stroke: #daa520"/>
     <use xlink:href="#m72a9c07576" x="100.935754" y="111.14237" style="fill: #daa520; stroke: #daa520"/>
     <use xlink:href="#m72a9c07576" x="61.968683" y="127.138834" style="fill: #daa520; stroke: #daa520"/>
     <use xlink:href="#m72a9c07576" x="136.922764" y="126.152987" style="fill: #daa520; stroke: #daa520"/>
     <use xlink:href="#m72a9c07576" x="112.423934" y="106.463391" style="fill: #daa520; stroke: #daa520"/>
     <use xlink:href="#m72a9c07576" x="156.054575" y="105.556227" style="fill: #daa520; stroke: #daa520"/>
     <use xlink:href="#m72a9c07576" x="139.164629" y="102.678207" style="fill: #daa520; stroke: #daa520"/>
     <use xlink:href="#m72a9c07576" x="103.152072" y="110.259609" style="fill: #daa520; stroke: #daa520"/>
     <use xlink:href="#m72a9c07576" x="136.044097" y="104.206689" style="fill: #daa520; stroke: #daa520"/>
     <use xlink:href="#m72a9c07576" x="148.454111" y="108.952461" style="fill: #daa520; stroke: #daa520"/>
     <use xlink:href="#m72a9c07576" x="211.064342" y="143.515983" style="fill: #daa520; stroke: #daa520"/>
     <use xlink:href="#m72a9c07576" x="63.887788" y="132.141937" style="fill: #daa520; stroke: #daa520"/>
     <use xlink:href="#m72a9c07576" x="110.001024" y="97.737922" style="fill: #daa520; stroke: #daa520"/>
     <use xlink:href="#m72a9c07576" x="120.437348" y="100.034651" style="fill: #daa520; stroke: #daa520"/>
     <use xlink:href="#m72a9c07576" x="152.90097" y="99.57415" style="fill: #daa520; stroke: #daa520"/>
     <use xlink:href="#m72a9c07576" x="141.560779" y="101.70892" style="fill: #daa520; stroke: #daa520"/>
     <use xlink:href="#m72a9c07576" x="303.878463" y="91.295004" style="fill: #daa520; stroke: #daa520"/>
     <use xlink:href="#m72a9c07576" x="139.135185" y="99.851735" style="fill: #daa520; stroke: #daa520"/>
     <use xlink:href="#m72a9c07576" x="60.487577" y="118.321005" style="fill: #daa520; stroke: #daa520"/>
     <use xlink:href="#m72a9c07576" x="170.091642" y="110.880735" style="fill: #daa520; stroke: #daa520"/>
     <use xlink:href="#m72a9c07576" x="249.380308" y="76.785657" style="fill: #daa520; stroke: #daa520"/>
     <use xlink:href="#m72a9c07576" x="65.524913" y="119.933814" style="fill: #daa520; stroke: #daa520"/>
     <use xlink:href="#m72a9c07576" x="139.513435" y="95.403629" style="fill: #daa520; stroke: #daa520"/>
     <use xlink:href="#m72a9c07576" x="59.060141" y="120.471549" style="fill: #daa520; stroke: #daa520"/>
     <use xlink:href="#m72a9c07576" x="108.714638" y="104.070355" style="fill: #daa520; stroke: #daa520"/>
     <use xlink:href="#m72a9c07576" x="227.508491" y="103.781953" style="fill: #daa520; stroke: #daa520"/>
     <use xlink:href="#m72a9c07576" x="168.578787" y="105.143856" style="fill: #daa520; stroke: #daa520"/>
     <use xlink:href="#m72a9c07576" x="175.596222" y="136.192499" style="fill: #daa520; stroke: #daa520"/>
     <use xlink:href="#m72a9c07576" x="264.238962" y="161.370182" style="fill: #daa520; stroke: #daa520"/>
     <use xlink:href="#m72a9c07576" x="105.762593" y="106.120125" style="fill: #daa520; stroke: #daa520"/>
     <use xlink:href="#m72a9c07576" x="86.568408" y="118.930015" style="fill: #daa520; stroke: #daa520"/>
     <use xlink:href="#m72a9c07576" x="135.599258" y="104.624123" style="fill: #daa520; stroke: #daa520"/>
     <use xlink:href="#m72a9c07576" x="66.861737" y="122.793725" style="fill: #daa520; stroke: #daa520"/>
     <use xlink:href="#m72a9c07576" x="117.221447" y="98.953913" style="fill: #daa520; stroke: #daa520"/>
     <use xlink:href="#m72a9c07576" x="354.092915" y="116.865191" style="fill: #daa520; stroke: #daa520"/>
     <use xlink:href="#m72a9c07576" x="221.257496" y="132.915256" style="fill: #daa520; stroke: #daa520"/>
     <use xlink:href="#m72a9c07576" x="176.194748" y="102.775602" style="fill: #daa520; stroke: #daa520"/>
     <use xlink:href="#m72a9c07576" x="347.831212" y="92.05699" style="fill: #daa520; stroke: #daa520"/>
     <use xlink:href="#m72a9c07576" x="248.340943" y="113.827961" style="fill: #daa520; stroke: #daa520"/>
     <use xlink:href="#m72a9c07576" x="90.010427" y="119.51991" style="fill: #daa520; stroke: #daa520"/>
     <use xlink:href="#m72a9c07576" x="249.782829" y="152.160206" style="fill: #daa520; stroke: #daa520"/>
     <use xlink:href="#m72a9c07576" x="391.061615" y="105.267071" style="fill: #daa520; stroke: #daa520"/>
     <use xlink:href="#m72a9c07576" x="166.0826" y="115.044475" style="fill: #daa520; stroke: #daa520"/>
     <use xlink:href="#m72a9c07576" x="402.686106" y="97.812392" style="fill: #daa520; stroke: #daa520"/>
     <use xlink:href="#m72a9c07576" x="123.49145" y="102.843345" style="fill: #daa520; stroke: #daa520"/>
     <use xlink:href="#m72a9c07576" x="153.968431" y="99.487305" style="fill: #daa520; stroke: #daa520"/>
     <use xlink:href="#m72a9c07576" x="113.026862" y="104.803644" style="fill: #daa520; stroke: #daa520"/>
     <use xlink:href="#m72a9c07576" x="65.953473" y="119.38807" style="fill: #daa520; stroke: #daa520"/>
     <use xlink:href="#m72a9c07576" x="132.820085" y="103.3361" style="fill: #daa520; stroke: #daa520"/>
     <use xlink:href="#m72a9c07576" x="90.702014" y="109.633788" style="fill: #daa520; stroke: #daa520"/>
     <use xlink:href="#m72a9c07576" x="210.513326" y="93.075748" style="fill: #daa520; stroke: #daa520"/>
     <use xlink:href="#m72a9c07576" x="407.064345" y="99.8462" style="fill: #daa520; stroke: #daa520"/>
     <use xlink:href="#m72a9c07576" x="99.708808" y="110.251065" style="fill: #daa520; stroke: #daa520"/>
     <use xlink:href="#m72a9c07576" x="89.939436" y="117.541069" style="fill: #daa520; stroke: #daa520"/>
     <use xlink:href="#m72a9c07576" x="76.10372" y="108.36326" style="fill: #daa520; stroke: #daa520"/>
     <use xlink:href="#m72a9c07576" x="255.796435" y="156.833608" style="fill: #daa520; stroke: #daa520"/>
     <use xlink:href="#m72a9c07576" x="62.036978" y="124.451167" style="fill: #daa520; stroke: #daa520"/>
     <use xlink:href="#m72a9c07576" x="220.307632" y="98.367923" style="fill: #daa520; stroke: #daa520"/>
     <use xlink:href="#m72a9c07576" x="147.424307" y="107.760244" style="fill: #daa520; stroke: #daa520"/>
     <use xlink:href="#m72a9c07576" x="244.078398" y="79.146183" style="fill: #daa520; stroke: #daa520"/>
     <use xlink:href="#m72a9c07576" x="65.271079" y="114.335836" style="fill: #daa520; stroke: #daa520"/>
     <use xlink:href="#m72a9c07576" x="268.753001" y="82.239521" style="fill: #daa520; stroke: #daa520"/>
     <use xlink:href="#m72a9c07576" x="73.053666" y="130.06548" style="fill: #daa520; stroke: #daa520"/>
     <use xlink:href="#m72a9c07576" x="343.921628" y="103.050873" style="fill: #daa520; stroke: #daa520"/>
     <use xlink:href="#m72a9c07576" x="75.346922" y="110.504851" style="fill: #daa520; stroke: #daa520"/>
     <use xlink:href="#m72a9c07576" x="67.417532" y="131.197344" style="fill: #daa520; stroke: #daa520"/>
     <use xlink:href="#m72a9c07576" x="78.749644" y="114.601345" style="fill: #daa520; stroke: #daa520"/>
     <use xlink:href="#m72a9c07576" x="64.514568" y="115.486222" style="fill: #daa520; stroke: #daa520"/>
     <use xlink:href="#m72a9c07576" x="131.477145" y="103.201807" style="fill: #daa520; stroke: #daa520"/>
     <use xlink:href="#m72a9c07576" x="234.994739" y="111.52101" style="fill: #daa520; stroke: #daa520"/>
     <use xlink:href="#m72a9c07576" x="88.138319" y="105.279326" style="fill: #daa520; stroke: #daa520"/>
     <use xlink:href="#m72a9c07576" x="277.592405" y="84.800384" style="fill: #daa520; stroke: #daa520"/>
     <use xlink:href="#m72a9c07576" x="115.56041" y="105.480699" style="fill: #daa520; stroke: #daa520"/>
     <use xlink:href="#m72a9c07576" x="200.54492" y="144.354491" style="fill: #daa520; stroke: #daa520"/>
     <use xlink:href="#m72a9c07576" x="175.40212" y="129.501643" style="fill: #daa520; stroke: #daa520"/>
     <use xlink:href="#m72a9c07576" x="250.985914" y="78.92855" style="fill: #daa520; stroke: #daa520"/>
     <use xlink:href="#m72a9c07576" x="311.085601" y="130.715861" style="fill: #daa520; stroke: #daa520"/>
     <use xlink:href="#m72a9c07576" x="110.562094" y="95.584629" style="fill: #daa520; stroke: #daa520"/>
     <use xlink:href="#m72a9c07576" x="98.518264" y="102.870296" style="fill: #daa520; stroke: #daa520"/>
     <use xlink:href="#m72a9c07576" x="345.330991" y="100.190542" style="fill: #daa520; stroke: #daa520"/>
     <use xlink:href="#m72a9c07576" x="113.234888" y="103.76071" style="fill: #daa520; stroke: #daa520"/>
     <use xlink:href="#m72a9c07576" x="181.64522" y="103.893979" style="fill: #daa520; stroke: #daa520"/>
     <use xlink:href="#m72a9c07576" x="121.34564" y="103.438507" style="fill: #daa520; stroke: #daa520"/>
     <use xlink:href="#m72a9c07576" x="137.757252" y="124.352858" style="fill: #daa520; stroke: #daa520"/>
     <use xlink:href="#m72a9c07576" x="372.597281" y="98.729906" style="fill: #daa520; stroke: #daa520"/>
    </g>
   </g>
   <g id="matplotlib.axis_3"/>
   <g id="matplotlib.axis_4">
    <g id="ytick_1">
     <g id="line2d_3">
      <defs>
       <path id="m3863cc885a" d="M 0 0 
L -3.5 0 
" style="stroke: #696969; stroke-width: 0.8"/>
      </defs>
      <g>
       <use xlink:href="#m3863cc885a" x="37.7875" y="142.296536" style="fill: #696969; stroke: #696969; stroke-width: 0.8"/>
      </g>
     </g>
     <g id="text_1">
      <!-- −5 -->
      <g style="fill: #696969" transform="translate(7.2 148.375286) scale(0.16 -0.16)">
       <defs>
        <path id="DejaVuSans-2212" d="M 678 2272 
L 4684 2272 
L 4684 1741 
L 678 1741 
L 678 2272 
z
" transform="scale(0.015625)"/>
        <path id="DejaVuSans-35" d="M 691 4666 
L 3169 4666 
L 3169 4134 
L 1269 4134 
L 1269 2991 
Q 1406 3038 1543 3061 
Q 1681 3084 1819 3084 
Q 2600 3084 3056 2656 
Q 3513 2228 3513 1497 
Q 3513 744 3044 326 
Q 2575 -91 1722 -91 
Q 1428 -91 1123 -41 
Q 819 9 494 109 
L 494 744 
Q 775 591 1075 516 
Q 1375 441 1709 441 
Q 2250 441 2565 725 
Q 2881 1009 2881 1497 
Q 2881 1984 2565 2268 
Q 2250 2553 1709 2553 
Q 1456 2553 1204 2497 
Q 953 2441 691 2322 
L 691 4666 
z
" transform="scale(0.015625)"/>
       </defs>
       <use xlink:href="#DejaVuSans-2212"/>
       <use xlink:href="#DejaVuSans-35" x="83.789062"/>
      </g>
     </g>
    </g>
    <g id="ytick_2">
     <g id="line2d_4">
      <g>
       <use xlink:href="#m3863cc885a" x="37.7875" y="112.784041" style="fill: #696969; stroke: #696969; stroke-width: 0.8"/>
      </g>
     </g>
     <g id="text_2">
      <!-- 0 -->
      <g style="fill: #696969" transform="translate(20.6075 118.862791) scale(0.16 -0.16)">
       <defs>
        <path id="DejaVuSans-30" d="M 2034 4250 
Q 1547 4250 1301 3770 
Q 1056 3291 1056 2328 
Q 1056 1369 1301 889 
Q 1547 409 2034 409 
Q 2525 409 2770 889 
Q 3016 1369 3016 2328 
Q 3016 3291 2770 3770 
Q 2525 4250 2034 4250 
z
M 2034 4750 
Q 2819 4750 3233 4129 
Q 3647 3509 3647 2328 
Q 3647 1150 3233 529 
Q 2819 -91 2034 -91 
Q 1250 -91 836 529 
Q 422 1150 422 2328 
Q 422 3509 836 4129 
Q 1250 4750 2034 4750 
z
" transform="scale(0.015625)"/>
       </defs>
       <use xlink:href="#DejaVuSans-30"/>
      </g>
     </g>
    </g>
    <g id="ytick_3">
     <g id="line2d_5">
      <g>
       <use xlink:href="#m3863cc885a" x="37.7875" y="83.271545" style="fill: #696969; stroke: #696969; stroke-width: 0.8"/>
      </g>
     </g>
     <g id="text_3">
      <!-- 5 -->
      <g style="fill: #696969" transform="translate(20.6075 89.350295) scale(0.16 -0.16)">
       <use xlink:href="#DejaVuSans-35"/>
      </g>
     </g>
    </g>
   </g>
   <g id="line2d_6">
    <path d="M 55.888409 122.146849 
L 63.128773 122.33863 
L 70.369136 121.513715 
L 77.6095 119.432883 
L 84.849864 116.163734 
L 92.090227 112.122273 
L 99.330591 107.974609 
L 106.570955 104.440142 
L 113.811318 102.083446 
L 121.051682 101.1805 
L 128.292045 101.701039 
L 135.532409 103.389043 
L 142.772773 105.880785 
L 150.013136 108.796555 
L 157.2535 111.776059 
L 164.493864 114.473495 
L 171.734227 116.554234 
L 178.974591 117.724653 
L 186.214955 117.792717 
L 193.455318 116.728578 
L 200.695682 114.69273 
L 207.936045 112.019454 
L 215.176409 109.164377 
L 222.416773 106.631389 
L 229.657136 104.888678 
L 236.8975 104.28005 
L 244.137864 104.942833 
L 251.378227 106.753143 
L 258.618591 109.323004 
L 265.858955 112.066173 
L 273.099318 114.330339 
L 280.339682 115.567003 
L 287.580045 115.485808 
L 294.820409 114.133154 
L 302.060773 111.857834 
L 309.301136 109.175687 
L 316.5415 106.594572 
L 323.781864 104.477989 
L 331.022227 102.997849 
L 338.262591 102.172566 
L 345.502955 101.942994 
L 352.743318 102.23174 
L 359.983682 102.958857 
L 367.224045 104.024488 
L 374.464409 105.290234 
L 381.704773 106.586418 
L 388.945136 107.749846 
L 396.1855 108.673839 
L 403.425864 109.342623 
L 410.666227 109.829713 
L 417.906591 110.258282 
" clip-path="url(#p6488af07ba)" style="fill: none; stroke: #000000; stroke-width: 2; stroke-linecap: square"/>
   </g>
   <g id="line2d_7">
    <path d="M 55.888409 126.333173 
L 63.128773 121.465559 
L 70.369136 117.632495 
L 77.6095 114.664226 
L 84.849864 112.413415 
L 92.090227 110.752816 
L 99.330591 109.57312 
L 106.570955 108.780956 
L 113.811318 108.297055 
L 121.051682 108.05456 
L 128.292045 107.997485 
L 135.532409 108.079301 
L 142.772773 108.26166 
L 150.013136 108.513242 
L 157.2535 108.808716 
L 164.493864 109.127817 
L 171.734227 109.454517 
L 178.974591 109.776311 
L 186.214955 110.083574 
L 193.455318 110.369021 
L 200.695682 110.627234 
L 207.936045 110.854264 
L 215.176409 111.047302 
L 222.416773 111.204403 
L 229.657136 111.324263 
L 236.8975 111.406051 
L 244.137864 111.449268 
L 251.378227 111.453644 
L 258.618591 111.419066 
L 265.858955 111.34552 
L 273.099318 111.233048 
L 280.339682 111.081711 
L 287.580045 110.891558 
L 294.820409 110.662581 
L 302.060773 110.394664 
L 309.301136 110.08751 
L 316.5415 109.740542 
L 323.781864 109.352772 
L 331.022227 108.922638 
L 338.262591 108.447785 
L 345.502955 107.924803 
L 352.743318 107.348904 
L 359.983682 106.713536 
L 367.224045 106.009925 
L 374.464409 105.226537 
L 381.704773 104.348463 
L 388.945136 103.356708 
L 396.1855 102.227384 
L 403.425864 100.930803 
L 410.666227 99.430455 
L 417.906591 97.681872 
" clip-path="url(#p6488af07ba)" style="fill: none; stroke-dasharray: 7.4,3.2; stroke-dashoffset: 0; stroke: #34b6c6; stroke-width: 2"/>
   </g>
   <g id="line2d_8">
    <path d="M 55.888409 122.860214 
L 63.128773 121.96932 
L 70.369136 120.632772 
L 77.6095 118.267951 
L 84.849864 114.970691 
L 92.090227 111.712506 
L 99.330591 108.565514 
L 106.570955 105.549265 
L 113.811318 103.738251 
L 121.051682 103.295389 
L 128.292045 103.728596 
L 135.532409 104.858426 
L 142.772773 106.847364 
L 150.013136 109.909342 
L 157.2535 113.331058 
L 164.493864 115.678455 
L 171.734227 116.782499 
L 178.974591 117.230353 
L 186.214955 117.368408 
L 193.455318 117.248763 
L 200.695682 116.603687 
L 207.936045 114.684328 
L 215.176409 111.780131 
L 222.416773 109.965988 
L 229.657136 109.289068 
L 236.8975 109.058103 
L 244.137864 108.990497 
L 251.378227 109.04817 
L 258.618591 109.43834 
L 265.858955 110.946669 
L 273.099318 113.806994 
L 280.339682 115.475675 
L 287.580045 115.82405 
L 294.820409 115.640908 
L 302.060773 114.729902 
L 309.301136 111.729338 
L 316.5415 107.272098 
L 323.781864 105.144364 
L 331.022227 104.323962 
L 338.262591 103.88276 
L 345.502955 103.569233 
L 352.743318 103.3328 
L 359.983682 103.189945 
L 367.224045 103.17644 
L 374.464409 103.285131 
L 381.704773 103.394566 
L 388.945136 103.302248 
L 396.1855 102.864767 
L 403.425864 102.050995 
L 410.666227 100.881475 
L 417.906591 99.372085 
" clip-path="url(#p6488af07ba)" style="fill: none; stroke-dasharray: 7.4,3.2; stroke-dashoffset: 0; stroke: #9370db; stroke-width: 2"/>
   </g>
   <g id="line2d_9">
    <path d="M 55.888409 122.645415 
L 63.128773 122.292632 
L 70.369136 121.231615 
L 77.6095 118.841715 
L 84.849864 115.264374 
L 92.090227 111.626929 
L 99.330591 108.034687 
L 106.570955 104.529666 
L 113.811318 102.344231 
L 121.051682 101.676416 
L 128.292045 101.980642 
L 135.532409 103.062961 
L 142.772773 105.114529 
L 150.013136 108.383205 
L 157.2535 112.06642 
L 164.493864 114.545026 
L 171.734227 115.630412 
L 178.974591 115.988931 
L 186.214955 116.013962 
L 193.455318 115.765467 
L 200.695682 114.941204 
L 207.936045 112.694296 
L 215.176409 109.352545 
L 222.416773 107.263889 
L 229.657136 106.481818 
L 236.8975 106.224257 
L 244.137864 106.171556 
L 251.378227 106.280791 
L 258.618591 106.78667 
L 265.858955 108.578537 
L 273.099318 111.921504 
L 280.339682 113.938151 
L 287.580045 114.483896 
L 294.820409 114.452597 
L 302.060773 113.62385 
L 309.301136 110.45918 
L 316.5415 105.677642 
L 323.781864 103.567071 
L 331.022227 102.975574 
L 338.262591 102.858829 
L 345.502955 102.939488 
L 352.743318 103.169215 
L 359.983682 103.577494 
L 367.224045 104.217897 
L 374.464409 105.098055 
L 381.704773 106.099307 
L 388.945136 107.01478 
L 396.1855 107.708444 
L 403.425864 108.175853 
L 410.666227 108.476162 
L 417.906591 108.669031 
" clip-path="url(#p6488af07ba)" style="fill: none; stroke-dasharray: 12.8,3.2,2,3.2; stroke-dashoffset: 0; stroke: #ff0000; stroke-width: 2"/>
   </g>
   <g id="patch_4">
    <path d="M 37.7875 165.688 
L 37.7875 70.696 
" style="fill: none; stroke: #000000; stroke-width: 0.8; stroke-linejoin: miter; stroke-linecap: square"/>
   </g>
   <g id="patch_5">
    <path d="M 436.0075 165.688 
L 436.0075 70.696 
" style="fill: none; stroke: #000000; stroke-width: 0.8; stroke-linejoin: miter; stroke-linecap: square"/>
   </g>
   <g id="patch_6">
    <path d="M 37.7875 165.688 
L 436.0075 165.688 
" style="fill: none; stroke: #000000; stroke-width: 0.8; stroke-linejoin: miter; stroke-linecap: square"/>
   </g>
   <g id="patch_7">
    <path d="M 37.7875 70.696 
L 436.0075 70.696 
" style="fill: none; stroke: #000000; stroke-width: 0.8; stroke-linejoin: miter; stroke-linecap: square"/>
   </g>
  </g>
  <g id="axes_3">
   <g id="patch_8">
    <path d="M 37.7875 276.68 
L 436.0075 276.68 
L 436.0075 181.688 
L 37.7875 181.688 
z
" style="fill: #ffffff"/>
   </g>
   <g id="PathCollection_2">
    <g clip-path="url(#pca4f6eec10)">
     <use xlink:href="#m72a9c07576" x="122.311941" y="240.496943" style="fill: #daa520; stroke: #daa520"/>
     <use xlink:href="#m72a9c07576" x="296.800872" y="207.783126" style="fill: #daa520; stroke: #daa520"/>
     <use xlink:href="#m72a9c07576" x="83.29066" y="237.457635" style="fill: #daa520; stroke: #daa520"/>
     <use xlink:href="#m72a9c07576" x="257.776549" y="272.362182" style="fill: #daa520; stroke: #daa520"/>
     <use xlink:href="#m72a9c07576" x="73.590458" y="237.908918" style="fill: #daa520; stroke: #daa520"/>
     <use xlink:href="#m72a9c07576" x="121.500503" y="246.509293" style="fill: #daa520; stroke: #daa520"/>
     <use xlink:href="#m72a9c07576" x="85.29514" y="233.135853" style="fill: #daa520; stroke: #daa520"/>
     <use xlink:href="#m72a9c07576" x="302.710674" y="257.334518" style="fill: #daa520; stroke: #daa520"/>
     <use xlink:href="#m72a9c07576" x="59.130752" y="236.594643" style="fill: #daa520; stroke: #daa520"/>
     <use xlink:href="#m72a9c07576" x="389.131332" y="237.280096" style="fill: #daa520; stroke: #daa520"/>
     <use xlink:href="#m72a9c07576" x="209.020241" y="191.570908" style="fill: #daa520; stroke: #daa520"/>
     <use xlink:href="#m72a9c07576" x="57.666573" y="244.611051" style="fill: #daa520; stroke: #daa520"/>
     <use xlink:href="#m72a9c07576" x="66.317637" y="238.397139" style="fill: #daa520; stroke: #daa520"/>
     <use xlink:href="#m72a9c07576" x="195.983995" y="258.015273" style="fill: #daa520; stroke: #daa520"/>
     <use xlink:href="#m72a9c07576" x="416.166808" y="249.405156" style="fill: #daa520; stroke: #daa520"/>
     <use xlink:href="#m72a9c07576" x="57.99518" y="242.868952" style="fill: #daa520; stroke: #daa520"/>
     <use xlink:href="#m72a9c07576" x="138.166746" y="227.064236" style="fill: #daa520; stroke: #daa520"/>
     <use xlink:href="#m72a9c07576" x="100.935754" y="236.213023" style="fill: #daa520; stroke: #daa520"/>
     <use xlink:href="#m72a9c07576" x="61.968683" y="235.370553" style="fill: #daa520; stroke: #daa520"/>
     <use xlink:href="#m72a9c07576" x="136.922764" y="217.066802" style="fill: #daa520; stroke: #daa520"/>
     <use xlink:href="#m72a9c07576" x="112.423934" y="236.307187" style="fill: #daa520; stroke: #daa520"/>
     <use xlink:href="#m72a9c07576" x="156.054575" y="246.242026" style="fill: #daa520; stroke: #daa520"/>
     <use xlink:href="#m72a9c07576" x="139.164629" y="241.490093" style="fill: #daa520; stroke: #daa520"/>
     <use xlink:href="#m72a9c07576" x="103.152072" y="235.978395" style="fill: #daa520; stroke: #daa520"/>
     <use xlink:href="#m72a9c07576" x="136.044097" y="239.149903" style="fill: #daa520; stroke: #daa520"/>
     <use xlink:href="#m72a9c07576" x="148.454111" y="238.817259" style="fill: #daa520; stroke: #daa520"/>
     <use xlink:href="#m72a9c07576" x="211.064342" y="207.422913" style="fill: #daa520; stroke: #daa520"/>
     <use xlink:href="#m72a9c07576" x="63.887788" y="230.130252" style="fill: #daa520; stroke: #daa520"/>
     <use xlink:href="#m72a9c07576" x="110.001024" y="245.8251" style="fill: #daa520; stroke: #daa520"/>
     <use xlink:href="#m72a9c07576" x="120.437348" y="241.880626" style="fill: #daa520; stroke: #daa520"/>
     <use xlink:href="#m72a9c07576" x="152.90097" y="250.688485" style="fill: #daa520; stroke: #daa520"/>
     <use xlink:href="#m72a9c07576" x="141.560779" y="243.225497" style="fill: #daa520; stroke: #daa520"/>
     <use xlink:href="#m72a9c07576" x="303.878463" y="262.381606" style="fill: #daa520; stroke: #daa520"/>
     <use xlink:href="#m72a9c07576" x="139.135185" y="244.35178" style="fill: #daa520; stroke: #daa520"/>
     <use xlink:href="#m72a9c07576" x="60.487577" y="244.418552" style="fill: #daa520; stroke: #daa520"/>
     <use xlink:href="#m72a9c07576" x="170.091642" y="244.860847" style="fill: #daa520; stroke: #daa520"/>
     <use xlink:href="#m72a9c07576" x="249.380308" y="270.097855" style="fill: #daa520; stroke: #daa520"/>
     <use xlink:href="#m72a9c07576" x="65.524913" y="242.348871" style="fill: #daa520; stroke: #daa520"/>
     <use xlink:href="#m72a9c07576" x="139.513435" y="248.977933" style="fill: #daa520; stroke: #daa520"/>
     <use xlink:href="#m72a9c07576" x="59.060141" y="242.30559" style="fill: #daa520; stroke: #daa520"/>
     <use xlink:href="#m72a9c07576" x="108.714638" y="239.826177" style="fill: #daa520; stroke: #daa520"/>
     <use xlink:href="#m72a9c07576" x="227.508491" y="243.095843" style="fill: #daa520; stroke: #daa520"/>
     <use xlink:href="#m72a9c07576" x="168.578787" y="250.497791" style="fill: #daa520; stroke: #daa520"/>
     <use xlink:href="#m72a9c07576" x="175.596222" y="219.572389" style="fill: #daa520; stroke: #daa520"/>
     <use xlink:href="#m72a9c07576" x="264.238962" y="186.005818" style="fill: #daa520; stroke: #daa520"/>
     <use xlink:href="#m72a9c07576" x="105.762593" y="238.9385" style="fill: #daa520; stroke: #daa520"/>
     <use xlink:href="#m72a9c07576" x="86.568408" y="235.577766" style="fill: #daa520; stroke: #daa520"/>
     <use xlink:href="#m72a9c07576" x="135.599258" y="238.629455" style="fill: #daa520; stroke: #daa520"/>
     <use xlink:href="#m72a9c07576" x="66.861737" y="239.265627" style="fill: #daa520; stroke: #daa520"/>
     <use xlink:href="#m72a9c07576" x="117.221447" y="243.169243" style="fill: #daa520; stroke: #daa520"/>
     <use xlink:href="#m72a9c07576" x="354.092915" y="226.355122" style="fill: #daa520; stroke: #daa520"/>
     <use xlink:href="#m72a9c07576" x="221.257496" y="214.378338" style="fill: #daa520; stroke: #daa520"/>
     <use xlink:href="#m72a9c07576" x="176.194748" y="253.531011" style="fill: #daa520; stroke: #daa520"/>
     <use xlink:href="#m72a9c07576" x="347.831212" y="251.309006" style="fill: #daa520; stroke: #daa520"/>
     <use xlink:href="#m72a9c07576" x="248.340943" y="232.464389" style="fill: #daa520; stroke: #daa520"/>
     <use xlink:href="#m72a9c07576" x="90.010427" y="233.220945" style="fill: #daa520; stroke: #daa520"/>
     <use xlink:href="#m72a9c07576" x="249.782829" y="193.569115" style="fill: #daa520; stroke: #daa520"/>
     <use xlink:href="#m72a9c07576" x="391.061615" y="242.206765" style="fill: #daa520; stroke: #daa520"/>
     <use xlink:href="#m72a9c07576" x="166.0826" y="240.033253" style="fill: #daa520; stroke: #daa520"/>
     <use xlink:href="#m72a9c07576" x="402.686106" y="250.684329" style="fill: #daa520; stroke: #daa520"/>
     <use xlink:href="#m72a9c07576" x="123.49145" y="239.028737" style="fill: #daa520; stroke: #daa520"/>
     <use xlink:href="#m72a9c07576" x="153.968431" y="251.342748" style="fill: #daa520; stroke: #daa520"/>
     <use xlink:href="#m72a9c07576" x="113.026862" y="237.859303" style="fill: #daa520; stroke: #daa520"/>
     <use xlink:href="#m72a9c07576" x="65.953473" y="242.849163" style="fill: #daa520; stroke: #daa520"/>
     <use xlink:href="#m72a9c07576" x="132.820085" y="239.413649" style="fill: #daa520; stroke: #daa520"/>
     <use xlink:href="#m72a9c07576" x="90.702014" y="242.913862" style="fill: #daa520; stroke: #daa520"/>
     <use xlink:href="#m72a9c07576" x="210.513326" y="258.911236" style="fill: #daa520; stroke: #daa520"/>
     <use xlink:href="#m72a9c07576" x="407.064345" y="248.828981" style="fill: #daa520; stroke: #daa520"/>
     <use xlink:href="#m72a9c07576" x="99.708808" y="237.75398" style="fill: #daa520; stroke: #daa520"/>
     <use xlink:href="#m72a9c07576" x="89.939436" y="235.265929" style="fill: #daa520; stroke: #daa520"/>
     <use xlink:href="#m72a9c07576" x="76.10372" y="251.474125" style="fill: #daa520; stroke: #daa520"/>
     <use xlink:href="#m72a9c07576" x="255.796435" y="189.095693" style="fill: #daa520; stroke: #daa520"/>
     <use xlink:href="#m72a9c07576" x="62.036978" y="238.094782" style="fill: #daa520; stroke: #daa520"/>
     <use xlink:href="#m72a9c07576" x="220.307632" y="249.672009" style="fill: #daa520; stroke: #daa520"/>
     <use xlink:href="#m72a9c07576" x="147.424307" y="239.517845" style="fill: #daa520; stroke: #daa520"/>
     <use xlink:href="#m72a9c07576" x="244.078398" y="267.642766" style="fill: #daa520; stroke: #daa520"/>
     <use xlink:href="#m72a9c07576" x="65.271079" y="248.063638" style="fill: #daa520; stroke: #daa520"/>
     <use xlink:href="#m72a9c07576" x="268.753001" y="268.245488" style="fill: #daa520; stroke: #daa520"/>
     <use xlink:href="#m72a9c07576" x="73.053666" y="230.51416" style="fill: #daa520; stroke: #daa520"/>
     <use xlink:href="#m72a9c07576" x="343.921628" y="240.056594" style="fill: #daa520; stroke: #daa520"/>
     <use xlink:href="#m72a9c07576" x="75.346922" y="249.593224" style="fill: #daa520; stroke: #daa520"/>
     <use xlink:href="#m72a9c07576" x="67.417532" y="230.647658" style="fill: #daa520; stroke: #daa520"/>
     <use xlink:href="#m72a9c07576" x="78.749644" y="243.987267" style="fill: #daa520; stroke: #daa520"/>
     <use xlink:href="#m72a9c07576" x="64.514568" y="246.97983" style="fill: #daa520; stroke: #daa520"/>
     <use xlink:href="#m72a9c07576" x="131.477145" y="239.342756" style="fill: #daa520; stroke: #daa520"/>
     <use xlink:href="#m72a9c07576" x="234.994739" y="234.863975" style="fill: #daa520; stroke: #daa520"/>
     <use xlink:href="#m72a9c07576" x="88.138319" y="248.628995" style="fill: #daa520; stroke: #daa520"/>
     <use xlink:href="#m72a9c07576" x="277.592405" y="269.264088" style="fill: #daa520; stroke: #daa520"/>
     <use xlink:href="#m72a9c07576" x="115.56041" y="236.733333" style="fill: #daa520; stroke: #daa520"/>
     <use xlink:href="#m72a9c07576" x="200.54492" y="210.361917" style="fill: #daa520; stroke: #daa520"/>
     <use xlink:href="#m72a9c07576" x="175.40212" y="226.357402" style="fill: #daa520; stroke: #daa520"/>
     <use xlink:href="#m72a9c07576" x="250.985914" y="267.962612" style="fill: #daa520; stroke: #daa520"/>
     <use xlink:href="#m72a9c07576" x="311.085601" y="218.351928" style="fill: #daa520; stroke: #daa520"/>
     <use xlink:href="#m72a9c07576" x="110.562094" y="247.841436" style="fill: #daa520; stroke: #daa520"/>
     <use xlink:href="#m72a9c07576" x="98.518264" y="245.864294" style="fill: #daa520; stroke: #daa520"/>
     <use xlink:href="#m72a9c07576" x="345.330991" y="242.988192" style="fill: #daa520; stroke: #daa520"/>
     <use xlink:href="#m72a9c07576" x="113.234888" y="238.875052" style="fill: #daa520; stroke: #daa520"/>
     <use xlink:href="#m72a9c07576" x="181.64522" y="252.521449" style="fill: #daa520; stroke: #daa520"/>
     <use xlink:href="#m72a9c07576" x="121.34564" y="238.407428" style="fill: #daa520; stroke: #daa520"/>
     <use xlink:href="#m72a9c07576" x="137.757252" y="219.100599" style="fill: #daa520; stroke: #daa520"/>
     <use xlink:href="#m72a9c07576" x="372.597281" y="246.417267" style="fill: #daa520; stroke: #daa520"/>
    </g>
   </g>
   <g id="matplotlib.axis_5">
    <g id="xtick_1">
     <g id="line2d_10">
      <defs>
       <path id="m81a3287d4e" d="M 0 0 
L 0 3.5 
" style="stroke: #696969; stroke-width: 0.8"/>
      </defs>
      <g>
       <use xlink:href="#m81a3287d4e" x="55.888409" y="276.68" style="fill: #696969; stroke: #696969; stroke-width: 0.8"/>
      </g>
     </g>
     <g id="text_4">
      <!-- −1.0 -->
      <g style="fill: #696969" transform="translate(36.462159 295.8375) scale(0.16 -0.16)">
       <defs>
        <path id="DejaVuSans-31" d="M 794 531 
L 1825 531 
L 1825 4091 
L 703 3866 
L 703 4441 
L 1819 4666 
L 2450 4666 
L 2450 531 
L 3481 531 
L 3481 0 
L 794 0 
L 794 531 
z
" transform="scale(0.015625)"/>
        <path id="DejaVuSans-2e" d="M 684 794 
L 1344 794 
L 1344 0 
L 684 0 
L 684 794 
z
" transform="scale(0.015625)"/>
       </defs>
       <use xlink:href="#DejaVuSans-2212"/>
       <use xlink:href="#DejaVuSans-31" x="83.789062"/>
       <use xlink:href="#DejaVuSans-2e" x="147.412109"/>
       <use xlink:href="#DejaVuSans-30" x="179.199219"/>
      </g>
     </g>
    </g>
    <g id="xtick_2">
     <g id="line2d_11">
      <g>
       <use xlink:href="#m81a3287d4e" x="146.392955" y="276.68" style="fill: #696969; stroke: #696969; stroke-width: 0.8"/>
      </g>
     </g>
     <g id="text_5">
      <!-- −0.5 -->
      <g style="fill: #696969" transform="translate(126.966705 295.8375) scale(0.16 -0.16)">
       <use xlink:href="#DejaVuSans-2212"/>
       <use xlink:href="#DejaVuSans-30" x="83.789062"/>
       <use xlink:href="#DejaVuSans-2e" x="147.412109"/>
       <use xlink:href="#DejaVuSans-35" x="179.199219"/>
      </g>
     </g>
    </g>
    <g id="xtick_3">
     <g id="line2d_12">
      <g>
       <use xlink:href="#m81a3287d4e" x="236.8975" y="276.68" style="fill: #696969; stroke: #696969; stroke-width: 0.8"/>
      </g>
     </g>
     <g id="text_6">
      <!-- 0.0 -->
      <g style="fill: #696969" transform="translate(224.175 295.8375) scale(0.16 -0.16)">
       <use xlink:href="#DejaVuSans-30"/>
       <use xlink:href="#DejaVuSans-2e" x="63.623047"/>
       <use xlink:href="#DejaVuSans-30" x="95.410156"/>
      </g>
     </g>
    </g>
    <g id="xtick_4">
     <g id="line2d_13">
      <g>
       <use xlink:href="#m81a3287d4e" x="327.402045" y="276.68" style="fill: #696969; stroke: #696969; stroke-width: 0.8"/>
      </g>
     </g>
     <g id="text_7">
      <!-- 0.5 -->
      <g style="fill: #696969" transform="translate(314.679545 295.8375) scale(0.16 -0.16)">
       <use xlink:href="#DejaVuSans-30"/>
       <use xlink:href="#DejaVuSans-2e" x="63.623047"/>
       <use xlink:href="#DejaVuSans-35" x="95.410156"/>
      </g>
     </g>
    </g>
    <g id="xtick_5">
     <g id="line2d_14">
      <g>
       <use xlink:href="#m81a3287d4e" x="417.906591" y="276.68" style="fill: #696969; stroke: #696969; stroke-width: 0.8"/>
      </g>
     </g>
     <g id="text_8">
      <!-- 1.0 -->
      <g style="fill: #696969" transform="translate(405.184091 295.8375) scale(0.16 -0.16)">
       <use xlink:href="#DejaVuSans-31"/>
       <use xlink:href="#DejaVuSans-2e" x="63.623047"/>
       <use xlink:href="#DejaVuSans-30" x="95.410156"/>
      </g>
     </g>
    </g>
    <g id="text_9">
     <!-- $X$ -->
     <g transform="translate(231.3775 315.3225) scale(0.16 -0.16)">
      <defs>
       <path id="DejaVuSans-Oblique-58" d="M 878 4666 
L 1516 4666 
L 2316 2981 
L 3763 4666 
L 4500 4666 
L 2578 2438 
L 3738 0 
L 3103 0 
L 2163 1966 
L 459 0 
L -275 0 
L 1906 2509 
L 878 4666 
z
" transform="scale(0.015625)"/>
      </defs>
      <use xlink:href="#DejaVuSans-Oblique-58" transform="translate(0 0.09375)"/>
     </g>
    </g>
   </g>
   <g id="matplotlib.axis_6">
    <g id="ytick_4">
     <g id="line2d_15">
      <g>
       <use xlink:href="#m3863cc885a" x="37.7875" y="270.168419" style="fill: #696969; stroke: #696969; stroke-width: 0.8"/>
      </g>
     </g>
     <g id="text_10">
      <!-- −5 -->
      <g style="fill: #696969" transform="translate(7.2 276.247169) scale(0.16 -0.16)">
       <use xlink:href="#DejaVuSans-2212"/>
       <use xlink:href="#DejaVuSans-35" x="83.789062"/>
      </g>
     </g>
    </g>
    <g id="ytick_5">
     <g id="line2d_16">
      <g>
       <use xlink:href="#m3863cc885a" x="37.7875" y="240.200514" style="fill: #696969; stroke: #696969; stroke-width: 0.8"/>
      </g>
     </g>
     <g id="text_11">
      <!-- 0 -->
      <g style="fill: #696969" transform="translate(20.6075 246.279264) scale(0.16 -0.16)">
       <use xlink:href="#DejaVuSans-30"/>
      </g>
     </g>
    </g>
    <g id="ytick_6">
     <g id="line2d_17">
      <g>
       <use xlink:href="#m3863cc885a" x="37.7875" y="210.232608" style="fill: #696969; stroke: #696969; stroke-width: 0.8"/>
      </g>
     </g>
     <g id="text_12">
      <!-- 5 -->
      <g style="fill: #696969" transform="translate(20.6075 216.311358) scale(0.16 -0.16)">
       <use xlink:href="#DejaVuSans-35"/>
      </g>
     </g>
    </g>
   </g>
   <g id="line2d_18">
    <path d="M 55.888409 240.706773 
L 63.128773 240.153806 
L 70.369136 239.91406 
L 77.6095 239.600224 
L 84.849864 239.287275 
L 92.090227 239.697526 
L 99.330591 240.261519 
L 106.570955 240.291419 
L 113.811318 240.465322 
L 121.051682 240.704083 
L 128.292045 240.484431 
L 135.532409 239.8694 
L 142.772773 239.422433 
L 150.013136 239.780785 
L 157.2535 240.495355 
L 164.493864 240.273148 
L 171.734227 239.262436 
L 178.974591 238.438008 
L 186.214955 238.39431 
L 193.455318 239.222541 
L 200.695682 240.452821 
L 207.936045 240.88577 
L 215.176409 240.391585 
L 222.416773 240.842773 
L 229.657136 241.818237 
L 236.8975 242.174722 
L 244.137864 241.448197 
L 251.378227 239.720873 
L 258.618591 237.625042 
L 265.858955 236.65906 
L 273.099318 237.754507 
L 280.339682 238.546526 
L 287.580045 239.183141 
L 294.820409 240.524885 
L 302.060773 241.993781 
L 309.301136 241.503812 
L 316.5415 239.269434 
L 323.781864 239.275539 
L 331.022227 240.177895 
L 338.262591 240.897367 
L 345.502955 241.212384 
L 352.743318 241.152455 
L 359.983682 240.828697 
L 367.224045 240.396907 
L 374.464409 240.00537 
L 381.704773 239.705886 
L 388.945136 239.454104 
L 396.1855 239.220221 
L 403.425864 239.015739 
L 410.666227 238.826077 
L 417.906591 238.586739 
" clip-path="url(#pca4f6eec10)" style="fill: none; stroke: #696969; stroke-width: 2; stroke-linecap: square"/>
   </g>
   <g id="line2d_19">
    <path d="M 55.888409 240.446169 
L 63.128773 240.461543 
L 70.369136 240.407949 
L 77.6095 240.301901 
L 84.849864 240.157238 
L 92.090227 239.985462 
L 99.330591 239.796049 
L 106.570955 239.596732 
L 113.811318 239.393753 
L 121.051682 239.192085 
L 128.292045 238.995642 
L 135.532409 238.807449 
L 142.772773 238.6298 
L 150.013136 238.464396 
L 157.2535 238.312461 
L 164.493864 238.174841 
L 171.734227 238.052091 
L 178.974591 237.944544 
L 186.214955 237.852371 
L 193.455318 237.775628 
L 200.695682 237.714297 
L 207.936045 237.668317 
L 215.176409 237.637607 
L 222.416773 237.622092 
L 229.657136 237.621719 
L 236.8975 237.636477 
L 244.137864 237.666412 
L 251.378227 237.711651 
L 258.618591 237.772426 
L 265.858955 237.849101 
L 273.099318 237.942211 
L 280.339682 238.052506 
L 287.580045 238.181008 
L 294.820409 238.329074 
L 302.060773 238.498478 
L 309.301136 238.691511 
L 316.5415 238.911083 
L 323.781864 239.160861 
L 331.022227 239.445413 
L 338.262591 239.770383 
L 345.502955 240.142681 
L 352.743318 240.570703 
L 359.983682 241.064573 
L 367.224045 241.636417 
L 374.464409 242.300663 
L 381.704773 243.074373 
L 388.945136 243.977606 
L 396.1855 245.033819 
L 403.425864 246.270298 
L 410.666227 247.71863 
L 417.906591 249.415216 
" clip-path="url(#pca4f6eec10)" style="fill: none; stroke-dasharray: 7.4,3.2; stroke-dashoffset: 0; stroke: #79ad41; stroke-width: 2"/>
   </g>
   <g id="patch_9">
    <path d="M 37.7875 276.68 
L 37.7875 181.688 
" style="fill: none; stroke: #000000; stroke-width: 0.8; stroke-linejoin: miter; stroke-linecap: square"/>
   </g>
   <g id="patch_10">
    <path d="M 436.0075 276.68 
L 436.0075 181.688 
" style="fill: none; stroke: #000000; stroke-width: 0.8; stroke-linejoin: miter; stroke-linecap: square"/>
   </g>
   <g id="patch_11">
    <path d="M 37.7875 276.68 
L 436.0075 276.68 
" style="fill: none; stroke: #000000; stroke-width: 0.8; stroke-linejoin: miter; stroke-linecap: square"/>
   </g>
   <g id="patch_12">
    <path d="M 37.7875 181.688 
L 436.0075 181.688 
" style="fill: none; stroke: #000000; stroke-width: 0.8; stroke-linejoin: miter; stroke-linecap: square"/>
   </g>
  </g>
 </g>
 <defs>
  <clipPath id="pe4b79a370d">
   <rect x="37.7875" y="7.2" width="398.22" height="47.496"/>
  </clipPath>
  <clipPath id="p6488af07ba">
   <rect x="37.7875" y="70.696" width="398.22" height="94.992"/>
  </clipPath>
  <clipPath id="pca4f6eec10">
   <rect x="37.7875" y="181.688" width="398.22" height="94.992"/>
  </clipPath>
 </defs>
</svg>
