<?xml version="1.0" encoding="utf-8" standalone="no"?>
<!DOCTYPE svg PUBLIC "-//W3C//DTD SVG 1.1//EN"
  "http://www.w3.org/Graphics/SVG/1.1/DTD/svg11.dtd">
<svg xmlns:xlink="http://www.w3.org/1999/xlink" width="443.2175pt" height="325.85pt" viewBox="0 0 443.2175 325.85" xmlns="http://www.w3.org/2000/svg" version="1.1">
 <metadata>
  <rdf:RDF xmlns:dc="http://purl.org/dc/elements/1.1/" xmlns:cc="http://creativecommons.org/ns#" xmlns:rdf="http://www.w3.org/1999/02/22-rdf-syntax-ns#">
   <cc:Work>
    <dc:type rdf:resource="http://purl.org/dc/dcmitype/StillImage"/>
    <dc:date>2024-01-28T20:58:24.565835</dc:date>
    <dc:format>image/svg+xml</dc:format>
    <dc:creator>
     <cc:Agent>
      <dc:title>Matplotlib v3.7.2, https://matplotlib.org/</dc:title>
     </cc:Agent>
    </dc:creator>
   </cc:Work>
  </rdf:RDF>
 </metadata>
 <defs>
  <style type="text/css">*{stroke-linejoin: round; stroke-linecap: butt}</style>
 </defs>
 <g id="figure_1">
  <g id="patch_1">
   <path d="M 0 325.85 
L 443.2175 325.85 
L 443.2175 0 
L 0 0 
z
" style="fill: #ffffff"/>
  </g>
  <g id="axes_1">
   <g id="patch_2">
    <path d="M 47.9675 53.237867 
L 436.0175 53.237867 
L 436.0175 7.2 
L 47.9675 7.2 
z
" style="fill: #ffffff"/>
   </g>
   <g id="PolyCollection_1">
    <defs>
     <path id="mdf87a343fe" d="M 65.606136 -274.704763 
L 65.606136 -309.760053 
L 72.661591 -309.641285 
L 79.717045 -309.540147 
L 86.7725 -309.448476 
L 93.827955 -309.358224 
L 100.883409 -309.261589 
L 107.938864 -309.151057 
L 114.994318 -309.019428 
L 122.049773 -308.859841 
L 129.105227 -308.665697 
L 136.160682 -308.43067 
L 143.216136 -308.148641 
L 150.271591 -307.813668 
L 157.327045 -307.419968 
L 164.3825 -306.961923 
L 171.437955 -306.434124 
L 178.493409 -305.831448 
L 185.548864 -305.149178 
L 192.604318 -304.383221 
L 199.659773 -303.530336 
L 206.715227 -302.588433 
L 213.770682 -301.556934 
L 220.826136 -300.437156 
L 227.881591 -299.232647 
L 234.937045 -297.949538 
L 241.9925 -296.596753 
L 249.047955 -295.186085 
L 256.103409 -293.732042 
L 263.158864 -292.251528 
L 270.214318 -290.763179 
L 277.269773 -289.286573 
L 284.325227 -287.841282 
L 291.380682 -286.44584 
L 298.436136 -285.116805 
L 305.491591 -283.86799 
L 312.547045 -282.70991 
L 319.6025 -281.649538 
L 326.657955 -280.690336 
L 333.713409 -279.832528 
L 340.768864 -279.355053 
L 347.824318 -279.355053 
L 354.879773 -279.355053 
L 361.935227 -279.355053 
L 368.990682 -279.355053 
L 376.046136 -279.355053 
L 383.101591 -279.355053 
L 390.157045 -279.355053 
L 397.2125 -279.355053 
L 404.267955 -279.355053 
L 411.323409 -279.355053 
L 418.378864 -279.355053 
L 418.378864 -274.704763 
L 418.378864 -274.704763 
L 411.323409 -274.704763 
L 404.267955 -274.704763 
L 397.2125 -274.704763 
L 390.157045 -274.704763 
L 383.101591 -274.704763 
L 376.046136 -274.704763 
L 368.990682 -274.704763 
L 361.935227 -274.704763 
L 354.879773 -274.704763 
L 347.824318 -274.704763 
L 340.768864 -274.704763 
L 333.713409 -274.704763 
L 326.657955 -274.704763 
L 319.6025 -274.704763 
L 312.547045 -274.704763 
L 305.491591 -274.704763 
L 298.436136 -274.704763 
L 291.380682 -274.704763 
L 284.325227 -274.704763 
L 277.269773 -274.704763 
L 270.214318 -274.704763 
L 263.158864 -274.704763 
L 256.103409 -274.704763 
L 249.047955 -274.704763 
L 241.9925 -274.704763 
L 234.937045 -274.704763 
L 227.881591 -274.704763 
L 220.826136 -274.704763 
L 213.770682 -274.704763 
L 206.715227 -274.704763 
L 199.659773 -274.704763 
L 192.604318 -274.704763 
L 185.548864 -274.704763 
L 178.493409 -274.704763 
L 171.437955 -274.704763 
L 164.3825 -274.704763 
L 157.327045 -274.704763 
L 150.271591 -274.704763 
L 143.216136 -274.704763 
L 136.160682 -274.704763 
L 129.105227 -274.704763 
L 122.049773 -274.704763 
L 114.994318 -274.704763 
L 107.938864 -274.704763 
L 100.883409 -274.704763 
L 93.827955 -274.704763 
L 86.7725 -274.704763 
L 79.717045 -274.704763 
L 72.661591 -274.704763 
L 65.606136 -274.704763 
z
" style="stroke: #dc143c; stroke-opacity: 0.2"/>
    </defs>
    <g clip-path="url(#p8ead4461b7)">
     <use xlink:href="#mdf87a343fe" x="0" y="325.85" style="fill: #dc143c; fill-opacity: 0.2; stroke: #dc143c; stroke-opacity: 0.2"/>
    </g>
   </g>
   <g id="PolyCollection_2">
    <defs>
     <path id="mf255ba80e8" d="M 65.606136 -274.704763 
L 65.606136 -286.15237 
L 72.661591 -286.271137 
L 79.717045 -286.372276 
L 86.7725 -286.463947 
L 93.827955 -286.554199 
L 100.883409 -286.650833 
L 107.938864 -286.761366 
L 114.994318 -286.892995 
L 122.049773 -287.052582 
L 129.105227 -287.246726 
L 136.160682 -287.481752 
L 143.216136 -287.763782 
L 150.271591 -288.098754 
L 157.327045 -288.492454 
L 164.3825 -288.9505 
L 171.437955 -289.478299 
L 178.493409 -290.080975 
L 185.548864 -290.763244 
L 192.604318 -291.529202 
L 199.659773 -292.382087 
L 206.715227 -293.32399 
L 213.770682 -294.355489 
L 220.826136 -295.475267 
L 227.881591 -296.679776 
L 234.937045 -297.962885 
L 241.9925 -299.315669 
L 249.047955 -300.726338 
L 256.103409 -302.180381 
L 263.158864 -303.660895 
L 270.214318 -305.149243 
L 277.269773 -306.625849 
L 284.325227 -308.071141 
L 291.380682 -309.466583 
L 298.436136 -310.795618 
L 305.491591 -312.044432 
L 312.547045 -313.202513 
L 319.6025 -314.262884 
L 326.657955 -315.222087 
L 333.713409 -316.079895 
L 340.768864 -316.55737 
L 347.824318 -316.55737 
L 354.879773 -316.55737 
L 361.935227 -316.55737 
L 368.990682 -316.55737 
L 376.046136 -316.55737 
L 383.101591 -316.55737 
L 390.157045 -316.55737 
L 397.2125 -316.55737 
L 404.267955 -316.55737 
L 411.323409 -316.55737 
L 418.378864 -316.55737 
L 418.378864 -274.704763 
L 418.378864 -274.704763 
L 411.323409 -274.704763 
L 404.267955 -274.704763 
L 397.2125 -274.704763 
L 390.157045 -274.704763 
L 383.101591 -274.704763 
L 376.046136 -274.704763 
L 368.990682 -274.704763 
L 361.935227 -274.704763 
L 354.879773 -274.704763 
L 347.824318 -274.704763 
L 340.768864 -274.704763 
L 333.713409 -274.704763 
L 326.657955 -274.704763 
L 319.6025 -274.704763 
L 312.547045 -274.704763 
L 305.491591 -274.704763 
L 298.436136 -274.704763 
L 291.380682 -274.704763 
L 284.325227 -274.704763 
L 277.269773 -274.704763 
L 270.214318 -274.704763 
L 263.158864 -274.704763 
L 256.103409 -274.704763 
L 249.047955 -274.704763 
L 241.9925 -274.704763 
L 234.937045 -274.704763 
L 227.881591 -274.704763 
L 220.826136 -274.704763 
L 213.770682 -274.704763 
L 206.715227 -274.704763 
L 199.659773 -274.704763 
L 192.604318 -274.704763 
L 185.548864 -274.704763 
L 178.493409 -274.704763 
L 171.437955 -274.704763 
L 164.3825 -274.704763 
L 157.327045 -274.704763 
L 150.271591 -274.704763 
L 143.216136 -274.704763 
L 136.160682 -274.704763 
L 129.105227 -274.704763 
L 122.049773 -274.704763 
L 114.994318 -274.704763 
L 107.938864 -274.704763 
L 100.883409 -274.704763 
L 93.827955 -274.704763 
L 86.7725 -274.704763 
L 79.717045 -274.704763 
L 72.661591 -274.704763 
L 65.606136 -274.704763 
z
" style="stroke: #000080; stroke-opacity: 0.2"/>
    </defs>
    <g clip-path="url(#p8ead4461b7)">
     <use xlink:href="#mf255ba80e8" x="0" y="325.85" style="fill: #000080; fill-opacity: 0.2; stroke: #000080; stroke-opacity: 0.2"/>
    </g>
   </g>
   <g id="matplotlib.axis_1"/>
   <g id="matplotlib.axis_2"/>
   <g id="line2d_1">
    <path d="M 65.606136 16.089947 
L 72.661591 16.208715 
L 79.717045 16.309853 
L 86.7725 16.401524 
L 93.827955 16.491776 
L 100.883409 16.588411 
L 107.938864 16.698943 
L 114.994318 16.830572 
L 122.049773 16.990159 
L 129.105227 17.184303 
L 136.160682 17.41933 
L 143.216136 17.701359 
L 150.271591 18.036332 
L 157.327045 18.430032 
L 164.3825 18.888077 
L 171.437955 19.415876 
L 178.493409 20.018552 
L 185.548864 20.700822 
L 192.604318 21.466779 
L 199.659773 22.319664 
L 206.715227 23.261567 
L 213.770682 24.293066 
L 220.826136 25.412844 
L 227.881591 26.617353 
L 234.937045 27.900462 
L 241.9925 29.253247 
L 249.047955 30.663915 
L 256.103409 32.117958 
L 263.158864 33.598472 
L 270.214318 35.086821 
L 277.269773 36.563427 
L 284.325227 38.008718 
L 291.380682 39.40416 
L 298.436136 40.733195 
L 305.491591 41.98201 
L 312.547045 43.14009 
L 319.6025 44.200462 
L 326.657955 45.159664 
L 333.713409 46.017472 
L 340.768864 46.494947 
L 347.824318 46.494947 
L 354.879773 46.494947 
L 361.935227 46.494947 
L 368.990682 46.494947 
L 376.046136 46.494947 
L 383.101591 46.494947 
L 390.157045 46.494947 
L 397.2125 46.494947 
L 404.267955 46.494947 
L 411.323409 46.494947 
L 418.378864 46.494947 
" clip-path="url(#p8ead4461b7)" style="fill: none; stroke: #dc143c; stroke-width: 1.5; stroke-linecap: square"/>
   </g>
   <g id="line2d_2">
    <path d="M 65.606136 39.69763 
L 72.661591 39.578863 
L 79.717045 39.477724 
L 86.7725 39.386053 
L 93.827955 39.295801 
L 100.883409 39.199167 
L 107.938864 39.088634 
L 114.994318 38.957005 
L 122.049773 38.797418 
L 129.105227 38.603274 
L 136.160682 38.368248 
L 143.216136 38.086218 
L 150.271591 37.751246 
L 157.327045 37.357546 
L 164.3825 36.8995 
L 171.437955 36.371701 
L 178.493409 35.769025 
L 185.548864 35.086756 
L 192.604318 34.320798 
L 199.659773 33.467913 
L 206.715227 32.52601 
L 213.770682 31.494511 
L 220.826136 30.374733 
L 227.881591 29.170224 
L 234.937045 27.887115 
L 241.9925 26.534331 
L 249.047955 25.123662 
L 256.103409 23.669619 
L 263.158864 22.189105 
L 270.214318 20.700757 
L 277.269773 19.224151 
L 284.325227 17.778859 
L 291.380682 16.383417 
L 298.436136 15.054382 
L 305.491591 13.805568 
L 312.547045 12.647487 
L 319.6025 11.587116 
L 326.657955 10.627913 
L 333.713409 9.770105 
L 340.768864 9.29263 
L 347.824318 9.29263 
L 354.879773 9.29263 
L 361.935227 9.29263 
L 368.990682 9.29263 
L 376.046136 9.29263 
L 383.101591 9.29263 
L 390.157045 9.29263 
L 397.2125 9.29263 
L 404.267955 9.29263 
L 411.323409 9.29263 
L 418.378864 9.29263 
" clip-path="url(#p8ead4461b7)" style="fill: none; stroke: #000080; stroke-width: 1.5; stroke-linecap: square"/>
   </g>
  </g>
  <g id="axes_2">
   <g id="patch_3">
    <path d="M 47.9675 164.958933 
L 436.0175 164.958933 
L 436.0175 72.8832 
L 47.9675 72.8832 
z
" style="fill: #ffffff"/>
   </g>
   <g id="PathCollection_1">
    <defs>
     <path id="ma075f8032a" d="M 0 0.866025 
C 0.229673 0.866025 0.449969 0.774776 0.612372 0.612372 
C 0.774776 0.449969 0.866025 0.229673 0.866025 0 
C 0.866025 -0.229673 0.774776 -0.449969 0.612372 -0.612372 
C 0.449969 -0.774776 0.229673 -0.866025 0 -0.866025 
C -0.229673 -0.866025 -0.449969 -0.774776 -0.612372 -0.612372 
C -0.774776 -0.449969 -0.866025 -0.229673 -0.866025 0 
C -0.866025 0.229673 -0.774776 0.449969 -0.612372 0.612372 
C -0.449969 0.774776 -0.229673 0.866025 0 0.866025 
z
" style="stroke: #daa520"/>
    </defs>
    <g clip-path="url(#pe0e1d04b55)">
     <use xlink:href="#ma075f8032a" x="346.401805" y="150.545577" style="fill: #daa520; stroke: #daa520"/>
     <use xlink:href="#ma075f8032a" x="330.79763" y="144.521222" style="fill: #daa520; stroke: #daa520"/>
     <use xlink:href="#ma075f8032a" x="192.241395" y="136.433311" style="fill: #daa520; stroke: #daa520"/>
     <use xlink:href="#ma075f8032a" x="79.955608" y="122.522639" style="fill: #daa520; stroke: #daa520"/>
     <use xlink:href="#ma075f8032a" x="270.961814" y="143.221356" style="fill: #daa520; stroke: #daa520"/>
     <use xlink:href="#ma075f8032a" x="231.470497" y="135.968097" style="fill: #daa520; stroke: #daa520"/>
     <use xlink:href="#ma075f8032a" x="225.214028" y="136.516527" style="fill: #daa520; stroke: #daa520"/>
     <use xlink:href="#ma075f8032a" x="273.409422" y="122.710506" style="fill: #daa520; stroke: #daa520"/>
     <use xlink:href="#ma075f8032a" x="163.740519" y="136.687702" style="fill: #daa520; stroke: #daa520"/>
     <use xlink:href="#ma075f8032a" x="214.552048" y="135.454981" style="fill: #daa520; stroke: #daa520"/>
     <use xlink:href="#ma075f8032a" x="208.636589" y="137.365116" style="fill: #daa520; stroke: #daa520"/>
     <use xlink:href="#ma075f8032a" x="121.297334" y="118.398209" style="fill: #daa520; stroke: #daa520"/>
     <use xlink:href="#ma075f8032a" x="361.355299" y="120.040452" style="fill: #daa520; stroke: #daa520"/>
     <use xlink:href="#ma075f8032a" x="88.394412" y="117.438501" style="fill: #daa520; stroke: #daa520"/>
     <use xlink:href="#ma075f8032a" x="83.350797" y="130.816051" style="fill: #daa520; stroke: #daa520"/>
     <use xlink:href="#ma075f8032a" x="269.534192" y="126.446218" style="fill: #daa520; stroke: #daa520"/>
     <use xlink:href="#ma075f8032a" x="70.618291" y="122.127205" style="fill: #daa520; stroke: #daa520"/>
     <use xlink:href="#ma075f8032a" x="298.131782" y="127.463382" style="fill: #daa520; stroke: #daa520"/>
     <use xlink:href="#ma075f8032a" x="368.06799" y="119.282417" style="fill: #daa520; stroke: #daa520"/>
     <use xlink:href="#ma075f8032a" x="120.540873" y="134.278874" style="fill: #daa520; stroke: #daa520"/>
     <use xlink:href="#ma075f8032a" x="71.380646" y="134.091983" style="fill: #daa520; stroke: #daa520"/>
     <use xlink:href="#ma075f8032a" x="151.671325" y="139.199717" style="fill: #daa520; stroke: #daa520"/>
     <use xlink:href="#ma075f8032a" x="221.73991" y="132.916706" style="fill: #daa520; stroke: #daa520"/>
     <use xlink:href="#ma075f8032a" x="85.04598" y="151.363003" style="fill: #daa520; stroke: #daa520"/>
     <use xlink:href="#ma075f8032a" x="280.783347" y="127.204443" style="fill: #daa520; stroke: #daa520"/>
     <use xlink:href="#ma075f8032a" x="154.094138" y="139.243214" style="fill: #daa520; stroke: #daa520"/>
     <use xlink:href="#ma075f8032a" x="105.602577" y="124.909954" style="fill: #daa520; stroke: #daa520"/>
     <use xlink:href="#ma075f8032a" x="79.492793" y="129.170373" style="fill: #daa520; stroke: #daa520"/>
     <use xlink:href="#ma075f8032a" x="111.617321" y="118.942633" style="fill: #daa520; stroke: #daa520"/>
     <use xlink:href="#ma075f8032a" x="154.777256" y="139.233282" style="fill: #daa520; stroke: #daa520"/>
     <use xlink:href="#ma075f8032a" x="123.57705" y="126.488239" style="fill: #daa520; stroke: #daa520"/>
     <use xlink:href="#ma075f8032a" x="73.841887" y="118.851016" style="fill: #daa520; stroke: #daa520"/>
     <use xlink:href="#ma075f8032a" x="248.659934" y="131.942544" style="fill: #daa520; stroke: #daa520"/>
     <use xlink:href="#ma075f8032a" x="318.930859" y="124.365917" style="fill: #daa520; stroke: #daa520"/>
     <use xlink:href="#ma075f8032a" x="364.032133" y="125.930626" style="fill: #daa520; stroke: #daa520"/>
     <use xlink:href="#ma075f8032a" x="173.187682" y="136.834076" style="fill: #daa520; stroke: #daa520"/>
     <use xlink:href="#ma075f8032a" x="134.918098" y="140.265295" style="fill: #daa520; stroke: #daa520"/>
     <use xlink:href="#ma075f8032a" x="186.339322" y="135.628051" style="fill: #daa520; stroke: #daa520"/>
     <use xlink:href="#ma075f8032a" x="102.419778" y="149.044084" style="fill: #daa520; stroke: #daa520"/>
     <use xlink:href="#ma075f8032a" x="110.083144" y="121.178824" style="fill: #daa520; stroke: #daa520"/>
     <use xlink:href="#ma075f8032a" x="75.299951" y="130.580736" style="fill: #daa520; stroke: #daa520"/>
     <use xlink:href="#ma075f8032a" x="152.343964" y="133.682461" style="fill: #daa520; stroke: #daa520"/>
     <use xlink:href="#ma075f8032a" x="269.628327" y="142.923717" style="fill: #daa520; stroke: #daa520"/>
     <use xlink:href="#ma075f8032a" x="343.461622" y="122.533263" style="fill: #daa520; stroke: #daa520"/>
     <use xlink:href="#ma075f8032a" x="356.914422" y="150.43168" style="fill: #daa520; stroke: #daa520"/>
     <use xlink:href="#ma075f8032a" x="70.888365" y="160.773673" style="fill: #daa520; stroke: #daa520"/>
     <use xlink:href="#ma075f8032a" x="290.50424" y="140.540779" style="fill: #daa520; stroke: #daa520"/>
     <use xlink:href="#ma075f8032a" x="132.220072" y="124.942513" style="fill: #daa520; stroke: #daa520"/>
     <use xlink:href="#ma075f8032a" x="173.194258" y="125.207466" style="fill: #daa520; stroke: #daa520"/>
     <use xlink:href="#ma075f8032a" x="78.796091" y="156.431848" style="fill: #daa520; stroke: #daa520"/>
     <use xlink:href="#ma075f8032a" x="122.168017" y="123.70568" style="fill: #daa520; stroke: #daa520"/>
     <use xlink:href="#ma075f8032a" x="276.918677" y="129.328833" style="fill: #daa520; stroke: #daa520"/>
     <use xlink:href="#ma075f8032a" x="102.146649" y="145.947936" style="fill: #daa520; stroke: #daa520"/>
     <use xlink:href="#ma075f8032a" x="210.287927" y="137.577586" style="fill: #daa520; stroke: #daa520"/>
     <use xlink:href="#ma075f8032a" x="76.486935" y="127.120637" style="fill: #daa520; stroke: #daa520"/>
     <use xlink:href="#ma075f8032a" x="122.050898" y="119.124085" style="fill: #daa520; stroke: #daa520"/>
     <use xlink:href="#ma075f8032a" x="134.013124" y="117.363274" style="fill: #daa520; stroke: #daa520"/>
     <use xlink:href="#ma075f8032a" x="262.925761" y="137.622485" style="fill: #daa520; stroke: #daa520"/>
     <use xlink:href="#ma075f8032a" x="68.950665" y="158.508322" style="fill: #daa520; stroke: #daa520"/>
     <use xlink:href="#ma075f8032a" x="202.44409" y="138.508663" style="fill: #daa520; stroke: #daa520"/>
     <use xlink:href="#ma075f8032a" x="97.432668" y="145.536074" style="fill: #daa520; stroke: #daa520"/>
     <use xlink:href="#ma075f8032a" x="185.285941" y="141.029569" style="fill: #daa520; stroke: #daa520"/>
     <use xlink:href="#ma075f8032a" x="121.976222" y="126.322203" style="fill: #daa520; stroke: #daa520"/>
     <use xlink:href="#ma075f8032a" x="106.707332" y="118.570481" style="fill: #daa520; stroke: #daa520"/>
     <use xlink:href="#ma075f8032a" x="131.303206" y="143.257238" style="fill: #daa520; stroke: #daa520"/>
     <use xlink:href="#ma075f8032a" x="241.367789" y="133.954201" style="fill: #daa520; stroke: #daa520"/>
     <use xlink:href="#ma075f8032a" x="170.699754" y="139.80839" style="fill: #daa520; stroke: #daa520"/>
     <use xlink:href="#ma075f8032a" x="69.656428" y="151.40901" style="fill: #daa520; stroke: #daa520"/>
     <use xlink:href="#ma075f8032a" x="179.808713" y="137.798735" style="fill: #daa520; stroke: #daa520"/>
     <use xlink:href="#ma075f8032a" x="102.259894" y="114.500941" style="fill: #daa520; stroke: #daa520"/>
     <use xlink:href="#ma075f8032a" x="265.435314" y="126.900889" style="fill: #daa520; stroke: #daa520"/>
     <use xlink:href="#ma075f8032a" x="320.611759" y="123.963796" style="fill: #daa520; stroke: #daa520"/>
     <use xlink:href="#ma075f8032a" x="250.766375" y="129.431078" style="fill: #daa520; stroke: #daa520"/>
     <use xlink:href="#ma075f8032a" x="80.993973" y="147.461404" style="fill: #daa520; stroke: #daa520"/>
     <use xlink:href="#ma075f8032a" x="119.117902" y="119.514801" style="fill: #daa520; stroke: #daa520"/>
     <use xlink:href="#ma075f8032a" x="69.720236" y="121.665137" style="fill: #daa520; stroke: #daa520"/>
     <use xlink:href="#ma075f8032a" x="260.755324" y="137.882408" style="fill: #daa520; stroke: #daa520"/>
     <use xlink:href="#ma075f8032a" x="254.320169" y="127.223746" style="fill: #daa520; stroke: #daa520"/>
     <use xlink:href="#ma075f8032a" x="274.192642" y="132.366986" style="fill: #daa520; stroke: #daa520"/>
     <use xlink:href="#ma075f8032a" x="232.9723" y="135.007012" style="fill: #daa520; stroke: #daa520"/>
     <use xlink:href="#ma075f8032a" x="73.97047" y="128.355472" style="fill: #daa520; stroke: #daa520"/>
     <use xlink:href="#ma075f8032a" x="388.011548" y="119.808709" style="fill: #daa520; stroke: #daa520"/>
     <use xlink:href="#ma075f8032a" x="231.487169" y="136.344585" style="fill: #daa520; stroke: #daa520"/>
     <use xlink:href="#ma075f8032a" x="79.0462" y="151.899003" style="fill: #daa520; stroke: #daa520"/>
     <use xlink:href="#ma075f8032a" x="240.102927" y="133.861027" style="fill: #daa520; stroke: #daa520"/>
     <use xlink:href="#ma075f8032a" x="218.360747" y="137.15461" style="fill: #daa520; stroke: #daa520"/>
     <use xlink:href="#ma075f8032a" x="130.272619" y="126.166909" style="fill: #daa520; stroke: #daa520"/>
     <use xlink:href="#ma075f8032a" x="115.273646" y="114.418572" style="fill: #daa520; stroke: #daa520"/>
     <use xlink:href="#ma075f8032a" x="281.985033" y="139.558623" style="fill: #daa520; stroke: #daa520"/>
     <use xlink:href="#ma075f8032a" x="154.676104" y="130.935238" style="fill: #daa520; stroke: #daa520"/>
     <use xlink:href="#ma075f8032a" x="105.633905" y="123.978125" style="fill: #daa520; stroke: #daa520"/>
     <use xlink:href="#ma075f8032a" x="87.192602" y="118.00188" style="fill: #daa520; stroke: #daa520"/>
     <use xlink:href="#ma075f8032a" x="236.604959" y="133.582288" style="fill: #daa520; stroke: #daa520"/>
     <use xlink:href="#ma075f8032a" x="271.415993" y="144.849585" style="fill: #daa520; stroke: #daa520"/>
     <use xlink:href="#ma075f8032a" x="207.723743" y="137.22593" style="fill: #daa520; stroke: #daa520"/>
     <use xlink:href="#ma075f8032a" x="264.009763" y="143.543815" style="fill: #daa520; stroke: #daa520"/>
     <use xlink:href="#ma075f8032a" x="174.06763" y="133.268609" style="fill: #daa520; stroke: #daa520"/>
     <use xlink:href="#ma075f8032a" x="84.490089" y="143.880664" style="fill: #daa520; stroke: #daa520"/>
     <use xlink:href="#ma075f8032a" x="261.398517" y="122.772962" style="fill: #daa520; stroke: #daa520"/>
    </g>
   </g>
   <g id="matplotlib.axis_3"/>
   <g id="matplotlib.axis_4">
    <g id="ytick_1">
     <g id="line2d_3">
      <defs>
       <path id="m09dc6dcc16" d="M 0 0 
L -3.5 0 
" style="stroke: #696969; stroke-width: 0.8"/>
      </defs>
      <g>
       <use xlink:href="#m09dc6dcc16" x="47.9675" y="134.713213" style="fill: #696969; stroke: #696969; stroke-width: 0.8"/>
      </g>
     </g>
     <g id="text_1">
      <!-- 0 -->
      <g style="fill: #696969" transform="translate(30.7875 140.791963) scale(0.16 -0.16)">
       <defs>
        <path id="DejaVuSans-30" d="M 2034 4250 
Q 1547 4250 1301 3770 
Q 1056 3291 1056 2328 
Q 1056 1369 1301 889 
Q 1547 409 2034 409 
Q 2525 409 2770 889 
Q 3016 1369 3016 2328 
Q 3016 3291 2770 3770 
Q 2525 4250 2034 4250 
z
M 2034 4750 
Q 2819 4750 3233 4129 
Q 3647 3509 3647 2328 
Q 3647 1150 3233 529 
Q 2819 -91 2034 -91 
Q 1250 -91 836 529 
Q 422 1150 422 2328 
Q 422 3509 836 4129 
Q 1250 4750 2034 4750 
z
" transform="scale(0.015625)"/>
       </defs>
       <use xlink:href="#DejaVuSans-30"/>
      </g>
     </g>
    </g>
    <g id="ytick_2">
     <g id="line2d_4">
      <g>
       <use xlink:href="#m09dc6dcc16" x="47.9675" y="75.662148" style="fill: #696969; stroke: #696969; stroke-width: 0.8"/>
      </g>
     </g>
     <g id="text_2">
      <!-- 20 -->
      <g style="fill: #696969" transform="translate(20.6075 81.740898) scale(0.16 -0.16)">
       <defs>
        <path id="DejaVuSans-32" d="M 1228 531 
L 3431 531 
L 3431 0 
L 469 0 
L 469 531 
Q 828 903 1448 1529 
Q 2069 2156 2228 2338 
Q 2531 2678 2651 2914 
Q 2772 3150 2772 3378 
Q 2772 3750 2511 3984 
Q 2250 4219 1831 4219 
Q 1534 4219 1204 4116 
Q 875 4013 500 3803 
L 500 4441 
Q 881 4594 1212 4672 
Q 1544 4750 1819 4750 
Q 2544 4750 2975 4387 
Q 3406 4025 3406 3419 
Q 3406 3131 3298 2873 
Q 3191 2616 2906 2266 
Q 2828 2175 2409 1742 
Q 1991 1309 1228 531 
z
" transform="scale(0.015625)"/>
       </defs>
       <use xlink:href="#DejaVuSans-32"/>
       <use xlink:href="#DejaVuSans-30" x="63.623047"/>
      </g>
     </g>
    </g>
   </g>
   <g id="line2d_5">
    <path d="M 65.606136 143.432761 
L 72.661591 141.999808 
L 79.717045 140.025909 
L 86.7725 137.746739 
L 93.827955 135.468397 
L 100.883409 133.492063 
L 107.938864 132.033728 
L 114.994318 131.169569 
L 122.049773 130.833117 
L 129.105227 130.8693 
L 136.160682 131.120903 
L 143.216136 131.502707 
L 150.271591 132.022982 
L 157.327045 132.741721 
L 164.3825 133.692725 
L 171.437955 134.818224 
L 178.493409 135.956427 
L 185.548864 136.890274 
L 192.604318 137.430896 
L 199.659773 137.492171 
L 206.715227 137.120669 
L 213.770682 136.469751 
L 220.826136 135.733018 
L 227.881591 135.068685 
L 234.937045 134.547668 
L 241.9925 134.145618 
L 249.047955 133.778241 
L 256.103409 133.359149 
L 263.158864 132.849988 
L 270.214318 132.279157 
L 277.269773 131.724637 
L 284.325227 131.276559 
L 291.380682 131.003837 
L 298.436136 130.941624 
L 305.491591 131.099033 
L 312.547045 131.471981 
L 319.6025 132.044499 
L 326.657955 132.773925 
L 333.713409 133.572083 
L 340.768864 134.303427 
L 347.824318 134.814741 
L 354.879773 134.9916 
L 361.935227 134.815747 
L 368.990682 134.389129 
L 376.046136 133.902782 
L 383.101591 133.557803 
L 390.157045 133.474921 
L 397.2125 133.639232 
L 404.267955 133.909354 
L 411.323409 134.085311 
L 418.378864 133.998685 
" clip-path="url(#pe0e1d04b55)" style="fill: none; stroke: #000000; stroke-width: 2; stroke-linecap: square"/>
   </g>
   <g id="line2d_6">
    <path d="M 65.606136 145.617772 
L 72.661591 138.834602 
L 79.717045 134.001174 
L 86.7725 130.738689 
L 93.827955 128.722367 
L 100.883409 127.675604 
L 107.938864 127.364599 
L 114.994318 127.593428 
L 122.049773 128.199537 
L 129.105227 129.049644 
L 136.160682 130.036013 
L 143.216136 131.073091 
L 150.271591 132.094484 
L 157.327045 133.050235 
L 164.3825 133.904413 
L 171.437955 134.632954 
L 178.493409 135.221762 
L 185.548864 135.665031 
L 192.604318 135.963779 
L 199.659773 136.124552 
L 206.715227 136.158302 
L 213.770682 136.079399 
L 220.826136 135.904752 
L 227.881591 135.653042 
L 234.937045 135.344013 
L 241.9925 134.997821 
L 249.047955 134.63441 
L 256.103409 134.272902 
L 263.158864 133.930961 
L 270.214318 133.62413 
L 277.269773 133.36511 
L 284.325227 133.162947 
L 291.380682 133.022134 
L 298.436136 132.941577 
L 305.491591 132.913418 
L 312.547045 132.921692 
L 319.6025 132.940791 
L 326.657955 132.933723 
L 333.713409 132.850126 
L 340.768864 132.624039 
L 347.824318 132.171388 
L 354.879773 131.387174 
L 361.935227 130.14234 
L 368.990682 128.280299 
L 376.046136 125.613088 
L 383.101591 121.917144 
L 390.157045 116.928665 
L 397.2125 110.338547 
L 404.267955 101.786858 
L 411.323409 90.85685 
L 418.378864 77.06846 
" clip-path="url(#pe0e1d04b55)" style="fill: none; stroke-dasharray: 7.4,3.2; stroke-dashoffset: 0; stroke: #34b6c6; stroke-width: 2"/>
   </g>
   <g id="line2d_7">
    <path d="M 65.606136 140.020138 
L 72.661591 137.73605 
L 79.717045 135.67883 
L 86.7725 133.266243 
L 93.827955 130.865097 
L 100.883409 129.138299 
L 107.938864 128.176472 
L 114.994318 127.648881 
L 122.049773 127.433577 
L 129.105227 127.861755 
L 136.160682 128.793809 
L 143.216136 129.91509 
L 150.271591 131.044038 
L 157.327045 132.097493 
L 164.3825 133.038114 
L 171.437955 133.850011 
L 178.493409 134.528433 
L 185.548864 135.074979 
L 192.604318 135.495052 
L 199.659773 135.796314 
L 206.715227 135.987663 
L 213.770682 136.078507 
L 220.826136 136.078256 
L 227.881591 135.995942 
L 234.937045 135.839955 
L 241.9925 135.617865 
L 249.047955 135.336297 
L 256.103409 135.000867 
L 263.158864 134.616168 
L 270.214318 134.185824 
L 277.269773 133.712664 
L 284.325227 133.199147 
L 291.380682 132.648313 
L 298.436136 132.065889 
L 305.491591 131.464964 
L 312.547045 130.876412 
L 319.6025 130.371127 
L 326.657955 130.097012 
L 333.713409 130.283581 
L 340.768864 131.040598 
L 347.824318 131.968457 
L 354.879773 132.293898 
L 361.935227 131.537053 
L 368.990682 129.635612 
L 376.046136 126.599232 
L 383.101591 122.351631 
L 390.157045 116.875301 
L 397.2125 110.327733 
L 404.267955 102.834828 
L 411.323409 94.285332 
L 418.378864 84.37924 
" clip-path="url(#pe0e1d04b55)" style="fill: none; stroke-dasharray: 7.4,3.2; stroke-dashoffset: 0; stroke: #9370db; stroke-width: 2"/>
   </g>
   <g id="line2d_8">
    <path d="M 65.606136 152.049627 
L 72.661591 151.493876 
L 79.717045 150.371599 
L 86.7725 148.424327 
L 93.827955 146.076658 
L 100.883409 143.949515 
L 107.938864 142.211309 
L 114.994318 140.694309 
L 122.049773 139.370627 
L 129.105227 138.538218 
L 136.160682 138.12924 
L 143.216136 137.934165 
L 150.271591 137.83497 
L 157.327045 137.780655 
L 164.3825 137.749136 
L 171.437955 137.730139 
L 178.493409 137.718483 
L 185.548864 137.711362 
L 192.604318 137.707166 
L 199.659773 137.704929 
L 206.715227 137.704054 
L 213.770682 137.704164 
L 220.826136 137.705029 
L 227.881591 137.706516 
L 234.937045 137.708572 
L 241.9925 137.711213 
L 249.047955 137.714544 
L 256.103409 137.71878 
L 263.158864 137.724321 
L 270.214318 137.731875 
L 277.269773 137.742699 
L 284.325227 137.759064 
L 291.380682 137.785162 
L 298.436136 137.828943 
L 305.491591 137.905968 
L 312.547045 138.047655 
L 319.6025 138.318507 
L 326.657955 138.844541 
L 333.713409 139.81752 
L 340.768864 141.344652 
L 347.824318 143.157067 
L 354.879773 144.712996 
L 361.935227 145.700156 
L 368.990682 146.130633 
L 376.046136 146.083197 
L 383.101591 145.586787 
L 390.157045 144.731509 
L 397.2125 143.758488 
L 404.267955 142.907557 
L 411.323409 142.265991 
L 418.378864 141.80827 
" clip-path="url(#pe0e1d04b55)" style="fill: none; stroke-dasharray: 12.8,3.2,2,3.2; stroke-dashoffset: 0; stroke: #ff0000; stroke-width: 2"/>
   </g>
   <g id="patch_4">
    <path d="M 47.9675 164.958933 
L 47.9675 72.8832 
" style="fill: none; stroke: #000000; stroke-width: 0.8; stroke-linejoin: miter; stroke-linecap: square"/>
   </g>
   <g id="patch_5">
    <path d="M 436.0175 164.958933 
L 436.0175 72.8832 
" style="fill: none; stroke: #000000; stroke-width: 0.8; stroke-linejoin: miter; stroke-linecap: square"/>
   </g>
   <g id="patch_6">
    <path d="M 47.9675 164.958933 
L 436.0175 164.958933 
" style="fill: none; stroke: #000000; stroke-width: 0.8; stroke-linejoin: miter; stroke-linecap: square"/>
   </g>
   <g id="patch_7">
    <path d="M 47.9675 72.8832 
L 436.0175 72.8832 
" style="fill: none; stroke: #000000; stroke-width: 0.8; stroke-linejoin: miter; stroke-linecap: square"/>
   </g>
  </g>
  <g id="axes_3">
   <g id="patch_8">
    <path d="M 47.9675 276.68 
L 436.0175 276.68 
L 436.0175 184.604266 
L 47.9675 184.604266 
z
" style="fill: #ffffff"/>
   </g>
   <g id="PathCollection_2">
    <g clip-path="url(#pd5cf707445)">
     <use xlink:href="#ma075f8032a" x="346.401805" y="190.590305" style="fill: #daa520; stroke: #daa520"/>
     <use xlink:href="#ma075f8032a" x="330.79763" y="194.027029" style="fill: #daa520; stroke: #daa520"/>
     <use xlink:href="#ma075f8032a" x="192.241395" y="202.620751" style="fill: #daa520; stroke: #daa520"/>
     <use xlink:href="#ma075f8032a" x="79.955608" y="237.978523" style="fill: #daa520; stroke: #daa520"/>
     <use xlink:href="#ma075f8032a" x="270.961814" y="193.605542" style="fill: #daa520; stroke: #daa520"/>
     <use xlink:href="#ma075f8032a" x="231.470497" y="203.241151" style="fill: #daa520; stroke: #daa520"/>
     <use xlink:href="#ma075f8032a" x="225.214028" y="202.507894" style="fill: #daa520; stroke: #daa520"/>
     <use xlink:href="#ma075f8032a" x="273.409422" y="220.95335" style="fill: #daa520; stroke: #daa520"/>
     <use xlink:href="#ma075f8032a" x="163.740519" y="202.340347" style="fill: #daa520; stroke: #daa520"/>
     <use xlink:href="#ma075f8032a" x="214.552048" y="203.920838" style="fill: #daa520; stroke: #daa520"/>
     <use xlink:href="#ma075f8032a" x="208.636589" y="201.374114" style="fill: #daa520; stroke: #daa520"/>
     <use xlink:href="#ma075f8032a" x="121.297334" y="229.042156" style="fill: #daa520; stroke: #daa520"/>
     <use xlink:href="#ma075f8032a" x="361.355299" y="235.051124" style="fill: #daa520; stroke: #daa520"/>
     <use xlink:href="#ma075f8032a" x="88.394412" y="241.518108" style="fill: #daa520; stroke: #daa520"/>
     <use xlink:href="#ma075f8032a" x="83.350797" y="225.784541" style="fill: #daa520; stroke: #daa520"/>
     <use xlink:href="#ma075f8032a" x="269.534192" y="215.966252" style="fill: #daa520; stroke: #daa520"/>
     <use xlink:href="#ma075f8032a" x="70.618291" y="240.342207" style="fill: #daa520; stroke: #daa520"/>
     <use xlink:href="#ma075f8032a" x="298.131782" y="214.737557" style="fill: #daa520; stroke: #daa520"/>
     <use xlink:href="#ma075f8032a" x="368.06799" y="236.676653" style="fill: #daa520; stroke: #daa520"/>
     <use xlink:href="#ma075f8032a" x="120.540873" y="208.041608" style="fill: #daa520; stroke: #daa520"/>
     <use xlink:href="#ma075f8032a" x="71.380646" y="224.297301" style="fill: #daa520; stroke: #daa520"/>
     <use xlink:href="#ma075f8032a" x="151.671325" y="199.085146" style="fill: #daa520; stroke: #daa520"/>
     <use xlink:href="#ma075f8032a" x="221.73991" y="207.305924" style="fill: #daa520; stroke: #daa520"/>
     <use xlink:href="#ma075f8032a" x="85.04598" y="197.729975" style="fill: #daa520; stroke: #daa520"/>
     <use xlink:href="#ma075f8032a" x="280.783347" y="214.980683" style="fill: #daa520; stroke: #daa520"/>
     <use xlink:href="#ma075f8032a" x="154.094138" y="199.000752" style="fill: #daa520; stroke: #daa520"/>
     <use xlink:href="#ma075f8032a" x="105.602577" y="224.702978" style="fill: #daa520; stroke: #daa520"/>
     <use xlink:href="#ma075f8032a" x="79.492793" y="229.250076" style="fill: #daa520; stroke: #daa520"/>
     <use xlink:href="#ma075f8032a" x="111.617321" y="230.872117" style="fill: #daa520; stroke: #daa520"/>
     <use xlink:href="#ma075f8032a" x="154.777256" y="199.007432" style="fill: #daa520; stroke: #daa520"/>
     <use xlink:href="#ma075f8032a" x="123.57705" y="217.794396" style="fill: #daa520; stroke: #daa520"/>
     <use xlink:href="#ma075f8032a" x="73.841887" y="244.254814" style="fill: #daa520; stroke: #daa520"/>
     <use xlink:href="#ma075f8032a" x="248.659934" y="208.616789" style="fill: #daa520; stroke: #daa520"/>
     <use xlink:href="#ma075f8032a" x="318.930859" y="219.477103" style="fill: #daa520; stroke: #daa520"/>
     <use xlink:href="#ma075f8032a" x="364.032133" y="227.519524" style="fill: #daa520; stroke: #daa520"/>
     <use xlink:href="#ma075f8032a" x="173.187682" y="202.112314" style="fill: #daa520; stroke: #daa520"/>
     <use xlink:href="#ma075f8032a" x="134.918098" y="198.143523" style="fill: #daa520; stroke: #daa520"/>
     <use xlink:href="#ma075f8032a" x="186.339322" y="203.698838" style="fill: #daa520; stroke: #daa520"/>
     <use xlink:href="#ma075f8032a" x="102.419778" y="193.583175" style="fill: #daa520; stroke: #daa520"/>
     <use xlink:href="#ma075f8032a" x="110.083144" y="228.331737" style="fill: #daa520; stroke: #daa520"/>
     <use xlink:href="#ma075f8032a" x="75.299951" y="228.357919" style="fill: #daa520; stroke: #daa520"/>
     <use xlink:href="#ma075f8032a" x="152.343964" y="206.432397" style="fill: #daa520; stroke: #daa520"/>
     <use xlink:href="#ma075f8032a" x="269.628327" y="194.000072" style="fill: #daa520; stroke: #daa520"/>
     <use xlink:href="#ma075f8032a" x="343.461622" y="226.915645" style="fill: #daa520; stroke: #daa520"/>
     <use xlink:href="#ma075f8032a" x="356.914422" y="193.760759" style="fill: #daa520; stroke: #daa520"/>
     <use xlink:href="#ma075f8032a" x="70.888365" y="188.789527" style="fill: #daa520; stroke: #daa520"/>
     <use xlink:href="#ma075f8032a" x="290.50424" y="197.243484" style="fill: #daa520; stroke: #daa520"/>
     <use xlink:href="#ma075f8032a" x="132.220072" y="218.7553" style="fill: #daa520; stroke: #daa520"/>
     <use xlink:href="#ma075f8032a" x="173.194258" y="217.611858" style="fill: #daa520; stroke: #daa520"/>
     <use xlink:href="#ma075f8032a" x="78.796091" y="193.099112" style="fill: #daa520; stroke: #daa520"/>
     <use xlink:href="#ma075f8032a" x="122.168017" y="221.780863" style="fill: #daa520; stroke: #daa520"/>
     <use xlink:href="#ma075f8032a" x="276.918677" y="212.138103" style="fill: #daa520; stroke: #daa520"/>
     <use xlink:href="#ma075f8032a" x="102.146649" y="197.80609" style="fill: #daa520; stroke: #daa520"/>
     <use xlink:href="#ma075f8032a" x="210.287927" y="201.090874" style="fill: #daa520; stroke: #daa520"/>
     <use xlink:href="#ma075f8032a" x="76.486935" y="232.729419" style="fill: #daa520; stroke: #daa520"/>
     <use xlink:href="#ma075f8032a" x="122.050898" y="227.912996" style="fill: #daa520; stroke: #daa520"/>
     <use xlink:href="#ma075f8032a" x="134.013124" y="228.730589" style="fill: #daa520; stroke: #daa520"/>
     <use xlink:href="#ma075f8032a" x="262.925761" y="201.057825" style="fill: #daa520; stroke: #daa520"/>
     <use xlink:href="#ma075f8032a" x="68.950665" y="192.02518" style="fill: #daa520; stroke: #daa520"/>
     <use xlink:href="#ma075f8032a" x="202.44409" y="199.850236" style="fill: #daa520; stroke: #daa520"/>
     <use xlink:href="#ma075f8032a" x="97.432668" y="200.132513" style="fill: #daa520; stroke: #daa520"/>
     <use xlink:href="#ma075f8032a" x="185.285941" y="196.499082" style="fill: #daa520; stroke: #daa520"/>
     <use xlink:href="#ma075f8032a" x="121.976222" y="218.332743" style="fill: #daa520; stroke: #daa520"/>
     <use xlink:href="#ma075f8032a" x="106.707332" y="232.810648" style="fill: #daa520; stroke: #daa520"/>
     <use xlink:href="#ma075f8032a" x="131.303206" y="194.415765" style="fill: #daa520; stroke: #daa520"/>
     <use xlink:href="#ma075f8032a" x="241.367789" y="205.930514" style="fill: #daa520; stroke: #daa520"/>
     <use xlink:href="#ma075f8032a" x="170.699754" y="198.153913" style="fill: #daa520; stroke: #daa520"/>
     <use xlink:href="#ma075f8032a" x="69.656428" y="201.415624" style="fill: #daa520; stroke: #daa520"/>
     <use xlink:href="#ma075f8032a" x="179.808713" y="200.813213" style="fill: #daa520; stroke: #daa520"/>
     <use xlink:href="#ma075f8032a" x="102.259894" y="239.688761" style="fill: #daa520; stroke: #daa520"/>
     <use xlink:href="#ma075f8032a" x="265.435314" y="215.354075" style="fill: #daa520; stroke: #daa520"/>
     <use xlink:href="#ma075f8032a" x="320.611759" y="220.132975" style="fill: #daa520; stroke: #daa520"/>
     <use xlink:href="#ma075f8032a" x="250.766375" y="211.966373" style="fill: #daa520; stroke: #daa520"/>
     <use xlink:href="#ma075f8032a" x="80.993973" y="204.41348" style="fill: #daa520; stroke: #daa520"/>
     <use xlink:href="#ma075f8032a" x="119.117902" y="228.063836" style="fill: #daa520; stroke: #daa520"/>
     <use xlink:href="#ma075f8032a" x="69.720236" y="241.060576" style="fill: #daa520; stroke: #daa520"/>
     <use xlink:href="#ma075f8032a" x="260.755324" y="200.708839" style="fill: #daa520; stroke: #daa520"/>
     <use xlink:href="#ma075f8032a" x="254.320169" y="214.911825" style="fill: #daa520; stroke: #daa520"/>
     <use xlink:href="#ma075f8032a" x="274.192642" y="208.081786" style="fill: #daa520; stroke: #daa520"/>
     <use xlink:href="#ma075f8032a" x="232.9723" y="204.522986" style="fill: #daa520; stroke: #daa520"/>
     <use xlink:href="#ma075f8032a" x="73.97047" y="231.562905" style="fill: #daa520; stroke: #daa520"/>
     <use xlink:href="#ma075f8032a" x="388.011548" y="234.528205" style="fill: #daa520; stroke: #daa520"/>
     <use xlink:href="#ma075f8032a" x="231.487169" y="202.739257" style="fill: #daa520; stroke: #daa520"/>
     <use xlink:href="#ma075f8032a" x="79.0462" y="199.074443" style="fill: #daa520; stroke: #daa520"/>
     <use xlink:href="#ma075f8032a" x="240.102927" y="206.054046" style="fill: #daa520; stroke: #daa520"/>
     <use xlink:href="#ma075f8032a" x="218.360747" y="201.655613" style="fill: #daa520; stroke: #daa520"/>
     <use xlink:href="#ma075f8032a" x="130.272619" y="217.293922" style="fill: #daa520; stroke: #daa520"/>
     <use xlink:href="#ma075f8032a" x="115.273646" y="235.873443" style="fill: #daa520; stroke: #daa520"/>
     <use xlink:href="#ma075f8032a" x="281.985033" y="198.515008" style="fill: #daa520; stroke: #daa520"/>
     <use xlink:href="#ma075f8032a" x="154.676104" y="210.070593" style="fill: #daa520; stroke: #daa520"/>
     <use xlink:href="#ma075f8032a" x="105.633905" y="225.935329" style="fill: #daa520; stroke: #daa520"/>
     <use xlink:href="#ma075f8032a" x="87.192602" y="241.29667" style="fill: #daa520; stroke: #daa520"/>
     <use xlink:href="#ma075f8032a" x="236.604959" y="206.423899" style="fill: #daa520; stroke: #daa520"/>
     <use xlink:href="#ma075f8032a" x="271.415993" y="191.435738" style="fill: #daa520; stroke: #daa520"/>
     <use xlink:href="#ma075f8032a" x="207.723743" y="201.559687" style="fill: #daa520; stroke: #daa520"/>
     <use xlink:href="#ma075f8032a" x="264.009763" y="193.165363" style="fill: #daa520; stroke: #daa520"/>
     <use xlink:href="#ma075f8032a" x="174.06763" y="206.863372" style="fill: #daa520; stroke: #daa520"/>
     <use xlink:href="#ma075f8032a" x="84.490089" y="207.928294" style="fill: #daa520; stroke: #daa520"/>
     <use xlink:href="#ma075f8032a" x="261.398517" y="220.852117" style="fill: #daa520; stroke: #daa520"/>
    </g>
   </g>
   <g id="matplotlib.axis_5">
    <g id="xtick_1">
     <g id="line2d_9">
      <defs>
       <path id="m33d4f58d68" d="M 0 0 
L 0 3.5 
" style="stroke: #696969; stroke-width: 0.8"/>
      </defs>
      <g>
       <use xlink:href="#m33d4f58d68" x="65.606136" y="276.68" style="fill: #696969; stroke: #696969; stroke-width: 0.8"/>
      </g>
     </g>
     <g id="text_3">
      <!-- −1.0 -->
      <g style="fill: #696969" transform="translate(46.179886 295.8375) scale(0.16 -0.16)">
       <defs>
        <path id="DejaVuSans-2212" d="M 678 2272 
L 4684 2272 
L 4684 1741 
L 678 1741 
L 678 2272 
z
" transform="scale(0.015625)"/>
        <path id="DejaVuSans-31" d="M 794 531 
L 1825 531 
L 1825 4091 
L 703 3866 
L 703 4441 
L 1819 4666 
L 2450 4666 
L 2450 531 
L 3481 531 
L 3481 0 
L 794 0 
L 794 531 
z
" transform="scale(0.015625)"/>
        <path id="DejaVuSans-2e" d="M 684 794 
L 1344 794 
L 1344 0 
L 684 0 
L 684 794 
z
" transform="scale(0.015625)"/>
       </defs>
       <use xlink:href="#DejaVuSans-2212"/>
       <use xlink:href="#DejaVuSans-31" x="83.789062"/>
       <use xlink:href="#DejaVuSans-2e" x="147.412109"/>
       <use xlink:href="#DejaVuSans-30" x="179.199219"/>
      </g>
     </g>
    </g>
    <g id="xtick_2">
     <g id="line2d_10">
      <g>
       <use xlink:href="#m33d4f58d68" x="153.799318" y="276.68" style="fill: #696969; stroke: #696969; stroke-width: 0.8"/>
      </g>
     </g>
     <g id="text_4">
      <!-- −0.5 -->
      <g style="fill: #696969" transform="translate(134.373068 295.8375) scale(0.16 -0.16)">
       <defs>
        <path id="DejaVuSans-35" d="M 691 4666 
L 3169 4666 
L 3169 4134 
L 1269 4134 
L 1269 2991 
Q 1406 3038 1543 3061 
Q 1681 3084 1819 3084 
Q 2600 3084 3056 2656 
Q 3513 2228 3513 1497 
Q 3513 744 3044 326 
Q 2575 -91 1722 -91 
Q 1428 -91 1123 -41 
Q 819 9 494 109 
L 494 744 
Q 775 591 1075 516 
Q 1375 441 1709 441 
Q 2250 441 2565 725 
Q 2881 1009 2881 1497 
Q 2881 1984 2565 2268 
Q 2250 2553 1709 2553 
Q 1456 2553 1204 2497 
Q 953 2441 691 2322 
L 691 4666 
z
" transform="scale(0.015625)"/>
       </defs>
       <use xlink:href="#DejaVuSans-2212"/>
       <use xlink:href="#DejaVuSans-30" x="83.789062"/>
       <use xlink:href="#DejaVuSans-2e" x="147.412109"/>
       <use xlink:href="#DejaVuSans-35" x="179.199219"/>
      </g>
     </g>
    </g>
    <g id="xtick_3">
     <g id="line2d_11">
      <g>
       <use xlink:href="#m33d4f58d68" x="241.9925" y="276.68" style="fill: #696969; stroke: #696969; stroke-width: 0.8"/>
      </g>
     </g>
     <g id="text_5">
      <!-- 0.0 -->
      <g style="fill: #696969" transform="translate(229.27 295.8375) scale(0.16 -0.16)">
       <use xlink:href="#DejaVuSans-30"/>
       <use xlink:href="#DejaVuSans-2e" x="63.623047"/>
       <use xlink:href="#DejaVuSans-30" x="95.410156"/>
      </g>
     </g>
    </g>
    <g id="xtick_4">
     <g id="line2d_12">
      <g>
       <use xlink:href="#m33d4f58d68" x="330.185682" y="276.68" style="fill: #696969; stroke: #696969; stroke-width: 0.8"/>
      </g>
     </g>
     <g id="text_6">
      <!-- 0.5 -->
      <g style="fill: #696969" transform="translate(317.463182 295.8375) scale(0.16 -0.16)">
       <use xlink:href="#DejaVuSans-30"/>
       <use xlink:href="#DejaVuSans-2e" x="63.623047"/>
       <use xlink:href="#DejaVuSans-35" x="95.410156"/>
      </g>
     </g>
    </g>
    <g id="xtick_5">
     <g id="line2d_13">
      <g>
       <use xlink:href="#m33d4f58d68" x="418.378864" y="276.68" style="fill: #696969; stroke: #696969; stroke-width: 0.8"/>
      </g>
     </g>
     <g id="text_7">
      <!-- 1.0 -->
      <g style="fill: #696969" transform="translate(405.656364 295.8375) scale(0.16 -0.16)">
       <use xlink:href="#DejaVuSans-31"/>
       <use xlink:href="#DejaVuSans-2e" x="63.623047"/>
       <use xlink:href="#DejaVuSans-30" x="95.410156"/>
      </g>
     </g>
    </g>
    <g id="text_8">
     <!-- $X$ -->
     <g transform="translate(236.4725 315.3225) scale(0.16 -0.16)">
      <defs>
       <path id="DejaVuSans-Oblique-58" d="M 878 4666 
L 1516 4666 
L 2316 2981 
L 3763 4666 
L 4500 4666 
L 2578 2438 
L 3738 0 
L 3103 0 
L 2163 1966 
L 459 0 
L -275 0 
L 1906 2509 
L 878 4666 
z
" transform="scale(0.015625)"/>
      </defs>
      <use xlink:href="#DejaVuSans-Oblique-58" transform="translate(0 0.09375)"/>
     </g>
    </g>
   </g>
   <g id="matplotlib.axis_6">
    <g id="ytick_3">
     <g id="line2d_14">
      <g>
       <use xlink:href="#m09dc6dcc16" x="47.9675" y="240.283153" style="fill: #696969; stroke: #696969; stroke-width: 0.8"/>
      </g>
     </g>
     <g id="text_9">
      <!-- −10 -->
      <g style="fill: #696969" transform="translate(7.2 246.361903) scale(0.16 -0.16)">
       <use xlink:href="#DejaVuSans-2212"/>
       <use xlink:href="#DejaVuSans-31" x="83.789062"/>
       <use xlink:href="#DejaVuSans-30" x="147.412109"/>
      </g>
     </g>
    </g>
    <g id="ytick_4">
     <g id="line2d_15">
      <g>
       <use xlink:href="#m09dc6dcc16" x="47.9675" y="200.922346" style="fill: #696969; stroke: #696969; stroke-width: 0.8"/>
      </g>
     </g>
     <g id="text_10">
      <!-- 0 -->
      <g style="fill: #696969" transform="translate(30.7875 207.001096) scale(0.16 -0.16)">
       <use xlink:href="#DejaVuSans-30"/>
      </g>
     </g>
    </g>
   </g>
   <g id="line2d_16">
    <path d="M 65.606136 212.409584 
L 72.661591 213.578991 
L 79.717045 214.714297 
L 86.7725 215.156754 
L 93.827955 215.064334 
L 100.883409 214.863288 
L 107.938864 214.49019 
L 114.994318 213.619881 
L 122.049773 212.303793 
L 129.105227 211.145864 
L 136.160682 210.265237 
L 143.216136 209.496193 
L 150.271591 208.67037 
L 157.327045 207.639804 
L 164.3825 206.329992 
L 171.437955 204.804251 
L 178.493409 203.271362 
L 185.548864 202.016947 
L 192.604318 201.290645 
L 199.659773 201.205977 
L 206.715227 201.700062 
L 213.770682 202.567956 
L 220.826136 203.551256 
L 227.881591 204.438868 
L 234.937045 205.13618 
L 241.9925 205.67568 
L 249.047955 206.169874 
L 256.103409 206.734218 
L 263.158864 207.420372 
L 270.214318 208.191424 
L 277.269773 208.945091 
L 284.325227 209.564244 
L 291.380682 209.962604 
L 298.436136 210.103906 
L 305.491591 209.996745 
L 312.547045 209.688448 
L 319.6025 209.286294 
L 326.657955 209.01515 
L 333.713409 209.248206 
L 340.768864 210.309079 
L 347.824318 212.043591 
L 354.879773 213.882045 
L 361.935227 215.43247 
L 368.990682 216.575073 
L 376.046136 217.160189 
L 383.101591 216.958315 
L 390.157045 215.928625 
L 397.2125 214.412437 
L 404.267955 212.917948 
L 411.323409 211.828099 
L 418.378864 211.333388 
" clip-path="url(#pd5cf707445)" style="fill: none; stroke: #696969; stroke-width: 2; stroke-linecap: square"/>
   </g>
   <g id="line2d_17">
    <path d="M 65.606136 215.649847 
L 72.661591 219.081757 
L 79.717045 220.99807 
L 86.7725 221.743371 
L 93.827955 221.606548 
L 100.883409 220.827485 
L 107.938864 219.603202 
L 114.994318 218.09347 
L 122.049773 216.425904 
L 129.105227 214.700588 
L 136.160682 212.994236 
L 143.216136 211.363916 
L 150.271591 209.850372 
L 157.327045 208.480961 
L 164.3825 207.272228 
L 171.437955 206.232151 
L 178.493409 205.362075 
L 185.548864 204.658359 
L 192.604318 204.113773 
L 199.659773 203.718644 
L 206.715227 203.461809 
L 213.770682 203.331372 
L 220.826136 203.315301 
L 227.881591 203.401896 
L 234.937045 203.580139 
L 241.9925 203.839962 
L 249.047955 204.172451 
L 256.103409 204.570015 
L 263.158864 205.026544 
L 270.214318 205.537577 
L 277.269773 206.100509 
L 284.325227 206.714865 
L 291.380682 207.382651 
L 298.436136 208.108828 
L 305.491591 208.901919 
L 312.547045 209.774773 
L 319.6025 210.74552 
L 326.657955 211.838739 
L 333.713409 213.086859 
L 340.768864 214.531817 
L 347.824318 216.227014 
L 354.879773 218.239562 
L 361.935227 220.652888 
L 368.990682 223.56968 
L 376.046136 227.115227 
L 383.101591 231.441167 
L 390.157045 236.729667 
L 397.2125 243.198063 
L 404.267955 251.103987 
L 411.323409 260.750996 
L 418.378864 272.494739 
" clip-path="url(#pd5cf707445)" style="fill: none; stroke-dasharray: 7.4,3.2; stroke-dashoffset: 0; stroke: #79ad41; stroke-width: 2"/>
   </g>
   <g id="patch_9">
    <path d="M 47.9675 276.68 
L 47.9675 184.604266 
" style="fill: none; stroke: #000000; stroke-width: 0.8; stroke-linejoin: miter; stroke-linecap: square"/>
   </g>
   <g id="patch_10">
    <path d="M 436.0175 276.68 
L 436.0175 184.604266 
" style="fill: none; stroke: #000000; stroke-width: 0.8; stroke-linejoin: miter; stroke-linecap: square"/>
   </g>
   <g id="patch_11">
    <path d="M 47.9675 276.68 
L 436.0175 276.68 
" style="fill: none; stroke: #000000; stroke-width: 0.8; stroke-linejoin: miter; stroke-linecap: square"/>
   </g>
   <g id="patch_12">
    <path d="M 47.9675 184.604266 
L 436.0175 184.604266 
" style="fill: none; stroke: #000000; stroke-width: 0.8; stroke-linejoin: miter; stroke-linecap: square"/>
   </g>
  </g>
 </g>
 <defs>
  <clipPath id="p8ead4461b7">
   <rect x="47.9675" y="7.2" width="388.05" height="46.037867"/>
  </clipPath>
  <clipPath id="pe0e1d04b55">
   <rect x="47.9675" y="72.8832" width="388.05" height="92.075734"/>
  </clipPath>
  <clipPath id="pd5cf707445">
   <rect x="47.9675" y="184.604266" width="388.05" height="92.075734"/>
  </clipPath>
 </defs>
</svg>
