<?xml version="1.0" encoding="utf-8" standalone="no"?>
<!DOCTYPE svg PUBLIC "-//W3C//DTD SVG 1.1//EN"
  "http://www.w3.org/Graphics/SVG/1.1/DTD/svg11.dtd">
<svg xmlns:xlink="http://www.w3.org/1999/xlink" width="443.2175pt" height="325.85pt" viewBox="0 0 443.2175 325.85" xmlns="http://www.w3.org/2000/svg" version="1.1">
 <metadata>
  <rdf:RDF xmlns:dc="http://purl.org/dc/elements/1.1/" xmlns:cc="http://creativecommons.org/ns#" xmlns:rdf="http://www.w3.org/1999/02/22-rdf-syntax-ns#">
   <cc:Work>
    <dc:type rdf:resource="http://purl.org/dc/dcmitype/StillImage"/>
    <dc:date>2024-01-28T20:58:24.149061</dc:date>
    <dc:format>image/svg+xml</dc:format>
    <dc:creator>
     <cc:Agent>
      <dc:title>Matplotlib v3.7.2, https://matplotlib.org/</dc:title>
     </cc:Agent>
    </dc:creator>
   </cc:Work>
  </rdf:RDF>
 </metadata>
 <defs>
  <style type="text/css">*{stroke-linejoin: round; stroke-linecap: butt}</style>
 </defs>
 <g id="figure_1">
  <g id="patch_1">
   <path d="M 0 325.85 
L 443.2175 325.85 
L 443.2175 0 
L 0 0 
z
" style="fill: #ffffff"/>
  </g>
  <g id="axes_1">
   <g id="patch_2">
    <path d="M 47.9675 54.696 
L 436.0175 54.696 
L 436.0175 7.2 
L 47.9675 7.2 
z
" style="fill: #ffffff"/>
   </g>
   <g id="PolyCollection_1">
    <defs>
     <path id="m2c76d35faf" d="M 65.606136 -273.312909 
L 65.606136 -309.478486 
L 72.661591 -309.355957 
L 79.717045 -309.251615 
L 86.7725 -309.157041 
L 93.827955 -309.06393 
L 100.883409 -308.964235 
L 107.938864 -308.850202 
L 114.994318 -308.714404 
L 122.049773 -308.549763 
L 129.105227 -308.34947 
L 136.160682 -308.106999 
L 143.216136 -307.816037 
L 150.271591 -307.470455 
L 157.327045 -307.064286 
L 164.3825 -306.591732 
L 171.437955 -306.047217 
L 178.493409 -305.425452 
L 185.548864 -304.721574 
L 192.604318 -303.931356 
L 199.659773 -303.051459 
L 206.715227 -302.079723 
L 213.770682 -301.015554 
L 220.826136 -299.86031 
L 227.881591 -298.617652 
L 234.937045 -297.293903 
L 241.9925 -295.898272 
L 249.047955 -294.442924 
L 256.103409 -292.942829 
L 263.158864 -291.415423 
L 270.214318 -289.879935 
L 277.269773 -288.356561 
L 284.325227 -286.865493 
L 291.380682 -285.425854 
L 298.436136 -284.054726 
L 305.491591 -282.766358 
L 312.547045 -281.571598 
L 319.6025 -280.477642 
L 326.657955 -279.488059 
L 333.713409 -278.603083 
L 340.768864 -278.110485 
L 347.824318 -278.110485 
L 354.879773 -278.110485 
L 361.935227 -278.110485 
L 368.990682 -278.110485 
L 376.046136 -278.110485 
L 383.101591 -278.110485 
L 390.157045 -278.110485 
L 397.2125 -278.110485 
L 404.267955 -278.110485 
L 411.323409 -278.110485 
L 418.378864 -278.110485 
L 418.378864 -273.312909 
L 418.378864 -273.312909 
L 411.323409 -273.312909 
L 404.267955 -273.312909 
L 397.2125 -273.312909 
L 390.157045 -273.312909 
L 383.101591 -273.312909 
L 376.046136 -273.312909 
L 368.990682 -273.312909 
L 361.935227 -273.312909 
L 354.879773 -273.312909 
L 347.824318 -273.312909 
L 340.768864 -273.312909 
L 333.713409 -273.312909 
L 326.657955 -273.312909 
L 319.6025 -273.312909 
L 312.547045 -273.312909 
L 305.491591 -273.312909 
L 298.436136 -273.312909 
L 291.380682 -273.312909 
L 284.325227 -273.312909 
L 277.269773 -273.312909 
L 270.214318 -273.312909 
L 263.158864 -273.312909 
L 256.103409 -273.312909 
L 249.047955 -273.312909 
L 241.9925 -273.312909 
L 234.937045 -273.312909 
L 227.881591 -273.312909 
L 220.826136 -273.312909 
L 213.770682 -273.312909 
L 206.715227 -273.312909 
L 199.659773 -273.312909 
L 192.604318 -273.312909 
L 185.548864 -273.312909 
L 178.493409 -273.312909 
L 171.437955 -273.312909 
L 164.3825 -273.312909 
L 157.327045 -273.312909 
L 150.271591 -273.312909 
L 143.216136 -273.312909 
L 136.160682 -273.312909 
L 129.105227 -273.312909 
L 122.049773 -273.312909 
L 114.994318 -273.312909 
L 107.938864 -273.312909 
L 100.883409 -273.312909 
L 93.827955 -273.312909 
L 86.7725 -273.312909 
L 79.717045 -273.312909 
L 72.661591 -273.312909 
L 65.606136 -273.312909 
z
" style="stroke: #dc143c; stroke-opacity: 0.2"/>
    </defs>
    <g clip-path="url(#pa3020ffa37)">
     <use xlink:href="#m2c76d35faf" x="0" y="325.85" style="fill: #dc143c; fill-opacity: 0.2; stroke: #dc143c; stroke-opacity: 0.2"/>
    </g>
   </g>
   <g id="PolyCollection_2">
    <defs>
     <path id="mc1d50536a9" d="M 65.606136 -273.312909 
L 65.606136 -285.123089 
L 72.661591 -285.245619 
L 79.717045 -285.34996 
L 86.7725 -285.444535 
L 93.827955 -285.537646 
L 100.883409 -285.637341 
L 107.938864 -285.751374 
L 114.994318 -285.887172 
L 122.049773 -286.051813 
L 129.105227 -286.252106 
L 136.160682 -286.494577 
L 143.216136 -286.785539 
L 150.271591 -287.131121 
L 157.327045 -287.53729 
L 164.3825 -288.009843 
L 171.437955 -288.554359 
L 178.493409 -289.176123 
L 185.548864 -289.880002 
L 192.604318 -290.670219 
L 199.659773 -291.550117 
L 206.715227 -292.521853 
L 213.770682 -293.586021 
L 220.826136 -294.741266 
L 227.881591 -295.983924 
L 234.937045 -297.307673 
L 241.9925 -298.703303 
L 249.047955 -300.158651 
L 256.103409 -301.658747 
L 263.158864 -303.186153 
L 270.214318 -304.721641 
L 277.269773 -306.245015 
L 284.325227 -307.736082 
L 291.380682 -309.175721 
L 298.436136 -310.54685 
L 305.491591 -311.835218 
L 312.547045 -313.029977 
L 319.6025 -314.123933 
L 326.657955 -315.113517 
L 333.713409 -315.998493 
L 340.768864 -316.491091 
L 347.824318 -316.491091 
L 354.879773 -316.491091 
L 361.935227 -316.491091 
L 368.990682 -316.491091 
L 376.046136 -316.491091 
L 383.101591 -316.491091 
L 390.157045 -316.491091 
L 397.2125 -316.491091 
L 404.267955 -316.491091 
L 411.323409 -316.491091 
L 418.378864 -316.491091 
L 418.378864 -273.312909 
L 418.378864 -273.312909 
L 411.323409 -273.312909 
L 404.267955 -273.312909 
L 397.2125 -273.312909 
L 390.157045 -273.312909 
L 383.101591 -273.312909 
L 376.046136 -273.312909 
L 368.990682 -273.312909 
L 361.935227 -273.312909 
L 354.879773 -273.312909 
L 347.824318 -273.312909 
L 340.768864 -273.312909 
L 333.713409 -273.312909 
L 326.657955 -273.312909 
L 319.6025 -273.312909 
L 312.547045 -273.312909 
L 305.491591 -273.312909 
L 298.436136 -273.312909 
L 291.380682 -273.312909 
L 284.325227 -273.312909 
L 277.269773 -273.312909 
L 270.214318 -273.312909 
L 263.158864 -273.312909 
L 256.103409 -273.312909 
L 249.047955 -273.312909 
L 241.9925 -273.312909 
L 234.937045 -273.312909 
L 227.881591 -273.312909 
L 220.826136 -273.312909 
L 213.770682 -273.312909 
L 206.715227 -273.312909 
L 199.659773 -273.312909 
L 192.604318 -273.312909 
L 185.548864 -273.312909 
L 178.493409 -273.312909 
L 171.437955 -273.312909 
L 164.3825 -273.312909 
L 157.327045 -273.312909 
L 150.271591 -273.312909 
L 143.216136 -273.312909 
L 136.160682 -273.312909 
L 129.105227 -273.312909 
L 122.049773 -273.312909 
L 114.994318 -273.312909 
L 107.938864 -273.312909 
L 100.883409 -273.312909 
L 93.827955 -273.312909 
L 86.7725 -273.312909 
L 79.717045 -273.312909 
L 72.661591 -273.312909 
L 65.606136 -273.312909 
z
" style="stroke: #000080; stroke-opacity: 0.2"/>
    </defs>
    <g clip-path="url(#pa3020ffa37)">
     <use xlink:href="#mc1d50536a9" x="0" y="325.85" style="fill: #000080; fill-opacity: 0.2; stroke: #000080; stroke-opacity: 0.2"/>
    </g>
   </g>
   <g id="matplotlib.axis_1"/>
   <g id="matplotlib.axis_2"/>
   <g id="line2d_1">
    <path d="M 65.606136 16.371514 
L 72.661591 16.494043 
L 79.717045 16.598385 
L 86.7725 16.692959 
L 93.827955 16.78607 
L 100.883409 16.885765 
L 107.938864 16.999798 
L 114.994318 17.135596 
L 122.049773 17.300237 
L 129.105227 17.50053 
L 136.160682 17.743001 
L 143.216136 18.033963 
L 150.271591 18.379545 
L 157.327045 18.785714 
L 164.3825 19.258268 
L 171.437955 19.802783 
L 178.493409 20.424548 
L 185.548864 21.128426 
L 192.604318 21.918644 
L 199.659773 22.798541 
L 206.715227 23.770277 
L 213.770682 24.834446 
L 220.826136 25.98969 
L 227.881591 27.232348 
L 234.937045 28.556097 
L 241.9925 29.951728 
L 249.047955 31.407076 
L 256.103409 32.907171 
L 263.158864 34.434577 
L 270.214318 35.970065 
L 277.269773 37.493439 
L 284.325227 38.984507 
L 291.380682 40.424146 
L 298.436136 41.795274 
L 305.491591 43.083642 
L 312.547045 44.278402 
L 319.6025 45.372358 
L 326.657955 46.361941 
L 333.713409 47.246917 
L 340.768864 47.739515 
L 347.824318 47.739515 
L 354.879773 47.739515 
L 361.935227 47.739515 
L 368.990682 47.739515 
L 376.046136 47.739515 
L 383.101591 47.739515 
L 390.157045 47.739515 
L 397.2125 47.739515 
L 404.267955 47.739515 
L 411.323409 47.739515 
L 418.378864 47.739515 
" clip-path="url(#pa3020ffa37)" style="fill: none; stroke: #dc143c; stroke-width: 1.5; stroke-linecap: square"/>
   </g>
   <g id="line2d_2">
    <path d="M 65.606136 40.726911 
L 72.661591 40.604381 
L 79.717045 40.50004 
L 86.7725 40.405465 
L 93.827955 40.312354 
L 100.883409 40.212659 
L 107.938864 40.098626 
L 114.994318 39.962828 
L 122.049773 39.798187 
L 129.105227 39.597894 
L 136.160682 39.355423 
L 143.216136 39.064461 
L 150.271591 38.718879 
L 157.327045 38.31271 
L 164.3825 37.840157 
L 171.437955 37.295641 
L 178.493409 36.673877 
L 185.548864 35.969998 
L 192.604318 35.179781 
L 199.659773 34.299883 
L 206.715227 33.328147 
L 213.770682 32.263979 
L 220.826136 31.108734 
L 227.881591 29.866076 
L 234.937045 28.542327 
L 241.9925 27.146697 
L 249.047955 25.691349 
L 256.103409 24.191253 
L 263.158864 22.663847 
L 270.214318 21.128359 
L 277.269773 19.604985 
L 284.325227 18.113918 
L 291.380682 16.674279 
L 298.436136 15.30315 
L 305.491591 14.014782 
L 312.547045 12.820023 
L 319.6025 11.726067 
L 326.657955 10.736483 
L 333.713409 9.851507 
L 340.768864 9.358909 
L 347.824318 9.358909 
L 354.879773 9.358909 
L 361.935227 9.358909 
L 368.990682 9.358909 
L 376.046136 9.358909 
L 383.101591 9.358909 
L 390.157045 9.358909 
L 397.2125 9.358909 
L 404.267955 9.358909 
L 411.323409 9.358909 
L 418.378864 9.358909 
" clip-path="url(#pa3020ffa37)" style="fill: none; stroke: #000080; stroke-width: 1.5; stroke-linecap: square"/>
   </g>
  </g>
  <g id="axes_2">
   <g id="patch_3">
    <path d="M 47.9675 165.688 
L 436.0175 165.688 
L 436.0175 70.696 
L 47.9675 70.696 
z
" style="fill: #ffffff"/>
   </g>
   <g id="PathCollection_1">
    <defs>
     <path id="m5c7dd4eada" d="M 0 0.866025 
C 0.229673 0.866025 0.449969 0.774776 0.612372 0.612372 
C 0.774776 0.449969 0.866025 0.229673 0.866025 0 
C 0.866025 -0.229673 0.774776 -0.449969 0.612372 -0.612372 
C 0.449969 -0.774776 0.229673 -0.866025 0 -0.866025 
C -0.229673 -0.866025 -0.449969 -0.774776 -0.612372 -0.612372 
C -0.774776 -0.449969 -0.866025 -0.229673 -0.866025 0 
C -0.866025 0.229673 -0.774776 0.449969 -0.612372 0.612372 
C -0.449969 0.774776 -0.229673 0.866025 0 0.866025 
z
" style="stroke: #daa520"/>
    </defs>
    <g clip-path="url(#p005aa98f14)">
     <use xlink:href="#m5c7dd4eada" x="346.401805" y="142.315943" style="fill: #daa520; stroke: #daa520"/>
     <use xlink:href="#m5c7dd4eada" x="330.79763" y="131.092985" style="fill: #daa520; stroke: #daa520"/>
     <use xlink:href="#m5c7dd4eada" x="192.241395" y="116.025763" style="fill: #daa520; stroke: #daa520"/>
     <use xlink:href="#m5c7dd4eada" x="79.955608" y="90.111138" style="fill: #daa520; stroke: #daa520"/>
     <use xlink:href="#m5c7dd4eada" x="270.961814" y="128.671424" style="fill: #daa520; stroke: #daa520"/>
     <use xlink:href="#m5c7dd4eada" x="231.470497" y="115.159101" style="fill: #daa520; stroke: #daa520"/>
     <use xlink:href="#m5c7dd4eada" x="225.214028" y="116.180788" style="fill: #daa520; stroke: #daa520"/>
     <use xlink:href="#m5c7dd4eada" x="273.409422" y="90.461121" style="fill: #daa520; stroke: #daa520"/>
     <use xlink:href="#m5c7dd4eada" x="163.740519" y="116.499675" style="fill: #daa520; stroke: #daa520"/>
     <use xlink:href="#m5c7dd4eada" x="214.552048" y="114.203202" style="fill: #daa520; stroke: #daa520"/>
     <use xlink:href="#m5c7dd4eada" x="208.636589" y="117.761651" style="fill: #daa520; stroke: #daa520"/>
     <use xlink:href="#m5c7dd4eada" x="121.297334" y="82.427609" style="fill: #daa520; stroke: #daa520"/>
     <use xlink:href="#m5c7dd4eada" x="361.355299" y="85.486994" style="fill: #daa520; stroke: #daa520"/>
     <use xlink:href="#m5c7dd4eada" x="88.394412" y="80.639738" style="fill: #daa520; stroke: #daa520"/>
     <use xlink:href="#m5c7dd4eada" x="83.350797" y="105.561193" style="fill: #daa520; stroke: #daa520"/>
     <use xlink:href="#m5c7dd4eada" x="269.534192" y="97.420495" style="fill: #daa520; stroke: #daa520"/>
     <use xlink:href="#m5c7dd4eada" x="70.618291" y="89.374471" style="fill: #daa520; stroke: #daa520"/>
     <use xlink:href="#m5c7dd4eada" x="298.131782" y="99.315402" style="fill: #daa520; stroke: #daa520"/>
     <use xlink:href="#m5c7dd4eada" x="368.06799" y="84.074828" style="fill: #daa520; stroke: #daa520"/>
     <use xlink:href="#m5c7dd4eada" x="120.540873" y="112.012195" style="fill: #daa520; stroke: #daa520"/>
     <use xlink:href="#m5c7dd4eada" x="71.380646" y="111.664031" style="fill: #daa520; stroke: #daa520"/>
     <use xlink:href="#m5c7dd4eada" x="151.671325" y="121.179386" style="fill: #daa520; stroke: #daa520"/>
     <use xlink:href="#m5c7dd4eada" x="221.73991" y="109.474569" style="fill: #daa520; stroke: #daa520"/>
     <use xlink:href="#m5c7dd4eada" x="85.04598" y="143.838751" style="fill: #daa520; stroke: #daa520"/>
     <use xlink:href="#m5c7dd4eada" x="280.783347" y="98.833016" style="fill: #daa520; stroke: #daa520"/>
     <use xlink:href="#m5c7dd4eada" x="154.094138" y="121.260418" style="fill: #daa520; stroke: #daa520"/>
     <use xlink:href="#m5c7dd4eada" x="105.602577" y="94.558542" style="fill: #daa520; stroke: #daa520"/>
     <use xlink:href="#m5c7dd4eada" x="79.492793" y="102.495408" style="fill: #daa520; stroke: #daa520"/>
     <use xlink:href="#m5c7dd4eada" x="111.617321" y="83.441833" style="fill: #daa520; stroke: #daa520"/>
     <use xlink:href="#m5c7dd4eada" x="154.777256" y="121.241915" style="fill: #daa520; stroke: #daa520"/>
     <use xlink:href="#m5c7dd4eada" x="123.57705" y="97.498778" style="fill: #daa520; stroke: #daa520"/>
     <use xlink:href="#m5c7dd4eada" x="73.841887" y="83.271157" style="fill: #daa520; stroke: #daa520"/>
     <use xlink:href="#m5c7dd4eada" x="248.659934" y="107.659773" style="fill: #daa520; stroke: #daa520"/>
     <use xlink:href="#m5c7dd4eada" x="318.930859" y="93.545037" style="fill: #daa520; stroke: #daa520"/>
     <use xlink:href="#m5c7dd4eada" x="364.032133" y="96.459983" style="fill: #daa520; stroke: #daa520"/>
     <use xlink:href="#m5c7dd4eada" x="173.187682" y="116.77236" style="fill: #daa520; stroke: #daa520"/>
     <use xlink:href="#m5c7dd4eada" x="134.918098" y="123.164484" style="fill: #daa520; stroke: #daa520"/>
     <use xlink:href="#m5c7dd4eada" x="186.339322" y="114.52562" style="fill: #daa520; stroke: #daa520"/>
     <use xlink:href="#m5c7dd4eada" x="102.419778" y="139.518765" style="fill: #daa520; stroke: #daa520"/>
     <use xlink:href="#m5c7dd4eada" x="110.083144" y="87.607703" style="fill: #daa520; stroke: #daa520"/>
     <use xlink:href="#m5c7dd4eada" x="75.299951" y="105.122817" style="fill: #daa520; stroke: #daa520"/>
     <use xlink:href="#m5c7dd4eada" x="152.343964" y="110.901119" style="fill: #daa520; stroke: #daa520"/>
     <use xlink:href="#m5c7dd4eada" x="269.628327" y="128.116943" style="fill: #daa520; stroke: #daa520"/>
     <use xlink:href="#m5c7dd4eada" x="343.461622" y="90.130929" style="fill: #daa520; stroke: #daa520"/>
     <use xlink:href="#m5c7dd4eada" x="356.914422" y="142.103761" style="fill: #daa520; stroke: #daa520"/>
     <use xlink:href="#m5c7dd4eada" x="70.888365" y="161.370182" style="fill: #daa520; stroke: #daa520"/>
     <use xlink:href="#m5c7dd4eada" x="290.50424" y="123.677693" style="fill: #daa520; stroke: #daa520"/>
     <use xlink:href="#m5c7dd4eada" x="132.220072" y="94.619197" style="fill: #daa520; stroke: #daa520"/>
     <use xlink:href="#m5c7dd4eada" x="173.194258" y="95.112785" style="fill: #daa520; stroke: #daa520"/>
     <use xlink:href="#m5c7dd4eada" x="78.796091" y="153.281661" style="fill: #daa520; stroke: #daa520"/>
     <use xlink:href="#m5c7dd4eada" x="122.168017" y="92.315063" style="fill: #daa520; stroke: #daa520"/>
     <use xlink:href="#m5c7dd4eada" x="276.918677" y="102.790608" style="fill: #daa520; stroke: #daa520"/>
     <use xlink:href="#m5c7dd4eada" x="102.146649" y="133.750854" style="fill: #daa520; stroke: #daa520"/>
     <use xlink:href="#m5c7dd4eada" x="210.287927" y="118.157469" style="fill: #daa520; stroke: #daa520"/>
     <use xlink:href="#m5c7dd4eada" x="76.486935" y="98.676893" style="fill: #daa520; stroke: #daa520"/>
     <use xlink:href="#m5c7dd4eada" x="122.050898" y="83.779865" style="fill: #daa520; stroke: #daa520"/>
     <use xlink:href="#m5c7dd4eada" x="134.013124" y="80.499597" style="fill: #daa520; stroke: #daa520"/>
     <use xlink:href="#m5c7dd4eada" x="262.925761" y="118.241111" style="fill: #daa520; stroke: #daa520"/>
     <use xlink:href="#m5c7dd4eada" x="68.950665" y="157.14999" style="fill: #daa520; stroke: #daa520"/>
     <use xlink:href="#m5c7dd4eada" x="202.44409" y="119.892" style="fill: #daa520; stroke: #daa520"/>
     <use xlink:href="#m5c7dd4eada" x="97.432668" y="132.983584" style="fill: #daa520; stroke: #daa520"/>
     <use xlink:href="#m5c7dd4eada" x="185.285941" y="124.588274" style="fill: #daa520; stroke: #daa520"/>
     <use xlink:href="#m5c7dd4eada" x="121.976222" y="97.189464" style="fill: #daa520; stroke: #daa520"/>
     <use xlink:href="#m5c7dd4eada" x="106.707332" y="82.74854" style="fill: #daa520; stroke: #daa520"/>
     <use xlink:href="#m5c7dd4eada" x="131.303206" y="128.738269" style="fill: #daa520; stroke: #daa520"/>
     <use xlink:href="#m5c7dd4eada" x="241.367789" y="111.407352" style="fill: #daa520; stroke: #daa520"/>
     <use xlink:href="#m5c7dd4eada" x="170.699754" y="122.313302" style="fill: #daa520; stroke: #daa520"/>
     <use xlink:href="#m5c7dd4eada" x="69.656428" y="143.924459" style="fill: #daa520; stroke: #daa520"/>
     <use xlink:href="#m5c7dd4eada" x="179.808713" y="118.569453" style="fill: #daa520; stroke: #daa520"/>
     <use xlink:href="#m5c7dd4eada" x="102.259894" y="75.167266" style="fill: #daa520; stroke: #daa520"/>
     <use xlink:href="#m5c7dd4eada" x="265.435314" y="98.267517" style="fill: #daa520; stroke: #daa520"/>
     <use xlink:href="#m5c7dd4eada" x="320.611759" y="92.795915" style="fill: #daa520; stroke: #daa520"/>
     <use xlink:href="#m5c7dd4eada" x="250.766375" y="102.981084" style="fill: #daa520; stroke: #daa520"/>
     <use xlink:href="#m5c7dd4eada" x="80.993973" y="136.57034" style="fill: #daa520; stroke: #daa520"/>
     <use xlink:href="#m5c7dd4eada" x="119.117902" y="84.507743" style="fill: #daa520; stroke: #daa520"/>
     <use xlink:href="#m5c7dd4eada" x="69.720236" y="88.513671" style="fill: #daa520; stroke: #daa520"/>
     <use xlink:href="#m5c7dd4eada" x="260.755324" y="118.725331" style="fill: #daa520; stroke: #daa520"/>
     <use xlink:href="#m5c7dd4eada" x="254.320169" y="98.868976" style="fill: #daa520; stroke: #daa520"/>
     <use xlink:href="#m5c7dd4eada" x="274.192642" y="108.450479" style="fill: #daa520; stroke: #daa520"/>
     <use xlink:href="#m5c7dd4eada" x="232.9723" y="113.368666" style="fill: #daa520; stroke: #daa520"/>
     <use xlink:href="#m5c7dd4eada" x="73.97047" y="100.977304" style="fill: #daa520; stroke: #daa520"/>
     <use xlink:href="#m5c7dd4eada" x="388.011548" y="85.055273" style="fill: #daa520; stroke: #daa520"/>
     <use xlink:href="#m5c7dd4eada" x="231.487169" y="115.860473" style="fill: #daa520; stroke: #daa520"/>
     <use xlink:href="#m5c7dd4eada" x="79.0462" y="144.837283" style="fill: #daa520; stroke: #daa520"/>
     <use xlink:href="#m5c7dd4eada" x="240.102927" y="111.233775" style="fill: #daa520; stroke: #daa520"/>
     <use xlink:href="#m5c7dd4eada" x="218.360747" y="117.369492" style="fill: #daa520; stroke: #daa520"/>
     <use xlink:href="#m5c7dd4eada" x="130.272619" y="96.900161" style="fill: #daa520; stroke: #daa520"/>
     <use xlink:href="#m5c7dd4eada" x="115.273646" y="75.013818" style="fill: #daa520; stroke: #daa520"/>
     <use xlink:href="#m5c7dd4eada" x="281.985033" y="121.848004" style="fill: #daa520; stroke: #daa520"/>
     <use xlink:href="#m5c7dd4eada" x="154.676104" y="105.783231" style="fill: #daa520; stroke: #daa520"/>
     <use xlink:href="#m5c7dd4eada" x="105.633905" y="92.822607" style="fill: #daa520; stroke: #daa520"/>
     <use xlink:href="#m5c7dd4eada" x="87.192602" y="81.689275" style="fill: #daa520; stroke: #daa520"/>
     <use xlink:href="#m5c7dd4eada" x="236.604959" y="110.714503" style="fill: #daa520; stroke: #daa520"/>
     <use xlink:href="#m5c7dd4eada" x="271.415993" y="131.704701" style="fill: #daa520; stroke: #daa520"/>
     <use xlink:href="#m5c7dd4eada" x="207.723743" y="117.502358" style="fill: #daa520; stroke: #daa520"/>
     <use xlink:href="#m5c7dd4eada" x="264.009763" y="129.272142" style="fill: #daa520; stroke: #daa520"/>
     <use xlink:href="#m5c7dd4eada" x="174.06763" y="110.13014" style="fill: #daa520; stroke: #daa520"/>
     <use xlink:href="#m5c7dd4eada" x="84.490089" y="129.899669" style="fill: #daa520; stroke: #daa520"/>
     <use xlink:href="#m5c7dd4eada" x="261.398517" y="90.577472" style="fill: #daa520; stroke: #daa520"/>
    </g>
   </g>
   <g id="matplotlib.axis_3"/>
   <g id="matplotlib.axis_4">
    <g id="ytick_1">
     <g id="line2d_3">
      <defs>
       <path id="m5f37f0c425" d="M 0 0 
L -3.5 0 
" style="stroke: #696969; stroke-width: 0.8"/>
      </defs>
      <g>
       <use xlink:href="#m5f37f0c425" x="47.9675" y="140.323355" style="fill: #696969; stroke: #696969; stroke-width: 0.8"/>
      </g>
     </g>
     <g id="text_1">
      <!-- −5 -->
      <g style="fill: #696969" transform="translate(17.38 146.402105) scale(0.16 -0.16)">
       <defs>
        <path id="DejaVuSans-2212" d="M 678 2272 
L 4684 2272 
L 4684 1741 
L 678 1741 
L 678 2272 
z
" transform="scale(0.015625)"/>
        <path id="DejaVuSans-35" d="M 691 4666 
L 3169 4666 
L 3169 4134 
L 1269 4134 
L 1269 2991 
Q 1406 3038 1543 3061 
Q 1681 3084 1819 3084 
Q 2600 3084 3056 2656 
Q 3513 2228 3513 1497 
Q 3513 744 3044 326 
Q 2575 -91 1722 -91 
Q 1428 -91 1123 -41 
Q 819 9 494 109 
L 494 744 
Q 775 591 1075 516 
Q 1375 441 1709 441 
Q 2250 441 2565 725 
Q 2881 1009 2881 1497 
Q 2881 1984 2565 2268 
Q 2250 2553 1709 2553 
Q 1456 2553 1204 2497 
Q 953 2441 691 2322 
L 691 4666 
z
" transform="scale(0.015625)"/>
       </defs>
       <use xlink:href="#DejaVuSans-2212"/>
       <use xlink:href="#DejaVuSans-35" x="83.789062"/>
      </g>
     </g>
    </g>
    <g id="ytick_2">
     <g id="line2d_4">
      <g>
       <use xlink:href="#m5f37f0c425" x="47.9675" y="112.821338" style="fill: #696969; stroke: #696969; stroke-width: 0.8"/>
      </g>
     </g>
     <g id="text_2">
      <!-- 0 -->
      <g style="fill: #696969" transform="translate(30.7875 118.900088) scale(0.16 -0.16)">
       <defs>
        <path id="DejaVuSans-30" d="M 2034 4250 
Q 1547 4250 1301 3770 
Q 1056 3291 1056 2328 
Q 1056 1369 1301 889 
Q 1547 409 2034 409 
Q 2525 409 2770 889 
Q 3016 1369 3016 2328 
Q 3016 3291 2770 3770 
Q 2525 4250 2034 4250 
z
M 2034 4750 
Q 2819 4750 3233 4129 
Q 3647 3509 3647 2328 
Q 3647 1150 3233 529 
Q 2819 -91 2034 -91 
Q 1250 -91 836 529 
Q 422 1150 422 2328 
Q 422 3509 836 4129 
Q 1250 4750 2034 4750 
z
" transform="scale(0.015625)"/>
       </defs>
       <use xlink:href="#DejaVuSans-30"/>
      </g>
     </g>
    </g>
    <g id="ytick_3">
     <g id="line2d_5">
      <g>
       <use xlink:href="#m5f37f0c425" x="47.9675" y="85.31932" style="fill: #696969; stroke: #696969; stroke-width: 0.8"/>
      </g>
     </g>
     <g id="text_3">
      <!-- 5 -->
      <g style="fill: #696969" transform="translate(30.7875 91.39807) scale(0.16 -0.16)">
       <use xlink:href="#DejaVuSans-35"/>
      </g>
     </g>
    </g>
   </g>
   <g id="line2d_6">
    <path d="M 65.606136 129.065256 
L 72.661591 126.395763 
L 79.717045 122.718526 
L 86.7725 118.472589 
L 93.827955 114.228194 
L 100.883409 110.546421 
L 107.938864 107.829643 
L 114.994318 106.219773 
L 122.049773 105.592987 
L 129.105227 105.660393 
L 136.160682 106.129112 
L 143.216136 106.840387 
L 150.271591 107.809623 
L 157.327045 109.148584 
L 164.3825 110.92024 
L 171.437955 113.016967 
L 178.493409 115.13736 
L 185.548864 116.877054 
L 192.604318 117.884195 
L 199.659773 117.998345 
L 206.715227 117.306264 
L 213.770682 116.093648 
L 220.826136 114.721165 
L 227.881591 113.483558 
L 234.937045 112.51294 
L 241.9925 111.763948 
L 249.047955 111.079549 
L 256.103409 110.29881 
L 263.158864 109.350279 
L 270.214318 108.286859 
L 277.269773 107.253826 
L 284.325227 106.419089 
L 291.380682 105.911026 
L 298.436136 105.795128 
L 305.491591 106.088371 
L 312.547045 106.783146 
L 319.6025 107.849708 
L 326.657955 109.208579 
L 333.713409 110.695492 
L 340.768864 112.057935 
L 347.824318 113.010478 
L 354.879773 113.339954 
L 361.935227 113.012352 
L 368.990682 112.217592 
L 376.046136 111.311561 
L 383.101591 110.668888 
L 390.157045 110.514485 
L 397.2125 110.820586 
L 404.267955 111.323805 
L 411.323409 111.651601 
L 418.378864 111.490222 
" clip-path="url(#p005aa98f14)" style="fill: none; stroke: #000000; stroke-width: 2; stroke-linecap: square"/>
   </g>
   <g id="line2d_7">
    <path d="M 65.606136 114.89725 
L 72.661591 113.08195 
L 79.717045 111.547528 
L 86.7725 110.271715 
L 93.827955 109.23295 
L 100.883409 108.410378 
L 107.938864 107.783852 
L 114.994318 107.333932 
L 122.049773 107.041882 
L 129.105227 106.889675 
L 136.160682 106.859992 
L 143.216136 106.936217 
L 150.271591 107.102445 
L 157.327045 107.343475 
L 164.3825 107.644814 
L 171.437955 107.992674 
L 178.493409 108.373976 
L 185.548864 108.776347 
L 192.604318 109.18812 
L 199.659773 109.598335 
L 206.715227 109.996741 
L 213.770682 110.37379 
L 220.826136 110.720644 
L 227.881591 111.02917 
L 234.937045 111.291942 
L 241.9925 111.502241 
L 249.047955 111.654055 
L 256.103409 111.742079 
L 263.158864 111.761714 
L 270.214318 111.709067 
L 277.269773 111.580954 
L 284.325227 111.374897 
L 291.380682 111.089123 
L 298.436136 110.722569 
L 305.491591 110.274875 
L 312.547045 109.746391 
L 319.6025 109.138172 
L 326.657955 108.451981 
L 333.713409 107.690286 
L 340.768864 106.856263 
L 347.824318 105.953795 
L 354.879773 104.987471 
L 361.935227 103.962587 
L 368.990682 102.885147 
L 376.046136 101.761859 
L 383.101591 100.600141 
L 390.157045 99.408115 
L 397.2125 98.194611 
L 404.267955 96.969166 
L 411.323409 95.742024 
L 418.378864 94.524135 
" clip-path="url(#p005aa98f14)" style="fill: none; stroke-dasharray: 7.4,3.2; stroke-dashoffset: 0; stroke: #34b6c6; stroke-width: 2"/>
   </g>
   <g id="line2d_8">
    <path d="M 65.606136 113.199486 
L 72.661591 114.385277 
L 79.717045 114.364642 
L 86.7725 112.648736 
L 93.827955 110.05363 
L 100.883409 107.770212 
L 107.938864 106.124333 
L 114.994318 104.79917 
L 122.049773 103.744791 
L 129.105227 103.533572 
L 136.160682 104.038548 
L 143.216136 104.861673 
L 150.271591 105.779416 
L 157.327045 106.695981 
L 164.3825 107.570485 
L 171.437955 108.384275 
L 178.493409 109.128089 
L 185.548864 109.796866 
L 192.604318 110.387489 
L 199.659773 110.897732 
L 206.715227 111.325733 
L 213.770682 111.669718 
L 220.826136 111.927844 
L 227.881591 112.098121 
L 234.937045 112.178369 
L 241.9925 112.166204 
L 249.047955 112.059066 
L 256.103409 111.854273 
L 263.158864 111.549151 
L 270.214318 111.141278 
L 277.269773 110.628942 
L 284.325227 110.012027 
L 291.380682 109.293746 
L 298.436136 108.484162 
L 305.491591 107.607532 
L 312.547045 106.718081 
L 319.6025 105.932916 
L 326.657955 105.486346 
L 333.713409 105.737977 
L 340.768864 106.885499 
L 347.824318 108.407622 
L 354.879773 109.261238 
L 361.935227 108.841415 
L 368.990682 107.162721 
L 376.046136 104.366804 
L 383.101591 100.499757 
L 390.157045 95.724212 
L 397.2125 90.491045 
L 404.267955 85.24832 
L 411.323409 80.15224 
L 418.378864 75.143136 
" clip-path="url(#p005aa98f14)" style="fill: none; stroke-dasharray: 7.4,3.2; stroke-dashoffset: 0; stroke: #9370db; stroke-width: 2"/>
   </g>
   <g id="line2d_9">
    <path d="M 65.606136 145.117884 
L 72.661591 144.082559 
L 79.717045 141.991833 
L 86.7725 138.3642 
L 93.827955 133.990654 
L 100.883409 130.027933 
L 107.938864 126.789776 
L 114.994318 123.963709 
L 122.049773 121.49778 
L 129.105227 119.94706 
L 136.160682 119.185162 
L 143.216136 118.821751 
L 150.271591 118.636957 
L 157.327045 118.535772 
L 164.3825 118.477054 
L 171.437955 118.441664 
L 178.493409 118.419949 
L 185.548864 118.406683 
L 192.604318 118.398867 
L 199.659773 118.3947 
L 206.715227 118.393069 
L 213.770682 118.393275 
L 220.826136 118.394886 
L 227.881591 118.397657 
L 234.937045 118.401485 
L 241.9925 118.406407 
L 249.047955 118.412611 
L 256.103409 118.420503 
L 263.158864 118.430825 
L 270.214318 118.444898 
L 277.269773 118.465063 
L 284.325227 118.49555 
L 291.380682 118.544168 
L 298.436136 118.62573 
L 305.491591 118.769222 
L 312.547045 119.033174 
L 319.6025 119.537753 
L 326.657955 120.517719 
L 333.713409 122.330311 
L 340.768864 125.175252 
L 347.824318 128.551657 
L 354.879773 131.450246 
L 361.935227 133.289257 
L 368.990682 134.091207 
L 376.046136 134.002836 
L 383.101591 133.078058 
L 390.157045 131.484734 
L 397.2125 129.672064 
L 404.267955 128.086838 
L 411.323409 126.891644 
L 418.378864 126.038941 
" clip-path="url(#p005aa98f14)" style="fill: none; stroke-dasharray: 12.8,3.2,2,3.2; stroke-dashoffset: 0; stroke: #ff0000; stroke-width: 2"/>
   </g>
   <g id="patch_4">
    <path d="M 47.9675 165.688 
L 47.9675 70.696 
" style="fill: none; stroke: #000000; stroke-width: 0.8; stroke-linejoin: miter; stroke-linecap: square"/>
   </g>
   <g id="patch_5">
    <path d="M 436.0175 165.688 
L 436.0175 70.696 
" style="fill: none; stroke: #000000; stroke-width: 0.8; stroke-linejoin: miter; stroke-linecap: square"/>
   </g>
   <g id="patch_6">
    <path d="M 47.9675 165.688 
L 436.0175 165.688 
" style="fill: none; stroke: #000000; stroke-width: 0.8; stroke-linejoin: miter; stroke-linecap: square"/>
   </g>
   <g id="patch_7">
    <path d="M 47.9675 70.696 
L 436.0175 70.696 
" style="fill: none; stroke: #000000; stroke-width: 0.8; stroke-linejoin: miter; stroke-linecap: square"/>
   </g>
  </g>
  <g id="axes_3">
   <g id="patch_8">
    <path d="M 47.9675 276.68 
L 436.0175 276.68 
L 436.0175 181.688 
L 47.9675 181.688 
z
" style="fill: #ffffff"/>
   </g>
   <g id="PathCollection_2">
    <g clip-path="url(#pa0737a3963)">
     <use xlink:href="#m5c7dd4eada" x="346.401805" y="188.80953" style="fill: #daa520; stroke: #daa520"/>
     <use xlink:href="#m5c7dd4eada" x="330.79763" y="194.160317" style="fill: #daa520; stroke: #daa520"/>
     <use xlink:href="#m5c7dd4eada" x="192.241395" y="207.540264" style="fill: #daa520; stroke: #daa520"/>
     <use xlink:href="#m5c7dd4eada" x="79.955608" y="262.590346" style="fill: #daa520; stroke: #daa520"/>
     <use xlink:href="#m5c7dd4eada" x="270.961814" y="193.504086" style="fill: #daa520; stroke: #daa520"/>
     <use xlink:href="#m5c7dd4eada" x="231.470497" y="208.506193" style="fill: #daa520; stroke: #daa520"/>
     <use xlink:href="#m5c7dd4eada" x="225.214028" y="207.364551" style="fill: #daa520; stroke: #daa520"/>
     <use xlink:href="#m5c7dd4eada" x="273.409422" y="236.0831" style="fill: #daa520; stroke: #daa520"/>
     <use xlink:href="#m5c7dd4eada" x="163.740519" y="207.103691" style="fill: #daa520; stroke: #daa520"/>
     <use xlink:href="#m5c7dd4eada" x="214.552048" y="209.564428" style="fill: #daa520; stroke: #daa520"/>
     <use xlink:href="#m5c7dd4eada" x="208.636589" y="205.599319" style="fill: #daa520; stroke: #daa520"/>
     <use xlink:href="#m5c7dd4eada" x="121.297334" y="248.676921" style="fill: #daa520; stroke: #daa520"/>
     <use xlink:href="#m5c7dd4eada" x="361.355299" y="258.032549" style="fill: #daa520; stroke: #daa520"/>
     <use xlink:href="#m5c7dd4eada" x="88.394412" y="268.101282" style="fill: #daa520; stroke: #daa520"/>
     <use xlink:href="#m5c7dd4eada" x="83.350797" y="243.604994" style="fill: #daa520; stroke: #daa520"/>
     <use xlink:href="#m5c7dd4eada" x="269.534192" y="228.318466" style="fill: #daa520; stroke: #daa520"/>
     <use xlink:href="#m5c7dd4eada" x="70.618291" y="266.27047" style="fill: #daa520; stroke: #daa520"/>
     <use xlink:href="#m5c7dd4eada" x="298.131782" y="226.405456" style="fill: #daa520; stroke: #daa520"/>
     <use xlink:href="#m5c7dd4eada" x="368.06799" y="260.563406" style="fill: #daa520; stroke: #daa520"/>
     <use xlink:href="#m5c7dd4eada" x="120.540873" y="215.980236" style="fill: #daa520; stroke: #daa520"/>
     <use xlink:href="#m5c7dd4eada" x="71.380646" y="241.289445" style="fill: #daa520; stroke: #daa520"/>
     <use xlink:href="#m5c7dd4eada" x="151.671325" y="202.035524" style="fill: #daa520; stroke: #daa520"/>
     <use xlink:href="#m5c7dd4eada" x="221.73991" y="214.834818" style="fill: #daa520; stroke: #daa520"/>
     <use xlink:href="#m5c7dd4eada" x="85.04598" y="199.925599" style="fill: #daa520; stroke: #daa520"/>
     <use xlink:href="#m5c7dd4eada" x="280.783347" y="226.78399" style="fill: #daa520; stroke: #daa520"/>
     <use xlink:href="#m5c7dd4eada" x="154.094138" y="201.904127" style="fill: #daa520; stroke: #daa520"/>
     <use xlink:href="#m5c7dd4eada" x="105.602577" y="241.921062" style="fill: #daa520; stroke: #daa520"/>
     <use xlink:href="#m5c7dd4eada" x="79.492793" y="249.000641" style="fill: #daa520; stroke: #daa520"/>
     <use xlink:href="#m5c7dd4eada" x="111.617321" y="251.526068" style="fill: #daa520; stroke: #daa520"/>
     <use xlink:href="#m5c7dd4eada" x="154.777256" y="201.914528" style="fill: #daa520; stroke: #daa520"/>
     <use xlink:href="#m5c7dd4eada" x="123.57705" y="231.164784" style="fill: #daa520; stroke: #daa520"/>
     <use xlink:href="#m5c7dd4eada" x="73.841887" y="272.362182" style="fill: #daa520; stroke: #daa520"/>
     <use xlink:href="#m5c7dd4eada" x="248.659934" y="216.875762" style="fill: #daa520; stroke: #daa520"/>
     <use xlink:href="#m5c7dd4eada" x="318.930859" y="233.784665" style="fill: #daa520; stroke: #daa520"/>
     <use xlink:href="#m5c7dd4eada" x="364.032133" y="246.306267" style="fill: #daa520; stroke: #daa520"/>
     <use xlink:href="#m5c7dd4eada" x="173.187682" y="206.748656" style="fill: #daa520; stroke: #daa520"/>
     <use xlink:href="#m5c7dd4eada" x="134.918098" y="200.56947" style="fill: #daa520; stroke: #daa520"/>
     <use xlink:href="#m5c7dd4eada" x="186.339322" y="209.218786" style="fill: #daa520; stroke: #daa520"/>
     <use xlink:href="#m5c7dd4eada" x="102.419778" y="193.469261" style="fill: #daa520; stroke: #daa520"/>
     <use xlink:href="#m5c7dd4eada" x="110.083144" y="247.570838" style="fill: #daa520; stroke: #daa520"/>
     <use xlink:href="#m5c7dd4eada" x="75.299951" y="247.611601" style="fill: #daa520; stroke: #daa520"/>
     <use xlink:href="#m5c7dd4eada" x="152.343964" y="213.474784" style="fill: #daa520; stroke: #daa520"/>
     <use xlink:href="#m5c7dd4eada" x="269.628327" y="194.118347" style="fill: #daa520; stroke: #daa520"/>
     <use xlink:href="#m5c7dd4eada" x="343.461622" y="245.366061" style="fill: #daa520; stroke: #daa520"/>
     <use xlink:href="#m5c7dd4eada" x="356.914422" y="193.74575" style="fill: #daa520; stroke: #daa520"/>
     <use xlink:href="#m5c7dd4eada" x="70.888365" y="186.005818" style="fill: #daa520; stroke: #daa520"/>
     <use xlink:href="#m5c7dd4eada" x="290.50424" y="199.168158" style="fill: #daa520; stroke: #daa520"/>
     <use xlink:href="#m5c7dd4eada" x="132.220072" y="232.660859" style="fill: #daa520; stroke: #daa520"/>
     <use xlink:href="#m5c7dd4eada" x="173.194258" y="230.880582" style="fill: #daa520; stroke: #daa520"/>
     <use xlink:href="#m5c7dd4eada" x="78.796091" y="192.715602" style="fill: #daa520; stroke: #daa520"/>
     <use xlink:href="#m5c7dd4eada" x="122.168017" y="237.371491" style="fill: #daa520; stroke: #daa520"/>
     <use xlink:href="#m5c7dd4eada" x="276.918677" y="222.358251" style="fill: #daa520; stroke: #daa520"/>
     <use xlink:href="#m5c7dd4eada" x="102.146649" y="200.044105" style="fill: #daa520; stroke: #daa520"/>
     <use xlink:href="#m5c7dd4eada" x="210.287927" y="205.158331" style="fill: #daa520; stroke: #daa520"/>
     <use xlink:href="#m5c7dd4eada" x="76.486935" y="254.417783" style="fill: #daa520; stroke: #daa520"/>
     <use xlink:href="#m5c7dd4eada" x="122.050898" y="246.918881" style="fill: #daa520; stroke: #daa520"/>
     <use xlink:href="#m5c7dd4eada" x="134.013124" y="248.191827" style="fill: #daa520; stroke: #daa520"/>
     <use xlink:href="#m5c7dd4eada" x="262.925761" y="205.106875" style="fill: #daa520; stroke: #daa520"/>
     <use xlink:href="#m5c7dd4eada" x="68.950665" y="191.04355" style="fill: #daa520; stroke: #daa520"/>
     <use xlink:href="#m5c7dd4eada" x="202.44409" y="203.226727" style="fill: #daa520; stroke: #daa520"/>
     <use xlink:href="#m5c7dd4eada" x="97.432668" y="203.666217" style="fill: #daa520; stroke: #daa520"/>
     <use xlink:href="#m5c7dd4eada" x="185.285941" y="198.009167" style="fill: #daa520; stroke: #daa520"/>
     <use xlink:href="#m5c7dd4eada" x="121.976222" y="232.00296" style="fill: #daa520; stroke: #daa520"/>
     <use xlink:href="#m5c7dd4eada" x="106.707332" y="254.544253" style="fill: #daa520; stroke: #daa520"/>
     <use xlink:href="#m5c7dd4eada" x="131.303206" y="194.765558" style="fill: #daa520; stroke: #daa520"/>
     <use xlink:href="#m5c7dd4eada" x="241.367789" y="212.693381" style="fill: #daa520; stroke: #daa520"/>
     <use xlink:href="#m5c7dd4eada" x="170.699754" y="200.585646" style="fill: #daa520; stroke: #daa520"/>
     <use xlink:href="#m5c7dd4eada" x="69.656428" y="205.663949" style="fill: #daa520; stroke: #daa520"/>
     <use xlink:href="#m5c7dd4eada" x="179.808713" y="204.726028" style="fill: #daa520; stroke: #daa520"/>
     <use xlink:href="#m5c7dd4eada" x="102.259894" y="265.253092" style="fill: #daa520; stroke: #daa520"/>
     <use xlink:href="#m5c7dd4eada" x="265.435314" y="227.36534" style="fill: #daa520; stroke: #daa520"/>
     <use xlink:href="#m5c7dd4eada" x="320.611759" y="234.805822" style="fill: #daa520; stroke: #daa520"/>
     <use xlink:href="#m5c7dd4eada" x="250.766375" y="222.090877" style="fill: #daa520; stroke: #daa520"/>
     <use xlink:href="#m5c7dd4eada" x="80.993973" y="210.331444" style="fill: #daa520; stroke: #daa520"/>
     <use xlink:href="#m5c7dd4eada" x="119.117902" y="247.153731" style="fill: #daa520; stroke: #daa520"/>
     <use xlink:href="#m5c7dd4eada" x="69.720236" y="267.388931" style="fill: #daa520; stroke: #daa520"/>
     <use xlink:href="#m5c7dd4eada" x="260.755324" y="204.563524" style="fill: #daa520; stroke: #daa520"/>
     <use xlink:href="#m5c7dd4eada" x="254.320169" y="226.676781" style="fill: #daa520; stroke: #daa520"/>
     <use xlink:href="#m5c7dd4eada" x="274.192642" y="216.042791" style="fill: #daa520; stroke: #daa520"/>
     <use xlink:href="#m5c7dd4eada" x="232.9723" y="210.501938" style="fill: #daa520; stroke: #daa520"/>
     <use xlink:href="#m5c7dd4eada" x="73.97047" y="252.601586" style="fill: #daa520; stroke: #daa520"/>
     <use xlink:href="#m5c7dd4eada" x="388.011548" y="257.218393" style="fill: #daa520; stroke: #daa520"/>
     <use xlink:href="#m5c7dd4eada" x="231.487169" y="207.724772" style="fill: #daa520; stroke: #daa520"/>
     <use xlink:href="#m5c7dd4eada" x="79.0462" y="202.01886" style="fill: #daa520; stroke: #daa520"/>
     <use xlink:href="#m5c7dd4eada" x="240.102927" y="212.885713" style="fill: #daa520; stroke: #daa520"/>
     <use xlink:href="#m5c7dd4eada" x="218.360747" y="206.037597" style="fill: #daa520; stroke: #daa520"/>
     <use xlink:href="#m5c7dd4eada" x="130.272619" y="230.385573" style="fill: #daa520; stroke: #daa520"/>
     <use xlink:href="#m5c7dd4eada" x="115.273646" y="259.312854" style="fill: #daa520; stroke: #daa520"/>
     <use xlink:href="#m5c7dd4eada" x="281.985033" y="201.14785" style="fill: #daa520; stroke: #daa520"/>
     <use xlink:href="#m5c7dd4eada" x="154.676104" y="219.139254" style="fill: #daa520; stroke: #daa520"/>
     <use xlink:href="#m5c7dd4eada" x="105.633905" y="243.839763" style="fill: #daa520; stroke: #daa520"/>
     <use xlink:href="#m5c7dd4eada" x="87.192602" y="267.756516" style="fill: #daa520; stroke: #daa520"/>
     <use xlink:href="#m5c7dd4eada" x="236.604959" y="213.461553" style="fill: #daa520; stroke: #daa520"/>
     <use xlink:href="#m5c7dd4eada" x="271.415993" y="190.125822" style="fill: #daa520; stroke: #daa520"/>
     <use xlink:href="#m5c7dd4eada" x="207.723743" y="205.888247" style="fill: #daa520; stroke: #daa520"/>
     <use xlink:href="#m5c7dd4eada" x="264.009763" y="192.818752" style="fill: #daa520; stroke: #daa520"/>
     <use xlink:href="#m5c7dd4eada" x="174.06763" y="214.145789" style="fill: #daa520; stroke: #daa520"/>
     <use xlink:href="#m5c7dd4eada" x="84.490089" y="215.803813" style="fill: #daa520; stroke: #daa520"/>
     <use xlink:href="#m5c7dd4eada" x="261.398517" y="235.925485" style="fill: #daa520; stroke: #daa520"/>
    </g>
   </g>
   <g id="matplotlib.axis_5">
    <g id="xtick_1">
     <g id="line2d_10">
      <defs>
       <path id="me31095c7b2" d="M 0 0 
L 0 3.5 
" style="stroke: #696969; stroke-width: 0.8"/>
      </defs>
      <g>
       <use xlink:href="#me31095c7b2" x="65.606136" y="276.68" style="fill: #696969; stroke: #696969; stroke-width: 0.8"/>
      </g>
     </g>
     <g id="text_4">
      <!-- −1.0 -->
      <g style="fill: #696969" transform="translate(46.179886 295.8375) scale(0.16 -0.16)">
       <defs>
        <path id="DejaVuSans-31" d="M 794 531 
L 1825 531 
L 1825 4091 
L 703 3866 
L 703 4441 
L 1819 4666 
L 2450 4666 
L 2450 531 
L 3481 531 
L 3481 0 
L 794 0 
L 794 531 
z
" transform="scale(0.015625)"/>
        <path id="DejaVuSans-2e" d="M 684 794 
L 1344 794 
L 1344 0 
L 684 0 
L 684 794 
z
" transform="scale(0.015625)"/>
       </defs>
       <use xlink:href="#DejaVuSans-2212"/>
       <use xlink:href="#DejaVuSans-31" x="83.789062"/>
       <use xlink:href="#DejaVuSans-2e" x="147.412109"/>
       <use xlink:href="#DejaVuSans-30" x="179.199219"/>
      </g>
     </g>
    </g>
    <g id="xtick_2">
     <g id="line2d_11">
      <g>
       <use xlink:href="#me31095c7b2" x="153.799318" y="276.68" style="fill: #696969; stroke: #696969; stroke-width: 0.8"/>
      </g>
     </g>
     <g id="text_5">
      <!-- −0.5 -->
      <g style="fill: #696969" transform="translate(134.373068 295.8375) scale(0.16 -0.16)">
       <use xlink:href="#DejaVuSans-2212"/>
       <use xlink:href="#DejaVuSans-30" x="83.789062"/>
       <use xlink:href="#DejaVuSans-2e" x="147.412109"/>
       <use xlink:href="#DejaVuSans-35" x="179.199219"/>
      </g>
     </g>
    </g>
    <g id="xtick_3">
     <g id="line2d_12">
      <g>
       <use xlink:href="#me31095c7b2" x="241.9925" y="276.68" style="fill: #696969; stroke: #696969; stroke-width: 0.8"/>
      </g>
     </g>
     <g id="text_6">
      <!-- 0.0 -->
      <g style="fill: #696969" transform="translate(229.27 295.8375) scale(0.16 -0.16)">
       <use xlink:href="#DejaVuSans-30"/>
       <use xlink:href="#DejaVuSans-2e" x="63.623047"/>
       <use xlink:href="#DejaVuSans-30" x="95.410156"/>
      </g>
     </g>
    </g>
    <g id="xtick_4">
     <g id="line2d_13">
      <g>
       <use xlink:href="#me31095c7b2" x="330.185682" y="276.68" style="fill: #696969; stroke: #696969; stroke-width: 0.8"/>
      </g>
     </g>
     <g id="text_7">
      <!-- 0.5 -->
      <g style="fill: #696969" transform="translate(317.463182 295.8375) scale(0.16 -0.16)">
       <use xlink:href="#DejaVuSans-30"/>
       <use xlink:href="#DejaVuSans-2e" x="63.623047"/>
       <use xlink:href="#DejaVuSans-35" x="95.410156"/>
      </g>
     </g>
    </g>
    <g id="xtick_5">
     <g id="line2d_14">
      <g>
       <use xlink:href="#me31095c7b2" x="418.378864" y="276.68" style="fill: #696969; stroke: #696969; stroke-width: 0.8"/>
      </g>
     </g>
     <g id="text_8">
      <!-- 1.0 -->
      <g style="fill: #696969" transform="translate(405.656364 295.8375) scale(0.16 -0.16)">
       <use xlink:href="#DejaVuSans-31"/>
       <use xlink:href="#DejaVuSans-2e" x="63.623047"/>
       <use xlink:href="#DejaVuSans-30" x="95.410156"/>
      </g>
     </g>
    </g>
    <g id="text_9">
     <!-- $X$ -->
     <g transform="translate(236.4725 315.3225) scale(0.16 -0.16)">
      <defs>
       <path id="DejaVuSans-Oblique-58" d="M 878 4666 
L 1516 4666 
L 2316 2981 
L 3763 4666 
L 4500 4666 
L 2578 2438 
L 3738 0 
L 3103 0 
L 2163 1966 
L 459 0 
L -275 0 
L 1906 2509 
L 878 4666 
z
" transform="scale(0.015625)"/>
      </defs>
      <use xlink:href="#DejaVuSans-Oblique-58" transform="translate(0 0.09375)"/>
     </g>
    </g>
   </g>
   <g id="matplotlib.axis_6">
    <g id="ytick_4">
     <g id="line2d_15">
      <g>
       <use xlink:href="#m5f37f0c425" x="47.9675" y="266.178526" style="fill: #696969; stroke: #696969; stroke-width: 0.8"/>
      </g>
     </g>
     <g id="text_10">
      <!-- −10 -->
      <g style="fill: #696969" transform="translate(7.2 272.257276) scale(0.16 -0.16)">
       <use xlink:href="#DejaVuSans-2212"/>
       <use xlink:href="#DejaVuSans-31" x="83.789062"/>
       <use xlink:href="#DejaVuSans-30" x="147.412109"/>
      </g>
     </g>
    </g>
    <g id="ytick_5">
     <g id="line2d_16">
      <g>
       <use xlink:href="#m5f37f0c425" x="47.9675" y="204.895942" style="fill: #696969; stroke: #696969; stroke-width: 0.8"/>
      </g>
     </g>
     <g id="text_11">
      <!-- 0 -->
      <g style="fill: #696969" transform="translate(30.7875 210.974692) scale(0.16 -0.16)">
       <use xlink:href="#DejaVuSans-30"/>
      </g>
     </g>
    </g>
   </g>
   <g id="line2d_17">
    <path d="M 65.606136 222.780931 
L 72.661591 224.601634 
L 79.717045 226.369241 
L 86.7725 227.058122 
L 93.827955 226.91423 
L 100.883409 226.601213 
L 107.938864 226.020319 
L 114.994318 224.665296 
L 122.049773 222.616221 
L 129.105227 220.813391 
L 136.160682 219.442302 
L 143.216136 218.244944 
L 150.271591 216.959184 
L 157.327045 215.35465 
L 164.3825 213.315345 
L 171.437955 210.939852 
L 178.493409 208.553228 
L 185.548864 206.600174 
L 192.604318 205.469363 
L 199.659773 205.33754 
L 206.715227 206.106803 
L 213.770682 207.458065 
L 220.826136 208.989008 
L 227.881591 210.37097 
L 234.937045 211.456648 
L 241.9925 212.296619 
L 249.047955 213.066052 
L 256.103409 213.944703 
L 263.158864 215.013007 
L 270.214318 216.213492 
L 277.269773 217.386909 
L 284.325227 218.350896 
L 291.380682 218.97112 
L 298.436136 219.19112 
L 305.491591 219.024275 
L 312.547045 218.544274 
L 319.6025 217.918144 
L 326.657955 217.495987 
L 333.713409 217.858842 
L 340.768864 219.510563 
L 347.824318 222.211101 
L 354.879773 225.073471 
L 361.935227 227.487397 
L 368.990682 229.266366 
L 376.046136 230.17736 
L 383.101591 229.863053 
L 390.157045 228.259883 
L 397.2125 225.899262 
L 404.267955 223.572427 
L 411.323409 221.875592 
L 418.378864 221.105355 
" clip-path="url(#pa0737a3963)" style="fill: none; stroke: #696969; stroke-width: 2; stroke-linecap: square"/>
   </g>
   <g id="line2d_18">
    <path d="M 65.606136 240.410261 
L 72.661591 238.019525 
L 79.717045 235.755465 
L 86.7725 233.613214 
L 93.827955 231.588254 
L 100.883409 229.676418 
L 107.938864 227.873884 
L 114.994318 226.177184 
L 122.049773 224.583194 
L 129.105227 223.089144 
L 136.160682 221.692609 
L 143.216136 220.391517 
L 150.271591 219.184141 
L 157.327045 218.069106 
L 164.3825 217.045386 
L 171.437955 216.112302 
L 178.493409 215.269526 
L 185.548864 214.517079 
L 192.604318 213.855331 
L 199.659773 213.284999 
L 206.715227 212.807153 
L 213.770682 212.423209 
L 220.826136 212.134932 
L 227.881591 211.94444 
L 234.937045 211.854195 
L 241.9925 211.867011 
L 249.047955 211.98605 
L 256.103409 212.214825 
L 263.158864 212.557196 
L 270.214318 213.017373 
L 277.269773 213.599914 
L 284.325227 214.309728 
L 291.380682 215.152073 
L 298.436136 216.132553 
L 305.491591 217.257125 
L 312.547045 218.532093 
L 319.6025 219.964111 
L 326.657955 221.560181 
L 333.713409 223.327656 
L 340.768864 225.274235 
L 347.824318 227.407969 
L 354.879773 229.737258 
L 361.935227 232.270849 
L 368.990682 235.017839 
L 376.046136 237.987676 
L 383.101591 241.190154 
L 390.157045 244.635419 
L 397.2125 248.333963 
L 404.267955 252.29663 
L 411.323409 256.534612 
L 418.378864 261.05945 
" clip-path="url(#pa0737a3963)" style="fill: none; stroke-dasharray: 7.4,3.2; stroke-dashoffset: 0; stroke: #79ad41; stroke-width: 2"/>
   </g>
   <g id="patch_9">
    <path d="M 47.9675 276.68 
L 47.9675 181.688 
" style="fill: none; stroke: #000000; stroke-width: 0.8; stroke-linejoin: miter; stroke-linecap: square"/>
   </g>
   <g id="patch_10">
    <path d="M 436.0175 276.68 
L 436.0175 181.688 
" style="fill: none; stroke: #000000; stroke-width: 0.8; stroke-linejoin: miter; stroke-linecap: square"/>
   </g>
   <g id="patch_11">
    <path d="M 47.9675 276.68 
L 436.0175 276.68 
" style="fill: none; stroke: #000000; stroke-width: 0.8; stroke-linejoin: miter; stroke-linecap: square"/>
   </g>
   <g id="patch_12">
    <path d="M 47.9675 181.688 
L 436.0175 181.688 
" style="fill: none; stroke: #000000; stroke-width: 0.8; stroke-linejoin: miter; stroke-linecap: square"/>
   </g>
  </g>
 </g>
 <defs>
  <clipPath id="pa3020ffa37">
   <rect x="47.9675" y="7.2" width="388.05" height="47.496"/>
  </clipPath>
  <clipPath id="p005aa98f14">
   <rect x="47.9675" y="70.696" width="388.05" height="94.992"/>
  </clipPath>
  <clipPath id="pa0737a3963">
   <rect x="47.9675" y="181.688" width="388.05" height="94.992"/>
  </clipPath>
 </defs>
</svg>
