<?xml version="1.0" encoding="utf-8" standalone="no"?>
<!DOCTYPE svg PUBLIC "-//W3C//DTD SVG 1.1//EN"
  "http://www.w3.org/Graphics/SVG/1.1/DTD/svg11.dtd">
<svg xmlns:xlink="http://www.w3.org/1999/xlink" width="443.2175pt" height="325.85pt" viewBox="0 0 443.2175 325.85" xmlns="http://www.w3.org/2000/svg" version="1.1">
 <metadata>
  <rdf:RDF xmlns:dc="http://purl.org/dc/elements/1.1/" xmlns:cc="http://creativecommons.org/ns#" xmlns:rdf="http://www.w3.org/1999/02/22-rdf-syntax-ns#">
   <cc:Work>
    <dc:type rdf:resource="http://purl.org/dc/dcmitype/StillImage"/>
    <dc:date>2024-01-28T20:58:24.954822</dc:date>
    <dc:format>image/svg+xml</dc:format>
    <dc:creator>
     <cc:Agent>
      <dc:title>Matplotlib v3.7.2, https://matplotlib.org/</dc:title>
     </cc:Agent>
    </dc:creator>
   </cc:Work>
  </rdf:RDF>
 </metadata>
 <defs>
  <style type="text/css">*{stroke-linejoin: round; stroke-linecap: butt}</style>
 </defs>
 <g id="figure_1">
  <g id="patch_1">
   <path d="M 0 325.85 
L 443.2175 325.85 
L 443.2175 0 
L 0 0 
z
" style="fill: #ffffff"/>
  </g>
  <g id="axes_1">
   <g id="patch_2">
    <path d="M 47.9675 50.823155 
L 436.0175 50.823155 
L 436.0175 7.2 
L 47.9675 7.2 
z
" style="fill: #ffffff"/>
   </g>
   <g id="PolyCollection_1">
    <defs>
     <path id="m9661d65ed2" d="M 65.606136 -277.009715 
L 65.606136 -310.226336 
L 72.661591 -310.113797 
L 79.717045 -310.017964 
L 86.7725 -309.931101 
L 93.827955 -309.845582 
L 100.883409 -309.754017 
L 107.938864 -309.649282 
L 114.994318 -309.524557 
L 122.049773 -309.37334 
L 129.105227 -309.189379 
L 136.160682 -308.96668 
L 143.216136 -308.699443 
L 150.271591 -308.38204 
L 157.327045 -308.00899 
L 164.3825 -307.574969 
L 171.437955 -307.074853 
L 178.493409 -306.503788 
L 185.548864 -305.857304 
L 192.604318 -305.131521 
L 199.659773 -304.323371 
L 206.715227 -303.430871 
L 213.770682 -302.453475 
L 220.826136 -301.39243 
L 227.881591 -300.251098 
L 234.937045 -299.035288 
L 241.9925 -297.753458 
L 249.047955 -296.41678 
L 256.103409 -295.039003 
L 263.158864 -293.636142 
L 270.214318 -292.225858 
L 277.269773 -290.826701 
L 284.325227 -289.457216 
L 291.380682 -288.134966 
L 298.436136 -286.87564 
L 305.491591 -285.692326 
L 312.547045 -284.594988 
L 319.6025 -283.590233 
L 326.657955 -282.681341 
L 333.713409 -281.868526 
L 340.768864 -281.416095 
L 347.824318 -281.416095 
L 354.879773 -281.416095 
L 361.935227 -281.416095 
L 368.990682 -281.416095 
L 376.046136 -281.416095 
L 383.101591 -281.416095 
L 390.157045 -281.416095 
L 397.2125 -281.416095 
L 404.267955 -281.416095 
L 411.323409 -281.416095 
L 418.378864 -281.416095 
L 418.378864 -277.009715 
L 418.378864 -277.009715 
L 411.323409 -277.009715 
L 404.267955 -277.009715 
L 397.2125 -277.009715 
L 390.157045 -277.009715 
L 383.101591 -277.009715 
L 376.046136 -277.009715 
L 368.990682 -277.009715 
L 361.935227 -277.009715 
L 354.879773 -277.009715 
L 347.824318 -277.009715 
L 340.768864 -277.009715 
L 333.713409 -277.009715 
L 326.657955 -277.009715 
L 319.6025 -277.009715 
L 312.547045 -277.009715 
L 305.491591 -277.009715 
L 298.436136 -277.009715 
L 291.380682 -277.009715 
L 284.325227 -277.009715 
L 277.269773 -277.009715 
L 270.214318 -277.009715 
L 263.158864 -277.009715 
L 256.103409 -277.009715 
L 249.047955 -277.009715 
L 241.9925 -277.009715 
L 234.937045 -277.009715 
L 227.881591 -277.009715 
L 220.826136 -277.009715 
L 213.770682 -277.009715 
L 206.715227 -277.009715 
L 199.659773 -277.009715 
L 192.604318 -277.009715 
L 185.548864 -277.009715 
L 178.493409 -277.009715 
L 171.437955 -277.009715 
L 164.3825 -277.009715 
L 157.327045 -277.009715 
L 150.271591 -277.009715 
L 143.216136 -277.009715 
L 136.160682 -277.009715 
L 129.105227 -277.009715 
L 122.049773 -277.009715 
L 114.994318 -277.009715 
L 107.938864 -277.009715 
L 100.883409 -277.009715 
L 93.827955 -277.009715 
L 86.7725 -277.009715 
L 79.717045 -277.009715 
L 72.661591 -277.009715 
L 65.606136 -277.009715 
z
" style="stroke: #dc143c; stroke-opacity: 0.2"/>
    </defs>
    <g clip-path="url(#p927ff755f9)">
     <use xlink:href="#m9661d65ed2" x="0" y="325.85" style="fill: #dc143c; fill-opacity: 0.2; stroke: #dc143c; stroke-opacity: 0.2"/>
    </g>
   </g>
   <g id="PolyCollection_2">
    <defs>
     <path id="m932f779648" d="M 65.606136 -277.009715 
L 65.606136 -287.856888 
L 72.661591 -287.969427 
L 79.717045 -288.06526 
L 86.7725 -288.152123 
L 93.827955 -288.237642 
L 100.883409 -288.329207 
L 107.938864 -288.433943 
L 114.994318 -288.558667 
L 122.049773 -288.709884 
L 129.105227 -288.893845 
L 136.160682 -289.116544 
L 143.216136 -289.383781 
L 150.271591 -289.701184 
L 157.327045 -290.074234 
L 164.3825 -290.508255 
L 171.437955 -291.008371 
L 178.493409 -291.579436 
L 185.548864 -292.22592 
L 192.604318 -292.951703 
L 199.659773 -293.759853 
L 206.715227 -294.652353 
L 213.770682 -295.629749 
L 220.826136 -296.690794 
L 227.881591 -297.832126 
L 234.937045 -299.047936 
L 241.9925 -300.329766 
L 249.047955 -301.666444 
L 256.103409 -303.044221 
L 263.158864 -304.447082 
L 270.214318 -305.857366 
L 277.269773 -307.256523 
L 284.325227 -308.626008 
L 291.380682 -309.948258 
L 298.436136 -311.207584 
L 305.491591 -312.390898 
L 312.547045 -313.488237 
L 319.6025 -314.492991 
L 326.657955 -315.401883 
L 333.713409 -316.214698 
L 340.768864 -316.667129 
L 347.824318 -316.667129 
L 354.879773 -316.667129 
L 361.935227 -316.667129 
L 368.990682 -316.667129 
L 376.046136 -316.667129 
L 383.101591 -316.667129 
L 390.157045 -316.667129 
L 397.2125 -316.667129 
L 404.267955 -316.667129 
L 411.323409 -316.667129 
L 418.378864 -316.667129 
L 418.378864 -277.009715 
L 418.378864 -277.009715 
L 411.323409 -277.009715 
L 404.267955 -277.009715 
L 397.2125 -277.009715 
L 390.157045 -277.009715 
L 383.101591 -277.009715 
L 376.046136 -277.009715 
L 368.990682 -277.009715 
L 361.935227 -277.009715 
L 354.879773 -277.009715 
L 347.824318 -277.009715 
L 340.768864 -277.009715 
L 333.713409 -277.009715 
L 326.657955 -277.009715 
L 319.6025 -277.009715 
L 312.547045 -277.009715 
L 305.491591 -277.009715 
L 298.436136 -277.009715 
L 291.380682 -277.009715 
L 284.325227 -277.009715 
L 277.269773 -277.009715 
L 270.214318 -277.009715 
L 263.158864 -277.009715 
L 256.103409 -277.009715 
L 249.047955 -277.009715 
L 241.9925 -277.009715 
L 234.937045 -277.009715 
L 227.881591 -277.009715 
L 220.826136 -277.009715 
L 213.770682 -277.009715 
L 206.715227 -277.009715 
L 199.659773 -277.009715 
L 192.604318 -277.009715 
L 185.548864 -277.009715 
L 178.493409 -277.009715 
L 171.437955 -277.009715 
L 164.3825 -277.009715 
L 157.327045 -277.009715 
L 150.271591 -277.009715 
L 143.216136 -277.009715 
L 136.160682 -277.009715 
L 129.105227 -277.009715 
L 122.049773 -277.009715 
L 114.994318 -277.009715 
L 107.938864 -277.009715 
L 100.883409 -277.009715 
L 93.827955 -277.009715 
L 86.7725 -277.009715 
L 79.717045 -277.009715 
L 72.661591 -277.009715 
L 65.606136 -277.009715 
z
" style="stroke: #000080; stroke-opacity: 0.2"/>
    </defs>
    <g clip-path="url(#p927ff755f9)">
     <use xlink:href="#m932f779648" x="0" y="325.85" style="fill: #000080; fill-opacity: 0.2; stroke: #000080; stroke-opacity: 0.2"/>
    </g>
   </g>
   <g id="matplotlib.axis_1"/>
   <g id="matplotlib.axis_2"/>
   <g id="line2d_1">
    <path d="M 65.606136 15.623664 
L 72.661591 15.736203 
L 79.717045 15.832036 
L 86.7725 15.918899 
L 93.827955 16.004418 
L 100.883409 16.095983 
L 107.938864 16.200718 
L 114.994318 16.325443 
L 122.049773 16.47666 
L 129.105227 16.660621 
L 136.160682 16.88332 
L 143.216136 17.150557 
L 150.271591 17.46796 
L 157.327045 17.84101 
L 164.3825 18.275031 
L 171.437955 18.775147 
L 178.493409 19.346212 
L 185.548864 19.992696 
L 192.604318 20.718479 
L 199.659773 21.526629 
L 206.715227 22.419129 
L 213.770682 23.396525 
L 220.826136 24.45757 
L 227.881591 25.598902 
L 234.937045 26.814712 
L 241.9925 28.096542 
L 249.047955 29.43322 
L 256.103409 30.810997 
L 263.158864 32.213858 
L 270.214318 33.624142 
L 277.269773 35.023299 
L 284.325227 36.392784 
L 291.380682 37.715034 
L 298.436136 38.97436 
L 305.491591 40.157674 
L 312.547045 41.255012 
L 319.6025 42.259767 
L 326.657955 43.168659 
L 333.713409 43.981474 
L 340.768864 44.433905 
L 347.824318 44.433905 
L 354.879773 44.433905 
L 361.935227 44.433905 
L 368.990682 44.433905 
L 376.046136 44.433905 
L 383.101591 44.433905 
L 390.157045 44.433905 
L 397.2125 44.433905 
L 404.267955 44.433905 
L 411.323409 44.433905 
L 418.378864 44.433905 
" clip-path="url(#p927ff755f9)" style="fill: none; stroke: #dc143c; stroke-width: 1.5; stroke-linecap: square"/>
   </g>
   <g id="line2d_2">
    <path d="M 65.606136 37.993112 
L 72.661591 37.880573 
L 79.717045 37.78474 
L 86.7725 37.697877 
L 93.827955 37.612358 
L 100.883409 37.520793 
L 107.938864 37.416057 
L 114.994318 37.291333 
L 122.049773 37.140116 
L 129.105227 36.956155 
L 136.160682 36.733456 
L 143.216136 36.466219 
L 150.271591 36.148816 
L 157.327045 35.775766 
L 164.3825 35.341745 
L 171.437955 34.841629 
L 178.493409 34.270564 
L 185.548864 33.62408 
L 192.604318 32.898297 
L 199.659773 32.090147 
L 206.715227 31.197647 
L 213.770682 30.220251 
L 220.826136 29.159206 
L 227.881591 28.017874 
L 234.937045 26.802064 
L 241.9925 25.520234 
L 249.047955 24.183556 
L 256.103409 22.805779 
L 263.158864 21.402918 
L 270.214318 19.992634 
L 277.269773 18.593477 
L 284.325227 17.223992 
L 291.380682 15.901742 
L 298.436136 14.642416 
L 305.491591 13.459102 
L 312.547045 12.361763 
L 319.6025 11.357009 
L 326.657955 10.448117 
L 333.713409 9.635302 
L 340.768864 9.182871 
L 347.824318 9.182871 
L 354.879773 9.182871 
L 361.935227 9.182871 
L 368.990682 9.182871 
L 376.046136 9.182871 
L 383.101591 9.182871 
L 390.157045 9.182871 
L 397.2125 9.182871 
L 404.267955 9.182871 
L 411.323409 9.182871 
L 418.378864 9.182871 
" clip-path="url(#p927ff755f9)" style="fill: none; stroke: #000080; stroke-width: 1.5; stroke-linecap: square"/>
   </g>
  </g>
  <g id="axes_2">
   <g id="patch_3">
    <path d="M 47.9675 163.751578 
L 436.0175 163.751578 
L 436.0175 76.505267 
L 47.9675 76.505267 
z
" style="fill: #ffffff"/>
   </g>
   <g id="PathCollection_1">
    <defs>
     <path id="mc41286c640" d="M 0 0.866025 
C 0.229673 0.866025 0.449969 0.774776 0.612372 0.612372 
C 0.774776 0.449969 0.866025 0.229673 0.866025 0 
C 0.866025 -0.229673 0.774776 -0.449969 0.612372 -0.612372 
C 0.449969 -0.774776 0.229673 -0.866025 0 -0.866025 
C -0.229673 -0.866025 -0.449969 -0.774776 -0.612372 -0.612372 
C -0.774776 -0.449969 -0.866025 -0.229673 -0.866025 0 
C -0.866025 0.229673 -0.774776 0.449969 -0.612372 0.612372 
C -0.449969 0.774776 -0.229673 0.866025 0 0.866025 
z
" style="stroke: #daa520"/>
    </defs>
    <g clip-path="url(#p579768449f)">
     <use xlink:href="#mc41286c640" x="346.401805" y="149.170877" style="fill: #daa520; stroke: #daa520"/>
     <use xlink:href="#mc41286c640" x="330.79763" y="142.91866" style="fill: #daa520; stroke: #daa520"/>
     <use xlink:href="#mc41286c640" x="192.241395" y="134.524834" style="fill: #daa520; stroke: #daa520"/>
     <use xlink:href="#mc41286c640" x="79.955608" y="120.08801" style="fill: #daa520; stroke: #daa520"/>
     <use xlink:href="#mc41286c640" x="270.961814" y="141.569628" style="fill: #daa520; stroke: #daa520"/>
     <use xlink:href="#mc41286c640" x="231.470497" y="134.042024" style="fill: #daa520; stroke: #daa520"/>
     <use xlink:href="#mc41286c640" x="225.214028" y="134.611198" style="fill: #daa520; stroke: #daa520"/>
     <use xlink:href="#mc41286c640" x="273.409422" y="120.282983" style="fill: #daa520; stroke: #daa520"/>
     <use xlink:href="#mc41286c640" x="163.740519" y="134.788847" style="fill: #daa520; stroke: #daa520"/>
     <use xlink:href="#mc41286c640" x="214.552048" y="133.509501" style="fill: #daa520; stroke: #daa520"/>
     <use xlink:href="#mc41286c640" x="208.636589" y="135.491883" style="fill: #daa520; stroke: #daa520"/>
     <use xlink:href="#mc41286c640" x="121.297334" y="115.80758" style="fill: #daa520; stroke: #daa520"/>
     <use xlink:href="#mc41286c640" x="361.355299" y="117.511938" style="fill: #daa520; stroke: #daa520"/>
     <use xlink:href="#mc41286c640" x="88.394412" y="114.811572" style="fill: #daa520; stroke: #daa520"/>
     <use xlink:href="#mc41286c640" x="83.350797" y="128.695109" style="fill: #daa520; stroke: #daa520"/>
     <use xlink:href="#mc41286c640" x="269.534192" y="124.159993" style="fill: #daa520; stroke: #daa520"/>
     <use xlink:href="#mc41286c640" x="70.618291" y="119.67762" style="fill: #daa520; stroke: #daa520"/>
     <use xlink:href="#mc41286c640" x="298.131782" y="125.21563" style="fill: #daa520; stroke: #daa520"/>
     <use xlink:href="#mc41286c640" x="368.06799" y="116.725232" style="fill: #daa520; stroke: #daa520"/>
     <use xlink:href="#mc41286c640" x="120.540873" y="132.288909" style="fill: #daa520; stroke: #daa520"/>
     <use xlink:href="#mc41286c640" x="71.380646" y="132.094949" style="fill: #daa520; stroke: #daa520"/>
     <use xlink:href="#mc41286c640" x="151.671325" y="137.395875" style="fill: #daa520; stroke: #daa520"/>
     <use xlink:href="#mc41286c640" x="221.73991" y="130.875219" style="fill: #daa520; stroke: #daa520"/>
     <use xlink:href="#mc41286c640" x="85.04598" y="150.019221" style="fill: #daa520; stroke: #daa520"/>
     <use xlink:href="#mc41286c640" x="280.783347" y="124.946897" style="fill: #daa520; stroke: #daa520"/>
     <use xlink:href="#mc41286c640" x="154.094138" y="137.441017" style="fill: #daa520; stroke: #daa520"/>
     <use xlink:href="#mc41286c640" x="105.602577" y="122.565623" style="fill: #daa520; stroke: #daa520"/>
     <use xlink:href="#mc41286c640" x="79.492793" y="126.987185" style="fill: #daa520; stroke: #daa520"/>
     <use xlink:href="#mc41286c640" x="111.617321" y="116.372596" style="fill: #daa520; stroke: #daa520"/>
     <use xlink:href="#mc41286c640" x="154.777256" y="137.43071" style="fill: #daa520; stroke: #daa520"/>
     <use xlink:href="#mc41286c640" x="123.57705" y="124.203604" style="fill: #daa520; stroke: #daa520"/>
     <use xlink:href="#mc41286c640" x="73.841887" y="116.277514" style="fill: #daa520; stroke: #daa520"/>
     <use xlink:href="#mc41286c640" x="248.659934" y="129.864211" style="fill: #daa520; stroke: #daa520"/>
     <use xlink:href="#mc41286c640" x="318.930859" y="122.001008" style="fill: #daa520; stroke: #daa520"/>
     <use xlink:href="#mc41286c640" x="364.032133" y="123.6249" style="fill: #daa520; stroke: #daa520"/>
     <use xlink:href="#mc41286c640" x="173.187682" y="134.940757" style="fill: #daa520; stroke: #daa520"/>
     <use xlink:href="#mc41286c640" x="134.918098" y="138.501757" style="fill: #daa520; stroke: #daa520"/>
     <use xlink:href="#mc41286c640" x="186.339322" y="133.689117" style="fill: #daa520; stroke: #daa520"/>
     <use xlink:href="#mc41286c640" x="102.419778" y="147.612592" style="fill: #daa520; stroke: #daa520"/>
     <use xlink:href="#mc41286c640" x="110.083144" y="118.693368" style="fill: #daa520; stroke: #daa520"/>
     <use xlink:href="#mc41286c640" x="75.299951" y="128.450893" style="fill: #daa520; stroke: #daa520"/>
     <use xlink:href="#mc41286c640" x="152.343964" y="131.669937" style="fill: #daa520; stroke: #daa520"/>
     <use xlink:href="#mc41286c640" x="269.628327" y="141.260731" style="fill: #daa520; stroke: #daa520"/>
     <use xlink:href="#mc41286c640" x="343.461622" y="120.099036" style="fill: #daa520; stroke: #daa520"/>
     <use xlink:href="#mc41286c640" x="356.914422" y="149.052672" style="fill: #daa520; stroke: #daa520"/>
     <use xlink:href="#mc41286c640" x="70.888365" y="159.785836" style="fill: #daa520; stroke: #daa520"/>
     <use xlink:href="#mc41286c640" x="290.50424" y="138.787661" style="fill: #daa520; stroke: #daa520"/>
     <use xlink:href="#mc41286c640" x="132.220072" y="122.599413" style="fill: #daa520; stroke: #daa520"/>
     <use xlink:href="#mc41286c640" x="173.194258" y="122.874387" style="fill: #daa520; stroke: #daa520"/>
     <use xlink:href="#mc41286c640" x="78.796091" y="155.279788" style="fill: #daa520; stroke: #daa520"/>
     <use xlink:href="#mc41286c640" x="122.168017" y="121.315799" style="fill: #daa520; stroke: #daa520"/>
     <use xlink:href="#mc41286c640" x="276.918677" y="127.151639" style="fill: #daa520; stroke: #daa520"/>
     <use xlink:href="#mc41286c640" x="102.146649" y="144.399336" style="fill: #daa520; stroke: #daa520"/>
     <use xlink:href="#mc41286c640" x="210.287927" y="135.71239" style="fill: #daa520; stroke: #daa520"/>
     <use xlink:href="#mc41286c640" x="76.486935" y="124.859922" style="fill: #daa520; stroke: #daa520"/>
     <use xlink:href="#mc41286c640" x="122.050898" y="116.560911" style="fill: #daa520; stroke: #daa520"/>
     <use xlink:href="#mc41286c640" x="134.013124" y="114.7335" style="fill: #daa520; stroke: #daa520"/>
     <use xlink:href="#mc41286c640" x="262.925761" y="135.758987" style="fill: #daa520; stroke: #daa520"/>
     <use xlink:href="#mc41286c640" x="68.950665" y="157.434802" style="fill: #daa520; stroke: #daa520"/>
     <use xlink:href="#mc41286c640" x="202.44409" y="136.678683" style="fill: #daa520; stroke: #daa520"/>
     <use xlink:href="#mc41286c640" x="97.432668" y="143.971897" style="fill: #daa520; stroke: #daa520"/>
     <use xlink:href="#mc41286c640" x="185.285941" y="139.294939" style="fill: #daa520; stroke: #daa520"/>
     <use xlink:href="#mc41286c640" x="121.976222" y="124.031288" style="fill: #daa520; stroke: #daa520"/>
     <use xlink:href="#mc41286c640" x="106.707332" y="115.986368" style="fill: #daa520; stroke: #daa520"/>
     <use xlink:href="#mc41286c640" x="131.303206" y="141.606867" style="fill: #daa520; stroke: #daa520"/>
     <use xlink:href="#mc41286c640" x="241.367789" y="131.951956" style="fill: #daa520; stroke: #daa520"/>
     <use xlink:href="#mc41286c640" x="170.699754" y="138.027571" style="fill: #daa520; stroke: #daa520"/>
     <use xlink:href="#mc41286c640" x="69.656428" y="150.066968" style="fill: #daa520; stroke: #daa520"/>
     <use xlink:href="#mc41286c640" x="179.808713" y="135.941903" style="fill: #daa520; stroke: #daa520"/>
     <use xlink:href="#mc41286c640" x="102.259894" y="111.762903" style="fill: #daa520; stroke: #daa520"/>
     <use xlink:href="#mc41286c640" x="265.435314" y="124.631862" style="fill: #daa520; stroke: #daa520"/>
     <use xlink:href="#mc41286c640" x="320.611759" y="121.583677" style="fill: #daa520; stroke: #daa520"/>
     <use xlink:href="#mc41286c640" x="250.766375" y="127.257751" style="fill: #daa520; stroke: #daa520"/>
     <use xlink:href="#mc41286c640" x="80.993973" y="145.970049" style="fill: #daa520; stroke: #daa520"/>
     <use xlink:href="#mc41286c640" x="119.117902" y="116.966406" style="fill: #daa520; stroke: #daa520"/>
     <use xlink:href="#mc41286c640" x="69.720236" y="119.198075" style="fill: #daa520; stroke: #daa520"/>
     <use xlink:href="#mc41286c640" x="260.755324" y="136.028742" style="fill: #daa520; stroke: #daa520"/>
     <use xlink:href="#mc41286c640" x="254.320169" y="124.96693" style="fill: #daa520; stroke: #daa520"/>
     <use xlink:href="#mc41286c640" x="274.192642" y="130.304706" style="fill: #daa520; stroke: #daa520"/>
     <use xlink:href="#mc41286c640" x="232.9723" y="133.044587" style="fill: #daa520; stroke: #daa520"/>
     <use xlink:href="#mc41286c640" x="73.97047" y="126.141462" style="fill: #daa520; stroke: #daa520"/>
     <use xlink:href="#mc41286c640" x="388.011548" y="117.27143" style="fill: #daa520; stroke: #daa520"/>
     <use xlink:href="#mc41286c640" x="231.487169" y="134.432753" style="fill: #daa520; stroke: #daa520"/>
     <use xlink:href="#mc41286c640" x="79.0462" y="150.575494" style="fill: #daa520; stroke: #daa520"/>
     <use xlink:href="#mc41286c640" x="240.102927" y="131.855257" style="fill: #daa520; stroke: #daa520"/>
     <use xlink:href="#mc41286c640" x="218.360747" y="135.273415" style="fill: #daa520; stroke: #daa520"/>
     <use xlink:href="#mc41286c640" x="130.272619" y="123.870119" style="fill: #daa520; stroke: #daa520"/>
     <use xlink:href="#mc41286c640" x="115.273646" y="111.677418" style="fill: #daa520; stroke: #daa520"/>
     <use xlink:href="#mc41286c640" x="281.985033" y="137.768357" style="fill: #daa520; stroke: #daa520"/>
     <use xlink:href="#mc41286c640" x="154.676104" y="128.818804" style="fill: #daa520; stroke: #daa520"/>
     <use xlink:href="#mc41286c640" x="105.633905" y="121.598548" style="fill: #daa520; stroke: #daa520"/>
     <use xlink:href="#mc41286c640" x="87.192602" y="115.39626" style="fill: #daa520; stroke: #daa520"/>
     <use xlink:href="#mc41286c640" x="236.604959" y="131.565975" style="fill: #daa520; stroke: #daa520"/>
     <use xlink:href="#mc41286c640" x="271.415993" y="143.259442" style="fill: #daa520; stroke: #daa520"/>
     <use xlink:href="#mc41286c640" x="207.723743" y="135.347433" style="fill: #daa520; stroke: #daa520"/>
     <use xlink:href="#mc41286c640" x="264.009763" y="141.904283" style="fill: #daa520; stroke: #daa520"/>
     <use xlink:href="#mc41286c640" x="174.06763" y="131.240431" style="fill: #daa520; stroke: #daa520"/>
     <use xlink:href="#mc41286c640" x="84.490089" y="142.253873" style="fill: #daa520; stroke: #daa520"/>
     <use xlink:href="#mc41286c640" x="261.398517" y="120.347801" style="fill: #daa520; stroke: #daa520"/>
    </g>
   </g>
   <g id="matplotlib.axis_3"/>
   <g id="matplotlib.axis_4">
    <g id="ytick_1">
     <g id="line2d_3">
      <defs>
       <path id="md6753c5373" d="M 0 0 
L -3.5 0 
" style="stroke: #696969; stroke-width: 0.8"/>
      </defs>
      <g>
       <use xlink:href="#md6753c5373" x="47.9675" y="163.38197" style="fill: #696969; stroke: #696969; stroke-width: 0.8"/>
      </g>
     </g>
     <g id="text_1">
      <!-- −10 -->
      <g style="fill: #696969" transform="translate(7.2 169.46072) scale(0.16 -0.16)">
       <defs>
        <path id="DejaVuSans-2212" d="M 678 2272 
L 4684 2272 
L 4684 1741 
L 678 1741 
L 678 2272 
z
" transform="scale(0.015625)"/>
        <path id="DejaVuSans-31" d="M 794 531 
L 1825 531 
L 1825 4091 
L 703 3866 
L 703 4441 
L 1819 4666 
L 2450 4666 
L 2450 531 
L 3481 531 
L 3481 0 
L 794 0 
L 794 531 
z
" transform="scale(0.015625)"/>
        <path id="DejaVuSans-30" d="M 2034 4250 
Q 1547 4250 1301 3770 
Q 1056 3291 1056 2328 
Q 1056 1369 1301 889 
Q 1547 409 2034 409 
Q 2525 409 2770 889 
Q 3016 1369 3016 2328 
Q 3016 3291 2770 3770 
Q 2525 4250 2034 4250 
z
M 2034 4750 
Q 2819 4750 3233 4129 
Q 3647 3509 3647 2328 
Q 3647 1150 3233 529 
Q 2819 -91 2034 -91 
Q 1250 -91 836 529 
Q 422 1150 422 2328 
Q 422 3509 836 4129 
Q 1250 4750 2034 4750 
z
" transform="scale(0.015625)"/>
       </defs>
       <use xlink:href="#DejaVuSans-2212"/>
       <use xlink:href="#DejaVuSans-31" x="83.789062"/>
       <use xlink:href="#DejaVuSans-30" x="147.412109"/>
      </g>
     </g>
    </g>
    <g id="ytick_2">
     <g id="line2d_4">
      <g>
       <use xlink:href="#md6753c5373" x="47.9675" y="132.739676" style="fill: #696969; stroke: #696969; stroke-width: 0.8"/>
      </g>
     </g>
     <g id="text_2">
      <!-- 0 -->
      <g style="fill: #696969" transform="translate(30.7875 138.818426) scale(0.16 -0.16)">
       <use xlink:href="#DejaVuSans-30"/>
      </g>
     </g>
    </g>
    <g id="ytick_3">
     <g id="line2d_5">
      <g>
       <use xlink:href="#md6753c5373" x="47.9675" y="102.097381" style="fill: #696969; stroke: #696969; stroke-width: 0.8"/>
      </g>
     </g>
     <g id="text_3">
      <!-- 10 -->
      <g style="fill: #696969" transform="translate(20.6075 108.176131) scale(0.16 -0.16)">
       <use xlink:href="#DejaVuSans-31"/>
       <use xlink:href="#DejaVuSans-30" x="63.623047"/>
      </g>
     </g>
    </g>
   </g>
   <g id="line2d_6">
    <path d="M 65.606136 141.789028 
L 72.661591 140.301876 
L 79.717045 138.253318 
L 86.7725 135.887941 
L 93.827955 133.523423 
L 100.883409 131.472338 
L 107.938864 129.958843 
L 114.994318 129.061998 
L 122.049773 128.712821 
L 129.105227 128.750372 
L 136.160682 129.011492 
L 143.216136 129.407737 
L 150.271591 129.947691 
L 157.327045 130.693615 
L 164.3825 131.680589 
L 171.437955 132.848659 
L 178.493409 134.029913 
L 185.548864 134.999081 
L 192.604318 135.560151 
L 199.659773 135.623744 
L 206.715227 135.238191 
L 213.770682 134.562652 
L 220.826136 133.798054 
L 227.881591 133.108593 
L 234.937045 132.56787 
L 241.9925 132.150612 
L 249.047955 131.76934 
L 256.103409 131.334396 
L 263.158864 130.805977 
L 270.214318 130.213555 
L 277.269773 129.638061 
L 284.325227 129.173036 
L 291.380682 128.889998 
L 298.436136 128.825432 
L 305.491591 128.988795 
L 312.547045 129.375849 
L 319.6025 129.970022 
L 326.657955 130.727037 
L 333.713409 131.555385 
L 340.768864 132.31439 
L 347.824318 132.845044 
L 354.879773 133.028592 
L 361.935227 132.846088 
L 368.990682 132.403334 
L 376.046136 131.898591 
L 383.101591 131.540564 
L 390.157045 131.454547 
L 397.2125 131.625073 
L 404.267955 131.905412 
L 411.323409 132.088025 
L 418.378864 131.998122 
" clip-path="url(#p579768449f)" style="fill: none; stroke: #000000; stroke-width: 2; stroke-linecap: square"/>
   </g>
   <g id="line2d_7">
    <path d="M 65.606136 143.646167 
L 72.661591 136.69912 
L 79.717045 131.933424 
L 86.7725 128.834906 
L 93.827955 126.990105 
L 100.883409 126.069383 
L 107.938864 125.812417 
L 114.994318 126.015812 
L 122.049773 126.522569 
L 129.105227 127.213215 
L 136.160682 127.998364 
L 143.216136 128.812536 
L 150.271591 129.609048 
L 157.327045 130.355849 
L 164.3825 131.032128 
L 171.437955 131.625601 
L 178.493409 132.130346 
L 185.548864 132.545102 
L 192.604318 132.871952 
L 199.659773 133.115296 
L 206.715227 133.281081 
L 213.770682 133.376214 
L 220.826136 133.408128 
L 227.881591 133.384451 
L 234.937045 133.312762 
L 241.9925 133.200402 
L 249.047955 133.054317 
L 256.103409 132.880929 
L 263.158864 132.685999 
L 270.214318 132.474488 
L 277.269773 132.250388 
L 284.325227 132.016509 
L 291.380682 131.774208 
L 298.436136 131.523025 
L 305.491591 131.260208 
L 312.547045 130.980083 
L 319.6025 130.673224 
L 326.657955 130.32537 
L 333.713409 129.916024 
L 340.768864 129.416653 
L 347.824318 128.788392 
L 354.879773 127.979153 
L 361.935227 126.920005 
L 368.990682 125.52068 
L 376.046136 123.664039 
L 383.101591 121.19932 
L 390.157045 117.933941 
L 397.2125 113.62363 
L 404.267955 107.960623 
L 411.323409 100.559615 
L 418.378864 90.941173 
" clip-path="url(#p579768449f)" style="fill: none; stroke-dasharray: 7.4,3.2; stroke-dashoffset: 0; stroke: #34b6c6; stroke-width: 2"/>
   </g>
   <g id="line2d_8">
    <path d="M 65.606136 140.068421 
L 72.661591 136.231059 
L 79.717045 133.404422 
L 86.7725 130.61573 
L 93.827955 128.072672 
L 100.883409 126.393026 
L 107.938864 125.592262 
L 114.994318 125.241576 
L 122.049773 125.177602 
L 129.105227 125.773267 
L 136.160682 126.873742 
L 143.216136 128.130081 
L 150.271591 129.348438 
L 157.327045 130.448048 
L 164.3825 131.399569 
L 171.437955 132.196363 
L 178.493409 132.84231 
L 185.548864 133.346282 
L 192.604318 133.71937 
L 199.659773 133.973389 
L 206.715227 134.120028 
L 213.770682 134.170358 
L 220.826136 134.134547 
L 227.881591 134.021703 
L 234.937045 133.839788 
L 241.9925 133.595572 
L 249.047955 133.294625 
L 256.103409 132.941315 
L 263.158864 132.538855 
L 270.214318 132.089402 
L 277.269773 131.594294 
L 284.325227 131.054577 
L 291.380682 130.472149 
L 298.436136 129.852247 
L 305.491591 129.208903 
L 312.547045 128.577009 
L 319.6025 128.037929 
L 326.657955 127.762046 
L 333.713409 128.014275 
L 340.768864 128.923905 
L 347.824318 130.039049 
L 354.879773 130.4824 
L 361.935227 129.715185 
L 368.990682 127.679943 
L 376.046136 124.405857 
L 383.101591 119.829143 
L 390.157045 113.960112 
L 397.2125 107.018064 
L 404.267955 99.197301 
L 411.323409 90.435055 
L 418.378864 80.471009 
" clip-path="url(#p579768449f)" style="fill: none; stroke-dasharray: 7.4,3.2; stroke-dashoffset: 0; stroke: #9370db; stroke-width: 2"/>
   </g>
   <g id="line2d_9">
    <path d="M 65.606136 150.731815 
L 72.661591 150.155044 
L 79.717045 148.990318 
L 86.7725 146.969393 
L 93.827955 144.532927 
L 100.883409 142.325328 
L 107.938864 140.521377 
L 114.994318 138.946998 
L 122.049773 137.57325 
L 129.105227 136.709357 
L 136.160682 136.28491 
L 143.216136 136.082456 
L 150.271591 135.979509 
L 157.327045 135.92314 
L 164.3825 135.890429 
L 171.437955 135.870713 
L 178.493409 135.858616 
L 185.548864 135.851225 
L 192.604318 135.846871 
L 199.659773 135.84455 
L 206.715227 135.843641 
L 213.770682 135.843756 
L 220.826136 135.844653 
L 227.881591 135.846197 
L 234.937045 135.84833 
L 241.9925 135.851072 
L 249.047955 135.854528 
L 256.103409 135.858924 
L 263.158864 135.864675 
L 270.214318 135.872514 
L 277.269773 135.883748 
L 284.325227 135.900732 
L 291.380682 135.927817 
L 298.436136 135.973254 
L 305.491591 136.053193 
L 312.547045 136.200238 
L 319.6025 136.481335 
L 326.657955 137.027266 
L 333.713409 138.037046 
L 340.768864 139.621939 
L 347.824318 141.502906 
L 354.879773 143.117687 
L 361.935227 144.142185 
L 368.990682 144.588944 
L 376.046136 144.539714 
L 383.101591 144.024527 
L 390.157045 143.136899 
L 397.2125 142.127076 
L 404.267955 141.24396 
L 411.323409 140.578127 
L 418.378864 140.103094 
" clip-path="url(#p579768449f)" style="fill: none; stroke-dasharray: 12.8,3.2,2,3.2; stroke-dashoffset: 0; stroke: #ff0000; stroke-width: 2"/>
   </g>
   <g id="patch_4">
    <path d="M 47.9675 163.751578 
L 47.9675 76.505267 
" style="fill: none; stroke: #000000; stroke-width: 0.8; stroke-linejoin: miter; stroke-linecap: square"/>
   </g>
   <g id="patch_5">
    <path d="M 436.0175 163.751578 
L 436.0175 76.505267 
" style="fill: none; stroke: #000000; stroke-width: 0.8; stroke-linejoin: miter; stroke-linecap: square"/>
   </g>
   <g id="patch_6">
    <path d="M 47.9675 163.751578 
L 436.0175 163.751578 
" style="fill: none; stroke: #000000; stroke-width: 0.8; stroke-linejoin: miter; stroke-linecap: square"/>
   </g>
   <g id="patch_7">
    <path d="M 47.9675 76.505267 
L 436.0175 76.505267 
" style="fill: none; stroke: #000000; stroke-width: 0.8; stroke-linejoin: miter; stroke-linecap: square"/>
   </g>
  </g>
  <g id="axes_3">
   <g id="patch_8">
    <path d="M 47.9675 276.68 
L 436.0175 276.68 
L 436.0175 189.43369 
L 47.9675 189.43369 
z
" style="fill: #ffffff"/>
   </g>
   <g id="PathCollection_2">
    <g clip-path="url(#p951bfa26a9)">
     <use xlink:href="#mc41286c640" x="346.401805" y="195.090877" style="fill: #daa520; stroke: #daa520"/>
     <use xlink:href="#mc41286c640" x="330.79763" y="198.318943" style="fill: #daa520; stroke: #daa520"/>
     <use xlink:href="#mc41286c640" x="192.241395" y="206.390907" style="fill: #daa520; stroke: #daa520"/>
     <use xlink:href="#mc41286c640" x="79.955608" y="239.601967" style="fill: #daa520; stroke: #daa520"/>
     <use xlink:href="#mc41286c640" x="270.961814" y="197.923047" style="fill: #daa520; stroke: #daa520"/>
     <use xlink:href="#mc41286c640" x="231.470497" y="206.97364" style="fill: #daa520; stroke: #daa520"/>
     <use xlink:href="#mc41286c640" x="225.214028" y="206.284901" style="fill: #daa520; stroke: #daa520"/>
     <use xlink:href="#mc41286c640" x="273.409422" y="223.61046" style="fill: #daa520; stroke: #daa520"/>
     <use xlink:href="#mc41286c640" x="163.740519" y="206.127527" style="fill: #daa520; stroke: #daa520"/>
     <use xlink:href="#mc41286c640" x="214.552048" y="207.61206" style="fill: #daa520; stroke: #daa520"/>
     <use xlink:href="#mc41286c640" x="208.636589" y="205.219957" style="fill: #daa520; stroke: #daa520"/>
     <use xlink:href="#mc41286c640" x="121.297334" y="231.208163" style="fill: #daa520; stroke: #daa520"/>
     <use xlink:href="#mc41286c640" x="361.355299" y="236.852302" style="fill: #daa520; stroke: #daa520"/>
     <use xlink:href="#mc41286c640" x="88.394412" y="242.92665" style="fill: #daa520; stroke: #daa520"/>
     <use xlink:href="#mc41286c640" x="83.350797" y="228.14833" style="fill: #daa520; stroke: #daa520"/>
     <use xlink:href="#mc41286c640" x="269.534192" y="218.926149" style="fill: #daa520; stroke: #daa520"/>
     <use xlink:href="#mc41286c640" x="70.618291" y="241.822142" style="fill: #daa520; stroke: #daa520"/>
     <use xlink:href="#mc41286c640" x="298.131782" y="217.772053" style="fill: #daa520; stroke: #daa520"/>
     <use xlink:href="#mc41286c640" x="368.06799" y="238.379139" style="fill: #daa520; stroke: #daa520"/>
     <use xlink:href="#mc41286c640" x="120.540873" y="211.482641" style="fill: #daa520; stroke: #daa520"/>
     <use xlink:href="#mc41286c640" x="71.380646" y="226.751386" style="fill: #daa520; stroke: #daa520"/>
     <use xlink:href="#mc41286c640" x="151.671325" y="203.069962" style="fill: #daa520; stroke: #daa520"/>
     <use xlink:href="#mc41286c640" x="221.73991" y="210.791624" style="fill: #daa520; stroke: #daa520"/>
     <use xlink:href="#mc41286c640" x="85.04598" y="201.797069" style="fill: #daa520; stroke: #daa520"/>
     <use xlink:href="#mc41286c640" x="280.783347" y="218.000418" style="fill: #daa520; stroke: #daa520"/>
     <use xlink:href="#mc41286c640" x="154.094138" y="202.990692" style="fill: #daa520; stroke: #daa520"/>
     <use xlink:href="#mc41286c640" x="105.602577" y="227.132433" style="fill: #daa520; stroke: #daa520"/>
     <use xlink:href="#mc41286c640" x="79.492793" y="231.403459" style="fill: #daa520; stroke: #daa520"/>
     <use xlink:href="#mc41286c640" x="111.617321" y="232.92702" style="fill: #daa520; stroke: #daa520"/>
     <use xlink:href="#mc41286c640" x="154.777256" y="202.996967" style="fill: #daa520; stroke: #daa520"/>
     <use xlink:href="#mc41286c640" x="123.57705" y="220.643299" style="fill: #daa520; stroke: #daa520"/>
     <use xlink:href="#mc41286c640" x="73.841887" y="245.4972" style="fill: #daa520; stroke: #daa520"/>
     <use xlink:href="#mc41286c640" x="248.659934" y="212.022901" style="fill: #daa520; stroke: #daa520"/>
     <use xlink:href="#mc41286c640" x="318.930859" y="222.223842" style="fill: #daa520; stroke: #daa520"/>
     <use xlink:href="#mc41286c640" x="364.032133" y="229.777976" style="fill: #daa520; stroke: #daa520"/>
     <use xlink:href="#mc41286c640" x="173.187682" y="205.913339" style="fill: #daa520; stroke: #daa520"/>
     <use xlink:href="#mc41286c640" x="134.918098" y="202.185509" style="fill: #daa520; stroke: #daa520"/>
     <use xlink:href="#mc41286c640" x="186.339322" y="207.403539" style="fill: #daa520; stroke: #daa520"/>
     <use xlink:href="#mc41286c640" x="102.419778" y="197.902037" style="fill: #daa520; stroke: #daa520"/>
     <use xlink:href="#mc41286c640" x="110.083144" y="230.540876" style="fill: #daa520; stroke: #daa520"/>
     <use xlink:href="#mc41286c640" x="75.299951" y="230.565468" style="fill: #daa520; stroke: #daa520"/>
     <use xlink:href="#mc41286c640" x="152.343964" y="209.971132" style="fill: #daa520; stroke: #daa520"/>
     <use xlink:href="#mc41286c640" x="269.628327" y="198.293623" style="fill: #daa520; stroke: #daa520"/>
     <use xlink:href="#mc41286c640" x="343.461622" y="229.210761" style="fill: #daa520; stroke: #daa520"/>
     <use xlink:href="#mc41286c640" x="356.914422" y="198.06884" style="fill: #daa520; stroke: #daa520"/>
     <use xlink:href="#mc41286c640" x="70.888365" y="193.399431" style="fill: #daa520; stroke: #daa520"/>
     <use xlink:href="#mc41286c640" x="290.50424" y="201.340114" style="fill: #daa520; stroke: #daa520"/>
     <use xlink:href="#mc41286c640" x="132.220072" y="221.545863" style="fill: #daa520; stroke: #daa520"/>
     <use xlink:href="#mc41286c640" x="173.194258" y="220.471843" style="fill: #daa520; stroke: #daa520"/>
     <use xlink:href="#mc41286c640" x="78.796091" y="197.447364" style="fill: #daa520; stroke: #daa520"/>
     <use xlink:href="#mc41286c640" x="122.168017" y="224.387731" style="fill: #daa520; stroke: #daa520"/>
     <use xlink:href="#mc41286c640" x="276.918677" y="215.330422" style="fill: #daa520; stroke: #daa520"/>
     <use xlink:href="#mc41286c640" x="102.146649" y="201.868563" style="fill: #daa520; stroke: #daa520"/>
     <use xlink:href="#mc41286c640" x="210.287927" y="204.953915" style="fill: #daa520; stroke: #daa520"/>
     <use xlink:href="#mc41286c640" x="76.486935" y="234.671557" style="fill: #daa520; stroke: #daa520"/>
     <use xlink:href="#mc41286c640" x="122.050898" y="230.147558" style="fill: #daa520; stroke: #daa520"/>
     <use xlink:href="#mc41286c640" x="134.013124" y="230.915512" style="fill: #daa520; stroke: #daa520"/>
     <use xlink:href="#mc41286c640" x="262.925761" y="204.922872" style="fill: #daa520; stroke: #daa520"/>
     <use xlink:href="#mc41286c640" x="68.950665" y="196.438635" style="fill: #daa520; stroke: #daa520"/>
     <use xlink:href="#mc41286c640" x="202.44409" y="203.788601" style="fill: #daa520; stroke: #daa520"/>
     <use xlink:href="#mc41286c640" x="97.432668" y="204.05374" style="fill: #daa520; stroke: #daa520"/>
     <use xlink:href="#mc41286c640" x="185.285941" y="200.640909" style="fill: #daa520; stroke: #daa520"/>
     <use xlink:href="#mc41286c640" x="121.976222" y="221.148961" style="fill: #daa520; stroke: #daa520"/>
     <use xlink:href="#mc41286c640" x="106.707332" y="234.747855" style="fill: #daa520; stroke: #daa520"/>
     <use xlink:href="#mc41286c640" x="131.303206" y="198.684078" style="fill: #daa520; stroke: #daa520"/>
     <use xlink:href="#mc41286c640" x="241.367789" y="209.49972" style="fill: #daa520; stroke: #daa520"/>
     <use xlink:href="#mc41286c640" x="170.699754" y="202.195268" style="fill: #daa520; stroke: #daa520"/>
     <use xlink:href="#mc41286c640" x="69.656428" y="205.258948" style="fill: #daa520; stroke: #daa520"/>
     <use xlink:href="#mc41286c640" x="179.808713" y="204.693112" style="fill: #daa520; stroke: #daa520"/>
     <use xlink:href="#mc41286c640" x="102.259894" y="241.20837" style="fill: #daa520; stroke: #daa520"/>
     <use xlink:href="#mc41286c640" x="265.435314" y="218.351139" style="fill: #daa520; stroke: #daa520"/>
     <use xlink:href="#mc41286c640" x="320.611759" y="222.839893" style="fill: #daa520; stroke: #daa520"/>
     <use xlink:href="#mc41286c640" x="250.766375" y="215.169119" style="fill: #daa520; stroke: #daa520"/>
     <use xlink:href="#mc41286c640" x="80.993973" y="208.074792" style="fill: #daa520; stroke: #daa520"/>
     <use xlink:href="#mc41286c640" x="119.117902" y="230.28924" style="fill: #daa520; stroke: #daa520"/>
     <use xlink:href="#mc41286c640" x="69.720236" y="242.496896" style="fill: #daa520; stroke: #daa520"/>
     <use xlink:href="#mc41286c640" x="260.755324" y="204.595074" style="fill: #daa520; stroke: #daa520"/>
     <use xlink:href="#mc41286c640" x="254.320169" y="217.93574" style="fill: #daa520; stroke: #daa520"/>
     <use xlink:href="#mc41286c640" x="274.192642" y="211.52038" style="fill: #daa520; stroke: #daa520"/>
     <use xlink:href="#mc41286c640" x="232.9723" y="208.177649" style="fill: #daa520; stroke: #daa520"/>
     <use xlink:href="#mc41286c640" x="73.97047" y="233.575867" style="fill: #daa520; stroke: #daa520"/>
     <use xlink:href="#mc41286c640" x="388.011548" y="236.361132" style="fill: #daa520; stroke: #daa520"/>
     <use xlink:href="#mc41286c640" x="231.487169" y="206.502218" style="fill: #daa520; stroke: #daa520"/>
     <use xlink:href="#mc41286c640" x="79.0462" y="203.059909" style="fill: #daa520; stroke: #daa520"/>
     <use xlink:href="#mc41286c640" x="240.102927" y="209.615752" style="fill: #daa520; stroke: #daa520"/>
     <use xlink:href="#mc41286c640" x="218.360747" y="205.484365" style="fill: #daa520; stroke: #daa520"/>
     <use xlink:href="#mc41286c640" x="130.272619" y="220.17321" style="fill: #daa520; stroke: #daa520"/>
     <use xlink:href="#mc41286c640" x="115.273646" y="237.624695" style="fill: #daa520; stroke: #daa520"/>
     <use xlink:href="#mc41286c640" x="281.985033" y="202.534439" style="fill: #daa520; stroke: #daa520"/>
     <use xlink:href="#mc41286c640" x="154.676104" y="213.388439" style="fill: #daa520; stroke: #daa520"/>
     <use xlink:href="#mc41286c640" x="105.633905" y="228.289963" style="fill: #daa520; stroke: #daa520"/>
     <use xlink:href="#mc41286c640" x="87.192602" y="242.718656" style="fill: #daa520; stroke: #daa520"/>
     <use xlink:href="#mc41286c640" x="236.604959" y="209.96315" style="fill: #daa520; stroke: #daa520"/>
     <use xlink:href="#mc41286c640" x="271.415993" y="195.88498" style="fill: #daa520; stroke: #daa520"/>
     <use xlink:href="#mc41286c640" x="207.723743" y="205.394264" style="fill: #daa520; stroke: #daa520"/>
     <use xlink:href="#mc41286c640" x="264.009763" y="197.509593" style="fill: #daa520; stroke: #daa520"/>
     <use xlink:href="#mc41286c640" x="174.06763" y="210.375941" style="fill: #daa520; stroke: #daa520"/>
     <use xlink:href="#mc41286c640" x="84.490089" y="211.376208" style="fill: #daa520; stroke: #daa520"/>
     <use xlink:href="#mc41286c640" x="261.398517" y="223.515373" style="fill: #daa520; stroke: #daa520"/>
    </g>
   </g>
   <g id="matplotlib.axis_5">
    <g id="xtick_1">
     <g id="line2d_10">
      <defs>
       <path id="m00db7c5c63" d="M 0 0 
L 0 3.5 
" style="stroke: #696969; stroke-width: 0.8"/>
      </defs>
      <g>
       <use xlink:href="#m00db7c5c63" x="65.606136" y="276.68" style="fill: #696969; stroke: #696969; stroke-width: 0.8"/>
      </g>
     </g>
     <g id="text_4">
      <!-- −1.0 -->
      <g style="fill: #696969" transform="translate(46.179886 295.8375) scale(0.16 -0.16)">
       <defs>
        <path id="DejaVuSans-2e" d="M 684 794 
L 1344 794 
L 1344 0 
L 684 0 
L 684 794 
z
" transform="scale(0.015625)"/>
       </defs>
       <use xlink:href="#DejaVuSans-2212"/>
       <use xlink:href="#DejaVuSans-31" x="83.789062"/>
       <use xlink:href="#DejaVuSans-2e" x="147.412109"/>
       <use xlink:href="#DejaVuSans-30" x="179.199219"/>
      </g>
     </g>
    </g>
    <g id="xtick_2">
     <g id="line2d_11">
      <g>
       <use xlink:href="#m00db7c5c63" x="153.799318" y="276.68" style="fill: #696969; stroke: #696969; stroke-width: 0.8"/>
      </g>
     </g>
     <g id="text_5">
      <!-- −0.5 -->
      <g style="fill: #696969" transform="translate(134.373068 295.8375) scale(0.16 -0.16)">
       <defs>
        <path id="DejaVuSans-35" d="M 691 4666 
L 3169 4666 
L 3169 4134 
L 1269 4134 
L 1269 2991 
Q 1406 3038 1543 3061 
Q 1681 3084 1819 3084 
Q 2600 3084 3056 2656 
Q 3513 2228 3513 1497 
Q 3513 744 3044 326 
Q 2575 -91 1722 -91 
Q 1428 -91 1123 -41 
Q 819 9 494 109 
L 494 744 
Q 775 591 1075 516 
Q 1375 441 1709 441 
Q 2250 441 2565 725 
Q 2881 1009 2881 1497 
Q 2881 1984 2565 2268 
Q 2250 2553 1709 2553 
Q 1456 2553 1204 2497 
Q 953 2441 691 2322 
L 691 4666 
z
" transform="scale(0.015625)"/>
       </defs>
       <use xlink:href="#DejaVuSans-2212"/>
       <use xlink:href="#DejaVuSans-30" x="83.789062"/>
       <use xlink:href="#DejaVuSans-2e" x="147.412109"/>
       <use xlink:href="#DejaVuSans-35" x="179.199219"/>
      </g>
     </g>
    </g>
    <g id="xtick_3">
     <g id="line2d_12">
      <g>
       <use xlink:href="#m00db7c5c63" x="241.9925" y="276.68" style="fill: #696969; stroke: #696969; stroke-width: 0.8"/>
      </g>
     </g>
     <g id="text_6">
      <!-- 0.0 -->
      <g style="fill: #696969" transform="translate(229.27 295.8375) scale(0.16 -0.16)">
       <use xlink:href="#DejaVuSans-30"/>
       <use xlink:href="#DejaVuSans-2e" x="63.623047"/>
       <use xlink:href="#DejaVuSans-30" x="95.410156"/>
      </g>
     </g>
    </g>
    <g id="xtick_4">
     <g id="line2d_13">
      <g>
       <use xlink:href="#m00db7c5c63" x="330.185682" y="276.68" style="fill: #696969; stroke: #696969; stroke-width: 0.8"/>
      </g>
     </g>
     <g id="text_7">
      <!-- 0.5 -->
      <g style="fill: #696969" transform="translate(317.463182 295.8375) scale(0.16 -0.16)">
       <use xlink:href="#DejaVuSans-30"/>
       <use xlink:href="#DejaVuSans-2e" x="63.623047"/>
       <use xlink:href="#DejaVuSans-35" x="95.410156"/>
      </g>
     </g>
    </g>
    <g id="xtick_5">
     <g id="line2d_14">
      <g>
       <use xlink:href="#m00db7c5c63" x="418.378864" y="276.68" style="fill: #696969; stroke: #696969; stroke-width: 0.8"/>
      </g>
     </g>
     <g id="text_8">
      <!-- 1.0 -->
      <g style="fill: #696969" transform="translate(405.656364 295.8375) scale(0.16 -0.16)">
       <use xlink:href="#DejaVuSans-31"/>
       <use xlink:href="#DejaVuSans-2e" x="63.623047"/>
       <use xlink:href="#DejaVuSans-30" x="95.410156"/>
      </g>
     </g>
    </g>
    <g id="text_9">
     <!-- $X$ -->
     <g transform="translate(236.4725 315.3225) scale(0.16 -0.16)">
      <defs>
       <path id="DejaVuSans-Oblique-58" d="M 878 4666 
L 1516 4666 
L 2316 2981 
L 3763 4666 
L 4500 4666 
L 2578 2438 
L 3738 0 
L 3103 0 
L 2163 1966 
L 459 0 
L -275 0 
L 1906 2509 
L 878 4666 
z
" transform="scale(0.015625)"/>
      </defs>
      <use xlink:href="#DejaVuSans-Oblique-58" transform="translate(0 0.09375)"/>
     </g>
    </g>
   </g>
   <g id="matplotlib.axis_6">
    <g id="ytick_4">
     <g id="line2d_15">
      <g>
       <use xlink:href="#md6753c5373" x="47.9675" y="241.766674" style="fill: #696969; stroke: #696969; stroke-width: 0.8"/>
      </g>
     </g>
     <g id="text_10">
      <!-- −10 -->
      <g style="fill: #696969" transform="translate(7.2 247.845424) scale(0.16 -0.16)">
       <use xlink:href="#DejaVuSans-2212"/>
       <use xlink:href="#DejaVuSans-31" x="83.789062"/>
       <use xlink:href="#DejaVuSans-30" x="147.412109"/>
      </g>
     </g>
    </g>
    <g id="ytick_5">
     <g id="line2d_16">
      <g>
       <use xlink:href="#md6753c5373" x="47.9675" y="204.795619" style="fill: #696969; stroke: #696969; stroke-width: 0.8"/>
      </g>
     </g>
     <g id="text_11">
      <!-- 0 -->
      <g style="fill: #696969" transform="translate(30.7875 210.874369) scale(0.16 -0.16)">
       <use xlink:href="#DejaVuSans-30"/>
      </g>
     </g>
    </g>
   </g>
   <g id="line2d_17">
    <path d="M 65.606136 215.58542 
L 72.661591 216.683828 
L 79.717045 217.750205 
L 86.7725 218.165798 
L 93.827955 218.07899 
L 100.883409 217.89015 
L 107.938864 217.539704 
L 114.994318 216.722235 
L 122.049773 215.486052 
L 129.105227 214.398426 
L 136.160682 213.571265 
L 143.216136 212.848913 
L 150.271591 212.073229 
L 157.327045 211.105233 
L 164.3825 209.874944 
L 171.437955 208.441837 
L 178.493409 207.002016 
L 185.548864 205.823762 
L 192.604318 205.141556 
L 199.659773 205.062029 
L 206.715227 205.526116 
L 213.770682 206.341317 
L 220.826136 207.264916 
L 227.881591 208.098638 
L 234.937045 208.753614 
L 241.9925 209.260359 
L 249.047955 209.724548 
L 256.103409 210.254628 
L 263.158864 210.899123 
L 270.214318 211.623362 
L 277.269773 212.33127 
L 284.325227 212.912832 
L 291.380682 213.287006 
L 298.436136 213.419729 
L 305.491591 213.319074 
L 312.547045 213.029495 
L 319.6025 212.651758 
L 326.657955 212.397076 
L 333.713409 212.615982 
L 340.768864 213.612446 
L 347.824318 215.241648 
L 354.879773 216.968482 
L 361.935227 218.424775 
L 368.990682 219.498006 
L 376.046136 220.047598 
L 383.101591 219.85798 
L 390.157045 218.890807 
L 397.2125 217.466672 
L 404.267955 216.06292 
L 411.323409 215.039239 
L 418.378864 214.574565 
" clip-path="url(#p951bfa26a9)" style="fill: none; stroke: #696969; stroke-width: 2; stroke-linecap: square"/>
   </g>
   <g id="line2d_18">
    <path d="M 65.606136 216.284425 
L 72.661591 221.415276 
L 79.717045 224.16672 
L 86.7725 225.212303 
L 93.827955 225.072171 
L 100.883409 224.143088 
L 107.938864 222.723414 
L 114.994318 221.033734 
L 122.049773 219.233785 
L 129.105227 217.436219 
L 136.160682 215.717704 
L 143.216136 214.127795 
L 150.271591 212.695948 
L 157.327045 211.437003 
L 164.3825 210.355423 
L 171.437955 209.448527 
L 178.493409 208.708916 
L 185.548864 208.126275 
L 192.604318 207.688673 
L 199.659773 207.383498 
L 206.715227 207.198107 
L 213.770682 207.120277 
L 220.826136 207.138502 
L 227.881591 207.242197 
L 234.937045 207.421835 
L 241.9925 207.669051 
L 249.047955 207.976723 
L 256.103409 208.339062 
L 263.158864 208.751711 
L 270.214318 209.211874 
L 277.269773 209.718491 
L 284.325227 210.272463 
L 291.380682 210.876957 
L 298.436136 211.537805 
L 305.491591 212.264017 
L 312.547045 213.068451 
L 319.6025 213.968649 
L 326.657955 214.987897 
L 333.713409 216.156532 
L 340.768864 217.513546 
L 347.824318 219.108526 
L 354.879773 221.003985 
L 361.935227 223.278109 
L 368.990682 226.027989 
L 376.046136 229.373362 
L 383.101591 233.460898 
L 390.157045 238.469074 
L 397.2125 244.613642 
L 404.267955 252.15371 
L 411.323409 261.398428 
L 418.378864 272.714259 
" clip-path="url(#p951bfa26a9)" style="fill: none; stroke-dasharray: 7.4,3.2; stroke-dashoffset: 0; stroke: #79ad41; stroke-width: 2"/>
   </g>
   <g id="patch_9">
    <path d="M 47.9675 276.68 
L 47.9675 189.43369 
" style="fill: none; stroke: #000000; stroke-width: 0.8; stroke-linejoin: miter; stroke-linecap: square"/>
   </g>
   <g id="patch_10">
    <path d="M 436.0175 276.68 
L 436.0175 189.43369 
" style="fill: none; stroke: #000000; stroke-width: 0.8; stroke-linejoin: miter; stroke-linecap: square"/>
   </g>
   <g id="patch_11">
    <path d="M 47.9675 276.68 
L 436.0175 276.68 
" style="fill: none; stroke: #000000; stroke-width: 0.8; stroke-linejoin: miter; stroke-linecap: square"/>
   </g>
   <g id="patch_12">
    <path d="M 47.9675 189.43369 
L 436.0175 189.43369 
" style="fill: none; stroke: #000000; stroke-width: 0.8; stroke-linejoin: miter; stroke-linecap: square"/>
   </g>
  </g>
 </g>
 <defs>
  <clipPath id="p927ff755f9">
   <rect x="47.9675" y="7.2" width="388.05" height="43.623155"/>
  </clipPath>
  <clipPath id="p579768449f">
   <rect x="47.9675" y="76.505267" width="388.05" height="87.24631"/>
  </clipPath>
  <clipPath id="p951bfa26a9">
   <rect x="47.9675" y="189.43369" width="388.05" height="87.24631"/>
  </clipPath>
 </defs>
</svg>
