<?xml version="1.0" encoding="utf-8" standalone="no"?>
<!DOCTYPE svg PUBLIC "-//W3C//DTD SVG 1.1//EN"
  "http://www.w3.org/Graphics/SVG/1.1/DTD/svg11.dtd">
<svg xmlns:xlink="http://www.w3.org/1999/xlink" width="443.2075pt" height="325.85pt" viewBox="0 0 443.2075 325.85" xmlns="http://www.w3.org/2000/svg" version="1.1">
 <metadata>
  <rdf:RDF xmlns:dc="http://purl.org/dc/elements/1.1/" xmlns:cc="http://creativecommons.org/ns#" xmlns:rdf="http://www.w3.org/1999/02/22-rdf-syntax-ns#">
   <cc:Work>
    <dc:type rdf:resource="http://purl.org/dc/dcmitype/StillImage"/>
    <dc:date>2024-01-28T20:53:14.277626</dc:date>
    <dc:format>image/svg+xml</dc:format>
    <dc:creator>
     <cc:Agent>
      <dc:title>Matplotlib v3.7.2, https://matplotlib.org/</dc:title>
     </cc:Agent>
    </dc:creator>
   </cc:Work>
  </rdf:RDF>
 </metadata>
 <defs>
  <style type="text/css">*{stroke-linejoin: round; stroke-linecap: butt}</style>
 </defs>
 <g id="figure_1">
  <g id="patch_1">
   <path d="M 0 325.85 
L 443.2075 325.85 
L 443.2075 0 
L 0 0 
z
" style="fill: #ffffff"/>
  </g>
  <g id="axes_1">
   <g id="patch_2">
    <path d="M 37.7875 53.942157 
L 436.0075 53.942157 
L 436.0075 7.2 
L 37.7875 7.2 
z
" style="fill: #ffffff"/>
   </g>
   <g id="PolyCollection_1">
    <defs>
     <path id="m2e5ca9dac8" d="M 55.888409 -274.032487 
L 55.888409 -315.691811 
L 63.128773 -314.234339 
L 70.369136 -312.82894 
L 77.6095 -311.484105 
L 84.849864 -310.206611 
L 92.090227 -309.001643 
L 99.330591 -307.872923 
L 106.570955 -306.822885 
L 113.811318 -305.852906 
L 121.051682 -304.963493 
L 128.292045 -304.154495 
L 135.532409 -303.425248 
L 142.772773 -302.774726 
L 150.013136 -302.201672 
L 157.2535 -301.70468 
L 164.493864 -301.282244 
L 171.734227 -300.932792 
L 178.974591 -300.654742 
L 186.214955 -300.446441 
L 193.455318 -300.306169 
L 200.695682 -300.232118 
L 207.936045 -300.222307 
L 215.176409 -300.274544 
L 222.416773 -300.386397 
L 229.657136 -300.555044 
L 236.8975 -300.777298 
L 244.137864 -301.049495 
L 251.378227 -301.367445 
L 258.618591 -301.726407 
L 265.858955 -302.121081 
L 273.099318 -302.545567 
L 280.339682 -302.993435 
L 287.580045 -303.457752 
L 294.820409 -303.931154 
L 302.060773 -304.40596 
L 309.301136 -304.874272 
L 316.5415 -305.328125 
L 323.781864 -305.759596 
L 331.022227 -306.160999 
L 338.262591 -306.524937 
L 345.502955 -306.844496 
L 352.743318 -307.113318 
L 359.983682 -307.325706 
L 367.224045 -307.476679 
L 374.464409 -307.562065 
L 381.704773 -307.57852 
L 388.945136 -307.523582 
L 396.1855 -307.395688 
L 403.425864 -307.194201 
L 410.666227 -306.919438 
L 417.906591 -306.572653 
L 417.906591 -274.032487 
L 417.906591 -274.032487 
L 410.666227 -274.032487 
L 403.425864 -274.032487 
L 396.1855 -274.032487 
L 388.945136 -274.032487 
L 381.704773 -274.032487 
L 374.464409 -274.032487 
L 367.224045 -274.032487 
L 359.983682 -274.032487 
L 352.743318 -274.032487 
L 345.502955 -274.032487 
L 338.262591 -274.032487 
L 331.022227 -274.032487 
L 323.781864 -274.032487 
L 316.5415 -274.032487 
L 309.301136 -274.032487 
L 302.060773 -274.032487 
L 294.820409 -274.032487 
L 287.580045 -274.032487 
L 280.339682 -274.032487 
L 273.099318 -274.032487 
L 265.858955 -274.032487 
L 258.618591 -274.032487 
L 251.378227 -274.032487 
L 244.137864 -274.032487 
L 236.8975 -274.032487 
L 229.657136 -274.032487 
L 222.416773 -274.032487 
L 215.176409 -274.032487 
L 207.936045 -274.032487 
L 200.695682 -274.032487 
L 193.455318 -274.032487 
L 186.214955 -274.032487 
L 178.974591 -274.032487 
L 171.734227 -274.032487 
L 164.493864 -274.032487 
L 157.2535 -274.032487 
L 150.013136 -274.032487 
L 142.772773 -274.032487 
L 135.532409 -274.032487 
L 128.292045 -274.032487 
L 121.051682 -274.032487 
L 113.811318 -274.032487 
L 106.570955 -274.032487 
L 99.330591 -274.032487 
L 92.090227 -274.032487 
L 84.849864 -274.032487 
L 77.6095 -274.032487 
L 70.369136 -274.032487 
L 63.128773 -274.032487 
L 55.888409 -274.032487 
z
" style="stroke: #dc143c; stroke-opacity: 0.2"/>
    </defs>
    <g clip-path="url(#p2a464f3bd7)">
     <use xlink:href="#m2e5ca9dac8" x="0" y="325.85" style="fill: #dc143c; fill-opacity: 0.2; stroke: #dc143c; stroke-opacity: 0.2"/>
    </g>
   </g>
   <g id="PolyCollection_2">
    <defs>
     <path id="mf3a0e5704e" d="M 55.888409 -274.032487 
L 55.888409 -301.055852 
L 63.128773 -302.513324 
L 70.369136 -303.918724 
L 77.6095 -305.263558 
L 84.849864 -306.541053 
L 92.090227 -307.74602 
L 99.330591 -308.87474 
L 106.570955 -309.924779 
L 113.811318 -310.894757 
L 121.051682 -311.78417 
L 128.292045 -312.593169 
L 135.532409 -313.322415 
L 142.772773 -313.972938 
L 150.013136 -314.545991 
L 157.2535 -315.042983 
L 164.493864 -315.465419 
L 171.734227 -315.814872 
L 178.974591 -316.092922 
L 186.214955 -316.301222 
L 193.455318 -316.441495 
L 200.695682 -316.515546 
L 207.936045 -316.525357 
L 215.176409 -316.473119 
L 222.416773 -316.361267 
L 229.657136 -316.19262 
L 236.8975 -315.970366 
L 244.137864 -315.698169 
L 251.378227 -315.380219 
L 258.618591 -315.021257 
L 265.858955 -314.626583 
L 273.099318 -314.202096 
L 280.339682 -313.754229 
L 287.580045 -313.289911 
L 294.820409 -312.816509 
L 302.060773 -312.341703 
L 309.301136 -311.873392 
L 316.5415 -311.419538 
L 323.781864 -310.988068 
L 331.022227 -310.586664 
L 338.262591 -310.222726 
L 345.502955 -309.903168 
L 352.743318 -309.634346 
L 359.983682 -309.421958 
L 367.224045 -309.270985 
L 374.464409 -309.185598 
L 381.704773 -309.169143 
L 388.945136 -309.224082 
L 396.1855 -309.351975 
L 403.425864 -309.553462 
L 410.666227 -309.828225 
L 417.906591 -310.17501 
L 417.906591 -274.032487 
L 417.906591 -274.032487 
L 410.666227 -274.032487 
L 403.425864 -274.032487 
L 396.1855 -274.032487 
L 388.945136 -274.032487 
L 381.704773 -274.032487 
L 374.464409 -274.032487 
L 367.224045 -274.032487 
L 359.983682 -274.032487 
L 352.743318 -274.032487 
L 345.502955 -274.032487 
L 338.262591 -274.032487 
L 331.022227 -274.032487 
L 323.781864 -274.032487 
L 316.5415 -274.032487 
L 309.301136 -274.032487 
L 302.060773 -274.032487 
L 294.820409 -274.032487 
L 287.580045 -274.032487 
L 280.339682 -274.032487 
L 273.099318 -274.032487 
L 265.858955 -274.032487 
L 258.618591 -274.032487 
L 251.378227 -274.032487 
L 244.137864 -274.032487 
L 236.8975 -274.032487 
L 229.657136 -274.032487 
L 222.416773 -274.032487 
L 215.176409 -274.032487 
L 207.936045 -274.032487 
L 200.695682 -274.032487 
L 193.455318 -274.032487 
L 186.214955 -274.032487 
L 178.974591 -274.032487 
L 171.734227 -274.032487 
L 164.493864 -274.032487 
L 157.2535 -274.032487 
L 150.013136 -274.032487 
L 142.772773 -274.032487 
L 135.532409 -274.032487 
L 128.292045 -274.032487 
L 121.051682 -274.032487 
L 113.811318 -274.032487 
L 106.570955 -274.032487 
L 99.330591 -274.032487 
L 92.090227 -274.032487 
L 84.849864 -274.032487 
L 77.6095 -274.032487 
L 70.369136 -274.032487 
L 63.128773 -274.032487 
L 55.888409 -274.032487 
z
" style="stroke: #000080; stroke-opacity: 0.2"/>
    </defs>
    <g clip-path="url(#p2a464f3bd7)">
     <use xlink:href="#mf3a0e5704e" x="0" y="325.85" style="fill: #000080; fill-opacity: 0.2; stroke: #000080; stroke-opacity: 0.2"/>
    </g>
   </g>
   <g id="matplotlib.axis_1"/>
   <g id="matplotlib.axis_2"/>
   <g id="line2d_1">
    <path d="M 55.888409 10.158189 
L 63.128773 11.615661 
L 70.369136 13.02106 
L 77.6095 14.365895 
L 84.849864 15.643389 
L 92.090227 16.848357 
L 99.330591 17.977077 
L 106.570955 19.027115 
L 113.811318 19.997094 
L 121.051682 20.886507 
L 128.292045 21.695505 
L 135.532409 22.424752 
L 142.772773 23.075274 
L 150.013136 23.648328 
L 157.2535 24.14532 
L 164.493864 24.567756 
L 171.734227 24.917208 
L 178.974591 25.195258 
L 186.214955 25.403559 
L 193.455318 25.543831 
L 200.695682 25.617882 
L 207.936045 25.627693 
L 215.176409 25.575456 
L 222.416773 25.463603 
L 229.657136 25.294956 
L 236.8975 25.072702 
L 244.137864 24.800505 
L 251.378227 24.482555 
L 258.618591 24.123593 
L 265.858955 23.728919 
L 273.099318 23.304433 
L 280.339682 22.856565 
L 287.580045 22.392248 
L 294.820409 21.918846 
L 302.060773 21.44404 
L 309.301136 20.975728 
L 316.5415 20.521875 
L 323.781864 20.090404 
L 331.022227 19.689001 
L 338.262591 19.325063 
L 345.502955 19.005504 
L 352.743318 18.736682 
L 359.983682 18.524294 
L 367.224045 18.373321 
L 374.464409 18.287935 
L 381.704773 18.27148 
L 388.945136 18.326418 
L 396.1855 18.454312 
L 403.425864 18.655799 
L 410.666227 18.930562 
L 417.906591 19.277347 
" clip-path="url(#p2a464f3bd7)" style="fill: none; stroke: #dc143c; stroke-width: 1.5; stroke-linecap: square"/>
   </g>
   <g id="line2d_2">
    <path d="M 55.888409 24.794148 
L 63.128773 23.336676 
L 70.369136 21.931276 
L 77.6095 20.586442 
L 84.849864 19.308947 
L 92.090227 18.10398 
L 99.330591 16.97526 
L 106.570955 15.925221 
L 113.811318 14.955243 
L 121.051682 14.06583 
L 128.292045 13.256831 
L 135.532409 12.527585 
L 142.772773 11.877062 
L 150.013136 11.304009 
L 157.2535 10.807017 
L 164.493864 10.384581 
L 171.734227 10.035128 
L 178.974591 9.757078 
L 186.214955 9.548778 
L 193.455318 9.408505 
L 200.695682 9.334454 
L 207.936045 9.324643 
L 215.176409 9.376881 
L 222.416773 9.488733 
L 229.657136 9.65738 
L 236.8975 9.879634 
L 244.137864 10.151831 
L 251.378227 10.469781 
L 258.618591 10.828743 
L 265.858955 11.223417 
L 273.099318 11.647904 
L 280.339682 12.095771 
L 287.580045 12.560089 
L 294.820409 13.033491 
L 302.060773 13.508297 
L 309.301136 13.976608 
L 316.5415 14.430462 
L 323.781864 14.861932 
L 331.022227 15.263336 
L 338.262591 15.627274 
L 345.502955 15.946832 
L 352.743318 16.215654 
L 359.983682 16.428042 
L 367.224045 16.579015 
L 374.464409 16.664402 
L 381.704773 16.680857 
L 388.945136 16.625918 
L 396.1855 16.498025 
L 403.425864 16.296538 
L 410.666227 16.021775 
L 417.906591 15.67499 
" clip-path="url(#p2a464f3bd7)" style="fill: none; stroke: #000080; stroke-width: 1.5; stroke-linecap: square"/>
   </g>
  </g>
  <g id="axes_2">
   <g id="patch_3">
    <path d="M 37.7875 165.311078 
L 436.0075 165.311078 
L 436.0075 71.826765 
L 37.7875 71.826765 
z
" style="fill: #ffffff"/>
   </g>
   <g id="PathCollection_1">
    <defs>
     <path id="m0f055b514a" d="M 0 0.866025 
C 0.229673 0.866025 0.449969 0.774776 0.612372 0.612372 
C 0.774776 0.449969 0.866025 0.229673 0.866025 0 
C 0.866025 -0.229673 0.774776 -0.449969 0.612372 -0.612372 
C 0.449969 -0.774776 0.229673 -0.866025 0 -0.866025 
C -0.229673 -0.866025 -0.449969 -0.774776 -0.612372 -0.612372 
C -0.774776 -0.449969 -0.866025 -0.229673 -0.866025 0 
C -0.866025 0.229673 -0.774776 0.449969 -0.612372 0.612372 
C -0.449969 0.774776 -0.229673 0.866025 0 0.866025 
z
" style="stroke: #daa520"/>
    </defs>
    <g clip-path="url(#p15fe0e5a8d)">
     <use xlink:href="#m0f055b514a" x="265.260676" y="97.81917" style="fill: #daa520; stroke: #daa520"/>
     <use xlink:href="#m0f055b514a" x="199.48051" y="91.759604" style="fill: #daa520; stroke: #daa520"/>
     <use xlink:href="#m0f055b514a" x="238.007128" y="78.594395" style="fill: #daa520; stroke: #daa520"/>
     <use xlink:href="#m0f055b514a" x="158.472129" y="100.203904" style="fill: #daa520; stroke: #daa520"/>
     <use xlink:href="#m0f055b514a" x="312.252931" y="106.326507" style="fill: #daa520; stroke: #daa520"/>
     <use xlink:href="#m0f055b514a" x="288.487031" y="103.04702" style="fill: #daa520; stroke: #daa520"/>
     <use xlink:href="#m0f055b514a" x="92.016266" y="152.290478" style="fill: #daa520; stroke: #daa520"/>
     <use xlink:href="#m0f055b514a" x="257.613451" y="103.5605" style="fill: #daa520; stroke: #daa520"/>
     <use xlink:href="#m0f055b514a" x="86.807371" y="92.881714" style="fill: #daa520; stroke: #daa520"/>
     <use xlink:href="#m0f055b514a" x="255.035204" y="116.526398" style="fill: #daa520; stroke: #daa520"/>
     <use xlink:href="#m0f055b514a" x="149.506492" y="96.692349" style="fill: #daa520; stroke: #daa520"/>
     <use xlink:href="#m0f055b514a" x="112.085267" y="95.606318" style="fill: #daa520; stroke: #daa520"/>
     <use xlink:href="#m0f055b514a" x="405.926756" y="117.276523" style="fill: #daa520; stroke: #daa520"/>
     <use xlink:href="#m0f055b514a" x="237.397777" y="123.024845" style="fill: #daa520; stroke: #daa520"/>
     <use xlink:href="#m0f055b514a" x="58.879581" y="156.923834" style="fill: #daa520; stroke: #daa520"/>
     <use xlink:href="#m0f055b514a" x="287.88311" y="102.18226" style="fill: #daa520; stroke: #daa520"/>
     <use xlink:href="#m0f055b514a" x="290.572532" y="87.626883" style="fill: #daa520; stroke: #daa520"/>
     <use xlink:href="#m0f055b514a" x="264.581128" y="109.966047" style="fill: #daa520; stroke: #daa520"/>
     <use xlink:href="#m0f055b514a" x="186.344043" y="86.0121" style="fill: #daa520; stroke: #daa520"/>
     <use xlink:href="#m0f055b514a" x="373.848452" y="99.426217" style="fill: #daa520; stroke: #daa520"/>
     <use xlink:href="#m0f055b514a" x="327.482642" y="95.392729" style="fill: #daa520; stroke: #daa520"/>
     <use xlink:href="#m0f055b514a" x="76.758522" y="138.941802" style="fill: #daa520; stroke: #daa520"/>
     <use xlink:href="#m0f055b514a" x="121.593054" y="156.257994" style="fill: #daa520; stroke: #daa520"/>
     <use xlink:href="#m0f055b514a" x="375.729494" y="104.301102" style="fill: #daa520; stroke: #daa520"/>
     <use xlink:href="#m0f055b514a" x="291.110423" y="106.404394" style="fill: #daa520; stroke: #daa520"/>
     <use xlink:href="#m0f055b514a" x="105.420042" y="106.397057" style="fill: #daa520; stroke: #daa520"/>
     <use xlink:href="#m0f055b514a" x="275.366716" y="84.298299" style="fill: #daa520; stroke: #daa520"/>
     <use xlink:href="#m0f055b514a" x="290.729315" y="87.388834" style="fill: #daa520; stroke: #daa520"/>
     <use xlink:href="#m0f055b514a" x="276.311462" y="108.469642" style="fill: #daa520; stroke: #daa520"/>
     <use xlink:href="#m0f055b514a" x="284.595818" y="107.484779" style="fill: #daa520; stroke: #daa520"/>
     <use xlink:href="#m0f055b514a" x="190.611608" y="79.307039" style="fill: #daa520; stroke: #daa520"/>
     <use xlink:href="#m0f055b514a" x="175.693535" y="130.833737" style="fill: #daa520; stroke: #daa520"/>
     <use xlink:href="#m0f055b514a" x="205.667983" y="95.159742" style="fill: #daa520; stroke: #daa520"/>
     <use xlink:href="#m0f055b514a" x="113.749349" y="129.833998" style="fill: #daa520; stroke: #daa520"/>
     <use xlink:href="#m0f055b514a" x="187.821912" y="87.719374" style="fill: #daa520; stroke: #daa520"/>
     <use xlink:href="#m0f055b514a" x="377.997171" y="99.868527" style="fill: #daa520; stroke: #daa520"/>
     <use xlink:href="#m0f055b514a" x="331.215779" y="93.534539" style="fill: #daa520; stroke: #daa520"/>
     <use xlink:href="#m0f055b514a" x="403.445587" y="109.243653" style="fill: #daa520; stroke: #daa520"/>
     <use xlink:href="#m0f055b514a" x="177.603923" y="109.507609" style="fill: #daa520; stroke: #daa520"/>
     <use xlink:href="#m0f055b514a" x="267.07855" y="88.6415" style="fill: #daa520; stroke: #daa520"/>
     <use xlink:href="#m0f055b514a" x="106.07771" y="96.60026" style="fill: #daa520; stroke: #daa520"/>
     <use xlink:href="#m0f055b514a" x="121.961418" y="97.454185" style="fill: #daa520; stroke: #daa520"/>
     <use xlink:href="#m0f055b514a" x="202.263338" y="80.836501" style="fill: #daa520; stroke: #daa520"/>
     <use xlink:href="#m0f055b514a" x="70.8764" y="83.24773" style="fill: #daa520; stroke: #daa520"/>
     <use xlink:href="#m0f055b514a" x="336.34667" y="91.573096" style="fill: #daa520; stroke: #daa520"/>
     <use xlink:href="#m0f055b514a" x="326.694011" y="97.706098" style="fill: #daa520; stroke: #daa520"/>
     <use xlink:href="#m0f055b514a" x="319.6439" y="101.434697" style="fill: #daa520; stroke: #daa520"/>
     <use xlink:href="#m0f055b514a" x="74.493423" y="159.092782" style="fill: #daa520; stroke: #daa520"/>
     <use xlink:href="#m0f055b514a" x="238.070704" y="112.043073" style="fill: #daa520; stroke: #daa520"/>
     <use xlink:href="#m0f055b514a" x="343.996132" y="106.597485" style="fill: #daa520; stroke: #daa520"/>
     <use xlink:href="#m0f055b514a" x="179.925403" y="104.006414" style="fill: #daa520; stroke: #daa520"/>
     <use xlink:href="#m0f055b514a" x="108.01801" y="152.076324" style="fill: #daa520; stroke: #daa520"/>
     <use xlink:href="#m0f055b514a" x="128.640705" y="98.745906" style="fill: #daa520; stroke: #daa520"/>
     <use xlink:href="#m0f055b514a" x="180.318222" y="138.421376" style="fill: #daa520; stroke: #daa520"/>
     <use xlink:href="#m0f055b514a" x="217.802925" y="105.196332" style="fill: #daa520; stroke: #daa520"/>
     <use xlink:href="#m0f055b514a" x="82.080419" y="161.061791" style="fill: #daa520; stroke: #daa520"/>
     <use xlink:href="#m0f055b514a" x="159.1715" y="88.500308" style="fill: #daa520; stroke: #daa520"/>
     <use xlink:href="#m0f055b514a" x="250.667857" y="113.684884" style="fill: #daa520; stroke: #daa520"/>
     <use xlink:href="#m0f055b514a" x="123.304778" y="136.693718" style="fill: #daa520; stroke: #daa520"/>
     <use xlink:href="#m0f055b514a" x="71.557795" y="157.238487" style="fill: #daa520; stroke: #daa520"/>
     <use xlink:href="#m0f055b514a" x="135.044599" y="95.952832" style="fill: #daa520; stroke: #daa520"/>
     <use xlink:href="#m0f055b514a" x="395.050044" y="116.279828" style="fill: #daa520; stroke: #daa520"/>
     <use xlink:href="#m0f055b514a" x="59.470105" y="138.622182" style="fill: #daa520; stroke: #daa520"/>
     <use xlink:href="#m0f055b514a" x="348.581572" y="91.73082" style="fill: #daa520; stroke: #daa520"/>
     <use xlink:href="#m0f055b514a" x="147.764072" y="102.452005" style="fill: #daa520; stroke: #daa520"/>
     <use xlink:href="#m0f055b514a" x="113.570536" y="154.814926" style="fill: #daa520; stroke: #daa520"/>
     <use xlink:href="#m0f055b514a" x="311.831206" y="88.712274" style="fill: #daa520; stroke: #daa520"/>
     <use xlink:href="#m0f055b514a" x="245.247187" y="108.796834" style="fill: #daa520; stroke: #daa520"/>
     <use xlink:href="#m0f055b514a" x="97.68853" y="93.225692" style="fill: #daa520; stroke: #daa520"/>
     <use xlink:href="#m0f055b514a" x="389.721952" y="105.690403" style="fill: #daa520; stroke: #daa520"/>
     <use xlink:href="#m0f055b514a" x="385.777337" y="114.344996" style="fill: #daa520; stroke: #daa520"/>
     <use xlink:href="#m0f055b514a" x="60.679774" y="76.076052" style="fill: #daa520; stroke: #daa520"/>
     <use xlink:href="#m0f055b514a" x="303.396209" y="100.660681" style="fill: #daa520; stroke: #daa520"/>
     <use xlink:href="#m0f055b514a" x="189.776954" y="112.094394" style="fill: #daa520; stroke: #daa520"/>
     <use xlink:href="#m0f055b514a" x="115.404821" y="103.946866" style="fill: #daa520; stroke: #daa520"/>
     <use xlink:href="#m0f055b514a" x="96.315326" y="114.709546" style="fill: #daa520; stroke: #daa520"/>
     <use xlink:href="#m0f055b514a" x="375.065097" y="104.896094" style="fill: #daa520; stroke: #daa520"/>
     <use xlink:href="#m0f055b514a" x="200.166007" y="112.077498" style="fill: #daa520; stroke: #daa520"/>
     <use xlink:href="#m0f055b514a" x="66.491097" y="86.144068" style="fill: #daa520; stroke: #daa520"/>
     <use xlink:href="#m0f055b514a" x="375.147139" y="108.065253" style="fill: #daa520; stroke: #daa520"/>
     <use xlink:href="#m0f055b514a" x="370.367552" y="111.68261" style="fill: #daa520; stroke: #daa520"/>
     <use xlink:href="#m0f055b514a" x="90.48255" y="127.807442" style="fill: #daa520; stroke: #daa520"/>
     <use xlink:href="#m0f055b514a" x="139.706048" y="107.558202" style="fill: #daa520; stroke: #daa520"/>
     <use xlink:href="#m0f055b514a" x="225.607215" y="84.358104" style="fill: #daa520; stroke: #daa520"/>
     <use xlink:href="#m0f055b514a" x="337.789162" y="93.7762" style="fill: #daa520; stroke: #daa520"/>
     <use xlink:href="#m0f055b514a" x="248.640787" y="101.158617" style="fill: #daa520; stroke: #daa520"/>
     <use xlink:href="#m0f055b514a" x="329.013933" y="91.548095" style="fill: #daa520; stroke: #daa520"/>
     <use xlink:href="#m0f055b514a" x="383.151421" y="103.576207" style="fill: #daa520; stroke: #daa520"/>
     <use xlink:href="#m0f055b514a" x="76.714204" y="124.836934" style="fill: #daa520; stroke: #daa520"/>
     <use xlink:href="#m0f055b514a" x="241.705017" y="87.62168" style="fill: #daa520; stroke: #daa520"/>
     <use xlink:href="#m0f055b514a" x="353.997589" y="101.625814" style="fill: #daa520; stroke: #daa520"/>
     <use xlink:href="#m0f055b514a" x="106.91247" y="157.02704" style="fill: #daa520; stroke: #daa520"/>
     <use xlink:href="#m0f055b514a" x="271.083301" y="102.188691" style="fill: #daa520; stroke: #daa520"/>
     <use xlink:href="#m0f055b514a" x="370.450693" y="91.39822" style="fill: #daa520; stroke: #daa520"/>
     <use xlink:href="#m0f055b514a" x="290.598385" y="102.15275" style="fill: #daa520; stroke: #daa520"/>
     <use xlink:href="#m0f055b514a" x="159.939549" y="139.331573" style="fill: #daa520; stroke: #daa520"/>
     <use xlink:href="#m0f055b514a" x="223.675988" y="77.623487" style="fill: #daa520; stroke: #daa520"/>
     <use xlink:href="#m0f055b514a" x="396.377437" y="117.566146" style="fill: #daa520; stroke: #daa520"/>
     <use xlink:href="#m0f055b514a" x="216.894427" y="102.457789" style="fill: #daa520; stroke: #daa520"/>
     <use xlink:href="#m0f055b514a" x="265.063094" y="120.067903" style="fill: #daa520; stroke: #daa520"/>
     <use xlink:href="#m0f055b514a" x="282.013176" y="107.705028" style="fill: #daa520; stroke: #daa520"/>
     <use xlink:href="#m0f055b514a" x="266.120866" y="101.502516" style="fill: #daa520; stroke: #daa520"/>
     <use xlink:href="#m0f055b514a" x="351.318631" y="106.794604" style="fill: #daa520; stroke: #daa520"/>
     <use xlink:href="#m0f055b514a" x="393.26291" y="107.846872" style="fill: #daa520; stroke: #daa520"/>
     <use xlink:href="#m0f055b514a" x="117.804791" y="108.688689" style="fill: #daa520; stroke: #daa520"/>
     <use xlink:href="#m0f055b514a" x="162.35499" y="88.671748" style="fill: #daa520; stroke: #daa520"/>
     <use xlink:href="#m0f055b514a" x="98.698267" y="121.842419" style="fill: #daa520; stroke: #daa520"/>
     <use xlink:href="#m0f055b514a" x="85.3679" y="94.133287" style="fill: #daa520; stroke: #daa520"/>
     <use xlink:href="#m0f055b514a" x="215.209806" y="126.80011" style="fill: #daa520; stroke: #daa520"/>
    </g>
   </g>
   <g id="matplotlib.axis_3"/>
   <g id="matplotlib.axis_4">
    <g id="ytick_1">
     <g id="line2d_3">
      <defs>
       <path id="md8197b43fe" d="M 0 0 
L -3.5 0 
" style="stroke: #696969; stroke-width: 0.8"/>
      </defs>
      <g>
       <use xlink:href="#md8197b43fe" x="37.7875" y="157.153868" style="fill: #696969; stroke: #696969; stroke-width: 0.8"/>
      </g>
     </g>
     <g id="text_1">
      <!-- −5 -->
      <g style="fill: #696969" transform="translate(7.2 163.232618) scale(0.16 -0.16)">
       <defs>
        <path id="DejaVuSans-2212" d="M 678 2272 
L 4684 2272 
L 4684 1741 
L 678 1741 
L 678 2272 
z
" transform="scale(0.015625)"/>
        <path id="DejaVuSans-35" d="M 691 4666 
L 3169 4666 
L 3169 4134 
L 1269 4134 
L 1269 2991 
Q 1406 3038 1543 3061 
Q 1681 3084 1819 3084 
Q 2600 3084 3056 2656 
Q 3513 2228 3513 1497 
Q 3513 744 3044 326 
Q 2575 -91 1722 -91 
Q 1428 -91 1123 -41 
Q 819 9 494 109 
L 494 744 
Q 775 591 1075 516 
Q 1375 441 1709 441 
Q 2250 441 2565 725 
Q 2881 1009 2881 1497 
Q 2881 1984 2565 2268 
Q 2250 2553 1709 2553 
Q 1456 2553 1204 2497 
Q 953 2441 691 2322 
L 691 4666 
z
" transform="scale(0.015625)"/>
       </defs>
       <use xlink:href="#DejaVuSans-2212"/>
       <use xlink:href="#DejaVuSans-35" x="83.789062"/>
      </g>
     </g>
    </g>
    <g id="ytick_2">
     <g id="line2d_4">
      <g>
       <use xlink:href="#md8197b43fe" x="37.7875" y="108.701169" style="fill: #696969; stroke: #696969; stroke-width: 0.8"/>
      </g>
     </g>
     <g id="text_2">
      <!-- 0 -->
      <g style="fill: #696969" transform="translate(20.6075 114.779919) scale(0.16 -0.16)">
       <defs>
        <path id="DejaVuSans-30" d="M 2034 4250 
Q 1547 4250 1301 3770 
Q 1056 3291 1056 2328 
Q 1056 1369 1301 889 
Q 1547 409 2034 409 
Q 2525 409 2770 889 
Q 3016 1369 3016 2328 
Q 3016 3291 2770 3770 
Q 2525 4250 2034 4250 
z
M 2034 4750 
Q 2819 4750 3233 4129 
Q 3647 3509 3647 2328 
Q 3647 1150 3233 529 
Q 2819 -91 2034 -91 
Q 1250 -91 836 529 
Q 422 1150 422 2328 
Q 422 3509 836 4129 
Q 1250 4750 2034 4750 
z
" transform="scale(0.015625)"/>
       </defs>
       <use xlink:href="#DejaVuSans-30"/>
      </g>
     </g>
    </g>
   </g>
   <g id="line2d_5">
    <path d="M 55.888409 112.905562 
L 63.128773 114.976327 
L 70.369136 116.835668 
L 77.6095 118.420383 
L 84.849864 119.676955 
L 92.090227 120.564245 
L 99.330591 121.055711 
L 106.570955 121.14095 
L 113.811318 120.826467 
L 121.051682 120.135488 
L 128.292045 119.106837 
L 135.532409 117.792845 
L 142.772773 116.256417 
L 150.013136 114.567448 
L 157.2535 112.798789 
L 164.493864 111.022079 
L 171.734227 109.303743 
L 178.974591 107.701395 
L 186.214955 106.261002 
L 193.455318 105.01486 
L 200.695682 103.980662 
L 207.936045 103.161536 
L 215.176409 102.547107 
L 222.416773 102.115384 
L 229.657136 101.83535 
L 236.8975 101.669951 
L 244.137864 101.579296 
L 251.378227 101.523825 
L 258.618591 101.467213 
L 265.858955 101.378865 
L 273.099318 101.235848 
L 280.339682 101.024217 
L 287.580045 100.739664 
L 294.820409 100.387553 
L 302.060773 99.9823 
L 309.301136 99.546266 
L 316.5415 99.108148 
L 323.781864 98.701042 
L 331.022227 98.360266 
L 338.262591 98.121047 
L 345.502955 98.01622 
L 352.743318 98.074064 
L 359.983682 98.316376 
L 367.224045 98.756904 
L 374.464409 99.400241 
L 381.704773 100.241196 
L 388.945136 101.264713 
L 396.1855 102.446295 
L 403.425864 103.752934 
L 410.666227 105.144438 
L 417.906591 106.575073 
" clip-path="url(#p15fe0e5a8d)" style="fill: none; stroke: #000000; stroke-width: 2; stroke-linecap: square"/>
   </g>
   <g id="line2d_6">
    <path d="M 55.888409 129.855294 
L 63.128773 127.67457 
L 70.369136 125.628268 
L 77.6095 123.707843 
L 84.849864 121.905168 
L 92.090227 120.212534 
L 99.330591 118.622648 
L 106.570955 117.128637 
L 113.811318 115.724042 
L 121.051682 114.402826 
L 128.292045 113.159364 
L 135.532409 111.988454 
L 142.772773 110.885307 
L 150.013136 109.845554 
L 157.2535 108.865244 
L 164.493864 107.94084 
L 171.734227 107.069227 
L 178.974591 106.247704 
L 186.214955 105.473989 
L 193.455318 104.746217 
L 200.695682 104.062941 
L 207.936045 103.423132 
L 215.176409 102.826176 
L 222.416773 102.27188 
L 229.657136 101.760464 
L 236.8975 101.292571 
L 244.137864 100.869257 
L 251.378227 100.491997 
L 258.618591 100.162683 
L 265.858955 99.883627 
L 273.099318 99.657554 
L 280.339682 99.487611 
L 287.580045 99.37736 
L 294.820409 99.33078 
L 302.060773 99.352268 
L 309.301136 99.446641 
L 316.5415 99.619129 
L 323.781864 99.875384 
L 331.022227 100.221472 
L 338.262591 100.663877 
L 345.502955 101.209503 
L 352.743318 101.865668 
L 359.983682 102.640111 
L 367.224045 103.540985 
L 374.464409 104.576864 
L 381.704773 105.756735 
L 388.945136 107.090008 
L 396.1855 108.586505 
L 403.425864 110.25647 
L 410.666227 112.110562 
L 417.906591 114.159857 
" clip-path="url(#p15fe0e5a8d)" style="fill: none; stroke-dasharray: 7.4,3.2; stroke-dashoffset: 0; stroke: #34b6c6; stroke-width: 2"/>
   </g>
   <g id="line2d_7">
    <path d="M 55.888409 124.822952 
L 63.128773 123.727437 
L 70.369136 123.046001 
L 77.6095 122.630646 
L 84.849864 122.295188 
L 92.090227 121.880268 
L 99.330591 121.295127 
L 106.570955 120.508607 
L 113.811318 119.513758 
L 121.051682 118.299865 
L 128.292045 116.844291 
L 135.532409 115.120926 
L 142.772773 113.121961 
L 150.013136 110.89359 
L 157.2535 108.569126 
L 164.493864 106.352679 
L 171.734227 104.437262 
L 178.974591 102.925326 
L 186.214955 101.818124 
L 193.455318 101.056994 
L 200.695682 100.566922 
L 207.936045 100.280207 
L 215.176409 100.143464 
L 222.416773 100.116636 
L 229.657136 100.1697 
L 236.8975 100.279425 
L 244.137864 100.42684 
L 251.378227 100.595315 
L 258.618591 100.768984 
L 265.858955 100.931211 
L 273.099318 101.062954 
L 280.339682 101.141241 
L 287.580045 101.138751 
L 294.820409 101.026682 
L 302.060773 100.784107 
L 309.301136 100.415309 
L 316.5415 99.968914 
L 323.781864 99.542226 
L 331.022227 99.257286 
L 338.262591 99.220193 
L 345.502955 99.493954 
L 352.743318 100.099534 
L 359.983682 101.032882 
L 367.224045 102.280047 
L 374.464409 103.82325 
L 381.704773 105.640379 
L 388.945136 107.70321 
L 396.1855 109.978311 
L 403.425864 112.431539 
L 410.666227 115.034322 
L 417.906591 117.768837 
" clip-path="url(#p15fe0e5a8d)" style="fill: none; stroke-dasharray: 7.4,3.2; stroke-dashoffset: 0; stroke: #9370db; stroke-width: 2"/>
   </g>
   <g id="line2d_8">
    <path d="M 55.888409 96.73878 
L 63.128773 98.077892 
L 70.369136 99.603744 
L 77.6095 101.19243 
L 84.849864 102.683849 
L 92.090227 103.942327 
L 99.330591 104.895568 
L 106.570955 105.526263 
L 113.811318 105.839086 
L 121.051682 105.834619 
L 128.292045 105.50174 
L 135.532409 104.825502 
L 142.772773 103.807439 
L 150.013136 102.49885 
L 157.2535 101.03168 
L 164.493864 99.603297 
L 171.734227 98.40014 
L 178.974591 97.52362 
L 186.214955 96.980205 
L 193.455318 96.719913 
L 200.695682 96.676927 
L 207.936045 96.791668 
L 215.176409 97.017314 
L 222.416773 97.31889 
L 229.657136 97.670185 
L 236.8975 98.050741 
L 244.137864 98.443484 
L 251.378227 98.832935 
L 258.618591 99.203745 
L 265.858955 99.539261 
L 273.099318 99.819997 
L 280.339682 100.022224 
L 287.580045 100.117566 
L 294.820409 100.075683 
L 302.060773 99.872991 
L 309.301136 99.508829 
L 316.5415 99.023293 
L 323.781864 98.501282 
L 331.022227 98.050174 
L 338.262591 97.761898 
L 345.502955 97.687618 
L 352.743318 97.838708 
L 359.983682 98.202639 
L 367.224045 98.75706 
L 374.464409 99.475465 
L 381.704773 100.326724 
L 388.945136 101.273424 
L 396.1855 102.272707 
L 403.425864 103.280469 
L 410.666227 104.257212 
L 417.906591 105.172878 
" clip-path="url(#p15fe0e5a8d)" style="fill: none; stroke-dasharray: 12.8,3.2,2,3.2; stroke-dashoffset: 0; stroke: #ff0000; stroke-width: 2"/>
   </g>
   <g id="patch_4">
    <path d="M 37.7875 165.311078 
L 37.7875 71.826765 
" style="fill: none; stroke: #000000; stroke-width: 0.8; stroke-linejoin: miter; stroke-linecap: square"/>
   </g>
   <g id="patch_5">
    <path d="M 436.0075 165.311078 
L 436.0075 71.826765 
" style="fill: none; stroke: #000000; stroke-width: 0.8; stroke-linejoin: miter; stroke-linecap: square"/>
   </g>
   <g id="patch_6">
    <path d="M 37.7875 165.311078 
L 436.0075 165.311078 
" style="fill: none; stroke: #000000; stroke-width: 0.8; stroke-linejoin: miter; stroke-linecap: square"/>
   </g>
   <g id="patch_7">
    <path d="M 37.7875 71.826765 
L 436.0075 71.826765 
" style="fill: none; stroke: #000000; stroke-width: 0.8; stroke-linejoin: miter; stroke-linecap: square"/>
   </g>
  </g>
  <g id="axes_3">
   <g id="patch_8">
    <path d="M 37.7875 276.68 
L 436.0075 276.68 
L 436.0075 183.195687 
L 37.7875 183.195687 
z
" style="fill: #ffffff"/>
   </g>
   <g id="PathCollection_2">
    <g clip-path="url(#pd04e7b2c1b)">
     <use xlink:href="#m0f055b514a" x="265.260676" y="251.672358" style="fill: #daa520; stroke: #daa520"/>
     <use xlink:href="#m0f055b514a" x="199.48051" y="255.040976" style="fill: #daa520; stroke: #daa520"/>
     <use xlink:href="#m0f055b514a" x="238.007128" y="270.329072" style="fill: #daa520; stroke: #daa520"/>
     <use xlink:href="#m0f055b514a" x="158.472129" y="250.504888" style="fill: #daa520; stroke: #daa520"/>
     <use xlink:href="#m0f055b514a" x="312.252931" y="242.565891" style="fill: #daa520; stroke: #daa520"/>
     <use xlink:href="#m0f055b514a" x="288.487031" y="246.835206" style="fill: #daa520; stroke: #daa520"/>
     <use xlink:href="#m0f055b514a" x="92.016266" y="199.274325" style="fill: #daa520; stroke: #daa520"/>
     <use xlink:href="#m0f055b514a" x="257.613451" y="245.285947" style="fill: #daa520; stroke: #daa520"/>
     <use xlink:href="#m0f055b514a" x="86.807371" y="260.544784" style="fill: #daa520; stroke: #daa520"/>
     <use xlink:href="#m0f055b514a" x="255.035204" y="231.576234" style="fill: #daa520; stroke: #daa520"/>
     <use xlink:href="#m0f055b514a" x="149.506492" y="256.080684" style="fill: #daa520; stroke: #daa520"/>
     <use xlink:href="#m0f055b514a" x="112.085267" y="260.562794" style="fill: #daa520; stroke: #daa520"/>
     <use xlink:href="#m0f055b514a" x="405.926756" y="235.605961" style="fill: #daa520; stroke: #daa520"/>
     <use xlink:href="#m0f055b514a" x="237.397777" y="223.783237" style="fill: #daa520; stroke: #daa520"/>
     <use xlink:href="#m0f055b514a" x="58.879581" y="187.444974" style="fill: #daa520; stroke: #daa520"/>
     <use xlink:href="#m0f055b514a" x="287.88311" y="247.738719" style="fill: #daa520; stroke: #daa520"/>
     <use xlink:href="#m0f055b514a" x="290.572532" y="262.975579" style="fill: #daa520; stroke: #daa520"/>
     <use xlink:href="#m0f055b514a" x="264.581128" y="238.925263" style="fill: #daa520; stroke: #daa520"/>
     <use xlink:href="#m0f055b514a" x="186.344043" y="261.373419" style="fill: #daa520; stroke: #daa520"/>
     <use xlink:href="#m0f055b514a" x="373.848452" y="249.88052" style="fill: #daa520; stroke: #daa520"/>
     <use xlink:href="#m0f055b514a" x="327.482642" y="252.895477" style="fill: #daa520; stroke: #daa520"/>
     <use xlink:href="#m0f055b514a" x="76.758522" y="210.187986" style="fill: #daa520; stroke: #daa520"/>
     <use xlink:href="#m0f055b514a" x="121.593054" y="197.099859" style="fill: #daa520; stroke: #daa520"/>
     <use xlink:href="#m0f055b514a" x="375.729494" y="244.993896" style="fill: #daa520; stroke: #daa520"/>
     <use xlink:href="#m0f055b514a" x="291.110423" y="243.315999" style="fill: #daa520; stroke: #daa520"/>
     <use xlink:href="#m0f055b514a" x="105.420042" y="248.904741" style="fill: #daa520; stroke: #daa520"/>
     <use xlink:href="#m0f055b514a" x="275.366716" y="266.223985" style="fill: #daa520; stroke: #daa520"/>
     <use xlink:href="#m0f055b514a" x="290.729315" y="263.224112" style="fill: #daa520; stroke: #daa520"/>
     <use xlink:href="#m0f055b514a" x="276.311462" y="240.949815" style="fill: #daa520; stroke: #daa520"/>
     <use xlink:href="#m0f055b514a" x="284.595818" y="242.161065" style="fill: #daa520; stroke: #daa520"/>
     <use xlink:href="#m0f055b514a" x="190.611608" y="268.203366" style="fill: #daa520; stroke: #daa520"/>
     <use xlink:href="#m0f055b514a" x="175.693535" y="215.399671" style="fill: #daa520; stroke: #daa520"/>
     <use xlink:href="#m0f055b514a" x="205.667983" y="251.555066" style="fill: #daa520; stroke: #daa520"/>
     <use xlink:href="#m0f055b514a" x="113.749349" y="224.7787" style="fill: #daa520; stroke: #daa520"/>
     <use xlink:href="#m0f055b514a" x="187.821912" y="259.509761" style="fill: #daa520; stroke: #daa520"/>
     <use xlink:href="#m0f055b514a" x="377.997171" y="249.907081" style="fill: #daa520; stroke: #daa520"/>
     <use xlink:href="#m0f055b514a" x="331.215779" y="254.615363" style="fill: #daa520; stroke: #daa520"/>
     <use xlink:href="#m0f055b514a" x="403.445587" y="243.659224" style="fill: #daa520; stroke: #daa520"/>
     <use xlink:href="#m0f055b514a" x="177.603923" y="237.499614" style="fill: #daa520; stroke: #daa520"/>
     <use xlink:href="#m0f055b514a" x="267.07855" y="261.361168" style="fill: #daa520; stroke: #daa520"/>
     <use xlink:href="#m0f055b514a" x="106.07771" y="259.208582" style="fill: #daa520; stroke: #daa520"/>
     <use xlink:href="#m0f055b514a" x="121.961418" y="258.647248" style="fill: #daa520; stroke: #daa520"/>
     <use xlink:href="#m0f055b514a" x="202.263338" y="266.495098" style="fill: #daa520; stroke: #daa520"/>
     <use xlink:href="#m0f055b514a" x="70.8764" y="267.137179" style="fill: #daa520; stroke: #daa520"/>
     <use xlink:href="#m0f055b514a" x="336.34667" y="256.436937" style="fill: #daa520; stroke: #daa520"/>
     <use xlink:href="#m0f055b514a" x="326.694011" y="250.526242" style="fill: #daa520; stroke: #daa520"/>
     <use xlink:href="#m0f055b514a" x="319.6439" y="247.138591" style="fill: #daa520; stroke: #daa520"/>
     <use xlink:href="#m0f055b514a" x="74.493423" y="188.573425" style="fill: #daa520; stroke: #daa520"/>
     <use xlink:href="#m0f055b514a" x="238.070704" y="235.317362" style="fill: #daa520; stroke: #daa520"/>
     <use xlink:href="#m0f055b514a" x="343.996132" y="240.568323" style="fill: #daa520; stroke: #daa520"/>
     <use xlink:href="#m0f055b514a" x="179.925403" y="243.018582" style="fill: #daa520; stroke: #daa520"/>
     <use xlink:href="#m0f055b514a" x="108.01801" y="201.26041" style="fill: #daa520; stroke: #daa520"/>
     <use xlink:href="#m0f055b514a" x="128.640705" y="256.94536" style="fill: #daa520; stroke: #daa520"/>
     <use xlink:href="#m0f055b514a" x="180.318222" y="206.954723" style="fill: #daa520; stroke: #daa520"/>
     <use xlink:href="#m0f055b514a" x="217.802925" y="241.4437" style="fill: #daa520; stroke: #daa520"/>
     <use xlink:href="#m0f055b514a" x="82.080419" y="188.211824" style="fill: #daa520; stroke: #daa520"/>
     <use xlink:href="#m0f055b514a" x="159.1715" y="262.608081" style="fill: #daa520; stroke: #daa520"/>
     <use xlink:href="#m0f055b514a" x="250.667857" y="234.311889" style="fill: #daa520; stroke: #daa520"/>
     <use xlink:href="#m0f055b514a" x="123.304778" y="217.52362" style="fill: #daa520; stroke: #daa520"/>
     <use xlink:href="#m0f055b514a" x="71.557795" y="189.837523" style="fill: #daa520; stroke: #daa520"/>
     <use xlink:href="#m0f055b514a" x="135.044599" y="259.246239" style="fill: #daa520; stroke: #daa520"/>
     <use xlink:href="#m0f055b514a" x="395.050044" y="235.0699" style="fill: #daa520; stroke: #daa520"/>
     <use xlink:href="#m0f055b514a" x="59.470105" y="206.717432" style="fill: #daa520; stroke: #daa520"/>
     <use xlink:href="#m0f055b514a" x="348.581572" y="256.173466" style="fill: #daa520; stroke: #daa520"/>
     <use xlink:href="#m0f055b514a" x="147.764072" y="250.39946" style="fill: #daa520; stroke: #daa520"/>
     <use xlink:href="#m0f055b514a" x="113.570536" y="198.623567" style="fill: #daa520; stroke: #daa520"/>
     <use xlink:href="#m0f055b514a" x="311.831206" y="261.034259" style="fill: #daa520; stroke: #daa520"/>
     <use xlink:href="#m0f055b514a" x="245.247187" y="239.123672" style="fill: #daa520; stroke: #daa520"/>
     <use xlink:href="#m0f055b514a" x="97.68853" y="261.918578" style="fill: #daa520; stroke: #daa520"/>
     <use xlink:href="#m0f055b514a" x="389.721952" y="245.385426" style="fill: #daa520; stroke: #daa520"/>
     <use xlink:href="#m0f055b514a" x="385.777337" y="235.771944" style="fill: #daa520; stroke: #daa520"/>
     <use xlink:href="#m0f055b514a" x="60.679774" y="272.430713" style="fill: #daa520; stroke: #daa520"/>
     <use xlink:href="#m0f055b514a" x="303.396209" y="249.016094" style="fill: #daa520; stroke: #daa520"/>
     <use xlink:href="#m0f055b514a" x="189.776954" y="233.909943" style="fill: #daa520; stroke: #daa520"/>
     <use xlink:href="#m0f055b514a" x="115.404821" y="251.90741" style="fill: #daa520; stroke: #daa520"/>
     <use xlink:href="#m0f055b514a" x="96.315326" y="239.250568" style="fill: #daa520; stroke: #daa520"/>
     <use xlink:href="#m0f055b514a" x="375.065097" y="244.293476" style="fill: #daa520; stroke: #daa520"/>
     <use xlink:href="#m0f055b514a" x="200.166007" y="233.773987" style="fill: #daa520; stroke: #daa520"/>
     <use xlink:href="#m0f055b514a" x="66.491097" y="263.115434" style="fill: #daa520; stroke: #daa520"/>
     <use xlink:href="#m0f055b514a" x="375.147139" y="240.9854" style="fill: #daa520; stroke: #daa520"/>
     <use xlink:href="#m0f055b514a" x="370.367552" y="236.675122" style="fill: #daa520; stroke: #daa520"/>
     <use xlink:href="#m0f055b514a" x="90.48255" y="224.649492" style="fill: #daa520; stroke: #daa520"/>
     <use xlink:href="#m0f055b514a" x="139.706048" y="246.465739" style="fill: #daa520; stroke: #daa520"/>
     <use xlink:href="#m0f055b514a" x="225.607215" y="263.623691" style="fill: #daa520; stroke: #daa520"/>
     <use xlink:href="#m0f055b514a" x="337.789162" y="254.084455" style="fill: #daa520; stroke: #daa520"/>
     <use xlink:href="#m0f055b514a" x="248.640787" y="247.31152" style="fill: #daa520; stroke: #daa520"/>
     <use xlink:href="#m0f055b514a" x="329.013933" y="256.822815" style="fill: #daa520; stroke: #daa520"/>
     <use xlink:href="#m0f055b514a" x="383.151421" y="246.688577" style="fill: #daa520; stroke: #daa520"/>
     <use xlink:href="#m0f055b514a" x="76.714204" y="224.943372" style="fill: #daa520; stroke: #daa520"/>
     <use xlink:href="#m0f055b514a" x="241.705017" y="261.088969" style="fill: #daa520; stroke: #daa520"/>
     <use xlink:href="#m0f055b514a" x="353.997589" y="245.984998" style="fill: #daa520; stroke: #daa520"/>
     <use xlink:href="#m0f055b514a" x="106.91247" y="196.008827" style="fill: #daa520; stroke: #daa520"/>
     <use xlink:href="#m0f055b514a" x="271.083301" y="247.344491" style="fill: #daa520; stroke: #daa520"/>
     <use xlink:href="#m0f055b514a" x="370.450693" y="257.918109" style="fill: #daa520; stroke: #daa520"/>
     <use xlink:href="#m0f055b514a" x="290.598385" y="247.769264" style="fill: #daa520; stroke: #daa520"/>
     <use xlink:href="#m0f055b514a" x="159.939549" y="209.233985" style="fill: #daa520; stroke: #daa520"/>
     <use xlink:href="#m0f055b514a" x="223.675988" y="270.57761" style="fill: #daa520; stroke: #daa520"/>
     <use xlink:href="#m0f055b514a" x="396.377437" y="233.917174" style="fill: #daa520; stroke: #daa520"/>
     <use xlink:href="#m0f055b514a" x="216.894427" y="244.272436" style="fill: #daa520; stroke: #daa520"/>
     <use xlink:href="#m0f055b514a" x="265.063094" y="228.372516" style="fill: #daa520; stroke: #daa520"/>
     <use xlink:href="#m0f055b514a" x="282.013176" y="241.890392" style="fill: #daa520; stroke: #daa520"/>
     <use xlink:href="#m0f055b514a" x="266.120866" y="247.855415" style="fill: #daa520; stroke: #daa520"/>
     <use xlink:href="#m0f055b514a" x="351.318631" y="240.474139" style="fill: #daa520; stroke: #daa520"/>
     <use xlink:href="#m0f055b514a" x="393.26291" y="243.637735" style="fill: #daa520; stroke: #daa520"/>
     <use xlink:href="#m0f055b514a" x="117.804791" y="246.954781" style="fill: #daa520; stroke: #daa520"/>
     <use xlink:href="#m0f055b514a" x="162.35499" y="261.767126" style="fill: #daa520; stroke: #daa520"/>
     <use xlink:href="#m0f055b514a" x="98.698267" y="232.084581" style="fill: #daa520; stroke: #daa520"/>
     <use xlink:href="#m0f055b514a" x="85.3679" y="258.95357" style="fill: #daa520; stroke: #daa520"/>
     <use xlink:href="#m0f055b514a" x="215.209806" y="218.722431" style="fill: #daa520; stroke: #daa520"/>
    </g>
   </g>
   <g id="matplotlib.axis_5">
    <g id="xtick_1">
     <g id="line2d_9">
      <defs>
       <path id="m6847858702" d="M 0 0 
L 0 3.5 
" style="stroke: #696969; stroke-width: 0.8"/>
      </defs>
      <g>
       <use xlink:href="#m6847858702" x="55.888409" y="276.68" style="fill: #696969; stroke: #696969; stroke-width: 0.8"/>
      </g>
     </g>
     <g id="text_3">
      <!-- −1.0 -->
      <g style="fill: #696969" transform="translate(36.462159 295.8375) scale(0.16 -0.16)">
       <defs>
        <path id="DejaVuSans-31" d="M 794 531 
L 1825 531 
L 1825 4091 
L 703 3866 
L 703 4441 
L 1819 4666 
L 2450 4666 
L 2450 531 
L 3481 531 
L 3481 0 
L 794 0 
L 794 531 
z
" transform="scale(0.015625)"/>
        <path id="DejaVuSans-2e" d="M 684 794 
L 1344 794 
L 1344 0 
L 684 0 
L 684 794 
z
" transform="scale(0.015625)"/>
       </defs>
       <use xlink:href="#DejaVuSans-2212"/>
       <use xlink:href="#DejaVuSans-31" x="83.789062"/>
       <use xlink:href="#DejaVuSans-2e" x="147.412109"/>
       <use xlink:href="#DejaVuSans-30" x="179.199219"/>
      </g>
     </g>
    </g>
    <g id="xtick_2">
     <g id="line2d_10">
      <g>
       <use xlink:href="#m6847858702" x="146.392955" y="276.68" style="fill: #696969; stroke: #696969; stroke-width: 0.8"/>
      </g>
     </g>
     <g id="text_4">
      <!-- −0.5 -->
      <g style="fill: #696969" transform="translate(126.966705 295.8375) scale(0.16 -0.16)">
       <use xlink:href="#DejaVuSans-2212"/>
       <use xlink:href="#DejaVuSans-30" x="83.789062"/>
       <use xlink:href="#DejaVuSans-2e" x="147.412109"/>
       <use xlink:href="#DejaVuSans-35" x="179.199219"/>
      </g>
     </g>
    </g>
    <g id="xtick_3">
     <g id="line2d_11">
      <g>
       <use xlink:href="#m6847858702" x="236.8975" y="276.68" style="fill: #696969; stroke: #696969; stroke-width: 0.8"/>
      </g>
     </g>
     <g id="text_5">
      <!-- 0.0 -->
      <g style="fill: #696969" transform="translate(224.175 295.8375) scale(0.16 -0.16)">
       <use xlink:href="#DejaVuSans-30"/>
       <use xlink:href="#DejaVuSans-2e" x="63.623047"/>
       <use xlink:href="#DejaVuSans-30" x="95.410156"/>
      </g>
     </g>
    </g>
    <g id="xtick_4">
     <g id="line2d_12">
      <g>
       <use xlink:href="#m6847858702" x="327.402045" y="276.68" style="fill: #696969; stroke: #696969; stroke-width: 0.8"/>
      </g>
     </g>
     <g id="text_6">
      <!-- 0.5 -->
      <g style="fill: #696969" transform="translate(314.679545 295.8375) scale(0.16 -0.16)">
       <use xlink:href="#DejaVuSans-30"/>
       <use xlink:href="#DejaVuSans-2e" x="63.623047"/>
       <use xlink:href="#DejaVuSans-35" x="95.410156"/>
      </g>
     </g>
    </g>
    <g id="xtick_5">
     <g id="line2d_13">
      <g>
       <use xlink:href="#m6847858702" x="417.906591" y="276.68" style="fill: #696969; stroke: #696969; stroke-width: 0.8"/>
      </g>
     </g>
     <g id="text_7">
      <!-- 1.0 -->
      <g style="fill: #696969" transform="translate(405.184091 295.8375) scale(0.16 -0.16)">
       <use xlink:href="#DejaVuSans-31"/>
       <use xlink:href="#DejaVuSans-2e" x="63.623047"/>
       <use xlink:href="#DejaVuSans-30" x="95.410156"/>
      </g>
     </g>
    </g>
    <g id="text_8">
     <!-- $X$ -->
     <g transform="translate(231.3775 315.3225) scale(0.16 -0.16)">
      <defs>
       <path id="DejaVuSans-Oblique-58" d="M 878 4666 
L 1516 4666 
L 2316 2981 
L 3763 4666 
L 4500 4666 
L 2578 2438 
L 3738 0 
L 3103 0 
L 2163 1966 
L 459 0 
L -275 0 
L 1906 2509 
L 878 4666 
z
" transform="scale(0.015625)"/>
      </defs>
      <use xlink:href="#DejaVuSans-Oblique-58" transform="translate(0 0.09375)"/>
     </g>
    </g>
   </g>
   <g id="matplotlib.axis_6">
    <g id="ytick_3">
     <g id="line2d_14">
      <g>
       <use xlink:href="#md8197b43fe" x="37.7875" y="249.898857" style="fill: #696969; stroke: #696969; stroke-width: 0.8"/>
      </g>
     </g>
     <g id="text_9">
      <!-- 0 -->
      <g style="fill: #696969" transform="translate(20.6075 255.977607) scale(0.16 -0.16)">
       <use xlink:href="#DejaVuSans-30"/>
      </g>
     </g>
    </g>
    <g id="ytick_4">
     <g id="line2d_15">
      <g>
       <use xlink:href="#md8197b43fe" x="37.7875" y="199.176793" style="fill: #696969; stroke: #696969; stroke-width: 0.8"/>
      </g>
     </g>
     <g id="text_10">
      <!-- 5 -->
      <g style="fill: #696969" transform="translate(20.6075 205.255543) scale(0.16 -0.16)">
       <use xlink:href="#DejaVuSans-35"/>
      </g>
     </g>
    </g>
   </g>
   <g id="line2d_16">
    <path d="M 55.888409 232.974877 
L 63.128773 232.208955 
L 70.369136 231.859846 
L 77.6095 231.864003 
L 84.849864 232.10985 
L 92.090227 232.498423 
L 99.330591 232.981826 
L 106.570955 233.552829 
L 113.811318 234.209516 
L 121.051682 234.928182 
L 128.292045 235.656542 
L 135.532409 236.324166 
L 142.772773 236.866809 
L 150.013136 237.265006 
L 157.2535 237.580615 
L 164.493864 237.945257 
L 171.734227 238.484565 
L 178.974591 239.244388 
L 186.214955 240.183378 
L 193.455318 241.215402 
L 200.695682 242.253039 
L 207.936045 243.230646 
L 215.176409 244.110067 
L 222.416773 244.87771 
L 229.657136 245.53861 
L 236.8975 246.110136 
L 244.137864 246.616174 
L 251.378227 247.081935 
L 258.618591 247.529377 
L 265.858955 247.973092 
L 273.099318 248.416693 
L 280.339682 248.849935 
L 287.580045 249.247623 
L 294.820409 249.572381 
L 302.060773 249.784429 
L 309.301136 249.859668 
L 316.5415 249.810029 
L 323.781864 249.689741 
L 331.022227 249.574243 
L 338.262591 249.522887 
L 345.502955 249.554865 
L 352.743318 249.652479 
L 359.983682 249.779794 
L 367.224045 249.899021 
L 374.464409 249.977604 
L 381.704773 249.988391 
L 388.945136 249.907977 
L 396.1855 249.717139 
L 403.425864 249.404263 
L 410.666227 248.970077 
L 417.906591 248.430988 
" clip-path="url(#pd04e7b2c1b)" style="fill: none; stroke: #696969; stroke-width: 2; stroke-linecap: square"/>
   </g>
   <g id="line2d_17">
    <path d="M 55.888409 220.14322 
L 63.128773 222.768667 
L 70.369136 225.175918 
L 77.6095 227.380322 
L 84.849864 229.396586 
L 92.090227 231.238773 
L 99.330591 232.920305 
L 106.570955 234.45396 
L 113.811318 235.851874 
L 121.051682 237.125539 
L 128.292045 238.285808 
L 135.532409 239.342887 
L 142.772773 240.306342 
L 150.013136 241.185096 
L 157.2535 241.987428 
L 164.493864 242.720976 
L 171.734227 243.392736 
L 178.974591 244.009058 
L 186.214955 244.575653 
L 193.455318 245.097587 
L 200.695682 245.579285 
L 207.936045 246.024529 
L 215.176409 246.436457 
L 222.416773 246.817566 
L 229.657136 247.169709 
L 236.8975 247.494098 
L 244.137864 247.791301 
L 251.378227 248.061244 
L 258.618591 248.303211 
L 265.858955 248.515841 
L 273.099318 248.697133 
L 280.339682 248.844442 
L 287.580045 248.954481 
L 294.820409 249.02332 
L 302.060773 249.046387 
L 309.301136 249.018465 
L 316.5415 248.933698 
L 323.781864 248.785584 
L 331.022227 248.566982 
L 338.262591 248.270104 
L 345.502955 247.886524 
L 352.743318 247.407169 
L 359.983682 246.822326 
L 367.224045 246.121639 
L 374.464409 245.294109 
L 381.704773 244.328095 
L 388.945136 243.211312 
L 396.1855 241.930834 
L 403.425864 240.473091 
L 410.666227 238.823872 
L 417.906591 236.968321 
" clip-path="url(#pd04e7b2c1b)" style="fill: none; stroke-dasharray: 7.4,3.2; stroke-dashoffset: 0; stroke: #79ad41; stroke-width: 2"/>
   </g>
   <g id="patch_9">
    <path d="M 37.7875 276.68 
L 37.7875 183.195687 
" style="fill: none; stroke: #000000; stroke-width: 0.8; stroke-linejoin: miter; stroke-linecap: square"/>
   </g>
   <g id="patch_10">
    <path d="M 436.0075 276.68 
L 436.0075 183.195687 
" style="fill: none; stroke: #000000; stroke-width: 0.8; stroke-linejoin: miter; stroke-linecap: square"/>
   </g>
   <g id="patch_11">
    <path d="M 37.7875 276.68 
L 436.0075 276.68 
" style="fill: none; stroke: #000000; stroke-width: 0.8; stroke-linejoin: miter; stroke-linecap: square"/>
   </g>
   <g id="patch_12">
    <path d="M 37.7875 183.195687 
L 436.0075 183.195687 
" style="fill: none; stroke: #000000; stroke-width: 0.8; stroke-linejoin: miter; stroke-linecap: square"/>
   </g>
  </g>
 </g>
 <defs>
  <clipPath id="p2a464f3bd7">
   <rect x="37.7875" y="7.2" width="398.22" height="46.742157"/>
  </clipPath>
  <clipPath id="p15fe0e5a8d">
   <rect x="37.7875" y="71.826765" width="398.22" height="93.484313"/>
  </clipPath>
  <clipPath id="pd04e7b2c1b">
   <rect x="37.7875" y="183.195687" width="398.22" height="93.484313"/>
  </clipPath>
 </defs>
</svg>
