<?xml version="1.0" encoding="utf-8" standalone="no"?>
<!DOCTYPE svg PUBLIC "-//W3C//DTD SVG 1.1//EN"
  "http://www.w3.org/Graphics/SVG/1.1/DTD/svg11.dtd">
<svg xmlns:xlink="http://www.w3.org/1999/xlink" width="443.2075pt" height="325.85pt" viewBox="0 0 443.2075 325.85" xmlns="http://www.w3.org/2000/svg" version="1.1">
 <metadata>
  <rdf:RDF xmlns:dc="http://purl.org/dc/elements/1.1/" xmlns:cc="http://creativecommons.org/ns#" xmlns:rdf="http://www.w3.org/1999/02/22-rdf-syntax-ns#">
   <cc:Work>
    <dc:type rdf:resource="http://purl.org/dc/dcmitype/StillImage"/>
    <dc:date>2024-01-28T20:58:25.210564</dc:date>
    <dc:format>image/svg+xml</dc:format>
    <dc:creator>
     <cc:Agent>
      <dc:title>Matplotlib v3.7.2, https://matplotlib.org/</dc:title>
     </cc:Agent>
    </dc:creator>
   </cc:Work>
  </rdf:RDF>
 </metadata>
 <defs>
  <style type="text/css">*{stroke-linejoin: round; stroke-linecap: butt}</style>
 </defs>
 <g id="figure_1">
  <g id="patch_1">
   <path d="M 0 325.85 
L 443.2075 325.85 
L 443.2075 0 
L 0 0 
z
" style="fill: #ffffff"/>
  </g>
  <g id="axes_1">
   <g id="patch_2">
    <path d="M 37.7875 53.075318 
L 436.0075 53.075318 
L 436.0075 7.2 
L 37.7875 7.2 
z
" style="fill: #ffffff"/>
   </g>
   <g id="PolyCollection_1">
    <defs>
     <path id="m81de3c276e" d="M 55.888409 -274.859923 
L 55.888409 -280.100722 
L 63.128773 -279.838261 
L 70.369136 -279.568949 
L 77.6095 -279.493794 
L 84.849864 -279.493794 
L 92.090227 -279.493794 
L 99.330591 -279.493794 
L 106.570955 -279.493794 
L 113.811318 -279.493794 
L 121.051682 -279.493794 
L 128.292045 -279.493794 
L 135.532409 -279.493794 
L 142.772773 -279.493794 
L 150.013136 -279.493794 
L 157.2535 -279.493794 
L 164.493864 -279.493794 
L 171.734227 -279.493794 
L 178.974591 -279.493794 
L 186.214955 -279.493794 
L 193.455318 -279.493794 
L 200.695682 -279.493794 
L 207.936045 -279.493794 
L 215.176409 -279.493794 
L 222.416773 -279.493794 
L 229.657136 -279.493794 
L 236.8975 -279.493794 
L 244.137864 -279.775013 
L 251.378227 -280.456847 
L 258.618591 -281.27745 
L 265.858955 -282.255848 
L 273.099318 -283.409526 
L 280.339682 -284.751954 
L 287.580045 -286.289579 
L 294.820409 -288.018596 
L 302.060773 -289.922341 
L 309.301136 -291.969988 
L 316.5415 -294.117483 
L 323.781864 -296.310876 
L 331.022227 -298.491724 
L 338.262591 -300.603354 
L 345.502955 -302.596599 
L 352.743318 -304.433744 
L 359.983682 -306.090174 
L 367.224045 -307.553818 
L 374.464409 -308.8231 
L 381.704773 -309.904139 
L 388.945136 -310.807907 
L 396.1855 -311.547753 
L 403.425864 -312.137489 
L 410.666227 -312.590045 
L 417.906591 -312.916616 
L 417.906591 -274.859923 
L 417.906591 -274.859923 
L 410.666227 -274.859923 
L 403.425864 -274.859923 
L 396.1855 -274.859923 
L 388.945136 -274.859923 
L 381.704773 -274.859923 
L 374.464409 -274.859923 
L 367.224045 -274.859923 
L 359.983682 -274.859923 
L 352.743318 -274.859923 
L 345.502955 -274.859923 
L 338.262591 -274.859923 
L 331.022227 -274.859923 
L 323.781864 -274.859923 
L 316.5415 -274.859923 
L 309.301136 -274.859923 
L 302.060773 -274.859923 
L 294.820409 -274.859923 
L 287.580045 -274.859923 
L 280.339682 -274.859923 
L 273.099318 -274.859923 
L 265.858955 -274.859923 
L 258.618591 -274.859923 
L 251.378227 -274.859923 
L 244.137864 -274.859923 
L 236.8975 -274.859923 
L 229.657136 -274.859923 
L 222.416773 -274.859923 
L 215.176409 -274.859923 
L 207.936045 -274.859923 
L 200.695682 -274.859923 
L 193.455318 -274.859923 
L 186.214955 -274.859923 
L 178.974591 -274.859923 
L 171.734227 -274.859923 
L 164.493864 -274.859923 
L 157.2535 -274.859923 
L 150.013136 -274.859923 
L 142.772773 -274.859923 
L 135.532409 -274.859923 
L 128.292045 -274.859923 
L 121.051682 -274.859923 
L 113.811318 -274.859923 
L 106.570955 -274.859923 
L 99.330591 -274.859923 
L 92.090227 -274.859923 
L 84.849864 -274.859923 
L 77.6095 -274.859923 
L 70.369136 -274.859923 
L 63.128773 -274.859923 
L 55.888409 -274.859923 
z
" style="stroke: #dc143c; stroke-opacity: 0.2"/>
    </defs>
    <g clip-path="url(#p1c54d9ec17)">
     <use xlink:href="#m81de3c276e" x="0" y="325.85" style="fill: #dc143c; fill-opacity: 0.2; stroke: #dc143c; stroke-opacity: 0.2"/>
    </g>
   </g>
   <g id="PolyCollection_2">
    <defs>
     <path id="m0435f85a97" d="M 55.888409 -274.859923 
L 55.888409 -315.95783 
L 63.128773 -316.220291 
L 70.369136 -316.489604 
L 77.6095 -316.564758 
L 84.849864 -316.564758 
L 92.090227 -316.564758 
L 99.330591 -316.564758 
L 106.570955 -316.564758 
L 113.811318 -316.564758 
L 121.051682 -316.564758 
L 128.292045 -316.564758 
L 135.532409 -316.564758 
L 142.772773 -316.564758 
L 150.013136 -316.564758 
L 157.2535 -316.564758 
L 164.493864 -316.564758 
L 171.734227 -316.564758 
L 178.974591 -316.564758 
L 186.214955 -316.564758 
L 193.455318 -316.564758 
L 200.695682 -316.564758 
L 207.936045 -316.564758 
L 215.176409 -316.564758 
L 222.416773 -316.564758 
L 229.657136 -316.564758 
L 236.8975 -316.564758 
L 244.137864 -316.283539 
L 251.378227 -315.601706 
L 258.618591 -314.781102 
L 265.858955 -313.802704 
L 273.099318 -312.649026 
L 280.339682 -311.306598 
L 287.580045 -309.768973 
L 294.820409 -308.039956 
L 302.060773 -306.136212 
L 309.301136 -304.088564 
L 316.5415 -301.941069 
L 323.781864 -299.747676 
L 331.022227 -297.566828 
L 338.262591 -295.455198 
L 345.502955 -293.461953 
L 352.743318 -291.624809 
L 359.983682 -289.968378 
L 367.224045 -288.504734 
L 374.464409 -287.235453 
L 381.704773 -286.154413 
L 388.945136 -285.250645 
L 396.1855 -284.510799 
L 403.425864 -283.921064 
L 410.666227 -283.468507 
L 417.906591 -283.141936 
L 417.906591 -274.859923 
L 417.906591 -274.859923 
L 410.666227 -274.859923 
L 403.425864 -274.859923 
L 396.1855 -274.859923 
L 388.945136 -274.859923 
L 381.704773 -274.859923 
L 374.464409 -274.859923 
L 367.224045 -274.859923 
L 359.983682 -274.859923 
L 352.743318 -274.859923 
L 345.502955 -274.859923 
L 338.262591 -274.859923 
L 331.022227 -274.859923 
L 323.781864 -274.859923 
L 316.5415 -274.859923 
L 309.301136 -274.859923 
L 302.060773 -274.859923 
L 294.820409 -274.859923 
L 287.580045 -274.859923 
L 280.339682 -274.859923 
L 273.099318 -274.859923 
L 265.858955 -274.859923 
L 258.618591 -274.859923 
L 251.378227 -274.859923 
L 244.137864 -274.859923 
L 236.8975 -274.859923 
L 229.657136 -274.859923 
L 222.416773 -274.859923 
L 215.176409 -274.859923 
L 207.936045 -274.859923 
L 200.695682 -274.859923 
L 193.455318 -274.859923 
L 186.214955 -274.859923 
L 178.974591 -274.859923 
L 171.734227 -274.859923 
L 164.493864 -274.859923 
L 157.2535 -274.859923 
L 150.013136 -274.859923 
L 142.772773 -274.859923 
L 135.532409 -274.859923 
L 128.292045 -274.859923 
L 121.051682 -274.859923 
L 113.811318 -274.859923 
L 106.570955 -274.859923 
L 99.330591 -274.859923 
L 92.090227 -274.859923 
L 84.849864 -274.859923 
L 77.6095 -274.859923 
L 70.369136 -274.859923 
L 63.128773 -274.859923 
L 55.888409 -274.859923 
z
" style="stroke: #000080; stroke-opacity: 0.2"/>
    </defs>
    <g clip-path="url(#p1c54d9ec17)">
     <use xlink:href="#m0435f85a97" x="0" y="325.85" style="fill: #000080; fill-opacity: 0.2; stroke: #000080; stroke-opacity: 0.2"/>
    </g>
   </g>
   <g id="matplotlib.axis_1"/>
   <g id="matplotlib.axis_2"/>
   <g id="line2d_1">
    <path d="M 55.888409 45.749278 
L 63.128773 46.011739 
L 70.369136 46.281051 
L 77.6095 46.356206 
L 84.849864 46.356206 
L 92.090227 46.356206 
L 99.330591 46.356206 
L 106.570955 46.356206 
L 113.811318 46.356206 
L 121.051682 46.356206 
L 128.292045 46.356206 
L 135.532409 46.356206 
L 142.772773 46.356206 
L 150.013136 46.356206 
L 157.2535 46.356206 
L 164.493864 46.356206 
L 171.734227 46.356206 
L 178.974591 46.356206 
L 186.214955 46.356206 
L 193.455318 46.356206 
L 200.695682 46.356206 
L 207.936045 46.356206 
L 215.176409 46.356206 
L 222.416773 46.356206 
L 229.657136 46.356206 
L 236.8975 46.356206 
L 244.137864 46.074987 
L 251.378227 45.393153 
L 258.618591 44.57255 
L 265.858955 43.594152 
L 273.099318 42.440474 
L 280.339682 41.098046 
L 287.580045 39.560421 
L 294.820409 37.831404 
L 302.060773 35.927659 
L 309.301136 33.880012 
L 316.5415 31.732517 
L 323.781864 29.539124 
L 331.022227 27.358276 
L 338.262591 25.246646 
L 345.502955 23.253401 
L 352.743318 21.416256 
L 359.983682 19.759826 
L 367.224045 18.296182 
L 374.464409 17.0269 
L 381.704773 15.945861 
L 388.945136 15.042093 
L 396.1855 14.302247 
L 403.425864 13.712511 
L 410.666227 13.259955 
L 417.906591 12.933384 
" clip-path="url(#p1c54d9ec17)" style="fill: none; stroke: #dc143c; stroke-width: 1.5; stroke-linecap: square"/>
   </g>
   <g id="line2d_2">
    <path d="M 55.888409 9.89217 
L 63.128773 9.629709 
L 70.369136 9.360396 
L 77.6095 9.285242 
L 84.849864 9.285242 
L 92.090227 9.285242 
L 99.330591 9.285242 
L 106.570955 9.285242 
L 113.811318 9.285242 
L 121.051682 9.285242 
L 128.292045 9.285242 
L 135.532409 9.285242 
L 142.772773 9.285242 
L 150.013136 9.285242 
L 157.2535 9.285242 
L 164.493864 9.285242 
L 171.734227 9.285242 
L 178.974591 9.285242 
L 186.214955 9.285242 
L 193.455318 9.285242 
L 200.695682 9.285242 
L 207.936045 9.285242 
L 215.176409 9.285242 
L 222.416773 9.285242 
L 229.657136 9.285242 
L 236.8975 9.285242 
L 244.137864 9.566461 
L 251.378227 10.248294 
L 258.618591 11.068898 
L 265.858955 12.047296 
L 273.099318 13.200974 
L 280.339682 14.543402 
L 287.580045 16.081027 
L 294.820409 17.810044 
L 302.060773 19.713788 
L 309.301136 21.761436 
L 316.5415 23.908931 
L 323.781864 26.102324 
L 331.022227 28.283172 
L 338.262591 30.394802 
L 345.502955 32.388047 
L 352.743318 34.225191 
L 359.983682 35.881622 
L 367.224045 37.345266 
L 374.464409 38.614547 
L 381.704773 39.695587 
L 388.945136 40.599355 
L 396.1855 41.339201 
L 403.425864 41.928936 
L 410.666227 42.381493 
L 417.906591 42.708064 
" clip-path="url(#p1c54d9ec17)" style="fill: none; stroke: #000080; stroke-width: 1.5; stroke-linecap: square"/>
   </g>
  </g>
  <g id="axes_2">
   <g id="patch_3">
    <path d="M 37.7875 164.877659 
L 436.0075 164.877659 
L 436.0075 73.127023 
L 37.7875 73.127023 
z
" style="fill: #ffffff"/>
   </g>
   <g id="PathCollection_1">
    <defs>
     <path id="mc28486952a" d="M 0 0.866025 
C 0.229673 0.866025 0.449969 0.774776 0.612372 0.612372 
C 0.774776 0.449969 0.866025 0.229673 0.866025 0 
C 0.866025 -0.229673 0.774776 -0.449969 0.612372 -0.612372 
C 0.449969 -0.774776 0.229673 -0.866025 0 -0.866025 
C -0.229673 -0.866025 -0.449969 -0.774776 -0.612372 -0.612372 
C -0.774776 -0.449969 -0.866025 -0.229673 -0.866025 0 
C -0.866025 0.229673 -0.774776 0.449969 -0.612372 0.612372 
C -0.449969 0.774776 -0.229673 0.866025 0 0.866025 
z
" style="stroke: #daa520"/>
    </defs>
    <g clip-path="url(#p7377cb7933)">
     <use xlink:href="#mc28486952a" x="324.90963" y="103.257517" style="fill: #daa520; stroke: #daa520"/>
     <use xlink:href="#mc28486952a" x="302.603396" y="117.642381" style="fill: #daa520; stroke: #daa520"/>
     <use xlink:href="#mc28486952a" x="342.024677" y="103.06937" style="fill: #daa520; stroke: #daa520"/>
     <use xlink:href="#mc28486952a" x="361.361655" y="127.236901" style="fill: #daa520; stroke: #daa520"/>
     <use xlink:href="#mc28486952a" x="261.102303" y="122.862171" style="fill: #daa520; stroke: #daa520"/>
     <use xlink:href="#mc28486952a" x="406.134384" y="116.078246" style="fill: #daa520; stroke: #daa520"/>
     <use xlink:href="#mc28486952a" x="325.709845" y="107.052096" style="fill: #daa520; stroke: #daa520"/>
     <use xlink:href="#mc28486952a" x="329.851764" y="104.355342" style="fill: #daa520; stroke: #daa520"/>
     <use xlink:href="#mc28486952a" x="390.637675" y="144.328981" style="fill: #daa520; stroke: #daa520"/>
     <use xlink:href="#mc28486952a" x="407.253508" y="154.452184" style="fill: #daa520; stroke: #daa520"/>
     <use xlink:href="#mc28486952a" x="390.34583" y="152.798811" style="fill: #daa520; stroke: #daa520"/>
     <use xlink:href="#mc28486952a" x="320.077638" y="102.039214" style="fill: #daa520; stroke: #daa520"/>
     <use xlink:href="#mc28486952a" x="343.039398" y="121.909075" style="fill: #daa520; stroke: #daa520"/>
     <use xlink:href="#mc28486952a" x="360.889596" y="121.181318" style="fill: #daa520; stroke: #daa520"/>
     <use xlink:href="#mc28486952a" x="403.071474" y="156.900911" style="fill: #daa520; stroke: #daa520"/>
     <use xlink:href="#mc28486952a" x="351.344558" y="114.095826" style="fill: #daa520; stroke: #daa520"/>
     <use xlink:href="#mc28486952a" x="342.528018" y="114.395476" style="fill: #daa520; stroke: #daa520"/>
     <use xlink:href="#mc28486952a" x="413.015264" y="156.835935" style="fill: #daa520; stroke: #daa520"/>
     <use xlink:href="#mc28486952a" x="406.347095" y="124.925044" style="fill: #daa520; stroke: #daa520"/>
     <use xlink:href="#mc28486952a" x="409.380582" y="157.615232" style="fill: #daa520; stroke: #daa520"/>
     <use xlink:href="#mc28486952a" x="399.1971" y="141.252554" style="fill: #daa520; stroke: #daa520"/>
     <use xlink:href="#mc28486952a" x="362.44664" y="114.321865" style="fill: #daa520; stroke: #daa520"/>
     <use xlink:href="#mc28486952a" x="359.443319" y="119.710185" style="fill: #daa520; stroke: #daa520"/>
     <use xlink:href="#mc28486952a" x="401.089451" y="142.121916" style="fill: #daa520; stroke: #daa520"/>
     <use xlink:href="#mc28486952a" x="299.691504" y="102.407054" style="fill: #daa520; stroke: #daa520"/>
     <use xlink:href="#mc28486952a" x="331.714917" y="116.852923" style="fill: #daa520; stroke: #daa520"/>
     <use xlink:href="#mc28486952a" x="395.936092" y="158.032356" style="fill: #daa520; stroke: #daa520"/>
     <use xlink:href="#mc28486952a" x="291.113549" y="105.745225" style="fill: #daa520; stroke: #daa520"/>
     <use xlink:href="#mc28486952a" x="332.304186" y="106.208305" style="fill: #daa520; stroke: #daa520"/>
     <use xlink:href="#mc28486952a" x="208.989427" y="103.11358" style="fill: #daa520; stroke: #daa520"/>
     <use xlink:href="#mc28486952a" x="352.907798" y="120.508129" style="fill: #daa520; stroke: #daa520"/>
     <use xlink:href="#mc28486952a" x="412.426471" y="125.969976" style="fill: #daa520; stroke: #daa520"/>
     <use xlink:href="#mc28486952a" x="286.583306" y="108.852059" style="fill: #daa520; stroke: #daa520"/>
     <use xlink:href="#mc28486952a" x="301.549156" y="101.793837" style="fill: #daa520; stroke: #daa520"/>
     <use xlink:href="#mc28486952a" x="333.826563" y="99.047453" style="fill: #daa520; stroke: #daa520"/>
     <use xlink:href="#mc28486952a" x="330.692946" y="117.42108" style="fill: #daa520; stroke: #daa520"/>
     <use xlink:href="#mc28486952a" x="267.854017" y="113.904761" style="fill: #daa520; stroke: #daa520"/>
     <use xlink:href="#mc28486952a" x="319.74115" y="110.603509" style="fill: #daa520; stroke: #daa520"/>
     <use xlink:href="#mc28486952a" x="395.320876" y="130.489244" style="fill: #daa520; stroke: #daa520"/>
     <use xlink:href="#mc28486952a" x="263.493384" y="132.537626" style="fill: #daa520; stroke: #daa520"/>
     <use xlink:href="#mc28486952a" x="414.038072" y="141.501259" style="fill: #daa520; stroke: #daa520"/>
     <use xlink:href="#mc28486952a" x="165.421621" y="120.036245" style="fill: #daa520; stroke: #daa520"/>
     <use xlink:href="#mc28486952a" x="408.367615" y="152.003226" style="fill: #daa520; stroke: #daa520"/>
     <use xlink:href="#mc28486952a" x="305.519351" y="100.270255" style="fill: #daa520; stroke: #daa520"/>
     <use xlink:href="#mc28486952a" x="240.417544" y="92.868259" style="fill: #daa520; stroke: #daa520"/>
     <use xlink:href="#mc28486952a" x="379.536337" y="136.569368" style="fill: #daa520; stroke: #daa520"/>
     <use xlink:href="#mc28486952a" x="349.123537" y="122.165705" style="fill: #daa520; stroke: #daa520"/>
     <use xlink:href="#mc28486952a" x="338.650156" y="115.770372" style="fill: #daa520; stroke: #daa520"/>
     <use xlink:href="#mc28486952a" x="362.754995" y="116.038297" style="fill: #daa520; stroke: #daa520"/>
     <use xlink:href="#mc28486952a" x="368.08537" y="133.510414" style="fill: #daa520; stroke: #daa520"/>
     <use xlink:href="#mc28486952a" x="374.619111" y="123.412312" style="fill: #daa520; stroke: #daa520"/>
     <use xlink:href="#mc28486952a" x="357.456119" y="111.815836" style="fill: #daa520; stroke: #daa520"/>
     <use xlink:href="#mc28486952a" x="381.504959" y="138.798896" style="fill: #daa520; stroke: #daa520"/>
     <use xlink:href="#mc28486952a" x="342.367391" y="117.886209" style="fill: #daa520; stroke: #daa520"/>
     <use xlink:href="#mc28486952a" x="410.574965" y="160.169379" style="fill: #daa520; stroke: #daa520"/>
     <use xlink:href="#mc28486952a" x="372.288348" y="117.986295" style="fill: #daa520; stroke: #daa520"/>
     <use xlink:href="#mc28486952a" x="365.139042" y="117.403239" style="fill: #daa520; stroke: #daa520"/>
     <use xlink:href="#mc28486952a" x="300.447228" y="116.984122" style="fill: #daa520; stroke: #daa520"/>
     <use xlink:href="#mc28486952a" x="324.284883" y="114.603716" style="fill: #daa520; stroke: #daa520"/>
     <use xlink:href="#mc28486952a" x="405.750776" y="160.707176" style="fill: #daa520; stroke: #daa520"/>
     <use xlink:href="#mc28486952a" x="411.884167" y="144.749217" style="fill: #daa520; stroke: #daa520"/>
     <use xlink:href="#mc28486952a" x="354.675388" y="119.635049" style="fill: #daa520; stroke: #daa520"/>
     <use xlink:href="#mc28486952a" x="391.826861" y="139.984291" style="fill: #daa520; stroke: #daa520"/>
     <use xlink:href="#mc28486952a" x="392.856668" y="144.504613" style="fill: #daa520; stroke: #daa520"/>
     <use xlink:href="#mc28486952a" x="262.692285" y="87.771851" style="fill: #daa520; stroke: #daa520"/>
     <use xlink:href="#mc28486952a" x="378.284042" y="140.043563" style="fill: #daa520; stroke: #daa520"/>
     <use xlink:href="#mc28486952a" x="376.099877" y="136.832501" style="fill: #daa520; stroke: #daa520"/>
     <use xlink:href="#mc28486952a" x="174.436839" y="120.049666" style="fill: #daa520; stroke: #daa520"/>
     <use xlink:href="#mc28486952a" x="347.934981" y="109.924004" style="fill: #daa520; stroke: #daa520"/>
     <use xlink:href="#mc28486952a" x="403.131384" y="145.328735" style="fill: #daa520; stroke: #daa520"/>
     <use xlink:href="#mc28486952a" x="337.299651" y="121.222487" style="fill: #daa520; stroke: #daa520"/>
     <use xlink:href="#mc28486952a" x="345.800693" y="123.287912" style="fill: #daa520; stroke: #daa520"/>
     <use xlink:href="#mc28486952a" x="408.367388" y="147.498731" style="fill: #daa520; stroke: #daa520"/>
     <use xlink:href="#mc28486952a" x="395.675672" y="160.304803" style="fill: #daa520; stroke: #daa520"/>
     <use xlink:href="#mc28486952a" x="112.913207" y="126.582993" style="fill: #daa520; stroke: #daa520"/>
     <use xlink:href="#mc28486952a" x="275.936665" y="104.074253" style="fill: #daa520; stroke: #daa520"/>
     <use xlink:href="#mc28486952a" x="270.822429" y="89.406702" style="fill: #daa520; stroke: #daa520"/>
     <use xlink:href="#mc28486952a" x="400.600773" y="158.566158" style="fill: #daa520; stroke: #daa520"/>
     <use xlink:href="#mc28486952a" x="166.908197" y="124.387708" style="fill: #daa520; stroke: #daa520"/>
     <use xlink:href="#mc28486952a" x="351.163946" y="124.412667" style="fill: #daa520; stroke: #daa520"/>
     <use xlink:href="#mc28486952a" x="382.790505" y="149.679013" style="fill: #daa520; stroke: #daa520"/>
     <use xlink:href="#mc28486952a" x="371.488591" y="133.979941" style="fill: #daa520; stroke: #daa520"/>
     <use xlink:href="#mc28486952a" x="403.220784" y="144.840783" style="fill: #daa520; stroke: #daa520"/>
     <use xlink:href="#mc28486952a" x="286.095809" y="124.894948" style="fill: #daa520; stroke: #daa520"/>
     <use xlink:href="#mc28486952a" x="303.282425" y="96.972147" style="fill: #daa520; stroke: #daa520"/>
     <use xlink:href="#mc28486952a" x="412.586226" y="143.451213" style="fill: #daa520; stroke: #daa520"/>
     <use xlink:href="#mc28486952a" x="315.069865" y="97.915473" style="fill: #daa520; stroke: #daa520"/>
     <use xlink:href="#mc28486952a" x="157.420098" y="102.80453" style="fill: #daa520; stroke: #daa520"/>
     <use xlink:href="#mc28486952a" x="351.429989" y="123.764959" style="fill: #daa520; stroke: #daa520"/>
     <use xlink:href="#mc28486952a" x="322.408357" y="103.215856" style="fill: #daa520; stroke: #daa520"/>
     <use xlink:href="#mc28486952a" x="401.083318" y="158.314691" style="fill: #daa520; stroke: #daa520"/>
     <use xlink:href="#mc28486952a" x="386.085327" y="140.540258" style="fill: #daa520; stroke: #daa520"/>
     <use xlink:href="#mc28486952a" x="328.587366" y="102.731644" style="fill: #daa520; stroke: #daa520"/>
     <use xlink:href="#mc28486952a" x="396.776958" y="143.597057" style="fill: #daa520; stroke: #daa520"/>
    </g>
   </g>
   <g id="matplotlib.axis_3"/>
   <g id="matplotlib.axis_4">
    <g id="ytick_1">
     <g id="line2d_3">
      <defs>
       <path id="m92ecf123d5" d="M 0 0 
L -3.5 0 
" style="stroke: #696969; stroke-width: 0.8"/>
      </defs>
      <g>
       <use xlink:href="#m92ecf123d5" x="37.7875" y="151.336582" style="fill: #696969; stroke: #696969; stroke-width: 0.8"/>
      </g>
     </g>
     <g id="text_1">
      <!-- −5 -->
      <g style="fill: #696969" transform="translate(7.2 157.415332) scale(0.16 -0.16)">
       <defs>
        <path id="DejaVuSans-2212" d="M 678 2272 
L 4684 2272 
L 4684 1741 
L 678 1741 
L 678 2272 
z
" transform="scale(0.015625)"/>
        <path id="DejaVuSans-35" d="M 691 4666 
L 3169 4666 
L 3169 4134 
L 1269 4134 
L 1269 2991 
Q 1406 3038 1543 3061 
Q 1681 3084 1819 3084 
Q 2600 3084 3056 2656 
Q 3513 2228 3513 1497 
Q 3513 744 3044 326 
Q 2575 -91 1722 -91 
Q 1428 -91 1123 -41 
Q 819 9 494 109 
L 494 744 
Q 775 591 1075 516 
Q 1375 441 1709 441 
Q 2250 441 2565 725 
Q 2881 1009 2881 1497 
Q 2881 1984 2565 2268 
Q 2250 2553 1709 2553 
Q 1456 2553 1204 2497 
Q 953 2441 691 2322 
L 691 4666 
z
" transform="scale(0.015625)"/>
       </defs>
       <use xlink:href="#DejaVuSans-2212"/>
       <use xlink:href="#DejaVuSans-35" x="83.789062"/>
      </g>
     </g>
    </g>
    <g id="ytick_2">
     <g id="line2d_4">
      <g>
       <use xlink:href="#m92ecf123d5" x="37.7875" y="113.417882" style="fill: #696969; stroke: #696969; stroke-width: 0.8"/>
      </g>
     </g>
     <g id="text_2">
      <!-- 0 -->
      <g style="fill: #696969" transform="translate(20.6075 119.496632) scale(0.16 -0.16)">
       <defs>
        <path id="DejaVuSans-30" d="M 2034 4250 
Q 1547 4250 1301 3770 
Q 1056 3291 1056 2328 
Q 1056 1369 1301 889 
Q 1547 409 2034 409 
Q 2525 409 2770 889 
Q 3016 1369 3016 2328 
Q 3016 3291 2770 3770 
Q 2525 4250 2034 4250 
z
M 2034 4750 
Q 2819 4750 3233 4129 
Q 3647 3509 3647 2328 
Q 3647 1150 3233 529 
Q 2819 -91 2034 -91 
Q 1250 -91 836 529 
Q 422 1150 422 2328 
Q 422 3509 836 4129 
Q 1250 4750 2034 4750 
z
" transform="scale(0.015625)"/>
       </defs>
       <use xlink:href="#DejaVuSans-30"/>
      </g>
     </g>
    </g>
    <g id="ytick_3">
     <g id="line2d_5">
      <g>
       <use xlink:href="#m92ecf123d5" x="37.7875" y="75.499182" style="fill: #696969; stroke: #696969; stroke-width: 0.8"/>
      </g>
     </g>
     <g id="text_3">
      <!-- 5 -->
      <g style="fill: #696969" transform="translate(20.6075 81.577932) scale(0.16 -0.16)">
       <use xlink:href="#DejaVuSans-35"/>
      </g>
     </g>
    </g>
   </g>
   <g id="line2d_6">
    <path d="M 55.888409 108.910364 
L 63.128773 109.250575 
L 70.369136 109.767961 
L 77.6095 110.501367 
L 84.849864 111.387589 
L 92.090227 112.321409 
L 99.330591 113.214664 
L 106.570955 114.042963 
L 113.811318 114.869789 
L 121.051682 115.833034 
L 128.292045 117.084195 
L 135.532409 118.692622 
L 142.772773 120.554181 
L 150.013136 122.354418 
L 157.2535 123.619353 
L 164.493864 123.849642 
L 171.734227 122.694926 
L 178.974591 120.102475 
L 186.214955 116.377026 
L 193.455318 112.118491 
L 200.695682 108.052712 
L 207.936045 104.818725 
L 215.176409 102.798475 
L 222.416773 102.054514 
L 229.657136 102.385637 
L 236.8975 103.451711 
L 244.137864 104.893397 
L 251.378227 106.394837 
L 258.618591 107.68879 
L 265.858955 108.5454 
L 273.099318 108.788215 
L 280.339682 108.34626 
L 287.580045 107.309608 
L 294.820409 105.942883 
L 302.060773 104.634991 
L 309.301136 103.803257 
L 316.5415 103.794379 
L 323.781864 104.818961 
L 331.022227 106.932217 
L 338.262591 110.052598 
L 345.502955 114.002827 
L 352.743318 118.558318 
L 359.983682 123.487074 
L 367.224045 128.564495 
L 374.464409 133.555366 
L 381.704773 138.175237 
L 388.945136 142.061208 
L 396.1855 144.781509 
L 403.425864 145.892698 
L 410.666227 145.028972 
L 417.906591 141.996986 
" clip-path="url(#p7377cb7933)" style="fill: none; stroke: #000000; stroke-width: 2; stroke-linecap: square"/>
   </g>
   <g id="line2d_7">
    <path d="M 55.888409 77.297506 
L 63.128773 78.500378 
L 70.369136 79.703249 
L 77.6095 80.906121 
L 84.849864 82.108993 
L 92.090227 83.311865 
L 99.330591 84.514736 
L 106.570955 85.717608 
L 113.811318 86.92048 
L 121.051682 88.123352 
L 128.292045 89.326223 
L 135.532409 90.529095 
L 142.772773 91.731967 
L 150.013136 92.934839 
L 157.2535 94.13771 
L 164.493864 95.340582 
L 171.734227 96.543454 
L 178.974591 97.746326 
L 186.214955 98.949197 
L 193.455318 100.152069 
L 200.695682 101.354941 
L 207.936045 102.557813 
L 215.176409 103.760684 
L 222.416773 104.963556 
L 229.657136 106.166428 
L 236.8975 107.369299 
L 244.137864 108.572171 
L 251.378227 109.775043 
L 258.618591 110.977915 
L 265.858955 112.180786 
L 273.099318 113.383658 
L 280.339682 114.58653 
L 287.580045 115.789402 
L 294.820409 116.992273 
L 302.060773 118.195145 
L 309.301136 119.398017 
L 316.5415 120.600889 
L 323.781864 121.80376 
L 331.022227 123.006632 
L 338.262591 124.209504 
L 345.502955 125.412376 
L 352.743318 126.615247 
L 359.983682 127.818119 
L 367.224045 129.020991 
L 374.464409 130.223862 
L 381.704773 131.426734 
L 388.945136 132.629606 
L 396.1855 133.832478 
L 403.425864 135.035349 
L 410.666227 136.238221 
L 417.906591 137.441093 
" clip-path="url(#p7377cb7933)" style="fill: none; stroke-dasharray: 7.4,3.2; stroke-dashoffset: 0; stroke: #34b6c6; stroke-width: 2"/>
   </g>
   <g id="line2d_8">
    <path d="M 55.888409 99.746072 
L 63.128773 100.333039 
L 70.369136 100.982356 
L 77.6095 101.730088 
L 84.849864 102.636878 
L 92.090227 103.799001 
L 99.330591 105.345226 
L 106.570955 107.381025 
L 113.811318 109.867318 
L 121.051682 112.564601 
L 128.292045 115.151129 
L 135.532409 117.345821 
L 142.772773 118.968533 
L 150.013136 119.934436 
L 157.2535 120.119231 
L 164.493864 119.211551 
L 171.734227 116.81011 
L 178.974591 113.093798 
L 186.214955 109.087394 
L 193.455318 105.44377 
L 200.695682 102.631258 
L 207.936045 101.356594 
L 215.176409 101.591017 
L 222.416773 103.099054 
L 229.657136 105.729524 
L 236.8975 108.853153 
L 244.137864 111.529458 
L 251.378227 113.401295 
L 258.618591 114.575536 
L 265.858955 115.135668 
L 273.099318 114.929949 
L 280.339682 113.540687 
L 287.580045 111.053371 
L 294.820409 108.545406 
L 302.060773 106.470267 
L 309.301136 105.107843 
L 316.5415 104.652044 
L 323.781864 105.19256 
L 331.022227 106.899088 
L 338.262591 109.852684 
L 345.502955 113.749934 
L 352.743318 118.265733 
L 359.983682 123.19336 
L 367.224045 128.198203 
L 374.464409 133.340124 
L 381.704773 138.671485 
L 388.945136 142.70192 
L 396.1855 144.937525 
L 403.425864 146.144778 
L 410.666227 146.83722 
L 417.906591 147.257619 
" clip-path="url(#p7377cb7933)" style="fill: none; stroke-dasharray: 7.4,3.2; stroke-dashoffset: 0; stroke: #9370db; stroke-width: 2"/>
   </g>
   <g id="line2d_9">
    <path d="M 55.888409 113.632899 
L 63.128773 113.918361 
L 70.369136 114.291559 
L 77.6095 114.803246 
L 84.849864 115.538754 
L 92.090227 116.63356 
L 99.330591 118.268866 
L 106.570955 120.593087 
L 113.811318 123.551231 
L 121.051682 126.806276 
L 128.292045 129.905468 
L 135.532409 132.45328 
L 142.772773 134.196216 
L 150.013136 135.014906 
L 157.2535 134.734442 
L 164.493864 132.916674 
L 171.734227 128.996925 
L 178.974591 123.226922 
L 186.214955 117.048711 
L 193.455318 111.380992 
L 200.695682 106.882794 
L 207.936045 104.548618 
L 215.176409 104.337989 
L 222.416773 105.919556 
L 229.657136 109.080584 
L 236.8975 112.93557 
L 244.137864 116.161094 
L 251.378227 118.254594 
L 258.618591 119.366452 
L 265.858955 119.614152 
L 273.099318 118.784166 
L 280.339682 116.288729 
L 287.580045 112.248139 
L 294.820409 108.178491 
L 302.060773 104.717906 
L 309.301136 102.260235 
L 316.5415 101.078342 
L 323.781864 101.29844 
L 331.022227 103.159319 
L 338.262591 106.77504 
L 345.502955 111.718648 
L 352.743318 117.53266 
L 359.983682 123.926189 
L 367.224045 130.428371 
L 374.464409 137.123448 
L 381.704773 144.085099 
L 388.945136 149.216121 
L 396.1855 151.821504 
L 403.425864 152.979817 
L 410.666227 153.413701 
L 417.906591 153.464772 
" clip-path="url(#p7377cb7933)" style="fill: none; stroke-dasharray: 12.8,3.2,2,3.2; stroke-dashoffset: 0; stroke: #ff0000; stroke-width: 2"/>
   </g>
   <g id="patch_4">
    <path d="M 37.7875 164.877659 
L 37.7875 73.127023 
" style="fill: none; stroke: #000000; stroke-width: 0.8; stroke-linejoin: miter; stroke-linecap: square"/>
   </g>
   <g id="patch_5">
    <path d="M 436.0075 164.877659 
L 436.0075 73.127023 
" style="fill: none; stroke: #000000; stroke-width: 0.8; stroke-linejoin: miter; stroke-linecap: square"/>
   </g>
   <g id="patch_6">
    <path d="M 37.7875 164.877659 
L 436.0075 164.877659 
" style="fill: none; stroke: #000000; stroke-width: 0.8; stroke-linejoin: miter; stroke-linecap: square"/>
   </g>
   <g id="patch_7">
    <path d="M 37.7875 73.127023 
L 436.0075 73.127023 
" style="fill: none; stroke: #000000; stroke-width: 0.8; stroke-linejoin: miter; stroke-linecap: square"/>
   </g>
  </g>
  <g id="axes_3">
   <g id="patch_8">
    <path d="M 37.7875 276.68 
L 436.0075 276.68 
L 436.0075 184.929363 
L 37.7875 184.929363 
z
" style="fill: #ffffff"/>
   </g>
   <g id="PathCollection_2">
    <g clip-path="url(#p2d2b7ef874)">
     <use xlink:href="#mc28486952a" x="324.90963" y="210.269715" style="fill: #daa520; stroke: #daa520"/>
     <use xlink:href="#mc28486952a" x="302.603396" y="192.091189" style="fill: #daa520; stroke: #daa520"/>
     <use xlink:href="#mc28486952a" x="342.024677" y="222.957557" style="fill: #daa520; stroke: #daa520"/>
     <use xlink:href="#mc28486952a" x="361.361655" y="209.810786" style="fill: #daa520; stroke: #daa520"/>
     <use xlink:href="#mc28486952a" x="261.102303" y="207.827248" style="fill: #daa520; stroke: #daa520"/>
     <use xlink:href="#mc28486952a" x="406.134384" y="272.509517" style="fill: #daa520; stroke: #daa520"/>
     <use xlink:href="#mc28486952a" x="325.709845" y="204.437957" style="fill: #daa520; stroke: #daa520"/>
     <use xlink:href="#mc28486952a" x="329.851764" y="210.535022" style="fill: #daa520; stroke: #daa520"/>
     <use xlink:href="#mc28486952a" x="390.637675" y="222.218261" style="fill: #daa520; stroke: #daa520"/>
     <use xlink:href="#mc28486952a" x="407.253508" y="211.23651" style="fill: #daa520; stroke: #daa520"/>
     <use xlink:href="#mc28486952a" x="390.34583" y="208.465153" style="fill: #daa520; stroke: #daa520"/>
     <use xlink:href="#mc28486952a" x="320.077638" y="211.460026" style="fill: #daa520; stroke: #daa520"/>
     <use xlink:href="#mc28486952a" x="343.039398" y="193.954058" style="fill: #daa520; stroke: #daa520"/>
     <use xlink:href="#mc28486952a" x="360.889596" y="218.818093" style="fill: #daa520; stroke: #daa520"/>
     <use xlink:href="#mc28486952a" x="403.071474" y="206.794259" style="fill: #daa520; stroke: #daa520"/>
     <use xlink:href="#mc28486952a" x="351.344558" y="216.732318" style="fill: #daa520; stroke: #daa520"/>
     <use xlink:href="#mc28486952a" x="342.528018" y="205.398277" style="fill: #daa520; stroke: #daa520"/>
     <use xlink:href="#mc28486952a" x="413.015264" y="207.726294" style="fill: #daa520; stroke: #daa520"/>
     <use xlink:href="#mc28486952a" x="406.347095" y="258.38061" style="fill: #daa520; stroke: #daa520"/>
     <use xlink:href="#mc28486952a" x="409.380582" y="206.335608" style="fill: #daa520; stroke: #daa520"/>
     <use xlink:href="#mc28486952a" x="399.1971" y="230.99604" style="fill: #daa520; stroke: #daa520"/>
     <use xlink:href="#mc28486952a" x="362.44664" y="232.030307" style="fill: #daa520; stroke: #daa520"/>
     <use xlink:href="#mc28486952a" x="359.443319" y="219.090975" style="fill: #daa520; stroke: #daa520"/>
     <use xlink:href="#mc28486952a" x="401.089451" y="230.059862" style="fill: #daa520; stroke: #daa520"/>
     <use xlink:href="#mc28486952a" x="299.691504" y="218.490305" style="fill: #daa520; stroke: #daa520"/>
     <use xlink:href="#mc28486952a" x="331.714917" y="191.655359" style="fill: #daa520; stroke: #daa520"/>
     <use xlink:href="#mc28486952a" x="395.936092" y="203.093286" style="fill: #daa520; stroke: #daa520"/>
     <use xlink:href="#mc28486952a" x="291.113549" y="220.252785" style="fill: #daa520; stroke: #daa520"/>
     <use xlink:href="#mc28486952a" x="332.304186" y="209.07406" style="fill: #daa520; stroke: #daa520"/>
     <use xlink:href="#mc28486952a" x="208.989427" y="215.176754" style="fill: #daa520; stroke: #daa520"/>
     <use xlink:href="#mc28486952a" x="352.907798" y="208.589098" style="fill: #daa520; stroke: #daa520"/>
     <use xlink:href="#mc28486952a" x="412.426471" y="257.085755" style="fill: #daa520; stroke: #daa520"/>
     <use xlink:href="#mc28486952a" x="286.583306" y="219.49877" style="fill: #daa520; stroke: #daa520"/>
     <use xlink:href="#mc28486952a" x="301.549156" y="218.148005" style="fill: #daa520; stroke: #daa520"/>
     <use xlink:href="#mc28486952a" x="333.826563" y="221.626841" style="fill: #daa520; stroke: #daa520"/>
     <use xlink:href="#mc28486952a" x="330.692946" y="190.112938" style="fill: #daa520; stroke: #daa520"/>
     <use xlink:href="#mc28486952a" x="267.854017" y="222.094654" style="fill: #daa520; stroke: #daa520"/>
     <use xlink:href="#mc28486952a" x="319.74115" y="197.748831" style="fill: #daa520; stroke: #daa520"/>
     <use xlink:href="#mc28486952a" x="395.320876" y="246.903498" style="fill: #daa520; stroke: #daa520"/>
     <use xlink:href="#mc28486952a" x="263.493384" y="192.481165" style="fill: #daa520; stroke: #daa520"/>
     <use xlink:href="#mc28486952a" x="414.038072" y="232.272451" style="fill: #daa520; stroke: #daa520"/>
     <use xlink:href="#mc28486952a" x="165.421621" y="233.125584" style="fill: #daa520; stroke: #daa520"/>
     <use xlink:href="#mc28486952a" x="408.367615" y="215.244802" style="fill: #daa520; stroke: #daa520"/>
     <use xlink:href="#mc28486952a" x="305.519351" y="218.121808" style="fill: #daa520; stroke: #daa520"/>
     <use xlink:href="#mc28486952a" x="240.417544" y="247.948129" style="fill: #daa520; stroke: #daa520"/>
     <use xlink:href="#mc28486952a" x="379.536337" y="221.922614" style="fill: #daa520; stroke: #daa520"/>
     <use xlink:href="#mc28486952a" x="349.123537" y="200.910556" style="fill: #daa520; stroke: #daa520"/>
     <use xlink:href="#mc28486952a" x="338.650156" y="199.113546" style="fill: #daa520; stroke: #daa520"/>
     <use xlink:href="#mc28486952a" x="362.754995" y="229.727916" style="fill: #daa520; stroke: #daa520"/>
     <use xlink:href="#mc28486952a" x="368.08537" y="209.434037" style="fill: #daa520; stroke: #daa520"/>
     <use xlink:href="#mc28486952a" x="374.619111" y="235.29519" style="fill: #daa520; stroke: #daa520"/>
     <use xlink:href="#mc28486952a" x="357.456119" y="228.870559" style="fill: #daa520; stroke: #daa520"/>
     <use xlink:href="#mc28486952a" x="381.504959" y="221.293212" style="fill: #daa520; stroke: #daa520"/>
     <use xlink:href="#mc28486952a" x="342.367391" y="199.635569" style="fill: #daa520; stroke: #daa520"/>
     <use xlink:href="#mc28486952a" x="410.574965" y="202.313395" style="fill: #daa520; stroke: #daa520"/>
     <use xlink:href="#mc28486952a" x="372.288348" y="240.427202" style="fill: #daa520; stroke: #daa520"/>
     <use xlink:href="#mc28486952a" x="365.139042" y="230.966681" style="fill: #daa520; stroke: #daa520"/>
     <use xlink:href="#mc28486952a" x="300.447228" y="194.622686" style="fill: #daa520; stroke: #daa520"/>
     <use xlink:href="#mc28486952a" x="324.284883" y="191.957421" style="fill: #daa520; stroke: #daa520"/>
     <use xlink:href="#mc28486952a" x="405.750776" y="201.078255" style="fill: #daa520; stroke: #daa520"/>
     <use xlink:href="#mc28486952a" x="411.884167" y="227.030496" style="fill: #daa520; stroke: #daa520"/>
     <use xlink:href="#mc28486952a" x="354.675388" y="212.430303" style="fill: #daa520; stroke: #daa520"/>
     <use xlink:href="#mc28486952a" x="391.826861" y="229.94051" style="fill: #daa520; stroke: #daa520"/>
     <use xlink:href="#mc28486952a" x="392.856668" y="223.304303" style="fill: #daa520; stroke: #daa520"/>
     <use xlink:href="#mc28486952a" x="262.692285" y="264.062285" style="fill: #daa520; stroke: #daa520"/>
     <use xlink:href="#mc28486952a" x="378.284042" y="214.423747" style="fill: #daa520; stroke: #daa520"/>
     <use xlink:href="#mc28486952a" x="376.099877" y="216.133" style="fill: #daa520; stroke: #daa520"/>
     <use xlink:href="#mc28486952a" x="174.436839" y="224.234032" style="fill: #daa520; stroke: #daa520"/>
     <use xlink:href="#mc28486952a" x="347.934981" y="218.980621" style="fill: #daa520; stroke: #daa520"/>
     <use xlink:href="#mc28486952a" x="403.131384" y="225.315114" style="fill: #daa520; stroke: #daa520"/>
     <use xlink:href="#mc28486952a" x="337.299651" y="189.099847" style="fill: #daa520; stroke: #daa520"/>
     <use xlink:href="#mc28486952a" x="345.800693" y="194.975291" style="fill: #daa520; stroke: #daa520"/>
     <use xlink:href="#mc28486952a" x="408.367388" y="222.450209" style="fill: #daa520; stroke: #daa520"/>
     <use xlink:href="#mc28486952a" x="395.675672" y="199.355371" style="fill: #daa520; stroke: #daa520"/>
     <use xlink:href="#mc28486952a" x="112.913207" y="207.647283" style="fill: #daa520; stroke: #daa520"/>
     <use xlink:href="#mc28486952a" x="275.936665" y="235.460265" style="fill: #daa520; stroke: #daa520"/>
     <use xlink:href="#mc28486952a" x="270.822429" y="260.769778" style="fill: #daa520; stroke: #daa520"/>
     <use xlink:href="#mc28486952a" x="400.600773" y="203.6479" style="fill: #daa520; stroke: #daa520"/>
     <use xlink:href="#mc28486952a" x="166.908197" y="225.07793" style="fill: #daa520; stroke: #daa520"/>
     <use xlink:href="#mc28486952a" x="351.163946" y="199.988425" style="fill: #daa520; stroke: #daa520"/>
     <use xlink:href="#mc28486952a" x="382.790505" y="205.686434" style="fill: #daa520; stroke: #daa520"/>
     <use xlink:href="#mc28486952a" x="371.488591" y="213.651047" style="fill: #daa520; stroke: #daa520"/>
     <use xlink:href="#mc28486952a" x="403.220784" y="226.110294" style="fill: #daa520; stroke: #daa520"/>
     <use xlink:href="#mc28486952a" x="286.095809" y="194.297256" style="fill: #daa520; stroke: #daa520"/>
     <use xlink:href="#mc28486952a" x="303.282425" y="224.720016" style="fill: #daa520; stroke: #daa520"/>
     <use xlink:href="#mc28486952a" x="412.586226" y="229.126752" style="fill: #daa520; stroke: #daa520"/>
     <use xlink:href="#mc28486952a" x="315.069865" y="218.394021" style="fill: #daa520; stroke: #daa520"/>
     <use xlink:href="#mc28486952a" x="157.420098" y="264.163704" style="fill: #daa520; stroke: #daa520"/>
     <use xlink:href="#mc28486952a" x="351.429989" y="201.379734" style="fill: #daa520; stroke: #daa520"/>
     <use xlink:href="#mc28486952a" x="322.408357" y="209.802524" style="fill: #daa520; stroke: #daa520"/>
     <use xlink:href="#mc28486952a" x="401.083318" y="204.156465" style="fill: #daa520; stroke: #daa520"/>
     <use xlink:href="#mc28486952a" x="386.085327" y="224.306455" style="fill: #daa520; stroke: #daa520"/>
     <use xlink:href="#mc28486952a" x="328.587366" y="212.487988" style="fill: #daa520; stroke: #daa520"/>
     <use xlink:href="#mc28486952a" x="396.776958" y="226.496567" style="fill: #daa520; stroke: #daa520"/>
    </g>
   </g>
   <g id="matplotlib.axis_5">
    <g id="xtick_1">
     <g id="line2d_10">
      <defs>
       <path id="m08823c64d8" d="M 0 0 
L 0 3.5 
" style="stroke: #696969; stroke-width: 0.8"/>
      </defs>
      <g>
       <use xlink:href="#m08823c64d8" x="55.888409" y="276.68" style="fill: #696969; stroke: #696969; stroke-width: 0.8"/>
      </g>
     </g>
     <g id="text_4">
      <!-- −1.0 -->
      <g style="fill: #696969" transform="translate(36.462159 295.8375) scale(0.16 -0.16)">
       <defs>
        <path id="DejaVuSans-31" d="M 794 531 
L 1825 531 
L 1825 4091 
L 703 3866 
L 703 4441 
L 1819 4666 
L 2450 4666 
L 2450 531 
L 3481 531 
L 3481 0 
L 794 0 
L 794 531 
z
" transform="scale(0.015625)"/>
        <path id="DejaVuSans-2e" d="M 684 794 
L 1344 794 
L 1344 0 
L 684 0 
L 684 794 
z
" transform="scale(0.015625)"/>
       </defs>
       <use xlink:href="#DejaVuSans-2212"/>
       <use xlink:href="#DejaVuSans-31" x="83.789062"/>
       <use xlink:href="#DejaVuSans-2e" x="147.412109"/>
       <use xlink:href="#DejaVuSans-30" x="179.199219"/>
      </g>
     </g>
    </g>
    <g id="xtick_2">
     <g id="line2d_11">
      <g>
       <use xlink:href="#m08823c64d8" x="146.392955" y="276.68" style="fill: #696969; stroke: #696969; stroke-width: 0.8"/>
      </g>
     </g>
     <g id="text_5">
      <!-- −0.5 -->
      <g style="fill: #696969" transform="translate(126.966705 295.8375) scale(0.16 -0.16)">
       <use xlink:href="#DejaVuSans-2212"/>
       <use xlink:href="#DejaVuSans-30" x="83.789062"/>
       <use xlink:href="#DejaVuSans-2e" x="147.412109"/>
       <use xlink:href="#DejaVuSans-35" x="179.199219"/>
      </g>
     </g>
    </g>
    <g id="xtick_3">
     <g id="line2d_12">
      <g>
       <use xlink:href="#m08823c64d8" x="236.8975" y="276.68" style="fill: #696969; stroke: #696969; stroke-width: 0.8"/>
      </g>
     </g>
     <g id="text_6">
      <!-- 0.0 -->
      <g style="fill: #696969" transform="translate(224.175 295.8375) scale(0.16 -0.16)">
       <use xlink:href="#DejaVuSans-30"/>
       <use xlink:href="#DejaVuSans-2e" x="63.623047"/>
       <use xlink:href="#DejaVuSans-30" x="95.410156"/>
      </g>
     </g>
    </g>
    <g id="xtick_4">
     <g id="line2d_13">
      <g>
       <use xlink:href="#m08823c64d8" x="327.402045" y="276.68" style="fill: #696969; stroke: #696969; stroke-width: 0.8"/>
      </g>
     </g>
     <g id="text_7">
      <!-- 0.5 -->
      <g style="fill: #696969" transform="translate(314.679545 295.8375) scale(0.16 -0.16)">
       <use xlink:href="#DejaVuSans-30"/>
       <use xlink:href="#DejaVuSans-2e" x="63.623047"/>
       <use xlink:href="#DejaVuSans-35" x="95.410156"/>
      </g>
     </g>
    </g>
    <g id="xtick_5">
     <g id="line2d_14">
      <g>
       <use xlink:href="#m08823c64d8" x="417.906591" y="276.68" style="fill: #696969; stroke: #696969; stroke-width: 0.8"/>
      </g>
     </g>
     <g id="text_8">
      <!-- 1.0 -->
      <g style="fill: #696969" transform="translate(405.184091 295.8375) scale(0.16 -0.16)">
       <use xlink:href="#DejaVuSans-31"/>
       <use xlink:href="#DejaVuSans-2e" x="63.623047"/>
       <use xlink:href="#DejaVuSans-30" x="95.410156"/>
      </g>
     </g>
    </g>
    <g id="text_9">
     <!-- $X$ -->
     <g transform="translate(231.3775 315.3225) scale(0.16 -0.16)">
      <defs>
       <path id="DejaVuSans-Oblique-58" d="M 878 4666 
L 1516 4666 
L 2316 2981 
L 3763 4666 
L 4500 4666 
L 2578 2438 
L 3738 0 
L 3103 0 
L 2163 1966 
L 459 0 
L -275 0 
L 1906 2509 
L 878 4666 
z
" transform="scale(0.015625)"/>
      </defs>
      <use xlink:href="#DejaVuSans-Oblique-58" transform="translate(0 0.09375)"/>
     </g>
    </g>
   </g>
   <g id="matplotlib.axis_6">
    <g id="ytick_4">
     <g id="line2d_15">
      <g>
       <use xlink:href="#m92ecf123d5" x="37.7875" y="273.779026" style="fill: #696969; stroke: #696969; stroke-width: 0.8"/>
      </g>
     </g>
     <g id="text_10">
      <!-- −5 -->
      <g style="fill: #696969" transform="translate(7.2 279.857776) scale(0.16 -0.16)">
       <use xlink:href="#DejaVuSans-2212"/>
       <use xlink:href="#DejaVuSans-35" x="83.789062"/>
      </g>
     </g>
    </g>
    <g id="ytick_5">
     <g id="line2d_16">
      <g>
       <use xlink:href="#m92ecf123d5" x="37.7875" y="213.123986" style="fill: #696969; stroke: #696969; stroke-width: 0.8"/>
      </g>
     </g>
     <g id="text_11">
      <!-- 0 -->
      <g style="fill: #696969" transform="translate(20.6075 219.202736) scale(0.16 -0.16)">
       <use xlink:href="#DejaVuSans-30"/>
      </g>
     </g>
    </g>
   </g>
   <g id="line2d_17">
    <path d="M 55.888409 220.678189 
L 63.128773 220.590612 
L 70.369136 220.359968 
L 77.6095 220.005304 
L 84.849864 219.764223 
L 92.090227 220.021735 
L 99.330591 221.208726 
L 106.570955 223.601614 
L 113.811318 227.010887 
L 121.051682 230.676867 
L 128.292045 233.632991 
L 135.532409 235.135638 
L 142.772773 234.945888 
L 150.013136 233.375798 
L 157.2535 230.903767 
L 164.493864 227.62768 
L 171.734227 223.204712 
L 178.974591 218.121875 
L 186.214955 214.198418 
L 193.455318 211.944278 
L 200.695682 211.252578 
L 207.936045 212.691921 
L 215.176409 215.586603 
L 222.416773 219.306537 
L 229.657136 223.833273 
L 236.8975 228.29444 
L 244.137864 231.14788 
L 251.378227 232.094942 
L 258.618591 231.803663 
L 265.858955 230.829646 
L 273.099318 229.113584 
L 280.339682 225.82882 
L 287.580045 221.023698 
L 294.820409 216.700081 
L 302.060773 213.256617 
L 309.301136 210.655757 
L 316.5415 208.779394 
L 323.781864 207.492534 
L 331.022227 207.088829 
L 338.262591 207.88118 
L 345.502955 209.470196 
L 352.743318 211.483337 
L 359.983682 213.826397 
L 367.224045 216.105456 
L 374.464409 218.831518 
L 381.704773 222.577446 
L 388.945136 224.569039 
L 396.1855 224.385217 
L 403.425864 224.460595 
L 410.666227 226.536261 
L 417.906591 231.467943 
" clip-path="url(#p2d2b7ef874)" style="fill: none; stroke: #696969; stroke-width: 2; stroke-linecap: square"/>
   </g>
   <g id="line2d_18">
    <path d="M 55.888409 220.716277 
L 63.128773 220.635138 
L 70.369136 220.553998 
L 77.6095 220.472859 
L 84.849864 220.391719 
L 92.090227 220.31058 
L 99.330591 220.22944 
L 106.570955 220.148301 
L 113.811318 220.067161 
L 121.051682 219.986022 
L 128.292045 219.904882 
L 135.532409 219.823743 
L 142.772773 219.742603 
L 150.013136 219.661464 
L 157.2535 219.580324 
L 164.493864 219.499185 
L 171.734227 219.418045 
L 178.974591 219.336906 
L 186.214955 219.255766 
L 193.455318 219.174627 
L 200.695682 219.093487 
L 207.936045 219.012348 
L 215.176409 218.931208 
L 222.416773 218.850069 
L 229.657136 218.768929 
L 236.8975 218.68779 
L 244.137864 218.60665 
L 251.378227 218.525511 
L 258.618591 218.444371 
L 265.858955 218.363232 
L 273.099318 218.282092 
L 280.339682 218.200953 
L 287.580045 218.119813 
L 294.820409 218.038674 
L 302.060773 217.957534 
L 309.301136 217.876395 
L 316.5415 217.795255 
L 323.781864 217.714116 
L 331.022227 217.632976 
L 338.262591 217.551837 
L 345.502955 217.470697 
L 352.743318 217.389558 
L 359.983682 217.308418 
L 367.224045 217.227279 
L 374.464409 217.146139 
L 381.704773 217.065 
L 388.945136 216.98386 
L 396.1855 216.902721 
L 403.425864 216.821581 
L 410.666227 216.740442 
L 417.906591 216.659302 
" clip-path="url(#p2d2b7ef874)" style="fill: none; stroke-dasharray: 7.4,3.2; stroke-dashoffset: 0; stroke: #79ad41; stroke-width: 2"/>
   </g>
   <g id="patch_9">
    <path d="M 37.7875 276.68 
L 37.7875 184.929363 
" style="fill: none; stroke: #000000; stroke-width: 0.8; stroke-linejoin: miter; stroke-linecap: square"/>
   </g>
   <g id="patch_10">
    <path d="M 436.0075 276.68 
L 436.0075 184.929363 
" style="fill: none; stroke: #000000; stroke-width: 0.8; stroke-linejoin: miter; stroke-linecap: square"/>
   </g>
   <g id="patch_11">
    <path d="M 37.7875 276.68 
L 436.0075 276.68 
" style="fill: none; stroke: #000000; stroke-width: 0.8; stroke-linejoin: miter; stroke-linecap: square"/>
   </g>
   <g id="patch_12">
    <path d="M 37.7875 184.929363 
L 436.0075 184.929363 
" style="fill: none; stroke: #000000; stroke-width: 0.8; stroke-linejoin: miter; stroke-linecap: square"/>
   </g>
  </g>
 </g>
 <defs>
  <clipPath id="p1c54d9ec17">
   <rect x="37.7875" y="7.2" width="398.22" height="45.875318"/>
  </clipPath>
  <clipPath id="p7377cb7933">
   <rect x="37.7875" y="73.127023" width="398.22" height="91.750637"/>
  </clipPath>
  <clipPath id="p2d2b7ef874">
   <rect x="37.7875" y="184.929363" width="398.22" height="91.750637"/>
  </clipPath>
 </defs>
</svg>
