<?xml version="1.0" encoding="utf-8" standalone="no"?>
<!DOCTYPE svg PUBLIC "-//W3C//DTD SVG 1.1//EN"
  "http://www.w3.org/Graphics/SVG/1.1/DTD/svg11.dtd">
<svg xmlns:xlink="http://www.w3.org/1999/xlink" width="443.2175pt" height="325.85pt" viewBox="0 0 443.2175 325.85" xmlns="http://www.w3.org/2000/svg" version="1.1">
 <metadata>
  <rdf:RDF xmlns:dc="http://purl.org/dc/elements/1.1/" xmlns:cc="http://creativecommons.org/ns#" xmlns:rdf="http://www.w3.org/1999/02/22-rdf-syntax-ns#">
   <cc:Work>
    <dc:type rdf:resource="http://purl.org/dc/dcmitype/StillImage"/>
    <dc:date>2024-01-28T20:58:26.024000</dc:date>
    <dc:format>image/svg+xml</dc:format>
    <dc:creator>
     <cc:Agent>
      <dc:title>Matplotlib v3.7.2, https://matplotlib.org/</dc:title>
     </cc:Agent>
    </dc:creator>
   </cc:Work>
  </rdf:RDF>
 </metadata>
 <defs>
  <style type="text/css">*{stroke-linejoin: round; stroke-linecap: butt}</style>
 </defs>
 <g id="figure_1">
  <g id="patch_1">
   <path d="M 0 325.85 
L 443.2175 325.85 
L 443.2175 0 
L 0 0 
z
" style="fill: #ffffff"/>
  </g>
  <g id="axes_1">
   <g id="patch_2">
    <path d="M 47.9675 54.696 
L 436.0175 54.696 
L 436.0175 7.2 
L 47.9675 7.2 
z
" style="fill: #ffffff"/>
   </g>
   <g id="PolyCollection_1">
    <defs>
     <path id="m7d578b45e1" d="M 65.606136 -273.312909 
L 65.606136 -278.738855 
L 72.661591 -278.467121 
L 79.717045 -278.188295 
L 86.7725 -278.110485 
L 93.827955 -278.110485 
L 100.883409 -278.110485 
L 107.938864 -278.110485 
L 114.994318 -278.110485 
L 122.049773 -278.110485 
L 129.105227 -278.110485 
L 136.160682 -278.110485 
L 143.216136 -278.110485 
L 150.271591 -278.110485 
L 157.327045 -278.110485 
L 164.3825 -278.110485 
L 171.437955 -278.110485 
L 178.493409 -278.110485 
L 185.548864 -278.110485 
L 192.604318 -278.110485 
L 199.659773 -278.110485 
L 206.715227 -278.110485 
L 213.770682 -278.110485 
L 220.826136 -278.110485 
L 227.881591 -278.110485 
L 234.937045 -278.110485 
L 241.9925 -278.110485 
L 249.047955 -278.401639 
L 256.103409 -279.10756 
L 263.158864 -279.957154 
L 270.214318 -280.970117 
L 277.269773 -282.164552 
L 284.325227 -283.554405 
L 291.380682 -285.146351 
L 298.436136 -286.936451 
L 305.491591 -288.907451 
L 312.547045 -291.027437 
L 319.6025 -293.250799 
L 326.657955 -295.521681 
L 333.713409 -297.779573 
L 340.768864 -299.965803 
L 347.824318 -302.029465 
L 354.879773 -303.931512 
L 361.935227 -305.646461 
L 368.990682 -307.161813 
L 376.046136 -308.475935 
L 383.101591 -309.595166 
L 390.157045 -310.530862 
L 397.2125 -311.296845 
L 404.267955 -311.907415 
L 411.323409 -312.375959 
L 418.378864 -312.714067 
L 418.378864 -273.312909 
L 418.378864 -273.312909 
L 411.323409 -273.312909 
L 404.267955 -273.312909 
L 397.2125 -273.312909 
L 390.157045 -273.312909 
L 383.101591 -273.312909 
L 376.046136 -273.312909 
L 368.990682 -273.312909 
L 361.935227 -273.312909 
L 354.879773 -273.312909 
L 347.824318 -273.312909 
L 340.768864 -273.312909 
L 333.713409 -273.312909 
L 326.657955 -273.312909 
L 319.6025 -273.312909 
L 312.547045 -273.312909 
L 305.491591 -273.312909 
L 298.436136 -273.312909 
L 291.380682 -273.312909 
L 284.325227 -273.312909 
L 277.269773 -273.312909 
L 270.214318 -273.312909 
L 263.158864 -273.312909 
L 256.103409 -273.312909 
L 249.047955 -273.312909 
L 241.9925 -273.312909 
L 234.937045 -273.312909 
L 227.881591 -273.312909 
L 220.826136 -273.312909 
L 213.770682 -273.312909 
L 206.715227 -273.312909 
L 199.659773 -273.312909 
L 192.604318 -273.312909 
L 185.548864 -273.312909 
L 178.493409 -273.312909 
L 171.437955 -273.312909 
L 164.3825 -273.312909 
L 157.327045 -273.312909 
L 150.271591 -273.312909 
L 143.216136 -273.312909 
L 136.160682 -273.312909 
L 129.105227 -273.312909 
L 122.049773 -273.312909 
L 114.994318 -273.312909 
L 107.938864 -273.312909 
L 100.883409 -273.312909 
L 93.827955 -273.312909 
L 86.7725 -273.312909 
L 79.717045 -273.312909 
L 72.661591 -273.312909 
L 65.606136 -273.312909 
z
" style="stroke: #dc143c; stroke-opacity: 0.2"/>
    </defs>
    <g clip-path="url(#p027d25d166)">
     <use xlink:href="#m7d578b45e1" x="0" y="325.85" style="fill: #dc143c; fill-opacity: 0.2; stroke: #dc143c; stroke-opacity: 0.2"/>
    </g>
   </g>
   <g id="PolyCollection_2">
    <defs>
     <path id="maad2f04b48" d="M 65.606136 -273.312909 
L 65.606136 -315.862721 
L 72.661591 -316.134455 
L 79.717045 -316.413281 
L 86.7725 -316.491091 
L 93.827955 -316.491091 
L 100.883409 -316.491091 
L 107.938864 -316.491091 
L 114.994318 -316.491091 
L 122.049773 -316.491091 
L 129.105227 -316.491091 
L 136.160682 -316.491091 
L 143.216136 -316.491091 
L 150.271591 -316.491091 
L 157.327045 -316.491091 
L 164.3825 -316.491091 
L 171.437955 -316.491091 
L 178.493409 -316.491091 
L 185.548864 -316.491091 
L 192.604318 -316.491091 
L 199.659773 -316.491091 
L 206.715227 -316.491091 
L 213.770682 -316.491091 
L 220.826136 -316.491091 
L 227.881591 -316.491091 
L 234.937045 -316.491091 
L 241.9925 -316.491091 
L 249.047955 -316.199937 
L 256.103409 -315.494016 
L 263.158864 -314.644422 
L 270.214318 -313.631459 
L 277.269773 -312.437024 
L 284.325227 -311.047171 
L 291.380682 -309.455225 
L 298.436136 -307.665125 
L 305.491591 -305.694125 
L 312.547045 -303.574139 
L 319.6025 -301.350777 
L 326.657955 -299.079895 
L 333.713409 -296.822003 
L 340.768864 -294.635773 
L 347.824318 -292.57211 
L 354.879773 -290.670064 
L 361.935227 -288.955115 
L 368.990682 -287.439763 
L 376.046136 -286.125641 
L 383.101591 -285.00641 
L 390.157045 -284.070714 
L 397.2125 -283.304731 
L 404.267955 -282.694161 
L 411.323409 -282.225616 
L 418.378864 -281.887509 
L 418.378864 -273.312909 
L 418.378864 -273.312909 
L 411.323409 -273.312909 
L 404.267955 -273.312909 
L 397.2125 -273.312909 
L 390.157045 -273.312909 
L 383.101591 -273.312909 
L 376.046136 -273.312909 
L 368.990682 -273.312909 
L 361.935227 -273.312909 
L 354.879773 -273.312909 
L 347.824318 -273.312909 
L 340.768864 -273.312909 
L 333.713409 -273.312909 
L 326.657955 -273.312909 
L 319.6025 -273.312909 
L 312.547045 -273.312909 
L 305.491591 -273.312909 
L 298.436136 -273.312909 
L 291.380682 -273.312909 
L 284.325227 -273.312909 
L 277.269773 -273.312909 
L 270.214318 -273.312909 
L 263.158864 -273.312909 
L 256.103409 -273.312909 
L 249.047955 -273.312909 
L 241.9925 -273.312909 
L 234.937045 -273.312909 
L 227.881591 -273.312909 
L 220.826136 -273.312909 
L 213.770682 -273.312909 
L 206.715227 -273.312909 
L 199.659773 -273.312909 
L 192.604318 -273.312909 
L 185.548864 -273.312909 
L 178.493409 -273.312909 
L 171.437955 -273.312909 
L 164.3825 -273.312909 
L 157.327045 -273.312909 
L 150.271591 -273.312909 
L 143.216136 -273.312909 
L 136.160682 -273.312909 
L 129.105227 -273.312909 
L 122.049773 -273.312909 
L 114.994318 -273.312909 
L 107.938864 -273.312909 
L 100.883409 -273.312909 
L 93.827955 -273.312909 
L 86.7725 -273.312909 
L 79.717045 -273.312909 
L 72.661591 -273.312909 
L 65.606136 -273.312909 
z
" style="stroke: #000080; stroke-opacity: 0.2"/>
    </defs>
    <g clip-path="url(#p027d25d166)">
     <use xlink:href="#maad2f04b48" x="0" y="325.85" style="fill: #000080; fill-opacity: 0.2; stroke: #000080; stroke-opacity: 0.2"/>
    </g>
   </g>
   <g id="matplotlib.axis_1"/>
   <g id="matplotlib.axis_2"/>
   <g id="line2d_1">
    <path d="M 65.606136 47.111145 
L 72.661591 47.382879 
L 79.717045 47.661705 
L 86.7725 47.739515 
L 93.827955 47.739515 
L 100.883409 47.739515 
L 107.938864 47.739515 
L 114.994318 47.739515 
L 122.049773 47.739515 
L 129.105227 47.739515 
L 136.160682 47.739515 
L 143.216136 47.739515 
L 150.271591 47.739515 
L 157.327045 47.739515 
L 164.3825 47.739515 
L 171.437955 47.739515 
L 178.493409 47.739515 
L 185.548864 47.739515 
L 192.604318 47.739515 
L 199.659773 47.739515 
L 206.715227 47.739515 
L 213.770682 47.739515 
L 220.826136 47.739515 
L 227.881591 47.739515 
L 234.937045 47.739515 
L 241.9925 47.739515 
L 249.047955 47.448361 
L 256.103409 46.74244 
L 263.158864 45.892846 
L 270.214318 44.879883 
L 277.269773 43.685448 
L 284.325227 42.295595 
L 291.380682 40.703649 
L 298.436136 38.913549 
L 305.491591 36.942549 
L 312.547045 34.822563 
L 319.6025 32.599201 
L 326.657955 30.328319 
L 333.713409 28.070427 
L 340.768864 25.884197 
L 347.824318 23.820535 
L 354.879773 21.918488 
L 361.935227 20.203539 
L 368.990682 18.688187 
L 376.046136 17.374065 
L 383.101591 16.254834 
L 390.157045 15.319138 
L 397.2125 14.553155 
L 404.267955 13.942585 
L 411.323409 13.474041 
L 418.378864 13.135933 
" clip-path="url(#p027d25d166)" style="fill: none; stroke: #dc143c; stroke-width: 1.5; stroke-linecap: square"/>
   </g>
   <g id="line2d_2">
    <path d="M 65.606136 9.987279 
L 72.661591 9.715545 
L 79.717045 9.436719 
L 86.7725 9.358909 
L 93.827955 9.358909 
L 100.883409 9.358909 
L 107.938864 9.358909 
L 114.994318 9.358909 
L 122.049773 9.358909 
L 129.105227 9.358909 
L 136.160682 9.358909 
L 143.216136 9.358909 
L 150.271591 9.358909 
L 157.327045 9.358909 
L 164.3825 9.358909 
L 171.437955 9.358909 
L 178.493409 9.358909 
L 185.548864 9.358909 
L 192.604318 9.358909 
L 199.659773 9.358909 
L 206.715227 9.358909 
L 213.770682 9.358909 
L 220.826136 9.358909 
L 227.881591 9.358909 
L 234.937045 9.358909 
L 241.9925 9.358909 
L 249.047955 9.650063 
L 256.103409 10.355984 
L 263.158864 11.205578 
L 270.214318 12.218541 
L 277.269773 13.412976 
L 284.325227 14.802829 
L 291.380682 16.394775 
L 298.436136 18.184875 
L 305.491591 20.155875 
L 312.547045 22.275861 
L 319.6025 24.499223 
L 326.657955 26.770105 
L 333.713409 29.027997 
L 340.768864 31.214227 
L 347.824318 33.27789 
L 354.879773 35.179936 
L 361.935227 36.894885 
L 368.990682 38.410237 
L 376.046136 39.724359 
L 383.101591 40.84359 
L 390.157045 41.779286 
L 397.2125 42.545269 
L 404.267955 43.155839 
L 411.323409 43.624384 
L 418.378864 43.962491 
" clip-path="url(#p027d25d166)" style="fill: none; stroke: #000080; stroke-width: 1.5; stroke-linecap: square"/>
   </g>
  </g>
  <g id="axes_2">
   <g id="patch_3">
    <path d="M 47.9675 165.688 
L 436.0175 165.688 
L 436.0175 70.696 
L 47.9675 70.696 
z
" style="fill: #ffffff"/>
   </g>
   <g id="PathCollection_1">
    <defs>
     <path id="m248be1177c" d="M 0 0.866025 
C 0.229673 0.866025 0.449969 0.774776 0.612372 0.612372 
C 0.774776 0.449969 0.866025 0.229673 0.866025 0 
C 0.866025 -0.229673 0.774776 -0.449969 0.612372 -0.612372 
C 0.449969 -0.774776 0.229673 -0.866025 0 -0.866025 
C -0.229673 -0.866025 -0.449969 -0.774776 -0.612372 -0.612372 
C -0.774776 -0.449969 -0.866025 -0.229673 -0.866025 0 
C -0.866025 0.229673 -0.774776 0.449969 -0.612372 0.612372 
C -0.449969 0.774776 -0.229673 0.866025 0 0.866025 
z
" style="stroke: #daa520"/>
    </defs>
    <g clip-path="url(#p29c0a422ad)">
     <use xlink:href="#m248be1177c" x="327.756919" y="85.290315" style="fill: #daa520; stroke: #daa520"/>
     <use xlink:href="#m248be1177c" x="306.020356" y="94.836305" style="fill: #daa520; stroke: #daa520"/>
     <use xlink:href="#m248be1177c" x="344.434871" y="85.165458" style="fill: #daa520; stroke: #daa520"/>
     <use xlink:href="#m248be1177c" x="363.278009" y="101.203357" style="fill: #daa520; stroke: #daa520"/>
     <use xlink:href="#m248be1177c" x="265.579145" y="98.300227" style="fill: #daa520; stroke: #daa520"/>
     <use xlink:href="#m248be1177c" x="406.907303" y="93.798323" style="fill: #daa520; stroke: #daa520"/>
     <use xlink:href="#m248be1177c" x="328.536698" y="87.808448" style="fill: #daa520; stroke: #daa520"/>
     <use xlink:href="#m248be1177c" x="332.572838" y="86.018846" style="fill: #daa520; stroke: #daa520"/>
     <use xlink:href="#m248be1177c" x="391.806359" y="112.545892" style="fill: #daa520; stroke: #daa520"/>
     <use xlink:href="#m248be1177c" x="407.997846" y="119.263786" style="fill: #daa520; stroke: #daa520"/>
     <use xlink:href="#m248be1177c" x="391.521967" y="118.166585" style="fill: #daa520; stroke: #daa520"/>
     <use xlink:href="#m248be1177c" x="323.04833" y="84.481832" style="fill: #daa520; stroke: #daa520"/>
     <use xlink:href="#m248be1177c" x="345.423678" y="97.66774" style="fill: #daa520; stroke: #daa520"/>
     <use xlink:href="#m248be1177c" x="362.818006" y="97.184791" style="fill: #daa520; stroke: #daa520"/>
     <use xlink:href="#m248be1177c" x="403.922615" y="120.888794" style="fill: #daa520; stroke: #daa520"/>
     <use xlink:href="#m248be1177c" x="353.516735" y="92.482763" style="fill: #daa520; stroke: #daa520"/>
     <use xlink:href="#m248be1177c" x="344.925357" y="92.681615" style="fill: #daa520; stroke: #daa520"/>
     <use xlink:href="#m248be1177c" x="413.612454" y="120.845675" style="fill: #daa520; stroke: #daa520"/>
     <use xlink:href="#m248be1177c" x="407.114582" y="99.669177" style="fill: #daa520; stroke: #daa520"/>
     <use xlink:href="#m248be1177c" x="410.070597" y="121.362827" style="fill: #daa520; stroke: #daa520"/>
     <use xlink:href="#m248be1177c" x="400.147188" y="110.504333" style="fill: #daa520; stroke: #daa520"/>
     <use xlink:href="#m248be1177c" x="364.335285" y="92.632765" style="fill: #daa520; stroke: #daa520"/>
     <use xlink:href="#m248be1177c" x="361.408664" y="96.208527" style="fill: #daa520; stroke: #daa520"/>
     <use xlink:href="#m248be1177c" x="401.99121" y="111.081254" style="fill: #daa520; stroke: #daa520"/>
     <use xlink:href="#m248be1177c" x="303.18283" y="84.725936" style="fill: #daa520; stroke: #daa520"/>
     <use xlink:href="#m248be1177c" x="334.388409" y="94.312409" style="fill: #daa520; stroke: #daa520"/>
     <use xlink:href="#m248be1177c" x="396.969461" y="121.639636" style="fill: #daa520; stroke: #daa520"/>
     <use xlink:href="#m248be1177c" x="294.823944" y="86.941191" style="fill: #daa520; stroke: #daa520"/>
     <use xlink:href="#m248be1177c" x="334.962628" y="87.248497" style="fill: #daa520; stroke: #daa520"/>
     <use xlink:href="#m248be1177c" x="214.797161" y="85.194796" style="fill: #daa520; stroke: #daa520"/>
     <use xlink:href="#m248be1177c" x="355.040052" y="96.738053" style="fill: #daa520; stroke: #daa520"/>
     <use xlink:href="#m248be1177c" x="413.038699" y="100.362609" style="fill: #daa520; stroke: #daa520"/>
     <use xlink:href="#m248be1177c" x="290.409397" y="89.002928" style="fill: #daa520; stroke: #daa520"/>
     <use xlink:href="#m248be1177c" x="304.99304" y="84.318997" style="fill: #daa520; stroke: #daa520"/>
     <use xlink:href="#m248be1177c" x="336.446126" y="82.496459" style="fill: #daa520; stroke: #daa520"/>
     <use xlink:href="#m248be1177c" x="333.392537" y="94.689446" style="fill: #daa520; stroke: #daa520"/>
     <use xlink:href="#m248be1177c" x="272.158429" y="92.355969" style="fill: #daa520; stroke: #daa520"/>
     <use xlink:href="#m248be1177c" x="322.720435" y="90.165214" style="fill: #daa520; stroke: #daa520"/>
     <use xlink:href="#m248be1177c" x="396.369957" y="103.361656" style="fill: #daa520; stroke: #daa520"/>
     <use xlink:href="#m248be1177c" x="267.909161" y="104.72099" style="fill: #daa520; stroke: #daa520"/>
     <use xlink:href="#m248be1177c" x="414.609142" y="110.669378" style="fill: #daa520; stroke: #daa520"/>
     <use xlink:href="#m248be1177c" x="172.342018" y="96.424905" style="fill: #daa520; stroke: #daa520"/>
     <use xlink:href="#m248be1177c" x="409.0835" y="117.638624" style="fill: #daa520; stroke: #daa520"/>
     <use xlink:href="#m248be1177c" x="308.861842" y="83.307927" style="fill: #daa520; stroke: #daa520"/>
     <use xlink:href="#m248be1177c" x="245.422646" y="78.395863" style="fill: #daa520; stroke: #daa520"/>
     <use xlink:href="#m248be1177c" x="380.988534" y="107.396508" style="fill: #daa520; stroke: #daa520"/>
     <use xlink:href="#m248be1177c" x="351.352436" y="97.838043" style="fill: #daa520; stroke: #daa520"/>
     <use xlink:href="#m248be1177c" x="341.146531" y="93.594014" style="fill: #daa520; stroke: #daa520"/>
     <use xlink:href="#m248be1177c" x="364.635765" y="93.771812" style="fill: #daa520; stroke: #daa520"/>
     <use xlink:href="#m248be1177c" x="369.830009" y="105.366545" style="fill: #daa520; stroke: #daa520"/>
     <use xlink:href="#m248be1177c" x="376.196887" y="98.665309" style="fill: #daa520; stroke: #daa520"/>
     <use xlink:href="#m248be1177c" x="359.472215" y="90.96973" style="fill: #daa520; stroke: #daa520"/>
     <use xlink:href="#m248be1177c" x="382.90688" y="108.876053" style="fill: #daa520; stroke: #daa520"/>
     <use xlink:href="#m248be1177c" x="344.768832" y="94.998112" style="fill: #daa520; stroke: #daa520"/>
     <use xlink:href="#m248be1177c" x="411.234478" y="123.057794" style="fill: #daa520; stroke: #daa520"/>
     <use xlink:href="#m248be1177c" x="373.925649" y="95.06453" style="fill: #daa520; stroke: #daa520"/>
     <use xlink:href="#m248be1177c" x="366.958926" y="94.677607" style="fill: #daa520; stroke: #daa520"/>
     <use xlink:href="#m248be1177c" x="303.919254" y="94.399475" style="fill: #daa520; stroke: #daa520"/>
     <use xlink:href="#m248be1177c" x="327.148128" y="92.819805" style="fill: #daa520; stroke: #daa520"/>
     <use xlink:href="#m248be1177c" x="406.533492" y="123.414683" style="fill: #daa520; stroke: #daa520"/>
     <use xlink:href="#m248be1177c" x="412.510245" y="112.824766" style="fill: #daa520; stroke: #daa520"/>
     <use xlink:href="#m248be1177c" x="356.7625" y="96.158665" style="fill: #daa520; stroke: #daa520"/>
     <use xlink:href="#m248be1177c" x="392.965175" y="109.662697" style="fill: #daa520; stroke: #daa520"/>
     <use xlink:href="#m248be1177c" x="393.968681" y="112.662444" style="fill: #daa520; stroke: #daa520"/>
     <use xlink:href="#m248be1177c" x="267.128521" y="75.013818" style="fill: #daa520; stroke: #daa520"/>
     <use xlink:href="#m248be1177c" x="379.768221" y="109.702031" style="fill: #daa520; stroke: #daa520"/>
     <use xlink:href="#m248be1177c" x="377.639837" y="107.571127" style="fill: #daa520; stroke: #daa520"/>
     <use xlink:href="#m248be1177c" x="181.126999" y="96.433811" style="fill: #daa520; stroke: #daa520"/>
     <use xlink:href="#m248be1177c" x="350.194234" y="89.714285" style="fill: #daa520; stroke: #daa520"/>
     <use xlink:href="#m248be1177c" x="403.980996" y="113.209342" style="fill: #daa520; stroke: #daa520"/>
     <use xlink:href="#m248be1177c" x="339.830516" y="97.212111" style="fill: #daa520; stroke: #daa520"/>
     <use xlink:href="#m248be1177c" x="348.114453" y="98.582755" style="fill: #daa520; stroke: #daa520"/>
     <use xlink:href="#m248be1177c" x="409.083279" y="114.649381" style="fill: #daa520; stroke: #daa520"/>
     <use xlink:href="#m248be1177c" x="396.715692" y="123.147663" style="fill: #daa520; stroke: #daa520"/>
     <use xlink:href="#m248be1177c" x="121.174598" y="100.769415" style="fill: #daa520; stroke: #daa520"/>
     <use xlink:href="#m248be1177c" x="280.034658" y="85.832312" style="fill: #daa520; stroke: #daa520"/>
     <use xlink:href="#m248be1177c" x="275.051032" y="76.098727" style="fill: #daa520; stroke: #daa520"/>
     <use xlink:href="#m248be1177c" x="401.515013" y="121.993874" style="fill: #daa520; stroke: #daa520"/>
     <use xlink:href="#m248be1177c" x="173.790629" y="99.312594" style="fill: #daa520; stroke: #daa520"/>
     <use xlink:href="#m248be1177c" x="353.340735" y="99.329158" style="fill: #daa520; stroke: #daa520"/>
     <use xlink:href="#m248be1177c" x="384.159595" y="116.096245" style="fill: #daa520; stroke: #daa520"/>
     <use xlink:href="#m248be1177c" x="373.146316" y="105.67813" style="fill: #daa520; stroke: #daa520"/>
     <use xlink:href="#m248be1177c" x="404.068112" y="112.88553" style="fill: #daa520; stroke: #daa520"/>
     <use xlink:href="#m248be1177c" x="289.934351" y="99.649206" style="fill: #daa520; stroke: #daa520"/>
     <use xlink:href="#m248be1177c" x="306.682044" y="81.119258" style="fill: #daa520; stroke: #daa520"/>
     <use xlink:href="#m248be1177c" x="413.194374" y="111.963393" style="fill: #daa520; stroke: #daa520"/>
     <use xlink:href="#m248be1177c" x="318.168448" y="81.745262" style="fill: #daa520; stroke: #daa520"/>
     <use xlink:href="#m248be1177c" x="164.544843" y="84.989706" style="fill: #daa520; stroke: #daa520"/>
     <use xlink:href="#m248be1177c" x="353.599984" y="98.89933" style="fill: #daa520; stroke: #daa520"/>
     <use xlink:href="#m248be1177c" x="325.319526" y="85.262668" style="fill: #daa520; stroke: #daa520"/>
     <use xlink:href="#m248be1177c" x="401.985235" y="121.826998" style="fill: #daa520; stroke: #daa520"/>
     <use xlink:href="#m248be1177c" x="387.370272" y="110.031644" style="fill: #daa520; stroke: #daa520"/>
     <use xlink:href="#m248be1177c" x="331.340731" y="84.941338" style="fill: #daa520; stroke: #daa520"/>
     <use xlink:href="#m248be1177c" x="397.788853" y="112.060178" style="fill: #daa520; stroke: #daa520"/>
    </g>
   </g>
   <g id="matplotlib.axis_3"/>
   <g id="matplotlib.axis_4">
    <g id="ytick_1">
     <g id="line2d_3">
      <defs>
       <path id="m86fabd41e9" d="M 0 0 
L -3.5 0 
" style="stroke: #696969; stroke-width: 0.8"/>
      </defs>
      <g>
       <use xlink:href="#m86fabd41e9" x="47.9675" y="142.359591" style="fill: #696969; stroke: #696969; stroke-width: 0.8"/>
      </g>
     </g>
     <g id="text_1">
      <!-- −10 -->
      <g style="fill: #696969" transform="translate(7.2 148.438341) scale(0.16 -0.16)">
       <defs>
        <path id="DejaVuSans-2212" d="M 678 2272 
L 4684 2272 
L 4684 1741 
L 678 1741 
L 678 2272 
z
" transform="scale(0.015625)"/>
        <path id="DejaVuSans-31" d="M 794 531 
L 1825 531 
L 1825 4091 
L 703 3866 
L 703 4441 
L 1819 4666 
L 2450 4666 
L 2450 531 
L 3481 531 
L 3481 0 
L 794 0 
L 794 531 
z
" transform="scale(0.015625)"/>
        <path id="DejaVuSans-30" d="M 2034 4250 
Q 1547 4250 1301 3770 
Q 1056 3291 1056 2328 
Q 1056 1369 1301 889 
Q 1547 409 2034 409 
Q 2525 409 2770 889 
Q 3016 1369 3016 2328 
Q 3016 3291 2770 3770 
Q 2525 4250 2034 4250 
z
M 2034 4750 
Q 2819 4750 3233 4129 
Q 3647 3509 3647 2328 
Q 3647 1150 3233 529 
Q 2819 -91 2034 -91 
Q 1250 -91 836 529 
Q 422 1150 422 2328 
Q 422 3509 836 4129 
Q 1250 4750 2034 4750 
z
" transform="scale(0.015625)"/>
       </defs>
       <use xlink:href="#DejaVuSans-2212"/>
       <use xlink:href="#DejaVuSans-31" x="83.789062"/>
       <use xlink:href="#DejaVuSans-30" x="147.412109"/>
      </g>
     </g>
    </g>
    <g id="ytick_2">
     <g id="line2d_4">
      <g>
       <use xlink:href="#m86fabd41e9" x="47.9675" y="92.03287" style="fill: #696969; stroke: #696969; stroke-width: 0.8"/>
      </g>
     </g>
     <g id="text_2">
      <!-- 0 -->
      <g style="fill: #696969" transform="translate(30.7875 98.11162) scale(0.16 -0.16)">
       <use xlink:href="#DejaVuSans-30"/>
      </g>
     </g>
    </g>
   </g>
   <g id="line2d_5">
    <path d="M 65.606136 89.04162 
L 72.661591 89.267389 
L 79.717045 89.610733 
L 86.7725 90.097431 
L 93.827955 90.68554 
L 100.883409 91.305236 
L 107.938864 91.898011 
L 114.994318 92.447682 
L 122.049773 92.996375 
L 129.105227 93.635597 
L 136.160682 94.465885 
L 143.216136 95.533259 
L 150.271591 96.768614 
L 157.327045 97.963276 
L 164.3825 98.802703 
L 171.437955 98.955526 
L 178.493409 98.189242 
L 185.548864 96.468856 
L 192.604318 93.996598 
L 199.659773 91.170577 
L 206.715227 88.472471 
L 213.770682 86.326353 
L 220.826136 84.985688 
L 227.881591 84.491986 
L 234.937045 84.711723 
L 241.9925 85.419184 
L 249.047955 86.375907 
L 256.103409 87.372283 
L 263.158864 88.230967 
L 270.214318 88.799425 
L 277.269773 88.96056 
L 284.325227 88.667273 
L 291.380682 87.979337 
L 298.436136 87.07236 
L 305.491591 86.204425 
L 312.547045 85.652475 
L 319.6025 85.646583 
L 326.657955 86.32651 
L 333.713409 87.728895 
L 340.768864 89.799622 
L 347.824318 92.421047 
L 354.879773 95.444132 
L 361.935227 98.714922 
L 368.990682 102.084367 
L 376.046136 105.396376 
L 383.101591 108.462185 
L 390.157045 111.040967 
L 397.2125 112.846195 
L 404.267955 113.583596 
L 411.323409 113.010416 
L 418.378864 110.998349 
" clip-path="url(#p29c0a422ad)" style="fill: none; stroke: #000000; stroke-width: 2; stroke-linecap: square"/>
   </g>
   <g id="line2d_6">
    <path d="M 65.606136 161.370182 
L 72.661591 144.345378 
L 79.717045 131.49863 
L 86.7725 121.890592 
L 93.827955 114.757307 
L 100.883409 109.485381 
L 107.938864 105.589489 
L 114.994318 102.692101 
L 122.049773 100.505324 
L 129.105227 98.814749 
L 136.160682 97.465199 
L 143.216136 96.348271 
L 150.271591 95.391559 
L 157.327045 94.549464 
L 164.3825 93.795466 
L 171.437955 93.115764 
L 178.493409 92.504174 
L 185.548864 91.958173 
L 192.604318 91.475988 
L 199.659773 91.054618 
L 206.715227 90.688688 
L 213.770682 90.370013 
L 220.826136 90.087793 
L 227.881591 89.829293 
L 234.937045 89.58094 
L 241.9925 89.329701 
L 249.047955 89.06465 
L 256.103409 88.778609 
L 263.158864 88.469761 
L 270.214318 88.14313 
L 277.269773 87.811806 
L 284.325227 87.497825 
L 291.380682 87.232596 
L 298.436136 87.056748 
L 305.491591 87.019312 
L 312.547045 87.176128 
L 319.6025 87.587348 
L 326.657955 88.31396 
L 333.713409 89.413202 
L 340.768864 90.932768 
L 347.824318 92.903695 
L 354.879773 95.331829 
L 361.935227 98.187763 
L 368.990682 101.395126 
L 376.046136 104.81714 
L 383.101591 108.241312 
L 390.157045 111.362172 
L 397.2125 113.761947 
L 404.267955 114.889052 
L 411.323409 114.034306 
L 418.378864 110.304756 
" clip-path="url(#p29c0a422ad)" style="fill: none; stroke-dasharray: 7.4,3.2; stroke-dashoffset: 0; stroke: #34b6c6; stroke-width: 2"/>
   </g>
   <g id="line2d_7">
    <path d="M 65.606136 96.437575 
L 72.661591 95.241813 
L 79.717045 94.261302 
L 86.7725 93.49022 
L 93.827955 92.93928 
L 100.883409 92.64125 
L 107.938864 92.648931 
L 114.994318 93.005017 
L 122.049773 93.677019 
L 129.105227 94.527141 
L 136.160682 95.375197 
L 143.216136 96.064071 
L 150.271591 96.491731 
L 157.327045 96.608065 
L 164.3825 96.34271 
L 171.437955 95.526056 
L 178.493409 93.941053 
L 185.548864 91.681173 
L 192.604318 89.29232 
L 199.659773 87.12204 
L 206.715227 85.419592 
L 213.770682 84.561905 
L 220.826136 84.533142 
L 227.881591 85.207237 
L 234.937045 86.503369 
L 241.9925 88.085438 
L 249.047955 89.45124 
L 256.103409 90.410442 
L 263.158864 91.020821 
L 270.214318 91.32782 
L 277.269773 91.251336 
L 284.325227 90.569293 
L 291.380682 89.328601 
L 298.436136 88.106281 
L 305.491591 87.146022 
L 312.547045 86.59877 
L 319.6025 86.569486 
L 326.657955 87.10734 
L 333.713409 88.30406 
L 340.768864 90.203732 
L 347.824318 92.644606 
L 354.879773 95.452816 
L 361.935227 98.517082 
L 368.990682 101.656938 
L 376.046136 104.901667 
L 383.101591 108.275285 
L 390.157045 110.975972 
L 397.2125 112.732589 
L 404.267955 113.94541 
L 411.323409 114.877164 
L 418.378864 115.643147 
" clip-path="url(#p29c0a422ad)" style="fill: none; stroke-dasharray: 7.4,3.2; stroke-dashoffset: 0; stroke: #9370db; stroke-width: 2"/>
   </g>
   <g id="line2d_8">
    <path d="M 65.606136 92.175558 
L 72.661591 92.364994 
L 79.717045 92.612654 
L 86.7725 92.952216 
L 93.827955 93.440309 
L 100.883409 94.166837 
L 107.938864 95.252048 
L 114.994318 96.794433 
L 122.049773 98.757497 
L 129.105227 100.917588 
L 136.160682 102.974254 
L 143.216136 104.665016 
L 150.271591 105.821652 
L 157.327045 106.364946 
L 164.3825 106.178826 
L 171.437955 104.972531 
L 178.493409 102.371333 
L 185.548864 98.542281 
L 192.604318 94.442337 
L 199.659773 90.681162 
L 206.715227 87.696098 
L 213.770682 86.147107 
L 220.826136 86.00733 
L 227.881591 87.05688 
L 234.937045 89.15458 
L 241.9925 91.712801 
L 249.047955 93.853303 
L 256.103409 95.242577 
L 263.158864 95.980421 
L 270.214318 96.144798 
L 277.269773 95.594008 
L 284.325227 93.938003 
L 291.380682 91.256612 
L 298.436136 88.555939 
L 305.491591 86.259448 
L 312.547045 84.628505 
L 319.6025 83.844185 
L 326.657955 83.990245 
L 333.713409 85.225149 
L 340.768864 87.62459 
L 347.824318 90.905235 
L 354.879773 94.763492 
L 361.935227 99.006324 
L 368.990682 103.32126 
L 376.046136 107.764203 
L 383.101591 112.384049 
L 390.157045 115.789064 
L 397.2125 117.518031 
L 404.267955 118.286703 
L 411.323409 118.574634 
L 418.378864 118.608526 
" clip-path="url(#p29c0a422ad)" style="fill: none; stroke-dasharray: 12.8,3.2,2,3.2; stroke-dashoffset: 0; stroke: #ff0000; stroke-width: 2"/>
   </g>
   <g id="patch_4">
    <path d="M 47.9675 165.688 
L 47.9675 70.696 
" style="fill: none; stroke: #000000; stroke-width: 0.8; stroke-linejoin: miter; stroke-linecap: square"/>
   </g>
   <g id="patch_5">
    <path d="M 436.0175 165.688 
L 436.0175 70.696 
" style="fill: none; stroke: #000000; stroke-width: 0.8; stroke-linejoin: miter; stroke-linecap: square"/>
   </g>
   <g id="patch_6">
    <path d="M 47.9675 165.688 
L 436.0175 165.688 
" style="fill: none; stroke: #000000; stroke-width: 0.8; stroke-linejoin: miter; stroke-linecap: square"/>
   </g>
   <g id="patch_7">
    <path d="M 47.9675 70.696 
L 436.0175 70.696 
" style="fill: none; stroke: #000000; stroke-width: 0.8; stroke-linejoin: miter; stroke-linecap: square"/>
   </g>
  </g>
  <g id="axes_3">
   <g id="patch_8">
    <path d="M 47.9675 276.68 
L 436.0175 276.68 
L 436.0175 181.688 
L 47.9675 181.688 
z
" style="fill: #ffffff"/>
   </g>
   <g id="PathCollection_2">
    <g clip-path="url(#pdbe5232687)">
     <use xlink:href="#m248be1177c" x="327.756919" y="207.923575" style="fill: #daa520; stroke: #daa520"/>
     <use xlink:href="#m248be1177c" x="306.020356" y="189.102839" style="fill: #daa520; stroke: #daa520"/>
     <use xlink:href="#m248be1177c" x="344.434871" y="221.059653" style="fill: #daa520; stroke: #daa520"/>
     <use xlink:href="#m248be1177c" x="363.278009" y="207.448433" style="fill: #daa520; stroke: #daa520"/>
     <use xlink:href="#m248be1177c" x="265.579145" y="205.39482" style="fill: #daa520; stroke: #daa520"/>
     <use xlink:href="#m248be1177c" x="406.907303" y="272.362182" style="fill: #daa520; stroke: #daa520"/>
     <use xlink:href="#m248be1177c" x="328.536698" y="201.885793" style="fill: #daa520; stroke: #daa520"/>
     <use xlink:href="#m248be1177c" x="332.572838" y="208.198255" style="fill: #daa520; stroke: #daa520"/>
     <use xlink:href="#m248be1177c" x="391.806359" y="220.294239" style="fill: #daa520; stroke: #daa520"/>
     <use xlink:href="#m248be1177c" x="407.997846" y="208.924524" style="fill: #daa520; stroke: #daa520"/>
     <use xlink:href="#m248be1177c" x="391.521967" y="206.055262" style="fill: #daa520; stroke: #daa520"/>
     <use xlink:href="#m248be1177c" x="323.04833" y="209.155937" style="fill: #daa520; stroke: #daa520"/>
     <use xlink:href="#m248be1177c" x="345.423678" y="191.031519" style="fill: #daa520; stroke: #daa520"/>
     <use xlink:href="#m248be1177c" x="362.818006" y="216.77395" style="fill: #daa520; stroke: #daa520"/>
     <use xlink:href="#m248be1177c" x="403.922615" y="204.325338" style="fill: #daa520; stroke: #daa520"/>
     <use xlink:href="#m248be1177c" x="353.516735" y="214.614488" style="fill: #daa520; stroke: #daa520"/>
     <use xlink:href="#m248be1177c" x="344.925357" y="202.880039" style="fill: #daa520; stroke: #daa520"/>
     <use xlink:href="#m248be1177c" x="413.612454" y="205.290299" style="fill: #daa520; stroke: #daa520"/>
     <use xlink:href="#m248be1177c" x="407.114582" y="257.73413" style="fill: #daa520; stroke: #daa520"/>
     <use xlink:href="#m248be1177c" x="410.070597" y="203.850484" style="fill: #daa520; stroke: #daa520"/>
     <use xlink:href="#m248be1177c" x="400.147188" y="229.382119" style="fill: #daa520; stroke: #daa520"/>
     <use xlink:href="#m248be1177c" x="364.335285" y="230.452924" style="fill: #daa520; stroke: #daa520"/>
     <use xlink:href="#m248be1177c" x="361.408664" y="217.056472" style="fill: #daa520; stroke: #daa520"/>
     <use xlink:href="#m248be1177c" x="401.99121" y="228.412868" style="fill: #daa520; stroke: #daa520"/>
     <use xlink:href="#m248be1177c" x="303.18283" y="216.434582" style="fill: #daa520; stroke: #daa520"/>
     <use xlink:href="#m248be1177c" x="334.388409" y="188.651611" style="fill: #daa520; stroke: #daa520"/>
     <use xlink:href="#m248be1177c" x="396.969461" y="200.493617" style="fill: #daa520; stroke: #daa520"/>
     <use xlink:href="#m248be1177c" x="294.823944" y="218.259326" style="fill: #daa520; stroke: #daa520"/>
     <use xlink:href="#m248be1177c" x="334.962628" y="206.68568" style="fill: #daa520; stroke: #daa520"/>
     <use xlink:href="#m248be1177c" x="214.797161" y="213.00397" style="fill: #daa520; stroke: #daa520"/>
     <use xlink:href="#m248be1177c" x="355.040052" y="206.183585" style="fill: #daa520; stroke: #daa520"/>
     <use xlink:href="#m248be1177c" x="413.038699" y="256.39353" style="fill: #daa520; stroke: #daa520"/>
     <use xlink:href="#m248be1177c" x="290.409397" y="217.478674" style="fill: #daa520; stroke: #daa520"/>
     <use xlink:href="#m248be1177c" x="304.99304" y="216.080189" style="fill: #daa520; stroke: #daa520"/>
     <use xlink:href="#m248be1177c" x="336.446126" y="219.681925" style="fill: #daa520; stroke: #daa520"/>
     <use xlink:href="#m248be1177c" x="333.392537" y="187.054699" style="fill: #daa520; stroke: #daa520"/>
     <use xlink:href="#m248be1177c" x="272.158429" y="220.166265" style="fill: #daa520; stroke: #daa520"/>
     <use xlink:href="#m248be1177c" x="322.720435" y="194.960353" style="fill: #daa520; stroke: #daa520"/>
     <use xlink:href="#m248be1177c" x="396.369957" y="245.851555" style="fill: #daa520; stroke: #daa520"/>
     <use xlink:href="#m248be1177c" x="267.909161" y="189.506592" style="fill: #daa520; stroke: #daa520"/>
     <use xlink:href="#m248be1177c" x="414.609142" y="230.703623" style="fill: #daa520; stroke: #daa520"/>
     <use xlink:href="#m248be1177c" x="172.342018" y="231.586895" style="fill: #daa520; stroke: #daa520"/>
     <use xlink:href="#m248be1177c" x="409.0835" y="213.074422" style="fill: #daa520; stroke: #daa520"/>
     <use xlink:href="#m248be1177c" x="308.861842" y="216.053066" style="fill: #daa520; stroke: #daa520"/>
     <use xlink:href="#m248be1177c" x="245.422646" y="246.933091" style="fill: #daa520; stroke: #daa520"/>
     <use xlink:href="#m248be1177c" x="380.988534" y="219.988147" style="fill: #daa520; stroke: #daa520"/>
     <use xlink:href="#m248be1177c" x="351.352436" y="198.233776" style="fill: #daa520; stroke: #daa520"/>
     <use xlink:href="#m248be1177c" x="341.146531" y="196.373281" style="fill: #daa520; stroke: #daa520"/>
     <use xlink:href="#m248be1177c" x="364.635765" y="228.069195" style="fill: #daa520; stroke: #daa520"/>
     <use xlink:href="#m248be1177c" x="369.830009" y="207.058374" style="fill: #daa520; stroke: #daa520"/>
     <use xlink:href="#m248be1177c" x="376.196887" y="233.833148" style="fill: #daa520; stroke: #daa520"/>
     <use xlink:href="#m248be1177c" x="359.472215" y="227.181549" style="fill: #daa520; stroke: #daa520"/>
     <use xlink:href="#m248be1177c" x="382.90688" y="219.33651" style="fill: #daa520; stroke: #daa520"/>
     <use xlink:href="#m248be1177c" x="344.768832" y="196.913746" style="fill: #daa520; stroke: #daa520"/>
     <use xlink:href="#m248be1177c" x="411.234478" y="199.686174" style="fill: #daa520; stroke: #daa520"/>
     <use xlink:href="#m248be1177c" x="373.925649" y="239.146465" style="fill: #daa520; stroke: #daa520"/>
     <use xlink:href="#m248be1177c" x="366.958926" y="229.351722" style="fill: #daa520; stroke: #daa520"/>
     <use xlink:href="#m248be1177c" x="303.919254" y="191.723768" style="fill: #daa520; stroke: #daa520"/>
     <use xlink:href="#m248be1177c" x="327.148128" y="188.964344" style="fill: #daa520; stroke: #daa520"/>
     <use xlink:href="#m248be1177c" x="406.533492" y="198.407399" style="fill: #daa520; stroke: #daa520"/>
     <use xlink:href="#m248be1177c" x="412.510245" y="225.27648" style="fill: #daa520; stroke: #daa520"/>
     <use xlink:href="#m248be1177c" x="356.7625" y="210.160492" style="fill: #daa520; stroke: #daa520"/>
     <use xlink:href="#m248be1177c" x="392.965175" y="228.289299" style="fill: #daa520; stroke: #daa520"/>
     <use xlink:href="#m248be1177c" x="393.968681" y="221.418648" style="fill: #daa520; stroke: #daa520"/>
     <use xlink:href="#m248be1177c" x="267.128521" y="263.616527" style="fill: #daa520; stroke: #daa520"/>
     <use xlink:href="#m248be1177c" x="379.768221" y="212.22436" style="fill: #daa520; stroke: #daa520"/>
     <use xlink:href="#m248be1177c" x="377.639837" y="213.993998" style="fill: #daa520; stroke: #daa520"/>
     <use xlink:href="#m248be1177c" x="181.126999" y="222.381223" style="fill: #daa520; stroke: #daa520"/>
     <use xlink:href="#m248be1177c" x="350.194234" y="216.94222" style="fill: #daa520; stroke: #daa520"/>
     <use xlink:href="#m248be1177c" x="403.980996" y="223.500497" style="fill: #daa520; stroke: #daa520"/>
     <use xlink:href="#m248be1177c" x="339.830516" y="186.005818" style="fill: #daa520; stroke: #daa520"/>
     <use xlink:href="#m248be1177c" x="348.114453" y="192.08883" style="fill: #daa520; stroke: #daa520"/>
     <use xlink:href="#m248be1177c" x="409.083279" y="220.534381" style="fill: #daa520; stroke: #daa520"/>
     <use xlink:href="#m248be1177c" x="396.715692" y="196.62365" style="fill: #daa520; stroke: #daa520"/>
     <use xlink:href="#m248be1177c" x="121.174598" y="205.208497" style="fill: #daa520; stroke: #daa520"/>
     <use xlink:href="#m248be1177c" x="280.034658" y="234.004056" style="fill: #daa520; stroke: #daa520"/>
     <use xlink:href="#m248be1177c" x="275.051032" y="260.207703" style="fill: #daa520; stroke: #daa520"/>
     <use xlink:href="#m248be1177c" x="401.515013" y="201.067825" style="fill: #daa520; stroke: #daa520"/>
     <use xlink:href="#m248be1177c" x="173.790629" y="223.254934" style="fill: #daa520; stroke: #daa520"/>
     <use xlink:href="#m248be1177c" x="353.340735" y="197.279067" style="fill: #daa520; stroke: #daa520"/>
     <use xlink:href="#m248be1177c" x="384.159595" y="203.178376" style="fill: #daa520; stroke: #daa520"/>
     <use xlink:href="#m248be1177c" x="373.146316" y="211.424363" style="fill: #daa520; stroke: #daa520"/>
     <use xlink:href="#m248be1177c" x="404.068112" y="224.323769" style="fill: #daa520; stroke: #daa520"/>
     <use xlink:href="#m248be1177c" x="289.934351" y="191.386841" style="fill: #daa520; stroke: #daa520"/>
     <use xlink:href="#m248be1177c" x="306.682044" y="222.884375" style="fill: #daa520; stroke: #daa520"/>
     <use xlink:href="#m248be1177c" x="413.194374" y="227.446792" style="fill: #daa520; stroke: #daa520"/>
     <use xlink:href="#m248be1177c" x="318.168448" y="216.334896" style="fill: #daa520; stroke: #daa520"/>
     <use xlink:href="#m248be1177c" x="164.544843" y="263.721529" style="fill: #daa520; stroke: #daa520"/>
     <use xlink:href="#m248be1177c" x="353.599984" y="198.719529" style="fill: #daa520; stroke: #daa520"/>
     <use xlink:href="#m248be1177c" x="325.319526" y="207.439879" style="fill: #daa520; stroke: #daa520"/>
     <use xlink:href="#m248be1177c" x="401.985235" y="201.594356" style="fill: #daa520; stroke: #daa520"/>
     <use xlink:href="#m248be1177c" x="387.370272" y="222.456204" style="fill: #daa520; stroke: #daa520"/>
     <use xlink:href="#m248be1177c" x="331.340731" y="210.220215" style="fill: #daa520; stroke: #daa520"/>
     <use xlink:href="#m248be1177c" x="397.788853" y="224.723688" style="fill: #daa520; stroke: #daa520"/>
    </g>
   </g>
   <g id="matplotlib.axis_5">
    <g id="xtick_1">
     <g id="line2d_9">
      <defs>
       <path id="mb466f170b8" d="M 0 0 
L 0 3.5 
" style="stroke: #696969; stroke-width: 0.8"/>
      </defs>
      <g>
       <use xlink:href="#mb466f170b8" x="65.606136" y="276.68" style="fill: #696969; stroke: #696969; stroke-width: 0.8"/>
      </g>
     </g>
     <g id="text_3">
      <!-- −1.0 -->
      <g style="fill: #696969" transform="translate(46.179886 295.8375) scale(0.16 -0.16)">
       <defs>
        <path id="DejaVuSans-2e" d="M 684 794 
L 1344 794 
L 1344 0 
L 684 0 
L 684 794 
z
" transform="scale(0.015625)"/>
       </defs>
       <use xlink:href="#DejaVuSans-2212"/>
       <use xlink:href="#DejaVuSans-31" x="83.789062"/>
       <use xlink:href="#DejaVuSans-2e" x="147.412109"/>
       <use xlink:href="#DejaVuSans-30" x="179.199219"/>
      </g>
     </g>
    </g>
    <g id="xtick_2">
     <g id="line2d_10">
      <g>
       <use xlink:href="#mb466f170b8" x="153.799318" y="276.68" style="fill: #696969; stroke: #696969; stroke-width: 0.8"/>
      </g>
     </g>
     <g id="text_4">
      <!-- −0.5 -->
      <g style="fill: #696969" transform="translate(134.373068 295.8375) scale(0.16 -0.16)">
       <defs>
        <path id="DejaVuSans-35" d="M 691 4666 
L 3169 4666 
L 3169 4134 
L 1269 4134 
L 1269 2991 
Q 1406 3038 1543 3061 
Q 1681 3084 1819 3084 
Q 2600 3084 3056 2656 
Q 3513 2228 3513 1497 
Q 3513 744 3044 326 
Q 2575 -91 1722 -91 
Q 1428 -91 1123 -41 
Q 819 9 494 109 
L 494 744 
Q 775 591 1075 516 
Q 1375 441 1709 441 
Q 2250 441 2565 725 
Q 2881 1009 2881 1497 
Q 2881 1984 2565 2268 
Q 2250 2553 1709 2553 
Q 1456 2553 1204 2497 
Q 953 2441 691 2322 
L 691 4666 
z
" transform="scale(0.015625)"/>
       </defs>
       <use xlink:href="#DejaVuSans-2212"/>
       <use xlink:href="#DejaVuSans-30" x="83.789062"/>
       <use xlink:href="#DejaVuSans-2e" x="147.412109"/>
       <use xlink:href="#DejaVuSans-35" x="179.199219"/>
      </g>
     </g>
    </g>
    <g id="xtick_3">
     <g id="line2d_11">
      <g>
       <use xlink:href="#mb466f170b8" x="241.9925" y="276.68" style="fill: #696969; stroke: #696969; stroke-width: 0.8"/>
      </g>
     </g>
     <g id="text_5">
      <!-- 0.0 -->
      <g style="fill: #696969" transform="translate(229.27 295.8375) scale(0.16 -0.16)">
       <use xlink:href="#DejaVuSans-30"/>
       <use xlink:href="#DejaVuSans-2e" x="63.623047"/>
       <use xlink:href="#DejaVuSans-30" x="95.410156"/>
      </g>
     </g>
    </g>
    <g id="xtick_4">
     <g id="line2d_12">
      <g>
       <use xlink:href="#mb466f170b8" x="330.185682" y="276.68" style="fill: #696969; stroke: #696969; stroke-width: 0.8"/>
      </g>
     </g>
     <g id="text_6">
      <!-- 0.5 -->
      <g style="fill: #696969" transform="translate(317.463182 295.8375) scale(0.16 -0.16)">
       <use xlink:href="#DejaVuSans-30"/>
       <use xlink:href="#DejaVuSans-2e" x="63.623047"/>
       <use xlink:href="#DejaVuSans-35" x="95.410156"/>
      </g>
     </g>
    </g>
    <g id="xtick_5">
     <g id="line2d_13">
      <g>
       <use xlink:href="#mb466f170b8" x="418.378864" y="276.68" style="fill: #696969; stroke: #696969; stroke-width: 0.8"/>
      </g>
     </g>
     <g id="text_7">
      <!-- 1.0 -->
      <g style="fill: #696969" transform="translate(405.656364 295.8375) scale(0.16 -0.16)">
       <use xlink:href="#DejaVuSans-31"/>
       <use xlink:href="#DejaVuSans-2e" x="63.623047"/>
       <use xlink:href="#DejaVuSans-30" x="95.410156"/>
      </g>
     </g>
    </g>
    <g id="text_8">
     <!-- $X$ -->
     <g transform="translate(236.4725 315.3225) scale(0.16 -0.16)">
      <defs>
       <path id="DejaVuSans-Oblique-58" d="M 878 4666 
L 1516 4666 
L 2316 2981 
L 3763 4666 
L 4500 4666 
L 2578 2438 
L 3738 0 
L 3103 0 
L 2163 1966 
L 459 0 
L -275 0 
L 1906 2509 
L 878 4666 
z
" transform="scale(0.015625)"/>
      </defs>
      <use xlink:href="#DejaVuSans-Oblique-58" transform="translate(0 0.09375)"/>
     </g>
    </g>
   </g>
   <g id="matplotlib.axis_6">
    <g id="ytick_3">
     <g id="line2d_14">
      <g>
       <use xlink:href="#m86fabd41e9" x="47.9675" y="273.676541" style="fill: #696969; stroke: #696969; stroke-width: 0.8"/>
      </g>
     </g>
     <g id="text_9">
      <!-- −5 -->
      <g style="fill: #696969" transform="translate(17.38 279.755291) scale(0.16 -0.16)">
       <use xlink:href="#DejaVuSans-2212"/>
       <use xlink:href="#DejaVuSans-35" x="83.789062"/>
      </g>
     </g>
    </g>
    <g id="ytick_4">
     <g id="line2d_15">
      <g>
       <use xlink:href="#m86fabd41e9" x="47.9675" y="210.878682" style="fill: #696969; stroke: #696969; stroke-width: 0.8"/>
      </g>
     </g>
     <g id="text_10">
      <!-- 0 -->
      <g style="fill: #696969" transform="translate(30.7875 216.957432) scale(0.16 -0.16)">
       <use xlink:href="#DejaVuSans-30"/>
      </g>
     </g>
    </g>
   </g>
   <g id="line2d_16">
    <path d="M 65.606136 218.699759 
L 72.661591 218.609088 
L 79.717045 218.370295 
L 86.7725 218.003102 
L 93.827955 217.753504 
L 100.883409 218.020114 
L 107.938864 219.249039 
L 114.994318 221.726462 
L 122.049773 225.256178 
L 129.105227 229.05167 
L 136.160682 232.112228 
L 143.216136 233.66796 
L 150.271591 233.471507 
L 157.327045 231.845949 
L 164.3825 229.286586 
L 171.437955 225.894761 
L 178.493409 221.315538 
L 185.548864 216.053136 
L 192.604318 211.99107 
L 199.659773 209.657296 
L 206.715227 208.94116 
L 213.770682 210.431353 
L 220.826136 213.428298 
L 227.881591 217.279649 
L 234.937045 221.966306 
L 241.9925 226.585076 
L 249.047955 229.539323 
L 256.103409 230.519843 
L 263.158864 230.218273 
L 270.214318 229.209847 
L 277.269773 227.43316 
L 284.325227 224.032351 
L 291.380682 219.057474 
L 298.436136 214.581112 
L 305.491591 211.015998 
L 312.547045 208.323255 
L 319.6025 206.380603 
L 326.657955 205.048281 
L 333.713409 204.630315 
L 340.768864 205.450657 
L 347.824318 207.09581 
L 354.879773 209.180072 
L 361.935227 211.605907 
L 368.990682 213.965481 
L 376.046136 216.787849 
L 383.101591 220.666113 
L 390.157045 222.728065 
L 397.2125 222.537748 
L 404.267955 222.61579 
L 411.323409 224.764785 
L 418.378864 229.870693 
" clip-path="url(#pdbe5232687)" style="fill: none; stroke: #696969; stroke-width: 2; stroke-linecap: square"/>
   </g>
   <g id="line2d_17">
    <path d="M 65.606136 218.249133 
L 72.661591 220.440148 
L 79.717045 222.226826 
L 86.7725 223.663553 
L 93.827955 224.797662 
L 100.883409 225.670224 
L 107.938864 226.31676 
L 114.994318 226.767905 
L 122.049773 227.05 
L 129.105227 227.18564 
L 136.160682 227.194155 
L 143.216136 227.092056 
L 150.271591 226.893425 
L 157.327045 226.610269 
L 164.3825 226.252833 
L 171.437955 225.829874 
L 178.493409 225.348911 
L 185.548864 224.816439 
L 192.604318 224.238121 
L 199.659773 223.618957 
L 206.715227 222.963437 
L 213.770682 222.275679 
L 220.826136 221.55955 
L 227.881591 220.818786 
L 234.937045 220.057104 
L 241.9925 219.278316 
L 249.047955 218.486437 
L 256.103409 217.685809 
L 263.158864 216.881229 
L 270.214318 216.078088 
L 277.269773 215.282529 
L 284.325227 214.501624 
L 291.380682 213.743573 
L 298.436136 213.01793 
L 305.491591 212.335855 
L 312.547045 211.710408 
L 319.6025 211.156867 
L 326.657955 210.693099 
L 333.713409 210.339964 
L 340.768864 210.121773 
L 347.824318 210.06679 
L 354.879773 210.207792 
L 361.935227 210.582689 
L 368.990682 211.235194 
L 376.046136 212.215568 
L 383.101591 213.581426 
L 390.157045 215.398616 
L 397.2125 217.742175 
L 404.267955 220.697352 
L 411.323409 224.360729 
L 418.378864 228.841411 
" clip-path="url(#pdbe5232687)" style="fill: none; stroke-dasharray: 7.4,3.2; stroke-dashoffset: 0; stroke: #79ad41; stroke-width: 2"/>
   </g>
   <g id="patch_9">
    <path d="M 47.9675 276.68 
L 47.9675 181.688 
" style="fill: none; stroke: #000000; stroke-width: 0.8; stroke-linejoin: miter; stroke-linecap: square"/>
   </g>
   <g id="patch_10">
    <path d="M 436.0175 276.68 
L 436.0175 181.688 
" style="fill: none; stroke: #000000; stroke-width: 0.8; stroke-linejoin: miter; stroke-linecap: square"/>
   </g>
   <g id="patch_11">
    <path d="M 47.9675 276.68 
L 436.0175 276.68 
" style="fill: none; stroke: #000000; stroke-width: 0.8; stroke-linejoin: miter; stroke-linecap: square"/>
   </g>
   <g id="patch_12">
    <path d="M 47.9675 181.688 
L 436.0175 181.688 
" style="fill: none; stroke: #000000; stroke-width: 0.8; stroke-linejoin: miter; stroke-linecap: square"/>
   </g>
  </g>
 </g>
 <defs>
  <clipPath id="p027d25d166">
   <rect x="47.9675" y="7.2" width="388.05" height="47.496"/>
  </clipPath>
  <clipPath id="p29c0a422ad">
   <rect x="47.9675" y="70.696" width="388.05" height="94.992"/>
  </clipPath>
  <clipPath id="pdbe5232687">
   <rect x="47.9675" y="181.688" width="388.05" height="94.992"/>
  </clipPath>
 </defs>
</svg>
