<?xml version="1.0" encoding="utf-8" standalone="no"?>
<!DOCTYPE svg PUBLIC "-//W3C//DTD SVG 1.1//EN"
  "http://www.w3.org/Graphics/SVG/1.1/DTD/svg11.dtd">
<svg xmlns:xlink="http://www.w3.org/1999/xlink" width="443.2075pt" height="325.85pt" viewBox="0 0 443.2075 325.85" xmlns="http://www.w3.org/2000/svg" version="1.1">
 <metadata>
  <rdf:RDF xmlns:dc="http://purl.org/dc/elements/1.1/" xmlns:cc="http://creativecommons.org/ns#" xmlns:rdf="http://www.w3.org/1999/02/22-rdf-syntax-ns#">
   <cc:Work>
    <dc:type rdf:resource="http://purl.org/dc/dcmitype/StillImage"/>
    <dc:date>2024-01-28T20:58:26.405399</dc:date>
    <dc:format>image/svg+xml</dc:format>
    <dc:creator>
     <cc:Agent>
      <dc:title>Matplotlib v3.7.2, https://matplotlib.org/</dc:title>
     </cc:Agent>
    </dc:creator>
   </cc:Work>
  </rdf:RDF>
 </metadata>
 <defs>
  <style type="text/css">*{stroke-linejoin: round; stroke-linecap: butt}</style>
 </defs>
 <g id="figure_1">
  <g id="patch_1">
   <path d="M 0 325.85 
L 443.2075 325.85 
L 443.2075 0 
L 0 0 
z
" style="fill: #ffffff"/>
  </g>
  <g id="axes_1">
   <g id="patch_2">
    <path d="M 37.7875 54.696 
L 436.0075 54.696 
L 436.0075 7.2 
L 37.7875 7.2 
z
" style="fill: #ffffff"/>
   </g>
   <g id="PolyCollection_1">
    <defs>
     <path id="m74e05749f8" d="M 55.888409 -273.312909 
L 55.888409 -278.738855 
L 63.128773 -278.467121 
L 70.369136 -278.188295 
L 77.6095 -278.110485 
L 84.849864 -278.110485 
L 92.090227 -278.110485 
L 99.330591 -278.110485 
L 106.570955 -278.110485 
L 113.811318 -278.110485 
L 121.051682 -278.110485 
L 128.292045 -278.110485 
L 135.532409 -278.110485 
L 142.772773 -278.110485 
L 150.013136 -278.110485 
L 157.2535 -278.110485 
L 164.493864 -278.110485 
L 171.734227 -278.110485 
L 178.974591 -278.110485 
L 186.214955 -278.110485 
L 193.455318 -278.110485 
L 200.695682 -278.110485 
L 207.936045 -278.110485 
L 215.176409 -278.110485 
L 222.416773 -278.110485 
L 229.657136 -278.110485 
L 236.8975 -278.110485 
L 244.137864 -278.401639 
L 251.378227 -279.10756 
L 258.618591 -279.957154 
L 265.858955 -280.970117 
L 273.099318 -282.164552 
L 280.339682 -283.554405 
L 287.580045 -285.146351 
L 294.820409 -286.936451 
L 302.060773 -288.907451 
L 309.301136 -291.027437 
L 316.5415 -293.250799 
L 323.781864 -295.521681 
L 331.022227 -297.779573 
L 338.262591 -299.965803 
L 345.502955 -302.029465 
L 352.743318 -303.931512 
L 359.983682 -305.646461 
L 367.224045 -307.161813 
L 374.464409 -308.475935 
L 381.704773 -309.595166 
L 388.945136 -310.530862 
L 396.1855 -311.296845 
L 403.425864 -311.907415 
L 410.666227 -312.375959 
L 417.906591 -312.714067 
L 417.906591 -273.312909 
L 417.906591 -273.312909 
L 410.666227 -273.312909 
L 403.425864 -273.312909 
L 396.1855 -273.312909 
L 388.945136 -273.312909 
L 381.704773 -273.312909 
L 374.464409 -273.312909 
L 367.224045 -273.312909 
L 359.983682 -273.312909 
L 352.743318 -273.312909 
L 345.502955 -273.312909 
L 338.262591 -273.312909 
L 331.022227 -273.312909 
L 323.781864 -273.312909 
L 316.5415 -273.312909 
L 309.301136 -273.312909 
L 302.060773 -273.312909 
L 294.820409 -273.312909 
L 287.580045 -273.312909 
L 280.339682 -273.312909 
L 273.099318 -273.312909 
L 265.858955 -273.312909 
L 258.618591 -273.312909 
L 251.378227 -273.312909 
L 244.137864 -273.312909 
L 236.8975 -273.312909 
L 229.657136 -273.312909 
L 222.416773 -273.312909 
L 215.176409 -273.312909 
L 207.936045 -273.312909 
L 200.695682 -273.312909 
L 193.455318 -273.312909 
L 186.214955 -273.312909 
L 178.974591 -273.312909 
L 171.734227 -273.312909 
L 164.493864 -273.312909 
L 157.2535 -273.312909 
L 150.013136 -273.312909 
L 142.772773 -273.312909 
L 135.532409 -273.312909 
L 128.292045 -273.312909 
L 121.051682 -273.312909 
L 113.811318 -273.312909 
L 106.570955 -273.312909 
L 99.330591 -273.312909 
L 92.090227 -273.312909 
L 84.849864 -273.312909 
L 77.6095 -273.312909 
L 70.369136 -273.312909 
L 63.128773 -273.312909 
L 55.888409 -273.312909 
z
" style="stroke: #dc143c; stroke-opacity: 0.2"/>
    </defs>
    <g clip-path="url(#peb00fe373a)">
     <use xlink:href="#m74e05749f8" x="0" y="325.85" style="fill: #dc143c; fill-opacity: 0.2; stroke: #dc143c; stroke-opacity: 0.2"/>
    </g>
   </g>
   <g id="PolyCollection_2">
    <defs>
     <path id="mbb8d1ae900" d="M 55.888409 -273.312909 
L 55.888409 -315.862721 
L 63.128773 -316.134455 
L 70.369136 -316.413281 
L 77.6095 -316.491091 
L 84.849864 -316.491091 
L 92.090227 -316.491091 
L 99.330591 -316.491091 
L 106.570955 -316.491091 
L 113.811318 -316.491091 
L 121.051682 -316.491091 
L 128.292045 -316.491091 
L 135.532409 -316.491091 
L 142.772773 -316.491091 
L 150.013136 -316.491091 
L 157.2535 -316.491091 
L 164.493864 -316.491091 
L 171.734227 -316.491091 
L 178.974591 -316.491091 
L 186.214955 -316.491091 
L 193.455318 -316.491091 
L 200.695682 -316.491091 
L 207.936045 -316.491091 
L 215.176409 -316.491091 
L 222.416773 -316.491091 
L 229.657136 -316.491091 
L 236.8975 -316.491091 
L 244.137864 -316.199937 
L 251.378227 -315.494016 
L 258.618591 -314.644422 
L 265.858955 -313.631459 
L 273.099318 -312.437024 
L 280.339682 -311.047171 
L 287.580045 -309.455225 
L 294.820409 -307.665125 
L 302.060773 -305.694125 
L 309.301136 -303.574139 
L 316.5415 -301.350777 
L 323.781864 -299.079895 
L 331.022227 -296.822003 
L 338.262591 -294.635773 
L 345.502955 -292.57211 
L 352.743318 -290.670064 
L 359.983682 -288.955115 
L 367.224045 -287.439763 
L 374.464409 -286.125641 
L 381.704773 -285.00641 
L 388.945136 -284.070714 
L 396.1855 -283.304731 
L 403.425864 -282.694161 
L 410.666227 -282.225616 
L 417.906591 -281.887509 
L 417.906591 -273.312909 
L 417.906591 -273.312909 
L 410.666227 -273.312909 
L 403.425864 -273.312909 
L 396.1855 -273.312909 
L 388.945136 -273.312909 
L 381.704773 -273.312909 
L 374.464409 -273.312909 
L 367.224045 -273.312909 
L 359.983682 -273.312909 
L 352.743318 -273.312909 
L 345.502955 -273.312909 
L 338.262591 -273.312909 
L 331.022227 -273.312909 
L 323.781864 -273.312909 
L 316.5415 -273.312909 
L 309.301136 -273.312909 
L 302.060773 -273.312909 
L 294.820409 -273.312909 
L 287.580045 -273.312909 
L 280.339682 -273.312909 
L 273.099318 -273.312909 
L 265.858955 -273.312909 
L 258.618591 -273.312909 
L 251.378227 -273.312909 
L 244.137864 -273.312909 
L 236.8975 -273.312909 
L 229.657136 -273.312909 
L 222.416773 -273.312909 
L 215.176409 -273.312909 
L 207.936045 -273.312909 
L 200.695682 -273.312909 
L 193.455318 -273.312909 
L 186.214955 -273.312909 
L 178.974591 -273.312909 
L 171.734227 -273.312909 
L 164.493864 -273.312909 
L 157.2535 -273.312909 
L 150.013136 -273.312909 
L 142.772773 -273.312909 
L 135.532409 -273.312909 
L 128.292045 -273.312909 
L 121.051682 -273.312909 
L 113.811318 -273.312909 
L 106.570955 -273.312909 
L 99.330591 -273.312909 
L 92.090227 -273.312909 
L 84.849864 -273.312909 
L 77.6095 -273.312909 
L 70.369136 -273.312909 
L 63.128773 -273.312909 
L 55.888409 -273.312909 
z
" style="stroke: #000080; stroke-opacity: 0.2"/>
    </defs>
    <g clip-path="url(#peb00fe373a)">
     <use xlink:href="#mbb8d1ae900" x="0" y="325.85" style="fill: #000080; fill-opacity: 0.2; stroke: #000080; stroke-opacity: 0.2"/>
    </g>
   </g>
   <g id="matplotlib.axis_1"/>
   <g id="matplotlib.axis_2"/>
   <g id="line2d_1">
    <path d="M 55.888409 47.111145 
L 63.128773 47.382879 
L 70.369136 47.661705 
L 77.6095 47.739515 
L 84.849864 47.739515 
L 92.090227 47.739515 
L 99.330591 47.739515 
L 106.570955 47.739515 
L 113.811318 47.739515 
L 121.051682 47.739515 
L 128.292045 47.739515 
L 135.532409 47.739515 
L 142.772773 47.739515 
L 150.013136 47.739515 
L 157.2535 47.739515 
L 164.493864 47.739515 
L 171.734227 47.739515 
L 178.974591 47.739515 
L 186.214955 47.739515 
L 193.455318 47.739515 
L 200.695682 47.739515 
L 207.936045 47.739515 
L 215.176409 47.739515 
L 222.416773 47.739515 
L 229.657136 47.739515 
L 236.8975 47.739515 
L 244.137864 47.448361 
L 251.378227 46.74244 
L 258.618591 45.892846 
L 265.858955 44.879883 
L 273.099318 43.685448 
L 280.339682 42.295595 
L 287.580045 40.703649 
L 294.820409 38.913549 
L 302.060773 36.942549 
L 309.301136 34.822563 
L 316.5415 32.599201 
L 323.781864 30.328319 
L 331.022227 28.070427 
L 338.262591 25.884197 
L 345.502955 23.820535 
L 352.743318 21.918488 
L 359.983682 20.203539 
L 367.224045 18.688187 
L 374.464409 17.374065 
L 381.704773 16.254834 
L 388.945136 15.319138 
L 396.1855 14.553155 
L 403.425864 13.942585 
L 410.666227 13.474041 
L 417.906591 13.135933 
" clip-path="url(#peb00fe373a)" style="fill: none; stroke: #dc143c; stroke-width: 1.5; stroke-linecap: square"/>
   </g>
   <g id="line2d_2">
    <path d="M 55.888409 9.987279 
L 63.128773 9.715545 
L 70.369136 9.436719 
L 77.6095 9.358909 
L 84.849864 9.358909 
L 92.090227 9.358909 
L 99.330591 9.358909 
L 106.570955 9.358909 
L 113.811318 9.358909 
L 121.051682 9.358909 
L 128.292045 9.358909 
L 135.532409 9.358909 
L 142.772773 9.358909 
L 150.013136 9.358909 
L 157.2535 9.358909 
L 164.493864 9.358909 
L 171.734227 9.358909 
L 178.974591 9.358909 
L 186.214955 9.358909 
L 193.455318 9.358909 
L 200.695682 9.358909 
L 207.936045 9.358909 
L 215.176409 9.358909 
L 222.416773 9.358909 
L 229.657136 9.358909 
L 236.8975 9.358909 
L 244.137864 9.650063 
L 251.378227 10.355984 
L 258.618591 11.205578 
L 265.858955 12.218541 
L 273.099318 13.412976 
L 280.339682 14.802829 
L 287.580045 16.394775 
L 294.820409 18.184875 
L 302.060773 20.155875 
L 309.301136 22.275861 
L 316.5415 24.499223 
L 323.781864 26.770105 
L 331.022227 29.027997 
L 338.262591 31.214227 
L 345.502955 33.27789 
L 352.743318 35.179936 
L 359.983682 36.894885 
L 367.224045 38.410237 
L 374.464409 39.724359 
L 381.704773 40.84359 
L 388.945136 41.779286 
L 396.1855 42.545269 
L 403.425864 43.155839 
L 410.666227 43.624384 
L 417.906591 43.962491 
" clip-path="url(#peb00fe373a)" style="fill: none; stroke: #000080; stroke-width: 1.5; stroke-linecap: square"/>
   </g>
  </g>
  <g id="axes_2">
   <g id="patch_3">
    <path d="M 37.7875 165.688 
L 436.0075 165.688 
L 436.0075 70.696 
L 37.7875 70.696 
z
" style="fill: #ffffff"/>
   </g>
   <g id="PathCollection_1">
    <defs>
     <path id="m4d6ff98c90" d="M 0 0.866025 
C 0.229673 0.866025 0.449969 0.774776 0.612372 0.612372 
C 0.774776 0.449969 0.866025 0.229673 0.866025 0 
C 0.866025 -0.229673 0.774776 -0.449969 0.612372 -0.612372 
C 0.449969 -0.774776 0.229673 -0.866025 0 -0.866025 
C -0.229673 -0.866025 -0.449969 -0.774776 -0.612372 -0.612372 
C -0.774776 -0.449969 -0.866025 -0.229673 -0.866025 0 
C -0.866025 0.229673 -0.774776 0.449969 -0.612372 0.612372 
C -0.449969 0.774776 -0.229673 0.866025 0 0.866025 
z
" style="stroke: #daa520"/>
    </defs>
    <g clip-path="url(#pbb59252238)">
     <use xlink:href="#m4d6ff98c90" x="324.90963" y="93.349046" style="fill: #daa520; stroke: #daa520"/>
     <use xlink:href="#m4d6ff98c90" x="302.603396" y="110.38091" style="fill: #daa520; stroke: #daa520"/>
     <use xlink:href="#m4d6ff98c90" x="342.024677" y="93.126278" style="fill: #daa520; stroke: #daa520"/>
     <use xlink:href="#m4d6ff98c90" x="361.361655" y="121.740945" style="fill: #daa520; stroke: #daa520"/>
     <use xlink:href="#m4d6ff98c90" x="261.102303" y="116.561208" style="fill: #daa520; stroke: #daa520"/>
     <use xlink:href="#m4d6ff98c90" x="406.134384" y="108.528954" style="fill: #daa520; stroke: #daa520"/>
     <use xlink:href="#m4d6ff98c90" x="325.709845" y="97.841876" style="fill: #daa520; stroke: #daa520"/>
     <use xlink:href="#m4d6ff98c90" x="329.851764" y="94.648885" style="fill: #daa520; stroke: #daa520"/>
     <use xlink:href="#m4d6ff98c90" x="390.637675" y="141.978188" style="fill: #daa520; stroke: #daa520"/>
     <use xlink:href="#m4d6ff98c90" x="407.253508" y="153.964192" style="fill: #daa520; stroke: #daa520"/>
     <use xlink:href="#m4d6ff98c90" x="390.34583" y="152.006576" style="fill: #daa520; stroke: #daa520"/>
     <use xlink:href="#m4d6ff98c90" x="320.077638" y="91.906559" style="fill: #daa520; stroke: #daa520"/>
     <use xlink:href="#m4d6ff98c90" x="343.039398" y="115.43273" style="fill: #daa520; stroke: #daa520"/>
     <use xlink:href="#m4d6ff98c90" x="360.889596" y="114.571057" style="fill: #daa520; stroke: #daa520"/>
     <use xlink:href="#m4d6ff98c90" x="403.071474" y="156.863515" style="fill: #daa520; stroke: #daa520"/>
     <use xlink:href="#m4d6ff98c90" x="351.344558" y="106.181743" style="fill: #daa520; stroke: #daa520"/>
     <use xlink:href="#m4d6ff98c90" x="342.528018" y="106.536533" style="fill: #daa520; stroke: #daa520"/>
     <use xlink:href="#m4d6ff98c90" x="413.015264" y="156.786583" style="fill: #daa520; stroke: #daa520"/>
     <use xlink:href="#m4d6ff98c90" x="406.347095" y="119.003677" style="fill: #daa520; stroke: #daa520"/>
     <use xlink:href="#m4d6ff98c90" x="409.380582" y="157.709281" style="fill: #daa520; stroke: #daa520"/>
     <use xlink:href="#m4d6ff98c90" x="399.1971" y="138.335659" style="fill: #daa520; stroke: #daa520"/>
     <use xlink:href="#m4d6ff98c90" x="362.44664" y="106.449376" style="fill: #daa520; stroke: #daa520"/>
     <use xlink:href="#m4d6ff98c90" x="359.443319" y="112.829216" style="fill: #daa520; stroke: #daa520"/>
     <use xlink:href="#m4d6ff98c90" x="401.089451" y="139.364995" style="fill: #daa520; stroke: #daa520"/>
     <use xlink:href="#m4d6ff98c90" x="299.691504" y="92.342086" style="fill: #daa520; stroke: #daa520"/>
     <use xlink:href="#m4d6ff98c90" x="331.714917" y="109.446181" style="fill: #daa520; stroke: #daa520"/>
     <use xlink:href="#m4d6ff98c90" x="395.936092" y="158.203161" style="fill: #daa520; stroke: #daa520"/>
     <use xlink:href="#m4d6ff98c90" x="291.113549" y="96.294524" style="fill: #daa520; stroke: #daa520"/>
     <use xlink:href="#m4d6ff98c90" x="332.304186" y="96.842816" style="fill: #daa520; stroke: #daa520"/>
     <use xlink:href="#m4d6ff98c90" x="208.989427" y="93.178622" style="fill: #daa520; stroke: #daa520"/>
     <use xlink:href="#m4d6ff98c90" x="352.907798" y="113.773992" style="fill: #daa520; stroke: #daa520"/>
     <use xlink:href="#m4d6ff98c90" x="412.426471" y="120.24089" style="fill: #daa520; stroke: #daa520"/>
     <use xlink:href="#m4d6ff98c90" x="286.583306" y="99.973056" style="fill: #daa520; stroke: #daa520"/>
     <use xlink:href="#m4d6ff98c90" x="301.549156" y="91.61603" style="fill: #daa520; stroke: #daa520"/>
     <use xlink:href="#m4d6ff98c90" x="333.826563" y="88.364276" style="fill: #daa520; stroke: #daa520"/>
     <use xlink:href="#m4d6ff98c90" x="330.692946" y="110.118887" style="fill: #daa520; stroke: #daa520"/>
     <use xlink:href="#m4d6ff98c90" x="267.854017" y="105.95552" style="fill: #daa520; stroke: #daa520"/>
     <use xlink:href="#m4d6ff98c90" x="319.74115" y="102.046795" style="fill: #daa520; stroke: #daa520"/>
     <use xlink:href="#m4d6ff98c90" x="395.320876" y="125.591762" style="fill: #daa520; stroke: #daa520"/>
     <use xlink:href="#m4d6ff98c90" x="263.493384" y="128.017072" style="fill: #daa520; stroke: #daa520"/>
     <use xlink:href="#m4d6ff98c90" x="414.038072" y="138.630129" style="fill: #daa520; stroke: #daa520"/>
     <use xlink:href="#m4d6ff98c90" x="165.421621" y="113.215275" style="fill: #daa520; stroke: #daa520"/>
     <use xlink:href="#m4d6ff98c90" x="408.367615" y="151.064593" style="fill: #daa520; stroke: #daa520"/>
     <use xlink:href="#m4d6ff98c90" x="305.519351" y="89.812089" style="fill: #daa520; stroke: #daa520"/>
     <use xlink:href="#m4d6ff98c90" x="240.417544" y="81.04803" style="fill: #daa520; stroke: #daa520"/>
     <use xlink:href="#m4d6ff98c90" x="379.536337" y="132.790706" style="fill: #daa520; stroke: #daa520"/>
     <use xlink:href="#m4d6ff98c90" x="349.123537" y="115.736584" style="fill: #daa520; stroke: #daa520"/>
     <use xlink:href="#m4d6ff98c90" x="338.650156" y="108.164428" style="fill: #daa520; stroke: #daa520"/>
     <use xlink:href="#m4d6ff98c90" x="362.754995" y="108.481654" style="fill: #daa520; stroke: #daa520"/>
     <use xlink:href="#m4d6ff98c90" x="368.08537" y="129.168866" style="fill: #daa520; stroke: #daa520"/>
     <use xlink:href="#m4d6ff98c90" x="374.619111" y="117.212583" style="fill: #daa520; stroke: #daa520"/>
     <use xlink:href="#m4d6ff98c90" x="357.456119" y="103.482205" style="fill: #daa520; stroke: #daa520"/>
     <use xlink:href="#m4d6ff98c90" x="381.504959" y="135.430497" style="fill: #daa520; stroke: #daa520"/>
     <use xlink:href="#m4d6ff98c90" x="342.367391" y="110.669606" style="fill: #daa520; stroke: #daa520"/>
     <use xlink:href="#m4d6ff98c90" x="410.574965" y="160.733424" style="fill: #daa520; stroke: #daa520"/>
     <use xlink:href="#m4d6ff98c90" x="372.288348" y="110.788108" style="fill: #daa520; stroke: #daa520"/>
     <use xlink:href="#m4d6ff98c90" x="365.139042" y="110.097763" style="fill: #daa520; stroke: #daa520"/>
     <use xlink:href="#m4d6ff98c90" x="300.447228" y="109.601523" style="fill: #daa520; stroke: #daa520"/>
     <use xlink:href="#m4d6ff98c90" x="324.284883" y="106.783092" style="fill: #daa520; stroke: #daa520"/>
     <use xlink:href="#m4d6ff98c90" x="405.750776" y="161.370182" style="fill: #daa520; stroke: #daa520"/>
     <use xlink:href="#m4d6ff98c90" x="411.884167" y="142.475753" style="fill: #daa520; stroke: #daa520"/>
     <use xlink:href="#m4d6ff98c90" x="354.675388" y="112.740254" style="fill: #daa520; stroke: #daa520"/>
     <use xlink:href="#m4d6ff98c90" x="391.826861" y="136.83402" style="fill: #daa520; stroke: #daa520"/>
     <use xlink:href="#m4d6ff98c90" x="392.856668" y="142.186139" style="fill: #daa520; stroke: #daa520"/>
     <use xlink:href="#m4d6ff98c90" x="262.692285" y="75.013818" style="fill: #daa520; stroke: #daa520"/>
     <use xlink:href="#m4d6ff98c90" x="378.284042" y="136.904198" style="fill: #daa520; stroke: #daa520"/>
     <use xlink:href="#m4d6ff98c90" x="376.099877" y="133.10226" style="fill: #daa520; stroke: #daa520"/>
     <use xlink:href="#m4d6ff98c90" x="174.436839" y="113.231167" style="fill: #daa520; stroke: #daa520"/>
     <use xlink:href="#m4d6ff98c90" x="347.934981" y="101.242252" style="fill: #daa520; stroke: #daa520"/>
     <use xlink:href="#m4d6ff98c90" x="403.131384" y="143.161909" style="fill: #daa520; stroke: #daa520"/>
     <use xlink:href="#m4d6ff98c90" x="337.299651" y="114.619801" style="fill: #daa520; stroke: #daa520"/>
     <use xlink:href="#m4d6ff98c90" x="345.800693" y="117.065292" style="fill: #daa520; stroke: #daa520"/>
     <use xlink:href="#m4d6ff98c90" x="408.367388" y="145.731213" style="fill: #daa520; stroke: #daa520"/>
     <use xlink:href="#m4d6ff98c90" x="395.675672" y="160.893767" style="fill: #daa520; stroke: #daa520"/>
     <use xlink:href="#m4d6ff98c90" x="112.913207" y="120.966709" style="fill: #daa520; stroke: #daa520"/>
     <use xlink:href="#m4d6ff98c90" x="275.936665" y="94.316072" style="fill: #daa520; stroke: #daa520"/>
     <use xlink:href="#m4d6ff98c90" x="270.822429" y="76.949503" style="fill: #daa520; stroke: #daa520"/>
     <use xlink:href="#m4d6ff98c90" x="400.600773" y="158.835189" style="fill: #daa520; stroke: #daa520"/>
     <use xlink:href="#m4d6ff98c90" x="166.908197" y="118.367464" style="fill: #daa520; stroke: #daa520"/>
     <use xlink:href="#m4d6ff98c90" x="351.163946" y="118.397016" style="fill: #daa520; stroke: #daa520"/>
     <use xlink:href="#m4d6ff98c90" x="382.790505" y="148.312695" style="fill: #daa520; stroke: #daa520"/>
     <use xlink:href="#m4d6ff98c90" x="371.488591" y="129.724792" style="fill: #daa520; stroke: #daa520"/>
     <use xlink:href="#m4d6ff98c90" x="403.220784" y="142.584168" style="fill: #daa520; stroke: #daa520"/>
     <use xlink:href="#m4d6ff98c90" x="286.095809" y="118.968043" style="fill: #daa520; stroke: #daa520"/>
     <use xlink:href="#m4d6ff98c90" x="303.282425" y="85.907086" style="fill: #daa520; stroke: #daa520"/>
     <use xlink:href="#m4d6ff98c90" x="412.586226" y="140.9389" style="fill: #daa520; stroke: #daa520"/>
     <use xlink:href="#m4d6ff98c90" x="315.069865" y="87.023997" style="fill: #daa520; stroke: #daa520"/>
     <use xlink:href="#m4d6ff98c90" x="157.420098" y="92.812703" style="fill: #daa520; stroke: #daa520"/>
     <use xlink:href="#m4d6ff98c90" x="351.429989" y="117.630121" style="fill: #daa520; stroke: #daa520"/>
     <use xlink:href="#m4d6ff98c90" x="322.408357" y="93.299719" style="fill: #daa520; stroke: #daa520"/>
     <use xlink:href="#m4d6ff98c90" x="401.083318" y="158.537449" style="fill: #daa520; stroke: #daa520"/>
     <use xlink:href="#m4d6ff98c90" x="386.085327" y="137.492291" style="fill: #daa520; stroke: #daa520"/>
     <use xlink:href="#m4d6ff98c90" x="328.587366" y="92.726406" style="fill: #daa520; stroke: #daa520"/>
     <use xlink:href="#m4d6ff98c90" x="396.776958" y="141.111581" style="fill: #daa520; stroke: #daa520"/>
    </g>
   </g>
   <g id="matplotlib.axis_3"/>
   <g id="matplotlib.axis_4">
    <g id="ytick_1">
     <g id="line2d_3">
      <defs>
       <path id="m8a6adc8ef1" d="M 0 0 
L -3.5 0 
" style="stroke: #696969; stroke-width: 0.8"/>
      </defs>
      <g>
       <use xlink:href="#m8a6adc8ef1" x="37.7875" y="150.275278" style="fill: #696969; stroke: #696969; stroke-width: 0.8"/>
      </g>
     </g>
     <g id="text_1">
      <!-- −5 -->
      <g style="fill: #696969" transform="translate(7.2 156.354028) scale(0.16 -0.16)">
       <defs>
        <path id="DejaVuSans-2212" d="M 678 2272 
L 4684 2272 
L 4684 1741 
L 678 1741 
L 678 2272 
z
" transform="scale(0.015625)"/>
        <path id="DejaVuSans-35" d="M 691 4666 
L 3169 4666 
L 3169 4134 
L 1269 4134 
L 1269 2991 
Q 1406 3038 1543 3061 
Q 1681 3084 1819 3084 
Q 2600 3084 3056 2656 
Q 3513 2228 3513 1497 
Q 3513 744 3044 326 
Q 2575 -91 1722 -91 
Q 1428 -91 1123 -41 
Q 819 9 494 109 
L 494 744 
Q 775 591 1075 516 
Q 1375 441 1709 441 
Q 2250 441 2565 725 
Q 2881 1009 2881 1497 
Q 2881 1984 2565 2268 
Q 2250 2553 1709 2553 
Q 1456 2553 1204 2497 
Q 953 2441 691 2322 
L 691 4666 
z
" transform="scale(0.015625)"/>
       </defs>
       <use xlink:href="#DejaVuSans-2212"/>
       <use xlink:href="#DejaVuSans-35" x="83.789062"/>
      </g>
     </g>
    </g>
    <g id="ytick_2">
     <g id="line2d_4">
      <g>
       <use xlink:href="#m8a6adc8ef1" x="37.7875" y="105.379049" style="fill: #696969; stroke: #696969; stroke-width: 0.8"/>
      </g>
     </g>
     <g id="text_2">
      <!-- 0 -->
      <g style="fill: #696969" transform="translate(20.6075 111.457799) scale(0.16 -0.16)">
       <defs>
        <path id="DejaVuSans-30" d="M 2034 4250 
Q 1547 4250 1301 3770 
Q 1056 3291 1056 2328 
Q 1056 1369 1301 889 
Q 1547 409 2034 409 
Q 2525 409 2770 889 
Q 3016 1369 3016 2328 
Q 3016 3291 2770 3770 
Q 2525 4250 2034 4250 
z
M 2034 4750 
Q 2819 4750 3233 4129 
Q 3647 3509 3647 2328 
Q 3647 1150 3233 529 
Q 2819 -91 2034 -91 
Q 1250 -91 836 529 
Q 422 1150 422 2328 
Q 422 3509 836 4129 
Q 1250 4750 2034 4750 
z
" transform="scale(0.015625)"/>
       </defs>
       <use xlink:href="#DejaVuSans-30"/>
      </g>
     </g>
    </g>
   </g>
   <g id="line2d_5">
    <path d="M 55.888409 100.042089 
L 63.128773 100.444904 
L 70.369136 101.057495 
L 77.6095 101.925858 
L 84.849864 102.975155 
L 92.090227 104.080811 
L 99.330591 105.138436 
L 106.570955 106.119153 
L 113.811318 107.098125 
L 121.051682 108.238619 
L 128.292045 109.720011 
L 135.532409 111.624409 
L 142.772773 113.828519 
L 150.013136 115.960023 
L 157.2535 117.457722 
L 164.493864 117.730387 
L 171.734227 116.363189 
L 178.974591 113.293694 
L 186.214955 108.882714 
L 193.455318 103.840553 
L 200.695682 99.026618 
L 207.936045 95.197536 
L 215.176409 92.805534 
L 222.416773 91.924674 
L 229.657136 92.316729 
L 236.8975 93.578974 
L 244.137864 95.285949 
L 251.378227 97.063673 
L 258.618591 98.59573 
L 265.858955 99.609967 
L 273.099318 99.897464 
L 280.339682 99.374183 
L 287.580045 98.146773 
L 294.820409 96.528554 
L 302.060773 94.979993 
L 309.301136 93.995208 
L 316.5415 93.984697 
L 323.781864 95.197816 
L 331.022227 97.699938 
L 338.262591 101.394509 
L 345.502955 106.071631 
L 352.743318 111.465391 
L 359.983682 117.301102 
L 367.224045 123.312834 
L 374.464409 129.222089 
L 381.704773 134.692077 
L 388.945136 139.293116 
L 396.1855 142.513987 
L 403.425864 143.82965 
L 410.666227 142.806987 
L 417.906591 139.217077 
" clip-path="url(#pbb59252238)" style="fill: none; stroke: #000000; stroke-width: 2; stroke-linecap: square"/>
   </g>
   <g id="line2d_6">
    <path d="M 55.888409 121.315696 
L 63.128773 124.187342 
L 70.369136 125.29493 
L 77.6095 125.235237 
L 84.849864 124.432806 
L 92.090227 123.183365 
L 99.330591 121.687795 
L 106.570955 120.07839 
L 113.811318 118.438852 
L 121.051682 116.819289 
L 128.292045 115.247261 
L 135.532409 113.73575 
L 142.772773 112.288784 
L 150.013136 110.905286 
L 157.2535 109.581643 
L 164.493864 108.313342 
L 171.734227 107.095971 
L 178.974591 105.9258 
L 186.214955 104.800103 
L 193.455318 103.717323 
L 200.695682 102.677168 
L 207.936045 101.680687 
L 215.176409 100.730351 
L 222.416773 99.830162 
L 229.657136 98.985801 
L 236.8975 98.204818 
L 244.137864 97.496871 
L 251.378227 96.874013 
L 258.618591 96.351031 
L 265.858955 95.945832 
L 273.099318 95.679877 
L 280.339682 95.578625 
L 287.580045 95.671971 
L 294.820409 95.99461 
L 302.060773 96.586238 
L 309.301136 97.491452 
L 316.5415 98.759185 
L 323.781864 100.441395 
L 331.022227 102.59072 
L 338.262591 105.25664 
L 345.502955 108.479647 
L 352.743318 112.282753 
L 359.983682 116.659527 
L 367.224045 121.557709 
L 374.464409 126.857233 
L 381.704773 132.341286 
L 388.945136 137.658821 
L 396.1855 142.276633 
L 403.425864 145.418878 
L 410.666227 145.991537 
L 417.906591 142.48904 
" clip-path="url(#pbb59252238)" style="fill: none; stroke-dasharray: 7.4,3.2; stroke-dashoffset: 0; stroke: #34b6c6; stroke-width: 2"/>
   </g>
   <g id="line2d_7">
    <path d="M 55.888409 111.558991 
L 63.128773 110.045236 
L 70.369136 108.726239 
L 77.6095 107.64381 
L 84.849864 106.855001 
L 92.090227 106.445134 
L 99.330591 106.526854 
L 106.570955 107.189283 
L 113.811318 108.3854 
L 121.051682 109.880379 
L 128.292045 111.362834 
L 135.532409 112.56031 
L 142.772773 113.295923 
L 150.013136 113.483136 
L 157.2535 112.999388 
L 164.493864 111.547676 
L 171.734227 108.747547 
L 178.974591 104.763183 
L 186.214955 100.552401 
L 193.455318 96.724988 
L 200.695682 93.718276 
L 207.936045 92.193568 
L 215.176409 92.123133 
L 222.416773 93.285877 
L 229.657136 95.54011 
L 236.8975 98.296342 
L 244.137864 100.67372 
L 251.378227 102.338601 
L 258.618591 103.392703 
L 265.858955 103.916217 
L 273.099318 103.769232 
L 280.339682 102.562953 
L 287.580045 100.380713 
L 294.820409 98.236126 
L 302.060773 96.558334 
L 309.301136 95.614104 
L 316.5415 95.589856 
L 323.781864 96.574369 
L 331.022227 98.731188 
L 338.262591 102.140082 
L 345.502955 106.519081 
L 352.743318 111.563646 
L 359.983682 117.076736 
L 367.224045 122.736263 
L 374.464409 128.582574 
L 381.704773 134.638743 
L 388.945136 139.467739 
L 396.1855 142.54806 
L 403.425864 144.515301 
L 410.666227 145.736287 
L 417.906591 146.283442 
" clip-path="url(#pbb59252238)" style="fill: none; stroke-dasharray: 7.4,3.2; stroke-dashoffset: 0; stroke: #9370db; stroke-width: 2"/>
   </g>
   <g id="line2d_8">
    <path d="M 55.888409 105.633632 
L 63.128773 105.971622 
L 70.369136 106.413494 
L 77.6095 107.019337 
L 84.849864 107.890189 
L 92.090227 109.186453 
L 99.330591 111.122676 
L 106.570955 113.874584 
L 113.811318 117.377065 
L 121.051682 121.231079 
L 128.292045 124.900563 
L 135.532409 127.917205 
L 142.772773 129.980863 
L 150.013136 130.950203 
L 157.2535 130.61813 
L 164.493864 128.46587 
L 171.734227 123.824837 
L 178.974591 116.993079 
L 186.214955 109.677997 
L 193.455318 102.967345 
L 200.695682 97.641421 
L 207.936045 94.877726 
L 215.176409 94.628338 
L 222.416773 96.500934 
L 229.657136 100.243632 
L 236.8975 104.807986 
L 244.137864 108.627048 
L 251.378227 111.105778 
L 258.618591 112.422232 
L 265.858955 112.715512 
L 273.099318 111.732798 
L 280.339682 108.778168 
L 287.580045 103.994058 
L 294.820409 99.175542 
L 302.060773 95.078165 
L 309.301136 92.168251 
L 316.5415 90.768875 
L 323.781864 91.029473 
L 331.022227 93.232778 
L 338.262591 97.513838 
L 345.502955 103.367133 
L 352.743318 110.250999 
L 359.983682 117.82102 
L 367.224045 125.519687 
L 374.464409 133.446745 
L 381.704773 141.689429 
L 388.945136 147.764625 
L 396.1855 150.849432 
L 403.425864 152.220889 
L 410.666227 152.734613 
L 417.906591 152.795083 
" clip-path="url(#pbb59252238)" style="fill: none; stroke-dasharray: 12.8,3.2,2,3.2; stroke-dashoffset: 0; stroke: #ff0000; stroke-width: 2"/>
   </g>
   <g id="patch_4">
    <path d="M 37.7875 165.688 
L 37.7875 70.696 
" style="fill: none; stroke: #000000; stroke-width: 0.8; stroke-linejoin: miter; stroke-linecap: square"/>
   </g>
   <g id="patch_5">
    <path d="M 436.0075 165.688 
L 436.0075 70.696 
" style="fill: none; stroke: #000000; stroke-width: 0.8; stroke-linejoin: miter; stroke-linecap: square"/>
   </g>
   <g id="patch_6">
    <path d="M 37.7875 165.688 
L 436.0075 165.688 
" style="fill: none; stroke: #000000; stroke-width: 0.8; stroke-linejoin: miter; stroke-linecap: square"/>
   </g>
   <g id="patch_7">
    <path d="M 37.7875 70.696 
L 436.0075 70.696 
" style="fill: none; stroke: #000000; stroke-width: 0.8; stroke-linejoin: miter; stroke-linecap: square"/>
   </g>
  </g>
  <g id="axes_3">
   <g id="patch_8">
    <path d="M 37.7875 276.68 
L 436.0075 276.68 
L 436.0075 181.688 
L 37.7875 181.688 
z
" style="fill: #ffffff"/>
   </g>
   <g id="PathCollection_2">
    <g clip-path="url(#p91f1d44479)">
     <use xlink:href="#m4d6ff98c90" x="324.90963" y="207.923575" style="fill: #daa520; stroke: #daa520"/>
     <use xlink:href="#m4d6ff98c90" x="302.603396" y="189.102839" style="fill: #daa520; stroke: #daa520"/>
     <use xlink:href="#m4d6ff98c90" x="342.024677" y="221.059653" style="fill: #daa520; stroke: #daa520"/>
     <use xlink:href="#m4d6ff98c90" x="361.361655" y="207.448433" style="fill: #daa520; stroke: #daa520"/>
     <use xlink:href="#m4d6ff98c90" x="261.102303" y="205.39482" style="fill: #daa520; stroke: #daa520"/>
     <use xlink:href="#m4d6ff98c90" x="406.134384" y="272.362182" style="fill: #daa520; stroke: #daa520"/>
     <use xlink:href="#m4d6ff98c90" x="325.709845" y="201.885793" style="fill: #daa520; stroke: #daa520"/>
     <use xlink:href="#m4d6ff98c90" x="329.851764" y="208.198255" style="fill: #daa520; stroke: #daa520"/>
     <use xlink:href="#m4d6ff98c90" x="390.637675" y="220.294239" style="fill: #daa520; stroke: #daa520"/>
     <use xlink:href="#m4d6ff98c90" x="407.253508" y="208.924524" style="fill: #daa520; stroke: #daa520"/>
     <use xlink:href="#m4d6ff98c90" x="390.34583" y="206.055262" style="fill: #daa520; stroke: #daa520"/>
     <use xlink:href="#m4d6ff98c90" x="320.077638" y="209.155937" style="fill: #daa520; stroke: #daa520"/>
     <use xlink:href="#m4d6ff98c90" x="343.039398" y="191.031519" style="fill: #daa520; stroke: #daa520"/>
     <use xlink:href="#m4d6ff98c90" x="360.889596" y="216.77395" style="fill: #daa520; stroke: #daa520"/>
     <use xlink:href="#m4d6ff98c90" x="403.071474" y="204.325338" style="fill: #daa520; stroke: #daa520"/>
     <use xlink:href="#m4d6ff98c90" x="351.344558" y="214.614488" style="fill: #daa520; stroke: #daa520"/>
     <use xlink:href="#m4d6ff98c90" x="342.528018" y="202.880039" style="fill: #daa520; stroke: #daa520"/>
     <use xlink:href="#m4d6ff98c90" x="413.015264" y="205.290299" style="fill: #daa520; stroke: #daa520"/>
     <use xlink:href="#m4d6ff98c90" x="406.347095" y="257.73413" style="fill: #daa520; stroke: #daa520"/>
     <use xlink:href="#m4d6ff98c90" x="409.380582" y="203.850484" style="fill: #daa520; stroke: #daa520"/>
     <use xlink:href="#m4d6ff98c90" x="399.1971" y="229.382119" style="fill: #daa520; stroke: #daa520"/>
     <use xlink:href="#m4d6ff98c90" x="362.44664" y="230.452924" style="fill: #daa520; stroke: #daa520"/>
     <use xlink:href="#m4d6ff98c90" x="359.443319" y="217.056472" style="fill: #daa520; stroke: #daa520"/>
     <use xlink:href="#m4d6ff98c90" x="401.089451" y="228.412868" style="fill: #daa520; stroke: #daa520"/>
     <use xlink:href="#m4d6ff98c90" x="299.691504" y="216.434582" style="fill: #daa520; stroke: #daa520"/>
     <use xlink:href="#m4d6ff98c90" x="331.714917" y="188.651611" style="fill: #daa520; stroke: #daa520"/>
     <use xlink:href="#m4d6ff98c90" x="395.936092" y="200.493617" style="fill: #daa520; stroke: #daa520"/>
     <use xlink:href="#m4d6ff98c90" x="291.113549" y="218.259326" style="fill: #daa520; stroke: #daa520"/>
     <use xlink:href="#m4d6ff98c90" x="332.304186" y="206.68568" style="fill: #daa520; stroke: #daa520"/>
     <use xlink:href="#m4d6ff98c90" x="208.989427" y="213.00397" style="fill: #daa520; stroke: #daa520"/>
     <use xlink:href="#m4d6ff98c90" x="352.907798" y="206.183585" style="fill: #daa520; stroke: #daa520"/>
     <use xlink:href="#m4d6ff98c90" x="412.426471" y="256.39353" style="fill: #daa520; stroke: #daa520"/>
     <use xlink:href="#m4d6ff98c90" x="286.583306" y="217.478674" style="fill: #daa520; stroke: #daa520"/>
     <use xlink:href="#m4d6ff98c90" x="301.549156" y="216.080189" style="fill: #daa520; stroke: #daa520"/>
     <use xlink:href="#m4d6ff98c90" x="333.826563" y="219.681925" style="fill: #daa520; stroke: #daa520"/>
     <use xlink:href="#m4d6ff98c90" x="330.692946" y="187.054699" style="fill: #daa520; stroke: #daa520"/>
     <use xlink:href="#m4d6ff98c90" x="267.854017" y="220.166265" style="fill: #daa520; stroke: #daa520"/>
     <use xlink:href="#m4d6ff98c90" x="319.74115" y="194.960353" style="fill: #daa520; stroke: #daa520"/>
     <use xlink:href="#m4d6ff98c90" x="395.320876" y="245.851555" style="fill: #daa520; stroke: #daa520"/>
     <use xlink:href="#m4d6ff98c90" x="263.493384" y="189.506592" style="fill: #daa520; stroke: #daa520"/>
     <use xlink:href="#m4d6ff98c90" x="414.038072" y="230.703623" style="fill: #daa520; stroke: #daa520"/>
     <use xlink:href="#m4d6ff98c90" x="165.421621" y="231.586895" style="fill: #daa520; stroke: #daa520"/>
     <use xlink:href="#m4d6ff98c90" x="408.367615" y="213.074422" style="fill: #daa520; stroke: #daa520"/>
     <use xlink:href="#m4d6ff98c90" x="305.519351" y="216.053066" style="fill: #daa520; stroke: #daa520"/>
     <use xlink:href="#m4d6ff98c90" x="240.417544" y="246.933091" style="fill: #daa520; stroke: #daa520"/>
     <use xlink:href="#m4d6ff98c90" x="379.536337" y="219.988147" style="fill: #daa520; stroke: #daa520"/>
     <use xlink:href="#m4d6ff98c90" x="349.123537" y="198.233776" style="fill: #daa520; stroke: #daa520"/>
     <use xlink:href="#m4d6ff98c90" x="338.650156" y="196.373281" style="fill: #daa520; stroke: #daa520"/>
     <use xlink:href="#m4d6ff98c90" x="362.754995" y="228.069195" style="fill: #daa520; stroke: #daa520"/>
     <use xlink:href="#m4d6ff98c90" x="368.08537" y="207.058374" style="fill: #daa520; stroke: #daa520"/>
     <use xlink:href="#m4d6ff98c90" x="374.619111" y="233.833148" style="fill: #daa520; stroke: #daa520"/>
     <use xlink:href="#m4d6ff98c90" x="357.456119" y="227.181549" style="fill: #daa520; stroke: #daa520"/>
     <use xlink:href="#m4d6ff98c90" x="381.504959" y="219.33651" style="fill: #daa520; stroke: #daa520"/>
     <use xlink:href="#m4d6ff98c90" x="342.367391" y="196.913746" style="fill: #daa520; stroke: #daa520"/>
     <use xlink:href="#m4d6ff98c90" x="410.574965" y="199.686174" style="fill: #daa520; stroke: #daa520"/>
     <use xlink:href="#m4d6ff98c90" x="372.288348" y="239.146465" style="fill: #daa520; stroke: #daa520"/>
     <use xlink:href="#m4d6ff98c90" x="365.139042" y="229.351722" style="fill: #daa520; stroke: #daa520"/>
     <use xlink:href="#m4d6ff98c90" x="300.447228" y="191.723768" style="fill: #daa520; stroke: #daa520"/>
     <use xlink:href="#m4d6ff98c90" x="324.284883" y="188.964344" style="fill: #daa520; stroke: #daa520"/>
     <use xlink:href="#m4d6ff98c90" x="405.750776" y="198.407399" style="fill: #daa520; stroke: #daa520"/>
     <use xlink:href="#m4d6ff98c90" x="411.884167" y="225.27648" style="fill: #daa520; stroke: #daa520"/>
     <use xlink:href="#m4d6ff98c90" x="354.675388" y="210.160492" style="fill: #daa520; stroke: #daa520"/>
     <use xlink:href="#m4d6ff98c90" x="391.826861" y="228.289299" style="fill: #daa520; stroke: #daa520"/>
     <use xlink:href="#m4d6ff98c90" x="392.856668" y="221.418648" style="fill: #daa520; stroke: #daa520"/>
     <use xlink:href="#m4d6ff98c90" x="262.692285" y="263.616527" style="fill: #daa520; stroke: #daa520"/>
     <use xlink:href="#m4d6ff98c90" x="378.284042" y="212.22436" style="fill: #daa520; stroke: #daa520"/>
     <use xlink:href="#m4d6ff98c90" x="376.099877" y="213.993998" style="fill: #daa520; stroke: #daa520"/>
     <use xlink:href="#m4d6ff98c90" x="174.436839" y="222.381223" style="fill: #daa520; stroke: #daa520"/>
     <use xlink:href="#m4d6ff98c90" x="347.934981" y="216.94222" style="fill: #daa520; stroke: #daa520"/>
     <use xlink:href="#m4d6ff98c90" x="403.131384" y="223.500497" style="fill: #daa520; stroke: #daa520"/>
     <use xlink:href="#m4d6ff98c90" x="337.299651" y="186.005818" style="fill: #daa520; stroke: #daa520"/>
     <use xlink:href="#m4d6ff98c90" x="345.800693" y="192.08883" style="fill: #daa520; stroke: #daa520"/>
     <use xlink:href="#m4d6ff98c90" x="408.367388" y="220.534381" style="fill: #daa520; stroke: #daa520"/>
     <use xlink:href="#m4d6ff98c90" x="395.675672" y="196.62365" style="fill: #daa520; stroke: #daa520"/>
     <use xlink:href="#m4d6ff98c90" x="112.913207" y="205.208497" style="fill: #daa520; stroke: #daa520"/>
     <use xlink:href="#m4d6ff98c90" x="275.936665" y="234.004056" style="fill: #daa520; stroke: #daa520"/>
     <use xlink:href="#m4d6ff98c90" x="270.822429" y="260.207703" style="fill: #daa520; stroke: #daa520"/>
     <use xlink:href="#m4d6ff98c90" x="400.600773" y="201.067825" style="fill: #daa520; stroke: #daa520"/>
     <use xlink:href="#m4d6ff98c90" x="166.908197" y="223.254934" style="fill: #daa520; stroke: #daa520"/>
     <use xlink:href="#m4d6ff98c90" x="351.163946" y="197.279067" style="fill: #daa520; stroke: #daa520"/>
     <use xlink:href="#m4d6ff98c90" x="382.790505" y="203.178376" style="fill: #daa520; stroke: #daa520"/>
     <use xlink:href="#m4d6ff98c90" x="371.488591" y="211.424363" style="fill: #daa520; stroke: #daa520"/>
     <use xlink:href="#m4d6ff98c90" x="403.220784" y="224.323769" style="fill: #daa520; stroke: #daa520"/>
     <use xlink:href="#m4d6ff98c90" x="286.095809" y="191.386841" style="fill: #daa520; stroke: #daa520"/>
     <use xlink:href="#m4d6ff98c90" x="303.282425" y="222.884375" style="fill: #daa520; stroke: #daa520"/>
     <use xlink:href="#m4d6ff98c90" x="412.586226" y="227.446792" style="fill: #daa520; stroke: #daa520"/>
     <use xlink:href="#m4d6ff98c90" x="315.069865" y="216.334896" style="fill: #daa520; stroke: #daa520"/>
     <use xlink:href="#m4d6ff98c90" x="157.420098" y="263.721529" style="fill: #daa520; stroke: #daa520"/>
     <use xlink:href="#m4d6ff98c90" x="351.429989" y="198.719529" style="fill: #daa520; stroke: #daa520"/>
     <use xlink:href="#m4d6ff98c90" x="322.408357" y="207.439879" style="fill: #daa520; stroke: #daa520"/>
     <use xlink:href="#m4d6ff98c90" x="401.083318" y="201.594356" style="fill: #daa520; stroke: #daa520"/>
     <use xlink:href="#m4d6ff98c90" x="386.085327" y="222.456204" style="fill: #daa520; stroke: #daa520"/>
     <use xlink:href="#m4d6ff98c90" x="328.587366" y="210.220215" style="fill: #daa520; stroke: #daa520"/>
     <use xlink:href="#m4d6ff98c90" x="396.776958" y="224.723688" style="fill: #daa520; stroke: #daa520"/>
    </g>
   </g>
   <g id="matplotlib.axis_5">
    <g id="xtick_1">
     <g id="line2d_9">
      <defs>
       <path id="ma85206529b" d="M 0 0 
L 0 3.5 
" style="stroke: #696969; stroke-width: 0.8"/>
      </defs>
      <g>
       <use xlink:href="#ma85206529b" x="55.888409" y="276.68" style="fill: #696969; stroke: #696969; stroke-width: 0.8"/>
      </g>
     </g>
     <g id="text_3">
      <!-- −1.0 -->
      <g style="fill: #696969" transform="translate(36.462159 295.8375) scale(0.16 -0.16)">
       <defs>
        <path id="DejaVuSans-31" d="M 794 531 
L 1825 531 
L 1825 4091 
L 703 3866 
L 703 4441 
L 1819 4666 
L 2450 4666 
L 2450 531 
L 3481 531 
L 3481 0 
L 794 0 
L 794 531 
z
" transform="scale(0.015625)"/>
        <path id="DejaVuSans-2e" d="M 684 794 
L 1344 794 
L 1344 0 
L 684 0 
L 684 794 
z
" transform="scale(0.015625)"/>
       </defs>
       <use xlink:href="#DejaVuSans-2212"/>
       <use xlink:href="#DejaVuSans-31" x="83.789062"/>
       <use xlink:href="#DejaVuSans-2e" x="147.412109"/>
       <use xlink:href="#DejaVuSans-30" x="179.199219"/>
      </g>
     </g>
    </g>
    <g id="xtick_2">
     <g id="line2d_10">
      <g>
       <use xlink:href="#ma85206529b" x="146.392955" y="276.68" style="fill: #696969; stroke: #696969; stroke-width: 0.8"/>
      </g>
     </g>
     <g id="text_4">
      <!-- −0.5 -->
      <g style="fill: #696969" transform="translate(126.966705 295.8375) scale(0.16 -0.16)">
       <use xlink:href="#DejaVuSans-2212"/>
       <use xlink:href="#DejaVuSans-30" x="83.789062"/>
       <use xlink:href="#DejaVuSans-2e" x="147.412109"/>
       <use xlink:href="#DejaVuSans-35" x="179.199219"/>
      </g>
     </g>
    </g>
    <g id="xtick_3">
     <g id="line2d_11">
      <g>
       <use xlink:href="#ma85206529b" x="236.8975" y="276.68" style="fill: #696969; stroke: #696969; stroke-width: 0.8"/>
      </g>
     </g>
     <g id="text_5">
      <!-- 0.0 -->
      <g style="fill: #696969" transform="translate(224.175 295.8375) scale(0.16 -0.16)">
       <use xlink:href="#DejaVuSans-30"/>
       <use xlink:href="#DejaVuSans-2e" x="63.623047"/>
       <use xlink:href="#DejaVuSans-30" x="95.410156"/>
      </g>
     </g>
    </g>
    <g id="xtick_4">
     <g id="line2d_12">
      <g>
       <use xlink:href="#ma85206529b" x="327.402045" y="276.68" style="fill: #696969; stroke: #696969; stroke-width: 0.8"/>
      </g>
     </g>
     <g id="text_6">
      <!-- 0.5 -->
      <g style="fill: #696969" transform="translate(314.679545 295.8375) scale(0.16 -0.16)">
       <use xlink:href="#DejaVuSans-30"/>
       <use xlink:href="#DejaVuSans-2e" x="63.623047"/>
       <use xlink:href="#DejaVuSans-35" x="95.410156"/>
      </g>
     </g>
    </g>
    <g id="xtick_5">
     <g id="line2d_13">
      <g>
       <use xlink:href="#ma85206529b" x="417.906591" y="276.68" style="fill: #696969; stroke: #696969; stroke-width: 0.8"/>
      </g>
     </g>
     <g id="text_7">
      <!-- 1.0 -->
      <g style="fill: #696969" transform="translate(405.184091 295.8375) scale(0.16 -0.16)">
       <use xlink:href="#DejaVuSans-31"/>
       <use xlink:href="#DejaVuSans-2e" x="63.623047"/>
       <use xlink:href="#DejaVuSans-30" x="95.410156"/>
      </g>
     </g>
    </g>
    <g id="text_8">
     <!-- $X$ -->
     <g transform="translate(231.3775 315.3225) scale(0.16 -0.16)">
      <defs>
       <path id="DejaVuSans-Oblique-58" d="M 878 4666 
L 1516 4666 
L 2316 2981 
L 3763 4666 
L 4500 4666 
L 2578 2438 
L 3738 0 
L 3103 0 
L 2163 1966 
L 459 0 
L -275 0 
L 1906 2509 
L 878 4666 
z
" transform="scale(0.015625)"/>
      </defs>
      <use xlink:href="#DejaVuSans-Oblique-58" transform="translate(0 0.09375)"/>
     </g>
    </g>
   </g>
   <g id="matplotlib.axis_6">
    <g id="ytick_3">
     <g id="line2d_14">
      <g>
       <use xlink:href="#m8a6adc8ef1" x="37.7875" y="273.676541" style="fill: #696969; stroke: #696969; stroke-width: 0.8"/>
      </g>
     </g>
     <g id="text_9">
      <!-- −5 -->
      <g style="fill: #696969" transform="translate(7.2 279.755291) scale(0.16 -0.16)">
       <use xlink:href="#DejaVuSans-2212"/>
       <use xlink:href="#DejaVuSans-35" x="83.789062"/>
      </g>
     </g>
    </g>
    <g id="ytick_4">
     <g id="line2d_15">
      <g>
       <use xlink:href="#m8a6adc8ef1" x="37.7875" y="210.878682" style="fill: #696969; stroke: #696969; stroke-width: 0.8"/>
      </g>
     </g>
     <g id="text_10">
      <!-- 0 -->
      <g style="fill: #696969" transform="translate(20.6075 216.957432) scale(0.16 -0.16)">
       <use xlink:href="#DejaVuSans-30"/>
      </g>
     </g>
    </g>
   </g>
   <g id="line2d_16">
    <path d="M 55.888409 218.699759 
L 63.128773 218.609088 
L 70.369136 218.370295 
L 77.6095 218.003102 
L 84.849864 217.753504 
L 92.090227 218.020114 
L 99.330591 219.249039 
L 106.570955 221.726462 
L 113.811318 225.256178 
L 121.051682 229.05167 
L 128.292045 232.112228 
L 135.532409 233.66796 
L 142.772773 233.471507 
L 150.013136 231.845949 
L 157.2535 229.286586 
L 164.493864 225.894761 
L 171.734227 221.315538 
L 178.974591 216.053136 
L 186.214955 211.99107 
L 193.455318 209.657296 
L 200.695682 208.94116 
L 207.936045 210.431353 
L 215.176409 213.428298 
L 222.416773 217.279649 
L 229.657136 221.966306 
L 236.8975 226.585076 
L 244.137864 229.539323 
L 251.378227 230.519843 
L 258.618591 230.218273 
L 265.858955 229.209847 
L 273.099318 227.43316 
L 280.339682 224.032351 
L 287.580045 219.057474 
L 294.820409 214.581112 
L 302.060773 211.015998 
L 309.301136 208.323255 
L 316.5415 206.380603 
L 323.781864 205.048281 
L 331.022227 204.630315 
L 338.262591 205.450657 
L 345.502955 207.09581 
L 352.743318 209.180072 
L 359.983682 211.605907 
L 367.224045 213.965481 
L 374.464409 216.787849 
L 381.704773 220.666113 
L 388.945136 222.728065 
L 396.1855 222.537748 
L 403.425864 222.61579 
L 410.666227 224.764785 
L 417.906591 229.870693 
" clip-path="url(#p91f1d44479)" style="fill: none; stroke: #696969; stroke-width: 2; stroke-linecap: square"/>
   </g>
   <g id="line2d_17">
    <path d="M 55.888409 215.830054 
L 63.128773 218.830565 
L 70.369136 221.177934 
L 77.6095 222.997063 
L 84.849864 224.387614 
L 92.090227 225.428986 
L 99.330591 226.184378 
L 106.570955 226.704098 
L 113.811318 227.028235 
L 121.051682 227.188807 
L 128.292045 227.21147 
L 135.532409 227.116882 
L 142.772773 226.921771 
L 150.013136 226.639782 
L 157.2535 226.282135 
L 164.493864 225.858148 
L 171.734227 225.375642 
L 178.974591 224.841264 
L 186.214955 224.260746 
L 193.455318 223.639113 
L 200.695682 222.980861 
L 207.936045 222.290101 
L 215.176409 221.570695 
L 222.416773 220.826376 
L 229.657136 220.060861 
L 236.8975 219.277967 
L 244.137864 218.481724 
L 251.378227 217.6765 
L 258.618591 216.867135 
L 265.858955 216.059082 
L 273.099318 215.258579 
L 280.339682 214.472832 
L 287.580045 213.710227 
L 294.820409 212.98057 
L 302.060773 212.295362 
L 309.301136 211.668093 
L 316.5415 211.114584 
L 323.781864 210.65334 
L 331.022227 210.305936 
L 338.262591 210.097407 
L 345.502955 210.056642 
L 352.743318 210.216748 
L 359.983682 210.61537 
L 367.224045 211.29493 
L 374.464409 212.302733 
L 381.704773 213.690903 
L 388.945136 215.516081 
L 396.1855 217.838797 
L 403.425864 220.722442 
L 410.666227 224.231733 
L 417.906591 228.430535 
" clip-path="url(#p91f1d44479)" style="fill: none; stroke-dasharray: 7.4,3.2; stroke-dashoffset: 0; stroke: #79ad41; stroke-width: 2"/>
   </g>
   <g id="patch_9">
    <path d="M 37.7875 276.68 
L 37.7875 181.688 
" style="fill: none; stroke: #000000; stroke-width: 0.8; stroke-linejoin: miter; stroke-linecap: square"/>
   </g>
   <g id="patch_10">
    <path d="M 436.0075 276.68 
L 436.0075 181.688 
" style="fill: none; stroke: #000000; stroke-width: 0.8; stroke-linejoin: miter; stroke-linecap: square"/>
   </g>
   <g id="patch_11">
    <path d="M 37.7875 276.68 
L 436.0075 276.68 
" style="fill: none; stroke: #000000; stroke-width: 0.8; stroke-linejoin: miter; stroke-linecap: square"/>
   </g>
   <g id="patch_12">
    <path d="M 37.7875 181.688 
L 436.0075 181.688 
" style="fill: none; stroke: #000000; stroke-width: 0.8; stroke-linejoin: miter; stroke-linecap: square"/>
   </g>
  </g>
 </g>
 <defs>
  <clipPath id="peb00fe373a">
   <rect x="37.7875" y="7.2" width="398.22" height="47.496"/>
  </clipPath>
  <clipPath id="pbb59252238">
   <rect x="37.7875" y="70.696" width="398.22" height="94.992"/>
  </clipPath>
  <clipPath id="p91f1d44479">
   <rect x="37.7875" y="181.688" width="398.22" height="94.992"/>
  </clipPath>
 </defs>
</svg>
