<?xml version="1.0" encoding="utf-8" standalone="no"?>
<!DOCTYPE svg PUBLIC "-//W3C//DTD SVG 1.1//EN"
  "http://www.w3.org/Graphics/SVG/1.1/DTD/svg11.dtd">
<svg xmlns:xlink="http://www.w3.org/1999/xlink" width="443.21pt" height="325.85pt" viewBox="0 0 443.21 325.85" xmlns="http://www.w3.org/2000/svg" version="1.1">
 <metadata>
  <rdf:RDF xmlns:dc="http://purl.org/dc/elements/1.1/" xmlns:cc="http://creativecommons.org/ns#" xmlns:rdf="http://www.w3.org/1999/02/22-rdf-syntax-ns#">
   <cc:Work>
    <dc:type rdf:resource="http://purl.org/dc/dcmitype/StillImage"/>
    <dc:date>2024-01-28T20:57:01.233604</dc:date>
    <dc:format>image/svg+xml</dc:format>
    <dc:creator>
     <cc:Agent>
      <dc:title>Matplotlib v3.7.2, https://matplotlib.org/</dc:title>
     </cc:Agent>
    </dc:creator>
   </cc:Work>
  </rdf:RDF>
 </metadata>
 <defs>
  <style type="text/css">*{stroke-linejoin: round; stroke-linecap: butt}</style>
 </defs>
 <g id="figure_1">
  <g id="patch_1">
   <path d="M 0 325.85 
L 443.21 325.85 
L 443.21 0 
L 0 0 
z
" style="fill: #ffffff"/>
  </g>
  <g id="axes_1">
   <g id="patch_2">
    <path d="M 24.38 53.543427 
L 436.01 53.543427 
L 436.01 7.2 
L 24.38 7.2 
z
" style="fill: #ffffff"/>
   </g>
   <g id="PolyCollection_1">
    <defs>
     <path id="m72808ba44d" d="M 43.090455 -274.413093 
L 43.090455 -280.275764 
L 50.574636 -280.92604 
L 58.058818 -281.638892 
L 65.543 -282.414526 
L 73.027182 -283.251348 
L 80.511364 -284.145667 
L 87.995545 -285.091515 
L 95.479727 -286.080603 
L 102.963909 -287.10244 
L 110.448091 -288.144628 
L 117.932273 -289.193326 
L 125.416455 -290.23381 
L 132.900636 -291.25115 
L 140.384818 -292.230815 
L 147.869 -293.159282 
L 155.353182 -294.024499 
L 162.837364 -294.816171 
L 170.321545 -295.525993 
L 177.805727 -296.147633 
L 185.289909 -296.676695 
L 192.774091 -297.110577 
L 200.258273 -297.44828 
L 207.742455 -297.690229 
L 215.226636 -297.838108 
L 222.710818 -297.894685 
L 230.195 -297.863711 
L 237.679182 -297.749829 
L 245.163364 -297.558487 
L 252.647545 -297.295903 
L 260.131727 -296.968977 
L 267.615909 -296.585264 
L 275.100091 -296.152834 
L 282.584273 -295.680211 
L 290.068455 -295.176188 
L 297.552636 -294.649724 
L 305.036818 -294.109718 
L 312.521 -293.564882 
L 320.005182 -293.023536 
L 327.489364 -292.493503 
L 334.973545 -291.981965 
L 342.457727 -291.495377 
L 349.941909 -291.03947 
L 357.426091 -290.619205 
L 364.910273 -290.238828 
L 372.394455 -289.901907 
L 379.878636 -289.611452 
L 387.362818 -289.369979 
L 394.847 -289.179612 
L 402.331182 -289.04221 
L 409.815364 -288.959426 
L 417.299545 -288.932823 
L 417.299545 -274.413093 
L 417.299545 -274.413093 
L 409.815364 -274.413093 
L 402.331182 -274.413093 
L 394.847 -274.413093 
L 387.362818 -274.413093 
L 379.878636 -274.413093 
L 372.394455 -274.413093 
L 364.910273 -274.413093 
L 357.426091 -274.413093 
L 349.941909 -274.413093 
L 342.457727 -274.413093 
L 334.973545 -274.413093 
L 327.489364 -274.413093 
L 320.005182 -274.413093 
L 312.521 -274.413093 
L 305.036818 -274.413093 
L 297.552636 -274.413093 
L 290.068455 -274.413093 
L 282.584273 -274.413093 
L 275.100091 -274.413093 
L 267.615909 -274.413093 
L 260.131727 -274.413093 
L 252.647545 -274.413093 
L 245.163364 -274.413093 
L 237.679182 -274.413093 
L 230.195 -274.413093 
L 222.710818 -274.413093 
L 215.226636 -274.413093 
L 207.742455 -274.413093 
L 200.258273 -274.413093 
L 192.774091 -274.413093 
L 185.289909 -274.413093 
L 177.805727 -274.413093 
L 170.321545 -274.413093 
L 162.837364 -274.413093 
L 155.353182 -274.413093 
L 147.869 -274.413093 
L 140.384818 -274.413093 
L 132.900636 -274.413093 
L 125.416455 -274.413093 
L 117.932273 -274.413093 
L 110.448091 -274.413093 
L 102.963909 -274.413093 
L 95.479727 -274.413093 
L 87.995545 -274.413093 
L 80.511364 -274.413093 
L 73.027182 -274.413093 
L 65.543 -274.413093 
L 58.058818 -274.413093 
L 50.574636 -274.413093 
L 43.090455 -274.413093 
z
" style="stroke: #dc143c; stroke-opacity: 0.2"/>
    </defs>
    <g clip-path="url(#pebd8b5f408)">
     <use xlink:href="#m72808ba44d" x="0" y="325.85" style="fill: #dc143c; fill-opacity: 0.2; stroke: #dc143c; stroke-opacity: 0.2"/>
    </g>
   </g>
   <g id="PolyCollection_2">
    <defs>
     <path id="m1945a27d18" d="M 43.090455 -274.413093 
L 43.090455 -316.543481 
L 50.574636 -315.893205 
L 58.058818 -315.180353 
L 65.543 -314.404719 
L 73.027182 -313.567897 
L 80.511364 -312.673578 
L 87.995545 -311.72773 
L 95.479727 -310.738642 
L 102.963909 -309.716805 
L 110.448091 -308.674617 
L 117.932273 -307.625919 
L 125.416455 -306.585435 
L 132.900636 -305.568094 
L 140.384818 -304.58843 
L 147.869 -303.659963 
L 155.353182 -302.794746 
L 162.837364 -302.003074 
L 170.321545 -301.293252 
L 177.805727 -300.671612 
L 185.289909 -300.14255 
L 192.774091 -299.708668 
L 200.258273 -299.370965 
L 207.742455 -299.129016 
L 215.226636 -298.981137 
L 222.710818 -298.92456 
L 230.195 -298.955534 
L 237.679182 -299.069416 
L 245.163364 -299.260758 
L 252.647545 -299.523342 
L 260.131727 -299.850268 
L 267.615909 -300.233981 
L 275.100091 -300.666411 
L 282.584273 -301.139034 
L 290.068455 -301.643057 
L 297.552636 -302.169521 
L 305.036818 -302.709527 
L 312.521 -303.254363 
L 320.005182 -303.795709 
L 327.489364 -304.325742 
L 334.973545 -304.83728 
L 342.457727 -305.323868 
L 349.941909 -305.779775 
L 357.426091 -306.20004 
L 364.910273 -306.580417 
L 372.394455 -306.917337 
L 379.878636 -307.207793 
L 387.362818 -307.449266 
L 394.847 -307.639633 
L 402.331182 -307.777035 
L 409.815364 -307.859819 
L 417.299545 -307.886422 
L 417.299545 -274.413093 
L 417.299545 -274.413093 
L 409.815364 -274.413093 
L 402.331182 -274.413093 
L 394.847 -274.413093 
L 387.362818 -274.413093 
L 379.878636 -274.413093 
L 372.394455 -274.413093 
L 364.910273 -274.413093 
L 357.426091 -274.413093 
L 349.941909 -274.413093 
L 342.457727 -274.413093 
L 334.973545 -274.413093 
L 327.489364 -274.413093 
L 320.005182 -274.413093 
L 312.521 -274.413093 
L 305.036818 -274.413093 
L 297.552636 -274.413093 
L 290.068455 -274.413093 
L 282.584273 -274.413093 
L 275.100091 -274.413093 
L 267.615909 -274.413093 
L 260.131727 -274.413093 
L 252.647545 -274.413093 
L 245.163364 -274.413093 
L 237.679182 -274.413093 
L 230.195 -274.413093 
L 222.710818 -274.413093 
L 215.226636 -274.413093 
L 207.742455 -274.413093 
L 200.258273 -274.413093 
L 192.774091 -274.413093 
L 185.289909 -274.413093 
L 177.805727 -274.413093 
L 170.321545 -274.413093 
L 162.837364 -274.413093 
L 155.353182 -274.413093 
L 147.869 -274.413093 
L 140.384818 -274.413093 
L 132.900636 -274.413093 
L 125.416455 -274.413093 
L 117.932273 -274.413093 
L 110.448091 -274.413093 
L 102.963909 -274.413093 
L 95.479727 -274.413093 
L 87.995545 -274.413093 
L 80.511364 -274.413093 
L 73.027182 -274.413093 
L 65.543 -274.413093 
L 58.058818 -274.413093 
L 50.574636 -274.413093 
L 43.090455 -274.413093 
z
" style="stroke: #000080; stroke-opacity: 0.2"/>
    </defs>
    <g clip-path="url(#pebd8b5f408)">
     <use xlink:href="#m1945a27d18" x="0" y="325.85" style="fill: #000080; fill-opacity: 0.2; stroke: #000080; stroke-opacity: 0.2"/>
    </g>
   </g>
   <g id="matplotlib.axis_1"/>
   <g id="matplotlib.axis_2"/>
   <g id="line2d_1">
    <path d="M 43.090455 45.574236 
L 50.574636 44.92396 
L 58.058818 44.211108 
L 65.543 43.435474 
L 73.027182 42.598652 
L 80.511364 41.704333 
L 87.995545 40.758485 
L 95.479727 39.769397 
L 102.963909 38.74756 
L 110.448091 37.705372 
L 117.932273 36.656674 
L 125.416455 35.61619 
L 132.900636 34.59885 
L 140.384818 33.619185 
L 147.869 32.690718 
L 155.353182 31.825501 
L 162.837364 31.033829 
L 170.321545 30.324007 
L 177.805727 29.702367 
L 185.289909 29.173305 
L 192.774091 28.739423 
L 200.258273 28.40172 
L 207.742455 28.159771 
L 215.226636 28.011892 
L 222.710818 27.955315 
L 230.195 27.986289 
L 237.679182 28.100171 
L 245.163364 28.291513 
L 252.647545 28.554097 
L 260.131727 28.881023 
L 267.615909 29.264736 
L 275.100091 29.697166 
L 282.584273 30.169789 
L 290.068455 30.673812 
L 297.552636 31.200276 
L 305.036818 31.740282 
L 312.521 32.285118 
L 320.005182 32.826464 
L 327.489364 33.356497 
L 334.973545 33.868035 
L 342.457727 34.354623 
L 349.941909 34.81053 
L 357.426091 35.230795 
L 364.910273 35.611172 
L 372.394455 35.948093 
L 379.878636 36.238548 
L 387.362818 36.480021 
L 394.847 36.670388 
L 402.331182 36.80779 
L 409.815364 36.890574 
L 417.299545 36.917177 
" clip-path="url(#pebd8b5f408)" style="fill: none; stroke: #dc143c; stroke-width: 1.5; stroke-linecap: square"/>
   </g>
   <g id="line2d_2">
    <path d="M 43.090455 9.306519 
L 50.574636 9.956795 
L 58.058818 10.669647 
L 65.543 11.445281 
L 73.027182 12.282103 
L 80.511364 13.176422 
L 87.995545 14.12227 
L 95.479727 15.111358 
L 102.963909 16.133195 
L 110.448091 17.175383 
L 117.932273 18.224081 
L 125.416455 19.264565 
L 132.900636 20.281906 
L 140.384818 21.26157 
L 147.869 22.190037 
L 155.353182 23.055254 
L 162.837364 23.846926 
L 170.321545 24.556748 
L 177.805727 25.178388 
L 185.289909 25.70745 
L 192.774091 26.141332 
L 200.258273 26.479035 
L 207.742455 26.720984 
L 215.226636 26.868863 
L 222.710818 26.92544 
L 230.195 26.894466 
L 237.679182 26.780584 
L 245.163364 26.589242 
L 252.647545 26.326658 
L 260.131727 25.999732 
L 267.615909 25.616019 
L 275.100091 25.183589 
L 282.584273 24.710966 
L 290.068455 24.206943 
L 297.552636 23.680479 
L 305.036818 23.140473 
L 312.521 22.595637 
L 320.005182 22.054291 
L 327.489364 21.524258 
L 334.973545 21.01272 
L 342.457727 20.526132 
L 349.941909 20.070225 
L 357.426091 19.64996 
L 364.910273 19.269583 
L 372.394455 18.932663 
L 379.878636 18.642207 
L 387.362818 18.400734 
L 394.847 18.210367 
L 402.331182 18.072965 
L 409.815364 17.990181 
L 417.299545 17.963578 
" clip-path="url(#pebd8b5f408)" style="fill: none; stroke: #000080; stroke-width: 1.5; stroke-linecap: square"/>
   </g>
  </g>
  <g id="axes_2">
   <g id="patch_3">
    <path d="M 24.38 165.111713 
L 436.01 165.111713 
L 436.01 72.42486 
L 24.38 72.42486 
z
" style="fill: #ffffff"/>
   </g>
   <g id="PathCollection_1">
    <defs>
     <path id="md27f491161" d="M 0 0.866025 
C 0.229673 0.866025 0.449969 0.774776 0.612372 0.612372 
C 0.774776 0.449969 0.866025 0.229673 0.866025 0 
C 0.866025 -0.229673 0.774776 -0.449969 0.612372 -0.612372 
C 0.449969 -0.774776 0.229673 -0.866025 0 -0.866025 
C -0.229673 -0.866025 -0.449969 -0.774776 -0.612372 -0.612372 
C -0.774776 -0.449969 -0.866025 -0.229673 -0.866025 0 
C -0.866025 0.229673 -0.774776 0.449969 -0.612372 0.612372 
C -0.449969 0.774776 -0.229673 0.866025 0 0.866025 
z
" style="stroke: #daa520"/>
    </defs>
    <g clip-path="url(#p0b1b5d76f7)">
     <use xlink:href="#md27f491161" x="290.699069" y="125.087381" style="fill: #daa520; stroke: #daa520"/>
     <use xlink:href="#md27f491161" x="179.537814" y="122.596273" style="fill: #daa520; stroke: #daa520"/>
     <use xlink:href="#md27f491161" x="61.124049" y="111.096408" style="fill: #daa520; stroke: #daa520"/>
     <use xlink:href="#md27f491161" x="273.692255" y="156.465935" style="fill: #daa520; stroke: #daa520"/>
     <use xlink:href="#md27f491161" x="104.608658" y="108.029085" style="fill: #daa520; stroke: #daa520"/>
     <use xlink:href="#md27f491161" x="153.912315" y="110.441214" style="fill: #daa520; stroke: #daa520"/>
     <use xlink:href="#md27f491161" x="399.942127" y="122.872165" style="fill: #daa520; stroke: #daa520"/>
     <use xlink:href="#md27f491161" x="137.552774" y="97.818106" style="fill: #daa520; stroke: #daa520"/>
     <use xlink:href="#md27f491161" x="73.413433" y="124.322256" style="fill: #daa520; stroke: #daa520"/>
     <use xlink:href="#md27f491161" x="247.33411" y="76.637899" style="fill: #daa520; stroke: #daa520"/>
     <use xlink:href="#md27f491161" x="148.457932" y="108.287328" style="fill: #daa520; stroke: #daa520"/>
     <use xlink:href="#md27f491161" x="121.833417" y="99.337403" style="fill: #daa520; stroke: #daa520"/>
     <use xlink:href="#md27f491161" x="400.987584" y="123.601665" style="fill: #daa520; stroke: #daa520"/>
     <use xlink:href="#md27f491161" x="281.644435" y="115.377446" style="fill: #daa520; stroke: #daa520"/>
     <use xlink:href="#md27f491161" x="223.086039" y="97.581496" style="fill: #daa520; stroke: #daa520"/>
     <use xlink:href="#md27f491161" x="53.306172" y="118.387718" style="fill: #daa520; stroke: #daa520"/>
     <use xlink:href="#md27f491161" x="354.0812" y="140.677142" style="fill: #daa520; stroke: #daa520"/>
     <use xlink:href="#md27f491161" x="61.015763" y="104.126731" style="fill: #daa520; stroke: #daa520"/>
     <use xlink:href="#md27f491161" x="377.481764" y="89.652353" style="fill: #daa520; stroke: #daa520"/>
     <use xlink:href="#md27f491161" x="249.025157" y="128.655791" style="fill: #daa520; stroke: #daa520"/>
     <use xlink:href="#md27f491161" x="177.052915" y="122.63109" style="fill: #daa520; stroke: #daa520"/>
     <use xlink:href="#md27f491161" x="321.568314" y="115.394498" style="fill: #daa520; stroke: #daa520"/>
     <use xlink:href="#md27f491161" x="278.126339" y="124.797563" style="fill: #daa520; stroke: #daa520"/>
     <use xlink:href="#md27f491161" x="254.782831" y="77.200673" style="fill: #daa520; stroke: #daa520"/>
     <use xlink:href="#md27f491161" x="366.151921" y="101.499556" style="fill: #daa520; stroke: #daa520"/>
     <use xlink:href="#md27f491161" x="281.714972" y="104.484905" style="fill: #daa520; stroke: #daa520"/>
     <use xlink:href="#md27f491161" x="316.626003" y="105.032003" style="fill: #daa520; stroke: #daa520"/>
     <use xlink:href="#md27f491161" x="74.399318" y="89.563883" style="fill: #daa520; stroke: #daa520"/>
     <use xlink:href="#md27f491161" x="158.75178" y="113.436669" style="fill: #daa520; stroke: #daa520"/>
     <use xlink:href="#md27f491161" x="178.822435" y="122.6616" style="fill: #daa520; stroke: #daa520"/>
     <use xlink:href="#md27f491161" x="91.636011" y="109.98994" style="fill: #daa520; stroke: #daa520"/>
     <use xlink:href="#md27f491161" x="380.051031" y="89.544363" style="fill: #daa520; stroke: #daa520"/>
     <use xlink:href="#md27f491161" x="325.371565" y="111.351088" style="fill: #daa520; stroke: #daa520"/>
     <use xlink:href="#md27f491161" x="373.673716" y="126.083918" style="fill: #daa520; stroke: #daa520"/>
     <use xlink:href="#md27f491161" x="91.910734" y="98.510951" style="fill: #daa520; stroke: #daa520"/>
     <use xlink:href="#md27f491161" x="188.286005" y="112.404732" style="fill: #daa520; stroke: #daa520"/>
     <use xlink:href="#md27f491161" x="149.246879" y="122.377944" style="fill: #daa520; stroke: #daa520"/>
     <use xlink:href="#md27f491161" x="297.993682" y="89.20142" style="fill: #daa520; stroke: #daa520"/>
     <use xlink:href="#md27f491161" x="226.014462" y="89.809029" style="fill: #daa520; stroke: #daa520"/>
     <use xlink:href="#md27f491161" x="406.279876" y="124.525062" style="fill: #daa520; stroke: #daa520"/>
     <use xlink:href="#md27f491161" x="267.60063" y="113.935456" style="fill: #daa520; stroke: #daa520"/>
     <use xlink:href="#md27f491161" x="416.988369" y="160.898675" style="fill: #daa520; stroke: #daa520"/>
     <use xlink:href="#md27f491161" x="216.697667" y="99.432887" style="fill: #daa520; stroke: #daa520"/>
     <use xlink:href="#md27f491161" x="203.61361" y="137.283073" style="fill: #daa520; stroke: #daa520"/>
     <use xlink:href="#md27f491161" x="299.426834" y="107.782681" style="fill: #daa520; stroke: #daa520"/>
     <use xlink:href="#md27f491161" x="200.651994" y="114.732274" style="fill: #daa520; stroke: #daa520"/>
     <use xlink:href="#md27f491161" x="314.258441" y="112.546135" style="fill: #daa520; stroke: #daa520"/>
     <use xlink:href="#md27f491161" x="297.005802" y="105.396729" style="fill: #daa520; stroke: #daa520"/>
     <use xlink:href="#md27f491161" x="180.736136" y="95.769854" style="fill: #daa520; stroke: #daa520"/>
     <use xlink:href="#md27f491161" x="409.889269" y="93.413261" style="fill: #daa520; stroke: #daa520"/>
     <use xlink:href="#md27f491161" x="259.213884" y="114.221909" style="fill: #daa520; stroke: #daa520"/>
     <use xlink:href="#md27f491161" x="385.110729" y="151.737769" style="fill: #daa520; stroke: #daa520"/>
     <use xlink:href="#md27f491161" x="412.369048" y="112.495245" style="fill: #daa520; stroke: #daa520"/>
     <use xlink:href="#md27f491161" x="143.908529" y="110.590677" style="fill: #daa520; stroke: #daa520"/>
     <use xlink:href="#md27f491161" x="138.309559" y="110.170622" style="fill: #daa520; stroke: #daa520"/>
     <use xlink:href="#md27f491161" x="279.788909" y="86.53941" style="fill: #daa520; stroke: #daa520"/>
     <use xlink:href="#md27f491161" x="230.109862" y="139.621447" style="fill: #daa520; stroke: #daa520"/>
     <use xlink:href="#md27f491161" x="322.475676" y="96.220552" style="fill: #daa520; stroke: #daa520"/>
     <use xlink:href="#md27f491161" x="261.157214" y="150.459371" style="fill: #daa520; stroke: #daa520"/>
     <use xlink:href="#md27f491161" x="147.016586" y="111.376614" style="fill: #daa520; stroke: #daa520"/>
     <use xlink:href="#md27f491161" x="392.712049" y="87.692915" style="fill: #daa520; stroke: #daa520"/>
     <use xlink:href="#md27f491161" x="104.098227" y="130.298861" style="fill: #daa520; stroke: #daa520"/>
     <use xlink:href="#md27f491161" x="48.998149" y="132.9209" style="fill: #daa520; stroke: #daa520"/>
     <use xlink:href="#md27f491161" x="202.478601" y="113.999512" style="fill: #daa520; stroke: #daa520"/>
     <use xlink:href="#md27f491161" x="336.195695" y="121.601063" style="fill: #daa520; stroke: #daa520"/>
     <use xlink:href="#md27f491161" x="261.623937" y="114.662242" style="fill: #daa520; stroke: #daa520"/>
     <use xlink:href="#md27f491161" x="376.234333" y="109.655155" style="fill: #daa520; stroke: #daa520"/>
     <use xlink:href="#md27f491161" x="313.663522" y="113.161981" style="fill: #daa520; stroke: #daa520"/>
     <use xlink:href="#md27f491161" x="376.159085" y="99.754081" style="fill: #daa520; stroke: #daa520"/>
     <use xlink:href="#md27f491161" x="200.061965" y="104.477227" style="fill: #daa520; stroke: #daa520"/>
     <use xlink:href="#md27f491161" x="210.635855" y="103.37074" style="fill: #daa520; stroke: #daa520"/>
     <use xlink:href="#md27f491161" x="191.509868" y="131.284449" style="fill: #daa520; stroke: #daa520"/>
     <use xlink:href="#md27f491161" x="398.324527" y="151.399308" style="fill: #daa520; stroke: #daa520"/>
     <use xlink:href="#md27f491161" x="114.337728" y="92.082628" style="fill: #daa520; stroke: #daa520"/>
     <use xlink:href="#md27f491161" x="377.065844" y="84.128648" style="fill: #daa520; stroke: #daa520"/>
     <use xlink:href="#md27f491161" x="177.819426" y="109.261248" style="fill: #daa520; stroke: #daa520"/>
     <use xlink:href="#md27f491161" x="247.857078" y="150.787183" style="fill: #daa520; stroke: #daa520"/>
     <use xlink:href="#md27f491161" x="60.058421" y="133.445769" style="fill: #daa520; stroke: #daa520"/>
     <use xlink:href="#md27f491161" x="78.475969" y="102.988519" style="fill: #daa520; stroke: #daa520"/>
     <use xlink:href="#md27f491161" x="235.488935" y="100.404586" style="fill: #daa520; stroke: #daa520"/>
     <use xlink:href="#md27f491161" x="185.271527" y="100.437573" style="fill: #daa520; stroke: #daa520"/>
     <use xlink:href="#md27f491161" x="60.621403" y="123.544012" style="fill: #daa520; stroke: #daa520"/>
     <use xlink:href="#md27f491161" x="228.344008" y="102.081718" style="fill: #daa520; stroke: #daa520"/>
     <use xlink:href="#md27f491161" x="167.854807" y="117.487004" style="fill: #daa520; stroke: #daa520"/>
     <use xlink:href="#md27f491161" x="180.262973" y="105.297884" style="fill: #daa520; stroke: #daa520"/>
     <use xlink:href="#md27f491161" x="398.092569" y="105.978595" style="fill: #daa520; stroke: #daa520"/>
     <use xlink:href="#md27f491161" x="58.425127" y="130.168526" style="fill: #daa520; stroke: #daa520"/>
     <use xlink:href="#md27f491161" x="387.992571" y="112.953136" style="fill: #daa520; stroke: #daa520"/>
     <use xlink:href="#md27f491161" x="276.197562" y="84.410999" style="fill: #daa520; stroke: #daa520"/>
     <use xlink:href="#md27f491161" x="280.580397" y="94.511847" style="fill: #daa520; stroke: #daa520"/>
     <use xlink:href="#md27f491161" x="181.025453" y="125.921802" style="fill: #daa520; stroke: #daa520"/>
     <use xlink:href="#md27f491161" x="371.242198" y="144.472805" style="fill: #daa520; stroke: #daa520"/>
     <use xlink:href="#md27f491161" x="296.83678" y="108.936946" style="fill: #daa520; stroke: #daa520"/>
     <use xlink:href="#md27f491161" x="163.102084" y="116.335998" style="fill: #daa520; stroke: #daa520"/>
     <use xlink:href="#md27f491161" x="271.640879" y="134.723496" style="fill: #daa520; stroke: #daa520"/>
     <use xlink:href="#md27f491161" x="88.99861" y="80.622523" style="fill: #daa520; stroke: #daa520"/>
     <use xlink:href="#md27f491161" x="403.191943" y="144.211561" style="fill: #daa520; stroke: #daa520"/>
     <use xlink:href="#md27f491161" x="348.673611" y="100.971934" style="fill: #daa520; stroke: #daa520"/>
     <use xlink:href="#md27f491161" x="171.642198" y="118.938857" style="fill: #daa520; stroke: #daa520"/>
     <use xlink:href="#md27f491161" x="319.540672" y="109.039533" style="fill: #daa520; stroke: #daa520"/>
     <use xlink:href="#md27f491161" x="97.107985" y="115.13855" style="fill: #daa520; stroke: #daa520"/>
     <use xlink:href="#md27f491161" x="256.004316" y="126.339796" style="fill: #daa520; stroke: #daa520"/>
     <use xlink:href="#md27f491161" x="307.331693" y="101.697426" style="fill: #daa520; stroke: #daa520"/>
     <use xlink:href="#md27f491161" x="330.51442" y="99.125401" style="fill: #daa520; stroke: #daa520"/>
     <use xlink:href="#md27f491161" x="136.088163" y="102.191988" style="fill: #daa520; stroke: #daa520"/>
     <use xlink:href="#md27f491161" x="274.483111" y="114.690895" style="fill: #daa520; stroke: #daa520"/>
     <use xlink:href="#md27f491161" x="297.566768" y="90.847102" style="fill: #daa520; stroke: #daa520"/>
    </g>
   </g>
   <g id="matplotlib.axis_3"/>
   <g id="matplotlib.axis_4">
    <g id="ytick_1">
     <g id="line2d_3">
      <defs>
       <path id="m13c543ba23" d="M 0 0 
L -3.5 0 
" style="stroke: #696969; stroke-width: 0.8"/>
      </defs>
      <g>
       <use xlink:href="#m13c543ba23" x="24.38" y="122.967801" style="fill: #696969; stroke: #696969; stroke-width: 0.8"/>
      </g>
     </g>
     <g id="text_1">
      <!-- 0 -->
      <g style="fill: #696969" transform="translate(7.2 129.046551) scale(0.16 -0.16)">
       <defs>
        <path id="DejaVuSans-30" d="M 2034 4250 
Q 1547 4250 1301 3770 
Q 1056 3291 1056 2328 
Q 1056 1369 1301 889 
Q 1547 409 2034 409 
Q 2525 409 2770 889 
Q 3016 1369 3016 2328 
Q 3016 3291 2770 3770 
Q 2525 4250 2034 4250 
z
M 2034 4750 
Q 2819 4750 3233 4129 
Q 3647 3509 3647 2328 
Q 3647 1150 3233 529 
Q 2819 -91 2034 -91 
Q 1250 -91 836 529 
Q 422 1150 422 2328 
Q 422 3509 836 4129 
Q 1250 4750 2034 4750 
z
" transform="scale(0.015625)"/>
       </defs>
       <use xlink:href="#DejaVuSans-30"/>
      </g>
     </g>
    </g>
    <g id="ytick_2">
     <g id="line2d_4">
      <g>
       <use xlink:href="#m13c543ba23" x="24.38" y="75.976107" style="fill: #696969; stroke: #696969; stroke-width: 0.8"/>
      </g>
     </g>
     <g id="text_2">
      <!-- 5 -->
      <g style="fill: #696969" transform="translate(7.2 82.054857) scale(0.16 -0.16)">
       <defs>
        <path id="DejaVuSans-35" d="M 691 4666 
L 3169 4666 
L 3169 4134 
L 1269 4134 
L 1269 2991 
Q 1406 3038 1543 3061 
Q 1681 3084 1819 3084 
Q 2600 3084 3056 2656 
Q 3513 2228 3513 1497 
Q 3513 744 3044 326 
Q 2575 -91 1722 -91 
Q 1428 -91 1123 -41 
Q 819 9 494 109 
L 494 744 
Q 775 591 1075 516 
Q 1375 441 1709 441 
Q 2250 441 2565 725 
Q 2881 1009 2881 1497 
Q 2881 1984 2565 2268 
Q 2250 2553 1709 2553 
Q 1456 2553 1204 2497 
Q 953 2441 691 2322 
L 691 4666 
z
" transform="scale(0.015625)"/>
       </defs>
       <use xlink:href="#DejaVuSans-35"/>
      </g>
     </g>
    </g>
   </g>
   <g id="line2d_5">
    <path d="M 43.090455 124.640885 
L 50.574636 122.100502 
L 58.058818 118.390829 
L 65.543 114.001226 
L 73.027182 109.391857 
L 80.511364 104.967438 
L 87.995545 101.096001 
L 95.479727 98.122834 
L 102.963909 96.342048 
L 110.448091 95.927817 
L 117.932273 96.864308 
L 125.416455 98.922639 
L 132.900636 101.710529 
L 140.384818 104.780215 
L 147.869 107.74652 
L 155.353182 110.359287 
L 162.837364 112.499549 
L 170.321545 114.114157 
L 177.805727 115.140855 
L 185.289909 115.479809 
L 192.774091 115.034339 
L 200.258273 113.79677 
L 207.742455 111.92599 
L 215.226636 109.766915 
L 222.710818 107.790482 
L 230.195 106.467212 
L 237.679182 106.114797 
L 245.163364 106.775555 
L 252.647545 108.178563 
L 260.131727 109.816993 
L 267.615909 111.125738 
L 275.100091 111.694635 
L 282.584273 111.426578 
L 290.068455 110.567759 
L 297.552636 109.593849 
L 305.036818 109.002744 
L 312.521 109.106262 
L 320.005182 109.910134 
L 327.489364 111.128291 
L 334.973545 112.317759 
L 342.457727 113.071169 
L 349.941909 113.184527 
L 357.426091 112.733656 
L 364.910273 112.036193 
L 372.394455 111.528258 
L 379.878636 111.620509 
L 387.362818 112.596991 
L 394.847 114.582359 
L 402.331182 117.554811 
L 409.815364 121.36034 
L 417.299545 125.705495 
" clip-path="url(#p0b1b5d76f7)" style="fill: none; stroke: #000000; stroke-width: 2; stroke-linecap: square"/>
   </g>
   <g id="line2d_6">
    <path d="M 43.090455 125.528643 
L 50.574636 121.304316 
L 58.058818 117.794102 
L 65.543 114.929207 
L 73.027182 112.643838 
L 80.511364 110.875197 
L 87.995545 109.563488 
L 95.479727 108.651913 
L 102.963909 108.086673 
L 110.448091 107.816965 
L 117.932273 107.79499 
L 125.416455 107.975943 
L 132.900636 108.318021 
L 140.384818 108.782418 
L 147.869 109.333326 
L 155.353182 109.937939 
L 162.837364 110.566447 
L 170.321545 111.19204 
L 177.805727 111.790905 
L 185.289909 112.342231 
L 192.774091 112.828204 
L 200.258273 113.234007 
L 207.742455 113.547825 
L 215.226636 113.76084 
L 222.710818 113.867234 
L 230.195 113.864185 
L 237.679182 113.751873 
L 245.163364 113.533476 
L 252.647545 113.215169 
L 260.131727 112.806128 
L 267.615909 112.318527 
L 275.100091 111.767537 
L 282.584273 111.171332 
L 290.068455 110.55108 
L 297.552636 109.930952 
L 305.036818 109.338114 
L 312.521 108.802734 
L 320.005182 108.357976 
L 327.489364 108.040005 
L 334.973545 107.887984 
L 342.457727 107.944075 
L 349.941909 108.253438 
L 357.426091 108.864232 
L 364.910273 109.827616 
L 372.394455 111.197747 
L 379.878636 113.03178 
L 387.362818 115.389869 
L 394.847 118.335168 
L 402.331182 121.933829 
L 409.815364 126.255003 
L 417.299545 131.370839 
" clip-path="url(#p0b1b5d76f7)" style="fill: none; stroke-dasharray: 7.4,3.2; stroke-dashoffset: 0; stroke: #34b6c6; stroke-width: 2"/>
   </g>
   <g id="line2d_7">
    <path d="M 43.090455 125.242061 
L 50.574636 122.895338 
L 58.058818 119.940275 
L 65.543 116.300205 
L 73.027182 112.321072 
L 80.511364 108.645826 
L 87.995545 105.882594 
L 95.479727 104.196369 
L 102.963909 103.372382 
L 110.448091 103.206167 
L 117.932273 103.657903 
L 125.416455 104.79649 
L 132.900636 106.616562 
L 140.384818 108.834019 
L 147.869 110.973368 
L 155.353182 112.718426 
L 162.837364 114.024697 
L 170.321545 114.965004 
L 177.805727 115.595877 
L 185.289909 115.906532 
L 192.774091 115.799768 
L 200.258273 115.105979 
L 207.742455 113.739291 
L 215.226636 112.02018 
L 222.710818 110.584472 
L 230.195 109.736667 
L 237.679182 109.352472 
L 245.163364 109.226449 
L 252.647545 109.226053 
L 260.131727 109.285343 
L 267.615909 109.375083 
L 275.100091 109.483793 
L 282.584273 109.608395 
L 290.068455 109.749961 
L 297.552636 109.911847 
L 305.036818 110.098938 
L 312.521 110.317426 
L 320.005182 110.574874 
L 327.489364 110.880442 
L 334.973545 111.245253 
L 342.457727 111.682837 
L 349.941909 112.209635 
L 357.426091 112.845418 
L 364.910273 113.613384 
L 372.394455 114.539488 
L 379.878636 115.650412 
L 387.362818 116.969747 
L 394.847 118.512844 
L 402.331182 120.282332 
L 409.815364 122.267476 
L 417.299545 124.449368 
" clip-path="url(#p0b1b5d76f7)" style="fill: none; stroke-dasharray: 7.4,3.2; stroke-dashoffset: 0; stroke: #9370db; stroke-width: 2"/>
   </g>
   <g id="line2d_8">
    <path d="M 43.090455 121.0538 
L 50.574636 119.073673 
L 58.058818 115.91893 
L 65.543 111.493808 
L 73.027182 106.353853 
L 80.511364 101.512044 
L 87.995545 97.926575 
L 95.479727 95.870591 
L 102.963909 95.030005 
L 110.448091 95.105611 
L 117.932273 96.05131 
L 125.416455 97.987804 
L 132.900636 100.920122 
L 140.384818 104.422015 
L 147.869 107.770769 
L 155.353182 110.488549 
L 162.837364 112.515872 
L 170.321545 113.973315 
L 177.805727 114.955274 
L 185.289909 115.451215 
L 192.774091 115.316181 
L 200.258273 114.292416 
L 207.742455 112.250388 
L 215.226636 109.686776 
L 222.710818 107.584005 
L 230.195 106.412033 
L 237.679182 105.977908 
L 245.163364 105.96239 
L 252.647545 106.15773 
L 260.131727 106.457956 
L 267.615909 106.812731 
L 275.100091 107.198087 
L 282.584273 107.602006 
L 290.068455 108.017841 
L 297.552636 108.441442 
L 305.036818 108.869991 
L 312.521 109.301658 
L 320.005182 109.735697 
L 327.489364 110.172804 
L 334.973545 110.615669 
L 342.457727 111.069674 
L 349.941909 111.543661 
L 357.426091 112.050583 
L 364.910273 112.607658 
L 372.394455 113.235325 
L 379.878636 113.954117 
L 387.362818 114.778771 
L 394.847 115.71027 
L 402.331182 116.728932 
L 409.815364 117.793418 
L 417.299545 118.848742 
" clip-path="url(#p0b1b5d76f7)" style="fill: none; stroke-dasharray: 12.8,3.2,2,3.2; stroke-dashoffset: 0; stroke: #ff0000; stroke-width: 2"/>
   </g>
   <g id="patch_4">
    <path d="M 24.38 165.111713 
L 24.38 72.42486 
" style="fill: none; stroke: #000000; stroke-width: 0.8; stroke-linejoin: miter; stroke-linecap: square"/>
   </g>
   <g id="patch_5">
    <path d="M 436.01 165.111713 
L 436.01 72.42486 
" style="fill: none; stroke: #000000; stroke-width: 0.8; stroke-linejoin: miter; stroke-linecap: square"/>
   </g>
   <g id="patch_6">
    <path d="M 24.38 165.111713 
L 436.01 165.111713 
" style="fill: none; stroke: #000000; stroke-width: 0.8; stroke-linejoin: miter; stroke-linecap: square"/>
   </g>
   <g id="patch_7">
    <path d="M 24.38 72.42486 
L 436.01 72.42486 
" style="fill: none; stroke: #000000; stroke-width: 0.8; stroke-linejoin: miter; stroke-linecap: square"/>
   </g>
  </g>
  <g id="axes_3">
   <g id="patch_8">
    <path d="M 24.38 276.68 
L 436.01 276.68 
L 436.01 183.993147 
L 24.38 183.993147 
z
" style="fill: #ffffff"/>
   </g>
   <g id="PathCollection_2">
    <g clip-path="url(#pf5c2b50b39)">
     <use xlink:href="#md27f491161" x="290.699069" y="222.71557" style="fill: #daa520; stroke: #daa520"/>
     <use xlink:href="#md27f491161" x="179.537814" y="232.920674" style="fill: #daa520; stroke: #daa520"/>
     <use xlink:href="#md27f491161" x="61.124049" y="244.272448" style="fill: #daa520; stroke: #daa520"/>
     <use xlink:href="#md27f491161" x="273.692255" y="188.206185" style="fill: #daa520; stroke: #daa520"/>
     <use xlink:href="#md27f491161" x="104.608658" y="226.96539" style="fill: #daa520; stroke: #daa520"/>
     <use xlink:href="#md27f491161" x="153.912315" y="240.462" style="fill: #daa520; stroke: #daa520"/>
     <use xlink:href="#md27f491161" x="399.942127" y="233.993374" style="fill: #daa520; stroke: #daa520"/>
     <use xlink:href="#md27f491161" x="137.552774" y="246.526121" style="fill: #daa520; stroke: #daa520"/>
     <use xlink:href="#md27f491161" x="73.413433" y="221.432716" style="fill: #daa520; stroke: #daa520"/>
     <use xlink:href="#md27f491161" x="247.33411" y="272.276964" style="fill: #daa520; stroke: #daa520"/>
     <use xlink:href="#md27f491161" x="148.457932" y="240.614689" style="fill: #daa520; stroke: #daa520"/>
     <use xlink:href="#md27f491161" x="121.833417" y="238.338447" style="fill: #daa520; stroke: #daa520"/>
     <use xlink:href="#md27f491161" x="400.987584" y="233.368848" style="fill: #daa520; stroke: #daa520"/>
     <use xlink:href="#md27f491161" x="281.644435" y="232.550126" style="fill: #daa520; stroke: #daa520"/>
     <use xlink:href="#md27f491161" x="223.086039" y="251.507817" style="fill: #daa520; stroke: #daa520"/>
     <use xlink:href="#md27f491161" x="53.306172" y="240.57633" style="fill: #daa520; stroke: #daa520"/>
     <use xlink:href="#md27f491161" x="354.0812" y="210.08578" style="fill: #daa520; stroke: #daa520"/>
     <use xlink:href="#md27f491161" x="61.015763" y="251.784056" style="fill: #daa520; stroke: #daa520"/>
     <use xlink:href="#md27f491161" x="377.481764" y="266.610417" style="fill: #daa520; stroke: #daa520"/>
     <use xlink:href="#md27f491161" x="249.025157" y="216.759223" style="fill: #daa520; stroke: #daa520"/>
     <use xlink:href="#md27f491161" x="177.052915" y="232.628263" style="fill: #daa520; stroke: #daa520"/>
     <use xlink:href="#md27f491161" x="321.568314" y="234.963168" style="fill: #daa520; stroke: #daa520"/>
     <use xlink:href="#md27f491161" x="278.126339" y="222.28422" style="fill: #daa520; stroke: #daa520"/>
     <use xlink:href="#md27f491161" x="254.782831" y="271.923757" style="fill: #daa520; stroke: #daa520"/>
     <use xlink:href="#md27f491161" x="366.151921" y="252.880782" style="fill: #daa520; stroke: #daa520"/>
     <use xlink:href="#md27f491161" x="281.714972" y="244.189006" style="fill: #daa520; stroke: #daa520"/>
     <use xlink:href="#md27f491161" x="316.626003" y="245.724936" style="fill: #daa520; stroke: #daa520"/>
     <use xlink:href="#md27f491161" x="74.399318" y="257.837338" style="fill: #daa520; stroke: #daa520"/>
     <use xlink:href="#md27f491161" x="158.75178" y="238.829508" style="fill: #daa520; stroke: #daa520"/>
     <use xlink:href="#md27f491161" x="178.822435" y="232.783237" style="fill: #daa520; stroke: #daa520"/>
     <use xlink:href="#md27f491161" x="91.636011" y="226.767199" style="fill: #daa520; stroke: #daa520"/>
     <use xlink:href="#md27f491161" x="380.051031" y="267.002394" style="fill: #daa520; stroke: #daa520"/>
     <use xlink:href="#md27f491161" x="325.371565" y="239.519236" style="fill: #daa520; stroke: #daa520"/>
     <use xlink:href="#md27f491161" x="373.673716" y="227.310059" style="fill: #daa520; stroke: #daa520"/>
     <use xlink:href="#md27f491161" x="91.910734" y="238.948677" style="fill: #daa520; stroke: #daa520"/>
     <use xlink:href="#md27f491161" x="188.286005" y="244.201371" style="fill: #daa520; stroke: #daa520"/>
     <use xlink:href="#md27f491161" x="149.246879" y="225.899833" style="fill: #daa520; stroke: #daa520"/>
     <use xlink:href="#md27f491161" x="297.993682" y="261.488269" style="fill: #daa520; stroke: #daa520"/>
     <use xlink:href="#md27f491161" x="226.014462" y="259.224118" style="fill: #daa520; stroke: #daa520"/>
     <use xlink:href="#md27f491161" x="406.279876" y="233.180368" style="fill: #daa520; stroke: #daa520"/>
     <use xlink:href="#md27f491161" x="267.60063" y="233.301495" style="fill: #daa520; stroke: #daa520"/>
     <use xlink:href="#md27f491161" x="416.988369" y="195.949271" style="fill: #daa520; stroke: #daa520"/>
     <use xlink:href="#md27f491161" x="216.697667" y="251.353414" style="fill: #daa520; stroke: #daa520"/>
     <use xlink:href="#md27f491161" x="203.61361" y="215.498868" style="fill: #daa520; stroke: #daa520"/>
     <use xlink:href="#md27f491161" x="299.426834" y="241.728254" style="fill: #daa520; stroke: #daa520"/>
     <use xlink:href="#md27f491161" x="200.651994" y="240.352024" style="fill: #daa520; stroke: #daa520"/>
     <use xlink:href="#md27f491161" x="314.258441" y="237.552223" style="fill: #daa520; stroke: #daa520"/>
     <use xlink:href="#md27f491161" x="297.005802" y="244.129289" style="fill: #daa520; stroke: #daa520"/>
     <use xlink:href="#md27f491161" x="180.736136" y="261.677504" style="fill: #daa520; stroke: #daa520"/>
     <use xlink:href="#md27f491161" x="409.889269" y="266.963082" style="fill: #daa520; stroke: #daa520"/>
     <use xlink:href="#md27f491161" x="259.213884" y="232.574195" style="fill: #daa520; stroke: #daa520"/>
     <use xlink:href="#md27f491161" x="385.110729" y="201.155596" style="fill: #daa520; stroke: #daa520"/>
     <use xlink:href="#md27f491161" x="412.369048" y="246.958382" style="fill: #daa520; stroke: #daa520"/>
     <use xlink:href="#md27f491161" x="143.908529" y="236.068685" style="fill: #daa520; stroke: #daa520"/>
     <use xlink:href="#md27f491161" x="138.309559" y="233.716401" style="fill: #daa520; stroke: #daa520"/>
     <use xlink:href="#md27f491161" x="279.788909" y="263.245244" style="fill: #daa520; stroke: #daa520"/>
     <use xlink:href="#md27f491161" x="230.109862" y="205.447176" style="fill: #daa520; stroke: #daa520"/>
     <use xlink:href="#md27f491161" x="322.475676" y="255.500112" style="fill: #daa520; stroke: #daa520"/>
     <use xlink:href="#md27f491161" x="261.157214" y="193.959952" style="fill: #daa520; stroke: #daa520"/>
     <use xlink:href="#md27f491161" x="147.016586" y="236.680368" style="fill: #daa520; stroke: #daa520"/>
     <use xlink:href="#md27f491161" x="392.712049" y="270.542142" style="fill: #daa520; stroke: #daa520"/>
     <use xlink:href="#md27f491161" x="104.098227" y="203.191997" style="fill: #daa520; stroke: #daa520"/>
     <use xlink:href="#md27f491161" x="48.998149" y="226.656702" style="fill: #daa520; stroke: #daa520"/>
     <use xlink:href="#md27f491161" x="202.478601" y="240.682861" style="fill: #daa520; stroke: #daa520"/>
     <use xlink:href="#md27f491161" x="336.195695" y="229.254613" style="fill: #daa520; stroke: #daa520"/>
     <use xlink:href="#md27f491161" x="261.623937" y="232.219044" style="fill: #daa520; stroke: #daa520"/>
     <use xlink:href="#md27f491161" x="376.234333" y="245.115027" style="fill: #daa520; stroke: #daa520"/>
     <use xlink:href="#md27f491161" x="313.663522" y="236.857623" style="fill: #daa520; stroke: #daa520"/>
     <use xlink:href="#md27f491161" x="376.159085" y="255.683041" style="fill: #daa520; stroke: #daa520"/>
     <use xlink:href="#md27f491161" x="200.061965" y="251.437322" style="fill: #daa520; stroke: #daa520"/>
     <use xlink:href="#md27f491161" x="210.635855" y="249.345743" style="fill: #daa520; stroke: #daa520"/>
     <use xlink:href="#md27f491161" x="191.509868" y="223.936814" style="fill: #daa520; stroke: #daa520"/>
     <use xlink:href="#md27f491161" x="398.324527" y="203.285669" style="fill: #daa520; stroke: #daa520"/>
     <use xlink:href="#md27f491161" x="114.337728" y="244.541763" style="fill: #daa520; stroke: #daa520"/>
     <use xlink:href="#md27f491161" x="377.065844" y="272.466961" style="fill: #daa520; stroke: #daa520"/>
     <use xlink:href="#md27f491161" x="177.819426" y="246.993862" style="fill: #daa520; stroke: #daa520"/>
     <use xlink:href="#md27f491161" x="247.857078" y="193.088053" style="fill: #daa520; stroke: #daa520"/>
     <use xlink:href="#md27f491161" x="60.058421" y="221.047906" style="fill: #daa520; stroke: #daa520"/>
     <use xlink:href="#md27f491161" x="78.475969" y="240.641441" style="fill: #daa520; stroke: #daa520"/>
     <use xlink:href="#md27f491161" x="235.488935" y="246.939402" style="fill: #daa520; stroke: #daa520"/>
     <use xlink:href="#md27f491161" x="185.271527" y="256.94648" style="fill: #daa520; stroke: #daa520"/>
     <use xlink:href="#md27f491161" x="60.621403" y="231.285473" style="fill: #daa520; stroke: #daa520"/>
     <use xlink:href="#md27f491161" x="228.344008" y="245.757865" style="fill: #daa520; stroke: #daa520"/>
     <use xlink:href="#md27f491161" x="167.854807" y="236.703351" style="fill: #daa520; stroke: #daa520"/>
     <use xlink:href="#md27f491161" x="180.262973" y="251.461429" style="fill: #daa520; stroke: #daa520"/>
     <use xlink:href="#md27f491161" x="398.092569" y="251.767696" style="fill: #daa520; stroke: #daa520"/>
     <use xlink:href="#md27f491161" x="58.425127" y="225.48819" style="fill: #daa520; stroke: #daa520"/>
     <use xlink:href="#md27f491161" x="387.992571" y="242.939865" style="fill: #daa520; stroke: #daa520"/>
     <use xlink:href="#md27f491161" x="276.197562" y="265.312418" style="fill: #daa520; stroke: #daa520"/>
     <use xlink:href="#md27f491161" x="280.580397" y="254.775505" style="fill: #daa520; stroke: #daa520"/>
     <use xlink:href="#md27f491161" x="181.025453" y="229.493647" style="fill: #daa520; stroke: #daa520"/>
     <use xlink:href="#md27f491161" x="371.242198" y="207.435327" style="fill: #daa520; stroke: #daa520"/>
     <use xlink:href="#md27f491161" x="296.83678" y="240.337564" style="fill: #daa520; stroke: #daa520"/>
     <use xlink:href="#md27f491161" x="163.102084" y="236.894563" style="fill: #daa520; stroke: #daa520"/>
     <use xlink:href="#md27f491161" x="271.640879" y="211.316078" style="fill: #daa520; stroke: #daa520"/>
     <use xlink:href="#md27f491161" x="88.99861" y="259.008386" style="fill: #daa520; stroke: #daa520"/>
     <use xlink:href="#md27f491161" x="403.191943" y="211.684388" style="fill: #daa520; stroke: #daa520"/>
     <use xlink:href="#md27f491161" x="348.673611" y="252.114627" style="fill: #daa520; stroke: #daa520"/>
     <use xlink:href="#md27f491161" x="171.642198" y="235.827097" style="fill: #daa520; stroke: #daa520"/>
     <use xlink:href="#md27f491161" x="319.540672" y="241.625124" style="fill: #daa520; stroke: #daa520"/>
     <use xlink:href="#md27f491161" x="97.107985" y="220.038272" style="fill: #daa520; stroke: #daa520"/>
     <use xlink:href="#md27f491161" x="256.004316" y="219.487213" style="fill: #daa520; stroke: #daa520"/>
     <use xlink:href="#md27f491161" x="307.331693" y="248.71277" style="fill: #daa520; stroke: #daa520"/>
     <use xlink:href="#md27f491161" x="330.51442" y="252.90076" style="fill: #daa520; stroke: #daa520"/>
     <use xlink:href="#md27f491161" x="136.088163" y="241.114444" style="fill: #daa520; stroke: #daa520"/>
     <use xlink:href="#md27f491161" x="274.483111" y="232.872199" style="fill: #daa520; stroke: #daa520"/>
     <use xlink:href="#md27f491161" x="297.566768" y="259.704458" style="fill: #daa520; stroke: #daa520"/>
    </g>
   </g>
   <g id="matplotlib.axis_5">
    <g id="xtick_1">
     <g id="line2d_9">
      <defs>
       <path id="me14e283af7" d="M 0 0 
L 0 3.5 
" style="stroke: #696969; stroke-width: 0.8"/>
      </defs>
      <g>
       <use xlink:href="#me14e283af7" x="43.090455" y="276.68" style="fill: #696969; stroke: #696969; stroke-width: 0.8"/>
      </g>
     </g>
     <g id="text_3">
      <!-- −1.0 -->
      <g style="fill: #696969" transform="translate(23.664205 295.8375) scale(0.16 -0.16)">
       <defs>
        <path id="DejaVuSans-2212" d="M 678 2272 
L 4684 2272 
L 4684 1741 
L 678 1741 
L 678 2272 
z
" transform="scale(0.015625)"/>
        <path id="DejaVuSans-31" d="M 794 531 
L 1825 531 
L 1825 4091 
L 703 3866 
L 703 4441 
L 1819 4666 
L 2450 4666 
L 2450 531 
L 3481 531 
L 3481 0 
L 794 0 
L 794 531 
z
" transform="scale(0.015625)"/>
        <path id="DejaVuSans-2e" d="M 684 794 
L 1344 794 
L 1344 0 
L 684 0 
L 684 794 
z
" transform="scale(0.015625)"/>
       </defs>
       <use xlink:href="#DejaVuSans-2212"/>
       <use xlink:href="#DejaVuSans-31" x="83.789062"/>
       <use xlink:href="#DejaVuSans-2e" x="147.412109"/>
       <use xlink:href="#DejaVuSans-30" x="179.199219"/>
      </g>
     </g>
    </g>
    <g id="xtick_2">
     <g id="line2d_10">
      <g>
       <use xlink:href="#me14e283af7" x="136.642727" y="276.68" style="fill: #696969; stroke: #696969; stroke-width: 0.8"/>
      </g>
     </g>
     <g id="text_4">
      <!-- −0.5 -->
      <g style="fill: #696969" transform="translate(117.216477 295.8375) scale(0.16 -0.16)">
       <use xlink:href="#DejaVuSans-2212"/>
       <use xlink:href="#DejaVuSans-30" x="83.789062"/>
       <use xlink:href="#DejaVuSans-2e" x="147.412109"/>
       <use xlink:href="#DejaVuSans-35" x="179.199219"/>
      </g>
     </g>
    </g>
    <g id="xtick_3">
     <g id="line2d_11">
      <g>
       <use xlink:href="#me14e283af7" x="230.195" y="276.68" style="fill: #696969; stroke: #696969; stroke-width: 0.8"/>
      </g>
     </g>
     <g id="text_5">
      <!-- 0.0 -->
      <g style="fill: #696969" transform="translate(217.4725 295.8375) scale(0.16 -0.16)">
       <use xlink:href="#DejaVuSans-30"/>
       <use xlink:href="#DejaVuSans-2e" x="63.623047"/>
       <use xlink:href="#DejaVuSans-30" x="95.410156"/>
      </g>
     </g>
    </g>
    <g id="xtick_4">
     <g id="line2d_12">
      <g>
       <use xlink:href="#me14e283af7" x="323.747273" y="276.68" style="fill: #696969; stroke: #696969; stroke-width: 0.8"/>
      </g>
     </g>
     <g id="text_6">
      <!-- 0.5 -->
      <g style="fill: #696969" transform="translate(311.024773 295.8375) scale(0.16 -0.16)">
       <use xlink:href="#DejaVuSans-30"/>
       <use xlink:href="#DejaVuSans-2e" x="63.623047"/>
       <use xlink:href="#DejaVuSans-35" x="95.410156"/>
      </g>
     </g>
    </g>
    <g id="xtick_5">
     <g id="line2d_13">
      <g>
       <use xlink:href="#me14e283af7" x="417.299545" y="276.68" style="fill: #696969; stroke: #696969; stroke-width: 0.8"/>
      </g>
     </g>
     <g id="text_7">
      <!-- 1.0 -->
      <g style="fill: #696969" transform="translate(404.577045 295.8375) scale(0.16 -0.16)">
       <use xlink:href="#DejaVuSans-31"/>
       <use xlink:href="#DejaVuSans-2e" x="63.623047"/>
       <use xlink:href="#DejaVuSans-30" x="95.410156"/>
      </g>
     </g>
    </g>
    <g id="text_8">
     <!-- $X$ -->
     <g transform="translate(224.675 315.3225) scale(0.16 -0.16)">
      <defs>
       <path id="DejaVuSans-Oblique-58" d="M 878 4666 
L 1516 4666 
L 2316 2981 
L 3763 4666 
L 4500 4666 
L 2578 2438 
L 3738 0 
L 3103 0 
L 2163 1966 
L 459 0 
L -275 0 
L 1906 2509 
L 878 4666 
z
" transform="scale(0.015625)"/>
      </defs>
      <use xlink:href="#DejaVuSans-Oblique-58" transform="translate(0 0.09375)"/>
     </g>
    </g>
   </g>
   <g id="matplotlib.axis_6">
    <g id="ytick_3">
     <g id="line2d_14">
      <g>
       <use xlink:href="#m13c543ba23" x="24.38" y="240.910377" style="fill: #696969; stroke: #696969; stroke-width: 0.8"/>
      </g>
     </g>
     <g id="text_9">
      <!-- 0 -->
      <g style="fill: #696969" transform="translate(7.2 246.989127) scale(0.16 -0.16)">
       <use xlink:href="#DejaVuSans-30"/>
      </g>
     </g>
    </g>
    <g id="ytick_4">
     <g id="line2d_15">
      <g>
       <use xlink:href="#m13c543ba23" x="24.38" y="190.716662" style="fill: #696969; stroke: #696969; stroke-width: 0.8"/>
      </g>
     </g>
     <g id="text_10">
      <!-- 5 -->
      <g style="fill: #696969" transform="translate(7.2 196.795412) scale(0.16 -0.16)">
       <use xlink:href="#DejaVuSans-35"/>
      </g>
     </g>
    </g>
   </g>
   <g id="line2d_16">
    <path d="M 43.090455 237.078868 
L 50.574636 237.677299 
L 58.058818 238.270042 
L 65.543 238.232103 
L 73.027182 237.665363 
L 80.511364 237.219531 
L 87.995545 237.524985 
L 95.479727 238.504665 
L 102.963909 239.508931 
L 110.448091 240.032145 
L 117.932273 240.041981 
L 125.416455 239.911842 
L 132.900636 240.066111 
L 140.384818 240.527768 
L 147.869 240.936278 
L 155.353182 241.048447 
L 162.837364 240.927812 
L 170.321545 240.759937 
L 177.805727 240.71215 
L 185.289909 240.879834 
L 192.774091 241.211423 
L 200.258273 241.439795 
L 207.742455 241.256879 
L 215.226636 240.824777 
L 222.710818 240.68983 
L 230.195 240.851438 
L 237.679182 240.76416 
L 245.163364 240.041802 
L 252.647545 238.751844 
L 260.131727 237.322454 
L 267.615909 236.30348 
L 275.100091 236.107433 
L 282.584273 236.825197 
L 290.068455 238.186707 
L 297.552636 239.679445 
L 305.036818 240.768577 
L 312.521 241.119087 
L 320.005182 240.724053 
L 327.489364 239.889783 
L 334.973545 239.092306 
L 342.457727 238.772499 
L 349.941909 239.157702 
L 357.426091 240.18076 
L 364.910273 241.520781 
L 372.394455 242.733763 
L 379.878636 243.402997 
L 387.362818 243.240823 
L 394.847 242.115143 
L 402.331182 240.028222 
L 409.815364 237.100404 
L 417.299545 233.586404 
" clip-path="url(#pf5c2b50b39)" style="fill: none; stroke: #696969; stroke-width: 2; stroke-linecap: square"/>
   </g>
   <g id="line2d_17">
    <path d="M 43.090455 232.722266 
L 50.574636 233.512559 
L 58.058818 234.196088 
L 65.543 234.783224 
L 73.027182 235.28386 
L 80.511364 235.707414 
L 87.995545 236.062828 
L 95.479727 236.35857 
L 102.963909 236.602631 
L 110.448091 236.802527 
L 117.932273 236.965298 
L 125.416455 237.097509 
L 132.900636 237.205249 
L 140.384818 237.294131 
L 147.869 237.369295 
L 155.353182 237.435402 
L 162.837364 237.496639 
L 170.321545 237.556717 
L 177.805727 237.618873 
L 185.289909 237.685867 
L 192.774091 237.759984 
L 200.258273 237.843032 
L 207.742455 237.936346 
L 215.226636 238.040783 
L 222.710818 238.156725 
L 230.195 238.284081 
L 237.679182 238.422281 
L 245.163364 238.570281 
L 252.647545 238.726562 
L 260.131727 238.889127 
L 267.615909 239.055507 
L 275.100091 239.222754 
L 282.584273 239.387448 
L 290.068455 239.54569 
L 297.552636 239.693107 
L 305.036818 239.824851 
L 312.521 239.935598 
L 320.005182 240.019547 
L 327.489364 240.070424 
L 334.973545 240.081478 
L 342.457727 240.045482 
L 349.941909 239.954734 
L 357.426091 239.801058 
L 364.910273 239.575798 
L 372.394455 239.269829 
L 379.878636 238.873544 
L 387.362818 238.376864 
L 394.847 237.769234 
L 402.331182 237.039623 
L 409.815364 236.176525 
L 417.299545 235.167957 
" clip-path="url(#pf5c2b50b39)" style="fill: none; stroke-dasharray: 7.4,3.2; stroke-dashoffset: 0; stroke: #79ad41; stroke-width: 2"/>
   </g>
   <g id="patch_9">
    <path d="M 24.38 276.68 
L 24.38 183.993147 
" style="fill: none; stroke: #000000; stroke-width: 0.8; stroke-linejoin: miter; stroke-linecap: square"/>
   </g>
   <g id="patch_10">
    <path d="M 436.01 276.68 
L 436.01 183.993147 
" style="fill: none; stroke: #000000; stroke-width: 0.8; stroke-linejoin: miter; stroke-linecap: square"/>
   </g>
   <g id="patch_11">
    <path d="M 24.38 276.68 
L 436.01 276.68 
" style="fill: none; stroke: #000000; stroke-width: 0.8; stroke-linejoin: miter; stroke-linecap: square"/>
   </g>
   <g id="patch_12">
    <path d="M 24.38 183.993147 
L 436.01 183.993147 
" style="fill: none; stroke: #000000; stroke-width: 0.8; stroke-linejoin: miter; stroke-linecap: square"/>
   </g>
  </g>
 </g>
 <defs>
  <clipPath id="pebd8b5f408">
   <rect x="24.38" y="7.2" width="411.63" height="46.343427"/>
  </clipPath>
  <clipPath id="p0b1b5d76f7">
   <rect x="24.38" y="72.42486" width="411.63" height="92.686853"/>
  </clipPath>
  <clipPath id="pf5c2b50b39">
   <rect x="24.38" y="183.993147" width="411.63" height="92.686853"/>
  </clipPath>
 </defs>
</svg>
