<?xml version="1.0" encoding="utf-8" standalone="no"?>
<!DOCTYPE svg PUBLIC "-//W3C//DTD SVG 1.1//EN"
  "http://www.w3.org/Graphics/SVG/1.1/DTD/svg11.dtd">
<svg xmlns:xlink="http://www.w3.org/1999/xlink" width="452.482866pt" height="337.998125pt" viewBox="0 0 452.482866 337.998125" xmlns="http://www.w3.org/2000/svg" version="1.1">
 <metadata>
  <rdf:RDF xmlns:dc="http://purl.org/dc/elements/1.1/" xmlns:cc="http://creativecommons.org/ns#" xmlns:rdf="http://www.w3.org/1999/02/22-rdf-syntax-ns#">
   <cc:Work>
    <dc:type rdf:resource="http://purl.org/dc/dcmitype/StillImage"/>
    <dc:date>2024-01-27T22:15:15.924061</dc:date>
    <dc:format>image/svg+xml</dc:format>
    <dc:creator>
     <cc:Agent>
      <dc:title>Matplotlib v3.7.2, https://matplotlib.org/</dc:title>
     </cc:Agent>
    </dc:creator>
   </cc:Work>
  </rdf:RDF>
 </metadata>
 <defs>
  <style type="text/css">*{stroke-linejoin: round; stroke-linecap: butt}</style>
 </defs>
 <g id="figure_1">
  <g id="patch_1">
   <path d="M 0 337.998125 
L 452.482866 337.998125 
L 452.482866 0 
L 0 0 
z
" style="fill: #ffffff"/>
  </g>
  <g id="axes_1">
   <g id="patch_2">
    <path d="M 36.465625 155.26 
L 164.276623 155.26 
L 164.276623 7.2 
L 36.465625 7.2 
z
" style="fill: #ffffff"/>
   </g>
   <g id="matplotlib.axis_1">
    <g id="xtick_1">
     <g id="line2d_1">
      <path d="M 42.275216 155.26 
L 42.275216 7.2 
" clip-path="url(#pef407e039e)" style="fill: none; stroke: #cccccc; stroke-width: 0.8; stroke-linecap: round"/>
     </g>
    </g>
    <g id="xtick_2">
     <g id="line2d_2">
      <path d="M 81.005821 155.26 
L 81.005821 7.2 
" clip-path="url(#pef407e039e)" style="fill: none; stroke: #cccccc; stroke-width: 0.8; stroke-linecap: round"/>
     </g>
    </g>
    <g id="xtick_3">
     <g id="line2d_3">
      <path d="M 119.736427 155.26 
L 119.736427 7.2 
" clip-path="url(#pef407e039e)" style="fill: none; stroke: #cccccc; stroke-width: 0.8; stroke-linecap: round"/>
     </g>
    </g>
    <g id="xtick_4">
     <g id="line2d_4">
      <path d="M 158.467032 155.26 
L 158.467032 7.2 
" clip-path="url(#pef407e039e)" style="fill: none; stroke: #cccccc; stroke-width: 0.8; stroke-linecap: round"/>
     </g>
    </g>
   </g>
   <g id="matplotlib.axis_2">
    <g id="ytick_1">
     <g id="line2d_5">
      <path d="M 36.465625 143.910777 
L 164.276623 143.910777 
" clip-path="url(#pef407e039e)" style="fill: none; stroke: #cccccc; stroke-width: 0.8; stroke-linecap: round"/>
     </g>
     <g id="text_1">
      <!-- 0.05 -->
      <g style="fill: #696969" transform="translate(7.2 147.709995) scale(0.1 -0.1)">
       <defs>
        <path id="DejaVuSans-30" d="M 2034 4250 
Q 1547 4250 1301 3770 
Q 1056 3291 1056 2328 
Q 1056 1369 1301 889 
Q 1547 409 2034 409 
Q 2525 409 2770 889 
Q 3016 1369 3016 2328 
Q 3016 3291 2770 3770 
Q 2525 4250 2034 4250 
z
M 2034 4750 
Q 2819 4750 3233 4129 
Q 3647 3509 3647 2328 
Q 3647 1150 3233 529 
Q 2819 -91 2034 -91 
Q 1250 -91 836 529 
Q 422 1150 422 2328 
Q 422 3509 836 4129 
Q 1250 4750 2034 4750 
z
" transform="scale(0.015625)"/>
        <path id="DejaVuSans-2e" d="M 684 794 
L 1344 794 
L 1344 0 
L 684 0 
L 684 794 
z
" transform="scale(0.015625)"/>
        <path id="DejaVuSans-35" d="M 691 4666 
L 3169 4666 
L 3169 4134 
L 1269 4134 
L 1269 2991 
Q 1406 3038 1543 3061 
Q 1681 3084 1819 3084 
Q 2600 3084 3056 2656 
Q 3513 2228 3513 1497 
Q 3513 744 3044 326 
Q 2575 -91 1722 -91 
Q 1428 -91 1123 -41 
Q 819 9 494 109 
L 494 744 
Q 775 591 1075 516 
Q 1375 441 1709 441 
Q 2250 441 2565 725 
Q 2881 1009 2881 1497 
Q 2881 1984 2565 2268 
Q 2250 2553 1709 2553 
Q 1456 2553 1204 2497 
Q 953 2441 691 2322 
L 691 4666 
z
" transform="scale(0.015625)"/>
       </defs>
       <use xlink:href="#DejaVuSans-30"/>
       <use xlink:href="#DejaVuSans-2e" x="63.623047"/>
       <use xlink:href="#DejaVuSans-30" x="95.410156"/>
       <use xlink:href="#DejaVuSans-35" x="159.033203"/>
      </g>
     </g>
    </g>
    <g id="ytick_2">
     <g id="line2d_6">
      <path d="M 36.465625 114.968275 
L 164.276623 114.968275 
" clip-path="url(#pef407e039e)" style="fill: none; stroke: #cccccc; stroke-width: 0.8; stroke-linecap: round"/>
     </g>
     <g id="text_2">
      <!-- 0.10 -->
      <g style="fill: #696969" transform="translate(7.2 118.767493) scale(0.1 -0.1)">
       <defs>
        <path id="DejaVuSans-31" d="M 794 531 
L 1825 531 
L 1825 4091 
L 703 3866 
L 703 4441 
L 1819 4666 
L 2450 4666 
L 2450 531 
L 3481 531 
L 3481 0 
L 794 0 
L 794 531 
z
" transform="scale(0.015625)"/>
       </defs>
       <use xlink:href="#DejaVuSans-30"/>
       <use xlink:href="#DejaVuSans-2e" x="63.623047"/>
       <use xlink:href="#DejaVuSans-31" x="95.410156"/>
       <use xlink:href="#DejaVuSans-30" x="159.033203"/>
      </g>
     </g>
    </g>
    <g id="ytick_3">
     <g id="line2d_7">
      <path d="M 36.465625 86.025773 
L 164.276623 86.025773 
" clip-path="url(#pef407e039e)" style="fill: none; stroke: #cccccc; stroke-width: 0.8; stroke-linecap: round"/>
     </g>
     <g id="text_3">
      <!-- 0.15 -->
      <g style="fill: #696969" transform="translate(7.2 89.824991) scale(0.1 -0.1)">
       <use xlink:href="#DejaVuSans-30"/>
       <use xlink:href="#DejaVuSans-2e" x="63.623047"/>
       <use xlink:href="#DejaVuSans-31" x="95.410156"/>
       <use xlink:href="#DejaVuSans-35" x="159.033203"/>
      </g>
     </g>
    </g>
    <g id="ytick_4">
     <g id="line2d_8">
      <path d="M 36.465625 57.083271 
L 164.276623 57.083271 
" clip-path="url(#pef407e039e)" style="fill: none; stroke: #cccccc; stroke-width: 0.8; stroke-linecap: round"/>
     </g>
     <g id="text_4">
      <!-- 0.20 -->
      <g style="fill: #696969" transform="translate(7.2 60.882489) scale(0.1 -0.1)">
       <defs>
        <path id="DejaVuSans-32" d="M 1228 531 
L 3431 531 
L 3431 0 
L 469 0 
L 469 531 
Q 828 903 1448 1529 
Q 2069 2156 2228 2338 
Q 2531 2678 2651 2914 
Q 2772 3150 2772 3378 
Q 2772 3750 2511 3984 
Q 2250 4219 1831 4219 
Q 1534 4219 1204 4116 
Q 875 4013 500 3803 
L 500 4441 
Q 881 4594 1212 4672 
Q 1544 4750 1819 4750 
Q 2544 4750 2975 4387 
Q 3406 4025 3406 3419 
Q 3406 3131 3298 2873 
Q 3191 2616 2906 2266 
Q 2828 2175 2409 1742 
Q 1991 1309 1228 531 
z
" transform="scale(0.015625)"/>
       </defs>
       <use xlink:href="#DejaVuSans-30"/>
       <use xlink:href="#DejaVuSans-2e" x="63.623047"/>
       <use xlink:href="#DejaVuSans-32" x="95.410156"/>
       <use xlink:href="#DejaVuSans-30" x="159.033203"/>
      </g>
     </g>
    </g>
    <g id="ytick_5">
     <g id="line2d_9">
      <path d="M 36.465625 28.140769 
L 164.276623 28.140769 
" clip-path="url(#pef407e039e)" style="fill: none; stroke: #cccccc; stroke-width: 0.8; stroke-linecap: round"/>
     </g>
     <g id="text_5">
      <!-- 0.25 -->
      <g style="fill: #696969" transform="translate(7.2 31.939987) scale(0.1 -0.1)">
       <use xlink:href="#DejaVuSans-30"/>
       <use xlink:href="#DejaVuSans-2e" x="63.623047"/>
       <use xlink:href="#DejaVuSans-32" x="95.410156"/>
       <use xlink:href="#DejaVuSans-35" x="159.033203"/>
      </g>
     </g>
    </g>
   </g>
   <g id="PolyCollection_1">
    <defs>
     <path id="m09aec77b22" d="M 42.275216 -319.199996 
L 42.275216 -307.136761 
L 81.005821 -199.378038 
L 119.736427 -197.925124 
L 158.467032 -199.817964 
L 158.467032 -203.96253 
L 158.467032 -203.96253 
L 119.736427 -202.000228 
L 81.005821 -203.568912 
L 42.275216 -319.199996 
z
" style="stroke: #34b6c6; stroke-opacity: 0.2"/>
    </defs>
    <g clip-path="url(#pef407e039e)">
     <use xlink:href="#m09aec77b22" x="0" y="337.998125" style="fill: #34b6c6; fill-opacity: 0.2; stroke: #34b6c6; stroke-opacity: 0.2"/>
    </g>
   </g>
   <g id="PolyCollection_2">
    <defs>
     <path id="m30a97b2c5a" d="M 42.275216 -194.04104 
L 42.275216 -190.243784 
L 81.005821 -191.413061 
L 119.736427 -191.690909 
L 158.467032 -191.95718 
L 158.467032 -195.823898 
L 158.467032 -195.823898 
L 119.736427 -195.557627 
L 81.005821 -195.279779 
L 42.275216 -194.04104 
z
" style="stroke: #9370db; stroke-opacity: 0.2"/>
    </defs>
    <g clip-path="url(#pef407e039e)">
     <use xlink:href="#m30a97b2c5a" x="0" y="337.998125" style="fill: #9370db; fill-opacity: 0.2; stroke: #9370db; stroke-opacity: 0.2"/>
    </g>
   </g>
   <g id="PolyCollection_3">
    <defs>
     <path id="me023ec551a" d="M 42.275216 -194.191541 
L 42.275216 -190.371131 
L 81.005821 -190.868942 
L 119.736427 -191.141002 
L 158.467032 -191.615659 
L 158.467032 -195.482377 
L 158.467032 -195.482377 
L 119.736427 -195.00772 
L 81.005821 -194.73566 
L 42.275216 -194.191541 
z
" style="stroke: #79ad41; stroke-opacity: 0.2"/>
    </defs>
    <g clip-path="url(#pef407e039e)">
     <use xlink:href="#me023ec551a" x="0" y="337.998125" style="fill: #79ad41; fill-opacity: 0.2; stroke: #79ad41; stroke-opacity: 0.2"/>
    </g>
   </g>
   <g id="line2d_10">
    <path d="M 42.275216 24.829746 
L 81.005821 136.52465 
L 119.736427 138.035449 
L 158.467032 136.107878 
" clip-path="url(#pef407e039e)" style="fill: none; stroke: #34b6c6; stroke-width: 2; stroke-linecap: round"/>
   </g>
   <g id="line2d_11">
    <path d="M 42.275216 145.855713 
L 81.005821 144.651705 
L 119.736427 144.373857 
L 158.467032 144.107586 
" clip-path="url(#pef407e039e)" style="fill: none; stroke: #9370db; stroke-width: 2; stroke-linecap: round"/>
   </g>
   <g id="line2d_12">
    <path d="M 42.275216 145.716789 
L 81.005821 145.195824 
L 119.736427 144.923764 
L 158.467032 144.449107 
" clip-path="url(#pef407e039e)" style="fill: none; stroke: #79ad41; stroke-width: 2; stroke-linecap: round"/>
   </g>
   <g id="patch_3">
    <path d="M 36.465625 155.26 
L 36.465625 7.2 
" style="fill: none; stroke: #cccccc; stroke-width: 0.8; stroke-linejoin: miter; stroke-linecap: square"/>
   </g>
   <g id="patch_4">
    <path d="M 164.276623 155.26 
L 164.276623 7.2 
" style="fill: none; stroke: #cccccc; stroke-width: 0.8; stroke-linejoin: miter; stroke-linecap: square"/>
   </g>
   <g id="patch_5">
    <path d="M 36.465625 155.26 
L 164.276623 155.26 
" style="fill: none; stroke: #cccccc; stroke-width: 0.8; stroke-linejoin: miter; stroke-linecap: square"/>
   </g>
   <g id="patch_6">
    <path d="M 36.465625 7.2 
L 164.276623 7.2 
" style="fill: none; stroke: #cccccc; stroke-width: 0.8; stroke-linejoin: miter; stroke-linecap: square"/>
   </g>
  </g>
  <g id="axes_2">
   <g id="patch_7">
    <path d="M 176.692292 155.26 
L 304.50329 155.26 
L 304.50329 7.2 
L 176.692292 7.2 
z
" style="fill: #ffffff"/>
   </g>
   <g id="matplotlib.axis_3">
    <g id="xtick_5">
     <g id="line2d_13">
      <path d="M 182.501882 155.26 
L 182.501882 7.2 
" clip-path="url(#pc9ad7bbb82)" style="fill: none; stroke: #cccccc; stroke-width: 0.8; stroke-linecap: round"/>
     </g>
    </g>
    <g id="xtick_6">
     <g id="line2d_14">
      <path d="M 221.232488 155.26 
L 221.232488 7.2 
" clip-path="url(#pc9ad7bbb82)" style="fill: none; stroke: #cccccc; stroke-width: 0.8; stroke-linecap: round"/>
     </g>
    </g>
    <g id="xtick_7">
     <g id="line2d_15">
      <path d="M 259.963094 155.26 
L 259.963094 7.2 
" clip-path="url(#pc9ad7bbb82)" style="fill: none; stroke: #cccccc; stroke-width: 0.8; stroke-linecap: round"/>
     </g>
    </g>
    <g id="xtick_8">
     <g id="line2d_16">
      <path d="M 298.693699 155.26 
L 298.693699 7.2 
" clip-path="url(#pc9ad7bbb82)" style="fill: none; stroke: #cccccc; stroke-width: 0.8; stroke-linecap: round"/>
     </g>
    </g>
   </g>
   <g id="matplotlib.axis_4">
    <g id="ytick_6">
     <g id="line2d_17">
      <path d="M 176.692292 143.910777 
L 304.50329 143.910777 
" clip-path="url(#pc9ad7bbb82)" style="fill: none; stroke: #cccccc; stroke-width: 0.8; stroke-linecap: round"/>
     </g>
    </g>
    <g id="ytick_7">
     <g id="line2d_18">
      <path d="M 176.692292 114.968275 
L 304.50329 114.968275 
" clip-path="url(#pc9ad7bbb82)" style="fill: none; stroke: #cccccc; stroke-width: 0.8; stroke-linecap: round"/>
     </g>
    </g>
    <g id="ytick_8">
     <g id="line2d_19">
      <path d="M 176.692292 86.025773 
L 304.50329 86.025773 
" clip-path="url(#pc9ad7bbb82)" style="fill: none; stroke: #cccccc; stroke-width: 0.8; stroke-linecap: round"/>
     </g>
    </g>
    <g id="ytick_9">
     <g id="line2d_20">
      <path d="M 176.692292 57.083271 
L 304.50329 57.083271 
" clip-path="url(#pc9ad7bbb82)" style="fill: none; stroke: #cccccc; stroke-width: 0.8; stroke-linecap: round"/>
     </g>
    </g>
    <g id="ytick_10">
     <g id="line2d_21">
      <path d="M 176.692292 28.140769 
L 304.50329 28.140769 
" clip-path="url(#pc9ad7bbb82)" style="fill: none; stroke: #cccccc; stroke-width: 0.8; stroke-linecap: round"/>
     </g>
    </g>
   </g>
   <g id="PolyCollection_4">
    <defs>
     <path id="m9e34aacc12" d="M 182.501882 -324.068125 
L 182.501882 -311.77335 
L 221.232488 -198.793399 
L 259.963094 -196.802155 
L 298.693699 -196.6285 
L 298.693699 -200.587834 
L 298.693699 -200.587834 
L 259.963094 -200.761489 
L 221.232488 -202.822195 
L 182.501882 -324.068125 
z
" style="stroke: #34b6c6; stroke-opacity: 0.2"/>
    </defs>
    <g clip-path="url(#pc9ad7bbb82)">
     <use xlink:href="#m9e34aacc12" x="0" y="337.998125" style="fill: #34b6c6; fill-opacity: 0.2; stroke: #34b6c6; stroke-opacity: 0.2"/>
    </g>
   </g>
   <g id="PolyCollection_5">
    <defs>
     <path id="mea1bc77eb0" d="M 182.501882 -198.36505 
L 182.501882 -194.498332 
L 221.232488 -191.077328 
L 259.963094 -190.591094 
L 298.693699 -190.828423 
L 298.693699 -194.625679 
L 298.693699 -194.625679 
L 259.963094 -194.38835 
L 221.232488 -194.920892 
L 182.501882 -198.36505 
z
" style="stroke: #9370db; stroke-opacity: 0.2"/>
    </defs>
    <g clip-path="url(#pc9ad7bbb82)">
     <use xlink:href="#mea1bc77eb0" x="0" y="337.998125" style="fill: #9370db; fill-opacity: 0.2; stroke: #9370db; stroke-opacity: 0.2"/>
    </g>
   </g>
   <g id="PolyCollection_6">
    <defs>
     <path id="m1df62da971" d="M 182.501882 -203.076889 
L 182.501882 -199.140709 
L 221.232488 -190.49269 
L 259.963094 -189.647569 
L 298.693699 -189.965936 
L 298.693699 -193.740038 
L 298.693699 -193.740038 
L 259.963094 -193.444825 
L 221.232488 -194.3131 
L 182.501882 -203.076889 
z
" style="stroke: #79ad41; stroke-opacity: 0.2"/>
    </defs>
    <g clip-path="url(#pc9ad7bbb82)">
     <use xlink:href="#m1df62da971" x="0" y="337.998125" style="fill: #79ad41; fill-opacity: 0.2; stroke: #79ad41; stroke-opacity: 0.2"/>
    </g>
   </g>
   <g id="line2d_22">
    <path d="M 182.501882 20.077387 
L 221.232488 137.190328 
L 259.963094 139.216303 
L 298.693699 139.389958 
" clip-path="url(#pc9ad7bbb82)" style="fill: none; stroke: #34b6c6; stroke-width: 2; stroke-linecap: round"/>
   </g>
   <g id="line2d_23">
    <path d="M 182.501882 141.566434 
L 221.232488 144.999015 
L 259.963094 145.508403 
L 298.693699 145.271074 
" clip-path="url(#pc9ad7bbb82)" style="fill: none; stroke: #9370db; stroke-width: 2; stroke-linecap: round"/>
   </g>
   <g id="line2d_24">
    <path d="M 182.501882 136.889326 
L 221.232488 145.59523 
L 259.963094 146.451928 
L 298.693699 146.145138 
" clip-path="url(#pc9ad7bbb82)" style="fill: none; stroke: #79ad41; stroke-width: 2; stroke-linecap: round"/>
   </g>
   <g id="patch_8">
    <path d="M 176.692292 155.26 
L 176.692292 7.2 
" style="fill: none; stroke: #cccccc; stroke-width: 0.8; stroke-linejoin: miter; stroke-linecap: square"/>
   </g>
   <g id="patch_9">
    <path d="M 304.50329 155.26 
L 304.50329 7.2 
" style="fill: none; stroke: #cccccc; stroke-width: 0.8; stroke-linejoin: miter; stroke-linecap: square"/>
   </g>
   <g id="patch_10">
    <path d="M 176.692292 155.26 
L 304.50329 155.26 
" style="fill: none; stroke: #cccccc; stroke-width: 0.8; stroke-linejoin: miter; stroke-linecap: square"/>
   </g>
   <g id="patch_11">
    <path d="M 176.692292 7.2 
L 304.50329 7.2 
" style="fill: none; stroke: #cccccc; stroke-width: 0.8; stroke-linejoin: miter; stroke-linecap: square"/>
   </g>
  </g>
  <g id="axes_3">
   <g id="patch_12">
    <path d="M 316.918958 155.26 
L 444.729957 155.26 
L 444.729957 7.2 
L 316.918958 7.2 
z
" style="fill: #ffffff"/>
   </g>
   <g id="matplotlib.axis_5">
    <g id="xtick_9">
     <g id="line2d_25">
      <path d="M 322.728549 155.26 
L 322.728549 7.2 
" clip-path="url(#pdece25e334)" style="fill: none; stroke: #cccccc; stroke-width: 0.8; stroke-linecap: round"/>
     </g>
    </g>
    <g id="xtick_10">
     <g id="line2d_26">
      <path d="M 361.459155 155.26 
L 361.459155 7.2 
" clip-path="url(#pdece25e334)" style="fill: none; stroke: #cccccc; stroke-width: 0.8; stroke-linecap: round"/>
     </g>
    </g>
    <g id="xtick_11">
     <g id="line2d_27">
      <path d="M 400.18976 155.26 
L 400.18976 7.2 
" clip-path="url(#pdece25e334)" style="fill: none; stroke: #cccccc; stroke-width: 0.8; stroke-linecap: round"/>
     </g>
    </g>
    <g id="xtick_12">
     <g id="line2d_28">
      <path d="M 438.920366 155.26 
L 438.920366 7.2 
" clip-path="url(#pdece25e334)" style="fill: none; stroke: #cccccc; stroke-width: 0.8; stroke-linecap: round"/>
     </g>
    </g>
   </g>
   <g id="matplotlib.axis_6">
    <g id="ytick_11">
     <g id="line2d_29">
      <path d="M 316.918958 143.910777 
L 444.729957 143.910777 
" clip-path="url(#pdece25e334)" style="fill: none; stroke: #cccccc; stroke-width: 0.8; stroke-linecap: round"/>
     </g>
    </g>
    <g id="ytick_12">
     <g id="line2d_30">
      <path d="M 316.918958 114.968275 
L 444.729957 114.968275 
" clip-path="url(#pdece25e334)" style="fill: none; stroke: #cccccc; stroke-width: 0.8; stroke-linecap: round"/>
     </g>
    </g>
    <g id="ytick_13">
     <g id="line2d_31">
      <path d="M 316.918958 86.025773 
L 444.729957 86.025773 
" clip-path="url(#pdece25e334)" style="fill: none; stroke: #cccccc; stroke-width: 0.8; stroke-linecap: round"/>
     </g>
    </g>
    <g id="ytick_14">
     <g id="line2d_32">
      <path d="M 316.918958 57.083271 
L 444.729957 57.083271 
" clip-path="url(#pdece25e334)" style="fill: none; stroke: #cccccc; stroke-width: 0.8; stroke-linecap: round"/>
     </g>
    </g>
    <g id="ytick_15">
     <g id="line2d_33">
      <path d="M 316.918958 28.140769 
L 444.729957 28.140769 
" clip-path="url(#pdece25e334)" style="fill: none; stroke: #cccccc; stroke-width: 0.8; stroke-linecap: round"/>
     </g>
    </g>
   </g>
   <g id="PolyCollection_7">
    <defs>
     <path id="m59e0714a1f" d="M 322.728549 -322.250536 
L 322.728549 -309.909453 
L 361.459155 -198.75288 
L 400.18976 -199.325941 
L 438.920366 -200.483641 
L 438.920366 -204.396668 
L 438.920366 -204.396668 
L 400.18976 -203.238967 
L 361.459155 -202.665906 
L 322.728549 -322.250536 
z
" style="stroke: #34b6c6; stroke-opacity: 0.2"/>
    </defs>
    <g clip-path="url(#pdece25e334)">
     <use xlink:href="#m59e0714a1f" x="0" y="337.998125" style="fill: #34b6c6; fill-opacity: 0.2; stroke: #34b6c6; stroke-opacity: 0.2"/>
    </g>
   </g>
   <g id="PolyCollection_8">
    <defs>
     <path id="m8c1dd94a84" d="M 322.728549 -196.420114 
L 322.728549 -192.761782 
L 361.459155 -190.631614 
L 400.18976 -190.822634 
L 438.920366 -191.210464 
L 438.920366 -194.868796 
L 438.920366 -194.868796 
L 400.18976 -194.457812 
L 361.459155 -194.266792 
L 322.728549 -196.420114 
z
" style="stroke: #9370db; stroke-opacity: 0.2"/>
    </defs>
    <g clip-path="url(#pdece25e334)">
     <use xlink:href="#m8c1dd94a84" x="0" y="337.998125" style="fill: #9370db; fill-opacity: 0.2; stroke: #9370db; stroke-opacity: 0.2"/>
    </g>
   </g>
   <g id="PolyCollection_9">
    <defs>
     <path id="m867d88481c" d="M 322.728549 -204.691881 
L 322.728549 -200.802009 
L 361.459155 -189.468125 
L 400.18976 -191.048386 
L 438.920366 -190.417439 
L 438.920366 -194.029463 
L 438.920366 -194.029463 
L 400.18976 -194.683564 
L 361.459155 -193.033841 
L 322.728549 -204.691881 
z
" style="stroke: #79ad41; stroke-opacity: 0.2"/>
    </defs>
    <g clip-path="url(#pdece25e334)">
     <use xlink:href="#m867d88481c" x="0" y="337.998125" style="fill: #79ad41; fill-opacity: 0.2; stroke: #79ad41; stroke-opacity: 0.2"/>
    </g>
   </g>
   <g id="line2d_34">
    <path d="M 322.728549 21.918131 
L 361.459155 137.288732 
L 400.18976 136.715671 
L 438.920366 135.557971 
" clip-path="url(#pdece25e334)" style="fill: none; stroke: #34b6c6; stroke-width: 2; stroke-linecap: round"/>
   </g>
   <g id="line2d_35">
    <path d="M 322.728549 143.407177 
L 361.459155 145.548922 
L 400.18976 145.357902 
L 438.920366 144.958495 
" clip-path="url(#pdece25e334)" style="fill: none; stroke: #9370db; stroke-width: 2; stroke-linecap: round"/>
   </g>
   <g id="line2d_36">
    <path d="M 322.728549 135.25118 
L 361.459155 146.747142 
L 400.18976 145.13215 
L 438.920366 145.774674 
" clip-path="url(#pdece25e334)" style="fill: none; stroke: #79ad41; stroke-width: 2; stroke-linecap: round"/>
   </g>
   <g id="patch_13">
    <path d="M 316.918958 155.26 
L 316.918958 7.2 
" style="fill: none; stroke: #cccccc; stroke-width: 0.8; stroke-linejoin: miter; stroke-linecap: square"/>
   </g>
   <g id="patch_14">
    <path d="M 444.729957 155.26 
L 444.729957 7.2 
" style="fill: none; stroke: #cccccc; stroke-width: 0.8; stroke-linejoin: miter; stroke-linecap: square"/>
   </g>
   <g id="patch_15">
    <path d="M 316.918958 155.26 
L 444.729957 155.26 
" style="fill: none; stroke: #cccccc; stroke-width: 0.8; stroke-linejoin: miter; stroke-linecap: square"/>
   </g>
   <g id="patch_16">
    <path d="M 316.918958 7.2 
L 444.729957 7.2 
" style="fill: none; stroke: #cccccc; stroke-width: 0.8; stroke-linejoin: miter; stroke-linecap: square"/>
   </g>
  </g>
  <g id="axes_4">
   <g id="patch_17">
    <path d="M 36.465625 314.12 
L 164.276623 314.12 
L 164.276623 166.06 
L 36.465625 166.06 
z
" style="fill: #ffffff"/>
   </g>
   <g id="matplotlib.axis_7">
    <g id="xtick_13">
     <g id="line2d_37">
      <path d="M 42.275216 314.12 
L 42.275216 166.06 
" clip-path="url(#pe4e86d1abc)" style="fill: none; stroke: #cccccc; stroke-width: 0.8; stroke-linecap: round"/>
     </g>
     <g id="text_6">
      <!-- 1 -->
      <g style="fill: #696969" transform="translate(39.093966 328.718437) scale(0.1 -0.1)">
       <use xlink:href="#DejaVuSans-31"/>
      </g>
     </g>
    </g>
    <g id="xtick_14">
     <g id="line2d_38">
      <path d="M 81.005821 314.12 
L 81.005821 166.06 
" clip-path="url(#pe4e86d1abc)" style="fill: none; stroke: #cccccc; stroke-width: 0.8; stroke-linecap: round"/>
     </g>
     <g id="text_7">
      <!-- 4 -->
      <g style="fill: #696969" transform="translate(77.824571 328.718437) scale(0.1 -0.1)">
       <defs>
        <path id="DejaVuSans-34" d="M 2419 4116 
L 825 1625 
L 2419 1625 
L 2419 4116 
z
M 2253 4666 
L 3047 4666 
L 3047 1625 
L 3713 1625 
L 3713 1100 
L 3047 1100 
L 3047 0 
L 2419 0 
L 2419 1100 
L 313 1100 
L 313 1709 
L 2253 4666 
z
" transform="scale(0.015625)"/>
       </defs>
       <use xlink:href="#DejaVuSans-34"/>
      </g>
     </g>
    </g>
    <g id="xtick_15">
     <g id="line2d_39">
      <path d="M 119.736427 314.12 
L 119.736427 166.06 
" clip-path="url(#pe4e86d1abc)" style="fill: none; stroke: #cccccc; stroke-width: 0.8; stroke-linecap: round"/>
     </g>
     <g id="text_8">
      <!-- 7 -->
      <g style="fill: #696969" transform="translate(116.555177 328.718437) scale(0.1 -0.1)">
       <defs>
        <path id="DejaVuSans-37" d="M 525 4666 
L 3525 4666 
L 3525 4397 
L 1831 0 
L 1172 0 
L 2766 4134 
L 525 4134 
L 525 4666 
z
" transform="scale(0.015625)"/>
       </defs>
       <use xlink:href="#DejaVuSans-37"/>
      </g>
     </g>
    </g>
    <g id="xtick_16">
     <g id="line2d_40">
      <path d="M 158.467032 314.12 
L 158.467032 166.06 
" clip-path="url(#pe4e86d1abc)" style="fill: none; stroke: #cccccc; stroke-width: 0.8; stroke-linecap: round"/>
     </g>
     <g id="text_9">
      <!-- 10 -->
      <g style="fill: #696969" transform="translate(152.104532 328.718437) scale(0.1 -0.1)">
       <use xlink:href="#DejaVuSans-31"/>
       <use xlink:href="#DejaVuSans-30" x="63.623047"/>
      </g>
     </g>
    </g>
   </g>
   <g id="matplotlib.axis_8">
    <g id="ytick_16">
     <g id="line2d_41">
      <path d="M 36.465625 309.702982 
L 164.276623 309.702982 
" clip-path="url(#pe4e86d1abc)" style="fill: none; stroke: #cccccc; stroke-width: 0.8; stroke-linecap: round"/>
     </g>
     <g id="text_10">
      <!-- 0.05 -->
      <g style="fill: #696969" transform="translate(7.2 313.502201) scale(0.1 -0.1)">
       <use xlink:href="#DejaVuSans-30"/>
       <use xlink:href="#DejaVuSans-2e" x="63.623047"/>
       <use xlink:href="#DejaVuSans-30" x="95.410156"/>
       <use xlink:href="#DejaVuSans-35" x="159.033203"/>
      </g>
     </g>
    </g>
    <g id="ytick_17">
     <g id="line2d_42">
      <path d="M 36.465625 285.406953 
L 164.276623 285.406953 
" clip-path="url(#pe4e86d1abc)" style="fill: none; stroke: #cccccc; stroke-width: 0.8; stroke-linecap: round"/>
     </g>
     <g id="text_11">
      <!-- 0.10 -->
      <g style="fill: #696969" transform="translate(7.2 289.206172) scale(0.1 -0.1)">
       <use xlink:href="#DejaVuSans-30"/>
       <use xlink:href="#DejaVuSans-2e" x="63.623047"/>
       <use xlink:href="#DejaVuSans-31" x="95.410156"/>
       <use xlink:href="#DejaVuSans-30" x="159.033203"/>
      </g>
     </g>
    </g>
    <g id="ytick_18">
     <g id="line2d_43">
      <path d="M 36.465625 261.110924 
L 164.276623 261.110924 
" clip-path="url(#pe4e86d1abc)" style="fill: none; stroke: #cccccc; stroke-width: 0.8; stroke-linecap: round"/>
     </g>
     <g id="text_12">
      <!-- 0.15 -->
      <g style="fill: #696969" transform="translate(7.2 264.910143) scale(0.1 -0.1)">
       <use xlink:href="#DejaVuSans-30"/>
       <use xlink:href="#DejaVuSans-2e" x="63.623047"/>
       <use xlink:href="#DejaVuSans-31" x="95.410156"/>
       <use xlink:href="#DejaVuSans-35" x="159.033203"/>
      </g>
     </g>
    </g>
    <g id="ytick_19">
     <g id="line2d_44">
      <path d="M 36.465625 236.814895 
L 164.276623 236.814895 
" clip-path="url(#pe4e86d1abc)" style="fill: none; stroke: #cccccc; stroke-width: 0.8; stroke-linecap: round"/>
     </g>
     <g id="text_13">
      <!-- 0.20 -->
      <g style="fill: #696969" transform="translate(7.2 240.614114) scale(0.1 -0.1)">
       <use xlink:href="#DejaVuSans-30"/>
       <use xlink:href="#DejaVuSans-2e" x="63.623047"/>
       <use xlink:href="#DejaVuSans-32" x="95.410156"/>
       <use xlink:href="#DejaVuSans-30" x="159.033203"/>
      </g>
     </g>
    </g>
    <g id="ytick_20">
     <g id="line2d_45">
      <path d="M 36.465625 212.518866 
L 164.276623 212.518866 
" clip-path="url(#pe4e86d1abc)" style="fill: none; stroke: #cccccc; stroke-width: 0.8; stroke-linecap: round"/>
     </g>
     <g id="text_14">
      <!-- 0.25 -->
      <g style="fill: #696969" transform="translate(7.2 216.318085) scale(0.1 -0.1)">
       <use xlink:href="#DejaVuSans-30"/>
       <use xlink:href="#DejaVuSans-2e" x="63.623047"/>
       <use xlink:href="#DejaVuSans-32" x="95.410156"/>
       <use xlink:href="#DejaVuSans-35" x="159.033203"/>
      </g>
     </g>
    </g>
    <g id="ytick_21">
     <g id="line2d_46">
      <path d="M 36.465625 188.222838 
L 164.276623 188.222838 
" clip-path="url(#pe4e86d1abc)" style="fill: none; stroke: #cccccc; stroke-width: 0.8; stroke-linecap: round"/>
     </g>
     <g id="text_15">
      <!-- 0.30 -->
      <g style="fill: #696969" transform="translate(7.2 192.022056) scale(0.1 -0.1)">
       <defs>
        <path id="DejaVuSans-33" d="M 2597 2516 
Q 3050 2419 3304 2112 
Q 3559 1806 3559 1356 
Q 3559 666 3084 287 
Q 2609 -91 1734 -91 
Q 1441 -91 1130 -33 
Q 819 25 488 141 
L 488 750 
Q 750 597 1062 519 
Q 1375 441 1716 441 
Q 2309 441 2620 675 
Q 2931 909 2931 1356 
Q 2931 1769 2642 2001 
Q 2353 2234 1838 2234 
L 1294 2234 
L 1294 2753 
L 1863 2753 
Q 2328 2753 2575 2939 
Q 2822 3125 2822 3475 
Q 2822 3834 2567 4026 
Q 2313 4219 1838 4219 
Q 1578 4219 1281 4162 
Q 984 4106 628 3988 
L 628 4550 
Q 988 4650 1302 4700 
Q 1616 4750 1894 4750 
Q 2613 4750 3031 4423 
Q 3450 4097 3450 3541 
Q 3450 3153 3228 2886 
Q 3006 2619 2597 2516 
z
" transform="scale(0.015625)"/>
       </defs>
       <use xlink:href="#DejaVuSans-30"/>
       <use xlink:href="#DejaVuSans-2e" x="63.623047"/>
       <use xlink:href="#DejaVuSans-33" x="95.410156"/>
       <use xlink:href="#DejaVuSans-30" x="159.033203"/>
      </g>
     </g>
    </g>
   </g>
   <g id="PolyCollection_10">
    <defs>
     <path id="m5db7018692" d="M 42.275216 -165.208125 
L 42.275216 -153.312789 
L 81.005821 -40.55006 
L 119.736427 -44.145872 
L 158.467032 -47.041959 
L 158.467032 -52.54258 
L 158.467032 -52.54258 
L 119.736427 -49.490999 
L 81.005821 -45.642508 
L 42.275216 -165.208125 
z
" style="stroke: #34b6c6; stroke-opacity: 0.2"/>
    </defs>
    <g clip-path="url(#pe4e86d1abc)">
     <use xlink:href="#m5db7018692" x="0" y="337.998125" style="fill: #34b6c6; fill-opacity: 0.2; stroke: #34b6c6; stroke-opacity: 0.2"/>
    </g>
   </g>
   <g id="PolyCollection_11">
    <defs>
     <path id="mf35fb84903" d="M 42.275216 -36.424594 
L 42.275216 -31.351583 
L 81.005821 -30.608125 
L 119.736427 -32.508074 
L 158.467032 -33.314703 
L 158.467032 -38.40715 
L 158.467032 -38.40715 
L 119.736427 -37.581085 
L 81.005821 -35.661699 
L 42.275216 -36.424594 
z
" style="stroke: #9370db; stroke-opacity: 0.2"/>
    </defs>
    <g clip-path="url(#pe4e86d1abc)">
     <use xlink:href="#mf35fb84903" x="0" y="337.998125" style="fill: #9370db; fill-opacity: 0.2; stroke: #9370db; stroke-opacity: 0.2"/>
    </g>
   </g>
   <g id="PolyCollection_12">
    <defs>
     <path id="mb68ed5eefe" d="M 42.275216 -37.129179 
L 42.275216 -32.056168 
L 81.005821 -31.215526 
L 119.736427 -32.133916 
L 158.467032 -33.543085 
L 158.467032 -38.635533 
L 158.467032 -38.635533 
L 119.736427 -37.206926 
L 81.005821 -36.2691 
L 42.275216 -37.129179 
z
" style="stroke: #79ad41; stroke-opacity: 0.2"/>
    </defs>
    <g clip-path="url(#pe4e86d1abc)">
     <use xlink:href="#mb68ed5eefe" x="0" y="337.998125" style="fill: #79ad41; fill-opacity: 0.2; stroke: #79ad41; stroke-opacity: 0.2"/>
    </g>
   </g>
   <g id="line2d_47">
    <path d="M 42.275216 178.737668 
L 81.005821 294.901841 
L 119.736427 291.17969 
L 158.467032 288.205856 
" clip-path="url(#pe4e86d1abc)" style="fill: none; stroke: #34b6c6; stroke-width: 2; stroke-linecap: round"/>
   </g>
   <g id="line2d_48">
    <path d="M 42.275216 304.110036 
L 81.005821 304.863213 
L 119.736427 302.953545 
L 158.467032 302.137199 
" clip-path="url(#pe4e86d1abc)" style="fill: none; stroke: #9370db; stroke-width: 2; stroke-linecap: round"/>
   </g>
   <g id="line2d_49">
    <path d="M 42.275216 303.405451 
L 81.005821 304.255812 
L 119.736427 303.327704 
L 158.467032 301.908816 
" clip-path="url(#pe4e86d1abc)" style="fill: none; stroke: #79ad41; stroke-width: 2; stroke-linecap: round"/>
   </g>
   <g id="patch_18">
    <path d="M 36.465625 314.12 
L 36.465625 166.06 
" style="fill: none; stroke: #cccccc; stroke-width: 0.8; stroke-linejoin: miter; stroke-linecap: square"/>
   </g>
   <g id="patch_19">
    <path d="M 164.276623 314.12 
L 164.276623 166.06 
" style="fill: none; stroke: #cccccc; stroke-width: 0.8; stroke-linejoin: miter; stroke-linecap: square"/>
   </g>
   <g id="patch_20">
    <path d="M 36.465625 314.12 
L 164.276623 314.12 
" style="fill: none; stroke: #cccccc; stroke-width: 0.8; stroke-linejoin: miter; stroke-linecap: square"/>
   </g>
   <g id="patch_21">
    <path d="M 36.465625 166.06 
L 164.276623 166.06 
" style="fill: none; stroke: #cccccc; stroke-width: 0.8; stroke-linejoin: miter; stroke-linecap: square"/>
   </g>
  </g>
  <g id="axes_5">
   <g id="patch_22">
    <path d="M 176.692292 314.12 
L 304.50329 314.12 
L 304.50329 166.06 
L 176.692292 166.06 
z
" style="fill: #ffffff"/>
   </g>
   <g id="matplotlib.axis_9">
    <g id="xtick_17">
     <g id="line2d_50">
      <path d="M 182.501882 314.12 
L 182.501882 166.06 
" clip-path="url(#pf1c0bcde02)" style="fill: none; stroke: #cccccc; stroke-width: 0.8; stroke-linecap: round"/>
     </g>
     <g id="text_16">
      <!-- 1 -->
      <g style="fill: #696969" transform="translate(179.320632 328.718437) scale(0.1 -0.1)">
       <use xlink:href="#DejaVuSans-31"/>
      </g>
     </g>
    </g>
    <g id="xtick_18">
     <g id="line2d_51">
      <path d="M 221.232488 314.12 
L 221.232488 166.06 
" clip-path="url(#pf1c0bcde02)" style="fill: none; stroke: #cccccc; stroke-width: 0.8; stroke-linecap: round"/>
     </g>
     <g id="text_17">
      <!-- 4 -->
      <g style="fill: #696969" transform="translate(218.051238 328.718437) scale(0.1 -0.1)">
       <use xlink:href="#DejaVuSans-34"/>
      </g>
     </g>
    </g>
    <g id="xtick_19">
     <g id="line2d_52">
      <path d="M 259.963094 314.12 
L 259.963094 166.06 
" clip-path="url(#pf1c0bcde02)" style="fill: none; stroke: #cccccc; stroke-width: 0.8; stroke-linecap: round"/>
     </g>
     <g id="text_18">
      <!-- 7 -->
      <g style="fill: #696969" transform="translate(256.781844 328.718437) scale(0.1 -0.1)">
       <use xlink:href="#DejaVuSans-37"/>
      </g>
     </g>
    </g>
    <g id="xtick_20">
     <g id="line2d_53">
      <path d="M 298.693699 314.12 
L 298.693699 166.06 
" clip-path="url(#pf1c0bcde02)" style="fill: none; stroke: #cccccc; stroke-width: 0.8; stroke-linecap: round"/>
     </g>
     <g id="text_19">
      <!-- 10 -->
      <g style="fill: #696969" transform="translate(292.331199 328.718437) scale(0.1 -0.1)">
       <use xlink:href="#DejaVuSans-31"/>
       <use xlink:href="#DejaVuSans-30" x="63.623047"/>
      </g>
     </g>
    </g>
   </g>
   <g id="matplotlib.axis_10">
    <g id="ytick_22">
     <g id="line2d_54">
      <path d="M 176.692292 309.702982 
L 304.50329 309.702982 
" clip-path="url(#pf1c0bcde02)" style="fill: none; stroke: #cccccc; stroke-width: 0.8; stroke-linecap: round"/>
     </g>
    </g>
    <g id="ytick_23">
     <g id="line2d_55">
      <path d="M 176.692292 285.406953 
L 304.50329 285.406953 
" clip-path="url(#pf1c0bcde02)" style="fill: none; stroke: #cccccc; stroke-width: 0.8; stroke-linecap: round"/>
     </g>
    </g>
    <g id="ytick_24">
     <g id="line2d_56">
      <path d="M 176.692292 261.110924 
L 304.50329 261.110924 
" clip-path="url(#pf1c0bcde02)" style="fill: none; stroke: #cccccc; stroke-width: 0.8; stroke-linecap: round"/>
     </g>
    </g>
    <g id="ytick_25">
     <g id="line2d_57">
      <path d="M 176.692292 236.814895 
L 304.50329 236.814895 
" clip-path="url(#pf1c0bcde02)" style="fill: none; stroke: #cccccc; stroke-width: 0.8; stroke-linecap: round"/>
     </g>
    </g>
    <g id="ytick_26">
     <g id="line2d_58">
      <path d="M 176.692292 212.518866 
L 304.50329 212.518866 
" clip-path="url(#pf1c0bcde02)" style="fill: none; stroke: #cccccc; stroke-width: 0.8; stroke-linecap: round"/>
     </g>
    </g>
    <g id="ytick_27">
     <g id="line2d_59">
      <path d="M 176.692292 188.222838 
L 304.50329 188.222838 
" clip-path="url(#pf1c0bcde02)" style="fill: none; stroke: #cccccc; stroke-width: 0.8; stroke-linecap: round"/>
     </g>
    </g>
   </g>
   <g id="PolyCollection_13">
    <defs>
     <path id="mf76646e59f" d="M 182.501882 -163.555995 
L 182.501882 -151.641222 
L 221.232488 -41.560775 
L 259.963094 -47.372385 
L 298.693699 -49.063389 
L 298.693699 -54.583446 
L 298.693699 -54.583446 
L 259.963094 -53.067374 
L 221.232488 -46.614349 
L 182.501882 -163.555995 
z
" style="stroke: #34b6c6; stroke-opacity: 0.2"/>
    </defs>
    <g clip-path="url(#pf1c0bcde02)">
     <use xlink:href="#mf76646e59f" x="0" y="337.998125" style="fill: #34b6c6; fill-opacity: 0.2; stroke: #34b6c6; stroke-opacity: 0.2"/>
    </g>
   </g>
   <g id="PolyCollection_14">
    <defs>
     <path id="m09192b8516" d="M 182.501882 -57.085937 
L 182.501882 -51.507569 
L 221.232488 -35.122327 
L 259.963094 -35.914378 
L 298.693699 -37.406154 
L 298.693699 -42.537475 
L 298.693699 -42.537475 
L 259.963094 -40.967952 
L 221.232488 -40.039843 
L 182.501882 -57.085937 
z
" style="stroke: #9370db; stroke-opacity: 0.2"/>
    </defs>
    <g clip-path="url(#pf1c0bcde02)">
     <use xlink:href="#m09192b8516" x="0" y="337.998125" style="fill: #9370db; fill-opacity: 0.2; stroke: #9370db; stroke-opacity: 0.2"/>
    </g>
   </g>
   <g id="PolyCollection_15">
    <defs>
     <path id="mcc2c9831a9" d="M 182.501882 -68.014291 
L 182.501882 -61.775071 
L 221.232488 -34.233093 
L 259.963094 -34.514926 
L 298.693699 -36.215648 
L 298.693699 -41.327533 
L 298.693699 -41.327533 
L 259.963094 -39.490753 
L 221.232488 -39.111735 
L 182.501882 -68.014291 
z
" style="stroke: #79ad41; stroke-opacity: 0.2"/>
    </defs>
    <g clip-path="url(#pf1c0bcde02)">
     <use xlink:href="#mcc2c9831a9" x="0" y="337.998125" style="fill: #79ad41; fill-opacity: 0.2; stroke: #79ad41; stroke-opacity: 0.2"/>
    </g>
   </g>
   <g id="line2d_60">
    <path d="M 182.501882 180.399516 
L 221.232488 293.910563 
L 259.963094 287.778245 
L 298.693699 286.174708 
" clip-path="url(#pf1c0bcde02)" style="fill: none; stroke: #34b6c6; stroke-width: 2; stroke-linecap: round"/>
   </g>
   <g id="line2d_61">
    <path d="M 182.501882 283.701372 
L 221.232488 300.41704 
L 259.963094 299.55696 
L 298.693699 298.02631 
" clip-path="url(#pf1c0bcde02)" style="fill: none; stroke: #9370db; stroke-width: 2; stroke-linecap: round"/>
   </g>
   <g id="line2d_62">
    <path d="M 182.501882 273.103444 
L 221.232488 301.325711 
L 259.963094 300.995285 
L 298.693699 299.226534 
" clip-path="url(#pf1c0bcde02)" style="fill: none; stroke: #79ad41; stroke-width: 2; stroke-linecap: round"/>
   </g>
   <g id="patch_23">
    <path d="M 176.692292 314.12 
L 176.692292 166.06 
" style="fill: none; stroke: #cccccc; stroke-width: 0.8; stroke-linejoin: miter; stroke-linecap: square"/>
   </g>
   <g id="patch_24">
    <path d="M 304.50329 314.12 
L 304.50329 166.06 
" style="fill: none; stroke: #cccccc; stroke-width: 0.8; stroke-linejoin: miter; stroke-linecap: square"/>
   </g>
   <g id="patch_25">
    <path d="M 176.692292 314.12 
L 304.50329 314.12 
" style="fill: none; stroke: #cccccc; stroke-width: 0.8; stroke-linejoin: miter; stroke-linecap: square"/>
   </g>
   <g id="patch_26">
    <path d="M 176.692292 166.06 
L 304.50329 166.06 
" style="fill: none; stroke: #cccccc; stroke-width: 0.8; stroke-linejoin: miter; stroke-linecap: square"/>
   </g>
  </g>
  <g id="axes_6">
   <g id="patch_27">
    <path d="M 316.918958 314.12 
L 444.729957 314.12 
L 444.729957 166.06 
L 316.918958 166.06 
z
" style="fill: #ffffff"/>
   </g>
   <g id="matplotlib.axis_11">
    <g id="xtick_21">
     <g id="line2d_63">
      <path d="M 322.728549 314.12 
L 322.728549 166.06 
" clip-path="url(#p675e596f3a)" style="fill: none; stroke: #cccccc; stroke-width: 0.8; stroke-linecap: round"/>
     </g>
     <g id="text_20">
      <!-- 1 -->
      <g style="fill: #696969" transform="translate(319.547299 328.718437) scale(0.1 -0.1)">
       <use xlink:href="#DejaVuSans-31"/>
      </g>
     </g>
    </g>
    <g id="xtick_22">
     <g id="line2d_64">
      <path d="M 361.459155 314.12 
L 361.459155 166.06 
" clip-path="url(#p675e596f3a)" style="fill: none; stroke: #cccccc; stroke-width: 0.8; stroke-linecap: round"/>
     </g>
     <g id="text_21">
      <!-- 4 -->
      <g style="fill: #696969" transform="translate(358.277905 328.718437) scale(0.1 -0.1)">
       <use xlink:href="#DejaVuSans-34"/>
      </g>
     </g>
    </g>
    <g id="xtick_23">
     <g id="line2d_65">
      <path d="M 400.18976 314.12 
L 400.18976 166.06 
" clip-path="url(#p675e596f3a)" style="fill: none; stroke: #cccccc; stroke-width: 0.8; stroke-linecap: round"/>
     </g>
     <g id="text_22">
      <!-- 7 -->
      <g style="fill: #696969" transform="translate(397.00851 328.718437) scale(0.1 -0.1)">
       <use xlink:href="#DejaVuSans-37"/>
      </g>
     </g>
    </g>
    <g id="xtick_24">
     <g id="line2d_66">
      <path d="M 438.920366 314.12 
L 438.920366 166.06 
" clip-path="url(#p675e596f3a)" style="fill: none; stroke: #cccccc; stroke-width: 0.8; stroke-linecap: round"/>
     </g>
     <g id="text_23">
      <!-- 10 -->
      <g style="fill: #696969" transform="translate(432.557866 328.718437) scale(0.1 -0.1)">
       <use xlink:href="#DejaVuSans-31"/>
       <use xlink:href="#DejaVuSans-30" x="63.623047"/>
      </g>
     </g>
    </g>
   </g>
   <g id="matplotlib.axis_12">
    <g id="ytick_28">
     <g id="line2d_67">
      <path d="M 316.918958 309.702982 
L 444.729957 309.702982 
" clip-path="url(#p675e596f3a)" style="fill: none; stroke: #cccccc; stroke-width: 0.8; stroke-linecap: round"/>
     </g>
    </g>
    <g id="ytick_29">
     <g id="line2d_68">
      <path d="M 316.918958 285.406953 
L 444.729957 285.406953 
" clip-path="url(#p675e596f3a)" style="fill: none; stroke: #cccccc; stroke-width: 0.8; stroke-linecap: round"/>
     </g>
    </g>
    <g id="ytick_30">
     <g id="line2d_69">
      <path d="M 316.918958 261.110924 
L 444.729957 261.110924 
" clip-path="url(#p675e596f3a)" style="fill: none; stroke: #cccccc; stroke-width: 0.8; stroke-linecap: round"/>
     </g>
    </g>
    <g id="ytick_31">
     <g id="line2d_70">
      <path d="M 316.918958 236.814895 
L 444.729957 236.814895 
" clip-path="url(#p675e596f3a)" style="fill: none; stroke: #cccccc; stroke-width: 0.8; stroke-linecap: round"/>
     </g>
    </g>
    <g id="ytick_32">
     <g id="line2d_71">
      <path d="M 316.918958 212.518866 
L 444.729957 212.518866 
" clip-path="url(#p675e596f3a)" style="fill: none; stroke: #cccccc; stroke-width: 0.8; stroke-linecap: round"/>
     </g>
    </g>
    <g id="ytick_33">
     <g id="line2d_72">
      <path d="M 316.918958 188.222838 
L 444.729957 188.222838 
" clip-path="url(#p675e596f3a)" style="fill: none; stroke: #cccccc; stroke-width: 0.8; stroke-linecap: round"/>
     </g>
    </g>
   </g>
   <g id="PolyCollection_16">
    <defs>
     <path id="m7040b572a8" d="M 322.728549 -163.196414 
L 322.728549 -151.281641 
L 361.459155 -37.935807 
L 400.18976 -39.476176 
L 438.920366 -42.046695 
L 438.920366 -47.119706 
L 438.920366 -47.119706 
L 400.18976 -44.52975 
L 361.459155 -42.833887 
L 322.728549 -163.196414 
z
" style="stroke: #34b6c6; stroke-opacity: 0.2"/>
    </defs>
    <g clip-path="url(#p675e596f3a)">
     <use xlink:href="#m7040b572a8" x="0" y="337.998125" style="fill: #34b6c6; fill-opacity: 0.2; stroke: #34b6c6; stroke-opacity: 0.2"/>
    </g>
   </g>
   <g id="PolyCollection_17">
    <defs>
     <path id="m2a000f6f4c" d="M 322.728549 -51.935179 
L 322.728549 -46.628926 
L 361.459155 -32.299129 
L 400.18976 -33.426464 
L 438.920366 -34.237952 
L 438.920366 -39.213778 
L 438.920366 -39.213778 
L 400.18976 -38.363417 
L 361.459155 -37.255519 
L 322.728549 -51.935179 
z
" style="stroke: #9370db; stroke-opacity: 0.2"/>
    </defs>
    <g clip-path="url(#p675e596f3a)">
     <use xlink:href="#m2a000f6f4c" x="0" y="337.998125" style="fill: #9370db; fill-opacity: 0.2; stroke: #9370db; stroke-opacity: 0.2"/>
    </g>
   </g>
   <g id="PolyCollection_18">
    <defs>
     <path id="m3499a1a1b8" d="M 322.728549 -66.255259 
L 322.728549 -60.424212 
L 361.459155 -31.818067 
L 400.18976 -31.638277 
L 438.920366 -33.407028 
L 438.920366 -38.324544 
L 438.920366 -38.324544 
L 400.18976 -36.516919 
L 361.459155 -36.774457 
L 322.728549 -66.255259 
z
" style="stroke: #79ad41; stroke-opacity: 0.2"/>
    </defs>
    <g clip-path="url(#p675e596f3a)">
     <use xlink:href="#m3499a1a1b8" x="0" y="337.998125" style="fill: #79ad41; fill-opacity: 0.2; stroke: #79ad41; stroke-opacity: 0.2"/>
    </g>
   </g>
   <g id="line2d_73">
    <path d="M 322.728549 180.759097 
L 361.459155 297.613278 
L 400.18976 295.995162 
L 438.920366 293.414924 
" clip-path="url(#p675e596f3a)" style="fill: none; stroke: #34b6c6; stroke-width: 2; stroke-linecap: round"/>
   </g>
   <g id="line2d_74">
    <path d="M 322.728549 288.716072 
L 361.459155 303.220801 
L 400.18976 302.103184 
L 438.920366 301.27226 
" clip-path="url(#p675e596f3a)" style="fill: none; stroke: #9370db; stroke-width: 2; stroke-linecap: round"/>
   </g>
   <g id="line2d_75">
    <path d="M 322.728549 274.65839 
L 361.459155 303.701863 
L 400.18976 303.920527 
L 438.920366 302.132339 
" clip-path="url(#p675e596f3a)" style="fill: none; stroke: #79ad41; stroke-width: 2; stroke-linecap: round"/>
   </g>
   <g id="patch_28">
    <path d="M 316.918958 314.12 
L 316.918958 166.06 
" style="fill: none; stroke: #cccccc; stroke-width: 0.8; stroke-linejoin: miter; stroke-linecap: square"/>
   </g>
   <g id="patch_29">
    <path d="M 444.729957 314.12 
L 444.729957 166.06 
" style="fill: none; stroke: #cccccc; stroke-width: 0.8; stroke-linejoin: miter; stroke-linecap: square"/>
   </g>
   <g id="patch_30">
    <path d="M 316.918958 314.12 
L 444.729957 314.12 
" style="fill: none; stroke: #cccccc; stroke-width: 0.8; stroke-linejoin: miter; stroke-linecap: square"/>
   </g>
   <g id="patch_31">
    <path d="M 316.918958 166.06 
L 444.729957 166.06 
" style="fill: none; stroke: #cccccc; stroke-width: 0.8; stroke-linejoin: miter; stroke-linecap: square"/>
   </g>
  </g>
 </g>
 <defs>
  <clipPath id="pef407e039e">
   <rect x="36.465625" y="7.2" width="127.810998" height="148.06"/>
  </clipPath>
  <clipPath id="pc9ad7bbb82">
   <rect x="176.692292" y="7.2" width="127.810998" height="148.06"/>
  </clipPath>
  <clipPath id="pdece25e334">
   <rect x="316.918958" y="7.2" width="127.810998" height="148.06"/>
  </clipPath>
  <clipPath id="pe4e86d1abc">
   <rect x="36.465625" y="166.06" width="127.810998" height="148.06"/>
  </clipPath>
  <clipPath id="pf1c0bcde02">
   <rect x="176.692292" y="166.06" width="127.810998" height="148.06"/>
  </clipPath>
  <clipPath id="p675e596f3a">
   <rect x="316.918958" y="166.06" width="127.810998" height="148.06"/>
  </clipPath>
 </defs>
</svg>
