<?xml version="1.0" encoding="utf-8" standalone="no"?>
<!DOCTYPE svg PUBLIC "-//W3C//DTD SVG 1.1//EN"
  "http://www.w3.org/Graphics/SVG/1.1/DTD/svg11.dtd">
<svg xmlns:xlink="http://www.w3.org/1999/xlink" width="452.482866pt" height="337.998125pt" viewBox="0 0 452.482866 337.998125" xmlns="http://www.w3.org/2000/svg" version="1.1">
 <metadata>
  <rdf:RDF xmlns:dc="http://purl.org/dc/elements/1.1/" xmlns:cc="http://creativecommons.org/ns#" xmlns:rdf="http://www.w3.org/1999/02/22-rdf-syntax-ns#">
   <cc:Work>
    <dc:type rdf:resource="http://purl.org/dc/dcmitype/StillImage"/>
    <dc:date>2024-01-27T22:15:04.873513</dc:date>
    <dc:format>image/svg+xml</dc:format>
    <dc:creator>
     <cc:Agent>
      <dc:title>Matplotlib v3.7.2, https://matplotlib.org/</dc:title>
     </cc:Agent>
    </dc:creator>
   </cc:Work>
  </rdf:RDF>
 </metadata>
 <defs>
  <style type="text/css">*{stroke-linejoin: round; stroke-linecap: butt}</style>
 </defs>
 <g id="figure_1">
  <g id="patch_1">
   <path d="M 0 337.998125 
L 452.482866 337.998125 
L 452.482866 0 
L 0 0 
z
" style="fill: #ffffff"/>
  </g>
  <g id="axes_1">
   <g id="patch_2">
    <path d="M 36.465625 155.26 
L 164.276623 155.26 
L 164.276623 7.2 
L 36.465625 7.2 
z
" style="fill: #ffffff"/>
   </g>
   <g id="matplotlib.axis_1">
    <g id="xtick_1">
     <g id="line2d_1">
      <path d="M 42.275216 155.26 
L 42.275216 7.2 
" clip-path="url(#p37e3d9ae6c)" style="fill: none; stroke: #cccccc; stroke-width: 0.8; stroke-linecap: round"/>
     </g>
    </g>
    <g id="xtick_2">
     <g id="line2d_2">
      <path d="M 81.005821 155.26 
L 81.005821 7.2 
" clip-path="url(#p37e3d9ae6c)" style="fill: none; stroke: #cccccc; stroke-width: 0.8; stroke-linecap: round"/>
     </g>
    </g>
    <g id="xtick_3">
     <g id="line2d_3">
      <path d="M 119.736427 155.26 
L 119.736427 7.2 
" clip-path="url(#p37e3d9ae6c)" style="fill: none; stroke: #cccccc; stroke-width: 0.8; stroke-linecap: round"/>
     </g>
    </g>
    <g id="xtick_4">
     <g id="line2d_4">
      <path d="M 158.467032 155.26 
L 158.467032 7.2 
" clip-path="url(#p37e3d9ae6c)" style="fill: none; stroke: #cccccc; stroke-width: 0.8; stroke-linecap: round"/>
     </g>
    </g>
   </g>
   <g id="matplotlib.axis_2">
    <g id="ytick_1">
     <g id="line2d_5">
      <path d="M 36.465625 141.705296 
L 164.276623 141.705296 
" clip-path="url(#p37e3d9ae6c)" style="fill: none; stroke: #cccccc; stroke-width: 0.8; stroke-linecap: round"/>
     </g>
     <g id="text_1">
      <!-- 0.05 -->
      <g style="fill: #696969" transform="translate(7.2 145.504515) scale(0.1 -0.1)">
       <defs>
        <path id="DejaVuSans-30" d="M 2034 4250 
Q 1547 4250 1301 3770 
Q 1056 3291 1056 2328 
Q 1056 1369 1301 889 
Q 1547 409 2034 409 
Q 2525 409 2770 889 
Q 3016 1369 3016 2328 
Q 3016 3291 2770 3770 
Q 2525 4250 2034 4250 
z
M 2034 4750 
Q 2819 4750 3233 4129 
Q 3647 3509 3647 2328 
Q 3647 1150 3233 529 
Q 2819 -91 2034 -91 
Q 1250 -91 836 529 
Q 422 1150 422 2328 
Q 422 3509 836 4129 
Q 1250 4750 2034 4750 
z
" transform="scale(0.015625)"/>
        <path id="DejaVuSans-2e" d="M 684 794 
L 1344 794 
L 1344 0 
L 684 0 
L 684 794 
z
" transform="scale(0.015625)"/>
        <path id="DejaVuSans-35" d="M 691 4666 
L 3169 4666 
L 3169 4134 
L 1269 4134 
L 1269 2991 
Q 1406 3038 1543 3061 
Q 1681 3084 1819 3084 
Q 2600 3084 3056 2656 
Q 3513 2228 3513 1497 
Q 3513 744 3044 326 
Q 2575 -91 1722 -91 
Q 1428 -91 1123 -41 
Q 819 9 494 109 
L 494 744 
Q 775 591 1075 516 
Q 1375 441 1709 441 
Q 2250 441 2565 725 
Q 2881 1009 2881 1497 
Q 2881 1984 2565 2268 
Q 2250 2553 1709 2553 
Q 1456 2553 1204 2497 
Q 953 2441 691 2322 
L 691 4666 
z
" transform="scale(0.015625)"/>
       </defs>
       <use xlink:href="#DejaVuSans-30"/>
       <use xlink:href="#DejaVuSans-2e" x="63.623047"/>
       <use xlink:href="#DejaVuSans-30" x="95.410156"/>
       <use xlink:href="#DejaVuSans-35" x="159.033203"/>
      </g>
     </g>
    </g>
    <g id="ytick_2">
     <g id="line2d_6">
      <path d="M 36.465625 111.64052 
L 164.276623 111.64052 
" clip-path="url(#p37e3d9ae6c)" style="fill: none; stroke: #cccccc; stroke-width: 0.8; stroke-linecap: round"/>
     </g>
     <g id="text_2">
      <!-- 0.10 -->
      <g style="fill: #696969" transform="translate(7.2 115.439739) scale(0.1 -0.1)">
       <defs>
        <path id="DejaVuSans-31" d="M 794 531 
L 1825 531 
L 1825 4091 
L 703 3866 
L 703 4441 
L 1819 4666 
L 2450 4666 
L 2450 531 
L 3481 531 
L 3481 0 
L 794 0 
L 794 531 
z
" transform="scale(0.015625)"/>
       </defs>
       <use xlink:href="#DejaVuSans-30"/>
       <use xlink:href="#DejaVuSans-2e" x="63.623047"/>
       <use xlink:href="#DejaVuSans-31" x="95.410156"/>
       <use xlink:href="#DejaVuSans-30" x="159.033203"/>
      </g>
     </g>
    </g>
    <g id="ytick_3">
     <g id="line2d_7">
      <path d="M 36.465625 81.575745 
L 164.276623 81.575745 
" clip-path="url(#p37e3d9ae6c)" style="fill: none; stroke: #cccccc; stroke-width: 0.8; stroke-linecap: round"/>
     </g>
     <g id="text_3">
      <!-- 0.15 -->
      <g style="fill: #696969" transform="translate(7.2 85.374964) scale(0.1 -0.1)">
       <use xlink:href="#DejaVuSans-30"/>
       <use xlink:href="#DejaVuSans-2e" x="63.623047"/>
       <use xlink:href="#DejaVuSans-31" x="95.410156"/>
       <use xlink:href="#DejaVuSans-35" x="159.033203"/>
      </g>
     </g>
    </g>
    <g id="ytick_4">
     <g id="line2d_8">
      <path d="M 36.465625 51.510969 
L 164.276623 51.510969 
" clip-path="url(#p37e3d9ae6c)" style="fill: none; stroke: #cccccc; stroke-width: 0.8; stroke-linecap: round"/>
     </g>
     <g id="text_4">
      <!-- 0.20 -->
      <g style="fill: #696969" transform="translate(7.2 55.310188) scale(0.1 -0.1)">
       <defs>
        <path id="DejaVuSans-32" d="M 1228 531 
L 3431 531 
L 3431 0 
L 469 0 
L 469 531 
Q 828 903 1448 1529 
Q 2069 2156 2228 2338 
Q 2531 2678 2651 2914 
Q 2772 3150 2772 3378 
Q 2772 3750 2511 3984 
Q 2250 4219 1831 4219 
Q 1534 4219 1204 4116 
Q 875 4013 500 3803 
L 500 4441 
Q 881 4594 1212 4672 
Q 1544 4750 1819 4750 
Q 2544 4750 2975 4387 
Q 3406 4025 3406 3419 
Q 3406 3131 3298 2873 
Q 3191 2616 2906 2266 
Q 2828 2175 2409 1742 
Q 1991 1309 1228 531 
z
" transform="scale(0.015625)"/>
       </defs>
       <use xlink:href="#DejaVuSans-30"/>
       <use xlink:href="#DejaVuSans-2e" x="63.623047"/>
       <use xlink:href="#DejaVuSans-32" x="95.410156"/>
       <use xlink:href="#DejaVuSans-30" x="159.033203"/>
      </g>
     </g>
    </g>
    <g id="ytick_5">
     <g id="line2d_9">
      <path d="M 36.465625 21.446194 
L 164.276623 21.446194 
" clip-path="url(#p37e3d9ae6c)" style="fill: none; stroke: #cccccc; stroke-width: 0.8; stroke-linecap: round"/>
     </g>
     <g id="text_5">
      <!-- 0.25 -->
      <g style="fill: #696969" transform="translate(7.2 25.245413) scale(0.1 -0.1)">
       <use xlink:href="#DejaVuSans-30"/>
       <use xlink:href="#DejaVuSans-2e" x="63.623047"/>
       <use xlink:href="#DejaVuSans-32" x="95.410156"/>
       <use xlink:href="#DejaVuSans-35" x="159.033203"/>
      </g>
     </g>
    </g>
   </g>
   <g id="PolyCollection_1">
    <defs>
     <path id="m2df2959806" d="M 42.275216 -320.905311 
L 42.275216 -308.711038 
L 81.005821 -190.111511 
L 119.736427 -190.544444 
L 158.467032 -190.544444 
L 158.467032 -194.440839 
L 158.467032 -194.440839 
L 119.736427 -194.440839 
L 81.005821 -193.983854 
L 42.275216 -320.905311 
z
" style="stroke: #34b6c6; stroke-opacity: 0.2"/>
    </defs>
    <g clip-path="url(#p37e3d9ae6c)">
     <use xlink:href="#m2df2959806" x="0" y="337.998125" style="fill: #34b6c6; fill-opacity: 0.2; stroke: #34b6c6; stroke-opacity: 0.2"/>
    </g>
   </g>
   <g id="PolyCollection_2">
    <defs>
     <path id="m9f0994852b" d="M 42.275216 -193.340468 
L 42.275216 -189.468125 
L 81.005821 -189.732695 
L 119.736427 -189.744721 
L 158.467032 -189.732695 
L 158.467032 -193.605038 
L 158.467032 -193.605038 
L 119.736427 -193.617064 
L 81.005821 -193.605038 
L 42.275216 -193.340468 
z
" style="stroke: #9370db; stroke-opacity: 0.2"/>
    </defs>
    <g clip-path="url(#p37e3d9ae6c)">
     <use xlink:href="#m9f0994852b" x="0" y="337.998125" style="fill: #9370db; fill-opacity: 0.2; stroke: #9370db; stroke-opacity: 0.2"/>
    </g>
   </g>
   <g id="PolyCollection_3">
    <defs>
     <path id="md889c01ac9" d="M 42.275216 -193.677194 
L 42.275216 -189.80485 
L 81.005821 -189.618449 
L 119.736427 -189.606423 
L 158.467032 -189.648514 
L 158.467032 -193.520857 
L 158.467032 -193.520857 
L 119.736427 -193.454714 
L 81.005821 -193.46674 
L 42.275216 -193.677194 
z
" style="stroke: #79ad41; stroke-opacity: 0.2"/>
    </defs>
    <g clip-path="url(#p37e3d9ae6c)">
     <use xlink:href="#md889c01ac9" x="0" y="337.998125" style="fill: #79ad41; fill-opacity: 0.2; stroke: #79ad41; stroke-opacity: 0.2"/>
    </g>
   </g>
   <g id="line2d_10">
    <path d="M 42.275216 23.189951 
L 81.005821 145.950442 
L 119.736427 145.505484 
L 158.467032 145.505484 
" clip-path="url(#p37e3d9ae6c)" style="fill: none; stroke: #34b6c6; stroke-width: 2; stroke-linecap: round"/>
   </g>
   <g id="line2d_11">
    <path d="M 42.275216 146.593828 
L 81.005821 146.329258 
L 119.736427 146.317233 
L 158.467032 146.329258 
" clip-path="url(#p37e3d9ae6c)" style="fill: none; stroke: #9370db; stroke-width: 2; stroke-linecap: round"/>
   </g>
   <g id="line2d_12">
    <path d="M 42.275216 146.257103 
L 81.005821 146.45553 
L 119.736427 146.467556 
L 158.467032 146.41344 
" clip-path="url(#p37e3d9ae6c)" style="fill: none; stroke: #79ad41; stroke-width: 2; stroke-linecap: round"/>
   </g>
   <g id="patch_3">
    <path d="M 36.465625 155.26 
L 36.465625 7.2 
" style="fill: none; stroke: #cccccc; stroke-width: 0.8; stroke-linejoin: miter; stroke-linecap: square"/>
   </g>
   <g id="patch_4">
    <path d="M 164.276623 155.26 
L 164.276623 7.2 
" style="fill: none; stroke: #cccccc; stroke-width: 0.8; stroke-linejoin: miter; stroke-linecap: square"/>
   </g>
   <g id="patch_5">
    <path d="M 36.465625 155.26 
L 164.276623 155.26 
" style="fill: none; stroke: #cccccc; stroke-width: 0.8; stroke-linejoin: miter; stroke-linecap: square"/>
   </g>
   <g id="patch_6">
    <path d="M 36.465625 7.2 
L 164.276623 7.2 
" style="fill: none; stroke: #cccccc; stroke-width: 0.8; stroke-linejoin: miter; stroke-linecap: square"/>
   </g>
  </g>
  <g id="axes_2">
   <g id="patch_7">
    <path d="M 176.692292 155.26 
L 304.50329 155.26 
L 304.50329 7.2 
L 176.692292 7.2 
z
" style="fill: #ffffff"/>
   </g>
   <g id="matplotlib.axis_3">
    <g id="xtick_5">
     <g id="line2d_13">
      <path d="M 182.501882 155.26 
L 182.501882 7.2 
" clip-path="url(#pd292d87680)" style="fill: none; stroke: #cccccc; stroke-width: 0.8; stroke-linecap: round"/>
     </g>
    </g>
    <g id="xtick_6">
     <g id="line2d_14">
      <path d="M 221.232488 155.26 
L 221.232488 7.2 
" clip-path="url(#pd292d87680)" style="fill: none; stroke: #cccccc; stroke-width: 0.8; stroke-linecap: round"/>
     </g>
    </g>
    <g id="xtick_7">
     <g id="line2d_15">
      <path d="M 259.963094 155.26 
L 259.963094 7.2 
" clip-path="url(#pd292d87680)" style="fill: none; stroke: #cccccc; stroke-width: 0.8; stroke-linecap: round"/>
     </g>
    </g>
    <g id="xtick_8">
     <g id="line2d_16">
      <path d="M 298.693699 155.26 
L 298.693699 7.2 
" clip-path="url(#pd292d87680)" style="fill: none; stroke: #cccccc; stroke-width: 0.8; stroke-linecap: round"/>
     </g>
    </g>
   </g>
   <g id="matplotlib.axis_4">
    <g id="ytick_6">
     <g id="line2d_17">
      <path d="M 176.692292 141.705296 
L 304.50329 141.705296 
" clip-path="url(#pd292d87680)" style="fill: none; stroke: #cccccc; stroke-width: 0.8; stroke-linecap: round"/>
     </g>
    </g>
    <g id="ytick_7">
     <g id="line2d_18">
      <path d="M 176.692292 111.64052 
L 304.50329 111.64052 
" clip-path="url(#pd292d87680)" style="fill: none; stroke: #cccccc; stroke-width: 0.8; stroke-linecap: round"/>
     </g>
    </g>
    <g id="ytick_8">
     <g id="line2d_19">
      <path d="M 176.692292 81.575745 
L 304.50329 81.575745 
" clip-path="url(#pd292d87680)" style="fill: none; stroke: #cccccc; stroke-width: 0.8; stroke-linecap: round"/>
     </g>
    </g>
    <g id="ytick_9">
     <g id="line2d_20">
      <path d="M 176.692292 51.510969 
L 304.50329 51.510969 
" clip-path="url(#pd292d87680)" style="fill: none; stroke: #cccccc; stroke-width: 0.8; stroke-linecap: round"/>
     </g>
    </g>
    <g id="ytick_10">
     <g id="line2d_21">
      <path d="M 176.692292 21.446194 
L 304.50329 21.446194 
" clip-path="url(#pd292d87680)" style="fill: none; stroke: #cccccc; stroke-width: 0.8; stroke-linecap: round"/>
     </g>
    </g>
   </g>
   <g id="PolyCollection_4">
    <defs>
     <path id="ma4e50e37ac" d="M 182.501882 -324.068125 
L 182.501882 -311.296608 
L 221.232488 -190.39412 
L 259.963094 -190.700781 
L 298.693699 -190.827053 
L 298.693699 -194.723448 
L 298.693699 -194.723448 
L 259.963094 -194.597176 
L 221.232488 -194.266463 
L 182.501882 -324.068125 
z
" style="stroke: #34b6c6; stroke-opacity: 0.2"/>
    </defs>
    <g clip-path="url(#pd292d87680)">
     <use xlink:href="#ma4e50e37ac" x="0" y="337.998125" style="fill: #34b6c6; fill-opacity: 0.2; stroke: #34b6c6; stroke-opacity: 0.2"/>
    </g>
   </g>
   <g id="PolyCollection_5">
    <defs>
     <path id="m25c48b8cf2" d="M 182.501882 -199.642045 
L 182.501882 -195.673495 
L 221.232488 -190.490327 
L 259.963094 -190.321965 
L 298.693699 -190.23177 
L 298.693699 -194.104113 
L 298.693699 -194.104113 
L 259.963094 -194.194308 
L 221.232488 -194.36267 
L 182.501882 -199.642045 
z
" style="stroke: #9370db; stroke-opacity: 0.2"/>
    </defs>
    <g clip-path="url(#pd292d87680)">
     <use xlink:href="#m25c48b8cf2" x="0" y="337.998125" style="fill: #9370db; fill-opacity: 0.2; stroke: #9370db; stroke-opacity: 0.2"/>
    </g>
   </g>
   <g id="PolyCollection_6">
    <defs>
     <path id="m40f07d948e" d="M 182.501882 -204.885342 
L 182.501882 -200.772481 
L 221.232488 -190.688755 
L 259.963094 -190.406146 
L 298.693699 -190.315952 
L 298.693699 -194.188295 
L 298.693699 -194.188295 
L 259.963094 -194.302541 
L 221.232488 -194.58515 
L 182.501882 -204.885342 
z
" style="stroke: #79ad41; stroke-opacity: 0.2"/>
    </defs>
    <g clip-path="url(#pd292d87680)">
     <use xlink:href="#m40f07d948e" x="0" y="337.998125" style="fill: #79ad41; fill-opacity: 0.2; stroke: #79ad41; stroke-opacity: 0.2"/>
    </g>
   </g>
   <g id="line2d_22">
    <path d="M 182.501882 20.315758 
L 221.232488 145.667833 
L 259.963094 145.349147 
L 298.693699 145.222875 
" clip-path="url(#pd292d87680)" style="fill: none; stroke: #34b6c6; stroke-width: 2; stroke-linecap: round"/>
   </g>
   <g id="line2d_23">
    <path d="M 182.501882 140.340355 
L 221.232488 145.571626 
L 259.963094 145.739989 
L 298.693699 145.830183 
" clip-path="url(#pd292d87680)" style="fill: none; stroke: #9370db; stroke-width: 2; stroke-linecap: round"/>
   </g>
   <g id="line2d_24">
    <path d="M 182.501882 135.169214 
L 221.232488 145.361173 
L 259.963094 145.643782 
L 298.693699 145.746002 
" clip-path="url(#pd292d87680)" style="fill: none; stroke: #79ad41; stroke-width: 2; stroke-linecap: round"/>
   </g>
   <g id="patch_8">
    <path d="M 176.692292 155.26 
L 176.692292 7.2 
" style="fill: none; stroke: #cccccc; stroke-width: 0.8; stroke-linejoin: miter; stroke-linecap: square"/>
   </g>
   <g id="patch_9">
    <path d="M 304.50329 155.26 
L 304.50329 7.2 
" style="fill: none; stroke: #cccccc; stroke-width: 0.8; stroke-linejoin: miter; stroke-linecap: square"/>
   </g>
   <g id="patch_10">
    <path d="M 176.692292 155.26 
L 304.50329 155.26 
" style="fill: none; stroke: #cccccc; stroke-width: 0.8; stroke-linejoin: miter; stroke-linecap: square"/>
   </g>
   <g id="patch_11">
    <path d="M 176.692292 7.2 
L 304.50329 7.2 
" style="fill: none; stroke: #cccccc; stroke-width: 0.8; stroke-linejoin: miter; stroke-linecap: square"/>
   </g>
  </g>
  <g id="axes_3">
   <g id="patch_12">
    <path d="M 316.918958 155.26 
L 444.729957 155.26 
L 444.729957 7.2 
L 316.918958 7.2 
z
" style="fill: #ffffff"/>
   </g>
   <g id="matplotlib.axis_5">
    <g id="xtick_9">
     <g id="line2d_25">
      <path d="M 322.728549 155.26 
L 322.728549 7.2 
" clip-path="url(#p5ecc098de5)" style="fill: none; stroke: #cccccc; stroke-width: 0.8; stroke-linecap: round"/>
     </g>
    </g>
    <g id="xtick_10">
     <g id="line2d_26">
      <path d="M 361.459155 155.26 
L 361.459155 7.2 
" clip-path="url(#p5ecc098de5)" style="fill: none; stroke: #cccccc; stroke-width: 0.8; stroke-linecap: round"/>
     </g>
    </g>
    <g id="xtick_11">
     <g id="line2d_27">
      <path d="M 400.18976 155.26 
L 400.18976 7.2 
" clip-path="url(#p5ecc098de5)" style="fill: none; stroke: #cccccc; stroke-width: 0.8; stroke-linecap: round"/>
     </g>
    </g>
    <g id="xtick_12">
     <g id="line2d_28">
      <path d="M 438.920366 155.26 
L 438.920366 7.2 
" clip-path="url(#p5ecc098de5)" style="fill: none; stroke: #cccccc; stroke-width: 0.8; stroke-linecap: round"/>
     </g>
    </g>
   </g>
   <g id="matplotlib.axis_6">
    <g id="ytick_11">
     <g id="line2d_29">
      <path d="M 316.918958 141.705296 
L 444.729957 141.705296 
" clip-path="url(#p5ecc098de5)" style="fill: none; stroke: #cccccc; stroke-width: 0.8; stroke-linecap: round"/>
     </g>
    </g>
    <g id="ytick_12">
     <g id="line2d_30">
      <path d="M 316.918958 111.64052 
L 444.729957 111.64052 
" clip-path="url(#p5ecc098de5)" style="fill: none; stroke: #cccccc; stroke-width: 0.8; stroke-linecap: round"/>
     </g>
    </g>
    <g id="ytick_13">
     <g id="line2d_31">
      <path d="M 316.918958 81.575745 
L 444.729957 81.575745 
" clip-path="url(#p5ecc098de5)" style="fill: none; stroke: #cccccc; stroke-width: 0.8; stroke-linecap: round"/>
     </g>
    </g>
    <g id="ytick_14">
     <g id="line2d_32">
      <path d="M 316.918958 51.510969 
L 444.729957 51.510969 
" clip-path="url(#p5ecc098de5)" style="fill: none; stroke: #cccccc; stroke-width: 0.8; stroke-linecap: round"/>
     </g>
    </g>
    <g id="ytick_15">
     <g id="line2d_33">
      <path d="M 316.918958 21.446194 
L 444.729957 21.446194 
" clip-path="url(#p5ecc098de5)" style="fill: none; stroke: #cccccc; stroke-width: 0.8; stroke-linecap: round"/>
     </g>
    </g>
   </g>
   <g id="PolyCollection_7">
    <defs>
     <path id="m4fc6a5e09f" d="M 322.728549 -320.033432 
L 322.728549 -307.7189 
L 361.459155 -191.296063 
L 400.18976 -191.494491 
L 438.920366 -191.638802 
L 438.920366 -195.511145 
L 438.920366 -195.511145 
L 400.18976 -195.366834 
L 361.459155 -195.144355 
L 322.728549 -320.033432 
z
" style="stroke: #34b6c6; stroke-opacity: 0.2"/>
    </defs>
    <g clip-path="url(#p5ecc098de5)">
     <use xlink:href="#m4fc6a5e09f" x="0" y="337.998125" style="fill: #34b6c6; fill-opacity: 0.2; stroke: #34b6c6; stroke-opacity: 0.2"/>
    </g>
   </g>
   <g id="PolyCollection_8">
    <defs>
     <path id="m9340355fbf" d="M 322.728549 -198.649907 
L 322.728549 -194.777564 
L 361.459155 -191.139727 
L 400.18976 -191.091623 
L 438.920366 -191.199856 
L 438.920366 -195.024096 
L 438.920366 -195.024096 
L 400.18976 -194.915862 
L 361.459155 -194.963966 
L 322.728549 -198.649907 
z
" style="stroke: #9370db; stroke-opacity: 0.2"/>
    </defs>
    <g clip-path="url(#p5ecc098de5)">
     <use xlink:href="#m9340355fbf" x="0" y="337.998125" style="fill: #9370db; fill-opacity: 0.2; stroke: #9370db; stroke-opacity: 0.2"/>
    </g>
   </g>
   <g id="PolyCollection_9">
    <defs>
     <path id="ma38c047036" d="M 322.728549 -209.05232 
L 322.728549 -204.96351 
L 361.459155 -190.917247 
L 400.18976 -190.959338 
L 438.920366 -191.001429 
L 438.920366 -194.801616 
L 438.920366 -194.801616 
L 400.18976 -194.759525 
L 361.459155 -194.717435 
L 322.728549 -209.05232 
z
" style="stroke: #79ad41; stroke-opacity: 0.2"/>
    </defs>
    <g clip-path="url(#p5ecc098de5)">
     <use xlink:href="#ma38c047036" x="0" y="337.998125" style="fill: #79ad41; fill-opacity: 0.2; stroke: #79ad41; stroke-opacity: 0.2"/>
    </g>
   </g>
   <g id="line2d_34">
    <path d="M 322.728549 24.121959 
L 361.459155 144.777916 
L 400.18976 144.567463 
L 438.920366 144.423152 
" clip-path="url(#p5ecc098de5)" style="fill: none; stroke: #34b6c6; stroke-width: 2; stroke-linecap: round"/>
   </g>
   <g id="line2d_35">
    <path d="M 322.728549 141.284389 
L 361.459155 144.946279 
L 400.18976 144.994382 
L 438.920366 144.886149 
" clip-path="url(#p5ecc098de5)" style="fill: none; stroke: #9370db; stroke-width: 2; stroke-linecap: round"/>
   </g>
   <g id="line2d_36">
    <path d="M 322.728549 130.99021 
L 361.459155 145.180784 
L 400.18976 145.138693 
L 438.920366 145.096603 
" clip-path="url(#p5ecc098de5)" style="fill: none; stroke: #79ad41; stroke-width: 2; stroke-linecap: round"/>
   </g>
   <g id="patch_13">
    <path d="M 316.918958 155.26 
L 316.918958 7.2 
" style="fill: none; stroke: #cccccc; stroke-width: 0.8; stroke-linejoin: miter; stroke-linecap: square"/>
   </g>
   <g id="patch_14">
    <path d="M 444.729957 155.26 
L 444.729957 7.2 
" style="fill: none; stroke: #cccccc; stroke-width: 0.8; stroke-linejoin: miter; stroke-linecap: square"/>
   </g>
   <g id="patch_15">
    <path d="M 316.918958 155.26 
L 444.729957 155.26 
" style="fill: none; stroke: #cccccc; stroke-width: 0.8; stroke-linejoin: miter; stroke-linecap: square"/>
   </g>
   <g id="patch_16">
    <path d="M 316.918958 7.2 
L 444.729957 7.2 
" style="fill: none; stroke: #cccccc; stroke-width: 0.8; stroke-linejoin: miter; stroke-linecap: square"/>
   </g>
  </g>
  <g id="axes_4">
   <g id="patch_17">
    <path d="M 36.465625 314.12 
L 164.276623 314.12 
L 164.276623 166.06 
L 36.465625 166.06 
z
" style="fill: #ffffff"/>
   </g>
   <g id="matplotlib.axis_7">
    <g id="xtick_13">
     <g id="line2d_37">
      <path d="M 42.275216 314.12 
L 42.275216 166.06 
" clip-path="url(#p6159e3e591)" style="fill: none; stroke: #cccccc; stroke-width: 0.8; stroke-linecap: round"/>
     </g>
     <g id="text_6">
      <!-- 1 -->
      <g style="fill: #696969" transform="translate(39.093966 328.718437) scale(0.1 -0.1)">
       <use xlink:href="#DejaVuSans-31"/>
      </g>
     </g>
    </g>
    <g id="xtick_14">
     <g id="line2d_38">
      <path d="M 81.005821 314.12 
L 81.005821 166.06 
" clip-path="url(#p6159e3e591)" style="fill: none; stroke: #cccccc; stroke-width: 0.8; stroke-linecap: round"/>
     </g>
     <g id="text_7">
      <!-- 4 -->
      <g style="fill: #696969" transform="translate(77.824571 328.718437) scale(0.1 -0.1)">
       <defs>
        <path id="DejaVuSans-34" d="M 2419 4116 
L 825 1625 
L 2419 1625 
L 2419 4116 
z
M 2253 4666 
L 3047 4666 
L 3047 1625 
L 3713 1625 
L 3713 1100 
L 3047 1100 
L 3047 0 
L 2419 0 
L 2419 1100 
L 313 1100 
L 313 1709 
L 2253 4666 
z
" transform="scale(0.015625)"/>
       </defs>
       <use xlink:href="#DejaVuSans-34"/>
      </g>
     </g>
    </g>
    <g id="xtick_15">
     <g id="line2d_39">
      <path d="M 119.736427 314.12 
L 119.736427 166.06 
" clip-path="url(#p6159e3e591)" style="fill: none; stroke: #cccccc; stroke-width: 0.8; stroke-linecap: round"/>
     </g>
     <g id="text_8">
      <!-- 7 -->
      <g style="fill: #696969" transform="translate(116.555177 328.718437) scale(0.1 -0.1)">
       <defs>
        <path id="DejaVuSans-37" d="M 525 4666 
L 3525 4666 
L 3525 4397 
L 1831 0 
L 1172 0 
L 2766 4134 
L 525 4134 
L 525 4666 
z
" transform="scale(0.015625)"/>
       </defs>
       <use xlink:href="#DejaVuSans-37"/>
      </g>
     </g>
    </g>
    <g id="xtick_16">
     <g id="line2d_40">
      <path d="M 158.467032 314.12 
L 158.467032 166.06 
" clip-path="url(#p6159e3e591)" style="fill: none; stroke: #cccccc; stroke-width: 0.8; stroke-linecap: round"/>
     </g>
     <g id="text_9">
      <!-- 10 -->
      <g style="fill: #696969" transform="translate(152.104532 328.718437) scale(0.1 -0.1)">
       <use xlink:href="#DejaVuSans-31"/>
       <use xlink:href="#DejaVuSans-30" x="63.623047"/>
      </g>
     </g>
    </g>
   </g>
   <g id="matplotlib.axis_8">
    <g id="ytick_16">
     <g id="line2d_41">
      <path d="M 36.465625 308.758995 
L 164.276623 308.758995 
" clip-path="url(#p6159e3e591)" style="fill: none; stroke: #cccccc; stroke-width: 0.8; stroke-linecap: round"/>
     </g>
     <g id="text_10">
      <!-- 0.05 -->
      <g style="fill: #696969" transform="translate(7.2 312.558214) scale(0.1 -0.1)">
       <use xlink:href="#DejaVuSans-30"/>
       <use xlink:href="#DejaVuSans-2e" x="63.623047"/>
       <use xlink:href="#DejaVuSans-30" x="95.410156"/>
       <use xlink:href="#DejaVuSans-35" x="159.033203"/>
      </g>
     </g>
    </g>
    <g id="ytick_17">
     <g id="line2d_42">
      <path d="M 36.465625 282.020814 
L 164.276623 282.020814 
" clip-path="url(#p6159e3e591)" style="fill: none; stroke: #cccccc; stroke-width: 0.8; stroke-linecap: round"/>
     </g>
     <g id="text_11">
      <!-- 0.10 -->
      <g style="fill: #696969" transform="translate(7.2 285.820033) scale(0.1 -0.1)">
       <use xlink:href="#DejaVuSans-30"/>
       <use xlink:href="#DejaVuSans-2e" x="63.623047"/>
       <use xlink:href="#DejaVuSans-31" x="95.410156"/>
       <use xlink:href="#DejaVuSans-30" x="159.033203"/>
      </g>
     </g>
    </g>
    <g id="ytick_18">
     <g id="line2d_43">
      <path d="M 36.465625 255.282634 
L 164.276623 255.282634 
" clip-path="url(#p6159e3e591)" style="fill: none; stroke: #cccccc; stroke-width: 0.8; stroke-linecap: round"/>
     </g>
     <g id="text_12">
      <!-- 0.15 -->
      <g style="fill: #696969" transform="translate(7.2 259.081853) scale(0.1 -0.1)">
       <use xlink:href="#DejaVuSans-30"/>
       <use xlink:href="#DejaVuSans-2e" x="63.623047"/>
       <use xlink:href="#DejaVuSans-31" x="95.410156"/>
       <use xlink:href="#DejaVuSans-35" x="159.033203"/>
      </g>
     </g>
    </g>
    <g id="ytick_19">
     <g id="line2d_44">
      <path d="M 36.465625 228.544454 
L 164.276623 228.544454 
" clip-path="url(#p6159e3e591)" style="fill: none; stroke: #cccccc; stroke-width: 0.8; stroke-linecap: round"/>
     </g>
     <g id="text_13">
      <!-- 0.20 -->
      <g style="fill: #696969" transform="translate(7.2 232.343672) scale(0.1 -0.1)">
       <use xlink:href="#DejaVuSans-30"/>
       <use xlink:href="#DejaVuSans-2e" x="63.623047"/>
       <use xlink:href="#DejaVuSans-32" x="95.410156"/>
       <use xlink:href="#DejaVuSans-30" x="159.033203"/>
      </g>
     </g>
    </g>
    <g id="ytick_20">
     <g id="line2d_45">
      <path d="M 36.465625 201.806273 
L 164.276623 201.806273 
" clip-path="url(#p6159e3e591)" style="fill: none; stroke: #cccccc; stroke-width: 0.8; stroke-linecap: round"/>
     </g>
     <g id="text_14">
      <!-- 0.25 -->
      <g style="fill: #696969" transform="translate(7.2 205.605492) scale(0.1 -0.1)">
       <use xlink:href="#DejaVuSans-30"/>
       <use xlink:href="#DejaVuSans-2e" x="63.623047"/>
       <use xlink:href="#DejaVuSans-32" x="95.410156"/>
       <use xlink:href="#DejaVuSans-35" x="159.033203"/>
      </g>
     </g>
    </g>
    <g id="ytick_21">
     <g id="line2d_46">
      <path d="M 36.465625 175.068093 
L 164.276623 175.068093 
" clip-path="url(#p6159e3e591)" style="fill: none; stroke: #cccccc; stroke-width: 0.8; stroke-linecap: round"/>
     </g>
     <g id="text_15">
      <!-- 0.30 -->
      <g style="fill: #696969" transform="translate(7.2 178.867312) scale(0.1 -0.1)">
       <defs>
        <path id="DejaVuSans-33" d="M 2597 2516 
Q 3050 2419 3304 2112 
Q 3559 1806 3559 1356 
Q 3559 666 3084 287 
Q 2609 -91 1734 -91 
Q 1441 -91 1130 -33 
Q 819 25 488 141 
L 488 750 
Q 750 597 1062 519 
Q 1375 441 1716 441 
Q 2309 441 2620 675 
Q 2931 909 2931 1356 
Q 2931 1769 2642 2001 
Q 2353 2234 1838 2234 
L 1294 2234 
L 1294 2753 
L 1863 2753 
Q 2328 2753 2575 2939 
Q 2822 3125 2822 3475 
Q 2822 3834 2567 4026 
Q 2313 4219 1838 4219 
Q 1578 4219 1281 4162 
Q 984 4106 628 3988 
L 628 4550 
Q 988 4650 1302 4700 
Q 1616 4750 1894 4750 
Q 2613 4750 3031 4423 
Q 3450 4097 3450 3541 
Q 3450 3153 3228 2886 
Q 3006 2619 2597 2516 
z
" transform="scale(0.015625)"/>
       </defs>
       <use xlink:href="#DejaVuSans-30"/>
       <use xlink:href="#DejaVuSans-2e" x="63.623047"/>
       <use xlink:href="#DejaVuSans-33" x="95.410156"/>
       <use xlink:href="#DejaVuSans-30" x="159.033203"/>
      </g>
     </g>
    </g>
   </g>
   <g id="PolyCollection_10">
    <defs>
     <path id="me8b84501cf" d="M 42.275216 -164.571756 
L 42.275216 -152.272193 
L 81.005821 -35.70977 
L 119.736427 -32.939694 
L 158.467032 -33.207076 
L 158.467032 -38.640274 
L 158.467032 -38.640274 
L 119.736427 -38.372893 
L 81.005821 -41.100187 
L 42.275216 -164.571756 
z
" style="stroke: #34b6c6; stroke-opacity: 0.2"/>
    </defs>
    <g clip-path="url(#p6159e3e591)">
     <use xlink:href="#me8b84501cf" x="0" y="337.998125" style="fill: #34b6c6; fill-opacity: 0.2; stroke: #34b6c6; stroke-opacity: 0.2"/>
    </g>
   </g>
   <g id="PolyCollection_11">
    <defs>
     <path id="m1609674aa6" d="M 42.275216 -37.281975 
L 42.275216 -31.848777 
L 81.005821 -31.955729 
L 119.736427 -32.057334 
L 158.467032 -32.212416 
L 158.467032 -37.645614 
L 158.467032 -37.645614 
L 119.736427 -37.490533 
L 81.005821 -37.388928 
L 42.275216 -37.281975 
z
" style="stroke: #9370db; stroke-opacity: 0.2"/>
    </defs>
    <g clip-path="url(#p6159e3e591)">
     <use xlink:href="#m1609674aa6" x="0" y="337.998125" style="fill: #9370db; fill-opacity: 0.2; stroke: #9370db; stroke-opacity: 0.2"/>
    </g>
   </g>
   <g id="PolyCollection_12">
    <defs>
     <path id="ma26af9fe62" d="M 42.275216 -38.068077 
L 42.275216 -32.613489 
L 81.005821 -32.255197 
L 119.736427 -32.260545 
L 158.467032 -32.458407 
L 158.467032 -37.891605 
L 158.467032 -37.891605 
L 119.736427 -37.693743 
L 81.005821 -37.688395 
L 42.275216 -38.068077 
z
" style="stroke: #79ad41; stroke-opacity: 0.2"/>
    </defs>
    <g clip-path="url(#p6159e3e591)">
     <use xlink:href="#ma26af9fe62" x="0" y="337.998125" style="fill: #79ad41; fill-opacity: 0.2; stroke: #79ad41; stroke-opacity: 0.2"/>
    </g>
   </g>
   <g id="line2d_47">
    <path d="M 42.275216 179.57615 
L 81.005821 299.593147 
L 119.736427 302.341832 
L 158.467032 302.07445 
" clip-path="url(#p6159e3e591)" style="fill: none; stroke: #34b6c6; stroke-width: 2; stroke-linecap: round"/>
   </g>
   <g id="line2d_48">
    <path d="M 42.275216 303.432749 
L 81.005821 303.325797 
L 119.736427 303.224191 
L 158.467032 303.06911 
" clip-path="url(#p6159e3e591)" style="fill: none; stroke: #9370db; stroke-width: 2; stroke-linecap: round"/>
   </g>
   <g id="line2d_49">
    <path d="M 42.275216 302.657342 
L 81.005821 303.026329 
L 119.736427 303.020981 
L 158.467032 302.823119 
" clip-path="url(#p6159e3e591)" style="fill: none; stroke: #79ad41; stroke-width: 2; stroke-linecap: round"/>
   </g>
   <g id="patch_18">
    <path d="M 36.465625 314.12 
L 36.465625 166.06 
" style="fill: none; stroke: #cccccc; stroke-width: 0.8; stroke-linejoin: miter; stroke-linecap: square"/>
   </g>
   <g id="patch_19">
    <path d="M 164.276623 314.12 
L 164.276623 166.06 
" style="fill: none; stroke: #cccccc; stroke-width: 0.8; stroke-linejoin: miter; stroke-linecap: square"/>
   </g>
   <g id="patch_20">
    <path d="M 36.465625 314.12 
L 164.276623 314.12 
" style="fill: none; stroke: #cccccc; stroke-width: 0.8; stroke-linejoin: miter; stroke-linecap: square"/>
   </g>
   <g id="patch_21">
    <path d="M 36.465625 166.06 
L 164.276623 166.06 
" style="fill: none; stroke: #cccccc; stroke-width: 0.8; stroke-linejoin: miter; stroke-linecap: square"/>
   </g>
  </g>
  <g id="axes_5">
   <g id="patch_22">
    <path d="M 176.692292 314.12 
L 304.50329 314.12 
L 304.50329 166.06 
L 176.692292 166.06 
z
" style="fill: #ffffff"/>
   </g>
   <g id="matplotlib.axis_9">
    <g id="xtick_17">
     <g id="line2d_50">
      <path d="M 182.501882 314.12 
L 182.501882 166.06 
" clip-path="url(#pa518977b2f)" style="fill: none; stroke: #cccccc; stroke-width: 0.8; stroke-linecap: round"/>
     </g>
     <g id="text_16">
      <!-- 1 -->
      <g style="fill: #696969" transform="translate(179.320632 328.718437) scale(0.1 -0.1)">
       <use xlink:href="#DejaVuSans-31"/>
      </g>
     </g>
    </g>
    <g id="xtick_18">
     <g id="line2d_51">
      <path d="M 221.232488 314.12 
L 221.232488 166.06 
" clip-path="url(#pa518977b2f)" style="fill: none; stroke: #cccccc; stroke-width: 0.8; stroke-linecap: round"/>
     </g>
     <g id="text_17">
      <!-- 4 -->
      <g style="fill: #696969" transform="translate(218.051238 328.718437) scale(0.1 -0.1)">
       <use xlink:href="#DejaVuSans-34"/>
      </g>
     </g>
    </g>
    <g id="xtick_19">
     <g id="line2d_52">
      <path d="M 259.963094 314.12 
L 259.963094 166.06 
" clip-path="url(#pa518977b2f)" style="fill: none; stroke: #cccccc; stroke-width: 0.8; stroke-linecap: round"/>
     </g>
     <g id="text_18">
      <!-- 7 -->
      <g style="fill: #696969" transform="translate(256.781844 328.718437) scale(0.1 -0.1)">
       <use xlink:href="#DejaVuSans-37"/>
      </g>
     </g>
    </g>
    <g id="xtick_20">
     <g id="line2d_53">
      <path d="M 298.693699 314.12 
L 298.693699 166.06 
" clip-path="url(#pa518977b2f)" style="fill: none; stroke: #cccccc; stroke-width: 0.8; stroke-linecap: round"/>
     </g>
     <g id="text_19">
      <!-- 10 -->
      <g style="fill: #696969" transform="translate(292.331199 328.718437) scale(0.1 -0.1)">
       <use xlink:href="#DejaVuSans-31"/>
       <use xlink:href="#DejaVuSans-30" x="63.623047"/>
      </g>
     </g>
    </g>
   </g>
   <g id="matplotlib.axis_10">
    <g id="ytick_22">
     <g id="line2d_54">
      <path d="M 176.692292 308.758995 
L 304.50329 308.758995 
" clip-path="url(#pa518977b2f)" style="fill: none; stroke: #cccccc; stroke-width: 0.8; stroke-linecap: round"/>
     </g>
    </g>
    <g id="ytick_23">
     <g id="line2d_55">
      <path d="M 176.692292 282.020814 
L 304.50329 282.020814 
" clip-path="url(#pa518977b2f)" style="fill: none; stroke: #cccccc; stroke-width: 0.8; stroke-linecap: round"/>
     </g>
    </g>
    <g id="ytick_24">
     <g id="line2d_56">
      <path d="M 176.692292 255.282634 
L 304.50329 255.282634 
" clip-path="url(#pa518977b2f)" style="fill: none; stroke: #cccccc; stroke-width: 0.8; stroke-linecap: round"/>
     </g>
    </g>
    <g id="ytick_25">
     <g id="line2d_57">
      <path d="M 176.692292 228.544454 
L 304.50329 228.544454 
" clip-path="url(#pa518977b2f)" style="fill: none; stroke: #cccccc; stroke-width: 0.8; stroke-linecap: round"/>
     </g>
    </g>
    <g id="ytick_26">
     <g id="line2d_58">
      <path d="M 176.692292 201.806273 
L 304.50329 201.806273 
" clip-path="url(#pa518977b2f)" style="fill: none; stroke: #cccccc; stroke-width: 0.8; stroke-linecap: round"/>
     </g>
    </g>
    <g id="ytick_27">
     <g id="line2d_59">
      <path d="M 176.692292 175.068093 
L 304.50329 175.068093 
" clip-path="url(#pa518977b2f)" style="fill: none; stroke: #cccccc; stroke-width: 0.8; stroke-linecap: round"/>
     </g>
    </g>
   </g>
   <g id="PolyCollection_13">
    <defs>
     <path id="mffda4ae805" d="M 182.501882 -165.208125 
L 182.501882 -152.801609 
L 221.232488 -35.458431 
L 259.963094 -32.570707 
L 298.693699 -32.838089 
L 298.693699 -38.442412 
L 298.693699 -38.442412 
L 259.963094 -38.15364 
L 221.232488 -40.998582 
L 182.501882 -165.208125 
z
" style="stroke: #34b6c6; stroke-opacity: 0.2"/>
    </defs>
    <g clip-path="url(#pa518977b2f)">
     <use xlink:href="#mffda4ae805" x="0" y="337.998125" style="fill: #34b6c6; fill-opacity: 0.2; stroke: #34b6c6; stroke-opacity: 0.2"/>
    </g>
   </g>
   <g id="PolyCollection_14">
    <defs>
     <path id="mf3e3c8cdc5" d="M 182.501882 -55.635062 
L 182.501882 -49.624319 
L 221.232488 -32.977128 
L 259.963094 -32.196373 
L 298.693699 -32.463755 
L 298.693699 -38.089468 
L 298.693699 -38.089468 
L 259.963094 -37.800696 
L 221.232488 -38.602841 
L 182.501882 -55.635062 
z
" style="stroke: #9370db; stroke-opacity: 0.2"/>
    </defs>
    <g clip-path="url(#pa518977b2f)">
     <use xlink:href="#mf3e3c8cdc5" x="0" y="337.998125" style="fill: #9370db; fill-opacity: 0.2; stroke: #9370db; stroke-opacity: 0.2"/>
    </g>
   </g>
   <g id="PolyCollection_15">
    <defs>
     <path id="m701b5349b2" d="M 182.501882 -67.565638 
L 182.501882 -60.913179 
L 221.232488 -33.634887 
L 259.963094 -32.287283 
L 298.693699 -32.367497 
L 298.693699 -37.97182 
L 298.693699 -37.97182 
L 259.963094 -37.891605 
L 221.232488 -39.2606 
L 182.501882 -67.565638 
z
" style="stroke: #79ad41; stroke-opacity: 0.2"/>
    </defs>
    <g clip-path="url(#pa518977b2f)">
     <use xlink:href="#m701b5349b2" x="0" y="337.998125" style="fill: #79ad41; fill-opacity: 0.2; stroke: #79ad41; stroke-opacity: 0.2"/>
    </g>
   </g>
   <g id="line2d_60">
    <path d="M 182.501882 178.993258 
L 221.232488 299.769619 
L 259.963094 302.635952 
L 298.693699 302.357874 
" clip-path="url(#pa518977b2f)" style="fill: none; stroke: #34b6c6; stroke-width: 2; stroke-linecap: round"/>
   </g>
   <g id="line2d_61">
    <path d="M 182.501882 285.368435 
L 221.232488 302.208141 
L 259.963094 302.999591 
L 298.693699 302.721514 
" clip-path="url(#pa518977b2f)" style="fill: none; stroke: #9370db; stroke-width: 2; stroke-linecap: round"/>
   </g>
   <g id="line2d_62">
    <path d="M 182.501882 273.758717 
L 221.232488 301.550381 
L 259.963094 302.908681 
L 298.693699 302.828466 
" clip-path="url(#pa518977b2f)" style="fill: none; stroke: #79ad41; stroke-width: 2; stroke-linecap: round"/>
   </g>
   <g id="patch_23">
    <path d="M 176.692292 314.12 
L 176.692292 166.06 
" style="fill: none; stroke: #cccccc; stroke-width: 0.8; stroke-linejoin: miter; stroke-linecap: square"/>
   </g>
   <g id="patch_24">
    <path d="M 304.50329 314.12 
L 304.50329 166.06 
" style="fill: none; stroke: #cccccc; stroke-width: 0.8; stroke-linejoin: miter; stroke-linecap: square"/>
   </g>
   <g id="patch_25">
    <path d="M 176.692292 314.12 
L 304.50329 314.12 
" style="fill: none; stroke: #cccccc; stroke-width: 0.8; stroke-linejoin: miter; stroke-linecap: square"/>
   </g>
   <g id="patch_26">
    <path d="M 176.692292 166.06 
L 304.50329 166.06 
" style="fill: none; stroke: #cccccc; stroke-width: 0.8; stroke-linejoin: miter; stroke-linecap: square"/>
   </g>
  </g>
  <g id="axes_6">
   <g id="patch_27">
    <path d="M 316.918958 314.12 
L 444.729957 314.12 
L 444.729957 166.06 
L 316.918958 166.06 
z
" style="fill: #ffffff"/>
   </g>
   <g id="matplotlib.axis_11">
    <g id="xtick_21">
     <g id="line2d_63">
      <path d="M 322.728549 314.12 
L 322.728549 166.06 
" clip-path="url(#p3284df820d)" style="fill: none; stroke: #cccccc; stroke-width: 0.8; stroke-linecap: round"/>
     </g>
     <g id="text_20">
      <!-- 1 -->
      <g style="fill: #696969" transform="translate(319.547299 328.718437) scale(0.1 -0.1)">
       <use xlink:href="#DejaVuSans-31"/>
      </g>
     </g>
    </g>
    <g id="xtick_22">
     <g id="line2d_64">
      <path d="M 361.459155 314.12 
L 361.459155 166.06 
" clip-path="url(#p3284df820d)" style="fill: none; stroke: #cccccc; stroke-width: 0.8; stroke-linecap: round"/>
     </g>
     <g id="text_21">
      <!-- 4 -->
      <g style="fill: #696969" transform="translate(358.277905 328.718437) scale(0.1 -0.1)">
       <use xlink:href="#DejaVuSans-34"/>
      </g>
     </g>
    </g>
    <g id="xtick_23">
     <g id="line2d_65">
      <path d="M 400.18976 314.12 
L 400.18976 166.06 
" clip-path="url(#p3284df820d)" style="fill: none; stroke: #cccccc; stroke-width: 0.8; stroke-linecap: round"/>
     </g>
     <g id="text_22">
      <!-- 7 -->
      <g style="fill: #696969" transform="translate(397.00851 328.718437) scale(0.1 -0.1)">
       <use xlink:href="#DejaVuSans-37"/>
      </g>
     </g>
    </g>
    <g id="xtick_24">
     <g id="line2d_66">
      <path d="M 438.920366 314.12 
L 438.920366 166.06 
" clip-path="url(#p3284df820d)" style="fill: none; stroke: #cccccc; stroke-width: 0.8; stroke-linecap: round"/>
     </g>
     <g id="text_23">
      <!-- 10 -->
      <g style="fill: #696969" transform="translate(432.557866 328.718437) scale(0.1 -0.1)">
       <use xlink:href="#DejaVuSans-31"/>
       <use xlink:href="#DejaVuSans-30" x="63.623047"/>
      </g>
     </g>
    </g>
   </g>
   <g id="matplotlib.axis_12">
    <g id="ytick_28">
     <g id="line2d_67">
      <path d="M 316.918958 308.758995 
L 444.729957 308.758995 
" clip-path="url(#p3284df820d)" style="fill: none; stroke: #cccccc; stroke-width: 0.8; stroke-linecap: round"/>
     </g>
    </g>
    <g id="ytick_29">
     <g id="line2d_68">
      <path d="M 316.918958 282.020814 
L 444.729957 282.020814 
" clip-path="url(#p3284df820d)" style="fill: none; stroke: #cccccc; stroke-width: 0.8; stroke-linecap: round"/>
     </g>
    </g>
    <g id="ytick_30">
     <g id="line2d_69">
      <path d="M 316.918958 255.282634 
L 444.729957 255.282634 
" clip-path="url(#p3284df820d)" style="fill: none; stroke: #cccccc; stroke-width: 0.8; stroke-linecap: round"/>
     </g>
    </g>
    <g id="ytick_31">
     <g id="line2d_70">
      <path d="M 316.918958 228.544454 
L 444.729957 228.544454 
" clip-path="url(#p3284df820d)" style="fill: none; stroke: #cccccc; stroke-width: 0.8; stroke-linecap: round"/>
     </g>
    </g>
    <g id="ytick_32">
     <g id="line2d_71">
      <path d="M 316.918958 201.806273 
L 444.729957 201.806273 
" clip-path="url(#p3284df820d)" style="fill: none; stroke: #cccccc; stroke-width: 0.8; stroke-linecap: round"/>
     </g>
    </g>
    <g id="ytick_33">
     <g id="line2d_72">
      <path d="M 316.918958 175.068093 
L 444.729957 175.068093 
" clip-path="url(#p3284df820d)" style="fill: none; stroke: #cccccc; stroke-width: 0.8; stroke-linecap: round"/>
     </g>
    </g>
   </g>
   <g id="PolyCollection_16">
    <defs>
     <path id="md1b77a3fe3" d="M 322.728549 -163.240195 
L 322.728549 -150.919241 
L 361.459155 -34.201736 
L 400.18976 -31.228451 
L 438.920366 -31.731129 
L 438.920366 -36.950421 
L 438.920366 -36.950421 
L 400.18976 -36.447744 
L 361.459155 -39.378248 
L 322.728549 -163.240195 
z
" style="stroke: #34b6c6; stroke-opacity: 0.2"/>
    </defs>
    <g clip-path="url(#p3284df820d)">
     <use xlink:href="#md1b77a3fe3" x="0" y="337.998125" style="fill: #34b6c6; fill-opacity: 0.2; stroke: #34b6c6; stroke-opacity: 0.2"/>
    </g>
   </g>
   <g id="PolyCollection_17">
    <defs>
     <path id="m2bcf606f52" d="M 322.728549 -51.656421 
L 322.728549 -46.094879 
L 361.459155 -31.196365 
L 400.18976 -30.608125 
L 438.920366 -30.779249 
L 438.920366 -35.998542 
L 438.920366 -35.998542 
L 400.18976 -35.827418 
L 361.459155 -36.479829 
L 322.728549 -51.656421 
z
" style="stroke: #9370db; stroke-opacity: 0.2"/>
    </defs>
    <g clip-path="url(#p3284df820d)">
     <use xlink:href="#m2bcf606f52" x="0" y="337.998125" style="fill: #9370db; fill-opacity: 0.2; stroke: #9370db; stroke-opacity: 0.2"/>
    </g>
   </g>
   <g id="PolyCollection_18">
    <defs>
     <path id="mfdf9afa21d" d="M 322.728549 -69.218057 
L 322.728549 -62.929237 
L 361.459155 -31.431661 
L 400.18976 -30.725773 
L 438.920366 -30.757859 
L 438.920366 -35.977152 
L 438.920366 -35.977152 
L 400.18976 -35.945066 
L 361.459155 -36.736516 
L 322.728549 -69.218057 
z
" style="stroke: #79ad41; stroke-opacity: 0.2"/>
    </defs>
    <g clip-path="url(#p3284df820d)">
     <use xlink:href="#mfdf9afa21d" x="0" y="337.998125" style="fill: #79ad41; fill-opacity: 0.2; stroke: #79ad41; stroke-opacity: 0.2"/>
    </g>
   </g>
   <g id="line2d_73">
    <path d="M 322.728549 180.918407 
L 361.459155 301.208133 
L 400.18976 304.160028 
L 438.920366 303.65735 
" clip-path="url(#p3284df820d)" style="fill: none; stroke: #34b6c6; stroke-width: 2; stroke-linecap: round"/>
   </g>
   <g id="line2d_74">
    <path d="M 322.728549 289.122475 
L 361.459155 304.160028 
L 400.18976 304.780354 
L 438.920366 304.609229 
" clip-path="url(#p3284df820d)" style="fill: none; stroke: #9370db; stroke-width: 2; stroke-linecap: round"/>
   </g>
   <g id="line2d_75">
    <path d="M 322.728549 271.924478 
L 361.459155 303.914037 
L 400.18976 304.662706 
L 438.920366 304.63062 
" clip-path="url(#p3284df820d)" style="fill: none; stroke: #79ad41; stroke-width: 2; stroke-linecap: round"/>
   </g>
   <g id="patch_28">
    <path d="M 316.918958 314.12 
L 316.918958 166.06 
" style="fill: none; stroke: #cccccc; stroke-width: 0.8; stroke-linejoin: miter; stroke-linecap: square"/>
   </g>
   <g id="patch_29">
    <path d="M 444.729957 314.12 
L 444.729957 166.06 
" style="fill: none; stroke: #cccccc; stroke-width: 0.8; stroke-linejoin: miter; stroke-linecap: square"/>
   </g>
   <g id="patch_30">
    <path d="M 316.918958 314.12 
L 444.729957 314.12 
" style="fill: none; stroke: #cccccc; stroke-width: 0.8; stroke-linejoin: miter; stroke-linecap: square"/>
   </g>
   <g id="patch_31">
    <path d="M 316.918958 166.06 
L 444.729957 166.06 
" style="fill: none; stroke: #cccccc; stroke-width: 0.8; stroke-linejoin: miter; stroke-linecap: square"/>
   </g>
  </g>
 </g>
 <defs>
  <clipPath id="p37e3d9ae6c">
   <rect x="36.465625" y="7.2" width="127.810998" height="148.06"/>
  </clipPath>
  <clipPath id="pd292d87680">
   <rect x="176.692292" y="7.2" width="127.810998" height="148.06"/>
  </clipPath>
  <clipPath id="p5ecc098de5">
   <rect x="316.918958" y="7.2" width="127.810998" height="148.06"/>
  </clipPath>
  <clipPath id="p6159e3e591">
   <rect x="36.465625" y="166.06" width="127.810998" height="148.06"/>
  </clipPath>
  <clipPath id="pa518977b2f">
   <rect x="176.692292" y="166.06" width="127.810998" height="148.06"/>
  </clipPath>
  <clipPath id="p3284df820d">
   <rect x="316.918958" y="166.06" width="127.810998" height="148.06"/>
  </clipPath>
 </defs>
</svg>
