<?xml version="1.0" encoding="utf-8" standalone="no"?>
<!DOCTYPE svg PUBLIC "-//W3C//DTD SVG 1.1//EN"
  "http://www.w3.org/Graphics/SVG/1.1/DTD/svg11.dtd">
<svg xmlns:xlink="http://www.w3.org/1999/xlink" width="452.552184pt" height="337.998125pt" viewBox="0 0 452.552184 337.998125" xmlns="http://www.w3.org/2000/svg" version="1.1">
 <metadata>
  <rdf:RDF xmlns:dc="http://purl.org/dc/elements/1.1/" xmlns:cc="http://creativecommons.org/ns#" xmlns:rdf="http://www.w3.org/1999/02/22-rdf-syntax-ns#">
   <cc:Work>
    <dc:type rdf:resource="http://purl.org/dc/dcmitype/StillImage"/>
    <dc:date>2024-01-27T22:15:05.957952</dc:date>
    <dc:format>image/svg+xml</dc:format>
    <dc:creator>
     <cc:Agent>
      <dc:title>Matplotlib v3.7.2, https://matplotlib.org/</dc:title>
     </cc:Agent>
    </dc:creator>
   </cc:Work>
  </rdf:RDF>
 </metadata>
 <defs>
  <style type="text/css">*{stroke-linejoin: round; stroke-linecap: butt}</style>
 </defs>
 <g id="figure_1">
  <g id="patch_1">
   <path d="M 0 337.998125 
L 452.552184 337.998125 
L 452.552184 0 
L 0 0 
z
" style="fill: #ffffff"/>
  </g>
  <g id="axes_1">
   <g id="patch_2">
    <path d="M 42.828125 155.26 
L 168.509123 155.26 
L 168.509123 7.2 
L 42.828125 7.2 
z
" style="fill: #ffffff"/>
   </g>
   <g id="matplotlib.axis_1">
    <g id="xtick_1">
     <g id="line2d_1">
      <path d="M 48.540898 155.26 
L 48.540898 7.2 
" clip-path="url(#pf81c5b1860)" style="fill: none; stroke: #cccccc; stroke-width: 0.8; stroke-linecap: round"/>
     </g>
    </g>
    <g id="xtick_2">
     <g id="line2d_2">
      <path d="M 86.626049 155.26 
L 86.626049 7.2 
" clip-path="url(#pf81c5b1860)" style="fill: none; stroke: #cccccc; stroke-width: 0.8; stroke-linecap: round"/>
     </g>
    </g>
    <g id="xtick_3">
     <g id="line2d_3">
      <path d="M 124.7112 155.26 
L 124.7112 7.2 
" clip-path="url(#pf81c5b1860)" style="fill: none; stroke: #cccccc; stroke-width: 0.8; stroke-linecap: round"/>
     </g>
    </g>
    <g id="xtick_4">
     <g id="line2d_4">
      <path d="M 162.796351 155.26 
L 162.796351 7.2 
" clip-path="url(#pf81c5b1860)" style="fill: none; stroke: #cccccc; stroke-width: 0.8; stroke-linecap: round"/>
     </g>
    </g>
   </g>
   <g id="matplotlib.axis_2">
    <g id="ytick_1">
     <g id="line2d_5">
      <path d="M 42.828125 132.409455 
L 168.509123 132.409455 
" clip-path="url(#pf81c5b1860)" style="fill: none; stroke: #cccccc; stroke-width: 0.8; stroke-linecap: round"/>
     </g>
     <g id="text_1">
      <!-- 0.024 -->
      <g style="fill: #696969" transform="translate(7.2 136.208673) scale(0.1 -0.1)">
       <defs>
        <path id="DejaVuSans-30" d="M 2034 4250 
Q 1547 4250 1301 3770 
Q 1056 3291 1056 2328 
Q 1056 1369 1301 889 
Q 1547 409 2034 409 
Q 2525 409 2770 889 
Q 3016 1369 3016 2328 
Q 3016 3291 2770 3770 
Q 2525 4250 2034 4250 
z
M 2034 4750 
Q 2819 4750 3233 4129 
Q 3647 3509 3647 2328 
Q 3647 1150 3233 529 
Q 2819 -91 2034 -91 
Q 1250 -91 836 529 
Q 422 1150 422 2328 
Q 422 3509 836 4129 
Q 1250 4750 2034 4750 
z
" transform="scale(0.015625)"/>
        <path id="DejaVuSans-2e" d="M 684 794 
L 1344 794 
L 1344 0 
L 684 0 
L 684 794 
z
" transform="scale(0.015625)"/>
        <path id="DejaVuSans-32" d="M 1228 531 
L 3431 531 
L 3431 0 
L 469 0 
L 469 531 
Q 828 903 1448 1529 
Q 2069 2156 2228 2338 
Q 2531 2678 2651 2914 
Q 2772 3150 2772 3378 
Q 2772 3750 2511 3984 
Q 2250 4219 1831 4219 
Q 1534 4219 1204 4116 
Q 875 4013 500 3803 
L 500 4441 
Q 881 4594 1212 4672 
Q 1544 4750 1819 4750 
Q 2544 4750 2975 4387 
Q 3406 4025 3406 3419 
Q 3406 3131 3298 2873 
Q 3191 2616 2906 2266 
Q 2828 2175 2409 1742 
Q 1991 1309 1228 531 
z
" transform="scale(0.015625)"/>
        <path id="DejaVuSans-34" d="M 2419 4116 
L 825 1625 
L 2419 1625 
L 2419 4116 
z
M 2253 4666 
L 3047 4666 
L 3047 1625 
L 3713 1625 
L 3713 1100 
L 3047 1100 
L 3047 0 
L 2419 0 
L 2419 1100 
L 313 1100 
L 313 1709 
L 2253 4666 
z
" transform="scale(0.015625)"/>
       </defs>
       <use xlink:href="#DejaVuSans-30"/>
       <use xlink:href="#DejaVuSans-2e" x="63.623047"/>
       <use xlink:href="#DejaVuSans-30" x="95.410156"/>
       <use xlink:href="#DejaVuSans-32" x="159.033203"/>
       <use xlink:href="#DejaVuSans-34" x="222.65625"/>
      </g>
     </g>
    </g>
    <g id="ytick_2">
     <g id="line2d_6">
      <path d="M 42.828125 106.197186 
L 168.509123 106.197186 
" clip-path="url(#pf81c5b1860)" style="fill: none; stroke: #cccccc; stroke-width: 0.8; stroke-linecap: round"/>
     </g>
     <g id="text_2">
      <!-- 0.026 -->
      <g style="fill: #696969" transform="translate(7.2 109.996405) scale(0.1 -0.1)">
       <defs>
        <path id="DejaVuSans-36" d="M 2113 2584 
Q 1688 2584 1439 2293 
Q 1191 2003 1191 1497 
Q 1191 994 1439 701 
Q 1688 409 2113 409 
Q 2538 409 2786 701 
Q 3034 994 3034 1497 
Q 3034 2003 2786 2293 
Q 2538 2584 2113 2584 
z
M 3366 4563 
L 3366 3988 
Q 3128 4100 2886 4159 
Q 2644 4219 2406 4219 
Q 1781 4219 1451 3797 
Q 1122 3375 1075 2522 
Q 1259 2794 1537 2939 
Q 1816 3084 2150 3084 
Q 2853 3084 3261 2657 
Q 3669 2231 3669 1497 
Q 3669 778 3244 343 
Q 2819 -91 2113 -91 
Q 1303 -91 875 529 
Q 447 1150 447 2328 
Q 447 3434 972 4092 
Q 1497 4750 2381 4750 
Q 2619 4750 2861 4703 
Q 3103 4656 3366 4563 
z
" transform="scale(0.015625)"/>
       </defs>
       <use xlink:href="#DejaVuSans-30"/>
       <use xlink:href="#DejaVuSans-2e" x="63.623047"/>
       <use xlink:href="#DejaVuSans-30" x="95.410156"/>
       <use xlink:href="#DejaVuSans-32" x="159.033203"/>
       <use xlink:href="#DejaVuSans-36" x="222.65625"/>
      </g>
     </g>
    </g>
    <g id="ytick_3">
     <g id="line2d_7">
      <path d="M 42.828125 79.984917 
L 168.509123 79.984917 
" clip-path="url(#pf81c5b1860)" style="fill: none; stroke: #cccccc; stroke-width: 0.8; stroke-linecap: round"/>
     </g>
     <g id="text_3">
      <!-- 0.028 -->
      <g style="fill: #696969" transform="translate(7.2 83.784136) scale(0.1 -0.1)">
       <defs>
        <path id="DejaVuSans-38" d="M 2034 2216 
Q 1584 2216 1326 1975 
Q 1069 1734 1069 1313 
Q 1069 891 1326 650 
Q 1584 409 2034 409 
Q 2484 409 2743 651 
Q 3003 894 3003 1313 
Q 3003 1734 2745 1975 
Q 2488 2216 2034 2216 
z
M 1403 2484 
Q 997 2584 770 2862 
Q 544 3141 544 3541 
Q 544 4100 942 4425 
Q 1341 4750 2034 4750 
Q 2731 4750 3128 4425 
Q 3525 4100 3525 3541 
Q 3525 3141 3298 2862 
Q 3072 2584 2669 2484 
Q 3125 2378 3379 2068 
Q 3634 1759 3634 1313 
Q 3634 634 3220 271 
Q 2806 -91 2034 -91 
Q 1263 -91 848 271 
Q 434 634 434 1313 
Q 434 1759 690 2068 
Q 947 2378 1403 2484 
z
M 1172 3481 
Q 1172 3119 1398 2916 
Q 1625 2713 2034 2713 
Q 2441 2713 2670 2916 
Q 2900 3119 2900 3481 
Q 2900 3844 2670 4047 
Q 2441 4250 2034 4250 
Q 1625 4250 1398 4047 
Q 1172 3844 1172 3481 
z
" transform="scale(0.015625)"/>
       </defs>
       <use xlink:href="#DejaVuSans-30"/>
       <use xlink:href="#DejaVuSans-2e" x="63.623047"/>
       <use xlink:href="#DejaVuSans-30" x="95.410156"/>
       <use xlink:href="#DejaVuSans-32" x="159.033203"/>
       <use xlink:href="#DejaVuSans-38" x="222.65625"/>
      </g>
     </g>
    </g>
    <g id="ytick_4">
     <g id="line2d_8">
      <path d="M 42.828125 53.772648 
L 168.509123 53.772648 
" clip-path="url(#pf81c5b1860)" style="fill: none; stroke: #cccccc; stroke-width: 0.8; stroke-linecap: round"/>
     </g>
     <g id="text_4">
      <!-- 0.030 -->
      <g style="fill: #696969" transform="translate(7.2 57.571867) scale(0.1 -0.1)">
       <defs>
        <path id="DejaVuSans-33" d="M 2597 2516 
Q 3050 2419 3304 2112 
Q 3559 1806 3559 1356 
Q 3559 666 3084 287 
Q 2609 -91 1734 -91 
Q 1441 -91 1130 -33 
Q 819 25 488 141 
L 488 750 
Q 750 597 1062 519 
Q 1375 441 1716 441 
Q 2309 441 2620 675 
Q 2931 909 2931 1356 
Q 2931 1769 2642 2001 
Q 2353 2234 1838 2234 
L 1294 2234 
L 1294 2753 
L 1863 2753 
Q 2328 2753 2575 2939 
Q 2822 3125 2822 3475 
Q 2822 3834 2567 4026 
Q 2313 4219 1838 4219 
Q 1578 4219 1281 4162 
Q 984 4106 628 3988 
L 628 4550 
Q 988 4650 1302 4700 
Q 1616 4750 1894 4750 
Q 2613 4750 3031 4423 
Q 3450 4097 3450 3541 
Q 3450 3153 3228 2886 
Q 3006 2619 2597 2516 
z
" transform="scale(0.015625)"/>
       </defs>
       <use xlink:href="#DejaVuSans-30"/>
       <use xlink:href="#DejaVuSans-2e" x="63.623047"/>
       <use xlink:href="#DejaVuSans-30" x="95.410156"/>
       <use xlink:href="#DejaVuSans-33" x="159.033203"/>
       <use xlink:href="#DejaVuSans-30" x="222.65625"/>
      </g>
     </g>
    </g>
    <g id="ytick_5">
     <g id="line2d_9">
      <path d="M 42.828125 27.56038 
L 168.509123 27.56038 
" clip-path="url(#pf81c5b1860)" style="fill: none; stroke: #cccccc; stroke-width: 0.8; stroke-linecap: round"/>
     </g>
     <g id="text_5">
      <!-- 0.032 -->
      <g style="fill: #696969" transform="translate(7.2 31.359598) scale(0.1 -0.1)">
       <use xlink:href="#DejaVuSans-30"/>
       <use xlink:href="#DejaVuSans-2e" x="63.623047"/>
       <use xlink:href="#DejaVuSans-30" x="95.410156"/>
       <use xlink:href="#DejaVuSans-33" x="159.033203"/>
       <use xlink:href="#DejaVuSans-32" x="222.65625"/>
      </g>
     </g>
    </g>
   </g>
   <g id="PolyCollection_1">
    <defs>
     <path id="m4a1998723b" d="M 48.540898 -271.250403 
L 48.540898 -256.571533 
L 86.626049 -290.516421 
L 124.7112 -297.20055 
L 162.796351 -304.671046 
L 162.796351 -324.068125 
L 162.796351 -324.068125 
L 124.7112 -316.073383 
L 86.626049 -309.389255 
L 48.540898 -271.250403 
z
" style="stroke: #34b6c6; stroke-opacity: 0.2"/>
    </defs>
    <g clip-path="url(#pf81c5b1860)">
     <use xlink:href="#m4a1998723b" x="0" y="337.998125" style="fill: #34b6c6; fill-opacity: 0.2; stroke: #34b6c6; stroke-opacity: 0.2"/>
    </g>
   </g>
   <g id="PolyCollection_2">
    <defs>
     <path id="mcf77764593" d="M 48.540898 -246.610871 
L 48.540898 -230.88351 
L 86.626049 -283.308047 
L 124.7112 -289.074746 
L 162.796351 -294.186139 
L 162.796351 -313.583218 
L 162.796351 -313.583218 
L 124.7112 -307.94758 
L 86.626049 -301.656635 
L 48.540898 -246.610871 
z
" style="stroke: #9370db; stroke-opacity: 0.2"/>
    </defs>
    <g clip-path="url(#pf81c5b1860)">
     <use xlink:href="#mcf77764593" x="0" y="337.998125" style="fill: #9370db; fill-opacity: 0.2; stroke: #9370db; stroke-opacity: 0.2"/>
    </g>
   </g>
   <g id="PolyCollection_3">
    <defs>
     <path id="m26c7bf1180" d="M 48.540898 -204.278057 
L 48.540898 -191.171922 
L 86.626049 -273.347385 
L 124.7112 -283.045924 
L 162.796351 -288.157317 
L 162.796351 -307.03015 
L 162.796351 -307.03015 
L 124.7112 -301.394513 
L 86.626049 -291.695973 
L 48.540898 -204.278057 
z
" style="stroke: #79ad41; stroke-opacity: 0.2"/>
    </defs>
    <g clip-path="url(#pf81c5b1860)">
     <use xlink:href="#m26c7bf1180" x="0" y="337.998125" style="fill: #79ad41; fill-opacity: 0.2; stroke: #79ad41; stroke-opacity: 0.2"/>
    </g>
   </g>
   <g id="line2d_10">
    <path d="M 48.540898 74.087157 
L 86.626049 38.045287 
L 124.7112 31.361159 
L 162.796351 23.628539 
" clip-path="url(#pf81c5b1860)" style="fill: none; stroke: #34b6c6; stroke-width: 2; stroke-linecap: round"/>
   </g>
   <g id="line2d_11">
    <path d="M 48.540898 99.250935 
L 86.626049 45.515784 
L 124.7112 39.486962 
L 162.796351 34.113447 
" clip-path="url(#pf81c5b1860)" style="fill: none; stroke: #9370db; stroke-width: 2; stroke-linecap: round"/>
   </g>
   <g id="line2d_12">
    <path d="M 48.540898 140.273135 
L 86.626049 55.476446 
L 124.7112 45.777907 
L 162.796351 40.404391 
" clip-path="url(#pf81c5b1860)" style="fill: none; stroke: #79ad41; stroke-width: 2; stroke-linecap: round"/>
   </g>
   <g id="patch_3">
    <path d="M 42.828125 155.26 
L 42.828125 7.2 
" style="fill: none; stroke: #cccccc; stroke-width: 0.8; stroke-linejoin: miter; stroke-linecap: square"/>
   </g>
   <g id="patch_4">
    <path d="M 168.509123 155.26 
L 168.509123 7.2 
" style="fill: none; stroke: #cccccc; stroke-width: 0.8; stroke-linejoin: miter; stroke-linecap: square"/>
   </g>
   <g id="patch_5">
    <path d="M 42.828125 155.26 
L 168.509123 155.26 
" style="fill: none; stroke: #cccccc; stroke-width: 0.8; stroke-linejoin: miter; stroke-linecap: square"/>
   </g>
   <g id="patch_6">
    <path d="M 42.828125 7.2 
L 168.509123 7.2 
" style="fill: none; stroke: #cccccc; stroke-width: 0.8; stroke-linejoin: miter; stroke-linecap: square"/>
   </g>
  </g>
  <g id="axes_2">
   <g id="patch_7">
    <path d="M 180.924792 155.26 
L 306.60579 155.26 
L 306.60579 7.2 
L 180.924792 7.2 
z
" style="fill: #ffffff"/>
   </g>
   <g id="matplotlib.axis_3">
    <g id="xtick_5">
     <g id="line2d_13">
      <path d="M 186.637564 155.26 
L 186.637564 7.2 
" clip-path="url(#p9b586d131a)" style="fill: none; stroke: #cccccc; stroke-width: 0.8; stroke-linecap: round"/>
     </g>
    </g>
    <g id="xtick_6">
     <g id="line2d_14">
      <path d="M 224.722715 155.26 
L 224.722715 7.2 
" clip-path="url(#p9b586d131a)" style="fill: none; stroke: #cccccc; stroke-width: 0.8; stroke-linecap: round"/>
     </g>
    </g>
    <g id="xtick_7">
     <g id="line2d_15">
      <path d="M 262.807866 155.26 
L 262.807866 7.2 
" clip-path="url(#p9b586d131a)" style="fill: none; stroke: #cccccc; stroke-width: 0.8; stroke-linecap: round"/>
     </g>
    </g>
    <g id="xtick_8">
     <g id="line2d_16">
      <path d="M 300.893017 155.26 
L 300.893017 7.2 
" clip-path="url(#p9b586d131a)" style="fill: none; stroke: #cccccc; stroke-width: 0.8; stroke-linecap: round"/>
     </g>
    </g>
   </g>
   <g id="matplotlib.axis_4">
    <g id="ytick_6">
     <g id="line2d_17">
      <path d="M 180.924792 132.409455 
L 306.60579 132.409455 
" clip-path="url(#p9b586d131a)" style="fill: none; stroke: #cccccc; stroke-width: 0.8; stroke-linecap: round"/>
     </g>
    </g>
    <g id="ytick_7">
     <g id="line2d_18">
      <path d="M 180.924792 106.197186 
L 306.60579 106.197186 
" clip-path="url(#p9b586d131a)" style="fill: none; stroke: #cccccc; stroke-width: 0.8; stroke-linecap: round"/>
     </g>
    </g>
    <g id="ytick_8">
     <g id="line2d_19">
      <path d="M 180.924792 79.984917 
L 306.60579 79.984917 
" clip-path="url(#p9b586d131a)" style="fill: none; stroke: #cccccc; stroke-width: 0.8; stroke-linecap: round"/>
     </g>
    </g>
    <g id="ytick_9">
     <g id="line2d_20">
      <path d="M 180.924792 53.772648 
L 306.60579 53.772648 
" clip-path="url(#p9b586d131a)" style="fill: none; stroke: #cccccc; stroke-width: 0.8; stroke-linecap: round"/>
     </g>
    </g>
    <g id="ytick_10">
     <g id="line2d_21">
      <path d="M 180.924792 27.56038 
L 306.60579 27.56038 
" clip-path="url(#p9b586d131a)" style="fill: none; stroke: #cccccc; stroke-width: 0.8; stroke-linecap: round"/>
     </g>
    </g>
   </g>
   <g id="PolyCollection_4">
    <defs>
     <path id="m6679e4c2ed" d="M 186.637564 -251.460141 
L 186.637564 -238.354006 
L 224.722715 -273.740569 
L 262.807866 -279.638329 
L 300.893017 -284.225477 
L 300.893017 -301.001329 
L 300.893017 -301.001329 
L 262.807866 -296.414181 
L 224.722715 -289.992176 
L 186.637564 -251.460141 
z
" style="stroke: #34b6c6; stroke-opacity: 0.2"/>
    </defs>
    <g clip-path="url(#p9b586d131a)">
     <use xlink:href="#m6679e4c2ed" x="0" y="337.998125" style="fill: #34b6c6; fill-opacity: 0.2; stroke: #34b6c6; stroke-opacity: 0.2"/>
    </g>
   </g>
   <g id="PolyCollection_5">
    <defs>
     <path id="m21b1cfab4b" d="M 186.637564 -230.359264 
L 186.637564 -216.728884 
L 224.722715 -264.173091 
L 262.807866 -271.119342 
L 300.893017 -278.327716 
L 300.893017 -295.103568 
L 300.893017 -295.103568 
L 262.807866 -287.895194 
L 224.722715 -280.424698 
L 186.637564 -230.359264 
z
" style="stroke: #9370db; stroke-opacity: 0.2"/>
    </defs>
    <g clip-path="url(#p9b586d131a)">
     <use xlink:href="#m21b1cfab4b" x="0" y="337.998125" style="fill: #9370db; fill-opacity: 0.2; stroke: #9370db; stroke-opacity: 0.2"/>
    </g>
   </g>
   <g id="PolyCollection_6">
    <defs>
     <path id="m2ac9a2a1fb" d="M 186.637564 -201.525769 
L 186.637564 -189.468125 
L 224.722715 -255.523042 
L 262.807866 -266.270072 
L 300.893017 -273.87163 
L 300.893017 -290.647482 
L 300.893017 -290.647482 
L 262.807866 -282.521679 
L 224.722715 -271.250403 
L 186.637564 -201.525769 
z
" style="stroke: #79ad41; stroke-opacity: 0.2"/>
    </defs>
    <g clip-path="url(#p9b586d131a)">
     <use xlink:href="#m2ac9a2a1fb" x="0" y="337.998125" style="fill: #79ad41; fill-opacity: 0.2; stroke: #79ad41; stroke-opacity: 0.2"/>
    </g>
   </g>
   <g id="line2d_22">
    <path d="M 186.637564 93.091052 
L 224.722715 56.131753 
L 262.807866 49.97187 
L 300.893017 45.384722 
" clip-path="url(#p9b586d131a)" style="fill: none; stroke: #34b6c6; stroke-width: 2; stroke-linecap: round"/>
   </g>
   <g id="line2d_23">
    <path d="M 186.637564 114.454051 
L 224.722715 65.699231 
L 262.807866 58.490857 
L 300.893017 51.282483 
" clip-path="url(#p9b586d131a)" style="fill: none; stroke: #9370db; stroke-width: 2; stroke-linecap: round"/>
   </g>
   <g id="line2d_24">
    <path d="M 186.637564 142.501178 
L 224.722715 74.611402 
L 262.807866 63.602249 
L 300.893017 55.738569 
" clip-path="url(#p9b586d131a)" style="fill: none; stroke: #79ad41; stroke-width: 2; stroke-linecap: round"/>
   </g>
   <g id="patch_8">
    <path d="M 180.924792 155.26 
L 180.924792 7.2 
" style="fill: none; stroke: #cccccc; stroke-width: 0.8; stroke-linejoin: miter; stroke-linecap: square"/>
   </g>
   <g id="patch_9">
    <path d="M 306.60579 155.26 
L 306.60579 7.2 
" style="fill: none; stroke: #cccccc; stroke-width: 0.8; stroke-linejoin: miter; stroke-linecap: square"/>
   </g>
   <g id="patch_10">
    <path d="M 180.924792 155.26 
L 306.60579 155.26 
" style="fill: none; stroke: #cccccc; stroke-width: 0.8; stroke-linejoin: miter; stroke-linecap: square"/>
   </g>
   <g id="patch_11">
    <path d="M 180.924792 7.2 
L 306.60579 7.2 
" style="fill: none; stroke: #cccccc; stroke-width: 0.8; stroke-linejoin: miter; stroke-linecap: square"/>
   </g>
  </g>
  <g id="axes_3">
   <g id="patch_12">
    <path d="M 319.021458 155.26 
L 444.702457 155.26 
L 444.702457 7.2 
L 319.021458 7.2 
z
" style="fill: #ffffff"/>
   </g>
   <g id="matplotlib.axis_5">
    <g id="xtick_9">
     <g id="line2d_25">
      <path d="M 324.734231 155.26 
L 324.734231 7.2 
" clip-path="url(#p2b1faabc1c)" style="fill: none; stroke: #cccccc; stroke-width: 0.8; stroke-linecap: round"/>
     </g>
    </g>
    <g id="xtick_10">
     <g id="line2d_26">
      <path d="M 362.819382 155.26 
L 362.819382 7.2 
" clip-path="url(#p2b1faabc1c)" style="fill: none; stroke: #cccccc; stroke-width: 0.8; stroke-linecap: round"/>
     </g>
    </g>
    <g id="xtick_11">
     <g id="line2d_27">
      <path d="M 400.904533 155.26 
L 400.904533 7.2 
" clip-path="url(#p2b1faabc1c)" style="fill: none; stroke: #cccccc; stroke-width: 0.8; stroke-linecap: round"/>
     </g>
    </g>
    <g id="xtick_12">
     <g id="line2d_28">
      <path d="M 438.989684 155.26 
L 438.989684 7.2 
" clip-path="url(#p2b1faabc1c)" style="fill: none; stroke: #cccccc; stroke-width: 0.8; stroke-linecap: round"/>
     </g>
    </g>
   </g>
   <g id="matplotlib.axis_6">
    <g id="ytick_11">
     <g id="line2d_29">
      <path d="M 319.021458 132.409455 
L 444.702457 132.409455 
" clip-path="url(#p2b1faabc1c)" style="fill: none; stroke: #cccccc; stroke-width: 0.8; stroke-linecap: round"/>
     </g>
    </g>
    <g id="ytick_12">
     <g id="line2d_30">
      <path d="M 319.021458 106.197186 
L 444.702457 106.197186 
" clip-path="url(#p2b1faabc1c)" style="fill: none; stroke: #cccccc; stroke-width: 0.8; stroke-linecap: round"/>
     </g>
    </g>
    <g id="ytick_13">
     <g id="line2d_31">
      <path d="M 319.021458 79.984917 
L 444.702457 79.984917 
" clip-path="url(#p2b1faabc1c)" style="fill: none; stroke: #cccccc; stroke-width: 0.8; stroke-linecap: round"/>
     </g>
    </g>
    <g id="ytick_14">
     <g id="line2d_32">
      <path d="M 319.021458 53.772648 
L 444.702457 53.772648 
" clip-path="url(#p2b1faabc1c)" style="fill: none; stroke: #cccccc; stroke-width: 0.8; stroke-linecap: round"/>
     </g>
    </g>
    <g id="ytick_15">
     <g id="line2d_33">
      <path d="M 319.021458 27.56038 
L 444.702457 27.56038 
" clip-path="url(#p2b1faabc1c)" style="fill: none; stroke: #cccccc; stroke-width: 0.8; stroke-linecap: round"/>
     </g>
    </g>
   </g>
   <g id="PolyCollection_7">
    <defs>
     <path id="md64a87b69b" d="M 324.734231 -261.682925 
L 324.734231 -248.052546 
L 362.819382 -269.93979 
L 400.904533 -281.60425 
L 438.989684 -291.564912 
L 438.989684 -308.865009 
L 438.989684 -308.865009 
L 400.904533 -298.380102 
L 362.819382 -285.667151 
L 324.734231 -261.682925 
z
" style="stroke: #34b6c6; stroke-opacity: 0.2"/>
    </defs>
    <g clip-path="url(#p2b1faabc1c)">
     <use xlink:href="#md64a87b69b" x="0" y="337.998125" style="fill: #34b6c6; fill-opacity: 0.2; stroke: #34b6c6; stroke-opacity: 0.2"/>
    </g>
   </g>
   <g id="PolyCollection_8">
    <defs>
     <path id="m9207fd08ee" d="M 324.734231 -243.334337 
L 324.734231 -228.655467 
L 362.819382 -267.449625 
L 400.904533 -272.82314 
L 438.989684 -282.914863 
L 438.989684 -300.21496 
L 438.989684 -300.21496 
L 400.904533 -289.598992 
L 362.819382 -283.701231 
L 324.734231 -243.334337 
z
" style="stroke: #9370db; stroke-opacity: 0.2"/>
    </defs>
    <g clip-path="url(#p2b1faabc1c)">
     <use xlink:href="#m9207fd08ee" x="0" y="337.998125" style="fill: #9370db; fill-opacity: 0.2; stroke: #9370db; stroke-opacity: 0.2"/>
    </g>
   </g>
   <g id="PolyCollection_9">
    <defs>
     <path id="m6dffa9e277" d="M 324.734231 -209.913695 
L 324.734231 -197.331806 
L 362.819382 -261.15868 
L 400.904533 -270.201913 
L 438.989684 -277.672409 
L 438.989684 -294.448261 
L 438.989684 -294.448261 
L 400.904533 -286.453519 
L 362.819382 -276.886041 
L 324.734231 -209.913695 
z
" style="stroke: #79ad41; stroke-opacity: 0.2"/>
    </defs>
    <g clip-path="url(#p2b1faabc1c)">
     <use xlink:href="#m6dffa9e277" x="0" y="337.998125" style="fill: #79ad41; fill-opacity: 0.2; stroke: #79ad41; stroke-opacity: 0.2"/>
    </g>
   </g>
   <g id="line2d_34">
    <path d="M 324.734231 83.130389 
L 362.819382 60.194654 
L 400.904533 48.005949 
L 438.989684 37.783165 
" clip-path="url(#p2b1faabc1c)" style="fill: none; stroke: #34b6c6; stroke-width: 2; stroke-linecap: round"/>
   </g>
   <g id="line2d_35">
    <path d="M 324.734231 102.003223 
L 362.819382 62.422697 
L 400.904533 56.787059 
L 438.989684 46.433213 
" clip-path="url(#p2b1faabc1c)" style="fill: none; stroke: #9370db; stroke-width: 2; stroke-linecap: round"/>
   </g>
   <g id="line2d_36">
    <path d="M 324.734231 134.375375 
L 362.819382 68.975764 
L 400.904533 59.670409 
L 438.989684 51.93779 
" clip-path="url(#p2b1faabc1c)" style="fill: none; stroke: #79ad41; stroke-width: 2; stroke-linecap: round"/>
   </g>
   <g id="patch_13">
    <path d="M 319.021458 155.26 
L 319.021458 7.2 
" style="fill: none; stroke: #cccccc; stroke-width: 0.8; stroke-linejoin: miter; stroke-linecap: square"/>
   </g>
   <g id="patch_14">
    <path d="M 444.702457 155.26 
L 444.702457 7.2 
" style="fill: none; stroke: #cccccc; stroke-width: 0.8; stroke-linejoin: miter; stroke-linecap: square"/>
   </g>
   <g id="patch_15">
    <path d="M 319.021458 155.26 
L 444.702457 155.26 
" style="fill: none; stroke: #cccccc; stroke-width: 0.8; stroke-linejoin: miter; stroke-linecap: square"/>
   </g>
   <g id="patch_16">
    <path d="M 319.021458 7.2 
L 444.702457 7.2 
" style="fill: none; stroke: #cccccc; stroke-width: 0.8; stroke-linejoin: miter; stroke-linecap: square"/>
   </g>
  </g>
  <g id="axes_4">
   <g id="patch_17">
    <path d="M 42.828125 314.12 
L 168.509123 314.12 
L 168.509123 166.06 
L 42.828125 166.06 
z
" style="fill: #ffffff"/>
   </g>
   <g id="matplotlib.axis_7">
    <g id="xtick_13">
     <g id="line2d_37">
      <path d="M 48.540898 314.12 
L 48.540898 166.06 
" clip-path="url(#p39272b216e)" style="fill: none; stroke: #cccccc; stroke-width: 0.8; stroke-linecap: round"/>
     </g>
     <g id="text_6">
      <!-- 1 -->
      <g style="fill: #696969" transform="translate(45.359648 328.718437) scale(0.1 -0.1)">
       <defs>
        <path id="DejaVuSans-31" d="M 794 531 
L 1825 531 
L 1825 4091 
L 703 3866 
L 703 4441 
L 1819 4666 
L 2450 4666 
L 2450 531 
L 3481 531 
L 3481 0 
L 794 0 
L 794 531 
z
" transform="scale(0.015625)"/>
       </defs>
       <use xlink:href="#DejaVuSans-31"/>
      </g>
     </g>
    </g>
    <g id="xtick_14">
     <g id="line2d_38">
      <path d="M 86.626049 314.12 
L 86.626049 166.06 
" clip-path="url(#p39272b216e)" style="fill: none; stroke: #cccccc; stroke-width: 0.8; stroke-linecap: round"/>
     </g>
     <g id="text_7">
      <!-- 4 -->
      <g style="fill: #696969" transform="translate(83.444799 328.718437) scale(0.1 -0.1)">
       <use xlink:href="#DejaVuSans-34"/>
      </g>
     </g>
    </g>
    <g id="xtick_15">
     <g id="line2d_39">
      <path d="M 124.7112 314.12 
L 124.7112 166.06 
" clip-path="url(#p39272b216e)" style="fill: none; stroke: #cccccc; stroke-width: 0.8; stroke-linecap: round"/>
     </g>
     <g id="text_8">
      <!-- 7 -->
      <g style="fill: #696969" transform="translate(121.52995 328.718437) scale(0.1 -0.1)">
       <defs>
        <path id="DejaVuSans-37" d="M 525 4666 
L 3525 4666 
L 3525 4397 
L 1831 0 
L 1172 0 
L 2766 4134 
L 525 4134 
L 525 4666 
z
" transform="scale(0.015625)"/>
       </defs>
       <use xlink:href="#DejaVuSans-37"/>
      </g>
     </g>
    </g>
    <g id="xtick_16">
     <g id="line2d_40">
      <path d="M 162.796351 314.12 
L 162.796351 166.06 
" clip-path="url(#p39272b216e)" style="fill: none; stroke: #cccccc; stroke-width: 0.8; stroke-linecap: round"/>
     </g>
     <g id="text_9">
      <!-- 10 -->
      <g style="fill: #696969" transform="translate(156.433851 328.718437) scale(0.1 -0.1)">
       <use xlink:href="#DejaVuSans-31"/>
       <use xlink:href="#DejaVuSans-30" x="63.623047"/>
      </g>
     </g>
    </g>
   </g>
   <g id="matplotlib.axis_8">
    <g id="ytick_16">
     <g id="line2d_41">
      <path d="M 42.828125 287.799629 
L 168.509123 287.799629 
" clip-path="url(#p39272b216e)" style="fill: none; stroke: #cccccc; stroke-width: 0.8; stroke-linecap: round"/>
     </g>
     <g id="text_10">
      <!-- 0.025 -->
      <g style="fill: #696969" transform="translate(7.2 291.598848) scale(0.1 -0.1)">
       <defs>
        <path id="DejaVuSans-35" d="M 691 4666 
L 3169 4666 
L 3169 4134 
L 1269 4134 
L 1269 2991 
Q 1406 3038 1543 3061 
Q 1681 3084 1819 3084 
Q 2600 3084 3056 2656 
Q 3513 2228 3513 1497 
Q 3513 744 3044 326 
Q 2575 -91 1722 -91 
Q 1428 -91 1123 -41 
Q 819 9 494 109 
L 494 744 
Q 775 591 1075 516 
Q 1375 441 1709 441 
Q 2250 441 2565 725 
Q 2881 1009 2881 1497 
Q 2881 1984 2565 2268 
Q 2250 2553 1709 2553 
Q 1456 2553 1204 2497 
Q 953 2441 691 2322 
L 691 4666 
z
" transform="scale(0.015625)"/>
       </defs>
       <use xlink:href="#DejaVuSans-30"/>
       <use xlink:href="#DejaVuSans-2e" x="63.623047"/>
       <use xlink:href="#DejaVuSans-30" x="95.410156"/>
       <use xlink:href="#DejaVuSans-32" x="159.033203"/>
       <use xlink:href="#DejaVuSans-35" x="222.65625"/>
      </g>
     </g>
    </g>
    <g id="ytick_17">
     <g id="line2d_42">
      <path d="M 42.828125 250.555578 
L 168.509123 250.555578 
" clip-path="url(#p39272b216e)" style="fill: none; stroke: #cccccc; stroke-width: 0.8; stroke-linecap: round"/>
     </g>
     <g id="text_11">
      <!-- 0.030 -->
      <g style="fill: #696969" transform="translate(7.2 254.354797) scale(0.1 -0.1)">
       <use xlink:href="#DejaVuSans-30"/>
       <use xlink:href="#DejaVuSans-2e" x="63.623047"/>
       <use xlink:href="#DejaVuSans-30" x="95.410156"/>
       <use xlink:href="#DejaVuSans-33" x="159.033203"/>
       <use xlink:href="#DejaVuSans-30" x="222.65625"/>
      </g>
     </g>
    </g>
    <g id="ytick_18">
     <g id="line2d_43">
      <path d="M 42.828125 213.311527 
L 168.509123 213.311527 
" clip-path="url(#p39272b216e)" style="fill: none; stroke: #cccccc; stroke-width: 0.8; stroke-linecap: round"/>
     </g>
     <g id="text_12">
      <!-- 0.035 -->
      <g style="fill: #696969" transform="translate(7.2 217.110746) scale(0.1 -0.1)">
       <use xlink:href="#DejaVuSans-30"/>
       <use xlink:href="#DejaVuSans-2e" x="63.623047"/>
       <use xlink:href="#DejaVuSans-30" x="95.410156"/>
       <use xlink:href="#DejaVuSans-33" x="159.033203"/>
       <use xlink:href="#DejaVuSans-35" x="222.65625"/>
      </g>
     </g>
    </g>
    <g id="ytick_19">
     <g id="line2d_44">
      <path d="M 42.828125 176.067476 
L 168.509123 176.067476 
" clip-path="url(#p39272b216e)" style="fill: none; stroke: #cccccc; stroke-width: 0.8; stroke-linecap: round"/>
     </g>
     <g id="text_13">
      <!-- 0.040 -->
      <g style="fill: #696969" transform="translate(7.2 179.866695) scale(0.1 -0.1)">
       <use xlink:href="#DejaVuSans-30"/>
       <use xlink:href="#DejaVuSans-2e" x="63.623047"/>
       <use xlink:href="#DejaVuSans-30" x="95.410156"/>
       <use xlink:href="#DejaVuSans-34" x="159.033203"/>
       <use xlink:href="#DejaVuSans-30" x="222.65625"/>
      </g>
     </g>
    </g>
   </g>
   <g id="PolyCollection_10">
    <defs>
     <path id="m0f48cd96da" d="M 48.540898 -107.181894 
L 48.540898 -100.031036 
L 86.626049 -146.362635 
L 124.7112 -131.539503 
L 162.796351 -128.187538 
L 162.796351 -141.595397 
L 162.796351 -141.595397 
L 124.7112 -144.649409 
L 86.626049 -159.174589 
L 48.540898 -107.181894 
z
" style="stroke: #34b6c6; stroke-opacity: 0.2"/>
    </defs>
    <g clip-path="url(#p39272b216e)">
     <use xlink:href="#m0f48cd96da" x="0" y="337.998125" style="fill: #34b6c6; fill-opacity: 0.2; stroke: #34b6c6; stroke-opacity: 0.2"/>
    </g>
   </g>
   <g id="PolyCollection_11">
    <defs>
     <path id="mb9a7b45814" d="M 48.540898 -54.965734 
L 48.540898 -46.921019 
L 86.626049 -85.505856 
L 124.7112 -91.837345 
L 162.796351 -94.816869 
L 162.796351 -106.437013 
L 162.796351 -106.437013 
L 124.7112 -103.159536 
L 86.626049 -96.232143 
L 48.540898 -54.965734 
z
" style="stroke: #9370db; stroke-opacity: 0.2"/>
    </defs>
    <g clip-path="url(#p39272b216e)">
     <use xlink:href="#mb9a7b45814" x="0" y="337.998125" style="fill: #9370db; fill-opacity: 0.2; stroke: #9370db; stroke-opacity: 0.2"/>
    </g>
   </g>
   <g id="PolyCollection_12">
    <defs>
     <path id="m417e68ad26" d="M 48.540898 -37.237566 
L 48.540898 -30.980566 
L 86.626049 -80.440665 
L 124.7112 -89.826166 
L 162.796351 -93.252619 
L 162.796351 -104.872763 
L 162.796351 -104.872763 
L 124.7112 -101.148357 
L 86.626049 -90.868999 
L 48.540898 -37.237566 
z
" style="stroke: #79ad41; stroke-opacity: 0.2"/>
    </defs>
    <g clip-path="url(#p39272b216e)">
     <use xlink:href="#m417e68ad26" x="0" y="337.998125" style="fill: #79ad41; fill-opacity: 0.2; stroke: #79ad41; stroke-opacity: 0.2"/>
    </g>
   </g>
   <g id="line2d_45">
    <path d="M 48.540898 234.39166 
L 86.626049 185.229513 
L 124.7112 199.903669 
L 162.796351 203.106657 
" clip-path="url(#p39272b216e)" style="fill: none; stroke: #34b6c6; stroke-width: 2; stroke-linecap: round"/>
   </g>
   <g id="line2d_46">
    <path d="M 48.540898 287.054748 
L 86.626049 247.129126 
L 124.7112 240.499685 
L 162.796351 237.371184 
" clip-path="url(#p39272b216e)" style="fill: none; stroke: #9370db; stroke-width: 2; stroke-linecap: round"/>
   </g>
   <g id="line2d_47">
    <path d="M 48.540898 303.889059 
L 86.626049 252.343293 
L 124.7112 242.510863 
L 162.796351 238.935434 
" clip-path="url(#p39272b216e)" style="fill: none; stroke: #79ad41; stroke-width: 2; stroke-linecap: round"/>
   </g>
   <g id="patch_18">
    <path d="M 42.828125 314.12 
L 42.828125 166.06 
" style="fill: none; stroke: #cccccc; stroke-width: 0.8; stroke-linejoin: miter; stroke-linecap: square"/>
   </g>
   <g id="patch_19">
    <path d="M 168.509123 314.12 
L 168.509123 166.06 
" style="fill: none; stroke: #cccccc; stroke-width: 0.8; stroke-linejoin: miter; stroke-linecap: square"/>
   </g>
   <g id="patch_20">
    <path d="M 42.828125 314.12 
L 168.509123 314.12 
" style="fill: none; stroke: #cccccc; stroke-width: 0.8; stroke-linejoin: miter; stroke-linecap: square"/>
   </g>
   <g id="patch_21">
    <path d="M 42.828125 166.06 
L 168.509123 166.06 
" style="fill: none; stroke: #cccccc; stroke-width: 0.8; stroke-linejoin: miter; stroke-linecap: square"/>
   </g>
  </g>
  <g id="axes_5">
   <g id="patch_22">
    <path d="M 180.924792 314.12 
L 306.60579 314.12 
L 306.60579 166.06 
L 180.924792 166.06 
z
" style="fill: #ffffff"/>
   </g>
   <g id="matplotlib.axis_9">
    <g id="xtick_17">
     <g id="line2d_48">
      <path d="M 186.637564 314.12 
L 186.637564 166.06 
" clip-path="url(#p20d5985eff)" style="fill: none; stroke: #cccccc; stroke-width: 0.8; stroke-linecap: round"/>
     </g>
     <g id="text_14">
      <!-- 1 -->
      <g style="fill: #696969" transform="translate(183.456314 328.718437) scale(0.1 -0.1)">
       <use xlink:href="#DejaVuSans-31"/>
      </g>
     </g>
    </g>
    <g id="xtick_18">
     <g id="line2d_49">
      <path d="M 224.722715 314.12 
L 224.722715 166.06 
" clip-path="url(#p20d5985eff)" style="fill: none; stroke: #cccccc; stroke-width: 0.8; stroke-linecap: round"/>
     </g>
     <g id="text_15">
      <!-- 4 -->
      <g style="fill: #696969" transform="translate(221.541465 328.718437) scale(0.1 -0.1)">
       <use xlink:href="#DejaVuSans-34"/>
      </g>
     </g>
    </g>
    <g id="xtick_19">
     <g id="line2d_50">
      <path d="M 262.807866 314.12 
L 262.807866 166.06 
" clip-path="url(#p20d5985eff)" style="fill: none; stroke: #cccccc; stroke-width: 0.8; stroke-linecap: round"/>
     </g>
     <g id="text_16">
      <!-- 7 -->
      <g style="fill: #696969" transform="translate(259.626616 328.718437) scale(0.1 -0.1)">
       <use xlink:href="#DejaVuSans-37"/>
      </g>
     </g>
    </g>
    <g id="xtick_20">
     <g id="line2d_51">
      <path d="M 300.893017 314.12 
L 300.893017 166.06 
" clip-path="url(#p20d5985eff)" style="fill: none; stroke: #cccccc; stroke-width: 0.8; stroke-linecap: round"/>
     </g>
     <g id="text_17">
      <!-- 10 -->
      <g style="fill: #696969" transform="translate(294.530517 328.718437) scale(0.1 -0.1)">
       <use xlink:href="#DejaVuSans-31"/>
       <use xlink:href="#DejaVuSans-30" x="63.623047"/>
      </g>
     </g>
    </g>
   </g>
   <g id="matplotlib.axis_10">
    <g id="ytick_20">
     <g id="line2d_52">
      <path d="M 180.924792 287.799629 
L 306.60579 287.799629 
" clip-path="url(#p20d5985eff)" style="fill: none; stroke: #cccccc; stroke-width: 0.8; stroke-linecap: round"/>
     </g>
    </g>
    <g id="ytick_21">
     <g id="line2d_53">
      <path d="M 180.924792 250.555578 
L 306.60579 250.555578 
" clip-path="url(#p20d5985eff)" style="fill: none; stroke: #cccccc; stroke-width: 0.8; stroke-linecap: round"/>
     </g>
    </g>
    <g id="ytick_22">
     <g id="line2d_54">
      <path d="M 180.924792 213.311527 
L 306.60579 213.311527 
" clip-path="url(#p20d5985eff)" style="fill: none; stroke: #cccccc; stroke-width: 0.8; stroke-linecap: round"/>
     </g>
    </g>
    <g id="ytick_23">
     <g id="line2d_55">
      <path d="M 180.924792 176.067476 
L 306.60579 176.067476 
" clip-path="url(#p20d5985eff)" style="fill: none; stroke: #cccccc; stroke-width: 0.8; stroke-linecap: round"/>
     </g>
    </g>
   </g>
   <g id="PolyCollection_13">
    <defs>
     <path id="m5271c6e1c7" d="M 186.637564 -94.518916 
L 186.637564 -88.261916 
L 224.722715 -150.906409 
L 262.807866 -133.923122 
L 300.893017 -132.880289 
L 300.893017 -146.288147 
L 300.893017 -146.288147 
L 262.807866 -147.033028 
L 224.722715 -165.208125 
L 186.637564 -94.518916 
z
" style="stroke: #34b6c6; stroke-opacity: 0.2"/>
    </defs>
    <g clip-path="url(#p20d5985eff)">
     <use xlink:href="#m5271c6e1c7" x="0" y="337.998125" style="fill: #34b6c6; fill-opacity: 0.2; stroke: #34b6c6; stroke-opacity: 0.2"/>
    </g>
   </g>
   <g id="PolyCollection_14">
    <defs>
     <path id="mf3219bb064" d="M 186.637564 -49.081174 
L 186.637564 -42.526221 
L 224.722715 -91.688368 
L 262.807866 -106.13906 
L 300.893017 -109.491025 
L 300.893017 -122.302978 
L 300.893017 -122.302978 
L 262.807866 -118.355109 
L 224.722715 -102.712608 
L 186.637564 -49.081174 
z
" style="stroke: #9370db; stroke-opacity: 0.2"/>
    </defs>
    <g clip-path="url(#p20d5985eff)">
     <use xlink:href="#mf3219bb064" x="0" y="337.998125" style="fill: #9370db; fill-opacity: 0.2; stroke: #9370db; stroke-opacity: 0.2"/>
    </g>
   </g>
   <g id="PolyCollection_15">
    <defs>
     <path id="mb756b4973b" d="M 186.637564 -35.673316 
L 186.637564 -30.608125 
L 224.722715 -87.889475 
L 262.807866 -105.841108 
L 300.893017 -108.224727 
L 300.893017 -120.738728 
L 300.893017 -120.738728 
L 262.807866 -117.759204 
L 224.722715 -98.31781 
L 186.637564 -35.673316 
z
" style="stroke: #79ad41; stroke-opacity: 0.2"/>
    </defs>
    <g clip-path="url(#p20d5985eff)">
     <use xlink:href="#mb756b4973b" x="0" y="337.998125" style="fill: #79ad41; fill-opacity: 0.2; stroke: #79ad41; stroke-opacity: 0.2"/>
    </g>
   </g>
   <g id="line2d_56">
    <path d="M 186.637564 246.607709 
L 224.722715 179.940858 
L 262.807866 197.52005 
L 300.893017 198.413907 
" clip-path="url(#p20d5985eff)" style="fill: none; stroke: #34b6c6; stroke-width: 2; stroke-linecap: round"/>
   </g>
   <g id="line2d_57">
    <path d="M 186.637564 292.194427 
L 224.722715 240.797637 
L 262.807866 225.75104 
L 300.893017 222.101123 
" clip-path="url(#p20d5985eff)" style="fill: none; stroke: #9370db; stroke-width: 2; stroke-linecap: round"/>
   </g>
   <g id="line2d_58">
    <path d="M 186.637564 304.857405 
L 224.722715 244.894483 
L 262.807866 226.197969 
L 300.893017 223.516397 
" clip-path="url(#p20d5985eff)" style="fill: none; stroke: #79ad41; stroke-width: 2; stroke-linecap: round"/>
   </g>
   <g id="patch_23">
    <path d="M 180.924792 314.12 
L 180.924792 166.06 
" style="fill: none; stroke: #cccccc; stroke-width: 0.8; stroke-linejoin: miter; stroke-linecap: square"/>
   </g>
   <g id="patch_24">
    <path d="M 306.60579 314.12 
L 306.60579 166.06 
" style="fill: none; stroke: #cccccc; stroke-width: 0.8; stroke-linejoin: miter; stroke-linecap: square"/>
   </g>
   <g id="patch_25">
    <path d="M 180.924792 314.12 
L 306.60579 314.12 
" style="fill: none; stroke: #cccccc; stroke-width: 0.8; stroke-linejoin: miter; stroke-linecap: square"/>
   </g>
   <g id="patch_26">
    <path d="M 180.924792 166.06 
L 306.60579 166.06 
" style="fill: none; stroke: #cccccc; stroke-width: 0.8; stroke-linejoin: miter; stroke-linecap: square"/>
   </g>
  </g>
  <g id="axes_6">
   <g id="patch_27">
    <path d="M 319.021458 314.12 
L 444.702457 314.12 
L 444.702457 166.06 
L 319.021458 166.06 
z
" style="fill: #ffffff"/>
   </g>
   <g id="matplotlib.axis_11">
    <g id="xtick_21">
     <g id="line2d_59">
      <path d="M 324.734231 314.12 
L 324.734231 166.06 
" clip-path="url(#p838ed81104)" style="fill: none; stroke: #cccccc; stroke-width: 0.8; stroke-linecap: round"/>
     </g>
     <g id="text_18">
      <!-- 1 -->
      <g style="fill: #696969" transform="translate(321.552981 328.718437) scale(0.1 -0.1)">
       <use xlink:href="#DejaVuSans-31"/>
      </g>
     </g>
    </g>
    <g id="xtick_22">
     <g id="line2d_60">
      <path d="M 362.819382 314.12 
L 362.819382 166.06 
" clip-path="url(#p838ed81104)" style="fill: none; stroke: #cccccc; stroke-width: 0.8; stroke-linecap: round"/>
     </g>
     <g id="text_19">
      <!-- 4 -->
      <g style="fill: #696969" transform="translate(359.638132 328.718437) scale(0.1 -0.1)">
       <use xlink:href="#DejaVuSans-34"/>
      </g>
     </g>
    </g>
    <g id="xtick_23">
     <g id="line2d_61">
      <path d="M 400.904533 314.12 
L 400.904533 166.06 
" clip-path="url(#p838ed81104)" style="fill: none; stroke: #cccccc; stroke-width: 0.8; stroke-linecap: round"/>
     </g>
     <g id="text_20">
      <!-- 7 -->
      <g style="fill: #696969" transform="translate(397.723283 328.718437) scale(0.1 -0.1)">
       <use xlink:href="#DejaVuSans-37"/>
      </g>
     </g>
    </g>
    <g id="xtick_24">
     <g id="line2d_62">
      <path d="M 438.989684 314.12 
L 438.989684 166.06 
" clip-path="url(#p838ed81104)" style="fill: none; stroke: #cccccc; stroke-width: 0.8; stroke-linecap: round"/>
     </g>
     <g id="text_21">
      <!-- 10 -->
      <g style="fill: #696969" transform="translate(432.627184 328.718437) scale(0.1 -0.1)">
       <use xlink:href="#DejaVuSans-31"/>
       <use xlink:href="#DejaVuSans-30" x="63.623047"/>
      </g>
     </g>
    </g>
   </g>
   <g id="matplotlib.axis_12">
    <g id="ytick_24">
     <g id="line2d_63">
      <path d="M 319.021458 287.799629 
L 444.702457 287.799629 
" clip-path="url(#p838ed81104)" style="fill: none; stroke: #cccccc; stroke-width: 0.8; stroke-linecap: round"/>
     </g>
    </g>
    <g id="ytick_25">
     <g id="line2d_64">
      <path d="M 319.021458 250.555578 
L 444.702457 250.555578 
" clip-path="url(#p838ed81104)" style="fill: none; stroke: #cccccc; stroke-width: 0.8; stroke-linecap: round"/>
     </g>
    </g>
    <g id="ytick_26">
     <g id="line2d_65">
      <path d="M 319.021458 213.311527 
L 444.702457 213.311527 
" clip-path="url(#p838ed81104)" style="fill: none; stroke: #cccccc; stroke-width: 0.8; stroke-linecap: round"/>
     </g>
    </g>
    <g id="ytick_27">
     <g id="line2d_66">
      <path d="M 319.021458 176.067476 
L 444.702457 176.067476 
" clip-path="url(#p838ed81104)" style="fill: none; stroke: #cccccc; stroke-width: 0.8; stroke-linecap: round"/>
     </g>
    </g>
   </g>
   <g id="PolyCollection_16">
    <defs>
     <path id="m210cbed68c" d="M 324.734231 -99.584107 
L 324.734231 -92.43325 
L 362.819382 -138.839337 
L 400.904533 -129.900765 
L 438.989684 -124.835574 
L 438.989684 -137.051623 
L 438.989684 -137.051623 
L 400.904533 -142.414766 
L 362.819382 -151.055386 
L 324.734231 -99.584107 
z
" style="stroke: #34b6c6; stroke-opacity: 0.2"/>
    </defs>
    <g clip-path="url(#p838ed81104)">
     <use xlink:href="#m210cbed68c" x="0" y="337.998125" style="fill: #34b6c6; fill-opacity: 0.2; stroke: #34b6c6; stroke-opacity: 0.2"/>
    </g>
   </g>
   <g id="PolyCollection_17">
    <defs>
     <path id="mad776aae05" d="M 324.734231 -50.868889 
L 324.734231 -44.611888 
L 362.819382 -87.144594 
L 400.904533 -94.295452 
L 438.989684 -97.945369 
L 438.989684 -108.373703 
L 438.989684 -108.373703 
L 400.904533 -104.723786 
L 362.819382 -96.679071 
L 324.734231 -50.868889 
z
" style="stroke: #9370db; stroke-opacity: 0.2"/>
    </defs>
    <g clip-path="url(#p838ed81104)">
     <use xlink:href="#mad776aae05" x="0" y="337.998125" style="fill: #9370db; fill-opacity: 0.2; stroke: #9370db; stroke-opacity: 0.2"/>
    </g>
   </g>
   <g id="PolyCollection_18">
    <defs>
     <path id="m763eca4a7e" d="M 324.734231 -41.855828 
L 324.734231 -36.194733 
L 362.819382 -84.686487 
L 400.904533 -101.520798 
L 438.989684 -97.49844 
L 438.989684 -107.926775 
L 438.989684 -107.926775 
L 400.904533 -112.247085 
L 362.819382 -93.923012 
L 324.734231 -41.855828 
z
" style="stroke: #79ad41; stroke-opacity: 0.2"/>
    </defs>
    <g clip-path="url(#p838ed81104)">
     <use xlink:href="#m763eca4a7e" x="0" y="337.998125" style="fill: #79ad41; fill-opacity: 0.2; stroke: #79ad41; stroke-opacity: 0.2"/>
    </g>
   </g>
   <g id="line2d_67">
    <path d="M 324.734231 241.989447 
L 362.819382 193.050764 
L 400.904533 201.84036 
L 438.989684 207.054527 
" clip-path="url(#p838ed81104)" style="fill: none; stroke: #34b6c6; stroke-width: 2; stroke-linecap: round"/>
   </g>
   <g id="line2d_68">
    <path d="M 324.734231 290.257737 
L 362.819382 246.086292 
L 400.904533 238.488506 
L 438.989684 234.838589 
" clip-path="url(#p838ed81104)" style="fill: none; stroke: #9370db; stroke-width: 2; stroke-linecap: round"/>
   </g>
   <g id="line2d_69">
    <path d="M 324.734231 298.972844 
L 362.819382 248.693376 
L 400.904533 231.114184 
L 438.989684 235.285517 
" clip-path="url(#p838ed81104)" style="fill: none; stroke: #79ad41; stroke-width: 2; stroke-linecap: round"/>
   </g>
   <g id="patch_28">
    <path d="M 319.021458 314.12 
L 319.021458 166.06 
" style="fill: none; stroke: #cccccc; stroke-width: 0.8; stroke-linejoin: miter; stroke-linecap: square"/>
   </g>
   <g id="patch_29">
    <path d="M 444.702457 314.12 
L 444.702457 166.06 
" style="fill: none; stroke: #cccccc; stroke-width: 0.8; stroke-linejoin: miter; stroke-linecap: square"/>
   </g>
   <g id="patch_30">
    <path d="M 319.021458 314.12 
L 444.702457 314.12 
" style="fill: none; stroke: #cccccc; stroke-width: 0.8; stroke-linejoin: miter; stroke-linecap: square"/>
   </g>
   <g id="patch_31">
    <path d="M 319.021458 166.06 
L 444.702457 166.06 
" style="fill: none; stroke: #cccccc; stroke-width: 0.8; stroke-linejoin: miter; stroke-linecap: square"/>
   </g>
  </g>
 </g>
 <defs>
  <clipPath id="pf81c5b1860">
   <rect x="42.828125" y="7.2" width="125.680998" height="148.06"/>
  </clipPath>
  <clipPath id="p9b586d131a">
   <rect x="180.924792" y="7.2" width="125.680998" height="148.06"/>
  </clipPath>
  <clipPath id="p2b1faabc1c">
   <rect x="319.021458" y="7.2" width="125.680998" height="148.06"/>
  </clipPath>
  <clipPath id="p39272b216e">
   <rect x="42.828125" y="166.06" width="125.680998" height="148.06"/>
  </clipPath>
  <clipPath id="p20d5985eff">
   <rect x="180.924792" y="166.06" width="125.680998" height="148.06"/>
  </clipPath>
  <clipPath id="p838ed81104">
   <rect x="319.021458" y="166.06" width="125.680998" height="148.06"/>
  </clipPath>
 </defs>
</svg>
