<?xml version="1.0" encoding="utf-8" standalone="no"?>
<!DOCTYPE svg PUBLIC "-//W3C//DTD SVG 1.1//EN"
  "http://www.w3.org/Graphics/SVG/1.1/DTD/svg11.dtd">
<svg xmlns:xlink="http://www.w3.org/1999/xlink" width="443.2625pt" height="325.85pt" viewBox="0 0 443.2625 325.85" xmlns="http://www.w3.org/2000/svg" version="1.1">
 <metadata>
  <rdf:RDF xmlns:dc="http://purl.org/dc/elements/1.1/" xmlns:cc="http://creativecommons.org/ns#" xmlns:rdf="http://www.w3.org/1999/02/22-rdf-syntax-ns#">
   <cc:Work>
    <dc:type rdf:resource="http://purl.org/dc/dcmitype/StillImage"/>
    <dc:date>2024-01-28T20:51:46.966559</dc:date>
    <dc:format>image/svg+xml</dc:format>
    <dc:creator>
     <cc:Agent>
      <dc:title>Matplotlib v3.7.2, https://matplotlib.org/</dc:title>
     </cc:Agent>
    </dc:creator>
   </cc:Work>
  </rdf:RDF>
 </metadata>
 <defs>
  <style type="text/css">*{stroke-linejoin: round; stroke-linecap: butt}</style>
 </defs>
 <g id="figure_1">
  <g id="patch_1">
   <path d="M 0 325.85 
L 443.2625 325.85 
L 443.2625 0 
L 0 0 
z
" style="fill: #ffffff"/>
  </g>
  <g id="axes_1">
   <g id="patch_2">
    <path d="M 53.0525 54.696 
L 436.0625 54.696 
L 436.0625 7.2 
L 53.0525 7.2 
z
" style="fill: #ffffff"/>
   </g>
   <g id="PolyCollection_1">
    <defs>
     <path id="m76bedb634f" d="M 70.462045 -273.312909 
L 70.462045 -294.291923 
L 77.425864 -293.65071 
L 84.389682 -292.977166 
L 91.3535 -292.278565 
L 98.317318 -291.56245 
L 105.281136 -290.836403 
L 112.244955 -290.107938 
L 119.208773 -289.38433 
L 126.172591 -288.67243 
L 133.136409 -287.978555 
L 140.100227 -287.308356 
L 147.064045 -286.666751 
L 154.027864 -286.057879 
L 160.991682 -285.485091 
L 167.9555 -284.950984 
L 174.919318 -284.457443 
L 181.883136 -284.005729 
L 188.846955 -283.59656 
L 195.810773 -283.230212 
L 202.774591 -282.906612 
L 209.738409 -282.625438 
L 216.702227 -282.386208 
L 223.666045 -282.188345 
L 230.629864 -282.031261 
L 237.593682 -281.914403 
L 244.5575 -281.837289 
L 251.521318 -281.79956 
L 258.485136 -281.800974 
L 265.448955 -281.841436 
L 272.412773 -281.920978 
L 279.376591 -282.039757 
L 286.340409 -282.198034 
L 293.304227 -282.396136 
L 300.268045 -282.634416 
L 307.231864 -282.913208 
L 314.195682 -283.232771 
L 321.1595 -283.593225 
L 328.123318 -283.994503 
L 335.087136 -284.436279 
L 342.050955 -284.917913 
L 349.014773 -285.438433 
L 355.978591 -285.996485 
L 362.942409 -286.590327 
L 369.906227 -287.217869 
L 376.870045 -287.876696 
L 383.833864 -288.564145 
L 390.797682 -289.277417 
L 397.7615 -290.013658 
L 404.725318 -290.770128 
L 411.689136 -291.544313 
L 418.652955 -292.33407 
L 418.652955 -273.312909 
L 418.652955 -273.312909 
L 411.689136 -273.312909 
L 404.725318 -273.312909 
L 397.7615 -273.312909 
L 390.797682 -273.312909 
L 383.833864 -273.312909 
L 376.870045 -273.312909 
L 369.906227 -273.312909 
L 362.942409 -273.312909 
L 355.978591 -273.312909 
L 349.014773 -273.312909 
L 342.050955 -273.312909 
L 335.087136 -273.312909 
L 328.123318 -273.312909 
L 321.1595 -273.312909 
L 314.195682 -273.312909 
L 307.231864 -273.312909 
L 300.268045 -273.312909 
L 293.304227 -273.312909 
L 286.340409 -273.312909 
L 279.376591 -273.312909 
L 272.412773 -273.312909 
L 265.448955 -273.312909 
L 258.485136 -273.312909 
L 251.521318 -273.312909 
L 244.5575 -273.312909 
L 237.593682 -273.312909 
L 230.629864 -273.312909 
L 223.666045 -273.312909 
L 216.702227 -273.312909 
L 209.738409 -273.312909 
L 202.774591 -273.312909 
L 195.810773 -273.312909 
L 188.846955 -273.312909 
L 181.883136 -273.312909 
L 174.919318 -273.312909 
L 167.9555 -273.312909 
L 160.991682 -273.312909 
L 154.027864 -273.312909 
L 147.064045 -273.312909 
L 140.100227 -273.312909 
L 133.136409 -273.312909 
L 126.172591 -273.312909 
L 119.208773 -273.312909 
L 112.244955 -273.312909 
L 105.281136 -273.312909 
L 98.317318 -273.312909 
L 91.3535 -273.312909 
L 84.389682 -273.312909 
L 77.425864 -273.312909 
L 70.462045 -273.312909 
z
" style="stroke: #dc143c; stroke-opacity: 0.2"/>
    </defs>
    <g clip-path="url(#p403a5def37)">
     <use xlink:href="#m76bedb634f" x="0" y="325.85" style="fill: #dc143c; fill-opacity: 0.2; stroke: #dc143c; stroke-opacity: 0.2"/>
    </g>
   </g>
   <g id="PolyCollection_2">
    <defs>
     <path id="m72fcf8deed" d="M 70.462045 -273.312909 
L 70.462045 -303.998728 
L 77.425864 -304.639941 
L 84.389682 -305.313485 
L 91.3535 -306.012085 
L 98.317318 -306.728201 
L 105.281136 -307.454247 
L 112.244955 -308.182712 
L 119.208773 -308.90632 
L 126.172591 -309.61822 
L 133.136409 -310.312096 
L 140.100227 -310.982295 
L 147.064045 -311.6239 
L 154.027864 -312.232771 
L 160.991682 -312.80556 
L 167.9555 -313.339666 
L 174.919318 -313.833207 
L 181.883136 -314.284922 
L 188.846955 -314.694091 
L 195.810773 -315.060439 
L 202.774591 -315.384039 
L 209.738409 -315.665213 
L 216.702227 -315.904443 
L 223.666045 -316.102306 
L 230.629864 -316.259389 
L 237.593682 -316.376247 
L 244.5575 -316.453361 
L 251.521318 -316.491091 
L 258.485136 -316.489677 
L 265.448955 -316.449214 
L 272.412773 -316.369673 
L 279.376591 -316.250893 
L 286.340409 -316.092616 
L 293.304227 -315.894515 
L 300.268045 -315.656234 
L 307.231864 -315.377443 
L 314.195682 -315.05788 
L 321.1595 -314.697426 
L 328.123318 -314.296147 
L 335.087136 -313.854372 
L 342.050955 -313.372737 
L 349.014773 -312.852217 
L 355.978591 -312.294165 
L 362.942409 -311.700323 
L 369.906227 -311.072782 
L 376.870045 -310.413954 
L 383.833864 -309.726505 
L 390.797682 -309.013233 
L 397.7615 -308.276993 
L 404.725318 -307.520522 
L 411.689136 -306.746337 
L 418.652955 -305.95658 
L 418.652955 -273.312909 
L 418.652955 -273.312909 
L 411.689136 -273.312909 
L 404.725318 -273.312909 
L 397.7615 -273.312909 
L 390.797682 -273.312909 
L 383.833864 -273.312909 
L 376.870045 -273.312909 
L 369.906227 -273.312909 
L 362.942409 -273.312909 
L 355.978591 -273.312909 
L 349.014773 -273.312909 
L 342.050955 -273.312909 
L 335.087136 -273.312909 
L 328.123318 -273.312909 
L 321.1595 -273.312909 
L 314.195682 -273.312909 
L 307.231864 -273.312909 
L 300.268045 -273.312909 
L 293.304227 -273.312909 
L 286.340409 -273.312909 
L 279.376591 -273.312909 
L 272.412773 -273.312909 
L 265.448955 -273.312909 
L 258.485136 -273.312909 
L 251.521318 -273.312909 
L 244.5575 -273.312909 
L 237.593682 -273.312909 
L 230.629864 -273.312909 
L 223.666045 -273.312909 
L 216.702227 -273.312909 
L 209.738409 -273.312909 
L 202.774591 -273.312909 
L 195.810773 -273.312909 
L 188.846955 -273.312909 
L 181.883136 -273.312909 
L 174.919318 -273.312909 
L 167.9555 -273.312909 
L 160.991682 -273.312909 
L 154.027864 -273.312909 
L 147.064045 -273.312909 
L 140.100227 -273.312909 
L 133.136409 -273.312909 
L 126.172591 -273.312909 
L 119.208773 -273.312909 
L 112.244955 -273.312909 
L 105.281136 -273.312909 
L 98.317318 -273.312909 
L 91.3535 -273.312909 
L 84.389682 -273.312909 
L 77.425864 -273.312909 
L 70.462045 -273.312909 
z
" style="stroke: #000080; stroke-opacity: 0.2"/>
    </defs>
    <g clip-path="url(#p403a5def37)">
     <use xlink:href="#m72fcf8deed" x="0" y="325.85" style="fill: #000080; fill-opacity: 0.2; stroke: #000080; stroke-opacity: 0.2"/>
    </g>
   </g>
   <g id="matplotlib.axis_1"/>
   <g id="matplotlib.axis_2"/>
   <g id="line2d_1">
    <path d="M 70.462045 31.558077 
L 77.425864 32.19929 
L 84.389682 32.872834 
L 91.3535 33.571435 
L 98.317318 34.28755 
L 105.281136 35.013597 
L 112.244955 35.742062 
L 119.208773 36.46567 
L 126.172591 37.17757 
L 133.136409 37.871445 
L 140.100227 38.541644 
L 147.064045 39.183249 
L 154.027864 39.792121 
L 160.991682 40.364909 
L 167.9555 40.899016 
L 174.919318 41.392557 
L 181.883136 41.844271 
L 188.846955 42.25344 
L 195.810773 42.619788 
L 202.774591 42.943388 
L 209.738409 43.224562 
L 216.702227 43.463792 
L 223.666045 43.661655 
L 230.629864 43.818739 
L 237.593682 43.935597 
L 244.5575 44.012711 
L 251.521318 44.05044 
L 258.485136 44.049026 
L 265.448955 44.008564 
L 272.412773 43.929022 
L 279.376591 43.810243 
L 286.340409 43.651966 
L 293.304227 43.453864 
L 300.268045 43.215584 
L 307.231864 42.936792 
L 314.195682 42.617229 
L 321.1595 42.256775 
L 328.123318 41.855497 
L 335.087136 41.413721 
L 342.050955 40.932087 
L 349.014773 40.411567 
L 355.978591 39.853515 
L 362.942409 39.259673 
L 369.906227 38.632131 
L 376.870045 37.973304 
L 383.833864 37.285855 
L 390.797682 36.572583 
L 397.7615 35.836342 
L 404.725318 35.079872 
L 411.689136 34.305687 
L 418.652955 33.51593 
" clip-path="url(#p403a5def37)" style="fill: none; stroke: #dc143c; stroke-width: 1.5; stroke-linecap: square"/>
   </g>
   <g id="line2d_2">
    <path d="M 70.462045 21.851272 
L 77.425864 21.210059 
L 84.389682 20.536515 
L 91.3535 19.837915 
L 98.317318 19.121799 
L 105.281136 18.395753 
L 112.244955 17.667288 
L 119.208773 16.94368 
L 126.172591 16.23178 
L 133.136409 15.537904 
L 140.100227 14.867705 
L 147.064045 14.2261 
L 154.027864 13.617229 
L 160.991682 13.04444 
L 167.9555 12.510334 
L 174.919318 12.016793 
L 181.883136 11.565078 
L 188.846955 11.155909 
L 195.810773 10.789561 
L 202.774591 10.465961 
L 209.738409 10.184787 
L 216.702227 9.945557 
L 223.666045 9.747694 
L 230.629864 9.590611 
L 237.593682 9.473753 
L 244.5575 9.396639 
L 251.521318 9.358909 
L 258.485136 9.360323 
L 265.448955 9.400786 
L 272.412773 9.480327 
L 279.376591 9.599107 
L 286.340409 9.757384 
L 293.304227 9.955485 
L 300.268045 10.193766 
L 307.231864 10.472557 
L 314.195682 10.79212 
L 321.1595 11.152574 
L 328.123318 11.553853 
L 335.087136 11.995628 
L 342.050955 12.477263 
L 349.014773 12.997783 
L 355.978591 13.555835 
L 362.942409 14.149677 
L 369.906227 14.777218 
L 376.870045 15.436046 
L 383.833864 16.123495 
L 390.797682 16.836767 
L 397.7615 17.573007 
L 404.725318 18.329478 
L 411.689136 19.103663 
L 418.652955 19.89342 
" clip-path="url(#p403a5def37)" style="fill: none; stroke: #000080; stroke-width: 1.5; stroke-linecap: square"/>
   </g>
  </g>
  <g id="axes_2">
   <g id="patch_3">
    <path d="M 53.0525 165.688 
L 436.0625 165.688 
L 436.0625 70.696 
L 53.0525 70.696 
z
" style="fill: #ffffff"/>
   </g>
   <g id="PathCollection_1">
    <defs>
     <path id="mcc166e34d3" d="M 0 0.866025 
C 0.229673 0.866025 0.449969 0.774776 0.612372 0.612372 
C 0.774776 0.449969 0.866025 0.229673 0.866025 0 
C 0.866025 -0.229673 0.774776 -0.449969 0.612372 -0.612372 
C 0.449969 -0.774776 0.229673 -0.866025 0 -0.866025 
C -0.229673 -0.866025 -0.449969 -0.774776 -0.612372 -0.612372 
C -0.774776 -0.449969 -0.866025 -0.229673 -0.866025 0 
C -0.866025 0.229673 -0.774776 0.449969 -0.612372 0.612372 
C -0.449969 0.774776 -0.229673 0.866025 0 0.866025 
z
" style="stroke: #daa520"/>
    </defs>
    <g clip-path="url(#pa1f8242212)">
     <use xlink:href="#mcc166e34d3" x="366.965891" y="100.414123" style="fill: #daa520; stroke: #daa520"/>
     <use xlink:href="#mcc166e34d3" x="187.781916" y="155.863667" style="fill: #daa520; stroke: #daa520"/>
     <use xlink:href="#mcc166e34d3" x="119.193412" y="145.857109" style="fill: #daa520; stroke: #daa520"/>
     <use xlink:href="#mcc166e34d3" x="268.265504" y="146.944572" style="fill: #daa520; stroke: #daa520"/>
     <use xlink:href="#mcc166e34d3" x="89.027722" y="126.675157" style="fill: #daa520; stroke: #daa520"/>
     <use xlink:href="#mcc166e34d3" x="186.057204" y="127.512974" style="fill: #daa520; stroke: #daa520"/>
     <use xlink:href="#mcc166e34d3" x="333.31464" y="135.29911" style="fill: #daa520; stroke: #daa520"/>
     <use xlink:href="#mcc166e34d3" x="303.739735" y="88.625856" style="fill: #daa520; stroke: #daa520"/>
     <use xlink:href="#mcc166e34d3" x="254.498492" y="152.572843" style="fill: #daa520; stroke: #daa520"/>
     <use xlink:href="#mcc166e34d3" x="139.981405" y="121.583903" style="fill: #daa520; stroke: #daa520"/>
     <use xlink:href="#mcc166e34d3" x="164.970931" y="141.950696" style="fill: #daa520; stroke: #daa520"/>
     <use xlink:href="#mcc166e34d3" x="388.750217" y="129.929865" style="fill: #daa520; stroke: #daa520"/>
     <use xlink:href="#mcc166e34d3" x="100.727594" y="129.780605" style="fill: #daa520; stroke: #daa520"/>
     <use xlink:href="#mcc166e34d3" x="130.683849" y="133.179158" style="fill: #daa520; stroke: #daa520"/>
     <use xlink:href="#mcc166e34d3" x="173.433296" y="115.250467" style="fill: #daa520; stroke: #daa520"/>
     <use xlink:href="#mcc166e34d3" x="99.827441" y="138.891613" style="fill: #daa520; stroke: #daa520"/>
     <use xlink:href="#mcc166e34d3" x="194.433081" y="158.135476" style="fill: #daa520; stroke: #daa520"/>
     <use xlink:href="#mcc166e34d3" x="117.933866" y="134.658971" style="fill: #daa520; stroke: #daa520"/>
     <use xlink:href="#mcc166e34d3" x="137.363334" y="120.546923" style="fill: #daa520; stroke: #daa520"/>
     <use xlink:href="#mcc166e34d3" x="209.704858" y="88.418271" style="fill: #daa520; stroke: #daa520"/>
     <use xlink:href="#mcc166e34d3" x="252.725305" y="108.778515" style="fill: #daa520; stroke: #daa520"/>
     <use xlink:href="#mcc166e34d3" x="320.24267" y="114.407942" style="fill: #daa520; stroke: #daa520"/>
     <use xlink:href="#mcc166e34d3" x="161.200358" y="117.766646" style="fill: #daa520; stroke: #daa520"/>
     <use xlink:href="#mcc166e34d3" x="186.339769" y="158.406028" style="fill: #daa520; stroke: #daa520"/>
     <use xlink:href="#mcc166e34d3" x="392.680223" y="107.801065" style="fill: #daa520; stroke: #daa520"/>
     <use xlink:href="#mcc166e34d3" x="152.825865" y="126.023042" style="fill: #daa520; stroke: #daa520"/>
     <use xlink:href="#mcc166e34d3" x="107.212909" y="122.286233" style="fill: #daa520; stroke: #daa520"/>
     <use xlink:href="#mcc166e34d3" x="376.829179" y="122.64117" style="fill: #daa520; stroke: #daa520"/>
     <use xlink:href="#mcc166e34d3" x="317.459353" y="130.663278" style="fill: #daa520; stroke: #daa520"/>
     <use xlink:href="#mcc166e34d3" x="284.447844" y="86.837543" style="fill: #daa520; stroke: #daa520"/>
     <use xlink:href="#mcc166e34d3" x="94.88971" y="141.466393" style="fill: #daa520; stroke: #daa520"/>
     <use xlink:href="#mcc166e34d3" x="385.204023" y="125.399879" style="fill: #daa520; stroke: #daa520"/>
     <use xlink:href="#mcc166e34d3" x="244.762717" y="76.527961" style="fill: #daa520; stroke: #daa520"/>
     <use xlink:href="#mcc166e34d3" x="145.285498" y="145.003315" style="fill: #daa520; stroke: #daa520"/>
     <use xlink:href="#mcc166e34d3" x="113.126691" y="144.688707" style="fill: #daa520; stroke: #daa520"/>
     <use xlink:href="#mcc166e34d3" x="154.952121" y="104.17678" style="fill: #daa520; stroke: #daa520"/>
     <use xlink:href="#mcc166e34d3" x="156.995223" y="149.122933" style="fill: #daa520; stroke: #daa520"/>
     <use xlink:href="#mcc166e34d3" x="152.022074" y="107.137652" style="fill: #daa520; stroke: #daa520"/>
     <use xlink:href="#mcc166e34d3" x="233.633097" y="99.74897" style="fill: #daa520; stroke: #daa520"/>
     <use xlink:href="#mcc166e34d3" x="278.537946" y="75.013818" style="fill: #daa520; stroke: #daa520"/>
     <use xlink:href="#mcc166e34d3" x="146.201559" y="157.782021" style="fill: #daa520; stroke: #daa520"/>
     <use xlink:href="#mcc166e34d3" x="131.771083" y="119.75167" style="fill: #daa520; stroke: #daa520"/>
     <use xlink:href="#mcc166e34d3" x="133.90123" y="121.870108" style="fill: #daa520; stroke: #daa520"/>
     <use xlink:href="#mcc166e34d3" x="383.721862" y="124.75215" style="fill: #daa520; stroke: #daa520"/>
     <use xlink:href="#mcc166e34d3" x="326.719277" y="135.955426" style="fill: #daa520; stroke: #daa520"/>
     <use xlink:href="#mcc166e34d3" x="281.38475" y="82.612651" style="fill: #daa520; stroke: #daa520"/>
     <use xlink:href="#mcc166e34d3" x="292.318203" y="94.969914" style="fill: #daa520; stroke: #daa520"/>
     <use xlink:href="#mcc166e34d3" x="400.032717" y="121.358781" style="fill: #daa520; stroke: #daa520"/>
     <use xlink:href="#mcc166e34d3" x="384.5472" y="129.092867" style="fill: #daa520; stroke: #daa520"/>
     <use xlink:href="#mcc166e34d3" x="105.121464" y="134.045579" style="fill: #daa520; stroke: #daa520"/>
     <use xlink:href="#mcc166e34d3" x="188.149507" y="95.838735" style="fill: #daa520; stroke: #daa520"/>
     <use xlink:href="#mcc166e34d3" x="263.697028" y="76.458291" style="fill: #daa520; stroke: #daa520"/>
     <use xlink:href="#mcc166e34d3" x="72.216447" y="92.387091" style="fill: #daa520; stroke: #daa520"/>
     <use xlink:href="#mcc166e34d3" x="362.075406" y="120.920093" style="fill: #daa520; stroke: #daa520"/>
     <use xlink:href="#mcc166e34d3" x="123.771732" y="119.011242" style="fill: #daa520; stroke: #daa520"/>
     <use xlink:href="#mcc166e34d3" x="83.211367" y="90.751301" style="fill: #daa520; stroke: #daa520"/>
     <use xlink:href="#mcc166e34d3" x="238.417269" y="81.604103" style="fill: #daa520; stroke: #daa520"/>
     <use xlink:href="#mcc166e34d3" x="361.301778" y="128.747433" style="fill: #daa520; stroke: #daa520"/>
     <use xlink:href="#mcc166e34d3" x="408.106628" y="115.133543" style="fill: #daa520; stroke: #daa520"/>
     <use xlink:href="#mcc166e34d3" x="138.11811" y="157.623291" style="fill: #daa520; stroke: #daa520"/>
     <use xlink:href="#mcc166e34d3" x="277.917633" y="148.949744" style="fill: #daa520; stroke: #daa520"/>
     <use xlink:href="#mcc166e34d3" x="106.435803" y="145.545976" style="fill: #daa520; stroke: #daa520"/>
     <use xlink:href="#mcc166e34d3" x="92.044744" y="148.63196" style="fill: #daa520; stroke: #daa520"/>
     <use xlink:href="#mcc166e34d3" x="377.371964" y="87.269828" style="fill: #daa520; stroke: #daa520"/>
     <use xlink:href="#mcc166e34d3" x="386.588571" y="129.398451" style="fill: #daa520; stroke: #daa520"/>
     <use xlink:href="#mcc166e34d3" x="80.492479" y="132.489141" style="fill: #daa520; stroke: #daa520"/>
     <use xlink:href="#mcc166e34d3" x="125.529851" y="136.317794" style="fill: #daa520; stroke: #daa520"/>
     <use xlink:href="#mcc166e34d3" x="418.420354" y="119.04199" style="fill: #daa520; stroke: #daa520"/>
     <use xlink:href="#mcc166e34d3" x="343.762251" y="101.763347" style="fill: #daa520; stroke: #daa520"/>
     <use xlink:href="#mcc166e34d3" x="141.609394" y="107.798517" style="fill: #daa520; stroke: #daa520"/>
     <use xlink:href="#mcc166e34d3" x="107.649305" y="127.939488" style="fill: #daa520; stroke: #daa520"/>
     <use xlink:href="#mcc166e34d3" x="241.882203" y="90.436777" style="fill: #daa520; stroke: #daa520"/>
     <use xlink:href="#mcc166e34d3" x="262.216216" y="86.858921" style="fill: #daa520; stroke: #daa520"/>
     <use xlink:href="#mcc166e34d3" x="405.205515" y="82.819379" style="fill: #daa520; stroke: #daa520"/>
     <use xlink:href="#mcc166e34d3" x="372.357227" y="131.187007" style="fill: #daa520; stroke: #daa520"/>
     <use xlink:href="#mcc166e34d3" x="378.810132" y="110.975767" style="fill: #daa520; stroke: #daa520"/>
     <use xlink:href="#mcc166e34d3" x="132.430089" y="110.871381" style="fill: #daa520; stroke: #daa520"/>
     <use xlink:href="#mcc166e34d3" x="95.765639" y="151.254882" style="fill: #daa520; stroke: #daa520"/>
     <use xlink:href="#mcc166e34d3" x="166.431826" y="157.823887" style="fill: #daa520; stroke: #daa520"/>
     <use xlink:href="#mcc166e34d3" x="75.373586" y="146.995471" style="fill: #daa520; stroke: #daa520"/>
     <use xlink:href="#mcc166e34d3" x="366.401137" y="114.47091" style="fill: #daa520; stroke: #daa520"/>
     <use xlink:href="#mcc166e34d3" x="379.216369" y="114.748092" style="fill: #daa520; stroke: #daa520"/>
     <use xlink:href="#mcc166e34d3" x="377.394674" y="119.927714" style="fill: #daa520; stroke: #daa520"/>
     <use xlink:href="#mcc166e34d3" x="106.227704" y="113.300148" style="fill: #daa520; stroke: #daa520"/>
     <use xlink:href="#mcc166e34d3" x="298.918259" y="79.492749" style="fill: #daa520; stroke: #daa520"/>
     <use xlink:href="#mcc166e34d3" x="387.461557" y="106.773229" style="fill: #daa520; stroke: #daa520"/>
     <use xlink:href="#mcc166e34d3" x="366.665981" y="107.853791" style="fill: #daa520; stroke: #daa520"/>
     <use xlink:href="#mcc166e34d3" x="207.831771" y="161.370182" style="fill: #daa520; stroke: #daa520"/>
     <use xlink:href="#mcc166e34d3" x="347.07525" y="133.330191" style="fill: #daa520; stroke: #daa520"/>
     <use xlink:href="#mcc166e34d3" x="242.715336" y="77.138708" style="fill: #daa520; stroke: #daa520"/>
     <use xlink:href="#mcc166e34d3" x="354.197345" y="132.610637" style="fill: #daa520; stroke: #daa520"/>
     <use xlink:href="#mcc166e34d3" x="393.268978" y="108.630345" style="fill: #daa520; stroke: #daa520"/>
     <use xlink:href="#mcc166e34d3" x="245.040463" y="117.027734" style="fill: #daa520; stroke: #daa520"/>
     <use xlink:href="#mcc166e34d3" x="101.693155" y="140.779034" style="fill: #daa520; stroke: #daa520"/>
     <use xlink:href="#mcc166e34d3" x="129.533499" y="135.613423" style="fill: #daa520; stroke: #daa520"/>
    </g>
   </g>
   <g id="matplotlib.axis_3"/>
   <g id="matplotlib.axis_4">
    <g id="ytick_1">
     <g id="line2d_3">
      <defs>
       <path id="mbbb2c98777" d="M 0 0 
L -3.5 0 
" style="stroke: #696969; stroke-width: 0.8"/>
      </defs>
      <g>
       <use xlink:href="#mbbb2c98777" x="53.0525" y="150.969404" style="fill: #696969; stroke: #696969; stroke-width: 0.8"/>
      </g>
     </g>
     <g id="text_1">
      <!-- −2.5 -->
      <g style="fill: #696969" transform="translate(7.2 157.048154) scale(0.16 -0.16)">
       <defs>
        <path id="DejaVuSans-2212" d="M 678 2272 
L 4684 2272 
L 4684 1741 
L 678 1741 
L 678 2272 
z
" transform="scale(0.015625)"/>
        <path id="DejaVuSans-32" d="M 1228 531 
L 3431 531 
L 3431 0 
L 469 0 
L 469 531 
Q 828 903 1448 1529 
Q 2069 2156 2228 2338 
Q 2531 2678 2651 2914 
Q 2772 3150 2772 3378 
Q 2772 3750 2511 3984 
Q 2250 4219 1831 4219 
Q 1534 4219 1204 4116 
Q 875 4013 500 3803 
L 500 4441 
Q 881 4594 1212 4672 
Q 1544 4750 1819 4750 
Q 2544 4750 2975 4387 
Q 3406 4025 3406 3419 
Q 3406 3131 3298 2873 
Q 3191 2616 2906 2266 
Q 2828 2175 2409 1742 
Q 1991 1309 1228 531 
z
" transform="scale(0.015625)"/>
        <path id="DejaVuSans-2e" d="M 684 794 
L 1344 794 
L 1344 0 
L 684 0 
L 684 794 
z
" transform="scale(0.015625)"/>
        <path id="DejaVuSans-35" d="M 691 4666 
L 3169 4666 
L 3169 4134 
L 1269 4134 
L 1269 2991 
Q 1406 3038 1543 3061 
Q 1681 3084 1819 3084 
Q 2600 3084 3056 2656 
Q 3513 2228 3513 1497 
Q 3513 744 3044 326 
Q 2575 -91 1722 -91 
Q 1428 -91 1123 -41 
Q 819 9 494 109 
L 494 744 
Q 775 591 1075 516 
Q 1375 441 1709 441 
Q 2250 441 2565 725 
Q 2881 1009 2881 1497 
Q 2881 1984 2565 2268 
Q 2250 2553 1709 2553 
Q 1456 2553 1204 2497 
Q 953 2441 691 2322 
L 691 4666 
z
" transform="scale(0.015625)"/>
       </defs>
       <use xlink:href="#DejaVuSans-2212"/>
       <use xlink:href="#DejaVuSans-32" x="83.789062"/>
       <use xlink:href="#DejaVuSans-2e" x="147.412109"/>
       <use xlink:href="#DejaVuSans-35" x="179.199219"/>
      </g>
     </g>
    </g>
    <g id="ytick_2">
     <g id="line2d_4">
      <g>
       <use xlink:href="#mbbb2c98777" x="53.0525" y="122.775249" style="fill: #696969; stroke: #696969; stroke-width: 0.8"/>
      </g>
     </g>
     <g id="text_2">
      <!-- 0.0 -->
      <g style="fill: #696969" transform="translate(20.6075 128.853999) scale(0.16 -0.16)">
       <defs>
        <path id="DejaVuSans-30" d="M 2034 4250 
Q 1547 4250 1301 3770 
Q 1056 3291 1056 2328 
Q 1056 1369 1301 889 
Q 1547 409 2034 409 
Q 2525 409 2770 889 
Q 3016 1369 3016 2328 
Q 3016 3291 2770 3770 
Q 2525 4250 2034 4250 
z
M 2034 4750 
Q 2819 4750 3233 4129 
Q 3647 3509 3647 2328 
Q 3647 1150 3233 529 
Q 2819 -91 2034 -91 
Q 1250 -91 836 529 
Q 422 1150 422 2328 
Q 422 3509 836 4129 
Q 1250 4750 2034 4750 
z
" transform="scale(0.015625)"/>
       </defs>
       <use xlink:href="#DejaVuSans-30"/>
       <use xlink:href="#DejaVuSans-2e" x="63.623047"/>
       <use xlink:href="#DejaVuSans-30" x="95.410156"/>
      </g>
     </g>
    </g>
    <g id="ytick_3">
     <g id="line2d_5">
      <g>
       <use xlink:href="#mbbb2c98777" x="53.0525" y="94.581094" style="fill: #696969; stroke: #696969; stroke-width: 0.8"/>
      </g>
     </g>
     <g id="text_3">
      <!-- 2.5 -->
      <g style="fill: #696969" transform="translate(20.6075 100.659844) scale(0.16 -0.16)">
       <use xlink:href="#DejaVuSans-32"/>
       <use xlink:href="#DejaVuSans-2e" x="63.623047"/>
       <use xlink:href="#DejaVuSans-35" x="95.410156"/>
      </g>
     </g>
    </g>
   </g>
   <g id="line2d_6">
    <path d="M 70.462045 133.087853 
L 77.425864 133.582113 
L 84.389682 133.975045 
L 91.3535 134.253262 
L 98.317318 134.408607 
L 105.281136 134.437662 
L 112.244955 134.340873 
L 119.208773 134.121406 
L 126.172591 133.784006 
L 133.136409 133.333913 
L 140.100227 132.776087 
L 147.064045 132.114792 
L 154.027864 131.353577 
L 160.991682 130.495651 
L 167.9555 129.54458 
L 174.919318 128.50513 
L 181.883136 127.384191 
L 188.846955 126.191519 
L 195.810773 124.940281 
L 202.774591 123.647176 
L 209.738409 122.332177 
L 216.702227 121.017841 
L 223.666045 119.728299 
L 230.629864 118.487964 
L 237.593682 117.320187 
L 244.5575 116.245924 
L 251.521318 115.282627 
L 258.485136 114.443401 
L 265.448955 113.736607 
L 272.412773 113.16579 
L 279.376591 112.730032 
L 286.340409 112.424559 
L 293.304227 112.241572 
L 300.268045 112.171091 
L 307.231864 112.201766 
L 314.195682 112.321517 
L 321.1595 112.517923 
L 328.123318 112.778348 
L 335.087136 113.08986 
L 342.050955 113.438919 
L 349.014773 113.811045 
L 355.978591 114.190485 
L 362.942409 114.560021 
L 369.906227 114.901061 
L 376.870045 115.19401 
L 383.833864 115.418978 
L 390.797682 115.556797 
L 397.7615 115.59022 
L 404.725318 115.505268 
L 411.689136 115.292463 
L 418.652955 114.947869 
" clip-path="url(#pa1f8242212)" style="fill: none; stroke: #000000; stroke-width: 2; stroke-linecap: square"/>
   </g>
   <g id="line2d_7">
    <path d="M 70.462045 128.92851 
L 77.425864 129.959913 
L 84.389682 130.6928 
L 91.3535 131.153277 
L 98.317318 131.366545 
L 105.281136 131.356896 
L 112.244955 131.147718 
L 119.208773 130.761492 
L 126.172591 130.219793 
L 133.136409 129.543289 
L 140.100227 128.751741 
L 147.064045 127.864006 
L 154.027864 126.898031 
L 160.991682 125.87086 
L 167.9555 124.798628 
L 174.919318 123.696567 
L 181.883136 122.578998 
L 188.846955 121.459341 
L 195.810773 120.350104 
L 202.774591 119.262893 
L 209.738409 118.208405 
L 216.702227 117.196433 
L 223.666045 116.235861 
L 230.629864 115.334668 
L 237.593682 114.499926 
L 244.5575 113.737803 
L 251.521318 113.053557 
L 258.485136 112.451542 
L 265.448955 111.935204 
L 272.412773 111.507085 
L 279.376591 111.168819 
L 286.340409 110.921133 
L 293.304227 110.763848 
L 300.268045 110.695881 
L 307.231864 110.715239 
L 314.195682 110.819025 
L 321.1595 111.003435 
L 328.123318 111.263758 
L 335.087136 111.594377 
L 342.050955 111.98877 
L 349.014773 112.439507 
L 355.978591 112.938251 
L 362.942409 113.47576 
L 369.906227 114.041887 
L 376.870045 114.625574 
L 383.833864 115.214862 
L 390.797682 115.796881 
L 397.7615 116.357859 
L 404.725318 116.883114 
L 411.689136 117.357059 
L 418.652955 117.763201 
" clip-path="url(#pa1f8242212)" style="fill: none; stroke-dasharray: 7.4,3.2; stroke-dashoffset: 0; stroke: #34b6c6; stroke-width: 2"/>
   </g>
   <g id="line2d_8">
    <path d="M 70.462045 123.705974 
L 77.425864 125.741484 
L 84.389682 127.508516 
L 91.3535 129.017851 
L 98.317318 130.278254 
L 105.281136 131.296401 
L 112.244955 132.076852 
L 119.208773 132.622086 
L 126.172591 132.932634 
L 133.136409 133.007347 
L 140.100227 132.843824 
L 147.064045 132.439055 
L 154.027864 131.790305 
L 160.991682 130.896247 
L 167.9555 129.758352 
L 174.919318 128.382483 
L 181.883136 126.780599 
L 188.846955 124.97244 
L 195.810773 122.986997 
L 202.774591 120.86352 
L 209.738409 118.65177 
L 216.702227 116.411172 
L 223.666045 114.208551 
L 230.629864 112.114318 
L 237.593682 110.197323 
L 244.5575 108.51905 
L 251.521318 107.128233 
L 258.485136 106.056986 
L 265.448955 105.319201 
L 272.412773 104.911287 
L 279.376591 104.814773 
L 286.340409 104.999952 
L 293.304227 105.429739 
L 300.268045 106.063163 
L 307.231864 106.858172 
L 314.195682 107.773667 
L 321.1595 108.770833 
L 328.123318 109.813873 
L 335.087136 110.870305 
L 342.050955 111.910934 
L 349.014773 112.909602 
L 355.978591 113.842811 
L 362.942409 114.689287 
L 369.906227 115.429517 
L 376.870045 116.045312 
L 383.833864 116.519408 
L 390.797682 116.835111 
L 397.7615 116.975998 
L 404.725318 116.925671 
L 411.689136 116.667546 
L 418.652955 116.184695 
" clip-path="url(#pa1f8242212)" style="fill: none; stroke-dasharray: 7.4,3.2; stroke-dashoffset: 0; stroke: #9370db; stroke-width: 2"/>
   </g>
   <g id="line2d_9">
    <path d="M 70.462045 134.984434 
L 77.425864 134.910929 
L 84.389682 134.81377 
L 91.3535 134.688558 
L 98.317318 134.530256 
L 105.281136 134.333145 
L 112.244955 134.090811 
L 119.208773 133.796163 
L 126.172591 133.441506 
L 133.136409 133.018676 
L 140.100227 132.519269 
L 147.064045 131.934974 
L 154.027864 131.258036 
L 160.991682 130.481852 
L 167.9555 129.601697 
L 174.919318 128.615558 
L 181.883136 127.525025 
L 188.846955 126.336178 
L 195.810773 125.060349 
L 202.774591 123.714657 
L 209.738409 122.322135 
L 216.702227 120.91129 
L 223.666045 119.514913 
L 230.629864 118.16809 
L 237.593682 116.9055 
L 244.5575 115.758378 
L 251.521318 114.751699 
L 258.485136 113.902153 
L 265.448955 113.217298 
L 272.412773 112.695956 
L 279.376591 112.329574 
L 286.340409 112.104126 
L 293.304227 112.00214 
L 300.268045 112.00452 
L 307.231864 112.092021 
L 314.195682 112.246306 
L 321.1595 112.450648 
L 328.123318 112.690316 
L 335.087136 112.952723 
L 342.050955 113.22742 
L 349.014773 113.505959 
L 355.978591 113.781697 
L 362.942409 114.049569 
L 369.906227 114.305847 
L 376.870045 114.547908 
L 383.833864 114.774024 
L 390.797682 114.983182 
L 397.7615 115.174923 
L 404.725318 115.349213 
L 411.689136 115.506335 
L 418.652955 115.646806 
" clip-path="url(#pa1f8242212)" style="fill: none; stroke-dasharray: 12.8,3.2,2,3.2; stroke-dashoffset: 0; stroke: #ff0000; stroke-width: 2"/>
   </g>
   <g id="patch_4">
    <path d="M 53.0525 165.688 
L 53.0525 70.696 
" style="fill: none; stroke: #000000; stroke-width: 0.8; stroke-linejoin: miter; stroke-linecap: square"/>
   </g>
   <g id="patch_5">
    <path d="M 436.0625 165.688 
L 436.0625 70.696 
" style="fill: none; stroke: #000000; stroke-width: 0.8; stroke-linejoin: miter; stroke-linecap: square"/>
   </g>
   <g id="patch_6">
    <path d="M 53.0525 165.688 
L 436.0625 165.688 
" style="fill: none; stroke: #000000; stroke-width: 0.8; stroke-linejoin: miter; stroke-linecap: square"/>
   </g>
   <g id="patch_7">
    <path d="M 53.0525 70.696 
L 436.0625 70.696 
" style="fill: none; stroke: #000000; stroke-width: 0.8; stroke-linejoin: miter; stroke-linecap: square"/>
   </g>
  </g>
  <g id="axes_3">
   <g id="patch_8">
    <path d="M 53.0525 276.68 
L 436.0625 276.68 
L 436.0625 181.688 
L 53.0525 181.688 
z
" style="fill: #ffffff"/>
   </g>
   <g id="PathCollection_2">
    <g clip-path="url(#p62af247ed1)">
     <use xlink:href="#mcc166e34d3" x="366.965891" y="240.744093" style="fill: #daa520; stroke: #daa520"/>
     <use xlink:href="#mcc166e34d3" x="187.781916" y="195.736809" style="fill: #daa520; stroke: #daa520"/>
     <use xlink:href="#mcc166e34d3" x="119.193412" y="213.770542" style="fill: #daa520; stroke: #daa520"/>
     <use xlink:href="#mcc166e34d3" x="268.265504" y="190.91743" style="fill: #daa520; stroke: #daa520"/>
     <use xlink:href="#mcc166e34d3" x="89.027722" y="234.767637" style="fill: #daa520; stroke: #daa520"/>
     <use xlink:href="#mcc166e34d3" x="186.057204" y="225.637804" style="fill: #daa520; stroke: #daa520"/>
     <use xlink:href="#mcc166e34d3" x="333.31464" y="202.964062" style="fill: #daa520; stroke: #daa520"/>
     <use xlink:href="#mcc166e34d3" x="303.739735" y="250.79206" style="fill: #daa520; stroke: #daa520"/>
     <use xlink:href="#mcc166e34d3" x="254.498492" y="186.485322" style="fill: #daa520; stroke: #daa520"/>
     <use xlink:href="#mcc166e34d3" x="139.981405" y="237.779553" style="fill: #daa520; stroke: #daa520"/>
     <use xlink:href="#mcc166e34d3" x="164.970931" y="213.876353" style="fill: #daa520; stroke: #daa520"/>
     <use xlink:href="#mcc166e34d3" x="388.750217" y="210.695788" style="fill: #daa520; stroke: #daa520"/>
     <use xlink:href="#mcc166e34d3" x="100.727594" y="231.247915" style="fill: #daa520; stroke: #daa520"/>
     <use xlink:href="#mcc166e34d3" x="130.683849" y="226.353818" style="fill: #daa520; stroke: #daa520"/>
     <use xlink:href="#mcc166e34d3" x="173.433296" y="240.534612" style="fill: #daa520; stroke: #daa520"/>
     <use xlink:href="#mcc166e34d3" x="99.827441" y="221.764537" style="fill: #daa520; stroke: #daa520"/>
     <use xlink:href="#mcc166e34d3" x="194.433081" y="192.108173" style="fill: #daa520; stroke: #daa520"/>
     <use xlink:href="#mcc166e34d3" x="117.933866" y="225.517491" style="fill: #daa520; stroke: #daa520"/>
     <use xlink:href="#mcc166e34d3" x="137.363334" y="239.067124" style="fill: #daa520; stroke: #daa520"/>
     <use xlink:href="#mcc166e34d3" x="209.704858" y="261.748129" style="fill: #daa520; stroke: #daa520"/>
     <use xlink:href="#mcc166e34d3" x="252.725305" y="232.425791" style="fill: #daa520; stroke: #daa520"/>
     <use xlink:href="#mcc166e34d3" x="320.24267" y="224.283999" style="fill: #daa520; stroke: #daa520"/>
     <use xlink:href="#mcc166e34d3" x="161.200358" y="239.601543" style="fill: #daa520; stroke: #daa520"/>
     <use xlink:href="#mcc166e34d3" x="186.339769" y="193.345376" style="fill: #daa520; stroke: #daa520"/>
     <use xlink:href="#mcc166e34d3" x="392.680223" y="233.908753" style="fill: #daa520; stroke: #daa520"/>
     <use xlink:href="#mcc166e34d3" x="152.825865" y="231.949905" style="fill: #daa520; stroke: #daa520"/>
     <use xlink:href="#mcc166e34d3" x="107.212909" y="238.864883" style="fill: #daa520; stroke: #daa520"/>
     <use xlink:href="#mcc166e34d3" x="376.829179" y="217.909243" style="fill: #daa520; stroke: #daa520"/>
     <use xlink:href="#mcc166e34d3" x="317.459353" y="207.230752" style="fill: #daa520; stroke: #daa520"/>
     <use xlink:href="#mcc166e34d3" x="284.447844" y="252.777125" style="fill: #daa520; stroke: #daa520"/>
     <use xlink:href="#mcc166e34d3" x="94.88971" y="219.204306" style="fill: #daa520; stroke: #daa520"/>
     <use xlink:href="#mcc166e34d3" x="385.204023" y="215.311904" style="fill: #daa520; stroke: #daa520"/>
     <use xlink:href="#mcc166e34d3" x="244.762717" y="267.266956" style="fill: #daa520; stroke: #daa520"/>
     <use xlink:href="#mcc166e34d3" x="145.285498" y="212.883057" style="fill: #daa520; stroke: #daa520"/>
     <use xlink:href="#mcc166e34d3" x="113.126691" y="215.260956" style="fill: #daa520; stroke: #daa520"/>
     <use xlink:href="#mcc166e34d3" x="154.952121" y="254.519205" style="fill: #daa520; stroke: #daa520"/>
     <use xlink:href="#mcc166e34d3" x="156.995223" y="207.380321" style="fill: #daa520; stroke: #daa520"/>
     <use xlink:href="#mcc166e34d3" x="152.022074" y="251.744344" style="fill: #daa520; stroke: #daa520"/>
     <use xlink:href="#mcc166e34d3" x="233.633097" y="244.999291" style="fill: #daa520; stroke: #daa520"/>
     <use xlink:href="#mcc166e34d3" x="278.537946" y="265.339809" style="fill: #daa520; stroke: #daa520"/>
     <use xlink:href="#mcc166e34d3" x="146.201559" y="199.462524" style="fill: #daa520; stroke: #daa520"/>
     <use xlink:href="#mcc166e34d3" x="131.771083" y="240.295902" style="fill: #daa520; stroke: #daa520"/>
     <use xlink:href="#mcc166e34d3" x="133.90123" y="237.939273" style="fill: #daa520; stroke: #daa520"/>
     <use xlink:href="#mcc166e34d3" x="383.721862" y="215.939879" style="fill: #daa520; stroke: #daa520"/>
     <use xlink:href="#mcc166e34d3" x="326.719277" y="202.02382" style="fill: #daa520; stroke: #daa520"/>
     <use xlink:href="#mcc166e34d3" x="281.38475" y="257.289157" style="fill: #daa520; stroke: #daa520"/>
     <use xlink:href="#mcc166e34d3" x="292.318203" y="244.140921" style="fill: #daa520; stroke: #daa520"/>
     <use xlink:href="#mcc166e34d3" x="400.032717" y="219.96475" style="fill: #daa520; stroke: #daa520"/>
     <use xlink:href="#mcc166e34d3" x="384.5472" y="211.436526" style="fill: #daa520; stroke: #daa520"/>
     <use xlink:href="#mcc166e34d3" x="105.121464" y="226.662564" style="fill: #daa520; stroke: #daa520"/>
     <use xlink:href="#mcc166e34d3" x="188.149507" y="258.314533" style="fill: #daa520; stroke: #daa520"/>
     <use xlink:href="#mcc166e34d3" x="263.697028" y="264.884383" style="fill: #daa520; stroke: #daa520"/>
     <use xlink:href="#mcc166e34d3" x="72.216447" y="270.796791" style="fill: #daa520; stroke: #daa520"/>
     <use xlink:href="#mcc166e34d3" x="362.075406" y="219.152578" style="fill: #daa520; stroke: #daa520"/>
     <use xlink:href="#mcc166e34d3" x="123.771732" y="241.552603" style="fill: #daa520; stroke: #daa520"/>
     <use xlink:href="#mcc166e34d3" x="83.211367" y="272.362182" style="fill: #daa520; stroke: #daa520"/>
     <use xlink:href="#mcc166e34d3" x="238.417269" y="263.051144" style="fill: #daa520; stroke: #daa520"/>
     <use xlink:href="#mcc166e34d3" x="361.301778" y="210.952876" style="fill: #daa520; stroke: #daa520"/>
     <use xlink:href="#mcc166e34d3" x="408.106628" y="226.664141" style="fill: #daa520; stroke: #daa520"/>
     <use xlink:href="#mcc166e34d3" x="138.11811" y="200.314368" style="fill: #daa520; stroke: #daa520"/>
     <use xlink:href="#mcc166e34d3" x="277.917633" y="188.205894" style="fill: #daa520; stroke: #daa520"/>
     <use xlink:href="#mcc166e34d3" x="106.435803" y="214.616454" style="fill: #daa520; stroke: #daa520"/>
     <use xlink:href="#mcc166e34d3" x="92.044744" y="211.790407" style="fill: #daa520; stroke: #daa520"/>
     <use xlink:href="#mcc166e34d3" x="377.371964" y="254.843625" style="fill: #daa520; stroke: #daa520"/>
     <use xlink:href="#mcc166e34d3" x="386.588571" y="211.182919" style="fill: #daa520; stroke: #daa520"/>
     <use xlink:href="#mcc166e34d3" x="80.492479" y="228.843376" style="fill: #daa520; stroke: #daa520"/>
     <use xlink:href="#mcc166e34d3" x="125.529851" y="223.392393" style="fill: #daa520; stroke: #daa520"/>
     <use xlink:href="#mcc166e34d3" x="418.420354" y="222.809212" style="fill: #daa520; stroke: #daa520"/>
     <use xlink:href="#mcc166e34d3" x="343.762251" y="238.393088" style="fill: #daa520; stroke: #daa520"/>
     <use xlink:href="#mcc166e34d3" x="141.609394" y="252.032741" style="fill: #daa520; stroke: #daa520"/>
     <use xlink:href="#mcc166e34d3" x="107.649305" y="232.949623" style="fill: #daa520; stroke: #daa520"/>
     <use xlink:href="#mcc166e34d3" x="241.882203" y="253.227998" style="fill: #daa520; stroke: #daa520"/>
     <use xlink:href="#mcc166e34d3" x="262.216216" y="254.176497" style="fill: #daa520; stroke: #daa520"/>
     <use xlink:href="#mcc166e34d3" x="405.205515" y="260.318923" style="fill: #daa520; stroke: #daa520"/>
     <use xlink:href="#mcc166e34d3" x="372.357227" y="208.829892" style="fill: #daa520; stroke: #daa520"/>
     <use xlink:href="#mcc166e34d3" x="378.810132" y="230.152772" style="fill: #daa520; stroke: #daa520"/>
     <use xlink:href="#mcc166e34d3" x="132.430089" y="249.519544" style="fill: #daa520; stroke: #daa520"/>
     <use xlink:href="#mcc166e34d3" x="95.765639" y="208.967448" style="fill: #daa520; stroke: #daa520"/>
     <use xlink:href="#mcc166e34d3" x="166.431826" y="197.113502" style="fill: #daa520; stroke: #daa520"/>
     <use xlink:href="#mcc166e34d3" x="75.373586" y="213.770157" style="fill: #daa520; stroke: #daa520"/>
     <use xlink:href="#mcc166e34d3" x="366.401137" y="226.052043" style="fill: #daa520; stroke: #daa520"/>
     <use xlink:href="#mcc166e34d3" x="379.216369" y="226.22974" style="fill: #daa520; stroke: #daa520"/>
     <use xlink:href="#mcc166e34d3" x="377.394674" y="220.760957" style="fill: #daa520; stroke: #daa520"/>
     <use xlink:href="#mcc166e34d3" x="106.227704" y="248.276903" style="fill: #daa520; stroke: #daa520"/>
     <use xlink:href="#mcc166e34d3" x="298.918259" y="260.280155" style="fill: #daa520; stroke: #daa520"/>
     <use xlink:href="#mcc166e34d3" x="387.461557" y="234.823234" style="fill: #daa520; stroke: #daa520"/>
     <use xlink:href="#mcc166e34d3" x="366.665981" y="232.968179" style="fill: #daa520; stroke: #daa520"/>
     <use xlink:href="#mcc166e34d3" x="207.831771" y="186.005818" style="fill: #daa520; stroke: #daa520"/>
     <use xlink:href="#mcc166e34d3" x="347.07525" y="205.586696" style="fill: #daa520; stroke: #daa520"/>
     <use xlink:href="#mcc166e34d3" x="242.715336" y="266.966082" style="fill: #daa520; stroke: #daa520"/>
     <use xlink:href="#mcc166e34d3" x="354.197345" y="206.633357" style="fill: #daa520; stroke: #daa520"/>
     <use xlink:href="#mcc166e34d3" x="393.268978" y="233.060481" style="fill: #daa520; stroke: #daa520"/>
     <use xlink:href="#mcc166e34d3" x="245.040463" y="224.954614" style="fill: #daa520; stroke: #daa520"/>
     <use xlink:href="#mcc166e34d3" x="101.693155" y="219.741409" style="fill: #daa520; stroke: #daa520"/>
     <use xlink:href="#mcc166e34d3" x="129.533499" y="223.886947" style="fill: #daa520; stroke: #daa520"/>
    </g>
   </g>
   <g id="matplotlib.axis_5">
    <g id="xtick_1">
     <g id="line2d_10">
      <defs>
       <path id="m3c95a7ccf6" d="M 0 0 
L 0 3.5 
" style="stroke: #696969; stroke-width: 0.8"/>
      </defs>
      <g>
       <use xlink:href="#m3c95a7ccf6" x="70.462045" y="276.68" style="fill: #696969; stroke: #696969; stroke-width: 0.8"/>
      </g>
     </g>
     <g id="text_4">
      <!-- −1.0 -->
      <g style="fill: #696969" transform="translate(51.035795 295.8375) scale(0.16 -0.16)">
       <defs>
        <path id="DejaVuSans-31" d="M 794 531 
L 1825 531 
L 1825 4091 
L 703 3866 
L 703 4441 
L 1819 4666 
L 2450 4666 
L 2450 531 
L 3481 531 
L 3481 0 
L 794 0 
L 794 531 
z
" transform="scale(0.015625)"/>
       </defs>
       <use xlink:href="#DejaVuSans-2212"/>
       <use xlink:href="#DejaVuSans-31" x="83.789062"/>
       <use xlink:href="#DejaVuSans-2e" x="147.412109"/>
       <use xlink:href="#DejaVuSans-30" x="179.199219"/>
      </g>
     </g>
    </g>
    <g id="xtick_2">
     <g id="line2d_11">
      <g>
       <use xlink:href="#m3c95a7ccf6" x="157.509773" y="276.68" style="fill: #696969; stroke: #696969; stroke-width: 0.8"/>
      </g>
     </g>
     <g id="text_5">
      <!-- −0.5 -->
      <g style="fill: #696969" transform="translate(138.083523 295.8375) scale(0.16 -0.16)">
       <use xlink:href="#DejaVuSans-2212"/>
       <use xlink:href="#DejaVuSans-30" x="83.789062"/>
       <use xlink:href="#DejaVuSans-2e" x="147.412109"/>
       <use xlink:href="#DejaVuSans-35" x="179.199219"/>
      </g>
     </g>
    </g>
    <g id="xtick_3">
     <g id="line2d_12">
      <g>
       <use xlink:href="#m3c95a7ccf6" x="244.5575" y="276.68" style="fill: #696969; stroke: #696969; stroke-width: 0.8"/>
      </g>
     </g>
     <g id="text_6">
      <!-- 0.0 -->
      <g style="fill: #696969" transform="translate(231.835 295.8375) scale(0.16 -0.16)">
       <use xlink:href="#DejaVuSans-30"/>
       <use xlink:href="#DejaVuSans-2e" x="63.623047"/>
       <use xlink:href="#DejaVuSans-30" x="95.410156"/>
      </g>
     </g>
    </g>
    <g id="xtick_4">
     <g id="line2d_13">
      <g>
       <use xlink:href="#m3c95a7ccf6" x="331.605227" y="276.68" style="fill: #696969; stroke: #696969; stroke-width: 0.8"/>
      </g>
     </g>
     <g id="text_7">
      <!-- 0.5 -->
      <g style="fill: #696969" transform="translate(318.882727 295.8375) scale(0.16 -0.16)">
       <use xlink:href="#DejaVuSans-30"/>
       <use xlink:href="#DejaVuSans-2e" x="63.623047"/>
       <use xlink:href="#DejaVuSans-35" x="95.410156"/>
      </g>
     </g>
    </g>
    <g id="xtick_5">
     <g id="line2d_14">
      <g>
       <use xlink:href="#m3c95a7ccf6" x="418.652955" y="276.68" style="fill: #696969; stroke: #696969; stroke-width: 0.8"/>
      </g>
     </g>
     <g id="text_8">
      <!-- 1.0 -->
      <g style="fill: #696969" transform="translate(405.930455 295.8375) scale(0.16 -0.16)">
       <use xlink:href="#DejaVuSans-31"/>
       <use xlink:href="#DejaVuSans-2e" x="63.623047"/>
       <use xlink:href="#DejaVuSans-30" x="95.410156"/>
      </g>
     </g>
    </g>
    <g id="text_9">
     <!-- $X$ -->
     <g transform="translate(239.0375 315.3225) scale(0.16 -0.16)">
      <defs>
       <path id="DejaVuSans-Oblique-58" d="M 878 4666 
L 1516 4666 
L 2316 2981 
L 3763 4666 
L 4500 4666 
L 2578 2438 
L 3738 0 
L 3103 0 
L 2163 1966 
L 459 0 
L -275 0 
L 1906 2509 
L 878 4666 
z
" transform="scale(0.015625)"/>
      </defs>
      <use xlink:href="#DejaVuSans-Oblique-58" transform="translate(0 0.09375)"/>
     </g>
    </g>
   </g>
   <g id="matplotlib.axis_6">
    <g id="ytick_4">
     <g id="line2d_15">
      <g>
       <use xlink:href="#mbbb2c98777" x="53.0525" y="255.782107" style="fill: #696969; stroke: #696969; stroke-width: 0.8"/>
      </g>
     </g>
     <g id="text_10">
      <!-- −2.5 -->
      <g style="fill: #696969" transform="translate(7.2 261.860857) scale(0.16 -0.16)">
       <use xlink:href="#DejaVuSans-2212"/>
       <use xlink:href="#DejaVuSans-32" x="83.789062"/>
       <use xlink:href="#DejaVuSans-2e" x="147.412109"/>
       <use xlink:href="#DejaVuSans-35" x="179.199219"/>
      </g>
     </g>
    </g>
    <g id="ytick_5">
     <g id="line2d_16">
      <g>
       <use xlink:href="#mbbb2c98777" x="53.0525" y="226.357226" style="fill: #696969; stroke: #696969; stroke-width: 0.8"/>
      </g>
     </g>
     <g id="text_11">
      <!-- 0.0 -->
      <g style="fill: #696969" transform="translate(20.6075 232.435976) scale(0.16 -0.16)">
       <use xlink:href="#DejaVuSans-30"/>
       <use xlink:href="#DejaVuSans-2e" x="63.623047"/>
       <use xlink:href="#DejaVuSans-30" x="95.410156"/>
      </g>
     </g>
    </g>
    <g id="ytick_6">
     <g id="line2d_17">
      <g>
       <use xlink:href="#mbbb2c98777" x="53.0525" y="196.932346" style="fill: #696969; stroke: #696969; stroke-width: 0.8"/>
      </g>
     </g>
     <g id="text_12">
      <!-- 2.5 -->
      <g style="fill: #696969" transform="translate(20.6075 203.011096) scale(0.16 -0.16)">
       <use xlink:href="#DejaVuSans-32"/>
       <use xlink:href="#DejaVuSans-2e" x="63.623047"/>
       <use xlink:href="#DejaVuSans-35" x="95.410156"/>
      </g>
     </g>
    </g>
   </g>
   <g id="line2d_18">
    <path d="M 70.462045 228.336596 
L 77.425864 227.744048 
L 84.389682 227.232563 
L 91.3535 226.811524 
L 98.317318 226.484186 
L 105.281136 226.248147 
L 112.244955 226.096249 
L 119.208773 226.017785 
L 126.172591 225.999775 
L 133.136409 226.028228 
L 140.100227 226.089198 
L 147.064045 226.169558 
L 154.027864 226.257514 
L 160.991682 226.342824 
L 167.9555 226.416837 
L 174.919318 226.472475 
L 181.883136 226.504209 
L 188.846955 226.5082 
L 195.810773 226.482535 
L 202.774591 226.427652 
L 209.738409 226.346746 
L 216.702227 226.246024 
L 223.666045 226.134526 
L 230.629864 226.023389 
L 237.593682 225.924437 
L 244.5575 225.848398 
L 251.521318 225.803122 
L 258.485136 225.792352 
L 265.448955 225.815248 
L 272.412773 225.866883 
L 279.376591 225.939288 
L 286.340409 226.022806 
L 293.304227 226.107343 
L 300.268045 226.183384 
L 307.231864 226.24269 
L 314.195682 226.278731 
L 321.1595 226.287014 
L 328.123318 226.26535 
L 335.087136 226.214104 
L 342.050955 226.136495 
L 349.014773 226.038822 
L 355.978591 225.930593 
L 362.942409 225.824492 
L 369.906227 225.73603 
L 376.870045 225.68292 
L 383.833864 225.684118 
L 390.797682 225.758572 
L 397.7615 225.9238 
L 404.725318 226.194359 
L 411.689136 226.580435 
L 418.652955 227.086672 
" clip-path="url(#p62af247ed1)" style="fill: none; stroke: #696969; stroke-width: 2; stroke-linecap: square"/>
   </g>
   <g id="line2d_19">
    <path d="M 70.462045 235.530896 
L 77.425864 233.829152 
L 84.389682 232.397855 
L 91.3535 231.213544 
L 98.317318 230.25364 
L 105.281136 229.496446 
L 112.244955 228.921147 
L 119.208773 228.507808 
L 126.172591 228.23738 
L 133.136409 228.091691 
L 140.100227 228.053455 
L 147.064045 228.106267 
L 154.027864 228.234601 
L 160.991682 228.423817 
L 167.9555 228.660154 
L 174.919318 228.930734 
L 181.883136 229.223562 
L 188.846955 229.527523 
L 195.810773 229.832384 
L 202.774591 230.128796 
L 209.738409 230.40829 
L 216.702227 230.66328 
L 223.666045 230.88706 
L 230.629864 231.073809 
L 237.593682 231.218585 
L 244.5575 231.31733 
L 251.521318 231.366866 
L 258.485136 231.3649 
L 265.448955 231.310016 
L 272.412773 231.201686 
L 279.376591 231.040258 
L 286.340409 230.826966 
L 293.304227 230.563925 
L 300.268045 230.25413 
L 307.231864 229.901461 
L 314.195682 229.510677 
L 321.1595 229.087421 
L 328.123318 228.638218 
L 335.087136 228.170472 
L 342.050955 227.692472 
L 349.014773 227.213388 
L 355.978591 226.743273 
L 362.942409 226.293058 
L 369.906227 225.874561 
L 376.870045 225.500479 
L 383.833864 225.184391 
L 390.797682 224.940758 
L 397.7615 224.784925 
L 404.725318 224.733116 
L 411.689136 224.802438 
L 418.652955 225.010881 
" clip-path="url(#p62af247ed1)" style="fill: none; stroke-dasharray: 7.4,3.2; stroke-dashoffset: 0; stroke: #79ad41; stroke-width: 2"/>
   </g>
   <g id="patch_9">
    <path d="M 53.0525 276.68 
L 53.0525 181.688 
" style="fill: none; stroke: #000000; stroke-width: 0.8; stroke-linejoin: miter; stroke-linecap: square"/>
   </g>
   <g id="patch_10">
    <path d="M 436.0625 276.68 
L 436.0625 181.688 
" style="fill: none; stroke: #000000; stroke-width: 0.8; stroke-linejoin: miter; stroke-linecap: square"/>
   </g>
   <g id="patch_11">
    <path d="M 53.0525 276.68 
L 436.0625 276.68 
" style="fill: none; stroke: #000000; stroke-width: 0.8; stroke-linejoin: miter; stroke-linecap: square"/>
   </g>
   <g id="patch_12">
    <path d="M 53.0525 181.688 
L 436.0625 181.688 
" style="fill: none; stroke: #000000; stroke-width: 0.8; stroke-linejoin: miter; stroke-linecap: square"/>
   </g>
  </g>
 </g>
 <defs>
  <clipPath id="p403a5def37">
   <rect x="53.0525" y="7.2" width="383.01" height="47.496"/>
  </clipPath>
  <clipPath id="pa1f8242212">
   <rect x="53.0525" y="70.696" width="383.01" height="94.992"/>
  </clipPath>
  <clipPath id="p62af247ed1">
   <rect x="53.0525" y="181.688" width="383.01" height="94.992"/>
  </clipPath>
 </defs>
</svg>
