<?xml version="1.0" encoding="utf-8" standalone="no"?>
<!DOCTYPE svg PUBLIC "-//W3C//DTD SVG 1.1//EN"
  "http://www.w3.org/Graphics/SVG/1.1/DTD/svg11.dtd">
<svg xmlns:xlink="http://www.w3.org/1999/xlink" width="443.265pt" height="325.85pt" viewBox="0 0 443.265 325.85" xmlns="http://www.w3.org/2000/svg" version="1.1">
 <metadata>
  <rdf:RDF xmlns:dc="http://purl.org/dc/elements/1.1/" xmlns:cc="http://creativecommons.org/ns#" xmlns:rdf="http://www.w3.org/1999/02/22-rdf-syntax-ns#">
   <cc:Work>
    <dc:type rdf:resource="http://purl.org/dc/dcmitype/StillImage"/>
    <dc:date>2024-01-28T20:53:16.997857</dc:date>
    <dc:format>image/svg+xml</dc:format>
    <dc:creator>
     <cc:Agent>
      <dc:title>Matplotlib v3.7.2, https://matplotlib.org/</dc:title>
     </cc:Agent>
    </dc:creator>
   </cc:Work>
  </rdf:RDF>
 </metadata>
 <defs>
  <style type="text/css">*{stroke-linejoin: round; stroke-linecap: butt}</style>
 </defs>
 <g id="figure_1">
  <g id="patch_1">
   <path d="M 0 325.85 
L 443.265 325.85 
L 443.265 0 
L 0 0 
z
" style="fill: #ffffff"/>
  </g>
  <g id="axes_1">
   <g id="patch_2">
    <path d="M 39.645 54.696 
L 436.065 54.696 
L 436.065 7.2 
L 39.645 7.2 
z
" style="fill: #ffffff"/>
   </g>
   <g id="PolyCollection_1">
    <defs>
     <path id="m2d89583307" d="M 57.664091 -273.312909 
L 57.664091 -279.321387 
L 64.871727 -279.987835 
L 72.079364 -280.718416 
L 79.287 -281.513341 
L 86.494636 -282.370975 
L 93.702273 -283.287535 
L 100.909909 -284.256907 
L 108.117545 -285.270594 
L 115.325182 -286.317843 
L 122.532818 -287.385951 
L 129.740455 -288.460731 
L 136.948091 -289.527092 
L 144.155727 -290.569734 
L 151.363364 -291.573763 
L 158.571 -292.525321 
L 165.778636 -293.412056 
L 172.986273 -294.223417 
L 180.193909 -294.950893 
L 187.401545 -295.587993 
L 194.609182 -296.130213 
L 201.816818 -296.574886 
L 209.024455 -296.920988 
L 216.232091 -297.168954 
L 223.439727 -297.320511 
L 230.647364 -297.378495 
L 237.855 -297.34675 
L 245.062636 -297.230036 
L 252.270273 -297.033936 
L 259.477909 -296.764821 
L 266.685545 -296.429765 
L 273.893182 -296.036508 
L 281.100818 -295.593323 
L 288.308455 -295.108946 
L 295.516091 -294.592388 
L 302.723727 -294.05283 
L 309.931364 -293.499395 
L 317.139 -292.941009 
L 324.346636 -292.386199 
L 331.554273 -291.842984 
L 338.761909 -291.318723 
L 345.969545 -290.820035 
L 353.177182 -290.352789 
L 360.384818 -289.922072 
L 367.592455 -289.532235 
L 374.800091 -289.186935 
L 382.007727 -288.889256 
L 389.215364 -288.641777 
L 396.423 -288.446675 
L 403.630636 -288.305856 
L 410.838273 -288.221014 
L 418.045909 -288.193749 
L 418.045909 -273.312909 
L 418.045909 -273.312909 
L 410.838273 -273.312909 
L 403.630636 -273.312909 
L 396.423 -273.312909 
L 389.215364 -273.312909 
L 382.007727 -273.312909 
L 374.800091 -273.312909 
L 367.592455 -273.312909 
L 360.384818 -273.312909 
L 353.177182 -273.312909 
L 345.969545 -273.312909 
L 338.761909 -273.312909 
L 331.554273 -273.312909 
L 324.346636 -273.312909 
L 317.139 -273.312909 
L 309.931364 -273.312909 
L 302.723727 -273.312909 
L 295.516091 -273.312909 
L 288.308455 -273.312909 
L 281.100818 -273.312909 
L 273.893182 -273.312909 
L 266.685545 -273.312909 
L 259.477909 -273.312909 
L 252.270273 -273.312909 
L 245.062636 -273.312909 
L 237.855 -273.312909 
L 230.647364 -273.312909 
L 223.439727 -273.312909 
L 216.232091 -273.312909 
L 209.024455 -273.312909 
L 201.816818 -273.312909 
L 194.609182 -273.312909 
L 187.401545 -273.312909 
L 180.193909 -273.312909 
L 172.986273 -273.312909 
L 165.778636 -273.312909 
L 158.571 -273.312909 
L 151.363364 -273.312909 
L 144.155727 -273.312909 
L 136.948091 -273.312909 
L 129.740455 -273.312909 
L 122.532818 -273.312909 
L 115.325182 -273.312909 
L 108.117545 -273.312909 
L 100.909909 -273.312909 
L 93.702273 -273.312909 
L 86.494636 -273.312909 
L 79.287 -273.312909 
L 72.079364 -273.312909 
L 64.871727 -273.312909 
L 57.664091 -273.312909 
z
" style="stroke: #dc143c; stroke-opacity: 0.2"/>
    </defs>
    <g clip-path="url(#p3b3ff6449f)">
     <use xlink:href="#m2d89583307" x="0" y="325.85" style="fill: #dc143c; fill-opacity: 0.2; stroke: #dc143c; stroke-opacity: 0.2"/>
    </g>
   </g>
   <g id="PolyCollection_2">
    <defs>
     <path id="m86c5dab3a7" d="M 57.664091 -273.312909 
L 57.664091 -316.491091 
L 64.871727 -315.824643 
L 72.079364 -315.094062 
L 79.287 -314.299137 
L 86.494636 -313.441503 
L 93.702273 -312.524943 
L 100.909909 -311.555571 
L 108.117545 -310.541884 
L 115.325182 -309.494634 
L 122.532818 -308.426527 
L 129.740455 -307.351747 
L 136.948091 -306.285386 
L 144.155727 -305.242744 
L 151.363364 -304.238715 
L 158.571 -303.287156 
L 165.778636 -302.400422 
L 172.986273 -301.589061 
L 180.193909 -300.861585 
L 187.401545 -300.224485 
L 194.609182 -299.682265 
L 201.816818 -299.237592 
L 209.024455 -298.89149 
L 216.232091 -298.643524 
L 223.439727 -298.491967 
L 230.647364 -298.433983 
L 237.855 -298.465728 
L 245.062636 -298.582442 
L 252.270273 -298.778542 
L 259.477909 -299.047657 
L 266.685545 -299.382713 
L 273.893182 -299.77597 
L 281.100818 -300.219155 
L 288.308455 -300.703531 
L 295.516091 -301.220089 
L 302.723727 -301.759648 
L 309.931364 -302.313083 
L 317.139 -302.871469 
L 324.346636 -303.426279 
L 331.554273 -303.969494 
L 338.761909 -304.493754 
L 345.969545 -304.992443 
L 353.177182 -305.459689 
L 360.384818 -305.890406 
L 367.592455 -306.280243 
L 374.800091 -306.625543 
L 382.007727 -306.923222 
L 389.215364 -307.170701 
L 396.423 -307.365803 
L 403.630636 -307.506622 
L 410.838273 -307.591464 
L 418.045909 -307.618729 
L 418.045909 -273.312909 
L 418.045909 -273.312909 
L 410.838273 -273.312909 
L 403.630636 -273.312909 
L 396.423 -273.312909 
L 389.215364 -273.312909 
L 382.007727 -273.312909 
L 374.800091 -273.312909 
L 367.592455 -273.312909 
L 360.384818 -273.312909 
L 353.177182 -273.312909 
L 345.969545 -273.312909 
L 338.761909 -273.312909 
L 331.554273 -273.312909 
L 324.346636 -273.312909 
L 317.139 -273.312909 
L 309.931364 -273.312909 
L 302.723727 -273.312909 
L 295.516091 -273.312909 
L 288.308455 -273.312909 
L 281.100818 -273.312909 
L 273.893182 -273.312909 
L 266.685545 -273.312909 
L 259.477909 -273.312909 
L 252.270273 -273.312909 
L 245.062636 -273.312909 
L 237.855 -273.312909 
L 230.647364 -273.312909 
L 223.439727 -273.312909 
L 216.232091 -273.312909 
L 209.024455 -273.312909 
L 201.816818 -273.312909 
L 194.609182 -273.312909 
L 187.401545 -273.312909 
L 180.193909 -273.312909 
L 172.986273 -273.312909 
L 165.778636 -273.312909 
L 158.571 -273.312909 
L 151.363364 -273.312909 
L 144.155727 -273.312909 
L 136.948091 -273.312909 
L 129.740455 -273.312909 
L 122.532818 -273.312909 
L 115.325182 -273.312909 
L 108.117545 -273.312909 
L 100.909909 -273.312909 
L 93.702273 -273.312909 
L 86.494636 -273.312909 
L 79.287 -273.312909 
L 72.079364 -273.312909 
L 64.871727 -273.312909 
L 57.664091 -273.312909 
z
" style="stroke: #000080; stroke-opacity: 0.2"/>
    </defs>
    <g clip-path="url(#p3b3ff6449f)">
     <use xlink:href="#m86c5dab3a7" x="0" y="325.85" style="fill: #000080; fill-opacity: 0.2; stroke: #000080; stroke-opacity: 0.2"/>
    </g>
   </g>
   <g id="matplotlib.axis_1"/>
   <g id="matplotlib.axis_2"/>
   <g id="line2d_1">
    <path d="M 57.664091 46.528613 
L 64.871727 45.862165 
L 72.079364 45.131584 
L 79.287 44.336659 
L 86.494636 43.479025 
L 93.702273 42.562465 
L 100.909909 41.593093 
L 108.117545 40.579406 
L 115.325182 39.532157 
L 122.532818 38.464049 
L 129.740455 37.389269 
L 136.948091 36.322908 
L 144.155727 35.280266 
L 151.363364 34.276237 
L 158.571 33.324679 
L 165.778636 32.437944 
L 172.986273 31.626583 
L 180.193909 30.899107 
L 187.401545 30.262007 
L 194.609182 29.719787 
L 201.816818 29.275114 
L 209.024455 28.929012 
L 216.232091 28.681046 
L 223.439727 28.529489 
L 230.647364 28.471505 
L 237.855 28.50325 
L 245.062636 28.619964 
L 252.270273 28.816064 
L 259.477909 29.085179 
L 266.685545 29.420235 
L 273.893182 29.813492 
L 281.100818 30.256677 
L 288.308455 30.741054 
L 295.516091 31.257612 
L 302.723727 31.79717 
L 309.931364 32.350605 
L 317.139 32.908991 
L 324.346636 33.463801 
L 331.554273 34.007016 
L 338.761909 34.531277 
L 345.969545 35.029965 
L 353.177182 35.497211 
L 360.384818 35.927928 
L 367.592455 36.317765 
L 374.800091 36.663065 
L 382.007727 36.960744 
L 389.215364 37.208223 
L 396.423 37.403325 
L 403.630636 37.544144 
L 410.838273 37.628986 
L 418.045909 37.656251 
" clip-path="url(#p3b3ff6449f)" style="fill: none; stroke: #dc143c; stroke-width: 1.5; stroke-linecap: square"/>
   </g>
   <g id="line2d_2">
    <path d="M 57.664091 9.358909 
L 64.871727 10.025357 
L 72.079364 10.755938 
L 79.287 11.550863 
L 86.494636 12.408497 
L 93.702273 13.325057 
L 100.909909 14.294429 
L 108.117545 15.308116 
L 115.325182 16.355366 
L 122.532818 17.423473 
L 129.740455 18.498253 
L 136.948091 19.564614 
L 144.155727 20.607256 
L 151.363364 21.611285 
L 158.571 22.562844 
L 165.778636 23.449578 
L 172.986273 24.260939 
L 180.193909 24.988415 
L 187.401545 25.625515 
L 194.609182 26.167735 
L 201.816818 26.612408 
L 209.024455 26.95851 
L 216.232091 27.206476 
L 223.439727 27.358033 
L 230.647364 27.416017 
L 237.855 27.384272 
L 245.062636 27.267558 
L 252.270273 27.071458 
L 259.477909 26.802343 
L 266.685545 26.467287 
L 273.893182 26.07403 
L 281.100818 25.630845 
L 288.308455 25.146469 
L 295.516091 24.629911 
L 302.723727 24.090352 
L 309.931364 23.536917 
L 317.139 22.978531 
L 324.346636 22.423721 
L 331.554273 21.880506 
L 338.761909 21.356246 
L 345.969545 20.857557 
L 353.177182 20.390311 
L 360.384818 19.959594 
L 367.592455 19.569757 
L 374.800091 19.224457 
L 382.007727 18.926778 
L 389.215364 18.679299 
L 396.423 18.484197 
L 403.630636 18.343378 
L 410.838273 18.258536 
L 418.045909 18.231271 
" clip-path="url(#p3b3ff6449f)" style="fill: none; stroke: #000080; stroke-width: 1.5; stroke-linecap: square"/>
   </g>
  </g>
  <g id="axes_2">
   <g id="patch_3">
    <path d="M 39.645 165.688 
L 436.065 165.688 
L 436.065 70.696 
L 39.645 70.696 
z
" style="fill: #ffffff"/>
   </g>
   <g id="PathCollection_1">
    <defs>
     <path id="mc125077c83" d="M 0 0.866025 
C 0.229673 0.866025 0.449969 0.774776 0.612372 0.612372 
C 0.774776 0.449969 0.866025 0.229673 0.866025 0 
C 0.866025 -0.229673 0.774776 -0.449969 0.612372 -0.612372 
C 0.449969 -0.774776 0.229673 -0.866025 0 -0.866025 
C -0.229673 -0.866025 -0.449969 -0.774776 -0.612372 -0.612372 
C -0.774776 -0.449969 -0.866025 -0.229673 -0.866025 0 
C -0.866025 0.229673 -0.774776 0.449969 -0.612372 0.612372 
C -0.449969 0.774776 -0.229673 0.866025 0 0.866025 
z
" style="stroke: #daa520"/>
    </defs>
    <g clip-path="url(#p4f303ef3ee)">
     <use xlink:href="#mc125077c83" x="186.297717" y="88.570857" style="fill: #daa520; stroke: #daa520"/>
     <use xlink:href="#mc125077c83" x="146.155596" y="117.652421" style="fill: #daa520; stroke: #daa520"/>
     <use xlink:href="#mc125077c83" x="234.411206" y="109.795168" style="fill: #daa520; stroke: #daa520"/>
     <use xlink:href="#mc125077c83" x="213.433873" y="98.593699" style="fill: #daa520; stroke: #daa520"/>
     <use xlink:href="#mc125077c83" x="177.236022" y="113.73959" style="fill: #daa520; stroke: #daa520"/>
     <use xlink:href="#mc125077c83" x="199.247635" y="85.329097" style="fill: #daa520; stroke: #daa520"/>
     <use xlink:href="#mc125077c83" x="229.995637" y="110.504119" style="fill: #daa520; stroke: #daa520"/>
     <use xlink:href="#mc125077c83" x="178.671778" y="88.690526" style="fill: #daa520; stroke: #daa520"/>
     <use xlink:href="#mc125077c83" x="232.224565" y="104.437522" style="fill: #daa520; stroke: #daa520"/>
     <use xlink:href="#mc125077c83" x="185.066913" y="90.857526" style="fill: #daa520; stroke: #daa520"/>
     <use xlink:href="#mc125077c83" x="240.804383" y="106.334154" style="fill: #daa520; stroke: #daa520"/>
     <use xlink:href="#mc125077c83" x="154.678798" y="112.631708" style="fill: #daa520; stroke: #daa520"/>
     <use xlink:href="#mc125077c83" x="206.733925" y="92.12399" style="fill: #daa520; stroke: #daa520"/>
     <use xlink:href="#mc125077c83" x="247.433831" y="111.606919" style="fill: #daa520; stroke: #daa520"/>
     <use xlink:href="#mc125077c83" x="377.545896" y="137.855701" style="fill: #daa520; stroke: #daa520"/>
     <use xlink:href="#mc125077c83" x="128.400855" y="81.84059" style="fill: #daa520; stroke: #daa520"/>
     <use xlink:href="#mc125077c83" x="160.445819" y="97.38494" style="fill: #daa520; stroke: #daa520"/>
     <use xlink:href="#mc125077c83" x="205.317166" y="95.542686" style="fill: #daa520; stroke: #daa520"/>
     <use xlink:href="#mc125077c83" x="259.137477" y="113.921652" style="fill: #daa520; stroke: #daa520"/>
     <use xlink:href="#mc125077c83" x="190.181584" y="93.046804" style="fill: #daa520; stroke: #daa520"/>
     <use xlink:href="#mc125077c83" x="359.717866" y="137.492242" style="fill: #daa520; stroke: #daa520"/>
     <use xlink:href="#mc125077c83" x="177.846492" y="80.937304" style="fill: #daa520; stroke: #daa520"/>
     <use xlink:href="#mc125077c83" x="215.28675" y="98.069976" style="fill: #daa520; stroke: #daa520"/>
     <use xlink:href="#mc125077c83" x="145.197182" y="100.908665" style="fill: #daa520; stroke: #daa520"/>
     <use xlink:href="#mc125077c83" x="381.064312" y="120.950652" style="fill: #daa520; stroke: #daa520"/>
     <use xlink:href="#mc125077c83" x="184.353295" y="107.17454" style="fill: #daa520; stroke: #daa520"/>
     <use xlink:href="#mc125077c83" x="134.793155" y="81.439783" style="fill: #daa520; stroke: #daa520"/>
     <use xlink:href="#mc125077c83" x="388.766694" y="122.29419" style="fill: #daa520; stroke: #daa520"/>
     <use xlink:href="#mc125077c83" x="372.164282" y="142.566639" style="fill: #daa520; stroke: #daa520"/>
     <use xlink:href="#mc125077c83" x="220.631895" y="102.739132" style="fill: #daa520; stroke: #daa520"/>
     <use xlink:href="#mc125077c83" x="401.216854" y="142.731167" style="fill: #daa520; stroke: #daa520"/>
     <use xlink:href="#mc125077c83" x="165.174977" y="78.120024" style="fill: #daa520; stroke: #daa520"/>
     <use xlink:href="#mc125077c83" x="199.640808" y="110.012681" style="fill: #daa520; stroke: #daa520"/>
     <use xlink:href="#mc125077c83" x="182.30484" y="131.871039" style="fill: #daa520; stroke: #daa520"/>
     <use xlink:href="#mc125077c83" x="350.859771" y="132.08586" style="fill: #daa520; stroke: #daa520"/>
     <use xlink:href="#mc125077c83" x="164.578192" y="85.608461" style="fill: #daa520; stroke: #daa520"/>
     <use xlink:href="#mc125077c83" x="267.773824" y="118.78219" style="fill: #daa520; stroke: #daa520"/>
     <use xlink:href="#mc125077c83" x="152.052506" y="90.594533" style="fill: #daa520; stroke: #daa520"/>
     <use xlink:href="#mc125077c83" x="381.597475" y="120.991843" style="fill: #daa520; stroke: #daa520"/>
     <use xlink:href="#mc125077c83" x="286.948571" y="122.016845" style="fill: #daa520; stroke: #daa520"/>
     <use xlink:href="#mc125077c83" x="207.746178" y="111.389889" style="fill: #daa520; stroke: #daa520"/>
     <use xlink:href="#mc125077c83" x="130.624132" y="121.429086" style="fill: #daa520; stroke: #daa520"/>
     <use xlink:href="#mc125077c83" x="274.441458" y="116.241121" style="fill: #daa520; stroke: #daa520"/>
     <use xlink:href="#mc125077c83" x="268.494882" y="117.876524" style="fill: #daa520; stroke: #daa520"/>
     <use xlink:href="#mc125077c83" x="155.05913" y="99.811926" style="fill: #daa520; stroke: #daa520"/>
     <use xlink:href="#mc125077c83" x="288.457846" y="118.238343" style="fill: #daa520; stroke: #daa520"/>
     <use xlink:href="#mc125077c83" x="201.709292" y="93.392339" style="fill: #daa520; stroke: #daa520"/>
     <use xlink:href="#mc125077c83" x="239.780118" y="100.145789" style="fill: #daa520; stroke: #daa520"/>
     <use xlink:href="#mc125077c83" x="216.227343" y="108.013024" style="fill: #daa520; stroke: #daa520"/>
     <use xlink:href="#mc125077c83" x="173.071516" y="111.169008" style="fill: #daa520; stroke: #daa520"/>
     <use xlink:href="#mc125077c83" x="231.970138" y="108.255084" style="fill: #daa520; stroke: #daa520"/>
     <use xlink:href="#mc125077c83" x="278.944377" y="119.02844" style="fill: #daa520; stroke: #daa520"/>
     <use xlink:href="#mc125077c83" x="158.03398" y="116.753427" style="fill: #daa520; stroke: #daa520"/>
     <use xlink:href="#mc125077c83" x="250.556034" y="99.442955" style="fill: #daa520; stroke: #daa520"/>
     <use xlink:href="#mc125077c83" x="224.718121" y="105.345001" style="fill: #daa520; stroke: #daa520"/>
     <use xlink:href="#mc125077c83" x="393.768248" y="125.193015" style="fill: #daa520; stroke: #daa520"/>
     <use xlink:href="#mc125077c83" x="144.525887" y="101.129375" style="fill: #daa520; stroke: #daa520"/>
     <use xlink:href="#mc125077c83" x="333.218343" y="128.990932" style="fill: #daa520; stroke: #daa520"/>
     <use xlink:href="#mc125077c83" x="296.478327" y="125.056369" style="fill: #daa520; stroke: #daa520"/>
     <use xlink:href="#mc125077c83" x="187.247434" y="98.100164" style="fill: #daa520; stroke: #daa520"/>
     <use xlink:href="#mc125077c83" x="207.623688" y="85.188675" style="fill: #daa520; stroke: #daa520"/>
     <use xlink:href="#mc125077c83" x="361.099816" y="143.085053" style="fill: #daa520; stroke: #daa520"/>
     <use xlink:href="#mc125077c83" x="67.008442" y="103.037018" style="fill: #daa520; stroke: #daa520"/>
     <use xlink:href="#mc125077c83" x="281.612952" y="121.376975" style="fill: #daa520; stroke: #daa520"/>
     <use xlink:href="#mc125077c83" x="246.573618" y="103.592507" style="fill: #daa520; stroke: #daa520"/>
     <use xlink:href="#mc125077c83" x="284.981343" y="124.20235" style="fill: #daa520; stroke: #daa520"/>
     <use xlink:href="#mc125077c83" x="318.594111" y="126.628898" style="fill: #daa520; stroke: #daa520"/>
     <use xlink:href="#mc125077c83" x="165.561813" y="75.013818" style="fill: #daa520; stroke: #daa520"/>
     <use xlink:href="#mc125077c83" x="414.273529" y="152.59776" style="fill: #daa520; stroke: #daa520"/>
     <use xlink:href="#mc125077c83" x="237.278756" y="81.604838" style="fill: #daa520; stroke: #daa520"/>
     <use xlink:href="#mc125077c83" x="195.101867" y="83.127559" style="fill: #daa520; stroke: #daa520"/>
     <use xlink:href="#mc125077c83" x="267.114897" y="106.107193" style="fill: #daa520; stroke: #daa520"/>
     <use xlink:href="#mc125077c83" x="98.157088" y="93.419595" style="fill: #daa520; stroke: #daa520"/>
     <use xlink:href="#mc125077c83" x="268.763215" y="114.62689" style="fill: #daa520; stroke: #daa520"/>
     <use xlink:href="#mc125077c83" x="216.96749" y="115.490237" style="fill: #daa520; stroke: #daa520"/>
     <use xlink:href="#mc125077c83" x="196.222634" y="113.676224" style="fill: #daa520; stroke: #daa520"/>
     <use xlink:href="#mc125077c83" x="279.759495" y="117.249464" style="fill: #daa520; stroke: #daa520"/>
     <use xlink:href="#mc125077c83" x="321.625225" y="129.268597" style="fill: #daa520; stroke: #daa520"/>
     <use xlink:href="#mc125077c83" x="94.269632" y="125.422114" style="fill: #daa520; stroke: #daa520"/>
     <use xlink:href="#mc125077c83" x="199.716991" y="100.772133" style="fill: #daa520; stroke: #daa520"/>
     <use xlink:href="#mc125077c83" x="288.407989" y="118.236798" style="fill: #daa520; stroke: #daa520"/>
     <use xlink:href="#mc125077c83" x="164.82697" y="98.301128" style="fill: #daa520; stroke: #daa520"/>
     <use xlink:href="#mc125077c83" x="326.554654" y="137.462488" style="fill: #daa520; stroke: #daa520"/>
     <use xlink:href="#mc125077c83" x="309.228798" y="128.587746" style="fill: #daa520; stroke: #daa520"/>
     <use xlink:href="#mc125077c83" x="96.306955" y="94.222775" style="fill: #daa520; stroke: #daa520"/>
     <use xlink:href="#mc125077c83" x="150.37804" y="78.678778" style="fill: #daa520; stroke: #daa520"/>
     <use xlink:href="#mc125077c83" x="187.113947" y="81.26933" style="fill: #daa520; stroke: #daa520"/>
     <use xlink:href="#mc125077c83" x="370.221905" y="139.43868" style="fill: #daa520; stroke: #daa520"/>
     <use xlink:href="#mc125077c83" x="108.538556" y="149.293605" style="fill: #daa520; stroke: #daa520"/>
     <use xlink:href="#mc125077c83" x="372.746458" y="135.275175" style="fill: #daa520; stroke: #daa520"/>
     <use xlink:href="#mc125077c83" x="311.650955" y="121.32018" style="fill: #daa520; stroke: #daa520"/>
     <use xlink:href="#mc125077c83" x="135.213028" y="88.741188" style="fill: #daa520; stroke: #daa520"/>
     <use xlink:href="#mc125077c83" x="276.912889" y="120.707089" style="fill: #daa520; stroke: #daa520"/>
     <use xlink:href="#mc125077c83" x="395.25173" y="161.370182" style="fill: #daa520; stroke: #daa520"/>
     <use xlink:href="#mc125077c83" x="121.304484" y="150.219187" style="fill: #daa520; stroke: #daa520"/>
     <use xlink:href="#mc125077c83" x="399.870928" y="146.189912" style="fill: #daa520; stroke: #daa520"/>
     <use xlink:href="#mc125077c83" x="259.464328" y="113.314267" style="fill: #daa520; stroke: #daa520"/>
     <use xlink:href="#mc125077c83" x="111.198163" y="93.620796" style="fill: #daa520; stroke: #daa520"/>
     <use xlink:href="#mc125077c83" x="181.00218" y="110.407609" style="fill: #daa520; stroke: #daa520"/>
     <use xlink:href="#mc125077c83" x="327.20605" y="122.84392" style="fill: #daa520; stroke: #daa520"/>
     <use xlink:href="#mc125077c83" x="416.975796" y="126.308179" style="fill: #daa520; stroke: #daa520"/>
     <use xlink:href="#mc125077c83" x="276.06358" y="120.505946" style="fill: #daa520; stroke: #daa520"/>
     <use xlink:href="#mc125077c83" x="172.084233" y="89.975522" style="fill: #daa520; stroke: #daa520"/>
     <use xlink:href="#mc125077c83" x="274.267963" y="115.937111" style="fill: #daa520; stroke: #daa520"/>
     <use xlink:href="#mc125077c83" x="239.074581" y="109.161349" style="fill: #daa520; stroke: #daa520"/>
     <use xlink:href="#mc125077c83" x="301.796958" y="119.260122" style="fill: #daa520; stroke: #daa520"/>
     <use xlink:href="#mc125077c83" x="212.157289" y="98.684458" style="fill: #daa520; stroke: #daa520"/>
    </g>
   </g>
   <g id="matplotlib.axis_3"/>
   <g id="matplotlib.axis_4">
    <g id="ytick_1">
     <g id="line2d_3">
      <defs>
       <path id="m35b7ff16c0" d="M 0 0 
L -3.5 0 
" style="stroke: #696969; stroke-width: 0.8"/>
      </defs>
      <g>
       <use xlink:href="#m35b7ff16c0" x="39.645" y="143.808673" style="fill: #696969; stroke: #696969; stroke-width: 0.8"/>
      </g>
     </g>
     <g id="text_1">
      <!-- 0 -->
      <g style="fill: #696969" transform="translate(22.465 149.887423) scale(0.16 -0.16)">
       <defs>
        <path id="DejaVuSans-30" d="M 2034 4250 
Q 1547 4250 1301 3770 
Q 1056 3291 1056 2328 
Q 1056 1369 1301 889 
Q 1547 409 2034 409 
Q 2525 409 2770 889 
Q 3016 1369 3016 2328 
Q 3016 3291 2770 3770 
Q 2525 4250 2034 4250 
z
M 2034 4750 
Q 2819 4750 3233 4129 
Q 3647 3509 3647 2328 
Q 3647 1150 3233 529 
Q 2819 -91 2034 -91 
Q 1250 -91 836 529 
Q 422 1150 422 2328 
Q 422 3509 836 4129 
Q 1250 4750 2034 4750 
z
" transform="scale(0.015625)"/>
       </defs>
       <use xlink:href="#DejaVuSans-30"/>
      </g>
     </g>
    </g>
    <g id="ytick_2">
     <g id="line2d_4">
      <g>
       <use xlink:href="#m35b7ff16c0" x="39.645" y="78.499283" style="fill: #696969; stroke: #696969; stroke-width: 0.8"/>
      </g>
     </g>
     <g id="text_2">
      <!-- 5 -->
      <g style="fill: #696969" transform="translate(22.465 84.578033) scale(0.16 -0.16)">
       <defs>
        <path id="DejaVuSans-35" d="M 691 4666 
L 3169 4666 
L 3169 4134 
L 1269 4134 
L 1269 2991 
Q 1406 3038 1543 3061 
Q 1681 3084 1819 3084 
Q 2600 3084 3056 2656 
Q 3513 2228 3513 1497 
Q 3513 744 3044 326 
Q 2575 -91 1722 -91 
Q 1428 -91 1123 -41 
Q 819 9 494 109 
L 494 744 
Q 775 591 1075 516 
Q 1375 441 1709 441 
Q 2250 441 2565 725 
Q 2881 1009 2881 1497 
Q 2881 1984 2565 2268 
Q 2250 2553 1709 2553 
Q 1456 2553 1204 2497 
Q 953 2441 691 2322 
L 691 4666 
z
" transform="scale(0.015625)"/>
       </defs>
       <use xlink:href="#DejaVuSans-35"/>
      </g>
     </g>
    </g>
   </g>
   <g id="line2d_5">
    <path d="M 57.664091 113.441185 
L 64.871727 113.424491 
L 72.079364 113.251357 
L 79.287 112.892005 
L 86.494636 112.325004 
L 93.702273 111.539402 
L 100.909909 110.536339 
L 108.117545 109.329948 
L 115.325182 107.94744 
L 122.532818 106.428297 
L 129.740455 104.822641 
L 136.948091 103.188836 
L 144.155727 101.590585 
L 151.363364 100.093647 
L 158.571 98.762487 
L 165.778636 97.657072 
L 172.986273 96.830008 
L 180.193909 96.324181 
L 187.401545 96.170968 
L 194.609182 96.389094 
L 201.816818 96.984112 
L 209.024455 97.948461 
L 216.232091 99.262048 
L 223.439727 100.893297 
L 230.647364 102.800626 
L 237.855 104.93425 
L 245.062636 107.238309 
L 252.270273 109.65325 
L 259.477909 112.118353 
L 266.685545 114.574379 
L 273.893182 116.966125 
L 281.100818 119.244831 
L 288.308455 121.370282 
L 295.516091 123.312381 
L 302.723727 125.052248 
L 309.931364 126.582627 
L 317.139 127.907714 
L 324.346636 129.042383 
L 331.554273 130.011015 
L 338.761909 130.845964 
L 345.969545 131.585926 
L 353.177182 132.274334 
L 360.384818 132.957878 
L 367.592455 133.685249 
L 374.800091 134.506101 
L 382.007727 135.470145 
L 389.215364 136.626314 
L 396.423 138.021824 
L 403.630636 139.701026 
L 410.838273 141.70397 
L 418.045909 144.064594 
" clip-path="url(#p4f303ef3ee)" style="fill: none; stroke: #000000; stroke-width: 2; stroke-linecap: square"/>
   </g>
   <g id="line2d_6">
    <path d="M 57.664091 91.55776 
L 64.871727 101.002485 
L 72.079364 107.200053 
L 79.287 110.853659 
L 86.494636 112.558846 
L 93.702273 112.815622 
L 100.909909 112.039637 
L 108.117545 110.572475 
L 115.325182 108.691086 
L 122.532818 106.616399 
L 129.740455 104.521152 
L 136.948091 102.536975 
L 144.155727 100.760767 
L 151.363364 99.260395 
L 158.571 98.079768 
L 165.778636 97.243299 
L 172.986273 96.759819 
L 180.193909 96.625954 
L 187.401545 96.829029 
L 194.609182 97.349506 
L 201.816818 98.163015 
L 209.024455 99.242015 
L 216.232091 100.5571 
L 223.439727 102.078016 
L 230.647364 103.774399 
L 237.855 105.616299 
L 245.062636 107.574495 
L 252.270273 109.620667 
L 259.477909 111.72744 
L 266.685545 113.868357 
L 273.893182 116.017795 
L 281.100818 118.150883 
L 288.308455 120.243441 
L 295.516091 122.271992 
L 302.723727 124.213873 
L 309.931364 126.047481 
L 317.139 127.752709 
L 324.346636 129.311578 
L 331.554273 130.709135 
L 338.761909 131.934625 
L 345.969545 132.983001 
L 353.177182 133.856778 
L 360.384818 134.568302 
L 367.592455 135.142442 
L 374.800091 135.61976 
L 382.007727 136.060183 
L 389.215364 136.547231 
L 396.423 137.192814 
L 403.630636 138.14266 
L 410.838273 139.582394 
L 418.045909 141.744308 
" clip-path="url(#p4f303ef3ee)" style="fill: none; stroke-dasharray: 7.4,3.2; stroke-dashoffset: 0; stroke: #34b6c6; stroke-width: 2"/>
   </g>
   <g id="line2d_7">
    <path d="M 57.664091 109.849274 
L 64.871727 110.020544 
L 72.079364 109.963855 
L 79.287 109.708436 
L 86.494636 109.279146 
L 93.702273 108.697372 
L 100.909909 107.982011 
L 108.117545 107.150564 
L 115.325182 106.220321 
L 122.532818 105.209624 
L 129.740455 104.13913 
L 136.948091 103.032952 
L 144.155727 101.919518 
L 151.363364 100.831994 
L 158.571 99.808153 
L 165.778636 98.889732 
L 172.986273 98.12141 
L 180.193909 97.549654 
L 187.401545 97.221564 
L 194.609182 97.18362 
L 201.816818 97.479834 
L 209.024455 98.148448 
L 216.232091 99.216345 
L 223.439727 100.690977 
L 230.647364 102.551262 
L 237.855 104.741071 
L 245.062636 107.170052 
L 252.270273 109.724747 
L 259.477909 112.287911 
L 266.685545 114.758935 
L 273.893182 117.067605 
L 281.100818 119.177618 
L 288.308455 121.081606 
L 295.516091 122.792122 
L 302.723727 124.332598 
L 309.931364 125.730393 
L 317.139 127.012386 
L 324.346636 128.202661 
L 331.554273 129.321622 
L 338.761909 130.385926 
L 345.969545 131.408831 
L 353.177182 132.400723 
L 360.384818 133.36966 
L 367.592455 134.321916 
L 374.800091 135.262461 
L 382.007727 136.195413 
L 389.215364 137.124452 
L 396.423 138.053205 
L 403.630636 138.985627 
L 410.838273 139.926372 
L 418.045909 140.88117 
" clip-path="url(#p4f303ef3ee)" style="fill: none; stroke-dasharray: 7.4,3.2; stroke-dashoffset: 0; stroke: #9370db; stroke-width: 2"/>
   </g>
   <g id="line2d_8">
    <path d="M 57.664091 113.500455 
L 64.871727 112.882312 
L 72.079364 112.206676 
L 79.287 111.469216 
L 86.494636 110.666076 
L 93.702273 109.794287 
L 100.909909 108.852313 
L 108.117545 107.840743 
L 115.325182 106.763151 
L 122.532818 105.627057 
L 129.740455 104.444936 
L 136.948091 103.235124 
L 144.155727 102.022453 
L 151.363364 100.838427 
L 158.571 99.72084 
L 165.778636 98.712845 
L 172.986273 97.861643 
L 180.193909 97.217047 
L 187.401545 96.830074 
L 194.609182 96.751447 
L 201.816818 97.029463 
L 209.024455 97.706297 
L 216.232091 98.811799 
L 223.439727 100.354597 
L 230.647364 102.312087 
L 237.855 104.623252 
L 245.062636 107.189561 
L 252.270273 109.887144 
L 259.477909 112.587959 
L 266.685545 115.182189 
L 273.893182 117.593331 
L 281.100818 119.782057 
L 288.308455 121.740769 
L 295.516091 123.48373 
L 302.723727 125.037157 
L 309.931364 126.431601 
L 317.139 127.697114 
L 324.346636 128.860699 
L 331.554273 129.945311 
L 338.761909 130.969757 
L 345.969545 131.949031 
L 353.177182 132.894823 
L 360.384818 133.816049 
L 367.592455 134.719343 
L 374.800091 135.609475 
L 382.007727 136.489712 
L 389.215364 137.362105 
L 396.423 138.227741 
L 403.630636 139.086945 
L 410.838273 139.939451 
L 418.045909 140.784553 
" clip-path="url(#p4f303ef3ee)" style="fill: none; stroke-dasharray: 12.8,3.2,2,3.2; stroke-dashoffset: 0; stroke: #ff0000; stroke-width: 2"/>
   </g>
   <g id="patch_4">
    <path d="M 39.645 165.688 
L 39.645 70.696 
" style="fill: none; stroke: #000000; stroke-width: 0.8; stroke-linejoin: miter; stroke-linecap: square"/>
   </g>
   <g id="patch_5">
    <path d="M 436.065 165.688 
L 436.065 70.696 
" style="fill: none; stroke: #000000; stroke-width: 0.8; stroke-linejoin: miter; stroke-linecap: square"/>
   </g>
   <g id="patch_6">
    <path d="M 39.645 165.688 
L 436.065 165.688 
" style="fill: none; stroke: #000000; stroke-width: 0.8; stroke-linejoin: miter; stroke-linecap: square"/>
   </g>
   <g id="patch_7">
    <path d="M 39.645 70.696 
L 436.065 70.696 
" style="fill: none; stroke: #000000; stroke-width: 0.8; stroke-linejoin: miter; stroke-linecap: square"/>
   </g>
  </g>
  <g id="axes_3">
   <g id="patch_8">
    <path d="M 39.645 276.68 
L 436.065 276.68 
L 436.065 181.688 
L 39.645 181.688 
z
" style="fill: #ffffff"/>
   </g>
   <g id="PathCollection_2">
    <g clip-path="url(#p06f744f7c9)">
     <use xlink:href="#mc125077c83" x="186.297717" y="252.805123" style="fill: #daa520; stroke: #daa520"/>
     <use xlink:href="#mc125077c83" x="146.155596" y="222.048165" style="fill: #daa520; stroke: #daa520"/>
     <use xlink:href="#mc125077c83" x="234.411206" y="234.278648" style="fill: #daa520; stroke: #daa520"/>
     <use xlink:href="#mc125077c83" x="213.433873" y="241.950238" style="fill: #daa520; stroke: #daa520"/>
     <use xlink:href="#mc125077c83" x="177.236022" y="221.638203" style="fill: #daa520; stroke: #daa520"/>
     <use xlink:href="#mc125077c83" x="199.247635" y="256.934921" style="fill: #daa520; stroke: #daa520"/>
     <use xlink:href="#mc125077c83" x="229.995637" y="231.654683" style="fill: #daa520; stroke: #daa520"/>
     <use xlink:href="#mc125077c83" x="178.671778" y="253.240159" style="fill: #daa520; stroke: #daa520"/>
     <use xlink:href="#mc125077c83" x="232.224565" y="240.195904" style="fill: #daa520; stroke: #daa520"/>
     <use xlink:href="#mc125077c83" x="185.066913" y="249.974191" style="fill: #daa520; stroke: #daa520"/>
     <use xlink:href="#mc125077c83" x="240.804383" y="241.415527" style="fill: #daa520; stroke: #daa520"/>
     <use xlink:href="#mc125077c83" x="154.678798" y="226.668517" style="fill: #daa520; stroke: #daa520"/>
     <use xlink:href="#mc125077c83" x="206.733925" y="249.030131" style="fill: #daa520; stroke: #daa520"/>
     <use xlink:href="#mc125077c83" x="247.433831" y="237.798811" style="fill: #daa520; stroke: #daa520"/>
     <use xlink:href="#mc125077c83" x="377.545896" y="239.862731" style="fill: #daa520; stroke: #daa520"/>
     <use xlink:href="#mc125077c83" x="128.400855" y="271.220614" style="fill: #daa520; stroke: #daa520"/>
     <use xlink:href="#mc125077c83" x="160.445819" y="244.896865" style="fill: #daa520; stroke: #daa520"/>
     <use xlink:href="#mc125077c83" x="205.317166" y="244.519263" style="fill: #daa520; stroke: #daa520"/>
     <use xlink:href="#mc125077c83" x="259.137477" y="240.433501" style="fill: #daa520; stroke: #daa520"/>
     <use xlink:href="#mc125077c83" x="190.181584" y="246.991533" style="fill: #daa520; stroke: #daa520"/>
     <use xlink:href="#mc125077c83" x="359.717866" y="237.516609" style="fill: #daa520; stroke: #daa520"/>
     <use xlink:href="#mc125077c83" x="177.846492" y="263.154553" style="fill: #daa520; stroke: #daa520"/>
     <use xlink:href="#mc125077c83" x="215.28675" y="243.008688" style="fill: #daa520; stroke: #daa520"/>
     <use xlink:href="#mc125077c83" x="145.197182" y="243.475551" style="fill: #daa520; stroke: #daa520"/>
     <use xlink:href="#mc125077c83" x="381.064312" y="261.836745" style="fill: #daa520; stroke: #daa520"/>
     <use xlink:href="#mc125077c83" x="184.353295" y="229.333896" style="fill: #daa520; stroke: #daa520"/>
     <use xlink:href="#mc125077c83" x="134.793155" y="270.373589" style="fill: #daa520; stroke: #daa520"/>
     <use xlink:href="#mc125077c83" x="388.766694" y="261.316354" style="fill: #daa520; stroke: #daa520"/>
     <use xlink:href="#mc125077c83" x="372.164282" y="233.053409" style="fill: #daa520; stroke: #daa520"/>
     <use xlink:href="#mc125077c83" x="220.631895" y="238.434011" style="fill: #daa520; stroke: #daa520"/>
     <use xlink:href="#mc125077c83" x="401.216854" y="237.300291" style="fill: #daa520; stroke: #daa520"/>
     <use xlink:href="#mc125077c83" x="165.174977" y="268.48894" style="fill: #daa520; stroke: #daa520"/>
     <use xlink:href="#mc125077c83" x="199.640808" y="225.667927" style="fill: #daa520; stroke: #daa520"/>
     <use xlink:href="#mc125077c83" x="182.30484" y="198.17362" style="fill: #daa520; stroke: #daa520"/>
     <use xlink:href="#mc125077c83" x="350.859771" y="242.927688" style="fill: #daa520; stroke: #daa520"/>
     <use xlink:href="#mc125077c83" x="164.578192" y="259.096519" style="fill: #daa520; stroke: #daa520"/>
     <use xlink:href="#mc125077c83" x="267.773824" y="238.198324" style="fill: #daa520; stroke: #daa520"/>
     <use xlink:href="#mc125077c83" x="152.052506" y="255.129758" style="fill: #daa520; stroke: #daa520"/>
     <use xlink:href="#mc125077c83" x="381.597475" y="261.866749" style="fill: #daa520; stroke: #daa520"/>
     <use xlink:href="#mc125077c83" x="286.948571" y="241.487116" style="fill: #daa520; stroke: #daa520"/>
     <use xlink:href="#mc125077c83" x="207.746178" y="224.746531" style="fill: #daa520; stroke: #daa520"/>
     <use xlink:href="#mc125077c83" x="130.624132" y="220.566823" style="fill: #daa520; stroke: #daa520"/>
     <use xlink:href="#mc125077c83" x="274.441458" y="244.219263" style="fill: #daa520; stroke: #daa520"/>
     <use xlink:href="#mc125077c83" x="268.494882" y="239.660121" style="fill: #daa520; stroke: #daa520"/>
     <use xlink:href="#mc125077c83" x="155.05913" y="242.844803" style="fill: #daa520; stroke: #daa520"/>
     <use xlink:href="#mc125077c83" x="288.457846" y="246.772196" style="fill: #daa520; stroke: #daa520"/>
     <use xlink:href="#mc125077c83" x="201.709292" y="246.88562" style="fill: #daa520; stroke: #daa520"/>
     <use xlink:href="#mc125077c83" x="239.780118" y="248.803113" style="fill: #daa520; stroke: #daa520"/>
     <use xlink:href="#mc125077c83" x="216.227343" y="230.618587" style="fill: #daa520; stroke: #daa520"/>
     <use xlink:href="#mc125077c83" x="173.071516" y="225.403145" style="fill: #daa520; stroke: #daa520"/>
     <use xlink:href="#mc125077c83" x="231.970138" y="235.257249" style="fill: #daa520; stroke: #daa520"/>
     <use xlink:href="#mc125077c83" x="278.944377" y="242.439804" style="fill: #daa520; stroke: #daa520"/>
     <use xlink:href="#mc125077c83" x="158.03398" y="220.793593" style="fill: #daa520; stroke: #daa520"/>
     <use xlink:href="#mc125077c83" x="250.556034" y="254.704013" style="fill: #daa520; stroke: #daa520"/>
     <use xlink:href="#mc125077c83" x="224.718121" y="236.360948" style="fill: #daa520; stroke: #daa520"/>
     <use xlink:href="#mc125077c83" x="393.768248" y="258.4043" style="fill: #daa520; stroke: #daa520"/>
     <use xlink:href="#mc125077c83" x="144.525887" y="243.337586" style="fill: #daa520; stroke: #daa520"/>
     <use xlink:href="#mc125077c83" x="333.218343" y="243.799476" style="fill: #daa520; stroke: #daa520"/>
     <use xlink:href="#mc125077c83" x="296.478327" y="240.566188" style="fill: #daa520; stroke: #daa520"/>
     <use xlink:href="#mc125077c83" x="187.247434" y="240.680376" style="fill: #daa520; stroke: #daa520"/>
     <use xlink:href="#mc125077c83" x="207.623688" y="257.943598" style="fill: #daa520; stroke: #daa520"/>
     <use xlink:href="#mc125077c83" x="361.099816" y="230.648263" style="fill: #daa520; stroke: #daa520"/>
     <use xlink:href="#mc125077c83" x="67.008442" y="254.518331" style="fill: #daa520; stroke: #daa520"/>
     <use xlink:href="#mc125077c83" x="281.612952" y="240.447939" style="fill: #daa520; stroke: #daa520"/>
     <use xlink:href="#mc125077c83" x="246.573618" y="247.552317" style="fill: #daa520; stroke: #daa520"/>
     <use xlink:href="#mc125077c83" x="284.981343" y="238.052725" style="fill: #daa520; stroke: #daa520"/>
     <use xlink:href="#mc125077c83" x="318.594111" y="243.94513" style="fill: #daa520; stroke: #daa520"/>
     <use xlink:href="#mc125077c83" x="165.561813" y="272.362182" style="fill: #daa520; stroke: #daa520"/>
     <use xlink:href="#mc125077c83" x="414.273529" y="226.749098" style="fill: #daa520; stroke: #daa520"/>
     <use xlink:href="#mc125077c83" x="237.278756" y="271.215493" style="fill: #daa520; stroke: #daa520"/>
     <use xlink:href="#mc125077c83" x="195.101867" y="259.563421" style="fill: #daa520; stroke: #daa520"/>
     <use xlink:href="#mc125077c83" x="267.114897" y="253.977188" style="fill: #daa520; stroke: #daa520"/>
     <use xlink:href="#mc125077c83" x="98.157088" y="262.31398" style="fill: #daa520; stroke: #daa520"/>
     <use xlink:href="#mc125077c83" x="268.763215" y="243.895684" style="fill: #daa520; stroke: #daa520"/>
     <use xlink:href="#mc125077c83" x="216.96749" y="221.315337" style="fill: #daa520; stroke: #daa520"/>
     <use xlink:href="#mc125077c83" x="196.222634" y="220.866342" style="fill: #daa520; stroke: #daa520"/>
     <use xlink:href="#mc125077c83" x="279.759495" y="245.000202" style="fill: #daa520; stroke: #daa520"/>
     <use xlink:href="#mc125077c83" x="321.625225" y="241.223005" style="fill: #daa520; stroke: #daa520"/>
     <use xlink:href="#mc125077c83" x="94.269632" y="222.382128" style="fill: #daa520; stroke: #daa520"/>
     <use xlink:href="#mc125077c83" x="199.716991" y="237.386634" style="fill: #daa520; stroke: #daa520"/>
     <use xlink:href="#mc125077c83" x="288.407989" y="246.75799" style="fill: #daa520; stroke: #daa520"/>
     <use xlink:href="#mc125077c83" x="164.82697" y="242.964386" style="fill: #daa520; stroke: #daa520"/>
     <use xlink:href="#mc125077c83" x="326.554654" y="231.810215" style="fill: #daa520; stroke: #daa520"/>
     <use xlink:href="#mc125077c83" x="309.228798" y="239.385999" style="fill: #daa520; stroke: #daa520"/>
     <use xlink:href="#mc125077c83" x="96.306955" y="261.602102" style="fill: #daa520; stroke: #daa520"/>
     <use xlink:href="#mc125077c83" x="150.37804" y="270.576277" style="fill: #daa520; stroke: #daa520"/>
     <use xlink:href="#mc125077c83" x="187.113947" y="262.02219" style="fill: #daa520; stroke: #daa520"/>
     <use xlink:href="#mc125077c83" x="370.221905" y="236.714577" style="fill: #daa520; stroke: #daa520"/>
     <use xlink:href="#mc125077c83" x="108.538556" y="189.657727" style="fill: #daa520; stroke: #daa520"/>
     <use xlink:href="#mc125077c83" x="372.746458" y="242.387506" style="fill: #daa520; stroke: #daa520"/>
     <use xlink:href="#mc125077c83" x="311.650955" y="249.159621" style="fill: #daa520; stroke: #daa520"/>
     <use xlink:href="#mc125077c83" x="135.213028" y="261.028171" style="fill: #daa520; stroke: #daa520"/>
     <use xlink:href="#mc125077c83" x="276.912889" y="239.534686" style="fill: #daa520; stroke: #daa520"/>
     <use xlink:href="#mc125077c83" x="395.25173" y="212.769076" style="fill: #daa520; stroke: #daa520"/>
     <use xlink:href="#mc125077c83" x="121.304484" y="186.005818" style="fill: #daa520; stroke: #daa520"/>
     <use xlink:href="#mc125077c83" x="399.870928" y="232.712463" style="fill: #daa520; stroke: #daa520"/>
     <use xlink:href="#mc125077c83" x="259.464328" y="241.356723" style="fill: #daa520; stroke: #daa520"/>
     <use xlink:href="#mc125077c83" x="111.198163" y="259.735954" style="fill: #daa520; stroke: #daa520"/>
     <use xlink:href="#mc125077c83" x="181.00218" y="225.490068" style="fill: #daa520; stroke: #daa520"/>
     <use xlink:href="#mc125077c83" x="327.20605" y="250.46709" style="fill: #daa520; stroke: #daa520"/>
     <use xlink:href="#mc125077c83" x="416.975796" y="260.476643" style="fill: #daa520; stroke: #daa520"/>
     <use xlink:href="#mc125077c83" x="276.06358" y="239.457852" style="fill: #daa520; stroke: #daa520"/>
     <use xlink:href="#mc125077c83" x="172.084233" y="252.402821" style="fill: #daa520; stroke: #daa520"/>
     <use xlink:href="#mc125077c83" x="274.267963" y="244.534797" style="fill: #daa520; stroke: #daa520"/>
     <use xlink:href="#mc125077c83" x="239.074581" y="237.062757" style="fill: #daa520; stroke: #daa520"/>
     <use xlink:href="#mc125077c83" x="301.796958" y="249.366087" style="fill: #daa520; stroke: #daa520"/>
     <use xlink:href="#mc125077c83" x="212.157289" y="241.584777" style="fill: #daa520; stroke: #daa520"/>
    </g>
   </g>
   <g id="matplotlib.axis_5">
    <g id="xtick_1">
     <g id="line2d_9">
      <defs>
       <path id="mb39106bf5d" d="M 0 0 
L 0 3.5 
" style="stroke: #696969; stroke-width: 0.8"/>
      </defs>
      <g>
       <use xlink:href="#mb39106bf5d" x="57.664091" y="276.68" style="fill: #696969; stroke: #696969; stroke-width: 0.8"/>
      </g>
     </g>
     <g id="text_3">
      <!-- −1.0 -->
      <g style="fill: #696969" transform="translate(38.237841 295.8375) scale(0.16 -0.16)">
       <defs>
        <path id="DejaVuSans-2212" d="M 678 2272 
L 4684 2272 
L 4684 1741 
L 678 1741 
L 678 2272 
z
" transform="scale(0.015625)"/>
        <path id="DejaVuSans-31" d="M 794 531 
L 1825 531 
L 1825 4091 
L 703 3866 
L 703 4441 
L 1819 4666 
L 2450 4666 
L 2450 531 
L 3481 531 
L 3481 0 
L 794 0 
L 794 531 
z
" transform="scale(0.015625)"/>
        <path id="DejaVuSans-2e" d="M 684 794 
L 1344 794 
L 1344 0 
L 684 0 
L 684 794 
z
" transform="scale(0.015625)"/>
       </defs>
       <use xlink:href="#DejaVuSans-2212"/>
       <use xlink:href="#DejaVuSans-31" x="83.789062"/>
       <use xlink:href="#DejaVuSans-2e" x="147.412109"/>
       <use xlink:href="#DejaVuSans-30" x="179.199219"/>
      </g>
     </g>
    </g>
    <g id="xtick_2">
     <g id="line2d_10">
      <g>
       <use xlink:href="#mb39106bf5d" x="147.759545" y="276.68" style="fill: #696969; stroke: #696969; stroke-width: 0.8"/>
      </g>
     </g>
     <g id="text_4">
      <!-- −0.5 -->
      <g style="fill: #696969" transform="translate(128.333295 295.8375) scale(0.16 -0.16)">
       <use xlink:href="#DejaVuSans-2212"/>
       <use xlink:href="#DejaVuSans-30" x="83.789062"/>
       <use xlink:href="#DejaVuSans-2e" x="147.412109"/>
       <use xlink:href="#DejaVuSans-35" x="179.199219"/>
      </g>
     </g>
    </g>
    <g id="xtick_3">
     <g id="line2d_11">
      <g>
       <use xlink:href="#mb39106bf5d" x="237.855" y="276.68" style="fill: #696969; stroke: #696969; stroke-width: 0.8"/>
      </g>
     </g>
     <g id="text_5">
      <!-- 0.0 -->
      <g style="fill: #696969" transform="translate(225.1325 295.8375) scale(0.16 -0.16)">
       <use xlink:href="#DejaVuSans-30"/>
       <use xlink:href="#DejaVuSans-2e" x="63.623047"/>
       <use xlink:href="#DejaVuSans-30" x="95.410156"/>
      </g>
     </g>
    </g>
    <g id="xtick_4">
     <g id="line2d_12">
      <g>
       <use xlink:href="#mb39106bf5d" x="327.950455" y="276.68" style="fill: #696969; stroke: #696969; stroke-width: 0.8"/>
      </g>
     </g>
     <g id="text_6">
      <!-- 0.5 -->
      <g style="fill: #696969" transform="translate(315.227955 295.8375) scale(0.16 -0.16)">
       <use xlink:href="#DejaVuSans-30"/>
       <use xlink:href="#DejaVuSans-2e" x="63.623047"/>
       <use xlink:href="#DejaVuSans-35" x="95.410156"/>
      </g>
     </g>
    </g>
    <g id="xtick_5">
     <g id="line2d_13">
      <g>
       <use xlink:href="#mb39106bf5d" x="418.045909" y="276.68" style="fill: #696969; stroke: #696969; stroke-width: 0.8"/>
      </g>
     </g>
     <g id="text_7">
      <!-- 1.0 -->
      <g style="fill: #696969" transform="translate(405.323409 295.8375) scale(0.16 -0.16)">
       <use xlink:href="#DejaVuSans-31"/>
       <use xlink:href="#DejaVuSans-2e" x="63.623047"/>
       <use xlink:href="#DejaVuSans-30" x="95.410156"/>
      </g>
     </g>
    </g>
    <g id="text_8">
     <!-- $X$ -->
     <g transform="translate(232.335 315.3225) scale(0.16 -0.16)">
      <defs>
       <path id="DejaVuSans-Oblique-58" d="M 878 4666 
L 1516 4666 
L 2316 2981 
L 3763 4666 
L 4500 4666 
L 2578 2438 
L 3738 0 
L 3103 0 
L 2163 1966 
L 459 0 
L -275 0 
L 1906 2509 
L 878 4666 
z
" transform="scale(0.015625)"/>
      </defs>
      <use xlink:href="#DejaVuSans-Oblique-58" transform="translate(0 0.09375)"/>
     </g>
    </g>
   </g>
   <g id="matplotlib.axis_6">
    <g id="ytick_3">
     <g id="line2d_14">
      <g>
       <use xlink:href="#m35b7ff16c0" x="39.645" y="242.283804" style="fill: #696969; stroke: #696969; stroke-width: 0.8"/>
      </g>
     </g>
     <g id="text_9">
      <!-- 0.0 -->
      <g style="fill: #696969" transform="translate(7.2 248.362554) scale(0.16 -0.16)">
       <use xlink:href="#DejaVuSans-30"/>
       <use xlink:href="#DejaVuSans-2e" x="63.623047"/>
       <use xlink:href="#DejaVuSans-30" x="95.410156"/>
      </g>
     </g>
    </g>
    <g id="ytick_4">
     <g id="line2d_15">
      <g>
       <use xlink:href="#m35b7ff16c0" x="39.645" y="200.88845" style="fill: #696969; stroke: #696969; stroke-width: 0.8"/>
      </g>
     </g>
     <g id="text_10">
      <!-- 2.5 -->
      <g style="fill: #696969" transform="translate(7.2 206.9672) scale(0.16 -0.16)">
       <defs>
        <path id="DejaVuSans-32" d="M 1228 531 
L 3431 531 
L 3431 0 
L 469 0 
L 469 531 
Q 828 903 1448 1529 
Q 2069 2156 2228 2338 
Q 2531 2678 2651 2914 
Q 2772 3150 2772 3378 
Q 2772 3750 2511 3984 
Q 2250 4219 1831 4219 
Q 1534 4219 1204 4116 
Q 875 4013 500 3803 
L 500 4441 
Q 881 4594 1212 4672 
Q 1544 4750 1819 4750 
Q 2544 4750 2975 4387 
Q 3406 4025 3406 3419 
Q 3406 3131 3298 2873 
Q 3191 2616 2906 2266 
Q 2828 2175 2409 1742 
Q 1991 1309 1228 531 
z
" transform="scale(0.015625)"/>
       </defs>
       <use xlink:href="#DejaVuSans-32"/>
       <use xlink:href="#DejaVuSans-2e" x="63.623047"/>
       <use xlink:href="#DejaVuSans-35" x="95.410156"/>
      </g>
     </g>
    </g>
   </g>
   <g id="line2d_16">
    <path d="M 57.664091 242.358939 
L 64.871727 241.596501 
L 72.079364 240.959495 
L 79.287 240.480178 
L 86.494636 240.180832 
L 93.702273 240.071576 
L 100.909909 240.149016 
L 108.117545 240.395984 
L 115.325182 240.782516 
L 122.532818 241.268097 
L 129.740455 241.804999 
L 136.948091 242.342482 
L 144.155727 242.83127 
L 151.363364 243.227939 
L 158.571 243.498678 
L 165.778636 243.622175 
L 172.986273 243.591577 
L 180.193909 243.415664 
L 187.401545 243.119332 
L 194.609182 242.743148 
L 201.816818 242.341294 
L 209.024455 241.97682 
L 216.232091 241.713037 
L 223.439727 241.600911 
L 230.647364 241.664498 
L 237.855 241.889562 
L 245.062636 242.222008 
L 252.270273 242.580304 
L 259.477909 242.879109 
L 266.685545 243.054307 
L 273.893182 243.078895 
L 281.100818 242.964828 
L 288.308455 242.753459 
L 295.516091 242.501018 
L 302.723727 242.264672 
L 309.931364 242.092353 
L 317.139 242.016833 
L 324.346636 242.053489 
L 331.554273 242.200513 
L 338.761909 242.440733 
L 345.969545 242.744101 
L 353.177182 243.070379 
L 360.384818 243.371682 
L 367.592455 243.594692 
L 374.800091 243.682518 
L 382.007727 243.576278 
L 389.215364 243.216543 
L 396.423 242.544839 
L 403.630636 241.505352 
L 410.838273 240.046978 
L 418.045909 238.125797 
" clip-path="url(#p06f744f7c9)" style="fill: none; stroke: #696969; stroke-width: 2; stroke-linecap: square"/>
   </g>
   <g id="line2d_17">
    <path d="M 57.664091 247.849417 
L 64.871727 246.450425 
L 72.079364 245.340746 
L 79.287 244.470722 
L 86.494636 243.797665 
L 93.702273 243.285105 
L 100.909909 242.902087 
L 108.117545 242.622523 
L 115.325182 242.424599 
L 122.532818 242.290232 
L 129.740455 242.204571 
L 136.948091 242.155554 
L 144.155727 242.133496 
L 151.363364 242.130729 
L 158.571 242.141275 
L 165.778636 242.160558 
L 172.986273 242.185151 
L 180.193909 242.212556 
L 187.401545 242.241012 
L 194.609182 242.269334 
L 201.816818 242.296777 
L 209.024455 242.322921 
L 216.232091 242.347578 
L 223.439727 242.370726 
L 230.647364 242.392445 
L 237.855 242.412882 
L 245.062636 242.432219 
L 252.270273 242.450656 
L 259.477909 242.468399 
L 266.685545 242.485656 
L 273.893182 242.502636 
L 281.100818 242.519547 
L 288.308455 242.536596 
L 295.516091 242.553982 
L 302.723727 242.571889 
L 309.931364 242.590466 
L 317.139 242.6098 
L 324.346636 242.629873 
L 331.554273 242.650513 
L 338.761909 242.671316 
L 345.969545 242.691561 
L 353.177182 242.710096 
L 360.384818 242.725201 
L 367.592455 242.734433 
L 374.800091 242.734433 
L 382.007727 242.720708 
L 389.215364 242.687381 
L 396.423 242.626906 
L 403.630636 242.529744 
L 410.838273 242.384 
L 418.045909 242.175026 
" clip-path="url(#p06f744f7c9)" style="fill: none; stroke-dasharray: 7.4,3.2; stroke-dashoffset: 0; stroke: #79ad41; stroke-width: 2"/>
   </g>
   <g id="patch_9">
    <path d="M 39.645 276.68 
L 39.645 181.688 
" style="fill: none; stroke: #000000; stroke-width: 0.8; stroke-linejoin: miter; stroke-linecap: square"/>
   </g>
   <g id="patch_10">
    <path d="M 436.065 276.68 
L 436.065 181.688 
" style="fill: none; stroke: #000000; stroke-width: 0.8; stroke-linejoin: miter; stroke-linecap: square"/>
   </g>
   <g id="patch_11">
    <path d="M 39.645 276.68 
L 436.065 276.68 
" style="fill: none; stroke: #000000; stroke-width: 0.8; stroke-linejoin: miter; stroke-linecap: square"/>
   </g>
   <g id="patch_12">
    <path d="M 39.645 181.688 
L 436.065 181.688 
" style="fill: none; stroke: #000000; stroke-width: 0.8; stroke-linejoin: miter; stroke-linecap: square"/>
   </g>
  </g>
 </g>
 <defs>
  <clipPath id="p3b3ff6449f">
   <rect x="39.645" y="7.2" width="396.42" height="47.496"/>
  </clipPath>
  <clipPath id="p4f303ef3ee">
   <rect x="39.645" y="70.696" width="396.42" height="94.992"/>
  </clipPath>
  <clipPath id="p06f744f7c9">
   <rect x="39.645" y="181.688" width="396.42" height="94.992"/>
  </clipPath>
 </defs>
</svg>
