<?xml version="1.0" encoding="utf-8" standalone="no"?>
<!DOCTYPE svg PUBLIC "-//W3C//DTD SVG 1.1//EN"
  "http://www.w3.org/Graphics/SVG/1.1/DTD/svg11.dtd">
<svg xmlns:xlink="http://www.w3.org/1999/xlink" width="443.2625pt" height="325.85pt" viewBox="0 0 443.2625 325.85" xmlns="http://www.w3.org/2000/svg" version="1.1">
 <metadata>
  <rdf:RDF xmlns:dc="http://purl.org/dc/elements/1.1/" xmlns:cc="http://creativecommons.org/ns#" xmlns:rdf="http://www.w3.org/1999/02/22-rdf-syntax-ns#">
   <cc:Work>
    <dc:type rdf:resource="http://purl.org/dc/dcmitype/StillImage"/>
    <dc:date>2024-01-28T20:53:11.370962</dc:date>
    <dc:format>image/svg+xml</dc:format>
    <dc:creator>
     <cc:Agent>
      <dc:title>Matplotlib v3.7.2, https://matplotlib.org/</dc:title>
     </cc:Agent>
    </dc:creator>
   </cc:Work>
  </rdf:RDF>
 </metadata>
 <defs>
  <style type="text/css">*{stroke-linejoin: round; stroke-linecap: butt}</style>
 </defs>
 <g id="figure_1">
  <g id="patch_1">
   <path d="M 0 325.85 
L 443.2625 325.85 
L 443.2625 0 
L 0 0 
z
" style="fill: #ffffff"/>
  </g>
  <g id="axes_1">
   <g id="patch_2">
    <path d="M 53.0525 53.155953 
L 436.0625 53.155953 
L 436.0625 7.2 
L 53.0525 7.2 
z
" style="fill: #ffffff"/>
   </g>
   <g id="PolyCollection_1">
    <defs>
     <path id="mcdf91c1b63" d="M 70.462045 -274.782954 
L 70.462045 -285.623816 
L 77.425864 -285.664437 
L 84.389682 -285.694618 
L 91.3535 -285.713784 
L 98.317318 -285.72164 
L 105.281136 -285.718239 
L 112.244955 -285.704037 
L 119.208773 -285.679935 
L 126.172591 -285.647295 
L 133.136409 -285.607971 
L 140.100227 -285.564295 
L 147.064045 -285.519085 
L 154.027864 -285.475613 
L 160.991682 -285.437587 
L 167.9555 -285.4091 
L 174.919318 -285.394635 
L 181.883136 -285.399005 
L 188.846955 -285.42736 
L 195.810773 -285.485179 
L 202.774591 -285.578271 
L 209.738409 -285.712813 
L 216.702227 -285.895363 
L 223.666045 -286.132919 
L 230.629864 -286.432935 
L 237.593682 -286.803341 
L 244.5575 -287.252523 
L 251.521318 -287.789241 
L 258.485136 -288.422446 
L 265.448955 -289.161008 
L 272.412773 -290.013236 
L 279.376591 -290.986268 
L 286.340409 -292.085232 
L 293.304227 -293.312253 
L 300.268045 -294.665355 
L 307.231864 -296.137407 
L 314.195682 -297.715267 
L 321.1595 -299.37944 
L 328.123318 -301.104348 
L 335.087136 -302.859477 
L 342.050955 -304.611289 
L 349.014773 -306.325725 
L 355.978591 -307.970891 
L 362.942409 -309.519517 
L 369.906227 -310.950704 
L 376.870045 -312.250821 
L 383.833864 -313.413448 
L 390.797682 -314.438579 
L 397.7615 -315.331347 
L 404.725318 -316.100552 
L 411.689136 -316.561093 
L 418.652955 -316.561093 
L 418.652955 -274.782954 
L 418.652955 -274.782954 
L 411.689136 -274.782954 
L 404.725318 -274.782954 
L 397.7615 -274.782954 
L 390.797682 -274.782954 
L 383.833864 -274.782954 
L 376.870045 -274.782954 
L 369.906227 -274.782954 
L 362.942409 -274.782954 
L 355.978591 -274.782954 
L 349.014773 -274.782954 
L 342.050955 -274.782954 
L 335.087136 -274.782954 
L 328.123318 -274.782954 
L 321.1595 -274.782954 
L 314.195682 -274.782954 
L 307.231864 -274.782954 
L 300.268045 -274.782954 
L 293.304227 -274.782954 
L 286.340409 -274.782954 
L 279.376591 -274.782954 
L 272.412773 -274.782954 
L 265.448955 -274.782954 
L 258.485136 -274.782954 
L 251.521318 -274.782954 
L 244.5575 -274.782954 
L 237.593682 -274.782954 
L 230.629864 -274.782954 
L 223.666045 -274.782954 
L 216.702227 -274.782954 
L 209.738409 -274.782954 
L 202.774591 -274.782954 
L 195.810773 -274.782954 
L 188.846955 -274.782954 
L 181.883136 -274.782954 
L 174.919318 -274.782954 
L 167.9555 -274.782954 
L 160.991682 -274.782954 
L 154.027864 -274.782954 
L 147.064045 -274.782954 
L 140.100227 -274.782954 
L 133.136409 -274.782954 
L 126.172591 -274.782954 
L 119.208773 -274.782954 
L 112.244955 -274.782954 
L 105.281136 -274.782954 
L 98.317318 -274.782954 
L 91.3535 -274.782954 
L 84.389682 -274.782954 
L 77.425864 -274.782954 
L 70.462045 -274.782954 
z
" style="stroke: #dc143c; stroke-opacity: 0.2"/>
    </defs>
    <g clip-path="url(#pae8b58b70e)">
     <use xlink:href="#mcdf91c1b63" x="0" y="325.85" style="fill: #dc143c; fill-opacity: 0.2; stroke: #dc143c; stroke-opacity: 0.2"/>
    </g>
   </g>
   <g id="PolyCollection_2">
    <defs>
     <path id="m8d71a218b4" d="M 70.462045 -274.782954 
L 70.462045 -310.362247 
L 77.425864 -310.321626 
L 84.389682 -310.291445 
L 91.3535 -310.272278 
L 98.317318 -310.264423 
L 105.281136 -310.267824 
L 112.244955 -310.282026 
L 119.208773 -310.306128 
L 126.172591 -310.338768 
L 133.136409 -310.378092 
L 140.100227 -310.421768 
L 147.064045 -310.466978 
L 154.027864 -310.51045 
L 160.991682 -310.548476 
L 167.9555 -310.576963 
L 174.919318 -310.591428 
L 181.883136 -310.587058 
L 188.846955 -310.558702 
L 195.810773 -310.500884 
L 202.774591 -310.407792 
L 209.738409 -310.27325 
L 216.702227 -310.0907 
L 223.666045 -309.853144 
L 230.629864 -309.553128 
L 237.593682 -309.182722 
L 244.5575 -308.73354 
L 251.521318 -308.196822 
L 258.485136 -307.563617 
L 265.448955 -306.825054 
L 272.412773 -305.972827 
L 279.376591 -304.999795 
L 286.340409 -303.90083 
L 293.304227 -302.67381 
L 300.268045 -301.320708 
L 307.231864 -299.848656 
L 314.195682 -298.270796 
L 321.1595 -296.606623 
L 328.123318 -294.881715 
L 335.087136 -293.126586 
L 342.050955 -291.374774 
L 349.014773 -289.660337 
L 355.978591 -288.015172 
L 362.942409 -286.466546 
L 369.906227 -285.035358 
L 376.870045 -283.735242 
L 383.833864 -282.572615 
L 390.797682 -281.547484 
L 397.7615 -280.654715 
L 404.725318 -279.885511 
L 411.689136 -279.42497 
L 418.652955 -279.42497 
L 418.652955 -274.782954 
L 418.652955 -274.782954 
L 411.689136 -274.782954 
L 404.725318 -274.782954 
L 397.7615 -274.782954 
L 390.797682 -274.782954 
L 383.833864 -274.782954 
L 376.870045 -274.782954 
L 369.906227 -274.782954 
L 362.942409 -274.782954 
L 355.978591 -274.782954 
L 349.014773 -274.782954 
L 342.050955 -274.782954 
L 335.087136 -274.782954 
L 328.123318 -274.782954 
L 321.1595 -274.782954 
L 314.195682 -274.782954 
L 307.231864 -274.782954 
L 300.268045 -274.782954 
L 293.304227 -274.782954 
L 286.340409 -274.782954 
L 279.376591 -274.782954 
L 272.412773 -274.782954 
L 265.448955 -274.782954 
L 258.485136 -274.782954 
L 251.521318 -274.782954 
L 244.5575 -274.782954 
L 237.593682 -274.782954 
L 230.629864 -274.782954 
L 223.666045 -274.782954 
L 216.702227 -274.782954 
L 209.738409 -274.782954 
L 202.774591 -274.782954 
L 195.810773 -274.782954 
L 188.846955 -274.782954 
L 181.883136 -274.782954 
L 174.919318 -274.782954 
L 167.9555 -274.782954 
L 160.991682 -274.782954 
L 154.027864 -274.782954 
L 147.064045 -274.782954 
L 140.100227 -274.782954 
L 133.136409 -274.782954 
L 126.172591 -274.782954 
L 119.208773 -274.782954 
L 112.244955 -274.782954 
L 105.281136 -274.782954 
L 98.317318 -274.782954 
L 91.3535 -274.782954 
L 84.389682 -274.782954 
L 77.425864 -274.782954 
L 70.462045 -274.782954 
z
" style="stroke: #000080; stroke-opacity: 0.2"/>
    </defs>
    <g clip-path="url(#pae8b58b70e)">
     <use xlink:href="#m8d71a218b4" x="0" y="325.85" style="fill: #000080; fill-opacity: 0.2; stroke: #000080; stroke-opacity: 0.2"/>
    </g>
   </g>
   <g id="matplotlib.axis_1"/>
   <g id="matplotlib.axis_2"/>
   <g id="line2d_1">
    <path d="M 70.462045 40.226184 
L 77.425864 40.185563 
L 84.389682 40.155382 
L 91.3535 40.136216 
L 98.317318 40.12836 
L 105.281136 40.131761 
L 112.244955 40.145963 
L 119.208773 40.170065 
L 126.172591 40.202705 
L 133.136409 40.242029 
L 140.100227 40.285705 
L 147.064045 40.330915 
L 154.027864 40.374387 
L 160.991682 40.412413 
L 167.9555 40.4409 
L 174.919318 40.455365 
L 181.883136 40.450995 
L 188.846955 40.42264 
L 195.810773 40.364821 
L 202.774591 40.271729 
L 209.738409 40.137187 
L 216.702227 39.954637 
L 223.666045 39.717081 
L 230.629864 39.417065 
L 237.593682 39.046659 
L 244.5575 38.597477 
L 251.521318 38.060759 
L 258.485136 37.427554 
L 265.448955 36.688992 
L 272.412773 35.836764 
L 279.376591 34.863732 
L 286.340409 33.764768 
L 293.304227 32.537747 
L 300.268045 31.184645 
L 307.231864 29.712593 
L 314.195682 28.134733 
L 321.1595 26.47056 
L 328.123318 24.745652 
L 335.087136 22.990523 
L 342.050955 21.238711 
L 349.014773 19.524275 
L 355.978591 17.879109 
L 362.942409 16.330483 
L 369.906227 14.899296 
L 376.870045 13.599179 
L 383.833864 12.436552 
L 390.797682 11.411421 
L 397.7615 10.518653 
L 404.725318 9.749448 
L 411.689136 9.288907 
L 418.652955 9.288907 
" clip-path="url(#pae8b58b70e)" style="fill: none; stroke: #dc143c; stroke-width: 1.5; stroke-linecap: square"/>
   </g>
   <g id="line2d_2">
    <path d="M 70.462045 15.487753 
L 77.425864 15.528374 
L 84.389682 15.558555 
L 91.3535 15.577722 
L 98.317318 15.585577 
L 105.281136 15.582176 
L 112.244955 15.567974 
L 119.208773 15.543872 
L 126.172591 15.511232 
L 133.136409 15.471908 
L 140.100227 15.428232 
L 147.064045 15.383022 
L 154.027864 15.33955 
L 160.991682 15.301524 
L 167.9555 15.273037 
L 174.919318 15.258572 
L 181.883136 15.262942 
L 188.846955 15.291298 
L 195.810773 15.349116 
L 202.774591 15.442208 
L 209.738409 15.57675 
L 216.702227 15.7593 
L 223.666045 15.996856 
L 230.629864 16.296872 
L 237.593682 16.667278 
L 244.5575 17.11646 
L 251.521318 17.653178 
L 258.485136 18.286383 
L 265.448955 19.024946 
L 272.412773 19.877173 
L 279.376591 20.850205 
L 286.340409 21.94917 
L 293.304227 23.17619 
L 300.268045 24.529292 
L 307.231864 26.001344 
L 314.195682 27.579204 
L 321.1595 29.243377 
L 328.123318 30.968285 
L 335.087136 32.723414 
L 342.050955 34.475226 
L 349.014773 36.189663 
L 355.978591 37.834828 
L 362.942409 39.383454 
L 369.906227 40.814642 
L 376.870045 42.114758 
L 383.833864 43.277385 
L 390.797682 44.302516 
L 397.7615 45.195285 
L 404.725318 45.964489 
L 411.689136 46.42503 
L 418.652955 46.42503 
" clip-path="url(#pae8b58b70e)" style="fill: none; stroke: #000080; stroke-width: 1.5; stroke-linecap: square"/>
   </g>
  </g>
  <g id="axes_2">
   <g id="patch_3">
    <path d="M 53.0525 164.917976 
L 436.0625 164.917976 
L 436.0625 73.006071 
L 53.0525 73.006071 
z
" style="fill: #ffffff"/>
   </g>
   <g id="PathCollection_1">
    <defs>
     <path id="m47d3c971fb" d="M 0 0.866025 
C 0.229673 0.866025 0.449969 0.774776 0.612372 0.612372 
C 0.774776 0.449969 0.866025 0.229673 0.866025 0 
C 0.866025 -0.229673 0.774776 -0.449969 0.612372 -0.612372 
C 0.449969 -0.774776 0.229673 -0.866025 0 -0.866025 
C -0.229673 -0.866025 -0.449969 -0.774776 -0.612372 -0.612372 
C -0.774776 -0.449969 -0.866025 -0.229673 -0.866025 0 
C -0.866025 0.229673 -0.774776 0.449969 -0.612372 0.612372 
C -0.449969 0.774776 -0.229673 0.866025 0 0.866025 
z
" style="stroke: #daa520"/>
    </defs>
    <g clip-path="url(#p637deb9279)">
     <use xlink:href="#m47d3c971fb" x="335.240763" y="143.302213" style="fill: #daa520; stroke: #daa520"/>
     <use xlink:href="#m47d3c971fb" x="373.307511" y="146.404901" style="fill: #daa520; stroke: #daa520"/>
     <use xlink:href="#m47d3c971fb" x="311.065178" y="137.273515" style="fill: #daa520; stroke: #daa520"/>
     <use xlink:href="#m47d3c971fb" x="341.872968" y="139.065416" style="fill: #daa520; stroke: #daa520"/>
     <use xlink:href="#m47d3c971fb" x="143.712713" y="103.206528" style="fill: #daa520; stroke: #daa520"/>
     <use xlink:href="#m47d3c971fb" x="406.700857" y="160.740162" style="fill: #daa520; stroke: #daa520"/>
     <use xlink:href="#m47d3c971fb" x="186.556163" y="106.363498" style="fill: #daa520; stroke: #daa520"/>
     <use xlink:href="#m47d3c971fb" x="311.771357" y="138.345279" style="fill: #daa520; stroke: #daa520"/>
     <use xlink:href="#m47d3c971fb" x="361.176119" y="145.209101" style="fill: #daa520; stroke: #daa520"/>
     <use xlink:href="#m47d3c971fb" x="417.647946" y="145.30528" style="fill: #daa520; stroke: #daa520"/>
     <use xlink:href="#m47d3c971fb" x="259.722512" y="116.687934" style="fill: #daa520; stroke: #daa520"/>
     <use xlink:href="#m47d3c971fb" x="377.897986" y="155.343128" style="fill: #daa520; stroke: #daa520"/>
     <use xlink:href="#m47d3c971fb" x="410.733663" y="147.009807" style="fill: #daa520; stroke: #daa520"/>
     <use xlink:href="#m47d3c971fb" x="352.536552" y="134.467854" style="fill: #daa520; stroke: #daa520"/>
     <use xlink:href="#m47d3c971fb" x="298.469798" y="124.670511" style="fill: #daa520; stroke: #daa520"/>
     <use xlink:href="#m47d3c971fb" x="153.603448" y="102.027069" style="fill: #daa520; stroke: #daa520"/>
     <use xlink:href="#m47d3c971fb" x="370.001899" y="139.551612" style="fill: #daa520; stroke: #daa520"/>
     <use xlink:href="#m47d3c971fb" x="355.970045" y="142.829125" style="fill: #daa520; stroke: #daa520"/>
     <use xlink:href="#m47d3c971fb" x="349.953283" y="136.822659" style="fill: #daa520; stroke: #daa520"/>
     <use xlink:href="#m47d3c971fb" x="352.225401" y="151.337013" style="fill: #daa520; stroke: #daa520"/>
     <use xlink:href="#m47d3c971fb" x="395.86715" y="153.509139" style="fill: #daa520; stroke: #daa520"/>
     <use xlink:href="#m47d3c971fb" x="406.776392" y="155.544601" style="fill: #daa520; stroke: #daa520"/>
     <use xlink:href="#m47d3c971fb" x="373.061452" y="152.707103" style="fill: #daa520; stroke: #daa520"/>
     <use xlink:href="#m47d3c971fb" x="237.175194" y="113.184289" style="fill: #daa520; stroke: #daa520"/>
     <use xlink:href="#m47d3c971fb" x="400.282421" y="152.734234" style="fill: #daa520; stroke: #daa520"/>
     <use xlink:href="#m47d3c971fb" x="114.358287" y="101.557696" style="fill: #daa520; stroke: #daa520"/>
     <use xlink:href="#m47d3c971fb" x="279.616097" y="121.313926" style="fill: #daa520; stroke: #daa520"/>
     <use xlink:href="#m47d3c971fb" x="324.346135" y="137.185961" style="fill: #daa520; stroke: #daa520"/>
     <use xlink:href="#m47d3c971fb" x="279.517527" y="130.688264" style="fill: #daa520; stroke: #daa520"/>
     <use xlink:href="#m47d3c971fb" x="108.08196" y="106.590173" style="fill: #daa520; stroke: #daa520"/>
     <use xlink:href="#m47d3c971fb" x="301.926148" y="132.308076" style="fill: #daa520; stroke: #daa520"/>
     <use xlink:href="#m47d3c971fb" x="310.99773" y="137.203399" style="fill: #daa520; stroke: #daa520"/>
     <use xlink:href="#m47d3c971fb" x="160.000615" y="102.96347" style="fill: #daa520; stroke: #daa520"/>
     <use xlink:href="#m47d3c971fb" x="229.277642" y="103.082805" style="fill: #daa520; stroke: #daa520"/>
     <use xlink:href="#m47d3c971fb" x="196.425259" y="107.868657" style="fill: #daa520; stroke: #daa520"/>
     <use xlink:href="#m47d3c971fb" x="274.236675" y="124.398534" style="fill: #daa520; stroke: #daa520"/>
     <use xlink:href="#m47d3c971fb" x="183.892319" y="100.563684" style="fill: #daa520; stroke: #daa520"/>
     <use xlink:href="#m47d3c971fb" x="207.939349" y="103.49532" style="fill: #daa520; stroke: #daa520"/>
     <use xlink:href="#m47d3c971fb" x="128.676053" y="103.543227" style="fill: #daa520; stroke: #daa520"/>
     <use xlink:href="#m47d3c971fb" x="405.217858" y="145.822672" style="fill: #daa520; stroke: #daa520"/>
     <use xlink:href="#m47d3c971fb" x="225.322075" y="102.787472" style="fill: #daa520; stroke: #daa520"/>
     <use xlink:href="#m47d3c971fb" x="360.70424" y="142.219413" style="fill: #daa520; stroke: #daa520"/>
     <use xlink:href="#m47d3c971fb" x="117.981662" y="103.366071" style="fill: #daa520; stroke: #daa520"/>
     <use xlink:href="#m47d3c971fb" x="327.150674" y="138.533047" style="fill: #daa520; stroke: #daa520"/>
     <use xlink:href="#m47d3c971fb" x="301.74344" y="128.142892" style="fill: #daa520; stroke: #daa520"/>
     <use xlink:href="#m47d3c971fb" x="370.928099" y="154.390339" style="fill: #daa520; stroke: #daa520"/>
     <use xlink:href="#m47d3c971fb" x="241.895316" y="121.353646" style="fill: #daa520; stroke: #daa520"/>
     <use xlink:href="#m47d3c971fb" x="397.209132" y="159.725074" style="fill: #daa520; stroke: #daa520"/>
     <use xlink:href="#m47d3c971fb" x="157.718663" y="106.627397" style="fill: #daa520; stroke: #daa520"/>
     <use xlink:href="#m47d3c971fb" x="341.800385" y="140.167962" style="fill: #daa520; stroke: #daa520"/>
     <use xlink:href="#m47d3c971fb" x="279.714676" y="133.561984" style="fill: #daa520; stroke: #daa520"/>
     <use xlink:href="#m47d3c971fb" x="390.625308" y="145.66587" style="fill: #daa520; stroke: #daa520"/>
     <use xlink:href="#m47d3c971fb" x="95.458009" y="99.628911" style="fill: #daa520; stroke: #daa520"/>
     <use xlink:href="#m47d3c971fb" x="182.760619" y="102.60449" style="fill: #daa520; stroke: #daa520"/>
     <use xlink:href="#m47d3c971fb" x="342.473374" y="138.247612" style="fill: #daa520; stroke: #daa520"/>
     <use xlink:href="#m47d3c971fb" x="367.239926" y="148.936328" style="fill: #daa520; stroke: #daa520"/>
     <use xlink:href="#m47d3c971fb" x="380.904858" y="158.601481" style="fill: #daa520; stroke: #daa520"/>
     <use xlink:href="#m47d3c971fb" x="277.171133" y="122.595703" style="fill: #daa520; stroke: #daa520"/>
     <use xlink:href="#m47d3c971fb" x="297.126455" y="135.34503" style="fill: #daa520; stroke: #daa520"/>
     <use xlink:href="#m47d3c971fb" x="326.361506" y="137.753134" style="fill: #daa520; stroke: #daa520"/>
     <use xlink:href="#m47d3c971fb" x="113.787298" y="98.337378" style="fill: #daa520; stroke: #daa520"/>
     <use xlink:href="#m47d3c971fb" x="351.969394" y="141.554103" style="fill: #daa520; stroke: #daa520"/>
     <use xlink:href="#m47d3c971fb" x="246.075592" y="122.913749" style="fill: #daa520; stroke: #daa520"/>
     <use xlink:href="#m47d3c971fb" x="281.125063" y="120.318134" style="fill: #daa520; stroke: #daa520"/>
     <use xlink:href="#m47d3c971fb" x="376.464299" y="140.753164" style="fill: #daa520; stroke: #daa520"/>
     <use xlink:href="#m47d3c971fb" x="90.734251" y="93.410175" style="fill: #daa520; stroke: #daa520"/>
     <use xlink:href="#m47d3c971fb" x="347.881185" y="147.278527" style="fill: #daa520; stroke: #daa520"/>
     <use xlink:href="#m47d3c971fb" x="220.908159" y="107.035712" style="fill: #daa520; stroke: #daa520"/>
     <use xlink:href="#m47d3c971fb" x="367.789186" y="156.242238" style="fill: #daa520; stroke: #daa520"/>
     <use xlink:href="#m47d3c971fb" x="415.235391" y="149.933465" style="fill: #daa520; stroke: #daa520"/>
     <use xlink:href="#m47d3c971fb" x="358.248296" y="143.375676" style="fill: #daa520; stroke: #daa520"/>
     <use xlink:href="#m47d3c971fb" x="93.408462" y="77.183885" style="fill: #daa520; stroke: #daa520"/>
     <use xlink:href="#m47d3c971fb" x="291.520422" y="134.569164" style="fill: #daa520; stroke: #daa520"/>
     <use xlink:href="#m47d3c971fb" x="381.467353" y="157.619697" style="fill: #daa520; stroke: #daa520"/>
     <use xlink:href="#m47d3c971fb" x="261.849016" y="131.05736" style="fill: #daa520; stroke: #daa520"/>
     <use xlink:href="#m47d3c971fb" x="256.985815" y="122.055255" style="fill: #daa520; stroke: #daa520"/>
     <use xlink:href="#m47d3c971fb" x="218.990763" y="109.45037" style="fill: #daa520; stroke: #daa520"/>
     <use xlink:href="#m47d3c971fb" x="340.044257" y="137.002181" style="fill: #daa520; stroke: #daa520"/>
     <use xlink:href="#m47d3c971fb" x="298.163963" y="135.597824" style="fill: #daa520; stroke: #daa520"/>
     <use xlink:href="#m47d3c971fb" x="413.105861" y="147.525642" style="fill: #daa520; stroke: #daa520"/>
     <use xlink:href="#m47d3c971fb" x="414.241204" y="148.161309" style="fill: #daa520; stroke: #daa520"/>
     <use xlink:href="#m47d3c971fb" x="189.153416" y="100.357087" style="fill: #daa520; stroke: #daa520"/>
     <use xlink:href="#m47d3c971fb" x="412.006447" y="159.697436" style="fill: #daa520; stroke: #daa520"/>
     <use xlink:href="#m47d3c971fb" x="330.670498" y="146.899275" style="fill: #daa520; stroke: #daa520"/>
     <use xlink:href="#m47d3c971fb" x="389.32379" y="143.828603" style="fill: #daa520; stroke: #daa520"/>
     <use xlink:href="#m47d3c971fb" x="250.034192" y="116.411206" style="fill: #daa520; stroke: #daa520"/>
     <use xlink:href="#m47d3c971fb" x="239.198091" y="106.491164" style="fill: #daa520; stroke: #daa520"/>
     <use xlink:href="#m47d3c971fb" x="396.407484" y="159.532005" style="fill: #daa520; stroke: #daa520"/>
     <use xlink:href="#m47d3c971fb" x="295.977976" y="130.815885" style="fill: #daa520; stroke: #daa520"/>
     <use xlink:href="#m47d3c971fb" x="386.740237" y="142.213875" style="fill: #daa520; stroke: #daa520"/>
     <use xlink:href="#m47d3c971fb" x="204.292175" y="100.637682" style="fill: #daa520; stroke: #daa520"/>
     <use xlink:href="#m47d3c971fb" x="292.43809" y="134.672366" style="fill: #daa520; stroke: #daa520"/>
     <use xlink:href="#m47d3c971fb" x="70.71292" y="94.987185" style="fill: #daa520; stroke: #daa520"/>
    </g>
   </g>
   <g id="matplotlib.axis_3"/>
   <g id="matplotlib.axis_4">
    <g id="ytick_1">
     <g id="line2d_3">
      <defs>
       <path id="m69322a1c07" d="M 0 0 
L -3.5 0 
" style="stroke: #696969; stroke-width: 0.8"/>
      </defs>
      <g>
       <use xlink:href="#m69322a1c07" x="53.0525" y="142.132442" style="fill: #696969; stroke: #696969; stroke-width: 0.8"/>
      </g>
     </g>
     <g id="text_1">
      <!-- −5 -->
      <g style="fill: #696969" transform="translate(22.465 148.211192) scale(0.16 -0.16)">
       <defs>
        <path id="DejaVuSans-2212" d="M 678 2272 
L 4684 2272 
L 4684 1741 
L 678 1741 
L 678 2272 
z
" transform="scale(0.015625)"/>
        <path id="DejaVuSans-35" d="M 691 4666 
L 3169 4666 
L 3169 4134 
L 1269 4134 
L 1269 2991 
Q 1406 3038 1543 3061 
Q 1681 3084 1819 3084 
Q 2600 3084 3056 2656 
Q 3513 2228 3513 1497 
Q 3513 744 3044 326 
Q 2575 -91 1722 -91 
Q 1428 -91 1123 -41 
Q 819 9 494 109 
L 494 744 
Q 775 591 1075 516 
Q 1375 441 1709 441 
Q 2250 441 2565 725 
Q 2881 1009 2881 1497 
Q 2881 1984 2565 2268 
Q 2250 2553 1709 2553 
Q 1456 2553 1204 2497 
Q 953 2441 691 2322 
L 691 4666 
z
" transform="scale(0.015625)"/>
       </defs>
       <use xlink:href="#DejaVuSans-2212"/>
       <use xlink:href="#DejaVuSans-35" x="83.789062"/>
      </g>
     </g>
    </g>
    <g id="ytick_2">
     <g id="line2d_4">
      <g>
       <use xlink:href="#m69322a1c07" x="53.0525" y="108.856057" style="fill: #696969; stroke: #696969; stroke-width: 0.8"/>
      </g>
     </g>
     <g id="text_2">
      <!-- 0 -->
      <g style="fill: #696969" transform="translate(35.8725 114.934807) scale(0.16 -0.16)">
       <defs>
        <path id="DejaVuSans-30" d="M 2034 4250 
Q 1547 4250 1301 3770 
Q 1056 3291 1056 2328 
Q 1056 1369 1301 889 
Q 1547 409 2034 409 
Q 2525 409 2770 889 
Q 3016 1369 3016 2328 
Q 3016 3291 2770 3770 
Q 2525 4250 2034 4250 
z
M 2034 4750 
Q 2819 4750 3233 4129 
Q 3647 3509 3647 2328 
Q 3647 1150 3233 529 
Q 2819 -91 2034 -91 
Q 1250 -91 836 529 
Q 422 1150 422 2328 
Q 422 3509 836 4129 
Q 1250 4750 2034 4750 
z
" transform="scale(0.015625)"/>
       </defs>
       <use xlink:href="#DejaVuSans-30"/>
      </g>
     </g>
    </g>
    <g id="ytick_3">
     <g id="line2d_5">
      <g>
       <use xlink:href="#m69322a1c07" x="53.0525" y="75.579672" style="fill: #696969; stroke: #696969; stroke-width: 0.8"/>
      </g>
     </g>
     <g id="text_3">
      <!-- 5 -->
      <g style="fill: #696969" transform="translate(35.8725 81.658422) scale(0.16 -0.16)">
       <use xlink:href="#DejaVuSans-35"/>
      </g>
     </g>
    </g>
   </g>
   <g id="line2d_6">
    <path d="M 70.462045 94.42379 
L 77.425864 95.259952 
L 84.389682 96.178614 
L 91.3535 97.158773 
L 98.317318 98.176808 
L 105.281136 99.208163 
L 112.244955 100.229021 
L 119.208773 101.217874 
L 126.172591 102.156877 
L 133.136409 103.032933 
L 140.100227 103.838407 
L 147.064045 104.571464 
L 154.027864 105.236081 
L 160.991682 105.841667 
L 167.9555 106.402468 
L 174.919318 106.93671 
L 181.883136 107.46565 
L 188.846955 108.012533 
L 195.810773 108.601543 
L 202.774591 109.256784 
L 209.738409 110.001283 
L 216.702227 110.856071 
L 223.666045 111.83929 
L 230.629864 112.965371 
L 237.593682 114.244283 
L 244.5575 115.680863 
L 251.521318 117.274275 
L 258.485136 119.017681 
L 265.448955 120.898118 
L 272.412773 122.89669 
L 279.376591 124.989094 
L 286.340409 127.146496 
L 293.304227 129.336716 
L 300.268045 131.525732 
L 307.231864 133.679354 
L 314.195682 135.764968 
L 321.1595 137.753251 
L 328.123318 139.61968 
L 335.087136 141.345728 
L 342.050955 142.919667 
L 349.014773 144.336892 
L 355.978591 145.599762 
L 362.942409 146.717001 
L 369.906227 147.702729 
L 376.870045 148.575212 
L 383.833864 149.355462 
L 390.797682 150.065852 
L 397.7615 150.728795 
L 404.725318 151.365638 
L 411.689136 151.995798 
L 418.652955 152.636173 
" clip-path="url(#p637deb9279)" style="fill: none; stroke: #000000; stroke-width: 2; stroke-linecap: square"/>
   </g>
   <g id="line2d_7">
    <path d="M 70.462045 91.893422 
L 77.425864 93.122735 
L 84.389682 94.181341 
L 91.3535 95.131079 
L 98.317318 96.016394 
L 105.281136 96.868675 
L 112.244955 97.709653 
L 119.208773 98.554026 
L 126.172591 99.41147 
L 133.136409 100.288147 
L 140.100227 101.187818 
L 147.064045 102.112658 
L 154.027864 103.063836 
L 160.991682 104.04191 
L 167.9555 105.047109 
L 174.919318 106.079507 
L 181.883136 107.139137 
L 188.846955 108.226067 
L 195.810773 109.340437 
L 202.774591 110.482484 
L 209.738409 111.652554 
L 216.702227 112.851107 
L 223.666045 114.078725 
L 230.629864 115.336107 
L 237.593682 116.624069 
L 244.5575 117.943545 
L 251.521318 119.295573 
L 258.485136 120.681297 
L 265.448955 122.10194 
L 272.412773 123.55879 
L 279.376591 125.05316 
L 286.340409 126.586338 
L 293.304227 128.159504 
L 300.268045 129.773615 
L 307.231864 131.429233 
L 314.195682 133.126273 
L 321.1595 134.863651 
L 328.123318 136.638787 
L 335.087136 138.446918 
L 342.050955 140.280163 
L 349.014773 142.126267 
L 355.978591 143.966942 
L 362.942409 145.775688 
L 369.906227 147.514982 
L 376.870045 149.132677 
L 383.833864 150.557449 
L 390.797682 151.693085 
L 397.7615 152.411378 
L 404.725318 152.543383 
L 411.689136 151.868709 
L 418.652955 150.102528 
" clip-path="url(#p637deb9279)" style="fill: none; stroke-dasharray: 7.4,3.2; stroke-dashoffset: 0; stroke: #34b6c6; stroke-width: 2"/>
   </g>
   <g id="line2d_8">
    <path d="M 70.462045 93.556504 
L 77.425864 93.974842 
L 84.389682 94.343521 
L 91.3535 94.721531 
L 98.317318 95.14762 
L 105.281136 95.645019 
L 112.244955 96.225295 
L 119.208773 96.891486 
L 126.172591 97.640645 
L 133.136409 98.465898 
L 140.100227 99.358084 
L 147.064045 100.307057 
L 154.027864 101.302692 
L 160.991682 102.335642 
L 167.9555 103.397888 
L 174.919318 104.483119 
L 181.883136 105.586975 
L 188.846955 106.707182 
L 195.810773 107.843607 
L 202.774591 108.998251 
L 209.738409 110.17518 
L 216.702227 111.380405 
L 223.666045 112.621686 
L 230.629864 113.908242 
L 237.593682 115.250315 
L 244.5575 116.658555 
L 251.521318 118.143172 
L 258.485136 119.712852 
L 265.448955 121.37346 
L 272.412773 123.126662 
L 279.376591 124.968644 
L 286.340409 126.889245 
L 293.304227 128.871774 
L 300.268045 130.893736 
L 307.231864 132.928497 
L 314.195682 134.947644 
L 321.1595 136.923628 
L 328.123318 138.832109 
L 335.087136 140.653576 
L 342.050955 142.373922 
L 349.014773 143.983953 
L 355.978591 145.477952 
L 362.942409 146.851523 
L 369.906227 148.098921 
L 376.870045 149.210007 
L 383.833864 150.166856 
L 390.797682 150.939948 
L 397.7615 151.483828 
L 404.725318 151.732003 
L 411.689136 151.590885 
L 418.652955 150.932496 
" clip-path="url(#p637deb9279)" style="fill: none; stroke-dasharray: 7.4,3.2; stroke-dashoffset: 0; stroke: #9370db; stroke-width: 2"/>
   </g>
   <g id="line2d_9">
    <path d="M 70.462045 87.755108 
L 77.425864 89.062871 
L 84.389682 90.41539 
L 91.3535 91.807443 
L 98.317318 93.232865 
L 105.281136 94.684663 
L 112.244955 96.155188 
L 119.208773 97.636361 
L 126.172591 99.119947 
L 133.136409 100.597857 
L 140.100227 102.062452 
L 147.064045 103.506848 
L 154.027864 104.92518 
L 160.991682 106.312838 
L 167.9555 107.666644 
L 174.919318 108.984983 
L 181.883136 110.267888 
L 188.846955 111.517079 
L 195.810773 112.735968 
L 202.774591 113.929633 
L 209.738409 115.10475 
L 216.702227 116.269492 
L 223.666045 117.433359 
L 230.629864 118.606923 
L 237.593682 119.801445 
L 244.5575 121.028321 
L 251.521318 122.298316 
L 258.485136 123.620579 
L 265.448955 125.001461 
L 272.412773 126.443255 
L 279.376591 127.943031 
L 286.340409 129.49185 
L 293.304227 131.074611 
L 300.268045 132.670751 
L 307.231864 134.255812 
L 314.195682 135.803692 
L 321.1595 137.289173 
L 328.123318 138.690255 
L 335.087136 139.98989 
L 342.050955 141.176869 
L 349.014773 142.245881 
L 355.978591 143.196884 
L 362.942409 144.034076 
L 369.906227 144.764696 
L 376.870045 145.397881 
L 383.833864 145.943683 
L 390.797682 146.412321 
L 397.7615 146.813649 
L 404.725318 147.15682 
L 411.689136 147.450111 
L 418.652955 147.70085 
" clip-path="url(#p637deb9279)" style="fill: none; stroke-dasharray: 12.8,3.2,2,3.2; stroke-dashoffset: 0; stroke: #ff0000; stroke-width: 2"/>
   </g>
   <g id="patch_4">
    <path d="M 53.0525 164.917976 
L 53.0525 73.006071 
" style="fill: none; stroke: #000000; stroke-width: 0.8; stroke-linejoin: miter; stroke-linecap: square"/>
   </g>
   <g id="patch_5">
    <path d="M 436.0625 164.917976 
L 436.0625 73.006071 
" style="fill: none; stroke: #000000; stroke-width: 0.8; stroke-linejoin: miter; stroke-linecap: square"/>
   </g>
   <g id="patch_6">
    <path d="M 53.0525 164.917976 
L 436.0625 164.917976 
" style="fill: none; stroke: #000000; stroke-width: 0.8; stroke-linejoin: miter; stroke-linecap: square"/>
   </g>
   <g id="patch_7">
    <path d="M 53.0525 73.006071 
L 436.0625 73.006071 
" style="fill: none; stroke: #000000; stroke-width: 0.8; stroke-linejoin: miter; stroke-linecap: square"/>
   </g>
  </g>
  <g id="axes_3">
   <g id="patch_8">
    <path d="M 53.0525 276.68 
L 436.0625 276.68 
L 436.0625 184.768095 
L 53.0525 184.768095 
z
" style="fill: #ffffff"/>
   </g>
   <g id="PathCollection_2">
    <g clip-path="url(#p97b2351c9b)">
     <use xlink:href="#m47d3c971fb" x="335.240763" y="218.579181" style="fill: #daa520; stroke: #daa520"/>
     <use xlink:href="#m47d3c971fb" x="373.307511" y="224.283547" style="fill: #daa520; stroke: #daa520"/>
     <use xlink:href="#m47d3c971fb" x="311.065178" y="221.845646" style="fill: #daa520; stroke: #daa520"/>
     <use xlink:href="#m47d3c971fb" x="341.872968" y="234.156809" style="fill: #daa520; stroke: #daa520"/>
     <use xlink:href="#m47d3c971fb" x="143.712713" y="226.975384" style="fill: #daa520; stroke: #daa520"/>
     <use xlink:href="#m47d3c971fb" x="406.700857" y="188.945909" style="fill: #daa520; stroke: #daa520"/>
     <use xlink:href="#m47d3c971fb" x="186.556163" y="241.887256" style="fill: #daa520; stroke: #daa520"/>
     <use xlink:href="#m47d3c971fb" x="311.771357" y="219.189465" style="fill: #daa520; stroke: #daa520"/>
     <use xlink:href="#m47d3c971fb" x="361.176119" y="224.11646" style="fill: #daa520; stroke: #daa520"/>
     <use xlink:href="#m47d3c971fb" x="417.647946" y="234.967061" style="fill: #daa520; stroke: #daa520"/>
     <use xlink:href="#m47d3c971fb" x="259.722512" y="248.93214" style="fill: #daa520; stroke: #daa520"/>
     <use xlink:href="#m47d3c971fb" x="377.897986" y="199.498355" style="fill: #daa520; stroke: #daa520"/>
     <use xlink:href="#m47d3c971fb" x="410.733663" y="229.281531" style="fill: #daa520; stroke: #daa520"/>
     <use xlink:href="#m47d3c971fb" x="352.536552" y="252.124433" style="fill: #daa520; stroke: #daa520"/>
     <use xlink:href="#m47d3c971fb" x="298.469798" y="250.135125" style="fill: #daa520; stroke: #daa520"/>
     <use xlink:href="#m47d3c971fb" x="153.603448" y="236.275244" style="fill: #daa520; stroke: #daa520"/>
     <use xlink:href="#m47d3c971fb" x="370.001899" y="243.26937" style="fill: #daa520; stroke: #daa520"/>
     <use xlink:href="#m47d3c971fb" x="355.970045" y="229.176839" style="fill: #daa520; stroke: #daa520"/>
     <use xlink:href="#m47d3c971fb" x="349.953283" y="244.243918" style="fill: #daa520; stroke: #daa520"/>
     <use xlink:href="#m47d3c971fb" x="352.225401" y="203.042691" style="fill: #daa520; stroke: #daa520"/>
     <use xlink:href="#m47d3c971fb" x="395.86715" y="208.381782" style="fill: #daa520; stroke: #daa520"/>
     <use xlink:href="#m47d3c971fb" x="406.776392" y="204.034162" style="fill: #daa520; stroke: #daa520"/>
     <use xlink:href="#m47d3c971fb" x="373.061452" y="205.927937" style="fill: #daa520; stroke: #daa520"/>
     <use xlink:href="#m47d3c971fb" x="237.175194" y="247.106554" style="fill: #daa520; stroke: #daa520"/>
     <use xlink:href="#m47d3c971fb" x="400.282421" y="211.30851" style="fill: #daa520; stroke: #daa520"/>
     <use xlink:href="#m47d3c971fb" x="114.358287" y="213.735744" style="fill: #daa520; stroke: #daa520"/>
     <use xlink:href="#m47d3c971fb" x="279.616097" y="247.504328" style="fill: #daa520; stroke: #daa520"/>
     <use xlink:href="#m47d3c971fb" x="324.346135" y="230.306717" style="fill: #daa520; stroke: #daa520"/>
     <use xlink:href="#m47d3c971fb" x="279.517527" y="220.235076" style="fill: #daa520; stroke: #daa520"/>
     <use xlink:href="#m47d3c971fb" x="108.08196" y="195.271418" style="fill: #daa520; stroke: #daa520"/>
     <use xlink:href="#m47d3c971fb" x="301.926148" y="230.266315" style="fill: #daa520; stroke: #daa520"/>
     <use xlink:href="#m47d3c971fb" x="310.99773" y="222.005665" style="fill: #daa520; stroke: #daa520"/>
     <use xlink:href="#m47d3c971fb" x="160.000615" y="237.266014" style="fill: #daa520; stroke: #daa520"/>
     <use xlink:href="#m47d3c971fb" x="229.277642" y="272.502186" style="fill: #daa520; stroke: #daa520"/>
     <use xlink:href="#m47d3c971fb" x="196.425259" y="242.547141" style="fill: #daa520; stroke: #daa520"/>
     <use xlink:href="#m47d3c971fb" x="274.236675" y="235.171441" style="fill: #daa520; stroke: #daa520"/>
     <use xlink:href="#m47d3c971fb" x="183.892319" y="257.332238" style="fill: #daa520; stroke: #daa520"/>
     <use xlink:href="#m47d3c971fb" x="207.939349" y="260.928781" style="fill: #daa520; stroke: #daa520"/>
     <use xlink:href="#m47d3c971fb" x="128.676053" y="216.82037" style="fill: #daa520; stroke: #daa520"/>
     <use xlink:href="#m47d3c971fb" x="405.217858" y="232.049399" style="fill: #daa520; stroke: #daa520"/>
     <use xlink:href="#m47d3c971fb" x="225.322075" y="271.424646" style="fill: #daa520; stroke: #daa520"/>
     <use xlink:href="#m47d3c971fb" x="360.70424" y="232.633234" style="fill: #daa520; stroke: #daa520"/>
     <use xlink:href="#m47d3c971fb" x="117.981662" y="210.725084" style="fill: #daa520; stroke: #daa520"/>
     <use xlink:href="#m47d3c971fb" x="327.150674" y="228.017747" style="fill: #daa520; stroke: #daa520"/>
     <use xlink:href="#m47d3c971fb" x="301.74344" y="242.233433" style="fill: #daa520; stroke: #daa520"/>
     <use xlink:href="#m47d3c971fb" x="370.928099" y="200.463542" style="fill: #daa520; stroke: #daa520"/>
     <use xlink:href="#m47d3c971fb" x="241.895316" y="225.794178" style="fill: #daa520; stroke: #daa520"/>
     <use xlink:href="#m47d3c971fb" x="397.209132" y="190.554873" style="fill: #daa520; stroke: #daa520"/>
     <use xlink:href="#m47d3c971fb" x="157.718663" y="225.318705" style="fill: #daa520; stroke: #daa520"/>
     <use xlink:href="#m47d3c971fb" x="341.800385" y="230.922722" style="fill: #daa520; stroke: #daa520"/>
     <use xlink:href="#m47d3c971fb" x="279.714676" y="212.020425" style="fill: #daa520; stroke: #daa520"/>
     <use xlink:href="#m47d3c971fb" x="390.625308" y="230.247877" style="fill: #daa520; stroke: #daa520"/>
     <use xlink:href="#m47d3c971fb" x="95.458009" y="207.84084" style="fill: #daa520; stroke: #daa520"/>
     <use xlink:href="#m47d3c971fb" x="182.760619" y="250.815705" style="fill: #daa520; stroke: #daa520"/>
     <use xlink:href="#m47d3c971fb" x="342.473374" y="236.812099" style="fill: #daa520; stroke: #daa520"/>
     <use xlink:href="#m47d3c971fb" x="367.239926" y="215.228729" style="fill: #daa520; stroke: #daa520"/>
     <use xlink:href="#m47d3c971fb" x="380.904858" y="190.73958" style="fill: #daa520; stroke: #daa520"/>
     <use xlink:href="#m47d3c971fb" x="277.171133" y="242.236374" style="fill: #daa520; stroke: #daa520"/>
     <use xlink:href="#m47d3c971fb" x="297.126455" y="218.261059" style="fill: #daa520; stroke: #daa520"/>
     <use xlink:href="#m47d3c971fb" x="326.361506" y="229.829846" style="fill: #daa520; stroke: #daa520"/>
     <use xlink:href="#m47d3c971fb" x="113.787298" y="222.729726" style="fill: #daa520; stroke: #daa520"/>
     <use xlink:href="#m47d3c971fb" x="351.969394" y="231.332793" style="fill: #daa520; stroke: #daa520"/>
     <use xlink:href="#m47d3c971fb" x="246.075592" y="223.432567" style="fill: #daa520; stroke: #daa520"/>
     <use xlink:href="#m47d3c971fb" x="281.125063" y="251.358556" style="fill: #daa520; stroke: #daa520"/>
     <use xlink:href="#m47d3c971fb" x="376.464299" y="241.492915" style="fill: #daa520; stroke: #daa520"/>
     <use xlink:href="#m47d3c971fb" x="90.734251" y="223.09774" style="fill: #daa520; stroke: #daa520"/>
     <use xlink:href="#m47d3c971fb" x="347.881185" y="213.025262" style="fill: #daa520; stroke: #daa520"/>
     <use xlink:href="#m47d3c971fb" x="220.908159" y="256.949754" style="fill: #daa520; stroke: #daa520"/>
     <use xlink:href="#m47d3c971fb" x="367.789186" y="194.18881" style="fill: #daa520; stroke: #daa520"/>
     <use xlink:href="#m47d3c971fb" x="415.235391" y="221.290209" style="fill: #daa520; stroke: #daa520"/>
     <use xlink:href="#m47d3c971fb" x="358.248296" y="228.421128" style="fill: #daa520; stroke: #daa520"/>
     <use xlink:href="#m47d3c971fb" x="93.408462" y="271.7652" style="fill: #daa520; stroke: #daa520"/>
     <use xlink:href="#m47d3c971fb" x="291.520422" y="216.787729" style="fill: #daa520; stroke: #daa520"/>
     <use xlink:href="#m47d3c971fb" x="381.467353" y="193.714503" style="fill: #daa520; stroke: #daa520"/>
     <use xlink:href="#m47d3c971fb" x="261.849016" y="208.443368" style="fill: #daa520; stroke: #daa520"/>
     <use xlink:href="#m47d3c971fb" x="256.985815" y="231.81551" style="fill: #daa520; stroke: #daa520"/>
     <use xlink:href="#m47d3c971fb" x="218.990763" y="249.012259" style="fill: #daa520; stroke: #daa520"/>
     <use xlink:href="#m47d3c971fb" x="340.044257" y="239.270672" style="fill: #daa520; stroke: #daa520"/>
     <use xlink:href="#m47d3c971fb" x="298.163963" y="218.217995" style="fill: #daa520; stroke: #daa520"/>
     <use xlink:href="#m47d3c971fb" x="413.105861" y="228.050898" style="fill: #daa520; stroke: #daa520"/>
     <use xlink:href="#m47d3c971fb" x="414.241204" y="226.328617" style="fill: #daa520; stroke: #daa520"/>
     <use xlink:href="#m47d3c971fb" x="189.153416" y="260.659006" style="fill: #daa520; stroke: #daa520"/>
     <use xlink:href="#m47d3c971fb" x="412.006447" y="192.603826" style="fill: #daa520; stroke: #daa520"/>
     <use xlink:href="#m47d3c971fb" x="330.670498" y="205.704114" style="fill: #daa520; stroke: #daa520"/>
     <use xlink:href="#m47d3c971fb" x="389.32379" y="235.340617" style="fill: #daa520; stroke: #daa520"/>
     <use xlink:href="#m47d3c971fb" x="250.034192" y="244.399406" style="fill: #daa520; stroke: #daa520"/>
     <use xlink:href="#m47d3c971fb" x="239.198091" y="267.553051" style="fill: #daa520; stroke: #daa520"/>
     <use xlink:href="#m47d3c971fb" x="396.407484" y="190.98864" style="fill: #daa520; stroke: #daa520"/>
     <use xlink:href="#m47d3c971fb" x="295.977976" y="230.641264" style="fill: #daa520; stroke: #daa520"/>
     <use xlink:href="#m47d3c971fb" x="386.740237" y="239.530651" style="fill: #daa520; stroke: #daa520"/>
     <use xlink:href="#m47d3c971fb" x="204.292175" y="267.436061" style="fill: #daa520; stroke: #daa520"/>
     <use xlink:href="#m47d3c971fb" x="292.43809" y="217.096389" style="fill: #daa520; stroke: #daa520"/>
     <use xlink:href="#m47d3c971fb" x="70.71292" y="207.25787" style="fill: #daa520; stroke: #daa520"/>
    </g>
   </g>
   <g id="matplotlib.axis_5">
    <g id="xtick_1">
     <g id="line2d_10">
      <defs>
       <path id="m5cd1fec871" d="M 0 0 
L 0 3.5 
" style="stroke: #696969; stroke-width: 0.8"/>
      </defs>
      <g>
       <use xlink:href="#m5cd1fec871" x="70.462045" y="276.68" style="fill: #696969; stroke: #696969; stroke-width: 0.8"/>
      </g>
     </g>
     <g id="text_4">
      <!-- −1.0 -->
      <g style="fill: #696969" transform="translate(51.035795 295.8375) scale(0.16 -0.16)">
       <defs>
        <path id="DejaVuSans-31" d="M 794 531 
L 1825 531 
L 1825 4091 
L 703 3866 
L 703 4441 
L 1819 4666 
L 2450 4666 
L 2450 531 
L 3481 531 
L 3481 0 
L 794 0 
L 794 531 
z
" transform="scale(0.015625)"/>
        <path id="DejaVuSans-2e" d="M 684 794 
L 1344 794 
L 1344 0 
L 684 0 
L 684 794 
z
" transform="scale(0.015625)"/>
       </defs>
       <use xlink:href="#DejaVuSans-2212"/>
       <use xlink:href="#DejaVuSans-31" x="83.789062"/>
       <use xlink:href="#DejaVuSans-2e" x="147.412109"/>
       <use xlink:href="#DejaVuSans-30" x="179.199219"/>
      </g>
     </g>
    </g>
    <g id="xtick_2">
     <g id="line2d_11">
      <g>
       <use xlink:href="#m5cd1fec871" x="157.509773" y="276.68" style="fill: #696969; stroke: #696969; stroke-width: 0.8"/>
      </g>
     </g>
     <g id="text_5">
      <!-- −0.5 -->
      <g style="fill: #696969" transform="translate(138.083523 295.8375) scale(0.16 -0.16)">
       <use xlink:href="#DejaVuSans-2212"/>
       <use xlink:href="#DejaVuSans-30" x="83.789062"/>
       <use xlink:href="#DejaVuSans-2e" x="147.412109"/>
       <use xlink:href="#DejaVuSans-35" x="179.199219"/>
      </g>
     </g>
    </g>
    <g id="xtick_3">
     <g id="line2d_12">
      <g>
       <use xlink:href="#m5cd1fec871" x="244.5575" y="276.68" style="fill: #696969; stroke: #696969; stroke-width: 0.8"/>
      </g>
     </g>
     <g id="text_6">
      <!-- 0.0 -->
      <g style="fill: #696969" transform="translate(231.835 295.8375) scale(0.16 -0.16)">
       <use xlink:href="#DejaVuSans-30"/>
       <use xlink:href="#DejaVuSans-2e" x="63.623047"/>
       <use xlink:href="#DejaVuSans-30" x="95.410156"/>
      </g>
     </g>
    </g>
    <g id="xtick_4">
     <g id="line2d_13">
      <g>
       <use xlink:href="#m5cd1fec871" x="331.605227" y="276.68" style="fill: #696969; stroke: #696969; stroke-width: 0.8"/>
      </g>
     </g>
     <g id="text_7">
      <!-- 0.5 -->
      <g style="fill: #696969" transform="translate(318.882727 295.8375) scale(0.16 -0.16)">
       <use xlink:href="#DejaVuSans-30"/>
       <use xlink:href="#DejaVuSans-2e" x="63.623047"/>
       <use xlink:href="#DejaVuSans-35" x="95.410156"/>
      </g>
     </g>
    </g>
    <g id="xtick_5">
     <g id="line2d_14">
      <g>
       <use xlink:href="#m5cd1fec871" x="418.652955" y="276.68" style="fill: #696969; stroke: #696969; stroke-width: 0.8"/>
      </g>
     </g>
     <g id="text_8">
      <!-- 1.0 -->
      <g style="fill: #696969" transform="translate(405.930455 295.8375) scale(0.16 -0.16)">
       <use xlink:href="#DejaVuSans-31"/>
       <use xlink:href="#DejaVuSans-2e" x="63.623047"/>
       <use xlink:href="#DejaVuSans-30" x="95.410156"/>
      </g>
     </g>
    </g>
    <g id="text_9">
     <!-- $X$ -->
     <g transform="translate(239.0375 315.3225) scale(0.16 -0.16)">
      <defs>
       <path id="DejaVuSans-Oblique-58" d="M 878 4666 
L 1516 4666 
L 2316 2981 
L 3763 4666 
L 4500 4666 
L 2578 2438 
L 3738 0 
L 3103 0 
L 2163 1966 
L 459 0 
L -275 0 
L 1906 2509 
L 878 4666 
z
" transform="scale(0.015625)"/>
      </defs>
      <use xlink:href="#DejaVuSans-Oblique-58" transform="translate(0 0.09375)"/>
     </g>
    </g>
   </g>
   <g id="matplotlib.axis_6">
    <g id="ytick_4">
     <g id="line2d_15">
      <g>
       <use xlink:href="#m69322a1c07" x="53.0525" y="276.400573" style="fill: #696969; stroke: #696969; stroke-width: 0.8"/>
      </g>
     </g>
     <g id="text_10">
      <!-- −2.5 -->
      <g style="fill: #696969" transform="translate(7.2 282.479323) scale(0.16 -0.16)">
       <defs>
        <path id="DejaVuSans-32" d="M 1228 531 
L 3431 531 
L 3431 0 
L 469 0 
L 469 531 
Q 828 903 1448 1529 
Q 2069 2156 2228 2338 
Q 2531 2678 2651 2914 
Q 2772 3150 2772 3378 
Q 2772 3750 2511 3984 
Q 2250 4219 1831 4219 
Q 1534 4219 1204 4116 
Q 875 4013 500 3803 
L 500 4441 
Q 881 4594 1212 4672 
Q 1544 4750 1819 4750 
Q 2544 4750 2975 4387 
Q 3406 4025 3406 3419 
Q 3406 3131 3298 2873 
Q 3191 2616 2906 2266 
Q 2828 2175 2409 1742 
Q 1991 1309 1228 531 
z
" transform="scale(0.015625)"/>
       </defs>
       <use xlink:href="#DejaVuSans-2212"/>
       <use xlink:href="#DejaVuSans-32" x="83.789062"/>
       <use xlink:href="#DejaVuSans-2e" x="147.412109"/>
       <use xlink:href="#DejaVuSans-35" x="179.199219"/>
      </g>
     </g>
    </g>
    <g id="ytick_5">
     <g id="line2d_16">
      <g>
       <use xlink:href="#m69322a1c07" x="53.0525" y="228.112698" style="fill: #696969; stroke: #696969; stroke-width: 0.8"/>
      </g>
     </g>
     <g id="text_11">
      <!-- 0.0 -->
      <g style="fill: #696969" transform="translate(20.6075 234.191448) scale(0.16 -0.16)">
       <use xlink:href="#DejaVuSans-30"/>
       <use xlink:href="#DejaVuSans-2e" x="63.623047"/>
       <use xlink:href="#DejaVuSans-30" x="95.410156"/>
      </g>
     </g>
    </g>
   </g>
   <g id="line2d_17">
    <path d="M 70.462045 208.758643 
L 77.425864 210.127337 
L 84.389682 211.386492 
L 91.3535 212.581905 
L 98.317318 213.764235 
L 105.281136 214.984459 
L 112.244955 216.289495 
L 119.208773 217.718321 
L 126.172591 219.298828 
L 133.136409 221.045546 
L 140.100227 222.958467 
L 147.064045 225.022934 
L 154.027864 227.210391 
L 160.991682 229.480145 
L 167.9555 231.781628 
L 174.919318 234.057261 
L 181.883136 236.24544 
L 188.846955 238.283698 
L 195.810773 240.111752 
L 202.774591 241.674383 
L 209.738409 242.924136 
L 216.702227 243.823696 
L 223.666045 244.347978 
L 230.629864 244.485784 
L 237.593682 244.240864 
L 244.5575 243.632256 
L 251.521318 242.693624 
L 258.485136 241.471371 
L 265.448955 240.021548 
L 272.412773 238.405649 
L 279.376591 236.685704 
L 286.340409 234.919456 
L 293.304227 233.156473 
L 300.268045 231.435808 
L 307.231864 229.785714 
L 314.195682 228.225086 
L 321.1595 226.765835 
L 328.123318 225.415294 
L 335.087136 224.177744 
L 342.050955 223.054696 
L 349.014773 222.0441 
L 355.978591 221.138992 
L 362.942409 220.326229 
L 369.906227 219.585848 
L 376.870045 218.89135 
L 383.833864 218.210928 
L 390.797682 217.509308 
L 397.7615 216.75004 
L 404.725318 215.897739 
L 411.689136 214.920065 
L 418.652955 213.78925 
" clip-path="url(#p97b2351c9b)" style="fill: none; stroke: #696969; stroke-width: 2; stroke-linecap: square"/>
   </g>
   <g id="line2d_18">
    <path d="M 70.462045 211.667144 
L 77.425864 214.057582 
L 84.389682 216.750528 
L 91.3535 219.558949 
L 98.317318 222.351157 
L 105.281136 225.037515 
L 112.244955 227.559861 
L 119.208773 229.883189 
L 126.172591 231.98918 
L 133.136409 233.871237 
L 140.100227 235.53074 
L 147.064045 236.97425 
L 154.027864 238.211479 
L 160.991682 239.25384 
L 167.9555 240.113441 
L 174.919318 240.802409 
L 181.883136 241.33246 
L 188.846955 241.714632 
L 195.810773 241.959152 
L 202.774591 242.075364 
L 209.738409 242.071722 
L 216.702227 241.955804 
L 223.666045 241.734346 
L 230.629864 241.413284 
L 237.593682 240.997791 
L 244.5575 240.492322 
L 251.521318 239.900646 
L 258.485136 239.225883 
L 265.448955 238.470534 
L 272.412773 237.636508 
L 279.376591 236.725164 
L 286.340409 235.737352 
L 293.304227 234.673485 
L 300.268045 233.533644 
L 307.231864 232.317752 
L 314.195682 231.025837 
L 321.1595 229.658445 
L 328.123318 228.217242 
L 335.087136 226.705902 
L 342.050955 225.131376 
L 349.014773 223.505648 
L 355.978591 221.848153 
L 362.942409 220.189033 
L 369.906227 218.573449 
L 376.870045 217.067228 
L 383.833864 215.764143 
L 390.797682 214.795216 
L 397.7615 214.340447 
L 404.725318 214.643491 
L 411.689136 216.029823 
L 418.652955 218.929061 
" clip-path="url(#p97b2351c9b)" style="fill: none; stroke-dasharray: 7.4,3.2; stroke-dashoffset: 0; stroke: #79ad41; stroke-width: 2"/>
   </g>
   <g id="patch_9">
    <path d="M 53.0525 276.68 
L 53.0525 184.768095 
" style="fill: none; stroke: #000000; stroke-width: 0.8; stroke-linejoin: miter; stroke-linecap: square"/>
   </g>
   <g id="patch_10">
    <path d="M 436.0625 276.68 
L 436.0625 184.768095 
" style="fill: none; stroke: #000000; stroke-width: 0.8; stroke-linejoin: miter; stroke-linecap: square"/>
   </g>
   <g id="patch_11">
    <path d="M 53.0525 276.68 
L 436.0625 276.68 
" style="fill: none; stroke: #000000; stroke-width: 0.8; stroke-linejoin: miter; stroke-linecap: square"/>
   </g>
   <g id="patch_12">
    <path d="M 53.0525 184.768095 
L 436.0625 184.768095 
" style="fill: none; stroke: #000000; stroke-width: 0.8; stroke-linejoin: miter; stroke-linecap: square"/>
   </g>
  </g>
 </g>
 <defs>
  <clipPath id="pae8b58b70e">
   <rect x="53.0525" y="7.2" width="383.01" height="45.955953"/>
  </clipPath>
  <clipPath id="p637deb9279">
   <rect x="53.0525" y="73.006071" width="383.01" height="91.911905"/>
  </clipPath>
  <clipPath id="p97b2351c9b">
   <rect x="53.0525" y="184.768095" width="383.01" height="91.911905"/>
  </clipPath>
 </defs>
</svg>
