<?xml version="1.0" encoding="utf-8" standalone="no"?>
<!DOCTYPE svg PUBLIC "-//W3C//DTD SVG 1.1//EN"
  "http://www.w3.org/Graphics/SVG/1.1/DTD/svg11.dtd">
<svg xmlns:xlink="http://www.w3.org/1999/xlink" width="443.2075pt" height="325.85pt" viewBox="0 0 443.2075 325.85" xmlns="http://www.w3.org/2000/svg" version="1.1">
 <metadata>
  <rdf:RDF xmlns:dc="http://purl.org/dc/elements/1.1/" xmlns:cc="http://creativecommons.org/ns#" xmlns:rdf="http://www.w3.org/1999/02/22-rdf-syntax-ns#">
   <cc:Work>
    <dc:type rdf:resource="http://purl.org/dc/dcmitype/StillImage"/>
    <dc:date>2024-01-28T20:54:22.482370</dc:date>
    <dc:format>image/svg+xml</dc:format>
    <dc:creator>
     <cc:Agent>
      <dc:title>Matplotlib v3.7.2, https://matplotlib.org/</dc:title>
     </cc:Agent>
    </dc:creator>
   </cc:Work>
  </rdf:RDF>
 </metadata>
 <defs>
  <style type="text/css">*{stroke-linejoin: round; stroke-linecap: butt}</style>
 </defs>
 <g id="figure_1">
  <g id="patch_1">
   <path d="M 0 325.85 
L 443.2075 325.85 
L 443.2075 0 
L 0 0 
z
" style="fill: #ffffff"/>
  </g>
  <g id="axes_1">
   <g id="patch_2">
    <path d="M 37.7875 52.755509 
L 436.0075 52.755509 
L 436.0075 7.2 
L 37.7875 7.2 
z
" style="fill: #ffffff"/>
   </g>
   <g id="PolyCollection_1">
    <defs>
     <path id="m73ff13e850" d="M 55.888409 -275.165196 
L 55.888409 -315.766911 
L 63.128773 -314.34644 
L 70.369136 -312.97672 
L 77.6095 -311.666027 
L 84.849864 -310.420964 
L 92.090227 -309.246587 
L 99.330591 -308.146522 
L 106.570955 -307.123141 
L 113.811318 -306.177787 
L 121.051682 -305.310954 
L 128.292045 -304.522494 
L 135.532409 -303.811761 
L 142.772773 -303.177753 
L 150.013136 -302.619248 
L 157.2535 -302.134873 
L 164.493864 -301.723161 
L 171.734227 -301.382581 
L 178.974591 -301.111589 
L 186.214955 -300.908577 
L 193.455318 -300.771865 
L 200.695682 -300.699694 
L 207.936045 -300.690133 
L 215.176409 -300.741044 
L 222.416773 -300.850057 
L 229.657136 -301.014422 
L 236.8975 -301.231034 
L 244.137864 -301.49632 
L 251.378227 -301.806199 
L 258.618591 -302.156048 
L 265.858955 -302.540702 
L 273.099318 -302.954412 
L 280.339682 -303.390909 
L 287.580045 -303.843439 
L 294.820409 -304.304823 
L 302.060773 -304.767575 
L 309.301136 -305.223997 
L 316.5415 -305.666329 
L 323.781864 -306.086846 
L 331.022227 -306.478059 
L 338.262591 -306.832757 
L 345.502955 -307.144203 
L 352.743318 -307.406201 
L 359.983682 -307.613197 
L 367.224045 -307.760337 
L 374.464409 -307.843556 
L 381.704773 -307.859593 
L 388.945136 -307.806049 
L 396.1855 -307.681403 
L 403.425864 -307.485031 
L 410.666227 -307.217243 
L 417.906591 -306.879262 
L 417.906591 -275.165196 
L 417.906591 -275.165196 
L 410.666227 -275.165196 
L 403.425864 -275.165196 
L 396.1855 -275.165196 
L 388.945136 -275.165196 
L 381.704773 -275.165196 
L 374.464409 -275.165196 
L 367.224045 -275.165196 
L 359.983682 -275.165196 
L 352.743318 -275.165196 
L 345.502955 -275.165196 
L 338.262591 -275.165196 
L 331.022227 -275.165196 
L 323.781864 -275.165196 
L 316.5415 -275.165196 
L 309.301136 -275.165196 
L 302.060773 -275.165196 
L 294.820409 -275.165196 
L 287.580045 -275.165196 
L 280.339682 -275.165196 
L 273.099318 -275.165196 
L 265.858955 -275.165196 
L 258.618591 -275.165196 
L 251.378227 -275.165196 
L 244.137864 -275.165196 
L 236.8975 -275.165196 
L 229.657136 -275.165196 
L 222.416773 -275.165196 
L 215.176409 -275.165196 
L 207.936045 -275.165196 
L 200.695682 -275.165196 
L 193.455318 -275.165196 
L 186.214955 -275.165196 
L 178.974591 -275.165196 
L 171.734227 -275.165196 
L 164.493864 -275.165196 
L 157.2535 -275.165196 
L 150.013136 -275.165196 
L 142.772773 -275.165196 
L 135.532409 -275.165196 
L 128.292045 -275.165196 
L 121.051682 -275.165196 
L 113.811318 -275.165196 
L 106.570955 -275.165196 
L 99.330591 -275.165196 
L 92.090227 -275.165196 
L 84.849864 -275.165196 
L 77.6095 -275.165196 
L 70.369136 -275.165196 
L 63.128773 -275.165196 
L 55.888409 -275.165196 
z
" style="stroke: #dc143c; stroke-opacity: 0.2"/>
    </defs>
    <g clip-path="url(#pef1ccb3961)">
     <use xlink:href="#m73ff13e850" x="0" y="325.85" style="fill: #dc143c; fill-opacity: 0.2; stroke: #dc143c; stroke-opacity: 0.2"/>
    </g>
   </g>
   <g id="PolyCollection_2">
    <defs>
     <path id="m7c7f4d9063" d="M 55.888409 -275.165196 
L 55.888409 -301.502517 
L 63.128773 -302.922988 
L 70.369136 -304.292708 
L 77.6095 -305.603401 
L 84.849864 -306.848464 
L 92.090227 -308.022841 
L 99.330591 -309.122906 
L 106.570955 -310.146287 
L 113.811318 -311.091641 
L 121.051682 -311.958474 
L 128.292045 -312.746934 
L 135.532409 -313.457667 
L 142.772773 -314.091675 
L 150.013136 -314.65018 
L 157.2535 -315.134555 
L 164.493864 -315.546267 
L 171.734227 -315.886847 
L 178.974591 -316.157838 
L 186.214955 -316.360851 
L 193.455318 -316.497562 
L 200.695682 -316.569733 
L 207.936045 -316.579295 
L 215.176409 -316.528384 
L 222.416773 -316.419371 
L 229.657136 -316.255006 
L 236.8975 -316.038394 
L 244.137864 -315.773107 
L 251.378227 -315.463229 
L 258.618591 -315.11338 
L 265.858955 -314.728725 
L 273.099318 -314.315016 
L 280.339682 -313.878518 
L 287.580045 -313.425988 
L 294.820409 -312.964605 
L 302.060773 -312.501853 
L 309.301136 -312.04543 
L 316.5415 -311.603099 
L 323.781864 -311.182582 
L 331.022227 -310.791369 
L 338.262591 -310.43667 
L 345.502955 -310.125225 
L 352.743318 -309.863227 
L 359.983682 -309.656231 
L 367.224045 -309.509091 
L 374.464409 -309.425872 
L 381.704773 -309.409835 
L 388.945136 -309.463378 
L 396.1855 -309.588025 
L 403.425864 -309.784397 
L 410.666227 -310.052185 
L 417.906591 -310.390166 
L 417.906591 -275.165196 
L 417.906591 -275.165196 
L 410.666227 -275.165196 
L 403.425864 -275.165196 
L 396.1855 -275.165196 
L 388.945136 -275.165196 
L 381.704773 -275.165196 
L 374.464409 -275.165196 
L 367.224045 -275.165196 
L 359.983682 -275.165196 
L 352.743318 -275.165196 
L 345.502955 -275.165196 
L 338.262591 -275.165196 
L 331.022227 -275.165196 
L 323.781864 -275.165196 
L 316.5415 -275.165196 
L 309.301136 -275.165196 
L 302.060773 -275.165196 
L 294.820409 -275.165196 
L 287.580045 -275.165196 
L 280.339682 -275.165196 
L 273.099318 -275.165196 
L 265.858955 -275.165196 
L 258.618591 -275.165196 
L 251.378227 -275.165196 
L 244.137864 -275.165196 
L 236.8975 -275.165196 
L 229.657136 -275.165196 
L 222.416773 -275.165196 
L 215.176409 -275.165196 
L 207.936045 -275.165196 
L 200.695682 -275.165196 
L 193.455318 -275.165196 
L 186.214955 -275.165196 
L 178.974591 -275.165196 
L 171.734227 -275.165196 
L 164.493864 -275.165196 
L 157.2535 -275.165196 
L 150.013136 -275.165196 
L 142.772773 -275.165196 
L 135.532409 -275.165196 
L 128.292045 -275.165196 
L 121.051682 -275.165196 
L 113.811318 -275.165196 
L 106.570955 -275.165196 
L 99.330591 -275.165196 
L 92.090227 -275.165196 
L 84.849864 -275.165196 
L 77.6095 -275.165196 
L 70.369136 -275.165196 
L 63.128773 -275.165196 
L 55.888409 -275.165196 
z
" style="stroke: #000080; stroke-opacity: 0.2"/>
    </defs>
    <g clip-path="url(#pef1ccb3961)">
     <use xlink:href="#m7c7f4d9063" x="0" y="325.85" style="fill: #000080; fill-opacity: 0.2; stroke: #000080; stroke-opacity: 0.2"/>
    </g>
   </g>
   <g id="matplotlib.axis_1"/>
   <g id="matplotlib.axis_2"/>
   <g id="line2d_1">
    <path d="M 55.888409 10.083089 
L 63.128773 11.50356 
L 70.369136 12.87328 
L 77.6095 14.183973 
L 84.849864 15.429036 
L 92.090227 16.603413 
L 99.330591 17.703478 
L 106.570955 18.726859 
L 113.811318 19.672213 
L 121.051682 20.539046 
L 128.292045 21.327506 
L 135.532409 22.038239 
L 142.772773 22.672247 
L 150.013136 23.230752 
L 157.2535 23.715127 
L 164.493864 24.126839 
L 171.734227 24.467419 
L 178.974591 24.738411 
L 186.214955 24.941423 
L 193.455318 25.078135 
L 200.695682 25.150306 
L 207.936045 25.159867 
L 215.176409 25.108956 
L 222.416773 24.999943 
L 229.657136 24.835578 
L 236.8975 24.618966 
L 244.137864 24.35368 
L 251.378227 24.043801 
L 258.618591 23.693952 
L 265.858955 23.309298 
L 273.099318 22.895588 
L 280.339682 22.459091 
L 287.580045 22.006561 
L 294.820409 21.545177 
L 302.060773 21.082425 
L 309.301136 20.626003 
L 316.5415 20.183671 
L 323.781864 19.763154 
L 331.022227 19.371941 
L 338.262591 19.017243 
L 345.502955 18.705797 
L 352.743318 18.443799 
L 359.983682 18.236803 
L 367.224045 18.089663 
L 374.464409 18.006444 
L 381.704773 17.990407 
L 388.945136 18.043951 
L 396.1855 18.168597 
L 403.425864 18.364969 
L 410.666227 18.632757 
L 417.906591 18.970738 
" clip-path="url(#pef1ccb3961)" style="fill: none; stroke: #dc143c; stroke-width: 1.5; stroke-linecap: square"/>
   </g>
   <g id="line2d_2">
    <path d="M 55.888409 24.347483 
L 63.128773 22.927012 
L 70.369136 21.557292 
L 77.6095 20.246599 
L 84.849864 19.001536 
L 92.090227 17.827159 
L 99.330591 16.727094 
L 106.570955 15.703713 
L 113.811318 14.758359 
L 121.051682 13.891526 
L 128.292045 13.103066 
L 135.532409 12.392333 
L 142.772773 11.758325 
L 150.013136 11.19982 
L 157.2535 10.715445 
L 164.493864 10.303733 
L 171.734227 9.963153 
L 178.974591 9.692162 
L 186.214955 9.489149 
L 193.455318 9.352438 
L 200.695682 9.280267 
L 207.936045 9.270705 
L 215.176409 9.321616 
L 222.416773 9.430629 
L 229.657136 9.594994 
L 236.8975 9.811606 
L 244.137864 10.076893 
L 251.378227 10.386771 
L 258.618591 10.73662 
L 265.858955 11.121275 
L 273.099318 11.534984 
L 280.339682 11.971482 
L 287.580045 12.424012 
L 294.820409 12.885395 
L 302.060773 13.348147 
L 309.301136 13.80457 
L 316.5415 14.246901 
L 323.781864 14.667418 
L 331.022227 15.058631 
L 338.262591 15.41333 
L 345.502955 15.724775 
L 352.743318 15.986773 
L 359.983682 16.193769 
L 367.224045 16.340909 
L 374.464409 16.424128 
L 381.704773 16.440165 
L 388.945136 16.386622 
L 396.1855 16.261975 
L 403.425864 16.065603 
L 410.666227 15.797815 
L 417.906591 15.459834 
" clip-path="url(#pef1ccb3961)" style="fill: none; stroke: #000080; stroke-width: 1.5; stroke-linecap: square"/>
   </g>
  </g>
  <g id="axes_2">
   <g id="patch_3">
    <path d="M 37.7875 164.717754 
L 436.0075 164.717754 
L 436.0075 73.606737 
L 37.7875 73.606737 
z
" style="fill: #ffffff"/>
   </g>
   <g id="PathCollection_1">
    <defs>
     <path id="m4a7e6ec372" d="M 0 0.866025 
C 0.229673 0.866025 0.449969 0.774776 0.612372 0.612372 
C 0.774776 0.449969 0.866025 0.229673 0.866025 0 
C 0.866025 -0.229673 0.774776 -0.449969 0.612372 -0.612372 
C 0.449969 -0.774776 0.229673 -0.866025 0 -0.866025 
C -0.229673 -0.866025 -0.449969 -0.774776 -0.612372 -0.612372 
C -0.774776 -0.449969 -0.866025 -0.229673 -0.866025 0 
C -0.866025 0.229673 -0.774776 0.449969 -0.612372 0.612372 
C -0.449969 0.774776 -0.229673 0.866025 0 0.866025 
z
" style="stroke: #daa520"/>
    </defs>
    <g clip-path="url(#p76c8425d05)">
     <use xlink:href="#m4a7e6ec372" x="313.763579" y="91.953195" style="fill: #daa520; stroke: #daa520"/>
     <use xlink:href="#m4a7e6ec372" x="135.77541" y="150.956136" style="fill: #daa520; stroke: #daa520"/>
     <use xlink:href="#m4a7e6ec372" x="295.390449" y="91.094274" style="fill: #daa520; stroke: #daa520"/>
     <use xlink:href="#m4a7e6ec372" x="107.242233" y="147.16324" style="fill: #daa520; stroke: #daa520"/>
     <use xlink:href="#m4a7e6ec372" x="350.314423" y="92.587981" style="fill: #daa520; stroke: #daa520"/>
     <use xlink:href="#m4a7e6ec372" x="162.198069" y="97.102806" style="fill: #daa520; stroke: #daa520"/>
     <use xlink:href="#m4a7e6ec372" x="168.593973" y="140.89605" style="fill: #daa520; stroke: #daa520"/>
     <use xlink:href="#m4a7e6ec372" x="174.798161" y="91.33929" style="fill: #daa520; stroke: #daa520"/>
     <use xlink:href="#m4a7e6ec372" x="264.866471" y="85.533777" style="fill: #daa520; stroke: #daa520"/>
     <use xlink:href="#m4a7e6ec372" x="171.500501" y="144.054561" style="fill: #daa520; stroke: #daa520"/>
     <use xlink:href="#m4a7e6ec372" x="285.750521" y="110.045644" style="fill: #daa520; stroke: #daa520"/>
     <use xlink:href="#m4a7e6ec372" x="167.248699" y="132.386124" style="fill: #daa520; stroke: #daa520"/>
     <use xlink:href="#m4a7e6ec372" x="396.233937" y="109.733884" style="fill: #daa520; stroke: #daa520"/>
     <use xlink:href="#m4a7e6ec372" x="162.297469" y="91.173092" style="fill: #daa520; stroke: #daa520"/>
     <use xlink:href="#m4a7e6ec372" x="176.499492" y="142.478223" style="fill: #daa520; stroke: #daa520"/>
     <use xlink:href="#m4a7e6ec372" x="191.989838" y="96.083026" style="fill: #daa520; stroke: #daa520"/>
     <use xlink:href="#m4a7e6ec372" x="296.80031" y="108.841402" style="fill: #daa520; stroke: #daa520"/>
     <use xlink:href="#m4a7e6ec372" x="180.352677" y="113.053011" style="fill: #daa520; stroke: #daa520"/>
     <use xlink:href="#m4a7e6ec372" x="394.52531" y="101.45156" style="fill: #daa520; stroke: #daa520"/>
     <use xlink:href="#m4a7e6ec372" x="297.140782" y="107.765" style="fill: #daa520; stroke: #daa520"/>
     <use xlink:href="#m4a7e6ec372" x="274.012712" y="97.478135" style="fill: #daa520; stroke: #daa520"/>
     <use xlink:href="#m4a7e6ec372" x="227.349493" y="118.986183" style="fill: #daa520; stroke: #daa520"/>
     <use xlink:href="#m4a7e6ec372" x="330.18652" y="104.328047" style="fill: #daa520; stroke: #daa520"/>
     <use xlink:href="#m4a7e6ec372" x="194.410179" y="112.6668" style="fill: #daa520; stroke: #daa520"/>
     <use xlink:href="#m4a7e6ec372" x="375.068351" y="114.862397" style="fill: #daa520; stroke: #daa520"/>
     <use xlink:href="#m4a7e6ec372" x="183.398694" y="125.854915" style="fill: #daa520; stroke: #daa520"/>
     <use xlink:href="#m4a7e6ec372" x="368.462669" y="97.806875" style="fill: #daa520; stroke: #daa520"/>
     <use xlink:href="#m4a7e6ec372" x="118.716208" y="150.003846" style="fill: #daa520; stroke: #daa520"/>
     <use xlink:href="#m4a7e6ec372" x="279.373" y="110.838486" style="fill: #daa520; stroke: #daa520"/>
     <use xlink:href="#m4a7e6ec372" x="123.662299" y="155.756418" style="fill: #daa520; stroke: #daa520"/>
     <use xlink:href="#m4a7e6ec372" x="140.049452" y="149.2498" style="fill: #daa520; stroke: #daa520"/>
     <use xlink:href="#m4a7e6ec372" x="107.973692" y="98.258898" style="fill: #daa520; stroke: #daa520"/>
     <use xlink:href="#m4a7e6ec372" x="81.460943" y="87.39769" style="fill: #daa520; stroke: #daa520"/>
     <use xlink:href="#m4a7e6ec372" x="60.732932" y="160.576344" style="fill: #daa520; stroke: #daa520"/>
     <use xlink:href="#m4a7e6ec372" x="416.89223" y="110.607208" style="fill: #daa520; stroke: #daa520"/>
     <use xlink:href="#m4a7e6ec372" x="347.300556" y="108.826904" style="fill: #daa520; stroke: #daa520"/>
     <use xlink:href="#m4a7e6ec372" x="232.744447" y="85.098956" style="fill: #daa520; stroke: #daa520"/>
     <use xlink:href="#m4a7e6ec372" x="128.254997" y="103.249386" style="fill: #daa520; stroke: #daa520"/>
     <use xlink:href="#m4a7e6ec372" x="142.57841" y="104.238234" style="fill: #daa520; stroke: #daa520"/>
     <use xlink:href="#m4a7e6ec372" x="242.721086" y="82.383766" style="fill: #daa520; stroke: #daa520"/>
     <use xlink:href="#m4a7e6ec372" x="104.934465" y="130.208099" style="fill: #daa520; stroke: #daa520"/>
     <use xlink:href="#m4a7e6ec372" x="143.839266" y="150.570338" style="fill: #daa520; stroke: #daa520"/>
     <use xlink:href="#m4a7e6ec372" x="106.784152" y="156.258146" style="fill: #daa520; stroke: #daa520"/>
     <use xlink:href="#m4a7e6ec372" x="224.89266" y="118.75087" style="fill: #daa520; stroke: #daa520"/>
     <use xlink:href="#m4a7e6ec372" x="307.60985" y="104.955105" style="fill: #daa520; stroke: #daa520"/>
     <use xlink:href="#m4a7e6ec372" x="132.004627" y="139.483328" style="fill: #daa520; stroke: #daa520"/>
     <use xlink:href="#m4a7e6ec372" x="136.277396" y="103.467534" style="fill: #daa520; stroke: #daa520"/>
     <use xlink:href="#m4a7e6ec372" x="120.021347" y="100.518701" style="fill: #daa520; stroke: #daa520"/>
     <use xlink:href="#m4a7e6ec372" x="390.376461" y="94.125172" style="fill: #daa520; stroke: #daa520"/>
     <use xlink:href="#m4a7e6ec372" x="362.994047" y="101.349305" style="fill: #daa520; stroke: #daa520"/>
     <use xlink:href="#m4a7e6ec372" x="139.965736" y="97.942272" style="fill: #daa520; stroke: #daa520"/>
     <use xlink:href="#m4a7e6ec372" x="178.013341" y="116.688642" style="fill: #daa520; stroke: #daa520"/>
     <use xlink:href="#m4a7e6ec372" x="320.566665" y="91.582662" style="fill: #daa520; stroke: #daa520"/>
     <use xlink:href="#m4a7e6ec372" x="411.654292" y="106.894878" style="fill: #daa520; stroke: #daa520"/>
     <use xlink:href="#m4a7e6ec372" x="187.618888" y="92.863734" style="fill: #daa520; stroke: #daa520"/>
     <use xlink:href="#m4a7e6ec372" x="191.828871" y="115.617368" style="fill: #daa520; stroke: #daa520"/>
     <use xlink:href="#m4a7e6ec372" x="190.393281" y="115.362274" style="fill: #daa520; stroke: #daa520"/>
     <use xlink:href="#m4a7e6ec372" x="292.229926" y="88.946033" style="fill: #daa520; stroke: #daa520"/>
     <use xlink:href="#m4a7e6ec372" x="231.387409" y="89.616278" style="fill: #daa520; stroke: #daa520"/>
     <use xlink:href="#m4a7e6ec372" x="394.051367" y="101.564678" style="fill: #daa520; stroke: #daa520"/>
     <use xlink:href="#m4a7e6ec372" x="314.702182" y="106.289114" style="fill: #daa520; stroke: #daa520"/>
     <use xlink:href="#m4a7e6ec372" x="148.8671" y="149.247358" style="fill: #daa520; stroke: #daa520"/>
     <use xlink:href="#m4a7e6ec372" x="82.501489" y="96.882456" style="fill: #daa520; stroke: #daa520"/>
     <use xlink:href="#m4a7e6ec372" x="268.668486" y="88.775854" style="fill: #daa520; stroke: #daa520"/>
     <use xlink:href="#m4a7e6ec372" x="61.56655" y="146.104351" style="fill: #daa520; stroke: #daa520"/>
     <use xlink:href="#m4a7e6ec372" x="99.364659" y="159.776213" style="fill: #daa520; stroke: #daa520"/>
     <use xlink:href="#m4a7e6ec372" x="151.747667" y="107.026551" style="fill: #daa520; stroke: #daa520"/>
     <use xlink:href="#m4a7e6ec372" x="133.850037" y="102.118571" style="fill: #daa520; stroke: #daa520"/>
     <use xlink:href="#m4a7e6ec372" x="139.863937" y="98.486474" style="fill: #daa520; stroke: #daa520"/>
     <use xlink:href="#m4a7e6ec372" x="138.164359" y="153.737088" style="fill: #daa520; stroke: #daa520"/>
     <use xlink:href="#m4a7e6ec372" x="168.635491" y="141.541376" style="fill: #daa520; stroke: #daa520"/>
     <use xlink:href="#m4a7e6ec372" x="240.177515" y="113.185946" style="fill: #daa520; stroke: #daa520"/>
     <use xlink:href="#m4a7e6ec372" x="255.047418" y="112.963064" style="fill: #daa520; stroke: #daa520"/>
     <use xlink:href="#m4a7e6ec372" x="253.593451" y="115.36849" style="fill: #daa520; stroke: #daa520"/>
     <use xlink:href="#m4a7e6ec372" x="149.13188" y="96.177618" style="fill: #daa520; stroke: #daa520"/>
     <use xlink:href="#m4a7e6ec372" x="83.468293" y="156.123565" style="fill: #daa520; stroke: #daa520"/>
     <use xlink:href="#m4a7e6ec372" x="180.150761" y="129.706322" style="fill: #daa520; stroke: #daa520"/>
     <use xlink:href="#m4a7e6ec372" x="213.891562" y="93.239656" style="fill: #daa520; stroke: #daa520"/>
     <use xlink:href="#m4a7e6ec372" x="80.928279" y="111.864468" style="fill: #daa520; stroke: #daa520"/>
     <use xlink:href="#m4a7e6ec372" x="196.971988" y="94.781613" style="fill: #daa520; stroke: #daa520"/>
     <use xlink:href="#m4a7e6ec372" x="277.090207" y="106.045904" style="fill: #daa520; stroke: #daa520"/>
     <use xlink:href="#m4a7e6ec372" x="281.999851" y="123.303106" style="fill: #daa520; stroke: #daa520"/>
     <use xlink:href="#m4a7e6ec372" x="415.640864" y="97.707969" style="fill: #daa520; stroke: #daa520"/>
     <use xlink:href="#m4a7e6ec372" x="365.857473" y="97.781259" style="fill: #daa520; stroke: #daa520"/>
     <use xlink:href="#m4a7e6ec372" x="172.523675" y="111.74634" style="fill: #daa520; stroke: #daa520"/>
     <use xlink:href="#m4a7e6ec372" x="368.052514" y="112.455818" style="fill: #daa520; stroke: #daa520"/>
     <use xlink:href="#m4a7e6ec372" x="392.338149" y="105.903519" style="fill: #daa520; stroke: #daa520"/>
     <use xlink:href="#m4a7e6ec372" x="190.567522" y="115.459652" style="fill: #daa520; stroke: #daa520"/>
     <use xlink:href="#m4a7e6ec372" x="356.916173" y="108.417241" style="fill: #daa520; stroke: #daa520"/>
     <use xlink:href="#m4a7e6ec372" x="414.403777" y="110.927905" style="fill: #daa520; stroke: #daa520"/>
     <use xlink:href="#m4a7e6ec372" x="251.832702" y="98.888201" style="fill: #daa520; stroke: #daa520"/>
     <use xlink:href="#m4a7e6ec372" x="214.503749" y="80.053665" style="fill: #daa520; stroke: #daa520"/>
     <use xlink:href="#m4a7e6ec372" x="353.864771" y="105.939423" style="fill: #daa520; stroke: #daa520"/>
     <use xlink:href="#m4a7e6ec372" x="355.800071" y="110.091322" style="fill: #daa520; stroke: #daa520"/>
     <use xlink:href="#m4a7e6ec372" x="56.292144" y="77.748147" style="fill: #daa520; stroke: #daa520"/>
     <use xlink:href="#m4a7e6ec372" x="379.966323" y="89.318511" style="fill: #daa520; stroke: #daa520"/>
     <use xlink:href="#m4a7e6ec372" x="357.622272" y="95.687595" style="fill: #daa520; stroke: #daa520"/>
     <use xlink:href="#m4a7e6ec372" x="128.572706" y="102.158227" style="fill: #daa520; stroke: #daa520"/>
     <use xlink:href="#m4a7e6ec372" x="115.058266" y="99.631424" style="fill: #daa520; stroke: #daa520"/>
     <use xlink:href="#m4a7e6ec372" x="261.610882" y="90.789822" style="fill: #daa520; stroke: #daa520"/>
     <use xlink:href="#m4a7e6ec372" x="275.218236" y="112.628888" style="fill: #daa520; stroke: #daa520"/>
     <use xlink:href="#m4a7e6ec372" x="362.679681" y="95.064546" style="fill: #daa520; stroke: #daa520"/>
     <use xlink:href="#m4a7e6ec372" x="313.444899" y="105.690732" style="fill: #daa520; stroke: #daa520"/>
     <use xlink:href="#m4a7e6ec372" x="107.02522" y="152.501749" style="fill: #daa520; stroke: #daa520"/>
     <use xlink:href="#m4a7e6ec372" x="177.445848" y="106.890601" style="fill: #daa520; stroke: #daa520"/>
     <use xlink:href="#m4a7e6ec372" x="149.195406" y="126.443433" style="fill: #daa520; stroke: #daa520"/>
     <use xlink:href="#m4a7e6ec372" x="244.97937" y="118.203656" style="fill: #daa520; stroke: #daa520"/>
     <use xlink:href="#m4a7e6ec372" x="156.001719" y="101.104983" style="fill: #daa520; stroke: #daa520"/>
     <use xlink:href="#m4a7e6ec372" x="176.584375" y="133.044476" style="fill: #daa520; stroke: #daa520"/>
    </g>
   </g>
   <g id="matplotlib.axis_3"/>
   <g id="matplotlib.axis_4">
    <g id="ytick_1">
     <g id="line2d_3">
      <defs>
       <path id="me72f6f0a74" d="M 0 0 
L -3.5 0 
" style="stroke: #696969; stroke-width: 0.8"/>
      </defs>
      <g>
       <use xlink:href="#me72f6f0a74" x="37.7875" y="159.645468" style="fill: #696969; stroke: #696969; stroke-width: 0.8"/>
      </g>
     </g>
     <g id="text_1">
      <!-- −5 -->
      <g style="fill: #696969" transform="translate(7.2 165.724218) scale(0.16 -0.16)">
       <defs>
        <path id="DejaVuSans-2212" d="M 678 2272 
L 4684 2272 
L 4684 1741 
L 678 1741 
L 678 2272 
z
" transform="scale(0.015625)"/>
        <path id="DejaVuSans-35" d="M 691 4666 
L 3169 4666 
L 3169 4134 
L 1269 4134 
L 1269 2991 
Q 1406 3038 1543 3061 
Q 1681 3084 1819 3084 
Q 2600 3084 3056 2656 
Q 3513 2228 3513 1497 
Q 3513 744 3044 326 
Q 2575 -91 1722 -91 
Q 1428 -91 1123 -41 
Q 819 9 494 109 
L 494 744 
Q 775 591 1075 516 
Q 1375 441 1709 441 
Q 2250 441 2565 725 
Q 2881 1009 2881 1497 
Q 2881 1984 2565 2268 
Q 2250 2553 1709 2553 
Q 1456 2553 1204 2497 
Q 953 2441 691 2322 
L 691 4666 
z
" transform="scale(0.015625)"/>
       </defs>
       <use xlink:href="#DejaVuSans-2212"/>
       <use xlink:href="#DejaVuSans-35" x="83.789062"/>
      </g>
     </g>
    </g>
    <g id="ytick_2">
     <g id="line2d_4">
      <g>
       <use xlink:href="#me72f6f0a74" x="37.7875" y="111.955892" style="fill: #696969; stroke: #696969; stroke-width: 0.8"/>
      </g>
     </g>
     <g id="text_2">
      <!-- 0 -->
      <g style="fill: #696969" transform="translate(20.6075 118.034642) scale(0.16 -0.16)">
       <defs>
        <path id="DejaVuSans-30" d="M 2034 4250 
Q 1547 4250 1301 3770 
Q 1056 3291 1056 2328 
Q 1056 1369 1301 889 
Q 1547 409 2034 409 
Q 2525 409 2770 889 
Q 3016 1369 3016 2328 
Q 3016 3291 2770 3770 
Q 2525 4250 2034 4250 
z
M 2034 4750 
Q 2819 4750 3233 4129 
Q 3647 3509 3647 2328 
Q 3647 1150 3233 529 
Q 2819 -91 2034 -91 
Q 1250 -91 836 529 
Q 422 1150 422 2328 
Q 422 3509 836 4129 
Q 1250 4750 2034 4750 
z
" transform="scale(0.015625)"/>
       </defs>
       <use xlink:href="#DejaVuSans-30"/>
      </g>
     </g>
    </g>
   </g>
   <g id="line2d_5">
    <path d="M 55.888409 116.094066 
L 63.128773 118.132216 
L 70.369136 119.962273 
L 77.6095 121.522029 
L 84.849864 122.758811 
L 92.090227 123.632126 
L 99.330591 124.115852 
L 106.570955 124.199748 
L 113.811318 123.890218 
L 121.051682 123.210122 
L 128.292045 122.197672 
L 135.532409 120.904375 
L 142.772773 119.392145 
L 150.013136 117.729777 
L 157.2535 115.988974 
L 164.493864 114.240247 
L 171.734227 112.548975 
L 178.974591 110.971864 
L 186.214955 109.554156 
L 193.455318 108.327641 
L 200.695682 107.309732 
L 207.936045 106.503507 
L 215.176409 105.898755 
L 222.416773 105.473832 
L 229.657136 105.198207 
L 236.8975 105.035414 
L 244.137864 104.946187 
L 251.378227 104.89159 
L 258.618591 104.835869 
L 265.858955 104.748912 
L 273.099318 104.608148 
L 280.339682 104.39985 
L 287.580045 104.119778 
L 294.820409 103.773213 
L 302.060773 103.374343 
L 309.301136 102.945176 
L 316.5415 102.513958 
L 323.781864 102.113265 
L 331.022227 101.777855 
L 338.262591 101.542405 
L 345.502955 101.439228 
L 352.743318 101.496161 
L 359.983682 101.734657 
L 367.224045 102.168247 
L 374.464409 102.801452 
L 381.704773 103.629162 
L 388.945136 104.636558 
L 396.1855 105.799531 
L 403.425864 107.085591 
L 410.666227 108.455178 
L 417.906591 109.863281 
" clip-path="url(#p76c8425d05)" style="fill: none; stroke: #000000; stroke-width: 2; stroke-linecap: square"/>
   </g>
   <g id="line2d_6">
    <path d="M 55.888409 119.252379 
L 63.128773 123.713284 
L 70.369136 126.516655 
L 77.6095 128.072994 
L 84.849864 128.703276 
L 92.090227 128.656489 
L 99.330591 128.124155 
L 106.570955 127.252277 
L 113.811318 126.151094 
L 121.051682 124.902983 
L 128.292045 123.568808 
L 135.532409 122.192983 
L 142.772773 120.807464 
L 150.013136 119.434875 
L 157.2535 118.090916 
L 164.493864 116.786222 
L 171.734227 115.527757 
L 178.974591 114.319863 
L 186.214955 113.165039 
L 193.455318 112.064506 
L 200.695682 111.018622 
L 207.936045 110.027177 
L 215.176409 109.089608 
L 222.416773 108.205147 
L 229.657136 107.372938 
L 236.8975 106.592109 
L 244.137864 105.861839 
L 251.378227 105.181401 
L 258.618591 104.550202 
L 265.858955 103.967817 
L 273.099318 103.434022 
L 280.339682 102.948831 
L 287.580045 102.512538 
L 294.820409 102.125761 
L 302.060773 101.789508 
L 309.301136 101.505243 
L 316.5415 101.274971 
L 323.781864 101.101336 
L 331.022227 100.987716 
L 338.262591 100.938331 
L 345.502955 100.958324 
L 352.743318 101.05382 
L 359.983682 101.231915 
L 367.224045 101.500578 
L 374.464409 101.868401 
L 381.704773 102.344149 
L 388.945136 102.936021 
L 396.1855 103.650545 
L 403.425864 104.490968 
L 410.666227 105.455024 
L 417.906591 106.531902 
" clip-path="url(#p76c8425d05)" style="fill: none; stroke-dasharray: 7.4,3.2; stroke-dashoffset: 0; stroke: #34b6c6; stroke-width: 2"/>
   </g>
   <g id="line2d_7">
    <path d="M 55.888409 119.628017 
L 63.128773 122.579713 
L 70.369136 124.683437 
L 77.6095 126.127074 
L 84.849864 127.052937 
L 92.090227 127.566012 
L 99.330591 127.740859 
L 106.570955 127.627442 
L 113.811318 127.25623 
L 121.051682 126.642969 
L 128.292045 125.793531 
L 135.532409 124.709289 
L 142.772773 123.393234 
L 150.013136 121.85667 
L 157.2535 120.125465 
L 164.493864 118.243962 
L 171.734227 116.274355 
L 178.974591 114.290392 
L 186.214955 112.366755 
L 193.455318 110.567758 
L 200.695682 108.939385 
L 207.936045 107.506687 
L 215.176409 106.275957 
L 222.416773 105.239526 
L 229.657136 104.381056 
L 236.8975 103.679987 
L 244.137864 103.114705 
L 251.378227 102.664501 
L 258.618591 102.310614 
L 265.858955 102.036659 
L 273.099318 101.828695 
L 280.339682 101.675083 
L 287.580045 101.566275 
L 294.820409 101.49457 
L 302.060773 101.453898 
L 309.301136 101.439651 
L 316.5415 101.448563 
L 323.781864 101.478658 
L 331.022227 101.529272 
L 338.262591 101.601136 
L 345.502955 101.696543 
L 352.743318 101.819596 
L 359.983682 101.976525 
L 367.224045 102.176095 
L 374.464409 102.43009 
L 381.704773 102.753878 
L 388.945136 103.167041 
L 396.1855 103.694082 
L 403.425864 104.365161 
L 410.666227 105.21688 
L 417.906591 106.293055 
" clip-path="url(#p76c8425d05)" style="fill: none; stroke-dasharray: 7.4,3.2; stroke-dashoffset: 0; stroke: #9370db; stroke-width: 2"/>
   </g>
   <g id="line2d_8">
    <path d="M 55.888409 124.852485 
L 63.128773 124.983003 
L 70.369136 125.083584 
L 77.6095 125.145516 
L 84.849864 125.158399 
L 92.090227 125.109938 
L 99.330591 124.985811 
L 106.570955 124.769685 
L 113.811318 124.443491 
L 121.051682 123.988169 
L 128.292045 123.385076 
L 135.532409 122.618334 
L 142.772773 121.678209 
L 150.013136 120.565291 
L 157.2535 119.29461 
L 164.493864 117.898073 
L 171.734227 116.423416 
L 178.974591 114.928701 
L 186.214955 113.473423 
L 193.455318 112.109146 
L 200.695682 110.872904 
L 207.936045 109.784992 
L 215.176409 108.850652 
L 222.416773 108.063906 
L 229.657136 107.411805 
L 236.8975 106.87801 
L 244.137864 106.445337 
L 251.378227 106.097332 
L 258.618591 105.819105 
L 265.858955 105.597666 
L 273.099318 105.421966 
L 280.339682 105.282774 
L 287.580045 105.172474 
L 294.820409 105.084846 
L 302.060773 105.014848 
L 309.301136 104.958414 
L 316.5415 104.912282 
L 323.781864 104.873847 
L 331.022227 104.841036 
L 338.262591 104.812207 
L 345.502955 104.786064 
L 352.743318 104.761588 
L 359.983682 104.737987 
L 367.224045 104.714647 
L 374.464409 104.691098 
L 381.704773 104.666986 
L 388.945136 104.642049 
L 396.1855 104.616099 
L 403.425864 104.589006 
L 410.666227 104.560689 
L 417.906591 104.531103 
" clip-path="url(#p76c8425d05)" style="fill: none; stroke-dasharray: 12.8,3.2,2,3.2; stroke-dashoffset: 0; stroke: #ff0000; stroke-width: 2"/>
   </g>
   <g id="patch_4">
    <path d="M 37.7875 164.717754 
L 37.7875 73.606737 
" style="fill: none; stroke: #000000; stroke-width: 0.8; stroke-linejoin: miter; stroke-linecap: square"/>
   </g>
   <g id="patch_5">
    <path d="M 436.0075 164.717754 
L 436.0075 73.606737 
" style="fill: none; stroke: #000000; stroke-width: 0.8; stroke-linejoin: miter; stroke-linecap: square"/>
   </g>
   <g id="patch_6">
    <path d="M 37.7875 164.717754 
L 436.0075 164.717754 
" style="fill: none; stroke: #000000; stroke-width: 0.8; stroke-linejoin: miter; stroke-linecap: square"/>
   </g>
   <g id="patch_7">
    <path d="M 37.7875 73.606737 
L 436.0075 73.606737 
" style="fill: none; stroke: #000000; stroke-width: 0.8; stroke-linejoin: miter; stroke-linecap: square"/>
   </g>
  </g>
  <g id="axes_3">
   <g id="patch_8">
    <path d="M 37.7875 276.68 
L 436.0075 276.68 
L 436.0075 185.568983 
L 37.7875 185.568983 
z
" style="fill: #ffffff"/>
   </g>
   <g id="PathCollection_2">
    <g clip-path="url(#p07ce1f8cd3)">
     <use xlink:href="#m4a7e6ec372" x="313.763579" y="238.3681" style="fill: #daa520; stroke: #daa520"/>
     <use xlink:href="#m4a7e6ec372" x="135.77541" y="196.984709" style="fill: #daa520; stroke: #daa520"/>
     <use xlink:href="#m4a7e6ec372" x="295.390449" y="239.377837" style="fill: #daa520; stroke: #daa520"/>
     <use xlink:href="#m4a7e6ec372" x="107.242233" y="202.938258" style="fill: #daa520; stroke: #daa520"/>
     <use xlink:href="#m4a7e6ec372" x="350.314423" y="237.573248" style="fill: #daa520; stroke: #daa520"/>
     <use xlink:href="#m4a7e6ec372" x="162.198069" y="246.649672" style="fill: #daa520; stroke: #daa520"/>
     <use xlink:href="#m4a7e6ec372" x="168.593973" y="201.528698" style="fill: #daa520; stroke: #daa520"/>
     <use xlink:href="#m4a7e6ec372" x="174.798161" y="249.854297" style="fill: #daa520; stroke: #daa520"/>
     <use xlink:href="#m4a7e6ec372" x="264.866471" y="245.490742" style="fill: #daa520; stroke: #daa520"/>
     <use xlink:href="#m4a7e6ec372" x="171.500501" y="197.769098" style="fill: #daa520; stroke: #daa520"/>
     <use xlink:href="#m4a7e6ec372" x="285.750521" y="220.526957" style="fill: #daa520; stroke: #daa520"/>
     <use xlink:href="#m4a7e6ec372" x="167.248699" y="210.321546" style="fill: #daa520; stroke: #daa520"/>
     <use xlink:href="#m4a7e6ec372" x="396.233937" y="220.256389" style="fill: #daa520; stroke: #daa520"/>
     <use xlink:href="#m4a7e6ec372" x="162.297469" y="252.565805" style="fill: #daa520; stroke: #daa520"/>
     <use xlink:href="#m4a7e6ec372" x="176.499492" y="198.312461" style="fill: #daa520; stroke: #daa520"/>
     <use xlink:href="#m4a7e6ec372" x="191.989838" y="241.688529" style="fill: #daa520; stroke: #daa520"/>
     <use xlink:href="#m4a7e6ec372" x="296.80031" y="221.598424" style="fill: #daa520; stroke: #daa520"/>
     <use xlink:href="#m4a7e6ec372" x="180.352677" y="226.974954" style="fill: #daa520; stroke: #daa520"/>
     <use xlink:href="#m4a7e6ec372" x="394.52531" y="228.553183" style="fill: #daa520; stroke: #daa520"/>
     <use xlink:href="#m4a7e6ec372" x="297.140782" y="222.672459" style="fill: #daa520; stroke: #daa520"/>
     <use xlink:href="#m4a7e6ec372" x="274.012712" y="233.311759" style="fill: #daa520; stroke: #daa520"/>
     <use xlink:href="#m4a7e6ec372" x="227.349493" y="213.98792" style="fill: #daa520; stroke: #daa520"/>
     <use xlink:href="#m4a7e6ec372" x="330.18652" y="225.896503" style="fill: #daa520; stroke: #daa520"/>
     <use xlink:href="#m4a7e6ec372" x="194.410179" y="224.650093" style="fill: #daa520; stroke: #daa520"/>
     <use xlink:href="#m4a7e6ec372" x="375.068351" y="215.196037" style="fill: #daa520; stroke: #daa520"/>
     <use xlink:href="#m4a7e6ec372" x="183.398694" y="213.543995" style="fill: #daa520; stroke: #daa520"/>
     <use xlink:href="#m4a7e6ec372" x="368.462669" y="232.290081" style="fill: #daa520; stroke: #daa520"/>
     <use xlink:href="#m4a7e6ec372" x="118.716208" y="199.500191" style="fill: #daa520; stroke: #daa520"/>
     <use xlink:href="#m4a7e6ec372" x="279.373" y="219.834981" style="fill: #daa520; stroke: #daa520"/>
     <use xlink:href="#m4a7e6ec372" x="123.662299" y="193.379889" style="fill: #daa520; stroke: #daa520"/>
     <use xlink:href="#m4a7e6ec372" x="140.049452" y="198.154984" style="fill: #daa520; stroke: #daa520"/>
     <use xlink:href="#m4a7e6ec372" x="107.973692" y="251.862537" style="fill: #daa520; stroke: #daa520"/>
     <use xlink:href="#m4a7e6ec372" x="81.460943" y="263.178533" style="fill: #daa520; stroke: #daa520"/>
     <use xlink:href="#m4a7e6ec372" x="60.732932" y="189.710393" style="fill: #daa520; stroke: #daa520"/>
     <use xlink:href="#m4a7e6ec372" x="416.89223" y="219.301519" style="fill: #daa520; stroke: #daa520"/>
     <use xlink:href="#m4a7e6ec372" x="347.300556" y="221.328379" style="fill: #daa520; stroke: #daa520"/>
     <use xlink:href="#m4a7e6ec372" x="232.744447" y="247.473174" style="fill: #daa520; stroke: #daa520"/>
     <use xlink:href="#m4a7e6ec372" x="128.254997" y="245.538661" style="fill: #daa520; stroke: #daa520"/>
     <use xlink:href="#m4a7e6ec372" x="142.57841" y="242.864321" style="fill: #daa520; stroke: #daa520"/>
     <use xlink:href="#m4a7e6ec372" x="242.721086" y="249.542534" style="fill: #daa520; stroke: #daa520"/>
     <use xlink:href="#m4a7e6ec372" x="104.934465" y="219.993484" style="fill: #daa520; stroke: #daa520"/>
     <use xlink:href="#m4a7e6ec372" x="143.839266" y="196.305155" style="fill: #daa520; stroke: #daa520"/>
     <use xlink:href="#m4a7e6ec372" x="106.784152" y="193.851706" style="fill: #daa520; stroke: #daa520"/>
     <use xlink:href="#m4a7e6ec372" x="224.89266" y="214.444253" style="fill: #daa520; stroke: #daa520"/>
     <use xlink:href="#m4a7e6ec372" x="307.60985" y="225.394919" style="fill: #daa520; stroke: #daa520"/>
     <use xlink:href="#m4a7e6ec372" x="132.004627" y="208.892896" style="fill: #daa520; stroke: #daa520"/>
     <use xlink:href="#m4a7e6ec372" x="136.277396" y="244.460566" style="fill: #daa520; stroke: #daa520"/>
     <use xlink:href="#m4a7e6ec372" x="120.021347" y="248.94573" style="fill: #daa520; stroke: #daa520"/>
     <use xlink:href="#m4a7e6ec372" x="390.376461" y="235.901734" style="fill: #daa520; stroke: #daa520"/>
     <use xlink:href="#m4a7e6ec372" x="362.994047" y="228.761781" style="fill: #daa520; stroke: #daa520"/>
     <use xlink:href="#m4a7e6ec372" x="139.965736" y="249.524679" style="fill: #daa520; stroke: #daa520"/>
     <use xlink:href="#m4a7e6ec372" x="178.013341" y="223.81537" style="fill: #daa520; stroke: #daa520"/>
     <use xlink:href="#m4a7e6ec372" x="320.566665" y="238.700129" style="fill: #daa520; stroke: #daa520"/>
     <use xlink:href="#m4a7e6ec372" x="411.654292" y="223.038967" style="fill: #daa520; stroke: #daa520"/>
     <use xlink:href="#m4a7e6ec372" x="187.618888" y="245.736332" style="fill: #daa520; stroke: #daa520"/>
     <use xlink:href="#m4a7e6ec372" x="191.828871" y="222.164395" style="fill: #daa520; stroke: #daa520"/>
     <use xlink:href="#m4a7e6ec372" x="190.393281" y="222.686748" style="fill: #daa520; stroke: #daa520"/>
     <use xlink:href="#m4a7e6ec372" x="292.229926" y="241.563429" style="fill: #daa520; stroke: #daa520"/>
     <use xlink:href="#m4a7e6ec372" x="231.387409" y="243.054862" style="fill: #daa520; stroke: #daa520"/>
     <use xlink:href="#m4a7e6ec372" x="394.051367" y="228.441671" style="fill: #daa520; stroke: #daa520"/>
     <use xlink:href="#m4a7e6ec372" x="314.702182" y="224.012149" style="fill: #daa520; stroke: #daa520"/>
     <use xlink:href="#m4a7e6ec372" x="148.8671" y="196.856274" style="fill: #daa520; stroke: #daa520"/>
     <use xlink:href="#m4a7e6ec372" x="82.501489" y="253.685428" style="fill: #daa520; stroke: #daa520"/>
     <use xlink:href="#m4a7e6ec372" x="268.668486" y="242.144855" style="fill: #daa520; stroke: #daa520"/>
     <use xlink:href="#m4a7e6ec372" x="61.56655" y="204.211159" style="fill: #daa520; stroke: #daa520"/>
     <use xlink:href="#m4a7e6ec372" x="99.364659" y="190.55364" style="fill: #daa520; stroke: #daa520"/>
     <use xlink:href="#m4a7e6ec372" x="151.747667" y="238.64041" style="fill: #daa520; stroke: #daa520"/>
     <use xlink:href="#m4a7e6ec372" x="133.850037" y="246.093197" style="fill: #daa520; stroke: #daa520"/>
     <use xlink:href="#m4a7e6ec372" x="139.863937" y="248.993428" style="fill: #daa520; stroke: #daa520"/>
     <use xlink:href="#m4a7e6ec372" x="138.164359" y="193.907958" style="fill: #daa520; stroke: #daa520"/>
     <use xlink:href="#m4a7e6ec372" x="168.635491" y="200.874233" style="fill: #daa520; stroke: #daa520"/>
     <use xlink:href="#m4a7e6ec372" x="240.177515" y="218.857505" style="fill: #daa520; stroke: #daa520"/>
     <use xlink:href="#m4a7e6ec372" x="255.047418" y="218.357876" style="fill: #daa520; stroke: #daa520"/>
     <use xlink:href="#m4a7e6ec372" x="253.593451" y="216.007076" style="fill: #daa520; stroke: #daa520"/>
     <use xlink:href="#m4a7e6ec372" x="149.13188" y="249.935868" style="fill: #daa520; stroke: #daa520"/>
     <use xlink:href="#m4a7e6ec372" x="83.468293" y="194.385345" style="fill: #daa520; stroke: #daa520"/>
     <use xlink:href="#m4a7e6ec372" x="180.150761" y="210.346294" style="fill: #daa520; stroke: #daa520"/>
     <use xlink:href="#m4a7e6ec372" x="213.891562" y="241.160872" style="fill: #daa520; stroke: #daa520"/>
     <use xlink:href="#m4a7e6ec372" x="80.928279" y="238.686408" style="fill: #daa520; stroke: #daa520"/>
     <use xlink:href="#m4a7e6ec372" x="196.971988" y="242.105518" style="fill: #daa520; stroke: #daa520"/>
     <use xlink:href="#m4a7e6ec372" x="277.090207" y="224.674087" style="fill: #daa520; stroke: #daa520"/>
     <use xlink:href="#m4a7e6ec372" x="281.999851" y="207.313556" style="fill: #daa520; stroke: #daa520"/>
     <use xlink:href="#m4a7e6ec372" x="415.640864" y="232.218771" style="fill: #daa520; stroke: #daa520"/>
     <use xlink:href="#m4a7e6ec372" x="365.857473" y="232.324143" style="fill: #daa520; stroke: #daa520"/>
     <use xlink:href="#m4a7e6ec372" x="172.523675" y="229.897918" style="fill: #daa520; stroke: #daa520"/>
     <use xlink:href="#m4a7e6ec372" x="368.052514" y="217.627891" style="fill: #daa520; stroke: #daa520"/>
     <use xlink:href="#m4a7e6ec372" x="392.338149" y="224.104681" style="fill: #daa520; stroke: #daa520"/>
     <use xlink:href="#m4a7e6ec372" x="190.567522" y="222.556618" style="fill: #daa520; stroke: #daa520"/>
     <use xlink:href="#m4a7e6ec372" x="356.916173" y="221.706474" style="fill: #daa520; stroke: #daa520"/>
     <use xlink:href="#m4a7e6ec372" x="414.403777" y="218.990764" style="fill: #daa520; stroke: #daa520"/>
     <use xlink:href="#m4a7e6ec372" x="251.832702" y="232.576356" style="fill: #daa520; stroke: #daa520"/>
     <use xlink:href="#m4a7e6ec372" x="214.503749" y="254.285591" style="fill: #daa520; stroke: #daa520"/>
     <use xlink:href="#m4a7e6ec372" x="353.864771" y="224.196737" style="fill: #daa520; stroke: #daa520"/>
     <use xlink:href="#m4a7e6ec372" x="355.800071" y="220.034366" style="fill: #daa520; stroke: #daa520"/>
     <use xlink:href="#m4a7e6ec372" x="56.292144" y="272.53859" style="fill: #daa520; stroke: #daa520"/>
     <use xlink:href="#m4a7e6ec372" x="379.966323" y="240.74905" style="fill: #daa520; stroke: #daa520"/>
     <use xlink:href="#m4a7e6ec372" x="357.622272" y="234.446489" style="fill: #daa520; stroke: #daa520"/>
     <use xlink:href="#m4a7e6ec372" x="128.572706" y="246.6008" style="fill: #daa520; stroke: #daa520"/>
     <use xlink:href="#m4a7e6ec372" x="115.058266" y="250.147451" style="fill: #daa520; stroke: #daa520"/>
     <use xlink:href="#m4a7e6ec372" x="261.610882" y="240.325854" style="fill: #daa520; stroke: #daa520"/>
     <use xlink:href="#m4a7e6ec372" x="275.218236" y="218.121162" style="fill: #daa520; stroke: #daa520"/>
     <use xlink:href="#m4a7e6ec372" x="362.679681" y="235.053806" style="fill: #daa520; stroke: #daa520"/>
     <use xlink:href="#m4a7e6ec372" x="313.444899" y="224.618887" style="fill: #daa520; stroke: #daa520"/>
     <use xlink:href="#m4a7e6ec372" x="107.02522" y="197.602738" style="fill: #daa520; stroke: #daa520"/>
     <use xlink:href="#m4a7e6ec372" x="177.445848" y="233.740104" style="fill: #daa520; stroke: #daa520"/>
     <use xlink:href="#m4a7e6ec372" x="149.195406" y="219.629606" style="fill: #daa520; stroke: #daa520"/>
     <use xlink:href="#m4a7e6ec372" x="244.97937" y="213.564887" style="fill: #daa520; stroke: #daa520"/>
     <use xlink:href="#m4a7e6ec372" x="156.001719" y="243.817192" style="fill: #daa520; stroke: #daa520"/>
     <use xlink:href="#m4a7e6ec372" x="176.584375" y="207.738053" style="fill: #daa520; stroke: #daa520"/>
    </g>
   </g>
   <g id="matplotlib.axis_5">
    <g id="xtick_1">
     <g id="line2d_9">
      <defs>
       <path id="mb5c80df5ef" d="M 0 0 
L 0 3.5 
" style="stroke: #696969; stroke-width: 0.8"/>
      </defs>
      <g>
       <use xlink:href="#mb5c80df5ef" x="55.888409" y="276.68" style="fill: #696969; stroke: #696969; stroke-width: 0.8"/>
      </g>
     </g>
     <g id="text_3">
      <!-- −1.0 -->
      <g style="fill: #696969" transform="translate(36.462159 295.8375) scale(0.16 -0.16)">
       <defs>
        <path id="DejaVuSans-31" d="M 794 531 
L 1825 531 
L 1825 4091 
L 703 3866 
L 703 4441 
L 1819 4666 
L 2450 4666 
L 2450 531 
L 3481 531 
L 3481 0 
L 794 0 
L 794 531 
z
" transform="scale(0.015625)"/>
        <path id="DejaVuSans-2e" d="M 684 794 
L 1344 794 
L 1344 0 
L 684 0 
L 684 794 
z
" transform="scale(0.015625)"/>
       </defs>
       <use xlink:href="#DejaVuSans-2212"/>
       <use xlink:href="#DejaVuSans-31" x="83.789062"/>
       <use xlink:href="#DejaVuSans-2e" x="147.412109"/>
       <use xlink:href="#DejaVuSans-30" x="179.199219"/>
      </g>
     </g>
    </g>
    <g id="xtick_2">
     <g id="line2d_10">
      <g>
       <use xlink:href="#mb5c80df5ef" x="146.392955" y="276.68" style="fill: #696969; stroke: #696969; stroke-width: 0.8"/>
      </g>
     </g>
     <g id="text_4">
      <!-- −0.5 -->
      <g style="fill: #696969" transform="translate(126.966705 295.8375) scale(0.16 -0.16)">
       <use xlink:href="#DejaVuSans-2212"/>
       <use xlink:href="#DejaVuSans-30" x="83.789062"/>
       <use xlink:href="#DejaVuSans-2e" x="147.412109"/>
       <use xlink:href="#DejaVuSans-35" x="179.199219"/>
      </g>
     </g>
    </g>
    <g id="xtick_3">
     <g id="line2d_11">
      <g>
       <use xlink:href="#mb5c80df5ef" x="236.8975" y="276.68" style="fill: #696969; stroke: #696969; stroke-width: 0.8"/>
      </g>
     </g>
     <g id="text_5">
      <!-- 0.0 -->
      <g style="fill: #696969" transform="translate(224.175 295.8375) scale(0.16 -0.16)">
       <use xlink:href="#DejaVuSans-30"/>
       <use xlink:href="#DejaVuSans-2e" x="63.623047"/>
       <use xlink:href="#DejaVuSans-30" x="95.410156"/>
      </g>
     </g>
    </g>
    <g id="xtick_4">
     <g id="line2d_12">
      <g>
       <use xlink:href="#mb5c80df5ef" x="327.402045" y="276.68" style="fill: #696969; stroke: #696969; stroke-width: 0.8"/>
      </g>
     </g>
     <g id="text_6">
      <!-- 0.5 -->
      <g style="fill: #696969" transform="translate(314.679545 295.8375) scale(0.16 -0.16)">
       <use xlink:href="#DejaVuSans-30"/>
       <use xlink:href="#DejaVuSans-2e" x="63.623047"/>
       <use xlink:href="#DejaVuSans-35" x="95.410156"/>
      </g>
     </g>
    </g>
    <g id="xtick_5">
     <g id="line2d_13">
      <g>
       <use xlink:href="#mb5c80df5ef" x="417.906591" y="276.68" style="fill: #696969; stroke: #696969; stroke-width: 0.8"/>
      </g>
     </g>
     <g id="text_7">
      <!-- 1.0 -->
      <g style="fill: #696969" transform="translate(405.184091 295.8375) scale(0.16 -0.16)">
       <use xlink:href="#DejaVuSans-31"/>
       <use xlink:href="#DejaVuSans-2e" x="63.623047"/>
       <use xlink:href="#DejaVuSans-30" x="95.410156"/>
      </g>
     </g>
    </g>
    <g id="text_8">
     <!-- $X$ -->
     <g transform="translate(231.3775 315.3225) scale(0.16 -0.16)">
      <defs>
       <path id="DejaVuSans-Oblique-58" d="M 878 4666 
L 1516 4666 
L 2316 2981 
L 3763 4666 
L 4500 4666 
L 2578 2438 
L 3738 0 
L 3103 0 
L 2163 1966 
L 459 0 
L -275 0 
L 1906 2509 
L 878 4666 
z
" transform="scale(0.015625)"/>
      </defs>
      <use xlink:href="#DejaVuSans-Oblique-58" transform="translate(0 0.09375)"/>
     </g>
    </g>
   </g>
   <g id="matplotlib.axis_6">
    <g id="ytick_3">
     <g id="line2d_14">
      <g>
       <use xlink:href="#me72f6f0a74" x="37.7875" y="273.116466" style="fill: #696969; stroke: #696969; stroke-width: 0.8"/>
      </g>
     </g>
     <g id="text_9">
      <!-- −5 -->
      <g style="fill: #696969" transform="translate(7.2 279.195216) scale(0.16 -0.16)">
       <use xlink:href="#DejaVuSans-2212"/>
       <use xlink:href="#DejaVuSans-35" x="83.789062"/>
      </g>
     </g>
    </g>
    <g id="ytick_4">
     <g id="line2d_15">
      <g>
       <use xlink:href="#me72f6f0a74" x="37.7875" y="225.379443" style="fill: #696969; stroke: #696969; stroke-width: 0.8"/>
      </g>
     </g>
     <g id="text_10">
      <!-- 0 -->
      <g style="fill: #696969" transform="translate(20.6075 231.458193) scale(0.16 -0.16)">
       <use xlink:href="#DejaVuSans-30"/>
      </g>
     </g>
    </g>
   </g>
   <g id="line2d_16">
    <path d="M 55.888409 234.146577 
L 63.128773 232.237046 
L 70.369136 230.505848 
L 77.6095 229.006535 
L 84.849864 227.781419 
L 92.090227 226.858726 
L 99.330591 226.250269 
L 106.570955 225.949947 
L 113.811318 225.933268 
L 121.051682 226.158265 
L 128.292045 226.568029 
L 135.532409 227.095108 
L 142.772773 227.667781 
L 150.013136 228.217778 
L 157.2535 228.688368 
L 164.493864 229.040908 
L 171.734227 229.257738 
L 178.974591 229.340217 
L 186.214955 229.302609 
L 193.455318 229.16471 
L 200.695682 228.94616 
L 207.936045 228.664194 
L 215.176409 228.334277 
L 222.416773 227.972094 
L 229.657136 227.595243 
L 236.8975 227.223873 
L 244.137864 226.880085 
L 251.378227 226.586385 
L 258.618591 226.363657 
L 265.858955 226.229041 
L 273.099318 226.194071 
L 280.339682 226.263246 
L 287.580045 226.433186 
L 294.820409 226.692381 
L 302.060773 227.02158 
L 309.301136 227.394684 
L 316.5415 227.780153 
L 323.781864 228.142772 
L 331.022227 228.445672 
L 338.262591 228.652499 
L 345.502955 228.729608 
L 352.743318 228.648119 
L 359.983682 228.385762 
L 367.224045 227.928377 
L 374.464409 227.270969 
L 381.704773 226.4183 
L 388.945136 225.38494 
L 396.1855 224.194834 
L 403.425864 222.880375 
L 410.666227 221.48108 
L 417.906591 220.04196 
" clip-path="url(#p07ce1f8cd3)" style="fill: none; stroke: #696969; stroke-width: 2; stroke-linecap: square"/>
   </g>
   <g id="line2d_17">
    <path d="M 55.888409 230.680697 
L 63.128773 227.569094 
L 70.369136 225.430623 
L 77.6095 224.026065 
L 84.849864 223.168508 
L 92.090227 222.713109 
L 99.330591 222.548608 
L 106.570955 222.59034 
L 113.811318 222.774517 
L 121.051682 223.0536 
L 128.292045 223.392568 
L 135.532409 223.765953 
L 142.772773 224.155494 
L 150.013136 224.548313 
L 157.2535 224.935495 
L 164.493864 225.311019 
L 171.734227 225.670935 
L 178.974591 226.012771 
L 186.214955 226.33508 
L 193.455318 226.637122 
L 200.695682 226.918635 
L 207.936045 227.179673 
L 215.176409 227.420489 
L 222.416773 227.64146 
L 229.657136 227.84303 
L 236.8975 228.025671 
L 244.137864 228.189854 
L 251.378227 228.336032 
L 258.618591 228.464616 
L 265.858955 228.575963 
L 273.099318 228.670355 
L 280.339682 228.747979 
L 287.580045 228.808896 
L 294.820409 228.853003 
L 302.060773 228.879977 
L 309.301136 228.889207 
L 316.5415 228.87969 
L 323.781864 228.849918 
L 331.022227 228.797709 
L 338.262591 228.720024 
L 345.502955 228.612723 
L 352.743318 228.4703 
L 359.983682 228.285556 
L 367.224045 228.049257 
L 374.464409 227.749744 
L 381.704773 227.372539 
L 388.945136 226.899945 
L 396.1855 226.310675 
L 403.425864 225.579536 
L 410.666227 224.677216 
L 417.906591 223.57022 
" clip-path="url(#p07ce1f8cd3)" style="fill: none; stroke-dasharray: 7.4,3.2; stroke-dashoffset: 0; stroke: #79ad41; stroke-width: 2"/>
   </g>
   <g id="patch_9">
    <path d="M 37.7875 276.68 
L 37.7875 185.568983 
" style="fill: none; stroke: #000000; stroke-width: 0.8; stroke-linejoin: miter; stroke-linecap: square"/>
   </g>
   <g id="patch_10">
    <path d="M 436.0075 276.68 
L 436.0075 185.568983 
" style="fill: none; stroke: #000000; stroke-width: 0.8; stroke-linejoin: miter; stroke-linecap: square"/>
   </g>
   <g id="patch_11">
    <path d="M 37.7875 276.68 
L 436.0075 276.68 
" style="fill: none; stroke: #000000; stroke-width: 0.8; stroke-linejoin: miter; stroke-linecap: square"/>
   </g>
   <g id="patch_12">
    <path d="M 37.7875 185.568983 
L 436.0075 185.568983 
" style="fill: none; stroke: #000000; stroke-width: 0.8; stroke-linejoin: miter; stroke-linecap: square"/>
   </g>
  </g>
 </g>
 <defs>
  <clipPath id="pef1ccb3961">
   <rect x="37.7875" y="7.2" width="398.22" height="45.555509"/>
  </clipPath>
  <clipPath id="p76c8425d05">
   <rect x="37.7875" y="73.606737" width="398.22" height="91.111017"/>
  </clipPath>
  <clipPath id="p07ce1f8cd3">
   <rect x="37.7875" y="185.568983" width="398.22" height="91.111017"/>
  </clipPath>
 </defs>
</svg>
