<?xml version="1.0" encoding="utf-8" standalone="no"?>
<!DOCTYPE svg PUBLIC "-//W3C//DTD SVG 1.1//EN"
  "http://www.w3.org/Graphics/SVG/1.1/DTD/svg11.dtd">
<svg xmlns:xlink="http://www.w3.org/1999/xlink" width="443.2625pt" height="325.85pt" viewBox="0 0 443.2625 325.85" xmlns="http://www.w3.org/2000/svg" version="1.1">
 <metadata>
  <rdf:RDF xmlns:dc="http://purl.org/dc/elements/1.1/" xmlns:cc="http://creativecommons.org/ns#" xmlns:rdf="http://www.w3.org/1999/02/22-rdf-syntax-ns#">
   <cc:Work>
    <dc:type rdf:resource="http://purl.org/dc/dcmitype/StillImage"/>
    <dc:date>2024-01-28T20:55:57.708397</dc:date>
    <dc:format>image/svg+xml</dc:format>
    <dc:creator>
     <cc:Agent>
      <dc:title>Matplotlib v3.7.2, https://matplotlib.org/</dc:title>
     </cc:Agent>
    </dc:creator>
   </cc:Work>
  </rdf:RDF>
 </metadata>
 <defs>
  <style type="text/css">*{stroke-linejoin: round; stroke-linecap: butt}</style>
 </defs>
 <g id="figure_1">
  <g id="patch_1">
   <path d="M 0 325.85 
L 443.2625 325.85 
L 443.2625 0 
L 0 0 
z
" style="fill: #ffffff"/>
  </g>
  <g id="axes_1">
   <g id="patch_2">
    <path d="M 53.0525 54.696 
L 436.0625 54.696 
L 436.0625 7.2 
L 53.0525 7.2 
z
" style="fill: #ffffff"/>
   </g>
   <g id="PolyCollection_1">
    <defs>
     <path id="m3fbac79c1b" d="M 70.462045 -273.312909 
L 70.462045 -309.713679 
L 77.425864 -309.464067 
L 84.389682 -309.142771 
L 91.3535 -308.751743 
L 98.317318 -308.293036 
L 105.281136 -307.769001 
L 112.244955 -307.182524 
L 119.208773 -306.537201 
L 126.172591 -305.837567 
L 133.136409 -305.089166 
L 140.100227 -304.298677 
L 147.064045 -303.473919 
L 154.027864 -302.623792 
L 160.991682 -301.758158 
L 167.9555 -300.887633 
L 174.919318 -300.023381 
L 181.883136 -299.176806 
L 188.846955 -298.35927 
L 195.810773 -297.581871 
L 202.774591 -296.855179 
L 209.738409 -296.189107 
L 216.702227 -295.592786 
L 223.666045 -295.074577 
L 230.629864 -294.642089 
L 237.593682 -294.302275 
L 244.5575 -294.061552 
L 251.521318 -293.925956 
L 258.485136 -293.901238 
L 265.448955 -293.992968 
L 272.412773 -294.206553 
L 279.376591 -294.547168 
L 286.340409 -295.019563 
L 293.304227 -295.627723 
L 300.268045 -296.374402 
L 307.231864 -297.260447 
L 314.195682 -298.284002 
L 321.1595 -299.439651 
L 328.123318 -300.717584 
L 335.087136 -302.102906 
L 342.050955 -303.575371 
L 349.014773 -305.109622 
L 355.978591 -306.676111 
L 362.942409 -308.24272 
L 369.906227 -309.776886 
L 376.870045 -311.248002 
L 383.833864 -312.629657 
L 390.797682 -313.901369 
L 397.7615 -315.049569 
L 404.725318 -316.067706 
L 411.689136 -316.491091 
L 418.652955 -316.491091 
L 418.652955 -273.312909 
L 418.652955 -273.312909 
L 411.689136 -273.312909 
L 404.725318 -273.312909 
L 397.7615 -273.312909 
L 390.797682 -273.312909 
L 383.833864 -273.312909 
L 376.870045 -273.312909 
L 369.906227 -273.312909 
L 362.942409 -273.312909 
L 355.978591 -273.312909 
L 349.014773 -273.312909 
L 342.050955 -273.312909 
L 335.087136 -273.312909 
L 328.123318 -273.312909 
L 321.1595 -273.312909 
L 314.195682 -273.312909 
L 307.231864 -273.312909 
L 300.268045 -273.312909 
L 293.304227 -273.312909 
L 286.340409 -273.312909 
L 279.376591 -273.312909 
L 272.412773 -273.312909 
L 265.448955 -273.312909 
L 258.485136 -273.312909 
L 251.521318 -273.312909 
L 244.5575 -273.312909 
L 237.593682 -273.312909 
L 230.629864 -273.312909 
L 223.666045 -273.312909 
L 216.702227 -273.312909 
L 209.738409 -273.312909 
L 202.774591 -273.312909 
L 195.810773 -273.312909 
L 188.846955 -273.312909 
L 181.883136 -273.312909 
L 174.919318 -273.312909 
L 167.9555 -273.312909 
L 160.991682 -273.312909 
L 154.027864 -273.312909 
L 147.064045 -273.312909 
L 140.100227 -273.312909 
L 133.136409 -273.312909 
L 126.172591 -273.312909 
L 119.208773 -273.312909 
L 112.244955 -273.312909 
L 105.281136 -273.312909 
L 98.317318 -273.312909 
L 91.3535 -273.312909 
L 84.389682 -273.312909 
L 77.425864 -273.312909 
L 70.462045 -273.312909 
z
" style="stroke: #dc143c; stroke-opacity: 0.2"/>
    </defs>
    <g clip-path="url(#p31451ab04d)">
     <use xlink:href="#m3fbac79c1b" x="0" y="325.85" style="fill: #dc143c; fill-opacity: 0.2; stroke: #dc143c; stroke-opacity: 0.2"/>
    </g>
   </g>
   <g id="PolyCollection_2">
    <defs>
     <path id="m4bb25050f1" d="M 70.462045 -273.312909 
L 70.462045 -284.887897 
L 77.425864 -285.137509 
L 84.389682 -285.458805 
L 91.3535 -285.849832 
L 98.317318 -286.30854 
L 105.281136 -286.832574 
L 112.244955 -287.419052 
L 119.208773 -288.064375 
L 126.172591 -288.764009 
L 133.136409 -289.51241 
L 140.100227 -290.302898 
L 147.064045 -291.127657 
L 154.027864 -291.977783 
L 160.991682 -292.843417 
L 167.9555 -293.713943 
L 174.919318 -294.578195 
L 181.883136 -295.42477 
L 188.846955 -296.242306 
L 195.810773 -297.019704 
L 202.774591 -297.746397 
L 209.738409 -298.412469 
L 216.702227 -299.00879 
L 223.666045 -299.526999 
L 230.629864 -299.959486 
L 237.593682 -300.299301 
L 244.5575 -300.540024 
L 251.521318 -300.67562 
L 258.485136 -300.700338 
L 265.448955 -300.608608 
L 272.412773 -300.395022 
L 279.376591 -300.054408 
L 286.340409 -299.582013 
L 293.304227 -298.973853 
L 300.268045 -298.227174 
L 307.231864 -297.341128 
L 314.195682 -296.317574 
L 321.1595 -295.161925 
L 328.123318 -293.883992 
L 335.087136 -292.49867 
L 342.050955 -291.026205 
L 349.014773 -289.491954 
L 355.978591 -287.925464 
L 362.942409 -286.358856 
L 369.906227 -284.82469 
L 376.870045 -283.353574 
L 383.833864 -281.971919 
L 390.797682 -280.700207 
L 397.7615 -279.552006 
L 404.725318 -278.53387 
L 411.689136 -278.110485 
L 418.652955 -278.110485 
L 418.652955 -273.312909 
L 418.652955 -273.312909 
L 411.689136 -273.312909 
L 404.725318 -273.312909 
L 397.7615 -273.312909 
L 390.797682 -273.312909 
L 383.833864 -273.312909 
L 376.870045 -273.312909 
L 369.906227 -273.312909 
L 362.942409 -273.312909 
L 355.978591 -273.312909 
L 349.014773 -273.312909 
L 342.050955 -273.312909 
L 335.087136 -273.312909 
L 328.123318 -273.312909 
L 321.1595 -273.312909 
L 314.195682 -273.312909 
L 307.231864 -273.312909 
L 300.268045 -273.312909 
L 293.304227 -273.312909 
L 286.340409 -273.312909 
L 279.376591 -273.312909 
L 272.412773 -273.312909 
L 265.448955 -273.312909 
L 258.485136 -273.312909 
L 251.521318 -273.312909 
L 244.5575 -273.312909 
L 237.593682 -273.312909 
L 230.629864 -273.312909 
L 223.666045 -273.312909 
L 216.702227 -273.312909 
L 209.738409 -273.312909 
L 202.774591 -273.312909 
L 195.810773 -273.312909 
L 188.846955 -273.312909 
L 181.883136 -273.312909 
L 174.919318 -273.312909 
L 167.9555 -273.312909 
L 160.991682 -273.312909 
L 154.027864 -273.312909 
L 147.064045 -273.312909 
L 140.100227 -273.312909 
L 133.136409 -273.312909 
L 126.172591 -273.312909 
L 119.208773 -273.312909 
L 112.244955 -273.312909 
L 105.281136 -273.312909 
L 98.317318 -273.312909 
L 91.3535 -273.312909 
L 84.389682 -273.312909 
L 77.425864 -273.312909 
L 70.462045 -273.312909 
z
" style="stroke: #000080; stroke-opacity: 0.2"/>
    </defs>
    <g clip-path="url(#p31451ab04d)">
     <use xlink:href="#m4bb25050f1" x="0" y="325.85" style="fill: #000080; fill-opacity: 0.2; stroke: #000080; stroke-opacity: 0.2"/>
    </g>
   </g>
   <g id="matplotlib.axis_1"/>
   <g id="matplotlib.axis_2"/>
   <g id="line2d_1">
    <path d="M 70.462045 16.136321 
L 77.425864 16.385933 
L 84.389682 16.707229 
L 91.3535 17.098257 
L 98.317318 17.556964 
L 105.281136 18.080999 
L 112.244955 18.667476 
L 119.208773 19.312799 
L 126.172591 20.012433 
L 133.136409 20.760834 
L 140.100227 21.551323 
L 147.064045 22.376081 
L 154.027864 23.226208 
L 160.991682 24.091842 
L 167.9555 24.962367 
L 174.919318 25.826619 
L 181.883136 26.673194 
L 188.846955 27.49073 
L 195.810773 28.268129 
L 202.774591 28.994821 
L 209.738409 29.660893 
L 216.702227 30.257214 
L 223.666045 30.775423 
L 230.629864 31.207911 
L 237.593682 31.547725 
L 244.5575 31.788448 
L 251.521318 31.924044 
L 258.485136 31.948762 
L 265.448955 31.857032 
L 272.412773 31.643447 
L 279.376591 31.302832 
L 286.340409 30.830437 
L 293.304227 30.222277 
L 300.268045 29.475598 
L 307.231864 28.589553 
L 314.195682 27.565998 
L 321.1595 26.410349 
L 328.123318 25.132416 
L 335.087136 23.747094 
L 342.050955 22.274629 
L 349.014773 20.740378 
L 355.978591 19.173889 
L 362.942409 17.60728 
L 369.906227 16.073114 
L 376.870045 14.601998 
L 383.833864 13.220343 
L 390.797682 11.948631 
L 397.7615 10.800431 
L 404.725318 9.782294 
L 411.689136 9.358909 
L 418.652955 9.358909 
" clip-path="url(#p31451ab04d)" style="fill: none; stroke: #dc143c; stroke-width: 1.5; stroke-linecap: square"/>
   </g>
   <g id="line2d_2">
    <path d="M 70.462045 40.962103 
L 77.425864 40.712491 
L 84.389682 40.391195 
L 91.3535 40.000168 
L 98.317318 39.54146 
L 105.281136 39.017426 
L 112.244955 38.430948 
L 119.208773 37.785625 
L 126.172591 37.085991 
L 133.136409 36.33759 
L 140.100227 35.547102 
L 147.064045 34.722343 
L 154.027864 33.872217 
L 160.991682 33.006583 
L 167.9555 32.136057 
L 174.919318 31.271805 
L 181.883136 30.42523 
L 188.846955 29.607694 
L 195.810773 28.830296 
L 202.774591 28.103603 
L 209.738409 27.437531 
L 216.702227 26.84121 
L 223.666045 26.323001 
L 230.629864 25.890514 
L 237.593682 25.550699 
L 244.5575 25.309976 
L 251.521318 25.17438 
L 258.485136 25.149662 
L 265.448955 25.241392 
L 272.412773 25.454978 
L 279.376591 25.795592 
L 286.340409 26.267987 
L 293.304227 26.876147 
L 300.268045 27.622826 
L 307.231864 28.508872 
L 314.195682 29.532426 
L 321.1595 30.688075 
L 328.123318 31.966008 
L 335.087136 33.35133 
L 342.050955 34.823795 
L 349.014773 36.358046 
L 355.978591 37.924536 
L 362.942409 39.491144 
L 369.906227 41.02531 
L 376.870045 42.496426 
L 383.833864 43.878081 
L 390.797682 45.149793 
L 397.7615 46.297994 
L 404.725318 47.31613 
L 411.689136 47.739515 
L 418.652955 47.739515 
" clip-path="url(#p31451ab04d)" style="fill: none; stroke: #000080; stroke-width: 1.5; stroke-linecap: square"/>
   </g>
  </g>
  <g id="axes_2">
   <g id="patch_3">
    <path d="M 53.0525 165.688 
L 436.0625 165.688 
L 436.0625 70.696 
L 53.0525 70.696 
z
" style="fill: #ffffff"/>
   </g>
   <g id="PathCollection_1">
    <defs>
     <path id="m15582dc65a" d="M 0 0.866025 
C 0.229673 0.866025 0.449969 0.774776 0.612372 0.612372 
C 0.774776 0.449969 0.866025 0.229673 0.866025 0 
C 0.866025 -0.229673 0.774776 -0.449969 0.612372 -0.612372 
C 0.449969 -0.774776 0.229673 -0.866025 0 -0.866025 
C -0.229673 -0.866025 -0.449969 -0.774776 -0.612372 -0.612372 
C -0.774776 -0.449969 -0.866025 -0.229673 -0.866025 0 
C -0.866025 0.229673 -0.774776 0.449969 -0.612372 0.612372 
C -0.449969 0.774776 -0.229673 0.866025 0 0.866025 
z
" style="stroke: #daa520"/>
    </defs>
    <g clip-path="url(#p73d912ed78)">
     <use xlink:href="#m15582dc65a" x="365.752796" y="104.396048" style="fill: #daa520; stroke: #daa520"/>
     <use xlink:href="#m15582dc65a" x="129.385607" y="131.350396" style="fill: #daa520; stroke: #daa520"/>
     <use xlink:href="#m15582dc65a" x="167.082545" y="110.442861" style="fill: #daa520; stroke: #daa520"/>
     <use xlink:href="#m15582dc65a" x="351.721056" y="96.439827" style="fill: #daa520; stroke: #daa520"/>
     <use xlink:href="#m15582dc65a" x="208.472481" y="91.021004" style="fill: #daa520; stroke: #daa520"/>
     <use xlink:href="#m15582dc65a" x="111.070381" y="137.238699" style="fill: #daa520; stroke: #daa520"/>
     <use xlink:href="#m15582dc65a" x="365.699927" y="102.18749" style="fill: #daa520; stroke: #daa520"/>
     <use xlink:href="#m15582dc65a" x="411.834975" y="121.680844" style="fill: #daa520; stroke: #daa520"/>
     <use xlink:href="#m15582dc65a" x="353.007211" y="99.644701" style="fill: #daa520; stroke: #daa520"/>
     <use xlink:href="#m15582dc65a" x="96.327806" y="137.954269" style="fill: #daa520; stroke: #daa520"/>
     <use xlink:href="#m15582dc65a" x="109.88469" y="134.637761" style="fill: #daa520; stroke: #daa520"/>
     <use xlink:href="#m15582dc65a" x="321.797268" y="100.863713" style="fill: #daa520; stroke: #daa520"/>
     <use xlink:href="#m15582dc65a" x="378.451516" y="114.67137" style="fill: #daa520; stroke: #daa520"/>
     <use xlink:href="#m15582dc65a" x="120.451472" y="137.501053" style="fill: #daa520; stroke: #daa520"/>
     <use xlink:href="#m15582dc65a" x="207.21618" y="97.077213" style="fill: #daa520; stroke: #daa520"/>
     <use xlink:href="#m15582dc65a" x="139.235604" y="120.614724" style="fill: #daa520; stroke: #daa520"/>
     <use xlink:href="#m15582dc65a" x="234.514753" y="97.938571" style="fill: #daa520; stroke: #daa520"/>
     <use xlink:href="#m15582dc65a" x="308.55871" y="102.095689" style="fill: #daa520; stroke: #daa520"/>
     <use xlink:href="#m15582dc65a" x="148.068348" y="121.933398" style="fill: #daa520; stroke: #daa520"/>
     <use xlink:href="#m15582dc65a" x="264.271716" y="103.385997" style="fill: #daa520; stroke: #daa520"/>
     <use xlink:href="#m15582dc65a" x="140.727312" y="121.981215" style="fill: #daa520; stroke: #daa520"/>
     <use xlink:href="#m15582dc65a" x="228.457451" y="75.013818" style="fill: #daa520; stroke: #daa520"/>
     <use xlink:href="#m15582dc65a" x="388.671169" y="107.073482" style="fill: #daa520; stroke: #daa520"/>
     <use xlink:href="#m15582dc65a" x="118.996086" y="128.836299" style="fill: #daa520; stroke: #daa520"/>
     <use xlink:href="#m15582dc65a" x="111.798589" y="141.681351" style="fill: #daa520; stroke: #daa520"/>
     <use xlink:href="#m15582dc65a" x="152.499968" y="117.811914" style="fill: #daa520; stroke: #daa520"/>
     <use xlink:href="#m15582dc65a" x="265.037146" y="91.248299" style="fill: #daa520; stroke: #daa520"/>
     <use xlink:href="#m15582dc65a" x="76.327617" y="147.345328" style="fill: #daa520; stroke: #daa520"/>
     <use xlink:href="#m15582dc65a" x="346.935395" y="92.409233" style="fill: #daa520; stroke: #daa520"/>
     <use xlink:href="#m15582dc65a" x="396.09605" y="102.19827" style="fill: #daa520; stroke: #daa520"/>
     <use xlink:href="#m15582dc65a" x="79.459611" y="140.903497" style="fill: #daa520; stroke: #daa520"/>
     <use xlink:href="#m15582dc65a" x="384.935583" y="100.778385" style="fill: #daa520; stroke: #daa520"/>
     <use xlink:href="#m15582dc65a" x="392.19018" y="121.730727" style="fill: #daa520; stroke: #daa520"/>
     <use xlink:href="#m15582dc65a" x="129.800002" y="122.055269" style="fill: #daa520; stroke: #daa520"/>
     <use xlink:href="#m15582dc65a" x="253.0443" y="88.203299" style="fill: #daa520; stroke: #daa520"/>
     <use xlink:href="#m15582dc65a" x="390.534833" y="80.907711" style="fill: #daa520; stroke: #daa520"/>
     <use xlink:href="#m15582dc65a" x="328.317036" y="97.627718" style="fill: #daa520; stroke: #daa520"/>
     <use xlink:href="#m15582dc65a" x="116.120843" y="135.867239" style="fill: #daa520; stroke: #daa520"/>
     <use xlink:href="#m15582dc65a" x="160.291288" y="124.665644" style="fill: #daa520; stroke: #daa520"/>
     <use xlink:href="#m15582dc65a" x="96.094254" y="145.016908" style="fill: #daa520; stroke: #daa520"/>
     <use xlink:href="#m15582dc65a" x="105.308685" y="131.619997" style="fill: #daa520; stroke: #daa520"/>
     <use xlink:href="#m15582dc65a" x="350.146062" y="97.709544" style="fill: #daa520; stroke: #daa520"/>
     <use xlink:href="#m15582dc65a" x="201.272282" y="104.641439" style="fill: #daa520; stroke: #daa520"/>
     <use xlink:href="#m15582dc65a" x="408.002032" y="95.217671" style="fill: #daa520; stroke: #daa520"/>
     <use xlink:href="#m15582dc65a" x="253.225123" y="101.389449" style="fill: #daa520; stroke: #daa520"/>
     <use xlink:href="#m15582dc65a" x="338.768873" y="94.089436" style="fill: #daa520; stroke: #daa520"/>
     <use xlink:href="#m15582dc65a" x="303.265226" y="100.460675" style="fill: #daa520; stroke: #daa520"/>
     <use xlink:href="#m15582dc65a" x="103.861128" y="143.337211" style="fill: #daa520; stroke: #daa520"/>
     <use xlink:href="#m15582dc65a" x="87.647808" y="144.018429" style="fill: #daa520; stroke: #daa520"/>
     <use xlink:href="#m15582dc65a" x="379.383622" y="109.571056" style="fill: #daa520; stroke: #daa520"/>
     <use xlink:href="#m15582dc65a" x="190.622114" y="77.433241" style="fill: #daa520; stroke: #daa520"/>
     <use xlink:href="#m15582dc65a" x="97.709497" y="140.405067" style="fill: #daa520; stroke: #daa520"/>
     <use xlink:href="#m15582dc65a" x="405.315919" y="121.59068" style="fill: #daa520; stroke: #daa520"/>
     <use xlink:href="#m15582dc65a" x="277.19206" y="107.965046" style="fill: #daa520; stroke: #daa520"/>
     <use xlink:href="#m15582dc65a" x="279.981403" y="103.348868" style="fill: #daa520; stroke: #daa520"/>
     <use xlink:href="#m15582dc65a" x="123.166659" y="131.770805" style="fill: #daa520; stroke: #daa520"/>
     <use xlink:href="#m15582dc65a" x="375.172067" y="82.626628" style="fill: #daa520; stroke: #daa520"/>
     <use xlink:href="#m15582dc65a" x="367.50413" y="84.109739" style="fill: #daa520; stroke: #daa520"/>
     <use xlink:href="#m15582dc65a" x="71.881382" y="153.058366" style="fill: #daa520; stroke: #daa520"/>
     <use xlink:href="#m15582dc65a" x="317.188618" y="104.725932" style="fill: #daa520; stroke: #daa520"/>
     <use xlink:href="#m15582dc65a" x="394.845564" y="114.635633" style="fill: #daa520; stroke: #daa520"/>
     <use xlink:href="#m15582dc65a" x="100.298994" y="144.635877" style="fill: #daa520; stroke: #daa520"/>
     <use xlink:href="#m15582dc65a" x="173.568225" y="95.56917" style="fill: #daa520; stroke: #daa520"/>
     <use xlink:href="#m15582dc65a" x="259.091412" y="89.326845" style="fill: #daa520; stroke: #daa520"/>
     <use xlink:href="#m15582dc65a" x="131.233848" y="124.943459" style="fill: #daa520; stroke: #daa520"/>
     <use xlink:href="#m15582dc65a" x="74.085624" y="161.370182" style="fill: #daa520; stroke: #daa520"/>
     <use xlink:href="#m15582dc65a" x="204.827135" y="105.88736" style="fill: #daa520; stroke: #daa520"/>
     <use xlink:href="#m15582dc65a" x="390.046114" y="103.587072" style="fill: #daa520; stroke: #daa520"/>
     <use xlink:href="#m15582dc65a" x="290.389761" y="105.550225" style="fill: #daa520; stroke: #daa520"/>
     <use xlink:href="#m15582dc65a" x="381.939006" y="81.7293" style="fill: #daa520; stroke: #daa520"/>
     <use xlink:href="#m15582dc65a" x="161.059942" y="114.228694" style="fill: #daa520; stroke: #daa520"/>
     <use xlink:href="#m15582dc65a" x="347.645123" y="97.927256" style="fill: #daa520; stroke: #daa520"/>
     <use xlink:href="#m15582dc65a" x="266.998592" y="104.870618" style="fill: #daa520; stroke: #daa520"/>
     <use xlink:href="#m15582dc65a" x="341.346841" y="95.782772" style="fill: #daa520; stroke: #daa520"/>
     <use xlink:href="#m15582dc65a" x="407.06887" y="120.676942" style="fill: #daa520; stroke: #daa520"/>
     <use xlink:href="#m15582dc65a" x="131.619876" y="136.511202" style="fill: #daa520; stroke: #daa520"/>
     <use xlink:href="#m15582dc65a" x="331.210935" y="98.272614" style="fill: #daa520; stroke: #daa520"/>
     <use xlink:href="#m15582dc65a" x="130.416442" y="141.784984" style="fill: #daa520; stroke: #daa520"/>
     <use xlink:href="#m15582dc65a" x="279.32451" y="96.278327" style="fill: #daa520; stroke: #daa520"/>
     <use xlink:href="#m15582dc65a" x="347.537814" y="98.571923" style="fill: #daa520; stroke: #daa520"/>
     <use xlink:href="#m15582dc65a" x="70.481742" y="148.108453" style="fill: #daa520; stroke: #daa520"/>
     <use xlink:href="#m15582dc65a" x="127.678824" y="143.07878" style="fill: #daa520; stroke: #daa520"/>
     <use xlink:href="#m15582dc65a" x="78.998008" y="141.272862" style="fill: #daa520; stroke: #daa520"/>
     <use xlink:href="#m15582dc65a" x="142.66192" y="121.508807" style="fill: #daa520; stroke: #daa520"/>
     <use xlink:href="#m15582dc65a" x="72.55639" y="142.943546" style="fill: #daa520; stroke: #daa520"/>
     <use xlink:href="#m15582dc65a" x="234.502117" y="92.141176" style="fill: #daa520; stroke: #daa520"/>
     <use xlink:href="#m15582dc65a" x="290.560757" y="106.94114" style="fill: #daa520; stroke: #daa520"/>
     <use xlink:href="#m15582dc65a" x="179.406825" y="119.599587" style="fill: #daa520; stroke: #daa520"/>
     <use xlink:href="#m15582dc65a" x="121.726516" y="127.047533" style="fill: #daa520; stroke: #daa520"/>
     <use xlink:href="#m15582dc65a" x="346.811127" y="99.23683" style="fill: #daa520; stroke: #daa520"/>
    </g>
   </g>
   <g id="matplotlib.axis_3"/>
   <g id="matplotlib.axis_4">
    <g id="ytick_1">
     <g id="line2d_3">
      <defs>
       <path id="m427a64799a" d="M 0 0 
L -3.5 0 
" style="stroke: #696969; stroke-width: 0.8"/>
      </defs>
      <g>
       <use xlink:href="#m427a64799a" x="53.0525" y="140.174982" style="fill: #696969; stroke: #696969; stroke-width: 0.8"/>
      </g>
     </g>
     <g id="text_1">
      <!-- −5 -->
      <g style="fill: #696969" transform="translate(22.465 146.253732) scale(0.16 -0.16)">
       <defs>
        <path id="DejaVuSans-2212" d="M 678 2272 
L 4684 2272 
L 4684 1741 
L 678 1741 
L 678 2272 
z
" transform="scale(0.015625)"/>
        <path id="DejaVuSans-35" d="M 691 4666 
L 3169 4666 
L 3169 4134 
L 1269 4134 
L 1269 2991 
Q 1406 3038 1543 3061 
Q 1681 3084 1819 3084 
Q 2600 3084 3056 2656 
Q 3513 2228 3513 1497 
Q 3513 744 3044 326 
Q 2575 -91 1722 -91 
Q 1428 -91 1123 -41 
Q 819 9 494 109 
L 494 744 
Q 775 591 1075 516 
Q 1375 441 1709 441 
Q 2250 441 2565 725 
Q 2881 1009 2881 1497 
Q 2881 1984 2565 2268 
Q 2250 2553 1709 2553 
Q 1456 2553 1204 2497 
Q 953 2441 691 2322 
L 691 4666 
z
" transform="scale(0.015625)"/>
       </defs>
       <use xlink:href="#DejaVuSans-2212"/>
       <use xlink:href="#DejaVuSans-35" x="83.789062"/>
      </g>
     </g>
    </g>
    <g id="ytick_2">
     <g id="line2d_4">
      <g>
       <use xlink:href="#m427a64799a" x="53.0525" y="112.788131" style="fill: #696969; stroke: #696969; stroke-width: 0.8"/>
      </g>
     </g>
     <g id="text_2">
      <!-- 0 -->
      <g style="fill: #696969" transform="translate(35.8725 118.866881) scale(0.16 -0.16)">
       <defs>
        <path id="DejaVuSans-30" d="M 2034 4250 
Q 1547 4250 1301 3770 
Q 1056 3291 1056 2328 
Q 1056 1369 1301 889 
Q 1547 409 2034 409 
Q 2525 409 2770 889 
Q 3016 1369 3016 2328 
Q 3016 3291 2770 3770 
Q 2525 4250 2034 4250 
z
M 2034 4750 
Q 2819 4750 3233 4129 
Q 3647 3509 3647 2328 
Q 3647 1150 3233 529 
Q 2819 -91 2034 -91 
Q 1250 -91 836 529 
Q 422 1150 422 2328 
Q 422 3509 836 4129 
Q 1250 4750 2034 4750 
z
" transform="scale(0.015625)"/>
       </defs>
       <use xlink:href="#DejaVuSans-30"/>
      </g>
     </g>
    </g>
    <g id="ytick_3">
     <g id="line2d_5">
      <g>
       <use xlink:href="#m427a64799a" x="53.0525" y="85.401281" style="fill: #696969; stroke: #696969; stroke-width: 0.8"/>
      </g>
     </g>
     <g id="text_3">
      <!-- 5 -->
      <g style="fill: #696969" transform="translate(35.8725 91.480031) scale(0.16 -0.16)">
       <use xlink:href="#DejaVuSans-35"/>
      </g>
     </g>
    </g>
   </g>
   <g id="line2d_6">
    <path d="M 70.462045 147.60115 
L 77.425864 145.883681 
L 84.389682 144.146245 
L 91.3535 142.478649 
L 98.317318 140.85573 
L 105.281136 139.19651 
L 112.244955 137.421747 
L 119.208773 135.481638 
L 126.172591 133.349406 
L 133.136409 130.994525 
L 140.100227 128.355463 
L 147.064045 125.330074 
L 154.027864 121.795897 
L 160.991682 117.661954 
L 167.9555 112.937053 
L 174.919318 107.78363 
L 181.883136 102.523522 
L 188.846955 97.580823 
L 195.810773 93.379294 
L 202.774591 90.237281 
L 209.738409 88.303895 
L 216.702227 87.556442 
L 223.666045 87.847497 
L 230.629864 88.970089 
L 237.593682 90.70947 
L 244.5575 92.865175 
L 251.521318 95.246322 
L 258.485136 97.656826 
L 265.448955 99.889987 
L 272.412773 101.743529 
L 279.376591 103.05174 
L 286.340409 103.719762 
L 293.304227 103.742941 
L 300.268045 103.201585 
L 307.231864 102.233355 
L 314.195682 100.995312 
L 321.1595 99.632351 
L 328.123318 98.266297 
L 335.087136 97.009651 
L 342.050955 95.991674 
L 349.014773 95.370932 
L 355.978591 95.309326 
L 362.942409 95.904604 
L 369.906227 97.111743 
L 376.870045 98.705111 
L 383.833864 100.321614 
L 390.797682 101.580486 
L 397.7615 102.225028 
L 404.725318 102.21115 
L 411.689136 101.694085 
L 418.652955 100.921617 
" clip-path="url(#p73d912ed78)" style="fill: none; stroke: #000000; stroke-width: 2; stroke-linecap: square"/>
   </g>
   <g id="line2d_7">
    <path d="M 70.462045 150.178722 
L 77.425864 146.84518 
L 84.389682 144.559108 
L 91.3535 142.783906 
L 98.317318 141.130308 
L 105.281136 139.332673 
L 112.244955 137.227454 
L 119.208773 134.733773 
L 126.172591 131.835997 
L 133.136409 128.568232 
L 140.100227 125.000642 
L 147.064045 121.227498 
L 154.027864 117.35688 
L 160.991682 113.501915 
L 167.9555 109.773493 
L 174.919318 106.274338 
L 181.883136 103.094371 
L 188.846955 100.307249 
L 195.810773 97.96801 
L 202.774591 96.111721 
L 209.738409 94.753041 
L 216.702227 93.886605 
L 223.666045 93.488151 
L 230.629864 93.516275 
L 237.593682 93.914751 
L 244.5575 94.6153 
L 251.521318 95.54074 
L 258.485136 96.608403 
L 265.448955 97.733744 
L 272.412773 98.834052 
L 279.376591 99.832156 
L 286.340409 100.660052 
L 293.304227 101.262357 
L 300.268045 101.599485 
L 307.231864 101.650473 
L 314.195682 101.415357 
L 321.1595 100.917005 
L 328.123318 100.202319 
L 335.087136 99.342717 
L 342.050955 98.4338 
L 349.014773 97.594115 
L 355.978591 96.962925 
L 362.942409 96.696888 
L 369.906227 96.965566 
L 376.870045 97.945661 
L 383.833864 99.813889 
L 390.797682 102.738417 
L 397.7615 106.868743 
L 404.725318 112.323955 
L 411.689136 119.179263 
L 418.652955 127.450718 
" clip-path="url(#p73d912ed78)" style="fill: none; stroke-dasharray: 7.4,3.2; stroke-dashoffset: 0; stroke: #34b6c6; stroke-width: 2"/>
   </g>
   <g id="line2d_8">
    <path d="M 70.462045 149.052885 
L 77.425864 147.377331 
L 84.389682 145.486428 
L 91.3535 143.294729 
L 98.317318 140.844724 
L 105.281136 138.351296 
L 112.244955 136.030387 
L 119.208773 133.891405 
L 126.172591 131.732936 
L 133.136409 129.28472 
L 140.100227 126.405635 
L 147.064045 123.215278 
L 154.027864 119.810227 
L 160.991682 116.035489 
L 167.9555 111.762542 
L 174.919318 107.151655 
L 181.883136 102.815042 
L 188.846955 99.244153 
L 195.810773 96.163753 
L 202.774591 93.268765 
L 209.738409 91.116937 
L 216.702227 90.08454 
L 223.666045 89.877505 
L 230.629864 90.451073 
L 237.593682 92.089408 
L 244.5575 94.126594 
L 251.521318 95.877424 
L 258.485136 97.741856 
L 265.448955 99.886956 
L 272.412773 101.411 
L 279.376591 102.03135 
L 286.340409 102.18395 
L 293.304227 102.123299 
L 300.268045 101.862725 
L 307.231864 101.230233 
L 314.195682 100.023707 
L 321.1595 98.480042 
L 328.123318 97.230789 
L 335.087136 96.555536 
L 342.050955 96.367101 
L 349.014773 96.560671 
L 355.978591 97.128119 
L 362.942409 98.134296 
L 369.906227 99.607991 
L 376.870045 101.402265 
L 383.833864 103.287359 
L 390.797682 105.198637 
L 397.7615 107.241663 
L 404.725318 109.566434 
L 411.689136 112.311633 
L 418.652955 115.603713 
" clip-path="url(#p73d912ed78)" style="fill: none; stroke-dasharray: 7.4,3.2; stroke-dashoffset: 0; stroke: #9370db; stroke-width: 2"/>
   </g>
   <g id="line2d_9">
    <path d="M 70.462045 146.632148 
L 77.425864 145.939611 
L 84.389682 144.867316 
L 91.3535 143.318577 
L 98.317318 141.35061 
L 105.281136 139.227143 
L 112.244955 137.213776 
L 119.208773 135.330177 
L 126.172591 133.344717 
L 133.136409 130.943549 
L 140.100227 127.966512 
L 147.064045 124.563888 
L 154.027864 120.858003 
L 160.991682 116.670656 
L 167.9555 111.854595 
L 174.919318 106.606279 
L 181.883136 101.660414 
L 188.846955 97.607114 
L 195.810773 94.121788 
L 202.774591 90.843733 
L 209.738409 88.440541 
L 216.702227 87.362988 
L 223.666045 87.262197 
L 230.629864 88.086199 
L 237.593682 90.174896 
L 244.5575 92.735077 
L 251.521318 94.950236 
L 258.485136 97.29742 
L 265.448955 99.975636 
L 272.412773 101.909117 
L 279.376591 102.759724 
L 286.340409 103.04545 
L 293.304227 103.067118 
L 300.268045 102.836964 
L 307.231864 102.144961 
L 314.195682 100.743583 
L 321.1595 98.906796 
L 328.123318 97.376774 
L 335.087136 96.47321 
L 342.050955 96.075133 
L 349.014773 96.036608 
L 355.978591 96.322363 
L 362.942409 96.978797 
L 369.906227 98.003146 
L 376.870045 99.176071 
L 383.833864 100.171455 
L 390.797682 100.850972 
L 397.7615 101.268985 
L 404.725318 101.52135 
L 411.689136 101.677598 
L 418.652955 101.778403 
" clip-path="url(#p73d912ed78)" style="fill: none; stroke-dasharray: 12.8,3.2,2,3.2; stroke-dashoffset: 0; stroke: #ff0000; stroke-width: 2"/>
   </g>
   <g id="patch_4">
    <path d="M 53.0525 165.688 
L 53.0525 70.696 
" style="fill: none; stroke: #000000; stroke-width: 0.8; stroke-linejoin: miter; stroke-linecap: square"/>
   </g>
   <g id="patch_5">
    <path d="M 436.0625 165.688 
L 436.0625 70.696 
" style="fill: none; stroke: #000000; stroke-width: 0.8; stroke-linejoin: miter; stroke-linecap: square"/>
   </g>
   <g id="patch_6">
    <path d="M 53.0525 165.688 
L 436.0625 165.688 
" style="fill: none; stroke: #000000; stroke-width: 0.8; stroke-linejoin: miter; stroke-linecap: square"/>
   </g>
   <g id="patch_7">
    <path d="M 53.0525 70.696 
L 436.0625 70.696 
" style="fill: none; stroke: #000000; stroke-width: 0.8; stroke-linejoin: miter; stroke-linecap: square"/>
   </g>
  </g>
  <g id="axes_3">
   <g id="patch_8">
    <path d="M 53.0525 276.68 
L 436.0625 276.68 
L 436.0625 181.688 
L 53.0525 181.688 
z
" style="fill: #ffffff"/>
   </g>
   <g id="PathCollection_2">
    <g clip-path="url(#pd25b7e8893)">
     <use xlink:href="#m15582dc65a" x="365.752796" y="215.151494" style="fill: #daa520; stroke: #daa520"/>
     <use xlink:href="#m15582dc65a" x="129.385607" y="232.116749" style="fill: #daa520; stroke: #daa520"/>
     <use xlink:href="#m15582dc65a" x="167.082545" y="234.436935" style="fill: #daa520; stroke: #daa520"/>
     <use xlink:href="#m15582dc65a" x="351.721056" y="229.386563" style="fill: #daa520; stroke: #daa520"/>
     <use xlink:href="#m15582dc65a" x="208.472481" y="225.327217" style="fill: #daa520; stroke: #daa520"/>
     <use xlink:href="#m15582dc65a" x="111.070381" y="230.732978" style="fill: #daa520; stroke: #daa520"/>
     <use xlink:href="#m15582dc65a" x="365.699927" y="219.821263" style="fill: #daa520; stroke: #daa520"/>
     <use xlink:href="#m15582dc65a" x="411.834975" y="187.65607" style="fill: #daa520; stroke: #daa520"/>
     <use xlink:href="#m15582dc65a" x="353.007211" y="222.695276" style="fill: #daa520; stroke: #daa520"/>
     <use xlink:href="#m15582dc65a" x="96.327806" y="238.554425" style="fill: #daa520; stroke: #daa520"/>
     <use xlink:href="#m15582dc65a" x="109.88469" y="236.962759" style="fill: #daa520; stroke: #daa520"/>
     <use xlink:href="#m15582dc65a" x="321.797268" y="225.594329" style="fill: #daa520; stroke: #daa520"/>
     <use xlink:href="#m15582dc65a" x="378.451516" y="197.747379" style="fill: #daa520; stroke: #daa520"/>
     <use xlink:href="#m15582dc65a" x="120.451472" y="224.769078" style="fill: #daa520; stroke: #daa520"/>
     <use xlink:href="#m15582dc65a" x="207.21618" y="213.282677" style="fill: #daa520; stroke: #daa520"/>
     <use xlink:href="#m15582dc65a" x="139.235604" y="246.534316" style="fill: #daa520; stroke: #daa520"/>
     <use xlink:href="#m15582dc65a" x="234.514753" y="211.347298" style="fill: #daa520; stroke: #daa520"/>
     <use xlink:href="#m15582dc65a" x="308.55871" y="229.751266" style="fill: #daa520; stroke: #daa520"/>
     <use xlink:href="#m15582dc65a" x="148.068348" y="234.581938" style="fill: #daa520; stroke: #daa520"/>
     <use xlink:href="#m15582dc65a" x="264.271716" y="221.93255" style="fill: #daa520; stroke: #daa520"/>
     <use xlink:href="#m15582dc65a" x="140.727312" y="242.169355" style="fill: #daa520; stroke: #daa520"/>
     <use xlink:href="#m15582dc65a" x="228.457451" y="257.019144" style="fill: #daa520; stroke: #daa520"/>
     <use xlink:href="#m15582dc65a" x="388.671169" y="216.517326" style="fill: #daa520; stroke: #daa520"/>
     <use xlink:href="#m15582dc65a" x="118.996086" y="243.991492" style="fill: #daa520; stroke: #daa520"/>
     <use xlink:href="#m15582dc65a" x="111.798589" y="220.875376" style="fill: #daa520; stroke: #daa520"/>
     <use xlink:href="#m15582dc65a" x="152.499968" y="238.348527" style="fill: #daa520; stroke: #daa520"/>
     <use xlink:href="#m15582dc65a" x="265.037146" y="248.290661" style="fill: #daa520; stroke: #daa520"/>
     <use xlink:href="#m15582dc65a" x="76.327617" y="227.387208" style="fill: #daa520; stroke: #daa520"/>
     <use xlink:href="#m15582dc65a" x="346.935395" y="237.741334" style="fill: #daa520; stroke: #daa520"/>
     <use xlink:href="#m15582dc65a" x="396.09605" y="227.9468" style="fill: #daa520; stroke: #daa520"/>
     <use xlink:href="#m15582dc65a" x="79.459611" y="240.207637" style="fill: #daa520; stroke: #daa520"/>
     <use xlink:href="#m15582dc65a" x="384.935583" y="229.07662" style="fill: #daa520; stroke: #daa520"/>
     <use xlink:href="#m15582dc65a" x="392.19018" y="186.005818" style="fill: #daa520; stroke: #daa520"/>
     <use xlink:href="#m15582dc65a" x="129.800002" y="251.53671" style="fill: #daa520; stroke: #daa520"/>
     <use xlink:href="#m15582dc65a" x="253.0443" y="245.420967" style="fill: #daa520; stroke: #daa520"/>
     <use xlink:href="#m15582dc65a" x="390.534833" y="272.362182" style="fill: #daa520; stroke: #daa520"/>
     <use xlink:href="#m15582dc65a" x="328.317036" y="229.487862" style="fill: #daa520; stroke: #daa520"/>
     <use xlink:href="#m15582dc65a" x="116.120843" y="230.71277" style="fill: #daa520; stroke: #daa520"/>
     <use xlink:href="#m15582dc65a" x="160.291288" y="214.081306" style="fill: #daa520; stroke: #daa520"/>
     <use xlink:href="#m15582dc65a" x="96.094254" y="223.71459" style="fill: #daa520; stroke: #daa520"/>
     <use xlink:href="#m15582dc65a" x="105.308685" y="246.214037" style="fill: #daa520; stroke: #daa520"/>
     <use xlink:href="#m15582dc65a" x="350.146062" y="226.59242" style="fill: #daa520; stroke: #daa520"/>
     <use xlink:href="#m15582dc65a" x="201.272282" y="202.235" style="fill: #daa520; stroke: #daa520"/>
     <use xlink:href="#m15582dc65a" x="408.002032" y="243.641024" style="fill: #daa520; stroke: #daa520"/>
     <use xlink:href="#m15582dc65a" x="253.225123" y="217.56608" style="fill: #daa520; stroke: #daa520"/>
     <use xlink:href="#m15582dc65a" x="338.768873" y="234.593535" style="fill: #daa520; stroke: #daa520"/>
     <use xlink:href="#m15582dc65a" x="303.265226" y="234.660565" style="fill: #daa520; stroke: #daa520"/>
     <use xlink:href="#m15582dc65a" x="103.861128" y="222.283816" style="fill: #daa520; stroke: #daa520"/>
     <use xlink:href="#m15582dc65a" x="87.647808" y="230.48477" style="fill: #daa520; stroke: #daa520"/>
     <use xlink:href="#m15582dc65a" x="379.383622" y="208.86973" style="fill: #daa520; stroke: #daa520"/>
     <use xlink:href="#m15582dc65a" x="190.622114" y="270.950266" style="fill: #daa520; stroke: #daa520"/>
     <use xlink:href="#m15582dc65a" x="97.709497" y="232.485345" style="fill: #daa520; stroke: #daa520"/>
     <use xlink:href="#m15582dc65a" x="405.315919" y="187.544861" style="fill: #daa520; stroke: #daa520"/>
     <use xlink:href="#m15582dc65a" x="277.19206" y="218.661127" style="fill: #daa520; stroke: #daa520"/>
     <use xlink:href="#m15582dc65a" x="279.981403" y="228.927385" style="fill: #daa520; stroke: #daa520"/>
     <use xlink:href="#m15582dc65a" x="123.166659" y="235.319692" style="fill: #daa520; stroke: #daa520"/>
     <use xlink:href="#m15582dc65a" x="375.172067" y="264.609188" style="fill: #daa520; stroke: #daa520"/>
     <use xlink:href="#m15582dc65a" x="367.50413" y="258.749224" style="fill: #daa520; stroke: #daa520"/>
     <use xlink:href="#m15582dc65a" x="71.881382" y="216.20957" style="fill: #daa520; stroke: #daa520"/>
     <use xlink:href="#m15582dc65a" x="317.188618" y="219.988649" style="fill: #daa520; stroke: #daa520"/>
     <use xlink:href="#m15582dc65a" x="394.845564" y="201.413885" style="fill: #daa520; stroke: #daa520"/>
     <use xlink:href="#m15582dc65a" x="100.298994" y="221.842356" style="fill: #daa520; stroke: #daa520"/>
     <use xlink:href="#m15582dc65a" x="173.568225" y="255.681311" style="fill: #daa520; stroke: #daa520"/>
     <use xlink:href="#m15582dc65a" x="259.091412" y="247.487297" style="fill: #daa520; stroke: #daa520"/>
     <use xlink:href="#m15582dc65a" x="131.233848" y="244.332508" style="fill: #daa520; stroke: #daa520"/>
     <use xlink:href="#m15582dc65a" x="74.085624" y="198.140819" style="fill: #daa520; stroke: #daa520"/>
     <use xlink:href="#m15582dc65a" x="204.827135" y="196.386209" style="fill: #daa520; stroke: #daa520"/>
     <use xlink:href="#m15582dc65a" x="390.046114" y="224.161185" style="fill: #daa520; stroke: #daa520"/>
     <use xlink:href="#m15582dc65a" x="290.389761" y="224.858849" style="fill: #daa520; stroke: #daa520"/>
     <use xlink:href="#m15582dc65a" x="381.939006" y="268.709813" style="fill: #daa520; stroke: #daa520"/>
     <use xlink:href="#m15582dc65a" x="161.059942" y="235.179049" style="fill: #daa520; stroke: #daa520"/>
     <use xlink:href="#m15582dc65a" x="347.645123" y="226.042893" style="fill: #daa520; stroke: #daa520"/>
     <use xlink:href="#m15582dc65a" x="266.998592" y="220.838494" style="fill: #daa520; stroke: #daa520"/>
     <use xlink:href="#m15582dc65a" x="341.346841" y="230.759138" style="fill: #daa520; stroke: #daa520"/>
     <use xlink:href="#m15582dc65a" x="407.06887" y="189.578065" style="fill: #daa520; stroke: #daa520"/>
     <use xlink:href="#m15582dc65a" x="131.619876" y="219.490427" style="fill: #daa520; stroke: #daa520"/>
     <use xlink:href="#m15582dc65a" x="331.210935" y="227.182834" style="fill: #daa520; stroke: #daa520"/>
     <use xlink:href="#m15582dc65a" x="130.416442" y="209.219759" style="fill: #daa520; stroke: #daa520"/>
     <use xlink:href="#m15582dc65a" x="279.32451" y="243.835351" style="fill: #daa520; stroke: #daa520"/>
     <use xlink:href="#m15582dc65a" x="347.537814" y="224.673273" style="fill: #daa520; stroke: #daa520"/>
     <use xlink:href="#m15582dc65a" x="70.481742" y="226.95598" style="fill: #daa520; stroke: #daa520"/>
     <use xlink:href="#m15582dc65a" x="127.678824" y="208.432185" style="fill: #daa520; stroke: #daa520"/>
     <use xlink:href="#m15582dc65a" x="78.998008" y="239.559518" style="fill: #daa520; stroke: #daa520"/>
     <use xlink:href="#m15582dc65a" x="142.66192" y="241.214145" style="fill: #daa520; stroke: #daa520"/>
     <use xlink:href="#m15582dc65a" x="72.55639" y="237.544085" style="fill: #daa520; stroke: #daa520"/>
     <use xlink:href="#m15582dc65a" x="234.502117" y="223.639174" style="fill: #daa520; stroke: #daa520"/>
     <use xlink:href="#m15582dc65a" x="290.560757" y="221.907839" style="fill: #daa520; stroke: #daa520"/>
     <use xlink:href="#m15582dc65a" x="179.406825" y="195.569584" style="fill: #daa520; stroke: #daa520"/>
     <use xlink:href="#m15582dc65a" x="121.726516" y="246.202346" style="fill: #daa520; stroke: #daa520"/>
     <use xlink:href="#m15582dc65a" x="346.811127" y="223.254314" style="fill: #daa520; stroke: #daa520"/>
    </g>
   </g>
   <g id="matplotlib.axis_5">
    <g id="xtick_1">
     <g id="line2d_10">
      <defs>
       <path id="m2fc59f28c1" d="M 0 0 
L 0 3.5 
" style="stroke: #696969; stroke-width: 0.8"/>
      </defs>
      <g>
       <use xlink:href="#m2fc59f28c1" x="70.462045" y="276.68" style="fill: #696969; stroke: #696969; stroke-width: 0.8"/>
      </g>
     </g>
     <g id="text_4">
      <!-- −1.0 -->
      <g style="fill: #696969" transform="translate(51.035795 295.8375) scale(0.16 -0.16)">
       <defs>
        <path id="DejaVuSans-31" d="M 794 531 
L 1825 531 
L 1825 4091 
L 703 3866 
L 703 4441 
L 1819 4666 
L 2450 4666 
L 2450 531 
L 3481 531 
L 3481 0 
L 794 0 
L 794 531 
z
" transform="scale(0.015625)"/>
        <path id="DejaVuSans-2e" d="M 684 794 
L 1344 794 
L 1344 0 
L 684 0 
L 684 794 
z
" transform="scale(0.015625)"/>
       </defs>
       <use xlink:href="#DejaVuSans-2212"/>
       <use xlink:href="#DejaVuSans-31" x="83.789062"/>
       <use xlink:href="#DejaVuSans-2e" x="147.412109"/>
       <use xlink:href="#DejaVuSans-30" x="179.199219"/>
      </g>
     </g>
    </g>
    <g id="xtick_2">
     <g id="line2d_11">
      <g>
       <use xlink:href="#m2fc59f28c1" x="157.509773" y="276.68" style="fill: #696969; stroke: #696969; stroke-width: 0.8"/>
      </g>
     </g>
     <g id="text_5">
      <!-- −0.5 -->
      <g style="fill: #696969" transform="translate(138.083523 295.8375) scale(0.16 -0.16)">
       <use xlink:href="#DejaVuSans-2212"/>
       <use xlink:href="#DejaVuSans-30" x="83.789062"/>
       <use xlink:href="#DejaVuSans-2e" x="147.412109"/>
       <use xlink:href="#DejaVuSans-35" x="179.199219"/>
      </g>
     </g>
    </g>
    <g id="xtick_3">
     <g id="line2d_12">
      <g>
       <use xlink:href="#m2fc59f28c1" x="244.5575" y="276.68" style="fill: #696969; stroke: #696969; stroke-width: 0.8"/>
      </g>
     </g>
     <g id="text_6">
      <!-- 0.0 -->
      <g style="fill: #696969" transform="translate(231.835 295.8375) scale(0.16 -0.16)">
       <use xlink:href="#DejaVuSans-30"/>
       <use xlink:href="#DejaVuSans-2e" x="63.623047"/>
       <use xlink:href="#DejaVuSans-30" x="95.410156"/>
      </g>
     </g>
    </g>
    <g id="xtick_4">
     <g id="line2d_13">
      <g>
       <use xlink:href="#m2fc59f28c1" x="331.605227" y="276.68" style="fill: #696969; stroke: #696969; stroke-width: 0.8"/>
      </g>
     </g>
     <g id="text_7">
      <!-- 0.5 -->
      <g style="fill: #696969" transform="translate(318.882727 295.8375) scale(0.16 -0.16)">
       <use xlink:href="#DejaVuSans-30"/>
       <use xlink:href="#DejaVuSans-2e" x="63.623047"/>
       <use xlink:href="#DejaVuSans-35" x="95.410156"/>
      </g>
     </g>
    </g>
    <g id="xtick_5">
     <g id="line2d_14">
      <g>
       <use xlink:href="#m2fc59f28c1" x="418.652955" y="276.68" style="fill: #696969; stroke: #696969; stroke-width: 0.8"/>
      </g>
     </g>
     <g id="text_8">
      <!-- 1.0 -->
      <g style="fill: #696969" transform="translate(405.930455 295.8375) scale(0.16 -0.16)">
       <use xlink:href="#DejaVuSans-31"/>
       <use xlink:href="#DejaVuSans-2e" x="63.623047"/>
       <use xlink:href="#DejaVuSans-30" x="95.410156"/>
      </g>
     </g>
    </g>
    <g id="text_9">
     <!-- $X$ -->
     <g transform="translate(239.0375 315.3225) scale(0.16 -0.16)">
      <defs>
       <path id="DejaVuSans-Oblique-58" d="M 878 4666 
L 1516 4666 
L 2316 2981 
L 3763 4666 
L 4500 4666 
L 2578 2438 
L 3738 0 
L 3103 0 
L 2163 1966 
L 459 0 
L -275 0 
L 1906 2509 
L 878 4666 
z
" transform="scale(0.015625)"/>
      </defs>
      <use xlink:href="#DejaVuSans-Oblique-58" transform="translate(0 0.09375)"/>
     </g>
    </g>
   </g>
   <g id="matplotlib.axis_6">
    <g id="ytick_4">
     <g id="line2d_15">
      <g>
       <use xlink:href="#m427a64799a" x="53.0525" y="259.144909" style="fill: #696969; stroke: #696969; stroke-width: 0.8"/>
      </g>
     </g>
     <g id="text_10">
      <!-- −2.5 -->
      <g style="fill: #696969" transform="translate(7.2 265.223659) scale(0.16 -0.16)">
       <defs>
        <path id="DejaVuSans-32" d="M 1228 531 
L 3431 531 
L 3431 0 
L 469 0 
L 469 531 
Q 828 903 1448 1529 
Q 2069 2156 2228 2338 
Q 2531 2678 2651 2914 
Q 2772 3150 2772 3378 
Q 2772 3750 2511 3984 
Q 2250 4219 1831 4219 
Q 1534 4219 1204 4116 
Q 875 4013 500 3803 
L 500 4441 
Q 881 4594 1212 4672 
Q 1544 4750 1819 4750 
Q 2544 4750 2975 4387 
Q 3406 4025 3406 3419 
Q 3406 3131 3298 2873 
Q 3191 2616 2906 2266 
Q 2828 2175 2409 1742 
Q 1991 1309 1228 531 
z
" transform="scale(0.015625)"/>
       </defs>
       <use xlink:href="#DejaVuSans-2212"/>
       <use xlink:href="#DejaVuSans-32" x="83.789062"/>
       <use xlink:href="#DejaVuSans-2e" x="147.412109"/>
       <use xlink:href="#DejaVuSans-35" x="179.199219"/>
      </g>
     </g>
    </g>
    <g id="ytick_5">
     <g id="line2d_16">
      <g>
       <use xlink:href="#m427a64799a" x="53.0525" y="230.091537" style="fill: #696969; stroke: #696969; stroke-width: 0.8"/>
      </g>
     </g>
     <g id="text_11">
      <!-- 0.0 -->
      <g style="fill: #696969" transform="translate(20.6075 236.170287) scale(0.16 -0.16)">
       <use xlink:href="#DejaVuSans-30"/>
       <use xlink:href="#DejaVuSans-2e" x="63.623047"/>
       <use xlink:href="#DejaVuSans-30" x="95.410156"/>
      </g>
     </g>
    </g>
    <g id="ytick_6">
     <g id="line2d_17">
      <g>
       <use xlink:href="#m427a64799a" x="53.0525" y="201.038164" style="fill: #696969; stroke: #696969; stroke-width: 0.8"/>
      </g>
     </g>
     <g id="text_12">
      <!-- 2.5 -->
      <g style="fill: #696969" transform="translate(20.6075 207.116914) scale(0.16 -0.16)">
       <use xlink:href="#DejaVuSans-32"/>
       <use xlink:href="#DejaVuSans-2e" x="63.623047"/>
       <use xlink:href="#DejaVuSans-35" x="95.410156"/>
      </g>
     </g>
    </g>
   </g>
   <g id="line2d_18">
    <path d="M 70.462045 228.035603 
L 77.425864 230.210204 
L 84.389682 231.621435 
L 91.3535 231.873615 
L 98.317318 231.141525 
L 105.281136 230.156531 
L 112.244955 229.650284 
L 119.208773 229.770181 
L 126.172591 230.081587 
L 133.136409 229.983382 
L 140.100227 229.266299 
L 147.064045 228.465919 
L 154.027864 228.101605 
L 160.991682 227.988299 
L 167.9555 227.794884 
L 174.919318 227.593549 
L 181.883136 228.260279 
L 188.846955 230.147318 
L 195.810773 231.666887 
L 202.774591 231.378248 
L 209.738409 230.381459 
L 216.702227 229.681086 
L 223.666045 228.849705 
L 230.629864 228.216186 
L 237.593682 228.95733 
L 244.5575 229.815509 
L 251.521318 229.463331 
L 258.485136 229.328985 
L 265.448955 230.27326 
L 272.412773 230.442865 
L 279.376591 229.471966 
L 286.340409 228.660848 
L 293.304227 228.657643 
L 300.268045 229.31792 
L 307.231864 229.90399 
L 314.195682 229.557442 
L 321.1595 228.552124 
L 328.123318 228.204233 
L 335.087136 228.953368 
L 342.050955 230.268614 
L 349.014773 231.503903 
L 355.978591 232.240901 
L 362.942409 232.370655 
L 369.906227 231.982828 
L 376.870045 231.090774 
L 383.833864 229.772943 
L 390.797682 228.543724 
L 397.7615 228.063099 
L 404.725318 228.627987 
L 411.689136 230.056556 
L 418.652955 231.909382 
" clip-path="url(#pd25b7e8893)" style="fill: none; stroke: #696969; stroke-width: 2; stroke-linecap: square"/>
   </g>
   <g id="line2d_19">
    <path d="M 70.462045 226.242328 
L 77.425864 227.757781 
L 84.389682 228.959743 
L 91.3535 229.88896 
L 98.317318 230.583358 
L 105.281136 231.077947 
L 112.244955 231.404775 
L 119.208773 231.592927 
L 126.172591 231.66856 
L 133.136409 231.654979 
L 140.100227 231.572734 
L 147.064045 231.439754 
L 154.027864 231.271497 
L 160.991682 231.081121 
L 167.9555 230.879663 
L 174.919318 230.676236 
L 181.883136 230.478224 
L 188.846955 230.291482 
L 195.810773 230.120529 
L 202.774591 229.968739 
L 209.738409 229.838512 
L 216.702227 229.731435 
L 223.666045 229.648422 
L 230.629864 229.589825 
L 237.593682 229.55552 
L 244.5575 229.544958 
L 251.521318 229.557179 
L 258.485136 229.590784 
L 265.448955 229.643859 
L 272.412773 229.71385 
L 279.376591 229.797385 
L 286.340409 229.890034 
L 293.304227 229.986008 
L 300.268045 230.077787 
L 307.231864 230.155682 
L 314.195682 230.207313 
L 321.1595 230.217015 
L 328.123318 230.165155 
L 335.087136 230.027355 
L 342.050955 229.773636 
L 349.014773 229.367448 
L 355.978591 228.764609 
L 362.942409 227.912135 
L 369.906227 226.746958 
L 376.870045 225.194533 
L 383.833864 223.167321 
L 390.797682 220.563156 
L 397.7615 217.263476 
L 404.725318 213.131428 
L 411.689136 208.00984 
L 418.652955 201.719039 
" clip-path="url(#pd25b7e8893)" style="fill: none; stroke-dasharray: 7.4,3.2; stroke-dashoffset: 0; stroke: #79ad41; stroke-width: 2"/>
   </g>
   <g id="patch_9">
    <path d="M 53.0525 276.68 
L 53.0525 181.688 
" style="fill: none; stroke: #000000; stroke-width: 0.8; stroke-linejoin: miter; stroke-linecap: square"/>
   </g>
   <g id="patch_10">
    <path d="M 436.0625 276.68 
L 436.0625 181.688 
" style="fill: none; stroke: #000000; stroke-width: 0.8; stroke-linejoin: miter; stroke-linecap: square"/>
   </g>
   <g id="patch_11">
    <path d="M 53.0525 276.68 
L 436.0625 276.68 
" style="fill: none; stroke: #000000; stroke-width: 0.8; stroke-linejoin: miter; stroke-linecap: square"/>
   </g>
   <g id="patch_12">
    <path d="M 53.0525 181.688 
L 436.0625 181.688 
" style="fill: none; stroke: #000000; stroke-width: 0.8; stroke-linejoin: miter; stroke-linecap: square"/>
   </g>
  </g>
 </g>
 <defs>
  <clipPath id="p31451ab04d">
   <rect x="53.0525" y="7.2" width="383.01" height="47.496"/>
  </clipPath>
  <clipPath id="p73d912ed78">
   <rect x="53.0525" y="70.696" width="383.01" height="94.992"/>
  </clipPath>
  <clipPath id="pd25b7e8893">
   <rect x="53.0525" y="181.688" width="383.01" height="94.992"/>
  </clipPath>
 </defs>
</svg>
