<?xml version="1.0" encoding="utf-8" standalone="no"?>
<!DOCTYPE svg PUBLIC "-//W3C//DTD SVG 1.1//EN"
  "http://www.w3.org/Graphics/SVG/1.1/DTD/svg11.dtd">
<svg xmlns:xlink="http://www.w3.org/1999/xlink" width="443.2075pt" height="325.85pt" viewBox="0 0 443.2075 325.85" xmlns="http://www.w3.org/2000/svg" version="1.1">
 <metadata>
  <rdf:RDF xmlns:dc="http://purl.org/dc/elements/1.1/" xmlns:cc="http://creativecommons.org/ns#" xmlns:rdf="http://www.w3.org/1999/02/22-rdf-syntax-ns#">
   <cc:Work>
    <dc:type rdf:resource="http://purl.org/dc/dcmitype/StillImage"/>
    <dc:date>2024-01-28T20:55:56.793423</dc:date>
    <dc:format>image/svg+xml</dc:format>
    <dc:creator>
     <cc:Agent>
      <dc:title>Matplotlib v3.7.2, https://matplotlib.org/</dc:title>
     </cc:Agent>
    </dc:creator>
   </cc:Work>
  </rdf:RDF>
 </metadata>
 <defs>
  <style type="text/css">*{stroke-linejoin: round; stroke-linecap: butt}</style>
 </defs>
 <g id="figure_1">
  <g id="patch_1">
   <path d="M 0 325.85 
L 443.2075 325.85 
L 443.2075 0 
L 0 0 
z
" style="fill: #ffffff"/>
  </g>
  <g id="axes_1">
   <g id="patch_2">
    <path d="M 37.7875 54.696 
L 436.0075 54.696 
L 436.0075 7.2 
L 37.7875 7.2 
z
" style="fill: #ffffff"/>
   </g>
   <g id="PolyCollection_1">
    <defs>
     <path id="m21203c894d" d="M 55.888409 -273.312909 
L 55.888409 -309.478486 
L 63.128773 -309.355957 
L 70.369136 -309.251615 
L 77.6095 -309.157041 
L 84.849864 -309.06393 
L 92.090227 -308.964235 
L 99.330591 -308.850202 
L 106.570955 -308.714404 
L 113.811318 -308.549763 
L 121.051682 -308.34947 
L 128.292045 -308.106999 
L 135.532409 -307.816037 
L 142.772773 -307.470455 
L 150.013136 -307.064286 
L 157.2535 -306.591732 
L 164.493864 -306.047217 
L 171.734227 -305.425452 
L 178.974591 -304.721574 
L 186.214955 -303.931356 
L 193.455318 -303.051459 
L 200.695682 -302.079723 
L 207.936045 -301.015554 
L 215.176409 -299.86031 
L 222.416773 -298.617652 
L 229.657136 -297.293903 
L 236.8975 -295.898272 
L 244.137864 -294.442924 
L 251.378227 -292.942829 
L 258.618591 -291.415423 
L 265.858955 -289.879935 
L 273.099318 -288.356561 
L 280.339682 -286.865493 
L 287.580045 -285.425854 
L 294.820409 -284.054726 
L 302.060773 -282.766358 
L 309.301136 -281.571598 
L 316.5415 -280.477642 
L 323.781864 -279.488059 
L 331.022227 -278.603083 
L 338.262591 -278.110485 
L 345.502955 -278.110485 
L 352.743318 -278.110485 
L 359.983682 -278.110485 
L 367.224045 -278.110485 
L 374.464409 -278.110485 
L 381.704773 -278.110485 
L 388.945136 -278.110485 
L 396.1855 -278.110485 
L 403.425864 -278.110485 
L 410.666227 -278.110485 
L 417.906591 -278.110485 
L 417.906591 -273.312909 
L 417.906591 -273.312909 
L 410.666227 -273.312909 
L 403.425864 -273.312909 
L 396.1855 -273.312909 
L 388.945136 -273.312909 
L 381.704773 -273.312909 
L 374.464409 -273.312909 
L 367.224045 -273.312909 
L 359.983682 -273.312909 
L 352.743318 -273.312909 
L 345.502955 -273.312909 
L 338.262591 -273.312909 
L 331.022227 -273.312909 
L 323.781864 -273.312909 
L 316.5415 -273.312909 
L 309.301136 -273.312909 
L 302.060773 -273.312909 
L 294.820409 -273.312909 
L 287.580045 -273.312909 
L 280.339682 -273.312909 
L 273.099318 -273.312909 
L 265.858955 -273.312909 
L 258.618591 -273.312909 
L 251.378227 -273.312909 
L 244.137864 -273.312909 
L 236.8975 -273.312909 
L 229.657136 -273.312909 
L 222.416773 -273.312909 
L 215.176409 -273.312909 
L 207.936045 -273.312909 
L 200.695682 -273.312909 
L 193.455318 -273.312909 
L 186.214955 -273.312909 
L 178.974591 -273.312909 
L 171.734227 -273.312909 
L 164.493864 -273.312909 
L 157.2535 -273.312909 
L 150.013136 -273.312909 
L 142.772773 -273.312909 
L 135.532409 -273.312909 
L 128.292045 -273.312909 
L 121.051682 -273.312909 
L 113.811318 -273.312909 
L 106.570955 -273.312909 
L 99.330591 -273.312909 
L 92.090227 -273.312909 
L 84.849864 -273.312909 
L 77.6095 -273.312909 
L 70.369136 -273.312909 
L 63.128773 -273.312909 
L 55.888409 -273.312909 
z
" style="stroke: #dc143c; stroke-opacity: 0.2"/>
    </defs>
    <g clip-path="url(#p9923064457)">
     <use xlink:href="#m21203c894d" x="0" y="325.85" style="fill: #dc143c; fill-opacity: 0.2; stroke: #dc143c; stroke-opacity: 0.2"/>
    </g>
   </g>
   <g id="PolyCollection_2">
    <defs>
     <path id="m27548f06b8" d="M 55.888409 -273.312909 
L 55.888409 -285.123089 
L 63.128773 -285.245619 
L 70.369136 -285.34996 
L 77.6095 -285.444535 
L 84.849864 -285.537646 
L 92.090227 -285.637341 
L 99.330591 -285.751374 
L 106.570955 -285.887172 
L 113.811318 -286.051813 
L 121.051682 -286.252106 
L 128.292045 -286.494577 
L 135.532409 -286.785539 
L 142.772773 -287.131121 
L 150.013136 -287.53729 
L 157.2535 -288.009843 
L 164.493864 -288.554359 
L 171.734227 -289.176123 
L 178.974591 -289.880002 
L 186.214955 -290.670219 
L 193.455318 -291.550117 
L 200.695682 -292.521853 
L 207.936045 -293.586021 
L 215.176409 -294.741266 
L 222.416773 -295.983924 
L 229.657136 -297.307673 
L 236.8975 -298.703303 
L 244.137864 -300.158651 
L 251.378227 -301.658747 
L 258.618591 -303.186153 
L 265.858955 -304.721641 
L 273.099318 -306.245015 
L 280.339682 -307.736082 
L 287.580045 -309.175721 
L 294.820409 -310.54685 
L 302.060773 -311.835218 
L 309.301136 -313.029977 
L 316.5415 -314.123933 
L 323.781864 -315.113517 
L 331.022227 -315.998493 
L 338.262591 -316.491091 
L 345.502955 -316.491091 
L 352.743318 -316.491091 
L 359.983682 -316.491091 
L 367.224045 -316.491091 
L 374.464409 -316.491091 
L 381.704773 -316.491091 
L 388.945136 -316.491091 
L 396.1855 -316.491091 
L 403.425864 -316.491091 
L 410.666227 -316.491091 
L 417.906591 -316.491091 
L 417.906591 -273.312909 
L 417.906591 -273.312909 
L 410.666227 -273.312909 
L 403.425864 -273.312909 
L 396.1855 -273.312909 
L 388.945136 -273.312909 
L 381.704773 -273.312909 
L 374.464409 -273.312909 
L 367.224045 -273.312909 
L 359.983682 -273.312909 
L 352.743318 -273.312909 
L 345.502955 -273.312909 
L 338.262591 -273.312909 
L 331.022227 -273.312909 
L 323.781864 -273.312909 
L 316.5415 -273.312909 
L 309.301136 -273.312909 
L 302.060773 -273.312909 
L 294.820409 -273.312909 
L 287.580045 -273.312909 
L 280.339682 -273.312909 
L 273.099318 -273.312909 
L 265.858955 -273.312909 
L 258.618591 -273.312909 
L 251.378227 -273.312909 
L 244.137864 -273.312909 
L 236.8975 -273.312909 
L 229.657136 -273.312909 
L 222.416773 -273.312909 
L 215.176409 -273.312909 
L 207.936045 -273.312909 
L 200.695682 -273.312909 
L 193.455318 -273.312909 
L 186.214955 -273.312909 
L 178.974591 -273.312909 
L 171.734227 -273.312909 
L 164.493864 -273.312909 
L 157.2535 -273.312909 
L 150.013136 -273.312909 
L 142.772773 -273.312909 
L 135.532409 -273.312909 
L 128.292045 -273.312909 
L 121.051682 -273.312909 
L 113.811318 -273.312909 
L 106.570955 -273.312909 
L 99.330591 -273.312909 
L 92.090227 -273.312909 
L 84.849864 -273.312909 
L 77.6095 -273.312909 
L 70.369136 -273.312909 
L 63.128773 -273.312909 
L 55.888409 -273.312909 
z
" style="stroke: #000080; stroke-opacity: 0.2"/>
    </defs>
    <g clip-path="url(#p9923064457)">
     <use xlink:href="#m27548f06b8" x="0" y="325.85" style="fill: #000080; fill-opacity: 0.2; stroke: #000080; stroke-opacity: 0.2"/>
    </g>
   </g>
   <g id="matplotlib.axis_1"/>
   <g id="matplotlib.axis_2"/>
   <g id="line2d_1">
    <path d="M 55.888409 16.371514 
L 63.128773 16.494043 
L 70.369136 16.598385 
L 77.6095 16.692959 
L 84.849864 16.78607 
L 92.090227 16.885765 
L 99.330591 16.999798 
L 106.570955 17.135596 
L 113.811318 17.300237 
L 121.051682 17.50053 
L 128.292045 17.743001 
L 135.532409 18.033963 
L 142.772773 18.379545 
L 150.013136 18.785714 
L 157.2535 19.258268 
L 164.493864 19.802783 
L 171.734227 20.424548 
L 178.974591 21.128426 
L 186.214955 21.918644 
L 193.455318 22.798541 
L 200.695682 23.770277 
L 207.936045 24.834446 
L 215.176409 25.98969 
L 222.416773 27.232348 
L 229.657136 28.556097 
L 236.8975 29.951728 
L 244.137864 31.407076 
L 251.378227 32.907171 
L 258.618591 34.434577 
L 265.858955 35.970065 
L 273.099318 37.493439 
L 280.339682 38.984507 
L 287.580045 40.424146 
L 294.820409 41.795274 
L 302.060773 43.083642 
L 309.301136 44.278402 
L 316.5415 45.372358 
L 323.781864 46.361941 
L 331.022227 47.246917 
L 338.262591 47.739515 
L 345.502955 47.739515 
L 352.743318 47.739515 
L 359.983682 47.739515 
L 367.224045 47.739515 
L 374.464409 47.739515 
L 381.704773 47.739515 
L 388.945136 47.739515 
L 396.1855 47.739515 
L 403.425864 47.739515 
L 410.666227 47.739515 
L 417.906591 47.739515 
" clip-path="url(#p9923064457)" style="fill: none; stroke: #dc143c; stroke-width: 1.5; stroke-linecap: square"/>
   </g>
   <g id="line2d_2">
    <path d="M 55.888409 40.726911 
L 63.128773 40.604381 
L 70.369136 40.50004 
L 77.6095 40.405465 
L 84.849864 40.312354 
L 92.090227 40.212659 
L 99.330591 40.098626 
L 106.570955 39.962828 
L 113.811318 39.798187 
L 121.051682 39.597894 
L 128.292045 39.355423 
L 135.532409 39.064461 
L 142.772773 38.718879 
L 150.013136 38.31271 
L 157.2535 37.840157 
L 164.493864 37.295641 
L 171.734227 36.673877 
L 178.974591 35.969998 
L 186.214955 35.179781 
L 193.455318 34.299883 
L 200.695682 33.328147 
L 207.936045 32.263979 
L 215.176409 31.108734 
L 222.416773 29.866076 
L 229.657136 28.542327 
L 236.8975 27.146697 
L 244.137864 25.691349 
L 251.378227 24.191253 
L 258.618591 22.663847 
L 265.858955 21.128359 
L 273.099318 19.604985 
L 280.339682 18.113918 
L 287.580045 16.674279 
L 294.820409 15.30315 
L 302.060773 14.014782 
L 309.301136 12.820023 
L 316.5415 11.726067 
L 323.781864 10.736483 
L 331.022227 9.851507 
L 338.262591 9.358909 
L 345.502955 9.358909 
L 352.743318 9.358909 
L 359.983682 9.358909 
L 367.224045 9.358909 
L 374.464409 9.358909 
L 381.704773 9.358909 
L 388.945136 9.358909 
L 396.1855 9.358909 
L 403.425864 9.358909 
L 410.666227 9.358909 
L 417.906591 9.358909 
" clip-path="url(#p9923064457)" style="fill: none; stroke: #000080; stroke-width: 1.5; stroke-linecap: square"/>
   </g>
  </g>
  <g id="axes_2">
   <g id="patch_3">
    <path d="M 37.7875 165.688 
L 436.0075 165.688 
L 436.0075 70.696 
L 37.7875 70.696 
z
" style="fill: #ffffff"/>
   </g>
   <g id="PathCollection_1">
    <defs>
     <path id="m33f321a981" d="M 0 0.866025 
C 0.229673 0.866025 0.449969 0.774776 0.612372 0.612372 
C 0.774776 0.449969 0.866025 0.229673 0.866025 0 
C 0.866025 -0.229673 0.774776 -0.449969 0.612372 -0.612372 
C 0.449969 -0.774776 0.229673 -0.866025 0 -0.866025 
C -0.229673 -0.866025 -0.449969 -0.774776 -0.612372 -0.612372 
C -0.774776 -0.449969 -0.866025 -0.229673 -0.866025 0 
C -0.866025 0.229673 -0.774776 0.449969 -0.612372 0.612372 
C -0.449969 0.774776 -0.229673 0.866025 0 0.866025 
z
" style="stroke: #daa520"/>
    </defs>
    <g clip-path="url(#p1a03c28225)">
     <use xlink:href="#m33f321a981" x="89.890642" y="105.182177" style="fill: #daa520; stroke: #daa520"/>
     <use xlink:href="#m33f321a981" x="377.799742" y="89.913384" style="fill: #daa520; stroke: #daa520"/>
     <use xlink:href="#m33f321a981" x="124.04858" y="135.258859" style="fill: #daa520; stroke: #daa520"/>
     <use xlink:href="#m33f321a981" x="134.085907" y="95.040657" style="fill: #daa520; stroke: #daa520"/>
     <use xlink:href="#m33f321a981" x="92.365656" y="99.541916" style="fill: #daa520; stroke: #daa520"/>
     <use xlink:href="#m33f321a981" x="238.411298" y="127.912175" style="fill: #daa520; stroke: #daa520"/>
     <use xlink:href="#m33f321a981" x="331.57176" y="108.414821" style="fill: #daa520; stroke: #daa520"/>
     <use xlink:href="#m33f321a981" x="261.248792" y="108.841157" style="fill: #daa520; stroke: #daa520"/>
     <use xlink:href="#m33f321a981" x="218.013248" y="123.113611" style="fill: #daa520; stroke: #daa520"/>
     <use xlink:href="#m33f321a981" x="297.366476" y="102.321705" style="fill: #daa520; stroke: #daa520"/>
     <use xlink:href="#m33f321a981" x="114.645393" y="140.939346" style="fill: #daa520; stroke: #daa520"/>
     <use xlink:href="#m33f321a981" x="91.006026" y="81.552934" style="fill: #daa520; stroke: #daa520"/>
     <use xlink:href="#m33f321a981" x="113.521874" y="100.966433" style="fill: #daa520; stroke: #daa520"/>
     <use xlink:href="#m33f321a981" x="94.564415" y="90.606891" style="fill: #daa520; stroke: #daa520"/>
     <use xlink:href="#m33f321a981" x="211.600745" y="122.90772" style="fill: #daa520; stroke: #daa520"/>
     <use xlink:href="#m33f321a981" x="281.581167" y="97.826993" style="fill: #daa520; stroke: #daa520"/>
     <use xlink:href="#m33f321a981" x="71.52201" y="104.751115" style="fill: #daa520; stroke: #daa520"/>
     <use xlink:href="#m33f321a981" x="295.000128" y="101.230249" style="fill: #daa520; stroke: #daa520"/>
     <use xlink:href="#m33f321a981" x="210.835175" y="124.343317" style="fill: #daa520; stroke: #daa520"/>
     <use xlink:href="#m33f321a981" x="83.355334" y="159.601931" style="fill: #daa520; stroke: #daa520"/>
     <use xlink:href="#m33f321a981" x="210.830679" y="123.703215" style="fill: #daa520; stroke: #daa520"/>
     <use xlink:href="#m33f321a981" x="238.610848" y="116.593909" style="fill: #daa520; stroke: #daa520"/>
     <use xlink:href="#m33f321a981" x="314.888489" y="132.115598" style="fill: #daa520; stroke: #daa520"/>
     <use xlink:href="#m33f321a981" x="160.66091" y="128.892801" style="fill: #daa520; stroke: #daa520"/>
     <use xlink:href="#m33f321a981" x="344.51328" y="111.38828" style="fill: #daa520; stroke: #daa520"/>
     <use xlink:href="#m33f321a981" x="255.116497" y="107.437603" style="fill: #daa520; stroke: #daa520"/>
     <use xlink:href="#m33f321a981" x="385.202751" y="91.437814" style="fill: #daa520; stroke: #daa520"/>
     <use xlink:href="#m33f321a981" x="160.775356" y="129.256707" style="fill: #daa520; stroke: #daa520"/>
     <use xlink:href="#m33f321a981" x="209.594609" y="122.330118" style="fill: #daa520; stroke: #daa520"/>
     <use xlink:href="#m33f321a981" x="193.453381" y="129.032379" style="fill: #daa520; stroke: #daa520"/>
     <use xlink:href="#m33f321a981" x="150.957733" y="128.30805" style="fill: #daa520; stroke: #daa520"/>
     <use xlink:href="#m33f321a981" x="287.203082" y="124.084195" style="fill: #daa520; stroke: #daa520"/>
     <use xlink:href="#m33f321a981" x="171.52159" y="128.514739" style="fill: #daa520; stroke: #daa520"/>
     <use xlink:href="#m33f321a981" x="226.233267" y="120.102475" style="fill: #daa520; stroke: #daa520"/>
     <use xlink:href="#m33f321a981" x="121.903639" y="85.002367" style="fill: #daa520; stroke: #daa520"/>
     <use xlink:href="#m33f321a981" x="163.514871" y="130.523264" style="fill: #daa520; stroke: #daa520"/>
     <use xlink:href="#m33f321a981" x="95.64803" y="86.732077" style="fill: #daa520; stroke: #daa520"/>
     <use xlink:href="#m33f321a981" x="231.264365" y="113.800665" style="fill: #daa520; stroke: #daa520"/>
     <use xlink:href="#m33f321a981" x="198.304063" y="125.553163" style="fill: #daa520; stroke: #daa520"/>
     <use xlink:href="#m33f321a981" x="336.856054" y="134.171936" style="fill: #daa520; stroke: #daa520"/>
     <use xlink:href="#m33f321a981" x="137.146388" y="103.000162" style="fill: #daa520; stroke: #daa520"/>
     <use xlink:href="#m33f321a981" x="98.931709" y="115.146585" style="fill: #daa520; stroke: #daa520"/>
     <use xlink:href="#m33f321a981" x="65.821366" y="150.638532" style="fill: #daa520; stroke: #daa520"/>
     <use xlink:href="#m33f321a981" x="100.839959" y="100.688015" style="fill: #daa520; stroke: #daa520"/>
     <use xlink:href="#m33f321a981" x="237.60233" y="127.889314" style="fill: #daa520; stroke: #daa520"/>
     <use xlink:href="#m33f321a981" x="237.800493" y="114.292968" style="fill: #daa520; stroke: #daa520"/>
     <use xlink:href="#m33f321a981" x="175.254967" y="116.764244" style="fill: #daa520; stroke: #daa520"/>
     <use xlink:href="#m33f321a981" x="207.230047" y="122.374023" style="fill: #daa520; stroke: #daa520"/>
     <use xlink:href="#m33f321a981" x="212.031912" y="116.670284" style="fill: #daa520; stroke: #daa520"/>
     <use xlink:href="#m33f321a981" x="148.352149" y="116.334499" style="fill: #daa520; stroke: #daa520"/>
     <use xlink:href="#m33f321a981" x="177.44024" y="126.721766" style="fill: #daa520; stroke: #daa520"/>
     <use xlink:href="#m33f321a981" x="139.75227" y="97.353598" style="fill: #daa520; stroke: #daa520"/>
     <use xlink:href="#m33f321a981" x="138.1639" y="102.467954" style="fill: #daa520; stroke: #daa520"/>
     <use xlink:href="#m33f321a981" x="72.401321" y="99.162906" style="fill: #daa520; stroke: #daa520"/>
     <use xlink:href="#m33f321a981" x="265.803555" y="95.792835" style="fill: #daa520; stroke: #daa520"/>
     <use xlink:href="#m33f321a981" x="60.919481" y="119.982413" style="fill: #daa520; stroke: #daa520"/>
     <use xlink:href="#m33f321a981" x="189.868586" y="124.325572" style="fill: #daa520; stroke: #daa520"/>
     <use xlink:href="#m33f321a981" x="109.819823" y="137.087028" style="fill: #daa520; stroke: #daa520"/>
     <use xlink:href="#m33f321a981" x="175.552631" y="131.110016" style="fill: #daa520; stroke: #daa520"/>
     <use xlink:href="#m33f321a981" x="289.981454" y="104.477402" style="fill: #daa520; stroke: #daa520"/>
     <use xlink:href="#m33f321a981" x="140.101157" y="127.78977" style="fill: #daa520; stroke: #daa520"/>
     <use xlink:href="#m33f321a981" x="194.74648" y="127.086672" style="fill: #daa520; stroke: #daa520"/>
     <use xlink:href="#m33f321a981" x="101.221568" y="129.682121" style="fill: #daa520; stroke: #daa520"/>
     <use xlink:href="#m33f321a981" x="163.969216" y="122.400745" style="fill: #daa520; stroke: #daa520"/>
     <use xlink:href="#m33f321a981" x="208.819311" y="123.780546" style="fill: #daa520; stroke: #daa520"/>
     <use xlink:href="#m33f321a981" x="67.296205" y="110.527065" style="fill: #daa520; stroke: #daa520"/>
     <use xlink:href="#m33f321a981" x="124.476093" y="100.600393" style="fill: #daa520; stroke: #daa520"/>
     <use xlink:href="#m33f321a981" x="228.489588" y="124.852741" style="fill: #daa520; stroke: #daa520"/>
     <use xlink:href="#m33f321a981" x="255.032977" y="131.975881" style="fill: #daa520; stroke: #daa520"/>
     <use xlink:href="#m33f321a981" x="145.30114" y="127.466003" style="fill: #daa520; stroke: #daa520"/>
     <use xlink:href="#m33f321a981" x="190.079626" y="113.25652" style="fill: #daa520; stroke: #daa520"/>
     <use xlink:href="#m33f321a981" x="99.312915" y="143.420815" style="fill: #daa520; stroke: #daa520"/>
     <use xlink:href="#m33f321a981" x="123.331949" y="105.108405" style="fill: #daa520; stroke: #daa520"/>
     <use xlink:href="#m33f321a981" x="304.291429" y="99.859508" style="fill: #daa520; stroke: #daa520"/>
     <use xlink:href="#m33f321a981" x="251.813007" y="131.711623" style="fill: #daa520; stroke: #daa520"/>
     <use xlink:href="#m33f321a981" x="163.908122" y="113.557562" style="fill: #daa520; stroke: #daa520"/>
     <use xlink:href="#m33f321a981" x="68.862043" y="122.759915" style="fill: #daa520; stroke: #daa520"/>
     <use xlink:href="#m33f321a981" x="183.043404" y="131.173748" style="fill: #daa520; stroke: #daa520"/>
     <use xlink:href="#m33f321a981" x="217.263415" y="119.953248" style="fill: #daa520; stroke: #daa520"/>
     <use xlink:href="#m33f321a981" x="301.126859" y="102.566518" style="fill: #daa520; stroke: #daa520"/>
     <use xlink:href="#m33f321a981" x="165.546273" y="120.404014" style="fill: #daa520; stroke: #daa520"/>
     <use xlink:href="#m33f321a981" x="160.965298" y="126.239731" style="fill: #daa520; stroke: #daa520"/>
     <use xlink:href="#m33f321a981" x="272.540407" y="100.570434" style="fill: #daa520; stroke: #daa520"/>
     <use xlink:href="#m33f321a981" x="88.393345" y="99.993846" style="fill: #daa520; stroke: #daa520"/>
     <use xlink:href="#m33f321a981" x="139.811981" y="105.817135" style="fill: #daa520; stroke: #daa520"/>
     <use xlink:href="#m33f321a981" x="186.835786" y="124.994247" style="fill: #daa520; stroke: #daa520"/>
     <use xlink:href="#m33f321a981" x="151.275712" y="112.638137" style="fill: #daa520; stroke: #daa520"/>
     <use xlink:href="#m33f321a981" x="65.369158" y="90.304363" style="fill: #daa520; stroke: #daa520"/>
     <use xlink:href="#m33f321a981" x="283.663954" y="97.759086" style="fill: #daa520; stroke: #daa520"/>
     <use xlink:href="#m33f321a981" x="264.920606" y="133.78224" style="fill: #daa520; stroke: #daa520"/>
     <use xlink:href="#m33f321a981" x="268.532393" y="133.406369" style="fill: #daa520; stroke: #daa520"/>
     <use xlink:href="#m33f321a981" x="86.805226" y="81.964495" style="fill: #daa520; stroke: #daa520"/>
     <use xlink:href="#m33f321a981" x="206.830276" y="125.785697" style="fill: #daa520; stroke: #daa520"/>
     <use xlink:href="#m33f321a981" x="106.725172" y="125.984177" style="fill: #daa520; stroke: #daa520"/>
     <use xlink:href="#m33f321a981" x="94.855993" y="94.561487" style="fill: #daa520; stroke: #daa520"/>
     <use xlink:href="#m33f321a981" x="80.375941" y="161.370182" style="fill: #daa520; stroke: #daa520"/>
     <use xlink:href="#m33f321a981" x="182.401265" y="115.188526" style="fill: #daa520; stroke: #daa520"/>
     <use xlink:href="#m33f321a981" x="163.023772" y="126.659379" style="fill: #daa520; stroke: #daa520"/>
     <use xlink:href="#m33f321a981" x="63.962466" y="138.274415" style="fill: #daa520; stroke: #daa520"/>
    </g>
   </g>
   <g id="matplotlib.axis_3"/>
   <g id="matplotlib.axis_4">
    <g id="ytick_1">
     <g id="line2d_3">
      <defs>
       <path id="m0ffe1ad4ad" d="M 0 0 
L -3.5 0 
" style="stroke: #696969; stroke-width: 0.8"/>
      </defs>
      <g>
       <use xlink:href="#m0ffe1ad4ad" x="37.7875" y="145.227007" style="fill: #696969; stroke: #696969; stroke-width: 0.8"/>
      </g>
     </g>
     <g id="text_1">
      <!-- −5 -->
      <g style="fill: #696969" transform="translate(7.2 151.305757) scale(0.16 -0.16)">
       <defs>
        <path id="DejaVuSans-2212" d="M 678 2272 
L 4684 2272 
L 4684 1741 
L 678 1741 
L 678 2272 
z
" transform="scale(0.015625)"/>
        <path id="DejaVuSans-35" d="M 691 4666 
L 3169 4666 
L 3169 4134 
L 1269 4134 
L 1269 2991 
Q 1406 3038 1543 3061 
Q 1681 3084 1819 3084 
Q 2600 3084 3056 2656 
Q 3513 2228 3513 1497 
Q 3513 744 3044 326 
Q 2575 -91 1722 -91 
Q 1428 -91 1123 -41 
Q 819 9 494 109 
L 494 744 
Q 775 591 1075 516 
Q 1375 441 1709 441 
Q 2250 441 2565 725 
Q 2881 1009 2881 1497 
Q 2881 1984 2565 2268 
Q 2250 2553 1709 2553 
Q 1456 2553 1204 2497 
Q 953 2441 691 2322 
L 691 4666 
z
" transform="scale(0.015625)"/>
       </defs>
       <use xlink:href="#DejaVuSans-2212"/>
       <use xlink:href="#DejaVuSans-35" x="83.789062"/>
      </g>
     </g>
    </g>
    <g id="ytick_2">
     <g id="line2d_4">
      <g>
       <use xlink:href="#m0ffe1ad4ad" x="37.7875" y="118.510777" style="fill: #696969; stroke: #696969; stroke-width: 0.8"/>
      </g>
     </g>
     <g id="text_2">
      <!-- 0 -->
      <g style="fill: #696969" transform="translate(20.6075 124.589527) scale(0.16 -0.16)">
       <defs>
        <path id="DejaVuSans-30" d="M 2034 4250 
Q 1547 4250 1301 3770 
Q 1056 3291 1056 2328 
Q 1056 1369 1301 889 
Q 1547 409 2034 409 
Q 2525 409 2770 889 
Q 3016 1369 3016 2328 
Q 3016 3291 2770 3770 
Q 2525 4250 2034 4250 
z
M 2034 4750 
Q 2819 4750 3233 4129 
Q 3647 3509 3647 2328 
Q 3647 1150 3233 529 
Q 2819 -91 2034 -91 
Q 1250 -91 836 529 
Q 422 1150 422 2328 
Q 422 3509 836 4129 
Q 1250 4750 2034 4750 
z
" transform="scale(0.015625)"/>
       </defs>
       <use xlink:href="#DejaVuSans-30"/>
      </g>
     </g>
    </g>
    <g id="ytick_3">
     <g id="line2d_5">
      <g>
       <use xlink:href="#m0ffe1ad4ad" x="37.7875" y="91.794548" style="fill: #696969; stroke: #696969; stroke-width: 0.8"/>
      </g>
     </g>
     <g id="text_3">
      <!-- 5 -->
      <g style="fill: #696969" transform="translate(20.6075 97.873298) scale(0.16 -0.16)">
       <use xlink:href="#DejaVuSans-35"/>
      </g>
     </g>
    </g>
   </g>
   <g id="line2d_6">
    <path d="M 55.888409 134.290574 
L 63.128773 131.697355 
L 70.369136 128.125183 
L 77.6095 124.000561 
L 84.849864 119.877437 
L 92.090227 116.300859 
L 99.330591 113.661705 
L 106.570955 112.097832 
L 113.811318 111.488955 
L 121.051682 111.554435 
L 128.292045 112.009762 
L 135.532409 112.700714 
L 142.772773 113.642257 
L 150.013136 114.942962 
L 157.2535 116.663997 
L 164.493864 118.700817 
L 171.734227 120.760627 
L 178.974591 122.450613 
L 186.214955 123.428978 
L 193.455318 123.539868 
L 200.695682 122.86756 
L 207.936045 121.689591 
L 215.176409 120.356323 
L 222.416773 119.154077 
L 229.657136 118.211191 
L 236.8975 117.483599 
L 244.137864 116.818755 
L 251.378227 116.060323 
L 258.618591 115.138893 
L 265.858955 114.105858 
L 273.099318 113.102341 
L 280.339682 112.291454 
L 287.580045 111.797907 
L 294.820409 111.68532 
L 302.060773 111.970185 
L 309.301136 112.645109 
L 316.5415 113.681197 
L 323.781864 115.001242 
L 331.022227 116.445672 
L 338.262591 117.769186 
L 345.502955 118.694513 
L 352.743318 119.014576 
L 359.983682 118.696334 
L 367.224045 117.924282 
L 374.464409 117.044138 
L 381.704773 116.419828 
L 388.945136 116.269836 
L 396.1855 116.567191 
L 403.425864 117.056032 
L 410.666227 117.374462 
L 417.906591 117.217695 
" clip-path="url(#p1a03c28225)" style="fill: none; stroke: #000000; stroke-width: 2; stroke-linecap: square"/>
   </g>
   <g id="line2d_7">
    <path d="M 55.888409 124.60749 
L 63.128773 119.414052 
L 70.369136 116.101947 
L 77.6095 114.16664 
L 84.849864 113.218509 
L 92.090227 112.959772 
L 99.330591 113.165425 
L 106.570955 113.667641 
L 113.811318 114.343062 
L 121.051682 115.102571 
L 128.292045 115.88311 
L 135.532409 116.641201 
L 142.772773 117.347885 
L 150.013136 117.984791 
L 157.2535 118.541134 
L 164.493864 119.011454 
L 171.734227 119.393923 
L 178.974591 119.689113 
L 186.214955 119.899105 
L 193.455318 120.026855 
L 200.695682 120.075757 
L 207.936045 120.04934 
L 215.176409 119.951065 
L 222.416773 119.784192 
L 229.657136 119.551684 
L 236.8975 119.256149 
L 244.137864 118.899787 
L 251.378227 118.484358 
L 258.618591 118.011135 
L 265.858955 117.480861 
L 273.099318 116.893696 
L 280.339682 116.249145 
L 287.580045 115.545961 
L 294.820409 114.78203 
L 302.060773 113.954215 
L 309.301136 113.058165 
L 316.5415 112.088076 
L 323.781864 111.036408 
L 331.022227 109.89356 
L 338.262591 108.647492 
L 345.502955 107.283322 
L 352.743318 105.782909 
L 359.983682 104.124442 
L 367.224045 102.28209 
L 374.464409 100.225749 
L 381.704773 97.920967 
L 388.945136 95.329135 
L 396.1855 92.408056 
L 403.425864 89.11303 
L 410.666227 85.398628 
L 417.906591 81.221353 
" clip-path="url(#p1a03c28225)" style="fill: none; stroke-dasharray: 7.4,3.2; stroke-dashoffset: 0; stroke: #34b6c6; stroke-width: 2"/>
   </g>
   <g id="line2d_8">
    <path d="M 55.888409 118.328964 
L 63.128773 120.725698 
L 70.369136 120.051146 
L 77.6095 116.607801 
L 84.849864 113.068257 
L 92.090227 110.906326 
L 99.330591 110.065955 
L 106.570955 110.049157 
L 113.811318 110.407062 
L 121.051682 110.919334 
L 128.292045 111.545777 
L 135.532409 112.386635 
L 142.772773 113.678856 
L 150.013136 115.655764 
L 157.2535 118.35042 
L 164.493864 121.614523 
L 171.734227 124.413375 
L 178.974591 125.900853 
L 186.214955 126.430088 
L 193.455318 126.39015 
L 200.695682 125.840021 
L 207.936045 124.68564 
L 215.176409 123.018245 
L 222.416773 121.294437 
L 229.657136 119.884737 
L 236.8975 118.773237 
L 244.137864 117.76195 
L 251.378227 116.630172 
L 258.618591 115.213798 
L 265.858955 113.558675 
L 273.099318 111.976208 
L 280.339682 110.764086 
L 287.580045 109.98752 
L 294.820409 109.613454 
L 302.060773 109.714238 
L 309.301136 110.447398 
L 316.5415 111.495198 
L 323.781864 112.037376 
L 331.022227 111.853405 
L 338.262591 111.160992 
L 345.502955 110.122749 
L 352.743318 108.798087 
L 359.983682 107.188279 
L 367.224045 105.261547 
L 374.464409 102.962142 
L 381.704773 100.212064 
L 388.945136 96.909208 
L 396.1855 92.923372 
L 403.425864 88.090568 
L 410.666227 82.205746 
L 417.906591 75.013818 
" clip-path="url(#p1a03c28225)" style="fill: none; stroke-dasharray: 7.4,3.2; stroke-dashoffset: 0; stroke: #9370db; stroke-width: 2"/>
   </g>
   <g id="line2d_9">
    <path d="M 55.888409 132.051905 
L 63.128773 130.801872 
L 70.369136 127.706149 
L 77.6095 122.881298 
L 84.849864 118.383567 
L 92.090227 115.322002 
L 99.330591 113.586997 
L 106.570955 112.725453 
L 113.811318 112.334589 
L 121.051682 112.204616 
L 128.292045 112.277901 
L 135.532409 112.615491 
L 142.772773 113.392987 
L 150.013136 114.786345 
L 157.2535 116.812393 
L 164.493864 119.343562 
L 171.734227 121.538138 
L 178.974591 122.707993 
L 186.214955 123.134466 
L 193.455318 123.128784 
L 200.695682 122.736351 
L 207.936045 121.879599 
L 215.176409 120.631127 
L 222.416773 119.359041 
L 229.657136 118.362382 
L 236.8975 117.628563 
L 244.137864 116.998385 
L 251.378227 116.294735 
L 258.618591 115.386657 
L 265.858955 114.313234 
L 273.099318 113.328558 
L 280.339682 112.676297 
L 287.580045 112.413164 
L 294.820409 112.517454 
L 302.060773 113.053703 
L 309.301136 114.156624 
L 316.5415 115.578887 
L 323.781864 116.669531 
L 331.022227 117.26462 
L 338.262591 117.557542 
L 345.502955 117.701548 
L 352.743318 117.772067 
L 359.983682 117.804543 
L 367.224045 117.816509 
L 374.464409 117.817185 
L 381.704773 117.811655 
L 388.945136 117.802819 
L 396.1855 117.792359 
L 403.425864 117.781257 
L 410.666227 117.770082 
L 417.906591 117.759155 
" clip-path="url(#p1a03c28225)" style="fill: none; stroke-dasharray: 12.8,3.2,2,3.2; stroke-dashoffset: 0; stroke: #ff0000; stroke-width: 2"/>
   </g>
   <g id="patch_4">
    <path d="M 37.7875 165.688 
L 37.7875 70.696 
" style="fill: none; stroke: #000000; stroke-width: 0.8; stroke-linejoin: miter; stroke-linecap: square"/>
   </g>
   <g id="patch_5">
    <path d="M 436.0075 165.688 
L 436.0075 70.696 
" style="fill: none; stroke: #000000; stroke-width: 0.8; stroke-linejoin: miter; stroke-linecap: square"/>
   </g>
   <g id="patch_6">
    <path d="M 37.7875 165.688 
L 436.0075 165.688 
" style="fill: none; stroke: #000000; stroke-width: 0.8; stroke-linejoin: miter; stroke-linecap: square"/>
   </g>
   <g id="patch_7">
    <path d="M 37.7875 70.696 
L 436.0075 70.696 
" style="fill: none; stroke: #000000; stroke-width: 0.8; stroke-linejoin: miter; stroke-linecap: square"/>
   </g>
  </g>
  <g id="axes_3">
   <g id="patch_8">
    <path d="M 37.7875 276.68 
L 436.0075 276.68 
L 436.0075 181.688 
L 37.7875 181.688 
z
" style="fill: #ffffff"/>
   </g>
   <g id="PathCollection_2">
    <g clip-path="url(#p0b617fc1b5)">
     <use xlink:href="#m33f321a981" x="89.890642" y="240.076293" style="fill: #daa520; stroke: #daa520"/>
     <use xlink:href="#m33f321a981" x="377.799742" y="257.979182" style="fill: #daa520; stroke: #daa520"/>
     <use xlink:href="#m33f321a981" x="124.04858" y="204.286538" style="fill: #daa520; stroke: #daa520"/>
     <use xlink:href="#m33f321a981" x="134.085907" y="246.99579" style="fill: #daa520; stroke: #daa520"/>
     <use xlink:href="#m33f321a981" x="92.365656" y="245.112684" style="fill: #daa520; stroke: #daa520"/>
     <use xlink:href="#m33f321a981" x="238.411298" y="217.597607" style="fill: #daa520; stroke: #daa520"/>
     <use xlink:href="#m33f321a981" x="331.57176" y="237.933998" style="fill: #daa520; stroke: #daa520"/>
     <use xlink:href="#m33f321a981" x="261.248792" y="235.072538" style="fill: #daa520; stroke: #daa520"/>
     <use xlink:href="#m33f321a981" x="218.013248" y="225.413052" style="fill: #daa520; stroke: #daa520"/>
     <use xlink:href="#m33f321a981" x="297.366476" y="239.459196" style="fill: #daa520; stroke: #daa520"/>
     <use xlink:href="#m33f321a981" x="114.645393" y="198.404787" style="fill: #daa520; stroke: #daa520"/>
     <use xlink:href="#m33f321a981" x="91.006026" y="264.546668" style="fill: #daa520; stroke: #daa520"/>
     <use xlink:href="#m33f321a981" x="113.521874" y="240.566251" style="fill: #daa520; stroke: #daa520"/>
     <use xlink:href="#m33f321a981" x="94.564415" y="253.860473" style="fill: #daa520; stroke: #daa520"/>
     <use xlink:href="#m33f321a981" x="211.600745" y="226.859001" style="fill: #daa520; stroke: #daa520"/>
     <use xlink:href="#m33f321a981" x="281.581167" y="244.148426" style="fill: #daa520; stroke: #daa520"/>
     <use xlink:href="#m33f321a981" x="71.52201" y="252.032246" style="fill: #daa520; stroke: #daa520"/>
     <use xlink:href="#m33f321a981" x="295.000128" y="240.478531" style="fill: #daa520; stroke: #daa520"/>
     <use xlink:href="#m33f321a981" x="210.835175" y="225.485886" style="fill: #daa520; stroke: #daa520"/>
     <use xlink:href="#m33f321a981" x="83.355334" y="186.005818" style="fill: #daa520; stroke: #daa520"/>
     <use xlink:href="#m33f321a981" x="210.830679" y="226.16124" style="fill: #daa520; stroke: #daa520"/>
     <use xlink:href="#m33f321a981" x="238.610848" y="229.506465" style="fill: #daa520; stroke: #daa520"/>
     <use xlink:href="#m33f321a981" x="314.888489" y="210.816529" style="fill: #daa520; stroke: #daa520"/>
     <use xlink:href="#m33f321a981" x="160.66091" y="217.065823" style="fill: #daa520; stroke: #daa520"/>
     <use xlink:href="#m33f321a981" x="344.51328" y="235.214066" style="fill: #daa520; stroke: #daa520"/>
     <use xlink:href="#m33f321a981" x="255.116497" y="237.44604" style="fill: #daa520; stroke: #daa520"/>
     <use xlink:href="#m33f321a981" x="385.202751" y="256.364802" style="fill: #daa520; stroke: #daa520"/>
     <use xlink:href="#m33f321a981" x="160.775356" y="216.725074" style="fill: #daa520; stroke: #daa520"/>
     <use xlink:href="#m33f321a981" x="209.594609" y="227.826277" style="fill: #daa520; stroke: #daa520"/>
     <use xlink:href="#m33f321a981" x="193.453381" y="222.354906" style="fill: #daa520; stroke: #daa520"/>
     <use xlink:href="#m33f321a981" x="150.957733" y="214.568149" style="fill: #daa520; stroke: #daa520"/>
     <use xlink:href="#m33f321a981" x="287.203082" y="216.281935" style="fill: #daa520; stroke: #daa520"/>
     <use xlink:href="#m33f321a981" x="171.52159" y="221.171318" style="fill: #daa520; stroke: #daa520"/>
     <use xlink:href="#m33f321a981" x="226.233267" y="227.197399" style="fill: #daa520; stroke: #daa520"/>
     <use xlink:href="#m33f321a981" x="121.903639" y="257.239828" style="fill: #daa520; stroke: #daa520"/>
     <use xlink:href="#m33f321a981" x="163.514871" y="216.42654" style="fill: #daa520; stroke: #daa520"/>
     <use xlink:href="#m33f321a981" x="95.64803" y="257.658276" style="fill: #daa520; stroke: #daa520"/>
     <use xlink:href="#m33f321a981" x="231.264365" y="233.192642" style="fill: #daa520; stroke: #daa520"/>
     <use xlink:href="#m33f321a981" x="198.304063" y="225.794341" style="fill: #daa520; stroke: #daa520"/>
     <use xlink:href="#m33f321a981" x="336.856054" y="211.023678" style="fill: #daa520; stroke: #daa520"/>
     <use xlink:href="#m33f321a981" x="137.146388" y="238.843004" style="fill: #daa520; stroke: #daa520"/>
     <use xlink:href="#m33f321a981" x="98.931709" y="227.004658" style="fill: #daa520; stroke: #daa520"/>
     <use xlink:href="#m33f321a981" x="65.821366" y="206.740772" style="fill: #daa520; stroke: #daa520"/>
     <use xlink:href="#m33f321a981" x="100.839959" y="241.920757" style="fill: #daa520; stroke: #daa520"/>
     <use xlink:href="#m33f321a981" x="237.60233" y="217.696855" style="fill: #daa520; stroke: #daa520"/>
     <use xlink:href="#m33f321a981" x="237.800493" y="232.006256" style="fill: #daa520; stroke: #daa520"/>
     <use xlink:href="#m33f321a981" x="175.254967" y="234.334772" style="fill: #daa520; stroke: #daa520"/>
     <use xlink:href="#m33f321a981" x="207.230047" y="228.165207" style="fill: #daa520; stroke: #daa520"/>
     <use xlink:href="#m33f321a981" x="212.031912" y="233.352031" style="fill: #daa520; stroke: #daa520"/>
     <use xlink:href="#m33f321a981" x="148.352149" y="226.547643" style="fill: #daa520; stroke: #daa520"/>
     <use xlink:href="#m33f321a981" x="177.44024" y="224.166759" style="fill: #daa520; stroke: #daa520"/>
     <use xlink:href="#m33f321a981" x="139.75227" y="245.065386" style="fill: #daa520; stroke: #daa520"/>
     <use xlink:href="#m33f321a981" x="138.1639" y="239.50147" style="fill: #daa520; stroke: #daa520"/>
     <use xlink:href="#m33f321a981" x="72.401321" y="257.330993" style="fill: #daa520; stroke: #daa520"/>
     <use xlink:href="#m33f321a981" x="265.803555" y="248.101717" style="fill: #daa520; stroke: #daa520"/>
     <use xlink:href="#m33f321a981" x="60.919481" y="240.530606" style="fill: #daa520; stroke: #daa520"/>
     <use xlink:href="#m33f321a981" x="189.868586" y="227.366358" style="fill: #daa520; stroke: #daa520"/>
     <use xlink:href="#m33f321a981" x="109.819823" y="202.675294" style="fill: #daa520; stroke: #daa520"/>
     <use xlink:href="#m33f321a981" x="175.552631" y="219.266683" style="fill: #daa520; stroke: #daa520"/>
     <use xlink:href="#m33f321a981" x="289.981454" y="236.932073" style="fill: #daa520; stroke: #daa520"/>
     <use xlink:href="#m33f321a981" x="140.101157" y="213.033675" style="fill: #daa520; stroke: #daa520"/>
     <use xlink:href="#m33f321a981" x="194.74648" y="224.363273" style="fill: #daa520; stroke: #daa520"/>
     <use xlink:href="#m33f321a981" x="101.221568" y="211.309536" style="fill: #daa520; stroke: #daa520"/>
     <use xlink:href="#m33f321a981" x="163.969216" y="225.157638" style="fill: #daa520; stroke: #daa520"/>
     <use xlink:href="#m33f321a981" x="208.819311" y="226.429094" style="fill: #daa520; stroke: #daa520"/>
     <use xlink:href="#m33f321a981" x="67.296205" y="248.360967" style="fill: #daa520; stroke: #daa520"/>
     <use xlink:href="#m33f321a981" x="124.476093" y="240.813503" style="fill: #daa520; stroke: #daa520"/>
     <use xlink:href="#m33f321a981" x="228.489588" y="221.883774" style="fill: #daa520; stroke: #daa520"/>
     <use xlink:href="#m33f321a981" x="255.032977" y="211.598547" style="fill: #daa520; stroke: #daa520"/>
     <use xlink:href="#m33f321a981" x="145.30114" y="214.180755" style="fill: #daa520; stroke: #daa520"/>
     <use xlink:href="#m33f321a981" x="190.079626" y="239.030563" style="fill: #daa520; stroke: #daa520"/>
     <use xlink:href="#m33f321a981" x="99.312915" y="197.140182" style="fill: #daa520; stroke: #daa520"/>
     <use xlink:href="#m33f321a981" x="123.331949" y="236.054772" style="fill: #daa520; stroke: #daa520"/>
     <use xlink:href="#m33f321a981" x="304.291429" y="242.772412" style="fill: #daa520; stroke: #daa520"/>
     <use xlink:href="#m33f321a981" x="251.813007" y="212.279084" style="fill: #daa520; stroke: #daa520"/>
     <use xlink:href="#m33f321a981" x="163.908122" y="234.45362" style="fill: #daa520; stroke: #daa520"/>
     <use xlink:href="#m33f321a981" x="68.862043" y="234.666915" style="fill: #daa520; stroke: #daa520"/>
     <use xlink:href="#m33f321a981" x="183.043404" y="219.975677" style="fill: #daa520; stroke: #daa520"/>
     <use xlink:href="#m33f321a981" x="217.263415" y="228.886661" style="fill: #daa520; stroke: #daa520"/>
     <use xlink:href="#m33f321a981" x="301.126859" y="239.523147" style="fill: #daa520; stroke: #daa520"/>
     <use xlink:href="#m33f321a981" x="165.546273" y="227.8469" style="fill: #daa520; stroke: #daa520"/>
     <use xlink:href="#m33f321a981" x="160.965298" y="219.975481" style="fill: #daa520; stroke: #daa520"/>
     <use xlink:href="#m33f321a981" x="272.540407" y="242.090411" style="fill: #daa520; stroke: #daa520"/>
     <use xlink:href="#m33f321a981" x="88.393345" y="246.178804" style="fill: #daa520; stroke: #daa520"/>
     <use xlink:href="#m33f321a981" x="139.811981" y="236.153569" style="fill: #daa520; stroke: #daa520"/>
     <use xlink:href="#m33f321a981" x="186.835786" y="226.631236" style="fill: #daa520; stroke: #daa520"/>
     <use xlink:href="#m33f321a981" x="151.275712" y="231.164934" style="fill: #daa520; stroke: #daa520"/>
     <use xlink:href="#m33f321a981" x="65.369158" y="270.499922" style="fill: #daa520; stroke: #daa520"/>
     <use xlink:href="#m33f321a981" x="283.663954" y="244.119522" style="fill: #daa520; stroke: #daa520"/>
     <use xlink:href="#m33f321a981" x="264.920606" y="208.207885" style="fill: #daa520; stroke: #daa520"/>
     <use xlink:href="#m33f321a981" x="268.532393" y="208.044329" style="fill: #daa520; stroke: #daa520"/>
     <use xlink:href="#m33f321a981" x="86.805226" y="265.926183" style="fill: #daa520; stroke: #daa520"/>
     <use xlink:href="#m33f321a981" x="206.830276" y="224.630356" style="fill: #daa520; stroke: #daa520"/>
     <use xlink:href="#m33f321a981" x="106.725172" y="214.591173" style="fill: #daa520; stroke: #daa520"/>
     <use xlink:href="#m33f321a981" x="94.855993" y="249.613562" style="fill: #daa520; stroke: #daa520"/>
     <use xlink:href="#m33f321a981" x="80.375941" y="186.059482" style="fill: #daa520; stroke: #daa520"/>
     <use xlink:href="#m33f321a981" x="182.401265" y="236.78324" style="fill: #daa520; stroke: #daa520"/>
     <use xlink:href="#m33f321a981" x="163.023772" y="220.31217" style="fill: #daa520; stroke: #daa520"/>
     <use xlink:href="#m33f321a981" x="63.962466" y="220.446082" style="fill: #daa520; stroke: #daa520"/>
    </g>
   </g>
   <g id="matplotlib.axis_5">
    <g id="xtick_1">
     <g id="line2d_10">
      <defs>
       <path id="ma2f489795d" d="M 0 0 
L 0 3.5 
" style="stroke: #696969; stroke-width: 0.8"/>
      </defs>
      <g>
       <use xlink:href="#ma2f489795d" x="55.888409" y="276.68" style="fill: #696969; stroke: #696969; stroke-width: 0.8"/>
      </g>
     </g>
     <g id="text_4">
      <!-- −1.0 -->
      <g style="fill: #696969" transform="translate(36.462159 295.8375) scale(0.16 -0.16)">
       <defs>
        <path id="DejaVuSans-31" d="M 794 531 
L 1825 531 
L 1825 4091 
L 703 3866 
L 703 4441 
L 1819 4666 
L 2450 4666 
L 2450 531 
L 3481 531 
L 3481 0 
L 794 0 
L 794 531 
z
" transform="scale(0.015625)"/>
        <path id="DejaVuSans-2e" d="M 684 794 
L 1344 794 
L 1344 0 
L 684 0 
L 684 794 
z
" transform="scale(0.015625)"/>
       </defs>
       <use xlink:href="#DejaVuSans-2212"/>
       <use xlink:href="#DejaVuSans-31" x="83.789062"/>
       <use xlink:href="#DejaVuSans-2e" x="147.412109"/>
       <use xlink:href="#DejaVuSans-30" x="179.199219"/>
      </g>
     </g>
    </g>
    <g id="xtick_2">
     <g id="line2d_11">
      <g>
       <use xlink:href="#ma2f489795d" x="146.392955" y="276.68" style="fill: #696969; stroke: #696969; stroke-width: 0.8"/>
      </g>
     </g>
     <g id="text_5">
      <!-- −0.5 -->
      <g style="fill: #696969" transform="translate(126.966705 295.8375) scale(0.16 -0.16)">
       <use xlink:href="#DejaVuSans-2212"/>
       <use xlink:href="#DejaVuSans-30" x="83.789062"/>
       <use xlink:href="#DejaVuSans-2e" x="147.412109"/>
       <use xlink:href="#DejaVuSans-35" x="179.199219"/>
      </g>
     </g>
    </g>
    <g id="xtick_3">
     <g id="line2d_12">
      <g>
       <use xlink:href="#ma2f489795d" x="236.8975" y="276.68" style="fill: #696969; stroke: #696969; stroke-width: 0.8"/>
      </g>
     </g>
     <g id="text_6">
      <!-- 0.0 -->
      <g style="fill: #696969" transform="translate(224.175 295.8375) scale(0.16 -0.16)">
       <use xlink:href="#DejaVuSans-30"/>
       <use xlink:href="#DejaVuSans-2e" x="63.623047"/>
       <use xlink:href="#DejaVuSans-30" x="95.410156"/>
      </g>
     </g>
    </g>
    <g id="xtick_4">
     <g id="line2d_13">
      <g>
       <use xlink:href="#ma2f489795d" x="327.402045" y="276.68" style="fill: #696969; stroke: #696969; stroke-width: 0.8"/>
      </g>
     </g>
     <g id="text_7">
      <!-- 0.5 -->
      <g style="fill: #696969" transform="translate(314.679545 295.8375) scale(0.16 -0.16)">
       <use xlink:href="#DejaVuSans-30"/>
       <use xlink:href="#DejaVuSans-2e" x="63.623047"/>
       <use xlink:href="#DejaVuSans-35" x="95.410156"/>
      </g>
     </g>
    </g>
    <g id="xtick_5">
     <g id="line2d_14">
      <g>
       <use xlink:href="#ma2f489795d" x="417.906591" y="276.68" style="fill: #696969; stroke: #696969; stroke-width: 0.8"/>
      </g>
     </g>
     <g id="text_8">
      <!-- 1.0 -->
      <g style="fill: #696969" transform="translate(405.184091 295.8375) scale(0.16 -0.16)">
       <use xlink:href="#DejaVuSans-31"/>
       <use xlink:href="#DejaVuSans-2e" x="63.623047"/>
       <use xlink:href="#DejaVuSans-30" x="95.410156"/>
      </g>
     </g>
    </g>
    <g id="text_9">
     <!-- $X$ -->
     <g transform="translate(231.3775 315.3225) scale(0.16 -0.16)">
      <defs>
       <path id="DejaVuSans-Oblique-58" d="M 878 4666 
L 1516 4666 
L 2316 2981 
L 3763 4666 
L 4500 4666 
L 2578 2438 
L 3738 0 
L 3103 0 
L 2163 1966 
L 459 0 
L -275 0 
L 1906 2509 
L 878 4666 
z
" transform="scale(0.015625)"/>
      </defs>
      <use xlink:href="#DejaVuSans-Oblique-58" transform="translate(0 0.09375)"/>
     </g>
    </g>
   </g>
   <g id="matplotlib.axis_6">
    <g id="ytick_4">
     <g id="line2d_15">
      <g>
       <use xlink:href="#m0ffe1ad4ad" x="37.7875" y="256.729808" style="fill: #696969; stroke: #696969; stroke-width: 0.8"/>
      </g>
     </g>
     <g id="text_10">
      <!-- −5 -->
      <g style="fill: #696969" transform="translate(7.2 262.808558) scale(0.16 -0.16)">
       <use xlink:href="#DejaVuSans-2212"/>
       <use xlink:href="#DejaVuSans-35" x="83.789062"/>
      </g>
     </g>
    </g>
    <g id="ytick_5">
     <g id="line2d_16">
      <g>
       <use xlink:href="#m0ffe1ad4ad" x="37.7875" y="228.576094" style="fill: #696969; stroke: #696969; stroke-width: 0.8"/>
      </g>
     </g>
     <g id="text_11">
      <!-- 0 -->
      <g style="fill: #696969" transform="translate(20.6075 234.654844) scale(0.16 -0.16)">
       <use xlink:href="#DejaVuSans-30"/>
      </g>
     </g>
    </g>
    <g id="ytick_6">
     <g id="line2d_17">
      <g>
       <use xlink:href="#m0ffe1ad4ad" x="37.7875" y="200.42238" style="fill: #696969; stroke: #696969; stroke-width: 0.8"/>
      </g>
     </g>
     <g id="text_12">
      <!-- 5 -->
      <g style="fill: #696969" transform="translate(20.6075 206.50113) scale(0.16 -0.16)">
       <use xlink:href="#DejaVuSans-35"/>
      </g>
     </g>
    </g>
   </g>
   <g id="line2d_18">
    <path d="M 55.888409 226.216972 
L 63.128773 227.632429 
L 70.369136 228.134513 
L 77.6095 227.396608 
L 84.849864 227.001846 
L 92.090227 227.544569 
L 99.330591 228.497366 
L 106.570955 229.237485 
L 113.811318 229.467227 
L 121.051682 229.261258 
L 128.292045 228.85866 
L 135.532409 228.486285 
L 142.772773 228.313412 
L 150.013136 228.41105 
L 157.2535 228.732475 
L 164.493864 229.253422 
L 171.734227 229.395439 
L 178.974591 228.847322 
L 186.214955 228.265735 
L 193.455318 228.142892 
L 200.695682 228.437825 
L 207.936045 228.776326 
L 215.176409 228.865684 
L 222.416773 228.792086 
L 229.657136 228.73542 
L 236.8975 228.728857 
L 244.137864 228.765389 
L 251.378227 228.823119 
L 258.618591 228.837188 
L 265.858955 228.794628 
L 273.099318 228.814483 
L 280.339682 228.981644 
L 287.580045 229.224455 
L 294.820409 229.453001 
L 302.060773 229.717912 
L 309.301136 230.168937 
L 316.5415 230.57589 
L 323.781864 230.334146 
L 331.022227 229.439107 
L 338.262591 228.353062 
L 345.502955 227.529701 
L 352.743318 227.266731 
L 359.983682 227.63632 
L 367.224045 228.462522 
L 374.464409 229.390735 
L 381.704773 230.04281 
L 388.945136 230.19156 
L 396.1855 229.867183 
L 403.425864 229.34034 
L 410.666227 228.993001 
L 417.906591 229.146689 
" clip-path="url(#p0b617fc1b5)" style="fill: none; stroke: #696969; stroke-width: 2; stroke-linecap: square"/>
   </g>
   <g id="line2d_19">
    <path d="M 55.888409 241.763816 
L 63.128773 239.460489 
L 70.369136 237.444069 
L 77.6095 235.682327 
L 84.849864 234.146919 
L 92.090227 232.81282 
L 99.330591 231.657864 
L 106.570955 230.662385 
L 113.811318 229.80892 
L 121.051682 229.081968 
L 128.292045 228.467788 
L 135.532409 227.95423 
L 142.772773 227.530586 
L 150.013136 227.187455 
L 157.2535 226.916627 
L 164.493864 226.710971 
L 171.734227 226.564341 
L 178.974591 226.471483 
L 186.214955 226.42795 
L 193.455318 226.430035 
L 200.695682 226.474703 
L 207.936045 226.55954 
L 215.176409 226.682709 
L 222.416773 226.842914 
L 229.657136 227.039387 
L 236.8975 227.271872 
L 244.137864 227.540637 
L 251.378227 227.846489 
L 258.618591 228.190817 
L 265.858955 228.575642 
L 273.099318 229.003702 
L 280.339682 229.478555 
L 287.580045 230.004729 
L 294.820409 230.587906 
L 302.060773 231.235167 
L 309.301136 231.955307 
L 316.5415 232.759243 
L 323.781864 233.66053 
L 331.022227 234.676015 
L 338.262591 235.826674 
L 345.502955 237.138649 
L 352.743318 238.64455 
L 359.983682 240.385069 
L 367.224045 242.410963 
L 374.464409 244.785496 
L 381.704773 247.587389 
L 388.945136 250.914415 
L 396.1855 254.887704 
L 403.425864 259.656904 
L 410.666227 265.406321 
L 417.906591 272.362182 
" clip-path="url(#p0b617fc1b5)" style="fill: none; stroke-dasharray: 7.4,3.2; stroke-dashoffset: 0; stroke: #79ad41; stroke-width: 2"/>
   </g>
   <g id="patch_9">
    <path d="M 37.7875 276.68 
L 37.7875 181.688 
" style="fill: none; stroke: #000000; stroke-width: 0.8; stroke-linejoin: miter; stroke-linecap: square"/>
   </g>
   <g id="patch_10">
    <path d="M 436.0075 276.68 
L 436.0075 181.688 
" style="fill: none; stroke: #000000; stroke-width: 0.8; stroke-linejoin: miter; stroke-linecap: square"/>
   </g>
   <g id="patch_11">
    <path d="M 37.7875 276.68 
L 436.0075 276.68 
" style="fill: none; stroke: #000000; stroke-width: 0.8; stroke-linejoin: miter; stroke-linecap: square"/>
   </g>
   <g id="patch_12">
    <path d="M 37.7875 181.688 
L 436.0075 181.688 
" style="fill: none; stroke: #000000; stroke-width: 0.8; stroke-linejoin: miter; stroke-linecap: square"/>
   </g>
  </g>
 </g>
 <defs>
  <clipPath id="p9923064457">
   <rect x="37.7875" y="7.2" width="398.22" height="47.496"/>
  </clipPath>
  <clipPath id="p1a03c28225">
   <rect x="37.7875" y="70.696" width="398.22" height="94.992"/>
  </clipPath>
  <clipPath id="p0b617fc1b5">
   <rect x="37.7875" y="181.688" width="398.22" height="94.992"/>
  </clipPath>
 </defs>
</svg>
