<?xml version="1.0" encoding="utf-8" standalone="no"?>
<!DOCTYPE svg PUBLIC "-//W3C//DTD SVG 1.1//EN"
  "http://www.w3.org/Graphics/SVG/1.1/DTD/svg11.dtd">
<svg xmlns:xlink="http://www.w3.org/1999/xlink" width="443.2075pt" height="325.85pt" viewBox="0 0 443.2075 325.85" xmlns="http://www.w3.org/2000/svg" version="1.1">
 <metadata>
  <rdf:RDF xmlns:dc="http://purl.org/dc/elements/1.1/" xmlns:cc="http://creativecommons.org/ns#" xmlns:rdf="http://www.w3.org/1999/02/22-rdf-syntax-ns#">
   <cc:Work>
    <dc:type rdf:resource="http://purl.org/dc/dcmitype/StillImage"/>
    <dc:date>2024-01-28T20:55:56.006689</dc:date>
    <dc:format>image/svg+xml</dc:format>
    <dc:creator>
     <cc:Agent>
      <dc:title>Matplotlib v3.7.2, https://matplotlib.org/</dc:title>
     </cc:Agent>
    </dc:creator>
   </cc:Work>
  </rdf:RDF>
 </metadata>
 <defs>
  <style type="text/css">*{stroke-linejoin: round; stroke-linecap: butt}</style>
 </defs>
 <g id="figure_1">
  <g id="patch_1">
   <path d="M 0 325.85 
L 443.2075 325.85 
L 443.2075 0 
L 0 0 
z
" style="fill: #ffffff"/>
  </g>
  <g id="axes_1">
   <g id="patch_2">
    <path d="M 37.7875 54.696 
L 436.0075 54.696 
L 436.0075 7.2 
L 37.7875 7.2 
z
" style="fill: #ffffff"/>
   </g>
   <g id="PolyCollection_1">
    <defs>
     <path id="m7319913901" d="M 55.888409 -273.312909 
L 55.888409 -309.478486 
L 63.128773 -309.355957 
L 70.369136 -309.251615 
L 77.6095 -309.157041 
L 84.849864 -309.06393 
L 92.090227 -308.964235 
L 99.330591 -308.850202 
L 106.570955 -308.714404 
L 113.811318 -308.549763 
L 121.051682 -308.34947 
L 128.292045 -308.106999 
L 135.532409 -307.816037 
L 142.772773 -307.470455 
L 150.013136 -307.064286 
L 157.2535 -306.591732 
L 164.493864 -306.047217 
L 171.734227 -305.425452 
L 178.974591 -304.721574 
L 186.214955 -303.931356 
L 193.455318 -303.051459 
L 200.695682 -302.079723 
L 207.936045 -301.015554 
L 215.176409 -299.86031 
L 222.416773 -298.617652 
L 229.657136 -297.293903 
L 236.8975 -295.898272 
L 244.137864 -294.442924 
L 251.378227 -292.942829 
L 258.618591 -291.415423 
L 265.858955 -289.879935 
L 273.099318 -288.356561 
L 280.339682 -286.865493 
L 287.580045 -285.425854 
L 294.820409 -284.054726 
L 302.060773 -282.766358 
L 309.301136 -281.571598 
L 316.5415 -280.477642 
L 323.781864 -279.488059 
L 331.022227 -278.603083 
L 338.262591 -278.110485 
L 345.502955 -278.110485 
L 352.743318 -278.110485 
L 359.983682 -278.110485 
L 367.224045 -278.110485 
L 374.464409 -278.110485 
L 381.704773 -278.110485 
L 388.945136 -278.110485 
L 396.1855 -278.110485 
L 403.425864 -278.110485 
L 410.666227 -278.110485 
L 417.906591 -278.110485 
L 417.906591 -273.312909 
L 417.906591 -273.312909 
L 410.666227 -273.312909 
L 403.425864 -273.312909 
L 396.1855 -273.312909 
L 388.945136 -273.312909 
L 381.704773 -273.312909 
L 374.464409 -273.312909 
L 367.224045 -273.312909 
L 359.983682 -273.312909 
L 352.743318 -273.312909 
L 345.502955 -273.312909 
L 338.262591 -273.312909 
L 331.022227 -273.312909 
L 323.781864 -273.312909 
L 316.5415 -273.312909 
L 309.301136 -273.312909 
L 302.060773 -273.312909 
L 294.820409 -273.312909 
L 287.580045 -273.312909 
L 280.339682 -273.312909 
L 273.099318 -273.312909 
L 265.858955 -273.312909 
L 258.618591 -273.312909 
L 251.378227 -273.312909 
L 244.137864 -273.312909 
L 236.8975 -273.312909 
L 229.657136 -273.312909 
L 222.416773 -273.312909 
L 215.176409 -273.312909 
L 207.936045 -273.312909 
L 200.695682 -273.312909 
L 193.455318 -273.312909 
L 186.214955 -273.312909 
L 178.974591 -273.312909 
L 171.734227 -273.312909 
L 164.493864 -273.312909 
L 157.2535 -273.312909 
L 150.013136 -273.312909 
L 142.772773 -273.312909 
L 135.532409 -273.312909 
L 128.292045 -273.312909 
L 121.051682 -273.312909 
L 113.811318 -273.312909 
L 106.570955 -273.312909 
L 99.330591 -273.312909 
L 92.090227 -273.312909 
L 84.849864 -273.312909 
L 77.6095 -273.312909 
L 70.369136 -273.312909 
L 63.128773 -273.312909 
L 55.888409 -273.312909 
z
" style="stroke: #dc143c; stroke-opacity: 0.2"/>
    </defs>
    <g clip-path="url(#p2d58c47100)">
     <use xlink:href="#m7319913901" x="0" y="325.85" style="fill: #dc143c; fill-opacity: 0.2; stroke: #dc143c; stroke-opacity: 0.2"/>
    </g>
   </g>
   <g id="PolyCollection_2">
    <defs>
     <path id="m2c4953b74f" d="M 55.888409 -273.312909 
L 55.888409 -285.123089 
L 63.128773 -285.245619 
L 70.369136 -285.34996 
L 77.6095 -285.444535 
L 84.849864 -285.537646 
L 92.090227 -285.637341 
L 99.330591 -285.751374 
L 106.570955 -285.887172 
L 113.811318 -286.051813 
L 121.051682 -286.252106 
L 128.292045 -286.494577 
L 135.532409 -286.785539 
L 142.772773 -287.131121 
L 150.013136 -287.53729 
L 157.2535 -288.009843 
L 164.493864 -288.554359 
L 171.734227 -289.176123 
L 178.974591 -289.880002 
L 186.214955 -290.670219 
L 193.455318 -291.550117 
L 200.695682 -292.521853 
L 207.936045 -293.586021 
L 215.176409 -294.741266 
L 222.416773 -295.983924 
L 229.657136 -297.307673 
L 236.8975 -298.703303 
L 244.137864 -300.158651 
L 251.378227 -301.658747 
L 258.618591 -303.186153 
L 265.858955 -304.721641 
L 273.099318 -306.245015 
L 280.339682 -307.736082 
L 287.580045 -309.175721 
L 294.820409 -310.54685 
L 302.060773 -311.835218 
L 309.301136 -313.029977 
L 316.5415 -314.123933 
L 323.781864 -315.113517 
L 331.022227 -315.998493 
L 338.262591 -316.491091 
L 345.502955 -316.491091 
L 352.743318 -316.491091 
L 359.983682 -316.491091 
L 367.224045 -316.491091 
L 374.464409 -316.491091 
L 381.704773 -316.491091 
L 388.945136 -316.491091 
L 396.1855 -316.491091 
L 403.425864 -316.491091 
L 410.666227 -316.491091 
L 417.906591 -316.491091 
L 417.906591 -273.312909 
L 417.906591 -273.312909 
L 410.666227 -273.312909 
L 403.425864 -273.312909 
L 396.1855 -273.312909 
L 388.945136 -273.312909 
L 381.704773 -273.312909 
L 374.464409 -273.312909 
L 367.224045 -273.312909 
L 359.983682 -273.312909 
L 352.743318 -273.312909 
L 345.502955 -273.312909 
L 338.262591 -273.312909 
L 331.022227 -273.312909 
L 323.781864 -273.312909 
L 316.5415 -273.312909 
L 309.301136 -273.312909 
L 302.060773 -273.312909 
L 294.820409 -273.312909 
L 287.580045 -273.312909 
L 280.339682 -273.312909 
L 273.099318 -273.312909 
L 265.858955 -273.312909 
L 258.618591 -273.312909 
L 251.378227 -273.312909 
L 244.137864 -273.312909 
L 236.8975 -273.312909 
L 229.657136 -273.312909 
L 222.416773 -273.312909 
L 215.176409 -273.312909 
L 207.936045 -273.312909 
L 200.695682 -273.312909 
L 193.455318 -273.312909 
L 186.214955 -273.312909 
L 178.974591 -273.312909 
L 171.734227 -273.312909 
L 164.493864 -273.312909 
L 157.2535 -273.312909 
L 150.013136 -273.312909 
L 142.772773 -273.312909 
L 135.532409 -273.312909 
L 128.292045 -273.312909 
L 121.051682 -273.312909 
L 113.811318 -273.312909 
L 106.570955 -273.312909 
L 99.330591 -273.312909 
L 92.090227 -273.312909 
L 84.849864 -273.312909 
L 77.6095 -273.312909 
L 70.369136 -273.312909 
L 63.128773 -273.312909 
L 55.888409 -273.312909 
z
" style="stroke: #000080; stroke-opacity: 0.2"/>
    </defs>
    <g clip-path="url(#p2d58c47100)">
     <use xlink:href="#m2c4953b74f" x="0" y="325.85" style="fill: #000080; fill-opacity: 0.2; stroke: #000080; stroke-opacity: 0.2"/>
    </g>
   </g>
   <g id="matplotlib.axis_1"/>
   <g id="matplotlib.axis_2"/>
   <g id="line2d_1">
    <path d="M 55.888409 16.371514 
L 63.128773 16.494043 
L 70.369136 16.598385 
L 77.6095 16.692959 
L 84.849864 16.78607 
L 92.090227 16.885765 
L 99.330591 16.999798 
L 106.570955 17.135596 
L 113.811318 17.300237 
L 121.051682 17.50053 
L 128.292045 17.743001 
L 135.532409 18.033963 
L 142.772773 18.379545 
L 150.013136 18.785714 
L 157.2535 19.258268 
L 164.493864 19.802783 
L 171.734227 20.424548 
L 178.974591 21.128426 
L 186.214955 21.918644 
L 193.455318 22.798541 
L 200.695682 23.770277 
L 207.936045 24.834446 
L 215.176409 25.98969 
L 222.416773 27.232348 
L 229.657136 28.556097 
L 236.8975 29.951728 
L 244.137864 31.407076 
L 251.378227 32.907171 
L 258.618591 34.434577 
L 265.858955 35.970065 
L 273.099318 37.493439 
L 280.339682 38.984507 
L 287.580045 40.424146 
L 294.820409 41.795274 
L 302.060773 43.083642 
L 309.301136 44.278402 
L 316.5415 45.372358 
L 323.781864 46.361941 
L 331.022227 47.246917 
L 338.262591 47.739515 
L 345.502955 47.739515 
L 352.743318 47.739515 
L 359.983682 47.739515 
L 367.224045 47.739515 
L 374.464409 47.739515 
L 381.704773 47.739515 
L 388.945136 47.739515 
L 396.1855 47.739515 
L 403.425864 47.739515 
L 410.666227 47.739515 
L 417.906591 47.739515 
" clip-path="url(#p2d58c47100)" style="fill: none; stroke: #dc143c; stroke-width: 1.5; stroke-linecap: square"/>
   </g>
   <g id="line2d_2">
    <path d="M 55.888409 40.726911 
L 63.128773 40.604381 
L 70.369136 40.50004 
L 77.6095 40.405465 
L 84.849864 40.312354 
L 92.090227 40.212659 
L 99.330591 40.098626 
L 106.570955 39.962828 
L 113.811318 39.798187 
L 121.051682 39.597894 
L 128.292045 39.355423 
L 135.532409 39.064461 
L 142.772773 38.718879 
L 150.013136 38.31271 
L 157.2535 37.840157 
L 164.493864 37.295641 
L 171.734227 36.673877 
L 178.974591 35.969998 
L 186.214955 35.179781 
L 193.455318 34.299883 
L 200.695682 33.328147 
L 207.936045 32.263979 
L 215.176409 31.108734 
L 222.416773 29.866076 
L 229.657136 28.542327 
L 236.8975 27.146697 
L 244.137864 25.691349 
L 251.378227 24.191253 
L 258.618591 22.663847 
L 265.858955 21.128359 
L 273.099318 19.604985 
L 280.339682 18.113918 
L 287.580045 16.674279 
L 294.820409 15.30315 
L 302.060773 14.014782 
L 309.301136 12.820023 
L 316.5415 11.726067 
L 323.781864 10.736483 
L 331.022227 9.851507 
L 338.262591 9.358909 
L 345.502955 9.358909 
L 352.743318 9.358909 
L 359.983682 9.358909 
L 367.224045 9.358909 
L 374.464409 9.358909 
L 381.704773 9.358909 
L 388.945136 9.358909 
L 396.1855 9.358909 
L 403.425864 9.358909 
L 410.666227 9.358909 
L 417.906591 9.358909 
" clip-path="url(#p2d58c47100)" style="fill: none; stroke: #000080; stroke-width: 1.5; stroke-linecap: square"/>
   </g>
  </g>
  <g id="axes_2">
   <g id="patch_3">
    <path d="M 37.7875 165.688 
L 436.0075 165.688 
L 436.0075 70.696 
L 37.7875 70.696 
z
" style="fill: #ffffff"/>
   </g>
   <g id="PathCollection_1">
    <defs>
     <path id="m8e29b36f6c" d="M 0 0.866025 
C 0.229673 0.866025 0.449969 0.774776 0.612372 0.612372 
C 0.774776 0.449969 0.866025 0.229673 0.866025 0 
C 0.866025 -0.229673 0.774776 -0.449969 0.612372 -0.612372 
C 0.449969 -0.774776 0.229673 -0.866025 0 -0.866025 
C -0.229673 -0.866025 -0.449969 -0.774776 -0.612372 -0.612372 
C -0.774776 -0.449969 -0.866025 -0.229673 -0.866025 0 
C -0.866025 0.229673 -0.774776 0.449969 -0.612372 0.612372 
C -0.449969 0.774776 -0.229673 0.866025 0 0.866025 
z
" style="stroke: #daa520"/>
    </defs>
    <g clip-path="url(#p294d98b899)">
     <use xlink:href="#m8e29b36f6c" x="89.890642" y="100.578913" style="fill: #daa520; stroke: #daa520"/>
     <use xlink:href="#m8e29b36f6c" x="377.799742" y="84.059207" style="fill: #daa520; stroke: #daa520"/>
     <use xlink:href="#m8e29b36f6c" x="124.04858" y="133.11966" style="fill: #daa520; stroke: #daa520"/>
     <use xlink:href="#m8e29b36f6c" x="134.085907" y="89.606538" style="fill: #daa520; stroke: #daa520"/>
     <use xlink:href="#m8e29b36f6c" x="92.365656" y="94.476567" style="fill: #daa520; stroke: #daa520"/>
     <use xlink:href="#m8e29b36f6c" x="238.411298" y="125.171091" style="fill: #daa520; stroke: #daa520"/>
     <use xlink:href="#m8e29b36f6c" x="331.57176" y="104.076395" style="fill: #daa520; stroke: #daa520"/>
     <use xlink:href="#m8e29b36f6c" x="261.248792" y="104.53766" style="fill: #daa520; stroke: #daa520"/>
     <use xlink:href="#m8e29b36f6c" x="218.013248" y="119.9794" style="fill: #daa520; stroke: #daa520"/>
     <use xlink:href="#m8e29b36f6c" x="297.366476" y="97.484093" style="fill: #daa520; stroke: #daa520"/>
     <use xlink:href="#m8e29b36f6c" x="114.645393" y="139.265528" style="fill: #daa520; stroke: #daa520"/>
     <use xlink:href="#m8e29b36f6c" x="91.006026" y="75.013818" style="fill: #daa520; stroke: #daa520"/>
     <use xlink:href="#m8e29b36f6c" x="113.521874" y="96.017789" style="fill: #daa520; stroke: #daa520"/>
     <use xlink:href="#m8e29b36f6c" x="94.564415" y="84.80953" style="fill: #daa520; stroke: #daa520"/>
     <use xlink:href="#m8e29b36f6c" x="211.600745" y="119.756641" style="fill: #daa520; stroke: #daa520"/>
     <use xlink:href="#m8e29b36f6c" x="281.581167" y="92.621147" style="fill: #daa520; stroke: #daa520"/>
     <use xlink:href="#m8e29b36f6c" x="71.52201" y="100.112536" style="fill: #daa520; stroke: #daa520"/>
     <use xlink:href="#m8e29b36f6c" x="295.000128" y="96.303219" style="fill: #daa520; stroke: #daa520"/>
     <use xlink:href="#m8e29b36f6c" x="210.835175" y="121.309851" style="fill: #daa520; stroke: #daa520"/>
     <use xlink:href="#m8e29b36f6c" x="83.355334" y="159.457065" style="fill: #daa520; stroke: #daa520"/>
     <use xlink:href="#m8e29b36f6c" x="210.830679" y="120.617308" style="fill: #daa520; stroke: #daa520"/>
     <use xlink:href="#m8e29b36f6c" x="238.610848" y="112.925564" style="fill: #daa520; stroke: #daa520"/>
     <use xlink:href="#m8e29b36f6c" x="314.888489" y="129.718884" style="fill: #daa520; stroke: #daa520"/>
     <use xlink:href="#m8e29b36f6c" x="160.66091" y="126.232056" style="fill: #daa520; stroke: #daa520"/>
     <use xlink:href="#m8e29b36f6c" x="344.51328" y="107.293458" style="fill: #daa520; stroke: #daa520"/>
     <use xlink:href="#m8e29b36f6c" x="255.116497" y="103.019118" style="fill: #daa520; stroke: #daa520"/>
     <use xlink:href="#m8e29b36f6c" x="385.202751" y="85.708528" style="fill: #daa520; stroke: #daa520"/>
     <use xlink:href="#m8e29b36f6c" x="160.775356" y="126.625775" style="fill: #daa520; stroke: #daa520"/>
     <use xlink:href="#m8e29b36f6c" x="209.594609" y="119.131718" style="fill: #daa520; stroke: #daa520"/>
     <use xlink:href="#m8e29b36f6c" x="193.453381" y="126.383069" style="fill: #daa520; stroke: #daa520"/>
     <use xlink:href="#m8e29b36f6c" x="150.957733" y="125.599398" style="fill: #daa520; stroke: #daa520"/>
     <use xlink:href="#m8e29b36f6c" x="287.203082" y="121.0295" style="fill: #daa520; stroke: #daa520"/>
     <use xlink:href="#m8e29b36f6c" x="171.52159" y="125.823021" style="fill: #daa520; stroke: #daa520"/>
     <use xlink:href="#m8e29b36f6c" x="226.233267" y="116.721573" style="fill: #daa520; stroke: #daa520"/>
     <use xlink:href="#m8e29b36f6c" x="121.903639" y="78.74585" style="fill: #daa520; stroke: #daa520"/>
     <use xlink:href="#m8e29b36f6c" x="163.514871" y="127.996097" style="fill: #daa520; stroke: #daa520"/>
     <use xlink:href="#m8e29b36f6c" x="95.64803" y="80.617268" style="fill: #daa520; stroke: #daa520"/>
     <use xlink:href="#m8e29b36f6c" x="231.264365" y="109.90348" style="fill: #daa520; stroke: #daa520"/>
     <use xlink:href="#m8e29b36f6c" x="198.304063" y="122.618814" style="fill: #daa520; stroke: #daa520"/>
     <use xlink:href="#m8e29b36f6c" x="336.856054" y="131.94369" style="fill: #daa520; stroke: #daa520"/>
     <use xlink:href="#m8e29b36f6c" x="137.146388" y="98.218134" style="fill: #daa520; stroke: #daa520"/>
     <use xlink:href="#m8e29b36f6c" x="98.931709" y="111.359666" style="fill: #daa520; stroke: #daa520"/>
     <use xlink:href="#m8e29b36f6c" x="65.821366" y="149.75933" style="fill: #daa520; stroke: #daa520"/>
     <use xlink:href="#m8e29b36f6c" x="100.839959" y="95.716562" style="fill: #daa520; stroke: #daa520"/>
     <use xlink:href="#m8e29b36f6c" x="237.60233" y="125.146357" style="fill: #daa520; stroke: #daa520"/>
     <use xlink:href="#m8e29b36f6c" x="237.800493" y="110.436115" style="fill: #daa520; stroke: #daa520"/>
     <use xlink:href="#m8e29b36f6c" x="175.254967" y="113.109854" style="fill: #daa520; stroke: #daa520"/>
     <use xlink:href="#m8e29b36f6c" x="207.230047" y="119.17922" style="fill: #daa520; stroke: #daa520"/>
     <use xlink:href="#m8e29b36f6c" x="212.031912" y="113.008196" style="fill: #daa520; stroke: #daa520"/>
     <use xlink:href="#m8e29b36f6c" x="148.352149" y="112.644901" style="fill: #daa520; stroke: #daa520"/>
     <use xlink:href="#m8e29b36f6c" x="177.44024" y="123.883157" style="fill: #daa520; stroke: #daa520"/>
     <use xlink:href="#m8e29b36f6c" x="139.75227" y="92.10897" style="fill: #daa520; stroke: #daa520"/>
     <use xlink:href="#m8e29b36f6c" x="138.1639" y="97.642324" style="fill: #daa520; stroke: #daa520"/>
     <use xlink:href="#m8e29b36f6c" x="72.401321" y="94.066507" style="fill: #daa520; stroke: #daa520"/>
     <use xlink:href="#m8e29b36f6c" x="265.803555" y="90.420339" style="fill: #daa520; stroke: #daa520"/>
     <use xlink:href="#m8e29b36f6c" x="60.919481" y="116.591675" style="fill: #daa520; stroke: #daa520"/>
     <use xlink:href="#m8e29b36f6c" x="189.868586" y="121.290652" style="fill: #daa520; stroke: #daa520"/>
     <use xlink:href="#m8e29b36f6c" x="109.819823" y="135.097605" style="fill: #daa520; stroke: #daa520"/>
     <use xlink:href="#m8e29b36f6c" x="175.552631" y="128.630919" style="fill: #daa520; stroke: #daa520"/>
     <use xlink:href="#m8e29b36f6c" x="289.981454" y="99.816399" style="fill: #daa520; stroke: #daa520"/>
     <use xlink:href="#m8e29b36f6c" x="140.101157" y="125.038658" style="fill: #daa520; stroke: #daa520"/>
     <use xlink:href="#m8e29b36f6c" x="194.74648" y="124.277957" style="fill: #daa520; stroke: #daa520"/>
     <use xlink:href="#m8e29b36f6c" x="101.221568" y="127.086042" style="fill: #daa520; stroke: #daa520"/>
     <use xlink:href="#m8e29b36f6c" x="163.969216" y="119.208131" style="fill: #daa520; stroke: #daa520"/>
     <use xlink:href="#m8e29b36f6c" x="208.819311" y="120.700974" style="fill: #daa520; stroke: #daa520"/>
     <use xlink:href="#m8e29b36f6c" x="67.296205" y="106.361687" style="fill: #daa520; stroke: #daa520"/>
     <use xlink:href="#m8e29b36f6c" x="124.476093" y="95.621761" style="fill: #daa520; stroke: #daa520"/>
     <use xlink:href="#m8e29b36f6c" x="228.489588" y="121.86101" style="fill: #daa520; stroke: #daa520"/>
     <use xlink:href="#m8e29b36f6c" x="255.032977" y="129.567721" style="fill: #daa520; stroke: #daa520"/>
     <use xlink:href="#m8e29b36f6c" x="145.30114" y="124.688366" style="fill: #daa520; stroke: #daa520"/>
     <use xlink:href="#m8e29b36f6c" x="190.079626" y="109.314755" style="fill: #daa520; stroke: #daa520"/>
     <use xlink:href="#m8e29b36f6c" x="99.312915" y="141.950293" style="fill: #daa520; stroke: #daa520"/>
     <use xlink:href="#m8e29b36f6c" x="123.331949" y="100.499097" style="fill: #daa520; stroke: #daa520"/>
     <use xlink:href="#m8e29b36f6c" x="304.291429" y="94.820179" style="fill: #daa520; stroke: #daa520"/>
     <use xlink:href="#m8e29b36f6c" x="251.813007" y="129.281813" style="fill: #daa520; stroke: #daa520"/>
     <use xlink:href="#m8e29b36f6c" x="163.908122" y="109.64046" style="fill: #daa520; stroke: #daa520"/>
     <use xlink:href="#m8e29b36f6c" x="68.862043" y="119.596726" style="fill: #daa520; stroke: #daa520"/>
     <use xlink:href="#m8e29b36f6c" x="183.043404" y="128.699872" style="fill: #daa520; stroke: #daa520"/>
     <use xlink:href="#m8e29b36f6c" x="217.263415" y="116.56012" style="fill: #daa520; stroke: #daa520"/>
     <use xlink:href="#m8e29b36f6c" x="301.126859" y="97.748963" style="fill: #daa520; stroke: #daa520"/>
     <use xlink:href="#m8e29b36f6c" x="165.546273" y="117.047816" style="fill: #daa520; stroke: #daa520"/>
     <use xlink:href="#m8e29b36f6c" x="160.965298" y="123.361631" style="fill: #daa520; stroke: #daa520"/>
     <use xlink:href="#m8e29b36f6c" x="272.540407" y="95.589348" style="fill: #daa520; stroke: #daa520"/>
     <use xlink:href="#m8e29b36f6c" x="88.393345" y="94.965522" style="fill: #daa520; stroke: #daa520"/>
     <use xlink:href="#m8e29b36f6c" x="139.811981" y="101.26589" style="fill: #daa520; stroke: #daa520"/>
     <use xlink:href="#m8e29b36f6c" x="186.835786" y="122.014109" style="fill: #daa520; stroke: #daa520"/>
     <use xlink:href="#m8e29b36f6c" x="151.275712" y="108.645711" style="fill: #daa520; stroke: #daa520"/>
     <use xlink:href="#m8e29b36f6c" x="65.369158" y="84.482218" style="fill: #daa520; stroke: #daa520"/>
     <use xlink:href="#m8e29b36f6c" x="283.663954" y="92.547677" style="fill: #daa520; stroke: #daa520"/>
     <use xlink:href="#m8e29b36f6c" x="264.920606" y="131.522068" style="fill: #daa520; stroke: #daa520"/>
     <use xlink:href="#m8e29b36f6c" x="268.532393" y="131.115403" style="fill: #daa520; stroke: #daa520"/>
     <use xlink:href="#m8e29b36f6c" x="86.805226" y="75.459097" style="fill: #daa520; stroke: #daa520"/>
     <use xlink:href="#m8e29b36f6c" x="206.830276" y="122.870399" style="fill: #daa520; stroke: #daa520"/>
     <use xlink:href="#m8e29b36f6c" x="106.725172" y="123.08514" style="fill: #daa520; stroke: #daa520"/>
     <use xlink:href="#m8e29b36f6c" x="94.855993" y="89.088112" style="fill: #daa520; stroke: #daa520"/>
     <use xlink:href="#m8e29b36f6c" x="80.375941" y="161.370182" style="fill: #daa520; stroke: #daa520"/>
     <use xlink:href="#m8e29b36f6c" x="182.401265" y="111.405043" style="fill: #daa520; stroke: #daa520"/>
     <use xlink:href="#m8e29b36f6c" x="163.023772" y="123.815659" style="fill: #daa520; stroke: #daa520"/>
     <use xlink:href="#m8e29b36f6c" x="63.962466" y="136.382269" style="fill: #daa520; stroke: #daa520"/>
    </g>
   </g>
   <g id="matplotlib.axis_3"/>
   <g id="matplotlib.axis_4">
    <g id="ytick_1">
     <g id="line2d_3">
      <defs>
       <path id="m627ccade11" d="M 0 0 
L -3.5 0 
" style="stroke: #696969; stroke-width: 0.8"/>
      </defs>
      <g>
       <use xlink:href="#m627ccade11" x="37.7875" y="143.90446" style="fill: #696969; stroke: #696969; stroke-width: 0.8"/>
      </g>
     </g>
     <g id="text_1">
      <!-- −5 -->
      <g style="fill: #696969" transform="translate(7.2 149.98321) scale(0.16 -0.16)">
       <defs>
        <path id="DejaVuSans-2212" d="M 678 2272 
L 4684 2272 
L 4684 1741 
L 678 1741 
L 678 2272 
z
" transform="scale(0.015625)"/>
        <path id="DejaVuSans-35" d="M 691 4666 
L 3169 4666 
L 3169 4134 
L 1269 4134 
L 1269 2991 
Q 1406 3038 1543 3061 
Q 1681 3084 1819 3084 
Q 2600 3084 3056 2656 
Q 3513 2228 3513 1497 
Q 3513 744 3044 326 
Q 2575 -91 1722 -91 
Q 1428 -91 1123 -41 
Q 819 9 494 109 
L 494 744 
Q 775 591 1075 516 
Q 1375 441 1709 441 
Q 2250 441 2565 725 
Q 2881 1009 2881 1497 
Q 2881 1984 2565 2268 
Q 2250 2553 1709 2553 
Q 1456 2553 1204 2497 
Q 953 2441 691 2322 
L 691 4666 
z
" transform="scale(0.015625)"/>
       </defs>
       <use xlink:href="#DejaVuSans-2212"/>
       <use xlink:href="#DejaVuSans-35" x="83.789062"/>
      </g>
     </g>
    </g>
    <g id="ytick_2">
     <g id="line2d_4">
      <g>
       <use xlink:href="#m627ccade11" x="37.7875" y="114.999474" style="fill: #696969; stroke: #696969; stroke-width: 0.8"/>
      </g>
     </g>
     <g id="text_2">
      <!-- 0 -->
      <g style="fill: #696969" transform="translate(20.6075 121.078224) scale(0.16 -0.16)">
       <defs>
        <path id="DejaVuSans-30" d="M 2034 4250 
Q 1547 4250 1301 3770 
Q 1056 3291 1056 2328 
Q 1056 1369 1301 889 
Q 1547 409 2034 409 
Q 2525 409 2770 889 
Q 3016 1369 3016 2328 
Q 3016 3291 2770 3770 
Q 2525 4250 2034 4250 
z
M 2034 4750 
Q 2819 4750 3233 4129 
Q 3647 3509 3647 2328 
Q 3647 1150 3233 529 
Q 2819 -91 2034 -91 
Q 1250 -91 836 529 
Q 422 1150 422 2328 
Q 422 3509 836 4129 
Q 1250 4750 2034 4750 
z
" transform="scale(0.015625)"/>
       </defs>
       <use xlink:href="#DejaVuSans-30"/>
      </g>
     </g>
    </g>
    <g id="ytick_3">
     <g id="line2d_5">
      <g>
       <use xlink:href="#m627ccade11" x="37.7875" y="86.094487" style="fill: #696969; stroke: #696969; stroke-width: 0.8"/>
      </g>
     </g>
     <g id="text_3">
      <!-- 5 -->
      <g style="fill: #696969" transform="translate(20.6075 92.173237) scale(0.16 -0.16)">
       <use xlink:href="#DejaVuSans-35"/>
      </g>
     </g>
    </g>
   </g>
   <g id="line2d_6">
    <path d="M 55.888409 132.072047 
L 63.128773 129.266376 
L 70.369136 125.40155 
L 77.6095 120.939014 
L 84.849864 116.478098 
L 92.090227 112.608505 
L 99.330591 109.753136 
L 106.570955 108.061141 
L 113.811318 107.402381 
L 121.051682 107.473225 
L 128.292045 107.965856 
L 135.532409 108.713415 
L 142.772773 109.732095 
L 150.013136 111.139361 
L 157.2535 113.001394 
L 164.493864 115.205083 
L 171.734227 117.433644 
L 178.974591 119.262085 
L 186.214955 120.320604 
L 193.455318 120.440578 
L 200.695682 119.713191 
L 207.936045 118.438715 
L 215.176409 116.996217 
L 222.416773 115.695476 
L 229.657136 114.675344 
L 236.8975 113.888143 
L 244.137864 113.168831 
L 251.378227 112.348263 
L 258.618591 111.351344 
L 265.858955 110.233676 
L 273.099318 109.147945 
L 280.339682 108.270625 
L 287.580045 107.736644 
L 294.820409 107.614833 
L 302.060773 107.923036 
L 309.301136 108.653254 
L 316.5415 109.774225 
L 323.781864 111.202416 
L 331.022227 112.765182 
L 338.262591 114.197127 
L 345.502955 115.198263 
L 352.743318 115.544546 
L 359.983682 115.200232 
L 367.224045 114.364929 
L 374.464409 113.412678 
L 381.704773 112.737221 
L 388.945136 112.574941 
L 396.1855 112.896657 
L 403.425864 113.425547 
L 410.666227 113.770064 
L 417.906591 113.600454 
" clip-path="url(#p294d98b899)" style="fill: none; stroke: #000000; stroke-width: 2; stroke-linecap: square"/>
   </g>
   <g id="line2d_7">
    <path d="M 55.888409 114.485612 
L 63.128773 112.772505 
L 70.369136 111.497149 
L 77.6095 110.610896 
L 84.849864 110.067188 
L 92.090227 109.821559 
L 99.330591 109.831636 
L 106.570955 110.057137 
L 113.811318 110.459873 
L 121.051682 111.003746 
L 128.292045 111.654751 
L 135.532409 112.380973 
L 142.772773 113.152591 
L 150.013136 113.941875 
L 157.2535 114.723188 
L 164.493864 115.472983 
L 171.734227 116.169807 
L 178.974591 116.794297 
L 186.214955 117.329183 
L 193.455318 117.759289 
L 200.695682 118.071526 
L 207.936045 118.254902 
L 215.176409 118.300514 
L 222.416773 118.201552 
L 229.657136 117.953298 
L 236.8975 117.553125 
L 244.137864 117.000499 
L 251.378227 116.296977 
L 258.618591 115.44621 
L 265.858955 114.453939 
L 273.099318 113.327997 
L 280.339682 112.07831 
L 287.580045 110.716894 
L 294.820409 109.257861 
L 302.060773 107.71741 
L 309.301136 106.113836 
L 316.5415 104.467522 
L 323.781864 102.800948 
L 331.022227 101.138681 
L 338.262591 99.507383 
L 345.502955 97.935808 
L 352.743318 96.454799 
L 359.983682 95.097294 
L 367.224045 93.898323 
L 374.464409 92.895005 
L 381.704773 92.126554 
L 388.945136 91.634275 
L 396.1855 91.461564 
L 403.425864 91.65391 
L 410.666227 92.258895 
L 417.906591 93.32619 
" clip-path="url(#p294d98b899)" style="fill: none; stroke-dasharray: 7.4,3.2; stroke-dashoffset: 0; stroke: #34b6c6; stroke-width: 2"/>
   </g>
   <g id="line2d_8">
    <path d="M 55.888409 117.718403 
L 63.128773 118.469868 
L 70.369136 116.735801 
L 77.6095 112.675138 
L 84.849864 108.809818 
L 92.090227 106.506746 
L 99.330591 105.646984 
L 106.570955 105.69226 
L 113.811318 106.16486 
L 121.051682 106.821513 
L 128.292045 107.603611 
L 135.532409 108.596423 
L 142.772773 110.024067 
L 150.013136 112.110338 
L 157.2535 114.884364 
L 164.493864 118.198553 
L 171.734227 121.034286 
L 178.974591 122.559355 
L 186.214955 123.12222 
L 193.455318 123.107012 
L 200.695682 122.57317 
L 207.936045 121.429525 
L 215.176409 119.767154 
L 222.416773 118.036493 
L 229.657136 116.603066 
L 236.8975 115.451881 
L 244.137864 114.388535 
L 251.378227 113.196037 
L 258.618591 111.712892 
L 265.858955 109.984074 
L 273.099318 108.315814 
L 280.339682 107.000894 
L 287.580045 106.103512 
L 294.820409 105.591551 
L 302.060773 105.537241 
L 309.301136 106.097578 
L 316.5415 106.963236 
L 323.781864 107.332266 
L 331.022227 106.995465 
L 338.262591 106.178324 
L 345.502955 105.056672 
L 352.743318 103.710748 
L 359.983682 102.171314 
L 367.224045 100.446552 
L 374.464409 98.533763 
L 381.704773 96.424455 
L 388.945136 94.106722 
L 396.1855 91.566423 
L 403.425864 88.787811 
L 410.666227 85.753887 
L 417.906591 82.446593 
" clip-path="url(#p294d98b899)" style="fill: none; stroke-dasharray: 7.4,3.2; stroke-dashoffset: 0; stroke: #9370db; stroke-width: 2"/>
   </g>
   <g id="line2d_9">
    <path d="M 55.888409 129.649973 
L 63.128773 128.29753 
L 70.369136 124.948186 
L 77.6095 119.728054 
L 84.849864 114.861842 
L 92.090227 111.549455 
L 99.330591 109.672307 
L 106.570955 108.740181 
L 113.811318 108.317294 
L 121.051682 108.176673 
L 128.292045 108.255962 
L 135.532409 108.621209 
L 142.772773 109.462403 
L 150.013136 110.969913 
L 157.2535 113.161948 
L 164.493864 115.900485 
L 171.734227 118.274854 
L 178.974591 119.54055 
L 186.214955 120.001963 
L 193.455318 119.995816 
L 200.695682 119.571232 
L 207.936045 118.64429 
L 215.176409 117.293535 
L 222.416773 115.917232 
L 229.657136 114.838921 
L 236.8975 114.044983 
L 244.137864 113.363177 
L 251.378227 112.60188 
L 258.618591 111.619406 
L 265.858955 110.458042 
L 273.099318 109.392695 
L 280.339682 108.686997 
L 287.580045 108.402307 
L 294.820409 108.51514 
L 302.060773 109.095322 
L 309.301136 110.288602 
L 316.5415 111.827385 
L 323.781864 113.007381 
L 331.022227 113.651224 
L 338.262591 113.968143 
L 345.502955 114.123947 
L 352.743318 114.200244 
L 359.983682 114.23538 
L 367.224045 114.248327 
L 374.464409 114.249058 
L 381.704773 114.243075 
L 388.945136 114.233515 
L 396.1855 114.222198 
L 403.425864 114.210186 
L 410.666227 114.198096 
L 417.906591 114.186274 
" clip-path="url(#p294d98b899)" style="fill: none; stroke-dasharray: 12.8,3.2,2,3.2; stroke-dashoffset: 0; stroke: #ff0000; stroke-width: 2"/>
   </g>
   <g id="patch_4">
    <path d="M 37.7875 165.688 
L 37.7875 70.696 
" style="fill: none; stroke: #000000; stroke-width: 0.8; stroke-linejoin: miter; stroke-linecap: square"/>
   </g>
   <g id="patch_5">
    <path d="M 436.0075 165.688 
L 436.0075 70.696 
" style="fill: none; stroke: #000000; stroke-width: 0.8; stroke-linejoin: miter; stroke-linecap: square"/>
   </g>
   <g id="patch_6">
    <path d="M 37.7875 165.688 
L 436.0075 165.688 
" style="fill: none; stroke: #000000; stroke-width: 0.8; stroke-linejoin: miter; stroke-linecap: square"/>
   </g>
   <g id="patch_7">
    <path d="M 37.7875 70.696 
L 436.0075 70.696 
" style="fill: none; stroke: #000000; stroke-width: 0.8; stroke-linejoin: miter; stroke-linecap: square"/>
   </g>
  </g>
  <g id="axes_3">
   <g id="patch_8">
    <path d="M 37.7875 276.68 
L 436.0075 276.68 
L 436.0075 181.688 
L 37.7875 181.688 
z
" style="fill: #ffffff"/>
   </g>
   <g id="PathCollection_2">
    <g clip-path="url(#peda9da8fee)">
     <use xlink:href="#m8e29b36f6c" x="89.890642" y="241.268012" style="fill: #daa520; stroke: #daa520"/>
     <use xlink:href="#m8e29b36f6c" x="377.799742" y="259.565483" style="fill: #daa520; stroke: #daa520"/>
     <use xlink:href="#m8e29b36f6c" x="124.04858" y="204.689447" style="fill: #daa520; stroke: #daa520"/>
     <use xlink:href="#m8e29b36f6c" x="134.085907" y="248.340016" style="fill: #daa520; stroke: #daa520"/>
     <use xlink:href="#m8e29b36f6c" x="92.365656" y="246.415406" style="fill: #daa520; stroke: #daa520"/>
     <use xlink:href="#m8e29b36f6c" x="238.411298" y="218.293894" style="fill: #daa520; stroke: #daa520"/>
     <use xlink:href="#m8e29b36f6c" x="331.57176" y="239.078501" style="fill: #daa520; stroke: #daa520"/>
     <use xlink:href="#m8e29b36f6c" x="261.248792" y="236.153974" style="fill: #daa520; stroke: #daa520"/>
     <use xlink:href="#m8e29b36f6c" x="218.013248" y="226.281592" style="fill: #daa520; stroke: #daa520"/>
     <use xlink:href="#m8e29b36f6c" x="297.366476" y="240.637314" style="fill: #daa520; stroke: #daa520"/>
     <use xlink:href="#m8e29b36f6c" x="114.645393" y="198.678061" style="fill: #daa520; stroke: #daa520"/>
     <use xlink:href="#m8e29b36f6c" x="91.006026" y="266.277717" style="fill: #daa520; stroke: #daa520"/>
     <use xlink:href="#m8e29b36f6c" x="113.521874" y="241.768769" style="fill: #daa520; stroke: #daa520"/>
     <use xlink:href="#m8e29b36f6c" x="94.564415" y="255.355997" style="fill: #daa520; stroke: #daa520"/>
     <use xlink:href="#m8e29b36f6c" x="211.600745" y="227.75941" style="fill: #daa520; stroke: #daa520"/>
     <use xlink:href="#m8e29b36f6c" x="281.581167" y="245.429895" style="fill: #daa520; stroke: #daa520"/>
     <use xlink:href="#m8e29b36f6c" x="71.52201" y="253.487476" style="fill: #daa520; stroke: #daa520"/>
     <use xlink:href="#m8e29b36f6c" x="295.000128" y="241.679116" style="fill: #daa520; stroke: #daa520"/>
     <use xlink:href="#m8e29b36f6c" x="210.835175" y="226.356031" style="fill: #daa520; stroke: #daa520"/>
     <use xlink:href="#m8e29b36f6c" x="83.355334" y="186.005818" style="fill: #daa520; stroke: #daa520"/>
     <use xlink:href="#m8e29b36f6c" x="210.830679" y="227.04627" style="fill: #daa520; stroke: #daa520"/>
     <use xlink:href="#m8e29b36f6c" x="238.610848" y="230.465224" style="fill: #daa520; stroke: #daa520"/>
     <use xlink:href="#m8e29b36f6c" x="314.888489" y="211.36336" style="fill: #daa520; stroke: #daa520"/>
     <use xlink:href="#m8e29b36f6c" x="160.66091" y="217.750389" style="fill: #daa520; stroke: #daa520"/>
     <use xlink:href="#m8e29b36f6c" x="344.51328" y="236.298622" style="fill: #daa520; stroke: #daa520"/>
     <use xlink:href="#m8e29b36f6c" x="255.116497" y="238.579789" style="fill: #daa520; stroke: #daa520"/>
     <use xlink:href="#m8e29b36f6c" x="385.202751" y="257.915522" style="fill: #daa520; stroke: #daa520"/>
     <use xlink:href="#m8e29b36f6c" x="160.775356" y="217.402129" style="fill: #daa520; stroke: #daa520"/>
     <use xlink:href="#m8e29b36f6c" x="209.594609" y="228.748005" style="fill: #daa520; stroke: #daa520"/>
     <use xlink:href="#m8e29b36f6c" x="193.453381" y="223.156044" style="fill: #daa520; stroke: #daa520"/>
     <use xlink:href="#m8e29b36f6c" x="150.957733" y="215.197666" style="fill: #daa520; stroke: #daa520"/>
     <use xlink:href="#m8e29b36f6c" x="287.203082" y="216.949224" style="fill: #daa520; stroke: #daa520"/>
     <use xlink:href="#m8e29b36f6c" x="171.52159" y="221.946369" style="fill: #daa520; stroke: #daa520"/>
     <use xlink:href="#m8e29b36f6c" x="226.233267" y="228.105266" style="fill: #daa520; stroke: #daa520"/>
     <use xlink:href="#m8e29b36f6c" x="121.903639" y="258.809834" style="fill: #daa520; stroke: #daa520"/>
     <use xlink:href="#m8e29b36f6c" x="163.514871" y="217.097016" style="fill: #daa520; stroke: #daa520"/>
     <use xlink:href="#m8e29b36f6c" x="95.64803" y="259.237504" style="fill: #daa520; stroke: #daa520"/>
     <use xlink:href="#m8e29b36f6c" x="231.264365" y="234.232645" style="fill: #daa520; stroke: #daa520"/>
     <use xlink:href="#m8e29b36f6c" x="198.304063" y="226.671285" style="fill: #daa520; stroke: #daa520"/>
     <use xlink:href="#m8e29b36f6c" x="336.856054" y="211.575074" style="fill: #daa520; stroke: #daa520"/>
     <use xlink:href="#m8e29b36f6c" x="137.146388" y="240.007542" style="fill: #daa520; stroke: #daa520"/>
     <use xlink:href="#m8e29b36f6c" x="98.931709" y="227.908277" style="fill: #daa520; stroke: #daa520"/>
     <use xlink:href="#m8e29b36f6c" x="65.821366" y="207.197773" style="fill: #daa520; stroke: #daa520"/>
     <use xlink:href="#m8e29b36f6c" x="100.839959" y="243.153128" style="fill: #daa520; stroke: #daa520"/>
     <use xlink:href="#m8e29b36f6c" x="237.60233" y="218.395329" style="fill: #daa520; stroke: #daa520"/>
     <use xlink:href="#m8e29b36f6c" x="237.800493" y="233.020111" style="fill: #daa520; stroke: #daa520"/>
     <use xlink:href="#m8e29b36f6c" x="175.254967" y="235.399948" style="fill: #daa520; stroke: #daa520"/>
     <use xlink:href="#m8e29b36f6c" x="207.230047" y="229.094405" style="fill: #daa520; stroke: #daa520"/>
     <use xlink:href="#m8e29b36f6c" x="212.031912" y="234.395547" style="fill: #daa520; stroke: #daa520"/>
     <use xlink:href="#m8e29b36f6c" x="148.352149" y="227.441189" style="fill: #daa520; stroke: #daa520"/>
     <use xlink:href="#m8e29b36f6c" x="177.44024" y="225.00783" style="fill: #daa520; stroke: #daa520"/>
     <use xlink:href="#m8e29b36f6c" x="139.75227" y="246.367066" style="fill: #daa520; stroke: #daa520"/>
     <use xlink:href="#m8e29b36f6c" x="138.1639" y="240.68052" style="fill: #daa520; stroke: #daa520"/>
     <use xlink:href="#m8e29b36f6c" x="72.401321" y="258.903007" style="fill: #daa520; stroke: #daa520"/>
     <use xlink:href="#m8e29b36f6c" x="265.803555" y="249.470317" style="fill: #daa520; stroke: #daa520"/>
     <use xlink:href="#m8e29b36f6c" x="60.919481" y="241.732339" style="fill: #daa520; stroke: #daa520"/>
     <use xlink:href="#m8e29b36f6c" x="189.868586" y="228.277949" style="fill: #daa520; stroke: #daa520"/>
     <use xlink:href="#m8e29b36f6c" x="109.819823" y="203.042691" style="fill: #daa520; stroke: #daa520"/>
     <use xlink:href="#m8e29b36f6c" x="175.552631" y="219.999757" style="fill: #daa520; stroke: #daa520"/>
     <use xlink:href="#m8e29b36f6c" x="289.981454" y="238.054493" style="fill: #daa520; stroke: #daa520"/>
     <use xlink:href="#m8e29b36f6c" x="140.101157" y="213.629372" style="fill: #daa520; stroke: #daa520"/>
     <use xlink:href="#m8e29b36f6c" x="194.74648" y="225.208676" style="fill: #daa520; stroke: #daa520"/>
     <use xlink:href="#m8e29b36f6c" x="101.221568" y="211.867232" style="fill: #daa520; stroke: #daa520"/>
     <use xlink:href="#m8e29b36f6c" x="163.969216" y="226.020548" style="fill: #daa520; stroke: #daa520"/>
     <use xlink:href="#m8e29b36f6c" x="208.819311" y="227.320027" style="fill: #daa520; stroke: #daa520"/>
     <use xlink:href="#m8e29b36f6c" x="67.296205" y="249.735282" style="fill: #daa520; stroke: #daa520"/>
     <use xlink:href="#m8e29b36f6c" x="124.476093" y="242.021471" style="fill: #daa520; stroke: #daa520"/>
     <use xlink:href="#m8e29b36f6c" x="228.489588" y="222.674528" style="fill: #daa520; stroke: #daa520"/>
     <use xlink:href="#m8e29b36f6c" x="255.032977" y="212.162613" style="fill: #daa520; stroke: #daa520"/>
     <use xlink:href="#m8e29b36f6c" x="145.30114" y="214.801734" style="fill: #daa520; stroke: #daa520"/>
     <use xlink:href="#m8e29b36f6c" x="190.079626" y="240.199235" style="fill: #daa520; stroke: #daa520"/>
     <use xlink:href="#m8e29b36f6c" x="99.312915" y="197.385585" style="fill: #daa520; stroke: #daa520"/>
     <use xlink:href="#m8e29b36f6c" x="123.331949" y="237.157857" style="fill: #daa520; stroke: #daa520"/>
     <use xlink:href="#m8e29b36f6c" x="304.291429" y="244.023554" style="fill: #daa520; stroke: #daa520"/>
     <use xlink:href="#m8e29b36f6c" x="251.813007" y="212.85815" style="fill: #daa520; stroke: #daa520"/>
     <use xlink:href="#m8e29b36f6c" x="163.908122" y="235.521415" style="fill: #daa520; stroke: #daa520"/>
     <use xlink:href="#m8e29b36f6c" x="68.862043" y="235.739411" style="fill: #daa520; stroke: #daa520"/>
     <use xlink:href="#m8e29b36f6c" x="183.043404" y="220.724376" style="fill: #daa520; stroke: #daa520"/>
     <use xlink:href="#m8e29b36f6c" x="217.263415" y="229.831759" style="fill: #daa520; stroke: #daa520"/>
     <use xlink:href="#m8e29b36f6c" x="301.126859" y="240.702675" style="fill: #daa520; stroke: #daa520"/>
     <use xlink:href="#m8e29b36f6c" x="165.546273" y="228.769082" style="fill: #daa520; stroke: #daa520"/>
     <use xlink:href="#m8e29b36f6c" x="160.965298" y="220.724177" style="fill: #daa520; stroke: #daa520"/>
     <use xlink:href="#m8e29b36f6c" x="272.540407" y="243.326522" style="fill: #daa520; stroke: #daa520"/>
     <use xlink:href="#m8e29b36f6c" x="88.393345" y="247.505023" style="fill: #daa520; stroke: #daa520"/>
     <use xlink:href="#m8e29b36f6c" x="139.811981" y="237.258831" style="fill: #daa520; stroke: #daa520"/>
     <use xlink:href="#m8e29b36f6c" x="186.835786" y="227.526625" style="fill: #daa520; stroke: #daa520"/>
     <use xlink:href="#m8e29b36f6c" x="151.275712" y="232.160246" style="fill: #daa520; stroke: #daa520"/>
     <use xlink:href="#m8e29b36f6c" x="65.369158" y="272.362182" style="fill: #daa520; stroke: #daa520"/>
     <use xlink:href="#m8e29b36f6c" x="283.663954" y="245.400355" style="fill: #daa520; stroke: #daa520"/>
     <use xlink:href="#m8e29b36f6c" x="264.920606" y="208.697222" style="fill: #daa520; stroke: #daa520"/>
     <use xlink:href="#m8e29b36f6c" x="268.532393" y="208.53006" style="fill: #daa520; stroke: #daa520"/>
     <use xlink:href="#m8e29b36f6c" x="86.805226" y="267.687636" style="fill: #daa520; stroke: #daa520"/>
     <use xlink:href="#m8e29b36f6c" x="206.830276" y="225.481645" style="fill: #daa520; stroke: #daa520"/>
     <use xlink:href="#m8e29b36f6c" x="106.725172" y="215.221197" style="fill: #daa520; stroke: #daa520"/>
     <use xlink:href="#m8e29b36f6c" x="94.855993" y="251.015484" style="fill: #daa520; stroke: #daa520"/>
     <use xlink:href="#m8e29b36f6c" x="80.375941" y="186.060664" style="fill: #daa520; stroke: #daa520"/>
     <use xlink:href="#m8e29b36f6c" x="182.401265" y="237.90238" style="fill: #daa520; stroke: #daa520"/>
     <use xlink:href="#m8e29b36f6c" x="163.023772" y="221.068286" style="fill: #daa520; stroke: #daa520"/>
     <use xlink:href="#m8e29b36f6c" x="63.962466" y="221.205149" style="fill: #daa520; stroke: #daa520"/>
    </g>
   </g>
   <g id="matplotlib.axis_5">
    <g id="xtick_1">
     <g id="line2d_10">
      <defs>
       <path id="m3ff7859d5a" d="M 0 0 
L 0 3.5 
" style="stroke: #696969; stroke-width: 0.8"/>
      </defs>
      <g>
       <use xlink:href="#m3ff7859d5a" x="55.888409" y="276.68" style="fill: #696969; stroke: #696969; stroke-width: 0.8"/>
      </g>
     </g>
     <g id="text_4">
      <!-- −1.0 -->
      <g style="fill: #696969" transform="translate(36.462159 295.8375) scale(0.16 -0.16)">
       <defs>
        <path id="DejaVuSans-31" d="M 794 531 
L 1825 531 
L 1825 4091 
L 703 3866 
L 703 4441 
L 1819 4666 
L 2450 4666 
L 2450 531 
L 3481 531 
L 3481 0 
L 794 0 
L 794 531 
z
" transform="scale(0.015625)"/>
        <path id="DejaVuSans-2e" d="M 684 794 
L 1344 794 
L 1344 0 
L 684 0 
L 684 794 
z
" transform="scale(0.015625)"/>
       </defs>
       <use xlink:href="#DejaVuSans-2212"/>
       <use xlink:href="#DejaVuSans-31" x="83.789062"/>
       <use xlink:href="#DejaVuSans-2e" x="147.412109"/>
       <use xlink:href="#DejaVuSans-30" x="179.199219"/>
      </g>
     </g>
    </g>
    <g id="xtick_2">
     <g id="line2d_11">
      <g>
       <use xlink:href="#m3ff7859d5a" x="146.392955" y="276.68" style="fill: #696969; stroke: #696969; stroke-width: 0.8"/>
      </g>
     </g>
     <g id="text_5">
      <!-- −0.5 -->
      <g style="fill: #696969" transform="translate(126.966705 295.8375) scale(0.16 -0.16)">
       <use xlink:href="#DejaVuSans-2212"/>
       <use xlink:href="#DejaVuSans-30" x="83.789062"/>
       <use xlink:href="#DejaVuSans-2e" x="147.412109"/>
       <use xlink:href="#DejaVuSans-35" x="179.199219"/>
      </g>
     </g>
    </g>
    <g id="xtick_3">
     <g id="line2d_12">
      <g>
       <use xlink:href="#m3ff7859d5a" x="236.8975" y="276.68" style="fill: #696969; stroke: #696969; stroke-width: 0.8"/>
      </g>
     </g>
     <g id="text_6">
      <!-- 0.0 -->
      <g style="fill: #696969" transform="translate(224.175 295.8375) scale(0.16 -0.16)">
       <use xlink:href="#DejaVuSans-30"/>
       <use xlink:href="#DejaVuSans-2e" x="63.623047"/>
       <use xlink:href="#DejaVuSans-30" x="95.410156"/>
      </g>
     </g>
    </g>
    <g id="xtick_4">
     <g id="line2d_13">
      <g>
       <use xlink:href="#m3ff7859d5a" x="327.402045" y="276.68" style="fill: #696969; stroke: #696969; stroke-width: 0.8"/>
      </g>
     </g>
     <g id="text_7">
      <!-- 0.5 -->
      <g style="fill: #696969" transform="translate(314.679545 295.8375) scale(0.16 -0.16)">
       <use xlink:href="#DejaVuSans-30"/>
       <use xlink:href="#DejaVuSans-2e" x="63.623047"/>
       <use xlink:href="#DejaVuSans-35" x="95.410156"/>
      </g>
     </g>
    </g>
    <g id="xtick_5">
     <g id="line2d_14">
      <g>
       <use xlink:href="#m3ff7859d5a" x="417.906591" y="276.68" style="fill: #696969; stroke: #696969; stroke-width: 0.8"/>
      </g>
     </g>
     <g id="text_8">
      <!-- 1.0 -->
      <g style="fill: #696969" transform="translate(405.184091 295.8375) scale(0.16 -0.16)">
       <use xlink:href="#DejaVuSans-31"/>
       <use xlink:href="#DejaVuSans-2e" x="63.623047"/>
       <use xlink:href="#DejaVuSans-30" x="95.410156"/>
      </g>
     </g>
    </g>
    <g id="text_9">
     <!-- $X$ -->
     <g transform="translate(231.3775 315.3225) scale(0.16 -0.16)">
      <defs>
       <path id="DejaVuSans-Oblique-58" d="M 878 4666 
L 1516 4666 
L 2316 2981 
L 3763 4666 
L 4500 4666 
L 2578 2438 
L 3738 0 
L 3103 0 
L 2163 1966 
L 459 0 
L -275 0 
L 1906 2509 
L 878 4666 
z
" transform="scale(0.015625)"/>
      </defs>
      <use xlink:href="#DejaVuSans-Oblique-58" transform="translate(0 0.09375)"/>
     </g>
    </g>
   </g>
   <g id="matplotlib.axis_6">
    <g id="ytick_4">
     <g id="line2d_15">
      <g>
       <use xlink:href="#m627ccade11" x="37.7875" y="258.288573" style="fill: #696969; stroke: #696969; stroke-width: 0.8"/>
      </g>
     </g>
     <g id="text_10">
      <!-- −5 -->
      <g style="fill: #696969" transform="translate(7.2 264.367323) scale(0.16 -0.16)">
       <use xlink:href="#DejaVuSans-2212"/>
       <use xlink:href="#DejaVuSans-35" x="83.789062"/>
      </g>
     </g>
    </g>
    <g id="ytick_5">
     <g id="line2d_16">
      <g>
       <use xlink:href="#m627ccade11" x="37.7875" y="229.514348" style="fill: #696969; stroke: #696969; stroke-width: 0.8"/>
      </g>
     </g>
     <g id="text_11">
      <!-- 0 -->
      <g style="fill: #696969" transform="translate(20.6075 235.593098) scale(0.16 -0.16)">
       <use xlink:href="#DejaVuSans-30"/>
      </g>
     </g>
    </g>
    <g id="ytick_6">
     <g id="line2d_17">
      <g>
       <use xlink:href="#m627ccade11" x="37.7875" y="200.740122" style="fill: #696969; stroke: #696969; stroke-width: 0.8"/>
      </g>
     </g>
     <g id="text_12">
      <!-- 5 -->
      <g style="fill: #696969" transform="translate(20.6075 206.818872) scale(0.16 -0.16)">
       <use xlink:href="#DejaVuSans-35"/>
      </g>
     </g>
    </g>
   </g>
   <g id="line2d_18">
    <path d="M 55.888409 227.103231 
L 63.128773 228.549884 
L 70.369136 229.063034 
L 77.6095 228.308866 
L 84.849864 227.905403 
L 92.090227 228.460088 
L 99.330591 229.433885 
L 106.570955 230.190315 
L 113.811318 230.425122 
L 121.051682 230.214613 
L 128.292045 229.803141 
L 135.532409 229.422559 
L 142.772773 229.245876 
L 150.013136 229.345667 
L 157.2535 229.674175 
L 164.493864 230.206604 
L 171.734227 230.351751 
L 178.974591 229.791553 
L 186.214955 229.197148 
L 193.455318 229.071598 
L 200.695682 229.373031 
L 207.936045 229.718993 
L 215.176409 229.810321 
L 222.416773 229.7351 
L 229.657136 229.677185 
L 236.8975 229.670478 
L 244.137864 229.707815 
L 251.378227 229.766817 
L 258.618591 229.781197 
L 265.858955 229.737699 
L 273.099318 229.757991 
L 280.339682 229.928836 
L 287.580045 230.176999 
L 294.820409 230.410582 
L 302.060773 230.681331 
L 309.301136 231.142297 
L 316.5415 231.55822 
L 323.781864 231.311147 
L 331.022227 230.396381 
L 338.262591 229.2864 
L 345.502955 228.444892 
L 352.743318 228.176127 
L 359.983682 228.553861 
L 367.224045 229.398273 
L 374.464409 230.346943 
L 381.704773 231.01339 
L 388.945136 231.165419 
L 396.1855 230.833892 
L 403.425864 230.295438 
L 410.666227 229.940443 
L 417.906591 230.097518 
" clip-path="url(#peda9da8fee)" style="fill: none; stroke: #696969; stroke-width: 2; stroke-linecap: square"/>
   </g>
   <g id="line2d_19">
    <path d="M 55.888409 242.362614 
L 63.128773 240.301167 
L 70.369136 238.447063 
L 77.6095 236.785903 
L 84.849864 235.303937 
L 92.090227 233.988064 
L 99.330591 232.825836 
L 106.570955 231.805454 
L 113.811318 230.915768 
L 121.051682 230.146281 
L 128.292045 229.487144 
L 135.532409 228.929159 
L 142.772773 228.463779 
L 150.013136 228.083106 
L 157.2535 227.779893 
L 164.493864 227.547544 
L 171.734227 227.380113 
L 178.974591 227.272302 
L 186.214955 227.219467 
L 193.455318 227.217612 
L 200.695682 227.263391 
L 207.936045 227.35411 
L 215.176409 227.487724 
L 222.416773 227.662839 
L 229.657136 227.878711 
L 236.8975 228.135245 
L 244.137864 228.432999 
L 251.378227 228.77318 
L 258.618591 229.157644 
L 265.858955 229.588899 
L 273.099318 230.070103 
L 280.339682 230.605063 
L 287.580045 231.198239 
L 294.820409 231.854738 
L 302.060773 232.58032 
L 309.301136 233.381394 
L 316.5415 234.26502 
L 323.781864 235.238906 
L 331.022227 236.311414 
L 338.262591 237.491554 
L 345.502955 238.788986 
L 352.743318 240.214022 
L 359.983682 241.777622 
L 367.224045 243.491399 
L 374.464409 245.367614 
L 381.704773 247.41918 
L 388.945136 249.659658 
L 396.1855 252.103262 
L 403.425864 254.764855 
L 410.666227 257.65995 
L 417.906591 260.80471 
" clip-path="url(#peda9da8fee)" style="fill: none; stroke-dasharray: 7.4,3.2; stroke-dashoffset: 0; stroke: #79ad41; stroke-width: 2"/>
   </g>
   <g id="patch_9">
    <path d="M 37.7875 276.68 
L 37.7875 181.688 
" style="fill: none; stroke: #000000; stroke-width: 0.8; stroke-linejoin: miter; stroke-linecap: square"/>
   </g>
   <g id="patch_10">
    <path d="M 436.0075 276.68 
L 436.0075 181.688 
" style="fill: none; stroke: #000000; stroke-width: 0.8; stroke-linejoin: miter; stroke-linecap: square"/>
   </g>
   <g id="patch_11">
    <path d="M 37.7875 276.68 
L 436.0075 276.68 
" style="fill: none; stroke: #000000; stroke-width: 0.8; stroke-linejoin: miter; stroke-linecap: square"/>
   </g>
   <g id="patch_12">
    <path d="M 37.7875 181.688 
L 436.0075 181.688 
" style="fill: none; stroke: #000000; stroke-width: 0.8; stroke-linejoin: miter; stroke-linecap: square"/>
   </g>
  </g>
 </g>
 <defs>
  <clipPath id="p2d58c47100">
   <rect x="37.7875" y="7.2" width="398.22" height="47.496"/>
  </clipPath>
  <clipPath id="p294d98b899">
   <rect x="37.7875" y="70.696" width="398.22" height="94.992"/>
  </clipPath>
  <clipPath id="peda9da8fee">
   <rect x="37.7875" y="181.688" width="398.22" height="94.992"/>
  </clipPath>
 </defs>
</svg>
