<?xml version="1.0" encoding="utf-8" standalone="no"?>
<!DOCTYPE svg PUBLIC "-//W3C//DTD SVG 1.1//EN"
  "http://www.w3.org/Graphics/SVG/1.1/DTD/svg11.dtd">
<svg xmlns:xlink="http://www.w3.org/1999/xlink" width="443.2075pt" height="325.85pt" viewBox="0 0 443.2075 325.85" xmlns="http://www.w3.org/2000/svg" version="1.1">
 <metadata>
  <rdf:RDF xmlns:dc="http://purl.org/dc/elements/1.1/" xmlns:cc="http://creativecommons.org/ns#" xmlns:rdf="http://www.w3.org/1999/02/22-rdf-syntax-ns#">
   <cc:Work>
    <dc:type rdf:resource="http://purl.org/dc/dcmitype/StillImage"/>
    <dc:date>2024-01-28T20:55:56.395049</dc:date>
    <dc:format>image/svg+xml</dc:format>
    <dc:creator>
     <cc:Agent>
      <dc:title>Matplotlib v3.7.2, https://matplotlib.org/</dc:title>
     </cc:Agent>
    </dc:creator>
   </cc:Work>
  </rdf:RDF>
 </metadata>
 <defs>
  <style type="text/css">*{stroke-linejoin: round; stroke-linecap: butt}</style>
 </defs>
 <g id="figure_1">
  <g id="patch_1">
   <path d="M 0 325.85 
L 443.2075 325.85 
L 443.2075 0 
L 0 0 
z
" style="fill: #ffffff"/>
  </g>
  <g id="axes_1">
   <g id="patch_2">
    <path d="M 37.7875 54.155919 
L 436.0075 54.155919 
L 436.0075 7.2 
L 37.7875 7.2 
z
" style="fill: #ffffff"/>
   </g>
   <g id="PolyCollection_1">
    <defs>
     <path id="m3af756fe17" d="M 55.888409 -273.828441 
L 55.888409 -309.582776 
L 63.128773 -309.46164 
L 70.369136 -309.358485 
L 77.6095 -309.264986 
L 84.849864 -309.172934 
L 92.090227 -309.074373 
L 99.330591 -308.961636 
L 106.570955 -308.827382 
L 113.811318 -308.664613 
L 121.051682 -308.466598 
L 128.292045 -308.226884 
L 135.532409 -307.93923 
L 142.772773 -307.597578 
L 150.013136 -307.196028 
L 157.2535 -306.728848 
L 164.493864 -306.190524 
L 171.734227 -305.57583 
L 178.974591 -304.879955 
L 186.214955 -304.098723 
L 193.455318 -303.228831 
L 200.695682 -302.268145 
L 207.936045 -301.216077 
L 215.176409 -300.073969 
L 222.416773 -298.845441 
L 229.657136 -297.536745 
L 236.8975 -296.156984 
L 244.137864 -294.718185 
L 251.378227 -293.235147 
L 258.618591 -291.725109 
L 265.858955 -290.207081 
L 273.099318 -288.70103 
L 280.339682 -287.226917 
L 287.580045 -285.803649 
L 294.820409 -284.448111 
L 302.060773 -283.174394 
L 309.301136 -281.99322 
L 316.5415 -280.911703 
L 323.781864 -279.933373 
L 331.022227 -279.058459 
L 338.262591 -278.571463 
L 345.502955 -278.571463 
L 352.743318 -278.571463 
L 359.983682 -278.571463 
L 367.224045 -278.571463 
L 374.464409 -278.571463 
L 381.704773 -278.571463 
L 388.945136 -278.571463 
L 396.1855 -278.571463 
L 403.425864 -278.571463 
L 410.666227 -278.571463 
L 417.906591 -278.571463 
L 417.906591 -273.828441 
L 417.906591 -273.828441 
L 410.666227 -273.828441 
L 403.425864 -273.828441 
L 396.1855 -273.828441 
L 388.945136 -273.828441 
L 381.704773 -273.828441 
L 374.464409 -273.828441 
L 367.224045 -273.828441 
L 359.983682 -273.828441 
L 352.743318 -273.828441 
L 345.502955 -273.828441 
L 338.262591 -273.828441 
L 331.022227 -273.828441 
L 323.781864 -273.828441 
L 316.5415 -273.828441 
L 309.301136 -273.828441 
L 302.060773 -273.828441 
L 294.820409 -273.828441 
L 287.580045 -273.828441 
L 280.339682 -273.828441 
L 273.099318 -273.828441 
L 265.858955 -273.828441 
L 258.618591 -273.828441 
L 251.378227 -273.828441 
L 244.137864 -273.828441 
L 236.8975 -273.828441 
L 229.657136 -273.828441 
L 222.416773 -273.828441 
L 215.176409 -273.828441 
L 207.936045 -273.828441 
L 200.695682 -273.828441 
L 193.455318 -273.828441 
L 186.214955 -273.828441 
L 178.974591 -273.828441 
L 171.734227 -273.828441 
L 164.493864 -273.828441 
L 157.2535 -273.828441 
L 150.013136 -273.828441 
L 142.772773 -273.828441 
L 135.532409 -273.828441 
L 128.292045 -273.828441 
L 121.051682 -273.828441 
L 113.811318 -273.828441 
L 106.570955 -273.828441 
L 99.330591 -273.828441 
L 92.090227 -273.828441 
L 84.849864 -273.828441 
L 77.6095 -273.828441 
L 70.369136 -273.828441 
L 63.128773 -273.828441 
L 55.888409 -273.828441 
z
" style="stroke: #dc143c; stroke-opacity: 0.2"/>
    </defs>
    <g clip-path="url(#pe66aa7a30f)">
     <use xlink:href="#m3af756fe17" x="0" y="325.85" style="fill: #dc143c; fill-opacity: 0.2; stroke: #dc143c; stroke-opacity: 0.2"/>
    </g>
   </g>
   <g id="PolyCollection_2">
    <defs>
     <path id="mf6937885be" d="M 55.888409 -273.828441 
L 55.888409 -285.504326 
L 63.128773 -285.625463 
L 70.369136 -285.728618 
L 77.6095 -285.822117 
L 84.849864 -285.914169 
L 92.090227 -286.01273 
L 99.330591 -286.125467 
L 106.570955 -286.25972 
L 113.811318 -286.42249 
L 121.051682 -286.620505 
L 128.292045 -286.860219 
L 135.532409 -287.147872 
L 142.772773 -287.489524 
L 150.013136 -287.891075 
L 157.2535 -288.358255 
L 164.493864 -288.896579 
L 171.734227 -289.511273 
L 178.974591 -290.207148 
L 186.214955 -290.98838 
L 193.455318 -291.858272 
L 200.695682 -292.818958 
L 207.936045 -293.871026 
L 215.176409 -295.013134 
L 222.416773 -296.241662 
L 229.657136 -297.550358 
L 236.8975 -298.930119 
L 244.137864 -300.368918 
L 251.378227 -301.851956 
L 258.618591 -303.361993 
L 265.858955 -304.880022 
L 273.099318 -306.386073 
L 280.339682 -307.860185 
L 287.580045 -309.283454 
L 294.820409 -310.638992 
L 302.060773 -311.912709 
L 309.301136 -313.093883 
L 316.5415 -314.1754 
L 323.781864 -315.15373 
L 331.022227 -316.028644 
L 338.262591 -316.51564 
L 345.502955 -316.51564 
L 352.743318 -316.51564 
L 359.983682 -316.51564 
L 367.224045 -316.51564 
L 374.464409 -316.51564 
L 381.704773 -316.51564 
L 388.945136 -316.51564 
L 396.1855 -316.51564 
L 403.425864 -316.51564 
L 410.666227 -316.51564 
L 417.906591 -316.51564 
L 417.906591 -273.828441 
L 417.906591 -273.828441 
L 410.666227 -273.828441 
L 403.425864 -273.828441 
L 396.1855 -273.828441 
L 388.945136 -273.828441 
L 381.704773 -273.828441 
L 374.464409 -273.828441 
L 367.224045 -273.828441 
L 359.983682 -273.828441 
L 352.743318 -273.828441 
L 345.502955 -273.828441 
L 338.262591 -273.828441 
L 331.022227 -273.828441 
L 323.781864 -273.828441 
L 316.5415 -273.828441 
L 309.301136 -273.828441 
L 302.060773 -273.828441 
L 294.820409 -273.828441 
L 287.580045 -273.828441 
L 280.339682 -273.828441 
L 273.099318 -273.828441 
L 265.858955 -273.828441 
L 258.618591 -273.828441 
L 251.378227 -273.828441 
L 244.137864 -273.828441 
L 236.8975 -273.828441 
L 229.657136 -273.828441 
L 222.416773 -273.828441 
L 215.176409 -273.828441 
L 207.936045 -273.828441 
L 200.695682 -273.828441 
L 193.455318 -273.828441 
L 186.214955 -273.828441 
L 178.974591 -273.828441 
L 171.734227 -273.828441 
L 164.493864 -273.828441 
L 157.2535 -273.828441 
L 150.013136 -273.828441 
L 142.772773 -273.828441 
L 135.532409 -273.828441 
L 128.292045 -273.828441 
L 121.051682 -273.828441 
L 113.811318 -273.828441 
L 106.570955 -273.828441 
L 99.330591 -273.828441 
L 92.090227 -273.828441 
L 84.849864 -273.828441 
L 77.6095 -273.828441 
L 70.369136 -273.828441 
L 63.128773 -273.828441 
L 55.888409 -273.828441 
z
" style="stroke: #000080; stroke-opacity: 0.2"/>
    </defs>
    <g clip-path="url(#pe66aa7a30f)">
     <use xlink:href="#mf6937885be" x="0" y="325.85" style="fill: #000080; fill-opacity: 0.2; stroke: #000080; stroke-opacity: 0.2"/>
    </g>
   </g>
   <g id="matplotlib.axis_1"/>
   <g id="matplotlib.axis_2"/>
   <g id="line2d_1">
    <path d="M 55.888409 16.267224 
L 63.128773 16.38836 
L 70.369136 16.491515 
L 77.6095 16.585014 
L 84.849864 16.677066 
L 92.090227 16.775627 
L 99.330591 16.888364 
L 106.570955 17.022618 
L 113.811318 17.185387 
L 121.051682 17.383402 
L 128.292045 17.623116 
L 135.532409 17.91077 
L 142.772773 18.252422 
L 150.013136 18.653972 
L 157.2535 19.121152 
L 164.493864 19.659476 
L 171.734227 20.27417 
L 178.974591 20.970045 
L 186.214955 21.751277 
L 193.455318 22.621169 
L 200.695682 23.581855 
L 207.936045 24.633923 
L 215.176409 25.776031 
L 222.416773 27.004559 
L 229.657136 28.313255 
L 236.8975 29.693016 
L 244.137864 31.131815 
L 251.378227 32.614853 
L 258.618591 34.124891 
L 265.858955 35.642919 
L 273.099318 37.14897 
L 280.339682 38.623083 
L 287.580045 40.046351 
L 294.820409 41.401889 
L 302.060773 42.675606 
L 309.301136 43.85678 
L 316.5415 44.938297 
L 323.781864 45.916627 
L 331.022227 46.791541 
L 338.262591 47.278537 
L 345.502955 47.278537 
L 352.743318 47.278537 
L 359.983682 47.278537 
L 367.224045 47.278537 
L 374.464409 47.278537 
L 381.704773 47.278537 
L 388.945136 47.278537 
L 396.1855 47.278537 
L 403.425864 47.278537 
L 410.666227 47.278537 
L 417.906591 47.278537 
" clip-path="url(#pe66aa7a30f)" style="fill: none; stroke: #dc143c; stroke-width: 1.5; stroke-linecap: square"/>
   </g>
   <g id="line2d_2">
    <path d="M 55.888409 40.345674 
L 63.128773 40.224537 
L 70.369136 40.121382 
L 77.6095 40.027883 
L 84.849864 39.935831 
L 92.090227 39.83727 
L 99.330591 39.724533 
L 106.570955 39.59028 
L 113.811318 39.42751 
L 121.051682 39.229495 
L 128.292045 38.989781 
L 135.532409 38.702128 
L 142.772773 38.360476 
L 150.013136 37.958925 
L 157.2535 37.491745 
L 164.493864 36.953421 
L 171.734227 36.338727 
L 178.974591 35.642852 
L 186.214955 34.86162 
L 193.455318 33.991728 
L 200.695682 33.031042 
L 207.936045 31.978974 
L 215.176409 30.836866 
L 222.416773 29.608338 
L 229.657136 28.299642 
L 236.8975 26.919881 
L 244.137864 25.481082 
L 251.378227 23.998044 
L 258.618591 22.488007 
L 265.858955 20.969978 
L 273.099318 19.463927 
L 280.339682 17.989815 
L 287.580045 16.566546 
L 294.820409 15.211008 
L 302.060773 13.937291 
L 309.301136 12.756117 
L 316.5415 11.6746 
L 323.781864 10.69627 
L 331.022227 9.821356 
L 338.262591 9.33436 
L 345.502955 9.33436 
L 352.743318 9.33436 
L 359.983682 9.33436 
L 367.224045 9.33436 
L 374.464409 9.33436 
L 381.704773 9.33436 
L 388.945136 9.33436 
L 396.1855 9.33436 
L 403.425864 9.33436 
L 410.666227 9.33436 
L 417.906591 9.33436 
" clip-path="url(#pe66aa7a30f)" style="fill: none; stroke: #000080; stroke-width: 1.5; stroke-linecap: square"/>
   </g>
  </g>
  <g id="axes_2">
   <g id="patch_3">
    <path d="M 37.7875 165.41796 
L 436.0075 165.41796 
L 436.0075 71.506121 
L 37.7875 71.506121 
z
" style="fill: #ffffff"/>
   </g>
   <g id="PathCollection_1">
    <defs>
     <path id="m6def64ac68" d="M 0 0.866025 
C 0.229673 0.866025 0.449969 0.774776 0.612372 0.612372 
C 0.774776 0.449969 0.866025 0.229673 0.866025 0 
C 0.866025 -0.229673 0.774776 -0.449969 0.612372 -0.612372 
C 0.449969 -0.774776 0.229673 -0.866025 0 -0.866025 
C -0.229673 -0.866025 -0.449969 -0.774776 -0.612372 -0.612372 
C -0.774776 -0.449969 -0.866025 -0.229673 -0.866025 0 
C -0.866025 0.229673 -0.774776 0.449969 -0.612372 0.612372 
C -0.449969 0.774776 -0.229673 0.866025 0 0.866025 
z
" style="stroke: #daa520"/>
    </defs>
    <g clip-path="url(#pcd009af42b)">
     <use xlink:href="#m6def64ac68" x="89.890642" y="111.833904" style="fill: #daa520; stroke: #daa520"/>
     <use xlink:href="#m6def64ac68" x="377.799742" y="98.432721" style="fill: #daa520; stroke: #daa520"/>
     <use xlink:href="#m6def64ac68" x="124.04858" y="138.231738" style="fill: #daa520; stroke: #daa520"/>
     <use xlink:href="#m6def64ac68" x="134.085907" y="102.932849" style="fill: #daa520; stroke: #daa520"/>
     <use xlink:href="#m6def64ac68" x="92.365656" y="106.883534" style="fill: #daa520; stroke: #daa520"/>
     <use xlink:href="#m6def64ac68" x="238.411298" y="131.783668" style="fill: #daa520; stroke: #daa520"/>
     <use xlink:href="#m6def64ac68" x="331.57176" y="114.671145" style="fill: #daa520; stroke: #daa520"/>
     <use xlink:href="#m6def64ac68" x="261.248792" y="115.045334" style="fill: #daa520; stroke: #daa520"/>
     <use xlink:href="#m6def64ac68" x="218.013248" y="127.572044" style="fill: #daa520; stroke: #daa520"/>
     <use xlink:href="#m6def64ac68" x="297.366476" y="109.323311" style="fill: #daa520; stroke: #daa520"/>
     <use xlink:href="#m6def64ac68" x="114.645393" y="143.217414" style="fill: #daa520; stroke: #daa520"/>
     <use xlink:href="#m6def64ac68" x="91.006026" y="91.094885" style="fill: #daa520; stroke: #daa520"/>
     <use xlink:href="#m6def64ac68" x="113.521874" y="108.13381" style="fill: #daa520; stroke: #daa520"/>
     <use xlink:href="#m6def64ac68" x="94.564415" y="99.041402" style="fill: #daa520; stroke: #daa520"/>
     <use xlink:href="#m6def64ac68" x="211.600745" y="127.391337" style="fill: #daa520; stroke: #daa520"/>
     <use xlink:href="#m6def64ac68" x="281.581167" y="105.378373" style="fill: #daa520; stroke: #daa520"/>
     <use xlink:href="#m6def64ac68" x="71.52201" y="111.455567" style="fill: #daa520; stroke: #daa520"/>
     <use xlink:href="#m6def64ac68" x="295.000128" y="108.365358" style="fill: #daa520; stroke: #daa520"/>
     <use xlink:href="#m6def64ac68" x="210.835175" y="128.651338" style="fill: #daa520; stroke: #daa520"/>
     <use xlink:href="#m6def64ac68" x="83.355334" y="159.597273" style="fill: #daa520; stroke: #daa520"/>
     <use xlink:href="#m6def64ac68" x="210.830679" y="128.08953" style="fill: #daa520; stroke: #daa520"/>
     <use xlink:href="#m6def64ac68" x="238.610848" y="121.849803" style="fill: #daa520; stroke: #daa520"/>
     <use xlink:href="#m6def64ac68" x="314.888489" y="135.472947" style="fill: #daa520; stroke: #daa520"/>
     <use xlink:href="#m6def64ac68" x="160.66091" y="132.644348" style="fill: #daa520; stroke: #daa520"/>
     <use xlink:href="#m6def64ac68" x="344.51328" y="117.280904" style="fill: #daa520; stroke: #daa520"/>
     <use xlink:href="#m6def64ac68" x="255.116497" y="113.813456" style="fill: #daa520; stroke: #daa520"/>
     <use xlink:href="#m6def64ac68" x="385.202751" y="99.77069" style="fill: #daa520; stroke: #daa520"/>
     <use xlink:href="#m6def64ac68" x="160.775356" y="132.963743" style="fill: #daa520; stroke: #daa520"/>
     <use xlink:href="#m6def64ac68" x="209.594609" y="126.884384" style="fill: #daa520; stroke: #daa520"/>
     <use xlink:href="#m6def64ac68" x="193.453381" y="132.766854" style="fill: #daa520; stroke: #daa520"/>
     <use xlink:href="#m6def64ac68" x="150.957733" y="132.131121" style="fill: #daa520; stroke: #daa520"/>
     <use xlink:href="#m6def64ac68" x="287.203082" y="128.42391" style="fill: #daa520; stroke: #daa520"/>
     <use xlink:href="#m6def64ac68" x="171.52159" y="132.31253" style="fill: #daa520; stroke: #daa520"/>
     <use xlink:href="#m6def64ac68" x="226.233267" y="124.929216" style="fill: #daa520; stroke: #daa520"/>
     <use xlink:href="#m6def64ac68" x="121.903639" y="94.122398" style="fill: #daa520; stroke: #daa520"/>
     <use xlink:href="#m6def64ac68" x="163.514871" y="134.075381" style="fill: #daa520; stroke: #daa520"/>
     <use xlink:href="#m6def64ac68" x="95.64803" y="95.640538" style="fill: #daa520; stroke: #daa520"/>
     <use xlink:href="#m6def64ac68" x="231.264365" y="119.398216" style="fill: #daa520; stroke: #daa520"/>
     <use xlink:href="#m6def64ac68" x="198.304063" y="129.7132" style="fill: #daa520; stroke: #daa520"/>
     <use xlink:href="#m6def64ac68" x="336.856054" y="137.277763" style="fill: #daa520; stroke: #daa520"/>
     <use xlink:href="#m6def64ac68" x="137.146388" y="109.918782" style="fill: #daa520; stroke: #daa520"/>
     <use xlink:href="#m6def64ac68" x="98.931709" y="120.579509" style="fill: #daa520; stroke: #daa520"/>
     <use xlink:href="#m6def64ac68" x="65.821366" y="151.730238" style="fill: #daa520; stroke: #daa520"/>
     <use xlink:href="#m6def64ac68" x="100.839959" y="107.889447" style="fill: #daa520; stroke: #daa520"/>
     <use xlink:href="#m6def64ac68" x="237.60233" y="131.763603" style="fill: #daa520; stroke: #daa520"/>
     <use xlink:href="#m6def64ac68" x="237.800493" y="119.830302" style="fill: #daa520; stroke: #daa520"/>
     <use xlink:href="#m6def64ac68" x="175.254967" y="121.999304" style="fill: #daa520; stroke: #daa520"/>
     <use xlink:href="#m6def64ac68" x="207.230047" y="126.922919" style="fill: #daa520; stroke: #daa520"/>
     <use xlink:href="#m6def64ac68" x="212.031912" y="121.916836" style="fill: #daa520; stroke: #daa520"/>
     <use xlink:href="#m6def64ac68" x="148.352149" y="121.622122" style="fill: #daa520; stroke: #daa520"/>
     <use xlink:href="#m6def64ac68" x="177.44024" y="130.738865" style="fill: #daa520; stroke: #daa520"/>
     <use xlink:href="#m6def64ac68" x="139.75227" y="104.962882" style="fill: #daa520; stroke: #daa520"/>
     <use xlink:href="#m6def64ac68" x="138.1639" y="109.451672" style="fill: #daa520; stroke: #daa520"/>
     <use xlink:href="#m6def64ac68" x="72.401321" y="106.550883" style="fill: #daa520; stroke: #daa520"/>
     <use xlink:href="#m6def64ac68" x="265.803555" y="103.593024" style="fill: #daa520; stroke: #daa520"/>
     <use xlink:href="#m6def64ac68" x="60.919481" y="124.82384" style="fill: #daa520; stroke: #daa520"/>
     <use xlink:href="#m6def64ac68" x="189.868586" y="128.635763" style="fill: #daa520; stroke: #daa520"/>
     <use xlink:href="#m6def64ac68" x="109.819823" y="139.836294" style="fill: #daa520; stroke: #daa520"/>
     <use xlink:href="#m6def64ac68" x="175.552631" y="134.590364" style="fill: #daa520; stroke: #daa520"/>
     <use xlink:href="#m6def64ac68" x="289.981454" y="111.215333" style="fill: #daa520; stroke: #daa520"/>
     <use xlink:href="#m6def64ac68" x="140.101157" y="131.676235" style="fill: #daa520; stroke: #daa520"/>
     <use xlink:href="#m6def64ac68" x="194.74648" y="131.059137" style="fill: #daa520; stroke: #daa520"/>
     <use xlink:href="#m6def64ac68" x="101.221568" y="133.337123" style="fill: #daa520; stroke: #daa520"/>
     <use xlink:href="#m6def64ac68" x="163.969216" y="126.946372" style="fill: #daa520; stroke: #daa520"/>
     <use xlink:href="#m6def64ac68" x="208.819311" y="128.157402" style="fill: #daa520; stroke: #daa520"/>
     <use xlink:href="#m6def64ac68" x="67.296205" y="116.525028" style="fill: #daa520; stroke: #daa520"/>
     <use xlink:href="#m6def64ac68" x="124.476093" y="107.812543" style="fill: #daa520; stroke: #daa520"/>
     <use xlink:href="#m6def64ac68" x="228.489588" y="129.098451" style="fill: #daa520; stroke: #daa520"/>
     <use xlink:href="#m6def64ac68" x="255.032977" y="135.35032" style="fill: #daa520; stroke: #daa520"/>
     <use xlink:href="#m6def64ac68" x="145.30114" y="131.392071" style="fill: #daa520; stroke: #daa520"/>
     <use xlink:href="#m6def64ac68" x="190.079626" y="118.920628" style="fill: #daa520; stroke: #daa520"/>
     <use xlink:href="#m6def64ac68" x="99.312915" y="145.39536" style="fill: #daa520; stroke: #daa520"/>
     <use xlink:href="#m6def64ac68" x="123.331949" y="111.769155" style="fill: #daa520; stroke: #daa520"/>
     <use xlink:href="#m6def64ac68" x="304.291429" y="107.16228" style="fill: #daa520; stroke: #daa520"/>
     <use xlink:href="#m6def64ac68" x="251.813007" y="135.118384" style="fill: #daa520; stroke: #daa520"/>
     <use xlink:href="#m6def64ac68" x="163.908122" y="119.184848" style="fill: #daa520; stroke: #daa520"/>
     <use xlink:href="#m6def64ac68" x="68.862043" y="127.26161" style="fill: #daa520; stroke: #daa520"/>
     <use xlink:href="#m6def64ac68" x="183.043404" y="134.646301" style="fill: #daa520; stroke: #daa520"/>
     <use xlink:href="#m6def64ac68" x="217.263415" y="124.798242" style="fill: #daa520; stroke: #daa520"/>
     <use xlink:href="#m6def64ac68" x="301.126859" y="109.53818" style="fill: #daa520; stroke: #daa520"/>
     <use xlink:href="#m6def64ac68" x="165.546273" y="125.193872" style="fill: #daa520; stroke: #daa520"/>
     <use xlink:href="#m6def64ac68" x="160.965298" y="130.315791" style="fill: #daa520; stroke: #daa520"/>
     <use xlink:href="#m6def64ac68" x="272.540407" y="107.786248" style="fill: #daa520; stroke: #daa520"/>
     <use xlink:href="#m6def64ac68" x="88.393345" y="107.280186" style="fill: #daa520; stroke: #daa520"/>
     <use xlink:href="#m6def64ac68" x="139.811981" y="112.391196" style="fill: #daa520; stroke: #daa520"/>
     <use xlink:href="#m6def64ac68" x="186.835786" y="129.222649" style="fill: #daa520; stroke: #daa520"/>
     <use xlink:href="#m6def64ac68" x="151.275712" y="118.377883" style="fill: #daa520; stroke: #daa520"/>
     <use xlink:href="#m6def64ac68" x="65.369158" y="98.775878" style="fill: #daa520; stroke: #daa520"/>
     <use xlink:href="#m6def64ac68" x="283.663954" y="105.318772" style="fill: #daa520; stroke: #daa520"/>
     <use xlink:href="#m6def64ac68" x="264.920606" y="136.935734" style="fill: #daa520; stroke: #daa520"/>
     <use xlink:href="#m6def64ac68" x="268.532393" y="136.605837" style="fill: #daa520; stroke: #daa520"/>
     <use xlink:href="#m6def64ac68" x="86.805226" y="91.456106" style="fill: #daa520; stroke: #daa520"/>
     <use xlink:href="#m6def64ac68" x="206.830276" y="129.917292" style="fill: #daa520; stroke: #daa520"/>
     <use xlink:href="#m6def64ac68" x="106.725172" y="130.091495" style="fill: #daa520; stroke: #daa520"/>
     <use xlink:href="#m6def64ac68" x="94.855993" y="102.512289" style="fill: #daa520; stroke: #daa520"/>
     <use xlink:href="#m6def64ac68" x="80.375941" y="161.14924" style="fill: #daa520; stroke: #daa520"/>
     <use xlink:href="#m6def64ac68" x="182.401265" y="120.61632" style="fill: #daa520; stroke: #daa520"/>
     <use xlink:href="#m6def64ac68" x="163.023772" y="130.684109" style="fill: #daa520; stroke: #daa520"/>
     <use xlink:href="#m6def64ac68" x="63.962466" y="140.878445" style="fill: #daa520; stroke: #daa520"/>
    </g>
   </g>
   <g id="matplotlib.axis_3"/>
   <g id="matplotlib.axis_4">
    <g id="ytick_1">
     <g id="line2d_3">
      <defs>
       <path id="me7da16f2b1" d="M 0 0 
L -3.5 0 
" style="stroke: #696969; stroke-width: 0.8"/>
      </defs>
      <g>
       <use xlink:href="#me7da16f2b1" x="37.7875" y="123.532208" style="fill: #696969; stroke: #696969; stroke-width: 0.8"/>
      </g>
     </g>
     <g id="text_1">
      <!-- 0 -->
      <g style="fill: #696969" transform="translate(20.6075 129.610958) scale(0.16 -0.16)">
       <defs>
        <path id="DejaVuSans-30" d="M 2034 4250 
Q 1547 4250 1301 3770 
Q 1056 3291 1056 2328 
Q 1056 1369 1301 889 
Q 1547 409 2034 409 
Q 2525 409 2770 889 
Q 3016 1369 3016 2328 
Q 3016 3291 2770 3770 
Q 2525 4250 2034 4250 
z
M 2034 4750 
Q 2819 4750 3233 4129 
Q 3647 3509 3647 2328 
Q 3647 1150 3233 529 
Q 2819 -91 2034 -91 
Q 1250 -91 836 529 
Q 422 1150 422 2328 
Q 422 3509 836 4129 
Q 1250 4750 2034 4750 
z
" transform="scale(0.015625)"/>
       </defs>
       <use xlink:href="#DejaVuSans-30"/>
      </g>
     </g>
    </g>
    <g id="ytick_2">
     <g id="line2d_4">
      <g>
       <use xlink:href="#me7da16f2b1" x="37.7875" y="76.635371" style="fill: #696969; stroke: #696969; stroke-width: 0.8"/>
      </g>
     </g>
     <g id="text_2">
      <!-- 10 -->
      <g style="fill: #696969" transform="translate(10.4275 82.714121) scale(0.16 -0.16)">
       <defs>
        <path id="DejaVuSans-31" d="M 794 531 
L 1825 531 
L 1825 4091 
L 703 3866 
L 703 4441 
L 1819 4666 
L 2450 4666 
L 2450 531 
L 3481 531 
L 3481 0 
L 794 0 
L 794 531 
z
" transform="scale(0.015625)"/>
       </defs>
       <use xlink:href="#DejaVuSans-31"/>
       <use xlink:href="#DejaVuSans-30" x="63.623047"/>
      </g>
     </g>
    </g>
   </g>
   <g id="line2d_5">
    <path d="M 55.888409 137.38189 
L 63.128773 135.105862 
L 70.369136 131.970622 
L 77.6095 128.350506 
L 84.849864 124.731704 
L 92.090227 121.592597 
L 99.330591 119.276253 
L 106.570955 117.903666 
L 113.811318 117.369264 
L 121.051682 117.426735 
L 128.292045 117.826369 
L 135.532409 118.432806 
L 142.772773 119.259184 
L 150.013136 120.400792 
L 157.2535 121.911318 
L 164.493864 123.699003 
L 171.734227 125.506866 
L 178.974591 126.990141 
L 186.214955 127.848837 
L 193.455318 127.946162 
L 200.695682 127.356089 
L 207.936045 126.322203 
L 215.176409 125.152015 
L 222.416773 124.096822 
L 229.657136 123.269266 
L 236.8975 122.63067 
L 244.137864 122.047147 
L 251.378227 121.381483 
L 258.618591 120.572758 
L 265.858955 119.666079 
L 273.099318 118.785308 
L 280.339682 118.073605 
L 287.580045 117.640427 
L 294.820409 117.541611 
L 302.060773 117.791632 
L 309.301136 118.384003 
L 316.5415 119.293361 
L 323.781864 120.451944 
L 331.022227 121.719697 
L 338.262591 122.881325 
L 345.502955 123.693471 
L 352.743318 123.974384 
L 359.983682 123.695068 
L 367.224045 123.01745 
L 374.464409 122.244962 
L 381.704773 121.697014 
L 388.945136 121.565369 
L 396.1855 121.826353 
L 403.425864 122.255401 
L 410.666227 122.534882 
L 417.906591 122.39729 
" clip-path="url(#pcd009af42b)" style="fill: none; stroke: #000000; stroke-width: 2; stroke-linecap: square"/>
   </g>
   <g id="line2d_6">
    <path d="M 55.888409 132.909359 
L 63.128773 126.512732 
L 70.369136 122.079067 
L 77.6095 119.206493 
L 84.849864 117.554284 
L 92.090227 116.835786 
L 99.330591 116.81191 
L 106.570955 117.285182 
L 113.811318 118.09432 
L 121.051682 119.109305 
L 128.292045 120.226936 
L 135.532409 121.366832 
L 142.772773 122.467857 
L 150.013136 123.484952 
L 157.2535 124.386337 
L 164.493864 125.151064 
L 171.734227 125.766901 
L 178.974591 126.228508 
L 186.214955 126.535894 
L 193.455318 126.693122 
L 200.695682 126.707239 
L 207.936045 126.587405 
L 215.176409 126.344202 
L 222.416773 125.989082 
L 229.657136 125.533953 
L 236.8975 124.990856 
L 244.137864 124.371713 
L 251.378227 123.68814 
L 258.618591 122.951264 
L 265.858955 122.171557 
L 273.099318 121.358631 
L 280.339682 120.520992 
L 287.580045 119.66571 
L 294.820409 118.797994 
L 302.060773 117.920637 
L 309.301136 117.033309 
L 316.5415 116.131681 
L 323.781864 115.206336 
L 331.022227 114.241465 
L 338.262591 113.213301 
L 345.502955 112.088284 
L 352.743318 110.820923 
L 359.983682 109.351325 
L 367.224045 107.602382 
L 374.464409 105.476571 
L 381.704773 102.852358 
L 388.945136 99.580174 
L 396.1855 95.47794 
L 403.425864 90.326106 
L 410.666227 83.8622 
L 417.906591 75.774841 
" clip-path="url(#pcd009af42b)" style="fill: none; stroke-dasharray: 7.4,3.2; stroke-dashoffset: 0; stroke: #34b6c6; stroke-width: 2"/>
   </g>
   <g id="line2d_7">
    <path d="M 55.888409 124.729263 
L 63.128773 125.941298 
L 70.369136 124.87078 
L 77.6095 121.682448 
L 84.849864 118.559657 
L 92.090227 116.693858 
L 99.330591 116.001781 
L 106.570955 116.038446 
L 113.811318 116.408152 
L 121.051682 116.913542 
L 128.292045 117.513254 
L 135.532409 118.287263 
L 142.772773 119.432793 
L 150.013136 121.14544 
L 157.2535 123.453045 
L 164.493864 126.231243 
L 171.734227 128.609443 
L 178.974591 129.875966 
L 186.214955 130.329106 
L 193.455318 130.297347 
L 200.695682 129.831073 
L 207.936045 128.851659 
L 215.176409 127.436415 
L 222.416773 125.970242 
L 229.657136 124.765452 
L 236.8975 123.808827 
L 244.137864 122.933737 
L 251.378227 121.954351 
L 258.618591 120.732438 
L 265.858955 119.306523 
L 273.099318 117.938718 
L 280.339682 116.879528 
L 287.580045 116.18363 
L 294.820409 115.822936 
L 302.060773 115.858174 
L 309.301136 116.421951 
L 316.5415 117.246919 
L 323.781864 117.643037 
L 331.022227 117.42621 
L 338.262591 116.782747 
L 345.502955 115.854534 
L 352.743318 114.699403 
L 359.983682 113.330237 
L 367.224045 111.737614 
L 374.464409 109.899402 
L 381.704773 107.78468 
L 388.945136 105.3553 
L 396.1855 102.566409 
L 403.425864 99.366449 
L 410.666227 95.696908 
L 417.906591 91.491898 
" clip-path="url(#pcd009af42b)" style="fill: none; stroke-dasharray: 7.4,3.2; stroke-dashoffset: 0; stroke: #9370db; stroke-width: 2"/>
   </g>
   <g id="line2d_8">
    <path d="M 55.888409 135.417045 
L 63.128773 134.31991 
L 70.369136 131.602842 
L 77.6095 127.368146 
L 84.849864 123.420558 
L 92.090227 120.73347 
L 99.330591 119.210683 
L 106.570955 118.45452 
L 113.811318 118.111464 
L 121.051682 117.997389 
L 128.292045 118.06171 
L 135.532409 118.358007 
L 142.772773 119.040404 
L 150.013136 120.263332 
L 157.2535 122.041563 
L 164.493864 124.26313 
L 171.734227 126.189275 
L 178.974591 127.216039 
L 186.214955 127.590347 
L 193.455318 127.585361 
L 200.695682 127.240928 
L 207.936045 126.488971 
L 215.176409 125.393206 
L 222.416773 124.276716 
L 229.657136 123.401964 
L 236.8975 122.757902 
L 244.137864 122.204805 
L 251.378227 121.587223 
L 258.618591 120.790216 
L 265.858955 119.84809 
L 273.099318 118.983855 
L 280.339682 118.411376 
L 287.580045 118.180428 
L 294.820409 118.271962 
L 302.060773 118.742619 
L 309.301136 119.710636 
L 316.5415 120.958933 
L 323.781864 121.916175 
L 331.022227 122.438476 
L 338.262591 122.695568 
L 345.502955 122.82196 
L 352.743318 122.883854 
L 359.983682 122.912357 
L 367.224045 122.92286 
L 374.464409 122.923453 
L 381.704773 122.9186 
L 388.945136 122.910844 
L 396.1855 122.901663 
L 403.425864 122.891919 
L 410.666227 122.882111 
L 417.906591 122.872521 
" clip-path="url(#pcd009af42b)" style="fill: none; stroke-dasharray: 12.8,3.2,2,3.2; stroke-dashoffset: 0; stroke: #ff0000; stroke-width: 2"/>
   </g>
   <g id="patch_4">
    <path d="M 37.7875 165.41796 
L 37.7875 71.506121 
" style="fill: none; stroke: #000000; stroke-width: 0.8; stroke-linejoin: miter; stroke-linecap: square"/>
   </g>
   <g id="patch_5">
    <path d="M 436.0075 165.41796 
L 436.0075 71.506121 
" style="fill: none; stroke: #000000; stroke-width: 0.8; stroke-linejoin: miter; stroke-linecap: square"/>
   </g>
   <g id="patch_6">
    <path d="M 37.7875 165.41796 
L 436.0075 165.41796 
" style="fill: none; stroke: #000000; stroke-width: 0.8; stroke-linejoin: miter; stroke-linecap: square"/>
   </g>
   <g id="patch_7">
    <path d="M 37.7875 71.506121 
L 436.0075 71.506121 
" style="fill: none; stroke: #000000; stroke-width: 0.8; stroke-linejoin: miter; stroke-linecap: square"/>
   </g>
  </g>
  <g id="axes_3">
   <g id="patch_8">
    <path d="M 37.7875 276.68 
L 436.0075 276.68 
L 436.0075 182.768161 
L 37.7875 182.768161 
z
" style="fill: #ffffff"/>
   </g>
   <g id="PathCollection_2">
    <g clip-path="url(#p2c499156cf)">
     <use xlink:href="#m6def64ac68" x="89.890642" y="241.670685" style="fill: #daa520; stroke: #daa520"/>
     <use xlink:href="#m6def64ac68" x="377.799742" y="259.760094" style="fill: #daa520; stroke: #daa520"/>
     <use xlink:href="#m6def64ac68" x="124.04858" y="205.508057" style="fill: #daa520; stroke: #daa520"/>
     <use xlink:href="#m6def64ac68" x="134.085907" y="248.662272" style="fill: #daa520; stroke: #daa520"/>
     <use xlink:href="#m6def64ac68" x="92.365656" y="246.759547" style="fill: #daa520; stroke: #daa520"/>
     <use xlink:href="#m6def64ac68" x="238.411298" y="218.957807" style="fill: #daa520; stroke: #daa520"/>
     <use xlink:href="#m6def64ac68" x="331.57176" y="239.50607" style="fill: #daa520; stroke: #daa520"/>
     <use xlink:href="#m6def64ac68" x="261.248792" y="236.614799" style="fill: #daa520; stroke: #daa520"/>
     <use xlink:href="#m6def64ac68" x="218.013248" y="226.854676" style="fill: #daa520; stroke: #daa520"/>
     <use xlink:href="#m6def64ac68" x="297.366476" y="241.047158" style="fill: #daa520; stroke: #daa520"/>
     <use xlink:href="#m6def64ac68" x="114.645393" y="199.565027" style="fill: #daa520; stroke: #daa520"/>
     <use xlink:href="#m6def64ac68" x="91.006026" y="266.396002" style="fill: #daa520; stroke: #daa520"/>
     <use xlink:href="#m6def64ac68" x="113.521874" y="242.165747" style="fill: #daa520; stroke: #daa520"/>
     <use xlink:href="#m6def64ac68" x="94.564415" y="255.598474" style="fill: #daa520; stroke: #daa520"/>
     <use xlink:href="#m6def64ac68" x="211.600745" y="228.31569" style="fill: #daa520; stroke: #daa520"/>
     <use xlink:href="#m6def64ac68" x="281.581167" y="245.785242" style="fill: #daa520; stroke: #daa520"/>
     <use xlink:href="#m6def64ac68" x="71.52201" y="253.7512" style="fill: #daa520; stroke: #daa520"/>
     <use xlink:href="#m6def64ac68" x="295.000128" y="242.077114" style="fill: #daa520; stroke: #daa520"/>
     <use xlink:href="#m6def64ac68" x="210.835175" y="226.928269" style="fill: #daa520; stroke: #daa520"/>
     <use xlink:href="#m6def64ac68" x="83.355334" y="187.036881" style="fill: #daa520; stroke: #daa520"/>
     <use xlink:href="#m6def64ac68" x="210.830679" y="227.610659" style="fill: #daa520; stroke: #daa520"/>
     <use xlink:href="#m6def64ac68" x="238.610848" y="230.990736" style="fill: #daa520; stroke: #daa520"/>
     <use xlink:href="#m6def64ac68" x="314.888489" y="212.10608" style="fill: #daa520; stroke: #daa520"/>
     <use xlink:href="#m6def64ac68" x="160.66091" y="218.420482" style="fill: #daa520; stroke: #daa520"/>
     <use xlink:href="#m6def64ac68" x="344.51328" y="236.757802" style="fill: #daa520; stroke: #daa520"/>
     <use xlink:href="#m6def64ac68" x="255.116497" y="239.013029" style="fill: #daa520; stroke: #daa520"/>
     <use xlink:href="#m6def64ac68" x="385.202751" y="258.128894" style="fill: #daa520; stroke: #daa520"/>
     <use xlink:href="#m6def64ac68" x="160.775356" y="218.076182" style="fill: #daa520; stroke: #daa520"/>
     <use xlink:href="#m6def64ac68" x="209.594609" y="229.293043" style="fill: #daa520; stroke: #daa520"/>
     <use xlink:href="#m6def64ac68" x="193.453381" y="223.764669" style="fill: #daa520; stroke: #daa520"/>
     <use xlink:href="#m6def64ac68" x="150.957733" y="215.896786" style="fill: #daa520; stroke: #daa520"/>
     <use xlink:href="#m6def64ac68" x="287.203082" y="217.628427" style="fill: #daa520; stroke: #daa520"/>
     <use xlink:href="#m6def64ac68" x="171.52159" y="222.568749" style="fill: #daa520; stroke: #daa520"/>
     <use xlink:href="#m6def64ac68" x="226.233267" y="228.657613" style="fill: #daa520; stroke: #daa520"/>
     <use xlink:href="#m6def64ac68" x="121.903639" y="259.013037" style="fill: #daa520; stroke: #daa520"/>
     <use xlink:href="#m6def64ac68" x="163.514871" y="217.774538" style="fill: #daa520; stroke: #daa520"/>
     <use xlink:href="#m6def64ac68" x="95.64803" y="259.435844" style="fill: #daa520; stroke: #daa520"/>
     <use xlink:href="#m6def64ac68" x="231.264365" y="234.715317" style="fill: #daa520; stroke: #daa520"/>
     <use xlink:href="#m6def64ac68" x="198.304063" y="227.239938" style="fill: #daa520; stroke: #daa520"/>
     <use xlink:href="#m6def64ac68" x="336.856054" y="212.315387" style="fill: #daa520; stroke: #daa520"/>
     <use xlink:href="#m6def64ac68" x="137.146388" y="240.424547" style="fill: #daa520; stroke: #daa520"/>
     <use xlink:href="#m6def64ac68" x="98.931709" y="228.462864" style="fill: #daa520; stroke: #daa520"/>
     <use xlink:href="#m6def64ac68" x="65.821366" y="207.987861" style="fill: #daa520; stroke: #daa520"/>
     <use xlink:href="#m6def64ac68" x="100.839959" y="243.534365" style="fill: #daa520; stroke: #daa520"/>
     <use xlink:href="#m6def64ac68" x="237.60233" y="219.058088" style="fill: #daa520; stroke: #daa520"/>
     <use xlink:href="#m6def64ac68" x="237.800493" y="233.516571" style="fill: #daa520; stroke: #daa520"/>
     <use xlink:href="#m6def64ac68" x="175.254967" y="235.869347" style="fill: #daa520; stroke: #daa520"/>
     <use xlink:href="#m6def64ac68" x="207.230047" y="229.635504" style="fill: #daa520; stroke: #daa520"/>
     <use xlink:href="#m6def64ac68" x="212.031912" y="234.876367" style="fill: #daa520; stroke: #daa520"/>
     <use xlink:href="#m6def64ac68" x="148.352149" y="228.001088" style="fill: #daa520; stroke: #daa520"/>
     <use xlink:href="#m6def64ac68" x="177.44024" y="225.595398" style="fill: #daa520; stroke: #daa520"/>
     <use xlink:href="#m6def64ac68" x="139.75227" y="246.711756" style="fill: #daa520; stroke: #daa520"/>
     <use xlink:href="#m6def64ac68" x="138.1639" y="241.089873" style="fill: #daa520; stroke: #daa520"/>
     <use xlink:href="#m6def64ac68" x="72.401321" y="259.105151" style="fill: #daa520; stroke: #daa520"/>
     <use xlink:href="#m6def64ac68" x="265.803555" y="249.779721" style="fill: #daa520; stroke: #daa520"/>
     <use xlink:href="#m6def64ac68" x="60.919481" y="242.129731" style="fill: #daa520; stroke: #daa520"/>
     <use xlink:href="#m6def64ac68" x="189.868586" y="228.828332" style="fill: #daa520; stroke: #daa520"/>
     <use xlink:href="#m6def64ac68" x="109.819823" y="203.880026" style="fill: #daa520; stroke: #daa520"/>
     <use xlink:href="#m6def64ac68" x="175.552631" y="220.644272" style="fill: #daa520; stroke: #daa520"/>
     <use xlink:href="#m6def64ac68" x="289.981454" y="238.493707" style="fill: #daa520; stroke: #daa520"/>
     <use xlink:href="#m6def64ac68" x="140.101157" y="214.346325" style="fill: #daa520; stroke: #daa520"/>
     <use xlink:href="#m6def64ac68" x="194.74648" y="225.79396" style="fill: #daa520; stroke: #daa520"/>
     <use xlink:href="#m6def64ac68" x="101.221568" y="212.604223" style="fill: #daa520; stroke: #daa520"/>
     <use xlink:href="#m6def64ac68" x="163.969216" y="226.596601" style="fill: #daa520; stroke: #daa520"/>
     <use xlink:href="#m6def64ac68" x="208.819311" y="227.881303" style="fill: #daa520; stroke: #daa520"/>
     <use xlink:href="#m6def64ac68" x="67.296205" y="250.041672" style="fill: #daa520; stroke: #daa520"/>
     <use xlink:href="#m6def64ac68" x="124.476093" y="242.415575" style="fill: #daa520; stroke: #daa520"/>
     <use xlink:href="#m6def64ac68" x="228.489588" y="223.288628" style="fill: #daa520; stroke: #daa520"/>
     <use xlink:href="#m6def64ac68" x="255.032977" y="212.896245" style="fill: #daa520; stroke: #daa520"/>
     <use xlink:href="#m6def64ac68" x="145.30114" y="215.505357" style="fill: #daa520; stroke: #daa520"/>
     <use xlink:href="#m6def64ac68" x="190.079626" y="240.61406" style="fill: #daa520; stroke: #daa520"/>
     <use xlink:href="#m6def64ac68" x="99.312915" y="198.287247" style="fill: #daa520; stroke: #daa520"/>
     <use xlink:href="#m6def64ac68" x="123.331949" y="237.607266" style="fill: #daa520; stroke: #daa520"/>
     <use xlink:href="#m6def64ac68" x="304.291429" y="244.394893" style="fill: #daa520; stroke: #daa520"/>
     <use xlink:href="#m6def64ac68" x="251.813007" y="213.583873" style="fill: #daa520; stroke: #daa520"/>
     <use xlink:href="#m6def64ac68" x="163.908122" y="235.989432" style="fill: #daa520; stroke: #daa520"/>
     <use xlink:href="#m6def64ac68" x="68.862043" y="236.20495" style="fill: #daa520; stroke: #daa520"/>
     <use xlink:href="#m6def64ac68" x="183.043404" y="221.360652" style="fill: #daa520; stroke: #daa520"/>
     <use xlink:href="#m6def64ac68" x="217.263415" y="230.364474" style="fill: #daa520; stroke: #daa520"/>
     <use xlink:href="#m6def64ac68" x="301.126859" y="241.111776" style="fill: #daa520; stroke: #daa520"/>
     <use xlink:href="#m6def64ac68" x="165.546273" y="229.313881" style="fill: #daa520; stroke: #daa520"/>
     <use xlink:href="#m6def64ac68" x="160.965298" y="221.360455" style="fill: #daa520; stroke: #daa520"/>
     <use xlink:href="#m6def64ac68" x="272.540407" y="243.705787" style="fill: #daa520; stroke: #daa520"/>
     <use xlink:href="#m6def64ac68" x="88.393345" y="247.836774" style="fill: #daa520; stroke: #daa520"/>
     <use xlink:href="#m6def64ac68" x="139.811981" y="237.707092" style="fill: #daa520; stroke: #daa520"/>
     <use xlink:href="#m6def64ac68" x="186.835786" y="228.085552" style="fill: #daa520; stroke: #daa520"/>
     <use xlink:href="#m6def64ac68" x="151.275712" y="232.666484" style="fill: #daa520; stroke: #daa520"/>
     <use xlink:href="#m6def64ac68" x="65.369158" y="272.41128" style="fill: #daa520; stroke: #daa520"/>
     <use xlink:href="#m6def64ac68" x="283.663954" y="245.756038" style="fill: #daa520; stroke: #daa520"/>
     <use xlink:href="#m6def64ac68" x="264.920606" y="209.470259" style="fill: #daa520; stroke: #daa520"/>
     <use xlink:href="#m6def64ac68" x="268.532393" y="209.304998" style="fill: #daa520; stroke: #daa520"/>
     <use xlink:href="#m6def64ac68" x="86.805226" y="267.789889" style="fill: #daa520; stroke: #daa520"/>
     <use xlink:href="#m6def64ac68" x="206.830276" y="226.063825" style="fill: #daa520; stroke: #daa520"/>
     <use xlink:href="#m6def64ac68" x="106.725172" y="215.92005" style="fill: #daa520; stroke: #daa520"/>
     <use xlink:href="#m6def64ac68" x="94.855993" y="251.307317" style="fill: #daa520; stroke: #daa520"/>
     <use xlink:href="#m6def64ac68" x="80.375941" y="187.091104" style="fill: #daa520; stroke: #daa520"/>
     <use xlink:href="#m6def64ac68" x="182.401265" y="238.343323" style="fill: #daa520; stroke: #daa520"/>
     <use xlink:href="#m6def64ac68" x="163.023772" y="221.700651" style="fill: #daa520; stroke: #daa520"/>
     <use xlink:href="#m6def64ac68" x="63.962466" y="221.835958" style="fill: #daa520; stroke: #daa520"/>
    </g>
   </g>
   <g id="matplotlib.axis_5">
    <g id="xtick_1">
     <g id="line2d_9">
      <defs>
       <path id="m3d923715aa" d="M 0 0 
L 0 3.5 
" style="stroke: #696969; stroke-width: 0.8"/>
      </defs>
      <g>
       <use xlink:href="#m3d923715aa" x="55.888409" y="276.68" style="fill: #696969; stroke: #696969; stroke-width: 0.8"/>
      </g>
     </g>
     <g id="text_3">
      <!-- −1.0 -->
      <g style="fill: #696969" transform="translate(36.462159 295.8375) scale(0.16 -0.16)">
       <defs>
        <path id="DejaVuSans-2212" d="M 678 2272 
L 4684 2272 
L 4684 1741 
L 678 1741 
L 678 2272 
z
" transform="scale(0.015625)"/>
        <path id="DejaVuSans-2e" d="M 684 794 
L 1344 794 
L 1344 0 
L 684 0 
L 684 794 
z
" transform="scale(0.015625)"/>
       </defs>
       <use xlink:href="#DejaVuSans-2212"/>
       <use xlink:href="#DejaVuSans-31" x="83.789062"/>
       <use xlink:href="#DejaVuSans-2e" x="147.412109"/>
       <use xlink:href="#DejaVuSans-30" x="179.199219"/>
      </g>
     </g>
    </g>
    <g id="xtick_2">
     <g id="line2d_10">
      <g>
       <use xlink:href="#m3d923715aa" x="146.392955" y="276.68" style="fill: #696969; stroke: #696969; stroke-width: 0.8"/>
      </g>
     </g>
     <g id="text_4">
      <!-- −0.5 -->
      <g style="fill: #696969" transform="translate(126.966705 295.8375) scale(0.16 -0.16)">
       <defs>
        <path id="DejaVuSans-35" d="M 691 4666 
L 3169 4666 
L 3169 4134 
L 1269 4134 
L 1269 2991 
Q 1406 3038 1543 3061 
Q 1681 3084 1819 3084 
Q 2600 3084 3056 2656 
Q 3513 2228 3513 1497 
Q 3513 744 3044 326 
Q 2575 -91 1722 -91 
Q 1428 -91 1123 -41 
Q 819 9 494 109 
L 494 744 
Q 775 591 1075 516 
Q 1375 441 1709 441 
Q 2250 441 2565 725 
Q 2881 1009 2881 1497 
Q 2881 1984 2565 2268 
Q 2250 2553 1709 2553 
Q 1456 2553 1204 2497 
Q 953 2441 691 2322 
L 691 4666 
z
" transform="scale(0.015625)"/>
       </defs>
       <use xlink:href="#DejaVuSans-2212"/>
       <use xlink:href="#DejaVuSans-30" x="83.789062"/>
       <use xlink:href="#DejaVuSans-2e" x="147.412109"/>
       <use xlink:href="#DejaVuSans-35" x="179.199219"/>
      </g>
     </g>
    </g>
    <g id="xtick_3">
     <g id="line2d_11">
      <g>
       <use xlink:href="#m3d923715aa" x="236.8975" y="276.68" style="fill: #696969; stroke: #696969; stroke-width: 0.8"/>
      </g>
     </g>
     <g id="text_5">
      <!-- 0.0 -->
      <g style="fill: #696969" transform="translate(224.175 295.8375) scale(0.16 -0.16)">
       <use xlink:href="#DejaVuSans-30"/>
       <use xlink:href="#DejaVuSans-2e" x="63.623047"/>
       <use xlink:href="#DejaVuSans-30" x="95.410156"/>
      </g>
     </g>
    </g>
    <g id="xtick_4">
     <g id="line2d_12">
      <g>
       <use xlink:href="#m3d923715aa" x="327.402045" y="276.68" style="fill: #696969; stroke: #696969; stroke-width: 0.8"/>
      </g>
     </g>
     <g id="text_6">
      <!-- 0.5 -->
      <g style="fill: #696969" transform="translate(314.679545 295.8375) scale(0.16 -0.16)">
       <use xlink:href="#DejaVuSans-30"/>
       <use xlink:href="#DejaVuSans-2e" x="63.623047"/>
       <use xlink:href="#DejaVuSans-35" x="95.410156"/>
      </g>
     </g>
    </g>
    <g id="xtick_5">
     <g id="line2d_13">
      <g>
       <use xlink:href="#m3d923715aa" x="417.906591" y="276.68" style="fill: #696969; stroke: #696969; stroke-width: 0.8"/>
      </g>
     </g>
     <g id="text_7">
      <!-- 1.0 -->
      <g style="fill: #696969" transform="translate(405.184091 295.8375) scale(0.16 -0.16)">
       <use xlink:href="#DejaVuSans-31"/>
       <use xlink:href="#DejaVuSans-2e" x="63.623047"/>
       <use xlink:href="#DejaVuSans-30" x="95.410156"/>
      </g>
     </g>
    </g>
    <g id="text_8">
     <!-- $X$ -->
     <g transform="translate(231.3775 315.3225) scale(0.16 -0.16)">
      <defs>
       <path id="DejaVuSans-Oblique-58" d="M 878 4666 
L 1516 4666 
L 2316 2981 
L 3763 4666 
L 4500 4666 
L 2578 2438 
L 3738 0 
L 3103 0 
L 2163 1966 
L 459 0 
L -275 0 
L 1906 2509 
L 878 4666 
z
" transform="scale(0.015625)"/>
      </defs>
      <use xlink:href="#DejaVuSans-Oblique-58" transform="translate(0 0.09375)"/>
     </g>
    </g>
   </g>
   <g id="matplotlib.axis_6">
    <g id="ytick_3">
     <g id="line2d_14">
      <g>
       <use xlink:href="#me7da16f2b1" x="37.7875" y="258.497703" style="fill: #696969; stroke: #696969; stroke-width: 0.8"/>
      </g>
     </g>
     <g id="text_9">
      <!-- −5 -->
      <g style="fill: #696969" transform="translate(7.2 264.576453) scale(0.16 -0.16)">
       <use xlink:href="#DejaVuSans-2212"/>
       <use xlink:href="#DejaVuSans-35" x="83.789062"/>
      </g>
     </g>
    </g>
    <g id="ytick_4">
     <g id="line2d_15">
      <g>
       <use xlink:href="#me7da16f2b1" x="37.7875" y="230.050672" style="fill: #696969; stroke: #696969; stroke-width: 0.8"/>
      </g>
     </g>
     <g id="text_10">
      <!-- 0 -->
      <g style="fill: #696969" transform="translate(20.6075 236.129422) scale(0.16 -0.16)">
       <use xlink:href="#DejaVuSans-30"/>
      </g>
     </g>
    </g>
    <g id="ytick_5">
     <g id="line2d_16">
      <g>
       <use xlink:href="#me7da16f2b1" x="37.7875" y="201.60364" style="fill: #696969; stroke: #696969; stroke-width: 0.8"/>
      </g>
     </g>
     <g id="text_11">
      <!-- 5 -->
      <g style="fill: #696969" transform="translate(20.6075 207.68239) scale(0.16 -0.16)">
       <use xlink:href="#DejaVuSans-35"/>
      </g>
     </g>
    </g>
   </g>
   <g id="line2d_17">
    <path d="M 55.888409 227.666972 
L 63.128773 229.097175 
L 70.369136 229.60449 
L 77.6095 228.858898 
L 84.849864 228.460023 
L 92.090227 229.0084 
L 99.330591 229.971124 
L 106.570955 230.718953 
L 113.811318 230.951089 
L 121.051682 230.742975 
L 128.292045 230.336182 
L 135.532409 229.959927 
L 142.772773 229.785253 
L 150.013136 229.883909 
L 157.2535 230.208682 
L 164.493864 230.735056 
L 171.734227 230.878553 
L 178.974591 230.324725 
L 186.214955 229.737079 
L 193.455318 229.612957 
L 200.695682 229.910962 
L 207.936045 230.25299 
L 215.176409 230.343279 
L 222.416773 230.268914 
L 229.657136 230.211657 
L 236.8975 230.205027 
L 244.137864 230.241939 
L 251.378227 230.300271 
L 258.618591 230.314486 
L 265.858955 230.271483 
L 273.099318 230.291544 
L 280.339682 230.460447 
L 287.580045 230.705788 
L 294.820409 230.936715 
L 302.060773 231.204385 
L 309.301136 231.66011 
L 316.5415 232.071303 
L 323.781864 231.82704 
L 331.022227 230.922676 
L 338.262591 229.825316 
L 345.502955 228.993377 
L 352.743318 228.727668 
L 359.983682 229.101107 
L 367.224045 229.935917 
L 374.464409 230.8738 
L 381.704773 231.532668 
L 388.945136 231.682968 
L 396.1855 231.355212 
L 403.425864 230.82288 
L 410.666227 230.471922 
L 417.906591 230.627211 
" clip-path="url(#p2c499156cf)" style="fill: none; stroke: #696969; stroke-width: 2; stroke-linecap: square"/>
   </g>
   <g id="line2d_18">
    <path d="M 55.888409 243.069304 
L 63.128773 240.89912 
L 70.369136 238.964439 
L 77.6095 237.247516 
L 84.849864 235.731075 
L 92.090227 234.398472 
L 99.330591 233.233806 
L 106.570955 232.222025 
L 113.811318 231.348995 
L 121.051682 230.601552 
L 128.292045 229.967533 
L 135.532409 229.435791 
L 142.772773 228.996197 
L 150.013136 228.639617 
L 157.2535 228.357898 
L 164.493864 228.143822 
L 171.734227 227.991072 
L 178.974591 227.894181 
L 186.214955 227.848485 
L 193.455318 227.850072 
L 200.695682 227.89573 
L 207.936045 227.982908 
L 215.176409 228.10967 
L 222.416773 228.274666 
L 229.657136 228.477108 
L 236.8975 228.716764 
L 244.137864 228.993952 
L 251.378227 229.309571 
L 258.618591 229.66513 
L 265.858955 230.062809 
L 273.099318 230.505541 
L 280.339682 230.997113 
L 287.580045 231.542301 
L 294.820409 232.147029 
L 302.060773 232.818557 
L 309.301136 233.565711 
L 316.5415 234.399134 
L 323.781864 235.331587 
L 331.022227 236.378281 
L 338.262591 237.557256 
L 345.502955 238.889797 
L 352.743318 240.400904 
L 359.983682 242.119796 
L 367.224045 244.080483 
L 374.464409 246.322374 
L 381.704773 248.890944 
L 388.945136 251.838462 
L 396.1855 255.224769 
L 403.425864 259.118124 
L 410.666227 263.596103 
L 417.906591 268.746571 
" clip-path="url(#p2c499156cf)" style="fill: none; stroke-dasharray: 7.4,3.2; stroke-dashoffset: 0; stroke: #79ad41; stroke-width: 2"/>
   </g>
   <g id="patch_9">
    <path d="M 37.7875 276.68 
L 37.7875 182.768161 
" style="fill: none; stroke: #000000; stroke-width: 0.8; stroke-linejoin: miter; stroke-linecap: square"/>
   </g>
   <g id="patch_10">
    <path d="M 436.0075 276.68 
L 436.0075 182.768161 
" style="fill: none; stroke: #000000; stroke-width: 0.8; stroke-linejoin: miter; stroke-linecap: square"/>
   </g>
   <g id="patch_11">
    <path d="M 37.7875 276.68 
L 436.0075 276.68 
" style="fill: none; stroke: #000000; stroke-width: 0.8; stroke-linejoin: miter; stroke-linecap: square"/>
   </g>
   <g id="patch_12">
    <path d="M 37.7875 182.768161 
L 436.0075 182.768161 
" style="fill: none; stroke: #000000; stroke-width: 0.8; stroke-linejoin: miter; stroke-linecap: square"/>
   </g>
  </g>
 </g>
 <defs>
  <clipPath id="pe66aa7a30f">
   <rect x="37.7875" y="7.2" width="398.22" height="46.955919"/>
  </clipPath>
  <clipPath id="pcd009af42b">
   <rect x="37.7875" y="71.506121" width="398.22" height="93.911839"/>
  </clipPath>
  <clipPath id="p2c499156cf">
   <rect x="37.7875" y="182.768161" width="398.22" height="93.911839"/>
  </clipPath>
 </defs>
</svg>
