<?xml version="1.0" encoding="utf-8" standalone="no"?>
<!DOCTYPE svg PUBLIC "-//W3C//DTD SVG 1.1//EN"
  "http://www.w3.org/Graphics/SVG/1.1/DTD/svg11.dtd">
<svg xmlns:xlink="http://www.w3.org/1999/xlink" width="443.2625pt" height="325.85pt" viewBox="0 0 443.2625 325.85" xmlns="http://www.w3.org/2000/svg" version="1.1">
 <metadata>
  <rdf:RDF xmlns:dc="http://purl.org/dc/elements/1.1/" xmlns:cc="http://creativecommons.org/ns#" xmlns:rdf="http://www.w3.org/1999/02/22-rdf-syntax-ns#">
   <cc:Work>
    <dc:type rdf:resource="http://purl.org/dc/dcmitype/StillImage"/>
    <dc:date>2024-01-28T20:58:26.245934</dc:date>
    <dc:format>image/svg+xml</dc:format>
    <dc:creator>
     <cc:Agent>
      <dc:title>Matplotlib v3.7.2, https://matplotlib.org/</dc:title>
     </cc:Agent>
    </dc:creator>
   </cc:Work>
  </rdf:RDF>
 </metadata>
 <defs>
  <style type="text/css">*{stroke-linejoin: round; stroke-linecap: butt}</style>
 </defs>
 <g id="figure_1">
  <g id="patch_1">
   <path d="M 0 325.85 
L 443.2625 325.85 
L 443.2625 0 
L 0 0 
z
" style="fill: #ffffff"/>
  </g>
  <g id="axes_1">
   <g id="patch_2">
    <path d="M 53.0525 54.696 
L 436.0625 54.696 
L 436.0625 7.2 
L 53.0525 7.2 
z
" style="fill: #ffffff"/>
   </g>
   <g id="PolyCollection_1">
    <defs>
     <path id="m114ae449ab" d="M 70.462045 -273.312909 
L 70.462045 -316.491091 
L 77.425864 -316.491091 
L 84.389682 -316.491091 
L 91.3535 -316.491091 
L 98.317318 -316.491091 
L 105.281136 -316.491091 
L 112.244955 -316.491091 
L 119.208773 -316.491091 
L 126.172591 -316.491091 
L 133.136409 -316.491091 
L 140.100227 -316.491091 
L 147.064045 -316.491091 
L 154.027864 -315.536541 
L 160.991682 -314.305535 
L 167.9555 -312.875768 
L 174.919318 -311.249317 
L 181.883136 -309.440938 
L 188.846955 -307.47885 
L 195.810773 -305.403416 
L 202.774591 -303.263709 
L 209.738409 -301.112587 
L 216.702227 -299.001295 
L 223.666045 -296.974731 
L 230.629864 -295.068253 
L 237.593682 -293.306278 
L 244.5575 -291.702569 
L 251.521318 -290.261634 
L 258.485136 -288.980679 
L 265.448955 -287.851739 
L 272.412773 -286.863535 
L 279.376591 -286.002979 
L 286.340409 -285.256311 
L 293.304227 -284.60982 
L 300.268045 -284.050335 
L 307.231864 -283.565452 
L 314.195682 -283.143648 
L 321.1595 -282.774279 
L 328.123318 -282.447535 
L 335.087136 -282.154394 
L 342.050955 -281.886543 
L 349.014773 -281.636349 
L 355.978591 -281.396814 
L 362.942409 -281.1616 
L 369.906227 -280.925038 
L 376.870045 -280.6822 
L 383.833864 -280.428952 
L 390.797682 -280.162033 
L 397.7615 -279.879145 
L 404.725318 -279.579013 
L 411.689136 -279.261435 
L 418.652955 -278.927284 
L 418.652955 -273.312909 
L 418.652955 -273.312909 
L 411.689136 -273.312909 
L 404.725318 -273.312909 
L 397.7615 -273.312909 
L 390.797682 -273.312909 
L 383.833864 -273.312909 
L 376.870045 -273.312909 
L 369.906227 -273.312909 
L 362.942409 -273.312909 
L 355.978591 -273.312909 
L 349.014773 -273.312909 
L 342.050955 -273.312909 
L 335.087136 -273.312909 
L 328.123318 -273.312909 
L 321.1595 -273.312909 
L 314.195682 -273.312909 
L 307.231864 -273.312909 
L 300.268045 -273.312909 
L 293.304227 -273.312909 
L 286.340409 -273.312909 
L 279.376591 -273.312909 
L 272.412773 -273.312909 
L 265.448955 -273.312909 
L 258.485136 -273.312909 
L 251.521318 -273.312909 
L 244.5575 -273.312909 
L 237.593682 -273.312909 
L 230.629864 -273.312909 
L 223.666045 -273.312909 
L 216.702227 -273.312909 
L 209.738409 -273.312909 
L 202.774591 -273.312909 
L 195.810773 -273.312909 
L 188.846955 -273.312909 
L 181.883136 -273.312909 
L 174.919318 -273.312909 
L 167.9555 -273.312909 
L 160.991682 -273.312909 
L 154.027864 -273.312909 
L 147.064045 -273.312909 
L 140.100227 -273.312909 
L 133.136409 -273.312909 
L 126.172591 -273.312909 
L 119.208773 -273.312909 
L 112.244955 -273.312909 
L 105.281136 -273.312909 
L 98.317318 -273.312909 
L 91.3535 -273.312909 
L 84.389682 -273.312909 
L 77.425864 -273.312909 
L 70.462045 -273.312909 
z
" style="stroke: #dc143c; stroke-opacity: 0.2"/>
    </defs>
    <g clip-path="url(#p6988984b44)">
     <use xlink:href="#m114ae449ab" x="0" y="325.85" style="fill: #dc143c; fill-opacity: 0.2; stroke: #dc143c; stroke-opacity: 0.2"/>
    </g>
   </g>
   <g id="PolyCollection_2">
    <defs>
     <path id="m5493345f7c" d="M 70.462045 -273.312909 
L 70.462045 -278.110485 
L 77.425864 -278.110485 
L 84.389682 -278.110485 
L 91.3535 -278.110485 
L 98.317318 -278.110485 
L 105.281136 -278.110485 
L 112.244955 -278.110485 
L 119.208773 -278.110485 
L 126.172591 -278.110485 
L 133.136409 -278.110485 
L 140.100227 -278.110485 
L 147.064045 -278.110485 
L 154.027864 -279.065035 
L 160.991682 -280.296041 
L 167.9555 -281.725807 
L 174.919318 -283.352259 
L 181.883136 -285.160638 
L 188.846955 -287.122725 
L 195.810773 -289.19816 
L 202.774591 -291.337867 
L 209.738409 -293.488989 
L 216.702227 -295.600281 
L 223.666045 -297.626845 
L 230.629864 -299.533323 
L 237.593682 -301.295297 
L 244.5575 -302.899007 
L 251.521318 -304.339942 
L 258.485136 -305.620897 
L 265.448955 -306.749837 
L 272.412773 -307.738041 
L 279.376591 -308.598596 
L 286.340409 -309.345265 
L 293.304227 -309.991755 
L 300.268045 -310.551241 
L 307.231864 -311.036124 
L 314.195682 -311.457928 
L 321.1595 -311.827297 
L 328.123318 -312.154041 
L 335.087136 -312.447182 
L 342.050955 -312.715033 
L 349.014773 -312.965226 
L 355.978591 -313.204762 
L 362.942409 -313.439976 
L 369.906227 -313.676537 
L 376.870045 -313.919376 
L 383.833864 -314.172623 
L 390.797682 -314.439543 
L 397.7615 -314.722431 
L 404.725318 -315.022563 
L 411.689136 -315.340141 
L 418.652955 -315.674291 
L 418.652955 -273.312909 
L 418.652955 -273.312909 
L 411.689136 -273.312909 
L 404.725318 -273.312909 
L 397.7615 -273.312909 
L 390.797682 -273.312909 
L 383.833864 -273.312909 
L 376.870045 -273.312909 
L 369.906227 -273.312909 
L 362.942409 -273.312909 
L 355.978591 -273.312909 
L 349.014773 -273.312909 
L 342.050955 -273.312909 
L 335.087136 -273.312909 
L 328.123318 -273.312909 
L 321.1595 -273.312909 
L 314.195682 -273.312909 
L 307.231864 -273.312909 
L 300.268045 -273.312909 
L 293.304227 -273.312909 
L 286.340409 -273.312909 
L 279.376591 -273.312909 
L 272.412773 -273.312909 
L 265.448955 -273.312909 
L 258.485136 -273.312909 
L 251.521318 -273.312909 
L 244.5575 -273.312909 
L 237.593682 -273.312909 
L 230.629864 -273.312909 
L 223.666045 -273.312909 
L 216.702227 -273.312909 
L 209.738409 -273.312909 
L 202.774591 -273.312909 
L 195.810773 -273.312909 
L 188.846955 -273.312909 
L 181.883136 -273.312909 
L 174.919318 -273.312909 
L 167.9555 -273.312909 
L 160.991682 -273.312909 
L 154.027864 -273.312909 
L 147.064045 -273.312909 
L 140.100227 -273.312909 
L 133.136409 -273.312909 
L 126.172591 -273.312909 
L 119.208773 -273.312909 
L 112.244955 -273.312909 
L 105.281136 -273.312909 
L 98.317318 -273.312909 
L 91.3535 -273.312909 
L 84.389682 -273.312909 
L 77.425864 -273.312909 
L 70.462045 -273.312909 
z
" style="stroke: #000080; stroke-opacity: 0.2"/>
    </defs>
    <g clip-path="url(#p6988984b44)">
     <use xlink:href="#m5493345f7c" x="0" y="325.85" style="fill: #000080; fill-opacity: 0.2; stroke: #000080; stroke-opacity: 0.2"/>
    </g>
   </g>
   <g id="matplotlib.axis_1"/>
   <g id="matplotlib.axis_2"/>
   <g id="line2d_1">
    <path d="M 70.462045 9.358909 
L 77.425864 9.358909 
L 84.389682 9.358909 
L 91.3535 9.358909 
L 98.317318 9.358909 
L 105.281136 9.358909 
L 112.244955 9.358909 
L 119.208773 9.358909 
L 126.172591 9.358909 
L 133.136409 9.358909 
L 140.100227 9.358909 
L 147.064045 9.358909 
L 154.027864 10.313459 
L 160.991682 11.544465 
L 167.9555 12.974232 
L 174.919318 14.600683 
L 181.883136 16.409062 
L 188.846955 18.37115 
L 195.810773 20.446584 
L 202.774591 22.586291 
L 209.738409 24.737413 
L 216.702227 26.848705 
L 223.666045 28.875269 
L 230.629864 30.781747 
L 237.593682 32.543722 
L 244.5575 34.147431 
L 251.521318 35.588366 
L 258.485136 36.869321 
L 265.448955 37.998261 
L 272.412773 38.986465 
L 279.376591 39.847021 
L 286.340409 40.593689 
L 293.304227 41.24018 
L 300.268045 41.799665 
L 307.231864 42.284548 
L 314.195682 42.706352 
L 321.1595 43.075721 
L 328.123318 43.402465 
L 335.087136 43.695606 
L 342.050955 43.963457 
L 349.014773 44.213651 
L 355.978591 44.453186 
L 362.942409 44.6884 
L 369.906227 44.924962 
L 376.870045 45.1678 
L 383.833864 45.421048 
L 390.797682 45.687967 
L 397.7615 45.970855 
L 404.725318 46.270987 
L 411.689136 46.588565 
L 418.652955 46.922716 
" clip-path="url(#p6988984b44)" style="fill: none; stroke: #dc143c; stroke-width: 1.5; stroke-linecap: square"/>
   </g>
   <g id="line2d_2">
    <path d="M 70.462045 47.739515 
L 77.425864 47.739515 
L 84.389682 47.739515 
L 91.3535 47.739515 
L 98.317318 47.739515 
L 105.281136 47.739515 
L 112.244955 47.739515 
L 119.208773 47.739515 
L 126.172591 47.739515 
L 133.136409 47.739515 
L 140.100227 47.739515 
L 147.064045 47.739515 
L 154.027864 46.784965 
L 160.991682 45.553959 
L 167.9555 44.124193 
L 174.919318 42.497741 
L 181.883136 40.689362 
L 188.846955 38.727275 
L 195.810773 36.65184 
L 202.774591 34.512133 
L 209.738409 32.361011 
L 216.702227 30.249719 
L 223.666045 28.223155 
L 230.629864 26.316677 
L 237.593682 24.554703 
L 244.5575 22.950993 
L 251.521318 21.510058 
L 258.485136 20.229103 
L 265.448955 19.100163 
L 272.412773 18.111959 
L 279.376591 17.251404 
L 286.340409 16.504735 
L 293.304227 15.858245 
L 300.268045 15.298759 
L 307.231864 14.813876 
L 314.195682 14.392072 
L 321.1595 14.022703 
L 328.123318 13.695959 
L 335.087136 13.402818 
L 342.050955 13.134967 
L 349.014773 12.884774 
L 355.978591 12.645238 
L 362.942409 12.410024 
L 369.906227 12.173463 
L 376.870045 11.930624 
L 383.833864 11.677377 
L 390.797682 11.410457 
L 397.7615 11.127569 
L 404.725318 10.827437 
L 411.689136 10.509859 
L 418.652955 10.175709 
" clip-path="url(#p6988984b44)" style="fill: none; stroke: #000080; stroke-width: 1.5; stroke-linecap: square"/>
   </g>
  </g>
  <g id="axes_2">
   <g id="patch_3">
    <path d="M 53.0525 165.688 
L 436.0625 165.688 
L 436.0625 70.696 
L 53.0525 70.696 
z
" style="fill: #ffffff"/>
   </g>
   <g id="PathCollection_1">
    <defs>
     <path id="md2321079ab" d="M 0 0.866025 
C 0.229673 0.866025 0.449969 0.774776 0.612372 0.612372 
C 0.774776 0.449969 0.866025 0.229673 0.866025 0 
C 0.866025 -0.229673 0.774776 -0.449969 0.612372 -0.612372 
C 0.449969 -0.774776 0.229673 -0.866025 0 -0.866025 
C -0.229673 -0.866025 -0.449969 -0.774776 -0.612372 -0.612372 
C -0.774776 -0.449969 -0.866025 -0.229673 -0.866025 0 
C -0.866025 0.229673 -0.774776 0.449969 -0.612372 0.612372 
C -0.449969 0.774776 -0.229673 0.866025 0 0.866025 
z
" style="stroke: #daa520"/>
    </defs>
    <g clip-path="url(#p5702d879e7)">
     <use xlink:href="#md2321079ab" x="249.88104" y="124.201315" style="fill: #daa520; stroke: #daa520"/>
     <use xlink:href="#md2321079ab" x="151.998484" y="95.911944" style="fill: #daa520; stroke: #daa520"/>
     <use xlink:href="#md2321079ab" x="102.687511" y="126.661005" style="fill: #daa520; stroke: #daa520"/>
     <use xlink:href="#md2321079ab" x="158.374641" y="115.518207" style="fill: #daa520; stroke: #daa520"/>
     <use xlink:href="#md2321079ab" x="344.856824" y="112.531464" style="fill: #daa520; stroke: #daa520"/>
     <use xlink:href="#md2321079ab" x="328.493693" y="122.165753" style="fill: #daa520; stroke: #daa520"/>
     <use xlink:href="#md2321079ab" x="157.353597" y="103.492744" style="fill: #daa520; stroke: #daa520"/>
     <use xlink:href="#md2321079ab" x="128.863638" y="105.559773" style="fill: #daa520; stroke: #daa520"/>
     <use xlink:href="#md2321079ab" x="193.308715" y="128.059333" style="fill: #daa520; stroke: #daa520"/>
     <use xlink:href="#md2321079ab" x="151.944254" y="95.843143" style="fill: #daa520; stroke: #daa520"/>
     <use xlink:href="#md2321079ab" x="110.355982" y="95.85723" style="fill: #daa520; stroke: #daa520"/>
     <use xlink:href="#md2321079ab" x="141.755679" y="92.193788" style="fill: #daa520; stroke: #daa520"/>
     <use xlink:href="#md2321079ab" x="82.130238" y="114.033984" style="fill: #daa520; stroke: #daa520"/>
     <use xlink:href="#md2321079ab" x="81.981376" y="89.047925" style="fill: #daa520; stroke: #daa520"/>
     <use xlink:href="#md2321079ab" x="177.043293" y="126.052332" style="fill: #daa520; stroke: #daa520"/>
     <use xlink:href="#md2321079ab" x="177.109474" y="113.592646" style="fill: #daa520; stroke: #daa520"/>
     <use xlink:href="#md2321079ab" x="139.457624" y="110.282983" style="fill: #daa520; stroke: #daa520"/>
     <use xlink:href="#md2321079ab" x="263.307756" y="123.552665" style="fill: #daa520; stroke: #daa520"/>
     <use xlink:href="#md2321079ab" x="150.324918" y="108.286175" style="fill: #daa520; stroke: #daa520"/>
     <use xlink:href="#md2321079ab" x="392.378665" y="118.005878" style="fill: #daa520; stroke: #daa520"/>
     <use xlink:href="#md2321079ab" x="360.740275" y="110.66432" style="fill: #daa520; stroke: #daa520"/>
     <use xlink:href="#md2321079ab" x="325.218133" y="137.681872" style="fill: #daa520; stroke: #daa520"/>
     <use xlink:href="#md2321079ab" x="123.197673" y="109.404348" style="fill: #daa520; stroke: #daa520"/>
     <use xlink:href="#md2321079ab" x="128.504291" y="92.881049" style="fill: #daa520; stroke: #daa520"/>
     <use xlink:href="#md2321079ab" x="404.669902" y="129.083269" style="fill: #daa520; stroke: #daa520"/>
     <use xlink:href="#md2321079ab" x="75.490664" y="100.882879" style="fill: #daa520; stroke: #daa520"/>
     <use xlink:href="#md2321079ab" x="187.642353" y="125.01493" style="fill: #daa520; stroke: #daa520"/>
     <use xlink:href="#md2321079ab" x="102.536686" y="79.581317" style="fill: #daa520; stroke: #daa520"/>
     <use xlink:href="#md2321079ab" x="106.498838" y="75.013818" style="fill: #daa520; stroke: #daa520"/>
     <use xlink:href="#md2321079ab" x="121.00107" y="85.077419" style="fill: #daa520; stroke: #daa520"/>
     <use xlink:href="#md2321079ab" x="136.946079" y="97.708611" style="fill: #daa520; stroke: #daa520"/>
     <use xlink:href="#md2321079ab" x="346.284255" y="135.7937" style="fill: #daa520; stroke: #daa520"/>
     <use xlink:href="#md2321079ab" x="196.317108" y="128.54526" style="fill: #daa520; stroke: #daa520"/>
     <use xlink:href="#md2321079ab" x="314.101505" y="127.017608" style="fill: #daa520; stroke: #daa520"/>
     <use xlink:href="#md2321079ab" x="81.516709" y="112.837958" style="fill: #daa520; stroke: #daa520"/>
     <use xlink:href="#md2321079ab" x="236.951704" y="112.605821" style="fill: #daa520; stroke: #daa520"/>
     <use xlink:href="#md2321079ab" x="74.896951" y="94.763112" style="fill: #daa520; stroke: #daa520"/>
     <use xlink:href="#md2321079ab" x="194.877236" y="119.423117" style="fill: #daa520; stroke: #daa520"/>
     <use xlink:href="#md2321079ab" x="186.850123" y="118.681474" style="fill: #daa520; stroke: #daa520"/>
     <use xlink:href="#md2321079ab" x="147.216633" y="103.312838" style="fill: #daa520; stroke: #daa520"/>
     <use xlink:href="#md2321079ab" x="275.177531" y="127.320948" style="fill: #daa520; stroke: #daa520"/>
     <use xlink:href="#md2321079ab" x="115.377096" y="114.77047" style="fill: #daa520; stroke: #daa520"/>
     <use xlink:href="#md2321079ab" x="150.433332" y="104.424968" style="fill: #daa520; stroke: #daa520"/>
     <use xlink:href="#md2321079ab" x="202.199043" y="132.670638" style="fill: #daa520; stroke: #daa520"/>
     <use xlink:href="#md2321079ab" x="102.178958" y="104.868756" style="fill: #daa520; stroke: #daa520"/>
     <use xlink:href="#md2321079ab" x="262.076129" y="145.131675" style="fill: #daa520; stroke: #daa520"/>
     <use xlink:href="#md2321079ab" x="146.769476" y="108.634826" style="fill: #daa520; stroke: #daa520"/>
     <use xlink:href="#md2321079ab" x="78.401013" y="110.460384" style="fill: #daa520; stroke: #daa520"/>
     <use xlink:href="#md2321079ab" x="284.521416" y="122.729904" style="fill: #daa520; stroke: #daa520"/>
     <use xlink:href="#md2321079ab" x="271.670085" y="126.416389" style="fill: #daa520; stroke: #daa520"/>
     <use xlink:href="#md2321079ab" x="333.515646" y="117.683959" style="fill: #daa520; stroke: #daa520"/>
     <use xlink:href="#md2321079ab" x="363.296029" y="121.008382" style="fill: #daa520; stroke: #daa520"/>
     <use xlink:href="#md2321079ab" x="132.270686" y="96.878077" style="fill: #daa520; stroke: #daa520"/>
     <use xlink:href="#md2321079ab" x="104.035072" y="83.37791" style="fill: #daa520; stroke: #daa520"/>
     <use xlink:href="#md2321079ab" x="175.448998" y="113.932607" style="fill: #daa520; stroke: #daa520"/>
     <use xlink:href="#md2321079ab" x="81.231377" y="101.925171" style="fill: #daa520; stroke: #daa520"/>
     <use xlink:href="#md2321079ab" x="114.424617" y="80.155639" style="fill: #daa520; stroke: #daa520"/>
     <use xlink:href="#md2321079ab" x="173.113408" y="112.945439" style="fill: #daa520; stroke: #daa520"/>
     <use xlink:href="#md2321079ab" x="122.899893" y="110.062071" style="fill: #daa520; stroke: #daa520"/>
     <use xlink:href="#md2321079ab" x="113.193788" y="112.096067" style="fill: #daa520; stroke: #daa520"/>
     <use xlink:href="#md2321079ab" x="339.468293" y="133.294594" style="fill: #daa520; stroke: #daa520"/>
     <use xlink:href="#md2321079ab" x="256.747766" y="137.737188" style="fill: #daa520; stroke: #daa520"/>
     <use xlink:href="#md2321079ab" x="132.286497" y="81.659628" style="fill: #daa520; stroke: #daa520"/>
     <use xlink:href="#md2321079ab" x="259.652422" y="124.806197" style="fill: #daa520; stroke: #daa520"/>
     <use xlink:href="#md2321079ab" x="117.694941" y="111.634541" style="fill: #daa520; stroke: #daa520"/>
     <use xlink:href="#md2321079ab" x="269.617663" y="120.245208" style="fill: #daa520; stroke: #daa520"/>
     <use xlink:href="#md2321079ab" x="157.065219" y="115.871856" style="fill: #daa520; stroke: #daa520"/>
     <use xlink:href="#md2321079ab" x="128.895369" y="82.472688" style="fill: #daa520; stroke: #daa520"/>
     <use xlink:href="#md2321079ab" x="206.292722" y="136.272815" style="fill: #daa520; stroke: #daa520"/>
     <use xlink:href="#md2321079ab" x="282.349083" y="122.83813" style="fill: #daa520; stroke: #daa520"/>
     <use xlink:href="#md2321079ab" x="96.487629" y="119.365766" style="fill: #daa520; stroke: #daa520"/>
     <use xlink:href="#md2321079ab" x="262.519921" y="123.047815" style="fill: #daa520; stroke: #daa520"/>
     <use xlink:href="#md2321079ab" x="132.516366" y="107.896772" style="fill: #daa520; stroke: #daa520"/>
     <use xlink:href="#md2321079ab" x="134.808437" y="86.422499" style="fill: #daa520; stroke: #daa520"/>
     <use xlink:href="#md2321079ab" x="82.811922" y="98.088452" style="fill: #daa520; stroke: #daa520"/>
     <use xlink:href="#md2321079ab" x="185.86021" y="117.742748" style="fill: #daa520; stroke: #daa520"/>
     <use xlink:href="#md2321079ab" x="148.495981" y="111.837582" style="fill: #daa520; stroke: #daa520"/>
     <use xlink:href="#md2321079ab" x="249.49774" y="116.617213" style="fill: #daa520; stroke: #daa520"/>
     <use xlink:href="#md2321079ab" x="273.366965" y="128.403671" style="fill: #daa520; stroke: #daa520"/>
     <use xlink:href="#md2321079ab" x="206.147883" y="109.554176" style="fill: #daa520; stroke: #daa520"/>
     <use xlink:href="#md2321079ab" x="321.771098" y="130.714562" style="fill: #daa520; stroke: #daa520"/>
     <use xlink:href="#md2321079ab" x="85.784542" y="117.03885" style="fill: #daa520; stroke: #daa520"/>
     <use xlink:href="#md2321079ab" x="211.627382" y="135.980823" style="fill: #daa520; stroke: #daa520"/>
     <use xlink:href="#md2321079ab" x="210.719544" y="125.938872" style="fill: #daa520; stroke: #daa520"/>
     <use xlink:href="#md2321079ab" x="283.89105" y="128.08247" style="fill: #daa520; stroke: #daa520"/>
     <use xlink:href="#md2321079ab" x="193.484173" y="121.020115" style="fill: #daa520; stroke: #daa520"/>
     <use xlink:href="#md2321079ab" x="120.860595" y="80.609429" style="fill: #daa520; stroke: #daa520"/>
     <use xlink:href="#md2321079ab" x="83.671902" y="108.850944" style="fill: #daa520; stroke: #daa520"/>
     <use xlink:href="#md2321079ab" x="236.636174" y="112.042604" style="fill: #daa520; stroke: #daa520"/>
    </g>
   </g>
   <g id="matplotlib.axis_3"/>
   <g id="matplotlib.axis_4">
    <g id="ytick_1">
     <g id="line2d_3">
      <defs>
       <path id="mff6903543a" d="M 0 0 
L -3.5 0 
" style="stroke: #696969; stroke-width: 0.8"/>
      </defs>
      <g>
       <use xlink:href="#mff6903543a" x="53.0525" y="153.966461" style="fill: #696969; stroke: #696969; stroke-width: 0.8"/>
      </g>
     </g>
     <g id="text_1">
      <!-- −5 -->
      <g style="fill: #696969" transform="translate(22.465 160.045211) scale(0.16 -0.16)">
       <defs>
        <path id="DejaVuSans-2212" d="M 678 2272 
L 4684 2272 
L 4684 1741 
L 678 1741 
L 678 2272 
z
" transform="scale(0.015625)"/>
        <path id="DejaVuSans-35" d="M 691 4666 
L 3169 4666 
L 3169 4134 
L 1269 4134 
L 1269 2991 
Q 1406 3038 1543 3061 
Q 1681 3084 1819 3084 
Q 2600 3084 3056 2656 
Q 3513 2228 3513 1497 
Q 3513 744 3044 326 
Q 2575 -91 1722 -91 
Q 1428 -91 1123 -41 
Q 819 9 494 109 
L 494 744 
Q 775 591 1075 516 
Q 1375 441 1709 441 
Q 2250 441 2565 725 
Q 2881 1009 2881 1497 
Q 2881 1984 2565 2268 
Q 2250 2553 1709 2553 
Q 1456 2553 1204 2497 
Q 953 2441 691 2322 
L 691 4666 
z
" transform="scale(0.015625)"/>
       </defs>
       <use xlink:href="#DejaVuSans-2212"/>
       <use xlink:href="#DejaVuSans-35" x="83.789062"/>
      </g>
     </g>
    </g>
    <g id="ytick_2">
     <g id="line2d_4">
      <g>
       <use xlink:href="#mff6903543a" x="53.0525" y="119.312953" style="fill: #696969; stroke: #696969; stroke-width: 0.8"/>
      </g>
     </g>
     <g id="text_2">
      <!-- 0 -->
      <g style="fill: #696969" transform="translate(35.8725 125.391703) scale(0.16 -0.16)">
       <defs>
        <path id="DejaVuSans-30" d="M 2034 4250 
Q 1547 4250 1301 3770 
Q 1056 3291 1056 2328 
Q 1056 1369 1301 889 
Q 1547 409 2034 409 
Q 2525 409 2770 889 
Q 3016 1369 3016 2328 
Q 3016 3291 2770 3770 
Q 2525 4250 2034 4250 
z
M 2034 4750 
Q 2819 4750 3233 4129 
Q 3647 3509 3647 2328 
Q 3647 1150 3233 529 
Q 2819 -91 2034 -91 
Q 1250 -91 836 529 
Q 422 1150 422 2328 
Q 422 3509 836 4129 
Q 1250 4750 2034 4750 
z
" transform="scale(0.015625)"/>
       </defs>
       <use xlink:href="#DejaVuSans-30"/>
      </g>
     </g>
    </g>
    <g id="ytick_3">
     <g id="line2d_5">
      <g>
       <use xlink:href="#mff6903543a" x="53.0525" y="84.659445" style="fill: #696969; stroke: #696969; stroke-width: 0.8"/>
      </g>
     </g>
     <g id="text_3">
      <!-- 5 -->
      <g style="fill: #696969" transform="translate(35.8725 90.738195) scale(0.16 -0.16)">
       <use xlink:href="#DejaVuSans-35"/>
      </g>
     </g>
    </g>
   </g>
   <g id="line2d_6">
    <path d="M 70.462045 109.012765 
L 77.425864 107.452226 
L 84.389682 105.917603 
L 91.3535 104.254247 
L 98.317318 102.430581 
L 105.281136 100.563536 
L 112.244955 98.892524 
L 119.208773 97.714561 
L 126.172591 97.30383 
L 133.136409 97.841869 
L 140.100227 99.37791 
L 147.064045 101.824689 
L 154.027864 104.980176 
L 160.991682 108.559107 
L 167.9555 112.224528 
L 174.919318 115.623301 
L 181.883136 118.437576 
L 188.846955 120.455359 
L 195.810773 121.640137 
L 202.774591 122.160329 
L 209.738409 122.345121 
L 216.702227 122.56853 
L 223.666045 123.107325 
L 230.629864 124.039313 
L 237.593682 125.229406 
L 244.5575 126.404359 
L 251.521318 127.274154 
L 258.485136 127.643888 
L 265.448955 127.476036 
L 272.412773 126.892035 
L 279.376591 126.125509 
L 286.340409 125.44872 
L 293.304227 125.093142 
L 300.268045 125.180417 
L 307.231864 125.67646 
L 314.195682 126.379308 
L 321.1595 126.949535 
L 328.123318 126.987396 
L 335.087136 126.15004 
L 342.050955 124.284374 
L 349.014773 121.531921 
L 355.978591 118.354952 
L 362.942409 115.451141 
L 369.906227 113.567588 
L 376.870045 113.274622 
L 383.833864 114.784998 
L 390.797682 117.885924 
L 397.7615 121.999818 
L 404.725318 126.33659 
L 411.689136 130.076322 
L 418.652955 132.531204 
" clip-path="url(#p5702d879e7)" style="fill: none; stroke: #000000; stroke-width: 2; stroke-linecap: square"/>
   </g>
   <g id="line2d_7">
    <path d="M 70.462045 105.276297 
L 77.425864 105.230004 
L 84.389682 103.828276 
L 91.3535 101.871515 
L 98.317318 99.932062 
L 105.281136 98.393883 
L 112.244955 97.488123 
L 119.208773 97.324734 
L 126.172591 97.920364 
L 133.136409 99.222733 
L 140.100227 101.131674 
L 147.064045 103.517054 
L 154.027864 106.233771 
L 160.991682 109.134031 
L 167.9555 112.077102 
L 174.919318 114.936756 
L 181.883136 117.606584 
L 188.846955 120.003403 
L 195.810773 122.068946 
L 202.774591 123.770038 
L 209.738409 125.097459 
L 216.702227 126.063703 
L 223.666045 126.699817 
L 230.629864 127.051545 
L 237.593682 127.174952 
L 244.5575 127.131755 
L 251.521318 126.984544 
L 258.485136 126.792098 
L 265.448955 126.60501 
L 272.412773 126.461802 
L 279.376591 126.385747 
L 286.340409 126.382592 
L 293.304227 126.439388 
L 300.268045 126.524621 
L 307.231864 126.589857 
L 314.195682 126.573091 
L 321.1595 126.404001 
L 328.123318 126.011329 
L 335.087136 125.332553 
L 342.050955 124.326092 
L 349.014773 122.986216 
L 355.978591 121.360874 
L 362.942409 119.572642 
L 369.906227 117.84299 
L 376.870045 116.520065 
L 383.833864 116.110207 
L 390.797682 117.313375 
L 397.7615 121.062706 
L 404.725318 128.568401 
L 411.689136 141.366132 
L 418.652955 161.370182 
" clip-path="url(#p5702d879e7)" style="fill: none; stroke-dasharray: 7.4,3.2; stroke-dashoffset: 0; stroke: #34b6c6; stroke-width: 2"/>
   </g>
   <g id="line2d_8">
    <path d="M 70.462045 103.395919 
L 77.425864 103.503875 
L 84.389682 103.594385 
L 91.3535 103.524391 
L 98.317318 103.034868 
L 105.281136 101.703099 
L 112.244955 99.434244 
L 119.208773 97.45373 
L 126.172591 96.920755 
L 133.136409 97.962895 
L 140.100227 100.228039 
L 147.064045 103.049995 
L 154.027864 107.127248 
L 160.991682 112.042788 
L 167.9555 116.039203 
L 174.919318 119.57035 
L 181.883136 121.295347 
L 188.846955 121.307695 
L 195.810773 120.337123 
L 202.774591 118.693124 
L 209.738409 117.009104 
L 216.702227 116.052857 
L 223.666045 116.052928 
L 230.629864 117.317197 
L 237.593682 119.861721 
L 244.5575 122.450692 
L 251.521318 124.734285 
L 258.485136 126.779396 
L 265.448955 128.358615 
L 272.412773 129.398669 
L 279.376591 130.019255 
L 286.340409 130.360567 
L 293.304227 130.513639 
L 300.268045 130.51994 
L 307.231864 130.379969 
L 314.195682 130.051086 
L 321.1595 129.428152 
L 328.123318 128.304227 
L 335.087136 126.345402 
L 342.050955 123.270026 
L 349.014773 119.463875 
L 355.978591 116.138735 
L 362.942409 114.148583 
L 369.906227 113.455601 
L 376.870045 113.885695 
L 383.833864 115.853545 
L 390.797682 120.037073 
L 397.7615 125.352558 
L 404.725318 129.101538 
L 411.689136 130.627043 
L 418.652955 130.830069 
" clip-path="url(#p5702d879e7)" style="fill: none; stroke-dasharray: 7.4,3.2; stroke-dashoffset: 0; stroke: #9370db; stroke-width: 2"/>
   </g>
   <g id="line2d_9">
    <path d="M 70.462045 106.987306 
L 77.425864 106.964709 
L 84.389682 106.792862 
L 91.3535 106.353606 
L 98.317318 105.401268 
L 105.281136 103.512918 
L 112.244955 100.60745 
L 119.208773 97.992882 
L 126.172591 96.904321 
L 133.136409 97.486069 
L 140.100227 99.374202 
L 147.064045 101.871592 
L 154.027864 105.719005 
L 160.991682 110.47924 
L 167.9555 114.300133 
L 174.919318 117.661133 
L 181.883136 119.147884 
L 188.846955 118.858504 
L 195.810773 117.561826 
L 202.774591 115.583113 
L 209.738409 113.589108 
L 216.702227 112.388179 
L 223.666045 112.219825 
L 230.629864 113.407206 
L 237.593682 115.965676 
L 244.5575 118.590139 
L 251.521318 120.91011 
L 258.485136 122.994739 
L 265.448955 124.602821 
L 272.412773 125.655831 
L 279.376591 126.278895 
L 286.340409 126.618886 
L 293.304227 126.77096 
L 300.268045 126.778165 
L 307.231864 126.640546 
L 314.195682 126.312905 
L 321.1595 125.684451 
L 328.123318 124.537425 
L 335.087136 122.520649 
L 342.050955 119.338705 
L 349.014773 115.40097 
L 355.978591 111.989063 
L 362.942409 110.008323 
L 369.906227 109.424779 
L 376.870045 110.062344 
L 383.833864 112.367898 
L 390.797682 117.06824 
L 397.7615 123.034563 
L 404.725318 127.437808 
L 411.689136 129.605784 
L 418.652955 130.513612 
" clip-path="url(#p5702d879e7)" style="fill: none; stroke-dasharray: 12.8,3.2,2,3.2; stroke-dashoffset: 0; stroke: #ff0000; stroke-width: 2"/>
   </g>
   <g id="patch_4">
    <path d="M 53.0525 165.688 
L 53.0525 70.696 
" style="fill: none; stroke: #000000; stroke-width: 0.8; stroke-linejoin: miter; stroke-linecap: square"/>
   </g>
   <g id="patch_5">
    <path d="M 436.0625 165.688 
L 436.0625 70.696 
" style="fill: none; stroke: #000000; stroke-width: 0.8; stroke-linejoin: miter; stroke-linecap: square"/>
   </g>
   <g id="patch_6">
    <path d="M 53.0525 165.688 
L 436.0625 165.688 
" style="fill: none; stroke: #000000; stroke-width: 0.8; stroke-linejoin: miter; stroke-linecap: square"/>
   </g>
   <g id="patch_7">
    <path d="M 53.0525 70.696 
L 436.0625 70.696 
" style="fill: none; stroke: #000000; stroke-width: 0.8; stroke-linejoin: miter; stroke-linecap: square"/>
   </g>
  </g>
  <g id="axes_3">
   <g id="patch_8">
    <path d="M 53.0525 276.68 
L 436.0625 276.68 
L 436.0625 181.688 
L 53.0525 181.688 
z
" style="fill: #ffffff"/>
   </g>
   <g id="PathCollection_2">
    <g clip-path="url(#p575c8ec427)">
     <use xlink:href="#md2321079ab" x="249.88104" y="218.252629" style="fill: #daa520; stroke: #daa520"/>
     <use xlink:href="#md2321079ab" x="151.998484" y="239.153665" style="fill: #daa520; stroke: #daa520"/>
     <use xlink:href="#md2321079ab" x="102.687511" y="186.865955" style="fill: #daa520; stroke: #daa520"/>
     <use xlink:href="#md2321079ab" x="158.374641" y="213.287289" style="fill: #daa520; stroke: #daa520"/>
     <use xlink:href="#md2321079ab" x="344.856824" y="233.65484" style="fill: #daa520; stroke: #daa520"/>
     <use xlink:href="#md2321079ab" x="328.493693" y="228.629433" style="fill: #daa520; stroke: #daa520"/>
     <use xlink:href="#md2321079ab" x="157.353597" y="232.497218" style="fill: #daa520; stroke: #daa520"/>
     <use xlink:href="#md2321079ab" x="128.863638" y="210.097363" style="fill: #daa520; stroke: #daa520"/>
     <use xlink:href="#md2321079ab" x="193.308715" y="207.870214" style="fill: #daa520; stroke: #daa520"/>
     <use xlink:href="#md2321079ab" x="151.944254" y="239.214159" style="fill: #daa520; stroke: #daa520"/>
     <use xlink:href="#md2321079ab" x="110.355982" y="234.229779" style="fill: #daa520; stroke: #daa520"/>
     <use xlink:href="#md2321079ab" x="141.755679" y="237.851692" style="fill: #daa520; stroke: #daa520"/>
     <use xlink:href="#md2321079ab" x="82.130238" y="212.579044" style="fill: #daa520; stroke: #daa520"/>
     <use xlink:href="#md2321079ab" x="81.981376" y="255.008821" style="fill: #daa520; stroke: #daa520"/>
     <use xlink:href="#md2321079ab" x="177.043293" y="211.683217" style="fill: #daa520; stroke: #daa520"/>
     <use xlink:href="#md2321079ab" x="177.109474" y="232.868774" style="fill: #daa520; stroke: #daa520"/>
     <use xlink:href="#md2321079ab" x="139.457624" y="205.873789" style="fill: #daa520; stroke: #daa520"/>
     <use xlink:href="#md2321079ab" x="263.307756" y="225.789039" style="fill: #daa520; stroke: #daa520"/>
     <use xlink:href="#md2321079ab" x="150.324918" y="216.501792" style="fill: #daa520; stroke: #daa520"/>
     <use xlink:href="#md2321079ab" x="392.378665" y="225.43505" style="fill: #daa520; stroke: #daa520"/>
     <use xlink:href="#md2321079ab" x="360.740275" y="224.410326" style="fill: #daa520; stroke: #daa520"/>
     <use xlink:href="#md2321079ab" x="325.218133" y="203.377448" style="fill: #daa520; stroke: #daa520"/>
     <use xlink:href="#md2321079ab" x="123.197673" y="203.957485" style="fill: #daa520; stroke: #daa520"/>
     <use xlink:href="#md2321079ab" x="128.504291" y="231.592414" style="fill: #daa520; stroke: #daa520"/>
     <use xlink:href="#md2321079ab" x="404.669902" y="221.904942" style="fill: #daa520; stroke: #daa520"/>
     <use xlink:href="#md2321079ab" x="75.490664" y="235.098092" style="fill: #daa520; stroke: #daa520"/>
     <use xlink:href="#md2321079ab" x="187.642353" y="214.517356" style="fill: #daa520; stroke: #daa520"/>
     <use xlink:href="#md2321079ab" x="102.536686" y="266.874166" style="fill: #daa520; stroke: #daa520"/>
     <use xlink:href="#md2321079ab" x="106.498838" y="272.362182" style="fill: #daa520; stroke: #daa520"/>
     <use xlink:href="#md2321079ab" x="121.00107" y="245.920558" style="fill: #daa520; stroke: #daa520"/>
     <use xlink:href="#md2321079ab" x="136.946079" y="225.94191" style="fill: #daa520; stroke: #daa520"/>
     <use xlink:href="#md2321079ab" x="346.284255" y="192.767585" style="fill: #daa520; stroke: #daa520"/>
     <use xlink:href="#md2321079ab" x="196.317108" y="205.880791" style="fill: #daa520; stroke: #daa520"/>
     <use xlink:href="#md2321079ab" x="314.101505" y="223.555424" style="fill: #daa520; stroke: #daa520"/>
     <use xlink:href="#md2321079ab" x="81.516709" y="214.638644" style="fill: #daa520; stroke: #daa520"/>
     <use xlink:href="#md2321079ab" x="236.951704" y="230.00752" style="fill: #daa520; stroke: #daa520"/>
     <use xlink:href="#md2321079ab" x="74.896951" y="245.49448" style="fill: #daa520; stroke: #daa520"/>
     <use xlink:href="#md2321079ab" x="194.877236" y="221.956133" style="fill: #daa520; stroke: #daa520"/>
     <use xlink:href="#md2321079ab" x="186.850123" y="225.39259" style="fill: #daa520; stroke: #daa520"/>
     <use xlink:href="#md2321079ab" x="147.216633" y="222.404558" style="fill: #daa520; stroke: #daa520"/>
     <use xlink:href="#md2321079ab" x="275.177531" y="222.406442" style="fill: #daa520; stroke: #daa520"/>
     <use xlink:href="#md2321079ab" x="115.377096" y="198.453612" style="fill: #daa520; stroke: #daa520"/>
     <use xlink:href="#md2321079ab" x="150.433332" y="223.157837" style="fill: #daa520; stroke: #daa520"/>
     <use xlink:href="#md2321079ab" x="202.199043" y="196.030532" style="fill: #daa520; stroke: #daa520"/>
     <use xlink:href="#md2321079ab" x="102.178958" y="224.111885" style="fill: #daa520; stroke: #daa520"/>
     <use xlink:href="#md2321079ab" x="262.076129" y="188.685633" style="fill: #daa520; stroke: #daa520"/>
     <use xlink:href="#md2321079ab" x="146.769476" y="213.049483" style="fill: #daa520; stroke: #daa520"/>
     <use xlink:href="#md2321079ab" x="78.401013" y="218.78403" style="fill: #daa520; stroke: #daa520"/>
     <use xlink:href="#md2321079ab" x="284.521416" y="231.229294" style="fill: #daa520; stroke: #daa520"/>
     <use xlink:href="#md2321079ab" x="271.670085" y="223.299228" style="fill: #daa520; stroke: #daa520"/>
     <use xlink:href="#md2321079ab" x="333.515646" y="233.890053" style="fill: #daa520; stroke: #daa520"/>
     <use xlink:href="#md2321079ab" x="363.296029" y="205.962239" style="fill: #daa520; stroke: #daa520"/>
     <use xlink:href="#md2321079ab" x="132.270686" y="225.503914" style="fill: #daa520; stroke: #daa520"/>
     <use xlink:href="#md2321079ab" x="104.035072" y="259.648845" style="fill: #daa520; stroke: #daa520"/>
     <use xlink:href="#md2321079ab" x="175.448998" y="231.403422" style="fill: #daa520; stroke: #daa520"/>
     <use xlink:href="#md2321079ab" x="81.231377" y="233.17943" style="fill: #daa520; stroke: #daa520"/>
     <use xlink:href="#md2321079ab" x="114.424617" y="257.875976" style="fill: #daa520; stroke: #daa520"/>
     <use xlink:href="#md2321079ab" x="173.113408" y="231.46257" style="fill: #daa520; stroke: #daa520"/>
     <use xlink:href="#md2321079ab" x="122.899893" y="202.913453" style="fill: #daa520; stroke: #daa520"/>
     <use xlink:href="#md2321079ab" x="113.193788" y="204.530935" style="fill: #daa520; stroke: #daa520"/>
     <use xlink:href="#md2321079ab" x="339.468293" y="203.278367" style="fill: #daa520; stroke: #daa520"/>
     <use xlink:href="#md2321079ab" x="256.747766" y="198.887611" style="fill: #daa520; stroke: #daa520"/>
     <use xlink:href="#md2321079ab" x="132.286497" y="251.347097" style="fill: #daa520; stroke: #daa520"/>
     <use xlink:href="#md2321079ab" x="259.652422" y="222.190064" style="fill: #daa520; stroke: #daa520"/>
     <use xlink:href="#md2321079ab" x="117.694941" y="202.357071" style="fill: #daa520; stroke: #daa520"/>
     <use xlink:href="#md2321079ab" x="269.617663" y="233.313548" style="fill: #daa520; stroke: #daa520"/>
     <use xlink:href="#md2321079ab" x="157.065219" y="211.133594" style="fill: #daa520; stroke: #daa520"/>
     <use xlink:href="#md2321079ab" x="128.895369" y="249.298843" style="fill: #daa520; stroke: #daa520"/>
     <use xlink:href="#md2321079ab" x="206.292722" y="187.801408" style="fill: #daa520; stroke: #daa520"/>
     <use xlink:href="#md2321079ab" x="282.349083" y="230.876989" style="fill: #daa520; stroke: #daa520"/>
     <use xlink:href="#md2321079ab" x="96.487629" y="201.577624" style="fill: #daa520; stroke: #daa520"/>
     <use xlink:href="#md2321079ab" x="262.519921" y="226.351973" style="fill: #daa520; stroke: #daa520"/>
     <use xlink:href="#md2321079ab" x="132.516366" y="206.868577" style="fill: #daa520; stroke: #daa520"/>
     <use xlink:href="#md2321079ab" x="134.808437" y="244.148114" style="fill: #daa520; stroke: #daa520"/>
     <use xlink:href="#md2321079ab" x="82.811922" y="239.61669" style="fill: #daa520; stroke: #daa520"/>
     <use xlink:href="#md2321079ab" x="185.86021" y="227.104948" style="fill: #daa520; stroke: #daa520"/>
     <use xlink:href="#md2321079ab" x="148.495981" y="208.903044" style="fill: #daa520; stroke: #daa520"/>
     <use xlink:href="#md2321079ab" x="249.49774" y="230.916465" style="fill: #daa520; stroke: #daa520"/>
     <use xlink:href="#md2321079ab" x="273.366965" y="220.258043" style="fill: #daa520; stroke: #daa520"/>
     <use xlink:href="#md2321079ab" x="206.147883" y="233.237497" style="fill: #daa520; stroke: #daa520"/>
     <use xlink:href="#md2321079ab" x="321.771098" y="216.072578" style="fill: #daa520; stroke: #daa520"/>
     <use xlink:href="#md2321079ab" x="85.784542" y="207.241628" style="fill: #daa520; stroke: #daa520"/>
     <use xlink:href="#md2321079ab" x="211.627382" y="186.005818" style="fill: #daa520; stroke: #daa520"/>
     <use xlink:href="#md2321079ab" x="210.719544" y="203.386105" style="fill: #daa520; stroke: #daa520"/>
     <use xlink:href="#md2321079ab" x="283.89105" y="222.096186" style="fill: #daa520; stroke: #daa520"/>
     <use xlink:href="#md2321079ab" x="193.484173" y="219.760557" style="fill: #daa520; stroke: #daa520"/>
     <use xlink:href="#md2321079ab" x="120.860595" y="253.558434" style="fill: #daa520; stroke: #daa520"/>
     <use xlink:href="#md2321079ab" x="83.671902" y="221.293698" style="fill: #daa520; stroke: #daa520"/>
     <use xlink:href="#md2321079ab" x="236.636174" y="230.748203" style="fill: #daa520; stroke: #daa520"/>
    </g>
   </g>
   <g id="matplotlib.axis_5">
    <g id="xtick_1">
     <g id="line2d_10">
      <defs>
       <path id="m8d10d69062" d="M 0 0 
L 0 3.5 
" style="stroke: #696969; stroke-width: 0.8"/>
      </defs>
      <g>
       <use xlink:href="#m8d10d69062" x="70.462045" y="276.68" style="fill: #696969; stroke: #696969; stroke-width: 0.8"/>
      </g>
     </g>
     <g id="text_4">
      <!-- −1.0 -->
      <g style="fill: #696969" transform="translate(51.035795 295.8375) scale(0.16 -0.16)">
       <defs>
        <path id="DejaVuSans-31" d="M 794 531 
L 1825 531 
L 1825 4091 
L 703 3866 
L 703 4441 
L 1819 4666 
L 2450 4666 
L 2450 531 
L 3481 531 
L 3481 0 
L 794 0 
L 794 531 
z
" transform="scale(0.015625)"/>
        <path id="DejaVuSans-2e" d="M 684 794 
L 1344 794 
L 1344 0 
L 684 0 
L 684 794 
z
" transform="scale(0.015625)"/>
       </defs>
       <use xlink:href="#DejaVuSans-2212"/>
       <use xlink:href="#DejaVuSans-31" x="83.789062"/>
       <use xlink:href="#DejaVuSans-2e" x="147.412109"/>
       <use xlink:href="#DejaVuSans-30" x="179.199219"/>
      </g>
     </g>
    </g>
    <g id="xtick_2">
     <g id="line2d_11">
      <g>
       <use xlink:href="#m8d10d69062" x="157.509773" y="276.68" style="fill: #696969; stroke: #696969; stroke-width: 0.8"/>
      </g>
     </g>
     <g id="text_5">
      <!-- −0.5 -->
      <g style="fill: #696969" transform="translate(138.083523 295.8375) scale(0.16 -0.16)">
       <use xlink:href="#DejaVuSans-2212"/>
       <use xlink:href="#DejaVuSans-30" x="83.789062"/>
       <use xlink:href="#DejaVuSans-2e" x="147.412109"/>
       <use xlink:href="#DejaVuSans-35" x="179.199219"/>
      </g>
     </g>
    </g>
    <g id="xtick_3">
     <g id="line2d_12">
      <g>
       <use xlink:href="#m8d10d69062" x="244.5575" y="276.68" style="fill: #696969; stroke: #696969; stroke-width: 0.8"/>
      </g>
     </g>
     <g id="text_6">
      <!-- 0.0 -->
      <g style="fill: #696969" transform="translate(231.835 295.8375) scale(0.16 -0.16)">
       <use xlink:href="#DejaVuSans-30"/>
       <use xlink:href="#DejaVuSans-2e" x="63.623047"/>
       <use xlink:href="#DejaVuSans-30" x="95.410156"/>
      </g>
     </g>
    </g>
    <g id="xtick_4">
     <g id="line2d_13">
      <g>
       <use xlink:href="#m8d10d69062" x="331.605227" y="276.68" style="fill: #696969; stroke: #696969; stroke-width: 0.8"/>
      </g>
     </g>
     <g id="text_7">
      <!-- 0.5 -->
      <g style="fill: #696969" transform="translate(318.882727 295.8375) scale(0.16 -0.16)">
       <use xlink:href="#DejaVuSans-30"/>
       <use xlink:href="#DejaVuSans-2e" x="63.623047"/>
       <use xlink:href="#DejaVuSans-35" x="95.410156"/>
      </g>
     </g>
    </g>
    <g id="xtick_5">
     <g id="line2d_14">
      <g>
       <use xlink:href="#m8d10d69062" x="418.652955" y="276.68" style="fill: #696969; stroke: #696969; stroke-width: 0.8"/>
      </g>
     </g>
     <g id="text_8">
      <!-- 1.0 -->
      <g style="fill: #696969" transform="translate(405.930455 295.8375) scale(0.16 -0.16)">
       <use xlink:href="#DejaVuSans-31"/>
       <use xlink:href="#DejaVuSans-2e" x="63.623047"/>
       <use xlink:href="#DejaVuSans-30" x="95.410156"/>
      </g>
     </g>
    </g>
    <g id="text_9">
     <!-- $X$ -->
     <g transform="translate(239.0375 315.3225) scale(0.16 -0.16)">
      <defs>
       <path id="DejaVuSans-Oblique-58" d="M 878 4666 
L 1516 4666 
L 2316 2981 
L 3763 4666 
L 4500 4666 
L 2578 2438 
L 3738 0 
L 3103 0 
L 2163 1966 
L 459 0 
L -275 0 
L 1906 2509 
L 878 4666 
z
" transform="scale(0.015625)"/>
      </defs>
      <use xlink:href="#DejaVuSans-Oblique-58" transform="translate(0 0.09375)"/>
     </g>
    </g>
   </g>
   <g id="matplotlib.axis_6">
    <g id="ytick_4">
     <g id="line2d_15">
      <g>
       <use xlink:href="#mff6903543a" x="53.0525" y="254.159738" style="fill: #696969; stroke: #696969; stroke-width: 0.8"/>
      </g>
     </g>
     <g id="text_10">
      <!-- −2.5 -->
      <g style="fill: #696969" transform="translate(7.2 260.238488) scale(0.16 -0.16)">
       <defs>
        <path id="DejaVuSans-32" d="M 1228 531 
L 3431 531 
L 3431 0 
L 469 0 
L 469 531 
Q 828 903 1448 1529 
Q 2069 2156 2228 2338 
Q 2531 2678 2651 2914 
Q 2772 3150 2772 3378 
Q 2772 3750 2511 3984 
Q 2250 4219 1831 4219 
Q 1534 4219 1204 4116 
Q 875 4013 500 3803 
L 500 4441 
Q 881 4594 1212 4672 
Q 1544 4750 1819 4750 
Q 2544 4750 2975 4387 
Q 3406 4025 3406 3419 
Q 3406 3131 3298 2873 
Q 3191 2616 2906 2266 
Q 2828 2175 2409 1742 
Q 1991 1309 1228 531 
z
" transform="scale(0.015625)"/>
       </defs>
       <use xlink:href="#DejaVuSans-2212"/>
       <use xlink:href="#DejaVuSans-32" x="83.789062"/>
       <use xlink:href="#DejaVuSans-2e" x="147.412109"/>
       <use xlink:href="#DejaVuSans-35" x="179.199219"/>
      </g>
     </g>
    </g>
    <g id="ytick_5">
     <g id="line2d_16">
      <g>
       <use xlink:href="#mff6903543a" x="53.0525" y="224.74156" style="fill: #696969; stroke: #696969; stroke-width: 0.8"/>
      </g>
     </g>
     <g id="text_11">
      <!-- 0.0 -->
      <g style="fill: #696969" transform="translate(20.6075 230.82031) scale(0.16 -0.16)">
       <use xlink:href="#DejaVuSans-30"/>
       <use xlink:href="#DejaVuSans-2e" x="63.623047"/>
       <use xlink:href="#DejaVuSans-30" x="95.410156"/>
      </g>
     </g>
    </g>
    <g id="ytick_6">
     <g id="line2d_17">
      <g>
       <use xlink:href="#mff6903543a" x="53.0525" y="195.323383" style="fill: #696969; stroke: #696969; stroke-width: 0.8"/>
      </g>
     </g>
     <g id="text_12">
      <!-- 2.5 -->
      <g style="fill: #696969" transform="translate(20.6075 201.402133) scale(0.16 -0.16)">
       <use xlink:href="#DejaVuSans-32"/>
       <use xlink:href="#DejaVuSans-2e" x="63.623047"/>
       <use xlink:href="#DejaVuSans-35" x="95.410156"/>
      </g>
     </g>
    </g>
   </g>
   <g id="line2d_18">
    <path d="M 70.462045 221.30264 
L 77.425864 223.913832 
L 84.389682 226.227616 
L 91.3535 228.305951 
L 98.317318 229.785332 
L 105.281136 229.74916 
L 112.244955 227.653242 
L 119.208773 225.214108 
L 126.172591 224.063254 
L 133.136409 224.137466 
L 140.100227 224.735266 
L 147.064045 224.821195 
L 154.027864 225.99598 
L 160.991682 228.001653 
L 167.9555 228.265619 
L 174.919318 228.201487 
L 181.883136 225.947554 
L 188.846955 222.030346 
L 195.810773 217.817212 
L 202.774591 213.574455 
L 209.738409 209.87519 
L 216.702227 207.456882 
L 223.666045 206.256251 
L 230.629864 206.689869 
L 237.593682 209.013164 
L 244.5575 211.47421 
L 251.521318 213.936387 
L 258.485136 216.848016 
L 265.448955 219.863281 
L 272.412773 222.642674 
L 279.376591 225.001987 
L 286.340409 226.728323 
L 293.304227 227.590238 
L 300.268045 227.454293 
L 307.231864 226.37843 
L 314.195682 224.628818 
L 321.1595 222.593642 
L 328.123318 220.581885 
L 335.087136 218.57941 
L 342.050955 216.344571 
L 349.014773 214.332144 
L 355.978591 213.933256 
L 362.942409 215.500489 
L 369.906227 217.707706 
L 376.870045 219.287604 
L 383.833864 220.637694 
L 390.797682 223.353259 
L 397.7615 226.498398 
L 404.725318 226.61126 
L 411.689136 223.942658 
L 418.652955 221.315998 
" clip-path="url(#p575c8ec427)" style="fill: none; stroke: #696969; stroke-width: 2; stroke-linecap: square"/>
   </g>
   <g id="line2d_19">
    <path d="M 70.462045 231.017645 
L 77.425864 230.532764 
L 84.389682 229.917695 
L 91.3535 229.211111 
L 98.317318 228.445213 
L 105.281136 227.646509 
L 112.244955 226.836532 
L 119.208773 226.032495 
L 126.172591 225.247884 
L 133.136409 224.492998 
L 140.100227 223.775429 
L 147.064045 223.100504 
L 154.027864 222.471661 
L 160.991682 221.890798 
L 167.9555 221.358566 
L 174.919318 220.874632 
L 181.883136 220.4379 
L 188.846955 220.046702 
L 195.810773 219.698958 
L 202.774591 219.392304 
L 209.738409 219.124203 
L 216.702227 218.892029 
L 223.666045 218.693132 
L 230.629864 218.524887 
L 237.593682 218.384734 
L 244.5575 218.270202 
L 251.521318 218.178931 
L 258.485136 218.108683 
L 265.448955 218.057358 
L 272.412773 218.023008 
L 279.376591 218.003854 
L 286.340409 217.998314 
L 293.304227 218.005039 
L 300.268045 218.022958 
L 307.231864 218.051347 
L 314.195682 218.089909 
L 321.1595 218.138881 
L 328.123318 218.199159 
L 335.087136 218.272461 
L 342.050955 218.361509 
L 349.014773 218.470247 
L 355.978591 218.604103 
L 362.942409 218.770281 
L 369.906227 218.978095 
L 376.870045 219.239355 
L 383.833864 219.568791 
L 390.797682 219.984538 
L 397.7615 220.508664 
L 404.725318 221.167762 
L 411.689136 221.993599 
L 418.652955 223.023823 
" clip-path="url(#p575c8ec427)" style="fill: none; stroke-dasharray: 7.4,3.2; stroke-dashoffset: 0; stroke: #79ad41; stroke-width: 2"/>
   </g>
   <g id="patch_9">
    <path d="M 53.0525 276.68 
L 53.0525 181.688 
" style="fill: none; stroke: #000000; stroke-width: 0.8; stroke-linejoin: miter; stroke-linecap: square"/>
   </g>
   <g id="patch_10">
    <path d="M 436.0625 276.68 
L 436.0625 181.688 
" style="fill: none; stroke: #000000; stroke-width: 0.8; stroke-linejoin: miter; stroke-linecap: square"/>
   </g>
   <g id="patch_11">
    <path d="M 53.0525 276.68 
L 436.0625 276.68 
" style="fill: none; stroke: #000000; stroke-width: 0.8; stroke-linejoin: miter; stroke-linecap: square"/>
   </g>
   <g id="patch_12">
    <path d="M 53.0525 181.688 
L 436.0625 181.688 
" style="fill: none; stroke: #000000; stroke-width: 0.8; stroke-linejoin: miter; stroke-linecap: square"/>
   </g>
  </g>
 </g>
 <defs>
  <clipPath id="p6988984b44">
   <rect x="53.0525" y="7.2" width="383.01" height="47.496"/>
  </clipPath>
  <clipPath id="p5702d879e7">
   <rect x="53.0525" y="70.696" width="383.01" height="94.992"/>
  </clipPath>
  <clipPath id="p575c8ec427">
   <rect x="53.0525" y="181.688" width="383.01" height="94.992"/>
  </clipPath>
 </defs>
</svg>
