<?xml version="1.0" encoding="utf-8" standalone="no"?>
<!DOCTYPE svg PUBLIC "-//W3C//DTD SVG 1.1//EN"
  "http://www.w3.org/Graphics/SVG/1.1/DTD/svg11.dtd">
<svg xmlns:xlink="http://www.w3.org/1999/xlink" width="443.2625pt" height="325.85pt" viewBox="0 0 443.2625 325.85" xmlns="http://www.w3.org/2000/svg" version="1.1">
 <metadata>
  <rdf:RDF xmlns:dc="http://purl.org/dc/elements/1.1/" xmlns:cc="http://creativecommons.org/ns#" xmlns:rdf="http://www.w3.org/1999/02/22-rdf-syntax-ns#">
   <cc:Work>
    <dc:type rdf:resource="http://purl.org/dc/dcmitype/StillImage"/>
    <dc:date>2024-01-28T20:58:26.625753</dc:date>
    <dc:format>image/svg+xml</dc:format>
    <dc:creator>
     <cc:Agent>
      <dc:title>Matplotlib v3.7.2, https://matplotlib.org/</dc:title>
     </cc:Agent>
    </dc:creator>
   </cc:Work>
  </rdf:RDF>
 </metadata>
 <defs>
  <style type="text/css">*{stroke-linejoin: round; stroke-linecap: butt}</style>
 </defs>
 <g id="figure_1">
  <g id="patch_1">
   <path d="M 0 325.85 
L 443.2625 325.85 
L 443.2625 0 
L 0 0 
z
" style="fill: #ffffff"/>
  </g>
  <g id="axes_1">
   <g id="patch_2">
    <path d="M 53.0525 54.696 
L 436.0625 54.696 
L 436.0625 7.2 
L 53.0525 7.2 
z
" style="fill: #ffffff"/>
   </g>
   <g id="PolyCollection_1">
    <defs>
     <path id="m30cffb403e" d="M 70.462045 -273.312909 
L 70.462045 -316.491091 
L 77.425864 -316.491091 
L 84.389682 -316.491091 
L 91.3535 -316.491091 
L 98.317318 -316.491091 
L 105.281136 -316.491091 
L 112.244955 -316.491091 
L 119.208773 -316.491091 
L 126.172591 -316.491091 
L 133.136409 -316.491091 
L 140.100227 -316.491091 
L 147.064045 -316.491091 
L 154.027864 -315.536541 
L 160.991682 -314.305535 
L 167.9555 -312.875768 
L 174.919318 -311.249317 
L 181.883136 -309.440938 
L 188.846955 -307.47885 
L 195.810773 -305.403416 
L 202.774591 -303.263709 
L 209.738409 -301.112587 
L 216.702227 -299.001295 
L 223.666045 -296.974731 
L 230.629864 -295.068253 
L 237.593682 -293.306278 
L 244.5575 -291.702569 
L 251.521318 -290.261634 
L 258.485136 -288.980679 
L 265.448955 -287.851739 
L 272.412773 -286.863535 
L 279.376591 -286.002979 
L 286.340409 -285.256311 
L 293.304227 -284.60982 
L 300.268045 -284.050335 
L 307.231864 -283.565452 
L 314.195682 -283.143648 
L 321.1595 -282.774279 
L 328.123318 -282.447535 
L 335.087136 -282.154394 
L 342.050955 -281.886543 
L 349.014773 -281.636349 
L 355.978591 -281.396814 
L 362.942409 -281.1616 
L 369.906227 -280.925038 
L 376.870045 -280.6822 
L 383.833864 -280.428952 
L 390.797682 -280.162033 
L 397.7615 -279.879145 
L 404.725318 -279.579013 
L 411.689136 -279.261435 
L 418.652955 -278.927284 
L 418.652955 -273.312909 
L 418.652955 -273.312909 
L 411.689136 -273.312909 
L 404.725318 -273.312909 
L 397.7615 -273.312909 
L 390.797682 -273.312909 
L 383.833864 -273.312909 
L 376.870045 -273.312909 
L 369.906227 -273.312909 
L 362.942409 -273.312909 
L 355.978591 -273.312909 
L 349.014773 -273.312909 
L 342.050955 -273.312909 
L 335.087136 -273.312909 
L 328.123318 -273.312909 
L 321.1595 -273.312909 
L 314.195682 -273.312909 
L 307.231864 -273.312909 
L 300.268045 -273.312909 
L 293.304227 -273.312909 
L 286.340409 -273.312909 
L 279.376591 -273.312909 
L 272.412773 -273.312909 
L 265.448955 -273.312909 
L 258.485136 -273.312909 
L 251.521318 -273.312909 
L 244.5575 -273.312909 
L 237.593682 -273.312909 
L 230.629864 -273.312909 
L 223.666045 -273.312909 
L 216.702227 -273.312909 
L 209.738409 -273.312909 
L 202.774591 -273.312909 
L 195.810773 -273.312909 
L 188.846955 -273.312909 
L 181.883136 -273.312909 
L 174.919318 -273.312909 
L 167.9555 -273.312909 
L 160.991682 -273.312909 
L 154.027864 -273.312909 
L 147.064045 -273.312909 
L 140.100227 -273.312909 
L 133.136409 -273.312909 
L 126.172591 -273.312909 
L 119.208773 -273.312909 
L 112.244955 -273.312909 
L 105.281136 -273.312909 
L 98.317318 -273.312909 
L 91.3535 -273.312909 
L 84.389682 -273.312909 
L 77.425864 -273.312909 
L 70.462045 -273.312909 
z
" style="stroke: #dc143c; stroke-opacity: 0.2"/>
    </defs>
    <g clip-path="url(#p929169c7a2)">
     <use xlink:href="#m30cffb403e" x="0" y="325.85" style="fill: #dc143c; fill-opacity: 0.2; stroke: #dc143c; stroke-opacity: 0.2"/>
    </g>
   </g>
   <g id="PolyCollection_2">
    <defs>
     <path id="mefcc56875a" d="M 70.462045 -273.312909 
L 70.462045 -278.110485 
L 77.425864 -278.110485 
L 84.389682 -278.110485 
L 91.3535 -278.110485 
L 98.317318 -278.110485 
L 105.281136 -278.110485 
L 112.244955 -278.110485 
L 119.208773 -278.110485 
L 126.172591 -278.110485 
L 133.136409 -278.110485 
L 140.100227 -278.110485 
L 147.064045 -278.110485 
L 154.027864 -279.065035 
L 160.991682 -280.296041 
L 167.9555 -281.725807 
L 174.919318 -283.352259 
L 181.883136 -285.160638 
L 188.846955 -287.122725 
L 195.810773 -289.19816 
L 202.774591 -291.337867 
L 209.738409 -293.488989 
L 216.702227 -295.600281 
L 223.666045 -297.626845 
L 230.629864 -299.533323 
L 237.593682 -301.295297 
L 244.5575 -302.899007 
L 251.521318 -304.339942 
L 258.485136 -305.620897 
L 265.448955 -306.749837 
L 272.412773 -307.738041 
L 279.376591 -308.598596 
L 286.340409 -309.345265 
L 293.304227 -309.991755 
L 300.268045 -310.551241 
L 307.231864 -311.036124 
L 314.195682 -311.457928 
L 321.1595 -311.827297 
L 328.123318 -312.154041 
L 335.087136 -312.447182 
L 342.050955 -312.715033 
L 349.014773 -312.965226 
L 355.978591 -313.204762 
L 362.942409 -313.439976 
L 369.906227 -313.676537 
L 376.870045 -313.919376 
L 383.833864 -314.172623 
L 390.797682 -314.439543 
L 397.7615 -314.722431 
L 404.725318 -315.022563 
L 411.689136 -315.340141 
L 418.652955 -315.674291 
L 418.652955 -273.312909 
L 418.652955 -273.312909 
L 411.689136 -273.312909 
L 404.725318 -273.312909 
L 397.7615 -273.312909 
L 390.797682 -273.312909 
L 383.833864 -273.312909 
L 376.870045 -273.312909 
L 369.906227 -273.312909 
L 362.942409 -273.312909 
L 355.978591 -273.312909 
L 349.014773 -273.312909 
L 342.050955 -273.312909 
L 335.087136 -273.312909 
L 328.123318 -273.312909 
L 321.1595 -273.312909 
L 314.195682 -273.312909 
L 307.231864 -273.312909 
L 300.268045 -273.312909 
L 293.304227 -273.312909 
L 286.340409 -273.312909 
L 279.376591 -273.312909 
L 272.412773 -273.312909 
L 265.448955 -273.312909 
L 258.485136 -273.312909 
L 251.521318 -273.312909 
L 244.5575 -273.312909 
L 237.593682 -273.312909 
L 230.629864 -273.312909 
L 223.666045 -273.312909 
L 216.702227 -273.312909 
L 209.738409 -273.312909 
L 202.774591 -273.312909 
L 195.810773 -273.312909 
L 188.846955 -273.312909 
L 181.883136 -273.312909 
L 174.919318 -273.312909 
L 167.9555 -273.312909 
L 160.991682 -273.312909 
L 154.027864 -273.312909 
L 147.064045 -273.312909 
L 140.100227 -273.312909 
L 133.136409 -273.312909 
L 126.172591 -273.312909 
L 119.208773 -273.312909 
L 112.244955 -273.312909 
L 105.281136 -273.312909 
L 98.317318 -273.312909 
L 91.3535 -273.312909 
L 84.389682 -273.312909 
L 77.425864 -273.312909 
L 70.462045 -273.312909 
z
" style="stroke: #000080; stroke-opacity: 0.2"/>
    </defs>
    <g clip-path="url(#p929169c7a2)">
     <use xlink:href="#mefcc56875a" x="0" y="325.85" style="fill: #000080; fill-opacity: 0.2; stroke: #000080; stroke-opacity: 0.2"/>
    </g>
   </g>
   <g id="matplotlib.axis_1"/>
   <g id="matplotlib.axis_2"/>
   <g id="line2d_1">
    <path d="M 70.462045 9.358909 
L 77.425864 9.358909 
L 84.389682 9.358909 
L 91.3535 9.358909 
L 98.317318 9.358909 
L 105.281136 9.358909 
L 112.244955 9.358909 
L 119.208773 9.358909 
L 126.172591 9.358909 
L 133.136409 9.358909 
L 140.100227 9.358909 
L 147.064045 9.358909 
L 154.027864 10.313459 
L 160.991682 11.544465 
L 167.9555 12.974232 
L 174.919318 14.600683 
L 181.883136 16.409062 
L 188.846955 18.37115 
L 195.810773 20.446584 
L 202.774591 22.586291 
L 209.738409 24.737413 
L 216.702227 26.848705 
L 223.666045 28.875269 
L 230.629864 30.781747 
L 237.593682 32.543722 
L 244.5575 34.147431 
L 251.521318 35.588366 
L 258.485136 36.869321 
L 265.448955 37.998261 
L 272.412773 38.986465 
L 279.376591 39.847021 
L 286.340409 40.593689 
L 293.304227 41.24018 
L 300.268045 41.799665 
L 307.231864 42.284548 
L 314.195682 42.706352 
L 321.1595 43.075721 
L 328.123318 43.402465 
L 335.087136 43.695606 
L 342.050955 43.963457 
L 349.014773 44.213651 
L 355.978591 44.453186 
L 362.942409 44.6884 
L 369.906227 44.924962 
L 376.870045 45.1678 
L 383.833864 45.421048 
L 390.797682 45.687967 
L 397.7615 45.970855 
L 404.725318 46.270987 
L 411.689136 46.588565 
L 418.652955 46.922716 
" clip-path="url(#p929169c7a2)" style="fill: none; stroke: #dc143c; stroke-width: 1.5; stroke-linecap: square"/>
   </g>
   <g id="line2d_2">
    <path d="M 70.462045 47.739515 
L 77.425864 47.739515 
L 84.389682 47.739515 
L 91.3535 47.739515 
L 98.317318 47.739515 
L 105.281136 47.739515 
L 112.244955 47.739515 
L 119.208773 47.739515 
L 126.172591 47.739515 
L 133.136409 47.739515 
L 140.100227 47.739515 
L 147.064045 47.739515 
L 154.027864 46.784965 
L 160.991682 45.553959 
L 167.9555 44.124193 
L 174.919318 42.497741 
L 181.883136 40.689362 
L 188.846955 38.727275 
L 195.810773 36.65184 
L 202.774591 34.512133 
L 209.738409 32.361011 
L 216.702227 30.249719 
L 223.666045 28.223155 
L 230.629864 26.316677 
L 237.593682 24.554703 
L 244.5575 22.950993 
L 251.521318 21.510058 
L 258.485136 20.229103 
L 265.448955 19.100163 
L 272.412773 18.111959 
L 279.376591 17.251404 
L 286.340409 16.504735 
L 293.304227 15.858245 
L 300.268045 15.298759 
L 307.231864 14.813876 
L 314.195682 14.392072 
L 321.1595 14.022703 
L 328.123318 13.695959 
L 335.087136 13.402818 
L 342.050955 13.134967 
L 349.014773 12.884774 
L 355.978591 12.645238 
L 362.942409 12.410024 
L 369.906227 12.173463 
L 376.870045 11.930624 
L 383.833864 11.677377 
L 390.797682 11.410457 
L 397.7615 11.127569 
L 404.725318 10.827437 
L 411.689136 10.509859 
L 418.652955 10.175709 
" clip-path="url(#p929169c7a2)" style="fill: none; stroke: #000080; stroke-width: 1.5; stroke-linecap: square"/>
   </g>
  </g>
  <g id="axes_2">
   <g id="patch_3">
    <path d="M 53.0525 165.688 
L 436.0625 165.688 
L 436.0625 70.696 
L 53.0525 70.696 
z
" style="fill: #ffffff"/>
   </g>
   <g id="PathCollection_1">
    <defs>
     <path id="m6d439622d2" d="M 0 0.866025 
C 0.229673 0.866025 0.449969 0.774776 0.612372 0.612372 
C 0.774776 0.449969 0.866025 0.229673 0.866025 0 
C 0.866025 -0.229673 0.774776 -0.449969 0.612372 -0.612372 
C 0.449969 -0.774776 0.229673 -0.866025 0 -0.866025 
C -0.229673 -0.866025 -0.449969 -0.774776 -0.612372 -0.612372 
C -0.774776 -0.449969 -0.866025 -0.229673 -0.866025 0 
C -0.866025 0.229673 -0.774776 0.449969 -0.612372 0.612372 
C -0.449969 0.774776 -0.229673 0.866025 0 0.866025 
z
" style="stroke: #daa520"/>
    </defs>
    <g clip-path="url(#p906cd4e50c)">
     <use xlink:href="#m6d439622d2" x="249.88104" y="135.592586" style="fill: #daa520; stroke: #daa520"/>
     <use xlink:href="#m6d439622d2" x="151.998484" y="100.751714" style="fill: #daa520; stroke: #daa520"/>
     <use xlink:href="#m6d439622d2" x="102.687511" y="138.621912" style="fill: #daa520; stroke: #daa520"/>
     <use xlink:href="#m6d439622d2" x="158.374641" y="124.898568" style="fill: #daa520; stroke: #daa520"/>
     <use xlink:href="#m6d439622d2" x="344.856824" y="121.220128" style="fill: #daa520; stroke: #daa520"/>
     <use xlink:href="#m6d439622d2" x="328.493693" y="133.08561" style="fill: #daa520; stroke: #daa520"/>
     <use xlink:href="#m6d439622d2" x="157.353597" y="110.088143" style="fill: #daa520; stroke: #daa520"/>
     <use xlink:href="#m6d439622d2" x="128.863638" y="112.633872" style="fill: #daa520; stroke: #daa520"/>
     <use xlink:href="#m6d439622d2" x="193.308715" y="140.344078" style="fill: #daa520; stroke: #daa520"/>
     <use xlink:href="#m6d439622d2" x="151.944254" y="100.66698" style="fill: #daa520; stroke: #daa520"/>
     <use xlink:href="#m6d439622d2" x="110.355982" y="100.68433" style="fill: #daa520; stroke: #daa520"/>
     <use xlink:href="#m6d439622d2" x="141.755679" y="96.172475" style="fill: #daa520; stroke: #daa520"/>
     <use xlink:href="#m6d439622d2" x="82.130238" y="123.070615" style="fill: #daa520; stroke: #daa520"/>
     <use xlink:href="#m6d439622d2" x="81.981376" y="92.298066" style="fill: #daa520; stroke: #daa520"/>
     <use xlink:href="#m6d439622d2" x="177.043293" y="137.872277" style="fill: #daa520; stroke: #daa520"/>
     <use xlink:href="#m6d439622d2" x="177.109474" y="122.527068" style="fill: #daa520; stroke: #daa520"/>
     <use xlink:href="#m6d439622d2" x="139.457624" y="118.450925" style="fill: #daa520; stroke: #daa520"/>
     <use xlink:href="#m6d439622d2" x="263.307756" y="134.793715" style="fill: #daa520; stroke: #daa520"/>
     <use xlink:href="#m6d439622d2" x="150.324918" y="115.991678" style="fill: #daa520; stroke: #daa520"/>
     <use xlink:href="#m6d439622d2" x="392.378665" y="127.962355" style="fill: #daa520; stroke: #daa520"/>
     <use xlink:href="#m6d439622d2" x="360.740275" y="118.920575" style="fill: #daa520; stroke: #daa520"/>
     <use xlink:href="#m6d439622d2" x="325.218133" y="152.195088" style="fill: #daa520; stroke: #daa520"/>
     <use xlink:href="#m6d439622d2" x="123.197673" y="117.368808" style="fill: #daa520; stroke: #daa520"/>
     <use xlink:href="#m6d439622d2" x="128.504291" y="97.018899" style="fill: #daa520; stroke: #daa520"/>
     <use xlink:href="#m6d439622d2" x="404.669902" y="141.605146" style="fill: #daa520; stroke: #daa520"/>
     <use xlink:href="#m6d439622d2" x="75.490664" y="106.873862" style="fill: #daa520; stroke: #daa520"/>
     <use xlink:href="#m6d439622d2" x="187.642353" y="136.594625" style="fill: #daa520; stroke: #daa520"/>
     <use xlink:href="#m6d439622d2" x="102.536686" y="80.639098" style="fill: #daa520; stroke: #daa520"/>
     <use xlink:href="#m6d439622d2" x="106.498838" y="75.013818" style="fill: #daa520; stroke: #daa520"/>
     <use xlink:href="#m6d439622d2" x="121.00107" y="87.408035" style="fill: #daa520; stroke: #daa520"/>
     <use xlink:href="#m6d439622d2" x="136.946079" y="102.96447" style="fill: #daa520; stroke: #daa520"/>
     <use xlink:href="#m6d439622d2" x="346.284255" y="149.869637" style="fill: #daa520; stroke: #daa520"/>
     <use xlink:href="#m6d439622d2" x="196.317108" y="140.942539" style="fill: #daa520; stroke: #daa520"/>
     <use xlink:href="#m6d439622d2" x="314.101505" y="139.0611" style="fill: #daa520; stroke: #daa520"/>
     <use xlink:href="#m6d439622d2" x="81.516709" y="121.597603" style="fill: #daa520; stroke: #daa520"/>
     <use xlink:href="#m6d439622d2" x="236.951704" y="121.311706" style="fill: #daa520; stroke: #daa520"/>
     <use xlink:href="#m6d439622d2" x="74.896951" y="99.336826" style="fill: #daa520; stroke: #daa520"/>
     <use xlink:href="#m6d439622d2" x="194.877236" y="129.707811" style="fill: #daa520; stroke: #daa520"/>
     <use xlink:href="#m6d439622d2" x="186.850123" y="128.794412" style="fill: #daa520; stroke: #daa520"/>
     <use xlink:href="#m6d439622d2" x="147.216633" y="109.866572" style="fill: #daa520; stroke: #daa520"/>
     <use xlink:href="#m6d439622d2" x="275.177531" y="139.43469" style="fill: #daa520; stroke: #daa520"/>
     <use xlink:href="#m6d439622d2" x="115.377096" y="123.977663" style="fill: #daa520; stroke: #daa520"/>
     <use xlink:href="#m6d439622d2" x="150.433332" y="111.23626" style="fill: #daa520; stroke: #daa520"/>
     <use xlink:href="#m6d439622d2" x="202.199043" y="146.023309" style="fill: #daa520; stroke: #daa520"/>
     <use xlink:href="#m6d439622d2" x="102.178958" y="111.782824" style="fill: #daa520; stroke: #daa520"/>
     <use xlink:href="#m6d439622d2" x="262.076129" y="161.370182" style="fill: #daa520; stroke: #daa520"/>
     <use xlink:href="#m6d439622d2" x="146.769476" y="116.421074" style="fill: #daa520; stroke: #daa520"/>
     <use xlink:href="#m6d439622d2" x="78.401013" y="118.669409" style="fill: #daa520; stroke: #daa520"/>
     <use xlink:href="#m6d439622d2" x="284.521416" y="133.780412" style="fill: #daa520; stroke: #daa520"/>
     <use xlink:href="#m6d439622d2" x="271.670085" y="138.320646" style="fill: #daa520; stroke: #daa520"/>
     <use xlink:href="#m6d439622d2" x="333.515646" y="127.565884" style="fill: #daa520; stroke: #daa520"/>
     <use xlink:href="#m6d439622d2" x="363.296029" y="131.660206" style="fill: #daa520; stroke: #daa520"/>
     <use xlink:href="#m6d439622d2" x="132.270686" y="101.941593" style="fill: #daa520; stroke: #daa520"/>
     <use xlink:href="#m6d439622d2" x="104.035072" y="85.314939" style="fill: #daa520; stroke: #daa520"/>
     <use xlink:href="#m6d439622d2" x="175.448998" y="122.94576" style="fill: #daa520; stroke: #daa520"/>
     <use xlink:href="#m6d439622d2" x="81.231377" y="108.157538" style="fill: #daa520; stroke: #daa520"/>
     <use xlink:href="#m6d439622d2" x="114.424617" y="81.346427" style="fill: #daa520; stroke: #daa520"/>
     <use xlink:href="#m6d439622d2" x="173.113408" y="121.729976" style="fill: #daa520; stroke: #daa520"/>
     <use xlink:href="#m6d439622d2" x="122.899893" y="118.178852" style="fill: #daa520; stroke: #daa520"/>
     <use xlink:href="#m6d439622d2" x="113.193788" y="120.683899" style="fill: #daa520; stroke: #daa520"/>
     <use xlink:href="#m6d439622d2" x="339.468293" y="146.791765" style="fill: #daa520; stroke: #daa520"/>
     <use xlink:href="#m6d439622d2" x="256.747766" y="152.263215" style="fill: #daa520; stroke: #daa520"/>
     <use xlink:href="#m6d439622d2" x="132.286497" y="83.198723" style="fill: #daa520; stroke: #daa520"/>
     <use xlink:href="#m6d439622d2" x="259.652422" y="136.337551" style="fill: #daa520; stroke: #daa520"/>
     <use xlink:href="#m6d439622d2" x="117.694941" y="120.115488" style="fill: #daa520; stroke: #daa520"/>
     <use xlink:href="#m6d439622d2" x="269.617663" y="130.720289" style="fill: #daa520; stroke: #daa520"/>
     <use xlink:href="#m6d439622d2" x="157.065219" y="125.334117" style="fill: #daa520; stroke: #daa520"/>
     <use xlink:href="#m6d439622d2" x="128.895369" y="84.200079" style="fill: #daa520; stroke: #daa520"/>
     <use xlink:href="#m6d439622d2" x="206.292722" y="150.45971" style="fill: #daa520; stroke: #daa520"/>
     <use xlink:href="#m6d439622d2" x="282.349083" y="133.913702" style="fill: #daa520; stroke: #daa520"/>
     <use xlink:href="#m6d439622d2" x="96.487629" y="129.637178" style="fill: #daa520; stroke: #daa520"/>
     <use xlink:href="#m6d439622d2" x="262.519921" y="134.171948" style="fill: #daa520; stroke: #daa520"/>
     <use xlink:href="#m6d439622d2" x="132.516366" y="115.512094" style="fill: #daa520; stroke: #daa520"/>
     <use xlink:href="#m6d439622d2" x="134.808437" y="89.064621" style="fill: #daa520; stroke: #daa520"/>
     <use xlink:href="#m6d439622d2" x="82.811922" y="103.432278" style="fill: #daa520; stroke: #daa520"/>
     <use xlink:href="#m6d439622d2" x="185.86021" y="127.638287" style="fill: #daa520; stroke: #daa520"/>
     <use xlink:href="#m6d439622d2" x="148.495981" y="120.365551" style="fill: #daa520; stroke: #daa520"/>
     <use xlink:href="#m6d439622d2" x="249.49774" y="126.252091" style="fill: #daa520; stroke: #daa520"/>
     <use xlink:href="#m6d439622d2" x="273.366965" y="140.76816" style="fill: #daa520; stroke: #daa520"/>
     <use xlink:href="#m6d439622d2" x="206.147883" y="117.553335" style="fill: #daa520; stroke: #daa520"/>
     <use xlink:href="#m6d439622d2" x="321.771098" y="143.614228" style="fill: #daa520; stroke: #daa520"/>
     <use xlink:href="#m6d439622d2" x="85.784542" y="126.771374" style="fill: #daa520; stroke: #daa520"/>
     <use xlink:href="#m6d439622d2" x="211.627382" y="150.100095" style="fill: #daa520; stroke: #daa520"/>
     <use xlink:href="#m6d439622d2" x="210.719544" y="137.732541" style="fill: #daa520; stroke: #daa520"/>
     <use xlink:href="#m6d439622d2" x="283.89105" y="140.372572" style="fill: #daa520; stroke: #daa520"/>
     <use xlink:href="#m6d439622d2" x="193.484173" y="131.674656" style="fill: #daa520; stroke: #daa520"/>
     <use xlink:href="#m6d439622d2" x="120.860595" y="81.90531" style="fill: #daa520; stroke: #daa520"/>
     <use xlink:href="#m6d439622d2" x="83.671902" y="116.687241" style="fill: #daa520; stroke: #daa520"/>
     <use xlink:href="#m6d439622d2" x="236.636174" y="120.618053" style="fill: #daa520; stroke: #daa520"/>
    </g>
   </g>
   <g id="matplotlib.axis_3"/>
   <g id="matplotlib.axis_4">
    <g id="ytick_1">
     <g id="line2d_3">
      <defs>
       <path id="md26c986bdd" d="M 0 0 
L -3.5 0 
" style="stroke: #696969; stroke-width: 0.8"/>
      </defs>
      <g>
       <use xlink:href="#md26c986bdd" x="53.0525" y="129.572134" style="fill: #696969; stroke: #696969; stroke-width: 0.8"/>
      </g>
     </g>
     <g id="text_1">
      <!-- 0 -->
      <g style="fill: #696969" transform="translate(35.8725 135.650884) scale(0.16 -0.16)">
       <defs>
        <path id="DejaVuSans-30" d="M 2034 4250 
Q 1547 4250 1301 3770 
Q 1056 3291 1056 2328 
Q 1056 1369 1301 889 
Q 1547 409 2034 409 
Q 2525 409 2770 889 
Q 3016 1369 3016 2328 
Q 3016 3291 2770 3770 
Q 2525 4250 2034 4250 
z
M 2034 4750 
Q 2819 4750 3233 4129 
Q 3647 3509 3647 2328 
Q 3647 1150 3233 529 
Q 2819 -91 2034 -91 
Q 1250 -91 836 529 
Q 422 1150 422 2328 
Q 422 3509 836 4129 
Q 1250 4750 2034 4750 
z
" transform="scale(0.015625)"/>
       </defs>
       <use xlink:href="#DejaVuSans-30"/>
      </g>
     </g>
    </g>
    <g id="ytick_2">
     <g id="line2d_4">
      <g>
       <use xlink:href="#md26c986bdd" x="53.0525" y="86.893263" style="fill: #696969; stroke: #696969; stroke-width: 0.8"/>
      </g>
     </g>
     <g id="text_2">
      <!-- 5 -->
      <g style="fill: #696969" transform="translate(35.8725 92.972013) scale(0.16 -0.16)">
       <defs>
        <path id="DejaVuSans-35" d="M 691 4666 
L 3169 4666 
L 3169 4134 
L 1269 4134 
L 1269 2991 
Q 1406 3038 1543 3061 
Q 1681 3084 1819 3084 
Q 2600 3084 3056 2656 
Q 3513 2228 3513 1497 
Q 3513 744 3044 326 
Q 2575 -91 1722 -91 
Q 1428 -91 1123 -41 
Q 819 9 494 109 
L 494 744 
Q 775 591 1075 516 
Q 1375 441 1709 441 
Q 2250 441 2565 725 
Q 2881 1009 2881 1497 
Q 2881 1984 2565 2268 
Q 2250 2553 1709 2553 
Q 1456 2553 1204 2497 
Q 953 2441 691 2322 
L 691 4666 
z
" transform="scale(0.015625)"/>
       </defs>
       <use xlink:href="#DejaVuSans-35"/>
      </g>
     </g>
    </g>
   </g>
   <g id="line2d_5">
    <path d="M 70.462045 116.886539 
L 77.425864 114.964596 
L 84.389682 113.074572 
L 91.3535 111.026001 
L 98.317318 108.779995 
L 105.281136 106.480563 
L 112.244955 104.422564 
L 119.208773 102.971797 
L 126.172591 102.465946 
L 133.136409 103.128589 
L 140.100227 105.020359 
L 147.064045 108.033785 
L 154.027864 111.920047 
L 160.991682 116.327818 
L 167.9555 120.84211 
L 174.919318 125.028001 
L 181.883136 128.49403 
L 188.846955 130.979108 
L 195.810773 132.438268 
L 202.774591 133.07893 
L 209.738409 133.306518 
L 216.702227 133.581666 
L 223.666045 134.24524 
L 230.629864 135.393066 
L 237.593682 136.858771 
L 244.5575 138.30583 
L 251.521318 139.377059 
L 258.485136 139.83242 
L 265.448955 139.625696 
L 272.412773 138.906447 
L 279.376591 137.962401 
L 286.340409 137.128876 
L 293.304227 136.69095 
L 300.268045 136.798437 
L 307.231864 137.409358 
L 314.195682 138.274977 
L 321.1595 138.977262 
L 328.123318 139.023892 
L 335.087136 137.992613 
L 342.050955 135.69488 
L 349.014773 132.30499 
L 355.978591 128.39227 
L 362.942409 124.815969 
L 369.906227 122.496207 
L 376.870045 122.135393 
L 383.833864 123.995555 
L 390.797682 127.814621 
L 397.7615 132.881247 
L 404.725318 138.222366 
L 411.689136 142.828178 
L 418.652955 145.851583 
" clip-path="url(#p906cd4e50c)" style="fill: none; stroke: #000000; stroke-width: 2; stroke-linecap: square"/>
   </g>
   <g id="line2d_6">
    <path d="M 70.462045 111.283429 
L 77.425864 112.045242 
L 84.389682 110.417088 
L 91.3535 107.898425 
L 98.317318 105.446525 
L 105.281136 103.61987 
L 112.244955 102.691879 
L 119.208773 102.739763 
L 126.172591 103.712772 
L 133.136409 105.483497 
L 140.100227 107.885455 
L 147.064045 110.739684 
L 154.027864 113.872713 
L 160.991682 117.127863 
L 167.9555 120.371539 
L 174.919318 123.49586 
L 181.883136 126.418726 
L 188.846955 129.082186 
L 195.810773 131.449782 
L 202.774591 133.503372 
L 209.738409 135.239799 
L 216.702227 136.667654 
L 223.666045 137.804281 
L 230.629864 138.673115 
L 237.593682 139.301374 
L 244.5575 139.718096 
L 251.521318 139.952487 
L 258.485136 140.032546 
L 265.448955 139.983923 
L 272.412773 139.828972 
L 279.376591 139.586004 
L 286.340409 139.268743 
L 293.304227 138.886024 
L 300.268045 138.441802 
L 307.231864 137.935562 
L 314.195682 137.363251 
L 321.1595 136.718876 
L 328.123318 135.996908 
L 335.087136 135.195654 
L 342.050955 134.321763 
L 349.014773 133.39598 
L 355.978591 132.460268 
L 362.942409 131.586352 
L 369.906227 130.885667 
L 376.870045 130.520634 
L 383.833864 130.717046 
L 390.797682 131.777239 
L 397.7615 134.09356 
L 404.725318 138.161452 
L 411.689136 144.591271 
L 418.652955 154.1177 
" clip-path="url(#p906cd4e50c)" style="fill: none; stroke-dasharray: 7.4,3.2; stroke-dashoffset: 0; stroke: #34b6c6; stroke-width: 2"/>
   </g>
   <g id="line2d_7">
    <path d="M 70.462045 110.912781 
L 77.425864 110.450669 
L 84.389682 110.203657 
L 91.3535 109.925945 
L 98.317318 109.248957 
L 105.281136 107.61937 
L 112.244955 104.893687 
L 119.208773 102.542457 
L 126.172591 101.962056 
L 133.136409 103.299017 
L 140.100227 106.119917 
L 147.064045 109.611751 
L 154.027864 114.622694 
L 160.991682 120.645406 
L 167.9555 125.543119 
L 174.919318 129.86849 
L 181.883136 131.991751 
L 188.846955 132.027478 
L 195.810773 130.863896 
L 202.774591 128.878085 
L 209.738409 126.840924 
L 216.702227 125.686609 
L 223.666045 125.693467 
L 230.629864 127.236223 
L 237.593682 130.334652 
L 244.5575 133.486093 
L 251.521318 136.265286 
L 258.485136 138.753704 
L 265.448955 140.674896 
L 272.412773 141.939832 
L 279.376591 142.694141 
L 286.340409 143.108367 
L 293.304227 143.293268 
L 300.268045 143.299328 
L 307.231864 143.127217 
L 314.195682 142.72516 
L 321.1595 141.965395 
L 328.123318 140.596382 
L 335.087136 138.212185 
L 342.050955 134.470419 
L 349.014773 129.840321 
L 355.978591 125.795563 
L 362.942409 123.374559 
L 369.906227 122.531011 
L 376.870045 123.052585 
L 383.833864 125.442512 
L 390.797682 130.523555 
L 397.7615 136.975389 
L 404.725318 141.513037 
L 411.689136 143.332972 
L 418.652955 143.524859 
" clip-path="url(#p906cd4e50c)" style="fill: none; stroke-dasharray: 7.4,3.2; stroke-dashoffset: 0; stroke: #9370db; stroke-width: 2"/>
   </g>
   <g id="line2d_8">
    <path d="M 70.462045 114.392005 
L 77.425864 114.364176 
L 84.389682 114.15253 
L 91.3535 113.611548 
L 98.317318 112.43866 
L 105.281136 110.112989 
L 112.244955 106.534647 
L 119.208773 103.314575 
L 126.172591 101.973915 
L 133.136409 102.690389 
L 140.100227 105.015793 
L 147.064045 108.091551 
L 154.027864 112.829981 
L 160.991682 118.692633 
L 167.9555 123.398401 
L 174.919318 127.537771 
L 181.883136 129.368836 
L 188.846955 129.01244 
L 195.810773 127.415466 
L 202.774591 124.978506 
L 209.738409 122.522711 
L 216.702227 121.043661 
L 223.666045 120.836317 
L 230.629864 122.298682 
L 237.593682 125.449665 
L 244.5575 128.681924 
L 251.521318 131.539174 
L 258.485136 134.10658 
L 265.448955 136.087076 
L 272.412773 137.383951 
L 279.376591 138.15131 
L 286.340409 138.570039 
L 293.304227 138.757331 
L 300.268045 138.766206 
L 307.231864 138.596715 
L 314.195682 138.193196 
L 321.1595 137.4192 
L 328.123318 136.006535 
L 335.087136 133.522696 
L 342.050955 129.60385 
L 349.014773 124.75418 
L 355.978591 120.552114 
L 362.942409 118.112657 
L 369.906227 117.393971 
L 376.870045 118.179188 
L 383.833864 121.018682 
L 390.797682 126.807571 
L 397.7615 134.155627 
L 404.725318 139.578614 
L 411.689136 142.248668 
L 418.652955 143.366739 
" clip-path="url(#p906cd4e50c)" style="fill: none; stroke-dasharray: 12.8,3.2,2,3.2; stroke-dashoffset: 0; stroke: #ff0000; stroke-width: 2"/>
   </g>
   <g id="patch_4">
    <path d="M 53.0525 165.688 
L 53.0525 70.696 
" style="fill: none; stroke: #000000; stroke-width: 0.8; stroke-linejoin: miter; stroke-linecap: square"/>
   </g>
   <g id="patch_5">
    <path d="M 436.0625 165.688 
L 436.0625 70.696 
" style="fill: none; stroke: #000000; stroke-width: 0.8; stroke-linejoin: miter; stroke-linecap: square"/>
   </g>
   <g id="patch_6">
    <path d="M 53.0525 165.688 
L 436.0625 165.688 
" style="fill: none; stroke: #000000; stroke-width: 0.8; stroke-linejoin: miter; stroke-linecap: square"/>
   </g>
   <g id="patch_7">
    <path d="M 53.0525 70.696 
L 436.0625 70.696 
" style="fill: none; stroke: #000000; stroke-width: 0.8; stroke-linejoin: miter; stroke-linecap: square"/>
   </g>
  </g>
  <g id="axes_3">
   <g id="patch_8">
    <path d="M 53.0525 276.68 
L 436.0625 276.68 
L 436.0625 181.688 
L 53.0525 181.688 
z
" style="fill: #ffffff"/>
   </g>
   <g id="PathCollection_2">
    <g clip-path="url(#p7df5ef2201)">
     <use xlink:href="#m6d439622d2" x="249.88104" y="218.252629" style="fill: #daa520; stroke: #daa520"/>
     <use xlink:href="#m6d439622d2" x="151.998484" y="239.153665" style="fill: #daa520; stroke: #daa520"/>
     <use xlink:href="#m6d439622d2" x="102.687511" y="186.865955" style="fill: #daa520; stroke: #daa520"/>
     <use xlink:href="#m6d439622d2" x="158.374641" y="213.287289" style="fill: #daa520; stroke: #daa520"/>
     <use xlink:href="#m6d439622d2" x="344.856824" y="233.65484" style="fill: #daa520; stroke: #daa520"/>
     <use xlink:href="#m6d439622d2" x="328.493693" y="228.629433" style="fill: #daa520; stroke: #daa520"/>
     <use xlink:href="#m6d439622d2" x="157.353597" y="232.497218" style="fill: #daa520; stroke: #daa520"/>
     <use xlink:href="#m6d439622d2" x="128.863638" y="210.097363" style="fill: #daa520; stroke: #daa520"/>
     <use xlink:href="#m6d439622d2" x="193.308715" y="207.870214" style="fill: #daa520; stroke: #daa520"/>
     <use xlink:href="#m6d439622d2" x="151.944254" y="239.214159" style="fill: #daa520; stroke: #daa520"/>
     <use xlink:href="#m6d439622d2" x="110.355982" y="234.229779" style="fill: #daa520; stroke: #daa520"/>
     <use xlink:href="#m6d439622d2" x="141.755679" y="237.851692" style="fill: #daa520; stroke: #daa520"/>
     <use xlink:href="#m6d439622d2" x="82.130238" y="212.579044" style="fill: #daa520; stroke: #daa520"/>
     <use xlink:href="#m6d439622d2" x="81.981376" y="255.008821" style="fill: #daa520; stroke: #daa520"/>
     <use xlink:href="#m6d439622d2" x="177.043293" y="211.683217" style="fill: #daa520; stroke: #daa520"/>
     <use xlink:href="#m6d439622d2" x="177.109474" y="232.868774" style="fill: #daa520; stroke: #daa520"/>
     <use xlink:href="#m6d439622d2" x="139.457624" y="205.873789" style="fill: #daa520; stroke: #daa520"/>
     <use xlink:href="#m6d439622d2" x="263.307756" y="225.789039" style="fill: #daa520; stroke: #daa520"/>
     <use xlink:href="#m6d439622d2" x="150.324918" y="216.501792" style="fill: #daa520; stroke: #daa520"/>
     <use xlink:href="#m6d439622d2" x="392.378665" y="225.43505" style="fill: #daa520; stroke: #daa520"/>
     <use xlink:href="#m6d439622d2" x="360.740275" y="224.410326" style="fill: #daa520; stroke: #daa520"/>
     <use xlink:href="#m6d439622d2" x="325.218133" y="203.377448" style="fill: #daa520; stroke: #daa520"/>
     <use xlink:href="#m6d439622d2" x="123.197673" y="203.957485" style="fill: #daa520; stroke: #daa520"/>
     <use xlink:href="#m6d439622d2" x="128.504291" y="231.592414" style="fill: #daa520; stroke: #daa520"/>
     <use xlink:href="#m6d439622d2" x="404.669902" y="221.904942" style="fill: #daa520; stroke: #daa520"/>
     <use xlink:href="#m6d439622d2" x="75.490664" y="235.098092" style="fill: #daa520; stroke: #daa520"/>
     <use xlink:href="#m6d439622d2" x="187.642353" y="214.517356" style="fill: #daa520; stroke: #daa520"/>
     <use xlink:href="#m6d439622d2" x="102.536686" y="266.874166" style="fill: #daa520; stroke: #daa520"/>
     <use xlink:href="#m6d439622d2" x="106.498838" y="272.362182" style="fill: #daa520; stroke: #daa520"/>
     <use xlink:href="#m6d439622d2" x="121.00107" y="245.920558" style="fill: #daa520; stroke: #daa520"/>
     <use xlink:href="#m6d439622d2" x="136.946079" y="225.94191" style="fill: #daa520; stroke: #daa520"/>
     <use xlink:href="#m6d439622d2" x="346.284255" y="192.767585" style="fill: #daa520; stroke: #daa520"/>
     <use xlink:href="#m6d439622d2" x="196.317108" y="205.880791" style="fill: #daa520; stroke: #daa520"/>
     <use xlink:href="#m6d439622d2" x="314.101505" y="223.555424" style="fill: #daa520; stroke: #daa520"/>
     <use xlink:href="#m6d439622d2" x="81.516709" y="214.638644" style="fill: #daa520; stroke: #daa520"/>
     <use xlink:href="#m6d439622d2" x="236.951704" y="230.00752" style="fill: #daa520; stroke: #daa520"/>
     <use xlink:href="#m6d439622d2" x="74.896951" y="245.49448" style="fill: #daa520; stroke: #daa520"/>
     <use xlink:href="#m6d439622d2" x="194.877236" y="221.956133" style="fill: #daa520; stroke: #daa520"/>
     <use xlink:href="#m6d439622d2" x="186.850123" y="225.39259" style="fill: #daa520; stroke: #daa520"/>
     <use xlink:href="#m6d439622d2" x="147.216633" y="222.404558" style="fill: #daa520; stroke: #daa520"/>
     <use xlink:href="#m6d439622d2" x="275.177531" y="222.406442" style="fill: #daa520; stroke: #daa520"/>
     <use xlink:href="#m6d439622d2" x="115.377096" y="198.453612" style="fill: #daa520; stroke: #daa520"/>
     <use xlink:href="#m6d439622d2" x="150.433332" y="223.157837" style="fill: #daa520; stroke: #daa520"/>
     <use xlink:href="#m6d439622d2" x="202.199043" y="196.030532" style="fill: #daa520; stroke: #daa520"/>
     <use xlink:href="#m6d439622d2" x="102.178958" y="224.111885" style="fill: #daa520; stroke: #daa520"/>
     <use xlink:href="#m6d439622d2" x="262.076129" y="188.685633" style="fill: #daa520; stroke: #daa520"/>
     <use xlink:href="#m6d439622d2" x="146.769476" y="213.049483" style="fill: #daa520; stroke: #daa520"/>
     <use xlink:href="#m6d439622d2" x="78.401013" y="218.78403" style="fill: #daa520; stroke: #daa520"/>
     <use xlink:href="#m6d439622d2" x="284.521416" y="231.229294" style="fill: #daa520; stroke: #daa520"/>
     <use xlink:href="#m6d439622d2" x="271.670085" y="223.299228" style="fill: #daa520; stroke: #daa520"/>
     <use xlink:href="#m6d439622d2" x="333.515646" y="233.890053" style="fill: #daa520; stroke: #daa520"/>
     <use xlink:href="#m6d439622d2" x="363.296029" y="205.962239" style="fill: #daa520; stroke: #daa520"/>
     <use xlink:href="#m6d439622d2" x="132.270686" y="225.503914" style="fill: #daa520; stroke: #daa520"/>
     <use xlink:href="#m6d439622d2" x="104.035072" y="259.648845" style="fill: #daa520; stroke: #daa520"/>
     <use xlink:href="#m6d439622d2" x="175.448998" y="231.403422" style="fill: #daa520; stroke: #daa520"/>
     <use xlink:href="#m6d439622d2" x="81.231377" y="233.17943" style="fill: #daa520; stroke: #daa520"/>
     <use xlink:href="#m6d439622d2" x="114.424617" y="257.875976" style="fill: #daa520; stroke: #daa520"/>
     <use xlink:href="#m6d439622d2" x="173.113408" y="231.46257" style="fill: #daa520; stroke: #daa520"/>
     <use xlink:href="#m6d439622d2" x="122.899893" y="202.913453" style="fill: #daa520; stroke: #daa520"/>
     <use xlink:href="#m6d439622d2" x="113.193788" y="204.530935" style="fill: #daa520; stroke: #daa520"/>
     <use xlink:href="#m6d439622d2" x="339.468293" y="203.278367" style="fill: #daa520; stroke: #daa520"/>
     <use xlink:href="#m6d439622d2" x="256.747766" y="198.887611" style="fill: #daa520; stroke: #daa520"/>
     <use xlink:href="#m6d439622d2" x="132.286497" y="251.347097" style="fill: #daa520; stroke: #daa520"/>
     <use xlink:href="#m6d439622d2" x="259.652422" y="222.190064" style="fill: #daa520; stroke: #daa520"/>
     <use xlink:href="#m6d439622d2" x="117.694941" y="202.357071" style="fill: #daa520; stroke: #daa520"/>
     <use xlink:href="#m6d439622d2" x="269.617663" y="233.313548" style="fill: #daa520; stroke: #daa520"/>
     <use xlink:href="#m6d439622d2" x="157.065219" y="211.133594" style="fill: #daa520; stroke: #daa520"/>
     <use xlink:href="#m6d439622d2" x="128.895369" y="249.298843" style="fill: #daa520; stroke: #daa520"/>
     <use xlink:href="#m6d439622d2" x="206.292722" y="187.801408" style="fill: #daa520; stroke: #daa520"/>
     <use xlink:href="#m6d439622d2" x="282.349083" y="230.876989" style="fill: #daa520; stroke: #daa520"/>
     <use xlink:href="#m6d439622d2" x="96.487629" y="201.577624" style="fill: #daa520; stroke: #daa520"/>
     <use xlink:href="#m6d439622d2" x="262.519921" y="226.351973" style="fill: #daa520; stroke: #daa520"/>
     <use xlink:href="#m6d439622d2" x="132.516366" y="206.868577" style="fill: #daa520; stroke: #daa520"/>
     <use xlink:href="#m6d439622d2" x="134.808437" y="244.148114" style="fill: #daa520; stroke: #daa520"/>
     <use xlink:href="#m6d439622d2" x="82.811922" y="239.61669" style="fill: #daa520; stroke: #daa520"/>
     <use xlink:href="#m6d439622d2" x="185.86021" y="227.104948" style="fill: #daa520; stroke: #daa520"/>
     <use xlink:href="#m6d439622d2" x="148.495981" y="208.903044" style="fill: #daa520; stroke: #daa520"/>
     <use xlink:href="#m6d439622d2" x="249.49774" y="230.916465" style="fill: #daa520; stroke: #daa520"/>
     <use xlink:href="#m6d439622d2" x="273.366965" y="220.258043" style="fill: #daa520; stroke: #daa520"/>
     <use xlink:href="#m6d439622d2" x="206.147883" y="233.237497" style="fill: #daa520; stroke: #daa520"/>
     <use xlink:href="#m6d439622d2" x="321.771098" y="216.072578" style="fill: #daa520; stroke: #daa520"/>
     <use xlink:href="#m6d439622d2" x="85.784542" y="207.241628" style="fill: #daa520; stroke: #daa520"/>
     <use xlink:href="#m6d439622d2" x="211.627382" y="186.005818" style="fill: #daa520; stroke: #daa520"/>
     <use xlink:href="#m6d439622d2" x="210.719544" y="203.386105" style="fill: #daa520; stroke: #daa520"/>
     <use xlink:href="#m6d439622d2" x="283.89105" y="222.096186" style="fill: #daa520; stroke: #daa520"/>
     <use xlink:href="#m6d439622d2" x="193.484173" y="219.760557" style="fill: #daa520; stroke: #daa520"/>
     <use xlink:href="#m6d439622d2" x="120.860595" y="253.558434" style="fill: #daa520; stroke: #daa520"/>
     <use xlink:href="#m6d439622d2" x="83.671902" y="221.293698" style="fill: #daa520; stroke: #daa520"/>
     <use xlink:href="#m6d439622d2" x="236.636174" y="230.748203" style="fill: #daa520; stroke: #daa520"/>
    </g>
   </g>
   <g id="matplotlib.axis_5">
    <g id="xtick_1">
     <g id="line2d_9">
      <defs>
       <path id="mbbe65d2955" d="M 0 0 
L 0 3.5 
" style="stroke: #696969; stroke-width: 0.8"/>
      </defs>
      <g>
       <use xlink:href="#mbbe65d2955" x="70.462045" y="276.68" style="fill: #696969; stroke: #696969; stroke-width: 0.8"/>
      </g>
     </g>
     <g id="text_3">
      <!-- −1.0 -->
      <g style="fill: #696969" transform="translate(51.035795 295.8375) scale(0.16 -0.16)">
       <defs>
        <path id="DejaVuSans-2212" d="M 678 2272 
L 4684 2272 
L 4684 1741 
L 678 1741 
L 678 2272 
z
" transform="scale(0.015625)"/>
        <path id="DejaVuSans-31" d="M 794 531 
L 1825 531 
L 1825 4091 
L 703 3866 
L 703 4441 
L 1819 4666 
L 2450 4666 
L 2450 531 
L 3481 531 
L 3481 0 
L 794 0 
L 794 531 
z
" transform="scale(0.015625)"/>
        <path id="DejaVuSans-2e" d="M 684 794 
L 1344 794 
L 1344 0 
L 684 0 
L 684 794 
z
" transform="scale(0.015625)"/>
       </defs>
       <use xlink:href="#DejaVuSans-2212"/>
       <use xlink:href="#DejaVuSans-31" x="83.789062"/>
       <use xlink:href="#DejaVuSans-2e" x="147.412109"/>
       <use xlink:href="#DejaVuSans-30" x="179.199219"/>
      </g>
     </g>
    </g>
    <g id="xtick_2">
     <g id="line2d_10">
      <g>
       <use xlink:href="#mbbe65d2955" x="157.509773" y="276.68" style="fill: #696969; stroke: #696969; stroke-width: 0.8"/>
      </g>
     </g>
     <g id="text_4">
      <!-- −0.5 -->
      <g style="fill: #696969" transform="translate(138.083523 295.8375) scale(0.16 -0.16)">
       <use xlink:href="#DejaVuSans-2212"/>
       <use xlink:href="#DejaVuSans-30" x="83.789062"/>
       <use xlink:href="#DejaVuSans-2e" x="147.412109"/>
       <use xlink:href="#DejaVuSans-35" x="179.199219"/>
      </g>
     </g>
    </g>
    <g id="xtick_3">
     <g id="line2d_11">
      <g>
       <use xlink:href="#mbbe65d2955" x="244.5575" y="276.68" style="fill: #696969; stroke: #696969; stroke-width: 0.8"/>
      </g>
     </g>
     <g id="text_5">
      <!-- 0.0 -->
      <g style="fill: #696969" transform="translate(231.835 295.8375) scale(0.16 -0.16)">
       <use xlink:href="#DejaVuSans-30"/>
       <use xlink:href="#DejaVuSans-2e" x="63.623047"/>
       <use xlink:href="#DejaVuSans-30" x="95.410156"/>
      </g>
     </g>
    </g>
    <g id="xtick_4">
     <g id="line2d_12">
      <g>
       <use xlink:href="#mbbe65d2955" x="331.605227" y="276.68" style="fill: #696969; stroke: #696969; stroke-width: 0.8"/>
      </g>
     </g>
     <g id="text_6">
      <!-- 0.5 -->
      <g style="fill: #696969" transform="translate(318.882727 295.8375) scale(0.16 -0.16)">
       <use xlink:href="#DejaVuSans-30"/>
       <use xlink:href="#DejaVuSans-2e" x="63.623047"/>
       <use xlink:href="#DejaVuSans-35" x="95.410156"/>
      </g>
     </g>
    </g>
    <g id="xtick_5">
     <g id="line2d_13">
      <g>
       <use xlink:href="#mbbe65d2955" x="418.652955" y="276.68" style="fill: #696969; stroke: #696969; stroke-width: 0.8"/>
      </g>
     </g>
     <g id="text_7">
      <!-- 1.0 -->
      <g style="fill: #696969" transform="translate(405.930455 295.8375) scale(0.16 -0.16)">
       <use xlink:href="#DejaVuSans-31"/>
       <use xlink:href="#DejaVuSans-2e" x="63.623047"/>
       <use xlink:href="#DejaVuSans-30" x="95.410156"/>
      </g>
     </g>
    </g>
    <g id="text_8">
     <!-- $X$ -->
     <g transform="translate(239.0375 315.3225) scale(0.16 -0.16)">
      <defs>
       <path id="DejaVuSans-Oblique-58" d="M 878 4666 
L 1516 4666 
L 2316 2981 
L 3763 4666 
L 4500 4666 
L 2578 2438 
L 3738 0 
L 3103 0 
L 2163 1966 
L 459 0 
L -275 0 
L 1906 2509 
L 878 4666 
z
" transform="scale(0.015625)"/>
      </defs>
      <use xlink:href="#DejaVuSans-Oblique-58" transform="translate(0 0.09375)"/>
     </g>
    </g>
   </g>
   <g id="matplotlib.axis_6">
    <g id="ytick_3">
     <g id="line2d_14">
      <g>
       <use xlink:href="#md26c986bdd" x="53.0525" y="254.159738" style="fill: #696969; stroke: #696969; stroke-width: 0.8"/>
      </g>
     </g>
     <g id="text_9">
      <!-- −2.5 -->
      <g style="fill: #696969" transform="translate(7.2 260.238488) scale(0.16 -0.16)">
       <defs>
        <path id="DejaVuSans-32" d="M 1228 531 
L 3431 531 
L 3431 0 
L 469 0 
L 469 531 
Q 828 903 1448 1529 
Q 2069 2156 2228 2338 
Q 2531 2678 2651 2914 
Q 2772 3150 2772 3378 
Q 2772 3750 2511 3984 
Q 2250 4219 1831 4219 
Q 1534 4219 1204 4116 
Q 875 4013 500 3803 
L 500 4441 
Q 881 4594 1212 4672 
Q 1544 4750 1819 4750 
Q 2544 4750 2975 4387 
Q 3406 4025 3406 3419 
Q 3406 3131 3298 2873 
Q 3191 2616 2906 2266 
Q 2828 2175 2409 1742 
Q 1991 1309 1228 531 
z
" transform="scale(0.015625)"/>
       </defs>
       <use xlink:href="#DejaVuSans-2212"/>
       <use xlink:href="#DejaVuSans-32" x="83.789062"/>
       <use xlink:href="#DejaVuSans-2e" x="147.412109"/>
       <use xlink:href="#DejaVuSans-35" x="179.199219"/>
      </g>
     </g>
    </g>
    <g id="ytick_4">
     <g id="line2d_15">
      <g>
       <use xlink:href="#md26c986bdd" x="53.0525" y="224.74156" style="fill: #696969; stroke: #696969; stroke-width: 0.8"/>
      </g>
     </g>
     <g id="text_10">
      <!-- 0.0 -->
      <g style="fill: #696969" transform="translate(20.6075 230.82031) scale(0.16 -0.16)">
       <use xlink:href="#DejaVuSans-30"/>
       <use xlink:href="#DejaVuSans-2e" x="63.623047"/>
       <use xlink:href="#DejaVuSans-30" x="95.410156"/>
      </g>
     </g>
    </g>
    <g id="ytick_5">
     <g id="line2d_16">
      <g>
       <use xlink:href="#md26c986bdd" x="53.0525" y="195.323383" style="fill: #696969; stroke: #696969; stroke-width: 0.8"/>
      </g>
     </g>
     <g id="text_11">
      <!-- 2.5 -->
      <g style="fill: #696969" transform="translate(20.6075 201.402133) scale(0.16 -0.16)">
       <use xlink:href="#DejaVuSans-32"/>
       <use xlink:href="#DejaVuSans-2e" x="63.623047"/>
       <use xlink:href="#DejaVuSans-35" x="95.410156"/>
      </g>
     </g>
    </g>
   </g>
   <g id="line2d_17">
    <path d="M 70.462045 221.30264 
L 77.425864 223.913832 
L 84.389682 226.227616 
L 91.3535 228.305951 
L 98.317318 229.785332 
L 105.281136 229.74916 
L 112.244955 227.653242 
L 119.208773 225.214108 
L 126.172591 224.063254 
L 133.136409 224.137466 
L 140.100227 224.735266 
L 147.064045 224.821195 
L 154.027864 225.99598 
L 160.991682 228.001653 
L 167.9555 228.265619 
L 174.919318 228.201487 
L 181.883136 225.947554 
L 188.846955 222.030346 
L 195.810773 217.817212 
L 202.774591 213.574455 
L 209.738409 209.87519 
L 216.702227 207.456882 
L 223.666045 206.256251 
L 230.629864 206.689869 
L 237.593682 209.013164 
L 244.5575 211.47421 
L 251.521318 213.936387 
L 258.485136 216.848016 
L 265.448955 219.863281 
L 272.412773 222.642674 
L 279.376591 225.001987 
L 286.340409 226.728323 
L 293.304227 227.590238 
L 300.268045 227.454293 
L 307.231864 226.37843 
L 314.195682 224.628818 
L 321.1595 222.593642 
L 328.123318 220.581885 
L 335.087136 218.57941 
L 342.050955 216.344571 
L 349.014773 214.332144 
L 355.978591 213.933256 
L 362.942409 215.500489 
L 369.906227 217.707706 
L 376.870045 219.287604 
L 383.833864 220.637694 
L 390.797682 223.353259 
L 397.7615 226.498398 
L 404.725318 226.61126 
L 411.689136 223.942658 
L 418.652955 221.315998 
" clip-path="url(#p7df5ef2201)" style="fill: none; stroke: #696969; stroke-width: 2; stroke-linecap: square"/>
   </g>
   <g id="line2d_18">
    <path d="M 70.462045 230.208312 
L 77.425864 230.211443 
L 84.389682 229.8889 
L 91.3535 229.340178 
L 98.317318 228.642693 
L 105.281136 227.855906 
L 112.244955 227.024796 
L 119.208773 226.182769 
L 126.172591 225.35406 
L 133.136409 224.555723 
L 140.100227 223.799249 
L 147.064045 223.091877 
L 154.027864 222.43765 
L 160.991682 221.838244 
L 167.9555 221.293625 
L 174.919318 220.802555 
L 181.883136 220.362977 
L 188.846955 219.972304 
L 195.810773 219.627637 
L 202.774591 219.325912 
L 209.738409 219.064018 
L 216.702227 218.838864 
L 223.666045 218.647433 
L 230.629864 218.486812 
L 237.593682 218.354212 
L 244.5575 218.246978 
L 251.521318 218.162598 
L 258.485136 218.098702 
L 265.448955 218.053073 
L 272.412773 218.02365 
L 279.376591 218.00854 
L 286.340409 218.006037 
L 293.304227 218.014655 
L 300.268045 218.033164 
L 307.231864 218.060662 
L 314.195682 218.096655 
L 321.1595 218.141184 
L 328.123318 218.194987 
L 335.087136 218.259712 
L 342.050955 218.3382 
L 349.014773 218.43484 
L 355.978591 218.556025 
L 362.942409 218.710722 
L 369.906227 218.911168 
L 376.870045 219.173731 
L 383.833864 219.519951 
L 390.797682 219.977788 
L 397.7615 220.583112 
L 404.725318 221.381464 
L 411.689136 222.430126 
L 418.652955 223.800525 
" clip-path="url(#p7df5ef2201)" style="fill: none; stroke-dasharray: 7.4,3.2; stroke-dashoffset: 0; stroke: #79ad41; stroke-width: 2"/>
   </g>
   <g id="patch_9">
    <path d="M 53.0525 276.68 
L 53.0525 181.688 
" style="fill: none; stroke: #000000; stroke-width: 0.8; stroke-linejoin: miter; stroke-linecap: square"/>
   </g>
   <g id="patch_10">
    <path d="M 436.0625 276.68 
L 436.0625 181.688 
" style="fill: none; stroke: #000000; stroke-width: 0.8; stroke-linejoin: miter; stroke-linecap: square"/>
   </g>
   <g id="patch_11">
    <path d="M 53.0525 276.68 
L 436.0625 276.68 
" style="fill: none; stroke: #000000; stroke-width: 0.8; stroke-linejoin: miter; stroke-linecap: square"/>
   </g>
   <g id="patch_12">
    <path d="M 53.0525 181.688 
L 436.0625 181.688 
" style="fill: none; stroke: #000000; stroke-width: 0.8; stroke-linejoin: miter; stroke-linecap: square"/>
   </g>
  </g>
 </g>
 <defs>
  <clipPath id="p929169c7a2">
   <rect x="53.0525" y="7.2" width="383.01" height="47.496"/>
  </clipPath>
  <clipPath id="p906cd4e50c">
   <rect x="53.0525" y="70.696" width="383.01" height="94.992"/>
  </clipPath>
  <clipPath id="p7df5ef2201">
   <rect x="53.0525" y="181.688" width="383.01" height="94.992"/>
  </clipPath>
 </defs>
</svg>
