<?xml version="1.0" encoding="utf-8" standalone="no"?>
<!DOCTYPE svg PUBLIC "-//W3C//DTD SVG 1.1//EN"
  "http://www.w3.org/Graphics/SVG/1.1/DTD/svg11.dtd">
<svg xmlns:xlink="http://www.w3.org/1999/xlink" width="443.2625pt" height="325.85pt" viewBox="0 0 443.2625 325.85" xmlns="http://www.w3.org/2000/svg" version="1.1">
 <metadata>
  <rdf:RDF xmlns:dc="http://purl.org/dc/elements/1.1/" xmlns:cc="http://creativecommons.org/ns#" xmlns:rdf="http://www.w3.org/1999/02/22-rdf-syntax-ns#">
   <cc:Work>
    <dc:type rdf:resource="http://purl.org/dc/dcmitype/StillImage"/>
    <dc:date>2024-01-28T20:54:43.235323</dc:date>
    <dc:format>image/svg+xml</dc:format>
    <dc:creator>
     <cc:Agent>
      <dc:title>Matplotlib v3.7.2, https://matplotlib.org/</dc:title>
     </cc:Agent>
    </dc:creator>
   </cc:Work>
  </rdf:RDF>
 </metadata>
 <defs>
  <style type="text/css">*{stroke-linejoin: round; stroke-linecap: butt}</style>
 </defs>
 <g id="figure_1">
  <g id="patch_1">
   <path d="M 0 325.85 
L 443.2625 325.85 
L 443.2625 0 
L 0 0 
z
" style="fill: #ffffff"/>
  </g>
  <g id="axes_1">
   <g id="patch_2">
    <path d="M 53.0525 54.696 
L 436.0625 54.696 
L 436.0625 7.2 
L 53.0525 7.2 
z
" style="fill: #ffffff"/>
   </g>
   <g id="PolyCollection_1">
    <defs>
     <path id="m07855259fa" d="M 70.462045 -273.312909 
L 70.462045 -279.321387 
L 77.425864 -279.987835 
L 84.389682 -280.718416 
L 91.3535 -281.513341 
L 98.317318 -282.370975 
L 105.281136 -283.287535 
L 112.244955 -284.256907 
L 119.208773 -285.270594 
L 126.172591 -286.317843 
L 133.136409 -287.385951 
L 140.100227 -288.460731 
L 147.064045 -289.527092 
L 154.027864 -290.569734 
L 160.991682 -291.573763 
L 167.9555 -292.525321 
L 174.919318 -293.412056 
L 181.883136 -294.223417 
L 188.846955 -294.950893 
L 195.810773 -295.587993 
L 202.774591 -296.130213 
L 209.738409 -296.574886 
L 216.702227 -296.920988 
L 223.666045 -297.168954 
L 230.629864 -297.320511 
L 237.593682 -297.378495 
L 244.5575 -297.34675 
L 251.521318 -297.230036 
L 258.485136 -297.033936 
L 265.448955 -296.764821 
L 272.412773 -296.429765 
L 279.376591 -296.036508 
L 286.340409 -295.593323 
L 293.304227 -295.108946 
L 300.268045 -294.592388 
L 307.231864 -294.05283 
L 314.195682 -293.499395 
L 321.1595 -292.941009 
L 328.123318 -292.386199 
L 335.087136 -291.842984 
L 342.050955 -291.318723 
L 349.014773 -290.820035 
L 355.978591 -290.352789 
L 362.942409 -289.922072 
L 369.906227 -289.532235 
L 376.870045 -289.186935 
L 383.833864 -288.889256 
L 390.797682 -288.641777 
L 397.7615 -288.446675 
L 404.725318 -288.305856 
L 411.689136 -288.221014 
L 418.652955 -288.193749 
L 418.652955 -273.312909 
L 418.652955 -273.312909 
L 411.689136 -273.312909 
L 404.725318 -273.312909 
L 397.7615 -273.312909 
L 390.797682 -273.312909 
L 383.833864 -273.312909 
L 376.870045 -273.312909 
L 369.906227 -273.312909 
L 362.942409 -273.312909 
L 355.978591 -273.312909 
L 349.014773 -273.312909 
L 342.050955 -273.312909 
L 335.087136 -273.312909 
L 328.123318 -273.312909 
L 321.1595 -273.312909 
L 314.195682 -273.312909 
L 307.231864 -273.312909 
L 300.268045 -273.312909 
L 293.304227 -273.312909 
L 286.340409 -273.312909 
L 279.376591 -273.312909 
L 272.412773 -273.312909 
L 265.448955 -273.312909 
L 258.485136 -273.312909 
L 251.521318 -273.312909 
L 244.5575 -273.312909 
L 237.593682 -273.312909 
L 230.629864 -273.312909 
L 223.666045 -273.312909 
L 216.702227 -273.312909 
L 209.738409 -273.312909 
L 202.774591 -273.312909 
L 195.810773 -273.312909 
L 188.846955 -273.312909 
L 181.883136 -273.312909 
L 174.919318 -273.312909 
L 167.9555 -273.312909 
L 160.991682 -273.312909 
L 154.027864 -273.312909 
L 147.064045 -273.312909 
L 140.100227 -273.312909 
L 133.136409 -273.312909 
L 126.172591 -273.312909 
L 119.208773 -273.312909 
L 112.244955 -273.312909 
L 105.281136 -273.312909 
L 98.317318 -273.312909 
L 91.3535 -273.312909 
L 84.389682 -273.312909 
L 77.425864 -273.312909 
L 70.462045 -273.312909 
z
" style="stroke: #dc143c; stroke-opacity: 0.2"/>
    </defs>
    <g clip-path="url(#pa65a6e7df5)">
     <use xlink:href="#m07855259fa" x="0" y="325.85" style="fill: #dc143c; fill-opacity: 0.2; stroke: #dc143c; stroke-opacity: 0.2"/>
    </g>
   </g>
   <g id="PolyCollection_2">
    <defs>
     <path id="mb55abb55d5" d="M 70.462045 -273.312909 
L 70.462045 -316.491091 
L 77.425864 -315.824643 
L 84.389682 -315.094062 
L 91.3535 -314.299137 
L 98.317318 -313.441503 
L 105.281136 -312.524943 
L 112.244955 -311.555571 
L 119.208773 -310.541884 
L 126.172591 -309.494634 
L 133.136409 -308.426527 
L 140.100227 -307.351747 
L 147.064045 -306.285386 
L 154.027864 -305.242744 
L 160.991682 -304.238715 
L 167.9555 -303.287156 
L 174.919318 -302.400422 
L 181.883136 -301.589061 
L 188.846955 -300.861585 
L 195.810773 -300.224485 
L 202.774591 -299.682265 
L 209.738409 -299.237592 
L 216.702227 -298.89149 
L 223.666045 -298.643524 
L 230.629864 -298.491967 
L 237.593682 -298.433983 
L 244.5575 -298.465728 
L 251.521318 -298.582442 
L 258.485136 -298.778542 
L 265.448955 -299.047657 
L 272.412773 -299.382713 
L 279.376591 -299.77597 
L 286.340409 -300.219155 
L 293.304227 -300.703531 
L 300.268045 -301.220089 
L 307.231864 -301.759648 
L 314.195682 -302.313083 
L 321.1595 -302.871469 
L 328.123318 -303.426279 
L 335.087136 -303.969494 
L 342.050955 -304.493754 
L 349.014773 -304.992443 
L 355.978591 -305.459689 
L 362.942409 -305.890406 
L 369.906227 -306.280243 
L 376.870045 -306.625543 
L 383.833864 -306.923222 
L 390.797682 -307.170701 
L 397.7615 -307.365803 
L 404.725318 -307.506622 
L 411.689136 -307.591464 
L 418.652955 -307.618729 
L 418.652955 -273.312909 
L 418.652955 -273.312909 
L 411.689136 -273.312909 
L 404.725318 -273.312909 
L 397.7615 -273.312909 
L 390.797682 -273.312909 
L 383.833864 -273.312909 
L 376.870045 -273.312909 
L 369.906227 -273.312909 
L 362.942409 -273.312909 
L 355.978591 -273.312909 
L 349.014773 -273.312909 
L 342.050955 -273.312909 
L 335.087136 -273.312909 
L 328.123318 -273.312909 
L 321.1595 -273.312909 
L 314.195682 -273.312909 
L 307.231864 -273.312909 
L 300.268045 -273.312909 
L 293.304227 -273.312909 
L 286.340409 -273.312909 
L 279.376591 -273.312909 
L 272.412773 -273.312909 
L 265.448955 -273.312909 
L 258.485136 -273.312909 
L 251.521318 -273.312909 
L 244.5575 -273.312909 
L 237.593682 -273.312909 
L 230.629864 -273.312909 
L 223.666045 -273.312909 
L 216.702227 -273.312909 
L 209.738409 -273.312909 
L 202.774591 -273.312909 
L 195.810773 -273.312909 
L 188.846955 -273.312909 
L 181.883136 -273.312909 
L 174.919318 -273.312909 
L 167.9555 -273.312909 
L 160.991682 -273.312909 
L 154.027864 -273.312909 
L 147.064045 -273.312909 
L 140.100227 -273.312909 
L 133.136409 -273.312909 
L 126.172591 -273.312909 
L 119.208773 -273.312909 
L 112.244955 -273.312909 
L 105.281136 -273.312909 
L 98.317318 -273.312909 
L 91.3535 -273.312909 
L 84.389682 -273.312909 
L 77.425864 -273.312909 
L 70.462045 -273.312909 
z
" style="stroke: #000080; stroke-opacity: 0.2"/>
    </defs>
    <g clip-path="url(#pa65a6e7df5)">
     <use xlink:href="#mb55abb55d5" x="0" y="325.85" style="fill: #000080; fill-opacity: 0.2; stroke: #000080; stroke-opacity: 0.2"/>
    </g>
   </g>
   <g id="matplotlib.axis_1"/>
   <g id="matplotlib.axis_2"/>
   <g id="line2d_1">
    <path d="M 70.462045 46.528613 
L 77.425864 45.862165 
L 84.389682 45.131584 
L 91.3535 44.336659 
L 98.317318 43.479025 
L 105.281136 42.562465 
L 112.244955 41.593093 
L 119.208773 40.579406 
L 126.172591 39.532157 
L 133.136409 38.464049 
L 140.100227 37.389269 
L 147.064045 36.322908 
L 154.027864 35.280266 
L 160.991682 34.276237 
L 167.9555 33.324679 
L 174.919318 32.437944 
L 181.883136 31.626583 
L 188.846955 30.899107 
L 195.810773 30.262007 
L 202.774591 29.719787 
L 209.738409 29.275114 
L 216.702227 28.929012 
L 223.666045 28.681046 
L 230.629864 28.529489 
L 237.593682 28.471505 
L 244.5575 28.50325 
L 251.521318 28.619964 
L 258.485136 28.816064 
L 265.448955 29.085179 
L 272.412773 29.420235 
L 279.376591 29.813492 
L 286.340409 30.256677 
L 293.304227 30.741054 
L 300.268045 31.257612 
L 307.231864 31.79717 
L 314.195682 32.350605 
L 321.1595 32.908991 
L 328.123318 33.463801 
L 335.087136 34.007016 
L 342.050955 34.531277 
L 349.014773 35.029965 
L 355.978591 35.497211 
L 362.942409 35.927928 
L 369.906227 36.317765 
L 376.870045 36.663065 
L 383.833864 36.960744 
L 390.797682 37.208223 
L 397.7615 37.403325 
L 404.725318 37.544144 
L 411.689136 37.628986 
L 418.652955 37.656251 
" clip-path="url(#pa65a6e7df5)" style="fill: none; stroke: #dc143c; stroke-width: 1.5; stroke-linecap: square"/>
   </g>
   <g id="line2d_2">
    <path d="M 70.462045 9.358909 
L 77.425864 10.025357 
L 84.389682 10.755938 
L 91.3535 11.550863 
L 98.317318 12.408497 
L 105.281136 13.325057 
L 112.244955 14.294429 
L 119.208773 15.308116 
L 126.172591 16.355366 
L 133.136409 17.423473 
L 140.100227 18.498253 
L 147.064045 19.564614 
L 154.027864 20.607256 
L 160.991682 21.611285 
L 167.9555 22.562844 
L 174.919318 23.449578 
L 181.883136 24.260939 
L 188.846955 24.988415 
L 195.810773 25.625515 
L 202.774591 26.167735 
L 209.738409 26.612408 
L 216.702227 26.95851 
L 223.666045 27.206476 
L 230.629864 27.358033 
L 237.593682 27.416017 
L 244.5575 27.384272 
L 251.521318 27.267558 
L 258.485136 27.071458 
L 265.448955 26.802343 
L 272.412773 26.467287 
L 279.376591 26.07403 
L 286.340409 25.630845 
L 293.304227 25.146469 
L 300.268045 24.629911 
L 307.231864 24.090352 
L 314.195682 23.536917 
L 321.1595 22.978531 
L 328.123318 22.423721 
L 335.087136 21.880506 
L 342.050955 21.356246 
L 349.014773 20.857557 
L 355.978591 20.390311 
L 362.942409 19.959594 
L 369.906227 19.569757 
L 376.870045 19.224457 
L 383.833864 18.926778 
L 390.797682 18.679299 
L 397.7615 18.484197 
L 404.725318 18.343378 
L 411.689136 18.258536 
L 418.652955 18.231271 
" clip-path="url(#pa65a6e7df5)" style="fill: none; stroke: #000080; stroke-width: 1.5; stroke-linecap: square"/>
   </g>
  </g>
  <g id="axes_2">
   <g id="patch_3">
    <path d="M 53.0525 165.688 
L 436.0625 165.688 
L 436.0625 70.696 
L 53.0525 70.696 
z
" style="fill: #ffffff"/>
   </g>
   <g id="PathCollection_1">
    <defs>
     <path id="m985978f8c9" d="M 0 0.866025 
C 0.229673 0.866025 0.449969 0.774776 0.612372 0.612372 
C 0.774776 0.449969 0.866025 0.229673 0.866025 0 
C 0.866025 -0.229673 0.774776 -0.449969 0.612372 -0.612372 
C 0.449969 -0.774776 0.229673 -0.866025 0 -0.866025 
C -0.229673 -0.866025 -0.449969 -0.774776 -0.612372 -0.612372 
C -0.774776 -0.449969 -0.866025 -0.229673 -0.866025 0 
C -0.866025 0.229673 -0.774776 0.449969 -0.612372 0.612372 
C -0.449969 0.774776 -0.229673 0.866025 0 0.866025 
z
" style="stroke: #daa520"/>
    </defs>
    <g clip-path="url(#p6e538e840b)">
     <use xlink:href="#m985978f8c9" x="146.059476" y="83.269469" style="fill: #daa520; stroke: #daa520"/>
     <use xlink:href="#m985978f8c9" x="405.016677" y="150.139202" style="fill: #daa520; stroke: #daa520"/>
     <use xlink:href="#m985978f8c9" x="214.401489" y="109.758445" style="fill: #daa520; stroke: #daa520"/>
     <use xlink:href="#m985978f8c9" x="206.65498" y="94.666805" style="fill: #daa520; stroke: #daa520"/>
     <use xlink:href="#m985978f8c9" x="312.1755" y="118.535748" style="fill: #daa520; stroke: #daa520"/>
     <use xlink:href="#m985978f8c9" x="308.054638" y="123.363787" style="fill: #daa520; stroke: #daa520"/>
     <use xlink:href="#m985978f8c9" x="413.220463" y="135.875956" style="fill: #daa520; stroke: #daa520"/>
     <use xlink:href="#m985978f8c9" x="179.484141" y="129.393334" style="fill: #daa520; stroke: #daa520"/>
     <use xlink:href="#m985978f8c9" x="322.471116" y="126.364075" style="fill: #daa520; stroke: #daa520"/>
     <use xlink:href="#m985978f8c9" x="342.981298" y="129.098408" style="fill: #daa520; stroke: #daa520"/>
     <use xlink:href="#m985978f8c9" x="185.008369" y="101.470564" style="fill: #daa520; stroke: #daa520"/>
     <use xlink:href="#m985978f8c9" x="109.50481" y="90.209976" style="fill: #daa520; stroke: #daa520"/>
     <use xlink:href="#m985978f8c9" x="125.042061" y="98.17796" style="fill: #daa520; stroke: #daa520"/>
     <use xlink:href="#m985978f8c9" x="127.466613" y="88.963831" style="fill: #daa520; stroke: #daa520"/>
     <use xlink:href="#m985978f8c9" x="228.530151" y="98.290063" style="fill: #daa520; stroke: #daa520"/>
     <use xlink:href="#m985978f8c9" x="160.674705" y="82.35131" style="fill: #daa520; stroke: #daa520"/>
     <use xlink:href="#m985978f8c9" x="274.575799" y="111.655747" style="fill: #daa520; stroke: #daa520"/>
     <use xlink:href="#m985978f8c9" x="378.804371" y="149.45519" style="fill: #daa520; stroke: #daa520"/>
     <use xlink:href="#m985978f8c9" x="145.870943" y="79.935995" style="fill: #daa520; stroke: #daa520"/>
     <use xlink:href="#m985978f8c9" x="182.647323" y="76.836952" style="fill: #daa520; stroke: #daa520"/>
     <use xlink:href="#m985978f8c9" x="346.640807" y="129.787643" style="fill: #daa520; stroke: #daa520"/>
     <use xlink:href="#m985978f8c9" x="223.327242" y="113.309209" style="fill: #daa520; stroke: #daa520"/>
     <use xlink:href="#m985978f8c9" x="217.077084" y="98.45772" style="fill: #daa520; stroke: #daa520"/>
     <use xlink:href="#m985978f8c9" x="356.113795" y="137.479386" style="fill: #daa520; stroke: #daa520"/>
     <use xlink:href="#m985978f8c9" x="168.505752" y="117.918298" style="fill: #daa520; stroke: #daa520"/>
     <use xlink:href="#m985978f8c9" x="370.512795" y="120.740336" style="fill: #daa520; stroke: #daa520"/>
     <use xlink:href="#m985978f8c9" x="408.092312" y="161.370182" style="fill: #daa520; stroke: #daa520"/>
     <use xlink:href="#m985978f8c9" x="349.157521" y="124.947664" style="fill: #daa520; stroke: #daa520"/>
     <use xlink:href="#m985978f8c9" x="283.056458" y="115.364906" style="fill: #daa520; stroke: #daa520"/>
     <use xlink:href="#m985978f8c9" x="223.815127" y="96.542393" style="fill: #daa520; stroke: #daa520"/>
     <use xlink:href="#m985978f8c9" x="150.439268" y="92.471609" style="fill: #daa520; stroke: #daa520"/>
     <use xlink:href="#m985978f8c9" x="237.34402" y="104.992206" style="fill: #daa520; stroke: #daa520"/>
     <use xlink:href="#m985978f8c9" x="287.411119" y="119.763251" style="fill: #daa520; stroke: #daa520"/>
     <use xlink:href="#m985978f8c9" x="178.52802" y="86.275852" style="fill: #daa520; stroke: #daa520"/>
     <use xlink:href="#m985978f8c9" x="107.90984" y="90.666545" style="fill: #daa520; stroke: #daa520"/>
     <use xlink:href="#m985978f8c9" x="320.373667" y="125.141382" style="fill: #daa520; stroke: #daa520"/>
     <use xlink:href="#m985978f8c9" x="342.853464" y="133.644055" style="fill: #daa520; stroke: #daa520"/>
     <use xlink:href="#m985978f8c9" x="314.580266" y="117.296717" style="fill: #daa520; stroke: #daa520"/>
     <use xlink:href="#m985978f8c9" x="301.461607" y="122.531975" style="fill: #daa520; stroke: #daa520"/>
     <use xlink:href="#m985978f8c9" x="340.921636" y="128.795478" style="fill: #daa520; stroke: #daa520"/>
     <use xlink:href="#m985978f8c9" x="300.248523" y="126.085232" style="fill: #daa520; stroke: #daa520"/>
     <use xlink:href="#m985978f8c9" x="197.173846" y="121.995974" style="fill: #daa520; stroke: #daa520"/>
     <use xlink:href="#m985978f8c9" x="316.674593" y="115.941225" style="fill: #daa520; stroke: #daa520"/>
     <use xlink:href="#m985978f8c9" x="306.689487" y="119.535799" style="fill: #daa520; stroke: #daa520"/>
     <use xlink:href="#m985978f8c9" x="228.253346" y="98.41478" style="fill: #daa520; stroke: #daa520"/>
     <use xlink:href="#m985978f8c9" x="275.19373" y="116.886094" style="fill: #daa520; stroke: #daa520"/>
     <use xlink:href="#m985978f8c9" x="81.834881" y="127.783804" style="fill: #daa520; stroke: #daa520"/>
     <use xlink:href="#m985978f8c9" x="98.666433" y="130.685252" style="fill: #daa520; stroke: #daa520"/>
     <use xlink:href="#m985978f8c9" x="343.058921" y="121.29443" style="fill: #daa520; stroke: #daa520"/>
     <use xlink:href="#m985978f8c9" x="332.560733" y="132.688853" style="fill: #daa520; stroke: #daa520"/>
     <use xlink:href="#m985978f8c9" x="381.442511" y="124.939954" style="fill: #daa520; stroke: #daa520"/>
     <use xlink:href="#m985978f8c9" x="186.477273" y="86.261359" style="fill: #daa520; stroke: #daa520"/>
     <use xlink:href="#m985978f8c9" x="223.518153" y="75.322389" style="fill: #daa520; stroke: #daa520"/>
     <use xlink:href="#m985978f8c9" x="73.159343" y="95.942736" style="fill: #daa520; stroke: #daa520"/>
     <use xlink:href="#m985978f8c9" x="221.997585" y="96.296859" style="fill: #daa520; stroke: #daa520"/>
     <use xlink:href="#m985978f8c9" x="317.926092" y="125.539272" style="fill: #daa520; stroke: #daa520"/>
     <use xlink:href="#m985978f8c9" x="287.69377" y="114.460738" style="fill: #daa520; stroke: #daa520"/>
     <use xlink:href="#m985978f8c9" x="317.487687" y="127.037057" style="fill: #daa520; stroke: #daa520"/>
     <use xlink:href="#m985978f8c9" x="284.312885" y="118.461817" style="fill: #daa520; stroke: #daa520"/>
     <use xlink:href="#m985978f8c9" x="218.816014" y="92.74909" style="fill: #daa520; stroke: #daa520"/>
     <use xlink:href="#m985978f8c9" x="227.605968" y="92.947066" style="fill: #daa520; stroke: #daa520"/>
     <use xlink:href="#m985978f8c9" x="295.449896" y="116.900969" style="fill: #daa520; stroke: #daa520"/>
     <use xlink:href="#m985978f8c9" x="226.579019" y="112.927295" style="fill: #daa520; stroke: #daa520"/>
     <use xlink:href="#m985978f8c9" x="220.706713" y="98.564484" style="fill: #daa520; stroke: #daa520"/>
     <use xlink:href="#m985978f8c9" x="357.817314" y="116.990259" style="fill: #daa520; stroke: #daa520"/>
     <use xlink:href="#m985978f8c9" x="163.916093" y="81.314758" style="fill: #daa520; stroke: #daa520"/>
     <use xlink:href="#m985978f8c9" x="196.573787" y="115.007334" style="fill: #daa520; stroke: #daa520"/>
     <use xlink:href="#m985978f8c9" x="389.773502" y="127.541876" style="fill: #daa520; stroke: #daa520"/>
     <use xlink:href="#m985978f8c9" x="284.322434" y="120.353699" style="fill: #daa520; stroke: #daa520"/>
     <use xlink:href="#m985978f8c9" x="315.618627" y="123.413398" style="fill: #daa520; stroke: #daa520"/>
     <use xlink:href="#m985978f8c9" x="222.034947" y="99.008829" style="fill: #daa520; stroke: #daa520"/>
     <use xlink:href="#m985978f8c9" x="320.470264" y="117.792618" style="fill: #daa520; stroke: #daa520"/>
     <use xlink:href="#m985978f8c9" x="411.807811" y="145.106537" style="fill: #daa520; stroke: #daa520"/>
     <use xlink:href="#m985978f8c9" x="216.684209" y="100.999986" style="fill: #daa520; stroke: #daa520"/>
     <use xlink:href="#m985978f8c9" x="146.627803" y="97.875726" style="fill: #daa520; stroke: #daa520"/>
     <use xlink:href="#m985978f8c9" x="332.030576" y="121.446075" style="fill: #daa520; stroke: #daa520"/>
     <use xlink:href="#m985978f8c9" x="180.957341" y="98.066735" style="fill: #daa520; stroke: #daa520"/>
     <use xlink:href="#m985978f8c9" x="97.000212" y="120.77048" style="fill: #daa520; stroke: #daa520"/>
     <use xlink:href="#m985978f8c9" x="322.500333" y="123.114848" style="fill: #daa520; stroke: #daa520"/>
     <use xlink:href="#m985978f8c9" x="386.628331" y="153.055977" style="fill: #daa520; stroke: #daa520"/>
     <use xlink:href="#m985978f8c9" x="288.321692" y="121.925809" style="fill: #daa520; stroke: #daa520"/>
     <use xlink:href="#m985978f8c9" x="193.14091" y="88.751337" style="fill: #daa520; stroke: #daa520"/>
     <use xlink:href="#m985978f8c9" x="181.847463" y="77.136341" style="fill: #daa520; stroke: #daa520"/>
     <use xlink:href="#m985978f8c9" x="206.018824" y="86.856293" style="fill: #daa520; stroke: #daa520"/>
     <use xlink:href="#m985978f8c9" x="320.571475" y="132.022124" style="fill: #daa520; stroke: #daa520"/>
     <use xlink:href="#m985978f8c9" x="313.921082" y="116.3169" style="fill: #daa520; stroke: #daa520"/>
     <use xlink:href="#m985978f8c9" x="296.625994" y="121.8865" style="fill: #daa520; stroke: #daa520"/>
     <use xlink:href="#m985978f8c9" x="204.836998" y="83.163456" style="fill: #daa520; stroke: #daa520"/>
     <use xlink:href="#m985978f8c9" x="201.737078" y="77.831545" style="fill: #daa520; stroke: #daa520"/>
     <use xlink:href="#m985978f8c9" x="122.739248" y="88.840466" style="fill: #daa520; stroke: #daa520"/>
     <use xlink:href="#m985978f8c9" x="308.0438" y="125.388251" style="fill: #daa520; stroke: #daa520"/>
     <use xlink:href="#m985978f8c9" x="326.548806" y="127.16282" style="fill: #daa520; stroke: #daa520"/>
     <use xlink:href="#m985978f8c9" x="167.110603" y="120.708531" style="fill: #daa520; stroke: #daa520"/>
     <use xlink:href="#m985978f8c9" x="406.853378" y="119.708619" style="fill: #daa520; stroke: #daa520"/>
     <use xlink:href="#m985978f8c9" x="262.964273" y="105.406533" style="fill: #daa520; stroke: #daa520"/>
     <use xlink:href="#m985978f8c9" x="166.844374" y="87.59725" style="fill: #daa520; stroke: #daa520"/>
     <use xlink:href="#m985978f8c9" x="255.955663" y="104.201944" style="fill: #daa520; stroke: #daa520"/>
     <use xlink:href="#m985978f8c9" x="138.718417" y="142.712092" style="fill: #daa520; stroke: #daa520"/>
     <use xlink:href="#m985978f8c9" x="207.533366" y="75.216259" style="fill: #daa520; stroke: #daa520"/>
     <use xlink:href="#m985978f8c9" x="337.791814" y="126.856129" style="fill: #daa520; stroke: #daa520"/>
     <use xlink:href="#m985978f8c9" x="194.732364" y="84.114022" style="fill: #daa520; stroke: #daa520"/>
     <use xlink:href="#m985978f8c9" x="182.879403" y="75.013818" style="fill: #daa520; stroke: #daa520"/>
     <use xlink:href="#m985978f8c9" x="214.283479" y="83.707749" style="fill: #daa520; stroke: #daa520"/>
     <use xlink:href="#m985978f8c9" x="218.072261" y="109.907734" style="fill: #daa520; stroke: #daa520"/>
     <use xlink:href="#m985978f8c9" x="151.356593" y="86.543041" style="fill: #daa520; stroke: #daa520"/>
     <use xlink:href="#m985978f8c9" x="347.364614" y="121.577123" style="fill: #daa520; stroke: #daa520"/>
     <use xlink:href="#m985978f8c9" x="367.464436" y="115.64405" style="fill: #daa520; stroke: #daa520"/>
    </g>
   </g>
   <g id="matplotlib.axis_3"/>
   <g id="matplotlib.axis_4">
    <g id="ytick_1">
     <g id="line2d_3">
      <defs>
       <path id="m228b3ccd89" d="M 0 0 
L -3.5 0 
" style="stroke: #696969; stroke-width: 0.8"/>
      </defs>
      <g>
       <use xlink:href="#m228b3ccd89" x="53.0525" y="137.880189" style="fill: #696969; stroke: #696969; stroke-width: 0.8"/>
      </g>
     </g>
     <g id="text_1">
      <!-- 0 -->
      <g style="fill: #696969" transform="translate(35.8725 143.958939) scale(0.16 -0.16)">
       <defs>
        <path id="DejaVuSans-30" d="M 2034 4250 
Q 1547 4250 1301 3770 
Q 1056 3291 1056 2328 
Q 1056 1369 1301 889 
Q 1547 409 2034 409 
Q 2525 409 2770 889 
Q 3016 1369 3016 2328 
Q 3016 3291 2770 3770 
Q 2525 4250 2034 4250 
z
M 2034 4750 
Q 2819 4750 3233 4129 
Q 3647 3509 3647 2328 
Q 3647 1150 3233 529 
Q 2819 -91 2034 -91 
Q 1250 -91 836 529 
Q 422 1150 422 2328 
Q 422 3509 836 4129 
Q 1250 4750 2034 4750 
z
" transform="scale(0.015625)"/>
       </defs>
       <use xlink:href="#DejaVuSans-30"/>
      </g>
     </g>
    </g>
    <g id="ytick_2">
     <g id="line2d_4">
      <g>
       <use xlink:href="#m228b3ccd89" x="53.0525" y="78.64621" style="fill: #696969; stroke: #696969; stroke-width: 0.8"/>
      </g>
     </g>
     <g id="text_2">
      <!-- 5 -->
      <g style="fill: #696969" transform="translate(35.8725 84.72496) scale(0.16 -0.16)">
       <defs>
        <path id="DejaVuSans-35" d="M 691 4666 
L 3169 4666 
L 3169 4134 
L 1269 4134 
L 1269 2991 
Q 1406 3038 1543 3061 
Q 1681 3084 1819 3084 
Q 2600 3084 3056 2656 
Q 3513 2228 3513 1497 
Q 3513 744 3044 326 
Q 2575 -91 1722 -91 
Q 1428 -91 1123 -41 
Q 819 9 494 109 
L 494 744 
Q 775 591 1075 516 
Q 1375 441 1709 441 
Q 2250 441 2565 725 
Q 2881 1009 2881 1497 
Q 2881 1984 2565 2268 
Q 2250 2553 1709 2553 
Q 1456 2553 1204 2497 
Q 953 2441 691 2322 
L 691 4666 
z
" transform="scale(0.015625)"/>
       </defs>
       <use xlink:href="#DejaVuSans-35"/>
      </g>
     </g>
    </g>
   </g>
   <g id="line2d_5">
    <path d="M 70.462045 110.337639 
L 77.425864 110.322497 
L 84.389682 110.165469 
L 91.3535 109.839546 
L 98.317318 109.32529 
L 105.281136 108.612769 
L 112.244955 107.703016 
L 119.208773 106.60885 
L 126.172591 105.35495 
L 133.136409 103.977125 
L 140.100227 102.520835 
L 147.064045 101.039015 
L 154.027864 99.589441 
L 160.991682 98.231756 
L 167.9555 97.024428 
L 174.919318 96.021844 
L 181.883136 95.271717 
L 188.846955 94.812945 
L 195.810773 94.673985 
L 202.774591 94.87182 
L 209.738409 95.411486 
L 216.702227 96.286126 
L 223.666045 97.477516 
L 230.629864 98.957018 
L 237.593682 100.686918 
L 244.5575 102.622061 
L 251.521318 104.711786 
L 258.485136 106.902076 
L 265.448955 109.137863 
L 272.412773 111.365417 
L 279.376591 113.53467 
L 286.340409 115.6014 
L 293.304227 117.52913 
L 300.268045 119.290566 
L 307.231864 120.868582 
L 314.195682 122.256597 
L 321.1595 123.458417 
L 328.123318 124.487534 
L 335.087136 125.366059 
L 342.050955 126.123337 
L 349.014773 126.794464 
L 355.978591 127.418832 
L 362.942409 128.038789 
L 369.906227 128.698497 
L 376.870045 129.442989 
L 383.833864 130.317352 
L 390.797682 131.365969 
L 397.7615 132.631661 
L 404.725318 134.154656 
L 411.689136 135.971276 
L 418.652955 138.112303 
" clip-path="url(#p6e538e840b)" style="fill: none; stroke: #000000; stroke-width: 2; stroke-linecap: square"/>
   </g>
   <g id="line2d_6">
    <path d="M 70.462045 120.981487 
L 77.425864 116.556434 
L 84.389682 112.589914 
L 91.3535 109.060357 
L 98.317318 105.946641 
L 105.281136 103.228091 
L 112.244955 100.884481 
L 119.208773 98.89603 
L 126.172591 97.243408 
L 133.136409 95.907729 
L 140.100227 94.870556 
L 147.064045 94.113901 
L 154.027864 93.620222 
L 160.991682 93.372425 
L 167.9555 93.353862 
L 174.919318 93.548335 
L 181.883136 93.940092 
L 188.846955 94.513829 
L 195.810773 95.25469 
L 202.774591 96.148266 
L 209.738409 97.180595 
L 216.702227 98.338164 
L 223.666045 99.607907 
L 230.629864 100.977204 
L 237.593682 102.433885 
L 244.5575 103.966226 
L 251.521318 105.562951 
L 258.485136 107.213232 
L 265.448955 108.906687 
L 272.412773 110.633383 
L 279.376591 112.383834 
L 286.340409 114.149002 
L 293.304227 115.920297 
L 300.268045 117.689574 
L 307.231864 119.449139 
L 314.195682 121.191743 
L 321.1595 122.910586 
L 328.123318 124.599314 
L 335.087136 126.252022 
L 342.050955 127.863253 
L 349.014773 129.427996 
L 355.978591 130.941688 
L 362.942409 132.400213 
L 369.906227 133.799905 
L 376.870045 135.137543 
L 383.833864 136.410354 
L 390.797682 137.616013 
L 397.7615 138.752644 
L 404.725318 139.818815 
L 411.689136 140.813544 
L 418.652955 141.736297 
" clip-path="url(#p6e538e840b)" style="fill: none; stroke-dasharray: 7.4,3.2; stroke-dashoffset: 0; stroke: #34b6c6; stroke-width: 2"/>
   </g>
   <g id="line2d_7">
    <path d="M 70.462045 117.426511 
L 77.425864 113.73257 
L 84.389682 110.541987 
L 91.3535 107.811523 
L 98.317318 105.497976 
L 105.281136 103.557587 
L 112.244955 101.94522 
L 119.208773 100.613359 
L 126.172591 99.51104 
L 133.136409 98.583221 
L 140.100227 97.77169 
L 147.064045 97.019481 
L 154.027864 96.280975 
L 160.991682 95.537659 
L 167.9555 94.813217 
L 174.919318 94.175263 
L 181.883136 93.715476 
L 188.846955 93.517784 
L 195.810773 93.635914 
L 202.774591 94.091026 
L 209.738409 94.881721 
L 216.702227 95.99321 
L 223.666045 97.399379 
L 230.629864 99.060186 
L 237.593682 100.921349 
L 244.5575 102.921612 
L 251.521318 105.006311 
L 258.485136 107.139539 
L 265.448955 109.306287 
L 272.412773 111.501064 
L 279.376591 113.707601 
L 286.340409 115.882208 
L 293.304227 117.955287 
L 300.268045 119.853976 
L 307.231864 121.530518 
L 314.195682 122.976664 
L 321.1595 124.219047 
L 328.123318 125.304803 
L 335.087136 126.28803 
L 342.050955 127.221579 
L 349.014773 128.15373 
L 355.978591 129.127768 
L 362.942409 130.182772 
L 369.906227 131.35467 
L 376.870045 132.677121 
L 383.833864 134.1821 
L 390.797682 135.900215 
L 397.7615 137.860814 
L 404.725318 140.092005 
L 411.689136 142.620676 
L 418.652955 145.472624 
" clip-path="url(#p6e538e840b)" style="fill: none; stroke-dasharray: 7.4,3.2; stroke-dashoffset: 0; stroke: #9370db; stroke-width: 2"/>
   </g>
   <g id="line2d_8">
    <path d="M 70.462045 111.253696 
L 77.425864 111.199952 
L 84.389682 111.132911 
L 91.3535 111.048051 
L 98.317318 110.939043 
L 105.281136 110.796995 
L 112.244955 110.609434 
L 119.208773 110.359032 
L 126.172591 110.022266 
L 133.136409 109.568626 
L 140.100227 108.961761 
L 147.064045 108.165029 
L 154.027864 107.154208 
L 160.991682 105.937328 
L 167.9555 104.57366 
L 174.919318 103.17589 
L 181.883136 101.885132 
L 188.846955 100.830889 
L 195.810773 100.102807 
L 202.774591 99.747701 
L 209.738409 99.782141 
L 216.702227 100.203998 
L 223.666045 100.995031 
L 230.629864 102.117623 
L 237.593682 103.514384 
L 244.5575 105.117286 
L 251.521318 106.864747 
L 258.485136 108.716927 
L 265.448955 110.658426 
L 272.412773 112.683962 
L 279.376591 114.772839 
L 286.340409 116.867999 
L 293.304227 118.877931 
L 300.268045 120.705161 
L 307.231864 122.281946 
L 314.195682 123.5884 
L 321.1595 124.646672 
L 328.123318 125.502851 
L 335.087136 126.209933 
L 342.050955 126.817485 
L 349.014773 127.367472 
L 355.978591 127.89371 
L 362.942409 128.422876 
L 369.906227 128.97582 
L 376.870045 129.568683 
L 383.833864 130.213632 
L 390.797682 130.919255 
L 397.7615 131.690702 
L 404.725318 132.529705 
L 411.689136 133.434606 
L 418.652955 134.400516 
" clip-path="url(#p6e538e840b)" style="fill: none; stroke-dasharray: 12.8,3.2,2,3.2; stroke-dashoffset: 0; stroke: #ff0000; stroke-width: 2"/>
   </g>
   <g id="patch_4">
    <path d="M 53.0525 165.688 
L 53.0525 70.696 
" style="fill: none; stroke: #000000; stroke-width: 0.8; stroke-linejoin: miter; stroke-linecap: square"/>
   </g>
   <g id="patch_5">
    <path d="M 436.0625 165.688 
L 436.0625 70.696 
" style="fill: none; stroke: #000000; stroke-width: 0.8; stroke-linejoin: miter; stroke-linecap: square"/>
   </g>
   <g id="patch_6">
    <path d="M 53.0525 165.688 
L 436.0625 165.688 
" style="fill: none; stroke: #000000; stroke-width: 0.8; stroke-linejoin: miter; stroke-linecap: square"/>
   </g>
   <g id="patch_7">
    <path d="M 53.0525 70.696 
L 436.0625 70.696 
" style="fill: none; stroke: #000000; stroke-width: 0.8; stroke-linejoin: miter; stroke-linecap: square"/>
   </g>
  </g>
  <g id="axes_3">
   <g id="patch_8">
    <path d="M 53.0525 276.68 
L 436.0625 276.68 
L 436.0625 181.688 
L 53.0525 181.688 
z
" style="fill: #ffffff"/>
   </g>
   <g id="PathCollection_2">
    <g clip-path="url(#p164e1f7a4f)">
     <use xlink:href="#m985978f8c9" x="146.059476" y="267.686169" style="fill: #daa520; stroke: #daa520"/>
     <use xlink:href="#m985978f8c9" x="405.016677" y="208.352531" style="fill: #daa520; stroke: #daa520"/>
     <use xlink:href="#m985978f8c9" x="214.401489" y="219.268945" style="fill: #daa520; stroke: #daa520"/>
     <use xlink:href="#m985978f8c9" x="206.65498" y="239.86719" style="fill: #daa520; stroke: #daa520"/>
     <use xlink:href="#m985978f8c9" x="312.1755" y="239.378277" style="fill: #daa520; stroke: #daa520"/>
     <use xlink:href="#m985978f8c9" x="308.054638" y="231.557926" style="fill: #daa520; stroke: #daa520"/>
     <use xlink:href="#m985978f8c9" x="413.220463" y="229.718641" style="fill: #daa520; stroke: #daa520"/>
     <use xlink:href="#m985978f8c9" x="179.484141" y="195.103794" style="fill: #daa520; stroke: #daa520"/>
     <use xlink:href="#m985978f8c9" x="322.471116" y="230.682078" style="fill: #daa520; stroke: #daa520"/>
     <use xlink:href="#m985978f8c9" x="342.981298" y="229.75906" style="fill: #daa520; stroke: #daa520"/>
     <use xlink:href="#m985978f8c9" x="185.008369" y="232.699107" style="fill: #daa520; stroke: #daa520"/>
     <use xlink:href="#m985978f8c9" x="109.50481" y="261.357103" style="fill: #daa520; stroke: #daa520"/>
     <use xlink:href="#m985978f8c9" x="125.042061" y="249.414638" style="fill: #daa520; stroke: #daa520"/>
     <use xlink:href="#m985978f8c9" x="127.466613" y="262.059601" style="fill: #daa520; stroke: #daa520"/>
     <use xlink:href="#m985978f8c9" x="228.530151" y="237.646087" style="fill: #daa520; stroke: #daa520"/>
     <use xlink:href="#m985978f8c9" x="160.674705" y="265.766538" style="fill: #daa520; stroke: #daa520"/>
     <use xlink:href="#m985978f8c9" x="274.575799" y="235.159499" style="fill: #daa520; stroke: #daa520"/>
     <use xlink:href="#m985978f8c9" x="378.804371" y="205.371549" style="fill: #daa520; stroke: #daa520"/>
     <use xlink:href="#m985978f8c9" x="145.870943" y="272.362182" style="fill: #daa520; stroke: #daa520"/>
     <use xlink:href="#m985978f8c9" x="182.647323" y="267.540662" style="fill: #daa520; stroke: #daa520"/>
     <use xlink:href="#m985978f8c9" x="346.640807" y="229.203946" style="fill: #daa520; stroke: #daa520"/>
     <use xlink:href="#m985978f8c9" x="223.327242" y="215.612769" style="fill: #daa520; stroke: #daa520"/>
     <use xlink:href="#m985978f8c9" x="217.077084" y="235.309376" style="fill: #daa520; stroke: #daa520"/>
     <use xlink:href="#m985978f8c9" x="356.113795" y="219.492379" style="fill: #daa520; stroke: #daa520"/>
     <use xlink:href="#m985978f8c9" x="168.505752" y="214.08767" style="fill: #daa520; stroke: #daa520"/>
     <use xlink:href="#m985978f8c9" x="370.512795" y="244.371259" style="fill: #daa520; stroke: #daa520"/>
     <use xlink:href="#m985978f8c9" x="408.092312" y="193.255937" style="fill: #daa520; stroke: #daa520"/>
     <use xlink:href="#m985978f8c9" x="349.157521" y="236.216212" style="fill: #daa520; stroke: #daa520"/>
     <use xlink:href="#m985978f8c9" x="283.056458" y="233.55404" style="fill: #daa520; stroke: #daa520"/>
     <use xlink:href="#m985978f8c9" x="223.815127" y="239.061463" style="fill: #daa520; stroke: #daa520"/>
     <use xlink:href="#m985978f8c9" x="150.439268" y="254.045724" style="fill: #daa520; stroke: #daa520"/>
     <use xlink:href="#m985978f8c9" x="237.34402" y="230.696591" style="fill: #daa520; stroke: #daa520"/>
     <use xlink:href="#m985978f8c9" x="287.411119" y="229.23925" style="fill: #daa520; stroke: #daa520"/>
     <use xlink:href="#m985978f8c9" x="178.52802" y="255.408211" style="fill: #daa520; stroke: #daa520"/>
     <use xlink:href="#m985978f8c9" x="107.90984" y="260.780622" style="fill: #daa520; stroke: #daa520"/>
     <use xlink:href="#m985978f8c9" x="320.373667" y="231.990376" style="fill: #daa520; stroke: #daa520"/>
     <use xlink:href="#m985978f8c9" x="342.853464" y="223.412833" style="fill: #daa520; stroke: #daa520"/>
     <use xlink:href="#m985978f8c9" x="314.580266" y="241.684179" style="fill: #daa520; stroke: #daa520"/>
     <use xlink:href="#m985978f8c9" x="301.461607" y="230.688614" style="fill: #daa520; stroke: #daa520"/>
     <use xlink:href="#m985978f8c9" x="340.921636" y="229.944778" style="fill: #daa520; stroke: #daa520"/>
     <use xlink:href="#m985978f8c9" x="300.248523" y="225.329644" style="fill: #daa520; stroke: #daa520"/>
     <use xlink:href="#m985978f8c9" x="197.173846" y="202.195854" style="fill: #daa520; stroke: #daa520"/>
     <use xlink:href="#m985978f8c9" x="316.674593" y="244.043819" style="fill: #daa520; stroke: #daa520"/>
     <use xlink:href="#m985978f8c9" x="306.689487" y="236.498084" style="fill: #daa520; stroke: #daa520"/>
     <use xlink:href="#m985978f8c9" x="228.253346" y="237.407096" style="fill: #daa520; stroke: #daa520"/>
     <use xlink:href="#m985978f8c9" x="275.19373" y="228.131625" style="fill: #daa520; stroke: #daa520"/>
     <use xlink:href="#m985978f8c9" x="81.834881" y="209.673632" style="fill: #daa520; stroke: #daa520"/>
     <use xlink:href="#m985978f8c9" x="98.666433" y="205.316613" style="fill: #daa520; stroke: #daa520"/>
     <use xlink:href="#m985978f8c9" x="343.058921" y="240.638216" style="fill: #daa520; stroke: #daa520"/>
     <use xlink:href="#m985978f8c9" x="332.560733" y="223.467836" style="fill: #daa520; stroke: #daa520"/>
     <use xlink:href="#m985978f8c9" x="381.442511" y="239.858712" style="fill: #daa520; stroke: #daa520"/>
     <use xlink:href="#m985978f8c9" x="186.477273" y="253.578319" style="fill: #daa520; stroke: #daa520"/>
     <use xlink:href="#m985978f8c9" x="223.518153" y="268.562101" style="fill: #daa520; stroke: #daa520"/>
     <use xlink:href="#m985978f8c9" x="73.159343" y="254.130334" style="fill: #daa520; stroke: #daa520"/>
     <use xlink:href="#m985978f8c9" x="221.997585" y="239.066071" style="fill: #daa520; stroke: #daa520"/>
     <use xlink:href="#m985978f8c9" x="317.926092" y="230.941965" style="fill: #daa520; stroke: #daa520"/>
     <use xlink:href="#m985978f8c9" x="287.69377" y="236.741357" style="fill: #daa520; stroke: #daa520"/>
     <use xlink:href="#m985978f8c9" x="317.487687" y="228.763115" style="fill: #daa520; stroke: #daa520"/>
     <use xlink:href="#m985978f8c9" x="284.312885" y="229.766578" style="fill: #daa520; stroke: #daa520"/>
     <use xlink:href="#m985978f8c9" x="218.816014" y="243.496467" style="fill: #daa520; stroke: #daa520"/>
     <use xlink:href="#m985978f8c9" x="227.605968" y="244.873148" style="fill: #daa520; stroke: #daa520"/>
     <use xlink:href="#m985978f8c9" x="295.449896" y="236.401065" style="fill: #daa520; stroke: #daa520"/>
     <use xlink:href="#m985978f8c9" x="226.579019" y="216.811528" style="fill: #daa520; stroke: #daa520"/>
     <use xlink:href="#m985978f8c9" x="220.706713" y="235.68757" style="fill: #daa520; stroke: #daa520"/>
     <use xlink:href="#m985978f8c9" x="357.817314" y="248.211013" style="fill: #daa520; stroke: #daa520"/>
     <use xlink:href="#m985978f8c9" x="163.916093" y="266.347527" style="fill: #daa520; stroke: #daa520"/>
     <use xlink:href="#m985978f8c9" x="196.573787" y="211.989193" style="fill: #daa520; stroke: #daa520"/>
     <use xlink:href="#m985978f8c9" x="389.773502" y="237.384639" style="fill: #daa520; stroke: #daa520"/>
     <use xlink:href="#m985978f8c9" x="284.322434" y="227.135313" style="fill: #daa520; stroke: #daa520"/>
     <use xlink:href="#m985978f8c9" x="315.618627" y="233.401669" style="fill: #daa520; stroke: #daa520"/>
     <use xlink:href="#m985978f8c9" x="222.034947" y="235.295101" style="fill: #daa520; stroke: #daa520"/>
     <use xlink:href="#m985978f8c9" x="320.470264" y="242.245428" style="fill: #daa520; stroke: #daa520"/>
     <use xlink:href="#m985978f8c9" x="411.807811" y="216.594451" style="fill: #daa520; stroke: #daa520"/>
     <use xlink:href="#m985978f8c9" x="216.684209" y="231.719422" style="fill: #daa520; stroke: #daa520"/>
     <use xlink:href="#m985978f8c9" x="146.627803" y="247.24073" style="fill: #daa520; stroke: #daa520"/>
     <use xlink:href="#m985978f8c9" x="332.030576" y="239.05473" style="fill: #daa520; stroke: #daa520"/>
     <use xlink:href="#m985978f8c9" x="180.957341" y="238.372628" style="fill: #daa520; stroke: #daa520"/>
     <use xlink:href="#m985978f8c9" x="97.000212" y="219.167698" style="fill: #daa520; stroke: #daa520"/>
     <use xlink:href="#m985978f8c9" x="322.500333" y="235.213342" style="fill: #daa520; stroke: #daa520"/>
     <use xlink:href="#m985978f8c9" x="386.628331" y="201.39637" style="fill: #daa520; stroke: #daa520"/>
     <use xlink:href="#m985978f8c9" x="288.321692" y="226.600055" style="fill: #daa520; stroke: #daa520"/>
     <use xlink:href="#m985978f8c9" x="193.14091" y="248.971983" style="fill: #daa520; stroke: #daa520"/>
     <use xlink:href="#m985978f8c9" x="181.847463" y="267.312184" style="fill: #daa520; stroke: #daa520"/>
     <use xlink:href="#m985978f8c9" x="206.018824" y="250.741706" style="fill: #daa520; stroke: #daa520"/>
     <use xlink:href="#m985978f8c9" x="320.571475" y="222.444323" style="fill: #daa520; stroke: #daa520"/>
     <use xlink:href="#m985978f8c9" x="313.921082" y="242.894192" style="fill: #daa520; stroke: #daa520"/>
     <use xlink:href="#m985978f8c9" x="296.625994" y="229.892702" style="fill: #daa520; stroke: #daa520"/>
     <use xlink:href="#m985978f8c9" x="204.836998" y="255.888421" style="fill: #daa520; stroke: #daa520"/>
     <use xlink:href="#m985978f8c9" x="201.737078" y="263.397532" style="fill: #daa520; stroke: #daa520"/>
     <use xlink:href="#m985978f8c9" x="122.739248" y="262.583863" style="fill: #daa520; stroke: #daa520"/>
     <use xlink:href="#m985978f8c9" x="308.0438" y="228.734938" style="fill: #daa520; stroke: #daa520"/>
     <use xlink:href="#m985978f8c9" x="326.548806" y="230.269316" style="fill: #daa520; stroke: #daa520"/>
     <use xlink:href="#m985978f8c9" x="167.110603" y="210.592347" style="fill: #daa520; stroke: #daa520"/>
     <use xlink:href="#m985978f8c9" x="406.853378" y="251.064909" style="fill: #daa520; stroke: #daa520"/>
     <use xlink:href="#m985978f8c9" x="262.964273" y="239.16709" style="fill: #daa520; stroke: #daa520"/>
     <use xlink:href="#m985978f8c9" x="166.844374" y="256.788376" style="fill: #daa520; stroke: #daa520"/>
     <use xlink:href="#m985978f8c9" x="255.955663" y="238.1674" style="fill: #daa520; stroke: #daa520"/>
     <use xlink:href="#m985978f8c9" x="138.718417" y="186.005818" style="fill: #daa520; stroke: #daa520"/>
     <use xlink:href="#m985978f8c9" x="207.533366" y="266.974757" style="fill: #daa520; stroke: #daa520"/>
     <use xlink:href="#m985978f8c9" x="337.791814" y="232.271952" style="fill: #daa520; stroke: #daa520"/>
     <use xlink:href="#m985978f8c9" x="194.732364" y="255.225718" style="fill: #daa520; stroke: #daa520"/>
     <use xlink:href="#m985978f8c9" x="182.879403" y="270.026307" style="fill: #daa520; stroke: #daa520"/>
     <use xlink:href="#m985978f8c9" x="214.283479" y="255.544287" style="fill: #daa520; stroke: #daa520"/>
     <use xlink:href="#m985978f8c9" x="218.072261" y="219.491141" style="fill: #daa520; stroke: #daa520"/>
     <use xlink:href="#m985978f8c9" x="151.356593" y="262.116253" style="fill: #daa520; stroke: #daa520"/>
     <use xlink:href="#m985978f8c9" x="347.364614" y="240.718954" style="fill: #daa520; stroke: #daa520"/>
     <use xlink:href="#m985978f8c9" x="367.464436" y="251.125213" style="fill: #daa520; stroke: #daa520"/>
    </g>
   </g>
   <g id="matplotlib.axis_5">
    <g id="xtick_1">
     <g id="line2d_9">
      <defs>
       <path id="m4da4ead049" d="M 0 0 
L 0 3.5 
" style="stroke: #696969; stroke-width: 0.8"/>
      </defs>
      <g>
       <use xlink:href="#m4da4ead049" x="70.462045" y="276.68" style="fill: #696969; stroke: #696969; stroke-width: 0.8"/>
      </g>
     </g>
     <g id="text_3">
      <!-- −1.0 -->
      <g style="fill: #696969" transform="translate(51.035795 295.8375) scale(0.16 -0.16)">
       <defs>
        <path id="DejaVuSans-2212" d="M 678 2272 
L 4684 2272 
L 4684 1741 
L 678 1741 
L 678 2272 
z
" transform="scale(0.015625)"/>
        <path id="DejaVuSans-31" d="M 794 531 
L 1825 531 
L 1825 4091 
L 703 3866 
L 703 4441 
L 1819 4666 
L 2450 4666 
L 2450 531 
L 3481 531 
L 3481 0 
L 794 0 
L 794 531 
z
" transform="scale(0.015625)"/>
        <path id="DejaVuSans-2e" d="M 684 794 
L 1344 794 
L 1344 0 
L 684 0 
L 684 794 
z
" transform="scale(0.015625)"/>
       </defs>
       <use xlink:href="#DejaVuSans-2212"/>
       <use xlink:href="#DejaVuSans-31" x="83.789062"/>
       <use xlink:href="#DejaVuSans-2e" x="147.412109"/>
       <use xlink:href="#DejaVuSans-30" x="179.199219"/>
      </g>
     </g>
    </g>
    <g id="xtick_2">
     <g id="line2d_10">
      <g>
       <use xlink:href="#m4da4ead049" x="157.509773" y="276.68" style="fill: #696969; stroke: #696969; stroke-width: 0.8"/>
      </g>
     </g>
     <g id="text_4">
      <!-- −0.5 -->
      <g style="fill: #696969" transform="translate(138.083523 295.8375) scale(0.16 -0.16)">
       <use xlink:href="#DejaVuSans-2212"/>
       <use xlink:href="#DejaVuSans-30" x="83.789062"/>
       <use xlink:href="#DejaVuSans-2e" x="147.412109"/>
       <use xlink:href="#DejaVuSans-35" x="179.199219"/>
      </g>
     </g>
    </g>
    <g id="xtick_3">
     <g id="line2d_11">
      <g>
       <use xlink:href="#m4da4ead049" x="244.5575" y="276.68" style="fill: #696969; stroke: #696969; stroke-width: 0.8"/>
      </g>
     </g>
     <g id="text_5">
      <!-- 0.0 -->
      <g style="fill: #696969" transform="translate(231.835 295.8375) scale(0.16 -0.16)">
       <use xlink:href="#DejaVuSans-30"/>
       <use xlink:href="#DejaVuSans-2e" x="63.623047"/>
       <use xlink:href="#DejaVuSans-30" x="95.410156"/>
      </g>
     </g>
    </g>
    <g id="xtick_4">
     <g id="line2d_12">
      <g>
       <use xlink:href="#m4da4ead049" x="331.605227" y="276.68" style="fill: #696969; stroke: #696969; stroke-width: 0.8"/>
      </g>
     </g>
     <g id="text_6">
      <!-- 0.5 -->
      <g style="fill: #696969" transform="translate(318.882727 295.8375) scale(0.16 -0.16)">
       <use xlink:href="#DejaVuSans-30"/>
       <use xlink:href="#DejaVuSans-2e" x="63.623047"/>
       <use xlink:href="#DejaVuSans-35" x="95.410156"/>
      </g>
     </g>
    </g>
    <g id="xtick_5">
     <g id="line2d_13">
      <g>
       <use xlink:href="#m4da4ead049" x="418.652955" y="276.68" style="fill: #696969; stroke: #696969; stroke-width: 0.8"/>
      </g>
     </g>
     <g id="text_7">
      <!-- 1.0 -->
      <g style="fill: #696969" transform="translate(405.930455 295.8375) scale(0.16 -0.16)">
       <use xlink:href="#DejaVuSans-31"/>
       <use xlink:href="#DejaVuSans-2e" x="63.623047"/>
       <use xlink:href="#DejaVuSans-30" x="95.410156"/>
      </g>
     </g>
    </g>
    <g id="text_8">
     <!-- $X$ -->
     <g transform="translate(239.0375 315.3225) scale(0.16 -0.16)">
      <defs>
       <path id="DejaVuSans-Oblique-58" d="M 878 4666 
L 1516 4666 
L 2316 2981 
L 3763 4666 
L 4500 4666 
L 2578 2438 
L 3738 0 
L 3103 0 
L 2163 1966 
L 459 0 
L -275 0 
L 1906 2509 
L 878 4666 
z
" transform="scale(0.015625)"/>
      </defs>
      <use xlink:href="#DejaVuSans-Oblique-58" transform="translate(0 0.09375)"/>
     </g>
    </g>
   </g>
   <g id="matplotlib.axis_6">
    <g id="ytick_3">
     <g id="line2d_14">
      <g>
       <use xlink:href="#m228b3ccd89" x="53.0525" y="274.084733" style="fill: #696969; stroke: #696969; stroke-width: 0.8"/>
      </g>
     </g>
     <g id="text_9">
      <!-- −2.5 -->
      <g style="fill: #696969" transform="translate(7.2 280.163483) scale(0.16 -0.16)">
       <defs>
        <path id="DejaVuSans-32" d="M 1228 531 
L 3431 531 
L 3431 0 
L 469 0 
L 469 531 
Q 828 903 1448 1529 
Q 2069 2156 2228 2338 
Q 2531 2678 2651 2914 
Q 2772 3150 2772 3378 
Q 2772 3750 2511 3984 
Q 2250 4219 1831 4219 
Q 1534 4219 1204 4116 
Q 875 4013 500 3803 
L 500 4441 
Q 881 4594 1212 4672 
Q 1544 4750 1819 4750 
Q 2544 4750 2975 4387 
Q 3406 4025 3406 3419 
Q 3406 3131 3298 2873 
Q 3191 2616 2906 2266 
Q 2828 2175 2409 1742 
Q 1991 1309 1228 531 
z
" transform="scale(0.015625)"/>
       </defs>
       <use xlink:href="#DejaVuSans-2212"/>
       <use xlink:href="#DejaVuSans-32" x="83.789062"/>
       <use xlink:href="#DejaVuSans-2e" x="147.412109"/>
       <use xlink:href="#DejaVuSans-35" x="179.199219"/>
      </g>
     </g>
    </g>
    <g id="ytick_4">
     <g id="line2d_15">
      <g>
       <use xlink:href="#m228b3ccd89" x="53.0525" y="232.830377" style="fill: #696969; stroke: #696969; stroke-width: 0.8"/>
      </g>
     </g>
     <g id="text_10">
      <!-- 0.0 -->
      <g style="fill: #696969" transform="translate(20.6075 238.909127) scale(0.16 -0.16)">
       <use xlink:href="#DejaVuSans-30"/>
       <use xlink:href="#DejaVuSans-2e" x="63.623047"/>
       <use xlink:href="#DejaVuSans-30" x="95.410156"/>
      </g>
     </g>
    </g>
    <g id="ytick_5">
     <g id="line2d_16">
      <g>
       <use xlink:href="#m228b3ccd89" x="53.0525" y="191.576021" style="fill: #696969; stroke: #696969; stroke-width: 0.8"/>
      </g>
     </g>
     <g id="text_11">
      <!-- 2.5 -->
      <g style="fill: #696969" transform="translate(20.6075 197.654771) scale(0.16 -0.16)">
       <use xlink:href="#DejaVuSans-32"/>
       <use xlink:href="#DejaVuSans-2e" x="63.623047"/>
       <use xlink:href="#DejaVuSans-35" x="95.410156"/>
      </g>
     </g>
    </g>
   </g>
   <g id="line2d_17">
    <path d="M 70.462045 234.106379 
L 77.425864 234.052609 
L 84.389682 234.177955 
L 91.3535 234.513738 
L 98.317318 235.078219 
L 105.281136 235.872849 
L 112.244955 236.878811 
L 119.208773 238.054113 
L 126.172591 239.331616 
L 133.136409 240.61894 
L 140.100227 241.802128 
L 147.064045 242.756406 
L 154.027864 243.367557 
L 160.991682 243.56369 
L 167.9555 243.345919 
L 174.919318 242.795453 
L 181.883136 242.042393 
L 188.846955 241.212945 
L 195.810773 240.39234 
L 202.774591 239.622133 
L 209.738409 238.918388 
L 216.702227 238.287693 
L 223.666045 237.730024 
L 230.629864 237.232874 
L 237.593682 236.768835 
L 244.5575 236.306047 
L 251.521318 235.829298 
L 258.485136 235.358335 
L 265.448955 234.948413 
L 272.412773 234.667016 
L 279.376591 234.555058 
L 286.340409 234.594659 
L 293.304227 234.70916 
L 300.268045 234.800807 
L 307.231864 234.799092 
L 314.195682 234.685483 
L 321.1595 234.485531 
L 328.123318 234.244642 
L 335.087136 234.005833 
L 342.050955 233.797276 
L 349.014773 233.628535 
L 355.978591 233.491848 
L 362.942409 233.365382 
L 369.906227 233.216668 
L 376.870045 233.00546 
L 383.833864 232.685901 
L 390.797682 232.208135 
L 397.7615 231.519687 
L 404.725318 230.566936 
L 411.689136 229.296977 
L 418.652955 227.660123 
" clip-path="url(#p164e1f7a4f)" style="fill: none; stroke: #696969; stroke-width: 2; stroke-linecap: square"/>
   </g>
   <g id="line2d_18">
    <path d="M 70.462045 221.248422 
L 77.425864 227.411184 
L 84.389682 232.61435 
L 91.3535 236.940019 
L 98.317318 240.467037 
L 105.281136 243.270995 
L 112.244955 245.424233 
L 119.208773 246.995839 
L 126.172591 248.051645 
L 133.136409 248.654232 
L 140.100227 248.862929 
L 147.064045 248.733809 
L 154.027864 248.319696 
L 160.991682 247.670157 
L 167.9555 246.83151 
L 174.919318 245.846816 
L 181.883136 244.755886 
L 188.846955 243.595278 
L 195.810773 242.398296 
L 202.774591 241.194991 
L 209.738409 240.012161 
L 216.702227 238.873352 
L 223.666045 237.798857 
L 230.629864 236.805715 
L 237.593682 235.907712 
L 244.5575 235.115383 
L 251.521318 234.436009 
L 258.485136 233.873616 
L 265.448955 233.42898 
L 272.412773 233.099624 
L 279.376591 232.879815 
L 286.340409 232.76057 
L 293.304227 232.729653 
L 300.268045 232.771573 
L 307.231864 232.867588 
L 314.195682 232.995701 
L 321.1595 233.130666 
L 328.123318 233.243979 
L 335.087136 233.303886 
L 342.050955 233.275381 
L 349.014773 233.120202 
L 355.978591 232.796837 
L 362.942409 232.260519 
L 369.906227 231.463229 
L 376.870045 230.353694 
L 383.833864 228.877391 
L 390.797682 226.97654 
L 397.7615 224.590111 
L 404.725318 221.65382 
L 411.689136 218.100131 
L 418.652955 213.858253 
" clip-path="url(#p164e1f7a4f)" style="fill: none; stroke-dasharray: 7.4,3.2; stroke-dashoffset: 0; stroke: #79ad41; stroke-width: 2"/>
   </g>
   <g id="patch_9">
    <path d="M 53.0525 276.68 
L 53.0525 181.688 
" style="fill: none; stroke: #000000; stroke-width: 0.8; stroke-linejoin: miter; stroke-linecap: square"/>
   </g>
   <g id="patch_10">
    <path d="M 436.0625 276.68 
L 436.0625 181.688 
" style="fill: none; stroke: #000000; stroke-width: 0.8; stroke-linejoin: miter; stroke-linecap: square"/>
   </g>
   <g id="patch_11">
    <path d="M 53.0525 276.68 
L 436.0625 276.68 
" style="fill: none; stroke: #000000; stroke-width: 0.8; stroke-linejoin: miter; stroke-linecap: square"/>
   </g>
   <g id="patch_12">
    <path d="M 53.0525 181.688 
L 436.0625 181.688 
" style="fill: none; stroke: #000000; stroke-width: 0.8; stroke-linejoin: miter; stroke-linecap: square"/>
   </g>
  </g>
 </g>
 <defs>
  <clipPath id="pa65a6e7df5">
   <rect x="53.0525" y="7.2" width="383.01" height="47.496"/>
  </clipPath>
  <clipPath id="p6e538e840b">
   <rect x="53.0525" y="70.696" width="383.01" height="94.992"/>
  </clipPath>
  <clipPath id="p164e1f7a4f">
   <rect x="53.0525" y="181.688" width="383.01" height="94.992"/>
  </clipPath>
 </defs>
</svg>
