<?xml version="1.0" encoding="utf-8" standalone="no"?>
<!DOCTYPE svg PUBLIC "-//W3C//DTD SVG 1.1//EN"
  "http://www.w3.org/Graphics/SVG/1.1/DTD/svg11.dtd">
<svg xmlns:xlink="http://www.w3.org/1999/xlink" width="443.2075pt" height="325.85pt" viewBox="0 0 443.2075 325.85" xmlns="http://www.w3.org/2000/svg" version="1.1">
 <metadata>
  <rdf:RDF xmlns:dc="http://purl.org/dc/elements/1.1/" xmlns:cc="http://creativecommons.org/ns#" xmlns:rdf="http://www.w3.org/1999/02/22-rdf-syntax-ns#">
   <cc:Work>
    <dc:type rdf:resource="http://purl.org/dc/dcmitype/StillImage"/>
    <dc:date>2024-01-28T20:58:20.438603</dc:date>
    <dc:format>image/svg+xml</dc:format>
    <dc:creator>
     <cc:Agent>
      <dc:title>Matplotlib v3.7.2, https://matplotlib.org/</dc:title>
     </cc:Agent>
    </dc:creator>
   </cc:Work>
  </rdf:RDF>
 </metadata>
 <defs>
  <style type="text/css">*{stroke-linejoin: round; stroke-linecap: butt}</style>
 </defs>
 <g id="figure_1">
  <g id="patch_1">
   <path d="M 0 325.85 
L 443.2075 325.85 
L 443.2075 0 
L 0 0 
z
" style="fill: #ffffff"/>
  </g>
  <g id="axes_1">
   <g id="patch_2">
    <path d="M 37.7875 53.472987 
L 436.0075 53.472987 
L 436.0075 7.2 
L 37.7875 7.2 
z
" style="fill: #ffffff"/>
   </g>
   <g id="PolyCollection_1">
    <defs>
     <path id="meda8cce8d4" d="M 55.888409 -274.480331 
L 55.888409 -315.721504 
L 63.128773 -314.278661 
L 70.369136 -312.887368 
L 77.6095 -311.556032 
L 84.849864 -310.29136 
L 92.090227 -309.098488 
L 99.330591 -307.981097 
L 106.570955 -306.941598 
L 113.811318 -305.981356 
L 121.051682 -305.10087 
L 128.292045 -304.299992 
L 135.532409 -303.578065 
L 142.772773 -302.934073 
L 150.013136 -302.366771 
L 157.2535 -301.874767 
L 164.493864 -301.456571 
L 171.734227 -301.110627 
L 178.974591 -300.835368 
L 186.214955 -300.629158 
L 193.455318 -300.490293 
L 200.695682 -300.416985 
L 207.936045 -300.407273 
L 215.176409 -300.458986 
L 222.416773 -300.569716 
L 229.657136 -300.73667 
L 236.8975 -300.956693 
L 244.137864 -301.226158 
L 251.378227 -301.540917 
L 258.618591 -301.896276 
L 265.858955 -302.286988 
L 273.099318 -302.707214 
L 280.339682 -303.150586 
L 287.580045 -303.610243 
L 294.820409 -304.078893 
L 302.060773 -304.548933 
L 309.301136 -305.012544 
L 316.5415 -305.461842 
L 323.781864 -305.888982 
L 331.022227 -306.286356 
L 338.262591 -306.646641 
L 345.502955 -306.962992 
L 352.743318 -307.229116 
L 359.983682 -307.439372 
L 367.224045 -307.58883 
L 374.464409 -307.673359 
L 381.704773 -307.689649 
L 388.945136 -307.635262 
L 396.1855 -307.508652 
L 403.425864 -307.309188 
L 410.666227 -307.037183 
L 417.906591 -306.693878 
L 417.906591 -274.480331 
L 417.906591 -274.480331 
L 410.666227 -274.480331 
L 403.425864 -274.480331 
L 396.1855 -274.480331 
L 388.945136 -274.480331 
L 381.704773 -274.480331 
L 374.464409 -274.480331 
L 367.224045 -274.480331 
L 359.983682 -274.480331 
L 352.743318 -274.480331 
L 345.502955 -274.480331 
L 338.262591 -274.480331 
L 331.022227 -274.480331 
L 323.781864 -274.480331 
L 316.5415 -274.480331 
L 309.301136 -274.480331 
L 302.060773 -274.480331 
L 294.820409 -274.480331 
L 287.580045 -274.480331 
L 280.339682 -274.480331 
L 273.099318 -274.480331 
L 265.858955 -274.480331 
L 258.618591 -274.480331 
L 251.378227 -274.480331 
L 244.137864 -274.480331 
L 236.8975 -274.480331 
L 229.657136 -274.480331 
L 222.416773 -274.480331 
L 215.176409 -274.480331 
L 207.936045 -274.480331 
L 200.695682 -274.480331 
L 193.455318 -274.480331 
L 186.214955 -274.480331 
L 178.974591 -274.480331 
L 171.734227 -274.480331 
L 164.493864 -274.480331 
L 157.2535 -274.480331 
L 150.013136 -274.480331 
L 142.772773 -274.480331 
L 135.532409 -274.480331 
L 128.292045 -274.480331 
L 121.051682 -274.480331 
L 113.811318 -274.480331 
L 106.570955 -274.480331 
L 99.330591 -274.480331 
L 92.090227 -274.480331 
L 84.849864 -274.480331 
L 77.6095 -274.480331 
L 70.369136 -274.480331 
L 63.128773 -274.480331 
L 55.888409 -274.480331 
z
" style="stroke: #dc143c; stroke-opacity: 0.2"/>
    </defs>
    <g clip-path="url(#p1f00e151bb)">
     <use xlink:href="#meda8cce8d4" x="0" y="325.85" style="fill: #dc143c; fill-opacity: 0.2; stroke: #dc143c; stroke-opacity: 0.2"/>
    </g>
   </g>
   <g id="PolyCollection_2">
    <defs>
     <path id="m4ee039ac8c" d="M 55.888409 -274.480331 
L 55.888409 -301.232452 
L 63.128773 -302.675295 
L 70.369136 -304.066587 
L 77.6095 -305.397923 
L 84.849864 -306.662595 
L 92.090227 -307.855468 
L 99.330591 -308.972859 
L 106.570955 -310.012357 
L 113.811318 -310.9726 
L 121.051682 -311.853085 
L 128.292045 -312.653964 
L 135.532409 -313.37589 
L 142.772773 -314.019883 
L 150.013136 -314.587185 
L 157.2535 -315.079189 
L 164.493864 -315.497384 
L 171.734227 -315.843329 
L 178.974591 -316.118588 
L 186.214955 -316.324798 
L 193.455318 -316.463663 
L 200.695682 -316.53697 
L 207.936045 -316.546682 
L 215.176409 -316.49497 
L 222.416773 -316.38424 
L 229.657136 -316.217286 
L 236.8975 -315.997262 
L 244.137864 -315.727798 
L 251.378227 -315.413039 
L 258.618591 -315.05768 
L 265.858955 -314.666967 
L 273.099318 -314.246742 
L 280.339682 -313.80337 
L 287.580045 -313.343713 
L 294.820409 -312.875062 
L 302.060773 -312.405022 
L 309.301136 -311.941412 
L 316.5415 -311.492113 
L 323.781864 -311.064974 
L 331.022227 -310.667599 
L 338.262591 -310.307314 
L 345.502955 -309.990963 
L 352.743318 -309.72484 
L 359.983682 -309.514583 
L 367.224045 -309.365126 
L 374.464409 -309.280596 
L 381.704773 -309.264306 
L 388.945136 -309.318693 
L 396.1855 -309.445303 
L 403.425864 -309.644768 
L 410.666227 -309.916773 
L 417.906591 -310.260077 
L 417.906591 -274.480331 
L 417.906591 -274.480331 
L 410.666227 -274.480331 
L 403.425864 -274.480331 
L 396.1855 -274.480331 
L 388.945136 -274.480331 
L 381.704773 -274.480331 
L 374.464409 -274.480331 
L 367.224045 -274.480331 
L 359.983682 -274.480331 
L 352.743318 -274.480331 
L 345.502955 -274.480331 
L 338.262591 -274.480331 
L 331.022227 -274.480331 
L 323.781864 -274.480331 
L 316.5415 -274.480331 
L 309.301136 -274.480331 
L 302.060773 -274.480331 
L 294.820409 -274.480331 
L 287.580045 -274.480331 
L 280.339682 -274.480331 
L 273.099318 -274.480331 
L 265.858955 -274.480331 
L 258.618591 -274.480331 
L 251.378227 -274.480331 
L 244.137864 -274.480331 
L 236.8975 -274.480331 
L 229.657136 -274.480331 
L 222.416773 -274.480331 
L 215.176409 -274.480331 
L 207.936045 -274.480331 
L 200.695682 -274.480331 
L 193.455318 -274.480331 
L 186.214955 -274.480331 
L 178.974591 -274.480331 
L 171.734227 -274.480331 
L 164.493864 -274.480331 
L 157.2535 -274.480331 
L 150.013136 -274.480331 
L 142.772773 -274.480331 
L 135.532409 -274.480331 
L 128.292045 -274.480331 
L 121.051682 -274.480331 
L 113.811318 -274.480331 
L 106.570955 -274.480331 
L 99.330591 -274.480331 
L 92.090227 -274.480331 
L 84.849864 -274.480331 
L 77.6095 -274.480331 
L 70.369136 -274.480331 
L 63.128773 -274.480331 
L 55.888409 -274.480331 
z
" style="stroke: #000080; stroke-opacity: 0.2"/>
    </defs>
    <g clip-path="url(#p1f00e151bb)">
     <use xlink:href="#m4ee039ac8c" x="0" y="325.85" style="fill: #000080; fill-opacity: 0.2; stroke: #000080; stroke-opacity: 0.2"/>
    </g>
   </g>
   <g id="matplotlib.axis_1"/>
   <g id="matplotlib.axis_2"/>
   <g id="line2d_1">
    <path d="M 55.888409 10.128496 
L 63.128773 11.571339 
L 70.369136 12.962632 
L 77.6095 14.293968 
L 84.849864 15.55864 
L 92.090227 16.751512 
L 99.330591 17.868903 
L 106.570955 18.908402 
L 113.811318 19.868644 
L 121.051682 20.74913 
L 128.292045 21.550008 
L 135.532409 22.271935 
L 142.772773 22.915927 
L 150.013136 23.483229 
L 157.2535 23.975233 
L 164.493864 24.393429 
L 171.734227 24.739373 
L 178.974591 25.014632 
L 186.214955 25.220842 
L 193.455318 25.359707 
L 200.695682 25.433015 
L 207.936045 25.442727 
L 215.176409 25.391014 
L 222.416773 25.280284 
L 229.657136 25.11333 
L 236.8975 24.893307 
L 244.137864 24.623842 
L 251.378227 24.309083 
L 258.618591 23.953724 
L 265.858955 23.563012 
L 273.099318 23.142786 
L 280.339682 22.699414 
L 287.580045 22.239757 
L 294.820409 21.771107 
L 302.060773 21.301067 
L 309.301136 20.837456 
L 316.5415 20.388158 
L 323.781864 19.961018 
L 331.022227 19.563644 
L 338.262591 19.203359 
L 345.502955 18.887008 
L 352.743318 18.620884 
L 359.983682 18.410628 
L 367.224045 18.26117 
L 374.464409 18.176641 
L 381.704773 18.160351 
L 388.945136 18.214738 
L 396.1855 18.341348 
L 403.425864 18.540812 
L 410.666227 18.812817 
L 417.906591 19.156122 
" clip-path="url(#p1f00e151bb)" style="fill: none; stroke: #dc143c; stroke-width: 1.5; stroke-linecap: square"/>
   </g>
   <g id="line2d_2">
    <path d="M 55.888409 24.617548 
L 63.128773 23.174705 
L 70.369136 21.783413 
L 77.6095 20.452077 
L 84.849864 19.187405 
L 92.090227 17.994532 
L 99.330591 16.877141 
L 106.570955 15.837643 
L 113.811318 14.8774 
L 121.051682 13.996915 
L 128.292045 13.196036 
L 135.532409 12.47411 
L 142.772773 11.830117 
L 150.013136 11.262815 
L 157.2535 10.770811 
L 164.493864 10.352616 
L 171.734227 10.006671 
L 178.974591 9.731412 
L 186.214955 9.525202 
L 193.455318 9.386337 
L 200.695682 9.31303 
L 207.936045 9.303318 
L 215.176409 9.35503 
L 222.416773 9.46576 
L 229.657136 9.632714 
L 236.8975 9.852738 
L 244.137864 10.122202 
L 251.378227 10.436961 
L 258.618591 10.79232 
L 265.858955 11.183033 
L 273.099318 11.603258 
L 280.339682 12.04663 
L 287.580045 12.506287 
L 294.820409 12.974938 
L 302.060773 13.444978 
L 309.301136 13.908588 
L 316.5415 14.357887 
L 323.781864 14.785026 
L 331.022227 15.182401 
L 338.262591 15.542686 
L 345.502955 15.859037 
L 352.743318 16.12516 
L 359.983682 16.335417 
L 367.224045 16.484874 
L 374.464409 16.569404 
L 381.704773 16.585694 
L 388.945136 16.531307 
L 396.1855 16.404697 
L 403.425864 16.205232 
L 410.666227 15.933227 
L 417.906591 15.589923 
" clip-path="url(#p1f00e151bb)" style="fill: none; stroke: #000080; stroke-width: 1.5; stroke-linecap: square"/>
   </g>
  </g>
  <g id="axes_2">
   <g id="patch_3">
    <path d="M 37.7875 165.076493 
L 436.0075 165.076493 
L 436.0075 72.53052 
L 37.7875 72.53052 
z
" style="fill: #ffffff"/>
   </g>
   <g id="PathCollection_1">
    <defs>
     <path id="mcca294a38c" d="M 0 0.866025 
C 0.229673 0.866025 0.449969 0.774776 0.612372 0.612372 
C 0.774776 0.449969 0.866025 0.229673 0.866025 0 
C 0.866025 -0.229673 0.774776 -0.449969 0.612372 -0.612372 
C 0.449969 -0.774776 0.229673 -0.866025 0 -0.866025 
C -0.229673 -0.866025 -0.449969 -0.774776 -0.612372 -0.612372 
C -0.774776 -0.449969 -0.866025 -0.229673 -0.866025 0 
C -0.866025 0.229673 -0.774776 0.449969 -0.612372 0.612372 
C -0.449969 0.774776 -0.229673 0.866025 0 0.866025 
z
" style="stroke: #daa520"/>
    </defs>
    <g clip-path="url(#pe2e3a6ff86)">
     <use xlink:href="#mcca294a38c" x="139.017986" y="126.814141" style="fill: #daa520; stroke: #daa520"/>
     <use xlink:href="#mcca294a38c" x="386.723528" y="158.910505" style="fill: #daa520; stroke: #daa520"/>
     <use xlink:href="#mcca294a38c" x="108.573596" y="123.827073" style="fill: #daa520; stroke: #daa520"/>
     <use xlink:href="#mcca294a38c" x="358.732337" y="95.337195" style="fill: #daa520; stroke: #daa520"/>
     <use xlink:href="#mcca294a38c" x="397.113688" y="146.542452" style="fill: #daa520; stroke: #daa520"/>
     <use xlink:href="#mcca294a38c" x="371.776659" y="128.367289" style="fill: #daa520; stroke: #daa520"/>
     <use xlink:href="#mcca294a38c" x="342.999539" y="146.364493" style="fill: #daa520; stroke: #daa520"/>
     <use xlink:href="#mcca294a38c" x="106.70393" y="124.221633" style="fill: #daa520; stroke: #daa520"/>
     <use xlink:href="#mcca294a38c" x="208.975733" y="94.939848" style="fill: #daa520; stroke: #daa520"/>
     <use xlink:href="#mcca294a38c" x="201.796548" y="115.708893" style="fill: #daa520; stroke: #daa520"/>
     <use xlink:href="#mcca294a38c" x="109.960436" y="119.29294" style="fill: #daa520; stroke: #daa520"/>
     <use xlink:href="#mcca294a38c" x="339.95589" y="135.28285" style="fill: #daa520; stroke: #daa520"/>
     <use xlink:href="#mcca294a38c" x="55.937597" y="82.305563" style="fill: #daa520; stroke: #daa520"/>
     <use xlink:href="#mcca294a38c" x="212.522889" y="95.383366" style="fill: #daa520; stroke: #daa520"/>
     <use xlink:href="#mcca294a38c" x="403.223662" y="153.074713" style="fill: #daa520; stroke: #daa520"/>
     <use xlink:href="#mcca294a38c" x="164.119326" y="90.292646" style="fill: #daa520; stroke: #daa520"/>
     <use xlink:href="#mcca294a38c" x="279.101613" y="104.927802" style="fill: #daa520; stroke: #daa520"/>
     <use xlink:href="#mcca294a38c" x="111.239782" y="125.606284" style="fill: #daa520; stroke: #daa520"/>
     <use xlink:href="#mcca294a38c" x="181.558558" y="102.499467" style="fill: #daa520; stroke: #daa520"/>
     <use xlink:href="#mcca294a38c" x="309.801396" y="109.544677" style="fill: #daa520; stroke: #daa520"/>
     <use xlink:href="#mcca294a38c" x="293.292912" y="109.373312" style="fill: #daa520; stroke: #daa520"/>
     <use xlink:href="#mcca294a38c" x="303.938084" y="99.982576" style="fill: #daa520; stroke: #daa520"/>
     <use xlink:href="#mcca294a38c" x="274.363968" y="97.532228" style="fill: #daa520; stroke: #daa520"/>
     <use xlink:href="#mcca294a38c" x="76.575444" y="124.085334" style="fill: #daa520; stroke: #daa520"/>
     <use xlink:href="#mcca294a38c" x="85.842151" y="87.685559" style="fill: #daa520; stroke: #daa520"/>
     <use xlink:href="#mcca294a38c" x="353.208543" y="82.655308" style="fill: #daa520; stroke: #daa520"/>
     <use xlink:href="#mcca294a38c" x="226.817381" y="119.675716" style="fill: #daa520; stroke: #daa520"/>
     <use xlink:href="#mcca294a38c" x="63.279358" y="123.591257" style="fill: #daa520; stroke: #daa520"/>
     <use xlink:href="#mcca294a38c" x="242.425311" y="99.39672" style="fill: #daa520; stroke: #daa520"/>
     <use xlink:href="#mcca294a38c" x="58.509783" y="76.737155" style="fill: #daa520; stroke: #daa520"/>
     <use xlink:href="#mcca294a38c" x="327.119468" y="110.779879" style="fill: #daa520; stroke: #daa520"/>
     <use xlink:href="#mcca294a38c" x="79.892934" y="138.983049" style="fill: #daa520; stroke: #daa520"/>
     <use xlink:href="#mcca294a38c" x="156.663018" y="113.468345" style="fill: #daa520; stroke: #daa520"/>
     <use xlink:href="#mcca294a38c" x="62.181996" y="118.171755" style="fill: #daa520; stroke: #daa520"/>
     <use xlink:href="#mcca294a38c" x="162.503043" y="119.619817" style="fill: #daa520; stroke: #daa520"/>
     <use xlink:href="#mcca294a38c" x="367.304712" y="84.749734" style="fill: #daa520; stroke: #daa520"/>
     <use xlink:href="#mcca294a38c" x="176.873811" y="87.049988" style="fill: #daa520; stroke: #daa520"/>
     <use xlink:href="#mcca294a38c" x="258.892315" y="118.444855" style="fill: #daa520; stroke: #daa520"/>
     <use xlink:href="#mcca294a38c" x="314.400122" y="119.443097" style="fill: #daa520; stroke: #daa520"/>
     <use xlink:href="#mcca294a38c" x="266.063497" y="123.955606" style="fill: #daa520; stroke: #daa520"/>
     <use xlink:href="#mcca294a38c" x="298.70284" y="110.672258" style="fill: #daa520; stroke: #daa520"/>
     <use xlink:href="#mcca294a38c" x="58.967747" y="124.416622" style="fill: #daa520; stroke: #daa520"/>
     <use xlink:href="#mcca294a38c" x="290.717507" y="93.099494" style="fill: #daa520; stroke: #daa520"/>
     <use xlink:href="#mcca294a38c" x="384.750299" y="79.766722" style="fill: #daa520; stroke: #daa520"/>
     <use xlink:href="#mcca294a38c" x="320.165816" y="131.630393" style="fill: #daa520; stroke: #daa520"/>
     <use xlink:href="#mcca294a38c" x="315.533045" y="122.402044" style="fill: #daa520; stroke: #daa520"/>
     <use xlink:href="#mcca294a38c" x="137.404303" y="127.430477" style="fill: #daa520; stroke: #daa520"/>
     <use xlink:href="#mcca294a38c" x="406.196026" y="98.437073" style="fill: #daa520; stroke: #daa520"/>
     <use xlink:href="#mcca294a38c" x="264.90514" y="114.540085" style="fill: #daa520; stroke: #daa520"/>
     <use xlink:href="#mcca294a38c" x="62.842642" y="144.553785" style="fill: #daa520; stroke: #daa520"/>
     <use xlink:href="#mcca294a38c" x="222.434273" y="83.939575" style="fill: #daa520; stroke: #daa520"/>
     <use xlink:href="#mcca294a38c" x="232.481184" y="116.155772" style="fill: #daa520; stroke: #daa520"/>
     <use xlink:href="#mcca294a38c" x="407.370292" y="149.654067" style="fill: #daa520; stroke: #daa520"/>
     <use xlink:href="#mcca294a38c" x="368.400875" y="160.869858" style="fill: #daa520; stroke: #daa520"/>
     <use xlink:href="#mcca294a38c" x="157.924188" y="91.244795" style="fill: #daa520; stroke: #daa520"/>
     <use xlink:href="#mcca294a38c" x="183.985473" y="102.517825" style="fill: #daa520; stroke: #daa520"/>
     <use xlink:href="#mcca294a38c" x="169.128239" y="107.96944" style="fill: #daa520; stroke: #daa520"/>
     <use xlink:href="#mcca294a38c" x="71.147477" y="124.213489" style="fill: #daa520; stroke: #daa520"/>
     <use xlink:href="#mcca294a38c" x="163.568245" y="118.035324" style="fill: #daa520; stroke: #daa520"/>
     <use xlink:href="#mcca294a38c" x="279.285542" y="102.150499" style="fill: #daa520; stroke: #daa520"/>
     <use xlink:href="#mcca294a38c" x="326.297097" y="120.138715" style="fill: #daa520; stroke: #daa520"/>
     <use xlink:href="#mcca294a38c" x="236.01605" y="120.210368" style="fill: #daa520; stroke: #daa520"/>
     <use xlink:href="#mcca294a38c" x="90.87391" y="122.391279" style="fill: #daa520; stroke: #daa520"/>
     <use xlink:href="#mcca294a38c" x="251.650147" y="104.150068" style="fill: #daa520; stroke: #daa520"/>
     <use xlink:href="#mcca294a38c" x="131.941353" y="119.880913" style="fill: #daa520; stroke: #daa520"/>
     <use xlink:href="#mcca294a38c" x="66.308561" y="127.199811" style="fill: #daa520; stroke: #daa520"/>
     <use xlink:href="#mcca294a38c" x="184.705178" y="89.038807" style="fill: #daa520; stroke: #daa520"/>
     <use xlink:href="#mcca294a38c" x="308.462521" y="102.800766" style="fill: #daa520; stroke: #daa520"/>
     <use xlink:href="#mcca294a38c" x="261.992238" y="112.327463" style="fill: #daa520; stroke: #daa520"/>
     <use xlink:href="#mcca294a38c" x="354.715847" y="143.833046" style="fill: #daa520; stroke: #daa520"/>
     <use xlink:href="#mcca294a38c" x="256.917932" y="110.655818" style="fill: #daa520; stroke: #daa520"/>
     <use xlink:href="#mcca294a38c" x="107.353691" y="138.326098" style="fill: #daa520; stroke: #daa520"/>
     <use xlink:href="#mcca294a38c" x="69.298023" y="134.073502" style="fill: #daa520; stroke: #daa520"/>
     <use xlink:href="#mcca294a38c" x="290.003727" y="105.066034" style="fill: #daa520; stroke: #daa520"/>
     <use xlink:href="#mcca294a38c" x="160.955447" y="115.545129" style="fill: #daa520; stroke: #daa520"/>
     <use xlink:href="#mcca294a38c" x="272.114435" y="110.179666" style="fill: #daa520; stroke: #daa520"/>
     <use xlink:href="#mcca294a38c" x="363.703094" y="152.423317" style="fill: #daa520; stroke: #daa520"/>
     <use xlink:href="#mcca294a38c" x="308.026008" y="114.532001" style="fill: #daa520; stroke: #daa520"/>
     <use xlink:href="#mcca294a38c" x="178.154848" y="102.707081" style="fill: #daa520; stroke: #daa520"/>
     <use xlink:href="#mcca294a38c" x="365.637983" y="125.29635" style="fill: #daa520; stroke: #daa520"/>
     <use xlink:href="#mcca294a38c" x="310.902053" y="128.576845" style="fill: #daa520; stroke: #daa520"/>
     <use xlink:href="#mcca294a38c" x="279.667016" y="127.223885" style="fill: #daa520; stroke: #daa520"/>
     <use xlink:href="#mcca294a38c" x="303.320455" y="118.851368" style="fill: #daa520; stroke: #daa520"/>
     <use xlink:href="#mcca294a38c" x="82.844778" y="126.019048" style="fill: #daa520; stroke: #daa520"/>
     <use xlink:href="#mcca294a38c" x="250.235058" y="124.345473" style="fill: #daa520; stroke: #daa520"/>
     <use xlink:href="#mcca294a38c" x="379.322392" y="132.655979" style="fill: #daa520; stroke: #daa520"/>
     <use xlink:href="#mcca294a38c" x="263.627253" y="115.738709" style="fill: #daa520; stroke: #daa520"/>
     <use xlink:href="#mcca294a38c" x="78.344144" y="123.560723" style="fill: #daa520; stroke: #daa520"/>
     <use xlink:href="#mcca294a38c" x="392.87077" y="125.795534" style="fill: #daa520; stroke: #daa520"/>
     <use xlink:href="#mcca294a38c" x="192.153719" y="89.60558" style="fill: #daa520; stroke: #daa520"/>
     <use xlink:href="#mcca294a38c" x="150.801383" y="122.014545" style="fill: #daa520; stroke: #daa520"/>
     <use xlink:href="#mcca294a38c" x="96.984342" y="124.730567" style="fill: #daa520; stroke: #daa520"/>
     <use xlink:href="#mcca294a38c" x="109.289659" y="131.828091" style="fill: #daa520; stroke: #daa520"/>
     <use xlink:href="#mcca294a38c" x="220.091696" y="107.424877" style="fill: #daa520; stroke: #daa520"/>
     <use xlink:href="#mcca294a38c" x="257.283016" y="109.736422" style="fill: #daa520; stroke: #daa520"/>
     <use xlink:href="#mcca294a38c" x="73.621981" y="78.940833" style="fill: #daa520; stroke: #daa520"/>
     <use xlink:href="#mcca294a38c" x="330.729494" y="127.804739" style="fill: #daa520; stroke: #daa520"/>
     <use xlink:href="#mcca294a38c" x="131.525792" y="131.486155" style="fill: #daa520; stroke: #daa520"/>
     <use xlink:href="#mcca294a38c" x="374.938086" y="160.555127" style="fill: #daa520; stroke: #daa520"/>
     <use xlink:href="#mcca294a38c" x="133.673611" y="128.760103" style="fill: #daa520; stroke: #daa520"/>
     <use xlink:href="#mcca294a38c" x="404.508234" y="123.003617" style="fill: #daa520; stroke: #daa520"/>
     <use xlink:href="#mcca294a38c" x="352.72149" y="111.194987" style="fill: #daa520; stroke: #daa520"/>
     <use xlink:href="#mcca294a38c" x="83.115123" y="143.206882" style="fill: #daa520; stroke: #daa520"/>
     <use xlink:href="#mcca294a38c" x="315.481707" y="104.993614" style="fill: #daa520; stroke: #daa520"/>
     <use xlink:href="#mcca294a38c" x="74.31715" y="131.188978" style="fill: #daa520; stroke: #daa520"/>
     <use xlink:href="#mcca294a38c" x="358.379939" y="129.40127" style="fill: #daa520; stroke: #daa520"/>
     <use xlink:href="#mcca294a38c" x="97.242548" y="130.201588" style="fill: #daa520; stroke: #daa520"/>
     <use xlink:href="#mcca294a38c" x="338.696921" y="128.886552" style="fill: #daa520; stroke: #daa520"/>
     <use xlink:href="#mcca294a38c" x="326.160141" y="124.461734" style="fill: #daa520; stroke: #daa520"/>
    </g>
   </g>
   <g id="matplotlib.axis_3"/>
   <g id="matplotlib.axis_4">
    <g id="ytick_1">
     <g id="line2d_3">
      <defs>
       <path id="mcd16abea28" d="M 0 0 
L -3.5 0 
" style="stroke: #696969; stroke-width: 0.8"/>
      </defs>
      <g>
       <use xlink:href="#mcd16abea28" x="37.7875" y="158.156902" style="fill: #696969; stroke: #696969; stroke-width: 0.8"/>
      </g>
     </g>
     <g id="text_1">
      <!-- −5 -->
      <g style="fill: #696969" transform="translate(7.2 164.235652) scale(0.16 -0.16)">
       <defs>
        <path id="DejaVuSans-2212" d="M 678 2272 
L 4684 2272 
L 4684 1741 
L 678 1741 
L 678 2272 
z
" transform="scale(0.015625)"/>
        <path id="DejaVuSans-35" d="M 691 4666 
L 3169 4666 
L 3169 4134 
L 1269 4134 
L 1269 2991 
Q 1406 3038 1543 3061 
Q 1681 3084 1819 3084 
Q 2600 3084 3056 2656 
Q 3513 2228 3513 1497 
Q 3513 744 3044 326 
Q 2575 -91 1722 -91 
Q 1428 -91 1123 -41 
Q 819 9 494 109 
L 494 744 
Q 775 591 1075 516 
Q 1375 441 1709 441 
Q 2250 441 2565 725 
Q 2881 1009 2881 1497 
Q 2881 1984 2565 2268 
Q 2250 2553 1709 2553 
Q 1456 2553 1204 2497 
Q 953 2441 691 2322 
L 691 4666 
z
" transform="scale(0.015625)"/>
       </defs>
       <use xlink:href="#DejaVuSans-2212"/>
       <use xlink:href="#DejaVuSans-35" x="83.789062"/>
      </g>
     </g>
    </g>
    <g id="ytick_2">
     <g id="line2d_4">
      <g>
       <use xlink:href="#mcd16abea28" x="37.7875" y="119.153711" style="fill: #696969; stroke: #696969; stroke-width: 0.8"/>
      </g>
     </g>
     <g id="text_2">
      <!-- 0 -->
      <g style="fill: #696969" transform="translate(20.6075 125.232461) scale(0.16 -0.16)">
       <defs>
        <path id="DejaVuSans-30" d="M 2034 4250 
Q 1547 4250 1301 3770 
Q 1056 3291 1056 2328 
Q 1056 1369 1301 889 
Q 1547 409 2034 409 
Q 2525 409 2770 889 
Q 3016 1369 3016 2328 
Q 3016 3291 2770 3770 
Q 2525 4250 2034 4250 
z
M 2034 4750 
Q 2819 4750 3233 4129 
Q 3647 3509 3647 2328 
Q 3647 1150 3233 529 
Q 2819 -91 2034 -91 
Q 1250 -91 836 529 
Q 422 1150 422 2328 
Q 422 3509 836 4129 
Q 1250 4750 2034 4750 
z
" transform="scale(0.015625)"/>
       </defs>
       <use xlink:href="#DejaVuSans-30"/>
      </g>
     </g>
    </g>
    <g id="ytick_3">
     <g id="line2d_5">
      <g>
       <use xlink:href="#mcd16abea28" x="37.7875" y="80.150521" style="fill: #696969; stroke: #696969; stroke-width: 0.8"/>
      </g>
     </g>
     <g id="text_3">
      <!-- 5 -->
      <g style="fill: #696969" transform="translate(20.6075 86.229271) scale(0.16 -0.16)">
       <use xlink:href="#DejaVuSans-35"/>
      </g>
     </g>
    </g>
   </g>
   <g id="line2d_6">
    <path d="M 55.888409 123.399911 
L 63.128773 122.688711 
L 70.369136 122.311888 
L 77.6095 122.458253 
L 84.849864 123.145216 
L 92.090227 124.199494 
L 99.330591 125.318142 
L 106.570955 126.179193 
L 113.811318 126.542288 
L 121.051682 126.289493 
L 128.292045 125.398044 
L 135.532409 123.879661 
L 142.772773 121.735794 
L 150.013136 118.959608 
L 157.2535 115.582485 
L 164.493864 111.738167 
L 171.734227 107.709156 
L 178.974591 103.924116 
L 186.214955 100.888836 
L 193.455318 99.059582 
L 200.695682 98.701022 
L 207.936045 99.791298 
L 215.176409 102.022744 
L 222.416773 104.89913 
L 229.657136 107.879604 
L 236.8975 110.50288 
L 244.137864 112.452798 
L 251.378227 113.572733 
L 258.618591 113.861628 
L 265.858955 113.471566 
L 273.099318 112.694763 
L 280.339682 111.913407 
L 287.580045 111.506396 
L 294.820409 111.745427 
L 302.060773 112.731336 
L 309.301136 114.400723 
L 316.5415 116.588173 
L 323.781864 119.098038 
L 331.022227 121.74564 
L 338.262591 124.361071 
L 345.502955 126.778344 
L 352.743318 128.835398 
L 359.983682 130.390684 
L 367.224045 131.342258 
L 374.464409 131.634464 
L 381.704773 131.252631 
L 388.945136 130.219819 
L 396.1855 128.606389 
L 403.425864 126.545532 
L 410.666227 124.2333 
L 417.906591 121.896563 
" clip-path="url(#pe2e3a6ff86)" style="fill: none; stroke: #000000; stroke-width: 2; stroke-linecap: square"/>
   </g>
   <g id="line2d_7">
    <path d="M 55.888409 105.589788 
L 63.128773 114.260194 
L 70.369136 120.21514 
L 77.6095 123.988363 
L 84.849864 126.036532 
L 92.090227 126.747568 
L 99.330591 126.448351 
L 106.570955 125.411842 
L 113.811318 123.86365 
L 121.051682 121.988045 
L 128.292045 119.933462 
L 135.532409 117.817514 
L 142.772773 115.731516 
L 150.013136 113.744578 
L 157.2535 111.907252 
L 164.493864 110.254792 
L 171.734227 108.810011 
L 178.974591 107.585798 
L 186.214955 106.58728 
L 193.455318 105.813681 
L 200.695682 105.259879 
L 207.936045 104.9177 
L 215.176409 104.776961 
L 222.416773 104.826285 
L 229.657136 105.05372 
L 236.8975 105.44717 
L 244.137864 105.994677 
L 251.378227 106.684557 
L 258.618591 107.505434 
L 265.858955 108.446176 
L 273.099318 109.495769 
L 280.339682 110.64314 
L 287.580045 111.876962 
L 294.820409 113.185457 
L 302.060773 114.556225 
L 309.301136 115.976107 
L 316.5415 117.43113 
L 323.781864 118.906531 
L 331.022227 120.3869 
L 338.262591 121.85645 
L 345.502955 123.299455 
L 352.743318 124.700862 
L 359.983682 126.0471 
L 367.224045 127.327128 
L 374.464409 128.533716 
L 381.704773 129.665005 
L 388.945136 130.726358 
L 396.1855 131.732521 
L 403.425864 132.71013 
L 410.666227 133.700569 
L 417.906591 134.763218 
" clip-path="url(#pe2e3a6ff86)" style="fill: none; stroke-dasharray: 7.4,3.2; stroke-dashoffset: 0; stroke: #34b6c6; stroke-width: 2"/>
   </g>
   <g id="line2d_8">
    <path d="M 55.888409 111.829382 
L 63.128773 115.555836 
L 70.369136 118.46463 
L 77.6095 120.699604 
L 84.849864 122.381236 
L 92.090227 123.608297 
L 99.330591 124.458783 
L 106.570955 124.989763 
L 113.811318 125.235424 
L 121.051682 125.201844 
L 128.292045 124.855252 
L 135.532409 124.097057 
L 142.772773 122.715737 
L 150.013136 120.332997 
L 157.2535 116.540288 
L 164.493864 111.580794 
L 171.734227 106.667691 
L 178.974591 102.860063 
L 186.214955 100.432415 
L 193.455318 99.131863 
L 200.695682 98.639818 
L 207.936045 98.8284 
L 215.176409 99.804873 
L 222.416773 101.810885 
L 229.657136 104.60936 
L 236.8975 107.103476 
L 244.137864 108.711039 
L 251.378227 109.664413 
L 258.618591 110.257037 
L 265.858955 110.655327 
L 273.099318 110.949491 
L 280.339682 111.19686 
L 287.580045 111.444433 
L 294.820409 111.744711 
L 302.060773 112.176559 
L 309.301136 112.884796 
L 316.5415 114.147768 
L 323.781864 116.406013 
L 331.022227 119.932166 
L 338.262591 123.99843 
L 345.502955 127.156756 
L 352.743318 128.913372 
L 359.983682 129.702871 
L 367.224045 129.988457 
L 374.464409 130.033932 
L 381.704773 129.989916 
L 388.945136 129.975482 
L 396.1855 130.116391 
L 403.425864 130.555654 
L 410.666227 131.450094 
L 417.906591 132.962896 
" clip-path="url(#pe2e3a6ff86)" style="fill: none; stroke-dasharray: 7.4,3.2; stroke-dashoffset: 0; stroke: #9370db; stroke-width: 2"/>
   </g>
   <g id="line2d_9">
    <path d="M 55.888409 125.962886 
L 63.128773 126.089591 
L 70.369136 126.208607 
L 77.6095 126.316632 
L 84.849864 126.40877 
L 92.090227 126.477664 
L 99.330591 126.512107 
L 106.570955 126.494745 
L 113.811318 126.398169 
L 121.051682 126.177857 
L 128.292045 125.75873 
L 135.532409 125.008493 
L 142.772773 123.687771 
L 150.013136 121.394586 
L 157.2535 117.701234 
L 164.493864 112.842125 
L 171.734227 108.034435 
L 178.974591 104.342252 
L 186.214955 102.039291 
L 193.455318 100.868174 
L 200.695682 100.506289 
L 207.936045 100.824424 
L 215.176409 101.931401 
L 222.416773 104.072122 
L 229.657136 107.008248 
L 236.8975 109.633296 
L 244.137864 111.360523 
L 251.378227 112.425753 
L 258.618591 113.126385 
L 265.858955 113.631385 
L 273.099318 114.032531 
L 280.339682 114.388098 
L 287.580045 114.745518 
L 294.820409 115.157226 
L 302.060773 115.701542 
L 309.301136 116.52242 
L 316.5415 117.89738 
L 323.781864 120.266091 
L 331.022227 123.89656 
L 338.262591 128.043831 
L 345.502955 131.232296 
L 352.743318 132.946045 
L 359.983682 133.601834 
L 367.224045 133.639458 
L 374.464409 133.290358 
L 381.704773 132.663442 
L 388.945136 131.82612 
L 396.1855 130.841339 
L 403.425864 129.776525 
L 410.666227 128.698184 
L 417.906591 127.66228 
" clip-path="url(#pe2e3a6ff86)" style="fill: none; stroke-dasharray: 12.8,3.2,2,3.2; stroke-dashoffset: 0; stroke: #ff0000; stroke-width: 2"/>
   </g>
   <g id="patch_4">
    <path d="M 37.7875 165.076493 
L 37.7875 72.53052 
" style="fill: none; stroke: #000000; stroke-width: 0.8; stroke-linejoin: miter; stroke-linecap: square"/>
   </g>
   <g id="patch_5">
    <path d="M 436.0075 165.076493 
L 436.0075 72.53052 
" style="fill: none; stroke: #000000; stroke-width: 0.8; stroke-linejoin: miter; stroke-linecap: square"/>
   </g>
   <g id="patch_6">
    <path d="M 37.7875 165.076493 
L 436.0075 165.076493 
" style="fill: none; stroke: #000000; stroke-width: 0.8; stroke-linejoin: miter; stroke-linecap: square"/>
   </g>
   <g id="patch_7">
    <path d="M 37.7875 72.53052 
L 436.0075 72.53052 
" style="fill: none; stroke: #000000; stroke-width: 0.8; stroke-linejoin: miter; stroke-linecap: square"/>
   </g>
  </g>
  <g id="axes_3">
   <g id="patch_8">
    <path d="M 37.7875 276.68 
L 436.0075 276.68 
L 436.0075 184.134026 
L 37.7875 184.134026 
z
" style="fill: #ffffff"/>
   </g>
   <g id="PathCollection_2">
    <g clip-path="url(#pbd85ea3c7a)">
     <use xlink:href="#mcca294a38c" x="139.017986" y="214.622455" style="fill: #daa520; stroke: #daa520"/>
     <use xlink:href="#mcca294a38c" x="386.723528" y="188.856152" style="fill: #daa520; stroke: #daa520"/>
     <use xlink:href="#mcca294a38c" x="108.573596" y="219.889615" style="fill: #daa520; stroke: #daa520"/>
     <use xlink:href="#mcca294a38c" x="358.732337" y="257.344151" style="fill: #daa520; stroke: #daa520"/>
     <use xlink:href="#mcca294a38c" x="397.113688" y="200.4168" style="fill: #daa520; stroke: #daa520"/>
     <use xlink:href="#mcca294a38c" x="371.776659" y="222.458953" style="fill: #daa520; stroke: #daa520"/>
     <use xlink:href="#mcca294a38c" x="342.999539" y="200.175434" style="fill: #daa520; stroke: #daa520"/>
     <use xlink:href="#mcca294a38c" x="106.70393" y="219.491173" style="fill: #daa520; stroke: #daa520"/>
     <use xlink:href="#mcca294a38c" x="208.975733" y="223.407252" style="fill: #daa520; stroke: #daa520"/>
     <use xlink:href="#mcca294a38c" x="201.796548" y="201.087367" style="fill: #daa520; stroke: #daa520"/>
     <use xlink:href="#mcca294a38c" x="109.960436" y="224.649341" style="fill: #daa520; stroke: #daa520"/>
     <use xlink:href="#mcca294a38c" x="339.95589" y="210.393143" style="fill: #daa520; stroke: #daa520"/>
     <use xlink:href="#mcca294a38c" x="55.937597" y="263.08889" style="fill: #daa520; stroke: #daa520"/>
     <use xlink:href="#mcca294a38c" x="212.522889" y="223.454772" style="fill: #daa520; stroke: #daa520"/>
     <use xlink:href="#mcca294a38c" x="403.223662" y="192.586178" style="fill: #daa520; stroke: #daa520"/>
     <use xlink:href="#mcca294a38c" x="164.119326" y="241.128456" style="fill: #daa520; stroke: #daa520"/>
     <use xlink:href="#mcca294a38c" x="279.101613" y="227.000617" style="fill: #daa520; stroke: #daa520"/>
     <use xlink:href="#mcca294a38c" x="111.239782" y="217.979928" style="fill: #daa520; stroke: #daa520"/>
     <use xlink:href="#mcca294a38c" x="181.558558" y="218.01225" style="fill: #daa520; stroke: #daa520"/>
     <use xlink:href="#mcca294a38c" x="309.801396" y="224.52505" style="fill: #daa520; stroke: #daa520"/>
     <use xlink:href="#mcca294a38c" x="293.292912" y="223.090914" style="fill: #daa520; stroke: #daa520"/>
     <use xlink:href="#mcca294a38c" x="303.938084" y="233.844169" style="fill: #daa520; stroke: #daa520"/>
     <use xlink:href="#mcca294a38c" x="274.363968" y="234.547096" style="fill: #daa520; stroke: #daa520"/>
     <use xlink:href="#mcca294a38c" x="76.575444" y="219.432759" style="fill: #daa520; stroke: #daa520"/>
     <use xlink:href="#mcca294a38c" x="85.842151" y="257.901779" style="fill: #daa520; stroke: #daa520"/>
     <use xlink:href="#mcca294a38c" x="353.208543" y="270.147686" style="fill: #daa520; stroke: #daa520"/>
     <use xlink:href="#mcca294a38c" x="226.817381" y="202.50611" style="fill: #daa520; stroke: #daa520"/>
     <use xlink:href="#mcca294a38c" x="63.279358" y="219.732137" style="fill: #daa520; stroke: #daa520"/>
     <use xlink:href="#mcca294a38c" x="242.425311" y="229.347608" style="fill: #daa520; stroke: #daa520"/>
     <use xlink:href="#mcca294a38c" x="58.509783" y="269.003037" style="fill: #daa520; stroke: #daa520"/>
     <use xlink:href="#mcca294a38c" x="327.119468" y="228.70187" style="fill: #daa520; stroke: #daa520"/>
     <use xlink:href="#mcca294a38c" x="79.892934" y="203.787004" style="fill: #daa520; stroke: #daa520"/>
     <use xlink:href="#mcca294a38c" x="156.663018" y="221.931499" style="fill: #daa520; stroke: #daa520"/>
     <use xlink:href="#mcca294a38c" x="62.181996" y="225.421503" style="fill: #daa520; stroke: #daa520"/>
     <use xlink:href="#mcca294a38c" x="162.503043" y="211.423817" style="fill: #daa520; stroke: #daa520"/>
     <use xlink:href="#mcca294a38c" x="367.304712" y="268.597838" style="fill: #daa520; stroke: #daa520"/>
     <use xlink:href="#mcca294a38c" x="176.873811" y="236.289918" style="fill: #daa520; stroke: #daa520"/>
     <use xlink:href="#mcca294a38c" x="258.892315" y="211.517982" style="fill: #daa520; stroke: #daa520"/>
     <use xlink:href="#mcca294a38c" x="314.400122" y="214.955008" style="fill: #daa520; stroke: #daa520"/>
     <use xlink:href="#mcca294a38c" x="266.063497" y="206.234743" style="fill: #daa520; stroke: #daa520"/>
     <use xlink:href="#mcca294a38c" x="298.70284" y="222.105002" style="fill: #daa520; stroke: #daa520"/>
     <use xlink:href="#mcca294a38c" x="58.967747" y="218.784074" style="fill: #daa520; stroke: #daa520"/>
     <use xlink:href="#mcca294a38c" x="290.717507" y="240.077417" style="fill: #daa520; stroke: #daa520"/>
     <use xlink:href="#mcca294a38c" x="384.750299" y="272.473365" style="fill: #daa520; stroke: #daa520"/>
     <use xlink:href="#mcca294a38c" x="320.165816" y="203.717824" style="fill: #daa520; stroke: #daa520"/>
     <use xlink:href="#mcca294a38c" x="315.533045" y="212.099419" style="fill: #daa520; stroke: #daa520"/>
     <use xlink:href="#mcca294a38c" x="137.404303" y="214.257841" style="fill: #daa520; stroke: #daa520"/>
     <use xlink:href="#mcca294a38c" x="406.196026" y="249.675332" style="fill: #daa520; stroke: #daa520"/>
     <use xlink:href="#mcca294a38c" x="264.90514" y="216.078099" style="fill: #daa520; stroke: #daa520"/>
     <use xlink:href="#mcca294a38c" x="62.842642" y="197.641533" style="fill: #daa520; stroke: #daa520"/>
     <use xlink:href="#mcca294a38c" x="222.434273" y="238.312823" style="fill: #daa520; stroke: #daa520"/>
     <use xlink:href="#mcca294a38c" x="232.481184" y="208.641612" style="fill: #daa520; stroke: #daa520"/>
     <use xlink:href="#mcca294a38c" x="407.370292" y="195.536572" style="fill: #daa520; stroke: #daa520"/>
     <use xlink:href="#mcca294a38c" x="368.400875" y="188.375941" style="fill: #daa520; stroke: #daa520"/>
     <use xlink:href="#mcca294a38c" x="157.924188" y="244.531304" style="fill: #daa520; stroke: #daa520"/>
     <use xlink:href="#mcca294a38c" x="183.985473" y="217.195285" style="fill: #daa520; stroke: #daa520"/>
     <use xlink:href="#mcca294a38c" x="169.128239" y="218.894404" style="fill: #daa520; stroke: #daa520"/>
     <use xlink:href="#mcca294a38c" x="71.147477" y="219.212193" style="fill: #daa520; stroke: #daa520"/>
     <use xlink:href="#mcca294a38c" x="163.568245" y="212.309759" style="fill: #daa520; stroke: #daa520"/>
     <use xlink:href="#mcca294a38c" x="279.285542" y="229.935679" style="fill: #daa520; stroke: #daa520"/>
     <use xlink:href="#mcca294a38c" x="326.297097" y="218.418824" style="fill: #daa520; stroke: #daa520"/>
     <use xlink:href="#mcca294a38c" x="236.01605" y="205.668767" style="fill: #daa520; stroke: #daa520"/>
     <use xlink:href="#mcca294a38c" x="90.87391" y="221.392313" style="fill: #daa520; stroke: #daa520"/>
     <use xlink:href="#mcca294a38c" x="251.650147" y="225.848707" style="fill: #daa520; stroke: #daa520"/>
     <use xlink:href="#mcca294a38c" x="131.941353" y="222.947115" style="fill: #daa520; stroke: #daa520"/>
     <use xlink:href="#mcca294a38c" x="66.308561" y="215.984277" style="fill: #daa520; stroke: #daa520"/>
     <use xlink:href="#mcca294a38c" x="184.705178" y="231.187238" style="fill: #daa520; stroke: #daa520"/>
     <use xlink:href="#mcca294a38c" x="308.462521" y="231.429741" style="fill: #daa520; stroke: #daa520"/>
     <use xlink:href="#mcca294a38c" x="261.992238" y="218.205632" style="fill: #daa520; stroke: #daa520"/>
     <use xlink:href="#mcca294a38c" x="354.715847" y="205.903858" style="fill: #daa520; stroke: #daa520"/>
     <use xlink:href="#mcca294a38c" x="256.917932" y="219.550139" style="fill: #daa520; stroke: #daa520"/>
     <use xlink:href="#mcca294a38c" x="107.353691" y="204.627644" style="fill: #daa520; stroke: #daa520"/>
     <use xlink:href="#mcca294a38c" x="69.298023" y="208.79448" style="fill: #daa520; stroke: #daa520"/>
     <use xlink:href="#mcca294a38c" x="290.003727" y="227.429921" style="fill: #daa520; stroke: #daa520"/>
     <use xlink:href="#mcca294a38c" x="160.955447" y="216.838911" style="fill: #daa520; stroke: #daa520"/>
     <use xlink:href="#mcca294a38c" x="272.114435" y="221.102863" style="fill: #daa520; stroke: #daa520"/>
     <use xlink:href="#mcca294a38c" x="363.703094" y="197.352261" style="fill: #daa520; stroke: #daa520"/>
     <use xlink:href="#mcca294a38c" x="308.026008" y="219.010486" style="fill: #daa520; stroke: #daa520"/>
     <use xlink:href="#mcca294a38c" x="178.154848" y="219.185734" style="fill: #daa520; stroke: #daa520"/>
     <use xlink:href="#mcca294a38c" x="365.637983" y="225.91842" style="fill: #daa520; stroke: #daa520"/>
     <use xlink:href="#mcca294a38c" x="310.902053" y="204.654994" style="fill: #daa520; stroke: #daa520"/>
     <use xlink:href="#mcca294a38c" x="279.667016" y="203.541734" style="fill: #daa520; stroke: #daa520"/>
     <use xlink:href="#mcca294a38c" x="303.320455" y="213.903011" style="fill: #daa520; stroke: #daa520"/>
     <use xlink:href="#mcca294a38c" x="82.844778" y="217.483323" style="fill: #daa520; stroke: #daa520"/>
     <use xlink:href="#mcca294a38c" x="250.235058" y="204.395524" style="fill: #daa520; stroke: #daa520"/>
     <use xlink:href="#mcca294a38c" x="379.322392" y="217.350393" style="fill: #daa520; stroke: #daa520"/>
     <use xlink:href="#mcca294a38c" x="263.627253" y="214.728847" style="fill: #daa520; stroke: #daa520"/>
     <use xlink:href="#mcca294a38c" x="78.344144" y="220.011493" style="fill: #daa520; stroke: #daa520"/>
     <use xlink:href="#mcca294a38c" x="392.87077" y="222.902817" style="fill: #daa520; stroke: #daa520"/>
     <use xlink:href="#mcca294a38c" x="192.153719" y="229.113169" style="fill: #daa520; stroke: #daa520"/>
     <use xlink:href="#mcca294a38c" x="150.801383" y="216.09765" style="fill: #daa520; stroke: #daa520"/>
     <use xlink:href="#mcca294a38c" x="96.984342" y="218.967506" style="fill: #daa520; stroke: #daa520"/>
     <use xlink:href="#mcca294a38c" x="109.289659" y="211.452837" style="fill: #daa520; stroke: #daa520"/>
     <use xlink:href="#mcca294a38c" x="220.091696" y="212.71598" style="fill: #daa520; stroke: #daa520"/>
     <use xlink:href="#mcca294a38c" x="257.283016" y="220.551891" style="fill: #daa520; stroke: #daa520"/>
     <use xlink:href="#mcca294a38c" x="73.621981" y="266.944173" style="fill: #daa520; stroke: #daa520"/>
     <use xlink:href="#mcca294a38c" x="330.729494" y="212.805326" style="fill: #daa520; stroke: #daa520"/>
     <use xlink:href="#mcca294a38c" x="131.525792" y="210.765845" style="fill: #daa520; stroke: #daa520"/>
     <use xlink:href="#mcca294a38c" x="374.938086" y="188.340661" style="fill: #daa520; stroke: #daa520"/>
     <use xlink:href="#mcca294a38c" x="133.673611" y="213.393016" style="fill: #daa520; stroke: #daa520"/>
     <use xlink:href="#mcca294a38c" x="404.508234" y="224.061924" style="fill: #daa520; stroke: #daa520"/>
     <use xlink:href="#mcca294a38c" x="352.72149" y="240.007545" style="fill: #daa520; stroke: #daa520"/>
     <use xlink:href="#mcca294a38c" x="83.115123" y="199.380418" style="fill: #daa520; stroke: #daa520"/>
     <use xlink:href="#mcca294a38c" x="315.481707" y="230.425805" style="fill: #daa520; stroke: #daa520"/>
     <use xlink:href="#mcca294a38c" x="74.31715" y="211.914839" style="fill: #daa520; stroke: #daa520"/>
     <use xlink:href="#mcca294a38c" x="358.379939" y="221.438316" style="fill: #daa520; stroke: #daa520"/>
     <use xlink:href="#mcca294a38c" x="97.242548" y="213.20512" style="fill: #daa520; stroke: #daa520"/>
     <use xlink:href="#mcca294a38c" x="338.696921" y="216.452764" style="fill: #daa520; stroke: #daa520"/>
     <use xlink:href="#mcca294a38c" x="326.160141" y="213.795824" style="fill: #daa520; stroke: #daa520"/>
    </g>
   </g>
   <g id="matplotlib.axis_5">
    <g id="xtick_1">
     <g id="line2d_10">
      <defs>
       <path id="mb25218cdb5" d="M 0 0 
L 0 3.5 
" style="stroke: #696969; stroke-width: 0.8"/>
      </defs>
      <g>
       <use xlink:href="#mb25218cdb5" x="55.888409" y="276.68" style="fill: #696969; stroke: #696969; stroke-width: 0.8"/>
      </g>
     </g>
     <g id="text_4">
      <!-- −1.0 -->
      <g style="fill: #696969" transform="translate(36.462159 295.8375) scale(0.16 -0.16)">
       <defs>
        <path id="DejaVuSans-31" d="M 794 531 
L 1825 531 
L 1825 4091 
L 703 3866 
L 703 4441 
L 1819 4666 
L 2450 4666 
L 2450 531 
L 3481 531 
L 3481 0 
L 794 0 
L 794 531 
z
" transform="scale(0.015625)"/>
        <path id="DejaVuSans-2e" d="M 684 794 
L 1344 794 
L 1344 0 
L 684 0 
L 684 794 
z
" transform="scale(0.015625)"/>
       </defs>
       <use xlink:href="#DejaVuSans-2212"/>
       <use xlink:href="#DejaVuSans-31" x="83.789062"/>
       <use xlink:href="#DejaVuSans-2e" x="147.412109"/>
       <use xlink:href="#DejaVuSans-30" x="179.199219"/>
      </g>
     </g>
    </g>
    <g id="xtick_2">
     <g id="line2d_11">
      <g>
       <use xlink:href="#mb25218cdb5" x="146.392955" y="276.68" style="fill: #696969; stroke: #696969; stroke-width: 0.8"/>
      </g>
     </g>
     <g id="text_5">
      <!-- −0.5 -->
      <g style="fill: #696969" transform="translate(126.966705 295.8375) scale(0.16 -0.16)">
       <use xlink:href="#DejaVuSans-2212"/>
       <use xlink:href="#DejaVuSans-30" x="83.789062"/>
       <use xlink:href="#DejaVuSans-2e" x="147.412109"/>
       <use xlink:href="#DejaVuSans-35" x="179.199219"/>
      </g>
     </g>
    </g>
    <g id="xtick_3">
     <g id="line2d_12">
      <g>
       <use xlink:href="#mb25218cdb5" x="236.8975" y="276.68" style="fill: #696969; stroke: #696969; stroke-width: 0.8"/>
      </g>
     </g>
     <g id="text_6">
      <!-- 0.0 -->
      <g style="fill: #696969" transform="translate(224.175 295.8375) scale(0.16 -0.16)">
       <use xlink:href="#DejaVuSans-30"/>
       <use xlink:href="#DejaVuSans-2e" x="63.623047"/>
       <use xlink:href="#DejaVuSans-30" x="95.410156"/>
      </g>
     </g>
    </g>
    <g id="xtick_4">
     <g id="line2d_13">
      <g>
       <use xlink:href="#mb25218cdb5" x="327.402045" y="276.68" style="fill: #696969; stroke: #696969; stroke-width: 0.8"/>
      </g>
     </g>
     <g id="text_7">
      <!-- 0.5 -->
      <g style="fill: #696969" transform="translate(314.679545 295.8375) scale(0.16 -0.16)">
       <use xlink:href="#DejaVuSans-30"/>
       <use xlink:href="#DejaVuSans-2e" x="63.623047"/>
       <use xlink:href="#DejaVuSans-35" x="95.410156"/>
      </g>
     </g>
    </g>
    <g id="xtick_5">
     <g id="line2d_14">
      <g>
       <use xlink:href="#mb25218cdb5" x="417.906591" y="276.68" style="fill: #696969; stroke: #696969; stroke-width: 0.8"/>
      </g>
     </g>
     <g id="text_8">
      <!-- 1.0 -->
      <g style="fill: #696969" transform="translate(405.184091 295.8375) scale(0.16 -0.16)">
       <use xlink:href="#DejaVuSans-31"/>
       <use xlink:href="#DejaVuSans-2e" x="63.623047"/>
       <use xlink:href="#DejaVuSans-30" x="95.410156"/>
      </g>
     </g>
    </g>
    <g id="text_9">
     <!-- $X$ -->
     <g transform="translate(231.3775 315.3225) scale(0.16 -0.16)">
      <defs>
       <path id="DejaVuSans-Oblique-58" d="M 878 4666 
L 1516 4666 
L 2316 2981 
L 3763 4666 
L 4500 4666 
L 2578 2438 
L 3738 0 
L 3103 0 
L 2163 1966 
L 459 0 
L -275 0 
L 1906 2509 
L 878 4666 
z
" transform="scale(0.015625)"/>
      </defs>
      <use xlink:href="#DejaVuSans-Oblique-58" transform="translate(0 0.09375)"/>
     </g>
    </g>
   </g>
   <g id="matplotlib.axis_6">
    <g id="ytick_4">
     <g id="line2d_15">
      <g>
       <use xlink:href="#mcd16abea28" x="37.7875" y="258.185112" style="fill: #696969; stroke: #696969; stroke-width: 0.8"/>
      </g>
     </g>
     <g id="text_10">
      <!-- −5 -->
      <g style="fill: #696969" transform="translate(7.2 264.263862) scale(0.16 -0.16)">
       <use xlink:href="#DejaVuSans-2212"/>
       <use xlink:href="#DejaVuSans-35" x="83.789062"/>
      </g>
     </g>
    </g>
    <g id="ytick_5">
     <g id="line2d_16">
      <g>
       <use xlink:href="#mcd16abea28" x="37.7875" y="217.097592" style="fill: #696969; stroke: #696969; stroke-width: 0.8"/>
      </g>
     </g>
     <g id="text_11">
      <!-- 0 -->
      <g style="fill: #696969" transform="translate(20.6075 223.176342) scale(0.16 -0.16)">
       <use xlink:href="#DejaVuSans-30"/>
      </g>
     </g>
    </g>
   </g>
   <g id="line2d_17">
    <path d="M 55.888409 219.797532 
L 63.128773 220.680216 
L 70.369136 221.202552 
L 77.6095 221.162163 
L 84.849864 220.53555 
L 92.090227 219.497508 
L 99.330591 218.355362 
L 106.570955 217.430007 
L 113.811318 216.945772 
L 121.051682 216.979989 
L 128.292045 217.477553 
L 135.532409 218.286749 
L 142.772773 219.153882 
L 150.013136 219.662696 
L 157.2535 219.329567 
L 164.493864 218.260546 
L 171.734227 217.440255 
L 178.974591 217.538073 
L 186.214955 218.309527 
L 193.455318 219.002836 
L 200.695682 218.999332 
L 207.936045 218.185929 
L 215.176409 217.001368 
L 222.416773 216.22639 
L 229.657136 216.179671 
L 236.8975 216.181537 
L 244.137864 215.946946 
L 251.378227 215.889318 
L 258.618591 216.323058 
L 265.858955 217.265952 
L 273.099318 218.50685 
L 280.339682 219.704531 
L 287.580045 220.509813 
L 294.820409 220.691717 
L 302.060773 220.226527 
L 309.301136 219.332673 
L 316.5415 218.476763 
L 323.781864 218.328066 
L 331.022227 219.363458 
L 338.262591 220.977158 
L 345.502955 221.789563 
L 352.743318 221.427912 
L 359.983682 220.480347 
L 367.224045 219.517554 
L 374.464409 218.841977 
L 381.704773 218.583797 
L 388.945136 218.789733 
L 396.1855 219.451978 
L 403.425864 220.50125 
L 410.666227 221.80108 
L 417.906591 223.171428 
" clip-path="url(#pbd85ea3c7a)" style="fill: none; stroke: #696969; stroke-width: 2; stroke-linecap: square"/>
   </g>
   <g id="line2d_18">
    <path d="M 55.888409 232.009626 
L 63.128773 228.212447 
L 70.369136 225.265785 
L 77.6095 223.015324 
L 84.849864 221.329609 
L 92.090227 220.097407 
L 99.330591 219.225282 
L 106.570955 218.635373 
L 113.811318 218.263372 
L 121.051682 218.056688 
L 128.292045 217.972782 
L 135.532409 217.97768 
L 142.772773 218.044638 
L 150.013136 218.152956 
L 157.2535 218.286942 
L 164.493864 218.434989 
L 171.734227 218.588791 
L 178.974591 218.742664 
L 186.214955 218.892967 
L 193.455318 219.037619 
L 200.695682 219.175704 
L 207.936045 219.307147 
L 215.176409 219.432456 
L 222.416773 219.552517 
L 229.657136 219.668448 
L 236.8975 219.781475 
L 244.137864 219.892847 
L 251.378227 220.003766 
L 258.618591 220.11533 
L 265.858955 220.228471 
L 273.099318 220.343888 
L 280.339682 220.461964 
L 287.580045 220.58265 
L 294.820409 220.705313 
L 302.060773 220.828545 
L 309.301136 220.949907 
L 316.5415 221.065614 
L 323.781864 221.170145 
L 331.022227 221.255768 
L 338.262591 221.311974 
L 345.502955 221.32481 
L 352.743318 221.276096 
L 359.983682 221.142528 
L 367.224045 220.894646 
L 374.464409 220.495662 
L 381.704773 219.900147 
L 388.945136 219.052552 
L 396.1855 217.885565 
L 403.425864 216.318289 
L 410.666227 214.254243 
L 417.906591 211.579155 
" clip-path="url(#pbd85ea3c7a)" style="fill: none; stroke-dasharray: 7.4,3.2; stroke-dashoffset: 0; stroke: #79ad41; stroke-width: 2"/>
   </g>
   <g id="patch_9">
    <path d="M 37.7875 276.68 
L 37.7875 184.134026 
" style="fill: none; stroke: #000000; stroke-width: 0.8; stroke-linejoin: miter; stroke-linecap: square"/>
   </g>
   <g id="patch_10">
    <path d="M 436.0075 276.68 
L 436.0075 184.134026 
" style="fill: none; stroke: #000000; stroke-width: 0.8; stroke-linejoin: miter; stroke-linecap: square"/>
   </g>
   <g id="patch_11">
    <path d="M 37.7875 276.68 
L 436.0075 276.68 
" style="fill: none; stroke: #000000; stroke-width: 0.8; stroke-linejoin: miter; stroke-linecap: square"/>
   </g>
   <g id="patch_12">
    <path d="M 37.7875 184.134026 
L 436.0075 184.134026 
" style="fill: none; stroke: #000000; stroke-width: 0.8; stroke-linejoin: miter; stroke-linecap: square"/>
   </g>
  </g>
 </g>
 <defs>
  <clipPath id="p1f00e151bb">
   <rect x="37.7875" y="7.2" width="398.22" height="46.272987"/>
  </clipPath>
  <clipPath id="pe2e3a6ff86">
   <rect x="37.7875" y="72.53052" width="398.22" height="92.545974"/>
  </clipPath>
  <clipPath id="pbd85ea3c7a">
   <rect x="37.7875" y="184.134026" width="398.22" height="92.545974"/>
  </clipPath>
 </defs>
</svg>
