<?xml version="1.0" encoding="utf-8" standalone="no"?>
<!DOCTYPE svg PUBLIC "-//W3C//DTD SVG 1.1//EN"
  "http://www.w3.org/Graphics/SVG/1.1/DTD/svg11.dtd">
<svg xmlns:xlink="http://www.w3.org/1999/xlink" width="443.2075pt" height="325.85pt" viewBox="0 0 443.2075 325.85" xmlns="http://www.w3.org/2000/svg" version="1.1">
 <metadata>
  <rdf:RDF xmlns:dc="http://purl.org/dc/elements/1.1/" xmlns:cc="http://creativecommons.org/ns#" xmlns:rdf="http://www.w3.org/1999/02/22-rdf-syntax-ns#">
   <cc:Work>
    <dc:type rdf:resource="http://purl.org/dc/dcmitype/StillImage"/>
    <dc:date>2024-01-28T20:54:41.754660</dc:date>
    <dc:format>image/svg+xml</dc:format>
    <dc:creator>
     <cc:Agent>
      <dc:title>Matplotlib v3.7.2, https://matplotlib.org/</dc:title>
     </cc:Agent>
    </dc:creator>
   </cc:Work>
  </rdf:RDF>
 </metadata>
 <defs>
  <style type="text/css">*{stroke-linejoin: round; stroke-linecap: butt}</style>
 </defs>
 <g id="figure_1">
  <g id="patch_1">
   <path d="M 0 325.85 
L 443.2075 325.85 
L 443.2075 0 
L 0 0 
z
" style="fill: #ffffff"/>
  </g>
  <g id="axes_1">
   <g id="patch_2">
    <path d="M 37.7875 54.696 
L 436.0075 54.696 
L 436.0075 7.2 
L 37.7875 7.2 
z
" style="fill: #ffffff"/>
   </g>
   <g id="PolyCollection_1">
    <defs>
     <path id="mda6d9ac9ce" d="M 55.888409 -273.312909 
L 55.888409 -284.517063 
L 63.128773 -284.559045 
L 70.369136 -284.590238 
L 77.6095 -284.610046 
L 84.849864 -284.618165 
L 92.090227 -284.61465 
L 99.330591 -284.599972 
L 106.570955 -284.575063 
L 113.811318 -284.541329 
L 121.051682 -284.500687 
L 128.292045 -284.455548 
L 135.532409 -284.408823 
L 142.772773 -284.363893 
L 150.013136 -284.324593 
L 157.2535 -284.295152 
L 164.493864 -284.280202 
L 171.734227 -284.284718 
L 178.974591 -284.314024 
L 186.214955 -284.37378 
L 193.455318 -284.469992 
L 200.695682 -284.609042 
L 207.936045 -284.79771 
L 215.176409 -285.043226 
L 222.416773 -285.353297 
L 229.657136 -285.736116 
L 236.8975 -286.20035 
L 244.137864 -286.755054 
L 251.378227 -287.409478 
L 258.618591 -288.172792 
L 265.858955 -289.053579 
L 273.099318 -290.059218 
L 280.339682 -291.19501 
L 287.580045 -292.46315 
L 294.820409 -293.861596 
L 302.060773 -295.382979 
L 309.301136 -297.013715 
L 316.5415 -298.733657 
L 323.781864 -300.516369 
L 331.022227 -302.330315 
L 338.262591 -304.140832 
L 345.502955 -305.912722 
L 352.743318 -307.61302 
L 359.983682 -309.213542 
L 367.224045 -310.69269 
L 374.464409 -312.036375 
L 381.704773 -313.237964 
L 388.945136 -314.297448 
L 396.1855 -315.220135 
L 403.425864 -316.015116 
L 410.666227 -316.491091 
L 417.906591 -316.491091 
L 417.906591 -273.312909 
L 417.906591 -273.312909 
L 410.666227 -273.312909 
L 403.425864 -273.312909 
L 396.1855 -273.312909 
L 388.945136 -273.312909 
L 381.704773 -273.312909 
L 374.464409 -273.312909 
L 367.224045 -273.312909 
L 359.983682 -273.312909 
L 352.743318 -273.312909 
L 345.502955 -273.312909 
L 338.262591 -273.312909 
L 331.022227 -273.312909 
L 323.781864 -273.312909 
L 316.5415 -273.312909 
L 309.301136 -273.312909 
L 302.060773 -273.312909 
L 294.820409 -273.312909 
L 287.580045 -273.312909 
L 280.339682 -273.312909 
L 273.099318 -273.312909 
L 265.858955 -273.312909 
L 258.618591 -273.312909 
L 251.378227 -273.312909 
L 244.137864 -273.312909 
L 236.8975 -273.312909 
L 229.657136 -273.312909 
L 222.416773 -273.312909 
L 215.176409 -273.312909 
L 207.936045 -273.312909 
L 200.695682 -273.312909 
L 193.455318 -273.312909 
L 186.214955 -273.312909 
L 178.974591 -273.312909 
L 171.734227 -273.312909 
L 164.493864 -273.312909 
L 157.2535 -273.312909 
L 150.013136 -273.312909 
L 142.772773 -273.312909 
L 135.532409 -273.312909 
L 128.292045 -273.312909 
L 121.051682 -273.312909 
L 113.811318 -273.312909 
L 106.570955 -273.312909 
L 99.330591 -273.312909 
L 92.090227 -273.312909 
L 84.849864 -273.312909 
L 77.6095 -273.312909 
L 70.369136 -273.312909 
L 63.128773 -273.312909 
L 55.888409 -273.312909 
z
" style="stroke: #dc143c; stroke-opacity: 0.2"/>
    </defs>
    <g clip-path="url(#p35ea8dd631)">
     <use xlink:href="#mda6d9ac9ce" x="0" y="325.85" style="fill: #dc143c; fill-opacity: 0.2; stroke: #dc143c; stroke-opacity: 0.2"/>
    </g>
   </g>
   <g id="PolyCollection_2">
    <defs>
     <path id="mb18a9bc828" d="M 55.888409 -273.312909 
L 55.888409 -310.084513 
L 63.128773 -310.042531 
L 70.369136 -310.011338 
L 77.6095 -309.991529 
L 84.849864 -309.983411 
L 92.090227 -309.986926 
L 99.330591 -310.001603 
L 106.570955 -310.026513 
L 113.811318 -310.060247 
L 121.051682 -310.100889 
L 128.292045 -310.146028 
L 135.532409 -310.192753 
L 142.772773 -310.237683 
L 150.013136 -310.276983 
L 157.2535 -310.306424 
L 164.493864 -310.321374 
L 171.734227 -310.316858 
L 178.974591 -310.287552 
L 186.214955 -310.227796 
L 193.455318 -310.131584 
L 200.695682 -309.992533 
L 207.936045 -309.803866 
L 215.176409 -309.558349 
L 222.416773 -309.248279 
L 229.657136 -308.86546 
L 236.8975 -308.401226 
L 244.137864 -307.846522 
L 251.378227 -307.192097 
L 258.618591 -306.428784 
L 265.858955 -305.547997 
L 273.099318 -304.542357 
L 280.339682 -303.406565 
L 287.580045 -302.138426 
L 294.820409 -300.73998 
L 302.060773 -299.218596 
L 309.301136 -297.587861 
L 316.5415 -295.867919 
L 323.781864 -294.085207 
L 331.022227 -292.271261 
L 338.262591 -290.460744 
L 345.502955 -288.688854 
L 352.743318 -286.988556 
L 359.983682 -285.388034 
L 367.224045 -283.908885 
L 374.464409 -282.5652 
L 381.704773 -281.363612 
L 388.945136 -280.304127 
L 396.1855 -279.381441 
L 403.425864 -278.58646 
L 410.666227 -278.110485 
L 417.906591 -278.110485 
L 417.906591 -273.312909 
L 417.906591 -273.312909 
L 410.666227 -273.312909 
L 403.425864 -273.312909 
L 396.1855 -273.312909 
L 388.945136 -273.312909 
L 381.704773 -273.312909 
L 374.464409 -273.312909 
L 367.224045 -273.312909 
L 359.983682 -273.312909 
L 352.743318 -273.312909 
L 345.502955 -273.312909 
L 338.262591 -273.312909 
L 331.022227 -273.312909 
L 323.781864 -273.312909 
L 316.5415 -273.312909 
L 309.301136 -273.312909 
L 302.060773 -273.312909 
L 294.820409 -273.312909 
L 287.580045 -273.312909 
L 280.339682 -273.312909 
L 273.099318 -273.312909 
L 265.858955 -273.312909 
L 258.618591 -273.312909 
L 251.378227 -273.312909 
L 244.137864 -273.312909 
L 236.8975 -273.312909 
L 229.657136 -273.312909 
L 222.416773 -273.312909 
L 215.176409 -273.312909 
L 207.936045 -273.312909 
L 200.695682 -273.312909 
L 193.455318 -273.312909 
L 186.214955 -273.312909 
L 178.974591 -273.312909 
L 171.734227 -273.312909 
L 164.493864 -273.312909 
L 157.2535 -273.312909 
L 150.013136 -273.312909 
L 142.772773 -273.312909 
L 135.532409 -273.312909 
L 128.292045 -273.312909 
L 121.051682 -273.312909 
L 113.811318 -273.312909 
L 106.570955 -273.312909 
L 99.330591 -273.312909 
L 92.090227 -273.312909 
L 84.849864 -273.312909 
L 77.6095 -273.312909 
L 70.369136 -273.312909 
L 63.128773 -273.312909 
L 55.888409 -273.312909 
z
" style="stroke: #000080; stroke-opacity: 0.2"/>
    </defs>
    <g clip-path="url(#p35ea8dd631)">
     <use xlink:href="#mb18a9bc828" x="0" y="325.85" style="fill: #000080; fill-opacity: 0.2; stroke: #000080; stroke-opacity: 0.2"/>
    </g>
   </g>
   <g id="matplotlib.axis_1"/>
   <g id="matplotlib.axis_2"/>
   <g id="line2d_1">
    <path d="M 55.888409 41.332937 
L 63.128773 41.290955 
L 70.369136 41.259762 
L 77.6095 41.239954 
L 84.849864 41.231835 
L 92.090227 41.23535 
L 99.330591 41.250028 
L 106.570955 41.274937 
L 113.811318 41.308671 
L 121.051682 41.349313 
L 128.292045 41.394452 
L 135.532409 41.441177 
L 142.772773 41.486107 
L 150.013136 41.525407 
L 157.2535 41.554848 
L 164.493864 41.569798 
L 171.734227 41.565282 
L 178.974591 41.535976 
L 186.214955 41.47622 
L 193.455318 41.380008 
L 200.695682 41.240958 
L 207.936045 41.05229 
L 215.176409 40.806774 
L 222.416773 40.496703 
L 229.657136 40.113884 
L 236.8975 39.64965 
L 244.137864 39.094946 
L 251.378227 38.440522 
L 258.618591 37.677208 
L 265.858955 36.796421 
L 273.099318 35.790782 
L 280.339682 34.65499 
L 287.580045 33.38685 
L 294.820409 31.988404 
L 302.060773 30.467021 
L 309.301136 28.836285 
L 316.5415 27.116343 
L 323.781864 25.333631 
L 331.022227 23.519685 
L 338.262591 21.709168 
L 345.502955 19.937278 
L 352.743318 18.23698 
L 359.983682 16.636458 
L 367.224045 15.15731 
L 374.464409 13.813625 
L 381.704773 12.612036 
L 388.945136 11.552552 
L 396.1855 10.629865 
L 403.425864 9.834884 
L 410.666227 9.358909 
L 417.906591 9.358909 
" clip-path="url(#p35ea8dd631)" style="fill: none; stroke: #dc143c; stroke-width: 1.5; stroke-linecap: square"/>
   </g>
   <g id="line2d_2">
    <path d="M 55.888409 15.765487 
L 63.128773 15.807469 
L 70.369136 15.838662 
L 77.6095 15.858471 
L 84.849864 15.866589 
L 92.090227 15.863074 
L 99.330591 15.848397 
L 106.570955 15.823487 
L 113.811318 15.789753 
L 121.051682 15.749111 
L 128.292045 15.703972 
L 135.532409 15.657247 
L 142.772773 15.612317 
L 150.013136 15.573017 
L 157.2535 15.543576 
L 164.493864 15.528626 
L 171.734227 15.533142 
L 178.974591 15.562448 
L 186.214955 15.622204 
L 193.455318 15.718416 
L 200.695682 15.857467 
L 207.936045 16.046134 
L 215.176409 16.291651 
L 222.416773 16.601721 
L 229.657136 16.98454 
L 236.8975 17.448774 
L 244.137864 18.003478 
L 251.378227 18.657903 
L 258.618591 19.421216 
L 265.858955 20.302003 
L 273.099318 21.307643 
L 280.339682 22.443435 
L 287.580045 23.711574 
L 294.820409 25.11002 
L 302.060773 26.631404 
L 309.301136 28.262139 
L 316.5415 29.982081 
L 323.781864 31.764793 
L 331.022227 33.578739 
L 338.262591 35.389256 
L 345.502955 37.161146 
L 352.743318 38.861444 
L 359.983682 40.461966 
L 367.224045 41.941115 
L 374.464409 43.2848 
L 381.704773 44.486388 
L 388.945136 45.545873 
L 396.1855 46.468559 
L 403.425864 47.26354 
L 410.666227 47.739515 
L 417.906591 47.739515 
" clip-path="url(#p35ea8dd631)" style="fill: none; stroke: #000080; stroke-width: 1.5; stroke-linecap: square"/>
   </g>
  </g>
  <g id="axes_2">
   <g id="patch_3">
    <path d="M 37.7875 165.688 
L 436.0075 165.688 
L 436.0075 70.696 
L 37.7875 70.696 
z
" style="fill: #ffffff"/>
   </g>
   <g id="PathCollection_1">
    <defs>
     <path id="m8b65bb67ef" d="M 0 0.866025 
C 0.229673 0.866025 0.449969 0.774776 0.612372 0.612372 
C 0.774776 0.449969 0.866025 0.229673 0.866025 0 
C 0.866025 -0.229673 0.774776 -0.449969 0.612372 -0.612372 
C 0.449969 -0.774776 0.229673 -0.866025 0 -0.866025 
C -0.229673 -0.866025 -0.449969 -0.774776 -0.612372 -0.612372 
C -0.774776 -0.449969 -0.866025 -0.229673 -0.866025 0 
C -0.866025 0.229673 -0.774776 0.449969 -0.612372 0.612372 
C -0.449969 0.774776 -0.229673 0.866025 0 0.866025 
z
" style="stroke: #daa520"/>
    </defs>
    <g clip-path="url(#pf54694bb09)">
     <use xlink:href="#m8b65bb67ef" x="403.345765" y="160.840018" style="fill: #daa520; stroke: #daa520"/>
     <use xlink:href="#m8b65bb67ef" x="371.475428" y="146.242477" style="fill: #daa520; stroke: #daa520"/>
     <use xlink:href="#m8b65bb67ef" x="394.911251" y="149.313275" style="fill: #daa520; stroke: #daa520"/>
     <use xlink:href="#m8b65bb67ef" x="189.772049" y="100.39224" style="fill: #daa520; stroke: #daa520"/>
     <use xlink:href="#m8b65bb67ef" x="109.421877" y="99.893022" style="fill: #daa520; stroke: #daa520"/>
     <use xlink:href="#m8b65bb67ef" x="322.899053" y="136.283626" style="fill: #daa520; stroke: #daa520"/>
     <use xlink:href="#m8b65bb67ef" x="349.786416" y="137.544072" style="fill: #daa520; stroke: #daa520"/>
     <use xlink:href="#m8b65bb67ef" x="412.977593" y="153.416774" style="fill: #daa520; stroke: #daa520"/>
     <use xlink:href="#m8b65bb67ef" x="353.440135" y="136.785818" style="fill: #daa520; stroke: #daa520"/>
     <use xlink:href="#m8b65bb67ef" x="394.351093" y="154.061404" style="fill: #daa520; stroke: #daa520"/>
     <use xlink:href="#m8b65bb67ef" x="373.720209" y="137.252697" style="fill: #daa520; stroke: #daa520"/>
     <use xlink:href="#m8b65bb67ef" x="396.853166" y="151.421872" style="fill: #daa520; stroke: #daa520"/>
     <use xlink:href="#m8b65bb67ef" x="361.212481" y="156.740715" style="fill: #daa520; stroke: #daa520"/>
     <use xlink:href="#m8b65bb67ef" x="353.253518" y="141.491281" style="fill: #daa520; stroke: #daa520"/>
     <use xlink:href="#m8b65bb67ef" x="345.69729" y="140.482271" style="fill: #daa520; stroke: #daa520"/>
     <use xlink:href="#m8b65bb67ef" x="364.286321" y="155.391797" style="fill: #daa520; stroke: #daa520"/>
     <use xlink:href="#m8b65bb67ef" x="411.7912" y="145.898624" style="fill: #daa520; stroke: #daa520"/>
     <use xlink:href="#m8b65bb67ef" x="394.148421" y="150.794627" style="fill: #daa520; stroke: #daa520"/>
     <use xlink:href="#m8b65bb67ef" x="391.56526" y="141.366685" style="fill: #daa520; stroke: #daa520"/>
     <use xlink:href="#m8b65bb67ef" x="353.158835" y="150.991754" style="fill: #daa520; stroke: #daa520"/>
     <use xlink:href="#m8b65bb67ef" x="299.213224" y="131.069047" style="fill: #daa520; stroke: #daa520"/>
     <use xlink:href="#m8b65bb67ef" x="59.965264" y="87.410883" style="fill: #daa520; stroke: #daa520"/>
     <use xlink:href="#m8b65bb67ef" x="86.466411" y="86.663007" style="fill: #daa520; stroke: #daa520"/>
     <use xlink:href="#m8b65bb67ef" x="253.533331" y="124.096596" style="fill: #daa520; stroke: #daa520"/>
     <use xlink:href="#m8b65bb67ef" x="392.080741" y="151.967167" style="fill: #daa520; stroke: #daa520"/>
     <use xlink:href="#m8b65bb67ef" x="222.457283" y="103.132198" style="fill: #daa520; stroke: #daa520"/>
     <use xlink:href="#m8b65bb67ef" x="150.702342" y="100.343801" style="fill: #daa520; stroke: #daa520"/>
     <use xlink:href="#m8b65bb67ef" x="409.633792" y="155.865884" style="fill: #daa520; stroke: #daa520"/>
     <use xlink:href="#m8b65bb67ef" x="322.604501" y="139.005679" style="fill: #daa520; stroke: #daa520"/>
     <use xlink:href="#m8b65bb67ef" x="322.411874" y="136.963063" style="fill: #daa520; stroke: #daa520"/>
     <use xlink:href="#m8b65bb67ef" x="343.021269" y="140.191094" style="fill: #daa520; stroke: #daa520"/>
     <use xlink:href="#m8b65bb67ef" x="335.286874" y="130.752975" style="fill: #daa520; stroke: #daa520"/>
     <use xlink:href="#m8b65bb67ef" x="251.275525" y="112.602813" style="fill: #daa520; stroke: #daa520"/>
     <use xlink:href="#m8b65bb67ef" x="359.85005" y="155.32479" style="fill: #daa520; stroke: #daa520"/>
     <use xlink:href="#m8b65bb67ef" x="303.002815" y="134.226208" style="fill: #daa520; stroke: #daa520"/>
     <use xlink:href="#m8b65bb67ef" x="57.961451" y="75.013818" style="fill: #daa520; stroke: #daa520"/>
     <use xlink:href="#m8b65bb67ef" x="344.66659" y="152.139068" style="fill: #daa520; stroke: #daa520"/>
     <use xlink:href="#m8b65bb67ef" x="143.843847" y="93.345388" style="fill: #daa520; stroke: #daa520"/>
     <use xlink:href="#m8b65bb67ef" x="406.743129" y="161.370182" style="fill: #daa520; stroke: #daa520"/>
     <use xlink:href="#m8b65bb67ef" x="388.426731" y="160.850863" style="fill: #daa520; stroke: #daa520"/>
     <use xlink:href="#m8b65bb67ef" x="346.549396" y="141.589962" style="fill: #daa520; stroke: #daa520"/>
     <use xlink:href="#m8b65bb67ef" x="164.713134" y="103.312834" style="fill: #daa520; stroke: #daa520"/>
     <use xlink:href="#m8b65bb67ef" x="326.9784" y="137.249911" style="fill: #daa520; stroke: #daa520"/>
     <use xlink:href="#m8b65bb67ef" x="385.390021" y="147.762744" style="fill: #daa520; stroke: #daa520"/>
     <use xlink:href="#m8b65bb67ef" x="387.104686" y="142.194409" style="fill: #daa520; stroke: #daa520"/>
     <use xlink:href="#m8b65bb67ef" x="407.921387" y="155.776899" style="fill: #daa520; stroke: #daa520"/>
     <use xlink:href="#m8b65bb67ef" x="399.82795" y="160.855127" style="fill: #daa520; stroke: #daa520"/>
     <use xlink:href="#m8b65bb67ef" x="294.158464" y="122.681347" style="fill: #daa520; stroke: #daa520"/>
     <use xlink:href="#m8b65bb67ef" x="268.450489" y="119.996537" style="fill: #daa520; stroke: #daa520"/>
     <use xlink:href="#m8b65bb67ef" x="249.37987" y="111.294082" style="fill: #daa520; stroke: #daa520"/>
     <use xlink:href="#m8b65bb67ef" x="176.837542" y="96.792916" style="fill: #daa520; stroke: #daa520"/>
     <use xlink:href="#m8b65bb67ef" x="93.13088" y="97.329205" style="fill: #daa520; stroke: #daa520"/>
     <use xlink:href="#m8b65bb67ef" x="271.097007" y="114.434404" style="fill: #daa520; stroke: #daa520"/>
     <use xlink:href="#m8b65bb67ef" x="134.313719" y="93.918823" style="fill: #daa520; stroke: #daa520"/>
     <use xlink:href="#m8b65bb67ef" x="190.230793" y="111.197041" style="fill: #daa520; stroke: #daa520"/>
     <use xlink:href="#m8b65bb67ef" x="250.050979" y="104.133732" style="fill: #daa520; stroke: #daa520"/>
     <use xlink:href="#m8b65bb67ef" x="308.944189" y="123.501297" style="fill: #daa520; stroke: #daa520"/>
     <use xlink:href="#m8b65bb67ef" x="383.258339" y="158.931648" style="fill: #daa520; stroke: #daa520"/>
     <use xlink:href="#m8b65bb67ef" x="230.533344" y="107.291658" style="fill: #daa520; stroke: #daa520"/>
     <use xlink:href="#m8b65bb67ef" x="139.788403" y="96.624707" style="fill: #daa520; stroke: #daa520"/>
     <use xlink:href="#m8b65bb67ef" x="413.714391" y="146.087238" style="fill: #daa520; stroke: #daa520"/>
     <use xlink:href="#m8b65bb67ef" x="303.78981" y="131.197345" style="fill: #daa520; stroke: #daa520"/>
     <use xlink:href="#m8b65bb67ef" x="223.333572" y="115.622782" style="fill: #daa520; stroke: #daa520"/>
     <use xlink:href="#m8b65bb67ef" x="367.63917" y="137.767173" style="fill: #daa520; stroke: #daa520"/>
     <use xlink:href="#m8b65bb67ef" x="340.092627" y="149.285269" style="fill: #daa520; stroke: #daa520"/>
     <use xlink:href="#m8b65bb67ef" x="403.14552" y="151.321909" style="fill: #daa520; stroke: #daa520"/>
     <use xlink:href="#m8b65bb67ef" x="400.474622" y="142.351631" style="fill: #daa520; stroke: #daa520"/>
     <use xlink:href="#m8b65bb67ef" x="305.43132" y="137.244571" style="fill: #daa520; stroke: #daa520"/>
     <use xlink:href="#m8b65bb67ef" x="184.648368" y="91.169657" style="fill: #daa520; stroke: #daa520"/>
     <use xlink:href="#m8b65bb67ef" x="353.046725" y="143.742789" style="fill: #daa520; stroke: #daa520"/>
     <use xlink:href="#m8b65bb67ef" x="285.636827" y="123.3688" style="fill: #daa520; stroke: #daa520"/>
     <use xlink:href="#m8b65bb67ef" x="105.589017" y="92.859037" style="fill: #daa520; stroke: #daa520"/>
     <use xlink:href="#m8b65bb67ef" x="214.449231" y="102.492633" style="fill: #daa520; stroke: #daa520"/>
     <use xlink:href="#m8b65bb67ef" x="416.849961" y="147.692856" style="fill: #daa520; stroke: #daa520"/>
     <use xlink:href="#m8b65bb67ef" x="325.550898" y="145.839273" style="fill: #daa520; stroke: #daa520"/>
     <use xlink:href="#m8b65bb67ef" x="387.266849" y="150.155164" style="fill: #daa520; stroke: #daa520"/>
     <use xlink:href="#m8b65bb67ef" x="180.28843" y="96.533054" style="fill: #daa520; stroke: #daa520"/>
     <use xlink:href="#m8b65bb67ef" x="352.552647" y="139.641008" style="fill: #daa520; stroke: #daa520"/>
     <use xlink:href="#m8b65bb67ef" x="98.527144" y="93.38436" style="fill: #daa520; stroke: #daa520"/>
     <use xlink:href="#m8b65bb67ef" x="264.216607" y="129.082866" style="fill: #daa520; stroke: #daa520"/>
     <use xlink:href="#m8b65bb67ef" x="225.392152" y="111.825442" style="fill: #daa520; stroke: #daa520"/>
     <use xlink:href="#m8b65bb67ef" x="401.617296" y="143.260267" style="fill: #daa520; stroke: #daa520"/>
     <use xlink:href="#m8b65bb67ef" x="347.335705" y="141.302589" style="fill: #daa520; stroke: #daa520"/>
     <use xlink:href="#m8b65bb67ef" x="382.945952" y="143.751974" style="fill: #daa520; stroke: #daa520"/>
     <use xlink:href="#m8b65bb67ef" x="70.522712" y="97.094796" style="fill: #daa520; stroke: #daa520"/>
     <use xlink:href="#m8b65bb67ef" x="366.864391" y="144.478552" style="fill: #daa520; stroke: #daa520"/>
     <use xlink:href="#m8b65bb67ef" x="394.888247" y="161.181734" style="fill: #daa520; stroke: #daa520"/>
     <use xlink:href="#m8b65bb67ef" x="188.327415" y="95.392351" style="fill: #daa520; stroke: #daa520"/>
     <use xlink:href="#m8b65bb67ef" x="379.271561" y="140.599865" style="fill: #daa520; stroke: #daa520"/>
     <use xlink:href="#m8b65bb67ef" x="382.297947" y="157.052487" style="fill: #daa520; stroke: #daa520"/>
     <use xlink:href="#m8b65bb67ef" x="208.028395" y="102.69706" style="fill: #daa520; stroke: #daa520"/>
     <use xlink:href="#m8b65bb67ef" x="94.741427" y="94.10287" style="fill: #daa520; stroke: #daa520"/>
     <use xlink:href="#m8b65bb67ef" x="149.662169" y="95.664869" style="fill: #daa520; stroke: #daa520"/>
    </g>
   </g>
   <g id="matplotlib.axis_3"/>
   <g id="matplotlib.axis_4">
    <g id="ytick_1">
     <g id="line2d_3">
      <defs>
       <path id="m800de0c65e" d="M 0 0 
L -3.5 0 
" style="stroke: #696969; stroke-width: 0.8"/>
      </defs>
      <g>
       <use xlink:href="#m800de0c65e" x="37.7875" y="140.393667" style="fill: #696969; stroke: #696969; stroke-width: 0.8"/>
      </g>
     </g>
     <g id="text_1">
      <!-- −5 -->
      <g style="fill: #696969" transform="translate(7.2 146.472417) scale(0.16 -0.16)">
       <defs>
        <path id="DejaVuSans-2212" d="M 678 2272 
L 4684 2272 
L 4684 1741 
L 678 1741 
L 678 2272 
z
" transform="scale(0.015625)"/>
        <path id="DejaVuSans-35" d="M 691 4666 
L 3169 4666 
L 3169 4134 
L 1269 4134 
L 1269 2991 
Q 1406 3038 1543 3061 
Q 1681 3084 1819 3084 
Q 2600 3084 3056 2656 
Q 3513 2228 3513 1497 
Q 3513 744 3044 326 
Q 2575 -91 1722 -91 
Q 1428 -91 1123 -41 
Q 819 9 494 109 
L 494 744 
Q 775 591 1075 516 
Q 1375 441 1709 441 
Q 2250 441 2565 725 
Q 2881 1009 2881 1497 
Q 2881 1984 2565 2268 
Q 2250 2553 1709 2553 
Q 1456 2553 1204 2497 
Q 953 2441 691 2322 
L 691 4666 
z
" transform="scale(0.015625)"/>
       </defs>
       <use xlink:href="#DejaVuSans-2212"/>
       <use xlink:href="#DejaVuSans-35" x="83.789062"/>
      </g>
     </g>
    </g>
    <g id="ytick_2">
     <g id="line2d_4">
      <g>
       <use xlink:href="#m800de0c65e" x="37.7875" y="101.235834" style="fill: #696969; stroke: #696969; stroke-width: 0.8"/>
      </g>
     </g>
     <g id="text_2">
      <!-- 0 -->
      <g style="fill: #696969" transform="translate(20.6075 107.314584) scale(0.16 -0.16)">
       <defs>
        <path id="DejaVuSans-30" d="M 2034 4250 
Q 1547 4250 1301 3770 
Q 1056 3291 1056 2328 
Q 1056 1369 1301 889 
Q 1547 409 2034 409 
Q 2525 409 2770 889 
Q 3016 1369 3016 2328 
Q 3016 3291 2770 3770 
Q 2525 4250 2034 4250 
z
M 2034 4750 
Q 2819 4750 3233 4129 
Q 3647 3509 3647 2328 
Q 3647 1150 3233 529 
Q 2819 -91 2034 -91 
Q 1250 -91 836 529 
Q 422 1150 422 2328 
Q 422 3509 836 4129 
Q 1250 4750 2034 4750 
z
" transform="scale(0.015625)"/>
       </defs>
       <use xlink:href="#DejaVuSans-30"/>
      </g>
     </g>
    </g>
   </g>
   <g id="line2d_5">
    <path d="M 55.888409 84.252731 
L 63.128773 85.236681 
L 70.369136 86.317712 
L 77.6095 87.471109 
L 84.849864 88.669078 
L 92.090227 89.882719 
L 99.330591 91.084009 
L 106.570955 92.247638 
L 113.811318 93.352605 
L 121.051682 94.3835 
L 128.292045 95.331338 
L 135.532409 96.19396 
L 142.772773 96.976044 
L 150.013136 97.688665 
L 157.2535 98.348586 
L 164.493864 98.977251 
L 171.734227 99.599679 
L 178.974591 100.243222 
L 186.214955 100.936337 
L 193.455318 101.707388 
L 200.695682 102.583474 
L 207.936045 103.589342 
L 215.176409 104.74634 
L 222.416773 106.071451 
L 229.657136 107.576405 
L 236.8975 109.266893 
L 244.137864 111.141934 
L 251.378227 113.193478 
L 258.618591 115.406274 
L 265.858955 117.758084 
L 273.099318 120.220312 
L 280.339682 122.759025 
L 287.580045 125.336355 
L 294.820409 127.91227 
L 302.060773 130.446534 
L 309.301136 132.900771 
L 316.5415 135.240474 
L 323.781864 137.436786 
L 331.022227 139.467904 
L 338.262591 141.320031 
L 345.502955 142.987743 
L 352.743318 144.473819 
L 359.983682 145.788526 
L 367.224045 146.948477 
L 374.464409 147.975166 
L 381.704773 148.893322 
L 388.945136 149.729271 
L 396.1855 150.509386 
L 403.425864 151.258787 
L 410.666227 152.000325 
L 417.906591 152.753884 
" clip-path="url(#pf54694bb09)" style="fill: none; stroke: #000000; stroke-width: 2; stroke-linecap: square"/>
   </g>
   <g id="line2d_6">
    <path d="M 55.888409 80.641185 
L 63.128773 85.444494 
L 70.369136 88.958211 
L 77.6095 91.45175 
L 84.849864 93.15516 
L 92.090227 94.263332 
L 99.330591 94.939902 
L 106.570955 95.320872 
L 113.811318 95.517942 
L 121.051682 95.621577 
L 128.292045 95.703814 
L 135.532409 95.820827 
L 142.772773 96.01524 
L 150.013136 96.318233 
L 157.2535 96.751418 
L 164.493864 97.328515 
L 171.734227 98.056834 
L 178.974591 98.938573 
L 186.214955 99.971946 
L 193.455318 101.152142 
L 200.695682 102.472139 
L 207.936045 103.923374 
L 215.176409 105.49629 
L 222.416773 107.18075 
L 229.657136 108.966358 
L 236.8975 110.842671 
L 244.137864 112.799331 
L 251.378227 114.826117 
L 258.618591 116.912933 
L 265.858955 119.049741 
L 273.099318 121.226449 
L 280.339682 123.432767 
L 287.580045 125.658041 
L 294.820409 127.891071 
L 302.060773 130.119936 
L 309.301136 132.331817 
L 316.5415 134.512852 
L 323.781864 136.648015 
L 331.022227 138.721039 
L 338.262591 140.714387 
L 345.502955 142.609299 
L 352.743318 144.385894 
L 359.983682 146.023376 
L 367.224045 147.500319 
L 374.464409 148.795068 
L 381.704773 149.886258 
L 388.945136 150.753449 
L 396.1855 151.377914 
L 403.425864 151.743564 
L 410.666227 151.838042 
L 417.906591 151.653981 
" clip-path="url(#pf54694bb09)" style="fill: none; stroke-dasharray: 7.4,3.2; stroke-dashoffset: 0; stroke: #34b6c6; stroke-width: 2"/>
   </g>
   <g id="line2d_7">
    <path d="M 55.888409 84.734399 
L 63.128773 86.26663 
L 70.369136 87.705315 
L 77.6095 89.058306 
L 84.849864 90.32961 
L 92.090227 91.520837 
L 99.330591 92.632687 
L 106.570955 93.66625 
L 113.811318 94.623937 
L 121.051682 95.509964 
L 128.292045 96.330441 
L 135.532409 97.093167 
L 142.772773 97.807294 
L 150.013136 98.482992 
L 157.2535 99.131215 
L 164.493864 99.763633 
L 171.734227 100.392767 
L 178.974591 101.032324 
L 186.214955 101.69774 
L 193.455318 102.40689 
L 200.695682 103.180902 
L 207.936045 104.044899 
L 215.176409 105.028354 
L 222.416773 106.164499 
L 229.657136 107.488065 
L 236.8975 109.030691 
L 244.137864 110.814089 
L 251.378227 112.842576 
L 258.618591 115.098238 
L 265.858955 117.541775 
L 273.099318 120.119159 
L 280.339682 122.770451 
L 287.580045 125.436689 
L 294.820409 128.063893 
L 302.060773 130.606123 
L 309.301136 133.028833 
L 316.5415 135.311312 
L 323.781864 137.446106 
L 331.022227 139.434859 
L 338.262591 141.28231 
L 345.502955 142.991206 
L 352.743318 144.560266 
L 359.983682 145.98552 
L 367.224045 147.263709 
L 374.464409 148.395665 
L 381.704773 149.388147 
L 388.945136 150.253746 
L 396.1855 151.009419 
L 403.425864 151.674571 
L 410.666227 152.269362 
L 417.906591 152.813591 
" clip-path="url(#pf54694bb09)" style="fill: none; stroke-dasharray: 7.4,3.2; stroke-dashoffset: 0; stroke: #9370db; stroke-width: 2"/>
   </g>
   <g id="line2d_8">
    <path d="M 55.888409 84.302617 
L 63.128773 85.530851 
L 70.369136 86.765152 
L 77.6095 87.992666 
L 84.849864 89.199528 
L 92.090227 90.372085 
L 99.330591 91.498185 
L 106.570955 92.56829 
L 113.811318 93.576203 
L 121.051682 94.519352 
L 128.292045 95.398653 
L 135.532409 96.218083 
L 142.772773 96.984132 
L 150.013136 97.705268 
L 157.2535 98.391538 
L 164.493864 99.054358 
L 171.734227 99.706543 
L 178.974591 100.36256 
L 186.214955 101.039033 
L 193.455318 101.755428 
L 200.695682 102.534869 
L 207.936045 103.404889 
L 215.176409 104.397767 
L 222.416773 105.549859 
L 229.657136 106.899123 
L 236.8975 108.480149 
L 244.137864 110.316748 
L 251.378227 112.413889 
L 258.618591 114.752457 
L 265.858955 117.290177 
L 273.099318 119.968806 
L 280.339682 122.723672 
L 287.580045 125.491113 
L 294.820409 128.212823 
L 302.060773 130.839152 
L 309.301136 133.332736 
L 316.5415 135.67113 
L 323.781864 137.846185 
L 331.022227 139.859536 
L 338.262591 141.7161 
L 345.502955 143.418562 
L 352.743318 144.965136 
L 359.983682 146.350977 
L 367.224045 147.571802 
L 374.464409 148.627483 
L 381.704773 149.523965 
L 388.945136 150.273068 
L 396.1855 150.890814 
L 403.425864 151.395235 
L 410.666227 151.804423 
L 417.906591 152.13517 
" clip-path="url(#pf54694bb09)" style="fill: none; stroke-dasharray: 12.8,3.2,2,3.2; stroke-dashoffset: 0; stroke: #ff0000; stroke-width: 2"/>
   </g>
   <g id="patch_4">
    <path d="M 37.7875 165.688 
L 37.7875 70.696 
" style="fill: none; stroke: #000000; stroke-width: 0.8; stroke-linejoin: miter; stroke-linecap: square"/>
   </g>
   <g id="patch_5">
    <path d="M 436.0075 165.688 
L 436.0075 70.696 
" style="fill: none; stroke: #000000; stroke-width: 0.8; stroke-linejoin: miter; stroke-linecap: square"/>
   </g>
   <g id="patch_6">
    <path d="M 37.7875 165.688 
L 436.0075 165.688 
" style="fill: none; stroke: #000000; stroke-width: 0.8; stroke-linejoin: miter; stroke-linecap: square"/>
   </g>
   <g id="patch_7">
    <path d="M 37.7875 70.696 
L 436.0075 70.696 
" style="fill: none; stroke: #000000; stroke-width: 0.8; stroke-linejoin: miter; stroke-linecap: square"/>
   </g>
  </g>
  <g id="axes_3">
   <g id="patch_8">
    <path d="M 37.7875 276.68 
L 436.0075 276.68 
L 436.0075 181.688 
L 37.7875 181.688 
z
" style="fill: #ffffff"/>
   </g>
   <g id="PathCollection_2">
    <g clip-path="url(#pd491fee9ef)">
     <use xlink:href="#m8b65bb67ef" x="403.345765" y="196.712899" style="fill: #daa520; stroke: #daa520"/>
     <use xlink:href="#m8b65bb67ef" x="371.475428" y="238.395995" style="fill: #daa520; stroke: #daa520"/>
     <use xlink:href="#m8b65bb67ef" x="394.911251" y="236.60213" style="fill: #daa520; stroke: #daa520"/>
     <use xlink:href="#m8b65bb67ef" x="189.772049" y="234.83117" style="fill: #daa520; stroke: #daa520"/>
     <use xlink:href="#m8b65bb67ef" x="109.421877" y="205.94692" style="fill: #daa520; stroke: #daa520"/>
     <use xlink:href="#m8b65bb67ef" x="322.899053" y="235.976244" style="fill: #daa520; stroke: #daa520"/>
     <use xlink:href="#m8b65bb67ef" x="349.786416" y="256.062418" style="fill: #daa520; stroke: #daa520"/>
     <use xlink:href="#m8b65bb67ef" x="412.977593" y="225.736535" style="fill: #daa520; stroke: #daa520"/>
     <use xlink:href="#m8b65bb67ef" x="353.440135" y="261.5789" style="fill: #daa520; stroke: #daa520"/>
     <use xlink:href="#m8b65bb67ef" x="394.351093" y="219.104991" style="fill: #daa520; stroke: #daa520"/>
     <use xlink:href="#m8b65bb67ef" x="373.720209" y="272.362182" style="fill: #daa520; stroke: #daa520"/>
     <use xlink:href="#m8b65bb67ef" x="396.853166" y="229.455966" style="fill: #daa520; stroke: #daa520"/>
     <use xlink:href="#m8b65bb67ef" x="361.212481" y="194.080824" style="fill: #daa520; stroke: #daa520"/>
     <use xlink:href="#m8b65bb67ef" x="353.253518" y="244.265321" style="fill: #daa520; stroke: #daa520"/>
     <use xlink:href="#m8b65bb67ef" x="345.69729" y="242.086105" style="fill: #daa520; stroke: #daa520"/>
     <use xlink:href="#m8b65bb67ef" x="364.286321" y="200.927288" style="fill: #daa520; stroke: #daa520"/>
     <use xlink:href="#m8b65bb67ef" x="411.7912" y="252.971883" style="fill: #daa520; stroke: #daa520"/>
     <use xlink:href="#m8b65bb67ef" x="394.148421" y="230.969838" style="fill: #daa520; stroke: #daa520"/>
     <use xlink:href="#m8b65bb67ef" x="391.56526" y="264.588307" style="fill: #daa520; stroke: #daa520"/>
     <use xlink:href="#m8b65bb67ef" x="353.158835" y="209.515284" style="fill: #daa520; stroke: #daa520"/>
     <use xlink:href="#m8b65bb67ef" x="299.213224" y="226.650136" style="fill: #daa520; stroke: #daa520"/>
     <use xlink:href="#m8b65bb67ef" x="59.965264" y="222.381345" style="fill: #daa520; stroke: #daa520"/>
     <use xlink:href="#m8b65bb67ef" x="86.466411" y="241.435957" style="fill: #daa520; stroke: #daa520"/>
     <use xlink:href="#m8b65bb67ef" x="253.533331" y="191.016285" style="fill: #daa520; stroke: #daa520"/>
     <use xlink:href="#m8b65bb67ef" x="392.080741" y="226.055988" style="fill: #daa520; stroke: #daa520"/>
     <use xlink:href="#m8b65bb67ef" x="222.457283" y="240.059299" style="fill: #daa520; stroke: #daa520"/>
     <use xlink:href="#m8b65bb67ef" x="150.702342" y="221.820086" style="fill: #daa520; stroke: #daa520"/>
     <use xlink:href="#m8b65bb67ef" x="409.633792" y="216.188374" style="fill: #daa520; stroke: #daa520"/>
     <use xlink:href="#m8b65bb67ef" x="322.604501" y="225.725356" style="fill: #daa520; stroke: #daa520"/>
     <use xlink:href="#m8b65bb67ef" x="322.411874" y="232.97563" style="fill: #daa520; stroke: #daa520"/>
     <use xlink:href="#m8b65bb67ef" x="343.021269" y="240.923302" style="fill: #daa520; stroke: #daa520"/>
     <use xlink:href="#m8b65bb67ef" x="335.286874" y="268.511139" style="fill: #daa520; stroke: #daa520"/>
     <use xlink:href="#m8b65bb67ef" x="251.275525" y="230.40378" style="fill: #daa520; stroke: #daa520"/>
     <use xlink:href="#m8b65bb67ef" x="359.85005" y="198.362532" style="fill: #daa520; stroke: #daa520"/>
     <use xlink:href="#m8b65bb67ef" x="303.002815" y="220.05842" style="fill: #daa520; stroke: #daa520"/>
     <use xlink:href="#m8b65bb67ef" x="57.961451" y="266.395218" style="fill: #daa520; stroke: #daa520"/>
     <use xlink:href="#m8b65bb67ef" x="344.66659" y="198.686071" style="fill: #daa520; stroke: #daa520"/>
     <use xlink:href="#m8b65bb67ef" x="143.843847" y="244.890234" style="fill: #daa520; stroke: #daa520"/>
     <use xlink:href="#m8b65bb67ef" x="406.743129" y="195.519599" style="fill: #daa520; stroke: #daa520"/>
     <use xlink:href="#m8b65bb67ef" x="388.426731" y="192.416207" style="fill: #daa520; stroke: #daa520"/>
     <use xlink:href="#m8b65bb67ef" x="346.549396" y="238.735045" style="fill: #daa520; stroke: #daa520"/>
     <use xlink:href="#m8b65bb67ef" x="164.713134" y="215.735743" style="fill: #daa520; stroke: #daa520"/>
     <use xlink:href="#m8b65bb67ef" x="326.9784" y="236.701537" style="fill: #daa520; stroke: #daa520"/>
     <use xlink:href="#m8b65bb67ef" x="385.390021" y="239.093259" style="fill: #daa520; stroke: #daa520"/>
     <use xlink:href="#m8b65bb67ef" x="387.104686" y="260.05162" style="fill: #daa520; stroke: #daa520"/>
     <use xlink:href="#m8b65bb67ef" x="407.921387" y="216.177944" style="fill: #daa520; stroke: #daa520"/>
     <use xlink:href="#m8b65bb67ef" x="399.82795" y="195.808595" style="fill: #daa520; stroke: #daa520"/>
     <use xlink:href="#m8b65bb67ef" x="294.158464" y="250.504206" style="fill: #daa520; stroke: #daa520"/>
     <use xlink:href="#m8b65bb67ef" x="268.450489" y="224.782014" style="fill: #daa520; stroke: #daa520"/>
     <use xlink:href="#m8b65bb67ef" x="249.37987" y="233.090587" style="fill: #daa520; stroke: #daa520"/>
     <use xlink:href="#m8b65bb67ef" x="176.837542" y="243.527375" style="fill: #daa520; stroke: #daa520"/>
     <use xlink:href="#m8b65bb67ef" x="93.13088" y="206.414405" style="fill: #daa520; stroke: #daa520"/>
     <use xlink:href="#m8b65bb67ef" x="271.097007" y="248.669105" style="fill: #daa520; stroke: #daa520"/>
     <use xlink:href="#m8b65bb67ef" x="134.313719" y="239.112561" style="fill: #daa520; stroke: #daa520"/>
     <use xlink:href="#m8b65bb67ef" x="190.230793" y="195.555107" style="fill: #daa520; stroke: #daa520"/>
     <use xlink:href="#m8b65bb67ef" x="250.050979" y="259.961719" style="fill: #daa520; stroke: #daa520"/>
     <use xlink:href="#m8b65bb67ef" x="308.944189" y="266.661172" style="fill: #daa520; stroke: #daa520"/>
     <use xlink:href="#m8b65bb67ef" x="383.258339" y="197.496946" style="fill: #daa520; stroke: #daa520"/>
     <use xlink:href="#m8b65bb67ef" x="230.533344" y="230.426764" style="fill: #daa520; stroke: #daa520"/>
     <use xlink:href="#m8b65bb67ef" x="139.788403" y="231.389634" style="fill: #daa520; stroke: #daa520"/>
     <use xlink:href="#m8b65bb67ef" x="413.714391" y="252.618336" style="fill: #daa520; stroke: #daa520"/>
     <use xlink:href="#m8b65bb67ef" x="303.78981" y="232.122698" style="fill: #daa520; stroke: #daa520"/>
     <use xlink:href="#m8b65bb67ef" x="223.333572" y="195.019312" style="fill: #daa520; stroke: #daa520"/>
     <use xlink:href="#m8b65bb67ef" x="367.63917" y="267.236371" style="fill: #daa520; stroke: #daa520"/>
     <use xlink:href="#m8b65bb67ef" x="340.092627" y="205.201862" style="fill: #daa520; stroke: #daa520"/>
     <use xlink:href="#m8b65bb67ef" x="403.14552" y="231.411707" style="fill: #daa520; stroke: #daa520"/>
     <use xlink:href="#m8b65bb67ef" x="400.474622" y="263.51629" style="fill: #daa520; stroke: #daa520"/>
     <use xlink:href="#m8b65bb67ef" x="305.43132" y="212.130155" style="fill: #daa520; stroke: #daa520"/>
     <use xlink:href="#m8b65bb67ef" x="184.648368" y="266.691559" style="fill: #daa520; stroke: #daa520"/>
     <use xlink:href="#m8b65bb67ef" x="353.046725" y="235.894407" style="fill: #daa520; stroke: #daa520"/>
     <use xlink:href="#m8b65bb67ef" x="285.636827" y="236.252439" style="fill: #daa520; stroke: #daa520"/>
     <use xlink:href="#m8b65bb67ef" x="105.589017" y="229.630273" style="fill: #daa520; stroke: #daa520"/>
     <use xlink:href="#m8b65bb67ef" x="214.449231" y="237.774965" style="fill: #daa520; stroke: #daa520"/>
     <use xlink:href="#m8b65bb67ef" x="416.849961" y="247.264136" style="fill: #daa520; stroke: #daa520"/>
     <use xlink:href="#m8b65bb67ef" x="325.550898" y="203.880042" style="fill: #daa520; stroke: #daa520"/>
     <use xlink:href="#m8b65bb67ef" x="387.266849" y="231.049999" style="fill: #daa520; stroke: #daa520"/>
     <use xlink:href="#m8b65bb67ef" x="180.28843" y="245.628292" style="fill: #daa520; stroke: #daa520"/>
     <use xlink:href="#m8b65bb67ef" x="352.552647" y="250.502389" style="fill: #daa520; stroke: #daa520"/>
     <use xlink:href="#m8b65bb67ef" x="98.527144" y="223.876551" style="fill: #daa520; stroke: #daa520"/>
     <use xlink:href="#m8b65bb67ef" x="264.216607" y="186.005818" style="fill: #daa520; stroke: #daa520"/>
     <use xlink:href="#m8b65bb67ef" x="225.392152" y="210.22928" style="fill: #daa520; stroke: #daa520"/>
     <use xlink:href="#m8b65bb67ef" x="401.617296" y="260.479459" style="fill: #daa520; stroke: #daa520"/>
     <use xlink:href="#m8b65bb67ef" x="347.335705" y="240.416047" style="fill: #daa520; stroke: #daa520"/>
     <use xlink:href="#m8b65bb67ef" x="382.945952" y="252.784006" style="fill: #daa520; stroke: #daa520"/>
     <use xlink:href="#m8b65bb67ef" x="70.522712" y="193.596631" style="fill: #daa520; stroke: #daa520"/>
     <use xlink:href="#m8b65bb67ef" x="366.864391" y="242.292975" style="fill: #daa520; stroke: #daa520"/>
     <use xlink:href="#m8b65bb67ef" x="394.888247" y="193.270841" style="fill: #daa520; stroke: #daa520"/>
     <use xlink:href="#m8b65bb67ef" x="188.327415" y="252.565539" style="fill: #daa520; stroke: #daa520"/>
     <use xlink:href="#m8b65bb67ef" x="379.271561" y="262.747739" style="fill: #daa520; stroke: #daa520"/>
     <use xlink:href="#m8b65bb67ef" x="382.297947" y="203.969908" style="fill: #daa520; stroke: #daa520"/>
     <use xlink:href="#m8b65bb67ef" x="208.028395" y="233.835442" style="fill: #daa520; stroke: #daa520"/>
     <use xlink:href="#m8b65bb67ef" x="94.741427" y="219.116583" style="fill: #daa520; stroke: #daa520"/>
     <use xlink:href="#m8b65bb67ef" x="149.662169" y="238.532363" style="fill: #daa520; stroke: #daa520"/>
    </g>
   </g>
   <g id="matplotlib.axis_5">
    <g id="xtick_1">
     <g id="line2d_9">
      <defs>
       <path id="m130e7f0435" d="M 0 0 
L 0 3.5 
" style="stroke: #696969; stroke-width: 0.8"/>
      </defs>
      <g>
       <use xlink:href="#m130e7f0435" x="55.888409" y="276.68" style="fill: #696969; stroke: #696969; stroke-width: 0.8"/>
      </g>
     </g>
     <g id="text_3">
      <!-- −1.0 -->
      <g style="fill: #696969" transform="translate(36.462159 295.8375) scale(0.16 -0.16)">
       <defs>
        <path id="DejaVuSans-31" d="M 794 531 
L 1825 531 
L 1825 4091 
L 703 3866 
L 703 4441 
L 1819 4666 
L 2450 4666 
L 2450 531 
L 3481 531 
L 3481 0 
L 794 0 
L 794 531 
z
" transform="scale(0.015625)"/>
        <path id="DejaVuSans-2e" d="M 684 794 
L 1344 794 
L 1344 0 
L 684 0 
L 684 794 
z
" transform="scale(0.015625)"/>
       </defs>
       <use xlink:href="#DejaVuSans-2212"/>
       <use xlink:href="#DejaVuSans-31" x="83.789062"/>
       <use xlink:href="#DejaVuSans-2e" x="147.412109"/>
       <use xlink:href="#DejaVuSans-30" x="179.199219"/>
      </g>
     </g>
    </g>
    <g id="xtick_2">
     <g id="line2d_10">
      <g>
       <use xlink:href="#m130e7f0435" x="146.392955" y="276.68" style="fill: #696969; stroke: #696969; stroke-width: 0.8"/>
      </g>
     </g>
     <g id="text_4">
      <!-- −0.5 -->
      <g style="fill: #696969" transform="translate(126.966705 295.8375) scale(0.16 -0.16)">
       <use xlink:href="#DejaVuSans-2212"/>
       <use xlink:href="#DejaVuSans-30" x="83.789062"/>
       <use xlink:href="#DejaVuSans-2e" x="147.412109"/>
       <use xlink:href="#DejaVuSans-35" x="179.199219"/>
      </g>
     </g>
    </g>
    <g id="xtick_3">
     <g id="line2d_11">
      <g>
       <use xlink:href="#m130e7f0435" x="236.8975" y="276.68" style="fill: #696969; stroke: #696969; stroke-width: 0.8"/>
      </g>
     </g>
     <g id="text_5">
      <!-- 0.0 -->
      <g style="fill: #696969" transform="translate(224.175 295.8375) scale(0.16 -0.16)">
       <use xlink:href="#DejaVuSans-30"/>
       <use xlink:href="#DejaVuSans-2e" x="63.623047"/>
       <use xlink:href="#DejaVuSans-30" x="95.410156"/>
      </g>
     </g>
    </g>
    <g id="xtick_4">
     <g id="line2d_12">
      <g>
       <use xlink:href="#m130e7f0435" x="327.402045" y="276.68" style="fill: #696969; stroke: #696969; stroke-width: 0.8"/>
      </g>
     </g>
     <g id="text_6">
      <!-- 0.5 -->
      <g style="fill: #696969" transform="translate(314.679545 295.8375) scale(0.16 -0.16)">
       <use xlink:href="#DejaVuSans-30"/>
       <use xlink:href="#DejaVuSans-2e" x="63.623047"/>
       <use xlink:href="#DejaVuSans-35" x="95.410156"/>
      </g>
     </g>
    </g>
    <g id="xtick_5">
     <g id="line2d_13">
      <g>
       <use xlink:href="#m130e7f0435" x="417.906591" y="276.68" style="fill: #696969; stroke: #696969; stroke-width: 0.8"/>
      </g>
     </g>
     <g id="text_7">
      <!-- 1.0 -->
      <g style="fill: #696969" transform="translate(405.184091 295.8375) scale(0.16 -0.16)">
       <use xlink:href="#DejaVuSans-31"/>
       <use xlink:href="#DejaVuSans-2e" x="63.623047"/>
       <use xlink:href="#DejaVuSans-30" x="95.410156"/>
      </g>
     </g>
    </g>
    <g id="text_8">
     <!-- $X$ -->
     <g transform="translate(231.3775 315.3225) scale(0.16 -0.16)">
      <defs>
       <path id="DejaVuSans-Oblique-58" d="M 878 4666 
L 1516 4666 
L 2316 2981 
L 3763 4666 
L 4500 4666 
L 2578 2438 
L 3738 0 
L 3103 0 
L 2163 1966 
L 459 0 
L -275 0 
L 1906 2509 
L 878 4666 
z
" transform="scale(0.015625)"/>
      </defs>
      <use xlink:href="#DejaVuSans-Oblique-58" transform="translate(0 0.09375)"/>
     </g>
    </g>
   </g>
   <g id="matplotlib.axis_6">
    <g id="ytick_3">
     <g id="line2d_14">
      <g>
       <use xlink:href="#m800de0c65e" x="37.7875" y="259.796771" style="fill: #696969; stroke: #696969; stroke-width: 0.8"/>
      </g>
     </g>
     <g id="text_9">
      <!-- −1 -->
      <g style="fill: #696969" transform="translate(7.2 265.875521) scale(0.16 -0.16)">
       <use xlink:href="#DejaVuSans-2212"/>
       <use xlink:href="#DejaVuSans-31" x="83.789062"/>
      </g>
     </g>
    </g>
    <g id="ytick_4">
     <g id="line2d_15">
      <g>
       <use xlink:href="#m800de0c65e" x="37.7875" y="231.208449" style="fill: #696969; stroke: #696969; stroke-width: 0.8"/>
      </g>
     </g>
     <g id="text_10">
      <!-- 0 -->
      <g style="fill: #696969" transform="translate(20.6075 237.287199) scale(0.16 -0.16)">
       <use xlink:href="#DejaVuSans-30"/>
      </g>
     </g>
    </g>
    <g id="ytick_5">
     <g id="line2d_16">
      <g>
       <use xlink:href="#m800de0c65e" x="37.7875" y="202.620128" style="fill: #696969; stroke: #696969; stroke-width: 0.8"/>
      </g>
     </g>
     <g id="text_11">
      <!-- 1 -->
      <g style="fill: #696969" transform="translate(20.6075 208.698878) scale(0.16 -0.16)">
       <use xlink:href="#DejaVuSans-31"/>
      </g>
     </g>
    </g>
   </g>
   <g id="line2d_17">
    <path d="M 55.888409 231.390553 
L 63.128773 232.282285 
L 70.369136 232.84178 
L 77.6095 233.112339 
L 84.849864 233.144803 
L 92.090227 232.994827 
L 99.330591 232.720355 
L 106.570955 232.378957 
L 113.811318 232.02467 
L 121.051682 231.704363 
L 128.292045 231.454175 
L 135.532409 231.296508 
L 142.772773 231.237973 
L 150.013136 231.269057 
L 157.2535 231.365242 
L 164.493864 231.48992 
L 171.734227 231.598543 
L 178.974591 231.644084 
L 186.214955 231.583333 
L 193.455318 231.383812 
L 200.695682 231.031018 
L 207.936045 230.535122 
L 215.176409 229.93602 
L 222.416773 229.30443 
L 229.657136 228.736101 
L 236.8975 228.336521 
L 244.137864 228.196195 
L 251.378227 228.36264 
L 258.618591 228.821757 
L 265.858955 229.500403 
L 273.099318 230.290354 
L 280.339682 231.079397 
L 287.580045 231.773377 
L 294.820409 232.305588 
L 302.060773 232.641662 
L 309.301136 232.785292 
L 316.5415 232.780515 
L 323.781864 232.702919 
L 331.022227 232.638059 
L 338.262591 232.654258 
L 345.502955 232.78111 
L 352.743318 233.00195 
L 359.983682 233.261619 
L 367.224045 233.483832 
L 374.464409 233.589665 
L 381.704773 233.510546 
L 388.945136 233.193524 
L 396.1855 232.600811 
L 403.425864 231.706539 
L 410.666227 230.493329 
L 417.906591 228.949898 
" clip-path="url(#pd491fee9ef)" style="fill: none; stroke: #696969; stroke-width: 2; stroke-linecap: square"/>
   </g>
   <g id="line2d_18">
    <path d="M 55.888409 229.938286 
L 63.128773 228.686859 
L 70.369136 227.821747 
L 77.6095 227.265297 
L 84.849864 226.951671 
L 92.090227 226.82551 
L 99.330591 226.840688 
L 106.570955 226.959179 
L 113.811318 227.150012 
L 121.051682 227.38832 
L 128.292045 227.654481 
L 135.532409 227.933334 
L 142.772773 228.213482 
L 150.013136 228.486663 
L 157.2535 228.747195 
L 164.493864 228.99149 
L 171.734227 229.217618 
L 178.974591 229.424947 
L 186.214955 229.613817 
L 193.455318 229.785276 
L 200.695682 229.940855 
L 207.936045 230.082384 
L 215.176409 230.211847 
L 222.416773 230.331262 
L 229.657136 230.442596 
L 236.8975 230.547698 
L 244.137864 230.648252 
L 251.378227 230.745746 
L 258.618591 230.841451 
L 265.858955 230.936402 
L 273.099318 231.031388 
L 280.339682 231.126928 
L 287.580045 231.223257 
L 294.820409 231.320281 
L 302.060773 231.417534 
L 309.301136 231.514101 
L 316.5415 231.608527 
L 323.781864 231.698693 
L 331.022227 231.781662 
L 338.262591 231.85348 
L 345.502955 231.908948 
L 352.743318 231.94134 
L 359.983682 231.94207 
L 367.224045 231.900314 
L 374.464409 231.802563 
L 381.704773 231.632117 
L 388.945136 231.368516 
L 396.1855 230.986893 
L 403.425864 230.457257 
L 410.666227 229.743691 
L 417.906591 228.80347 
" clip-path="url(#pd491fee9ef)" style="fill: none; stroke-dasharray: 7.4,3.2; stroke-dashoffset: 0; stroke: #79ad41; stroke-width: 2"/>
   </g>
   <g id="patch_9">
    <path d="M 37.7875 276.68 
L 37.7875 181.688 
" style="fill: none; stroke: #000000; stroke-width: 0.8; stroke-linejoin: miter; stroke-linecap: square"/>
   </g>
   <g id="patch_10">
    <path d="M 436.0075 276.68 
L 436.0075 181.688 
" style="fill: none; stroke: #000000; stroke-width: 0.8; stroke-linejoin: miter; stroke-linecap: square"/>
   </g>
   <g id="patch_11">
    <path d="M 37.7875 276.68 
L 436.0075 276.68 
" style="fill: none; stroke: #000000; stroke-width: 0.8; stroke-linejoin: miter; stroke-linecap: square"/>
   </g>
   <g id="patch_12">
    <path d="M 37.7875 181.688 
L 436.0075 181.688 
" style="fill: none; stroke: #000000; stroke-width: 0.8; stroke-linejoin: miter; stroke-linecap: square"/>
   </g>
  </g>
 </g>
 <defs>
  <clipPath id="p35ea8dd631">
   <rect x="37.7875" y="7.2" width="398.22" height="47.496"/>
  </clipPath>
  <clipPath id="pf54694bb09">
   <rect x="37.7875" y="70.696" width="398.22" height="94.992"/>
  </clipPath>
  <clipPath id="pd491fee9ef">
   <rect x="37.7875" y="181.688" width="398.22" height="94.992"/>
  </clipPath>
 </defs>
</svg>
