<?xml version="1.0" encoding="utf-8" standalone="no"?>
<!DOCTYPE svg PUBLIC "-//W3C//DTD SVG 1.1//EN"
  "http://www.w3.org/Graphics/SVG/1.1/DTD/svg11.dtd">
<svg xmlns:xlink="http://www.w3.org/1999/xlink" width="443.2625pt" height="325.85pt" viewBox="0 0 443.2625 325.85" xmlns="http://www.w3.org/2000/svg" version="1.1">
 <metadata>
  <rdf:RDF xmlns:dc="http://purl.org/dc/elements/1.1/" xmlns:cc="http://creativecommons.org/ns#" xmlns:rdf="http://www.w3.org/1999/02/22-rdf-syntax-ns#">
   <cc:Work>
    <dc:type rdf:resource="http://purl.org/dc/dcmitype/StillImage"/>
    <dc:date>2024-01-28T20:55:47.798862</dc:date>
    <dc:format>image/svg+xml</dc:format>
    <dc:creator>
     <cc:Agent>
      <dc:title>Matplotlib v3.7.2, https://matplotlib.org/</dc:title>
     </cc:Agent>
    </dc:creator>
   </cc:Work>
  </rdf:RDF>
 </metadata>
 <defs>
  <style type="text/css">*{stroke-linejoin: round; stroke-linecap: butt}</style>
 </defs>
 <g id="figure_1">
  <g id="patch_1">
   <path d="M 0 325.85 
L 443.2625 325.85 
L 443.2625 0 
L 0 0 
z
" style="fill: #ffffff"/>
  </g>
  <g id="axes_1">
   <g id="patch_2">
    <path d="M 53.0525 53.44995 
L 436.0625 53.44995 
L 436.0625 7.2 
L 53.0525 7.2 
z
" style="fill: #ffffff"/>
   </g>
   <g id="PolyCollection_1">
    <defs>
     <path id="mce4ea969b3" d="M 70.462045 -274.502321 
L 70.462045 -279.174033 
L 77.425864 -279.174033 
L 84.389682 -279.174033 
L 91.3535 -279.174033 
L 98.317318 -279.174033 
L 105.281136 -279.174033 
L 112.244955 -279.174033 
L 119.208773 -279.174033 
L 126.172591 -279.174033 
L 133.136409 -279.174033 
L 140.100227 -279.174033 
L 147.064045 -279.174033 
L 154.027864 -279.174033 
L 160.991682 -279.174033 
L 167.9555 -279.174033 
L 174.919318 -279.174033 
L 181.883136 -279.174033 
L 188.846955 -279.174033 
L 195.810773 -279.707522 
L 202.774591 -280.712227 
L 209.738409 -281.935971 
L 216.702227 -283.415094 
L 223.666045 -285.182519 
L 230.629864 -287.26132 
L 237.593682 -289.65652 
L 244.5575 -292.346484 
L 251.521318 -295.276768 
L 258.485136 -298.359747 
L 265.448955 -301.48256 
L 272.412773 -304.522792 
L 279.376591 -307.367737 
L 286.340409 -309.931077 
L 293.304227 -312.161968 
L 300.268045 -314.04512 
L 307.231864 -315.594073 
L 314.195682 -316.54773 
L 321.1595 -316.54773 
L 328.123318 -316.54773 
L 335.087136 -316.54773 
L 342.050955 -316.54773 
L 349.014773 -316.54773 
L 355.978591 -316.54773 
L 362.942409 -316.54773 
L 369.906227 -316.54773 
L 376.870045 -316.54773 
L 383.833864 -316.54773 
L 390.797682 -316.54773 
L 397.7615 -316.54773 
L 404.725318 -316.54773 
L 411.689136 -316.54773 
L 418.652955 -316.54773 
L 418.652955 -274.502321 
L 418.652955 -274.502321 
L 411.689136 -274.502321 
L 404.725318 -274.502321 
L 397.7615 -274.502321 
L 390.797682 -274.502321 
L 383.833864 -274.502321 
L 376.870045 -274.502321 
L 369.906227 -274.502321 
L 362.942409 -274.502321 
L 355.978591 -274.502321 
L 349.014773 -274.502321 
L 342.050955 -274.502321 
L 335.087136 -274.502321 
L 328.123318 -274.502321 
L 321.1595 -274.502321 
L 314.195682 -274.502321 
L 307.231864 -274.502321 
L 300.268045 -274.502321 
L 293.304227 -274.502321 
L 286.340409 -274.502321 
L 279.376591 -274.502321 
L 272.412773 -274.502321 
L 265.448955 -274.502321 
L 258.485136 -274.502321 
L 251.521318 -274.502321 
L 244.5575 -274.502321 
L 237.593682 -274.502321 
L 230.629864 -274.502321 
L 223.666045 -274.502321 
L 216.702227 -274.502321 
L 209.738409 -274.502321 
L 202.774591 -274.502321 
L 195.810773 -274.502321 
L 188.846955 -274.502321 
L 181.883136 -274.502321 
L 174.919318 -274.502321 
L 167.9555 -274.502321 
L 160.991682 -274.502321 
L 154.027864 -274.502321 
L 147.064045 -274.502321 
L 140.100227 -274.502321 
L 133.136409 -274.502321 
L 126.172591 -274.502321 
L 119.208773 -274.502321 
L 112.244955 -274.502321 
L 105.281136 -274.502321 
L 98.317318 -274.502321 
L 91.3535 -274.502321 
L 84.389682 -274.502321 
L 77.425864 -274.502321 
L 70.462045 -274.502321 
z
" style="stroke: #dc143c; stroke-opacity: 0.2"/>
    </defs>
    <g clip-path="url(#p73df435abc)">
     <use xlink:href="#mce4ea969b3" x="0" y="325.85" style="fill: #dc143c; fill-opacity: 0.2; stroke: #dc143c; stroke-opacity: 0.2"/>
    </g>
   </g>
   <g id="PolyCollection_2">
    <defs>
     <path id="m1cf9aa82a0" d="M 70.462045 -274.502321 
L 70.462045 -316.54773 
L 77.425864 -316.54773 
L 84.389682 -316.54773 
L 91.3535 -316.54773 
L 98.317318 -316.54773 
L 105.281136 -316.54773 
L 112.244955 -316.54773 
L 119.208773 -316.54773 
L 126.172591 -316.54773 
L 133.136409 -316.54773 
L 140.100227 -316.54773 
L 147.064045 -316.54773 
L 154.027864 -316.54773 
L 160.991682 -316.54773 
L 167.9555 -316.54773 
L 174.919318 -316.54773 
L 181.883136 -316.54773 
L 188.846955 -316.54773 
L 195.810773 -316.014241 
L 202.774591 -315.009536 
L 209.738409 -313.785792 
L 216.702227 -312.306669 
L 223.666045 -310.539243 
L 230.629864 -308.460443 
L 237.593682 -306.065243 
L 244.5575 -303.375278 
L 251.521318 -300.444994 
L 258.485136 -297.362015 
L 265.448955 -294.239202 
L 272.412773 -291.19897 
L 279.376591 -288.354025 
L 286.340409 -285.790685 
L 293.304227 -283.559794 
L 300.268045 -281.676642 
L 307.231864 -280.127689 
L 314.195682 -279.174033 
L 321.1595 -279.174033 
L 328.123318 -279.174033 
L 335.087136 -279.174033 
L 342.050955 -279.174033 
L 349.014773 -279.174033 
L 355.978591 -279.174033 
L 362.942409 -279.174033 
L 369.906227 -279.174033 
L 376.870045 -279.174033 
L 383.833864 -279.174033 
L 390.797682 -279.174033 
L 397.7615 -279.174033 
L 404.725318 -279.174033 
L 411.689136 -279.174033 
L 418.652955 -279.174033 
L 418.652955 -274.502321 
L 418.652955 -274.502321 
L 411.689136 -274.502321 
L 404.725318 -274.502321 
L 397.7615 -274.502321 
L 390.797682 -274.502321 
L 383.833864 -274.502321 
L 376.870045 -274.502321 
L 369.906227 -274.502321 
L 362.942409 -274.502321 
L 355.978591 -274.502321 
L 349.014773 -274.502321 
L 342.050955 -274.502321 
L 335.087136 -274.502321 
L 328.123318 -274.502321 
L 321.1595 -274.502321 
L 314.195682 -274.502321 
L 307.231864 -274.502321 
L 300.268045 -274.502321 
L 293.304227 -274.502321 
L 286.340409 -274.502321 
L 279.376591 -274.502321 
L 272.412773 -274.502321 
L 265.448955 -274.502321 
L 258.485136 -274.502321 
L 251.521318 -274.502321 
L 244.5575 -274.502321 
L 237.593682 -274.502321 
L 230.629864 -274.502321 
L 223.666045 -274.502321 
L 216.702227 -274.502321 
L 209.738409 -274.502321 
L 202.774591 -274.502321 
L 195.810773 -274.502321 
L 188.846955 -274.502321 
L 181.883136 -274.502321 
L 174.919318 -274.502321 
L 167.9555 -274.502321 
L 160.991682 -274.502321 
L 154.027864 -274.502321 
L 147.064045 -274.502321 
L 140.100227 -274.502321 
L 133.136409 -274.502321 
L 126.172591 -274.502321 
L 119.208773 -274.502321 
L 112.244955 -274.502321 
L 105.281136 -274.502321 
L 98.317318 -274.502321 
L 91.3535 -274.502321 
L 84.389682 -274.502321 
L 77.425864 -274.502321 
L 70.462045 -274.502321 
z
" style="stroke: #000080; stroke-opacity: 0.2"/>
    </defs>
    <g clip-path="url(#p73df435abc)">
     <use xlink:href="#m1cf9aa82a0" x="0" y="325.85" style="fill: #000080; fill-opacity: 0.2; stroke: #000080; stroke-opacity: 0.2"/>
    </g>
   </g>
   <g id="matplotlib.axis_1"/>
   <g id="matplotlib.axis_2"/>
   <g id="line2d_1">
    <path d="M 70.462045 46.675967 
L 77.425864 46.675967 
L 84.389682 46.675967 
L 91.3535 46.675967 
L 98.317318 46.675967 
L 105.281136 46.675967 
L 112.244955 46.675967 
L 119.208773 46.675967 
L 126.172591 46.675967 
L 133.136409 46.675967 
L 140.100227 46.675967 
L 147.064045 46.675967 
L 154.027864 46.675967 
L 160.991682 46.675967 
L 167.9555 46.675967 
L 174.919318 46.675967 
L 181.883136 46.675967 
L 188.846955 46.675967 
L 195.810773 46.142478 
L 202.774591 45.137773 
L 209.738409 43.914029 
L 216.702227 42.434906 
L 223.666045 40.667481 
L 230.629864 38.58868 
L 237.593682 36.19348 
L 244.5575 33.503516 
L 251.521318 30.573232 
L 258.485136 27.490253 
L 265.448955 24.36744 
L 272.412773 21.327208 
L 279.376591 18.482263 
L 286.340409 15.918923 
L 293.304227 13.688032 
L 300.268045 11.80488 
L 307.231864 10.255927 
L 314.195682 9.30227 
L 321.1595 9.30227 
L 328.123318 9.30227 
L 335.087136 9.30227 
L 342.050955 9.30227 
L 349.014773 9.30227 
L 355.978591 9.30227 
L 362.942409 9.30227 
L 369.906227 9.30227 
L 376.870045 9.30227 
L 383.833864 9.30227 
L 390.797682 9.30227 
L 397.7615 9.30227 
L 404.725318 9.30227 
L 411.689136 9.30227 
L 418.652955 9.30227 
" clip-path="url(#p73df435abc)" style="fill: none; stroke: #dc143c; stroke-width: 1.5; stroke-linecap: square"/>
   </g>
   <g id="line2d_2">
    <path d="M 70.462045 9.30227 
L 77.425864 9.30227 
L 84.389682 9.30227 
L 91.3535 9.30227 
L 98.317318 9.30227 
L 105.281136 9.30227 
L 112.244955 9.30227 
L 119.208773 9.30227 
L 126.172591 9.30227 
L 133.136409 9.30227 
L 140.100227 9.30227 
L 147.064045 9.30227 
L 154.027864 9.30227 
L 160.991682 9.30227 
L 167.9555 9.30227 
L 174.919318 9.30227 
L 181.883136 9.30227 
L 188.846955 9.30227 
L 195.810773 9.835759 
L 202.774591 10.840464 
L 209.738409 12.064208 
L 216.702227 13.543331 
L 223.666045 15.310757 
L 230.629864 17.389557 
L 237.593682 19.784757 
L 244.5575 22.474722 
L 251.521318 25.405006 
L 258.485136 28.487985 
L 265.448955 31.610798 
L 272.412773 34.65103 
L 279.376591 37.495975 
L 286.340409 40.059315 
L 293.304227 42.290206 
L 300.268045 44.173358 
L 307.231864 45.722311 
L 314.195682 46.675967 
L 321.1595 46.675967 
L 328.123318 46.675967 
L 335.087136 46.675967 
L 342.050955 46.675967 
L 349.014773 46.675967 
L 355.978591 46.675967 
L 362.942409 46.675967 
L 369.906227 46.675967 
L 376.870045 46.675967 
L 383.833864 46.675967 
L 390.797682 46.675967 
L 397.7615 46.675967 
L 404.725318 46.675967 
L 411.689136 46.675967 
L 418.652955 46.675967 
" clip-path="url(#p73df435abc)" style="fill: none; stroke: #000080; stroke-width: 1.5; stroke-linecap: square"/>
   </g>
  </g>
  <g id="axes_2">
   <g id="patch_3">
    <path d="M 53.0525 165.064975 
L 436.0625 165.064975 
L 436.0625 72.565076 
L 53.0525 72.565076 
z
" style="fill: #ffffff"/>
   </g>
   <g id="PathCollection_1">
    <defs>
     <path id="m9984f69370" d="M 0 0.866025 
C 0.229673 0.866025 0.449969 0.774776 0.612372 0.612372 
C 0.774776 0.449969 0.866025 0.229673 0.866025 0 
C 0.866025 -0.229673 0.774776 -0.449969 0.612372 -0.612372 
C 0.449969 -0.774776 0.229673 -0.866025 0 -0.866025 
C -0.229673 -0.866025 -0.449969 -0.774776 -0.612372 -0.612372 
C -0.774776 -0.449969 -0.866025 -0.229673 -0.866025 0 
C -0.866025 0.229673 -0.774776 0.449969 -0.612372 0.612372 
C -0.449969 0.774776 -0.229673 0.866025 0 0.866025 
z
" style="stroke: #daa520"/>
    </defs>
    <g clip-path="url(#p7f0a8785b6)">
     <use xlink:href="#m9984f69370" x="283.983854" y="156.715378" style="fill: #daa520; stroke: #daa520"/>
     <use xlink:href="#m9984f69370" x="332.946072" y="114.136863" style="fill: #daa520; stroke: #daa520"/>
     <use xlink:href="#m9984f69370" x="326.206525" y="152.325684" style="fill: #daa520; stroke: #daa520"/>
     <use xlink:href="#m9984f69370" x="298.467909" y="146.699114" style="fill: #daa520; stroke: #daa520"/>
     <use xlink:href="#m9984f69370" x="399.421483" y="125.590643" style="fill: #daa520; stroke: #daa520"/>
     <use xlink:href="#m9984f69370" x="303.991912" y="146.077993" style="fill: #daa520; stroke: #daa520"/>
     <use xlink:href="#m9984f69370" x="406.258194" y="78.576482" style="fill: #daa520; stroke: #daa520"/>
     <use xlink:href="#m9984f69370" x="202.898509" y="103.073044" style="fill: #daa520; stroke: #daa520"/>
     <use xlink:href="#m9984f69370" x="316.589327" y="135.674554" style="fill: #daa520; stroke: #daa520"/>
     <use xlink:href="#m9984f69370" x="336.194407" y="134.686091" style="fill: #daa520; stroke: #daa520"/>
     <use xlink:href="#m9984f69370" x="394.800152" y="108.873107" style="fill: #daa520; stroke: #daa520"/>
     <use xlink:href="#m9984f69370" x="275.994965" y="159.202236" style="fill: #daa520; stroke: #daa520"/>
     <use xlink:href="#m9984f69370" x="404.865102" y="120.41298" style="fill: #daa520; stroke: #daa520"/>
     <use xlink:href="#m9984f69370" x="383.929832" y="98.299473" style="fill: #daa520; stroke: #daa520"/>
     <use xlink:href="#m9984f69370" x="398.711132" y="109.524057" style="fill: #daa520; stroke: #daa520"/>
     <use xlink:href="#m9984f69370" x="371.580534" y="114.408483" style="fill: #daa520; stroke: #daa520"/>
     <use xlink:href="#m9984f69370" x="399.129204" y="121.92202" style="fill: #daa520; stroke: #daa520"/>
     <use xlink:href="#m9984f69370" x="363.906693" y="125.635704" style="fill: #daa520; stroke: #daa520"/>
     <use xlink:href="#m9984f69370" x="213.038429" y="116.441735" style="fill: #daa520; stroke: #daa520"/>
     <use xlink:href="#m9984f69370" x="112.813341" y="126.888519" style="fill: #daa520; stroke: #daa520"/>
     <use xlink:href="#m9984f69370" x="77.434361" y="130.437197" style="fill: #daa520; stroke: #daa520"/>
     <use xlink:href="#m9984f69370" x="267.929757" y="158.148771" style="fill: #daa520; stroke: #daa520"/>
     <use xlink:href="#m9984f69370" x="394.751041" y="115.008984" style="fill: #daa520; stroke: #daa520"/>
     <use xlink:href="#m9984f69370" x="377.681628" y="119.053877" style="fill: #daa520; stroke: #daa520"/>
     <use xlink:href="#m9984f69370" x="98.184391" y="134.006846" style="fill: #daa520; stroke: #daa520"/>
     <use xlink:href="#m9984f69370" x="264.48779" y="143.111312" style="fill: #daa520; stroke: #daa520"/>
     <use xlink:href="#m9984f69370" x="356.060164" y="133.612103" style="fill: #daa520; stroke: #daa520"/>
     <use xlink:href="#m9984f69370" x="239.894148" y="152.787898" style="fill: #daa520; stroke: #daa520"/>
     <use xlink:href="#m9984f69370" x="304.516678" y="153.578847" style="fill: #daa520; stroke: #daa520"/>
     <use xlink:href="#m9984f69370" x="257.889511" y="142.033541" style="fill: #daa520; stroke: #daa520"/>
     <use xlink:href="#m9984f69370" x="393.810865" y="128.320589" style="fill: #daa520; stroke: #daa520"/>
     <use xlink:href="#m9984f69370" x="418.419132" y="104.641742" style="fill: #daa520; stroke: #daa520"/>
     <use xlink:href="#m9984f69370" x="293.298676" y="148.418793" style="fill: #daa520; stroke: #daa520"/>
     <use xlink:href="#m9984f69370" x="243.686356" y="130.867296" style="fill: #daa520; stroke: #daa520"/>
     <use xlink:href="#m9984f69370" x="359.140417" y="130.725324" style="fill: #daa520; stroke: #daa520"/>
     <use xlink:href="#m9984f69370" x="407.024817" y="81.585941" style="fill: #daa520; stroke: #daa520"/>
     <use xlink:href="#m9984f69370" x="302.710398" y="144.532338" style="fill: #daa520; stroke: #daa520"/>
     <use xlink:href="#m9984f69370" x="325.427511" y="133.018376" style="fill: #daa520; stroke: #daa520"/>
     <use xlink:href="#m9984f69370" x="307.235267" y="149.420595" style="fill: #daa520; stroke: #daa520"/>
     <use xlink:href="#m9984f69370" x="275.952803" y="147.182776" style="fill: #daa520; stroke: #daa520"/>
     <use xlink:href="#m9984f69370" x="400.40015" y="117.618359" style="fill: #daa520; stroke: #daa520"/>
     <use xlink:href="#m9984f69370" x="270.75059" y="130.540889" style="fill: #daa520; stroke: #daa520"/>
     <use xlink:href="#m9984f69370" x="168.473276" y="98.88136" style="fill: #daa520; stroke: #daa520"/>
     <use xlink:href="#m9984f69370" x="352.46533" y="138.974103" style="fill: #daa520; stroke: #daa520"/>
     <use xlink:href="#m9984f69370" x="219.263644" y="135.898048" style="fill: #daa520; stroke: #daa520"/>
     <use xlink:href="#m9984f69370" x="272.341866" y="160.860434" style="fill: #daa520; stroke: #daa520"/>
     <use xlink:href="#m9984f69370" x="198.402714" y="101.449763" style="fill: #daa520; stroke: #daa520"/>
     <use xlink:href="#m9984f69370" x="394.052023" y="84.584808" style="fill: #daa520; stroke: #daa520"/>
     <use xlink:href="#m9984f69370" x="405.358598" y="76.769616" style="fill: #daa520; stroke: #daa520"/>
     <use xlink:href="#m9984f69370" x="349.920611" y="152.789444" style="fill: #daa520; stroke: #daa520"/>
     <use xlink:href="#m9984f69370" x="356.019222" y="133.647078" style="fill: #daa520; stroke: #daa520"/>
     <use xlink:href="#m9984f69370" x="87.822502" y="90.382588" style="fill: #daa520; stroke: #daa520"/>
     <use xlink:href="#m9984f69370" x="407.694656" y="117.022173" style="fill: #daa520; stroke: #daa520"/>
     <use xlink:href="#m9984f69370" x="344.076355" y="154.95002" style="fill: #daa520; stroke: #daa520"/>
     <use xlink:href="#m9984f69370" x="250.573001" y="149.367658" style="fill: #daa520; stroke: #daa520"/>
     <use xlink:href="#m9984f69370" x="348.234811" y="151.842525" style="fill: #daa520; stroke: #daa520"/>
     <use xlink:href="#m9984f69370" x="395.051999" y="94.533795" style="fill: #daa520; stroke: #daa520"/>
     <use xlink:href="#m9984f69370" x="346.67948" y="139.566775" style="fill: #daa520; stroke: #daa520"/>
     <use xlink:href="#m9984f69370" x="356.391557" y="151.895271" style="fill: #daa520; stroke: #daa520"/>
     <use xlink:href="#m9984f69370" x="325.093734" y="145.631915" style="fill: #daa520; stroke: #daa520"/>
     <use xlink:href="#m9984f69370" x="136.249135" y="115.287752" style="fill: #daa520; stroke: #daa520"/>
     <use xlink:href="#m9984f69370" x="109.15539" y="132.224184" style="fill: #daa520; stroke: #daa520"/>
     <use xlink:href="#m9984f69370" x="138.706699" y="99.513855" style="fill: #daa520; stroke: #daa520"/>
     <use xlink:href="#m9984f69370" x="394.429986" y="84.20739" style="fill: #daa520; stroke: #daa520"/>
     <use xlink:href="#m9984f69370" x="309.761158" y="137.119323" style="fill: #daa520; stroke: #daa520"/>
     <use xlink:href="#m9984f69370" x="394.01325" y="81.327654" style="fill: #daa520; stroke: #daa520"/>
     <use xlink:href="#m9984f69370" x="252.616132" y="147.333566" style="fill: #daa520; stroke: #daa520"/>
     <use xlink:href="#m9984f69370" x="358.571877" y="149.23662" style="fill: #daa520; stroke: #daa520"/>
     <use xlink:href="#m9984f69370" x="291.987674" y="140.079653" style="fill: #daa520; stroke: #daa520"/>
     <use xlink:href="#m9984f69370" x="126.445112" y="114.024044" style="fill: #daa520; stroke: #daa520"/>
     <use xlink:href="#m9984f69370" x="293.005702" y="143.742241" style="fill: #daa520; stroke: #daa520"/>
     <use xlink:href="#m9984f69370" x="368.031147" y="137.120422" style="fill: #daa520; stroke: #daa520"/>
     <use xlink:href="#m9984f69370" x="389.202357" y="101.745513" style="fill: #daa520; stroke: #daa520"/>
     <use xlink:href="#m9984f69370" x="361.198559" y="135.716027" style="fill: #daa520; stroke: #daa520"/>
     <use xlink:href="#m9984f69370" x="338.618383" y="157.908651" style="fill: #daa520; stroke: #daa520"/>
     <use xlink:href="#m9984f69370" x="125.546996" y="112.682189" style="fill: #daa520; stroke: #daa520"/>
     <use xlink:href="#m9984f69370" x="371.900243" y="137.305698" style="fill: #daa520; stroke: #daa520"/>
     <use xlink:href="#m9984f69370" x="386.974501" y="139.513883" style="fill: #daa520; stroke: #daa520"/>
     <use xlink:href="#m9984f69370" x="359.805172" y="150.695535" style="fill: #daa520; stroke: #daa520"/>
     <use xlink:href="#m9984f69370" x="340.715418" y="138.0891" style="fill: #daa520; stroke: #daa520"/>
     <use xlink:href="#m9984f69370" x="332.907547" y="136.918365" style="fill: #daa520; stroke: #daa520"/>
     <use xlink:href="#m9984f69370" x="325.052739" y="137.994479" style="fill: #daa520; stroke: #daa520"/>
     <use xlink:href="#m9984f69370" x="306.165019" y="124.789501" style="fill: #daa520; stroke: #daa520"/>
     <use xlink:href="#m9984f69370" x="360.881797" y="130.666153" style="fill: #daa520; stroke: #daa520"/>
     <use xlink:href="#m9984f69370" x="344.323284" y="118.39434" style="fill: #daa520; stroke: #daa520"/>
     <use xlink:href="#m9984f69370" x="318.155474" y="151.243228" style="fill: #daa520; stroke: #daa520"/>
     <use xlink:href="#m9984f69370" x="221.248718" y="137.476218" style="fill: #daa520; stroke: #daa520"/>
     <use xlink:href="#m9984f69370" x="99.606634" y="132.975457" style="fill: #daa520; stroke: #daa520"/>
     <use xlink:href="#m9984f69370" x="403.578966" y="93.715644" style="fill: #daa520; stroke: #daa520"/>
     <use xlink:href="#m9984f69370" x="106.098817" y="112.478651" style="fill: #daa520; stroke: #daa520"/>
     <use xlink:href="#m9984f69370" x="359.905317" y="130.384138" style="fill: #daa520; stroke: #daa520"/>
     <use xlink:href="#m9984f69370" x="214.491385" y="112.397276" style="fill: #daa520; stroke: #daa520"/>
     <use xlink:href="#m9984f69370" x="255.842224" y="122.53934" style="fill: #daa520; stroke: #daa520"/>
     <use xlink:href="#m9984f69370" x="387.238533" y="102.686329" style="fill: #daa520; stroke: #daa520"/>
     <use xlink:href="#m9984f69370" x="261.80198" y="154.148898" style="fill: #daa520; stroke: #daa520"/>
     <use xlink:href="#m9984f69370" x="331.959303" y="149.031102" style="fill: #daa520; stroke: #daa520"/>
     <use xlink:href="#m9984f69370" x="410.621012" y="82.806795" style="fill: #daa520; stroke: #daa520"/>
     <use xlink:href="#m9984f69370" x="309.167913" y="128.959066" style="fill: #daa520; stroke: #daa520"/>
     <use xlink:href="#m9984f69370" x="395.077246" y="80.221026" style="fill: #daa520; stroke: #daa520"/>
     <use xlink:href="#m9984f69370" x="400.850953" y="122.66492" style="fill: #daa520; stroke: #daa520"/>
     <use xlink:href="#m9984f69370" x="265.336468" y="160.793637" style="fill: #daa520; stroke: #daa520"/>
    </g>
   </g>
   <g id="matplotlib.axis_3"/>
   <g id="matplotlib.axis_4">
    <g id="ytick_1">
     <g id="line2d_3">
      <defs>
       <path id="m13f3121ef0" d="M 0 0 
L -3.5 0 
" style="stroke: #696969; stroke-width: 0.8"/>
      </defs>
      <g>
       <use xlink:href="#m13f3121ef0" x="53.0525" y="137.194765" style="fill: #696969; stroke: #696969; stroke-width: 0.8"/>
      </g>
     </g>
     <g id="text_1">
      <!-- 0 -->
      <g style="fill: #696969" transform="translate(35.8725 143.273515) scale(0.16 -0.16)">
       <defs>
        <path id="DejaVuSans-30" d="M 2034 4250 
Q 1547 4250 1301 3770 
Q 1056 3291 1056 2328 
Q 1056 1369 1301 889 
Q 1547 409 2034 409 
Q 2525 409 2770 889 
Q 3016 1369 3016 2328 
Q 3016 3291 2770 3770 
Q 2525 4250 2034 4250 
z
M 2034 4750 
Q 2819 4750 3233 4129 
Q 3647 3509 3647 2328 
Q 3647 1150 3233 529 
Q 2819 -91 2034 -91 
Q 1250 -91 836 529 
Q 422 1150 422 2328 
Q 422 3509 836 4129 
Q 1250 4750 2034 4750 
z
" transform="scale(0.015625)"/>
       </defs>
       <use xlink:href="#DejaVuSans-30"/>
      </g>
     </g>
    </g>
    <g id="ytick_2">
     <g id="line2d_4">
      <g>
       <use xlink:href="#m13f3121ef0" x="53.0525" y="75.879005" style="fill: #696969; stroke: #696969; stroke-width: 0.8"/>
      </g>
     </g>
     <g id="text_2">
      <!-- 5 -->
      <g style="fill: #696969" transform="translate(35.8725 81.957755) scale(0.16 -0.16)">
       <defs>
        <path id="DejaVuSans-35" d="M 691 4666 
L 3169 4666 
L 3169 4134 
L 1269 4134 
L 1269 2991 
Q 1406 3038 1543 3061 
Q 1681 3084 1819 3084 
Q 2600 3084 3056 2656 
Q 3513 2228 3513 1497 
Q 3513 744 3044 326 
Q 2575 -91 1722 -91 
Q 1428 -91 1123 -41 
Q 819 9 494 109 
L 494 744 
Q 775 591 1075 516 
Q 1375 441 1709 441 
Q 2250 441 2565 725 
Q 2881 1009 2881 1497 
Q 2881 1984 2565 2268 
Q 2250 2553 1709 2553 
Q 1456 2553 1204 2497 
Q 953 2441 691 2322 
L 691 4666 
z
" transform="scale(0.015625)"/>
       </defs>
       <use xlink:href="#DejaVuSans-35"/>
      </g>
     </g>
    </g>
   </g>
   <g id="line2d_5">
    <path d="M 70.462045 108.935649 
L 77.425864 114.025332 
L 84.389682 118.265947 
L 91.3535 120.95235 
L 98.317318 121.656381 
L 105.281136 120.315966 
L 112.244955 117.28705 
L 119.208773 113.33603 
L 126.172591 109.527497 
L 133.136409 106.982726 
L 140.100227 106.557045 
L 147.064045 108.560984 
L 154.027864 112.662807 
L 160.991682 118.029275 
L 167.9555 123.635398 
L 174.919318 128.590539 
L 181.883136 132.345441 
L 188.846955 134.739153 
L 195.810773 135.936392 
L 202.774591 136.328694 
L 209.738409 136.431226 
L 216.702227 136.761901 
L 223.666045 137.694131 
L 230.629864 139.32169 
L 237.593682 141.408226 
L 244.5575 143.46762 
L 251.521318 144.947698 
L 258.485136 145.427971 
L 265.448955 144.742414 
L 272.412773 142.996475 
L 279.376591 140.510897 
L 286.340409 137.744878 
L 293.304227 135.223653 
L 300.268045 133.459144 
L 307.231864 132.845782 
L 314.195682 133.541811 
L 321.1595 135.380384 
L 328.123318 137.862266 
L 335.087136 140.254194 
L 342.050955 141.770371 
L 349.014773 141.775433 
L 355.978591 139.935418 
L 362.942409 136.266373 
L 369.906227 131.078829 
L 376.870045 124.865327 
L 383.833864 118.196163 
L 390.797682 111.662427 
L 397.7615 105.855717 
L 404.725318 101.340894 
L 411.689136 98.588831 
L 418.652955 97.877329 
" clip-path="url(#p7f0a8785b6)" style="fill: none; stroke: #000000; stroke-width: 2; stroke-linecap: square"/>
   </g>
   <g id="line2d_6">
    <path d="M 70.462045 140.295037 
L 77.425864 133.628884 
L 84.389682 127.909619 
L 91.3535 123.078234 
L 98.317318 119.076907 
L 105.281136 115.849005 
L 112.244955 113.339081 
L 119.208773 111.492876 
L 126.172591 110.257317 
L 133.136409 109.580519 
L 140.100227 109.411784 
L 147.064045 109.701602 
L 154.027864 110.401649 
L 160.991682 111.464788 
L 167.9555 112.845071 
L 174.919318 114.497736 
L 181.883136 116.379207 
L 188.846955 118.447098 
L 195.810773 120.660208 
L 202.774591 122.978524 
L 209.738409 125.363219 
L 216.702227 127.776656 
L 223.666045 130.182383 
L 230.629864 132.545135 
L 237.593682 134.830836 
L 244.5575 137.006594 
L 251.521318 139.040709 
L 258.485136 140.902663 
L 265.448955 142.563129 
L 272.412773 143.993966 
L 279.376591 145.168219 
L 286.340409 146.060123 
L 293.304227 146.645096 
L 300.268045 146.899748 
L 307.231864 146.801872 
L 314.195682 146.330452 
L 321.1595 145.465656 
L 328.123318 144.18884 
L 335.087136 142.482548 
L 342.050955 140.330512 
L 349.014773 137.717649 
L 355.978591 134.630064 
L 362.942409 131.05505 
L 369.906227 126.981087 
L 376.870045 122.39784 
L 383.833864 117.296166 
L 390.797682 111.668104 
L 397.7615 105.506882 
L 404.725318 98.806918 
L 411.689136 91.563813 
L 418.652955 83.774358 
" clip-path="url(#p7f0a8785b6)" style="fill: none; stroke-dasharray: 7.4,3.2; stroke-dashoffset: 0; stroke: #34b6c6; stroke-width: 2"/>
   </g>
   <g id="line2d_7">
    <path d="M 70.462045 136.442159 
L 77.425864 131.24089 
L 84.389682 126.661434 
L 91.3535 122.658769 
L 98.317318 119.189401 
L 105.281136 116.213554 
L 112.244955 113.699274 
L 119.208773 111.629305 
L 126.172591 110.011349 
L 133.136409 108.89154 
L 140.100227 108.369225 
L 147.064045 108.604364 
L 154.027864 109.785615 
L 160.991682 111.997975 
L 167.9555 115.015066 
L 174.919318 118.292983 
L 181.883136 121.317113 
L 188.846955 123.891649 
L 195.810773 126.081038 
L 202.774591 128.022078 
L 209.738409 129.82007 
L 216.702227 131.531674 
L 223.666045 133.178614 
L 230.629864 134.762849 
L 237.593682 136.276424 
L 244.5575 137.706837 
L 251.521318 139.0397 
L 258.485136 140.260006 
L 265.448955 141.35271 
L 272.412773 142.302967 
L 279.376591 143.096226 
L 286.340409 143.718216 
L 293.304227 144.154886 
L 300.268045 144.39227 
L 307.231864 144.416279 
L 314.195682 144.212332 
L 321.1595 143.764708 
L 328.123318 143.055266 
L 335.087136 142.060772 
L 342.050955 140.747011 
L 349.014773 139.055549 
L 355.978591 136.874702 
L 362.942409 133.983911 
L 369.906227 129.993226 
L 376.870045 124.468965 
L 383.833864 117.575952 
L 390.797682 110.460568 
L 397.7615 104.072922 
L 404.725318 98.413146 
L 411.689136 93.116263 
L 418.652955 87.895563 
" clip-path="url(#p7f0a8785b6)" style="fill: none; stroke-dasharray: 7.4,3.2; stroke-dashoffset: 0; stroke: #9370db; stroke-width: 2"/>
   </g>
   <g id="line2d_8">
    <path d="M 70.462045 118.72139 
L 77.425864 118.328768 
L 84.389682 117.876879 
L 91.3535 117.354284 
L 98.317318 116.750988 
L 105.281136 116.062817 
L 112.244955 115.299633 
L 119.208773 114.499092 
L 126.172591 113.747157 
L 133.136409 113.205055 
L 140.100227 113.138847 
L 147.064045 113.934224 
L 154.027864 116.032671 
L 160.991682 119.666709 
L 167.9555 124.444405 
L 174.919318 129.337062 
L 181.883136 133.372968 
L 188.846955 136.216503 
L 195.810773 138.051028 
L 202.774591 139.203011 
L 209.738409 139.934304 
L 216.702227 140.407857 
L 223.666045 140.715124 
L 230.629864 140.906405 
L 237.593682 141.010569 
L 244.5575 141.045769 
L 251.521318 141.024777 
L 258.485136 140.957519 
L 265.448955 140.852224 
L 272.412773 140.715923 
L 279.376591 140.554612 
L 286.340409 140.373242 
L 293.304227 140.175588 
L 300.268045 139.963991 
L 307.231864 139.738926 
L 314.195682 139.498279 
L 321.1595 139.236041 
L 328.123318 138.939751 
L 335.087136 138.585149 
L 342.050955 138.124401 
L 349.014773 137.459613 
L 355.978591 136.384762 
L 362.942409 134.474439 
L 369.906227 130.96278 
L 376.870045 124.994842 
L 383.833864 116.911255 
L 390.797682 109.014453 
L 397.7615 103.212649 
L 404.725318 99.512208 
L 411.689136 97.187556 
L 418.652955 95.668068 
" clip-path="url(#p7f0a8785b6)" style="fill: none; stroke-dasharray: 12.8,3.2,2,3.2; stroke-dashoffset: 0; stroke: #ff0000; stroke-width: 2"/>
   </g>
   <g id="patch_4">
    <path d="M 53.0525 165.064975 
L 53.0525 72.565076 
" style="fill: none; stroke: #000000; stroke-width: 0.8; stroke-linejoin: miter; stroke-linecap: square"/>
   </g>
   <g id="patch_5">
    <path d="M 436.0625 165.064975 
L 436.0625 72.565076 
" style="fill: none; stroke: #000000; stroke-width: 0.8; stroke-linejoin: miter; stroke-linecap: square"/>
   </g>
   <g id="patch_6">
    <path d="M 53.0525 165.064975 
L 436.0625 165.064975 
" style="fill: none; stroke: #000000; stroke-width: 0.8; stroke-linejoin: miter; stroke-linecap: square"/>
   </g>
   <g id="patch_7">
    <path d="M 53.0525 72.565076 
L 436.0625 72.565076 
" style="fill: none; stroke: #000000; stroke-width: 0.8; stroke-linejoin: miter; stroke-linecap: square"/>
   </g>
  </g>
  <g id="axes_3">
   <g id="patch_8">
    <path d="M 53.0525 276.68 
L 436.0625 276.68 
L 436.0625 184.180101 
L 53.0525 184.180101 
z
" style="fill: #ffffff"/>
   </g>
   <g id="PathCollection_2">
    <g clip-path="url(#p5e03c95db0)">
     <use xlink:href="#m9984f69370" x="283.983854" y="201.730167" style="fill: #daa520; stroke: #daa520"/>
     <use xlink:href="#m9984f69370" x="332.946072" y="255.869812" style="fill: #daa520; stroke: #daa520"/>
     <use xlink:href="#m9984f69370" x="326.206525" y="205.6787" style="fill: #daa520; stroke: #daa520"/>
     <use xlink:href="#m9984f69370" x="298.467909" y="214.454524" style="fill: #daa520; stroke: #daa520"/>
     <use xlink:href="#m9984f69370" x="399.421483" y="192.257491" style="fill: #daa520; stroke: #daa520"/>
     <use xlink:href="#m9984f69370" x="303.991912" y="215.046413" style="fill: #daa520; stroke: #daa520"/>
     <use xlink:href="#m9984f69370" x="406.258194" y="250.255808" style="fill: #daa520; stroke: #daa520"/>
     <use xlink:href="#m9984f69370" x="202.898509" y="271.219572" style="fill: #daa520; stroke: #daa520"/>
     <use xlink:href="#m9984f69370" x="316.589327" y="228.260512" style="fill: #daa520; stroke: #daa520"/>
     <use xlink:href="#m9984f69370" x="336.194407" y="228.390611" style="fill: #daa520; stroke: #daa520"/>
     <use xlink:href="#m9984f69370" x="394.800152" y="218.690352" style="fill: #daa520; stroke: #daa520"/>
     <use xlink:href="#m9984f69370" x="275.994965" y="198.697769" style="fill: #daa520; stroke: #daa520"/>
     <use xlink:href="#m9984f69370" x="404.865102" y="195.52706" style="fill: #daa520; stroke: #daa520"/>
     <use xlink:href="#m9984f69370" x="383.929832" y="247.823404" style="fill: #daa520; stroke: #daa520"/>
     <use xlink:href="#m9984f69370" x="398.711132" y="214.12893" style="fill: #daa520; stroke: #daa520"/>
     <use xlink:href="#m9984f69370" x="371.580534" y="243.673602" style="fill: #daa520; stroke: #daa520"/>
     <use xlink:href="#m9984f69370" x="399.129204" y="197.353551" style="fill: #daa520; stroke: #daa520"/>
     <use xlink:href="#m9984f69370" x="363.906693" y="234.534178" style="fill: #daa520; stroke: #daa520"/>
     <use xlink:href="#m9984f69370" x="213.038429" y="254.778254" style="fill: #daa520; stroke: #daa520"/>
     <use xlink:href="#m9984f69370" x="112.813341" y="207.860854" style="fill: #daa520; stroke: #daa520"/>
     <use xlink:href="#m9984f69370" x="77.434361" y="207.257307" style="fill: #daa520; stroke: #daa520"/>
     <use xlink:href="#m9984f69370" x="267.929757" y="200.321017" style="fill: #daa520; stroke: #daa520"/>
     <use xlink:href="#m9984f69370" x="394.751041" y="210.609764" style="fill: #daa520; stroke: #daa520"/>
     <use xlink:href="#m9984f69370" x="377.681628" y="230.038805" style="fill: #daa520; stroke: #daa520"/>
     <use xlink:href="#m9984f69370" x="98.184391" y="200.451359" style="fill: #daa520; stroke: #daa520"/>
     <use xlink:href="#m9984f69370" x="264.48779" y="220.335252" style="fill: #daa520; stroke: #daa520"/>
     <use xlink:href="#m9984f69370" x="356.060164" y="226.961211" style="fill: #daa520; stroke: #daa520"/>
     <use xlink:href="#m9984f69370" x="239.894148" y="207.721454" style="fill: #daa520; stroke: #daa520"/>
     <use xlink:href="#m9984f69370" x="304.516678" y="205.081412" style="fill: #daa520; stroke: #daa520"/>
     <use xlink:href="#m9984f69370" x="257.889511" y="221.891248" style="fill: #daa520; stroke: #daa520"/>
     <use xlink:href="#m9984f69370" x="393.810865" y="194.0018" style="fill: #daa520; stroke: #daa520"/>
     <use xlink:href="#m9984f69370" x="418.419132" y="211.46863" style="fill: #daa520; stroke: #daa520"/>
     <use xlink:href="#m9984f69370" x="293.298676" y="212.381582" style="fill: #daa520; stroke: #daa520"/>
     <use xlink:href="#m9984f69370" x="243.686356" y="236.797951" style="fill: #daa520; stroke: #daa520"/>
     <use xlink:href="#m9984f69370" x="359.140417" y="229.846608" style="fill: #daa520; stroke: #daa520"/>
     <use xlink:href="#m9984f69370" x="407.024817" y="245.894996" style="fill: #daa520; stroke: #daa520"/>
     <use xlink:href="#m9984f69370" x="302.710398" y="217.149874" style="fill: #daa520; stroke: #daa520"/>
     <use xlink:href="#m9984f69370" x="325.427511" y="231.31557" style="fill: #daa520; stroke: #daa520"/>
     <use xlink:href="#m9984f69370" x="307.235267" y="210.474522" style="fill: #daa520; stroke: #daa520"/>
     <use xlink:href="#m9984f69370" x="275.952803" y="214.630933" style="fill: #daa520; stroke: #daa520"/>
     <use xlink:href="#m9984f69370" x="400.40015" y="202.076603" style="fill: #daa520; stroke: #daa520"/>
     <use xlink:href="#m9984f69370" x="270.75059" y="236.841263" style="fill: #daa520; stroke: #daa520"/>
     <use xlink:href="#m9984f69370" x="168.473276" y="257.687927" style="fill: #daa520; stroke: #daa520"/>
     <use xlink:href="#m9984f69370" x="352.46533" y="220.688363" style="fill: #daa520; stroke: #daa520"/>
     <use xlink:href="#m9984f69370" x="219.263644" y="229.456612" style="fill: #daa520; stroke: #daa520"/>
     <use xlink:href="#m9984f69370" x="272.341866" y="196.608132" style="fill: #daa520; stroke: #daa520"/>
     <use xlink:href="#m9984f69370" x="198.402714" y="272.475459" style="fill: #daa520; stroke: #daa520"/>
     <use xlink:href="#m9984f69370" x="394.052023" y="251.702372" style="fill: #daa520; stroke: #daa520"/>
     <use xlink:href="#m9984f69370" x="405.358598" y="253.111757" style="fill: #daa520; stroke: #daa520"/>
     <use xlink:href="#m9984f69370" x="349.920611" y="202.841744" style="fill: #daa520; stroke: #daa520"/>
     <use xlink:href="#m9984f69370" x="356.019222" y="226.925785" style="fill: #daa520; stroke: #daa520"/>
     <use xlink:href="#m9984f69370" x="87.822502" y="259.422792" style="fill: #daa520; stroke: #daa520"/>
     <use xlink:href="#m9984f69370" x="407.694656" y="198.614144" style="fill: #daa520; stroke: #daa520"/>
     <use xlink:href="#m9984f69370" x="344.076355" y="200.785367" style="fill: #daa520; stroke: #daa520"/>
     <use xlink:href="#m9984f69370" x="250.573001" y="212.256905" style="fill: #daa520; stroke: #daa520"/>
     <use xlink:href="#m9984f69370" x="348.234811" y="204.361992" style="fill: #daa520; stroke: #daa520"/>
     <use xlink:href="#m9984f69370" x="395.051999" y="237.430172" style="fill: #daa520; stroke: #daa520"/>
     <use xlink:href="#m9984f69370" x="346.67948" y="220.853023" style="fill: #daa520; stroke: #daa520"/>
     <use xlink:href="#m9984f69370" x="356.391557" y="202.63688" style="fill: #daa520; stroke: #daa520"/>
     <use xlink:href="#m9984f69370" x="325.093734" y="214.615259" style="fill: #daa520; stroke: #daa520"/>
     <use xlink:href="#m9984f69370" x="136.249135" y="220.403037" style="fill: #daa520; stroke: #daa520"/>
     <use xlink:href="#m9984f69370" x="109.15539" y="201.3332" style="fill: #daa520; stroke: #daa520"/>
     <use xlink:href="#m9984f69370" x="138.706699" y="241.312466" style="fill: #daa520; stroke: #daa520"/>
     <use xlink:href="#m9984f69370" x="394.429986" y="251.784912" style="fill: #daa520; stroke: #daa520"/>
     <use xlink:href="#m9984f69370" x="309.761158" y="226.666899" style="fill: #daa520; stroke: #daa520"/>
     <use xlink:href="#m9984f69370" x="394.01325" y="256.063136" style="fill: #daa520; stroke: #daa520"/>
     <use xlink:href="#m9984f69370" x="252.616132" y="214.935192" style="fill: #daa520; stroke: #daa520"/>
     <use xlink:href="#m9984f69370" x="358.571877" y="205.502625" style="fill: #daa520; stroke: #daa520"/>
     <use xlink:href="#m9984f69370" x="291.987674" y="223.485957" style="fill: #daa520; stroke: #daa520"/>
     <use xlink:href="#m9984f69370" x="126.445112" y="222.905614" style="fill: #daa520; stroke: #daa520"/>
     <use xlink:href="#m9984f69370" x="293.005702" y="218.591788" style="fill: #daa520; stroke: #daa520"/>
     <use xlink:href="#m9984f69370" x="368.031147" y="216.681037" style="fill: #daa520; stroke: #daa520"/>
     <use xlink:href="#m9984f69370" x="389.202357" y="235.143189" style="fill: #daa520; stroke: #daa520"/>
     <use xlink:href="#m9984f69370" x="361.198559" y="222.447426" style="fill: #daa520; stroke: #daa520"/>
     <use xlink:href="#m9984f69370" x="338.618383" y="197.408227" style="fill: #daa520; stroke: #daa520"/>
     <use xlink:href="#m9984f69370" x="125.546996" y="224.801618" style="fill: #daa520; stroke: #daa520"/>
     <use xlink:href="#m9984f69370" x="371.900243" y="212.99891" style="fill: #daa520; stroke: #daa520"/>
     <use xlink:href="#m9984f69370" x="386.974501" y="188.384642" style="fill: #daa520; stroke: #daa520"/>
     <use xlink:href="#m9984f69370" x="359.805172" y="203.138057" style="fill: #daa520; stroke: #daa520"/>
     <use xlink:href="#m9984f69370" x="340.715418" y="223.487309" style="fill: #daa520; stroke: #daa520"/>
     <use xlink:href="#m9984f69370" x="332.907547" y="225.675492" style="fill: #daa520; stroke: #daa520"/>
     <use xlink:href="#m9984f69370" x="325.052739" y="224.741052" style="fill: #daa520; stroke: #daa520"/>
     <use xlink:href="#m9984f69370" x="306.165019" y="243.170259" style="fill: #daa520; stroke: #daa520"/>
     <use xlink:href="#m9984f69370" x="360.881797" y="229.271153" style="fill: #daa520; stroke: #daa520"/>
     <use xlink:href="#m9984f69370" x="344.323284" y="249.211594" style="fill: #daa520; stroke: #daa520"/>
     <use xlink:href="#m9984f69370" x="318.155474" y="207.546445" style="fill: #daa520; stroke: #daa520"/>
     <use xlink:href="#m9984f69370" x="221.248718" y="227.479613" style="fill: #daa520; stroke: #daa520"/>
     <use xlink:href="#m9984f69370" x="99.606634" y="201.6417" style="fill: #daa520; stroke: #daa520"/>
     <use xlink:href="#m9984f69370" x="403.578966" y="231.647532" style="fill: #daa520; stroke: #daa520"/>
     <use xlink:href="#m9984f69370" x="106.098817" y="227.944445" style="fill: #daa520; stroke: #daa520"/>
     <use xlink:href="#m9984f69370" x="359.905317" y="230.02388" style="fill: #daa520; stroke: #daa520"/>
     <use xlink:href="#m9984f69370" x="214.491385" y="260.264933" style="fill: #daa520; stroke: #daa520"/>
     <use xlink:href="#m9984f69370" x="255.842224" y="247.761511" style="fill: #daa520; stroke: #daa520"/>
     <use xlink:href="#m9984f69370" x="387.238533" y="236.796202" style="fill: #daa520; stroke: #daa520"/>
     <use xlink:href="#m9984f69370" x="261.80198" y="205.761737" style="fill: #daa520; stroke: #daa520"/>
     <use xlink:href="#m9984f69370" x="331.959303" y="209.685335" style="fill: #daa520; stroke: #daa520"/>
     <use xlink:href="#m9984f69370" x="410.621012" y="242.75843" style="fill: #daa520; stroke: #daa520"/>
     <use xlink:href="#m9984f69370" x="309.167913" y="237.510169" style="fill: #daa520; stroke: #daa520"/>
     <use xlink:href="#m9984f69370" x="395.077246" y="256.375291" style="fill: #daa520; stroke: #daa520"/>
     <use xlink:href="#m9984f69370" x="400.850953" y="195.059167" style="fill: #daa520; stroke: #daa520"/>
     <use xlink:href="#m9984f69370" x="265.336468" y="196.877924" style="fill: #daa520; stroke: #daa520"/>
    </g>
   </g>
   <g id="matplotlib.axis_5">
    <g id="xtick_1">
     <g id="line2d_9">
      <defs>
       <path id="m2ef3252db7" d="M 0 0 
L 0 3.5 
" style="stroke: #696969; stroke-width: 0.8"/>
      </defs>
      <g>
       <use xlink:href="#m2ef3252db7" x="70.462045" y="276.68" style="fill: #696969; stroke: #696969; stroke-width: 0.8"/>
      </g>
     </g>
     <g id="text_3">
      <!-- −1.0 -->
      <g style="fill: #696969" transform="translate(51.035795 295.8375) scale(0.16 -0.16)">
       <defs>
        <path id="DejaVuSans-2212" d="M 678 2272 
L 4684 2272 
L 4684 1741 
L 678 1741 
L 678 2272 
z
" transform="scale(0.015625)"/>
        <path id="DejaVuSans-31" d="M 794 531 
L 1825 531 
L 1825 4091 
L 703 3866 
L 703 4441 
L 1819 4666 
L 2450 4666 
L 2450 531 
L 3481 531 
L 3481 0 
L 794 0 
L 794 531 
z
" transform="scale(0.015625)"/>
        <path id="DejaVuSans-2e" d="M 684 794 
L 1344 794 
L 1344 0 
L 684 0 
L 684 794 
z
" transform="scale(0.015625)"/>
       </defs>
       <use xlink:href="#DejaVuSans-2212"/>
       <use xlink:href="#DejaVuSans-31" x="83.789062"/>
       <use xlink:href="#DejaVuSans-2e" x="147.412109"/>
       <use xlink:href="#DejaVuSans-30" x="179.199219"/>
      </g>
     </g>
    </g>
    <g id="xtick_2">
     <g id="line2d_10">
      <g>
       <use xlink:href="#m2ef3252db7" x="157.509773" y="276.68" style="fill: #696969; stroke: #696969; stroke-width: 0.8"/>
      </g>
     </g>
     <g id="text_4">
      <!-- −0.5 -->
      <g style="fill: #696969" transform="translate(138.083523 295.8375) scale(0.16 -0.16)">
       <use xlink:href="#DejaVuSans-2212"/>
       <use xlink:href="#DejaVuSans-30" x="83.789062"/>
       <use xlink:href="#DejaVuSans-2e" x="147.412109"/>
       <use xlink:href="#DejaVuSans-35" x="179.199219"/>
      </g>
     </g>
    </g>
    <g id="xtick_3">
     <g id="line2d_11">
      <g>
       <use xlink:href="#m2ef3252db7" x="244.5575" y="276.68" style="fill: #696969; stroke: #696969; stroke-width: 0.8"/>
      </g>
     </g>
     <g id="text_5">
      <!-- 0.0 -->
      <g style="fill: #696969" transform="translate(231.835 295.8375) scale(0.16 -0.16)">
       <use xlink:href="#DejaVuSans-30"/>
       <use xlink:href="#DejaVuSans-2e" x="63.623047"/>
       <use xlink:href="#DejaVuSans-30" x="95.410156"/>
      </g>
     </g>
    </g>
    <g id="xtick_4">
     <g id="line2d_12">
      <g>
       <use xlink:href="#m2ef3252db7" x="331.605227" y="276.68" style="fill: #696969; stroke: #696969; stroke-width: 0.8"/>
      </g>
     </g>
     <g id="text_6">
      <!-- 0.5 -->
      <g style="fill: #696969" transform="translate(318.882727 295.8375) scale(0.16 -0.16)">
       <use xlink:href="#DejaVuSans-30"/>
       <use xlink:href="#DejaVuSans-2e" x="63.623047"/>
       <use xlink:href="#DejaVuSans-35" x="95.410156"/>
      </g>
     </g>
    </g>
    <g id="xtick_5">
     <g id="line2d_13">
      <g>
       <use xlink:href="#m2ef3252db7" x="418.652955" y="276.68" style="fill: #696969; stroke: #696969; stroke-width: 0.8"/>
      </g>
     </g>
     <g id="text_7">
      <!-- 1.0 -->
      <g style="fill: #696969" transform="translate(405.930455 295.8375) scale(0.16 -0.16)">
       <use xlink:href="#DejaVuSans-31"/>
       <use xlink:href="#DejaVuSans-2e" x="63.623047"/>
       <use xlink:href="#DejaVuSans-30" x="95.410156"/>
      </g>
     </g>
    </g>
    <g id="text_8">
     <!-- $X$ -->
     <g transform="translate(239.0375 315.3225) scale(0.16 -0.16)">
      <defs>
       <path id="DejaVuSans-Oblique-58" d="M 878 4666 
L 1516 4666 
L 2316 2981 
L 3763 4666 
L 4500 4666 
L 2578 2438 
L 3738 0 
L 3103 0 
L 2163 1966 
L 459 0 
L -275 0 
L 1906 2509 
L 878 4666 
z
" transform="scale(0.015625)"/>
      </defs>
      <use xlink:href="#DejaVuSans-Oblique-58" transform="translate(0 0.09375)"/>
     </g>
    </g>
   </g>
   <g id="matplotlib.axis_6">
    <g id="ytick_3">
     <g id="line2d_14">
      <g>
       <use xlink:href="#m13f3121ef0" x="53.0525" y="263.944985" style="fill: #696969; stroke: #696969; stroke-width: 0.8"/>
      </g>
     </g>
     <g id="text_9">
      <!-- −2.5 -->
      <g style="fill: #696969" transform="translate(7.2 270.023735) scale(0.16 -0.16)">
       <defs>
        <path id="DejaVuSans-32" d="M 1228 531 
L 3431 531 
L 3431 0 
L 469 0 
L 469 531 
Q 828 903 1448 1529 
Q 2069 2156 2228 2338 
Q 2531 2678 2651 2914 
Q 2772 3150 2772 3378 
Q 2772 3750 2511 3984 
Q 2250 4219 1831 4219 
Q 1534 4219 1204 4116 
Q 875 4013 500 3803 
L 500 4441 
Q 881 4594 1212 4672 
Q 1544 4750 1819 4750 
Q 2544 4750 2975 4387 
Q 3406 4025 3406 3419 
Q 3406 3131 3298 2873 
Q 3191 2616 2906 2266 
Q 2828 2175 2409 1742 
Q 1991 1309 1228 531 
z
" transform="scale(0.015625)"/>
       </defs>
       <use xlink:href="#DejaVuSans-2212"/>
       <use xlink:href="#DejaVuSans-32" x="83.789062"/>
       <use xlink:href="#DejaVuSans-2e" x="147.412109"/>
       <use xlink:href="#DejaVuSans-35" x="179.199219"/>
      </g>
     </g>
    </g>
    <g id="ytick_4">
     <g id="line2d_15">
      <g>
       <use xlink:href="#m13f3121ef0" x="53.0525" y="223.307783" style="fill: #696969; stroke: #696969; stroke-width: 0.8"/>
      </g>
     </g>
     <g id="text_10">
      <!-- 0.0 -->
      <g style="fill: #696969" transform="translate(20.6075 229.386533) scale(0.16 -0.16)">
       <use xlink:href="#DejaVuSans-30"/>
       <use xlink:href="#DejaVuSans-2e" x="63.623047"/>
       <use xlink:href="#DejaVuSans-30" x="95.410156"/>
      </g>
     </g>
    </g>
   </g>
   <g id="line2d_16">
    <path d="M 70.462045 236.278841 
L 77.425864 229.012013 
L 84.389682 222.792071 
L 91.3535 218.538525 
L 98.317318 216.805654 
L 105.281136 217.670208 
L 112.244955 220.67345 
L 119.208773 224.849427 
L 126.172591 228.900967 
L 133.136409 231.555517 
L 140.100227 232.032 
L 147.064045 230.430044 
L 154.027864 227.774559 
L 160.991682 225.478211 
L 167.9555 224.380126 
L 174.919318 224.297302 
L 181.883136 224.669776 
L 188.846955 225.266019 
L 195.810773 226.110745 
L 202.774591 227.117707 
L 209.738409 227.951134 
L 216.702227 228.140518 
L 223.666045 227.312127 
L 230.629864 225.408331 
L 237.593682 222.780686 
L 244.5575 220.097605 
L 251.521318 218.107927 
L 258.485136 217.382171 
L 265.448955 218.151313 
L 272.412773 220.284898 
L 279.376591 223.365726 
L 286.340409 226.791694 
L 293.304227 229.871603 
L 300.268045 231.929996 
L 307.231864 232.444686 
L 314.195682 231.203117 
L 321.1595 228.418479 
L 328.123318 224.735996 
L 335.087136 221.095454 
L 342.050955 218.475028 
L 349.014773 217.587137 
L 355.978591 218.601367 
L 362.942409 220.932563 
L 369.906227 223.153959 
L 376.870045 223.479454 
L 383.833864 221.60463 
L 390.797682 219.797877 
L 397.7615 219.804381 
L 404.725318 220.883847 
L 411.689136 221.450384 
L 418.652955 220.379394 
" clip-path="url(#p5e03c95db0)" style="fill: none; stroke: #696969; stroke-width: 2; stroke-linecap: square"/>
   </g>
   <g id="line2d_17">
    <path d="M 70.462045 211.820871 
L 77.425864 214.667406 
L 84.389682 217.211492 
L 91.3535 219.469395 
L 98.317318 221.457053 
L 105.281136 223.190073 
L 112.244955 224.683734 
L 119.208773 225.952985 
L 126.172591 227.012446 
L 133.136409 227.876407 
L 140.100227 228.558831 
L 147.064045 229.073348 
L 154.027864 229.433261 
L 160.991682 229.651544 
L 167.9555 229.740841 
L 174.919318 229.713466 
L 181.883136 229.581404 
L 188.846955 229.356313 
L 195.810773 229.049518 
L 202.774591 228.672017 
L 209.738409 228.234478 
L 216.702227 227.747241 
L 223.666045 227.220314 
L 230.629864 226.663377 
L 237.593682 226.085783 
L 244.5575 225.496551 
L 251.521318 224.904375 
L 258.485136 224.317618 
L 265.448955 223.744312 
L 272.412773 223.192163 
L 279.376591 222.668546 
L 286.340409 222.180506 
L 293.304227 221.734759 
L 300.268045 221.337693 
L 307.231864 220.995366 
L 314.195682 220.713506 
L 321.1595 220.497512 
L 328.123318 220.352454 
L 335.087136 220.283072 
L 342.050955 220.293779 
L 349.014773 220.388655 
L 355.978591 220.571453 
L 362.942409 220.845597 
L 369.906227 221.214181 
L 376.870045 221.679969 
L 383.833864 222.245396 
L 390.797682 222.91257 
L 397.7615 223.683266 
L 404.725318 224.558931 
L 411.689136 225.540685 
L 418.652955 226.629316 
" clip-path="url(#p5e03c95db0)" style="fill: none; stroke-dasharray: 7.4,3.2; stroke-dashoffset: 0; stroke: #79ad41; stroke-width: 2"/>
   </g>
   <g id="patch_9">
    <path d="M 53.0525 276.68 
L 53.0525 184.180101 
" style="fill: none; stroke: #000000; stroke-width: 0.8; stroke-linejoin: miter; stroke-linecap: square"/>
   </g>
   <g id="patch_10">
    <path d="M 436.0625 276.68 
L 436.0625 184.180101 
" style="fill: none; stroke: #000000; stroke-width: 0.8; stroke-linejoin: miter; stroke-linecap: square"/>
   </g>
   <g id="patch_11">
    <path d="M 53.0525 276.68 
L 436.0625 276.68 
" style="fill: none; stroke: #000000; stroke-width: 0.8; stroke-linejoin: miter; stroke-linecap: square"/>
   </g>
   <g id="patch_12">
    <path d="M 53.0525 184.180101 
L 436.0625 184.180101 
" style="fill: none; stroke: #000000; stroke-width: 0.8; stroke-linejoin: miter; stroke-linecap: square"/>
   </g>
  </g>
 </g>
 <defs>
  <clipPath id="p73df435abc">
   <rect x="53.0525" y="7.2" width="383.01" height="46.24995"/>
  </clipPath>
  <clipPath id="p7f0a8785b6">
   <rect x="53.0525" y="72.565076" width="383.01" height="92.499899"/>
  </clipPath>
  <clipPath id="p5e03c95db0">
   <rect x="53.0525" y="184.180101" width="383.01" height="92.499899"/>
  </clipPath>
 </defs>
</svg>
