<?xml version="1.0" encoding="utf-8" standalone="no"?>
<!DOCTYPE svg PUBLIC "-//W3C//DTD SVG 1.1//EN"
  "http://www.w3.org/Graphics/SVG/1.1/DTD/svg11.dtd">
<svg xmlns:xlink="http://www.w3.org/1999/xlink" width="443.265pt" height="325.85pt" viewBox="0 0 443.265 325.85" xmlns="http://www.w3.org/2000/svg" version="1.1">
 <metadata>
  <rdf:RDF xmlns:dc="http://purl.org/dc/elements/1.1/" xmlns:cc="http://creativecommons.org/ns#" xmlns:rdf="http://www.w3.org/1999/02/22-rdf-syntax-ns#">
   <cc:Work>
    <dc:type rdf:resource="http://purl.org/dc/dcmitype/StillImage"/>
    <dc:date>2024-01-28T20:51:58.319071</dc:date>
    <dc:format>image/svg+xml</dc:format>
    <dc:creator>
     <cc:Agent>
      <dc:title>Matplotlib v3.7.2, https://matplotlib.org/</dc:title>
     </cc:Agent>
    </dc:creator>
   </cc:Work>
  </rdf:RDF>
 </metadata>
 <defs>
  <style type="text/css">*{stroke-linejoin: round; stroke-linecap: butt}</style>
 </defs>
 <g id="figure_1">
  <g id="patch_1">
   <path d="M 0 325.85 
L 443.265 325.85 
L 443.265 0 
L 0 0 
z
" style="fill: #ffffff"/>
  </g>
  <g id="axes_1">
   <g id="patch_2">
    <path d="M 39.645 54.681471 
L 436.065 54.681471 
L 436.065 7.2 
L 39.645 7.2 
z
" style="fill: #ffffff"/>
   </g>
   <g id="PolyCollection_1">
    <defs>
     <path id="mb5e29f0d4e" d="M 57.664091 -273.326777 
L 57.664091 -279.333417 
L 64.871727 -279.999661 
L 72.079364 -280.730019 
L 79.287 -281.5247 
L 86.494636 -282.382072 
L 93.702273 -283.298352 
L 100.909909 -284.267427 
L 108.117545 -285.280804 
L 115.325182 -286.327733 
L 122.532818 -287.395515 
L 129.740455 -288.469965 
L 136.948091 -289.536001 
L 144.155727 -290.578323 
L 151.363364 -291.582045 
L 158.571 -292.533313 
L 165.778636 -293.419776 
L 172.986273 -294.230889 
L 180.193909 -294.958143 
L 187.401545 -295.595047 
L 194.609182 -296.137101 
L 201.816818 -296.581639 
L 209.024455 -296.927635 
L 216.232091 -297.175525 
L 223.439727 -297.327036 
L 230.647364 -297.385002 
L 237.855 -297.353267 
L 245.062636 -297.236588 
L 252.270273 -297.040548 
L 259.477909 -296.771516 
L 266.685545 -296.436562 
L 273.893182 -296.043425 
L 281.100818 -295.600376 
L 288.308455 -295.116147 
L 295.516091 -294.599747 
L 302.723727 -294.060354 
L 309.931364 -293.507088 
L 317.139 -292.948873 
L 324.346636 -292.394233 
L 331.554273 -291.851184 
L 338.761909 -291.327084 
L 345.969545 -290.828548 
L 353.177182 -290.361445 
L 360.384818 -289.930859 
L 367.592455 -289.541142 
L 374.800091 -289.195947 
L 382.007727 -288.898359 
L 389.215364 -288.650956 
L 396.423 -288.455914 
L 403.630636 -288.315138 
L 410.838273 -288.230322 
L 418.045909 -288.203065 
L 418.045909 -273.326777 
L 418.045909 -273.326777 
L 410.838273 -273.326777 
L 403.630636 -273.326777 
L 396.423 -273.326777 
L 389.215364 -273.326777 
L 382.007727 -273.326777 
L 374.800091 -273.326777 
L 367.592455 -273.326777 
L 360.384818 -273.326777 
L 353.177182 -273.326777 
L 345.969545 -273.326777 
L 338.761909 -273.326777 
L 331.554273 -273.326777 
L 324.346636 -273.326777 
L 317.139 -273.326777 
L 309.931364 -273.326777 
L 302.723727 -273.326777 
L 295.516091 -273.326777 
L 288.308455 -273.326777 
L 281.100818 -273.326777 
L 273.893182 -273.326777 
L 266.685545 -273.326777 
L 259.477909 -273.326777 
L 252.270273 -273.326777 
L 245.062636 -273.326777 
L 237.855 -273.326777 
L 230.647364 -273.326777 
L 223.439727 -273.326777 
L 216.232091 -273.326777 
L 209.024455 -273.326777 
L 201.816818 -273.326777 
L 194.609182 -273.326777 
L 187.401545 -273.326777 
L 180.193909 -273.326777 
L 172.986273 -273.326777 
L 165.778636 -273.326777 
L 158.571 -273.326777 
L 151.363364 -273.326777 
L 144.155727 -273.326777 
L 136.948091 -273.326777 
L 129.740455 -273.326777 
L 122.532818 -273.326777 
L 115.325182 -273.326777 
L 108.117545 -273.326777 
L 100.909909 -273.326777 
L 93.702273 -273.326777 
L 86.494636 -273.326777 
L 79.287 -273.326777 
L 72.079364 -273.326777 
L 64.871727 -273.326777 
L 57.664091 -273.326777 
z
" style="stroke: #dc143c; stroke-opacity: 0.2"/>
    </defs>
    <g clip-path="url(#p1c7875c6fb)">
     <use xlink:href="#mb5e29f0d4e" x="0" y="325.85" style="fill: #dc143c; fill-opacity: 0.2; stroke: #dc143c; stroke-opacity: 0.2"/>
    </g>
   </g>
   <g id="PolyCollection_2">
    <defs>
     <path id="mb0b3f79dc4" d="M 57.664091 -273.326777 
L 57.664091 -316.491751 
L 64.871727 -315.825507 
L 72.079364 -315.09515 
L 79.287 -314.300468 
L 86.494636 -313.443096 
L 93.702273 -312.526816 
L 100.909909 -311.557741 
L 108.117545 -310.544364 
L 115.325182 -309.497435 
L 122.532818 -308.429654 
L 129.740455 -307.355203 
L 136.948091 -306.289168 
L 144.155727 -305.246845 
L 151.363364 -304.243123 
L 158.571 -303.291856 
L 165.778636 -302.405392 
L 172.986273 -301.59428 
L 180.193909 -300.867026 
L 187.401545 -300.230121 
L 194.609182 -299.688067 
L 201.816818 -299.24353 
L 209.024455 -298.897534 
L 216.232091 -298.649644 
L 223.439727 -298.498133 
L 230.647364 -298.440167 
L 237.855 -298.471902 
L 245.062636 -298.58858 
L 252.270273 -298.78462 
L 259.477909 -299.053653 
L 266.685545 -299.388607 
L 273.893182 -299.781743 
L 281.100818 -300.224793 
L 288.308455 -300.709021 
L 295.516091 -301.225421 
L 302.723727 -301.764814 
L 309.931364 -302.318081 
L 317.139 -302.876296 
L 324.346636 -303.430936 
L 331.554273 -303.973985 
L 338.761909 -304.498085 
L 345.969545 -304.996621 
L 353.177182 -305.463724 
L 360.384818 -305.894309 
L 367.592455 -306.284027 
L 374.800091 -306.629221 
L 382.007727 -306.926809 
L 389.215364 -307.174212 
L 396.423 -307.369254 
L 403.630636 -307.51003 
L 410.838273 -307.594847 
L 418.045909 -307.622103 
L 418.045909 -273.326777 
L 418.045909 -273.326777 
L 410.838273 -273.326777 
L 403.630636 -273.326777 
L 396.423 -273.326777 
L 389.215364 -273.326777 
L 382.007727 -273.326777 
L 374.800091 -273.326777 
L 367.592455 -273.326777 
L 360.384818 -273.326777 
L 353.177182 -273.326777 
L 345.969545 -273.326777 
L 338.761909 -273.326777 
L 331.554273 -273.326777 
L 324.346636 -273.326777 
L 317.139 -273.326777 
L 309.931364 -273.326777 
L 302.723727 -273.326777 
L 295.516091 -273.326777 
L 288.308455 -273.326777 
L 281.100818 -273.326777 
L 273.893182 -273.326777 
L 266.685545 -273.326777 
L 259.477909 -273.326777 
L 252.270273 -273.326777 
L 245.062636 -273.326777 
L 237.855 -273.326777 
L 230.647364 -273.326777 
L 223.439727 -273.326777 
L 216.232091 -273.326777 
L 209.024455 -273.326777 
L 201.816818 -273.326777 
L 194.609182 -273.326777 
L 187.401545 -273.326777 
L 180.193909 -273.326777 
L 172.986273 -273.326777 
L 165.778636 -273.326777 
L 158.571 -273.326777 
L 151.363364 -273.326777 
L 144.155727 -273.326777 
L 136.948091 -273.326777 
L 129.740455 -273.326777 
L 122.532818 -273.326777 
L 115.325182 -273.326777 
L 108.117545 -273.326777 
L 100.909909 -273.326777 
L 93.702273 -273.326777 
L 86.494636 -273.326777 
L 79.287 -273.326777 
L 72.079364 -273.326777 
L 64.871727 -273.326777 
L 57.664091 -273.326777 
z
" style="stroke: #000080; stroke-opacity: 0.2"/>
    </defs>
    <g clip-path="url(#p1c7875c6fb)">
     <use xlink:href="#mb0b3f79dc4" x="0" y="325.85" style="fill: #000080; fill-opacity: 0.2; stroke: #000080; stroke-opacity: 0.2"/>
    </g>
   </g>
   <g id="matplotlib.axis_1"/>
   <g id="matplotlib.axis_2"/>
   <g id="line2d_1">
    <path d="M 57.664091 46.516583 
L 64.871727 45.850339 
L 72.079364 45.119981 
L 79.287 44.3253 
L 86.494636 43.467928 
L 93.702273 42.551648 
L 100.909909 41.582573 
L 108.117545 40.569196 
L 115.325182 39.522267 
L 122.532818 38.454485 
L 129.740455 37.380035 
L 136.948091 36.313999 
L 144.155727 35.271677 
L 151.363364 34.267955 
L 158.571 33.316687 
L 165.778636 32.430224 
L 172.986273 31.619111 
L 180.193909 30.891857 
L 187.401545 30.254953 
L 194.609182 29.712899 
L 201.816818 29.268361 
L 209.024455 28.922365 
L 216.232091 28.674475 
L 223.439727 28.522964 
L 230.647364 28.464998 
L 237.855 28.496733 
L 245.062636 28.613412 
L 252.270273 28.809452 
L 259.477909 29.078484 
L 266.685545 29.413438 
L 273.893182 29.806575 
L 281.100818 30.249624 
L 288.308455 30.733853 
L 295.516091 31.250253 
L 302.723727 31.789646 
L 309.931364 32.342912 
L 317.139 32.901127 
L 324.346636 33.455767 
L 331.554273 33.998816 
L 338.761909 34.522916 
L 345.969545 35.021452 
L 353.177182 35.488555 
L 360.384818 35.919141 
L 367.592455 36.308858 
L 374.800091 36.654053 
L 382.007727 36.951641 
L 389.215364 37.199044 
L 396.423 37.394086 
L 403.630636 37.534862 
L 410.838273 37.619678 
L 418.045909 37.646935 
" clip-path="url(#p1c7875c6fb)" style="fill: none; stroke: #dc143c; stroke-width: 1.5; stroke-linecap: square"/>
   </g>
   <g id="line2d_2">
    <path d="M 57.664091 9.358249 
L 64.871727 10.024493 
L 72.079364 10.75485 
L 79.287 11.549532 
L 86.494636 12.406904 
L 93.702273 13.323184 
L 100.909909 14.292259 
L 108.117545 15.305636 
L 115.325182 16.352565 
L 122.532818 17.420346 
L 129.740455 18.494797 
L 136.948091 19.560832 
L 144.155727 20.603155 
L 151.363364 21.606877 
L 158.571 22.558144 
L 165.778636 23.444608 
L 172.986273 24.25572 
L 180.193909 24.982974 
L 187.401545 25.619879 
L 194.609182 26.161933 
L 201.816818 26.60647 
L 209.024455 26.952466 
L 216.232091 27.200356 
L 223.439727 27.351867 
L 230.647364 27.409833 
L 237.855 27.378098 
L 245.062636 27.26142 
L 252.270273 27.06538 
L 259.477909 26.796347 
L 266.685545 26.461393 
L 273.893182 26.068257 
L 281.100818 25.625207 
L 288.308455 25.140979 
L 295.516091 24.624579 
L 302.723727 24.085186 
L 309.931364 23.531919 
L 317.139 22.973704 
L 324.346636 22.419064 
L 331.554273 21.876015 
L 338.761909 21.351915 
L 345.969545 20.853379 
L 353.177182 20.386276 
L 360.384818 19.955691 
L 367.592455 19.565973 
L 374.800091 19.220779 
L 382.007727 18.923191 
L 389.215364 18.675788 
L 396.423 18.480746 
L 403.630636 18.33997 
L 410.838273 18.255153 
L 418.045909 18.227897 
" clip-path="url(#p1c7875c6fb)" style="fill: none; stroke: #000080; stroke-width: 1.5; stroke-linecap: square"/>
   </g>
  </g>
  <g id="axes_2">
   <g id="patch_3">
    <path d="M 39.645 165.680736 
L 436.065 165.680736 
L 436.065 70.717793 
L 39.645 70.717793 
z
" style="fill: #ffffff"/>
   </g>
   <g id="PathCollection_1">
    <defs>
     <path id="m6f27350e85" d="M 0 0.866025 
C 0.229673 0.866025 0.449969 0.774776 0.612372 0.612372 
C 0.774776 0.449969 0.866025 0.229673 0.866025 0 
C 0.866025 -0.229673 0.774776 -0.449969 0.612372 -0.612372 
C 0.449969 -0.774776 0.229673 -0.866025 0 -0.866025 
C -0.229673 -0.866025 -0.449969 -0.774776 -0.612372 -0.612372 
C -0.774776 -0.449969 -0.866025 -0.229673 -0.866025 0 
C -0.866025 0.229673 -0.774776 0.449969 -0.612372 0.612372 
C -0.449969 0.774776 -0.229673 0.866025 0 0.866025 
z
" style="stroke: #daa520"/>
    </defs>
    <g clip-path="url(#p2091ffb520)">
     <use xlink:href="#m6f27350e85" x="147.774773" y="84.400674" style="fill: #daa520; stroke: #daa520"/>
     <use xlink:href="#m6f27350e85" x="274.843538" y="117.826704" style="fill: #daa520; stroke: #daa520"/>
     <use xlink:href="#m6f27350e85" x="240.82392" y="106.199127" style="fill: #daa520; stroke: #daa520"/>
     <use xlink:href="#m6f27350e85" x="336.615256" y="134.068885" style="fill: #daa520; stroke: #daa520"/>
     <use xlink:href="#m6f27350e85" x="359.604418" y="137.849717" style="fill: #daa520; stroke: #daa520"/>
     <use xlink:href="#m6f27350e85" x="359.575813" y="119.391056" style="fill: #daa520; stroke: #daa520"/>
     <use xlink:href="#m6f27350e85" x="321.663195" y="124.38248" style="fill: #daa520; stroke: #daa520"/>
     <use xlink:href="#m6f27350e85" x="100.481566" y="88.961473" style="fill: #daa520; stroke: #daa520"/>
     <use xlink:href="#m6f27350e85" x="280.162579" y="118.039124" style="fill: #daa520; stroke: #daa520"/>
     <use xlink:href="#m6f27350e85" x="276.002066" y="117.986614" style="fill: #daa520; stroke: #daa520"/>
     <use xlink:href="#m6f27350e85" x="274.096255" y="115.340605" style="fill: #daa520; stroke: #daa520"/>
     <use xlink:href="#m6f27350e85" x="182.75651" y="85.358594" style="fill: #daa520; stroke: #daa520"/>
     <use xlink:href="#m6f27350e85" x="256.102516" y="111.3915" style="fill: #daa520; stroke: #daa520"/>
     <use xlink:href="#m6f27350e85" x="264.794093" y="114.685843" style="fill: #daa520; stroke: #daa520"/>
     <use xlink:href="#m6f27350e85" x="321.650444" y="125.926104" style="fill: #daa520; stroke: #daa520"/>
     <use xlink:href="#m6f27350e85" x="224.514421" y="96.910804" style="fill: #daa520; stroke: #daa520"/>
     <use xlink:href="#m6f27350e85" x="408.936561" y="144.650163" style="fill: #daa520; stroke: #daa520"/>
     <use xlink:href="#m6f27350e85" x="207.751032" y="98.402925" style="fill: #daa520; stroke: #daa520"/>
     <use xlink:href="#m6f27350e85" x="414.427809" y="125.101908" style="fill: #daa520; stroke: #daa520"/>
     <use xlink:href="#m6f27350e85" x="160.637027" y="75.348785" style="fill: #daa520; stroke: #daa520"/>
     <use xlink:href="#m6f27350e85" x="250.300318" y="109.357432" style="fill: #daa520; stroke: #daa520"/>
     <use xlink:href="#m6f27350e85" x="106.58786" y="87.55158" style="fill: #daa520; stroke: #daa520"/>
     <use xlink:href="#m6f27350e85" x="90.814314" y="116.573877" style="fill: #daa520; stroke: #daa520"/>
     <use xlink:href="#m6f27350e85" x="220.403789" y="101.28893" style="fill: #daa520; stroke: #daa520"/>
     <use xlink:href="#m6f27350e85" x="195.767783" y="96.706186" style="fill: #daa520; stroke: #daa520"/>
     <use xlink:href="#m6f27350e85" x="142.673478" y="78.42835" style="fill: #daa520; stroke: #daa520"/>
     <use xlink:href="#m6f27350e85" x="90.258651" y="141.978209" style="fill: #daa520; stroke: #daa520"/>
     <use xlink:href="#m6f27350e85" x="281.7881" y="109.38427" style="fill: #daa520; stroke: #daa520"/>
     <use xlink:href="#m6f27350e85" x="176.162083" y="88.079925" style="fill: #daa520; stroke: #daa520"/>
     <use xlink:href="#m6f27350e85" x="343.568977" y="136.593684" style="fill: #daa520; stroke: #daa520"/>
     <use xlink:href="#m6f27350e85" x="156.856839" y="82.545353" style="fill: #daa520; stroke: #daa520"/>
     <use xlink:href="#m6f27350e85" x="296.076246" y="108.402047" style="fill: #daa520; stroke: #daa520"/>
     <use xlink:href="#m6f27350e85" x="366.916808" y="127.177075" style="fill: #daa520; stroke: #daa520"/>
     <use xlink:href="#m6f27350e85" x="275.240614" y="112.368629" style="fill: #daa520; stroke: #daa520"/>
     <use xlink:href="#m6f27350e85" x="290.475777" y="114.478379" style="fill: #daa520; stroke: #daa520"/>
     <use xlink:href="#m6f27350e85" x="65.172938" y="127.836583" style="fill: #daa520; stroke: #daa520"/>
     <use xlink:href="#m6f27350e85" x="247.601945" y="107.439651" style="fill: #daa520; stroke: #daa520"/>
     <use xlink:href="#m6f27350e85" x="85.485547" y="99.624007" style="fill: #daa520; stroke: #daa520"/>
     <use xlink:href="#m6f27350e85" x="300.847708" y="116.321233" style="fill: #daa520; stroke: #daa520"/>
     <use xlink:href="#m6f27350e85" x="189.20415" y="79.781807" style="fill: #daa520; stroke: #daa520"/>
     <use xlink:href="#m6f27350e85" x="298.398094" y="119.596976" style="fill: #daa520; stroke: #daa520"/>
     <use xlink:href="#m6f27350e85" x="221.550912" y="99.075899" style="fill: #daa520; stroke: #daa520"/>
     <use xlink:href="#m6f27350e85" x="384.726576" y="131.654653" style="fill: #daa520; stroke: #daa520"/>
     <use xlink:href="#m6f27350e85" x="211.835412" y="98.480998" style="fill: #daa520; stroke: #daa520"/>
     <use xlink:href="#m6f27350e85" x="404.324865" y="137.358636" style="fill: #daa520; stroke: #daa520"/>
     <use xlink:href="#m6f27350e85" x="156.195441" y="91.244185" style="fill: #daa520; stroke: #daa520"/>
     <use xlink:href="#m6f27350e85" x="302.404508" y="127.677777" style="fill: #daa520; stroke: #daa520"/>
     <use xlink:href="#m6f27350e85" x="261.301263" y="111.259335" style="fill: #daa520; stroke: #daa520"/>
     <use xlink:href="#m6f27350e85" x="186.99845" y="87.736509" style="fill: #daa520; stroke: #daa520"/>
     <use xlink:href="#m6f27350e85" x="253.854189" y="107.874897" style="fill: #daa520; stroke: #daa520"/>
     <use xlink:href="#m6f27350e85" x="71.951932" y="105.259607" style="fill: #daa520; stroke: #daa520"/>
     <use xlink:href="#m6f27350e85" x="395.97438" y="128.90273" style="fill: #daa520; stroke: #daa520"/>
     <use xlink:href="#m6f27350e85" x="338.686914" y="114.166129" style="fill: #daa520; stroke: #daa520"/>
     <use xlink:href="#m6f27350e85" x="146.53443" y="123.065779" style="fill: #daa520; stroke: #daa520"/>
     <use xlink:href="#m6f27350e85" x="385.86899" y="120.388291" style="fill: #daa520; stroke: #daa520"/>
     <use xlink:href="#m6f27350e85" x="211.384914" y="75.03429" style="fill: #daa520; stroke: #daa520"/>
     <use xlink:href="#m6f27350e85" x="361.432311" y="118.159018" style="fill: #daa520; stroke: #daa520"/>
     <use xlink:href="#m6f27350e85" x="285.042874" y="110.638826" style="fill: #daa520; stroke: #daa520"/>
     <use xlink:href="#m6f27350e85" x="208.986234" y="93.095046" style="fill: #daa520; stroke: #daa520"/>
     <use xlink:href="#m6f27350e85" x="342.931897" y="131.562912" style="fill: #daa520; stroke: #daa520"/>
     <use xlink:href="#m6f27350e85" x="373.132125" y="112.522597" style="fill: #daa520; stroke: #daa520"/>
     <use xlink:href="#m6f27350e85" x="220.019665" y="96.222337" style="fill: #daa520; stroke: #daa520"/>
     <use xlink:href="#m6f27350e85" x="268.252707" y="106.518806" style="fill: #daa520; stroke: #daa520"/>
     <use xlink:href="#m6f27350e85" x="85.006275" y="106.146229" style="fill: #daa520; stroke: #daa520"/>
     <use xlink:href="#m6f27350e85" x="261.980591" y="109.672603" style="fill: #daa520; stroke: #daa520"/>
     <use xlink:href="#m6f27350e85" x="310.845231" y="127.973542" style="fill: #daa520; stroke: #daa520"/>
     <use xlink:href="#m6f27350e85" x="175.808662" y="83.141226" style="fill: #daa520; stroke: #daa520"/>
     <use xlink:href="#m6f27350e85" x="187.086434" y="102.678802" style="fill: #daa520; stroke: #daa520"/>
     <use xlink:href="#m6f27350e85" x="328.271631" y="126.900507" style="fill: #daa520; stroke: #daa520"/>
     <use xlink:href="#m6f27350e85" x="315.104879" y="124.738747" style="fill: #daa520; stroke: #daa520"/>
     <use xlink:href="#m6f27350e85" x="152.099487" y="99.60513" style="fill: #daa520; stroke: #daa520"/>
     <use xlink:href="#m6f27350e85" x="219.34959" y="111.754291" style="fill: #daa520; stroke: #daa520"/>
     <use xlink:href="#m6f27350e85" x="134.120394" y="118.577603" style="fill: #daa520; stroke: #daa520"/>
     <use xlink:href="#m6f27350e85" x="241.457334" y="103.58354" style="fill: #daa520; stroke: #daa520"/>
     <use xlink:href="#m6f27350e85" x="209.861112" y="92.787159" style="fill: #daa520; stroke: #daa520"/>
     <use xlink:href="#m6f27350e85" x="308.260556" y="116.493565" style="fill: #daa520; stroke: #daa520"/>
     <use xlink:href="#m6f27350e85" x="162.668529" y="89.897556" style="fill: #daa520; stroke: #daa520"/>
     <use xlink:href="#m6f27350e85" x="118.236895" y="91.757523" style="fill: #daa520; stroke: #daa520"/>
     <use xlink:href="#m6f27350e85" x="105.756278" y="99.371615" style="fill: #daa520; stroke: #daa520"/>
     <use xlink:href="#m6f27350e85" x="211.212249" y="91.687124" style="fill: #daa520; stroke: #daa520"/>
     <use xlink:href="#m6f27350e85" x="263.272622" y="109.665225" style="fill: #daa520; stroke: #daa520"/>
     <use xlink:href="#m6f27350e85" x="162.887593" y="101.248111" style="fill: #daa520; stroke: #daa520"/>
     <use xlink:href="#m6f27350e85" x="252.942905" y="110.233538" style="fill: #daa520; stroke: #daa520"/>
     <use xlink:href="#m6f27350e85" x="267.751155" y="109.0951" style="fill: #daa520; stroke: #daa520"/>
     <use xlink:href="#m6f27350e85" x="262.528031" y="108.682398" style="fill: #daa520; stroke: #daa520"/>
     <use xlink:href="#m6f27350e85" x="156.934219" y="99.871268" style="fill: #daa520; stroke: #daa520"/>
     <use xlink:href="#m6f27350e85" x="63.214372" y="103.283138" style="fill: #daa520; stroke: #daa520"/>
     <use xlink:href="#m6f27350e85" x="153.350562" y="102.716884" style="fill: #daa520; stroke: #daa520"/>
     <use xlink:href="#m6f27350e85" x="121.497811" y="98.294157" style="fill: #daa520; stroke: #daa520"/>
     <use xlink:href="#m6f27350e85" x="238.417702" y="105.549472" style="fill: #daa520; stroke: #daa520"/>
     <use xlink:href="#m6f27350e85" x="250.774593" y="108.74151" style="fill: #daa520; stroke: #daa520"/>
     <use xlink:href="#m6f27350e85" x="93.297896" y="137.307792" style="fill: #daa520; stroke: #daa520"/>
     <use xlink:href="#m6f27350e85" x="365.206357" y="117.023347" style="fill: #daa520; stroke: #daa520"/>
     <use xlink:href="#m6f27350e85" x="288.846978" y="123.630275" style="fill: #daa520; stroke: #daa520"/>
     <use xlink:href="#m6f27350e85" x="416.365509" y="161.364238" style="fill: #daa520; stroke: #daa520"/>
     <use xlink:href="#m6f27350e85" x="260.478555" y="109.98793" style="fill: #daa520; stroke: #daa520"/>
     <use xlink:href="#m6f27350e85" x="302.526307" y="112.57479" style="fill: #daa520; stroke: #daa520"/>
     <use xlink:href="#m6f27350e85" x="110.922128" y="92.756011" style="fill: #daa520; stroke: #daa520"/>
     <use xlink:href="#m6f27350e85" x="186.83974" y="88.320015" style="fill: #daa520; stroke: #daa520"/>
     <use xlink:href="#m6f27350e85" x="319.318089" y="117.586336" style="fill: #daa520; stroke: #daa520"/>
     <use xlink:href="#m6f27350e85" x="410.20136" y="129.480964" style="fill: #daa520; stroke: #daa520"/>
     <use xlink:href="#m6f27350e85" x="278.710575" y="118.926886" style="fill: #daa520; stroke: #daa520"/>
     <use xlink:href="#m6f27350e85" x="276.710986" y="109.341886" style="fill: #daa520; stroke: #daa520"/>
     <use xlink:href="#m6f27350e85" x="246.541151" y="93.511909" style="fill: #daa520; stroke: #daa520"/>
     <use xlink:href="#m6f27350e85" x="318.530409" y="122.961427" style="fill: #daa520; stroke: #daa520"/>
     <use xlink:href="#m6f27350e85" x="314.509544" y="123.439487" style="fill: #daa520; stroke: #daa520"/>
     <use xlink:href="#m6f27350e85" x="142.677666" y="95.357795" style="fill: #daa520; stroke: #daa520"/>
    </g>
   </g>
   <g id="matplotlib.axis_3"/>
   <g id="matplotlib.axis_4">
    <g id="ytick_1">
     <g id="line2d_3">
      <defs>
       <path id="mf100352bb9" d="M 0 0 
L -3.5 0 
" style="stroke: #696969; stroke-width: 0.8"/>
      </defs>
      <g>
       <use xlink:href="#mf100352bb9" x="39.645" y="137.942587" style="fill: #696969; stroke: #696969; stroke-width: 0.8"/>
      </g>
     </g>
     <g id="text_1">
      <!-- 0 -->
      <g style="fill: #696969" transform="translate(22.465 144.021337) scale(0.16 -0.16)">
       <defs>
        <path id="DejaVuSans-30" d="M 2034 4250 
Q 1547 4250 1301 3770 
Q 1056 3291 1056 2328 
Q 1056 1369 1301 889 
Q 1547 409 2034 409 
Q 2525 409 2770 889 
Q 3016 1369 3016 2328 
Q 3016 3291 2770 3770 
Q 2525 4250 2034 4250 
z
M 2034 4750 
Q 2819 4750 3233 4129 
Q 3647 3509 3647 2328 
Q 3647 1150 3233 529 
Q 2819 -91 2034 -91 
Q 1250 -91 836 529 
Q 422 1150 422 2328 
Q 422 3509 836 4129 
Q 1250 4750 2034 4750 
z
" transform="scale(0.015625)"/>
       </defs>
       <use xlink:href="#DejaVuSans-30"/>
      </g>
     </g>
    </g>
    <g id="ytick_2">
     <g id="line2d_4">
      <g>
       <use xlink:href="#mf100352bb9" x="39.645" y="77.232895" style="fill: #696969; stroke: #696969; stroke-width: 0.8"/>
      </g>
     </g>
     <g id="text_2">
      <!-- 5 -->
      <g style="fill: #696969" transform="translate(22.465 83.311645) scale(0.16 -0.16)">
       <defs>
        <path id="DejaVuSans-35" d="M 691 4666 
L 3169 4666 
L 3169 4134 
L 1269 4134 
L 1269 2991 
Q 1406 3038 1543 3061 
Q 1681 3084 1819 3084 
Q 2600 3084 3056 2656 
Q 3513 2228 3513 1497 
Q 3513 744 3044 326 
Q 2575 -91 1722 -91 
Q 1428 -91 1123 -41 
Q 819 9 494 109 
L 494 744 
Q 775 591 1075 516 
Q 1375 441 1709 441 
Q 2250 441 2565 725 
Q 2881 1009 2881 1497 
Q 2881 1984 2565 2268 
Q 2250 2553 1709 2553 
Q 1456 2553 1204 2497 
Q 953 2441 691 2322 
L 691 4666 
z
" transform="scale(0.015625)"/>
       </defs>
       <use xlink:href="#DejaVuSans-35"/>
      </g>
     </g>
    </g>
   </g>
   <g id="line2d_5">
    <path d="M 57.664091 109.713862 
L 64.871727 109.698343 
L 72.079364 109.537403 
L 79.287 109.20336 
L 86.494636 108.676292 
L 93.702273 107.94602 
L 100.909909 107.013602 
L 108.117545 105.892177 
L 115.325182 104.607038 
L 122.532818 103.194886 
L 129.740455 101.702316 
L 136.948091 100.183579 
L 144.155727 98.697892 
L 151.363364 97.306382 
L 158.571 96.068975 
L 165.778636 95.041413 
L 172.986273 94.272598 
L 180.193909 93.802396 
L 187.401545 93.659975 
L 194.609182 93.862738 
L 201.816818 94.415849 
L 209.024455 95.31228 
L 216.232091 96.533352 
L 223.439727 98.049713 
L 230.647364 99.82271 
L 237.855 101.806064 
L 245.062636 103.94785 
L 252.270273 106.192708 
L 259.477909 108.484195 
L 266.685545 110.767245 
L 273.893182 112.990542 
L 281.100818 115.108761 
L 288.308455 117.084517 
L 295.516091 118.889836 
L 302.723727 120.507165 
L 309.931364 121.92976 
L 317.139 123.161522 
L 324.346636 124.216277 
L 331.554273 125.116689 
L 338.761909 125.892834 
L 345.969545 126.580681 
L 353.177182 127.220604 
L 360.384818 127.856006 
L 367.592455 128.53215 
L 374.800091 129.295189 
L 382.007727 130.191336 
L 389.215364 131.266077 
L 396.423 132.563302 
L 403.630636 134.124239 
L 410.838273 135.986117 
L 418.045909 138.180484 
" clip-path="url(#p2091ffb520)" style="fill: none; stroke: #000000; stroke-width: 2; stroke-linecap: square"/>
   </g>
   <g id="line2d_6">
    <path d="M 57.664091 126.644806 
L 64.871727 121.300558 
L 72.079364 116.519921 
L 79.287 112.273341 
L 86.494636 108.531984 
L 93.702273 105.267735 
L 100.909909 102.453199 
L 108.117545 100.061696 
L 115.325182 98.067269 
L 122.532818 96.444676 
L 129.740455 95.169397 
L 136.948091 94.217628 
L 144.155727 93.566286 
L 151.363364 93.193006 
L 158.571 93.07614 
L 165.778636 93.194762 
L 172.986273 93.528661 
L 180.193909 94.058348 
L 187.401545 94.765052 
L 194.609182 95.630719 
L 201.816818 96.638015 
L 209.024455 97.770325 
L 216.232091 99.011753 
L 223.439727 100.34712 
L 230.647364 101.761968 
L 237.855 103.242556 
L 245.062636 104.775862 
L 252.270273 106.349584 
L 259.477909 107.952137 
L 266.685545 109.572657 
L 273.893182 111.200996 
L 281.100818 112.827726 
L 288.308455 114.444139 
L 295.516091 116.042244 
L 302.723727 117.614769 
L 309.931364 119.155161 
L 317.139 120.657586 
L 324.346636 122.116929 
L 331.554273 123.528793 
L 338.761909 124.889499 
L 345.969545 126.19609 
L 353.177182 127.446323 
L 360.384818 128.638678 
L 367.592455 129.772352 
L 374.800091 130.847259 
L 382.007727 131.864035 
L 389.215364 132.824033 
L 396.423 133.729325 
L 403.630636 134.582701 
L 410.838273 135.387671 
L 418.045909 136.148464 
" clip-path="url(#p2091ffb520)" style="fill: none; stroke-dasharray: 7.4,3.2; stroke-dashoffset: 0; stroke: #34b6c6; stroke-width: 2"/>
   </g>
   <g id="line2d_7">
    <path d="M 57.664091 116.770552 
L 64.871727 114.723661 
L 72.079364 112.767946 
L 79.287 110.88947 
L 86.494636 109.076217 
L 93.702273 107.318603 
L 100.909909 105.610048 
L 108.117545 103.947565 
L 115.325182 102.332294 
L 122.532818 100.769928 
L 129.740455 99.27094 
L 136.948091 97.850549 
L 144.155727 96.528422 
L 151.363364 95.32812 
L 158.571 94.276411 
L 165.778636 93.402584 
L 172.986273 92.737854 
L 180.193909 92.314901 
L 187.401545 92.167332 
L 194.609182 92.328667 
L 201.816818 92.830212 
L 209.024455 93.69714 
L 216.232091 94.942436 
L 223.439727 96.559277 
L 230.647364 98.513877 
L 237.855 100.742153 
L 245.062636 103.153489 
L 252.270273 105.642525 
L 259.477909 108.105925 
L 266.685545 110.458289 
L 273.893182 112.641887 
L 281.100818 114.628346 
L 288.308455 116.414018 
L 295.516091 118.012435 
L 302.723727 119.446801 
L 309.931364 120.744158 
L 317.139 121.931586 
L 324.346636 123.034147 
L 331.554273 124.074035 
L 338.761909 125.070467 
L 345.969545 126.039948 
L 353.177182 126.996685 
L 360.384818 127.953047 
L 367.592455 128.919989 
L 374.800091 129.907418 
L 382.007727 130.924514 
L 389.215364 131.979987 
L 396.423 133.082289 
L 403.630636 134.239792 
L 410.838273 135.46093 
L 418.045909 136.75431 
" clip-path="url(#p2091ffb520)" style="fill: none; stroke-dasharray: 7.4,3.2; stroke-dashoffset: 0; stroke: #9370db; stroke-width: 2"/>
   </g>
   <g id="line2d_8">
    <path d="M 57.664091 111.086789 
L 64.871727 110.333039 
L 72.079364 109.516154 
L 79.287 108.63428 
L 86.494636 107.686986 
L 93.702273 106.675768 
L 100.909909 105.604601 
L 108.117545 104.480508 
L 115.325182 103.31408 
L 122.532818 102.119885 
L 129.740455 100.916694 
L 136.948091 99.727447 
L 144.155727 98.578957 
L 151.363364 97.501381 
L 158.571 96.527553 
L 165.778636 95.692312 
L 172.986273 95.031936 
L 180.193909 94.583685 
L 187.401545 94.385283 
L 194.609182 94.473939 
L 201.816818 94.884278 
L 209.024455 95.644547 
L 216.232091 96.77074 
L 223.439727 98.259212 
L 230.647364 100.079746 
L 237.855 102.172313 
L 245.062636 104.450725 
L 252.270273 106.814067 
L 259.477909 109.16295 
L 266.685545 111.414943 
L 273.893182 113.514006 
L 281.100818 115.432127 
L 288.308455 117.164834 
L 295.516091 118.723872 
L 302.723727 120.129935 
L 309.931364 121.407002 
L 317.139 122.578653 
L 324.346636 123.666077 
L 331.554273 124.687251 
L 338.761909 125.65683 
L 345.969545 126.586404 
L 353.177182 127.484903 
L 360.384818 128.35904 
L 367.592455 129.21372 
L 374.800091 130.052404 
L 382.007727 130.877408 
L 389.215364 131.690159 
L 396.423 132.491403 
L 403.630636 133.281371 
L 410.838273 134.059921 
L 418.045909 134.826645 
" clip-path="url(#p2091ffb520)" style="fill: none; stroke-dasharray: 12.8,3.2,2,3.2; stroke-dashoffset: 0; stroke: #ff0000; stroke-width: 2"/>
   </g>
   <g id="patch_4">
    <path d="M 39.645 165.680736 
L 39.645 70.717793 
" style="fill: none; stroke: #000000; stroke-width: 0.8; stroke-linejoin: miter; stroke-linecap: square"/>
   </g>
   <g id="patch_5">
    <path d="M 436.065 165.680736 
L 436.065 70.717793 
" style="fill: none; stroke: #000000; stroke-width: 0.8; stroke-linejoin: miter; stroke-linecap: square"/>
   </g>
   <g id="patch_6">
    <path d="M 39.645 165.680736 
L 436.065 165.680736 
" style="fill: none; stroke: #000000; stroke-width: 0.8; stroke-linejoin: miter; stroke-linecap: square"/>
   </g>
   <g id="patch_7">
    <path d="M 39.645 70.717793 
L 436.065 70.717793 
" style="fill: none; stroke: #000000; stroke-width: 0.8; stroke-linejoin: miter; stroke-linecap: square"/>
   </g>
  </g>
  <g id="axes_3">
   <g id="patch_8">
    <path d="M 39.645 276.68 
L 436.065 276.68 
L 436.065 181.717057 
L 39.645 181.717057 
z
" style="fill: #ffffff"/>
   </g>
   <g id="PathCollection_2">
    <g clip-path="url(#p2bb051c268)">
     <use xlink:href="#m6f27350e85" x="147.774773" y="261.040526" style="fill: #daa520; stroke: #daa520"/>
     <use xlink:href="#m6f27350e85" x="274.843538" y="233.66971" style="fill: #daa520; stroke: #daa520"/>
     <use xlink:href="#m6f27350e85" x="240.82392" y="235.131348" style="fill: #daa520; stroke: #daa520"/>
     <use xlink:href="#m6f27350e85" x="336.615256" y="226.473668" style="fill: #daa520; stroke: #daa520"/>
     <use xlink:href="#m6f27350e85" x="359.604418" y="225.098369" style="fill: #daa520; stroke: #daa520"/>
     <use xlink:href="#m6f27350e85" x="359.575813" y="253.676637" style="fill: #daa520; stroke: #daa520"/>
     <use xlink:href="#m6f27350e85" x="321.663195" y="238.216931" style="fill: #daa520; stroke: #daa520"/>
     <use xlink:href="#m6f27350e85" x="100.481566" y="265.813058" style="fill: #daa520; stroke: #daa520"/>
     <use xlink:href="#m6f27350e85" x="280.162579" y="235.532636" style="fill: #daa520; stroke: #daa520"/>
     <use xlink:href="#m6f27350e85" x="276.002066" y="233.912911" style="fill: #daa520; stroke: #daa520"/>
     <use xlink:href="#m6f27350e85" x="274.096255" y="237.198963" style="fill: #daa520; stroke: #daa520"/>
     <use xlink:href="#m6f27350e85" x="182.75651" y="254.068506" style="fill: #daa520; stroke: #daa520"/>
     <use xlink:href="#m6f27350e85" x="256.102516" y="234.797279" style="fill: #daa520; stroke: #daa520"/>
     <use xlink:href="#m6f27350e85" x="264.794093" y="233.979843" style="fill: #daa520; stroke: #daa520"/>
     <use xlink:href="#m6f27350e85" x="321.650444" y="235.823648" style="fill: #daa520; stroke: #daa520"/>
     <use xlink:href="#m6f27350e85" x="224.514421" y="242.417358" style="fill: #daa520; stroke: #daa520"/>
     <use xlink:href="#m6f27350e85" x="408.936561" y="223.224319" style="fill: #daa520; stroke: #daa520"/>
     <use xlink:href="#m6f27350e85" x="207.751032" y="235.419622" style="fill: #daa520; stroke: #daa520"/>
     <use xlink:href="#m6f27350e85" x="414.427809" y="254.405142" style="fill: #daa520; stroke: #daa520"/>
     <use xlink:href="#m6f27350e85" x="160.637027" y="272.340472" style="fill: #daa520; stroke: #daa520"/>
     <use xlink:href="#m6f27350e85" x="250.300318" y="234.997203" style="fill: #daa520; stroke: #daa520"/>
     <use xlink:href="#m6f27350e85" x="106.58786" y="266.530176" style="fill: #daa520; stroke: #daa520"/>
     <use xlink:href="#m6f27350e85" x="90.814314" y="225.251455" style="fill: #daa520; stroke: #daa520"/>
     <use xlink:href="#m6f27350e85" x="220.403789" y="234.210999" style="fill: #daa520; stroke: #daa520"/>
     <use xlink:href="#m6f27350e85" x="195.767783" y="236.55042" style="fill: #daa520; stroke: #daa520"/>
     <use xlink:href="#m6f27350e85" x="142.673478" y="271.501828" style="fill: #daa520; stroke: #daa520"/>
     <use xlink:href="#m6f27350e85" x="90.258651" y="186.033555" style="fill: #daa520; stroke: #daa520"/>
     <use xlink:href="#m6f27350e85" x="281.7881" y="249.573175" style="fill: #daa520; stroke: #daa520"/>
     <use xlink:href="#m6f27350e85" x="176.162083" y="250.355401" style="fill: #daa520; stroke: #daa520"/>
     <use xlink:href="#m6f27350e85" x="343.568977" y="223.969917" style="fill: #daa520; stroke: #daa520"/>
     <use xlink:href="#m6f27350e85" x="156.856839" y="261.932809" style="fill: #daa520; stroke: #daa520"/>
     <use xlink:href="#m6f27350e85" x="296.076246" y="256.100638" style="fill: #daa520; stroke: #daa520"/>
     <use xlink:href="#m6f27350e85" x="366.916808" y="242.970698" style="fill: #daa520; stroke: #daa520"/>
     <use xlink:href="#m6f27350e85" x="275.240614" y="242.290705" style="fill: #daa520; stroke: #daa520"/>
     <use xlink:href="#m6f27350e85" x="290.475777" y="244.852821" style="fill: #daa520; stroke: #daa520"/>
     <use xlink:href="#m6f27350e85" x="65.172938" y="212.784405" style="fill: #daa520; stroke: #daa520"/>
     <use xlink:href="#m6f27350e85" x="247.601945" y="236.594007" style="fill: #daa520; stroke: #daa520"/>
     <use xlink:href="#m6f27350e85" x="85.485547" y="252.636953" style="fill: #daa520; stroke: #daa520"/>
     <use xlink:href="#m6f27350e85" x="300.847708" y="245.291744" style="fill: #daa520; stroke: #daa520"/>
     <use xlink:href="#m6f27350e85" x="189.20415" y="262.544072" style="fill: #daa520; stroke: #daa520"/>
     <use xlink:href="#m6f27350e85" x="298.398094" y="239.484829" style="fill: #daa520; stroke: #daa520"/>
     <use xlink:href="#m6f27350e85" x="221.550912" y="238.018748" style="fill: #daa520; stroke: #daa520"/>
     <use xlink:href="#m6f27350e85" x="384.726576" y="239.213175" style="fill: #daa520; stroke: #daa520"/>
     <use xlink:href="#m6f27350e85" x="211.835412" y="236.159793" style="fill: #daa520; stroke: #daa520"/>
     <use xlink:href="#m6f27350e85" x="404.324865" y="233.743033" style="fill: #daa520; stroke: #daa520"/>
     <use xlink:href="#m6f27350e85" x="156.195441" y="248.597256" style="fill: #daa520; stroke: #daa520"/>
     <use xlink:href="#m6f27350e85" x="302.404508" y="228.159954" style="fill: #daa520; stroke: #daa520"/>
     <use xlink:href="#m6f27350e85" x="261.301263" y="237.594123" style="fill: #daa520; stroke: #daa520"/>
     <use xlink:href="#m6f27350e85" x="186.99845" y="250.241582" style="fill: #daa520; stroke: #daa520"/>
     <use xlink:href="#m6f27350e85" x="253.854189" y="239.103369" style="fill: #daa520; stroke: #daa520"/>
     <use xlink:href="#m6f27350e85" x="71.951932" y="246.554434" style="fill: #daa520; stroke: #daa520"/>
     <use xlink:href="#m6f27350e85" x="395.97438" y="245.420268" style="fill: #daa520; stroke: #daa520"/>
     <use xlink:href="#m6f27350e85" x="338.686914" y="257.718151" style="fill: #daa520; stroke: #daa520"/>
     <use xlink:href="#m6f27350e85" x="146.53443" y="201.456292" style="fill: #daa520; stroke: #daa520"/>
     <use xlink:href="#m6f27350e85" x="385.86899" y="256.858952" style="fill: #daa520; stroke: #daa520"/>
     <use xlink:href="#m6f27350e85" x="211.384914" y="272.363503" style="fill: #daa520; stroke: #daa520"/>
     <use xlink:href="#m6f27350e85" x="361.432311" y="255.928851" style="fill: #daa520; stroke: #daa520"/>
     <use xlink:href="#m6f27350e85" x="285.042874" y="248.864705" style="fill: #daa520; stroke: #daa520"/>
     <use xlink:href="#m6f27350e85" x="208.986234" y="243.880082" style="fill: #daa520; stroke: #daa520"/>
     <use xlink:href="#m6f27350e85" x="342.931897" y="231.633559" style="fill: #daa520; stroke: #daa520"/>
     <use xlink:href="#m6f27350e85" x="373.132125" y="266.786543" style="fill: #daa520; stroke: #daa520"/>
     <use xlink:href="#m6f27350e85" x="220.019665" y="241.932257" style="fill: #daa520; stroke: #daa520"/>
     <use xlink:href="#m6f27350e85" x="268.252707" y="248.250653" style="fill: #daa520; stroke: #daa520"/>
     <use xlink:href="#m6f27350e85" x="85.006275" y="242.636898" style="fill: #daa520; stroke: #daa520"/>
     <use xlink:href="#m6f27350e85" x="261.980591" y="240.383872" style="fill: #daa520; stroke: #daa520"/>
     <use xlink:href="#m6f27350e85" x="310.845231" y="230.009794" style="fill: #daa520; stroke: #daa520"/>
     <use xlink:href="#m6f27350e85" x="175.808662" y="258.038688" style="fill: #daa520; stroke: #daa520"/>
     <use xlink:href="#m6f27350e85" x="187.086434" y="227.101735" style="fill: #daa520; stroke: #daa520"/>
     <use xlink:href="#m6f27350e85" x="328.271631" y="235.803554" style="fill: #daa520; stroke: #daa520"/>
     <use xlink:href="#m6f27350e85" x="315.104879" y="236.097419" style="fill: #daa520; stroke: #daa520"/>
     <use xlink:href="#m6f27350e85" x="152.099487" y="236.519895" style="fill: #daa520; stroke: #daa520"/>
     <use xlink:href="#m6f27350e85" x="219.34959" y="217.667339" style="fill: #daa520; stroke: #daa520"/>
     <use xlink:href="#m6f27350e85" x="134.120394" y="211.467415" style="fill: #daa520; stroke: #daa520"/>
     <use xlink:href="#m6f27350e85" x="241.457334" y="239.491435" style="fill: #daa520; stroke: #daa520"/>
     <use xlink:href="#m6f27350e85" x="209.861112" y="244.537729" style="fill: #daa520; stroke: #daa520"/>
     <use xlink:href="#m6f27350e85" x="308.260556" y="247.105812" style="fill: #daa520; stroke: #daa520"/>
     <use xlink:href="#m6f27350e85" x="162.668529" y="249.441364" style="fill: #daa520; stroke: #daa520"/>
     <use xlink:href="#m6f27350e85" x="118.236895" y="257.092046" style="fill: #daa520; stroke: #daa520"/>
     <use xlink:href="#m6f27350e85" x="105.756278" y="248.429473" style="fill: #daa520; stroke: #daa520"/>
     <use xlink:href="#m6f27350e85" x="211.212249" y="246.537017" style="fill: #daa520; stroke: #daa520"/>
     <use xlink:href="#m6f27350e85" x="263.272622" y="241.02331" style="fill: #daa520; stroke: #daa520"/>
     <use xlink:href="#m6f27350e85" x="162.887593" y="231.826053" style="fill: #daa520; stroke: #daa520"/>
     <use xlink:href="#m6f27350e85" x="252.942905" y="234.98735" style="fill: #daa520; stroke: #daa520"/>
     <use xlink:href="#m6f27350e85" x="267.751155" y="244.029169" style="fill: #daa520; stroke: #daa520"/>
     <use xlink:href="#m6f27350e85" x="262.528031" y="242.184088" style="fill: #daa520; stroke: #daa520"/>
     <use xlink:href="#m6f27350e85" x="156.934219" y="235.087643" style="fill: #daa520; stroke: #daa520"/>
     <use xlink:href="#m6f27350e85" x="63.214372" y="251.13367" style="fill: #daa520; stroke: #daa520"/>
     <use xlink:href="#m6f27350e85" x="153.350562" y="231.429504" style="fill: #daa520; stroke: #daa520"/>
     <use xlink:href="#m6f27350e85" x="121.497811" y="246.131226" style="fill: #daa520; stroke: #daa520"/>
     <use xlink:href="#m6f27350e85" x="238.417702" y="234.977287" style="fill: #daa520; stroke: #daa520"/>
     <use xlink:href="#m6f27350e85" x="250.774593" y="236.192742" style="fill: #daa520; stroke: #daa520"/>
     <use xlink:href="#m6f27350e85" x="93.297896" y="192.59597" style="fill: #daa520; stroke: #daa520"/>
     <use xlink:href="#m6f27350e85" x="365.206357" y="258.381705" style="fill: #daa520; stroke: #daa520"/>
     <use xlink:href="#m6f27350e85" x="288.846978" y="230.117333" style="fill: #daa520; stroke: #daa520"/>
     <use xlink:href="#m6f27350e85" x="416.365509" y="198.570763" style="fill: #daa520; stroke: #daa520"/>
     <use xlink:href="#m6f27350e85" x="260.478555" y="239.157907" style="fill: #daa520; stroke: #daa520"/>
     <use xlink:href="#m6f27350e85" x="302.526307" y="251.582338" style="fill: #daa520; stroke: #daa520"/>
     <use xlink:href="#m6f27350e85" x="110.922128" y="257.399326" style="fill: #daa520; stroke: #daa520"/>
     <use xlink:href="#m6f27350e85" x="186.83974" y="249.340745" style="fill: #daa520; stroke: #daa520"/>
     <use xlink:href="#m6f27350e85" x="319.318089" y="248.192027" style="fill: #daa520; stroke: #daa520"/>
     <use xlink:href="#m6f27350e85" x="410.20136" y="246.924652" style="fill: #daa520; stroke: #daa520"/>
     <use xlink:href="#m6f27350e85" x="278.710575" y="233.575253" style="fill: #daa520; stroke: #daa520"/>
     <use xlink:href="#m6f27350e85" x="276.710986" y="247.596111" style="fill: #daa520; stroke: #daa520"/>
     <use xlink:href="#m6f27350e85" x="246.541151" y="257.624064" style="fill: #daa520; stroke: #daa520"/>
     <use xlink:href="#m6f27350e85" x="318.530409" y="239.681417" style="fill: #daa520; stroke: #daa520"/>
     <use xlink:href="#m6f27350e85" x="314.509544" y="237.961686" style="fill: #daa520; stroke: #daa520"/>
     <use xlink:href="#m6f27350e85" x="142.677666" y="245.28524" style="fill: #daa520; stroke: #daa520"/>
    </g>
   </g>
   <g id="matplotlib.axis_5">
    <g id="xtick_1">
     <g id="line2d_9">
      <defs>
       <path id="m7695d18d01" d="M 0 0 
L 0 3.5 
" style="stroke: #696969; stroke-width: 0.8"/>
      </defs>
      <g>
       <use xlink:href="#m7695d18d01" x="57.664091" y="276.68" style="fill: #696969; stroke: #696969; stroke-width: 0.8"/>
      </g>
     </g>
     <g id="text_3">
      <!-- −1.0 -->
      <g style="fill: #696969" transform="translate(38.237841 295.8375) scale(0.16 -0.16)">
       <defs>
        <path id="DejaVuSans-2212" d="M 678 2272 
L 4684 2272 
L 4684 1741 
L 678 1741 
L 678 2272 
z
" transform="scale(0.015625)"/>
        <path id="DejaVuSans-31" d="M 794 531 
L 1825 531 
L 1825 4091 
L 703 3866 
L 703 4441 
L 1819 4666 
L 2450 4666 
L 2450 531 
L 3481 531 
L 3481 0 
L 794 0 
L 794 531 
z
" transform="scale(0.015625)"/>
        <path id="DejaVuSans-2e" d="M 684 794 
L 1344 794 
L 1344 0 
L 684 0 
L 684 794 
z
" transform="scale(0.015625)"/>
       </defs>
       <use xlink:href="#DejaVuSans-2212"/>
       <use xlink:href="#DejaVuSans-31" x="83.789062"/>
       <use xlink:href="#DejaVuSans-2e" x="147.412109"/>
       <use xlink:href="#DejaVuSans-30" x="179.199219"/>
      </g>
     </g>
    </g>
    <g id="xtick_2">
     <g id="line2d_10">
      <g>
       <use xlink:href="#m7695d18d01" x="147.759545" y="276.68" style="fill: #696969; stroke: #696969; stroke-width: 0.8"/>
      </g>
     </g>
     <g id="text_4">
      <!-- −0.5 -->
      <g style="fill: #696969" transform="translate(128.333295 295.8375) scale(0.16 -0.16)">
       <use xlink:href="#DejaVuSans-2212"/>
       <use xlink:href="#DejaVuSans-30" x="83.789062"/>
       <use xlink:href="#DejaVuSans-2e" x="147.412109"/>
       <use xlink:href="#DejaVuSans-35" x="179.199219"/>
      </g>
     </g>
    </g>
    <g id="xtick_3">
     <g id="line2d_11">
      <g>
       <use xlink:href="#m7695d18d01" x="237.855" y="276.68" style="fill: #696969; stroke: #696969; stroke-width: 0.8"/>
      </g>
     </g>
     <g id="text_5">
      <!-- 0.0 -->
      <g style="fill: #696969" transform="translate(225.1325 295.8375) scale(0.16 -0.16)">
       <use xlink:href="#DejaVuSans-30"/>
       <use xlink:href="#DejaVuSans-2e" x="63.623047"/>
       <use xlink:href="#DejaVuSans-30" x="95.410156"/>
      </g>
     </g>
    </g>
    <g id="xtick_4">
     <g id="line2d_12">
      <g>
       <use xlink:href="#m7695d18d01" x="327.950455" y="276.68" style="fill: #696969; stroke: #696969; stroke-width: 0.8"/>
      </g>
     </g>
     <g id="text_6">
      <!-- 0.5 -->
      <g style="fill: #696969" transform="translate(315.227955 295.8375) scale(0.16 -0.16)">
       <use xlink:href="#DejaVuSans-30"/>
       <use xlink:href="#DejaVuSans-2e" x="63.623047"/>
       <use xlink:href="#DejaVuSans-35" x="95.410156"/>
      </g>
     </g>
    </g>
    <g id="xtick_5">
     <g id="line2d_13">
      <g>
       <use xlink:href="#m7695d18d01" x="418.045909" y="276.68" style="fill: #696969; stroke: #696969; stroke-width: 0.8"/>
      </g>
     </g>
     <g id="text_7">
      <!-- 1.0 -->
      <g style="fill: #696969" transform="translate(405.323409 295.8375) scale(0.16 -0.16)">
       <use xlink:href="#DejaVuSans-31"/>
       <use xlink:href="#DejaVuSans-2e" x="63.623047"/>
       <use xlink:href="#DejaVuSans-30" x="95.410156"/>
      </g>
     </g>
    </g>
    <g id="text_8">
     <!-- $X$ -->
     <g transform="translate(232.335 315.3225) scale(0.16 -0.16)">
      <defs>
       <path id="DejaVuSans-Oblique-58" d="M 878 4666 
L 1516 4666 
L 2316 2981 
L 3763 4666 
L 4500 4666 
L 2578 2438 
L 3738 0 
L 3103 0 
L 2163 1966 
L 459 0 
L -275 0 
L 1906 2509 
L 878 4666 
z
" transform="scale(0.015625)"/>
      </defs>
      <use xlink:href="#DejaVuSans-Oblique-58" transform="translate(0 0.09375)"/>
     </g>
    </g>
   </g>
   <g id="matplotlib.axis_6">
    <g id="ytick_3">
     <g id="line2d_14">
      <g>
       <use xlink:href="#mf100352bb9" x="39.645" y="239.939857" style="fill: #696969; stroke: #696969; stroke-width: 0.8"/>
      </g>
     </g>
     <g id="text_9">
      <!-- 0.0 -->
      <g style="fill: #696969" transform="translate(7.2 246.018607) scale(0.16 -0.16)">
       <use xlink:href="#DejaVuSans-30"/>
       <use xlink:href="#DejaVuSans-2e" x="63.623047"/>
       <use xlink:href="#DejaVuSans-30" x="95.410156"/>
      </g>
     </g>
    </g>
    <g id="ytick_4">
     <g id="line2d_15">
      <g>
       <use xlink:href="#mf100352bb9" x="39.645" y="192.934799" style="fill: #696969; stroke: #696969; stroke-width: 0.8"/>
      </g>
     </g>
     <g id="text_10">
      <!-- 2.5 -->
      <g style="fill: #696969" transform="translate(7.2 199.013549) scale(0.16 -0.16)">
       <defs>
        <path id="DejaVuSans-32" d="M 1228 531 
L 3431 531 
L 3431 0 
L 469 0 
L 469 531 
Q 828 903 1448 1529 
Q 2069 2156 2228 2338 
Q 2531 2678 2651 2914 
Q 2772 3150 2772 3378 
Q 2772 3750 2511 3984 
Q 2250 4219 1831 4219 
Q 1534 4219 1204 4116 
Q 875 4013 500 3803 
L 500 4441 
Q 881 4594 1212 4672 
Q 1544 4750 1819 4750 
Q 2544 4750 2975 4387 
Q 3406 4025 3406 3419 
Q 3406 3131 3298 2873 
Q 3191 2616 2906 2266 
Q 2828 2175 2409 1742 
Q 1991 1309 1228 531 
z
" transform="scale(0.015625)"/>
       </defs>
       <use xlink:href="#DejaVuSans-32"/>
       <use xlink:href="#DejaVuSans-2e" x="63.623047"/>
       <use xlink:href="#DejaVuSans-35" x="95.410156"/>
      </g>
     </g>
    </g>
   </g>
   <g id="line2d_16">
    <path d="M 57.664091 242.06586 
L 64.871727 240.922696 
L 72.079364 239.906953 
L 79.287 239.058626 
L 86.494636 238.407897 
L 93.702273 237.972848 
L 100.909909 237.757993 
L 108.117545 237.753861 
L 115.325182 237.937686 
L 122.532818 238.275197 
L 129.740455 238.723307 
L 136.948091 239.233528 
L 144.155727 239.755684 
L 151.363364 240.241816 
L 158.571 240.649974 
L 165.778636 240.947786 
L 172.986273 241.115706 
L 180.193909 241.149696 
L 187.401545 241.063011 
L 194.609182 240.886313 
L 201.816818 240.665228 
L 209.024455 240.454379 
L 216.232091 240.307457 
L 223.439727 240.264271 
L 230.647364 240.337882 
L 237.855 240.507 
L 245.062636 240.718568 
L 252.270273 240.902042 
L 259.477909 240.990922 
L 266.685545 240.94283 
L 273.893182 240.750451 
L 281.100818 240.440596 
L 288.308455 240.064229 
L 295.516091 239.682859 
L 302.723727 239.355709 
L 309.931364 239.130355 
L 317.139 239.037272 
L 324.346636 239.087861 
L 331.554273 239.274863 
L 338.761909 239.574401 
L 345.969545 239.948719 
L 353.177182 240.349129 
L 360.384818 240.718814 
L 367.592455 240.995282 
L 374.800091 241.112419 
L 382.007727 241.002252 
L 389.215364 240.596555 
L 396.423 239.82852 
L 403.630636 238.63466 
L 410.838273 236.957106 
L 418.045909 234.746373 
" clip-path="url(#p2bb051c268)" style="fill: none; stroke: #696969; stroke-width: 2; stroke-linecap: square"/>
   </g>
   <g id="line2d_17">
    <path d="M 57.664091 231.02353 
L 64.871727 233.108053 
L 72.079364 234.938478 
L 79.287 236.533934 
L 86.494636 237.912848 
L 93.702273 239.092944 
L 100.909909 240.09124 
L 108.117545 240.924051 
L 115.325182 241.606989 
L 122.532818 242.15496 
L 129.740455 242.582168 
L 136.948091 242.902113 
L 144.155727 243.12759 
L 151.363364 243.27069 
L 158.571 243.342802 
L 165.778636 243.354609 
L 172.986273 243.316091 
L 180.193909 243.236524 
L 187.401545 243.124482 
L 194.609182 242.98783 
L 201.816818 242.833736 
L 209.024455 242.668657 
L 216.232091 242.498352 
L 223.439727 242.327874 
L 230.647364 242.16157 
L 237.855 242.003085 
L 245.062636 241.855362 
L 252.270273 241.720636 
L 259.477909 241.600442 
L 266.685545 241.495608 
L 273.893182 241.40626 
L 281.100818 241.33182 
L 288.308455 241.271004 
L 295.516091 241.221828 
L 302.723727 241.1816 
L 309.931364 241.146927 
L 317.139 241.113711 
L 324.346636 241.07715 
L 331.554273 241.031738 
L 338.761909 240.971265 
L 345.969545 240.888819 
L 353.177182 240.776782 
L 360.384818 240.626832 
L 367.592455 240.429944 
L 374.800091 240.176389 
L 382.007727 239.855735 
L 389.215364 239.456844 
L 396.423 238.967875 
L 403.630636 238.376284 
L 410.838273 237.668823 
L 418.045909 236.831538 
" clip-path="url(#p2bb051c268)" style="fill: none; stroke-dasharray: 7.4,3.2; stroke-dashoffset: 0; stroke: #79ad41; stroke-width: 2"/>
   </g>
   <g id="patch_9">
    <path d="M 39.645 276.68 
L 39.645 181.717057 
" style="fill: none; stroke: #000000; stroke-width: 0.8; stroke-linejoin: miter; stroke-linecap: square"/>
   </g>
   <g id="patch_10">
    <path d="M 436.065 276.68 
L 436.065 181.717057 
" style="fill: none; stroke: #000000; stroke-width: 0.8; stroke-linejoin: miter; stroke-linecap: square"/>
   </g>
   <g id="patch_11">
    <path d="M 39.645 276.68 
L 436.065 276.68 
" style="fill: none; stroke: #000000; stroke-width: 0.8; stroke-linejoin: miter; stroke-linecap: square"/>
   </g>
   <g id="patch_12">
    <path d="M 39.645 181.717057 
L 436.065 181.717057 
" style="fill: none; stroke: #000000; stroke-width: 0.8; stroke-linejoin: miter; stroke-linecap: square"/>
   </g>
  </g>
 </g>
 <defs>
  <clipPath id="p1c7875c6fb">
   <rect x="39.645" y="7.2" width="396.42" height="47.481471"/>
  </clipPath>
  <clipPath id="p2091ffb520">
   <rect x="39.645" y="70.717793" width="396.42" height="94.962943"/>
  </clipPath>
  <clipPath id="p2bb051c268">
   <rect x="39.645" y="181.717057" width="396.42" height="94.962943"/>
  </clipPath>
 </defs>
</svg>
