<?xml version="1.0" encoding="utf-8" standalone="no"?>
<!DOCTYPE svg PUBLIC "-//W3C//DTD SVG 1.1//EN"
  "http://www.w3.org/Graphics/SVG/1.1/DTD/svg11.dtd">
<svg xmlns:xlink="http://www.w3.org/1999/xlink" width="443.2075pt" height="325.85pt" viewBox="0 0 443.2075 325.85" xmlns="http://www.w3.org/2000/svg" version="1.1">
 <metadata>
  <rdf:RDF xmlns:dc="http://purl.org/dc/elements/1.1/" xmlns:cc="http://creativecommons.org/ns#" xmlns:rdf="http://www.w3.org/1999/02/22-rdf-syntax-ns#">
   <cc:Work>
    <dc:type rdf:resource="http://purl.org/dc/dcmitype/StillImage"/>
    <dc:date>2024-01-28T20:53:12.834555</dc:date>
    <dc:format>image/svg+xml</dc:format>
    <dc:creator>
     <cc:Agent>
      <dc:title>Matplotlib v3.7.2, https://matplotlib.org/</dc:title>
     </cc:Agent>
    </dc:creator>
   </cc:Work>
  </rdf:RDF>
 </metadata>
 <defs>
  <style type="text/css">*{stroke-linejoin: round; stroke-linecap: butt}</style>
 </defs>
 <g id="figure_1">
  <g id="patch_1">
   <path d="M 0 325.85 
L 443.2075 325.85 
L 443.2075 0 
L 0 0 
z
" style="fill: #ffffff"/>
  </g>
  <g id="axes_1">
   <g id="patch_2">
    <path d="M 37.7875 52.289192 
L 436.0075 52.289192 
L 436.0075 7.2 
L 37.7875 7.2 
z
" style="fill: #ffffff"/>
   </g>
   <g id="PolyCollection_1">
    <defs>
     <path id="m1b4477baba" d="M 55.888409 -275.610317 
L 55.888409 -309.943243 
L 63.128773 -309.826922 
L 70.369136 -309.727868 
L 77.6095 -309.638086 
L 84.849864 -309.549694 
L 92.090227 -309.455051 
L 99.330591 -309.346796 
L 106.570955 -309.217879 
L 113.811318 -309.061581 
L 121.051682 -308.871438 
L 128.292045 -308.641254 
L 135.532409 -308.365036 
L 142.772773 -308.036966 
L 150.013136 -307.651379 
L 157.2535 -307.202772 
L 164.493864 -306.685849 
L 171.734227 -306.095592 
L 178.974591 -305.427382 
L 186.214955 -304.677208 
L 193.455318 -303.841898 
L 200.695682 -302.919404 
L 207.936045 -301.909161 
L 215.176409 -300.812457 
L 222.416773 -299.632769 
L 229.657136 -298.3761 
L 236.8975 -297.051191 
L 244.137864 -295.669592 
L 251.378227 -294.245512 
L 258.618591 -292.795506 
L 265.858955 -291.337826 
L 273.099318 -289.891648 
L 280.339682 -288.476139 
L 287.580045 -287.109452 
L 294.820409 -285.807804 
L 302.060773 -284.584723 
L 309.301136 -283.450506 
L 316.5415 -282.411985 
L 323.781864 -281.472548 
L 331.022227 -280.632417 
L 338.262591 -280.164781 
L 345.502955 -280.164781 
L 352.743318 -280.164781 
L 359.983682 -280.164781 
L 367.224045 -280.164781 
L 374.464409 -280.164781 
L 381.704773 -280.164781 
L 388.945136 -280.164781 
L 396.1855 -280.164781 
L 403.425864 -280.164781 
L 410.666227 -280.164781 
L 417.906591 -280.164781 
L 417.906591 -275.610317 
L 417.906591 -275.610317 
L 410.666227 -275.610317 
L 403.425864 -275.610317 
L 396.1855 -275.610317 
L 388.945136 -275.610317 
L 381.704773 -275.610317 
L 374.464409 -275.610317 
L 367.224045 -275.610317 
L 359.983682 -275.610317 
L 352.743318 -275.610317 
L 345.502955 -275.610317 
L 338.262591 -275.610317 
L 331.022227 -275.610317 
L 323.781864 -275.610317 
L 316.5415 -275.610317 
L 309.301136 -275.610317 
L 302.060773 -275.610317 
L 294.820409 -275.610317 
L 287.580045 -275.610317 
L 280.339682 -275.610317 
L 273.099318 -275.610317 
L 265.858955 -275.610317 
L 258.618591 -275.610317 
L 251.378227 -275.610317 
L 244.137864 -275.610317 
L 236.8975 -275.610317 
L 229.657136 -275.610317 
L 222.416773 -275.610317 
L 215.176409 -275.610317 
L 207.936045 -275.610317 
L 200.695682 -275.610317 
L 193.455318 -275.610317 
L 186.214955 -275.610317 
L 178.974591 -275.610317 
L 171.734227 -275.610317 
L 164.493864 -275.610317 
L 157.2535 -275.610317 
L 150.013136 -275.610317 
L 142.772773 -275.610317 
L 135.532409 -275.610317 
L 128.292045 -275.610317 
L 121.051682 -275.610317 
L 113.811318 -275.610317 
L 106.570955 -275.610317 
L 99.330591 -275.610317 
L 92.090227 -275.610317 
L 84.849864 -275.610317 
L 77.6095 -275.610317 
L 70.369136 -275.610317 
L 63.128773 -275.610317 
L 55.888409 -275.610317 
z
" style="stroke: #dc143c; stroke-opacity: 0.2"/>
    </defs>
    <g clip-path="url(#p5bb419b64e)">
     <use xlink:href="#m1b4477baba" x="0" y="325.85" style="fill: #dc143c; fill-opacity: 0.2; stroke: #dc143c; stroke-opacity: 0.2"/>
    </g>
   </g>
   <g id="PolyCollection_2">
    <defs>
     <path id="m23df0e9cd6" d="M 55.888409 -275.610317 
L 55.888409 -286.822029 
L 63.128773 -286.93835 
L 70.369136 -287.037404 
L 77.6095 -287.127186 
L 84.849864 -287.215578 
L 92.090227 -287.310221 
L 99.330591 -287.418476 
L 106.570955 -287.547393 
L 113.811318 -287.703691 
L 121.051682 -287.893834 
L 128.292045 -288.124018 
L 135.532409 -288.400236 
L 142.772773 -288.728306 
L 150.013136 -289.113893 
L 157.2535 -289.5625 
L 164.493864 -290.079423 
L 171.734227 -290.66968 
L 178.974591 -291.33789 
L 186.214955 -292.088064 
L 193.455318 -292.923374 
L 200.695682 -293.845868 
L 207.936045 -294.856111 
L 215.176409 -295.952815 
L 222.416773 -297.132503 
L 229.657136 -298.389172 
L 236.8975 -299.714081 
L 244.137864 -301.09568 
L 251.378227 -302.51976 
L 258.618591 -303.969766 
L 265.858955 -305.427446 
L 273.099318 -306.873624 
L 280.339682 -308.289133 
L 287.580045 -309.65582 
L 294.820409 -310.957468 
L 302.060773 -312.18055 
L 309.301136 -313.314766 
L 316.5415 -314.353287 
L 323.781864 -315.292724 
L 331.022227 -316.132855 
L 338.262591 -316.600491 
L 345.502955 -316.600491 
L 352.743318 -316.600491 
L 359.983682 -316.600491 
L 367.224045 -316.600491 
L 374.464409 -316.600491 
L 381.704773 -316.600491 
L 388.945136 -316.600491 
L 396.1855 -316.600491 
L 403.425864 -316.600491 
L 410.666227 -316.600491 
L 417.906591 -316.600491 
L 417.906591 -275.610317 
L 417.906591 -275.610317 
L 410.666227 -275.610317 
L 403.425864 -275.610317 
L 396.1855 -275.610317 
L 388.945136 -275.610317 
L 381.704773 -275.610317 
L 374.464409 -275.610317 
L 367.224045 -275.610317 
L 359.983682 -275.610317 
L 352.743318 -275.610317 
L 345.502955 -275.610317 
L 338.262591 -275.610317 
L 331.022227 -275.610317 
L 323.781864 -275.610317 
L 316.5415 -275.610317 
L 309.301136 -275.610317 
L 302.060773 -275.610317 
L 294.820409 -275.610317 
L 287.580045 -275.610317 
L 280.339682 -275.610317 
L 273.099318 -275.610317 
L 265.858955 -275.610317 
L 258.618591 -275.610317 
L 251.378227 -275.610317 
L 244.137864 -275.610317 
L 236.8975 -275.610317 
L 229.657136 -275.610317 
L 222.416773 -275.610317 
L 215.176409 -275.610317 
L 207.936045 -275.610317 
L 200.695682 -275.610317 
L 193.455318 -275.610317 
L 186.214955 -275.610317 
L 178.974591 -275.610317 
L 171.734227 -275.610317 
L 164.493864 -275.610317 
L 157.2535 -275.610317 
L 150.013136 -275.610317 
L 142.772773 -275.610317 
L 135.532409 -275.610317 
L 128.292045 -275.610317 
L 121.051682 -275.610317 
L 113.811318 -275.610317 
L 106.570955 -275.610317 
L 99.330591 -275.610317 
L 92.090227 -275.610317 
L 84.849864 -275.610317 
L 77.6095 -275.610317 
L 70.369136 -275.610317 
L 63.128773 -275.610317 
L 55.888409 -275.610317 
z
" style="stroke: #000080; stroke-opacity: 0.2"/>
    </defs>
    <g clip-path="url(#p5bb419b64e)">
     <use xlink:href="#m23df0e9cd6" x="0" y="325.85" style="fill: #000080; fill-opacity: 0.2; stroke: #000080; stroke-opacity: 0.2"/>
    </g>
   </g>
   <g id="matplotlib.axis_1"/>
   <g id="matplotlib.axis_2"/>
   <g id="line2d_1">
    <path d="M 55.888409 15.906757 
L 63.128773 16.023078 
L 70.369136 16.122132 
L 77.6095 16.211914 
L 84.849864 16.300306 
L 92.090227 16.394949 
L 99.330591 16.503204 
L 106.570955 16.632121 
L 113.811318 16.788419 
L 121.051682 16.978562 
L 128.292045 17.208746 
L 135.532409 17.484964 
L 142.772773 17.813034 
L 150.013136 18.198621 
L 157.2535 18.647228 
L 164.493864 19.164151 
L 171.734227 19.754408 
L 178.974591 20.422618 
L 186.214955 21.172792 
L 193.455318 22.008102 
L 200.695682 22.930596 
L 207.936045 23.940839 
L 215.176409 25.037543 
L 222.416773 26.217231 
L 229.657136 27.4739 
L 236.8975 28.798809 
L 244.137864 30.180408 
L 251.378227 31.604488 
L 258.618591 33.054494 
L 265.858955 34.512174 
L 273.099318 35.958352 
L 280.339682 37.373861 
L 287.580045 38.740548 
L 294.820409 40.042196 
L 302.060773 41.265277 
L 309.301136 42.399494 
L 316.5415 43.438015 
L 323.781864 44.377452 
L 331.022227 45.217583 
L 338.262591 45.685219 
L 345.502955 45.685219 
L 352.743318 45.685219 
L 359.983682 45.685219 
L 367.224045 45.685219 
L 374.464409 45.685219 
L 381.704773 45.685219 
L 388.945136 45.685219 
L 396.1855 45.685219 
L 403.425864 45.685219 
L 410.666227 45.685219 
L 417.906591 45.685219 
" clip-path="url(#p5bb419b64e)" style="fill: none; stroke: #dc143c; stroke-width: 1.5; stroke-linecap: square"/>
   </g>
   <g id="line2d_2">
    <path d="M 55.888409 39.027971 
L 63.128773 38.91165 
L 70.369136 38.812596 
L 77.6095 38.722814 
L 84.849864 38.634422 
L 92.090227 38.539779 
L 99.330591 38.431524 
L 106.570955 38.302607 
L 113.811318 38.146309 
L 121.051682 37.956166 
L 128.292045 37.725982 
L 135.532409 37.449764 
L 142.772773 37.121694 
L 150.013136 36.736107 
L 157.2535 36.2875 
L 164.493864 35.770577 
L 171.734227 35.18032 
L 178.974591 34.51211 
L 186.214955 33.761936 
L 193.455318 32.926626 
L 200.695682 32.004132 
L 207.936045 30.993889 
L 215.176409 29.897185 
L 222.416773 28.717497 
L 229.657136 27.460828 
L 236.8975 26.135919 
L 244.137864 24.75432 
L 251.378227 23.33024 
L 258.618591 21.880234 
L 265.858955 20.422554 
L 273.099318 18.976376 
L 280.339682 17.560867 
L 287.580045 16.19418 
L 294.820409 14.892532 
L 302.060773 13.66945 
L 309.301136 12.535234 
L 316.5415 11.496713 
L 323.781864 10.557276 
L 331.022227 9.717145 
L 338.262591 9.249509 
L 345.502955 9.249509 
L 352.743318 9.249509 
L 359.983682 9.249509 
L 367.224045 9.249509 
L 374.464409 9.249509 
L 381.704773 9.249509 
L 388.945136 9.249509 
L 396.1855 9.249509 
L 403.425864 9.249509 
L 410.666227 9.249509 
L 417.906591 9.249509 
" clip-path="url(#p5bb419b64e)" style="fill: none; stroke: #000080; stroke-width: 1.5; stroke-linecap: square"/>
   </g>
  </g>
  <g id="axes_2">
   <g id="patch_3">
    <path d="M 37.7875 164.484596 
L 436.0075 164.484596 
L 436.0075 74.306212 
L 37.7875 74.306212 
z
" style="fill: #ffffff"/>
   </g>
   <g id="PathCollection_1">
    <defs>
     <path id="m669ad5f767" d="M 0 0.866025 
C 0.229673 0.866025 0.449969 0.774776 0.612372 0.612372 
C 0.774776 0.449969 0.866025 0.229673 0.866025 0 
C 0.866025 -0.229673 0.774776 -0.449969 0.612372 -0.612372 
C 0.449969 -0.774776 0.229673 -0.866025 0 -0.866025 
C -0.229673 -0.866025 -0.449969 -0.774776 -0.612372 -0.612372 
C -0.774776 -0.449969 -0.866025 -0.229673 -0.866025 0 
C -0.866025 0.229673 -0.774776 0.449969 -0.612372 0.612372 
C -0.449969 0.774776 -0.229673 0.866025 0 0.866025 
z
" style="stroke: #daa520"/>
    </defs>
    <g clip-path="url(#p353442c224)">
     <use xlink:href="#m669ad5f767" x="120.971947" y="115.983674" style="fill: #daa520; stroke: #daa520"/>
     <use xlink:href="#m669ad5f767" x="158.456073" y="107.444405" style="fill: #daa520; stroke: #daa520"/>
     <use xlink:href="#m669ad5f767" x="173.2073" y="99.994005" style="fill: #daa520; stroke: #daa520"/>
     <use xlink:href="#m669ad5f767" x="238.131496" y="105.130535" style="fill: #daa520; stroke: #daa520"/>
     <use xlink:href="#m669ad5f767" x="177.738018" y="110.664578" style="fill: #daa520; stroke: #daa520"/>
     <use xlink:href="#m669ad5f767" x="181.758396" y="109.045189" style="fill: #daa520; stroke: #daa520"/>
     <use xlink:href="#m669ad5f767" x="197.288378" y="104.482874" style="fill: #daa520; stroke: #daa520"/>
     <use xlink:href="#m669ad5f767" x="215.825698" y="106.046521" style="fill: #daa520; stroke: #daa520"/>
     <use xlink:href="#m669ad5f767" x="212.054469" y="110.77181" style="fill: #daa520; stroke: #daa520"/>
     <use xlink:href="#m669ad5f767" x="130.591967" y="107.537783" style="fill: #daa520; stroke: #daa520"/>
     <use xlink:href="#m669ad5f767" x="182.671189" y="110.553301" style="fill: #daa520; stroke: #daa520"/>
     <use xlink:href="#m669ad5f767" x="198.262891" y="100.192667" style="fill: #daa520; stroke: #daa520"/>
     <use xlink:href="#m669ad5f767" x="196.327461" y="101.477791" style="fill: #daa520; stroke: #daa520"/>
     <use xlink:href="#m669ad5f767" x="167.884477" y="101.0677" style="fill: #daa520; stroke: #daa520"/>
     <use xlink:href="#m669ad5f767" x="70.83922" y="110.234641" style="fill: #daa520; stroke: #daa520"/>
     <use xlink:href="#m669ad5f767" x="143.253989" y="110.963265" style="fill: #daa520; stroke: #daa520"/>
     <use xlink:href="#m669ad5f767" x="179.558454" y="101.481863" style="fill: #daa520; stroke: #daa520"/>
     <use xlink:href="#m669ad5f767" x="143.135442" y="106.189702" style="fill: #daa520; stroke: #daa520"/>
     <use xlink:href="#m669ad5f767" x="96.393663" y="117.418012" style="fill: #daa520; stroke: #daa520"/>
     <use xlink:href="#m669ad5f767" x="59.966304" y="138.693491" style="fill: #daa520; stroke: #daa520"/>
     <use xlink:href="#m669ad5f767" x="79.405386" y="147.268793" style="fill: #daa520; stroke: #daa520"/>
     <use xlink:href="#m669ad5f767" x="225.688767" y="97.782149" style="fill: #daa520; stroke: #daa520"/>
     <use xlink:href="#m669ad5f767" x="97.501678" y="143.964021" style="fill: #daa520; stroke: #daa520"/>
     <use xlink:href="#m669ad5f767" x="364.676288" y="87.044666" style="fill: #daa520; stroke: #daa520"/>
     <use xlink:href="#m669ad5f767" x="270.887838" y="104.880793" style="fill: #daa520; stroke: #daa520"/>
     <use xlink:href="#m669ad5f767" x="164.845855" y="101.699098" style="fill: #daa520; stroke: #daa520"/>
     <use xlink:href="#m669ad5f767" x="75.973762" y="107.399436" style="fill: #daa520; stroke: #daa520"/>
     <use xlink:href="#m669ad5f767" x="152.440858" y="104.132056" style="fill: #daa520; stroke: #daa520"/>
     <use xlink:href="#m669ad5f767" x="160.203031" y="105.886432" style="fill: #daa520; stroke: #daa520"/>
     <use xlink:href="#m669ad5f767" x="90.973666" y="147.058444" style="fill: #daa520; stroke: #daa520"/>
     <use xlink:href="#m669ad5f767" x="137.310673" y="141.798065" style="fill: #daa520; stroke: #daa520"/>
     <use xlink:href="#m669ad5f767" x="77.515743" y="107.191537" style="fill: #daa520; stroke: #daa520"/>
     <use xlink:href="#m669ad5f767" x="69.359927" y="140.702939" style="fill: #daa520; stroke: #daa520"/>
     <use xlink:href="#m669ad5f767" x="164.760317" y="125.364375" style="fill: #daa520; stroke: #daa520"/>
     <use xlink:href="#m669ad5f767" x="208.300362" y="108.228518" style="fill: #daa520; stroke: #daa520"/>
     <use xlink:href="#m669ad5f767" x="164.507982" y="105.61682" style="fill: #daa520; stroke: #daa520"/>
     <use xlink:href="#m669ad5f767" x="62.399341" y="107.106148" style="fill: #daa520; stroke: #daa520"/>
     <use xlink:href="#m669ad5f767" x="202.390488" y="98.840687" style="fill: #daa520; stroke: #daa520"/>
     <use xlink:href="#m669ad5f767" x="292.06497" y="83.800771" style="fill: #daa520; stroke: #daa520"/>
     <use xlink:href="#m669ad5f767" x="142.005634" y="105.305271" style="fill: #daa520; stroke: #daa520"/>
     <use xlink:href="#m669ad5f767" x="334.777553" y="109.072442" style="fill: #daa520; stroke: #daa520"/>
     <use xlink:href="#m669ad5f767" x="77.071615" y="156.03347" style="fill: #daa520; stroke: #daa520"/>
     <use xlink:href="#m669ad5f767" x="308.790081" y="98.850408" style="fill: #daa520; stroke: #daa520"/>
     <use xlink:href="#m669ad5f767" x="230.61818" y="106.175253" style="fill: #daa520; stroke: #daa520"/>
     <use xlink:href="#m669ad5f767" x="159.689956" y="128.225244" style="fill: #daa520; stroke: #daa520"/>
     <use xlink:href="#m669ad5f767" x="198.103069" y="99.450786" style="fill: #daa520; stroke: #daa520"/>
     <use xlink:href="#m669ad5f767" x="150.473277" y="130.929443" style="fill: #daa520; stroke: #daa520"/>
     <use xlink:href="#m669ad5f767" x="225.051952" y="96.268136" style="fill: #daa520; stroke: #daa520"/>
     <use xlink:href="#m669ad5f767" x="121.135211" y="107.818687" style="fill: #daa520; stroke: #daa520"/>
     <use xlink:href="#m669ad5f767" x="170.626145" y="100.478057" style="fill: #daa520; stroke: #daa520"/>
     <use xlink:href="#m669ad5f767" x="176.071838" y="100.507614" style="fill: #daa520; stroke: #daa520"/>
     <use xlink:href="#m669ad5f767" x="214.360738" y="94.435761" style="fill: #daa520; stroke: #daa520"/>
     <use xlink:href="#m669ad5f767" x="60.919429" y="106.797926" style="fill: #daa520; stroke: #daa520"/>
     <use xlink:href="#m669ad5f767" x="133.578029" y="126.209034" style="fill: #daa520; stroke: #daa520"/>
     <use xlink:href="#m669ad5f767" x="82.866675" y="111.896971" style="fill: #daa520; stroke: #daa520"/>
     <use xlink:href="#m669ad5f767" x="194.099761" y="98.093145" style="fill: #daa520; stroke: #daa520"/>
     <use xlink:href="#m669ad5f767" x="131.512163" y="114.96692" style="fill: #daa520; stroke: #daa520"/>
     <use xlink:href="#m669ad5f767" x="281.500832" y="96.839427" style="fill: #daa520; stroke: #daa520"/>
     <use xlink:href="#m669ad5f767" x="184.28744" y="109.8906" style="fill: #daa520; stroke: #daa520"/>
     <use xlink:href="#m669ad5f767" x="95.843208" y="133.709643" style="fill: #daa520; stroke: #daa520"/>
     <use xlink:href="#m669ad5f767" x="129.036908" y="111.998819" style="fill: #daa520; stroke: #daa520"/>
     <use xlink:href="#m669ad5f767" x="56.026019" y="160.385578" style="fill: #daa520; stroke: #daa520"/>
     <use xlink:href="#m669ad5f767" x="335.202439" y="111.822529" style="fill: #daa520; stroke: #daa520"/>
     <use xlink:href="#m669ad5f767" x="183.193295" y="101.043922" style="fill: #daa520; stroke: #daa520"/>
     <use xlink:href="#m669ad5f767" x="126.7794" y="119.636461" style="fill: #daa520; stroke: #daa520"/>
     <use xlink:href="#m669ad5f767" x="80.606326" y="115.203669" style="fill: #daa520; stroke: #daa520"/>
     <use xlink:href="#m669ad5f767" x="119.184955" y="126.933386" style="fill: #daa520; stroke: #daa520"/>
     <use xlink:href="#m669ad5f767" x="84.729509" y="106.393492" style="fill: #daa520; stroke: #daa520"/>
     <use xlink:href="#m669ad5f767" x="116.053214" y="105.448833" style="fill: #daa520; stroke: #daa520"/>
     <use xlink:href="#m669ad5f767" x="83.077804" y="141.563064" style="fill: #daa520; stroke: #daa520"/>
     <use xlink:href="#m669ad5f767" x="165.160758" y="111.628872" style="fill: #daa520; stroke: #daa520"/>
     <use xlink:href="#m669ad5f767" x="129.435927" y="108.830577" style="fill: #daa520; stroke: #daa520"/>
     <use xlink:href="#m669ad5f767" x="78.113248" y="137.430811" style="fill: #daa520; stroke: #daa520"/>
     <use xlink:href="#m669ad5f767" x="262.050496" y="98.428592" style="fill: #daa520; stroke: #daa520"/>
     <use xlink:href="#m669ad5f767" x="174.072205" y="101.856209" style="fill: #daa520; stroke: #daa520"/>
     <use xlink:href="#m669ad5f767" x="124.1273" y="120.540612" style="fill: #daa520; stroke: #daa520"/>
     <use xlink:href="#m669ad5f767" x="286.058903" y="89.810344" style="fill: #daa520; stroke: #daa520"/>
     <use xlink:href="#m669ad5f767" x="199.932697" y="102.208435" style="fill: #daa520; stroke: #daa520"/>
     <use xlink:href="#m669ad5f767" x="89.741215" y="136.22173" style="fill: #daa520; stroke: #daa520"/>
     <use xlink:href="#m669ad5f767" x="163.439637" y="101.901473" style="fill: #daa520; stroke: #daa520"/>
     <use xlink:href="#m669ad5f767" x="350.293682" y="82.728967" style="fill: #daa520; stroke: #daa520"/>
     <use xlink:href="#m669ad5f767" x="221.172846" y="97.29692" style="fill: #daa520; stroke: #daa520"/>
     <use xlink:href="#m669ad5f767" x="211.100163" y="93.782156" style="fill: #daa520; stroke: #daa520"/>
     <use xlink:href="#m669ad5f767" x="185.78734" y="111.112687" style="fill: #daa520; stroke: #daa520"/>
     <use xlink:href="#m669ad5f767" x="173.131644" y="101.960846" style="fill: #daa520; stroke: #daa520"/>
     <use xlink:href="#m669ad5f767" x="83.0974" y="125.586398" style="fill: #daa520; stroke: #daa520"/>
     <use xlink:href="#m669ad5f767" x="278.537953" y="108.097067" style="fill: #daa520; stroke: #daa520"/>
     <use xlink:href="#m669ad5f767" x="232.957764" y="108.425553" style="fill: #daa520; stroke: #daa520"/>
     <use xlink:href="#m669ad5f767" x="126.148375" y="108.267809" style="fill: #daa520; stroke: #daa520"/>
     <use xlink:href="#m669ad5f767" x="285.957397" y="99.250572" style="fill: #daa520; stroke: #daa520"/>
     <use xlink:href="#m669ad5f767" x="63.265055" y="145.847075" style="fill: #daa520; stroke: #daa520"/>
     <use xlink:href="#m669ad5f767" x="162.130202" y="115.600467" style="fill: #daa520; stroke: #daa520"/>
     <use xlink:href="#m669ad5f767" x="241.47099" y="86.871807" style="fill: #daa520; stroke: #daa520"/>
     <use xlink:href="#m669ad5f767" x="205.910002" y="98.184414" style="fill: #daa520; stroke: #daa520"/>
     <use xlink:href="#m669ad5f767" x="122.900989" y="108.163758" style="fill: #daa520; stroke: #daa520"/>
     <use xlink:href="#m669ad5f767" x="167.656012" y="109.540562" style="fill: #daa520; stroke: #daa520"/>
     <use xlink:href="#m669ad5f767" x="169.888242" y="116.915906" style="fill: #daa520; stroke: #daa520"/>
     <use xlink:href="#m669ad5f767" x="208.474071" y="97.612653" style="fill: #daa520; stroke: #daa520"/>
     <use xlink:href="#m669ad5f767" x="180.435837" y="106.445229" style="fill: #daa520; stroke: #daa520"/>
    </g>
   </g>
   <g id="matplotlib.axis_3"/>
   <g id="matplotlib.axis_4">
    <g id="ytick_1">
     <g id="line2d_3">
      <defs>
       <path id="mfad757e4f3" d="M 0 0 
L -3.5 0 
" style="stroke: #696969; stroke-width: 0.8"/>
      </defs>
      <g>
       <use xlink:href="#mfad757e4f3" x="37.7875" y="135.492066" style="fill: #696969; stroke: #696969; stroke-width: 0.8"/>
      </g>
     </g>
     <g id="text_1">
      <!-- −5 -->
      <g style="fill: #696969" transform="translate(7.2 141.570816) scale(0.16 -0.16)">
       <defs>
        <path id="DejaVuSans-2212" d="M 678 2272 
L 4684 2272 
L 4684 1741 
L 678 1741 
L 678 2272 
z
" transform="scale(0.015625)"/>
        <path id="DejaVuSans-35" d="M 691 4666 
L 3169 4666 
L 3169 4134 
L 1269 4134 
L 1269 2991 
Q 1406 3038 1543 3061 
Q 1681 3084 1819 3084 
Q 2600 3084 3056 2656 
Q 3513 2228 3513 1497 
Q 3513 744 3044 326 
Q 2575 -91 1722 -91 
Q 1428 -91 1123 -41 
Q 819 9 494 109 
L 494 744 
Q 775 591 1075 516 
Q 1375 441 1709 441 
Q 2250 441 2565 725 
Q 2881 1009 2881 1497 
Q 2881 1984 2565 2268 
Q 2250 2553 1709 2553 
Q 1456 2553 1204 2497 
Q 953 2441 691 2322 
L 691 4666 
z
" transform="scale(0.015625)"/>
       </defs>
       <use xlink:href="#DejaVuSans-2212"/>
       <use xlink:href="#DejaVuSans-35" x="83.789062"/>
      </g>
     </g>
    </g>
    <g id="ytick_2">
     <g id="line2d_4">
      <g>
       <use xlink:href="#mfad757e4f3" x="37.7875" y="105.121402" style="fill: #696969; stroke: #696969; stroke-width: 0.8"/>
      </g>
     </g>
     <g id="text_2">
      <!-- 0 -->
      <g style="fill: #696969" transform="translate(20.6075 111.200152) scale(0.16 -0.16)">
       <defs>
        <path id="DejaVuSans-30" d="M 2034 4250 
Q 1547 4250 1301 3770 
Q 1056 3291 1056 2328 
Q 1056 1369 1301 889 
Q 1547 409 2034 409 
Q 2525 409 2770 889 
Q 3016 1369 3016 2328 
Q 3016 3291 2770 3770 
Q 2525 4250 2034 4250 
z
M 2034 4750 
Q 2819 4750 3233 4129 
Q 3647 3509 3647 2328 
Q 3647 1150 3233 529 
Q 2819 -91 2034 -91 
Q 1250 -91 836 529 
Q 422 1150 422 2328 
Q 422 3509 836 4129 
Q 1250 4750 2034 4750 
z
" transform="scale(0.015625)"/>
       </defs>
       <use xlink:href="#DejaVuSans-30"/>
      </g>
     </g>
    </g>
    <g id="ytick_3">
     <g id="line2d_5">
      <g>
       <use xlink:href="#mfad757e4f3" x="37.7875" y="74.750739" style="fill: #696969; stroke: #696969; stroke-width: 0.8"/>
      </g>
     </g>
     <g id="text_3">
      <!-- 5 -->
      <g style="fill: #696969" transform="translate(20.6075 80.829489) scale(0.16 -0.16)">
       <use xlink:href="#DejaVuSans-35"/>
      </g>
     </g>
    </g>
   </g>
   <g id="line2d_6">
    <path d="M 55.888409 135.372254 
L 63.128773 133.968241 
L 70.369136 132.427734 
L 77.6095 130.755863 
L 84.849864 128.961398 
L 92.090227 127.057151 
L 99.330591 125.060049 
L 106.570955 122.990911 
L 113.811318 120.87391 
L 121.051682 118.735762 
L 128.292045 116.604711 
L 135.532409 114.509401 
L 142.772773 112.477718 
L 150.013136 110.535697 
L 157.2535 108.706542 
L 164.493864 107.009846 
L 171.734227 105.461033 
L 178.974591 104.070999 
L 186.214955 102.845981 
L 193.455318 101.787622 
L 200.695682 100.893146 
L 207.936045 100.155673 
L 215.176409 99.564579 
L 222.416773 99.105901 
L 229.657136 98.762764 
L 236.8975 98.515814 
L 244.137864 98.343672 
L 251.378227 98.223418 
L 258.618591 98.131127 
L 265.858955 98.042452 
L 273.099318 97.933301 
L 280.339682 97.780555 
L 287.580045 97.562851 
L 294.820409 97.261374 
L 302.060773 96.860627 
L 309.301136 96.349105 
L 316.5415 95.719846 
L 323.781864 94.970757 
L 331.022227 94.104718 
L 338.262591 93.129389 
L 345.502955 92.056724 
L 352.743318 90.902226 
L 359.983682 89.683935 
L 367.224045 88.421233 
L 374.464409 87.133549 
L 381.704773 85.83904 
L 388.945136 84.553337 
L 396.1855 83.288472 
L 403.425864 82.052048 
L 410.666227 80.846721 
L 417.906591 79.670054 
" clip-path="url(#p353442c224)" style="fill: none; stroke: #000000; stroke-width: 2; stroke-linecap: square"/>
   </g>
   <g id="line2d_7">
    <path d="M 55.888409 135.276481 
L 63.128773 132.744148 
L 70.369136 130.323836 
L 77.6095 128.017287 
L 84.849864 125.824982 
L 92.090227 123.746311 
L 99.330591 121.779744 
L 106.570955 119.922971 
L 113.811318 118.173048 
L 121.051682 116.526517 
L 128.292045 114.979517 
L 135.532409 113.527892 
L 142.772773 112.167273 
L 150.013136 110.893161 
L 157.2535 109.700998 
L 164.493864 108.586226 
L 171.734227 107.544333 
L 178.974591 106.570901 
L 186.214955 105.661637 
L 193.455318 104.812396 
L 200.695682 104.019203 
L 207.936045 103.278259 
L 215.176409 102.585953 
L 222.416773 101.938851 
L 229.657136 101.333698 
L 236.8975 100.767398 
L 244.137864 100.237001 
L 251.378227 99.73968 
L 258.618591 99.272709 
L 265.858955 98.833426 
L 273.099318 98.419212 
L 280.339682 98.027448 
L 287.580045 97.655485 
L 294.820409 97.300601 
L 302.060773 96.959966 
L 309.301136 96.6306 
L 316.5415 96.309336 
L 323.781864 95.992775 
L 331.022227 95.677254 
L 338.262591 95.358801 
L 345.502955 95.033103 
L 352.743318 94.69547 
L 359.983682 94.340805 
L 367.224045 93.963572 
L 374.464409 93.557771 
L 381.704773 93.116917 
L 388.945136 92.634023 
L 396.1855 92.101584 
L 403.425864 91.511574 
L 410.666227 90.855439 
L 417.906591 90.1241 
" clip-path="url(#p353442c224)" style="fill: none; stroke-dasharray: 7.4,3.2; stroke-dashoffset: 0; stroke: #34b6c6; stroke-width: 2"/>
   </g>
   <g id="line2d_8">
    <path d="M 55.888409 132.430442 
L 63.128773 131.432903 
L 70.369136 130.256936 
L 77.6095 128.890617 
L 84.849864 127.339727 
L 92.090227 125.630263 
L 99.330591 123.804852 
L 106.570955 121.913241 
L 113.811318 120.00098 
L 121.051682 118.101905 
L 128.292045 116.237415 
L 135.532409 114.421434 
L 142.772773 112.667291 
L 150.013136 110.992686 
L 157.2535 109.420387 
L 164.493864 107.974615 
L 171.734227 106.675273 
L 178.974591 105.533117 
L 186.214955 104.547984 
L 193.455318 103.710202 
L 200.695682 103.003787 
L 207.936045 102.40985 
L 215.176409 101.90923 
L 222.416773 101.484073 
L 229.657136 101.118526 
L 236.8975 100.798819 
L 244.137864 100.513008 
L 251.378227 100.250541 
L 258.618591 100.001739 
L 265.858955 99.75722 
L 273.099318 99.507272 
L 280.339682 99.241144 
L 287.580045 98.946272 
L 294.820409 98.607529 
L 302.060773 98.206738 
L 309.301136 97.722963 
L 316.5415 97.134335 
L 323.781864 96.422186 
L 331.022227 95.57739 
L 338.262591 94.607004 
L 345.502955 93.537447 
L 352.743318 92.411179 
L 359.983682 91.277882 
L 367.224045 90.184996 
L 374.464409 89.171785 
L 381.704773 88.266982 
L 388.945136 87.487517 
L 396.1855 86.837216 
L 403.425864 86.306736 
L 410.666227 85.875849 
L 417.906591 85.517362 
" clip-path="url(#p353442c224)" style="fill: none; stroke-dasharray: 7.4,3.2; stroke-dashoffset: 0; stroke: #9370db; stroke-width: 2"/>
   </g>
   <g id="line2d_9">
    <path d="M 55.888409 129.186706 
L 63.128773 128.260033 
L 70.369136 127.128477 
L 77.6095 125.781555 
L 84.849864 124.227648 
L 92.090227 122.496922 
L 99.330591 120.637462 
L 106.570955 118.7048 
L 113.811318 116.749437 
L 121.051682 114.808565 
L 128.292045 112.905341 
L 135.532409 111.054455 
L 142.772773 109.269832 
L 150.013136 107.570195 
L 157.2535 105.979873 
L 164.493864 104.524814 
L 171.734227 103.226196 
L 178.974591 102.095073 
L 186.214955 101.130422 
L 193.455318 100.320714 
L 200.695682 99.647469 
L 207.936045 99.089051 
L 215.176409 98.623579 
L 222.416773 98.230688 
L 229.657136 97.892287 
L 236.8975 97.592649 
L 244.137864 97.318121 
L 251.378227 97.056629 
L 258.618591 96.797103 
L 265.858955 96.528836 
L 273.099318 96.24078 
L 280.339682 95.920772 
L 287.580045 95.554675 
L 294.820409 95.125558 
L 302.060773 94.613177 
L 309.301136 93.994312 
L 316.5415 93.244841 
L 323.781864 92.344354 
L 331.022227 91.283261 
L 338.262591 90.070213 
L 345.502955 88.735706 
L 352.743318 87.328457 
L 359.983682 85.90569 
L 367.224045 84.522711 
L 374.464409 83.226417 
L 381.704773 82.052803 
L 388.945136 81.025669 
L 396.1855 80.155328 
L 403.425864 79.438688 
L 410.666227 78.861967 
L 417.906591 78.40523 
" clip-path="url(#p353442c224)" style="fill: none; stroke-dasharray: 12.8,3.2,2,3.2; stroke-dashoffset: 0; stroke: #ff0000; stroke-width: 2"/>
   </g>
   <g id="patch_4">
    <path d="M 37.7875 164.484596 
L 37.7875 74.306212 
" style="fill: none; stroke: #000000; stroke-width: 0.8; stroke-linejoin: miter; stroke-linecap: square"/>
   </g>
   <g id="patch_5">
    <path d="M 436.0075 164.484596 
L 436.0075 74.306212 
" style="fill: none; stroke: #000000; stroke-width: 0.8; stroke-linejoin: miter; stroke-linecap: square"/>
   </g>
   <g id="patch_6">
    <path d="M 37.7875 164.484596 
L 436.0075 164.484596 
" style="fill: none; stroke: #000000; stroke-width: 0.8; stroke-linejoin: miter; stroke-linecap: square"/>
   </g>
   <g id="patch_7">
    <path d="M 37.7875 74.306212 
L 436.0075 74.306212 
" style="fill: none; stroke: #000000; stroke-width: 0.8; stroke-linejoin: miter; stroke-linecap: square"/>
   </g>
  </g>
  <g id="axes_3">
   <g id="patch_8">
    <path d="M 37.7875 276.68 
L 436.0075 276.68 
L 436.0075 186.501617 
L 37.7875 186.501617 
z
" style="fill: #ffffff"/>
   </g>
   <g id="PathCollection_2">
    <g clip-path="url(#pad2c789406)">
     <use xlink:href="#m669ad5f767" x="120.971947" y="237.115822" style="fill: #daa520; stroke: #daa520"/>
     <use xlink:href="#m669ad5f767" x="158.456073" y="236.245689" style="fill: #daa520; stroke: #daa520"/>
     <use xlink:href="#m669ad5f767" x="173.2073" y="243.525428" style="fill: #daa520; stroke: #daa520"/>
     <use xlink:href="#m669ad5f767" x="238.131496" y="227.16284" style="fill: #daa520; stroke: #daa520"/>
     <use xlink:href="#m669ad5f767" x="177.738018" y="225.921558" style="fill: #daa520; stroke: #daa520"/>
     <use xlink:href="#m669ad5f767" x="181.758396" y="227.543218" style="fill: #daa520; stroke: #daa520"/>
     <use xlink:href="#m669ad5f767" x="197.288378" y="231.885204" style="fill: #daa520; stroke: #daa520"/>
     <use xlink:href="#m669ad5f767" x="215.825698" y="227.356644" style="fill: #daa520; stroke: #daa520"/>
     <use xlink:href="#m669ad5f767" x="212.054469" y="220.398553" style="fill: #daa520; stroke: #daa520"/>
     <use xlink:href="#m669ad5f767" x="130.591967" y="246.287467" style="fill: #daa520; stroke: #daa520"/>
     <use xlink:href="#m669ad5f767" x="182.671189" y="225.019858" style="fill: #daa520; stroke: #daa520"/>
     <use xlink:href="#m669ad5f767" x="198.262891" y="238.386231" style="fill: #daa520; stroke: #daa520"/>
     <use xlink:href="#m669ad5f767" x="196.327461" y="236.674214" style="fill: #daa520; stroke: #daa520"/>
     <use xlink:href="#m669ad5f767" x="167.884477" y="243.278165" style="fill: #daa520; stroke: #daa520"/>
     <use xlink:href="#m669ad5f767" x="70.83922" y="264.917202" style="fill: #daa520; stroke: #daa520"/>
     <use xlink:href="#m669ad5f767" x="143.253989" y="236.101729" style="fill: #daa520; stroke: #daa520"/>
     <use xlink:href="#m669ad5f767" x="179.558454" y="239.720439" style="fill: #daa520; stroke: #daa520"/>
     <use xlink:href="#m669ad5f767" x="143.135442" y="243.532303" style="fill: #daa520; stroke: #daa520"/>
     <use xlink:href="#m669ad5f767" x="96.393663" y="245.068678" style="fill: #daa520; stroke: #daa520"/>
     <use xlink:href="#m669ad5f767" x="59.966304" y="223.420459" style="fill: #daa520; stroke: #daa520"/>
     <use xlink:href="#m669ad5f767" x="79.405386" y="205.084852" style="fill: #daa520; stroke: #daa520"/>
     <use xlink:href="#m669ad5f767" x="225.688767" y="239.349866" style="fill: #daa520; stroke: #daa520"/>
     <use xlink:href="#m669ad5f767" x="97.501678" y="203.5474" style="fill: #daa520; stroke: #daa520"/>
     <use xlink:href="#m669ad5f767" x="364.676288" y="235.740066" style="fill: #daa520; stroke: #daa520"/>
     <use xlink:href="#m669ad5f767" x="270.887838" y="225.672516" style="fill: #daa520; stroke: #daa520"/>
     <use xlink:href="#m669ad5f767" x="164.845855" y="243.17028" style="fill: #daa520; stroke: #daa520"/>
     <use xlink:href="#m669ad5f767" x="75.973762" y="267.845155" style="fill: #daa520; stroke: #daa520"/>
     <use xlink:href="#m669ad5f767" x="152.440858" y="243.37542" style="fill: #daa520; stroke: #daa520"/>
     <use xlink:href="#m669ad5f767" x="160.203031" y="238.101331" style="fill: #daa520; stroke: #daa520"/>
     <use xlink:href="#m669ad5f767" x="90.973666" y="201.323655" style="fill: #daa520; stroke: #daa520"/>
     <use xlink:href="#m669ad5f767" x="137.310673" y="190.640908" style="fill: #daa520; stroke: #daa520"/>
     <use xlink:href="#m669ad5f767" x="77.515743" y="267.696093" style="fill: #daa520; stroke: #daa520"/>
     <use xlink:href="#m669ad5f767" x="69.359927" y="218.160568" style="fill: #daa520; stroke: #daa520"/>
     <use xlink:href="#m669ad5f767" x="164.760317" y="206.576423" style="fill: #daa520; stroke: #daa520"/>
     <use xlink:href="#m669ad5f767" x="208.300362" y="224.719802" style="fill: #daa520; stroke: #daa520"/>
     <use xlink:href="#m669ad5f767" x="164.507982" y="237.207447" style="fill: #daa520; stroke: #daa520"/>
     <use xlink:href="#m669ad5f767" x="62.399341" y="271.792595" style="fill: #daa520; stroke: #daa520"/>
     <use xlink:href="#m669ad5f767" x="202.390488" y="239.932816" style="fill: #daa520; stroke: #daa520"/>
     <use xlink:href="#m669ad5f767" x="292.06497" y="256.691059" style="fill: #daa520; stroke: #daa520"/>
     <use xlink:href="#m669ad5f767" x="142.005634" y="245.322938" style="fill: #daa520; stroke: #daa520"/>
     <use xlink:href="#m669ad5f767" x="334.777553" y="210.428491" style="fill: #daa520; stroke: #daa520"/>
     <use xlink:href="#m669ad5f767" x="77.071615" y="192.256629" style="fill: #daa520; stroke: #daa520"/>
     <use xlink:href="#m669ad5f767" x="308.790081" y="231.460962" style="fill: #daa520; stroke: #daa520"/>
     <use xlink:href="#m669ad5f767" x="230.61818" y="226.020022" style="fill: #daa520; stroke: #daa520"/>
     <use xlink:href="#m669ad5f767" x="159.689956" y="203.69661" style="fill: #daa520; stroke: #daa520"/>
     <use xlink:href="#m669ad5f767" x="198.103069" y="239.556512" style="fill: #daa520; stroke: #daa520"/>
     <use xlink:href="#m669ad5f767" x="150.473277" y="202.594079" style="fill: #daa520; stroke: #daa520"/>
     <use xlink:href="#m669ad5f767" x="225.051952" y="241.739161" style="fill: #daa520; stroke: #daa520"/>
     <use xlink:href="#m669ad5f767" x="121.135211" y="249.68292" style="fill: #daa520; stroke: #daa520"/>
     <use xlink:href="#m669ad5f767" x="170.626145" y="243.444682" style="fill: #daa520; stroke: #daa520"/>
     <use xlink:href="#m669ad5f767" x="176.071838" y="242.028004" style="fill: #daa520; stroke: #daa520"/>
     <use xlink:href="#m669ad5f767" x="214.360738" y="245.456425" style="fill: #daa520; stroke: #daa520"/>
     <use xlink:href="#m669ad5f767" x="60.919429" y="272.580983" style="fill: #daa520; stroke: #daa520"/>
     <use xlink:href="#m669ad5f767" x="133.578029" y="216.215555" style="fill: #daa520; stroke: #daa520"/>
     <use xlink:href="#m669ad5f767" x="82.866675" y="258.669854" style="fill: #daa520; stroke: #daa520"/>
     <use xlink:href="#m669ad5f767" x="194.099761" y="242.247411" style="fill: #daa520; stroke: #daa520"/>
     <use xlink:href="#m669ad5f767" x="131.512163" y="234.426384" style="fill: #daa520; stroke: #daa520"/>
     <use xlink:href="#m669ad5f767" x="281.500832" y="237.394425" style="fill: #daa520; stroke: #daa520"/>
     <use xlink:href="#m669ad5f767" x="184.28744" y="225.719087" style="fill: #daa520; stroke: #daa520"/>
     <use xlink:href="#m669ad5f767" x="95.843208" y="220.079172" style="fill: #daa520; stroke: #daa520"/>
     <use xlink:href="#m669ad5f767" x="129.036908" y="240.005359" style="fill: #daa520; stroke: #daa520"/>
     <use xlink:href="#m669ad5f767" x="56.026019" y="190.600634" style="fill: #daa520; stroke: #daa520"/>
     <use xlink:href="#m669ad5f767" x="335.202439" y="206.062208" style="fill: #daa520; stroke: #daa520"/>
     <use xlink:href="#m669ad5f767" x="183.193295" y="239.627654" style="fill: #daa520; stroke: #daa520"/>
     <use xlink:href="#m669ad5f767" x="126.7794" y="229.095044" style="fill: #daa520; stroke: #daa520"/>
     <use xlink:href="#m669ad5f767" x="80.606326" y="254.310967" style="fill: #daa520; stroke: #daa520"/>
     <use xlink:href="#m669ad5f767" x="119.184955" y="220.909602" style="fill: #daa520; stroke: #daa520"/>
     <use xlink:href="#m669ad5f767" x="84.729509" y="266.539774" style="fill: #daa520; stroke: #daa520"/>
     <use xlink:href="#m669ad5f767" x="116.053214" y="255.4532" style="fill: #daa520; stroke: #daa520"/>
     <use xlink:href="#m669ad5f767" x="83.077804" y="212.693152" style="fill: #daa520; stroke: #daa520"/>
     <use xlink:href="#m669ad5f767" x="165.160758" y="227.713138" style="fill: #daa520; stroke: #daa520"/>
     <use xlink:href="#m669ad5f767" x="129.435927" y="244.748145" style="fill: #daa520; stroke: #daa520"/>
     <use xlink:href="#m669ad5f767" x="78.113248" y="220.718355" style="fill: #daa520; stroke: #daa520"/>
     <use xlink:href="#m669ad5f767" x="262.050496" y="236.182776" style="fill: #daa520; stroke: #daa520"/>
     <use xlink:href="#m669ad5f767" x="174.072205" y="240.427417" style="fill: #daa520; stroke: #daa520"/>
     <use xlink:href="#m669ad5f767" x="124.1273" y="228.772147" style="fill: #daa520; stroke: #daa520"/>
     <use xlink:href="#m669ad5f767" x="286.058903" y="247.91611" style="fill: #daa520; stroke: #daa520"/>
     <use xlink:href="#m669ad5f767" x="199.932697" y="235.039392" style="fill: #daa520; stroke: #daa520"/>
     <use xlink:href="#m669ad5f767" x="89.741215" y="218.558687" style="fill: #daa520; stroke: #daa520"/>
     <use xlink:href="#m669ad5f767" x="163.439637" y="243.274036" style="fill: #daa520; stroke: #daa520"/>
     <use xlink:href="#m669ad5f767" x="350.293682" y="246.762376" style="fill: #daa520; stroke: #daa520"/>
     <use xlink:href="#m669ad5f767" x="221.172846" y="240.443951" style="fill: #daa520; stroke: #daa520"/>
     <use xlink:href="#m669ad5f767" x="211.100163" y="246.782557" style="fill: #daa520; stroke: #daa520"/>
     <use xlink:href="#m669ad5f767" x="185.78734" y="223.536342" style="fill: #daa520; stroke: #daa520"/>
     <use xlink:href="#m669ad5f767" x="173.131644" y="240.50111" style="fill: #daa520; stroke: #daa520"/>
     <use xlink:href="#m669ad5f767" x="83.0974" y="237.408255" style="fill: #daa520; stroke: #daa520"/>
     <use xlink:href="#m669ad5f767" x="278.537953" y="220.189077" style="fill: #daa520; stroke: #daa520"/>
     <use xlink:href="#m669ad5f767" x="232.957764" y="222.385017" style="fill: #daa520; stroke: #daa520"/>
     <use xlink:href="#m669ad5f767" x="126.148375" y="246.941717" style="fill: #daa520; stroke: #daa520"/>
     <use xlink:href="#m669ad5f767" x="285.957397" y="233.316851" style="fill: #daa520; stroke: #daa520"/>
     <use xlink:href="#m669ad5f767" x="63.265055" y="211.657733" style="fill: #daa520; stroke: #daa520"/>
     <use xlink:href="#m669ad5f767" x="162.130202" y="222.472948" style="fill: #daa520; stroke: #daa520"/>
     <use xlink:href="#m669ad5f767" x="241.47099" y="255.218839" style="fill: #daa520; stroke: #daa520"/>
     <use xlink:href="#m669ad5f767" x="205.910002" y="240.527028" style="fill: #daa520; stroke: #daa520"/>
     <use xlink:href="#m669ad5f767" x="122.900989" y="248.42455" style="fill: #daa520; stroke: #daa520"/>
     <use xlink:href="#m669ad5f767" x="167.656012" y="230.231317" style="fill: #daa520; stroke: #daa520"/>
     <use xlink:href="#m669ad5f767" x="169.888242" y="218.206356" style="fill: #daa520; stroke: #daa520"/>
     <use xlink:href="#m669ad5f767" x="208.474071" y="241.127821" style="fill: #daa520; stroke: #daa520"/>
     <use xlink:href="#m669ad5f767" x="180.435837" y="231.848415" style="fill: #daa520; stroke: #daa520"/>
    </g>
   </g>
   <g id="matplotlib.axis_5">
    <g id="xtick_1">
     <g id="line2d_10">
      <defs>
       <path id="m8416597f1a" d="M 0 0 
L 0 3.5 
" style="stroke: #696969; stroke-width: 0.8"/>
      </defs>
      <g>
       <use xlink:href="#m8416597f1a" x="55.888409" y="276.68" style="fill: #696969; stroke: #696969; stroke-width: 0.8"/>
      </g>
     </g>
     <g id="text_4">
      <!-- −1.0 -->
      <g style="fill: #696969" transform="translate(36.462159 295.8375) scale(0.16 -0.16)">
       <defs>
        <path id="DejaVuSans-31" d="M 794 531 
L 1825 531 
L 1825 4091 
L 703 3866 
L 703 4441 
L 1819 4666 
L 2450 4666 
L 2450 531 
L 3481 531 
L 3481 0 
L 794 0 
L 794 531 
z
" transform="scale(0.015625)"/>
        <path id="DejaVuSans-2e" d="M 684 794 
L 1344 794 
L 1344 0 
L 684 0 
L 684 794 
z
" transform="scale(0.015625)"/>
       </defs>
       <use xlink:href="#DejaVuSans-2212"/>
       <use xlink:href="#DejaVuSans-31" x="83.789062"/>
       <use xlink:href="#DejaVuSans-2e" x="147.412109"/>
       <use xlink:href="#DejaVuSans-30" x="179.199219"/>
      </g>
     </g>
    </g>
    <g id="xtick_2">
     <g id="line2d_11">
      <g>
       <use xlink:href="#m8416597f1a" x="146.392955" y="276.68" style="fill: #696969; stroke: #696969; stroke-width: 0.8"/>
      </g>
     </g>
     <g id="text_5">
      <!-- −0.5 -->
      <g style="fill: #696969" transform="translate(126.966705 295.8375) scale(0.16 -0.16)">
       <use xlink:href="#DejaVuSans-2212"/>
       <use xlink:href="#DejaVuSans-30" x="83.789062"/>
       <use xlink:href="#DejaVuSans-2e" x="147.412109"/>
       <use xlink:href="#DejaVuSans-35" x="179.199219"/>
      </g>
     </g>
    </g>
    <g id="xtick_3">
     <g id="line2d_12">
      <g>
       <use xlink:href="#m8416597f1a" x="236.8975" y="276.68" style="fill: #696969; stroke: #696969; stroke-width: 0.8"/>
      </g>
     </g>
     <g id="text_6">
      <!-- 0.0 -->
      <g style="fill: #696969" transform="translate(224.175 295.8375) scale(0.16 -0.16)">
       <use xlink:href="#DejaVuSans-30"/>
       <use xlink:href="#DejaVuSans-2e" x="63.623047"/>
       <use xlink:href="#DejaVuSans-30" x="95.410156"/>
      </g>
     </g>
    </g>
    <g id="xtick_4">
     <g id="line2d_13">
      <g>
       <use xlink:href="#m8416597f1a" x="327.402045" y="276.68" style="fill: #696969; stroke: #696969; stroke-width: 0.8"/>
      </g>
     </g>
     <g id="text_7">
      <!-- 0.5 -->
      <g style="fill: #696969" transform="translate(314.679545 295.8375) scale(0.16 -0.16)">
       <use xlink:href="#DejaVuSans-30"/>
       <use xlink:href="#DejaVuSans-2e" x="63.623047"/>
       <use xlink:href="#DejaVuSans-35" x="95.410156"/>
      </g>
     </g>
    </g>
    <g id="xtick_5">
     <g id="line2d_14">
      <g>
       <use xlink:href="#m8416597f1a" x="417.906591" y="276.68" style="fill: #696969; stroke: #696969; stroke-width: 0.8"/>
      </g>
     </g>
     <g id="text_8">
      <!-- 1.0 -->
      <g style="fill: #696969" transform="translate(405.184091 295.8375) scale(0.16 -0.16)">
       <use xlink:href="#DejaVuSans-31"/>
       <use xlink:href="#DejaVuSans-2e" x="63.623047"/>
       <use xlink:href="#DejaVuSans-30" x="95.410156"/>
      </g>
     </g>
    </g>
    <g id="text_9">
     <!-- $X$ -->
     <g transform="translate(231.3775 315.3225) scale(0.16 -0.16)">
      <defs>
       <path id="DejaVuSans-Oblique-58" d="M 878 4666 
L 1516 4666 
L 2316 2981 
L 3763 4666 
L 4500 4666 
L 2578 2438 
L 3738 0 
L 3103 0 
L 2163 1966 
L 459 0 
L -275 0 
L 1906 2509 
L 878 4666 
z
" transform="scale(0.015625)"/>
      </defs>
      <use xlink:href="#DejaVuSans-Oblique-58" transform="translate(0 0.09375)"/>
     </g>
    </g>
   </g>
   <g id="matplotlib.axis_6">
    <g id="ytick_4">
     <g id="line2d_15">
      <g>
       <use xlink:href="#mfad757e4f3" x="37.7875" y="238.901347" style="fill: #696969; stroke: #696969; stroke-width: 0.8"/>
      </g>
     </g>
     <g id="text_10">
      <!-- 0 -->
      <g style="fill: #696969" transform="translate(20.6075 244.980097) scale(0.16 -0.16)">
       <use xlink:href="#DejaVuSans-30"/>
      </g>
     </g>
    </g>
    <g id="ytick_5">
     <g id="line2d_16">
      <g>
       <use xlink:href="#mfad757e4f3" x="37.7875" y="191.906675" style="fill: #696969; stroke: #696969; stroke-width: 0.8"/>
      </g>
     </g>
     <g id="text_11">
      <!-- 5 -->
      <g style="fill: #696969" transform="translate(20.6075 197.985425) scale(0.16 -0.16)">
       <use xlink:href="#DejaVuSans-35"/>
      </g>
     </g>
    </g>
   </g>
   <g id="line2d_17">
    <path d="M 55.888409 229.330012 
L 63.128773 230.068634 
L 70.369136 230.701433 
L 77.6095 231.204249 
L 84.849864 231.576481 
L 92.090227 231.844983 
L 99.330591 232.057966 
L 106.570955 232.269145 
L 113.811318 232.519258 
L 121.051682 232.824518 
L 128.292045 233.17705 
L 135.532409 233.555265 
L 142.772773 233.937558 
L 150.013136 234.312616 
L 157.2535 234.682179 
L 164.493864 235.056082 
L 171.734227 235.443227 
L 178.974591 235.843858 
L 186.214955 236.246741 
L 193.455318 236.631496 
L 200.695682 236.973823 
L 207.936045 237.250887 
L 215.176409 237.445271 
L 222.416773 237.547069 
L 229.657136 237.554397 
L 236.8975 237.472869 
L 244.137864 237.314439 
L 251.378227 237.095892 
L 258.618591 236.837119 
L 265.858955 236.559222 
L 273.099318 236.28239 
L 280.339682 236.023573 
L 287.580045 235.793955 
L 294.820409 235.596449 
L 302.060773 235.423708 
L 309.301136 235.25761 
L 316.5415 235.071597 
L 323.781864 234.837329 
L 331.022227 234.535506 
L 338.262591 234.167668 
L 345.502955 233.762501 
L 352.743318 233.371401 
L 359.983682 233.055002 
L 367.224045 232.868888 
L 374.464409 232.855566 
L 381.704773 233.042635 
L 388.945136 233.442736 
L 396.1855 234.053211 
L 403.425864 234.85751 
L 410.666227 235.830196 
L 417.906591 236.944195 
" clip-path="url(#pad2c789406)" style="fill: none; stroke: #696969; stroke-width: 2; stroke-linecap: square"/>
   </g>
   <g id="line2d_18">
    <path d="M 55.888409 234.372245 
L 63.128773 234.217571 
L 70.369136 234.071983 
L 77.6095 233.940065 
L 84.849864 233.824929 
L 92.090227 233.728443 
L 99.330591 233.651445 
L 106.570955 233.593924 
L 113.811318 233.555187 
L 121.051682 233.534008 
L 128.292045 233.528751 
L 135.532409 233.537492 
L 142.772773 233.558103 
L 150.013136 233.588344 
L 157.2535 233.625925 
L 164.493864 233.668562 
L 171.734227 233.714021 
L 178.974591 233.760152 
L 186.214955 233.804911 
L 193.455318 233.846377 
L 200.695682 233.88276 
L 207.936045 233.912403 
L 215.176409 233.933777 
L 222.416773 233.945478 
L 229.657136 233.946217 
L 236.8975 233.934803 
L 244.137864 233.910137 
L 251.378227 233.871198 
L 258.618591 233.817031 
L 265.858955 233.746739 
L 273.099318 233.659481 
L 280.339682 233.554471 
L 287.580045 233.430982 
L 294.820409 233.288361 
L 302.060773 233.126049 
L 309.301136 232.94361 
L 316.5415 232.740772 
L 323.781864 232.517475 
L 331.022227 232.273937 
L 338.262591 232.010729 
L 345.502955 231.728863 
L 352.743318 231.429905 
L 359.983682 231.116088 
L 367.224045 230.79046 
L 374.464409 230.457038 
L 381.704773 230.120991 
L 388.945136 229.788832 
L 396.1855 229.468648 
L 403.425864 229.170338 
L 410.666227 228.905883 
L 417.906591 228.689641 
" clip-path="url(#pad2c789406)" style="fill: none; stroke-dasharray: 7.4,3.2; stroke-dashoffset: 0; stroke: #79ad41; stroke-width: 2"/>
   </g>
   <g id="patch_9">
    <path d="M 37.7875 276.68 
L 37.7875 186.501617 
" style="fill: none; stroke: #000000; stroke-width: 0.8; stroke-linejoin: miter; stroke-linecap: square"/>
   </g>
   <g id="patch_10">
    <path d="M 436.0075 276.68 
L 436.0075 186.501617 
" style="fill: none; stroke: #000000; stroke-width: 0.8; stroke-linejoin: miter; stroke-linecap: square"/>
   </g>
   <g id="patch_11">
    <path d="M 37.7875 276.68 
L 436.0075 276.68 
" style="fill: none; stroke: #000000; stroke-width: 0.8; stroke-linejoin: miter; stroke-linecap: square"/>
   </g>
   <g id="patch_12">
    <path d="M 37.7875 186.501617 
L 436.0075 186.501617 
" style="fill: none; stroke: #000000; stroke-width: 0.8; stroke-linejoin: miter; stroke-linecap: square"/>
   </g>
  </g>
 </g>
 <defs>
  <clipPath id="p5bb419b64e">
   <rect x="37.7875" y="7.2" width="398.22" height="45.089192"/>
  </clipPath>
  <clipPath id="p353442c224">
   <rect x="37.7875" y="74.306212" width="398.22" height="90.178383"/>
  </clipPath>
  <clipPath id="pad2c789406">
   <rect x="37.7875" y="186.501617" width="398.22" height="90.178383"/>
  </clipPath>
 </defs>
</svg>
