<?xml version="1.0" encoding="utf-8" standalone="no"?>
<!DOCTYPE svg PUBLIC "-//W3C//DTD SVG 1.1//EN"
  "http://www.w3.org/Graphics/SVG/1.1/DTD/svg11.dtd">
<svg xmlns:xlink="http://www.w3.org/1999/xlink" width="443.2075pt" height="325.85pt" viewBox="0 0 443.2075 325.85" xmlns="http://www.w3.org/2000/svg" version="1.1">
 <metadata>
  <rdf:RDF xmlns:dc="http://purl.org/dc/elements/1.1/" xmlns:cc="http://creativecommons.org/ns#" xmlns:rdf="http://www.w3.org/1999/02/22-rdf-syntax-ns#">
   <cc:Work>
    <dc:type rdf:resource="http://purl.org/dc/dcmitype/StillImage"/>
    <dc:date>2024-01-28T20:53:12.057634</dc:date>
    <dc:format>image/svg+xml</dc:format>
    <dc:creator>
     <cc:Agent>
      <dc:title>Matplotlib v3.7.2, https://matplotlib.org/</dc:title>
     </cc:Agent>
    </dc:creator>
   </cc:Work>
  </rdf:RDF>
 </metadata>
 <defs>
  <style type="text/css">*{stroke-linejoin: round; stroke-linecap: butt}</style>
 </defs>
 <g id="figure_1">
  <g id="patch_1">
   <path d="M 0 325.85 
L 443.2075 325.85 
L 443.2075 0 
L 0 0 
z
" style="fill: #ffffff"/>
  </g>
  <g id="axes_1">
   <g id="patch_2">
    <path d="M 37.7875 52.96558 
L 436.0075 52.96558 
L 436.0075 7.2 
L 37.7875 7.2 
z
" style="fill: #ffffff"/>
   </g>
   <g id="PolyCollection_1">
    <defs>
     <path id="m55cbc33802" d="M 55.888409 -274.964674 
L 55.888409 -309.812632 
L 63.128773 -309.694566 
L 70.369136 -309.594026 
L 77.6095 -309.502898 
L 84.849864 -309.413179 
L 92.090227 -309.317116 
L 99.330591 -309.207237 
L 106.570955 -309.076387 
L 113.811318 -308.917744 
L 121.051682 -308.724748 
L 128.292045 -308.491112 
L 135.532409 -308.21075 
L 142.772773 -307.877759 
L 150.013136 -307.486388 
L 157.2535 -307.031051 
L 164.493864 -306.506374 
L 171.734227 -305.907262 
L 178.974591 -305.229028 
L 186.214955 -304.4676 
L 193.455318 -303.61976 
L 200.695682 -302.683427 
L 207.936045 -301.65803 
L 215.176409 -300.544874 
L 222.416773 -299.347489 
L 229.657136 -298.071969 
L 236.8975 -296.727185 
L 244.137864 -295.32486 
L 251.378227 -293.879417 
L 258.618591 -292.40766 
L 265.858955 -290.928114 
L 273.099318 -289.460241 
L 280.339682 -288.023497 
L 287.580045 -286.636309 
L 294.820409 -285.315134 
L 302.060773 -284.073706 
L 309.301136 -282.922475 
L 316.5415 -281.868375 
L 323.781864 -280.914845 
L 331.022227 -280.062111 
L 338.262591 -279.58746 
L 345.502955 -279.58746 
L 352.743318 -279.58746 
L 359.983682 -279.58746 
L 367.224045 -279.58746 
L 374.464409 -279.58746 
L 381.704773 -279.58746 
L 388.945136 -279.58746 
L 396.1855 -279.58746 
L 403.425864 -279.58746 
L 410.666227 -279.58746 
L 417.906591 -279.58746 
L 417.906591 -274.964674 
L 417.906591 -274.964674 
L 410.666227 -274.964674 
L 403.425864 -274.964674 
L 396.1855 -274.964674 
L 388.945136 -274.964674 
L 381.704773 -274.964674 
L 374.464409 -274.964674 
L 367.224045 -274.964674 
L 359.983682 -274.964674 
L 352.743318 -274.964674 
L 345.502955 -274.964674 
L 338.262591 -274.964674 
L 331.022227 -274.964674 
L 323.781864 -274.964674 
L 316.5415 -274.964674 
L 309.301136 -274.964674 
L 302.060773 -274.964674 
L 294.820409 -274.964674 
L 287.580045 -274.964674 
L 280.339682 -274.964674 
L 273.099318 -274.964674 
L 265.858955 -274.964674 
L 258.618591 -274.964674 
L 251.378227 -274.964674 
L 244.137864 -274.964674 
L 236.8975 -274.964674 
L 229.657136 -274.964674 
L 222.416773 -274.964674 
L 215.176409 -274.964674 
L 207.936045 -274.964674 
L 200.695682 -274.964674 
L 193.455318 -274.964674 
L 186.214955 -274.964674 
L 178.974591 -274.964674 
L 171.734227 -274.964674 
L 164.493864 -274.964674 
L 157.2535 -274.964674 
L 150.013136 -274.964674 
L 142.772773 -274.964674 
L 135.532409 -274.964674 
L 128.292045 -274.964674 
L 121.051682 -274.964674 
L 113.811318 -274.964674 
L 106.570955 -274.964674 
L 99.330591 -274.964674 
L 92.090227 -274.964674 
L 84.849864 -274.964674 
L 77.6095 -274.964674 
L 70.369136 -274.964674 
L 63.128773 -274.964674 
L 55.888409 -274.964674 
z
" style="stroke: #dc143c; stroke-opacity: 0.2"/>
    </defs>
    <g clip-path="url(#p9916304247)">
     <use xlink:href="#m55cbc33802" x="0" y="325.85" style="fill: #dc143c; fill-opacity: 0.2; stroke: #dc143c; stroke-opacity: 0.2"/>
    </g>
   </g>
   <g id="PolyCollection_2">
    <defs>
     <path id="m5dd9172d05" d="M 55.888409 -274.964674 
L 55.888409 -286.344574 
L 63.128773 -286.46264 
L 70.369136 -286.56318 
L 77.6095 -286.654309 
L 84.849864 -286.744027 
L 92.090227 -286.84009 
L 99.330591 -286.949969 
L 106.570955 -287.080819 
L 113.811318 -287.239462 
L 121.051682 -287.432458 
L 128.292045 -287.666094 
L 135.532409 -287.946456 
L 142.772773 -288.279447 
L 150.013136 -288.670819 
L 157.2535 -289.126155 
L 164.493864 -289.650833 
L 171.734227 -290.249944 
L 178.974591 -290.928178 
L 186.214955 -291.689606 
L 193.455318 -292.537446 
L 200.695682 -293.473779 
L 207.936045 -294.499177 
L 215.176409 -295.612332 
L 222.416773 -296.809717 
L 229.657136 -298.085237 
L 236.8975 -299.430021 
L 244.137864 -300.832346 
L 251.378227 -302.277789 
L 258.618591 -303.749547 
L 265.858955 -305.229093 
L 273.099318 -306.696965 
L 280.339682 -308.133709 
L 287.580045 -309.520898 
L 294.820409 -310.842072 
L 302.060773 -312.083501 
L 309.301136 -313.234732 
L 316.5415 -314.288831 
L 323.781864 -315.242361 
L 331.022227 -316.095095 
L 338.262591 -316.569746 
L 345.502955 -316.569746 
L 352.743318 -316.569746 
L 359.983682 -316.569746 
L 367.224045 -316.569746 
L 374.464409 -316.569746 
L 381.704773 -316.569746 
L 388.945136 -316.569746 
L 396.1855 -316.569746 
L 403.425864 -316.569746 
L 410.666227 -316.569746 
L 417.906591 -316.569746 
L 417.906591 -274.964674 
L 417.906591 -274.964674 
L 410.666227 -274.964674 
L 403.425864 -274.964674 
L 396.1855 -274.964674 
L 388.945136 -274.964674 
L 381.704773 -274.964674 
L 374.464409 -274.964674 
L 367.224045 -274.964674 
L 359.983682 -274.964674 
L 352.743318 -274.964674 
L 345.502955 -274.964674 
L 338.262591 -274.964674 
L 331.022227 -274.964674 
L 323.781864 -274.964674 
L 316.5415 -274.964674 
L 309.301136 -274.964674 
L 302.060773 -274.964674 
L 294.820409 -274.964674 
L 287.580045 -274.964674 
L 280.339682 -274.964674 
L 273.099318 -274.964674 
L 265.858955 -274.964674 
L 258.618591 -274.964674 
L 251.378227 -274.964674 
L 244.137864 -274.964674 
L 236.8975 -274.964674 
L 229.657136 -274.964674 
L 222.416773 -274.964674 
L 215.176409 -274.964674 
L 207.936045 -274.964674 
L 200.695682 -274.964674 
L 193.455318 -274.964674 
L 186.214955 -274.964674 
L 178.974591 -274.964674 
L 171.734227 -274.964674 
L 164.493864 -274.964674 
L 157.2535 -274.964674 
L 150.013136 -274.964674 
L 142.772773 -274.964674 
L 135.532409 -274.964674 
L 128.292045 -274.964674 
L 121.051682 -274.964674 
L 113.811318 -274.964674 
L 106.570955 -274.964674 
L 99.330591 -274.964674 
L 92.090227 -274.964674 
L 84.849864 -274.964674 
L 77.6095 -274.964674 
L 70.369136 -274.964674 
L 63.128773 -274.964674 
L 55.888409 -274.964674 
z
" style="stroke: #000080; stroke-opacity: 0.2"/>
    </defs>
    <g clip-path="url(#p9916304247)">
     <use xlink:href="#m5dd9172d05" x="0" y="325.85" style="fill: #000080; fill-opacity: 0.2; stroke: #000080; stroke-opacity: 0.2"/>
    </g>
   </g>
   <g id="matplotlib.axis_1"/>
   <g id="matplotlib.axis_2"/>
   <g id="line2d_1">
    <path d="M 55.888409 16.037368 
L 63.128773 16.155434 
L 70.369136 16.255974 
L 77.6095 16.347102 
L 84.849864 16.436821 
L 92.090227 16.532884 
L 99.330591 16.642763 
L 106.570955 16.773613 
L 113.811318 16.932256 
L 121.051682 17.125252 
L 128.292045 17.358888 
L 135.532409 17.63925 
L 142.772773 17.972241 
L 150.013136 18.363612 
L 157.2535 18.818949 
L 164.493864 19.343626 
L 171.734227 19.942738 
L 178.974591 20.620972 
L 186.214955 21.3824 
L 193.455318 22.23024 
L 200.695682 23.166573 
L 207.936045 24.19197 
L 215.176409 25.305126 
L 222.416773 26.502511 
L 229.657136 27.778031 
L 236.8975 29.122815 
L 244.137864 30.52514 
L 251.378227 31.970583 
L 258.618591 33.44234 
L 265.858955 34.921886 
L 273.099318 36.389759 
L 280.339682 37.826503 
L 287.580045 39.213691 
L 294.820409 40.534866 
L 302.060773 41.776294 
L 309.301136 42.927525 
L 316.5415 43.981625 
L 323.781864 44.935155 
L 331.022227 45.787889 
L 338.262591 46.26254 
L 345.502955 46.26254 
L 352.743318 46.26254 
L 359.983682 46.26254 
L 367.224045 46.26254 
L 374.464409 46.26254 
L 381.704773 46.26254 
L 388.945136 46.26254 
L 396.1855 46.26254 
L 403.425864 46.26254 
L 410.666227 46.26254 
L 417.906591 46.26254 
" clip-path="url(#p9916304247)" style="fill: none; stroke: #dc143c; stroke-width: 1.5; stroke-linecap: square"/>
   </g>
   <g id="line2d_2">
    <path d="M 55.888409 39.505426 
L 63.128773 39.38736 
L 70.369136 39.28682 
L 77.6095 39.195691 
L 84.849864 39.105973 
L 92.090227 39.00991 
L 99.330591 38.900031 
L 106.570955 38.769181 
L 113.811318 38.610538 
L 121.051682 38.417542 
L 128.292045 38.183906 
L 135.532409 37.903544 
L 142.772773 37.570553 
L 150.013136 37.179181 
L 157.2535 36.723845 
L 164.493864 36.199167 
L 171.734227 35.600056 
L 178.974591 34.921822 
L 186.214955 34.160394 
L 193.455318 33.312554 
L 200.695682 32.376221 
L 207.936045 31.350823 
L 215.176409 30.237668 
L 222.416773 29.040283 
L 229.657136 27.764763 
L 236.8975 26.419979 
L 244.137864 25.017654 
L 251.378227 23.572211 
L 258.618591 22.100453 
L 265.858955 20.620907 
L 273.099318 19.153035 
L 280.339682 17.716291 
L 287.580045 16.329102 
L 294.820409 15.007928 
L 302.060773 13.766499 
L 309.301136 12.615268 
L 316.5415 11.561169 
L 323.781864 10.607639 
L 331.022227 9.754905 
L 338.262591 9.280254 
L 345.502955 9.280254 
L 352.743318 9.280254 
L 359.983682 9.280254 
L 367.224045 9.280254 
L 374.464409 9.280254 
L 381.704773 9.280254 
L 388.945136 9.280254 
L 396.1855 9.280254 
L 403.425864 9.280254 
L 410.666227 9.280254 
L 417.906591 9.280254 
" clip-path="url(#p9916304247)" style="fill: none; stroke: #000080; stroke-width: 1.5; stroke-linecap: square"/>
   </g>
  </g>
  <g id="axes_2">
   <g id="patch_3">
    <path d="M 37.7875 164.82279 
L 436.0075 164.82279 
L 436.0075 73.291631 
L 37.7875 73.291631 
z
" style="fill: #ffffff"/>
   </g>
   <g id="PathCollection_1">
    <defs>
     <path id="m74c03f9819" d="M 0 0.866025 
C 0.229673 0.866025 0.449969 0.774776 0.612372 0.612372 
C 0.774776 0.449969 0.866025 0.229673 0.866025 0 
C 0.866025 -0.229673 0.774776 -0.449969 0.612372 -0.612372 
C 0.449969 -0.774776 0.229673 -0.866025 0 -0.866025 
C -0.229673 -0.866025 -0.449969 -0.774776 -0.612372 -0.612372 
C -0.774776 -0.449969 -0.866025 -0.229673 -0.866025 0 
C -0.866025 0.229673 -0.774776 0.449969 -0.612372 0.612372 
C -0.449969 0.774776 -0.229673 0.866025 0 0.866025 
z
" style="stroke: #daa520"/>
    </defs>
    <g clip-path="url(#p3f585ce474)">
     <use xlink:href="#m74c03f9819" x="120.971947" y="116.448756" style="fill: #daa520; stroke: #daa520"/>
     <use xlink:href="#m74c03f9819" x="158.456073" y="107.945715" style="fill: #daa520; stroke: #daa520"/>
     <use xlink:href="#m74c03f9819" x="173.2073" y="100.526923" style="fill: #daa520; stroke: #daa520"/>
     <use xlink:href="#m74c03f9819" x="238.131496" y="105.641661" style="fill: #daa520; stroke: #daa520"/>
     <use xlink:href="#m74c03f9819" x="177.738018" y="111.152226" style="fill: #daa520; stroke: #daa520"/>
     <use xlink:href="#m74c03f9819" x="181.758396" y="109.539707" style="fill: #daa520; stroke: #daa520"/>
     <use xlink:href="#m74c03f9819" x="197.288378" y="104.996748" style="fill: #daa520; stroke: #daa520"/>
     <use xlink:href="#m74c03f9819" x="215.825698" y="106.553761" style="fill: #daa520; stroke: #daa520"/>
     <use xlink:href="#m74c03f9819" x="212.054469" y="111.259003" style="fill: #daa520; stroke: #daa520"/>
     <use xlink:href="#m74c03f9819" x="130.591967" y="108.038696" style="fill: #daa520; stroke: #daa520"/>
     <use xlink:href="#m74c03f9819" x="182.671189" y="111.04142" style="fill: #daa520; stroke: #daa520"/>
     <use xlink:href="#m74c03f9819" x="198.262891" y="100.724742" style="fill: #daa520; stroke: #daa520"/>
     <use xlink:href="#m74c03f9819" x="196.327461" y="102.004414" style="fill: #daa520; stroke: #daa520"/>
     <use xlink:href="#m74c03f9819" x="167.884477" y="101.596063" style="fill: #daa520; stroke: #daa520"/>
     <use xlink:href="#m74c03f9819" x="70.83922" y="110.724112" style="fill: #daa520; stroke: #daa520"/>
     <use xlink:href="#m74c03f9819" x="143.253989" y="111.449645" style="fill: #daa520; stroke: #daa520"/>
     <use xlink:href="#m74c03f9819" x="179.558454" y="102.008468" style="fill: #daa520; stroke: #daa520"/>
     <use xlink:href="#m74c03f9819" x="143.135442" y="106.696334" style="fill: #daa520; stroke: #daa520"/>
     <use xlink:href="#m74c03f9819" x="96.393663" y="117.877008" style="fill: #daa520; stroke: #daa520"/>
     <use xlink:href="#m74c03f9819" x="59.966304" y="139.062225" style="fill: #daa520; stroke: #daa520"/>
     <use xlink:href="#m74c03f9819" x="79.405386" y="147.601146" style="fill: #daa520; stroke: #daa520"/>
     <use xlink:href="#m74c03f9819" x="225.688767" y="98.324451" style="fill: #daa520; stroke: #daa520"/>
     <use xlink:href="#m74c03f9819" x="97.501678" y="144.310395" style="fill: #daa520; stroke: #daa520"/>
     <use xlink:href="#m74c03f9819" x="364.676288" y="87.632522" style="fill: #daa520; stroke: #daa520"/>
     <use xlink:href="#m74c03f9819" x="270.887838" y="105.392978" style="fill: #daa520; stroke: #daa520"/>
     <use xlink:href="#m74c03f9819" x="164.845855" y="102.224782" style="fill: #daa520; stroke: #daa520"/>
     <use xlink:href="#m74c03f9819" x="75.973762" y="107.900936" style="fill: #daa520; stroke: #daa520"/>
     <use xlink:href="#m74c03f9819" x="152.440858" y="104.647418" style="fill: #daa520; stroke: #daa520"/>
     <use xlink:href="#m74c03f9819" x="160.203031" y="106.394351" style="fill: #daa520; stroke: #daa520"/>
     <use xlink:href="#m74c03f9819" x="90.973666" y="147.391689" style="fill: #daa520; stroke: #daa520"/>
     <use xlink:href="#m74c03f9819" x="137.310673" y="142.153628" style="fill: #daa520; stroke: #daa520"/>
     <use xlink:href="#m74c03f9819" x="77.515743" y="107.693919" style="fill: #daa520; stroke: #daa520"/>
     <use xlink:href="#m74c03f9819" x="69.359927" y="141.063148" style="fill: #daa520; stroke: #daa520"/>
     <use xlink:href="#m74c03f9819" x="164.760317" y="125.789659" style="fill: #daa520; stroke: #daa520"/>
     <use xlink:href="#m74c03f9819" x="208.300362" y="108.726501" style="fill: #daa520; stroke: #daa520"/>
     <use xlink:href="#m74c03f9819" x="164.507982" y="106.125883" style="fill: #daa520; stroke: #daa520"/>
     <use xlink:href="#m74c03f9819" x="62.399341" y="107.608892" style="fill: #daa520; stroke: #daa520"/>
     <use xlink:href="#m74c03f9819" x="202.390488" y="99.378498" style="fill: #daa520; stroke: #daa520"/>
     <use xlink:href="#m74c03f9819" x="292.06497" y="84.402389" style="fill: #daa520; stroke: #daa520"/>
     <use xlink:href="#m74c03f9819" x="142.005634" y="105.815655" style="fill: #daa520; stroke: #daa520"/>
     <use xlink:href="#m74c03f9819" x="334.777553" y="109.566844" style="fill: #daa520; stroke: #daa520"/>
     <use xlink:href="#m74c03f9819" x="77.071615" y="156.328638" style="fill: #daa520; stroke: #daa520"/>
     <use xlink:href="#m74c03f9819" x="308.790081" y="99.388178" style="fill: #daa520; stroke: #daa520"/>
     <use xlink:href="#m74c03f9819" x="230.61818" y="106.681947" style="fill: #daa520; stroke: #daa520"/>
     <use xlink:href="#m74c03f9819" x="159.689956" y="128.638389" style="fill: #daa520; stroke: #daa520"/>
     <use xlink:href="#m74c03f9819" x="198.103069" y="99.986008" style="fill: #daa520; stroke: #daa520"/>
     <use xlink:href="#m74c03f9819" x="150.473277" y="131.331116" style="fill: #daa520; stroke: #daa520"/>
     <use xlink:href="#m74c03f9819" x="225.051952" y="96.816861" style="fill: #daa520; stroke: #daa520"/>
     <use xlink:href="#m74c03f9819" x="121.135211" y="108.318408" style="fill: #daa520; stroke: #daa520"/>
     <use xlink:href="#m74c03f9819" x="170.626145" y="101.008921" style="fill: #daa520; stroke: #daa520"/>
     <use xlink:href="#m74c03f9819" x="176.071838" y="101.038353" style="fill: #daa520; stroke: #daa520"/>
     <use xlink:href="#m74c03f9819" x="214.360738" y="94.99226" style="fill: #daa520; stroke: #daa520"/>
     <use xlink:href="#m74c03f9819" x="60.919429" y="107.301978" style="fill: #daa520; stroke: #daa520"/>
     <use xlink:href="#m74c03f9819" x="133.578029" y="126.630734" style="fill: #daa520; stroke: #daa520"/>
     <use xlink:href="#m74c03f9819" x="82.866675" y="112.37939" style="fill: #daa520; stroke: #daa520"/>
     <use xlink:href="#m74c03f9819" x="194.099761" y="98.634127" style="fill: #daa520; stroke: #daa520"/>
     <use xlink:href="#m74c03f9819" x="131.512163" y="115.436315" style="fill: #daa520; stroke: #daa520"/>
     <use xlink:href="#m74c03f9819" x="281.500832" y="97.385728" style="fill: #daa520; stroke: #daa520"/>
     <use xlink:href="#m74c03f9819" x="184.28744" y="110.381531" style="fill: #daa520; stroke: #daa520"/>
     <use xlink:href="#m74c03f9819" x="95.843208" y="134.099521" style="fill: #daa520; stroke: #daa520"/>
     <use xlink:href="#m74c03f9819" x="129.036908" y="112.480806" style="fill: #daa520; stroke: #daa520"/>
     <use xlink:href="#m74c03f9819" x="56.026019" y="160.662283" style="fill: #daa520; stroke: #daa520"/>
     <use xlink:href="#m74c03f9819" x="335.202439" y="112.305264" style="fill: #daa520; stroke: #daa520"/>
     <use xlink:href="#m74c03f9819" x="183.193295" y="101.572385" style="fill: #daa520; stroke: #daa520"/>
     <use xlink:href="#m74c03f9819" x="126.7794" y="120.086045" style="fill: #daa520; stroke: #daa520"/>
     <use xlink:href="#m74c03f9819" x="80.606326" y="115.67206" style="fill: #daa520; stroke: #daa520"/>
     <use xlink:href="#m74c03f9819" x="119.184955" y="127.352012" style="fill: #daa520; stroke: #daa520"/>
     <use xlink:href="#m74c03f9819" x="84.729509" y="106.89926" style="fill: #daa520; stroke: #daa520"/>
     <use xlink:href="#m74c03f9819" x="116.053214" y="105.958608" style="fill: #daa520; stroke: #daa520"/>
     <use xlink:href="#m74c03f9819" x="83.077804" y="141.919623" style="fill: #daa520; stroke: #daa520"/>
     <use xlink:href="#m74c03f9819" x="165.160758" y="112.112428" style="fill: #daa520; stroke: #daa520"/>
     <use xlink:href="#m74c03f9819" x="129.435927" y="109.326006" style="fill: #daa520; stroke: #daa520"/>
     <use xlink:href="#m74c03f9819" x="78.113248" y="137.804902" style="fill: #daa520; stroke: #daa520"/>
     <use xlink:href="#m74c03f9819" x="262.050496" y="98.968151" style="fill: #daa520; stroke: #daa520"/>
     <use xlink:href="#m74c03f9819" x="174.072205" y="102.381227" style="fill: #daa520; stroke: #daa520"/>
     <use xlink:href="#m74c03f9819" x="124.1273" y="120.98636" style="fill: #daa520; stroke: #daa520"/>
     <use xlink:href="#m74c03f9819" x="286.058903" y="90.386467" style="fill: #daa520; stroke: #daa520"/>
     <use xlink:href="#m74c03f9819" x="199.932697" y="102.731958" style="fill: #daa520; stroke: #daa520"/>
     <use xlink:href="#m74c03f9819" x="89.741215" y="136.60095" style="fill: #daa520; stroke: #daa520"/>
     <use xlink:href="#m74c03f9819" x="163.439637" y="102.426298" style="fill: #daa520; stroke: #daa520"/>
     <use xlink:href="#m74c03f9819" x="350.293682" y="83.335133" style="fill: #daa520; stroke: #daa520"/>
     <use xlink:href="#m74c03f9819" x="221.172846" y="97.84128" style="fill: #daa520; stroke: #daa520"/>
     <use xlink:href="#m74c03f9819" x="211.100163" y="94.341428" style="fill: #daa520; stroke: #daa520"/>
     <use xlink:href="#m74c03f9819" x="185.78734" y="111.598433" style="fill: #daa520; stroke: #daa520"/>
     <use xlink:href="#m74c03f9819" x="173.131644" y="102.48542" style="fill: #daa520; stroke: #daa520"/>
     <use xlink:href="#m74c03f9819" x="83.0974" y="126.010739" style="fill: #daa520; stroke: #daa520"/>
     <use xlink:href="#m74c03f9819" x="278.537953" y="108.595607" style="fill: #daa520; stroke: #daa520"/>
     <use xlink:href="#m74c03f9819" x="232.957764" y="108.9227" style="fill: #daa520; stroke: #daa520"/>
     <use xlink:href="#m74c03f9819" x="126.148375" y="108.765625" style="fill: #daa520; stroke: #daa520"/>
     <use xlink:href="#m74c03f9819" x="285.957397" y="99.786644" style="fill: #daa520; stroke: #daa520"/>
     <use xlink:href="#m74c03f9819" x="63.265055" y="146.185459" style="fill: #daa520; stroke: #daa520"/>
     <use xlink:href="#m74c03f9819" x="162.130202" y="116.067174" style="fill: #daa520; stroke: #daa520"/>
     <use xlink:href="#m74c03f9819" x="241.47099" y="87.460397" style="fill: #daa520; stroke: #daa520"/>
     <use xlink:href="#m74c03f9819" x="205.910002" y="98.725009" style="fill: #daa520; stroke: #daa520"/>
     <use xlink:href="#m74c03f9819" x="122.900989" y="108.662015" style="fill: #daa520; stroke: #daa520"/>
     <use xlink:href="#m74c03f9819" x="167.656012" y="110.032979" style="fill: #daa520; stroke: #daa520"/>
     <use xlink:href="#m74c03f9819" x="169.888242" y="117.377032" style="fill: #daa520; stroke: #daa520"/>
     <use xlink:href="#m74c03f9819" x="208.474071" y="98.155673" style="fill: #daa520; stroke: #daa520"/>
     <use xlink:href="#m74c03f9819" x="180.435837" y="106.950778" style="fill: #daa520; stroke: #daa520"/>
    </g>
   </g>
   <g id="matplotlib.axis_3"/>
   <g id="matplotlib.axis_4">
    <g id="ytick_1">
     <g id="line2d_3">
      <defs>
       <path id="mc650f627af" d="M 0 0 
L -3.5 0 
" style="stroke: #696969; stroke-width: 0.8"/>
      </defs>
      <g>
       <use xlink:href="#mc650f627af" x="37.7875" y="135.874382" style="fill: #696969; stroke: #696969; stroke-width: 0.8"/>
      </g>
     </g>
     <g id="text_1">
      <!-- −5 -->
      <g style="fill: #696969" transform="translate(7.2 141.953132) scale(0.16 -0.16)">
       <defs>
        <path id="DejaVuSans-2212" d="M 678 2272 
L 4684 2272 
L 4684 1741 
L 678 1741 
L 678 2272 
z
" transform="scale(0.015625)"/>
        <path id="DejaVuSans-35" d="M 691 4666 
L 3169 4666 
L 3169 4134 
L 1269 4134 
L 1269 2991 
Q 1406 3038 1543 3061 
Q 1681 3084 1819 3084 
Q 2600 3084 3056 2656 
Q 3513 2228 3513 1497 
Q 3513 744 3044 326 
Q 2575 -91 1722 -91 
Q 1428 -91 1123 -41 
Q 819 9 494 109 
L 494 744 
Q 775 591 1075 516 
Q 1375 441 1709 441 
Q 2250 441 2565 725 
Q 2881 1009 2881 1497 
Q 2881 1984 2565 2268 
Q 2250 2553 1709 2553 
Q 1456 2553 1204 2497 
Q 953 2441 691 2322 
L 691 4666 
z
" transform="scale(0.015625)"/>
       </defs>
       <use xlink:href="#DejaVuSans-2212"/>
       <use xlink:href="#DejaVuSans-35" x="83.789062"/>
      </g>
     </g>
    </g>
    <g id="ytick_2">
     <g id="line2d_4">
      <g>
       <use xlink:href="#mc650f627af" x="37.7875" y="105.632567" style="fill: #696969; stroke: #696969; stroke-width: 0.8"/>
      </g>
     </g>
     <g id="text_2">
      <!-- 0 -->
      <g style="fill: #696969" transform="translate(20.6075 111.711317) scale(0.16 -0.16)">
       <defs>
        <path id="DejaVuSans-30" d="M 2034 4250 
Q 1547 4250 1301 3770 
Q 1056 3291 1056 2328 
Q 1056 1369 1301 889 
Q 1547 409 2034 409 
Q 2525 409 2770 889 
Q 3016 1369 3016 2328 
Q 3016 3291 2770 3770 
Q 2525 4250 2034 4250 
z
M 2034 4750 
Q 2819 4750 3233 4129 
Q 3647 3509 3647 2328 
Q 3647 1150 3233 529 
Q 2819 -91 2034 -91 
Q 1250 -91 836 529 
Q 422 1150 422 2328 
Q 422 3509 836 4129 
Q 1250 4750 2034 4750 
z
" transform="scale(0.015625)"/>
       </defs>
       <use xlink:href="#DejaVuSans-30"/>
      </g>
     </g>
    </g>
    <g id="ytick_3">
     <g id="line2d_5">
      <g>
       <use xlink:href="#mc650f627af" x="37.7875" y="75.390752" style="fill: #696969; stroke: #696969; stroke-width: 0.8"/>
      </g>
     </g>
     <g id="text_3">
      <!-- 5 -->
      <g style="fill: #696969" transform="translate(20.6075 81.469502) scale(0.16 -0.16)">
       <use xlink:href="#DejaVuSans-35"/>
      </g>
     </g>
    </g>
   </g>
   <g id="line2d_6">
    <path d="M 55.888409 135.755078 
L 63.128773 134.357022 
L 70.369136 132.82305 
L 77.6095 131.158272 
L 84.849864 129.37142 
L 92.090227 127.475252 
L 99.330591 125.486623 
L 106.570955 123.426263 
L 113.811318 121.318244 
L 121.051682 119.189167 
L 128.292045 117.067157 
L 135.532409 114.980736 
L 142.772773 112.957674 
L 150.013136 111.023892 
L 157.2535 109.202496 
L 164.493864 107.512999 
L 171.734227 105.970756 
L 178.974591 104.58662 
L 186.214955 103.3668 
L 193.455318 102.31293 
L 200.695682 101.42225 
L 207.936045 100.687905 
L 215.176409 100.099319 
L 222.416773 99.642586 
L 229.657136 99.300905 
L 236.8975 99.055003 
L 244.137864 98.883592 
L 251.378227 98.763848 
L 258.618591 98.671948 
L 265.858955 98.583649 
L 273.099318 98.474961 
L 280.339682 98.322864 
L 287.580045 98.106083 
L 294.820409 97.805885 
L 302.060773 97.406839 
L 309.301136 96.897487 
L 316.5415 96.270897 
L 323.781864 95.524986 
L 331.022227 94.662622 
L 338.262591 93.69143 
L 345.502955 92.623316 
L 352.743318 91.473717 
L 359.983682 90.260593 
L 367.224045 89.003249 
L 374.464409 87.721028 
L 381.704773 86.432011 
L 388.945136 85.151763 
L 396.1855 83.892264 
L 403.425864 82.661085 
L 410.666227 81.460872 
L 417.906591 80.289197 
" clip-path="url(#p3f585ce474)" style="fill: none; stroke: #000000; stroke-width: 2; stroke-linecap: square"/>
   </g>
   <g id="line2d_7">
    <path d="M 55.888409 126.980493 
L 63.128773 125.989926 
L 70.369136 124.999359 
L 77.6095 124.008792 
L 84.849864 123.018225 
L 92.090227 122.027657 
L 99.330591 121.03709 
L 106.570955 120.046523 
L 113.811318 119.055956 
L 121.051682 118.065389 
L 128.292045 117.074822 
L 135.532409 116.084255 
L 142.772773 115.093688 
L 150.013136 114.103121 
L 157.2535 113.112554 
L 164.493864 112.121986 
L 171.734227 111.131419 
L 178.974591 110.140852 
L 186.214955 109.150285 
L 193.455318 108.159718 
L 200.695682 107.169151 
L 207.936045 106.178584 
L 215.176409 105.188017 
L 222.416773 104.19745 
L 229.657136 103.206883 
L 236.8975 102.216315 
L 244.137864 101.225748 
L 251.378227 100.235181 
L 258.618591 99.244614 
L 265.858955 98.254047 
L 273.099318 97.26348 
L 280.339682 96.272913 
L 287.580045 95.282346 
L 294.820409 94.291779 
L 302.060773 93.301212 
L 309.301136 92.310644 
L 316.5415 91.320077 
L 323.781864 90.32951 
L 331.022227 89.338943 
L 338.262591 88.348376 
L 345.502955 87.357809 
L 352.743318 86.367242 
L 359.983682 85.376675 
L 367.224045 84.386108 
L 374.464409 83.39554 
L 381.704773 82.404973 
L 388.945136 81.414406 
L 396.1855 80.423839 
L 403.425864 79.433272 
L 410.666227 78.442705 
L 417.906591 77.452138 
" clip-path="url(#p3f585ce474)" style="fill: none; stroke-dasharray: 7.4,3.2; stroke-dashoffset: 0; stroke: #34b6c6; stroke-width: 2"/>
   </g>
   <g id="line2d_8">
    <path d="M 55.888409 132.604787 
L 63.128773 131.698661 
L 70.369136 130.591329 
L 77.6095 129.272498 
L 84.849864 127.750398 
L 92.090227 126.054653 
L 99.330591 124.232486 
L 106.570955 122.33843 
L 113.811318 120.422081 
L 121.051682 118.519963 
L 128.292045 116.654817 
L 135.532409 114.841069 
L 142.772773 113.092396 
L 150.013136 111.427182 
L 157.2535 109.86932 
L 164.493864 108.444294 
L 171.734227 107.1729 
L 178.974591 106.065993 
L 186.214955 105.122571 
L 193.455318 104.331308 
L 200.695682 103.674061 
L 207.936045 103.129577 
L 215.176409 102.676372 
L 222.416773 102.294444 
L 229.657136 101.966028 
L 236.8975 101.67568 
L 244.137864 101.409991 
L 251.378227 101.157103 
L 258.618591 100.906147 
L 265.858955 100.646605 
L 273.099318 100.367631 
L 280.339682 100.057278 
L 287.580045 99.701663 
L 294.820409 99.284161 
L 302.060773 98.784887 
L 309.301136 98.181043 
L 316.5415 97.448937 
L 323.781864 96.568527 
L 331.022227 95.530392 
L 338.262591 94.343032 
L 345.502955 93.036394 
L 352.743318 91.658318 
L 359.983682 90.265004 
L 367.224045 88.910763 
L 374.464409 87.641652 
L 381.704773 86.493016 
L 388.945136 85.488232 
L 396.1855 84.637427 
L 403.425864 83.937562 
L 410.666227 83.375105 
L 417.906591 82.930478 
" clip-path="url(#p3f585ce474)" style="fill: none; stroke-dasharray: 7.4,3.2; stroke-dashoffset: 0; stroke: #9370db; stroke-width: 2"/>
   </g>
   <g id="line2d_9">
    <path d="M 55.888409 129.595773 
L 63.128773 128.673031 
L 70.369136 127.546276 
L 77.6095 126.205068 
L 84.849864 124.657753 
L 92.090227 122.934371 
L 99.330591 121.082799 
L 106.570955 119.158336 
L 113.811318 117.211269 
L 121.051682 115.278631 
L 128.292045 113.383482 
L 135.532409 111.540448 
L 142.772773 109.763397 
L 150.013136 108.070971 
L 157.2535 106.487395 
L 164.493864 105.03851 
L 171.734227 103.745402 
L 178.974591 102.619077 
L 186.214955 101.658519 
L 193.455318 100.852246 
L 200.695682 100.181857 
L 207.936045 99.625808 
L 215.176409 99.162311 
L 222.416773 98.771087 
L 229.657136 98.434121 
L 236.8975 98.135755 
L 244.137864 97.862392 
L 251.378227 97.602009 
L 258.618591 97.343584 
L 265.858955 97.076455 
L 273.099318 96.789622 
L 280.339682 96.470971 
L 287.580045 96.106427 
L 294.820409 95.679131 
L 302.060773 95.168923 
L 309.301136 94.552684 
L 316.5415 93.806393 
L 323.781864 92.909726 
L 331.022227 91.853134 
L 338.262591 90.645233 
L 345.502955 89.316388 
L 352.743318 87.915109 
L 359.983682 86.498378 
L 367.224045 85.121266 
L 374.464409 83.830473 
L 381.704773 82.661837 
L 388.945136 81.63906 
L 396.1855 80.772412 
L 403.425864 80.058813 
L 410.666227 79.484538 
L 417.906591 79.029739 
" clip-path="url(#p3f585ce474)" style="fill: none; stroke-dasharray: 12.8,3.2,2,3.2; stroke-dashoffset: 0; stroke: #ff0000; stroke-width: 2"/>
   </g>
   <g id="patch_4">
    <path d="M 37.7875 164.82279 
L 37.7875 73.291631 
" style="fill: none; stroke: #000000; stroke-width: 0.8; stroke-linejoin: miter; stroke-linecap: square"/>
   </g>
   <g id="patch_5">
    <path d="M 436.0075 164.82279 
L 436.0075 73.291631 
" style="fill: none; stroke: #000000; stroke-width: 0.8; stroke-linejoin: miter; stroke-linecap: square"/>
   </g>
   <g id="patch_6">
    <path d="M 37.7875 164.82279 
L 436.0075 164.82279 
" style="fill: none; stroke: #000000; stroke-width: 0.8; stroke-linejoin: miter; stroke-linecap: square"/>
   </g>
   <g id="patch_7">
    <path d="M 37.7875 73.291631 
L 436.0075 73.291631 
" style="fill: none; stroke: #000000; stroke-width: 0.8; stroke-linejoin: miter; stroke-linecap: square"/>
   </g>
  </g>
  <g id="axes_3">
   <g id="patch_8">
    <path d="M 37.7875 276.68 
L 436.0075 276.68 
L 436.0075 185.148841 
L 37.7875 185.148841 
z
" style="fill: #ffffff"/>
   </g>
   <g id="PathCollection_2">
    <g clip-path="url(#p6389875689)">
     <use xlink:href="#m74c03f9819" x="120.971947" y="236.522316" style="fill: #daa520; stroke: #daa520"/>
     <use xlink:href="#m74c03f9819" x="158.456073" y="235.63913" style="fill: #daa520; stroke: #daa520"/>
     <use xlink:href="#m74c03f9819" x="173.2073" y="243.028072" style="fill: #daa520; stroke: #daa520"/>
     <use xlink:href="#m74c03f9819" x="238.131496" y="226.420028" style="fill: #daa520; stroke: #daa520"/>
     <use xlink:href="#m74c03f9819" x="177.738018" y="225.160126" style="fill: #daa520; stroke: #daa520"/>
     <use xlink:href="#m74c03f9819" x="181.758396" y="226.806112" style="fill: #daa520; stroke: #daa520"/>
     <use xlink:href="#m74c03f9819" x="197.288378" y="231.213233" style="fill: #daa520; stroke: #daa520"/>
     <use xlink:href="#m74c03f9819" x="215.825698" y="226.616739" style="fill: #daa520; stroke: #daa520"/>
     <use xlink:href="#m74c03f9819" x="212.054469" y="219.554269" style="fill: #daa520; stroke: #daa520"/>
     <use xlink:href="#m74c03f9819" x="130.591967" y="245.831545" style="fill: #daa520; stroke: #daa520"/>
     <use xlink:href="#m74c03f9819" x="182.671189" y="224.244899" style="fill: #daa520; stroke: #daa520"/>
     <use xlink:href="#m74c03f9819" x="198.262891" y="237.811782" style="fill: #daa520; stroke: #daa520"/>
     <use xlink:href="#m74c03f9819" x="196.327461" y="236.074083" style="fill: #daa520; stroke: #daa520"/>
     <use xlink:href="#m74c03f9819" x="167.884477" y="242.777101" style="fill: #daa520; stroke: #daa520"/>
     <use xlink:href="#m74c03f9819" x="70.83922" y="264.740747" style="fill: #daa520; stroke: #daa520"/>
     <use xlink:href="#m74c03f9819" x="143.253989" y="235.49301" style="fill: #daa520; stroke: #daa520"/>
     <use xlink:href="#m74c03f9819" x="179.558454" y="239.166005" style="fill: #daa520; stroke: #daa520"/>
     <use xlink:href="#m74c03f9819" x="143.135442" y="243.035051" style="fill: #daa520; stroke: #daa520"/>
     <use xlink:href="#m74c03f9819" x="96.393663" y="244.594473" style="fill: #daa520; stroke: #daa520"/>
     <use xlink:href="#m74c03f9819" x="59.966304" y="222.621507" style="fill: #daa520; stroke: #daa520"/>
     <use xlink:href="#m74c03f9819" x="79.405386" y="204.010846" style="fill: #daa520; stroke: #daa520"/>
     <use xlink:href="#m74c03f9819" x="225.688767" y="238.789873" style="fill: #daa520; stroke: #daa520"/>
     <use xlink:href="#m74c03f9819" x="97.501678" y="202.45033" style="fill: #daa520; stroke: #daa520"/>
     <use xlink:href="#m74c03f9819" x="364.676288" y="235.125922" style="fill: #daa520; stroke: #daa520"/>
     <use xlink:href="#m74c03f9819" x="270.887838" y="224.907347" style="fill: #daa520; stroke: #daa520"/>
     <use xlink:href="#m74c03f9819" x="164.845855" y="242.667597" style="fill: #daa520; stroke: #daa520"/>
     <use xlink:href="#m74c03f9819" x="75.973762" y="267.712623" style="fill: #daa520; stroke: #daa520"/>
     <use xlink:href="#m74c03f9819" x="152.440858" y="242.875815" style="fill: #daa520; stroke: #daa520"/>
     <use xlink:href="#m74c03f9819" x="160.203031" y="237.522608" style="fill: #daa520; stroke: #daa520"/>
     <use xlink:href="#m74c03f9819" x="90.973666" y="200.193226" style="fill: #daa520; stroke: #daa520"/>
     <use xlink:href="#m74c03f9819" x="137.310673" y="189.350226" style="fill: #daa520; stroke: #daa520"/>
     <use xlink:href="#m74c03f9819" x="77.515743" y="267.561324" style="fill: #daa520; stroke: #daa520"/>
     <use xlink:href="#m74c03f9819" x="69.359927" y="217.282712" style="fill: #daa520; stroke: #daa520"/>
     <use xlink:href="#m74c03f9819" x="164.760317" y="205.524792" style="fill: #daa520; stroke: #daa520"/>
     <use xlink:href="#m74c03f9819" x="208.300362" y="223.940341" style="fill: #daa520; stroke: #daa520"/>
     <use xlink:href="#m74c03f9819" x="164.507982" y="236.615315" style="fill: #daa520; stroke: #daa520"/>
     <use xlink:href="#m74c03f9819" x="62.399341" y="271.719279" style="fill: #daa520; stroke: #daa520"/>
     <use xlink:href="#m74c03f9819" x="202.390488" y="239.381568" style="fill: #daa520; stroke: #daa520"/>
     <use xlink:href="#m74c03f9819" x="292.06497" y="256.391202" style="fill: #daa520; stroke: #daa520"/>
     <use xlink:href="#m74c03f9819" x="142.005634" y="244.852548" style="fill: #daa520; stroke: #daa520"/>
     <use xlink:href="#m74c03f9819" x="334.777553" y="209.434645" style="fill: #daa520; stroke: #daa520"/>
     <use xlink:href="#m74c03f9819" x="77.071615" y="190.990185" style="fill: #daa520; stroke: #daa520"/>
     <use xlink:href="#m74c03f9819" x="308.790081" y="230.782626" style="fill: #daa520; stroke: #daa520"/>
     <use xlink:href="#m74c03f9819" x="230.61818" y="225.260066" style="fill: #daa520; stroke: #daa520"/>
     <use xlink:href="#m74c03f9819" x="159.689956" y="202.601779" style="fill: #daa520; stroke: #daa520"/>
     <use xlink:href="#m74c03f9819" x="198.103069" y="238.999619" style="fill: #daa520; stroke: #daa520"/>
     <use xlink:href="#m74c03f9819" x="150.473277" y="201.482708" style="fill: #daa520; stroke: #daa520"/>
     <use xlink:href="#m74c03f9819" x="225.051952" y="241.215009" style="fill: #daa520; stroke: #daa520"/>
     <use xlink:href="#m74c03f9819" x="121.135211" y="249.277934" style="fill: #daa520; stroke: #daa520"/>
     <use xlink:href="#m74c03f9819" x="170.626145" y="242.946115" style="fill: #daa520; stroke: #daa520"/>
     <use xlink:href="#m74c03f9819" x="176.071838" y="241.508186" style="fill: #daa520; stroke: #daa520"/>
     <use xlink:href="#m74c03f9819" x="214.360738" y="244.988037" style="fill: #daa520; stroke: #daa520"/>
     <use xlink:href="#m74c03f9819" x="60.919429" y="272.519493" style="fill: #daa520; stroke: #daa520"/>
     <use xlink:href="#m74c03f9819" x="133.578029" y="215.308522" style="fill: #daa520; stroke: #daa520"/>
     <use xlink:href="#m74c03f9819" x="82.866675" y="258.399681" style="fill: #daa520; stroke: #daa520"/>
     <use xlink:href="#m74c03f9819" x="194.099761" y="241.730884" style="fill: #daa520; stroke: #daa520"/>
     <use xlink:href="#m74c03f9819" x="131.512163" y="233.792533" style="fill: #daa520; stroke: #daa520"/>
     <use xlink:href="#m74c03f9819" x="281.500832" y="236.805098" style="fill: #daa520; stroke: #daa520"/>
     <use xlink:href="#m74c03f9819" x="184.28744" y="224.954617" style="fill: #daa520; stroke: #daa520"/>
     <use xlink:href="#m74c03f9819" x="95.843208" y="219.230097" style="fill: #daa520; stroke: #daa520"/>
     <use xlink:href="#m74c03f9819" x="129.036908" y="239.455199" style="fill: #daa520; stroke: #daa520"/>
     <use xlink:href="#m74c03f9819" x="56.026019" y="189.309348" style="fill: #daa520; stroke: #daa520"/>
     <use xlink:href="#m74c03f9819" x="335.202439" y="205.002863" style="fill: #daa520; stroke: #daa520"/>
     <use xlink:href="#m74c03f9819" x="183.193295" y="239.071827" style="fill: #daa520; stroke: #daa520"/>
     <use xlink:href="#m74c03f9819" x="126.7794" y="228.381217" style="fill: #daa520; stroke: #daa520"/>
     <use xlink:href="#m74c03f9819" x="80.606326" y="253.975407" style="fill: #daa520; stroke: #daa520"/>
     <use xlink:href="#m74c03f9819" x="119.184955" y="220.072984" style="fill: #daa520; stroke: #daa520"/>
     <use xlink:href="#m74c03f9819" x="84.729509" y="266.38766" style="fill: #daa520; stroke: #daa520"/>
     <use xlink:href="#m74c03f9819" x="116.053214" y="255.134775" style="fill: #daa520; stroke: #daa520"/>
     <use xlink:href="#m74c03f9819" x="83.077804" y="211.733278" style="fill: #daa520; stroke: #daa520"/>
     <use xlink:href="#m74c03f9819" x="165.160758" y="226.97858" style="fill: #daa520; stroke: #daa520"/>
     <use xlink:href="#m74c03f9819" x="129.435927" y="244.269132" style="fill: #daa520; stroke: #daa520"/>
     <use xlink:href="#m74c03f9819" x="78.113248" y="219.878868" style="fill: #daa520; stroke: #daa520"/>
     <use xlink:href="#m74c03f9819" x="262.050496" y="235.575273" style="fill: #daa520; stroke: #daa520"/>
     <use xlink:href="#m74c03f9819" x="174.072205" y="239.883588" style="fill: #daa520; stroke: #daa520"/>
     <use xlink:href="#m74c03f9819" x="124.1273" y="228.053477" style="fill: #daa520; stroke: #daa520"/>
     <use xlink:href="#m74c03f9819" x="286.058903" y="247.48462" style="fill: #daa520; stroke: #daa520"/>
     <use xlink:href="#m74c03f9819" x="199.932697" y="234.414737" style="fill: #daa520; stroke: #daa520"/>
     <use xlink:href="#m74c03f9819" x="89.741215" y="217.686803" style="fill: #daa520; stroke: #daa520"/>
     <use xlink:href="#m74c03f9819" x="163.439637" y="242.772909" style="fill: #daa520; stroke: #daa520"/>
     <use xlink:href="#m74c03f9819" x="350.293682" y="246.313579" style="fill: #daa520; stroke: #daa520"/>
     <use xlink:href="#m74c03f9819" x="221.172846" y="239.900371" style="fill: #daa520; stroke: #daa520"/>
     <use xlink:href="#m74c03f9819" x="211.100163" y="246.334063" style="fill: #daa520; stroke: #daa520"/>
     <use xlink:href="#m74c03f9819" x="185.78734" y="222.739128" style="fill: #daa520; stroke: #daa520"/>
     <use xlink:href="#m74c03f9819" x="173.131644" y="239.958387" style="fill: #daa520; stroke: #daa520"/>
     <use xlink:href="#m74c03f9819" x="83.0974" y="236.819136" style="fill: #daa520; stroke: #daa520"/>
     <use xlink:href="#m74c03f9819" x="278.537953" y="219.34165" style="fill: #daa520; stroke: #daa520"/>
     <use xlink:href="#m74c03f9819" x="232.957764" y="221.570532" style="fill: #daa520; stroke: #daa520"/>
     <use xlink:href="#m74c03f9819" x="126.148375" y="246.49561" style="fill: #daa520; stroke: #daa520"/>
     <use xlink:href="#m74c03f9819" x="285.957397" y="232.666356" style="fill: #daa520; stroke: #daa520"/>
     <use xlink:href="#m74c03f9819" x="63.265055" y="210.682327" style="fill: #daa520; stroke: #daa520"/>
     <use xlink:href="#m74c03f9819" x="162.130202" y="221.659783" style="fill: #daa520; stroke: #daa520"/>
     <use xlink:href="#m74c03f9819" x="241.47099" y="254.896897" style="fill: #daa520; stroke: #daa520"/>
     <use xlink:href="#m74c03f9819" x="205.910002" y="239.984693" style="fill: #daa520; stroke: #daa520"/>
     <use xlink:href="#m74c03f9819" x="122.900989" y="248.000686" style="fill: #daa520; stroke: #daa520"/>
     <use xlink:href="#m74c03f9819" x="167.656012" y="229.534536" style="fill: #daa520; stroke: #daa520"/>
     <use xlink:href="#m74c03f9819" x="169.888242" y="217.329187" style="fill: #daa520; stroke: #daa520"/>
     <use xlink:href="#m74c03f9819" x="208.474071" y="240.594498" style="fill: #daa520; stroke: #daa520"/>
     <use xlink:href="#m74c03f9819" x="180.435837" y="231.175892" style="fill: #daa520; stroke: #daa520"/>
    </g>
   </g>
   <g id="matplotlib.axis_5">
    <g id="xtick_1">
     <g id="line2d_10">
      <defs>
       <path id="m3d451a2632" d="M 0 0 
L 0 3.5 
" style="stroke: #696969; stroke-width: 0.8"/>
      </defs>
      <g>
       <use xlink:href="#m3d451a2632" x="55.888409" y="276.68" style="fill: #696969; stroke: #696969; stroke-width: 0.8"/>
      </g>
     </g>
     <g id="text_4">
      <!-- −1.0 -->
      <g style="fill: #696969" transform="translate(36.462159 295.8375) scale(0.16 -0.16)">
       <defs>
        <path id="DejaVuSans-31" d="M 794 531 
L 1825 531 
L 1825 4091 
L 703 3866 
L 703 4441 
L 1819 4666 
L 2450 4666 
L 2450 531 
L 3481 531 
L 3481 0 
L 794 0 
L 794 531 
z
" transform="scale(0.015625)"/>
        <path id="DejaVuSans-2e" d="M 684 794 
L 1344 794 
L 1344 0 
L 684 0 
L 684 794 
z
" transform="scale(0.015625)"/>
       </defs>
       <use xlink:href="#DejaVuSans-2212"/>
       <use xlink:href="#DejaVuSans-31" x="83.789062"/>
       <use xlink:href="#DejaVuSans-2e" x="147.412109"/>
       <use xlink:href="#DejaVuSans-30" x="179.199219"/>
      </g>
     </g>
    </g>
    <g id="xtick_2">
     <g id="line2d_11">
      <g>
       <use xlink:href="#m3d451a2632" x="146.392955" y="276.68" style="fill: #696969; stroke: #696969; stroke-width: 0.8"/>
      </g>
     </g>
     <g id="text_5">
      <!-- −0.5 -->
      <g style="fill: #696969" transform="translate(126.966705 295.8375) scale(0.16 -0.16)">
       <use xlink:href="#DejaVuSans-2212"/>
       <use xlink:href="#DejaVuSans-30" x="83.789062"/>
       <use xlink:href="#DejaVuSans-2e" x="147.412109"/>
       <use xlink:href="#DejaVuSans-35" x="179.199219"/>
      </g>
     </g>
    </g>
    <g id="xtick_3">
     <g id="line2d_12">
      <g>
       <use xlink:href="#m3d451a2632" x="236.8975" y="276.68" style="fill: #696969; stroke: #696969; stroke-width: 0.8"/>
      </g>
     </g>
     <g id="text_6">
      <!-- 0.0 -->
      <g style="fill: #696969" transform="translate(224.175 295.8375) scale(0.16 -0.16)">
       <use xlink:href="#DejaVuSans-30"/>
       <use xlink:href="#DejaVuSans-2e" x="63.623047"/>
       <use xlink:href="#DejaVuSans-30" x="95.410156"/>
      </g>
     </g>
    </g>
    <g id="xtick_4">
     <g id="line2d_13">
      <g>
       <use xlink:href="#m3d451a2632" x="327.402045" y="276.68" style="fill: #696969; stroke: #696969; stroke-width: 0.8"/>
      </g>
     </g>
     <g id="text_7">
      <!-- 0.5 -->
      <g style="fill: #696969" transform="translate(314.679545 295.8375) scale(0.16 -0.16)">
       <use xlink:href="#DejaVuSans-30"/>
       <use xlink:href="#DejaVuSans-2e" x="63.623047"/>
       <use xlink:href="#DejaVuSans-35" x="95.410156"/>
      </g>
     </g>
    </g>
    <g id="xtick_5">
     <g id="line2d_14">
      <g>
       <use xlink:href="#m3d451a2632" x="417.906591" y="276.68" style="fill: #696969; stroke: #696969; stroke-width: 0.8"/>
      </g>
     </g>
     <g id="text_8">
      <!-- 1.0 -->
      <g style="fill: #696969" transform="translate(405.184091 295.8375) scale(0.16 -0.16)">
       <use xlink:href="#DejaVuSans-31"/>
       <use xlink:href="#DejaVuSans-2e" x="63.623047"/>
       <use xlink:href="#DejaVuSans-30" x="95.410156"/>
      </g>
     </g>
    </g>
    <g id="text_9">
     <!-- $X$ -->
     <g transform="translate(231.3775 315.3225) scale(0.16 -0.16)">
      <defs>
       <path id="DejaVuSans-Oblique-58" d="M 878 4666 
L 1516 4666 
L 2316 2981 
L 3763 4666 
L 4500 4666 
L 2578 2438 
L 3738 0 
L 3103 0 
L 2163 1966 
L 459 0 
L -275 0 
L 1906 2509 
L 878 4666 
z
" transform="scale(0.015625)"/>
      </defs>
      <use xlink:href="#DejaVuSans-Oblique-58" transform="translate(0 0.09375)"/>
     </g>
    </g>
   </g>
   <g id="matplotlib.axis_6">
    <g id="ytick_4">
     <g id="line2d_15">
      <g>
       <use xlink:href="#mc650f627af" x="37.7875" y="238.334625" style="fill: #696969; stroke: #696969; stroke-width: 0.8"/>
      </g>
     </g>
     <g id="text_10">
      <!-- 0 -->
      <g style="fill: #696969" transform="translate(20.6075 244.413375) scale(0.16 -0.16)">
       <use xlink:href="#DejaVuSans-30"/>
      </g>
     </g>
    </g>
    <g id="ytick_5">
     <g id="line2d_16">
      <g>
       <use xlink:href="#mc650f627af" x="37.7875" y="190.634981" style="fill: #696969; stroke: #696969; stroke-width: 0.8"/>
      </g>
     </g>
     <g id="text_11">
      <!-- 5 -->
      <g style="fill: #696969" transform="translate(20.6075 196.713731) scale(0.16 -0.16)">
       <use xlink:href="#DejaVuSans-35"/>
      </g>
     </g>
    </g>
   </g>
   <g id="line2d_17">
    <path d="M 55.888409 228.619709 
L 63.128773 229.369412 
L 70.369136 230.011703 
L 77.6095 230.522062 
L 84.849864 230.899879 
L 92.090227 231.172408 
L 99.330591 231.388586 
L 106.570955 231.602933 
L 113.811318 231.856798 
L 121.051682 232.166637 
L 128.292045 232.524458 
L 135.532409 232.908346 
L 142.772773 233.296374 
L 150.013136 233.677058 
L 157.2535 234.052166 
L 164.493864 234.431677 
L 171.734227 234.82463 
L 178.974591 235.231271 
L 186.214955 235.640198 
L 193.455318 236.030724 
L 200.695682 236.378186 
L 207.936045 236.659406 
L 215.176409 236.856706 
L 222.416773 236.960031 
L 229.657136 236.967469 
L 236.8975 236.884719 
L 244.137864 236.723912 
L 251.378227 236.502087 
L 258.618591 236.239431 
L 265.858955 235.957366 
L 273.099318 235.676381 
L 280.339682 235.413682 
L 287.580045 235.180619 
L 294.820409 234.98015 
L 302.060773 234.804818 
L 309.301136 234.636228 
L 316.5415 234.447425 
L 323.781864 234.209643 
L 331.022227 233.903292 
L 338.262591 233.529936 
L 345.502955 233.118691 
L 352.743318 232.721724 
L 359.983682 232.400579 
L 367.224045 232.211673 
L 374.464409 232.198151 
L 381.704773 232.388026 
L 388.945136 232.79413 
L 396.1855 233.413762 
L 403.425864 234.230127 
L 410.666227 235.217404 
L 417.906591 236.348114 
" clip-path="url(#p6389875689)" style="fill: none; stroke: #696969; stroke-width: 2; stroke-linecap: square"/>
   </g>
   <g id="line2d_18">
    <path d="M 55.888409 233.464736 
L 63.128773 233.436671 
L 70.369136 233.408605 
L 77.6095 233.380539 
L 84.849864 233.352474 
L 92.090227 233.324408 
L 99.330591 233.296343 
L 106.570955 233.268277 
L 113.811318 233.240211 
L 121.051682 233.212146 
L 128.292045 233.18408 
L 135.532409 233.156015 
L 142.772773 233.127949 
L 150.013136 233.099883 
L 157.2535 233.071818 
L 164.493864 233.043752 
L 171.734227 233.015687 
L 178.974591 232.987621 
L 186.214955 232.959555 
L 193.455318 232.93149 
L 200.695682 232.903424 
L 207.936045 232.875359 
L 215.176409 232.847293 
L 222.416773 232.819227 
L 229.657136 232.791162 
L 236.8975 232.763096 
L 244.137864 232.735031 
L 251.378227 232.706965 
L 258.618591 232.6789 
L 265.858955 232.650834 
L 273.099318 232.622768 
L 280.339682 232.594703 
L 287.580045 232.566637 
L 294.820409 232.538572 
L 302.060773 232.510506 
L 309.301136 232.48244 
L 316.5415 232.454375 
L 323.781864 232.426309 
L 331.022227 232.398244 
L 338.262591 232.370178 
L 345.502955 232.342112 
L 352.743318 232.314047 
L 359.983682 232.285981 
L 367.224045 232.257916 
L 374.464409 232.22985 
L 381.704773 232.201784 
L 388.945136 232.173719 
L 396.1855 232.145653 
L 403.425864 232.117588 
L 410.666227 232.089522 
L 417.906591 232.061456 
" clip-path="url(#p6389875689)" style="fill: none; stroke-dasharray: 7.4,3.2; stroke-dashoffset: 0; stroke: #79ad41; stroke-width: 2"/>
   </g>
   <g id="patch_9">
    <path d="M 37.7875 276.68 
L 37.7875 185.148841 
" style="fill: none; stroke: #000000; stroke-width: 0.8; stroke-linejoin: miter; stroke-linecap: square"/>
   </g>
   <g id="patch_10">
    <path d="M 436.0075 276.68 
L 436.0075 185.148841 
" style="fill: none; stroke: #000000; stroke-width: 0.8; stroke-linejoin: miter; stroke-linecap: square"/>
   </g>
   <g id="patch_11">
    <path d="M 37.7875 276.68 
L 436.0075 276.68 
" style="fill: none; stroke: #000000; stroke-width: 0.8; stroke-linejoin: miter; stroke-linecap: square"/>
   </g>
   <g id="patch_12">
    <path d="M 37.7875 185.148841 
L 436.0075 185.148841 
" style="fill: none; stroke: #000000; stroke-width: 0.8; stroke-linejoin: miter; stroke-linecap: square"/>
   </g>
  </g>
 </g>
 <defs>
  <clipPath id="p9916304247">
   <rect x="37.7875" y="7.2" width="398.22" height="45.76558"/>
  </clipPath>
  <clipPath id="p3f585ce474">
   <rect x="37.7875" y="73.291631" width="398.22" height="91.531159"/>
  </clipPath>
  <clipPath id="p6389875689">
   <rect x="37.7875" y="185.148841" width="398.22" height="91.531159"/>
  </clipPath>
 </defs>
</svg>
