<?xml version="1.0" encoding="utf-8" standalone="no"?>
<!DOCTYPE svg PUBLIC "-//W3C//DTD SVG 1.1//EN"
  "http://www.w3.org/Graphics/SVG/1.1/DTD/svg11.dtd">
<svg xmlns:xlink="http://www.w3.org/1999/xlink" width="443.2625pt" height="325.85pt" viewBox="0 0 443.2625 325.85" xmlns="http://www.w3.org/2000/svg" version="1.1">
 <metadata>
  <rdf:RDF xmlns:dc="http://purl.org/dc/elements/1.1/" xmlns:cc="http://creativecommons.org/ns#" xmlns:rdf="http://www.w3.org/1999/02/22-rdf-syntax-ns#">
   <cc:Work>
    <dc:type rdf:resource="http://purl.org/dc/dcmitype/StillImage"/>
    <dc:date>2024-01-28T20:52:00.468772</dc:date>
    <dc:format>image/svg+xml</dc:format>
    <dc:creator>
     <cc:Agent>
      <dc:title>Matplotlib v3.7.2, https://matplotlib.org/</dc:title>
     </cc:Agent>
    </dc:creator>
   </cc:Work>
  </rdf:RDF>
 </metadata>
 <defs>
  <style type="text/css">*{stroke-linejoin: round; stroke-linecap: butt}</style>
 </defs>
 <g id="figure_1">
  <g id="patch_1">
   <path d="M 0 325.85 
L 443.2625 325.85 
L 443.2625 0 
L 0 0 
z
" style="fill: #ffffff"/>
  </g>
  <g id="axes_1">
   <g id="patch_2">
    <path d="M 53.0525 53.183376 
L 436.0625 53.183376 
L 436.0625 7.2 
L 53.0525 7.2 
z
" style="fill: #ffffff"/>
   </g>
   <g id="PolyCollection_1">
    <defs>
     <path id="mec271fced9" d="M 70.462045 -274.756777 
L 70.462045 -285.604108 
L 77.425864 -285.644753 
L 84.389682 -285.674953 
L 91.3535 -285.69413 
L 98.317318 -285.70199 
L 105.281136 -285.698587 
L 112.244955 -285.684377 
L 119.208773 -285.660261 
L 126.172591 -285.627601 
L 133.136409 -285.588254 
L 140.100227 -285.544552 
L 147.064045 -285.499315 
L 154.027864 -285.455816 
L 160.991682 -285.417768 
L 167.9555 -285.389264 
L 174.919318 -285.374791 
L 181.883136 -285.379163 
L 188.846955 -285.407535 
L 195.810773 -285.465388 
L 202.774591 -285.558536 
L 209.738409 -285.693158 
L 216.702227 -285.875817 
L 223.666045 -286.113515 
L 230.629864 -286.41371 
L 237.593682 -286.784337 
L 244.5575 -287.233787 
L 251.521318 -287.770825 
L 258.485136 -288.404408 
L 265.448955 -289.143411 
L 272.412773 -289.996148 
L 279.376591 -290.96976 
L 286.340409 -292.06938 
L 293.304227 -293.297133 
L 300.268045 -294.651042 
L 307.231864 -296.123973 
L 314.195682 -297.702774 
L 321.1595 -299.36794 
L 328.123318 -301.093878 
L 335.087136 -302.850055 
L 342.050955 -304.602911 
L 349.014773 -306.318371 
L 355.978591 -307.964519 
L 362.942409 -309.514068 
L 369.906227 -310.94611 
L 376.870045 -312.247002 
L 383.833864 -313.410323 
L 390.797682 -314.436066 
L 397.7615 -315.329367 
L 404.725318 -316.09903 
L 411.689136 -316.559847 
L 418.652955 -316.559847 
L 418.652955 -274.756777 
L 418.652955 -274.756777 
L 411.689136 -274.756777 
L 404.725318 -274.756777 
L 397.7615 -274.756777 
L 390.797682 -274.756777 
L 383.833864 -274.756777 
L 376.870045 -274.756777 
L 369.906227 -274.756777 
L 362.942409 -274.756777 
L 355.978591 -274.756777 
L 349.014773 -274.756777 
L 342.050955 -274.756777 
L 335.087136 -274.756777 
L 328.123318 -274.756777 
L 321.1595 -274.756777 
L 314.195682 -274.756777 
L 307.231864 -274.756777 
L 300.268045 -274.756777 
L 293.304227 -274.756777 
L 286.340409 -274.756777 
L 279.376591 -274.756777 
L 272.412773 -274.756777 
L 265.448955 -274.756777 
L 258.485136 -274.756777 
L 251.521318 -274.756777 
L 244.5575 -274.756777 
L 237.593682 -274.756777 
L 230.629864 -274.756777 
L 223.666045 -274.756777 
L 216.702227 -274.756777 
L 209.738409 -274.756777 
L 202.774591 -274.756777 
L 195.810773 -274.756777 
L 188.846955 -274.756777 
L 181.883136 -274.756777 
L 174.919318 -274.756777 
L 167.9555 -274.756777 
L 160.991682 -274.756777 
L 154.027864 -274.756777 
L 147.064045 -274.756777 
L 140.100227 -274.756777 
L 133.136409 -274.756777 
L 126.172591 -274.756777 
L 119.208773 -274.756777 
L 112.244955 -274.756777 
L 105.281136 -274.756777 
L 98.317318 -274.756777 
L 91.3535 -274.756777 
L 84.389682 -274.756777 
L 77.425864 -274.756777 
L 70.462045 -274.756777 
z
" style="stroke: #dc143c; stroke-opacity: 0.2"/>
    </defs>
    <g clip-path="url(#pd0efd22300)">
     <use xlink:href="#mec271fced9" x="0" y="325.85" style="fill: #dc143c; fill-opacity: 0.2; stroke: #dc143c; stroke-opacity: 0.2"/>
    </g>
   </g>
   <g id="PolyCollection_2">
    <defs>
     <path id="md932d85b68" d="M 70.462045 -274.756777 
L 70.462045 -310.357301 
L 77.425864 -310.316656 
L 84.389682 -310.286457 
L 91.3535 -310.267279 
L 98.317318 -310.259419 
L 105.281136 -310.262822 
L 112.244955 -310.277032 
L 119.208773 -310.301149 
L 126.172591 -310.333808 
L 133.136409 -310.373156 
L 140.100227 -310.416858 
L 147.064045 -310.462094 
L 154.027864 -310.505593 
L 160.991682 -310.543642 
L 167.9555 -310.572145 
L 174.919318 -310.586619 
L 181.883136 -310.582247 
L 188.846955 -310.553874 
L 195.810773 -310.496021 
L 202.774591 -310.402873 
L 209.738409 -310.268251 
L 216.702227 -310.085592 
L 223.666045 -309.847895 
L 230.629864 -309.547699 
L 237.593682 -309.177072 
L 244.5575 -308.727623 
L 251.521318 -308.190584 
L 258.485136 -307.557002 
L 265.448955 -306.817998 
L 272.412773 -305.965262 
L 279.376591 -304.991649 
L 286.340409 -303.892029 
L 293.304227 -302.664276 
L 300.268045 -301.310367 
L 307.231864 -299.837436 
L 314.195682 -298.258635 
L 321.1595 -296.593469 
L 328.123318 -294.867532 
L 335.087136 -293.111355 
L 342.050955 -291.358498 
L 349.014773 -289.643038 
L 355.978591 -287.996891 
L 362.942409 -286.447341 
L 369.906227 -285.015299 
L 376.870045 -283.714407 
L 383.833864 -282.551086 
L 390.797682 -281.525344 
L 397.7615 -280.632042 
L 404.725318 -279.862379 
L 411.689136 -279.401563 
L 418.652955 -279.401563 
L 418.652955 -274.756777 
L 418.652955 -274.756777 
L 411.689136 -274.756777 
L 404.725318 -274.756777 
L 397.7615 -274.756777 
L 390.797682 -274.756777 
L 383.833864 -274.756777 
L 376.870045 -274.756777 
L 369.906227 -274.756777 
L 362.942409 -274.756777 
L 355.978591 -274.756777 
L 349.014773 -274.756777 
L 342.050955 -274.756777 
L 335.087136 -274.756777 
L 328.123318 -274.756777 
L 321.1595 -274.756777 
L 314.195682 -274.756777 
L 307.231864 -274.756777 
L 300.268045 -274.756777 
L 293.304227 -274.756777 
L 286.340409 -274.756777 
L 279.376591 -274.756777 
L 272.412773 -274.756777 
L 265.448955 -274.756777 
L 258.485136 -274.756777 
L 251.521318 -274.756777 
L 244.5575 -274.756777 
L 237.593682 -274.756777 
L 230.629864 -274.756777 
L 223.666045 -274.756777 
L 216.702227 -274.756777 
L 209.738409 -274.756777 
L 202.774591 -274.756777 
L 195.810773 -274.756777 
L 188.846955 -274.756777 
L 181.883136 -274.756777 
L 174.919318 -274.756777 
L 167.9555 -274.756777 
L 160.991682 -274.756777 
L 154.027864 -274.756777 
L 147.064045 -274.756777 
L 140.100227 -274.756777 
L 133.136409 -274.756777 
L 126.172591 -274.756777 
L 119.208773 -274.756777 
L 112.244955 -274.756777 
L 105.281136 -274.756777 
L 98.317318 -274.756777 
L 91.3535 -274.756777 
L 84.389682 -274.756777 
L 77.425864 -274.756777 
L 70.462045 -274.756777 
z
" style="stroke: #000080; stroke-opacity: 0.2"/>
    </defs>
    <g clip-path="url(#pd0efd22300)">
     <use xlink:href="#md932d85b68" x="0" y="325.85" style="fill: #000080; fill-opacity: 0.2; stroke: #000080; stroke-opacity: 0.2"/>
    </g>
   </g>
   <g id="matplotlib.axis_1"/>
   <g id="matplotlib.axis_2"/>
   <g id="line2d_1">
    <path d="M 70.462045 40.245892 
L 77.425864 40.205247 
L 84.389682 40.175047 
L 91.3535 40.15587 
L 98.317318 40.14801 
L 105.281136 40.151413 
L 112.244955 40.165623 
L 119.208773 40.189739 
L 126.172591 40.222399 
L 133.136409 40.261746 
L 140.100227 40.305448 
L 147.064045 40.350685 
L 154.027864 40.394184 
L 160.991682 40.432232 
L 167.9555 40.460736 
L 174.919318 40.475209 
L 181.883136 40.470837 
L 188.846955 40.442465 
L 195.810773 40.384612 
L 202.774591 40.291464 
L 209.738409 40.156842 
L 216.702227 39.974183 
L 223.666045 39.736485 
L 230.629864 39.43629 
L 237.593682 39.065663 
L 244.5575 38.616213 
L 251.521318 38.079175 
L 258.485136 37.445592 
L 265.448955 36.706589 
L 272.412773 35.853852 
L 279.376591 34.88024 
L 286.340409 33.78062 
L 293.304227 32.552867 
L 300.268045 31.198958 
L 307.231864 29.726027 
L 314.195682 28.147226 
L 321.1595 26.48206 
L 328.123318 24.756122 
L 335.087136 22.999945 
L 342.050955 21.247089 
L 349.014773 19.531629 
L 355.978591 17.885481 
L 362.942409 16.335932 
L 369.906227 14.90389 
L 376.870045 13.602998 
L 383.833864 12.439677 
L 390.797682 11.413934 
L 397.7615 10.520633 
L 404.725318 9.75097 
L 411.689136 9.290153 
L 418.652955 9.290153 
" clip-path="url(#pd0efd22300)" style="fill: none; stroke: #dc143c; stroke-width: 1.5; stroke-linecap: square"/>
   </g>
   <g id="line2d_2">
    <path d="M 70.462045 15.492699 
L 77.425864 15.533344 
L 84.389682 15.563543 
L 91.3535 15.582721 
L 98.317318 15.590581 
L 105.281136 15.587178 
L 112.244955 15.572968 
L 119.208773 15.548851 
L 126.172591 15.516192 
L 133.136409 15.476844 
L 140.100227 15.433142 
L 147.064045 15.387906 
L 154.027864 15.344407 
L 160.991682 15.306358 
L 167.9555 15.277855 
L 174.919318 15.263381 
L 181.883136 15.267753 
L 188.846955 15.296126 
L 195.810773 15.353979 
L 202.774591 15.447127 
L 209.738409 15.581749 
L 216.702227 15.764408 
L 223.666045 16.002105 
L 230.629864 16.302301 
L 237.593682 16.672928 
L 244.5575 17.122377 
L 251.521318 17.659416 
L 258.485136 18.292998 
L 265.448955 19.032002 
L 272.412773 19.884738 
L 279.376591 20.858351 
L 286.340409 21.957971 
L 293.304227 23.185724 
L 300.268045 24.539633 
L 307.231864 26.012564 
L 314.195682 27.591365 
L 321.1595 29.256531 
L 328.123318 30.982468 
L 335.087136 32.738645 
L 342.050955 34.491502 
L 349.014773 36.206962 
L 355.978591 37.853109 
L 362.942409 39.402659 
L 369.906227 40.834701 
L 376.870045 42.135593 
L 383.833864 43.298914 
L 390.797682 44.324656 
L 397.7615 45.217958 
L 404.725318 45.987621 
L 411.689136 46.448437 
L 418.652955 46.448437 
" clip-path="url(#pd0efd22300)" style="fill: none; stroke: #000080; stroke-width: 1.5; stroke-linecap: square"/>
   </g>
  </g>
  <g id="axes_2">
   <g id="patch_3">
    <path d="M 53.0525 164.931688 
L 436.0625 164.931688 
L 436.0625 72.964936 
L 53.0525 72.964936 
z
" style="fill: #ffffff"/>
   </g>
   <g id="PathCollection_1">
    <defs>
     <path id="mffd43cbec9" d="M 0 0.866025 
C 0.229673 0.866025 0.449969 0.774776 0.612372 0.612372 
C 0.774776 0.449969 0.866025 0.229673 0.866025 0 
C 0.866025 -0.229673 0.774776 -0.449969 0.612372 -0.612372 
C 0.449969 -0.774776 0.229673 -0.866025 0 -0.866025 
C -0.229673 -0.866025 -0.449969 -0.774776 -0.612372 -0.612372 
C -0.774776 -0.449969 -0.866025 -0.229673 -0.866025 0 
C -0.866025 0.229673 -0.774776 0.449969 -0.612372 0.612372 
C -0.449969 0.774776 -0.229673 0.866025 0 0.866025 
z
" style="stroke: #daa520"/>
    </defs>
    <g clip-path="url(#peb0e0e3304)">
     <use xlink:href="#mffd43cbec9" x="311.414585" y="132.035975" style="fill: #daa520; stroke: #daa520"/>
     <use xlink:href="#mffd43cbec9" x="261.095036" y="119.748519" style="fill: #daa520; stroke: #daa520"/>
     <use xlink:href="#mffd43cbec9" x="398.249278" y="143.353344" style="fill: #daa520; stroke: #daa520"/>
     <use xlink:href="#mffd43cbec9" x="156.94915" y="105.624015" style="fill: #daa520; stroke: #daa520"/>
     <use xlink:href="#mffd43cbec9" x="406.751597" y="148.224932" style="fill: #daa520; stroke: #daa520"/>
     <use xlink:href="#mffd43cbec9" x="347.800509" y="144.441766" style="fill: #daa520; stroke: #daa520"/>
     <use xlink:href="#mffd43cbec9" x="229.367593" y="121.058912" style="fill: #daa520; stroke: #daa520"/>
     <use xlink:href="#mffd43cbec9" x="270.863372" y="123.229082" style="fill: #daa520; stroke: #daa520"/>
     <use xlink:href="#mffd43cbec9" x="370.043145" y="149.277438" style="fill: #daa520; stroke: #daa520"/>
     <use xlink:href="#mffd43cbec9" x="392.348169" y="143.20525" style="fill: #daa520; stroke: #daa520"/>
     <use xlink:href="#mffd43cbec9" x="189.965587" y="104.13482" style="fill: #daa520; stroke: #daa520"/>
     <use xlink:href="#mffd43cbec9" x="296.578993" y="131.196481" style="fill: #daa520; stroke: #daa520"/>
     <use xlink:href="#mffd43cbec9" x="307.199052" y="135.205172" style="fill: #daa520; stroke: #daa520"/>
     <use xlink:href="#mffd43cbec9" x="244.224278" y="128.471066" style="fill: #daa520; stroke: #daa520"/>
     <use xlink:href="#mffd43cbec9" x="373.301701" y="153.562378" style="fill: #daa520; stroke: #daa520"/>
     <use xlink:href="#mffd43cbec9" x="331.72904" y="146.910102" style="fill: #daa520; stroke: #daa520"/>
     <use xlink:href="#mffd43cbec9" x="391.641741" y="148.045548" style="fill: #daa520; stroke: #daa520"/>
     <use xlink:href="#mffd43cbec9" x="84.218388" y="100.470066" style="fill: #daa520; stroke: #daa520"/>
     <use xlink:href="#mffd43cbec9" x="112.731909" y="85.085848" style="fill: #daa520; stroke: #daa520"/>
     <use xlink:href="#mffd43cbec9" x="408.89493" y="159.318097" style="fill: #daa520; stroke: #daa520"/>
     <use xlink:href="#mffd43cbec9" x="407.186585" y="158.573331" style="fill: #daa520; stroke: #daa520"/>
     <use xlink:href="#mffd43cbec9" x="313.77311" y="139.663416" style="fill: #daa520; stroke: #daa520"/>
     <use xlink:href="#mffd43cbec9" x="87.909278" y="77.145243" style="fill: #daa520; stroke: #daa520"/>
     <use xlink:href="#mffd43cbec9" x="394.924362" y="143.395038" style="fill: #daa520; stroke: #daa520"/>
     <use xlink:href="#mffd43cbec9" x="355.492325" y="154.061526" style="fill: #daa520; stroke: #daa520"/>
     <use xlink:href="#mffd43cbec9" x="339.254432" y="137.085474" style="fill: #daa520; stroke: #daa520"/>
     <use xlink:href="#mffd43cbec9" x="126.397398" y="101.136746" style="fill: #daa520; stroke: #daa520"/>
     <use xlink:href="#mffd43cbec9" x="410.185963" y="155.87107" style="fill: #daa520; stroke: #daa520"/>
     <use xlink:href="#mffd43cbec9" x="76.989502" y="86.69049" style="fill: #daa520; stroke: #daa520"/>
     <use xlink:href="#mffd43cbec9" x="312.952419" y="137.198967" style="fill: #daa520; stroke: #daa520"/>
     <use xlink:href="#mffd43cbec9" x="218.876091" y="109.888153" style="fill: #daa520; stroke: #daa520"/>
     <use xlink:href="#mffd43cbec9" x="371.020199" y="146.35062" style="fill: #daa520; stroke: #daa520"/>
     <use xlink:href="#mffd43cbec9" x="87.125" y="99.273209" style="fill: #daa520; stroke: #daa520"/>
     <use xlink:href="#mffd43cbec9" x="307.18177" y="127.095276" style="fill: #daa520; stroke: #daa520"/>
     <use xlink:href="#mffd43cbec9" x="153.54717" y="105.277336" style="fill: #daa520; stroke: #daa520"/>
     <use xlink:href="#mffd43cbec9" x="298.383092" y="131.508795" style="fill: #daa520; stroke: #daa520"/>
     <use xlink:href="#mffd43cbec9" x="364.021201" y="141.564122" style="fill: #daa520; stroke: #daa520"/>
     <use xlink:href="#mffd43cbec9" x="337.655533" y="148.074613" style="fill: #daa520; stroke: #daa520"/>
     <use xlink:href="#mffd43cbec9" x="93.117452" y="99.719244" style="fill: #daa520; stroke: #daa520"/>
     <use xlink:href="#mffd43cbec9" x="342.358373" y="143.045112" style="fill: #daa520; stroke: #daa520"/>
     <use xlink:href="#mffd43cbec9" x="326.456691" y="139.355765" style="fill: #daa520; stroke: #daa520"/>
     <use xlink:href="#mffd43cbec9" x="141.757625" y="102.401399" style="fill: #daa520; stroke: #daa520"/>
     <use xlink:href="#mffd43cbec9" x="357.660042" y="142.365901" style="fill: #daa520; stroke: #daa520"/>
     <use xlink:href="#mffd43cbec9" x="393.926469" y="144.126428" style="fill: #daa520; stroke: #daa520"/>
     <use xlink:href="#mffd43cbec9" x="389.772342" y="157.327605" style="fill: #daa520; stroke: #daa520"/>
     <use xlink:href="#mffd43cbec9" x="74.859604" y="97.657175" style="fill: #daa520; stroke: #daa520"/>
     <use xlink:href="#mffd43cbec9" x="329.403782" y="138.723057" style="fill: #daa520; stroke: #daa520"/>
     <use xlink:href="#mffd43cbec9" x="407.426118" y="160.751381" style="fill: #daa520; stroke: #daa520"/>
     <use xlink:href="#mffd43cbec9" x="154.902407" y="102.971919" style="fill: #daa520; stroke: #daa520"/>
     <use xlink:href="#mffd43cbec9" x="355.362511" y="140.168457" style="fill: #daa520; stroke: #daa520"/>
     <use xlink:href="#mffd43cbec9" x="175.701374" y="101.777598" style="fill: #daa520; stroke: #daa520"/>
     <use xlink:href="#mffd43cbec9" x="217.94909" y="123.249256" style="fill: #daa520; stroke: #daa520"/>
     <use xlink:href="#mffd43cbec9" x="237.309668" y="111.648732" style="fill: #daa520; stroke: #daa520"/>
     <use xlink:href="#mffd43cbec9" x="378.20827" y="156.735557" style="fill: #daa520; stroke: #daa520"/>
     <use xlink:href="#mffd43cbec9" x="341.906206" y="139.406891" style="fill: #daa520; stroke: #daa520"/>
     <use xlink:href="#mffd43cbec9" x="364.755928" y="144.485506" style="fill: #daa520; stroke: #daa520"/>
     <use xlink:href="#mffd43cbec9" x="306.513438" y="130.517204" style="fill: #daa520; stroke: #daa520"/>
     <use xlink:href="#mffd43cbec9" x="375.58392" y="156.400938" style="fill: #daa520; stroke: #daa520"/>
     <use xlink:href="#mffd43cbec9" x="335.052698" y="136.657918" style="fill: #daa520; stroke: #daa520"/>
     <use xlink:href="#mffd43cbec9" x="129.237495" y="102.240599" style="fill: #daa520; stroke: #daa520"/>
     <use xlink:href="#mffd43cbec9" x="408.94686" y="159.472181" style="fill: #daa520; stroke: #daa520"/>
     <use xlink:href="#mffd43cbec9" x="322.004605" y="136.224087" style="fill: #daa520; stroke: #daa520"/>
     <use xlink:href="#mffd43cbec9" x="395.680895" y="146.996346" style="fill: #daa520; stroke: #daa520"/>
     <use xlink:href="#mffd43cbec9" x="348.945158" y="146.686423" style="fill: #daa520; stroke: #daa520"/>
     <use xlink:href="#mffd43cbec9" x="306.237819" y="125.374558" style="fill: #daa520; stroke: #daa520"/>
     <use xlink:href="#mffd43cbec9" x="158.906717" y="103.900574" style="fill: #daa520; stroke: #daa520"/>
     <use xlink:href="#mffd43cbec9" x="399.57218" y="144.58924" style="fill: #daa520; stroke: #daa520"/>
     <use xlink:href="#mffd43cbec9" x="212.200731" y="108.962629" style="fill: #daa520; stroke: #daa520"/>
     <use xlink:href="#mffd43cbec9" x="275.545385" y="116.646065" style="fill: #daa520; stroke: #daa520"/>
     <use xlink:href="#mffd43cbec9" x="366.076162" y="138.75216" style="fill: #daa520; stroke: #daa520"/>
     <use xlink:href="#mffd43cbec9" x="376.671194" y="155.848121" style="fill: #daa520; stroke: #daa520"/>
     <use xlink:href="#mffd43cbec9" x="120.792702" y="102.00358" style="fill: #daa520; stroke: #daa520"/>
     <use xlink:href="#mffd43cbec9" x="303.738636" y="131.151287" style="fill: #daa520; stroke: #daa520"/>
     <use xlink:href="#mffd43cbec9" x="401.411815" y="159.232642" style="fill: #daa520; stroke: #daa520"/>
     <use xlink:href="#mffd43cbec9" x="408.52518" y="144.530797" style="fill: #daa520; stroke: #daa520"/>
     <use xlink:href="#mffd43cbec9" x="270.675508" y="126.319267" style="fill: #daa520; stroke: #daa520"/>
     <use xlink:href="#mffd43cbec9" x="274.105332" y="120.651243" style="fill: #daa520; stroke: #daa520"/>
     <use xlink:href="#mffd43cbec9" x="370.196326" y="148.736871" style="fill: #daa520; stroke: #daa520"/>
     <use xlink:href="#mffd43cbec9" x="207.988186" y="108.940669" style="fill: #daa520; stroke: #daa520"/>
     <use xlink:href="#mffd43cbec9" x="374.468693" y="152.516491" style="fill: #daa520; stroke: #daa520"/>
     <use xlink:href="#mffd43cbec9" x="396.163888" y="144.755287" style="fill: #daa520; stroke: #daa520"/>
     <use xlink:href="#mffd43cbec9" x="340.448948" y="148.04625" style="fill: #daa520; stroke: #daa520"/>
     <use xlink:href="#mffd43cbec9" x="346.231282" y="146.725631" style="fill: #daa520; stroke: #daa520"/>
     <use xlink:href="#mffd43cbec9" x="395.777432" y="159.660908" style="fill: #daa520; stroke: #daa520"/>
     <use xlink:href="#mffd43cbec9" x="225.387878" y="104.634849" style="fill: #daa520; stroke: #daa520"/>
     <use xlink:href="#mffd43cbec9" x="339.854017" y="140.122379" style="fill: #daa520; stroke: #daa520"/>
     <use xlink:href="#mffd43cbec9" x="314.005197" y="133.76836" style="fill: #daa520; stroke: #daa520"/>
     <use xlink:href="#mffd43cbec9" x="204.238956" y="101.62251" style="fill: #daa520; stroke: #daa520"/>
     <use xlink:href="#mffd43cbec9" x="369.189463" y="138.797387" style="fill: #daa520; stroke: #daa520"/>
     <use xlink:href="#mffd43cbec9" x="77.955581" y="104.690513" style="fill: #daa520; stroke: #daa520"/>
     <use xlink:href="#mffd43cbec9" x="359.43056" y="143.214887" style="fill: #daa520; stroke: #daa520"/>
     <use xlink:href="#mffd43cbec9" x="342.503319" y="147.745843" style="fill: #daa520; stroke: #daa520"/>
     <use xlink:href="#mffd43cbec9" x="380.454185" y="145.986265" style="fill: #daa520; stroke: #daa520"/>
    </g>
   </g>
   <g id="matplotlib.axis_3"/>
   <g id="matplotlib.axis_4">
    <g id="ytick_1">
     <g id="line2d_3">
      <defs>
       <path id="m4174e6abe2" d="M 0 0 
L -3.5 0 
" style="stroke: #696969; stroke-width: 0.8"/>
      </defs>
      <g>
       <use xlink:href="#m4174e6abe2" x="53.0525" y="142.013674" style="fill: #696969; stroke: #696969; stroke-width: 0.8"/>
      </g>
     </g>
     <g id="text_1">
      <!-- −5 -->
      <g style="fill: #696969" transform="translate(22.465 148.092424) scale(0.16 -0.16)">
       <defs>
        <path id="DejaVuSans-2212" d="M 678 2272 
L 4684 2272 
L 4684 1741 
L 678 1741 
L 678 2272 
z
" transform="scale(0.015625)"/>
        <path id="DejaVuSans-35" d="M 691 4666 
L 3169 4666 
L 3169 4134 
L 1269 4134 
L 1269 2991 
Q 1406 3038 1543 3061 
Q 1681 3084 1819 3084 
Q 2600 3084 3056 2656 
Q 3513 2228 3513 1497 
Q 3513 744 3044 326 
Q 2575 -91 1722 -91 
Q 1428 -91 1123 -41 
Q 819 9 494 109 
L 494 744 
Q 775 591 1075 516 
Q 1375 441 1709 441 
Q 2250 441 2565 725 
Q 2881 1009 2881 1497 
Q 2881 1984 2565 2268 
Q 2250 2553 1709 2553 
Q 1456 2553 1204 2497 
Q 953 2441 691 2322 
L 691 4666 
z
" transform="scale(0.015625)"/>
       </defs>
       <use xlink:href="#DejaVuSans-2212"/>
       <use xlink:href="#DejaVuSans-35" x="83.789062"/>
      </g>
     </g>
    </g>
    <g id="ytick_2">
     <g id="line2d_4">
      <g>
       <use xlink:href="#m4174e6abe2" x="53.0525" y="108.810439" style="fill: #696969; stroke: #696969; stroke-width: 0.8"/>
      </g>
     </g>
     <g id="text_2">
      <!-- 0 -->
      <g style="fill: #696969" transform="translate(35.8725 114.889189) scale(0.16 -0.16)">
       <defs>
        <path id="DejaVuSans-30" d="M 2034 4250 
Q 1547 4250 1301 3770 
Q 1056 3291 1056 2328 
Q 1056 1369 1301 889 
Q 1547 409 2034 409 
Q 2525 409 2770 889 
Q 3016 1369 3016 2328 
Q 3016 3291 2770 3770 
Q 2525 4250 2034 4250 
z
M 2034 4750 
Q 2819 4750 3233 4129 
Q 3647 3509 3647 2328 
Q 3647 1150 3233 529 
Q 2819 -91 2034 -91 
Q 1250 -91 836 529 
Q 422 1150 422 2328 
Q 422 3509 836 4129 
Q 1250 4750 2034 4750 
z
" transform="scale(0.015625)"/>
       </defs>
       <use xlink:href="#DejaVuSans-30"/>
      </g>
     </g>
    </g>
    <g id="ytick_3">
     <g id="line2d_5">
      <g>
       <use xlink:href="#m4174e6abe2" x="53.0525" y="75.607204" style="fill: #696969; stroke: #696969; stroke-width: 0.8"/>
      </g>
     </g>
     <g id="text_3">
      <!-- 5 -->
      <g style="fill: #696969" transform="translate(35.8725 81.685954) scale(0.16 -0.16)">
       <use xlink:href="#DejaVuSans-35"/>
      </g>
     </g>
    </g>
   </g>
   <g id="line2d_6">
    <path d="M 70.462045 94.409898 
L 77.425864 95.244222 
L 84.389682 96.160865 
L 91.3535 97.138868 
L 98.317318 98.154666 
L 105.281136 99.183753 
L 112.244955 100.202367 
L 119.208773 101.189047 
L 126.172591 102.125985 
L 133.136409 103.000116 
L 140.100227 103.803819 
L 147.064045 104.535265 
L 154.027864 105.198421 
L 160.991682 105.802676 
L 167.9555 106.362244 
L 174.919318 106.895311 
L 181.883136 107.423088 
L 188.846955 107.96877 
L 195.810773 108.556485 
L 202.774591 109.210286 
L 209.738409 109.953148 
L 216.702227 110.806057 
L 223.666045 111.787114 
L 230.629864 112.91072 
L 237.593682 114.186821 
L 244.5575 115.620242 
L 251.521318 117.210152 
L 258.485136 118.949725 
L 265.448955 120.826029 
L 272.412773 122.820207 
L 279.376591 124.908012 
L 286.340409 127.060672 
L 293.304227 129.246076 
L 300.268045 131.430281 
L 307.231864 133.579168 
L 314.195682 135.660197 
L 321.1595 137.64411 
L 328.123318 139.506436 
L 335.087136 141.228689 
L 342.050955 142.799169 
L 349.014773 144.213278 
L 355.978591 145.473372 
L 362.942409 146.588156 
L 369.906227 147.571717 
L 376.870045 148.442281 
L 383.833864 149.220817 
L 390.797682 149.929645 
L 397.7615 150.591131 
L 404.725318 151.226573 
L 411.689136 151.855348 
L 418.652955 152.494316 
" clip-path="url(#peb0e0e3304)" style="fill: none; stroke: #000000; stroke-width: 2; stroke-linecap: square"/>
   </g>
   <g id="line2d_7">
    <path d="M 70.462045 87.647605 
L 77.425864 89.005914 
L 84.389682 90.364222 
L 91.3535 91.722531 
L 98.317318 93.08084 
L 105.281136 94.439148 
L 112.244955 95.797457 
L 119.208773 97.155766 
L 126.172591 98.514075 
L 133.136409 99.872383 
L 140.100227 101.230692 
L 147.064045 102.589001 
L 154.027864 103.947309 
L 160.991682 105.305618 
L 167.9555 106.663927 
L 174.919318 108.022236 
L 181.883136 109.380544 
L 188.846955 110.738853 
L 195.810773 112.097162 
L 202.774591 113.45547 
L 209.738409 114.813779 
L 216.702227 116.172088 
L 223.666045 117.530397 
L 230.629864 118.888705 
L 237.593682 120.247014 
L 244.5575 121.605323 
L 251.521318 122.963631 
L 258.485136 124.32194 
L 265.448955 125.680249 
L 272.412773 127.038558 
L 279.376591 128.396866 
L 286.340409 129.755175 
L 293.304227 131.113484 
L 300.268045 132.471792 
L 307.231864 133.830101 
L 314.195682 135.18841 
L 321.1595 136.546719 
L 328.123318 137.905027 
L 335.087136 139.263336 
L 342.050955 140.621645 
L 349.014773 141.979953 
L 355.978591 143.338262 
L 362.942409 144.696571 
L 369.906227 146.05488 
L 376.870045 147.413188 
L 383.833864 148.771497 
L 390.797682 150.129806 
L 397.7615 151.488115 
L 404.725318 152.846423 
L 411.689136 154.204732 
L 418.652955 155.563041 
" clip-path="url(#peb0e0e3304)" style="fill: none; stroke-dasharray: 7.4,3.2; stroke-dashoffset: 0; stroke: #34b6c6; stroke-width: 2"/>
   </g>
   <g id="line2d_8">
    <path d="M 70.462045 92.079073 
L 77.425864 93.143567 
L 84.389682 94.195267 
L 91.3535 95.229941 
L 98.317318 96.243957 
L 105.281136 97.234443 
L 112.244955 98.199392 
L 119.208773 99.137718 
L 126.172591 100.049262 
L 133.136409 100.934761 
L 140.100227 101.795793 
L 147.064045 102.634722 
L 154.027864 103.454651 
L 160.991682 104.2594 
L 167.9555 105.053529 
L 174.919318 105.842402 
L 181.883136 106.632312 
L 188.846955 107.430661 
L 195.810773 108.246202 
L 202.774591 109.089336 
L 209.738409 109.972418 
L 216.702227 110.91005 
L 223.666045 111.919222 
L 230.629864 113.019179 
L 237.593682 114.230745 
L 244.5575 115.574858 
L 251.521318 117.070063 
L 258.485136 118.728985 
L 265.448955 120.554274 
L 272.412773 122.535161 
L 279.376591 124.646141 
L 286.340409 126.84892 
L 293.304227 129.097474 
L 300.268045 131.344582 
L 307.231864 133.547622 
L 314.195682 135.672048 
L 321.1595 137.692235 
L 328.123318 139.590377 
L 335.087136 141.354504 
L 342.050955 142.976658 
L 349.014773 144.451881 
L 355.978591 145.778169 
L 362.942409 146.956964 
L 369.906227 147.993585 
L 376.870045 148.89712 
L 383.833864 149.679678 
L 390.797682 150.355244 
L 397.7615 150.938435 
L 404.725318 151.443465 
L 411.689136 151.883415 
L 418.652955 152.269835 
" clip-path="url(#peb0e0e3304)" style="fill: none; stroke-dasharray: 7.4,3.2; stroke-dashoffset: 0; stroke: #9370db; stroke-width: 2"/>
   </g>
   <g id="line2d_9">
    <path d="M 70.462045 93.964146 
L 77.425864 94.96254 
L 84.389682 95.947046 
L 91.3535 96.913068 
L 98.317318 97.856666 
L 105.281136 98.77472 
L 112.244955 99.665051 
L 119.208773 100.526482 
L 126.172591 101.358839 
L 133.136409 102.162922 
L 140.100227 102.940445 
L 147.064045 103.693974 
L 154.027864 104.426876 
L 160.991682 105.1433 
L 167.9555 105.848195 
L 174.919318 106.547385 
L 181.883136 107.2477 
L 188.846955 107.957176 
L 195.810773 108.685316 
L 202.774591 109.443409 
L 209.738409 110.244869 
L 216.702227 111.105546 
L 223.666045 112.043885 
L 230.629864 113.080776 
L 237.593682 114.238827 
L 244.5575 115.540767 
L 251.521318 117.006727 
L 258.485136 118.650413 
L 265.448955 120.474702 
L 272.412773 122.467902 
L 279.376591 124.602326 
L 286.340409 126.836406 
L 293.304227 129.120177 
L 300.268045 131.402377 
L 307.231864 133.63674 
L 314.195682 135.785761 
L 321.1595 137.821624 
L 328.123318 139.724999 
L 335.087136 141.482893 
L 342.050955 143.086664 
L 349.014773 144.530933 
L 355.978591 145.813521 
L 362.942409 146.935997 
L 369.906227 147.904134 
L 376.870045 148.727796 
L 383.833864 149.420131 
L 390.797682 149.996318 
L 397.7615 150.472226 
L 404.725318 150.863285 
L 411.689136 151.183694 
L 418.652955 151.445994 
" clip-path="url(#peb0e0e3304)" style="fill: none; stroke-dasharray: 12.8,3.2,2,3.2; stroke-dashoffset: 0; stroke: #ff0000; stroke-width: 2"/>
   </g>
   <g id="patch_4">
    <path d="M 53.0525 164.931688 
L 53.0525 72.964936 
" style="fill: none; stroke: #000000; stroke-width: 0.8; stroke-linejoin: miter; stroke-linecap: square"/>
   </g>
   <g id="patch_5">
    <path d="M 436.0625 164.931688 
L 436.0625 72.964936 
" style="fill: none; stroke: #000000; stroke-width: 0.8; stroke-linejoin: miter; stroke-linecap: square"/>
   </g>
   <g id="patch_6">
    <path d="M 53.0525 164.931688 
L 436.0625 164.931688 
" style="fill: none; stroke: #000000; stroke-width: 0.8; stroke-linejoin: miter; stroke-linecap: square"/>
   </g>
   <g id="patch_7">
    <path d="M 53.0525 72.964936 
L 436.0625 72.964936 
" style="fill: none; stroke: #000000; stroke-width: 0.8; stroke-linejoin: miter; stroke-linecap: square"/>
   </g>
  </g>
  <g id="axes_3">
   <g id="patch_8">
    <path d="M 53.0525 276.68 
L 436.0625 276.68 
L 436.0625 184.713248 
L 53.0525 184.713248 
z
" style="fill: #ffffff"/>
   </g>
   <g id="PathCollection_2">
    <g clip-path="url(#pb42779ac17)">
     <use xlink:href="#mffd43cbec9" x="311.414585" y="230.063685" style="fill: #daa520; stroke: #daa520"/>
     <use xlink:href="#mffd43cbec9" x="261.095036" y="221.417812" style="fill: #daa520; stroke: #daa520"/>
     <use xlink:href="#mffd43cbec9" x="398.249278" y="241.0556" style="fill: #daa520; stroke: #daa520"/>
     <use xlink:href="#mffd43cbec9" x="156.94915" y="220.227797" style="fill: #daa520; stroke: #daa520"/>
     <use xlink:href="#mffd43cbec9" x="406.751597" y="229.635177" style="fill: #daa520; stroke: #daa520"/>
     <use xlink:href="#mffd43cbec9" x="347.800509" y="222.153779" style="fill: #daa520; stroke: #daa520"/>
     <use xlink:href="#mffd43cbec9" x="229.367593" y="201.37873" style="fill: #daa520; stroke: #daa520"/>
     <use xlink:href="#mffd43cbec9" x="270.863372" y="219.390862" style="fill: #daa520; stroke: #daa520"/>
     <use xlink:href="#mffd43cbec9" x="370.043145" y="219.034398" style="fill: #daa520; stroke: #daa520"/>
     <use xlink:href="#mffd43cbec9" x="392.348169" y="240.424542" style="fill: #daa520; stroke: #daa520"/>
     <use xlink:href="#mffd43cbec9" x="189.965587" y="232.741098" style="fill: #daa520; stroke: #daa520"/>
     <use xlink:href="#mffd43cbec9" x="296.578993" y="219.955835" style="fill: #daa520; stroke: #daa520"/>
     <use xlink:href="#mffd43cbec9" x="307.199052" y="218.456901" style="fill: #daa520; stroke: #daa520"/>
     <use xlink:href="#mffd43cbec9" x="244.224278" y="188.893555" style="fill: #daa520; stroke: #daa520"/>
     <use xlink:href="#mffd43cbec9" x="373.301701" y="208.978548" style="fill: #daa520; stroke: #daa520"/>
     <use xlink:href="#mffd43cbec9" x="331.72904" y="206.345799" style="fill: #daa520; stroke: #daa520"/>
     <use xlink:href="#mffd43cbec9" x="391.641741" y="227.758431" style="fill: #daa520; stroke: #daa520"/>
     <use xlink:href="#mffd43cbec9" x="84.218388" y="210.771153" style="fill: #daa520; stroke: #daa520"/>
     <use xlink:href="#mffd43cbec9" x="112.731909" y="260.453569" style="fill: #daa520; stroke: #daa520"/>
     <use xlink:href="#mffd43cbec9" x="408.89493" y="201.169196" style="fill: #daa520; stroke: #daa520"/>
     <use xlink:href="#mffd43cbec9" x="407.186585" y="202.893448" style="fill: #daa520; stroke: #daa520"/>
     <use xlink:href="#mffd43cbec9" x="313.77311" y="212.17447" style="fill: #daa520; stroke: #daa520"/>
     <use xlink:href="#mffd43cbec9" x="87.909278" y="272.499693" style="fill: #daa520; stroke: #daa520"/>
     <use xlink:href="#mffd43cbec9" x="394.924362" y="240.396692" style="fill: #daa520; stroke: #daa520"/>
     <use xlink:href="#mffd43cbec9" x="355.492325" y="200.969814" style="fill: #daa520; stroke: #daa520"/>
     <use xlink:href="#mffd43cbec9" x="339.254432" y="236.465293" style="fill: #daa520; stroke: #daa520"/>
     <use xlink:href="#mffd43cbec9" x="126.397398" y="223.188296" style="fill: #daa520; stroke: #daa520"/>
     <use xlink:href="#mffd43cbec9" x="410.185963" y="210.242454" style="fill: #daa520; stroke: #daa520"/>
     <use xlink:href="#mffd43cbec9" x="76.989502" y="243.802827" style="fill: #daa520; stroke: #daa520"/>
     <use xlink:href="#mffd43cbec9" x="312.952419" y="217.911926" style="fill: #daa520; stroke: #daa520"/>
     <use xlink:href="#mffd43cbec9" x="218.876091" y="226.431553" style="fill: #daa520; stroke: #daa520"/>
     <use xlink:href="#mffd43cbec9" x="371.020199" y="226.932934" style="fill: #daa520; stroke: #daa520"/>
     <use xlink:href="#mffd43cbec9" x="87.125" y="214.921196" style="fill: #daa520; stroke: #daa520"/>
     <use xlink:href="#mffd43cbec9" x="307.18177" y="239.441915" style="fill: #daa520; stroke: #daa520"/>
     <use xlink:href="#mffd43cbec9" x="153.54717" y="220.213281" style="fill: #daa520; stroke: #daa520"/>
     <use xlink:href="#mffd43cbec9" x="298.383092" y="220.67738" style="fill: #daa520; stroke: #daa520"/>
     <use xlink:href="#mffd43cbec9" x="364.021201" y="236.868376" style="fill: #daa520; stroke: #daa520"/>
     <use xlink:href="#mffd43cbec9" x="337.655533" y="207.05575" style="fill: #daa520; stroke: #daa520"/>
     <use xlink:href="#mffd43cbec9" x="93.117452" y="215.90353" style="fill: #daa520; stroke: #daa520"/>
     <use xlink:href="#mffd43cbec9" x="342.358373" y="222.826352" style="fill: #daa520; stroke: #daa520"/>
     <use xlink:href="#mffd43cbec9" x="326.456691" y="222.354686" style="fill: #daa520; stroke: #daa520"/>
     <use xlink:href="#mffd43cbec9" x="141.757625" y="224.410363" style="fill: #daa520; stroke: #daa520"/>
     <use xlink:href="#mffd43cbec9" x="357.660042" y="232.211252" style="fill: #daa520; stroke: #daa520"/>
     <use xlink:href="#mffd43cbec9" x="393.926469" y="238.327259" style="fill: #daa520; stroke: #daa520"/>
     <use xlink:href="#mffd43cbec9" x="389.772342" y="203.359437" style="fill: #daa520; stroke: #daa520"/>
     <use xlink:href="#mffd43cbec9" x="74.859604" y="214.618452" style="fill: #daa520; stroke: #daa520"/>
     <use xlink:href="#mffd43cbec9" x="329.403782" y="226.005239" style="fill: #daa520; stroke: #daa520"/>
     <use xlink:href="#mffd43cbec9" x="407.426118" y="197.283011" style="fill: #daa520; stroke: #daa520"/>
     <use xlink:href="#mffd43cbec9" x="154.902407" y="226.547302" style="fill: #daa520; stroke: #daa520"/>
     <use xlink:href="#mffd43cbec9" x="355.362511" y="236.884822" style="fill: #daa520; stroke: #daa520"/>
     <use xlink:href="#mffd43cbec9" x="175.701374" y="235.098547" style="fill: #daa520; stroke: #daa520"/>
     <use xlink:href="#mffd43cbec9" x="217.94909" y="191.519667" style="fill: #daa520; stroke: #daa520"/>
     <use xlink:href="#mffd43cbec9" x="237.309668" y="229.122285" style="fill: #daa520; stroke: #daa520"/>
     <use xlink:href="#mffd43cbec9" x="378.20827" y="202.179941" style="fill: #daa520; stroke: #daa520"/>
     <use xlink:href="#mffd43cbec9" x="341.906206" y="231.990856" style="fill: #daa520; stroke: #daa520"/>
     <use xlink:href="#mffd43cbec9" x="364.755928" y="229.580452" style="fill: #daa520; stroke: #daa520"/>
     <use xlink:href="#mffd43cbec9" x="306.513438" y="230.034285" style="fill: #daa520; stroke: #daa520"/>
     <use xlink:href="#mffd43cbec9" x="375.58392" y="202.309467" style="fill: #daa520; stroke: #daa520"/>
     <use xlink:href="#mffd43cbec9" x="335.052698" y="235.016758" style="fill: #daa520; stroke: #daa520"/>
     <use xlink:href="#mffd43cbec9" x="129.237495" y="221.186877" style="fill: #daa520; stroke: #daa520"/>
     <use xlink:href="#mffd43cbec9" x="408.94686" y="200.776275" style="fill: #daa520; stroke: #daa520"/>
     <use xlink:href="#mffd43cbec9" x="322.004605" y="227.298614" style="fill: #daa520; stroke: #daa520"/>
     <use xlink:href="#mffd43cbec9" x="395.680895" y="231.201667" style="fill: #daa520; stroke: #daa520"/>
     <use xlink:href="#mffd43cbec9" x="348.945158" y="216.928312" style="fill: #daa520; stroke: #daa520"/>
     <use xlink:href="#mffd43cbec9" x="306.237819" y="243.124028" style="fill: #daa520; stroke: #daa520"/>
     <use xlink:href="#mffd43cbec9" x="158.906717" y="225.211056" style="fill: #daa520; stroke: #daa520"/>
     <use xlink:href="#mffd43cbec9" x="399.57218" y="238.0607" style="fill: #daa520; stroke: #daa520"/>
     <use xlink:href="#mffd43cbec9" x="212.200731" y="226.633173" style="fill: #daa520; stroke: #daa520"/>
     <use xlink:href="#mffd43cbec9" x="275.545385" y="240.066122" style="fill: #daa520; stroke: #daa520"/>
     <use xlink:href="#mffd43cbec9" x="366.076162" y="244.911716" style="fill: #daa520; stroke: #daa520"/>
     <use xlink:href="#mffd43cbec9" x="376.671194" y="204.052062" style="fill: #daa520; stroke: #daa520"/>
     <use xlink:href="#mffd43cbec9" x="120.792702" y="219.216995" style="fill: #daa520; stroke: #daa520"/>
     <use xlink:href="#mffd43cbec9" x="303.738636" y="226.10052" style="fill: #daa520; stroke: #daa520"/>
     <use xlink:href="#mffd43cbec9" x="401.411815" y="200.417098" style="fill: #daa520; stroke: #daa520"/>
     <use xlink:href="#mffd43cbec9" x="408.52518" y="239.414936" style="fill: #daa520; stroke: #daa520"/>
     <use xlink:href="#mffd43cbec9" x="270.675508" y="211.247217" style="fill: #daa520; stroke: #daa520"/>
     <use xlink:href="#mffd43cbec9" x="274.105332" y="228.562015" style="fill: #daa520; stroke: #daa520"/>
     <use xlink:href="#mffd43cbec9" x="370.196326" y="220.484764" style="fill: #daa520; stroke: #daa520"/>
     <use xlink:href="#mffd43cbec9" x="207.988186" y="225.387608" style="fill: #daa520; stroke: #daa520"/>
     <use xlink:href="#mffd43cbec9" x="374.468693" y="212.039579" style="fill: #daa520; stroke: #daa520"/>
     <use xlink:href="#mffd43cbec9" x="396.163888" y="237.086009" style="fill: #daa520; stroke: #daa520"/>
     <use xlink:href="#mffd43cbec9" x="340.448948" y="208.783803" style="fill: #daa520; stroke: #daa520"/>
     <use xlink:href="#mffd43cbec9" x="346.231282" y="215.417435" style="fill: #daa520; stroke: #daa520"/>
     <use xlink:href="#mffd43cbec9" x="395.777432" y="198.425412" style="fill: #daa520; stroke: #daa520"/>
     <use xlink:href="#mffd43cbec9" x="225.387878" y="242.367151" style="fill: #daa520; stroke: #daa520"/>
     <use xlink:href="#mffd43cbec9" x="339.854017" y="228.954384" style="fill: #daa520; stroke: #daa520"/>
     <use xlink:href="#mffd43cbec9" x="314.005197" y="227.620003" style="fill: #daa520; stroke: #daa520"/>
     <use xlink:href="#mffd43cbec9" x="204.238956" y="243.221502" style="fill: #daa520; stroke: #daa520"/>
     <use xlink:href="#mffd43cbec9" x="369.189463" y="245.884955" style="fill: #daa520; stroke: #daa520"/>
     <use xlink:href="#mffd43cbec9" x="77.955581" y="197.551361" style="fill: #daa520; stroke: #daa520"/>
     <use xlink:href="#mffd43cbec9" x="359.43056" y="230.765468" style="fill: #daa520; stroke: #daa520"/>
     <use xlink:href="#mffd43cbec9" x="342.503319" y="210.736344" style="fill: #daa520; stroke: #daa520"/>
     <use xlink:href="#mffd43cbec9" x="380.454185" y="230.606322" style="fill: #daa520; stroke: #daa520"/>
    </g>
   </g>
   <g id="matplotlib.axis_5">
    <g id="xtick_1">
     <g id="line2d_10">
      <defs>
       <path id="m38c37b44ae" d="M 0 0 
L 0 3.5 
" style="stroke: #696969; stroke-width: 0.8"/>
      </defs>
      <g>
       <use xlink:href="#m38c37b44ae" x="70.462045" y="276.68" style="fill: #696969; stroke: #696969; stroke-width: 0.8"/>
      </g>
     </g>
     <g id="text_4">
      <!-- −1.0 -->
      <g style="fill: #696969" transform="translate(51.035795 295.8375) scale(0.16 -0.16)">
       <defs>
        <path id="DejaVuSans-31" d="M 794 531 
L 1825 531 
L 1825 4091 
L 703 3866 
L 703 4441 
L 1819 4666 
L 2450 4666 
L 2450 531 
L 3481 531 
L 3481 0 
L 794 0 
L 794 531 
z
" transform="scale(0.015625)"/>
        <path id="DejaVuSans-2e" d="M 684 794 
L 1344 794 
L 1344 0 
L 684 0 
L 684 794 
z
" transform="scale(0.015625)"/>
       </defs>
       <use xlink:href="#DejaVuSans-2212"/>
       <use xlink:href="#DejaVuSans-31" x="83.789062"/>
       <use xlink:href="#DejaVuSans-2e" x="147.412109"/>
       <use xlink:href="#DejaVuSans-30" x="179.199219"/>
      </g>
     </g>
    </g>
    <g id="xtick_2">
     <g id="line2d_11">
      <g>
       <use xlink:href="#m38c37b44ae" x="157.509773" y="276.68" style="fill: #696969; stroke: #696969; stroke-width: 0.8"/>
      </g>
     </g>
     <g id="text_5">
      <!-- −0.5 -->
      <g style="fill: #696969" transform="translate(138.083523 295.8375) scale(0.16 -0.16)">
       <use xlink:href="#DejaVuSans-2212"/>
       <use xlink:href="#DejaVuSans-30" x="83.789062"/>
       <use xlink:href="#DejaVuSans-2e" x="147.412109"/>
       <use xlink:href="#DejaVuSans-35" x="179.199219"/>
      </g>
     </g>
    </g>
    <g id="xtick_3">
     <g id="line2d_12">
      <g>
       <use xlink:href="#m38c37b44ae" x="244.5575" y="276.68" style="fill: #696969; stroke: #696969; stroke-width: 0.8"/>
      </g>
     </g>
     <g id="text_6">
      <!-- 0.0 -->
      <g style="fill: #696969" transform="translate(231.835 295.8375) scale(0.16 -0.16)">
       <use xlink:href="#DejaVuSans-30"/>
       <use xlink:href="#DejaVuSans-2e" x="63.623047"/>
       <use xlink:href="#DejaVuSans-30" x="95.410156"/>
      </g>
     </g>
    </g>
    <g id="xtick_4">
     <g id="line2d_13">
      <g>
       <use xlink:href="#m38c37b44ae" x="331.605227" y="276.68" style="fill: #696969; stroke: #696969; stroke-width: 0.8"/>
      </g>
     </g>
     <g id="text_7">
      <!-- 0.5 -->
      <g style="fill: #696969" transform="translate(318.882727 295.8375) scale(0.16 -0.16)">
       <use xlink:href="#DejaVuSans-30"/>
       <use xlink:href="#DejaVuSans-2e" x="63.623047"/>
       <use xlink:href="#DejaVuSans-35" x="95.410156"/>
      </g>
     </g>
    </g>
    <g id="xtick_5">
     <g id="line2d_14">
      <g>
       <use xlink:href="#m38c37b44ae" x="418.652955" y="276.68" style="fill: #696969; stroke: #696969; stroke-width: 0.8"/>
      </g>
     </g>
     <g id="text_8">
      <!-- 1.0 -->
      <g style="fill: #696969" transform="translate(405.930455 295.8375) scale(0.16 -0.16)">
       <use xlink:href="#DejaVuSans-31"/>
       <use xlink:href="#DejaVuSans-2e" x="63.623047"/>
       <use xlink:href="#DejaVuSans-30" x="95.410156"/>
      </g>
     </g>
    </g>
    <g id="text_9">
     <!-- $X$ -->
     <g transform="translate(239.0375 315.3225) scale(0.16 -0.16)">
      <defs>
       <path id="DejaVuSans-Oblique-58" d="M 878 4666 
L 1516 4666 
L 2316 2981 
L 3763 4666 
L 4500 4666 
L 2578 2438 
L 3738 0 
L 3103 0 
L 2163 1966 
L 459 0 
L -275 0 
L 1906 2509 
L 878 4666 
z
" transform="scale(0.015625)"/>
      </defs>
      <use xlink:href="#DejaVuSans-Oblique-58" transform="translate(0 0.09375)"/>
     </g>
    </g>
   </g>
   <g id="matplotlib.axis_6">
    <g id="ytick_4">
     <g id="line2d_15">
      <g>
       <use xlink:href="#m4174e6abe2" x="53.0525" y="265.531828" style="fill: #696969; stroke: #696969; stroke-width: 0.8"/>
      </g>
     </g>
     <g id="text_10">
      <!-- −2.5 -->
      <g style="fill: #696969" transform="translate(7.2 271.610578) scale(0.16 -0.16)">
       <defs>
        <path id="DejaVuSans-32" d="M 1228 531 
L 3431 531 
L 3431 0 
L 469 0 
L 469 531 
Q 828 903 1448 1529 
Q 2069 2156 2228 2338 
Q 2531 2678 2651 2914 
Q 2772 3150 2772 3378 
Q 2772 3750 2511 3984 
Q 2250 4219 1831 4219 
Q 1534 4219 1204 4116 
Q 875 4013 500 3803 
L 500 4441 
Q 881 4594 1212 4672 
Q 1544 4750 1819 4750 
Q 2544 4750 2975 4387 
Q 3406 4025 3406 3419 
Q 3406 3131 3298 2873 
Q 3191 2616 2906 2266 
Q 2828 2175 2409 1742 
Q 1991 1309 1228 531 
z
" transform="scale(0.015625)"/>
       </defs>
       <use xlink:href="#DejaVuSans-2212"/>
       <use xlink:href="#DejaVuSans-32" x="83.789062"/>
       <use xlink:href="#DejaVuSans-2e" x="147.412109"/>
       <use xlink:href="#DejaVuSans-35" x="179.199219"/>
      </g>
     </g>
    </g>
    <g id="ytick_5">
     <g id="line2d_16">
      <g>
       <use xlink:href="#m4174e6abe2" x="53.0525" y="222.544887" style="fill: #696969; stroke: #696969; stroke-width: 0.8"/>
      </g>
     </g>
     <g id="text_11">
      <!-- 0.0 -->
      <g style="fill: #696969" transform="translate(20.6075 228.623637) scale(0.16 -0.16)">
       <use xlink:href="#DejaVuSans-30"/>
       <use xlink:href="#DejaVuSans-2e" x="63.623047"/>
       <use xlink:href="#DejaVuSans-30" x="95.410156"/>
      </g>
     </g>
    </g>
   </g>
   <g id="line2d_17">
    <path d="M 70.462045 221.39069 
L 77.425864 221.815521 
L 84.389682 221.99124 
L 91.3535 221.960217 
L 98.317318 221.773268 
L 105.281136 221.485766 
L 112.244955 221.153601 
L 119.208773 220.829293 
L 126.172591 220.558498 
L 133.136409 220.377123 
L 140.100227 220.309333 
L 147.064045 220.366512 
L 154.027864 220.547108 
L 160.991682 220.837549 
L 167.9555 221.213848 
L 174.919318 221.643994 
L 181.883136 222.090751 
L 188.846955 222.514868 
L 195.810773 222.878472 
L 202.774591 223.148517 
L 209.738409 223.300246 
L 216.702227 223.320359 
L 223.666045 223.209748 
L 230.629864 222.985217 
L 237.593682 222.679548 
L 244.5575 222.339099 
L 251.521318 222.018154 
L 258.485136 221.769871 
L 265.448955 221.635188 
L 272.412773 221.632654 
L 279.376591 221.753367 
L 286.340409 221.96419 
L 293.304227 222.218892 
L 300.268045 222.472637 
L 307.231864 222.693959 
L 314.195682 222.870011 
L 321.1595 223.004527 
L 328.123318 223.110816 
L 335.087136 223.2031 
L 342.050955 223.289302 
L 349.014773 223.367395 
L 355.978591 223.425643 
L 362.942409 223.44556 
L 369.906227 223.405621 
L 376.870045 223.284176 
L 383.833864 223.060976 
L 390.797682 222.717523 
L 397.7615 222.237003 
L 404.725318 221.604215 
L 411.689136 220.805759 
L 418.652955 219.830443 
" clip-path="url(#pb42779ac17)" style="fill: none; stroke: #696969; stroke-width: 2; stroke-linecap: square"/>
   </g>
   <g id="line2d_18">
    <path d="M 70.462045 226.718407 
L 77.425864 226.603859 
L 84.389682 226.489312 
L 91.3535 226.374764 
L 98.317318 226.260217 
L 105.281136 226.145669 
L 112.244955 226.031122 
L 119.208773 225.916575 
L 126.172591 225.802027 
L 133.136409 225.68748 
L 140.100227 225.572932 
L 147.064045 225.458385 
L 154.027864 225.343837 
L 160.991682 225.22929 
L 167.9555 225.114742 
L 174.919318 225.000195 
L 181.883136 224.885647 
L 188.846955 224.7711 
L 195.810773 224.656552 
L 202.774591 224.542005 
L 209.738409 224.427457 
L 216.702227 224.31291 
L 223.666045 224.198363 
L 230.629864 224.083815 
L 237.593682 223.969268 
L 244.5575 223.85472 
L 251.521318 223.740173 
L 258.485136 223.625625 
L 265.448955 223.511078 
L 272.412773 223.39653 
L 279.376591 223.281983 
L 286.340409 223.167435 
L 293.304227 223.052888 
L 300.268045 222.93834 
L 307.231864 222.823793 
L 314.195682 222.709246 
L 321.1595 222.594698 
L 328.123318 222.480151 
L 335.087136 222.365603 
L 342.050955 222.251056 
L 349.014773 222.136508 
L 355.978591 222.021961 
L 362.942409 221.907413 
L 369.906227 221.792866 
L 376.870045 221.678318 
L 383.833864 221.563771 
L 390.797682 221.449223 
L 397.7615 221.334676 
L 404.725318 221.220129 
L 411.689136 221.105581 
L 418.652955 220.991034 
" clip-path="url(#pb42779ac17)" style="fill: none; stroke-dasharray: 7.4,3.2; stroke-dashoffset: 0; stroke: #79ad41; stroke-width: 2"/>
   </g>
   <g id="patch_9">
    <path d="M 53.0525 276.68 
L 53.0525 184.713248 
" style="fill: none; stroke: #000000; stroke-width: 0.8; stroke-linejoin: miter; stroke-linecap: square"/>
   </g>
   <g id="patch_10">
    <path d="M 436.0625 276.68 
L 436.0625 184.713248 
" style="fill: none; stroke: #000000; stroke-width: 0.8; stroke-linejoin: miter; stroke-linecap: square"/>
   </g>
   <g id="patch_11">
    <path d="M 53.0525 276.68 
L 436.0625 276.68 
" style="fill: none; stroke: #000000; stroke-width: 0.8; stroke-linejoin: miter; stroke-linecap: square"/>
   </g>
   <g id="patch_12">
    <path d="M 53.0525 184.713248 
L 436.0625 184.713248 
" style="fill: none; stroke: #000000; stroke-width: 0.8; stroke-linejoin: miter; stroke-linecap: square"/>
   </g>
  </g>
 </g>
 <defs>
  <clipPath id="pd0efd22300">
   <rect x="53.0525" y="7.2" width="383.01" height="45.983376"/>
  </clipPath>
  <clipPath id="peb0e0e3304">
   <rect x="53.0525" y="72.964936" width="383.01" height="91.966752"/>
  </clipPath>
  <clipPath id="pb42779ac17">
   <rect x="53.0525" y="184.713248" width="383.01" height="91.966752"/>
  </clipPath>
 </defs>
</svg>
