<?xml version="1.0" encoding="utf-8" standalone="no"?>
<!DOCTYPE svg PUBLIC "-//W3C//DTD SVG 1.1//EN"
  "http://www.w3.org/Graphics/SVG/1.1/DTD/svg11.dtd">
<svg xmlns:xlink="http://www.w3.org/1999/xlink" width="443.2625pt" height="325.85pt" viewBox="0 0 443.2625 325.85" xmlns="http://www.w3.org/2000/svg" version="1.1">
 <metadata>
  <rdf:RDF xmlns:dc="http://purl.org/dc/elements/1.1/" xmlns:cc="http://creativecommons.org/ns#" xmlns:rdf="http://www.w3.org/1999/02/22-rdf-syntax-ns#">
   <cc:Work>
    <dc:type rdf:resource="http://purl.org/dc/dcmitype/StillImage"/>
    <dc:date>2024-01-28T20:57:12.196654</dc:date>
    <dc:format>image/svg+xml</dc:format>
    <dc:creator>
     <cc:Agent>
      <dc:title>Matplotlib v3.7.2, https://matplotlib.org/</dc:title>
     </cc:Agent>
    </dc:creator>
   </cc:Work>
  </rdf:RDF>
 </metadata>
 <defs>
  <style type="text/css">*{stroke-linejoin: round; stroke-linecap: butt}</style>
 </defs>
 <g id="figure_1">
  <g id="patch_1">
   <path d="M 0 325.85 
L 443.2625 325.85 
L 443.2625 0 
L 0 0 
z
" style="fill: #ffffff"/>
  </g>
  <g id="axes_1">
   <g id="patch_2">
    <path d="M 53.0525 54.696 
L 436.0625 54.696 
L 436.0625 7.2 
L 53.0525 7.2 
z
" style="fill: #ffffff"/>
   </g>
   <g id="PolyCollection_1">
    <defs>
     <path id="m5514c93d0e" d="M 70.462045 -273.312909 
L 70.462045 -294.291923 
L 77.425864 -293.65071 
L 84.389682 -292.977166 
L 91.3535 -292.278565 
L 98.317318 -291.56245 
L 105.281136 -290.836403 
L 112.244955 -290.107938 
L 119.208773 -289.38433 
L 126.172591 -288.67243 
L 133.136409 -287.978555 
L 140.100227 -287.308356 
L 147.064045 -286.666751 
L 154.027864 -286.057879 
L 160.991682 -285.485091 
L 167.9555 -284.950984 
L 174.919318 -284.457443 
L 181.883136 -284.005729 
L 188.846955 -283.59656 
L 195.810773 -283.230212 
L 202.774591 -282.906612 
L 209.738409 -282.625438 
L 216.702227 -282.386208 
L 223.666045 -282.188345 
L 230.629864 -282.031261 
L 237.593682 -281.914403 
L 244.5575 -281.837289 
L 251.521318 -281.79956 
L 258.485136 -281.800974 
L 265.448955 -281.841436 
L 272.412773 -281.920978 
L 279.376591 -282.039757 
L 286.340409 -282.198034 
L 293.304227 -282.396136 
L 300.268045 -282.634416 
L 307.231864 -282.913208 
L 314.195682 -283.232771 
L 321.1595 -283.593225 
L 328.123318 -283.994503 
L 335.087136 -284.436279 
L 342.050955 -284.917913 
L 349.014773 -285.438433 
L 355.978591 -285.996485 
L 362.942409 -286.590327 
L 369.906227 -287.217869 
L 376.870045 -287.876696 
L 383.833864 -288.564145 
L 390.797682 -289.277417 
L 397.7615 -290.013658 
L 404.725318 -290.770128 
L 411.689136 -291.544313 
L 418.652955 -292.33407 
L 418.652955 -273.312909 
L 418.652955 -273.312909 
L 411.689136 -273.312909 
L 404.725318 -273.312909 
L 397.7615 -273.312909 
L 390.797682 -273.312909 
L 383.833864 -273.312909 
L 376.870045 -273.312909 
L 369.906227 -273.312909 
L 362.942409 -273.312909 
L 355.978591 -273.312909 
L 349.014773 -273.312909 
L 342.050955 -273.312909 
L 335.087136 -273.312909 
L 328.123318 -273.312909 
L 321.1595 -273.312909 
L 314.195682 -273.312909 
L 307.231864 -273.312909 
L 300.268045 -273.312909 
L 293.304227 -273.312909 
L 286.340409 -273.312909 
L 279.376591 -273.312909 
L 272.412773 -273.312909 
L 265.448955 -273.312909 
L 258.485136 -273.312909 
L 251.521318 -273.312909 
L 244.5575 -273.312909 
L 237.593682 -273.312909 
L 230.629864 -273.312909 
L 223.666045 -273.312909 
L 216.702227 -273.312909 
L 209.738409 -273.312909 
L 202.774591 -273.312909 
L 195.810773 -273.312909 
L 188.846955 -273.312909 
L 181.883136 -273.312909 
L 174.919318 -273.312909 
L 167.9555 -273.312909 
L 160.991682 -273.312909 
L 154.027864 -273.312909 
L 147.064045 -273.312909 
L 140.100227 -273.312909 
L 133.136409 -273.312909 
L 126.172591 -273.312909 
L 119.208773 -273.312909 
L 112.244955 -273.312909 
L 105.281136 -273.312909 
L 98.317318 -273.312909 
L 91.3535 -273.312909 
L 84.389682 -273.312909 
L 77.425864 -273.312909 
L 70.462045 -273.312909 
z
" style="stroke: #dc143c; stroke-opacity: 0.2"/>
    </defs>
    <g clip-path="url(#p5d1ade328f)">
     <use xlink:href="#m5514c93d0e" x="0" y="325.85" style="fill: #dc143c; fill-opacity: 0.2; stroke: #dc143c; stroke-opacity: 0.2"/>
    </g>
   </g>
   <g id="PolyCollection_2">
    <defs>
     <path id="m972039585b" d="M 70.462045 -273.312909 
L 70.462045 -303.998728 
L 77.425864 -304.639941 
L 84.389682 -305.313485 
L 91.3535 -306.012085 
L 98.317318 -306.728201 
L 105.281136 -307.454247 
L 112.244955 -308.182712 
L 119.208773 -308.90632 
L 126.172591 -309.61822 
L 133.136409 -310.312096 
L 140.100227 -310.982295 
L 147.064045 -311.6239 
L 154.027864 -312.232771 
L 160.991682 -312.80556 
L 167.9555 -313.339666 
L 174.919318 -313.833207 
L 181.883136 -314.284922 
L 188.846955 -314.694091 
L 195.810773 -315.060439 
L 202.774591 -315.384039 
L 209.738409 -315.665213 
L 216.702227 -315.904443 
L 223.666045 -316.102306 
L 230.629864 -316.259389 
L 237.593682 -316.376247 
L 244.5575 -316.453361 
L 251.521318 -316.491091 
L 258.485136 -316.489677 
L 265.448955 -316.449214 
L 272.412773 -316.369673 
L 279.376591 -316.250893 
L 286.340409 -316.092616 
L 293.304227 -315.894515 
L 300.268045 -315.656234 
L 307.231864 -315.377443 
L 314.195682 -315.05788 
L 321.1595 -314.697426 
L 328.123318 -314.296147 
L 335.087136 -313.854372 
L 342.050955 -313.372737 
L 349.014773 -312.852217 
L 355.978591 -312.294165 
L 362.942409 -311.700323 
L 369.906227 -311.072782 
L 376.870045 -310.413954 
L 383.833864 -309.726505 
L 390.797682 -309.013233 
L 397.7615 -308.276993 
L 404.725318 -307.520522 
L 411.689136 -306.746337 
L 418.652955 -305.95658 
L 418.652955 -273.312909 
L 418.652955 -273.312909 
L 411.689136 -273.312909 
L 404.725318 -273.312909 
L 397.7615 -273.312909 
L 390.797682 -273.312909 
L 383.833864 -273.312909 
L 376.870045 -273.312909 
L 369.906227 -273.312909 
L 362.942409 -273.312909 
L 355.978591 -273.312909 
L 349.014773 -273.312909 
L 342.050955 -273.312909 
L 335.087136 -273.312909 
L 328.123318 -273.312909 
L 321.1595 -273.312909 
L 314.195682 -273.312909 
L 307.231864 -273.312909 
L 300.268045 -273.312909 
L 293.304227 -273.312909 
L 286.340409 -273.312909 
L 279.376591 -273.312909 
L 272.412773 -273.312909 
L 265.448955 -273.312909 
L 258.485136 -273.312909 
L 251.521318 -273.312909 
L 244.5575 -273.312909 
L 237.593682 -273.312909 
L 230.629864 -273.312909 
L 223.666045 -273.312909 
L 216.702227 -273.312909 
L 209.738409 -273.312909 
L 202.774591 -273.312909 
L 195.810773 -273.312909 
L 188.846955 -273.312909 
L 181.883136 -273.312909 
L 174.919318 -273.312909 
L 167.9555 -273.312909 
L 160.991682 -273.312909 
L 154.027864 -273.312909 
L 147.064045 -273.312909 
L 140.100227 -273.312909 
L 133.136409 -273.312909 
L 126.172591 -273.312909 
L 119.208773 -273.312909 
L 112.244955 -273.312909 
L 105.281136 -273.312909 
L 98.317318 -273.312909 
L 91.3535 -273.312909 
L 84.389682 -273.312909 
L 77.425864 -273.312909 
L 70.462045 -273.312909 
z
" style="stroke: #000080; stroke-opacity: 0.2"/>
    </defs>
    <g clip-path="url(#p5d1ade328f)">
     <use xlink:href="#m972039585b" x="0" y="325.85" style="fill: #000080; fill-opacity: 0.2; stroke: #000080; stroke-opacity: 0.2"/>
    </g>
   </g>
   <g id="matplotlib.axis_1"/>
   <g id="matplotlib.axis_2"/>
   <g id="line2d_1">
    <path d="M 70.462045 31.558077 
L 77.425864 32.19929 
L 84.389682 32.872834 
L 91.3535 33.571435 
L 98.317318 34.28755 
L 105.281136 35.013597 
L 112.244955 35.742062 
L 119.208773 36.46567 
L 126.172591 37.17757 
L 133.136409 37.871445 
L 140.100227 38.541644 
L 147.064045 39.183249 
L 154.027864 39.792121 
L 160.991682 40.364909 
L 167.9555 40.899016 
L 174.919318 41.392557 
L 181.883136 41.844271 
L 188.846955 42.25344 
L 195.810773 42.619788 
L 202.774591 42.943388 
L 209.738409 43.224562 
L 216.702227 43.463792 
L 223.666045 43.661655 
L 230.629864 43.818739 
L 237.593682 43.935597 
L 244.5575 44.012711 
L 251.521318 44.05044 
L 258.485136 44.049026 
L 265.448955 44.008564 
L 272.412773 43.929022 
L 279.376591 43.810243 
L 286.340409 43.651966 
L 293.304227 43.453864 
L 300.268045 43.215584 
L 307.231864 42.936792 
L 314.195682 42.617229 
L 321.1595 42.256775 
L 328.123318 41.855497 
L 335.087136 41.413721 
L 342.050955 40.932087 
L 349.014773 40.411567 
L 355.978591 39.853515 
L 362.942409 39.259673 
L 369.906227 38.632131 
L 376.870045 37.973304 
L 383.833864 37.285855 
L 390.797682 36.572583 
L 397.7615 35.836342 
L 404.725318 35.079872 
L 411.689136 34.305687 
L 418.652955 33.51593 
" clip-path="url(#p5d1ade328f)" style="fill: none; stroke: #dc143c; stroke-width: 1.5; stroke-linecap: square"/>
   </g>
   <g id="line2d_2">
    <path d="M 70.462045 21.851272 
L 77.425864 21.210059 
L 84.389682 20.536515 
L 91.3535 19.837915 
L 98.317318 19.121799 
L 105.281136 18.395753 
L 112.244955 17.667288 
L 119.208773 16.94368 
L 126.172591 16.23178 
L 133.136409 15.537904 
L 140.100227 14.867705 
L 147.064045 14.2261 
L 154.027864 13.617229 
L 160.991682 13.04444 
L 167.9555 12.510334 
L 174.919318 12.016793 
L 181.883136 11.565078 
L 188.846955 11.155909 
L 195.810773 10.789561 
L 202.774591 10.465961 
L 209.738409 10.184787 
L 216.702227 9.945557 
L 223.666045 9.747694 
L 230.629864 9.590611 
L 237.593682 9.473753 
L 244.5575 9.396639 
L 251.521318 9.358909 
L 258.485136 9.360323 
L 265.448955 9.400786 
L 272.412773 9.480327 
L 279.376591 9.599107 
L 286.340409 9.757384 
L 293.304227 9.955485 
L 300.268045 10.193766 
L 307.231864 10.472557 
L 314.195682 10.79212 
L 321.1595 11.152574 
L 328.123318 11.553853 
L 335.087136 11.995628 
L 342.050955 12.477263 
L 349.014773 12.997783 
L 355.978591 13.555835 
L 362.942409 14.149677 
L 369.906227 14.777218 
L 376.870045 15.436046 
L 383.833864 16.123495 
L 390.797682 16.836767 
L 397.7615 17.573007 
L 404.725318 18.329478 
L 411.689136 19.103663 
L 418.652955 19.89342 
" clip-path="url(#p5d1ade328f)" style="fill: none; stroke: #000080; stroke-width: 1.5; stroke-linecap: square"/>
   </g>
  </g>
  <g id="axes_2">
   <g id="patch_3">
    <path d="M 53.0525 165.688 
L 436.0625 165.688 
L 436.0625 70.696 
L 53.0525 70.696 
z
" style="fill: #ffffff"/>
   </g>
   <g id="PathCollection_1">
    <defs>
     <path id="mdadb6dbcfe" d="M 0 0.866025 
C 0.229673 0.866025 0.449969 0.774776 0.612372 0.612372 
C 0.774776 0.449969 0.866025 0.229673 0.866025 0 
C 0.866025 -0.229673 0.774776 -0.449969 0.612372 -0.612372 
C 0.449969 -0.774776 0.229673 -0.866025 0 -0.866025 
C -0.229673 -0.866025 -0.449969 -0.774776 -0.612372 -0.612372 
C -0.774776 -0.449969 -0.866025 -0.229673 -0.866025 0 
C -0.866025 0.229673 -0.774776 0.449969 -0.612372 0.612372 
C -0.449969 0.774776 -0.229673 0.866025 0 0.866025 
z
" style="stroke: #daa520"/>
    </defs>
    <g clip-path="url(#p4b2f4da837)">
     <use xlink:href="#mdadb6dbcfe" x="405.172592" y="115.51064" style="fill: #daa520; stroke: #daa520"/>
     <use xlink:href="#mdadb6dbcfe" x="201.018932" y="108.148597" style="fill: #daa520; stroke: #daa520"/>
     <use xlink:href="#mdadb6dbcfe" x="168.540535" y="105.468817" style="fill: #daa520; stroke: #daa520"/>
     <use xlink:href="#mdadb6dbcfe" x="375.965351" y="139.163001" style="fill: #daa520; stroke: #daa520"/>
     <use xlink:href="#mdadb6dbcfe" x="87.521933" y="96.463498" style="fill: #daa520; stroke: #daa520"/>
     <use xlink:href="#mdadb6dbcfe" x="80.717473" y="95.831525" style="fill: #daa520; stroke: #daa520"/>
     <use xlink:href="#mdadb6dbcfe" x="385.370854" y="129.316628" style="fill: #daa520; stroke: #daa520"/>
     <use xlink:href="#mdadb6dbcfe" x="316.888553" y="117.459812" style="fill: #daa520; stroke: #daa520"/>
     <use xlink:href="#mdadb6dbcfe" x="367.452443" y="135.414784" style="fill: #daa520; stroke: #daa520"/>
     <use xlink:href="#mdadb6dbcfe" x="319.545308" y="142.43951" style="fill: #daa520; stroke: #daa520"/>
     <use xlink:href="#mdadb6dbcfe" x="76.22204" y="78.983197" style="fill: #daa520; stroke: #daa520"/>
     <use xlink:href="#mdadb6dbcfe" x="359.045654" y="103.26874" style="fill: #daa520; stroke: #daa520"/>
     <use xlink:href="#mdadb6dbcfe" x="210.273049" y="108.494079" style="fill: #daa520; stroke: #daa520"/>
     <use xlink:href="#mdadb6dbcfe" x="363.583611" y="107.315422" style="fill: #daa520; stroke: #daa520"/>
     <use xlink:href="#mdadb6dbcfe" x="393.043825" y="120.771012" style="fill: #daa520; stroke: #daa520"/>
     <use xlink:href="#mdadb6dbcfe" x="302.279664" y="100.811074" style="fill: #daa520; stroke: #daa520"/>
     <use xlink:href="#mdadb6dbcfe" x="223.397412" y="121.472649" style="fill: #daa520; stroke: #daa520"/>
     <use xlink:href="#mdadb6dbcfe" x="283.364214" y="95.309666" style="fill: #daa520; stroke: #daa520"/>
     <use xlink:href="#mdadb6dbcfe" x="78.482187" y="75.765233" style="fill: #daa520; stroke: #daa520"/>
     <use xlink:href="#mdadb6dbcfe" x="162.348335" y="110.902001" style="fill: #daa520; stroke: #daa520"/>
     <use xlink:href="#mdadb6dbcfe" x="144.762362" y="152.351737" style="fill: #daa520; stroke: #daa520"/>
     <use xlink:href="#mdadb6dbcfe" x="327.309204" y="118.844842" style="fill: #daa520; stroke: #daa520"/>
     <use xlink:href="#mdadb6dbcfe" x="402.915549" y="112.597697" style="fill: #daa520; stroke: #daa520"/>
     <use xlink:href="#mdadb6dbcfe" x="408.720803" y="139.510777" style="fill: #daa520; stroke: #daa520"/>
     <use xlink:href="#mdadb6dbcfe" x="402.202944" y="116.01313" style="fill: #daa520; stroke: #daa520"/>
     <use xlink:href="#mdadb6dbcfe" x="161.938889" y="139.452386" style="fill: #daa520; stroke: #daa520"/>
     <use xlink:href="#mdadb6dbcfe" x="112.785863" y="129.096667" style="fill: #daa520; stroke: #daa520"/>
     <use xlink:href="#mdadb6dbcfe" x="367.747409" y="140.21873" style="fill: #daa520; stroke: #daa520"/>
     <use xlink:href="#mdadb6dbcfe" x="407.741004" y="113.443388" style="fill: #daa520; stroke: #daa520"/>
     <use xlink:href="#mdadb6dbcfe" x="413.9004" y="109.699781" style="fill: #daa520; stroke: #daa520"/>
     <use xlink:href="#mdadb6dbcfe" x="71.848481" y="75.013818" style="fill: #daa520; stroke: #daa520"/>
     <use xlink:href="#mdadb6dbcfe" x="186.899547" y="108.007241" style="fill: #daa520; stroke: #daa520"/>
     <use xlink:href="#mdadb6dbcfe" x="273.54925" y="159.216969" style="fill: #daa520; stroke: #daa520"/>
     <use xlink:href="#mdadb6dbcfe" x="327.321596" y="117.787737" style="fill: #daa520; stroke: #daa520"/>
     <use xlink:href="#mdadb6dbcfe" x="405.205515" y="112.223922" style="fill: #daa520; stroke: #daa520"/>
     <use xlink:href="#mdadb6dbcfe" x="391.036543" y="126.777489" style="fill: #daa520; stroke: #daa520"/>
     <use xlink:href="#mdadb6dbcfe" x="386.194338" y="111.787733" style="fill: #daa520; stroke: #daa520"/>
     <use xlink:href="#mdadb6dbcfe" x="122.866603" y="98.619252" style="fill: #daa520; stroke: #daa520"/>
     <use xlink:href="#mdadb6dbcfe" x="317.50567" y="122.480871" style="fill: #daa520; stroke: #daa520"/>
     <use xlink:href="#mdadb6dbcfe" x="343.950126" y="124.255908" style="fill: #daa520; stroke: #daa520"/>
     <use xlink:href="#mdadb6dbcfe" x="78.716471" y="80.945725" style="fill: #daa520; stroke: #daa520"/>
     <use xlink:href="#mdadb6dbcfe" x="389.361251" y="118.789452" style="fill: #daa520; stroke: #daa520"/>
     <use xlink:href="#mdadb6dbcfe" x="196.539407" y="135.609059" style="fill: #daa520; stroke: #daa520"/>
     <use xlink:href="#mdadb6dbcfe" x="282.487999" y="134.74053" style="fill: #daa520; stroke: #daa520"/>
     <use xlink:href="#mdadb6dbcfe" x="128.628155" y="103.123128" style="fill: #daa520; stroke: #daa520"/>
     <use xlink:href="#mdadb6dbcfe" x="143.899268" y="158.936069" style="fill: #daa520; stroke: #daa520"/>
     <use xlink:href="#mdadb6dbcfe" x="181.0091" y="109.467803" style="fill: #daa520; stroke: #daa520"/>
     <use xlink:href="#mdadb6dbcfe" x="312.325102" y="97.063562" style="fill: #daa520; stroke: #daa520"/>
     <use xlink:href="#mdadb6dbcfe" x="321.945888" y="115.924601" style="fill: #daa520; stroke: #daa520"/>
     <use xlink:href="#mdadb6dbcfe" x="130.438875" y="134.510254" style="fill: #daa520; stroke: #daa520"/>
     <use xlink:href="#mdadb6dbcfe" x="94.037829" y="94.117006" style="fill: #daa520; stroke: #daa520"/>
     <use xlink:href="#mdadb6dbcfe" x="301.061983" y="149.330412" style="fill: #daa520; stroke: #daa520"/>
     <use xlink:href="#mdadb6dbcfe" x="160.433624" y="139.097128" style="fill: #daa520; stroke: #daa520"/>
     <use xlink:href="#mdadb6dbcfe" x="379.449679" y="133.129932" style="fill: #daa520; stroke: #daa520"/>
     <use xlink:href="#mdadb6dbcfe" x="83.454292" y="93.660023" style="fill: #daa520; stroke: #daa520"/>
     <use xlink:href="#mdadb6dbcfe" x="364.352295" y="115.074521" style="fill: #daa520; stroke: #daa520"/>
     <use xlink:href="#mdadb6dbcfe" x="417.712419" y="147.148431" style="fill: #daa520; stroke: #daa520"/>
     <use xlink:href="#mdadb6dbcfe" x="186.675965" y="138.147506" style="fill: #daa520; stroke: #daa520"/>
     <use xlink:href="#mdadb6dbcfe" x="110.296604" y="129.71173" style="fill: #daa520; stroke: #daa520"/>
     <use xlink:href="#mdadb6dbcfe" x="169.997979" y="149.32972" style="fill: #daa520; stroke: #daa520"/>
     <use xlink:href="#mdadb6dbcfe" x="180.033142" y="127.115481" style="fill: #daa520; stroke: #daa520"/>
     <use xlink:href="#mdadb6dbcfe" x="198.501274" y="107.170656" style="fill: #daa520; stroke: #daa520"/>
     <use xlink:href="#mdadb6dbcfe" x="92.858212" y="91.298915" style="fill: #daa520; stroke: #daa520"/>
     <use xlink:href="#mdadb6dbcfe" x="387.21469" y="121.735709" style="fill: #daa520; stroke: #daa520"/>
     <use xlink:href="#mdadb6dbcfe" x="111.316159" y="146.210544" style="fill: #daa520; stroke: #daa520"/>
     <use xlink:href="#mdadb6dbcfe" x="416.400342" y="129.344532" style="fill: #daa520; stroke: #daa520"/>
     <use xlink:href="#mdadb6dbcfe" x="371.862832" y="118.801829" style="fill: #daa520; stroke: #daa520"/>
     <use xlink:href="#mdadb6dbcfe" x="346.2516" y="144.083758" style="fill: #daa520; stroke: #daa520"/>
     <use xlink:href="#mdadb6dbcfe" x="370.176902" y="142.171207" style="fill: #daa520; stroke: #daa520"/>
     <use xlink:href="#mdadb6dbcfe" x="134.327104" y="159.013627" style="fill: #daa520; stroke: #daa520"/>
     <use xlink:href="#mdadb6dbcfe" x="329.523971" y="104.717199" style="fill: #daa520; stroke: #daa520"/>
     <use xlink:href="#mdadb6dbcfe" x="137.115543" y="161.370182" style="fill: #daa520; stroke: #daa520"/>
     <use xlink:href="#mdadb6dbcfe" x="126.597793" y="150.974848" style="fill: #daa520; stroke: #daa520"/>
     <use xlink:href="#mdadb6dbcfe" x="253.466851" y="110.119173" style="fill: #daa520; stroke: #daa520"/>
     <use xlink:href="#mdadb6dbcfe" x="340.765013" y="109.3534" style="fill: #daa520; stroke: #daa520"/>
     <use xlink:href="#mdadb6dbcfe" x="205.021262" y="136.987211" style="fill: #daa520; stroke: #daa520"/>
     <use xlink:href="#mdadb6dbcfe" x="253.68822" y="155.694723" style="fill: #daa520; stroke: #daa520"/>
     <use xlink:href="#mdadb6dbcfe" x="377.09739" y="110.164014" style="fill: #daa520; stroke: #daa520"/>
     <use xlink:href="#mdadb6dbcfe" x="165.840108" y="133.232967" style="fill: #daa520; stroke: #daa520"/>
     <use xlink:href="#mdadb6dbcfe" x="322.560982" y="151.427602" style="fill: #daa520; stroke: #daa520"/>
     <use xlink:href="#mdadb6dbcfe" x="103.605723" y="112.514162" style="fill: #daa520; stroke: #daa520"/>
     <use xlink:href="#mdadb6dbcfe" x="353.480197" y="147.449924" style="fill: #daa520; stroke: #daa520"/>
     <use xlink:href="#mdadb6dbcfe" x="97.034505" y="114.33049" style="fill: #daa520; stroke: #daa520"/>
     <use xlink:href="#mdadb6dbcfe" x="258.956468" y="137.576772" style="fill: #daa520; stroke: #daa520"/>
     <use xlink:href="#mdadb6dbcfe" x="148.28583" y="123.579654" style="fill: #daa520; stroke: #daa520"/>
     <use xlink:href="#mdadb6dbcfe" x="111.079086" y="119.605563" style="fill: #daa520; stroke: #daa520"/>
     <use xlink:href="#mdadb6dbcfe" x="333.024672" y="136.786425" style="fill: #daa520; stroke: #daa520"/>
     <use xlink:href="#mdadb6dbcfe" x="193.413595" y="136.926198" style="fill: #daa520; stroke: #daa520"/>
     <use xlink:href="#mdadb6dbcfe" x="228.747264" y="103.708051" style="fill: #daa520; stroke: #daa520"/>
     <use xlink:href="#mdadb6dbcfe" x="78.67634" y="92.835643" style="fill: #daa520; stroke: #daa520"/>
     <use xlink:href="#mdadb6dbcfe" x="255.924454" y="104.648966" style="fill: #daa520; stroke: #daa520"/>
     <use xlink:href="#mdadb6dbcfe" x="308.607246" y="99.576024" style="fill: #daa520; stroke: #daa520"/>
     <use xlink:href="#mdadb6dbcfe" x="411.446565" y="121.181325" style="fill: #daa520; stroke: #daa520"/>
     <use xlink:href="#mdadb6dbcfe" x="342.139702" y="127.025593" style="fill: #daa520; stroke: #daa520"/>
     <use xlink:href="#mdadb6dbcfe" x="179.758555" y="141.246172" style="fill: #daa520; stroke: #daa520"/>
    </g>
   </g>
   <g id="matplotlib.axis_3"/>
   <g id="matplotlib.axis_4">
    <g id="ytick_1">
     <g id="line2d_3">
      <defs>
       <path id="mdb27f0ccee" d="M 0 0 
L -3.5 0 
" style="stroke: #696969; stroke-width: 0.8"/>
      </defs>
      <g>
       <use xlink:href="#mdb27f0ccee" x="53.0525" y="128.395668" style="fill: #696969; stroke: #696969; stroke-width: 0.8"/>
      </g>
     </g>
     <g id="text_1">
      <!-- 0 -->
      <g style="fill: #696969" transform="translate(35.8725 134.474418) scale(0.16 -0.16)">
       <defs>
        <path id="DejaVuSans-30" d="M 2034 4250 
Q 1547 4250 1301 3770 
Q 1056 3291 1056 2328 
Q 1056 1369 1301 889 
Q 1547 409 2034 409 
Q 2525 409 2770 889 
Q 3016 1369 3016 2328 
Q 3016 3291 2770 3770 
Q 2525 4250 2034 4250 
z
M 2034 4750 
Q 2819 4750 3233 4129 
Q 3647 3509 3647 2328 
Q 3647 1150 3233 529 
Q 2819 -91 2034 -91 
Q 1250 -91 836 529 
Q 422 1150 422 2328 
Q 422 3509 836 4129 
Q 1250 4750 2034 4750 
z
" transform="scale(0.015625)"/>
       </defs>
       <use xlink:href="#DejaVuSans-30"/>
      </g>
     </g>
    </g>
    <g id="ytick_2">
     <g id="line2d_4">
      <g>
       <use xlink:href="#mdb27f0ccee" x="53.0525" y="82.272988" style="fill: #696969; stroke: #696969; stroke-width: 0.8"/>
      </g>
     </g>
     <g id="text_2">
      <!-- 5 -->
      <g style="fill: #696969" transform="translate(35.8725 88.351738) scale(0.16 -0.16)">
       <defs>
        <path id="DejaVuSans-35" d="M 691 4666 
L 3169 4666 
L 3169 4134 
L 1269 4134 
L 1269 2991 
Q 1406 3038 1543 3061 
Q 1681 3084 1819 3084 
Q 2600 3084 3056 2656 
Q 3513 2228 3513 1497 
Q 3513 744 3044 326 
Q 2575 -91 1722 -91 
Q 1428 -91 1123 -41 
Q 819 9 494 109 
L 494 744 
Q 775 591 1075 516 
Q 1375 441 1709 441 
Q 2250 441 2565 725 
Q 2881 1009 2881 1497 
Q 2881 1984 2565 2268 
Q 2250 2553 1709 2553 
Q 1456 2553 1204 2497 
Q 953 2441 691 2322 
L 691 4666 
z
" transform="scale(0.015625)"/>
       </defs>
       <use xlink:href="#DejaVuSans-35"/>
      </g>
     </g>
    </g>
   </g>
   <g id="line2d_5">
    <path d="M 70.462045 80.749478 
L 77.425864 86.811317 
L 84.389682 94.205195 
L 91.3535 102.150782 
L 98.317318 110.077115 
L 105.281136 117.654166 
L 112.244955 124.673294 
L 119.208773 130.890842 
L 126.172591 135.956707 
L 133.136409 139.475904 
L 140.100227 141.157463 
L 147.064045 140.957554 
L 154.027864 139.14159 
L 160.991682 136.242912 
L 167.9555 132.940231 
L 174.919318 129.894399 
L 181.883136 127.587126 
L 188.846955 126.20441 
L 195.810773 125.605036 
L 202.774591 125.396934 
L 209.738409 125.106408 
L 216.702227 124.381816 
L 223.666045 123.149197 
L 230.629864 121.652152 
L 237.593682 120.357208 
L 244.5575 119.764955 
L 251.521318 120.206845 
L 258.485136 121.710037 
L 265.448955 123.981297 
L 272.412773 126.512269 
L 279.376591 128.762135 
L 286.340409 130.34461 
L 293.304227 131.143588 
L 300.268045 131.308797 
L 307.231864 131.134626 
L 314.195682 130.882561 
L 321.1595 130.641588 
L 328.123318 130.305206 
L 335.087136 129.678184 
L 342.050955 128.644066 
L 349.014773 127.280234 
L 355.978591 125.8376 
L 362.942409 124.59361 
L 369.906227 123.678207 
L 376.870045 122.995071 
L 383.833864 122.295782 
L 390.797682 121.357973 
L 397.7615 120.147101 
L 404.725318 118.853612 
L 411.689136 117.780666 
L 418.652955 117.153455 
" clip-path="url(#p4b2f4da837)" style="fill: none; stroke: #000000; stroke-width: 2; stroke-linecap: square"/>
   </g>
   <g id="line2d_6">
    <path d="M 70.462045 75.90745 
L 77.425864 86.410196 
L 84.389682 95.542809 
L 91.3535 103.411024 
L 98.317318 110.11677 
L 105.281136 115.75817 
L 112.244955 120.429546 
L 119.208773 124.221412 
L 126.172591 127.22048 
L 133.136409 129.509656 
L 140.100227 131.168042 
L 147.064045 132.270934 
L 154.027864 132.889827 
L 160.991682 133.092408 
L 167.9555 132.94256 
L 174.919318 132.500363 
L 181.883136 131.822092 
L 188.846955 130.960217 
L 195.810773 129.963402 
L 202.774591 128.87651 
L 209.738409 127.740596 
L 216.702227 126.592912 
L 223.666045 125.466906 
L 230.629864 124.392221 
L 237.593682 123.394695 
L 244.5575 122.496361 
L 251.521318 121.71545 
L 258.485136 121.066384 
L 265.448955 120.559786 
L 272.412773 120.202469 
L 279.376591 119.997446 
L 286.340409 119.943922 
L 293.304227 120.037301 
L 300.268045 120.269178 
L 307.231864 120.627347 
L 314.195682 121.095797 
L 321.1595 121.654711 
L 328.123318 122.280468 
L 335.087136 122.945643 
L 342.050955 123.619007 
L 349.014773 124.265524 
L 355.978591 124.846357 
L 362.942409 125.318861 
L 369.906227 125.636589 
L 376.870045 125.749288 
L 383.833864 125.6029 
L 390.797682 125.139566 
L 397.7615 124.297617 
L 404.725318 123.011584 
L 411.689136 121.212192 
L 418.652955 118.82636 
" clip-path="url(#p4b2f4da837)" style="fill: none; stroke-dasharray: 7.4,3.2; stroke-dashoffset: 0; stroke: #34b6c6; stroke-width: 2"/>
   </g>
   <g id="line2d_7">
    <path d="M 70.462045 81.092015 
L 77.425864 84.939303 
L 84.389682 92.315713 
L 91.3535 99.642566 
L 98.317318 107.028352 
L 105.281136 114.409603 
L 112.244955 122.140811 
L 119.208773 129.868922 
L 126.172591 135.679817 
L 133.136409 138.646333 
L 140.100227 139.687471 
L 147.064045 139.608656 
L 154.027864 138.366892 
L 160.991682 135.491981 
L 167.9555 131.347771 
L 174.919318 127.740995 
L 181.883136 125.536815 
L 188.846955 124.178528 
L 195.810773 123.135841 
L 202.774591 122.161291 
L 209.738409 121.145214 
L 216.702227 120.043579 
L 223.666045 118.868591 
L 230.629864 117.702875 
L 237.593682 116.708678 
L 244.5575 116.115539 
L 251.521318 116.195932 
L 258.485136 117.183841 
L 265.448955 118.993229 
L 272.412773 121.050594 
L 279.376591 122.772709 
L 286.340409 123.979056 
L 293.304227 124.757401 
L 300.268045 125.24797 
L 307.231864 125.560377 
L 314.195682 125.765024 
L 321.1595 125.902594 
L 328.123318 125.992852 
L 335.087136 126.039562 
L 342.050955 126.032105 
L 349.014773 125.945154 
L 355.978591 125.738717 
L 362.942409 125.363388 
L 369.906227 124.778853 
L 376.870045 123.990794 
L 383.833864 123.090045 
L 390.797682 122.250085 
L 397.7615 121.661955 
L 404.725318 121.458554 
L 411.689136 121.690236 
L 418.652955 122.348101 
" clip-path="url(#p4b2f4da837)" style="fill: none; stroke-dasharray: 7.4,3.2; stroke-dashoffset: 0; stroke: #9370db; stroke-width: 2"/>
   </g>
   <g id="line2d_8">
    <path d="M 70.462045 81.139554 
L 77.425864 84.975055 
L 84.389682 93.255387 
L 91.3535 101.546805 
L 98.317318 109.983068 
L 105.281136 118.48468 
L 112.244955 127.489704 
L 119.208773 136.559455 
L 126.172591 143.321154 
L 133.136409 146.624455 
L 140.100227 147.605845 
L 147.064045 147.260891 
L 154.027864 145.533894 
L 160.991682 141.839711 
L 167.9555 136.626199 
L 174.919318 132.12847 
L 181.883136 129.41497 
L 188.846955 127.792495 
L 195.810773 126.600336 
L 202.774591 125.527931 
L 209.738409 124.435205 
L 216.702227 123.263164 
L 223.666045 122.02226 
L 230.629864 120.809954 
L 237.593682 119.822124 
L 244.5575 119.337785 
L 251.521318 119.68892 
L 258.485136 121.159599 
L 265.448955 123.637228 
L 272.412773 126.405107 
L 279.376591 128.734265 
L 286.340409 130.394389 
L 293.304227 131.487298 
L 300.268045 132.179574 
L 307.231864 132.599655 
L 314.195682 132.827177 
L 321.1595 132.904736 
L 328.123318 132.848793 
L 335.087136 132.655759 
L 342.050955 132.304007 
L 349.014773 131.753463 
L 355.978591 130.945664 
L 362.942409 129.81026 
L 369.906227 128.28794 
L 376.870045 126.376152 
L 383.833864 124.177607 
L 390.797682 121.897172 
L 397.7615 119.76125 
L 404.725318 117.923991 
L 411.689136 116.437064 
L 418.652955 115.278508 
" clip-path="url(#p4b2f4da837)" style="fill: none; stroke-dasharray: 12.8,3.2,2,3.2; stroke-dashoffset: 0; stroke: #ff0000; stroke-width: 2"/>
   </g>
   <g id="patch_4">
    <path d="M 53.0525 165.688 
L 53.0525 70.696 
" style="fill: none; stroke: #000000; stroke-width: 0.8; stroke-linejoin: miter; stroke-linecap: square"/>
   </g>
   <g id="patch_5">
    <path d="M 436.0625 165.688 
L 436.0625 70.696 
" style="fill: none; stroke: #000000; stroke-width: 0.8; stroke-linejoin: miter; stroke-linecap: square"/>
   </g>
   <g id="patch_6">
    <path d="M 53.0525 165.688 
L 436.0625 165.688 
" style="fill: none; stroke: #000000; stroke-width: 0.8; stroke-linejoin: miter; stroke-linecap: square"/>
   </g>
   <g id="patch_7">
    <path d="M 53.0525 70.696 
L 436.0625 70.696 
" style="fill: none; stroke: #000000; stroke-width: 0.8; stroke-linejoin: miter; stroke-linecap: square"/>
   </g>
  </g>
  <g id="axes_3">
   <g id="patch_8">
    <path d="M 53.0525 276.68 
L 436.0625 276.68 
L 436.0625 181.688 
L 53.0525 181.688 
z
" style="fill: #ffffff"/>
   </g>
   <g id="PathCollection_2">
    <g clip-path="url(#p51af9b87ab)">
     <use xlink:href="#mdadb6dbcfe" x="405.172592" y="228.276603" style="fill: #daa520; stroke: #daa520"/>
     <use xlink:href="#mdadb6dbcfe" x="201.018932" y="245.349131" style="fill: #daa520; stroke: #daa520"/>
     <use xlink:href="#mdadb6dbcfe" x="168.540535" y="259.896231" style="fill: #daa520; stroke: #daa520"/>
     <use xlink:href="#mdadb6dbcfe" x="375.965351" y="211.776539" style="fill: #daa520; stroke: #daa520"/>
     <use xlink:href="#mdadb6dbcfe" x="87.521933" y="226.46165" style="fill: #daa520; stroke: #daa520"/>
     <use xlink:href="#mdadb6dbcfe" x="80.717473" y="217.554829" style="fill: #daa520; stroke: #daa520"/>
     <use xlink:href="#mdadb6dbcfe" x="385.370854" y="219.428014" style="fill: #daa520; stroke: #daa520"/>
     <use xlink:href="#mdadb6dbcfe" x="316.888553" y="242.862832" style="fill: #daa520; stroke: #daa520"/>
     <use xlink:href="#mdadb6dbcfe" x="367.452443" y="218.425681" style="fill: #daa520; stroke: #daa520"/>
     <use xlink:href="#mdadb6dbcfe" x="319.545308" y="215.091064" style="fill: #daa520; stroke: #daa520"/>
     <use xlink:href="#mdadb6dbcfe" x="76.22204" y="231.27257" style="fill: #daa520; stroke: #daa520"/>
     <use xlink:href="#mdadb6dbcfe" x="359.045654" y="256.0036" style="fill: #daa520; stroke: #daa520"/>
     <use xlink:href="#mdadb6dbcfe" x="210.273049" y="243.353098" style="fill: #daa520; stroke: #daa520"/>
     <use xlink:href="#mdadb6dbcfe" x="363.583611" y="250.60609" style="fill: #daa520; stroke: #daa520"/>
     <use xlink:href="#mdadb6dbcfe" x="393.043825" y="226.167281" style="fill: #daa520; stroke: #daa520"/>
     <use xlink:href="#mdadb6dbcfe" x="302.279664" y="260.780235" style="fill: #daa520; stroke: #daa520"/>
     <use xlink:href="#mdadb6dbcfe" x="223.397412" y="226.374225" style="fill: #daa520; stroke: #daa520"/>
     <use xlink:href="#mdadb6dbcfe" x="283.364214" y="264.053003" style="fill: #daa520; stroke: #daa520"/>
     <use xlink:href="#mdadb6dbcfe" x="78.482187" y="237.080354" style="fill: #daa520; stroke: #daa520"/>
     <use xlink:href="#mdadb6dbcfe" x="162.348335" y="259.082308" style="fill: #daa520; stroke: #daa520"/>
     <use xlink:href="#mdadb6dbcfe" x="144.762362" y="220.315871" style="fill: #daa520; stroke: #daa520"/>
     <use xlink:href="#mdadb6dbcfe" x="327.309204" y="241.308762" style="fill: #daa520; stroke: #daa520"/>
     <use xlink:href="#mdadb6dbcfe" x="402.915549" y="232.130859" style="fill: #daa520; stroke: #daa520"/>
     <use xlink:href="#mdadb6dbcfe" x="408.720803" y="200.688013" style="fill: #daa520; stroke: #daa520"/>
     <use xlink:href="#mdadb6dbcfe" x="402.202944" y="228.531777" style="fill: #daa520; stroke: #daa520"/>
     <use xlink:href="#mdadb6dbcfe" x="161.938889" y="227.634482" style="fill: #daa520; stroke: #daa520"/>
     <use xlink:href="#mdadb6dbcfe" x="112.785863" y="224.730166" style="fill: #daa520; stroke: #daa520"/>
     <use xlink:href="#mdadb6dbcfe" x="367.747409" y="213.004382" style="fill: #daa520; stroke: #daa520"/>
     <use xlink:href="#mdadb6dbcfe" x="407.741004" y="229.930941" style="fill: #daa520; stroke: #daa520"/>
     <use xlink:href="#mdadb6dbcfe" x="413.9004" y="232.760282" style="fill: #daa520; stroke: #daa520"/>
     <use xlink:href="#mdadb6dbcfe" x="71.848481" y="233.035204" style="fill: #daa520; stroke: #daa520"/>
     <use xlink:href="#mdadb6dbcfe" x="186.899547" y="248.161926" style="fill: #daa520; stroke: #daa520"/>
     <use xlink:href="#mdadb6dbcfe" x="273.54925" y="189.662678" style="fill: #daa520; stroke: #daa520"/>
     <use xlink:href="#mdadb6dbcfe" x="327.321596" y="242.485005" style="fill: #daa520; stroke: #daa520"/>
     <use xlink:href="#mdadb6dbcfe" x="405.205515" y="231.925773" style="fill: #daa520; stroke: #daa520"/>
     <use xlink:href="#mdadb6dbcfe" x="391.036543" y="220.192029" style="fill: #daa520; stroke: #daa520"/>
     <use xlink:href="#mdadb6dbcfe" x="386.194338" y="238.634223" style="fill: #daa520; stroke: #daa520"/>
     <use xlink:href="#mdadb6dbcfe" x="122.866603" y="272.362182" style="fill: #daa520; stroke: #daa520"/>
     <use xlink:href="#mdadb6dbcfe" x="317.50567" y="237.283405" style="fill: #daa520; stroke: #daa520"/>
     <use xlink:href="#mdadb6dbcfe" x="343.950126" y="234.522812" style="fill: #daa520; stroke: #daa520"/>
     <use xlink:href="#mdadb6dbcfe" x="78.716471" y="231.582835" style="fill: #daa520; stroke: #daa520"/>
     <use xlink:href="#mdadb6dbcfe" x="389.361251" y="229.685396" style="fill: #daa520; stroke: #daa520"/>
     <use xlink:href="#mdadb6dbcfe" x="196.539407" y="215.555578" style="fill: #daa520; stroke: #daa520"/>
     <use xlink:href="#mdadb6dbcfe" x="282.487999" y="219.939491" style="fill: #daa520; stroke: #daa520"/>
     <use xlink:href="#mdadb6dbcfe" x="128.628155" y="272.145271" style="fill: #daa520; stroke: #daa520"/>
     <use xlink:href="#mdadb6dbcfe" x="143.899268" y="213.052395" style="fill: #daa520; stroke: #daa520"/>
     <use xlink:href="#mdadb6dbcfe" x="181.0091" y="248.200157" style="fill: #daa520; stroke: #daa520"/>
     <use xlink:href="#mdadb6dbcfe" x="312.325102" y="265.459994" style="fill: #daa520; stroke: #daa520"/>
     <use xlink:href="#mdadb6dbcfe" x="321.945888" y="244.606375" style="fill: #daa520; stroke: #daa520"/>
     <use xlink:href="#mdadb6dbcfe" x="130.438875" y="238.168175" style="fill: #daa520; stroke: #daa520"/>
     <use xlink:href="#mdadb6dbcfe" x="94.037829" y="237.50092" style="fill: #daa520; stroke: #daa520"/>
     <use xlink:href="#mdadb6dbcfe" x="301.061983" y="206.688126" style="fill: #daa520; stroke: #daa520"/>
     <use xlink:href="#mdadb6dbcfe" x="160.433624" y="229.175331" style="fill: #daa520; stroke: #daa520"/>
     <use xlink:href="#mdadb6dbcfe" x="379.449679" y="217.313118" style="fill: #daa520; stroke: #daa520"/>
     <use xlink:href="#mdadb6dbcfe" x="83.454292" y="223.897458" style="fill: #daa520; stroke: #daa520"/>
     <use xlink:href="#mdadb6dbcfe" x="364.352295" y="241.801448" style="fill: #daa520; stroke: #daa520"/>
     <use xlink:href="#mdadb6dbcfe" x="417.712419" y="190.395567" style="fill: #daa520; stroke: #daa520"/>
     <use xlink:href="#mdadb6dbcfe" x="186.675965" y="214.671333" style="fill: #daa520; stroke: #daa520"/>
     <use xlink:href="#mdadb6dbcfe" x="110.296604" y="220.341552" style="fill: #daa520; stroke: #daa520"/>
     <use xlink:href="#mdadb6dbcfe" x="169.997979" y="209.908918" style="fill: #daa520; stroke: #daa520"/>
     <use xlink:href="#mdadb6dbcfe" x="180.033142" y="228.91066" style="fill: #daa520; stroke: #daa520"/>
     <use xlink:href="#mdadb6dbcfe" x="198.501274" y="246.866389" style="fill: #daa520; stroke: #daa520"/>
     <use xlink:href="#mdadb6dbcfe" x="92.858212" y="239.067623" style="fill: #daa520; stroke: #daa520"/>
     <use xlink:href="#mdadb6dbcfe" x="387.21469" y="227.189255" style="fill: #daa520; stroke: #daa520"/>
     <use xlink:href="#mdadb6dbcfe" x="111.316159" y="203.488791" style="fill: #daa520; stroke: #daa520"/>
     <use xlink:href="#mdadb6dbcfe" x="416.400342" y="210.435196" style="fill: #daa520; stroke: #daa520"/>
     <use xlink:href="#mdadb6dbcfe" x="371.862832" y="235.709498" style="fill: #daa520; stroke: #daa520"/>
     <use xlink:href="#mdadb6dbcfe" x="346.2516" y="212.259744" style="fill: #daa520; stroke: #daa520"/>
     <use xlink:href="#mdadb6dbcfe" x="370.176902" y="210.183198" style="fill: #daa520; stroke: #daa520"/>
     <use xlink:href="#mdadb6dbcfe" x="134.327104" y="212.245367" style="fill: #daa520; stroke: #daa520"/>
     <use xlink:href="#mdadb6dbcfe" x="329.523971" y="256.986089" style="fill: #daa520; stroke: #daa520"/>
     <use xlink:href="#mdadb6dbcfe" x="137.115543" y="210.139933" style="fill: #daa520; stroke: #daa520"/>
     <use xlink:href="#mdadb6dbcfe" x="126.597793" y="217.521165" style="fill: #daa520; stroke: #daa520"/>
     <use xlink:href="#mdadb6dbcfe" x="253.466851" y="236.683515" style="fill: #daa520; stroke: #daa520"/>
     <use xlink:href="#mdadb6dbcfe" x="340.765013" y="251.337954" style="fill: #daa520; stroke: #daa520"/>
     <use xlink:href="#mdadb6dbcfe" x="205.021262" y="212.570544" style="fill: #daa520; stroke: #daa520"/>
     <use xlink:href="#mdadb6dbcfe" x="253.68822" y="186.005818" style="fill: #daa520; stroke: #daa520"/>
     <use xlink:href="#mdadb6dbcfe" x="377.09739" y="243.675534" style="fill: #daa520; stroke: #daa520"/>
     <use xlink:href="#mdadb6dbcfe" x="165.840108" y="231.292451" style="fill: #daa520; stroke: #daa520"/>
     <use xlink:href="#mdadb6dbcfe" x="322.560982" y="205.093939" style="fill: #daa520; stroke: #daa520"/>
     <use xlink:href="#mdadb6dbcfe" x="103.605723" y="230.071575" style="fill: #daa520; stroke: #daa520"/>
     <use xlink:href="#mdadb6dbcfe" x="353.480197" y="207.701493" style="fill: #daa520; stroke: #daa520"/>
     <use xlink:href="#mdadb6dbcfe" x="97.034505" y="219.10328" style="fill: #daa520; stroke: #daa520"/>
     <use xlink:href="#mdadb6dbcfe" x="258.956468" y="207.595186" style="fill: #daa520; stroke: #daa520"/>
     <use xlink:href="#mdadb6dbcfe" x="148.28583" y="251.854746" style="fill: #daa520; stroke: #daa520"/>
     <use xlink:href="#mdadb6dbcfe" x="111.079086" y="232.745358" style="fill: #daa520; stroke: #daa520"/>
     <use xlink:href="#mdadb6dbcfe" x="333.024672" y="221.192377" style="fill: #daa520; stroke: #daa520"/>
     <use xlink:href="#mdadb6dbcfe" x="193.413595" y="214.647018" style="fill: #daa520; stroke: #daa520"/>
     <use xlink:href="#mdadb6dbcfe" x="228.747264" y="245.092708" style="fill: #daa520; stroke: #daa520"/>
     <use xlink:href="#mdadb6dbcfe" x="78.67634" y="218.304156" style="fill: #daa520; stroke: #daa520"/>
     <use xlink:href="#mdadb6dbcfe" x="255.924454" y="243.329139" style="fill: #daa520; stroke: #daa520"/>
     <use xlink:href="#mdadb6dbcfe" x="308.607246" y="262.525911" style="fill: #daa520; stroke: #daa520"/>
     <use xlink:href="#mdadb6dbcfe" x="411.446565" y="220.480146" style="fill: #daa520; stroke: #daa520"/>
     <use xlink:href="#mdadb6dbcfe" x="342.139702" y="231.576898" style="fill: #daa520; stroke: #daa520"/>
     <use xlink:href="#mdadb6dbcfe" x="179.758555" y="213.28829" style="fill: #daa520; stroke: #daa520"/>
    </g>
   </g>
   <g id="matplotlib.axis_5">
    <g id="xtick_1">
     <g id="line2d_9">
      <defs>
       <path id="m2615c29748" d="M 0 0 
L 0 3.5 
" style="stroke: #696969; stroke-width: 0.8"/>
      </defs>
      <g>
       <use xlink:href="#m2615c29748" x="70.462045" y="276.68" style="fill: #696969; stroke: #696969; stroke-width: 0.8"/>
      </g>
     </g>
     <g id="text_3">
      <!-- −1.0 -->
      <g style="fill: #696969" transform="translate(51.035795 295.8375) scale(0.16 -0.16)">
       <defs>
        <path id="DejaVuSans-2212" d="M 678 2272 
L 4684 2272 
L 4684 1741 
L 678 1741 
L 678 2272 
z
" transform="scale(0.015625)"/>
        <path id="DejaVuSans-31" d="M 794 531 
L 1825 531 
L 1825 4091 
L 703 3866 
L 703 4441 
L 1819 4666 
L 2450 4666 
L 2450 531 
L 3481 531 
L 3481 0 
L 794 0 
L 794 531 
z
" transform="scale(0.015625)"/>
        <path id="DejaVuSans-2e" d="M 684 794 
L 1344 794 
L 1344 0 
L 684 0 
L 684 794 
z
" transform="scale(0.015625)"/>
       </defs>
       <use xlink:href="#DejaVuSans-2212"/>
       <use xlink:href="#DejaVuSans-31" x="83.789062"/>
       <use xlink:href="#DejaVuSans-2e" x="147.412109"/>
       <use xlink:href="#DejaVuSans-30" x="179.199219"/>
      </g>
     </g>
    </g>
    <g id="xtick_2">
     <g id="line2d_10">
      <g>
       <use xlink:href="#m2615c29748" x="157.509773" y="276.68" style="fill: #696969; stroke: #696969; stroke-width: 0.8"/>
      </g>
     </g>
     <g id="text_4">
      <!-- −0.5 -->
      <g style="fill: #696969" transform="translate(138.083523 295.8375) scale(0.16 -0.16)">
       <use xlink:href="#DejaVuSans-2212"/>
       <use xlink:href="#DejaVuSans-30" x="83.789062"/>
       <use xlink:href="#DejaVuSans-2e" x="147.412109"/>
       <use xlink:href="#DejaVuSans-35" x="179.199219"/>
      </g>
     </g>
    </g>
    <g id="xtick_3">
     <g id="line2d_11">
      <g>
       <use xlink:href="#m2615c29748" x="244.5575" y="276.68" style="fill: #696969; stroke: #696969; stroke-width: 0.8"/>
      </g>
     </g>
     <g id="text_5">
      <!-- 0.0 -->
      <g style="fill: #696969" transform="translate(231.835 295.8375) scale(0.16 -0.16)">
       <use xlink:href="#DejaVuSans-30"/>
       <use xlink:href="#DejaVuSans-2e" x="63.623047"/>
       <use xlink:href="#DejaVuSans-30" x="95.410156"/>
      </g>
     </g>
    </g>
    <g id="xtick_4">
     <g id="line2d_12">
      <g>
       <use xlink:href="#m2615c29748" x="331.605227" y="276.68" style="fill: #696969; stroke: #696969; stroke-width: 0.8"/>
      </g>
     </g>
     <g id="text_6">
      <!-- 0.5 -->
      <g style="fill: #696969" transform="translate(318.882727 295.8375) scale(0.16 -0.16)">
       <use xlink:href="#DejaVuSans-30"/>
       <use xlink:href="#DejaVuSans-2e" x="63.623047"/>
       <use xlink:href="#DejaVuSans-35" x="95.410156"/>
      </g>
     </g>
    </g>
    <g id="xtick_5">
     <g id="line2d_13">
      <g>
       <use xlink:href="#m2615c29748" x="418.652955" y="276.68" style="fill: #696969; stroke: #696969; stroke-width: 0.8"/>
      </g>
     </g>
     <g id="text_7">
      <!-- 1.0 -->
      <g style="fill: #696969" transform="translate(405.930455 295.8375) scale(0.16 -0.16)">
       <use xlink:href="#DejaVuSans-31"/>
       <use xlink:href="#DejaVuSans-2e" x="63.623047"/>
       <use xlink:href="#DejaVuSans-30" x="95.410156"/>
      </g>
     </g>
    </g>
    <g id="text_8">
     <!-- $X$ -->
     <g transform="translate(239.0375 315.3225) scale(0.16 -0.16)">
      <defs>
       <path id="DejaVuSans-Oblique-58" d="M 878 4666 
L 1516 4666 
L 2316 2981 
L 3763 4666 
L 4500 4666 
L 2578 2438 
L 3738 0 
L 3103 0 
L 2163 1966 
L 459 0 
L -275 0 
L 1906 2509 
L 878 4666 
z
" transform="scale(0.015625)"/>
      </defs>
      <use xlink:href="#DejaVuSans-Oblique-58" transform="translate(0 0.09375)"/>
     </g>
    </g>
   </g>
   <g id="matplotlib.axis_6">
    <g id="ytick_3">
     <g id="line2d_14">
      <g>
       <use xlink:href="#mdb27f0ccee" x="53.0525" y="251.373857" style="fill: #696969; stroke: #696969; stroke-width: 0.8"/>
      </g>
     </g>
     <g id="text_9">
      <!-- −2.5 -->
      <g style="fill: #696969" transform="translate(7.2 257.452607) scale(0.16 -0.16)">
       <defs>
        <path id="DejaVuSans-32" d="M 1228 531 
L 3431 531 
L 3431 0 
L 469 0 
L 469 531 
Q 828 903 1448 1529 
Q 2069 2156 2228 2338 
Q 2531 2678 2651 2914 
Q 2772 3150 2772 3378 
Q 2772 3750 2511 3984 
Q 2250 4219 1831 4219 
Q 1534 4219 1204 4116 
Q 875 4013 500 3803 
L 500 4441 
Q 881 4594 1212 4672 
Q 1544 4750 1819 4750 
Q 2544 4750 2975 4387 
Q 3406 4025 3406 3419 
Q 3406 3131 3298 2873 
Q 3191 2616 2906 2266 
Q 2828 2175 2409 1742 
Q 1991 1309 1228 531 
z
" transform="scale(0.015625)"/>
       </defs>
       <use xlink:href="#DejaVuSans-2212"/>
       <use xlink:href="#DejaVuSans-32" x="83.789062"/>
       <use xlink:href="#DejaVuSans-2e" x="147.412109"/>
       <use xlink:href="#DejaVuSans-35" x="179.199219"/>
      </g>
     </g>
    </g>
    <g id="ytick_4">
     <g id="line2d_15">
      <g>
       <use xlink:href="#mdb27f0ccee" x="53.0525" y="225.708837" style="fill: #696969; stroke: #696969; stroke-width: 0.8"/>
      </g>
     </g>
     <g id="text_10">
      <!-- 0.0 -->
      <g style="fill: #696969" transform="translate(20.6075 231.787587) scale(0.16 -0.16)">
       <use xlink:href="#DejaVuSans-30"/>
       <use xlink:href="#DejaVuSans-2e" x="63.623047"/>
       <use xlink:href="#DejaVuSans-30" x="95.410156"/>
      </g>
     </g>
    </g>
    <g id="ytick_5">
     <g id="line2d_16">
      <g>
       <use xlink:href="#mdb27f0ccee" x="53.0525" y="200.043818" style="fill: #696969; stroke: #696969; stroke-width: 0.8"/>
      </g>
     </g>
     <g id="text_11">
      <!-- 2.5 -->
      <g style="fill: #696969" transform="translate(20.6075 206.122568) scale(0.16 -0.16)">
       <use xlink:href="#DejaVuSans-32"/>
       <use xlink:href="#DejaVuSans-2e" x="63.623047"/>
       <use xlink:href="#DejaVuSans-35" x="95.410156"/>
      </g>
     </g>
    </g>
   </g>
   <g id="line2d_17">
    <path d="M 70.462045 226.142954 
L 77.425864 223.665256 
L 84.389682 224.651794 
L 91.3535 225.03667 
L 98.317318 225.604172 
L 105.281136 226.633119 
L 112.244955 228.843226 
L 119.208773 232.017451 
L 126.172591 233.904749 
L 133.136409 233.664477 
L 140.100227 232.885257 
L 147.064045 232.723836 
L 154.027864 232.822848 
L 160.991682 231.937528 
L 167.9555 229.81096 
L 174.919318 228.19514 
L 181.883136 227.743049 
L 188.846955 227.476222 
L 195.810773 226.81651 
L 202.774591 225.854625 
L 209.738409 224.961854 
L 216.702227 224.463887 
L 223.666045 224.454667 
L 230.629864 224.771553 
L 237.593682 225.113341 
L 244.5575 225.233439 
L 251.521318 225.132437 
L 258.485136 225.096254 
L 265.448955 225.325923 
L 272.412773 225.589576 
L 279.376591 225.677821 
L 286.340409 225.764237 
L 293.304227 226.091353 
L 300.268045 226.677927 
L 307.231864 227.339271 
L 314.195682 227.873005 
L 321.1595 228.227501 
L 328.123318 228.539601 
L 335.087136 229.022587 
L 342.050955 229.781994 
L 349.014773 230.687104 
L 355.978591 231.393614 
L 362.942409 231.514459 
L 369.906227 230.83902 
L 376.870045 229.471651 
L 383.833864 227.803125 
L 390.797682 226.308914 
L 397.7615 225.279423 
L 404.725318 224.67426 
L 411.689136 224.213539 
L 418.652955 223.622205 
" clip-path="url(#p51af9b87ab)" style="fill: none; stroke: #696969; stroke-width: 2; stroke-linecap: square"/>
   </g>
   <g id="line2d_18">
    <path d="M 70.462045 227.248214 
L 77.425864 227.964363 
L 84.389682 228.569953 
L 91.3535 229.077482 
L 98.317318 229.498769 
L 105.281136 229.844965 
L 112.244955 230.126545 
L 119.208773 230.353313 
L 126.172591 230.534397 
L 133.136409 230.678257 
L 140.100227 230.792674 
L 147.064045 230.884762 
L 154.027864 230.960956 
L 160.991682 231.027024 
L 167.9555 231.088057 
L 174.919318 231.148474 
L 181.883136 231.212022 
L 188.846955 231.281773 
L 195.810773 231.360129 
L 202.774591 231.448815 
L 209.738409 231.548887 
L 216.702227 231.660726 
L 223.666045 231.784041 
L 230.629864 231.917866 
L 237.593682 232.060564 
L 244.5575 232.209824 
L 251.521318 232.362664 
L 258.485136 232.515426 
L 265.448955 232.663781 
L 272.412773 232.802726 
L 279.376591 232.926586 
L 286.340409 233.029013 
L 293.304227 233.102985 
L 300.268045 233.140807 
L 307.231864 233.134113 
L 314.195682 233.073862 
L 321.1595 232.950341 
L 328.123318 232.753163 
L 335.087136 232.471269 
L 342.050955 232.092928 
L 349.014773 231.605732 
L 355.978591 230.996606 
L 362.942409 230.251796 
L 369.906227 229.35688 
L 376.870045 228.29676 
L 383.833864 227.055665 
L 390.797682 225.617153 
L 397.7615 223.964108 
L 404.725318 222.078741 
L 411.689136 219.942589 
L 418.652955 217.536518 
" clip-path="url(#p51af9b87ab)" style="fill: none; stroke-dasharray: 7.4,3.2; stroke-dashoffset: 0; stroke: #79ad41; stroke-width: 2"/>
   </g>
   <g id="patch_9">
    <path d="M 53.0525 276.68 
L 53.0525 181.688 
" style="fill: none; stroke: #000000; stroke-width: 0.8; stroke-linejoin: miter; stroke-linecap: square"/>
   </g>
   <g id="patch_10">
    <path d="M 436.0625 276.68 
L 436.0625 181.688 
" style="fill: none; stroke: #000000; stroke-width: 0.8; stroke-linejoin: miter; stroke-linecap: square"/>
   </g>
   <g id="patch_11">
    <path d="M 53.0525 276.68 
L 436.0625 276.68 
" style="fill: none; stroke: #000000; stroke-width: 0.8; stroke-linejoin: miter; stroke-linecap: square"/>
   </g>
   <g id="patch_12">
    <path d="M 53.0525 181.688 
L 436.0625 181.688 
" style="fill: none; stroke: #000000; stroke-width: 0.8; stroke-linejoin: miter; stroke-linecap: square"/>
   </g>
  </g>
 </g>
 <defs>
  <clipPath id="p5d1ade328f">
   <rect x="53.0525" y="7.2" width="383.01" height="47.496"/>
  </clipPath>
  <clipPath id="p4b2f4da837">
   <rect x="53.0525" y="70.696" width="383.01" height="94.992"/>
  </clipPath>
  <clipPath id="p51af9b87ab">
   <rect x="53.0525" y="181.688" width="383.01" height="94.992"/>
  </clipPath>
 </defs>
</svg>
