<?xml version="1.0" encoding="utf-8" standalone="no"?>
<!DOCTYPE svg PUBLIC "-//W3C//DTD SVG 1.1//EN"
  "http://www.w3.org/Graphics/SVG/1.1/DTD/svg11.dtd">
<svg xmlns:xlink="http://www.w3.org/1999/xlink" width="443.2625pt" height="325.85pt" viewBox="0 0 443.2625 325.85" xmlns="http://www.w3.org/2000/svg" version="1.1">
 <metadata>
  <rdf:RDF xmlns:dc="http://purl.org/dc/elements/1.1/" xmlns:cc="http://creativecommons.org/ns#" xmlns:rdf="http://www.w3.org/1999/02/22-rdf-syntax-ns#">
   <cc:Work>
    <dc:type rdf:resource="http://purl.org/dc/dcmitype/StillImage"/>
    <dc:date>2024-01-28T20:57:11.782961</dc:date>
    <dc:format>image/svg+xml</dc:format>
    <dc:creator>
     <cc:Agent>
      <dc:title>Matplotlib v3.7.2, https://matplotlib.org/</dc:title>
     </cc:Agent>
    </dc:creator>
   </cc:Work>
  </rdf:RDF>
 </metadata>
 <defs>
  <style type="text/css">*{stroke-linejoin: round; stroke-linecap: butt}</style>
 </defs>
 <g id="figure_1">
  <g id="patch_1">
   <path d="M 0 325.85 
L 443.2625 325.85 
L 443.2625 0 
L 0 0 
z
" style="fill: #ffffff"/>
  </g>
  <g id="axes_1">
   <g id="patch_2">
    <path d="M 53.0525 53.745444 
L 436.0625 53.745444 
L 436.0625 7.2 
L 53.0525 7.2 
z
" style="fill: #ffffff"/>
   </g>
   <g id="PolyCollection_1">
    <defs>
     <path id="m8ff9384290" d="M 70.462045 -274.220258 
L 70.462045 -316.534298 
L 77.425864 -316.534298 
L 84.389682 -316.534298 
L 91.3535 -316.534298 
L 98.317318 -316.534298 
L 105.281136 -316.534298 
L 112.244955 -316.534298 
L 119.208773 -316.534298 
L 126.172591 -316.534298 
L 133.136409 -316.534298 
L 140.100227 -316.534298 
L 147.064045 -316.534298 
L 154.027864 -315.598852 
L 160.991682 -314.392482 
L 167.9555 -312.99133 
L 174.919318 -311.39743 
L 181.883136 -309.625242 
L 188.846955 -307.702423 
L 195.810773 -305.668525 
L 202.774591 -303.57164 
L 209.738409 -301.46357 
L 216.702227 -299.394532 
L 223.666045 -297.408526 
L 230.629864 -295.540204 
L 237.593682 -293.813492 
L 244.5575 -292.241879 
L 251.521318 -290.829781 
L 258.485136 -289.574463 
L 265.448955 -288.468117 
L 272.412773 -287.499689 
L 279.376591 -286.656357 
L 286.340409 -285.924632 
L 293.304227 -285.29108 
L 300.268045 -284.742791 
L 307.231864 -284.267612 
L 314.195682 -283.854251 
L 321.1595 -283.492274 
L 328.123318 -283.172069 
L 335.087136 -282.884794 
L 342.050955 -282.622304 
L 349.014773 -282.377118 
L 355.978591 -282.142377 
L 362.942409 -281.91187 
L 369.906227 -281.680043 
L 376.870045 -281.442064 
L 383.833864 -281.193885 
L 390.797682 -280.932308 
L 397.7615 -280.655081 
L 404.725318 -280.360956 
L 411.689136 -280.049734 
L 418.652955 -279.722271 
L 418.652955 -274.220258 
L 418.652955 -274.220258 
L 411.689136 -274.220258 
L 404.725318 -274.220258 
L 397.7615 -274.220258 
L 390.797682 -274.220258 
L 383.833864 -274.220258 
L 376.870045 -274.220258 
L 369.906227 -274.220258 
L 362.942409 -274.220258 
L 355.978591 -274.220258 
L 349.014773 -274.220258 
L 342.050955 -274.220258 
L 335.087136 -274.220258 
L 328.123318 -274.220258 
L 321.1595 -274.220258 
L 314.195682 -274.220258 
L 307.231864 -274.220258 
L 300.268045 -274.220258 
L 293.304227 -274.220258 
L 286.340409 -274.220258 
L 279.376591 -274.220258 
L 272.412773 -274.220258 
L 265.448955 -274.220258 
L 258.485136 -274.220258 
L 251.521318 -274.220258 
L 244.5575 -274.220258 
L 237.593682 -274.220258 
L 230.629864 -274.220258 
L 223.666045 -274.220258 
L 216.702227 -274.220258 
L 209.738409 -274.220258 
L 202.774591 -274.220258 
L 195.810773 -274.220258 
L 188.846955 -274.220258 
L 181.883136 -274.220258 
L 174.919318 -274.220258 
L 167.9555 -274.220258 
L 160.991682 -274.220258 
L 154.027864 -274.220258 
L 147.064045 -274.220258 
L 140.100227 -274.220258 
L 133.136409 -274.220258 
L 126.172591 -274.220258 
L 119.208773 -274.220258 
L 112.244955 -274.220258 
L 105.281136 -274.220258 
L 98.317318 -274.220258 
L 91.3535 -274.220258 
L 84.389682 -274.220258 
L 77.425864 -274.220258 
L 70.462045 -274.220258 
z
" style="stroke: #dc143c; stroke-opacity: 0.2"/>
    </defs>
    <g clip-path="url(#p5bb8bd90bf)">
     <use xlink:href="#m8ff9384290" x="0" y="325.85" style="fill: #dc143c; fill-opacity: 0.2; stroke: #dc143c; stroke-opacity: 0.2"/>
    </g>
   </g>
   <g id="PolyCollection_2">
    <defs>
     <path id="m2c77cbaeab" d="M 70.462045 -274.220258 
L 70.462045 -278.921818 
L 77.425864 -278.921818 
L 84.389682 -278.921818 
L 91.3535 -278.921818 
L 98.317318 -278.921818 
L 105.281136 -278.921818 
L 112.244955 -278.921818 
L 119.208773 -278.921818 
L 126.172591 -278.921818 
L 133.136409 -278.921818 
L 140.100227 -278.921818 
L 147.064045 -278.921818 
L 154.027864 -279.857264 
L 160.991682 -281.063634 
L 167.9555 -282.464786 
L 174.919318 -284.058686 
L 181.883136 -285.830874 
L 188.846955 -287.753693 
L 195.810773 -289.787591 
L 202.774591 -291.884476 
L 209.738409 -293.992546 
L 216.702227 -296.061584 
L 223.666045 -298.04759 
L 230.629864 -299.915912 
L 237.593682 -301.642624 
L 244.5575 -303.214237 
L 251.521318 -304.626335 
L 258.485136 -305.881653 
L 265.448955 -306.987999 
L 272.412773 -307.956427 
L 279.376591 -308.799759 
L 286.340409 -309.531484 
L 293.304227 -310.165036 
L 300.268045 -310.713325 
L 307.231864 -311.188504 
L 314.195682 -311.601865 
L 321.1595 -311.963842 
L 328.123318 -312.284047 
L 335.087136 -312.571322 
L 342.050955 -312.833812 
L 349.014773 -313.078998 
L 355.978591 -313.313739 
L 362.942409 -313.544246 
L 369.906227 -313.776073 
L 376.870045 -314.014052 
L 383.833864 -314.262231 
L 390.797682 -314.523808 
L 397.7615 -314.801035 
L 404.725318 -315.09516 
L 411.689136 -315.406382 
L 418.652955 -315.733845 
L 418.652955 -274.220258 
L 418.652955 -274.220258 
L 411.689136 -274.220258 
L 404.725318 -274.220258 
L 397.7615 -274.220258 
L 390.797682 -274.220258 
L 383.833864 -274.220258 
L 376.870045 -274.220258 
L 369.906227 -274.220258 
L 362.942409 -274.220258 
L 355.978591 -274.220258 
L 349.014773 -274.220258 
L 342.050955 -274.220258 
L 335.087136 -274.220258 
L 328.123318 -274.220258 
L 321.1595 -274.220258 
L 314.195682 -274.220258 
L 307.231864 -274.220258 
L 300.268045 -274.220258 
L 293.304227 -274.220258 
L 286.340409 -274.220258 
L 279.376591 -274.220258 
L 272.412773 -274.220258 
L 265.448955 -274.220258 
L 258.485136 -274.220258 
L 251.521318 -274.220258 
L 244.5575 -274.220258 
L 237.593682 -274.220258 
L 230.629864 -274.220258 
L 223.666045 -274.220258 
L 216.702227 -274.220258 
L 209.738409 -274.220258 
L 202.774591 -274.220258 
L 195.810773 -274.220258 
L 188.846955 -274.220258 
L 181.883136 -274.220258 
L 174.919318 -274.220258 
L 167.9555 -274.220258 
L 160.991682 -274.220258 
L 154.027864 -274.220258 
L 147.064045 -274.220258 
L 140.100227 -274.220258 
L 133.136409 -274.220258 
L 126.172591 -274.220258 
L 119.208773 -274.220258 
L 112.244955 -274.220258 
L 105.281136 -274.220258 
L 98.317318 -274.220258 
L 91.3535 -274.220258 
L 84.389682 -274.220258 
L 77.425864 -274.220258 
L 70.462045 -274.220258 
z
" style="stroke: #000080; stroke-opacity: 0.2"/>
    </defs>
    <g clip-path="url(#p5bb8bd90bf)">
     <use xlink:href="#m2c77cbaeab" x="0" y="325.85" style="fill: #000080; fill-opacity: 0.2; stroke: #000080; stroke-opacity: 0.2"/>
    </g>
   </g>
   <g id="matplotlib.axis_1"/>
   <g id="matplotlib.axis_2"/>
   <g id="line2d_1">
    <path d="M 70.462045 9.315702 
L 77.425864 9.315702 
L 84.389682 9.315702 
L 91.3535 9.315702 
L 98.317318 9.315702 
L 105.281136 9.315702 
L 112.244955 9.315702 
L 119.208773 9.315702 
L 126.172591 9.315702 
L 133.136409 9.315702 
L 140.100227 9.315702 
L 147.064045 9.315702 
L 154.027864 10.251148 
L 160.991682 11.457518 
L 167.9555 12.85867 
L 174.919318 14.45257 
L 181.883136 16.224758 
L 188.846955 18.147577 
L 195.810773 20.181475 
L 202.774591 22.27836 
L 209.738409 24.38643 
L 216.702227 26.455468 
L 223.666045 28.441474 
L 230.629864 30.309796 
L 237.593682 32.036508 
L 244.5575 33.608121 
L 251.521318 35.020219 
L 258.485136 36.275537 
L 265.448955 37.381883 
L 272.412773 38.350311 
L 279.376591 39.193643 
L 286.340409 39.925368 
L 293.304227 40.55892 
L 300.268045 41.107209 
L 307.231864 41.582388 
L 314.195682 41.995749 
L 321.1595 42.357726 
L 328.123318 42.677931 
L 335.087136 42.965206 
L 342.050955 43.227696 
L 349.014773 43.472882 
L 355.978591 43.707623 
L 362.942409 43.93813 
L 369.906227 44.169957 
L 376.870045 44.407936 
L 383.833864 44.656115 
L 390.797682 44.917692 
L 397.7615 45.194919 
L 404.725318 45.489044 
L 411.689136 45.800266 
L 418.652955 46.127729 
" clip-path="url(#p5bb8bd90bf)" style="fill: none; stroke: #dc143c; stroke-width: 1.5; stroke-linecap: square"/>
   </g>
   <g id="line2d_2">
    <path d="M 70.462045 46.928182 
L 77.425864 46.928182 
L 84.389682 46.928182 
L 91.3535 46.928182 
L 98.317318 46.928182 
L 105.281136 46.928182 
L 112.244955 46.928182 
L 119.208773 46.928182 
L 126.172591 46.928182 
L 133.136409 46.928182 
L 140.100227 46.928182 
L 147.064045 46.928182 
L 154.027864 45.992736 
L 160.991682 44.786366 
L 167.9555 43.385214 
L 174.919318 41.791314 
L 181.883136 40.019126 
L 188.846955 38.096307 
L 195.810773 36.062409 
L 202.774591 33.965524 
L 209.738409 31.857454 
L 216.702227 29.788416 
L 223.666045 27.80241 
L 230.629864 25.934088 
L 237.593682 24.207376 
L 244.5575 22.635763 
L 251.521318 21.223665 
L 258.485136 19.968347 
L 265.448955 18.862001 
L 272.412773 17.893573 
L 279.376591 17.050241 
L 286.340409 16.318516 
L 293.304227 15.684964 
L 300.268045 15.136675 
L 307.231864 14.661496 
L 314.195682 14.248135 
L 321.1595 13.886158 
L 328.123318 13.565953 
L 335.087136 13.278678 
L 342.050955 13.016188 
L 349.014773 12.771002 
L 355.978591 12.536261 
L 362.942409 12.305754 
L 369.906227 12.073927 
L 376.870045 11.835948 
L 383.833864 11.587769 
L 390.797682 11.326192 
L 397.7615 11.048965 
L 404.725318 10.75484 
L 411.689136 10.443618 
L 418.652955 10.116155 
" clip-path="url(#p5bb8bd90bf)" style="fill: none; stroke: #000080; stroke-width: 1.5; stroke-linecap: square"/>
   </g>
  </g>
  <g id="axes_2">
   <g id="patch_3">
    <path d="M 53.0525 165.212722 
L 436.0625 165.212722 
L 436.0625 72.121834 
L 53.0525 72.121834 
z
" style="fill: #ffffff"/>
   </g>
   <g id="PathCollection_1">
    <defs>
     <path id="meb0b35f18a" d="M 0 0.866025 
C 0.229673 0.866025 0.449969 0.774776 0.612372 0.612372 
C 0.774776 0.449969 0.866025 0.229673 0.866025 0 
C 0.866025 -0.229673 0.774776 -0.449969 0.612372 -0.612372 
C 0.449969 -0.774776 0.229673 -0.866025 0 -0.866025 
C -0.229673 -0.866025 -0.449969 -0.774776 -0.612372 -0.612372 
C -0.774776 -0.449969 -0.866025 -0.229673 -0.866025 0 
C -0.866025 0.229673 -0.774776 0.449969 -0.612372 0.612372 
C -0.449969 0.774776 -0.229673 0.866025 0 0.866025 
z
" style="stroke: #daa520"/>
    </defs>
    <g clip-path="url(#p7b80b38e03)">
     <use xlink:href="#meb0b35f18a" x="106.582058" y="101.196136" style="fill: #daa520; stroke: #daa520"/>
     <use xlink:href="#meb0b35f18a" x="161.335721" y="104.747666" style="fill: #daa520; stroke: #daa520"/>
     <use xlink:href="#meb0b35f18a" x="216.769019" y="97.786682" style="fill: #daa520; stroke: #daa520"/>
     <use xlink:href="#meb0b35f18a" x="378.667241" y="98.498917" style="fill: #daa520; stroke: #daa520"/>
     <use xlink:href="#meb0b35f18a" x="74.547133" y="90.610857" style="fill: #daa520; stroke: #daa520"/>
     <use xlink:href="#meb0b35f18a" x="186.155067" y="110.88664" style="fill: #daa520; stroke: #daa520"/>
     <use xlink:href="#meb0b35f18a" x="176.840386" y="106.047056" style="fill: #daa520; stroke: #daa520"/>
     <use xlink:href="#meb0b35f18a" x="77.117013" y="95.227168" style="fill: #daa520; stroke: #daa520"/>
     <use xlink:href="#meb0b35f18a" x="218.531786" y="102.816791" style="fill: #daa520; stroke: #daa520"/>
     <use xlink:href="#meb0b35f18a" x="105.256029" y="112.910045" style="fill: #daa520; stroke: #daa520"/>
     <use xlink:href="#meb0b35f18a" x="123.183663" y="78.093206" style="fill: #daa520; stroke: #daa520"/>
     <use xlink:href="#meb0b35f18a" x="198.329069" y="114.067973" style="fill: #daa520; stroke: #daa520"/>
     <use xlink:href="#meb0b35f18a" x="319.305389" y="116.872188" style="fill: #daa520; stroke: #daa520"/>
     <use xlink:href="#meb0b35f18a" x="173.692811" y="101.939048" style="fill: #daa520; stroke: #daa520"/>
     <use xlink:href="#meb0b35f18a" x="192.754386" y="102.890565" style="fill: #daa520; stroke: #daa520"/>
     <use xlink:href="#meb0b35f18a" x="182.853813" y="111.779855" style="fill: #daa520; stroke: #daa520"/>
     <use xlink:href="#meb0b35f18a" x="124.206182" y="95.767211" style="fill: #daa520; stroke: #daa520"/>
     <use xlink:href="#meb0b35f18a" x="217.812026" y="100.151141" style="fill: #daa520; stroke: #daa520"/>
     <use xlink:href="#meb0b35f18a" x="78.621958" y="101.510482" style="fill: #daa520; stroke: #daa520"/>
     <use xlink:href="#meb0b35f18a" x="138.581272" y="98.991501" style="fill: #daa520; stroke: #daa520"/>
     <use xlink:href="#meb0b35f18a" x="79.518222" y="87.867325" style="fill: #daa520; stroke: #daa520"/>
     <use xlink:href="#meb0b35f18a" x="220.606276" y="117.797369" style="fill: #daa520; stroke: #daa520"/>
     <use xlink:href="#meb0b35f18a" x="93.203518" y="107.945426" style="fill: #daa520; stroke: #daa520"/>
     <use xlink:href="#meb0b35f18a" x="104.923458" y="80.824226" style="fill: #daa520; stroke: #daa520"/>
     <use xlink:href="#meb0b35f18a" x="187.545002" y="107.265662" style="fill: #daa520; stroke: #daa520"/>
     <use xlink:href="#meb0b35f18a" x="162.134416" y="100.241484" style="fill: #daa520; stroke: #daa520"/>
     <use xlink:href="#meb0b35f18a" x="397.143474" y="109.266622" style="fill: #daa520; stroke: #daa520"/>
     <use xlink:href="#meb0b35f18a" x="86.008975" y="83.960832" style="fill: #daa520; stroke: #daa520"/>
     <use xlink:href="#meb0b35f18a" x="294.875708" y="112.017967" style="fill: #daa520; stroke: #daa520"/>
     <use xlink:href="#meb0b35f18a" x="116.477316" y="87.771629" style="fill: #daa520; stroke: #daa520"/>
     <use xlink:href="#meb0b35f18a" x="366.705433" y="100.418939" style="fill: #daa520; stroke: #daa520"/>
     <use xlink:href="#meb0b35f18a" x="150.833569" y="98.276862" style="fill: #daa520; stroke: #daa520"/>
     <use xlink:href="#meb0b35f18a" x="97.877227" y="80.238196" style="fill: #daa520; stroke: #daa520"/>
     <use xlink:href="#meb0b35f18a" x="75.137827" y="98.804707" style="fill: #daa520; stroke: #daa520"/>
     <use xlink:href="#meb0b35f18a" x="396.334779" y="104.009458" style="fill: #daa520; stroke: #daa520"/>
     <use xlink:href="#meb0b35f18a" x="266.002843" y="110.279385" style="fill: #daa520; stroke: #daa520"/>
     <use xlink:href="#meb0b35f18a" x="96.555644" y="108.525521" style="fill: #daa520; stroke: #daa520"/>
     <use xlink:href="#meb0b35f18a" x="170.171575" y="112.592523" style="fill: #daa520; stroke: #daa520"/>
     <use xlink:href="#meb0b35f18a" x="119.990124" y="88.133019" style="fill: #daa520; stroke: #daa520"/>
     <use xlink:href="#meb0b35f18a" x="118.451449" y="86.594327" style="fill: #daa520; stroke: #daa520"/>
     <use xlink:href="#meb0b35f18a" x="97.721801" y="108.859903" style="fill: #daa520; stroke: #daa520"/>
     <use xlink:href="#meb0b35f18a" x="102.522216" y="79.814617" style="fill: #daa520; stroke: #daa520"/>
     <use xlink:href="#meb0b35f18a" x="133.490064" y="85.618097" style="fill: #daa520; stroke: #daa520"/>
     <use xlink:href="#meb0b35f18a" x="82.238636" y="96.172623" style="fill: #daa520; stroke: #daa520"/>
     <use xlink:href="#meb0b35f18a" x="71.294805" y="96.594093" style="fill: #daa520; stroke: #daa520"/>
     <use xlink:href="#meb0b35f18a" x="79.125136" y="101.922851" style="fill: #daa520; stroke: #daa520"/>
     <use xlink:href="#meb0b35f18a" x="395.865013" y="104.624114" style="fill: #daa520; stroke: #daa520"/>
     <use xlink:href="#meb0b35f18a" x="184.928486" y="105.418379" style="fill: #daa520; stroke: #daa520"/>
     <use xlink:href="#meb0b35f18a" x="119.823243" y="76.353238" style="fill: #daa520; stroke: #daa520"/>
     <use xlink:href="#meb0b35f18a" x="136.384315" y="99.981889" style="fill: #daa520; stroke: #daa520"/>
     <use xlink:href="#meb0b35f18a" x="136.154679" y="87.247306" style="fill: #daa520; stroke: #daa520"/>
     <use xlink:href="#meb0b35f18a" x="196.122887" y="113.097939" style="fill: #daa520; stroke: #daa520"/>
     <use xlink:href="#meb0b35f18a" x="271.87042" y="113.672474" style="fill: #daa520; stroke: #daa520"/>
     <use xlink:href="#meb0b35f18a" x="73.942893" y="98.343747" style="fill: #daa520; stroke: #daa520"/>
     <use xlink:href="#meb0b35f18a" x="123.119155" y="82.68026" style="fill: #daa520; stroke: #daa520"/>
     <use xlink:href="#meb0b35f18a" x="166.499331" y="107.209692" style="fill: #daa520; stroke: #daa520"/>
     <use xlink:href="#meb0b35f18a" x="80.499568" y="102.750549" style="fill: #daa520; stroke: #daa520"/>
     <use xlink:href="#meb0b35f18a" x="334.39143" y="106.269067" style="fill: #daa520; stroke: #daa520"/>
     <use xlink:href="#meb0b35f18a" x="74.891623" y="106.445604" style="fill: #daa520; stroke: #daa520"/>
     <use xlink:href="#meb0b35f18a" x="145.679819" y="87.812178" style="fill: #daa520; stroke: #daa520"/>
     <use xlink:href="#meb0b35f18a" x="95.362416" y="91.208557" style="fill: #daa520; stroke: #daa520"/>
     <use xlink:href="#meb0b35f18a" x="126.582986" y="95.525843" style="fill: #daa520; stroke: #daa520"/>
     <use xlink:href="#meb0b35f18a" x="401.85089" y="114.568923" style="fill: #daa520; stroke: #daa520"/>
     <use xlink:href="#meb0b35f18a" x="177.341312" y="106.607779" style="fill: #daa520; stroke: #daa520"/>
     <use xlink:href="#meb0b35f18a" x="181.134791" y="102.738418" style="fill: #daa520; stroke: #daa520"/>
     <use xlink:href="#meb0b35f18a" x="160.744736" y="103.597633" style="fill: #daa520; stroke: #daa520"/>
     <use xlink:href="#meb0b35f18a" x="179.01888" y="105.434299" style="fill: #daa520; stroke: #daa520"/>
     <use xlink:href="#meb0b35f18a" x="78.325441" y="97.577731" style="fill: #daa520; stroke: #daa520"/>
     <use xlink:href="#meb0b35f18a" x="303.189534" y="103.417987" style="fill: #daa520; stroke: #daa520"/>
     <use xlink:href="#meb0b35f18a" x="184.448184" y="109.694543" style="fill: #daa520; stroke: #daa520"/>
     <use xlink:href="#meb0b35f18a" x="158.498272" y="95.700286" style="fill: #daa520; stroke: #daa520"/>
     <use xlink:href="#meb0b35f18a" x="222.721444" y="107.724904" style="fill: #daa520; stroke: #daa520"/>
     <use xlink:href="#meb0b35f18a" x="196.507054" y="115.091367" style="fill: #daa520; stroke: #daa520"/>
     <use xlink:href="#meb0b35f18a" x="164.859374" y="97.754891" style="fill: #daa520; stroke: #daa520"/>
     <use xlink:href="#meb0b35f18a" x="198.064784" y="101.730526" style="fill: #daa520; stroke: #daa520"/>
     <use xlink:href="#meb0b35f18a" x="107.019616" y="79.227972" style="fill: #daa520; stroke: #daa520"/>
     <use xlink:href="#meb0b35f18a" x="91.961959" y="107.634591" style="fill: #daa520; stroke: #daa520"/>
     <use xlink:href="#meb0b35f18a" x="209.122722" y="122.293822" style="fill: #daa520; stroke: #daa520"/>
     <use xlink:href="#meb0b35f18a" x="125.82835" y="100.95796" style="fill: #daa520; stroke: #daa520"/>
     <use xlink:href="#meb0b35f18a" x="216.681667" y="121.644568" style="fill: #daa520; stroke: #daa520"/>
     <use xlink:href="#meb0b35f18a" x="204.004862" y="100.392318" style="fill: #daa520; stroke: #daa520"/>
     <use xlink:href="#meb0b35f18a" x="196.155194" y="110.530671" style="fill: #daa520; stroke: #daa520"/>
     <use xlink:href="#meb0b35f18a" x="147.845659" y="101.18288" style="fill: #daa520; stroke: #daa520"/>
     <use xlink:href="#meb0b35f18a" x="264.828477" y="108.121083" style="fill: #daa520; stroke: #daa520"/>
     <use xlink:href="#meb0b35f18a" x="210.307125" y="99.863025" style="fill: #daa520; stroke: #daa520"/>
     <use xlink:href="#meb0b35f18a" x="71.107131" y="97.370362" style="fill: #daa520; stroke: #daa520"/>
     <use xlink:href="#meb0b35f18a" x="227.734132" y="109.878739" style="fill: #daa520; stroke: #daa520"/>
     <use xlink:href="#meb0b35f18a" x="173.461885" y="104.511294" style="fill: #daa520; stroke: #daa520"/>
     <use xlink:href="#meb0b35f18a" x="212.755019" y="98.561148" style="fill: #daa520; stroke: #daa520"/>
    </g>
   </g>
   <g id="matplotlib.axis_3"/>
   <g id="matplotlib.axis_4">
    <g id="ytick_1">
     <g id="line2d_3">
      <defs>
       <path id="m0d857220a9" d="M 0 0 
L -3.5 0 
" style="stroke: #696969; stroke-width: 0.8"/>
      </defs>
      <g>
       <use xlink:href="#m0d857220a9" x="53.0525" y="157.577271" style="fill: #696969; stroke: #696969; stroke-width: 0.8"/>
      </g>
     </g>
     <g id="text_1">
      <!-- −10 -->
      <g style="fill: #696969" transform="translate(12.285 163.656021) scale(0.16 -0.16)">
       <defs>
        <path id="DejaVuSans-2212" d="M 678 2272 
L 4684 2272 
L 4684 1741 
L 678 1741 
L 678 2272 
z
" transform="scale(0.015625)"/>
        <path id="DejaVuSans-31" d="M 794 531 
L 1825 531 
L 1825 4091 
L 703 3866 
L 703 4441 
L 1819 4666 
L 2450 4666 
L 2450 531 
L 3481 531 
L 3481 0 
L 794 0 
L 794 531 
z
" transform="scale(0.015625)"/>
        <path id="DejaVuSans-30" d="M 2034 4250 
Q 1547 4250 1301 3770 
Q 1056 3291 1056 2328 
Q 1056 1369 1301 889 
Q 1547 409 2034 409 
Q 2525 409 2770 889 
Q 3016 1369 3016 2328 
Q 3016 3291 2770 3770 
Q 2525 4250 2034 4250 
z
M 2034 4750 
Q 2819 4750 3233 4129 
Q 3647 3509 3647 2328 
Q 3647 1150 3233 529 
Q 2819 -91 2034 -91 
Q 1250 -91 836 529 
Q 422 1150 422 2328 
Q 422 3509 836 4129 
Q 1250 4750 2034 4750 
z
" transform="scale(0.015625)"/>
       </defs>
       <use xlink:href="#DejaVuSans-2212"/>
       <use xlink:href="#DejaVuSans-31" x="83.789062"/>
       <use xlink:href="#DejaVuSans-30" x="147.412109"/>
      </g>
     </g>
    </g>
    <g id="ytick_2">
     <g id="line2d_4">
      <g>
       <use xlink:href="#m0d857220a9" x="53.0525" y="107.750664" style="fill: #696969; stroke: #696969; stroke-width: 0.8"/>
      </g>
     </g>
     <g id="text_2">
      <!-- 0 -->
      <g style="fill: #696969" transform="translate(35.8725 113.829414) scale(0.16 -0.16)">
       <use xlink:href="#DejaVuSans-30"/>
      </g>
     </g>
    </g>
   </g>
   <g id="line2d_5">
    <path d="M 70.462045 100.345593 
L 77.425864 99.223681 
L 84.389682 98.120401 
L 91.3535 96.924571 
L 98.317318 95.61349 
L 105.281136 94.271223 
L 112.244955 93.06989 
L 119.208773 92.223021 
L 126.172591 91.927737 
L 133.136409 92.314547 
L 140.100227 93.418846 
L 147.064045 95.177899 
L 154.027864 97.44646 
L 160.991682 100.019446 
L 167.9555 102.654613 
L 174.919318 105.098078 
L 181.883136 107.121333 
L 188.846955 108.571969 
L 195.810773 109.423737 
L 202.774591 109.797717 
L 209.738409 109.930568 
L 216.702227 110.091183 
L 223.666045 110.478537 
L 230.629864 111.148567 
L 237.593682 112.004156 
L 244.5575 112.84886 
L 251.521318 113.474178 
L 258.485136 113.739989 
L 265.448955 113.619316 
L 272.412773 113.199463 
L 279.376591 112.648387 
L 286.340409 112.161826 
L 293.304227 111.906192 
L 300.268045 111.968936 
L 307.231864 112.325555 
L 314.195682 112.83085 
L 321.1595 113.240801 
L 328.123318 113.26802 
L 335.087136 112.666023 
L 342.050955 111.324748 
L 349.014773 109.345938 
L 355.978591 107.061932 
L 362.942409 104.974308 
L 369.906227 103.620173 
L 376.870045 103.409552 
L 383.833864 104.4954 
L 390.797682 106.724736 
L 397.7615 109.682321 
L 404.725318 112.800139 
L 411.689136 115.488729 
L 418.652955 117.253607 
" clip-path="url(#p7b80b38e03)" style="fill: none; stroke: #000000; stroke-width: 2; stroke-linecap: square"/>
   </g>
   <g id="line2d_6">
    <path d="M 70.462045 95.488459 
L 77.425864 98.725596 
L 84.389682 98.201162 
L 91.3535 96.034057 
L 98.317318 93.560432 
L 105.281136 91.549108 
L 112.244955 90.370928 
L 119.208773 90.129686 
L 126.172591 90.761334 
L 133.136409 92.107308 
L 140.100227 93.967017 
L 147.064045 96.133823 
L 154.027864 98.418177 
L 160.991682 100.661015 
L 167.9555 102.739948 
L 174.919318 104.570347 
L 181.883136 106.103 
L 188.846955 107.319644 
L 195.810773 108.227386 
L 202.774591 108.852742 
L 209.738409 109.235806 
L 216.702227 109.424887 
L 223.666045 109.471796 
L 230.629864 109.427856 
L 237.593682 109.340636 
L 244.5575 109.251343 
L 251.521318 109.192796 
L 258.485136 109.187881 
L 265.448955 109.248429 
L 272.412773 109.374443 
L 279.376591 109.553698 
L 286.340409 109.761734 
L 293.304227 109.962367 
L 300.268045 110.108882 
L 307.231864 110.146122 
L 314.195682 110.013789 
L 321.1595 109.651287 
L 328.123318 109.004495 
L 335.087136 108.034923 
L 342.050955 106.731657 
L 349.014773 105.12659 
L 355.978591 103.31333 
L 362.942409 101.470209 
L 369.906227 99.88769 
L 376.870045 99.000412 
L 383.833864 99.423962 
L 390.797682 101.9963 
L 397.7615 107.823556 
L 404.725318 118.32968 
L 411.689136 135.309109 
L 418.652955 160.981318 
" clip-path="url(#p7b80b38e03)" style="fill: none; stroke-dasharray: 7.4,3.2; stroke-dashoffset: 0; stroke: #34b6c6; stroke-width: 2"/>
   </g>
   <g id="line2d_7">
    <path d="M 70.462045 98.013081 
L 77.425864 97.357152 
L 84.389682 96.898535 
L 91.3535 96.463885 
L 98.317318 95.755753 
L 105.281136 94.346221 
L 112.244955 92.382914 
L 119.208773 90.883635 
L 126.172591 90.199929 
L 133.136409 90.446126 
L 140.100227 92.02266 
L 147.064045 94.40296 
L 154.027864 96.528121 
L 160.991682 98.639798 
L 167.9555 101.203489 
L 174.919318 103.966536 
L 181.883136 106.321869 
L 188.846955 107.864409 
L 195.810773 108.633903 
L 202.774591 108.936012 
L 209.738409 109.076651 
L 216.702227 109.283433 
L 223.666045 109.69643 
L 230.629864 110.307887 
L 237.593682 110.935675 
L 244.5575 111.376458 
L 251.521318 111.566982 
L 258.485136 111.55829 
L 265.448955 111.424806 
L 272.412773 111.222706 
L 279.376591 110.986746 
L 286.340409 110.736818 
L 293.304227 110.483677 
L 300.268045 110.232538 
L 307.231864 109.985143 
L 314.195682 109.740665 
L 321.1595 109.495079 
L 328.123318 109.23681 
L 335.087136 108.929641 
L 342.050955 108.442979 
L 349.014773 107.301731 
L 355.978591 104.782782 
L 362.942409 102.574501 
L 369.906227 101.942272 
L 376.870045 101.981764 
L 383.833864 102.382682 
L 390.797682 103.644535 
L 397.7615 107.280931 
L 404.725318 111.356013 
L 411.689136 113.710189 
L 418.652955 115.803569 
" clip-path="url(#p7b80b38e03)" style="fill: none; stroke-dasharray: 7.4,3.2; stroke-dashoffset: 0; stroke: #9370db; stroke-width: 2"/>
   </g>
   <g id="line2d_8">
    <path d="M 70.462045 97.437137 
L 77.425864 97.387327 
L 84.389682 97.281334 
L 91.3535 97.029624 
L 98.317318 96.400698 
L 105.281136 95.019468 
L 112.244955 93.061042 
L 119.208773 91.54168 
L 126.172591 90.81941 
L 133.136409 91.015229 
L 140.100227 92.526048 
L 147.064045 94.840063 
L 154.027864 96.923345 
L 160.991682 99.011959 
L 167.9555 101.560007 
L 174.919318 104.319211 
L 181.883136 106.694668 
L 188.846955 108.288834 
L 195.810773 109.138968 
L 202.774591 109.542317 
L 209.738409 109.796487 
L 216.702227 110.122664 
L 223.666045 110.656594 
L 230.629864 111.389641 
L 237.593682 112.142836 
L 244.5575 112.716565 
L 251.521318 113.048198 
L 258.485136 113.186869 
L 265.448955 113.204586 
L 272.412773 113.155524 
L 279.376591 113.072885 
L 286.340409 112.975274 
L 293.304227 112.872248 
L 300.268045 112.767767 
L 307.231864 112.662136 
L 314.195682 112.55278 
L 321.1595 112.433472 
L 328.123318 112.289891 
L 335.087136 112.08264 
L 342.050955 111.678721 
L 349.014773 110.606584 
L 355.978591 108.149787 
L 362.942409 105.945616 
L 369.906227 105.213541 
L 376.870045 105.046542 
L 383.833864 105.110687 
L 390.797682 105.853792 
L 397.7615 108.702321 
L 404.725318 111.69514 
L 411.689136 112.632132 
L 418.652955 112.825625 
" clip-path="url(#p7b80b38e03)" style="fill: none; stroke-dasharray: 12.8,3.2,2,3.2; stroke-dashoffset: 0; stroke: #ff0000; stroke-width: 2"/>
   </g>
   <g id="patch_4">
    <path d="M 53.0525 165.212722 
L 53.0525 72.121834 
" style="fill: none; stroke: #000000; stroke-width: 0.8; stroke-linejoin: miter; stroke-linecap: square"/>
   </g>
   <g id="patch_5">
    <path d="M 436.0625 165.212722 
L 436.0625 72.121834 
" style="fill: none; stroke: #000000; stroke-width: 0.8; stroke-linejoin: miter; stroke-linecap: square"/>
   </g>
   <g id="patch_6">
    <path d="M 53.0525 165.212722 
L 436.0625 165.212722 
" style="fill: none; stroke: #000000; stroke-width: 0.8; stroke-linejoin: miter; stroke-linecap: square"/>
   </g>
   <g id="patch_7">
    <path d="M 53.0525 72.121834 
L 436.0625 72.121834 
" style="fill: none; stroke: #000000; stroke-width: 0.8; stroke-linejoin: miter; stroke-linecap: square"/>
   </g>
  </g>
  <g id="axes_3">
   <g id="patch_8">
    <path d="M 53.0525 276.68 
L 436.0625 276.68 
L 436.0625 183.589112 
L 53.0525 183.589112 
z
" style="fill: #ffffff"/>
   </g>
   <g id="PathCollection_2">
    <g clip-path="url(#p5c0f4aec9f)">
     <use xlink:href="#meb0b35f18a" x="106.582058" y="216.006295" style="fill: #daa520; stroke: #daa520"/>
     <use xlink:href="#meb0b35f18a" x="161.335721" y="218.24903" style="fill: #daa520; stroke: #daa520"/>
     <use xlink:href="#meb0b35f18a" x="216.769019" y="262.818715" style="fill: #daa520; stroke: #daa520"/>
     <use xlink:href="#meb0b35f18a" x="378.667241" y="248.427541" style="fill: #daa520; stroke: #daa520"/>
     <use xlink:href="#meb0b35f18a" x="74.547133" y="249.074974" style="fill: #daa520; stroke: #daa520"/>
     <use xlink:href="#meb0b35f18a" x="186.155067" y="224.469618" style="fill: #daa520; stroke: #daa520"/>
     <use xlink:href="#meb0b35f18a" x="176.840386" y="229.69134" style="fill: #daa520; stroke: #daa520"/>
     <use xlink:href="#meb0b35f18a" x="77.117013" y="237.565947" style="fill: #daa520; stroke: #daa520"/>
     <use xlink:href="#meb0b35f18a" x="218.531786" y="250.618016" style="fill: #daa520; stroke: #daa520"/>
     <use xlink:href="#meb0b35f18a" x="105.256029" y="187.820516" style="fill: #daa520; stroke: #daa520"/>
     <use xlink:href="#meb0b35f18a" x="123.183663" y="264.309888" style="fill: #daa520; stroke: #daa520"/>
     <use xlink:href="#meb0b35f18a" x="198.329069" y="220.414751" style="fill: #daa520; stroke: #daa520"/>
     <use xlink:href="#meb0b35f18a" x="319.305389" y="221.266585" style="fill: #daa520; stroke: #daa520"/>
     <use xlink:href="#meb0b35f18a" x="173.692811" y="236.925823" style="fill: #daa520; stroke: #daa520"/>
     <use xlink:href="#meb0b35f18a" x="192.754386" y="246.962443" style="fill: #daa520; stroke: #daa520"/>
     <use xlink:href="#meb0b35f18a" x="182.853813" y="220.256854" style="fill: #daa520; stroke: #daa520"/>
     <use xlink:href="#meb0b35f18a" x="124.206182" y="220.230071" style="fill: #daa520; stroke: #daa520"/>
     <use xlink:href="#meb0b35f18a" x="217.812026" y="257.113399" style="fill: #daa520; stroke: #daa520"/>
     <use xlink:href="#meb0b35f18a" x="78.621958" y="221.935274" style="fill: #daa520; stroke: #daa520"/>
     <use xlink:href="#meb0b35f18a" x="138.581272" y="215.06175" style="fill: #daa520; stroke: #daa520"/>
     <use xlink:href="#meb0b35f18a" x="79.518222" y="255.762881" style="fill: #daa520; stroke: #daa520"/>
     <use xlink:href="#meb0b35f18a" x="220.606276" y="213.824049" style="fill: #daa520; stroke: #daa520"/>
     <use xlink:href="#meb0b35f18a" x="93.203518" y="204.824294" style="fill: #daa520; stroke: #daa520"/>
     <use xlink:href="#meb0b35f18a" x="104.923458" y="267.650183" style="fill: #daa520; stroke: #daa520"/>
     <use xlink:href="#meb0b35f18a" x="187.545002" y="234.154287" style="fill: #daa520; stroke: #daa520"/>
     <use xlink:href="#meb0b35f18a" x="162.134416" y="230.101413" style="fill: #daa520; stroke: #daa520"/>
     <use xlink:href="#meb0b35f18a" x="397.143474" y="229.97077" style="fill: #daa520; stroke: #daa520"/>
     <use xlink:href="#meb0b35f18a" x="86.008975" y="265.152112" style="fill: #daa520; stroke: #daa520"/>
     <use xlink:href="#meb0b35f18a" x="294.875708" y="234.259659" style="fill: #daa520; stroke: #daa520"/>
     <use xlink:href="#meb0b35f18a" x="116.477316" y="242.792892" style="fill: #daa520; stroke: #daa520"/>
     <use xlink:href="#meb0b35f18a" x="366.705433" y="244.631416" style="fill: #daa520; stroke: #daa520"/>
     <use xlink:href="#meb0b35f18a" x="150.833569" y="226.56765" style="fill: #daa520; stroke: #daa520"/>
     <use xlink:href="#meb0b35f18a" x="97.877227" y="272.448596" style="fill: #daa520; stroke: #daa520"/>
     <use xlink:href="#meb0b35f18a" x="75.137827" y="228.7315" style="fill: #daa520; stroke: #daa520"/>
     <use xlink:href="#meb0b35f18a" x="396.334779" y="241.958872" style="fill: #daa520; stroke: #daa520"/>
     <use xlink:href="#meb0b35f18a" x="266.002843" y="239.451798" style="fill: #daa520; stroke: #daa520"/>
     <use xlink:href="#meb0b35f18a" x="96.555644" y="202.646468" style="fill: #daa520; stroke: #daa520"/>
     <use xlink:href="#meb0b35f18a" x="170.171575" y="207.012005" style="fill: #daa520; stroke: #daa520"/>
     <use xlink:href="#meb0b35f18a" x="119.990124" y="240.35924" style="fill: #daa520; stroke: #daa520"/>
     <use xlink:href="#meb0b35f18a" x="118.451449" y="244.786663" style="fill: #daa520; stroke: #daa520"/>
     <use xlink:href="#meb0b35f18a" x="97.721801" y="201.475757" style="fill: #daa520; stroke: #daa520"/>
     <use xlink:href="#meb0b35f18a" x="102.522216" y="271.548154" style="fill: #daa520; stroke: #daa520"/>
     <use xlink:href="#meb0b35f18a" x="133.490064" y="245.697195" style="fill: #daa520; stroke: #daa520"/>
     <use xlink:href="#meb0b35f18a" x="82.238636" y="235.054381" style="fill: #daa520; stroke: #daa520"/>
     <use xlink:href="#meb0b35f18a" x="71.294805" y="234.27935" style="fill: #daa520; stroke: #daa520"/>
     <use xlink:href="#meb0b35f18a" x="79.125136" y="220.897401" style="fill: #daa520; stroke: #daa520"/>
     <use xlink:href="#meb0b35f18a" x="395.865013" y="239.841683" style="fill: #daa520; stroke: #daa520"/>
     <use xlink:href="#meb0b35f18a" x="184.928486" y="237.352443" style="fill: #daa520; stroke: #daa520"/>
     <use xlink:href="#meb0b35f18a" x="119.823243" y="269.651067" style="fill: #daa520; stroke: #daa520"/>
     <use xlink:href="#meb0b35f18a" x="136.384315" y="211.274453" style="fill: #daa520; stroke: #daa520"/>
     <use xlink:href="#meb0b35f18a" x="136.154679" y="242.754638" style="fill: #daa520; stroke: #daa520"/>
     <use xlink:href="#meb0b35f18a" x="196.122887" y="222.436838" style="fill: #daa520; stroke: #daa520"/>
     <use xlink:href="#meb0b35f18a" x="271.87042" y="230.928684" style="fill: #daa520; stroke: #daa520"/>
     <use xlink:href="#meb0b35f18a" x="73.942893" y="229.897308" style="fill: #daa520; stroke: #daa520"/>
     <use xlink:href="#meb0b35f18a" x="123.119155" y="252.94302" style="fill: #daa520; stroke: #daa520"/>
     <use xlink:href="#meb0b35f18a" x="166.499331" y="216.769479" style="fill: #daa520; stroke: #daa520"/>
     <use xlink:href="#meb0b35f18a" x="80.499568" y="218.799135" style="fill: #daa520; stroke: #daa520"/>
     <use xlink:href="#meb0b35f18a" x="334.39143" y="246.688435" style="fill: #daa520; stroke: #daa520"/>
     <use xlink:href="#meb0b35f18a" x="74.891623" y="209.77607" style="fill: #daa520; stroke: #daa520"/>
     <use xlink:href="#meb0b35f18a" x="145.679819" y="248.498226" style="fill: #daa520; stroke: #daa520"/>
     <use xlink:href="#meb0b35f18a" x="95.362416" y="245.917383" style="fill: #daa520; stroke: #daa520"/>
     <use xlink:href="#meb0b35f18a" x="126.582986" y="220.476085" style="fill: #daa520; stroke: #daa520"/>
     <use xlink:href="#meb0b35f18a" x="401.85089" y="222.689905" style="fill: #daa520; stroke: #daa520"/>
     <use xlink:href="#meb0b35f18a" x="177.341312" y="228.748076" style="fill: #daa520; stroke: #daa520"/>
     <use xlink:href="#meb0b35f18a" x="181.134791" y="241.466078" style="fill: #daa520; stroke: #daa520"/>
     <use xlink:href="#meb0b35f18a" x="160.744736" y="220.617779" style="fill: #daa520; stroke: #daa520"/>
     <use xlink:href="#meb0b35f18a" x="179.01888" y="233.102521" style="fill: #daa520; stroke: #daa520"/>
     <use xlink:href="#meb0b35f18a" x="78.325441" y="231.702276" style="fill: #daa520; stroke: #daa520"/>
     <use xlink:href="#meb0b35f18a" x="303.189534" y="255.289383" style="fill: #daa520; stroke: #daa520"/>
     <use xlink:href="#meb0b35f18a" x="184.448184" y="226.454977" style="fill: #daa520; stroke: #daa520"/>
     <use xlink:href="#meb0b35f18a" x="158.498272" y="238.454463" style="fill: #daa520; stroke: #daa520"/>
     <use xlink:href="#meb0b35f18a" x="222.721444" y="239.258854" style="fill: #daa520; stroke: #daa520"/>
     <use xlink:href="#meb0b35f18a" x="196.507054" y="217.564306" style="fill: #daa520; stroke: #daa520"/>
     <use xlink:href="#meb0b35f18a" x="164.859374" y="238.689567" style="fill: #daa520; stroke: #daa520"/>
     <use xlink:href="#meb0b35f18a" x="198.064784" y="250.987636" style="fill: #daa520; stroke: #daa520"/>
     <use xlink:href="#meb0b35f18a" x="107.019616" y="270.216501" style="fill: #daa520; stroke: #daa520"/>
     <use xlink:href="#meb0b35f18a" x="91.961959" y="205.796141" style="fill: #daa520; stroke: #daa520"/>
     <use xlink:href="#meb0b35f18a" x="209.122722" y="201.130961" style="fill: #daa520; stroke: #daa520"/>
     <use xlink:href="#meb0b35f18a" x="125.82835" y="207.082589" style="fill: #daa520; stroke: #daa520"/>
     <use xlink:href="#meb0b35f18a" x="216.681667" y="203.604592" style="fill: #daa520; stroke: #daa520"/>
     <use xlink:href="#meb0b35f18a" x="204.004862" y="255.023267" style="fill: #daa520; stroke: #daa520"/>
     <use xlink:href="#meb0b35f18a" x="196.155194" y="228.813619" style="fill: #daa520; stroke: #daa520"/>
     <use xlink:href="#meb0b35f18a" x="147.845659" y="217.085507" style="fill: #daa520; stroke: #daa520"/>
     <use xlink:href="#meb0b35f18a" x="264.828477" y="244.816802" style="fill: #daa520; stroke: #daa520"/>
     <use xlink:href="#meb0b35f18a" x="210.307125" y="256.900434" style="fill: #daa520; stroke: #daa520"/>
     <use xlink:href="#meb0b35f18a" x="71.107131" y="232.355609" style="fill: #daa520; stroke: #daa520"/>
     <use xlink:href="#meb0b35f18a" x="227.734132" y="235.152137" style="fill: #daa520; stroke: #daa520"/>
     <use xlink:href="#meb0b35f18a" x="173.461885" y="230.31836" style="fill: #daa520; stroke: #daa520"/>
     <use xlink:href="#meb0b35f18a" x="212.755019" y="260.380777" style="fill: #daa520; stroke: #daa520"/>
    </g>
   </g>
   <g id="matplotlib.axis_5">
    <g id="xtick_1">
     <g id="line2d_9">
      <defs>
       <path id="m59d90b6e7a" d="M 0 0 
L 0 3.5 
" style="stroke: #696969; stroke-width: 0.8"/>
      </defs>
      <g>
       <use xlink:href="#m59d90b6e7a" x="70.462045" y="276.68" style="fill: #696969; stroke: #696969; stroke-width: 0.8"/>
      </g>
     </g>
     <g id="text_3">
      <!-- −1.0 -->
      <g style="fill: #696969" transform="translate(51.035795 295.8375) scale(0.16 -0.16)">
       <defs>
        <path id="DejaVuSans-2e" d="M 684 794 
L 1344 794 
L 1344 0 
L 684 0 
L 684 794 
z
" transform="scale(0.015625)"/>
       </defs>
       <use xlink:href="#DejaVuSans-2212"/>
       <use xlink:href="#DejaVuSans-31" x="83.789062"/>
       <use xlink:href="#DejaVuSans-2e" x="147.412109"/>
       <use xlink:href="#DejaVuSans-30" x="179.199219"/>
      </g>
     </g>
    </g>
    <g id="xtick_2">
     <g id="line2d_10">
      <g>
       <use xlink:href="#m59d90b6e7a" x="157.509773" y="276.68" style="fill: #696969; stroke: #696969; stroke-width: 0.8"/>
      </g>
     </g>
     <g id="text_4">
      <!-- −0.5 -->
      <g style="fill: #696969" transform="translate(138.083523 295.8375) scale(0.16 -0.16)">
       <defs>
        <path id="DejaVuSans-35" d="M 691 4666 
L 3169 4666 
L 3169 4134 
L 1269 4134 
L 1269 2991 
Q 1406 3038 1543 3061 
Q 1681 3084 1819 3084 
Q 2600 3084 3056 2656 
Q 3513 2228 3513 1497 
Q 3513 744 3044 326 
Q 2575 -91 1722 -91 
Q 1428 -91 1123 -41 
Q 819 9 494 109 
L 494 744 
Q 775 591 1075 516 
Q 1375 441 1709 441 
Q 2250 441 2565 725 
Q 2881 1009 2881 1497 
Q 2881 1984 2565 2268 
Q 2250 2553 1709 2553 
Q 1456 2553 1204 2497 
Q 953 2441 691 2322 
L 691 4666 
z
" transform="scale(0.015625)"/>
       </defs>
       <use xlink:href="#DejaVuSans-2212"/>
       <use xlink:href="#DejaVuSans-30" x="83.789062"/>
       <use xlink:href="#DejaVuSans-2e" x="147.412109"/>
       <use xlink:href="#DejaVuSans-35" x="179.199219"/>
      </g>
     </g>
    </g>
    <g id="xtick_3">
     <g id="line2d_11">
      <g>
       <use xlink:href="#m59d90b6e7a" x="244.5575" y="276.68" style="fill: #696969; stroke: #696969; stroke-width: 0.8"/>
      </g>
     </g>
     <g id="text_5">
      <!-- 0.0 -->
      <g style="fill: #696969" transform="translate(231.835 295.8375) scale(0.16 -0.16)">
       <use xlink:href="#DejaVuSans-30"/>
       <use xlink:href="#DejaVuSans-2e" x="63.623047"/>
       <use xlink:href="#DejaVuSans-30" x="95.410156"/>
      </g>
     </g>
    </g>
    <g id="xtick_4">
     <g id="line2d_12">
      <g>
       <use xlink:href="#m59d90b6e7a" x="331.605227" y="276.68" style="fill: #696969; stroke: #696969; stroke-width: 0.8"/>
      </g>
     </g>
     <g id="text_6">
      <!-- 0.5 -->
      <g style="fill: #696969" transform="translate(318.882727 295.8375) scale(0.16 -0.16)">
       <use xlink:href="#DejaVuSans-30"/>
       <use xlink:href="#DejaVuSans-2e" x="63.623047"/>
       <use xlink:href="#DejaVuSans-35" x="95.410156"/>
      </g>
     </g>
    </g>
    <g id="xtick_5">
     <g id="line2d_13">
      <g>
       <use xlink:href="#m59d90b6e7a" x="418.652955" y="276.68" style="fill: #696969; stroke: #696969; stroke-width: 0.8"/>
      </g>
     </g>
     <g id="text_7">
      <!-- 1.0 -->
      <g style="fill: #696969" transform="translate(405.930455 295.8375) scale(0.16 -0.16)">
       <use xlink:href="#DejaVuSans-31"/>
       <use xlink:href="#DejaVuSans-2e" x="63.623047"/>
       <use xlink:href="#DejaVuSans-30" x="95.410156"/>
      </g>
     </g>
    </g>
    <g id="text_8">
     <!-- $X$ -->
     <g transform="translate(239.0375 315.3225) scale(0.16 -0.16)">
      <defs>
       <path id="DejaVuSans-Oblique-58" d="M 878 4666 
L 1516 4666 
L 2316 2981 
L 3763 4666 
L 4500 4666 
L 2578 2438 
L 3738 0 
L 3103 0 
L 2163 1966 
L 459 0 
L -275 0 
L 1906 2509 
L 878 4666 
z
" transform="scale(0.015625)"/>
      </defs>
      <use xlink:href="#DejaVuSans-Oblique-58" transform="translate(0 0.09375)"/>
     </g>
    </g>
   </g>
   <g id="matplotlib.axis_6">
    <g id="ytick_3">
     <g id="line2d_14">
      <g>
       <use xlink:href="#m0d857220a9" x="53.0525" y="263.108206" style="fill: #696969; stroke: #696969; stroke-width: 0.8"/>
      </g>
     </g>
     <g id="text_9">
      <!-- −2.5 -->
      <g style="fill: #696969" transform="translate(7.2 269.186956) scale(0.16 -0.16)">
       <defs>
        <path id="DejaVuSans-32" d="M 1228 531 
L 3431 531 
L 3431 0 
L 469 0 
L 469 531 
Q 828 903 1448 1529 
Q 2069 2156 2228 2338 
Q 2531 2678 2651 2914 
Q 2772 3150 2772 3378 
Q 2772 3750 2511 3984 
Q 2250 4219 1831 4219 
Q 1534 4219 1204 4116 
Q 875 4013 500 3803 
L 500 4441 
Q 881 4594 1212 4672 
Q 1544 4750 1819 4750 
Q 2544 4750 2975 4387 
Q 3406 4025 3406 3419 
Q 3406 3131 3298 2873 
Q 3191 2616 2906 2266 
Q 2828 2175 2409 1742 
Q 1991 1309 1228 531 
z
" transform="scale(0.015625)"/>
       </defs>
       <use xlink:href="#DejaVuSans-2212"/>
       <use xlink:href="#DejaVuSans-32" x="83.789062"/>
       <use xlink:href="#DejaVuSans-2e" x="147.412109"/>
       <use xlink:href="#DejaVuSans-35" x="179.199219"/>
      </g>
     </g>
    </g>
    <g id="ytick_4">
     <g id="line2d_15">
      <g>
       <use xlink:href="#m0d857220a9" x="53.0525" y="232.198179" style="fill: #696969; stroke: #696969; stroke-width: 0.8"/>
      </g>
     </g>
     <g id="text_10">
      <!-- 0.0 -->
      <g style="fill: #696969" transform="translate(20.6075 238.276929) scale(0.16 -0.16)">
       <use xlink:href="#DejaVuSans-30"/>
       <use xlink:href="#DejaVuSans-2e" x="63.623047"/>
       <use xlink:href="#DejaVuSans-30" x="95.410156"/>
      </g>
     </g>
    </g>
    <g id="ytick_5">
     <g id="line2d_16">
      <g>
       <use xlink:href="#m0d857220a9" x="53.0525" y="201.288151" style="fill: #696969; stroke: #696969; stroke-width: 0.8"/>
      </g>
     </g>
     <g id="text_11">
      <!-- 2.5 -->
      <g style="fill: #696969" transform="translate(20.6075 207.366901) scale(0.16 -0.16)">
       <use xlink:href="#DejaVuSans-32"/>
       <use xlink:href="#DejaVuSans-2e" x="63.623047"/>
       <use xlink:href="#DejaVuSans-35" x="95.410156"/>
      </g>
     </g>
    </g>
   </g>
   <g id="line2d_17">
    <path d="M 70.462045 224.981115 
L 77.425864 227.641437 
L 84.389682 230.116112 
L 91.3535 232.458859 
L 98.317318 234.15156 
L 105.281136 234.054878 
L 112.244955 232.176225 
L 119.208773 230.507495 
L 126.172591 229.447968 
L 133.136409 228.974043 
L 140.100227 229.982782 
L 147.064045 231.359869 
L 154.027864 230.900116 
L 160.991682 229.698194 
L 167.9555 229.482016 
L 174.919318 230.265491 
L 181.883136 231.139448 
L 188.846955 231.495604 
L 195.810773 231.49155 
L 202.774591 231.564429 
L 209.738409 231.865469 
L 216.702227 232.276296 
L 223.666045 232.640011 
L 230.629864 232.796382 
L 237.593682 232.542302 
L 244.5575 231.869902 
L 251.521318 231.141149 
L 258.485136 230.825661 
L 265.448955 231.169063 
L 272.412773 232.089148 
L 279.376591 233.251531 
L 286.340409 234.216675 
L 293.304227 234.595356 
L 300.268045 234.180403 
L 307.231864 233.033374 
L 314.195682 231.508173 
L 321.1595 230.194868 
L 328.123318 229.771043 
L 335.087136 230.750569 
L 342.050955 233.076529 
L 349.014773 235.326355 
L 355.978591 234.897588 
L 362.942409 234.60839 
L 369.906227 236.151975 
L 376.870045 236.260218 
L 383.833864 233.724955 
L 390.797682 230.03701 
L 397.7615 229.7664 
L 404.725318 229.456226 
L 411.689136 225.109798 
L 418.652955 221.210551 
" clip-path="url(#p5c0f4aec9f)" style="fill: none; stroke: #696969; stroke-width: 2; stroke-linecap: square"/>
   </g>
   <g id="line2d_18">
    <path d="M 70.462045 230.629357 
L 77.425864 232.304819 
L 84.389682 233.279902 
L 91.3535 233.774347 
L 98.317318 233.951799 
L 105.281136 233.932181 
L 112.244955 233.801711 
L 119.208773 233.620929 
L 126.172591 233.431082 
L 133.136409 233.259136 
L 140.100227 233.121677 
L 147.064045 233.027902 
L 154.027864 232.981877 
L 160.991682 232.984229 
L 167.9555 233.033367 
L 174.919318 233.126376 
L 181.883136 233.259624 
L 188.846955 233.429181 
L 195.810773 233.631093 
L 202.774591 233.861549 
L 209.738409 234.116969 
L 216.702227 234.394053 
L 223.666045 234.689791 
L 230.629864 235.001446 
L 237.593682 235.326536 
L 244.5575 235.66279 
L 251.521318 236.008116 
L 258.485136 236.360542 
L 265.448955 236.718171 
L 272.412773 237.07911 
L 279.376591 237.441395 
L 286.340409 237.8029 
L 293.304227 238.161212 
L 300.268045 238.513478 
L 307.231864 238.856198 
L 314.195682 239.184945 
L 321.1595 239.493993 
L 328.123318 239.775801 
L 335.087136 240.020331 
L 342.050955 240.21412 
L 349.014773 240.339051 
L 355.978591 240.370726 
L 362.942409 240.276325 
L 369.906227 240.011844 
L 376.870045 239.518527 
L 383.833864 238.718321 
L 390.797682 237.508142 
L 397.7615 235.752677 
L 404.725318 233.275446 
L 411.689136 229.847776 
L 418.652955 225.175302 
" clip-path="url(#p5c0f4aec9f)" style="fill: none; stroke-dasharray: 7.4,3.2; stroke-dashoffset: 0; stroke: #79ad41; stroke-width: 2"/>
   </g>
   <g id="patch_9">
    <path d="M 53.0525 276.68 
L 53.0525 183.589112 
" style="fill: none; stroke: #000000; stroke-width: 0.8; stroke-linejoin: miter; stroke-linecap: square"/>
   </g>
   <g id="patch_10">
    <path d="M 436.0625 276.68 
L 436.0625 183.589112 
" style="fill: none; stroke: #000000; stroke-width: 0.8; stroke-linejoin: miter; stroke-linecap: square"/>
   </g>
   <g id="patch_11">
    <path d="M 53.0525 276.68 
L 436.0625 276.68 
" style="fill: none; stroke: #000000; stroke-width: 0.8; stroke-linejoin: miter; stroke-linecap: square"/>
   </g>
   <g id="patch_12">
    <path d="M 53.0525 183.589112 
L 436.0625 183.589112 
" style="fill: none; stroke: #000000; stroke-width: 0.8; stroke-linejoin: miter; stroke-linecap: square"/>
   </g>
  </g>
 </g>
 <defs>
  <clipPath id="p5bb8bd90bf">
   <rect x="53.0525" y="7.2" width="383.01" height="46.545444"/>
  </clipPath>
  <clipPath id="p7b80b38e03">
   <rect x="53.0525" y="72.121834" width="383.01" height="93.090888"/>
  </clipPath>
  <clipPath id="p5c0f4aec9f">
   <rect x="53.0525" y="183.589112" width="383.01" height="93.090888"/>
  </clipPath>
 </defs>
</svg>
