<?xml version="1.0" encoding="utf-8" standalone="no"?>
<!DOCTYPE svg PUBLIC "-//W3C//DTD SVG 1.1//EN"
  "http://www.w3.org/Graphics/SVG/1.1/DTD/svg11.dtd">
<svg xmlns:xlink="http://www.w3.org/1999/xlink" width="443.2625pt" height="325.85pt" viewBox="0 0 443.2625 325.85" xmlns="http://www.w3.org/2000/svg" version="1.1">
 <metadata>
  <rdf:RDF xmlns:dc="http://purl.org/dc/elements/1.1/" xmlns:cc="http://creativecommons.org/ns#" xmlns:rdf="http://www.w3.org/1999/02/22-rdf-syntax-ns#">
   <cc:Work>
    <dc:type rdf:resource="http://purl.org/dc/dcmitype/StillImage"/>
    <dc:date>2024-01-28T20:57:10.578145</dc:date>
    <dc:format>image/svg+xml</dc:format>
    <dc:creator>
     <cc:Agent>
      <dc:title>Matplotlib v3.7.2, https://matplotlib.org/</dc:title>
     </cc:Agent>
    </dc:creator>
   </cc:Work>
  </rdf:RDF>
 </metadata>
 <defs>
  <style type="text/css">*{stroke-linejoin: round; stroke-linecap: butt}</style>
 </defs>
 <g id="figure_1">
  <g id="patch_1">
   <path d="M 0 325.85 
L 443.2625 325.85 
L 443.2625 0 
L 0 0 
z
" style="fill: #ffffff"/>
  </g>
  <g id="axes_1">
   <g id="patch_2">
    <path d="M 53.0525 54.696 
L 436.0625 54.696 
L 436.0625 7.2 
L 53.0525 7.2 
z
" style="fill: #ffffff"/>
   </g>
   <g id="PolyCollection_1">
    <defs>
     <path id="mc1b9ed73bf" d="M 70.462045 -273.312909 
L 70.462045 -316.491091 
L 77.425864 -316.491091 
L 84.389682 -316.491091 
L 91.3535 -316.491091 
L 98.317318 -316.491091 
L 105.281136 -316.491091 
L 112.244955 -316.491091 
L 119.208773 -316.491091 
L 126.172591 -316.491091 
L 133.136409 -316.491091 
L 140.100227 -316.491091 
L 147.064045 -316.491091 
L 154.027864 -315.536541 
L 160.991682 -314.305535 
L 167.9555 -312.875768 
L 174.919318 -311.249317 
L 181.883136 -309.440938 
L 188.846955 -307.47885 
L 195.810773 -305.403416 
L 202.774591 -303.263709 
L 209.738409 -301.112587 
L 216.702227 -299.001295 
L 223.666045 -296.974731 
L 230.629864 -295.068253 
L 237.593682 -293.306278 
L 244.5575 -291.702569 
L 251.521318 -290.261634 
L 258.485136 -288.980679 
L 265.448955 -287.851739 
L 272.412773 -286.863535 
L 279.376591 -286.002979 
L 286.340409 -285.256311 
L 293.304227 -284.60982 
L 300.268045 -284.050335 
L 307.231864 -283.565452 
L 314.195682 -283.143648 
L 321.1595 -282.774279 
L 328.123318 -282.447535 
L 335.087136 -282.154394 
L 342.050955 -281.886543 
L 349.014773 -281.636349 
L 355.978591 -281.396814 
L 362.942409 -281.1616 
L 369.906227 -280.925038 
L 376.870045 -280.6822 
L 383.833864 -280.428952 
L 390.797682 -280.162033 
L 397.7615 -279.879145 
L 404.725318 -279.579013 
L 411.689136 -279.261435 
L 418.652955 -278.927284 
L 418.652955 -273.312909 
L 418.652955 -273.312909 
L 411.689136 -273.312909 
L 404.725318 -273.312909 
L 397.7615 -273.312909 
L 390.797682 -273.312909 
L 383.833864 -273.312909 
L 376.870045 -273.312909 
L 369.906227 -273.312909 
L 362.942409 -273.312909 
L 355.978591 -273.312909 
L 349.014773 -273.312909 
L 342.050955 -273.312909 
L 335.087136 -273.312909 
L 328.123318 -273.312909 
L 321.1595 -273.312909 
L 314.195682 -273.312909 
L 307.231864 -273.312909 
L 300.268045 -273.312909 
L 293.304227 -273.312909 
L 286.340409 -273.312909 
L 279.376591 -273.312909 
L 272.412773 -273.312909 
L 265.448955 -273.312909 
L 258.485136 -273.312909 
L 251.521318 -273.312909 
L 244.5575 -273.312909 
L 237.593682 -273.312909 
L 230.629864 -273.312909 
L 223.666045 -273.312909 
L 216.702227 -273.312909 
L 209.738409 -273.312909 
L 202.774591 -273.312909 
L 195.810773 -273.312909 
L 188.846955 -273.312909 
L 181.883136 -273.312909 
L 174.919318 -273.312909 
L 167.9555 -273.312909 
L 160.991682 -273.312909 
L 154.027864 -273.312909 
L 147.064045 -273.312909 
L 140.100227 -273.312909 
L 133.136409 -273.312909 
L 126.172591 -273.312909 
L 119.208773 -273.312909 
L 112.244955 -273.312909 
L 105.281136 -273.312909 
L 98.317318 -273.312909 
L 91.3535 -273.312909 
L 84.389682 -273.312909 
L 77.425864 -273.312909 
L 70.462045 -273.312909 
z
" style="stroke: #dc143c; stroke-opacity: 0.2"/>
    </defs>
    <g clip-path="url(#pb35fbc652c)">
     <use xlink:href="#mc1b9ed73bf" x="0" y="325.85" style="fill: #dc143c; fill-opacity: 0.2; stroke: #dc143c; stroke-opacity: 0.2"/>
    </g>
   </g>
   <g id="PolyCollection_2">
    <defs>
     <path id="mdc9473f8bd" d="M 70.462045 -273.312909 
L 70.462045 -278.110485 
L 77.425864 -278.110485 
L 84.389682 -278.110485 
L 91.3535 -278.110485 
L 98.317318 -278.110485 
L 105.281136 -278.110485 
L 112.244955 -278.110485 
L 119.208773 -278.110485 
L 126.172591 -278.110485 
L 133.136409 -278.110485 
L 140.100227 -278.110485 
L 147.064045 -278.110485 
L 154.027864 -279.065035 
L 160.991682 -280.296041 
L 167.9555 -281.725807 
L 174.919318 -283.352259 
L 181.883136 -285.160638 
L 188.846955 -287.122725 
L 195.810773 -289.19816 
L 202.774591 -291.337867 
L 209.738409 -293.488989 
L 216.702227 -295.600281 
L 223.666045 -297.626845 
L 230.629864 -299.533323 
L 237.593682 -301.295297 
L 244.5575 -302.899007 
L 251.521318 -304.339942 
L 258.485136 -305.620897 
L 265.448955 -306.749837 
L 272.412773 -307.738041 
L 279.376591 -308.598596 
L 286.340409 -309.345265 
L 293.304227 -309.991755 
L 300.268045 -310.551241 
L 307.231864 -311.036124 
L 314.195682 -311.457928 
L 321.1595 -311.827297 
L 328.123318 -312.154041 
L 335.087136 -312.447182 
L 342.050955 -312.715033 
L 349.014773 -312.965226 
L 355.978591 -313.204762 
L 362.942409 -313.439976 
L 369.906227 -313.676537 
L 376.870045 -313.919376 
L 383.833864 -314.172623 
L 390.797682 -314.439543 
L 397.7615 -314.722431 
L 404.725318 -315.022563 
L 411.689136 -315.340141 
L 418.652955 -315.674291 
L 418.652955 -273.312909 
L 418.652955 -273.312909 
L 411.689136 -273.312909 
L 404.725318 -273.312909 
L 397.7615 -273.312909 
L 390.797682 -273.312909 
L 383.833864 -273.312909 
L 376.870045 -273.312909 
L 369.906227 -273.312909 
L 362.942409 -273.312909 
L 355.978591 -273.312909 
L 349.014773 -273.312909 
L 342.050955 -273.312909 
L 335.087136 -273.312909 
L 328.123318 -273.312909 
L 321.1595 -273.312909 
L 314.195682 -273.312909 
L 307.231864 -273.312909 
L 300.268045 -273.312909 
L 293.304227 -273.312909 
L 286.340409 -273.312909 
L 279.376591 -273.312909 
L 272.412773 -273.312909 
L 265.448955 -273.312909 
L 258.485136 -273.312909 
L 251.521318 -273.312909 
L 244.5575 -273.312909 
L 237.593682 -273.312909 
L 230.629864 -273.312909 
L 223.666045 -273.312909 
L 216.702227 -273.312909 
L 209.738409 -273.312909 
L 202.774591 -273.312909 
L 195.810773 -273.312909 
L 188.846955 -273.312909 
L 181.883136 -273.312909 
L 174.919318 -273.312909 
L 167.9555 -273.312909 
L 160.991682 -273.312909 
L 154.027864 -273.312909 
L 147.064045 -273.312909 
L 140.100227 -273.312909 
L 133.136409 -273.312909 
L 126.172591 -273.312909 
L 119.208773 -273.312909 
L 112.244955 -273.312909 
L 105.281136 -273.312909 
L 98.317318 -273.312909 
L 91.3535 -273.312909 
L 84.389682 -273.312909 
L 77.425864 -273.312909 
L 70.462045 -273.312909 
z
" style="stroke: #000080; stroke-opacity: 0.2"/>
    </defs>
    <g clip-path="url(#pb35fbc652c)">
     <use xlink:href="#mdc9473f8bd" x="0" y="325.85" style="fill: #000080; fill-opacity: 0.2; stroke: #000080; stroke-opacity: 0.2"/>
    </g>
   </g>
   <g id="matplotlib.axis_1"/>
   <g id="matplotlib.axis_2"/>
   <g id="line2d_1">
    <path d="M 70.462045 9.358909 
L 77.425864 9.358909 
L 84.389682 9.358909 
L 91.3535 9.358909 
L 98.317318 9.358909 
L 105.281136 9.358909 
L 112.244955 9.358909 
L 119.208773 9.358909 
L 126.172591 9.358909 
L 133.136409 9.358909 
L 140.100227 9.358909 
L 147.064045 9.358909 
L 154.027864 10.313459 
L 160.991682 11.544465 
L 167.9555 12.974232 
L 174.919318 14.600683 
L 181.883136 16.409062 
L 188.846955 18.37115 
L 195.810773 20.446584 
L 202.774591 22.586291 
L 209.738409 24.737413 
L 216.702227 26.848705 
L 223.666045 28.875269 
L 230.629864 30.781747 
L 237.593682 32.543722 
L 244.5575 34.147431 
L 251.521318 35.588366 
L 258.485136 36.869321 
L 265.448955 37.998261 
L 272.412773 38.986465 
L 279.376591 39.847021 
L 286.340409 40.593689 
L 293.304227 41.24018 
L 300.268045 41.799665 
L 307.231864 42.284548 
L 314.195682 42.706352 
L 321.1595 43.075721 
L 328.123318 43.402465 
L 335.087136 43.695606 
L 342.050955 43.963457 
L 349.014773 44.213651 
L 355.978591 44.453186 
L 362.942409 44.6884 
L 369.906227 44.924962 
L 376.870045 45.1678 
L 383.833864 45.421048 
L 390.797682 45.687967 
L 397.7615 45.970855 
L 404.725318 46.270987 
L 411.689136 46.588565 
L 418.652955 46.922716 
" clip-path="url(#pb35fbc652c)" style="fill: none; stroke: #dc143c; stroke-width: 1.5; stroke-linecap: square"/>
   </g>
   <g id="line2d_2">
    <path d="M 70.462045 47.739515 
L 77.425864 47.739515 
L 84.389682 47.739515 
L 91.3535 47.739515 
L 98.317318 47.739515 
L 105.281136 47.739515 
L 112.244955 47.739515 
L 119.208773 47.739515 
L 126.172591 47.739515 
L 133.136409 47.739515 
L 140.100227 47.739515 
L 147.064045 47.739515 
L 154.027864 46.784965 
L 160.991682 45.553959 
L 167.9555 44.124193 
L 174.919318 42.497741 
L 181.883136 40.689362 
L 188.846955 38.727275 
L 195.810773 36.65184 
L 202.774591 34.512133 
L 209.738409 32.361011 
L 216.702227 30.249719 
L 223.666045 28.223155 
L 230.629864 26.316677 
L 237.593682 24.554703 
L 244.5575 22.950993 
L 251.521318 21.510058 
L 258.485136 20.229103 
L 265.448955 19.100163 
L 272.412773 18.111959 
L 279.376591 17.251404 
L 286.340409 16.504735 
L 293.304227 15.858245 
L 300.268045 15.298759 
L 307.231864 14.813876 
L 314.195682 14.392072 
L 321.1595 14.022703 
L 328.123318 13.695959 
L 335.087136 13.402818 
L 342.050955 13.134967 
L 349.014773 12.884774 
L 355.978591 12.645238 
L 362.942409 12.410024 
L 369.906227 12.173463 
L 376.870045 11.930624 
L 383.833864 11.677377 
L 390.797682 11.410457 
L 397.7615 11.127569 
L 404.725318 10.827437 
L 411.689136 10.509859 
L 418.652955 10.175709 
" clip-path="url(#pb35fbc652c)" style="fill: none; stroke: #000080; stroke-width: 1.5; stroke-linecap: square"/>
   </g>
  </g>
  <g id="axes_2">
   <g id="patch_3">
    <path d="M 53.0525 165.688 
L 436.0625 165.688 
L 436.0625 70.696 
L 53.0525 70.696 
z
" style="fill: #ffffff"/>
   </g>
   <g id="PathCollection_1">
    <defs>
     <path id="med714f86fc" d="M 0 0.866025 
C 0.229673 0.866025 0.449969 0.774776 0.612372 0.612372 
C 0.774776 0.449969 0.866025 0.229673 0.866025 0 
C 0.866025 -0.229673 0.774776 -0.449969 0.612372 -0.612372 
C 0.449969 -0.774776 0.229673 -0.866025 0 -0.866025 
C -0.229673 -0.866025 -0.449969 -0.774776 -0.612372 -0.612372 
C -0.774776 -0.449969 -0.866025 -0.229673 -0.866025 0 
C -0.866025 0.229673 -0.774776 0.449969 -0.612372 0.612372 
C -0.449969 0.774776 -0.229673 0.866025 0 0.866025 
z
" style="stroke: #daa520"/>
    </defs>
    <g clip-path="url(#p9094139e73)">
     <use xlink:href="#med714f86fc" x="106.582058" y="121.712014" style="fill: #daa520; stroke: #daa520"/>
     <use xlink:href="#med714f86fc" x="161.335721" y="128.387967" style="fill: #daa520; stroke: #daa520"/>
     <use xlink:href="#med714f86fc" x="216.769019" y="115.303125" style="fill: #daa520; stroke: #daa520"/>
     <use xlink:href="#med714f86fc" x="378.667241" y="116.641942" style="fill: #daa520; stroke: #daa520"/>
     <use xlink:href="#med714f86fc" x="74.547133" y="101.814438" style="fill: #daa520; stroke: #daa520"/>
     <use xlink:href="#med714f86fc" x="186.155067" y="139.927643" style="fill: #daa520; stroke: #daa520"/>
     <use xlink:href="#med714f86fc" x="176.840386" y="130.830482" style="fill: #daa520; stroke: #daa520"/>
     <use xlink:href="#med714f86fc" x="77.117013" y="110.491904" style="fill: #daa520; stroke: #daa520"/>
     <use xlink:href="#med714f86fc" x="218.531786" y="124.758424" style="fill: #daa520; stroke: #daa520"/>
     <use xlink:href="#med714f86fc" x="105.256029" y="143.731118" style="fill: #daa520; stroke: #daa520"/>
     <use xlink:href="#med714f86fc" x="123.183663" y="78.284506" style="fill: #daa520; stroke: #daa520"/>
     <use xlink:href="#med714f86fc" x="198.329069" y="145.907722" style="fill: #daa520; stroke: #daa520"/>
     <use xlink:href="#med714f86fc" x="319.305389" y="151.178919" style="fill: #daa520; stroke: #daa520"/>
     <use xlink:href="#med714f86fc" x="173.692811" y="123.108495" style="fill: #daa520; stroke: #daa520"/>
     <use xlink:href="#med714f86fc" x="192.754386" y="124.897099" style="fill: #daa520; stroke: #daa520"/>
     <use xlink:href="#med714f86fc" x="182.853813" y="141.606656" style="fill: #daa520; stroke: #daa520"/>
     <use xlink:href="#med714f86fc" x="124.206182" y="111.507044" style="fill: #daa520; stroke: #daa520"/>
     <use xlink:href="#med714f86fc" x="217.812026" y="119.747693" style="fill: #daa520; stroke: #daa520"/>
     <use xlink:href="#med714f86fc" x="78.621958" y="122.302902" style="fill: #daa520; stroke: #daa520"/>
     <use xlink:href="#med714f86fc" x="138.581272" y="117.567872" style="fill: #daa520; stroke: #daa520"/>
     <use xlink:href="#med714f86fc" x="79.518222" y="96.657311" style="fill: #daa520; stroke: #daa520"/>
     <use xlink:href="#med714f86fc" x="220.606276" y="152.918018" style="fill: #daa520; stroke: #daa520"/>
     <use xlink:href="#med714f86fc" x="93.203518" y="134.398925" style="fill: #daa520; stroke: #daa520"/>
     <use xlink:href="#med714f86fc" x="104.923458" y="83.418115" style="fill: #daa520; stroke: #daa520"/>
     <use xlink:href="#med714f86fc" x="187.545002" y="133.121145" style="fill: #daa520; stroke: #daa520"/>
     <use xlink:href="#med714f86fc" x="162.134416" y="119.917516" style="fill: #daa520; stroke: #daa520"/>
     <use xlink:href="#med714f86fc" x="397.143474" y="136.88243" style="fill: #daa520; stroke: #daa520"/>
     <use xlink:href="#med714f86fc" x="86.008975" y="89.314119" style="fill: #daa520; stroke: #daa520"/>
     <use xlink:href="#med714f86fc" x="294.875708" y="142.054244" style="fill: #daa520; stroke: #daa520"/>
     <use xlink:href="#med714f86fc" x="116.477316" y="96.477427" style="fill: #daa520; stroke: #daa520"/>
     <use xlink:href="#med714f86fc" x="366.705433" y="120.251084" style="fill: #daa520; stroke: #daa520"/>
     <use xlink:href="#med714f86fc" x="150.833569" y="116.224537" style="fill: #daa520; stroke: #daa520"/>
     <use xlink:href="#med714f86fc" x="97.877227" y="82.31653" style="fill: #daa520; stroke: #daa520"/>
     <use xlink:href="#med714f86fc" x="75.137827" y="117.216748" style="fill: #daa520; stroke: #daa520"/>
     <use xlink:href="#med714f86fc" x="396.334779" y="127.000327" style="fill: #daa520; stroke: #daa520"/>
     <use xlink:href="#med714f86fc" x="266.002843" y="138.786161" style="fill: #daa520; stroke: #daa520"/>
     <use xlink:href="#med714f86fc" x="96.555644" y="135.489352" style="fill: #daa520; stroke: #daa520"/>
     <use xlink:href="#med714f86fc" x="170.171575" y="143.134259" style="fill: #daa520; stroke: #daa520"/>
     <use xlink:href="#med714f86fc" x="119.990124" y="97.156746" style="fill: #daa520; stroke: #daa520"/>
     <use xlink:href="#med714f86fc" x="118.451449" y="94.264405" style="fill: #daa520; stroke: #daa520"/>
     <use xlink:href="#med714f86fc" x="97.721801" y="136.117904" style="fill: #daa520; stroke: #daa520"/>
     <use xlink:href="#med714f86fc" x="102.522216" y="81.520311" style="fill: #daa520; stroke: #daa520"/>
     <use xlink:href="#med714f86fc" x="133.490064" y="92.429346" style="fill: #daa520; stroke: #daa520"/>
     <use xlink:href="#med714f86fc" x="82.238636" y="112.269114" style="fill: #daa520; stroke: #daa520"/>
     <use xlink:href="#med714f86fc" x="71.294805" y="113.061367" style="fill: #daa520; stroke: #daa520"/>
     <use xlink:href="#med714f86fc" x="79.125136" y="123.078048" style="fill: #daa520; stroke: #daa520"/>
     <use xlink:href="#med714f86fc" x="395.865013" y="128.155722" style="fill: #daa520; stroke: #daa520"/>
     <use xlink:href="#med714f86fc" x="184.928486" y="129.648733" style="fill: #daa520; stroke: #daa520"/>
     <use xlink:href="#med714f86fc" x="119.823243" y="75.013818" style="fill: #daa520; stroke: #daa520"/>
     <use xlink:href="#med714f86fc" x="136.384315" y="119.429545" style="fill: #daa520; stroke: #daa520"/>
     <use xlink:href="#med714f86fc" x="136.154679" y="95.491837" style="fill: #daa520; stroke: #daa520"/>
     <use xlink:href="#med714f86fc" x="196.122887" y="144.084311" style="fill: #daa520; stroke: #daa520"/>
     <use xlink:href="#med714f86fc" x="271.87042" y="145.164287" style="fill: #daa520; stroke: #daa520"/>
     <use xlink:href="#med714f86fc" x="73.942893" y="116.350262" style="fill: #daa520; stroke: #daa520"/>
     <use xlink:href="#med714f86fc" x="123.119155" y="86.906975" style="fill: #daa520; stroke: #daa520"/>
     <use xlink:href="#med714f86fc" x="166.499331" y="133.015937" style="fill: #daa520; stroke: #daa520"/>
     <use xlink:href="#med714f86fc" x="80.499568" y="124.633906" style="fill: #daa520; stroke: #daa520"/>
     <use xlink:href="#med714f86fc" x="334.39143" y="131.247805" style="fill: #daa520; stroke: #daa520"/>
     <use xlink:href="#med714f86fc" x="74.891623" y="131.579648" style="fill: #daa520; stroke: #daa520"/>
     <use xlink:href="#med714f86fc" x="145.679819" y="96.553649" style="fill: #daa520; stroke: #daa520"/>
     <use xlink:href="#med714f86fc" x="95.362416" y="102.937959" style="fill: #daa520; stroke: #daa520"/>
     <use xlink:href="#med714f86fc" x="126.582986" y="111.053335" style="fill: #daa520; stroke: #daa520"/>
     <use xlink:href="#med714f86fc" x="401.85089" y="146.849378" style="fill: #daa520; stroke: #daa520"/>
     <use xlink:href="#med714f86fc" x="177.341312" y="131.884496" style="fill: #daa520; stroke: #daa520"/>
     <use xlink:href="#med714f86fc" x="181.134791" y="124.611102" style="fill: #daa520; stroke: #daa520"/>
     <use xlink:href="#med714f86fc" x="160.744736" y="126.226204" style="fill: #daa520; stroke: #daa520"/>
     <use xlink:href="#med714f86fc" x="179.01888" y="129.678659" style="fill: #daa520; stroke: #daa520"/>
     <use xlink:href="#med714f86fc" x="78.325441" y="114.910351" style="fill: #daa520; stroke: #daa520"/>
     <use xlink:href="#med714f86fc" x="303.189534" y="125.888516" style="fill: #daa520; stroke: #daa520"/>
     <use xlink:href="#med714f86fc" x="184.448184" y="137.68681" style="fill: #daa520; stroke: #daa520"/>
     <use xlink:href="#med714f86fc" x="158.498272" y="111.381243" style="fill: #daa520; stroke: #daa520"/>
     <use xlink:href="#med714f86fc" x="222.721444" y="133.9844" style="fill: #daa520; stroke: #daa520"/>
     <use xlink:href="#med714f86fc" x="196.507054" y="147.831438" style="fill: #daa520; stroke: #daa520"/>
     <use xlink:href="#med714f86fc" x="164.859374" y="115.243366" style="fill: #daa520; stroke: #daa520"/>
     <use xlink:href="#med714f86fc" x="198.064784" y="122.716528" style="fill: #daa520; stroke: #daa520"/>
     <use xlink:href="#med714f86fc" x="107.019616" y="80.417572" style="fill: #daa520; stroke: #daa520"/>
     <use xlink:href="#med714f86fc" x="91.961959" y="133.814636" style="fill: #daa520; stroke: #daa520"/>
     <use xlink:href="#med714f86fc" x="209.122722" y="161.370182" style="fill: #daa520; stroke: #daa520"/>
     <use xlink:href="#med714f86fc" x="125.82835" y="121.264304" style="fill: #daa520; stroke: #daa520"/>
     <use xlink:href="#med714f86fc" x="216.681667" y="160.149753" style="fill: #daa520; stroke: #daa520"/>
     <use xlink:href="#med714f86fc" x="204.004862" y="120.201044" style="fill: #daa520; stroke: #daa520"/>
     <use xlink:href="#med714f86fc" x="196.155194" y="139.258514" style="fill: #daa520; stroke: #daa520"/>
     <use xlink:href="#med714f86fc" x="147.845659" y="121.687095" style="fill: #daa520; stroke: #daa520"/>
     <use xlink:href="#med714f86fc" x="264.828477" y="134.729114" style="fill: #daa520; stroke: #daa520"/>
     <use xlink:href="#med714f86fc" x="210.307125" y="119.20611" style="fill: #daa520; stroke: #daa520"/>
     <use xlink:href="#med714f86fc" x="71.107131" y="114.520551" style="fill: #daa520; stroke: #daa520"/>
     <use xlink:href="#med714f86fc" x="227.734132" y="138.033051" style="fill: #daa520; stroke: #daa520"/>
     <use xlink:href="#med714f86fc" x="173.461885" y="127.943648" style="fill: #daa520; stroke: #daa520"/>
     <use xlink:href="#med714f86fc" x="212.755019" y="116.75892" style="fill: #daa520; stroke: #daa520"/>
    </g>
   </g>
   <g id="matplotlib.axis_3"/>
   <g id="matplotlib.axis_4">
    <g id="ytick_1">
     <g id="line2d_3">
      <defs>
       <path id="m0dad98e929" d="M 0 0 
L -3.5 0 
" style="stroke: #696969; stroke-width: 0.8"/>
      </defs>
      <g>
       <use xlink:href="#m0dad98e929" x="53.0525" y="134.032823" style="fill: #696969; stroke: #696969; stroke-width: 0.8"/>
      </g>
     </g>
     <g id="text_1">
      <!-- 0 -->
      <g style="fill: #696969" transform="translate(35.8725 140.111573) scale(0.16 -0.16)">
       <defs>
        <path id="DejaVuSans-30" d="M 2034 4250 
Q 1547 4250 1301 3770 
Q 1056 3291 1056 2328 
Q 1056 1369 1301 889 
Q 1547 409 2034 409 
Q 2525 409 2770 889 
Q 3016 1369 3016 2328 
Q 3016 3291 2770 3770 
Q 2525 4250 2034 4250 
z
M 2034 4750 
Q 2819 4750 3233 4129 
Q 3647 3509 3647 2328 
Q 3647 1150 3233 529 
Q 2819 -91 2034 -91 
Q 1250 -91 836 529 
Q 422 1150 422 2328 
Q 422 3509 836 4129 
Q 1250 4750 2034 4750 
z
" transform="scale(0.015625)"/>
       </defs>
       <use xlink:href="#DejaVuSans-30"/>
      </g>
     </g>
    </g>
    <g id="ytick_2">
     <g id="line2d_4">
      <g>
       <use xlink:href="#m0dad98e929" x="53.0525" y="87.202284" style="fill: #696969; stroke: #696969; stroke-width: 0.8"/>
      </g>
     </g>
     <g id="text_2">
      <!-- 5 -->
      <g style="fill: #696969" transform="translate(35.8725 93.281034) scale(0.16 -0.16)">
       <defs>
        <path id="DejaVuSans-35" d="M 691 4666 
L 3169 4666 
L 3169 4134 
L 1269 4134 
L 1269 2991 
Q 1406 3038 1543 3061 
Q 1681 3084 1819 3084 
Q 2600 3084 3056 2656 
Q 3513 2228 3513 1497 
Q 3513 744 3044 326 
Q 2575 -91 1722 -91 
Q 1428 -91 1123 -41 
Q 819 9 494 109 
L 494 744 
Q 775 591 1075 516 
Q 1375 441 1709 441 
Q 2250 441 2565 725 
Q 2881 1009 2881 1497 
Q 2881 1984 2565 2268 
Q 2250 2553 1709 2553 
Q 1456 2553 1204 2497 
Q 953 2441 691 2322 
L 691 4666 
z
" transform="scale(0.015625)"/>
       </defs>
       <use xlink:href="#DejaVuSans-35"/>
      </g>
     </g>
    </g>
   </g>
   <g id="line2d_5">
    <path d="M 70.462045 120.113213 
L 77.425864 118.004309 
L 84.389682 115.930429 
L 91.3535 113.68258 
L 98.317318 111.218089 
L 105.281136 108.694976 
L 112.244955 106.436781 
L 119.208773 104.844888 
L 126.172591 104.28983 
L 133.136409 105.016932 
L 140.100227 107.092728 
L 147.064045 110.399291 
L 154.027864 114.663596 
L 160.991682 119.500142 
L 167.9555 124.45357 
L 174.919318 129.046651 
L 181.883136 132.849845 
L 188.846955 135.576663 
L 195.810773 137.177766 
L 202.774591 137.88075 
L 209.738409 138.130477 
L 216.702227 138.432391 
L 223.666045 139.160515 
L 230.629864 140.419997 
L 237.593682 142.028282 
L 244.5575 143.616107 
L 251.521318 144.791542 
L 258.485136 145.291199 
L 265.448955 145.064364 
L 272.412773 144.275149 
L 279.376591 143.23927 
L 286.340409 142.324662 
L 293.304227 141.844136 
L 300.268045 141.962079 
L 307.231864 142.632429 
L 314.195682 143.582252 
L 321.1595 144.352853 
L 328.123318 144.404019 
L 335.087136 143.272421 
L 342.050955 140.751172 
L 349.014773 137.031523 
L 355.978591 132.738186 
L 362.942409 128.813994 
L 369.906227 126.268572 
L 376.870045 125.87266 
L 383.833864 127.913772 
L 390.797682 132.104345 
L 397.7615 137.663837 
L 404.725318 143.524524 
L 411.689136 148.578375 
L 418.652955 151.895887 
" clip-path="url(#p9094139e73)" style="fill: none; stroke: #000000; stroke-width: 2; stroke-linecap: square"/>
   </g>
   <g id="line2d_6">
    <path d="M 70.462045 111.391577 
L 77.425864 112.082889 
L 84.389682 112.774201 
L 91.3535 113.465512 
L 98.317318 114.156824 
L 105.281136 114.848136 
L 112.244955 115.539448 
L 119.208773 116.230759 
L 126.172591 116.922071 
L 133.136409 117.613383 
L 140.100227 118.304695 
L 147.064045 118.996006 
L 154.027864 119.687318 
L 160.991682 120.37863 
L 167.9555 121.069941 
L 174.919318 121.761253 
L 181.883136 122.452565 
L 188.846955 123.143877 
L 195.810773 123.835188 
L 202.774591 124.5265 
L 209.738409 125.217812 
L 216.702227 125.909123 
L 223.666045 126.600435 
L 230.629864 127.291747 
L 237.593682 127.983059 
L 244.5575 128.67437 
L 251.521318 129.365682 
L 258.485136 130.056994 
L 265.448955 130.748306 
L 272.412773 131.439617 
L 279.376591 132.130929 
L 286.340409 132.822241 
L 293.304227 133.513552 
L 300.268045 134.204864 
L 307.231864 134.896176 
L 314.195682 135.587488 
L 321.1595 136.278799 
L 328.123318 136.970111 
L 335.087136 137.661423 
L 342.050955 138.352734 
L 349.014773 139.044046 
L 355.978591 139.735358 
L 362.942409 140.42667 
L 369.906227 141.117981 
L 376.870045 141.809293 
L 383.833864 142.500605 
L 390.797682 143.191917 
L 397.7615 143.883228 
L 404.725318 144.57454 
L 411.689136 145.265852 
L 418.652955 145.957163 
" clip-path="url(#p9094139e73)" style="fill: none; stroke-dasharray: 7.4,3.2; stroke-dashoffset: 0; stroke: #34b6c6; stroke-width: 2"/>
   </g>
   <g id="line2d_7">
    <path d="M 70.462045 114.826268 
L 77.425864 114.607557 
L 84.389682 114.279796 
L 91.3535 113.6692 
L 98.317318 112.32643 
L 105.281136 109.523447 
L 112.244955 105.600133 
L 119.208773 102.529037 
L 126.172591 101.005086 
L 133.136409 101.263141 
L 140.100227 104.073594 
L 147.064045 108.443045 
L 154.027864 112.364644 
L 160.991682 116.296595 
L 167.9555 121.1203 
L 174.919318 126.353858 
L 181.883136 130.842566 
L 188.846955 133.814797 
L 195.810773 135.342869 
L 202.774591 136.003736 
L 209.738409 136.375048 
L 216.702227 136.886124 
L 223.666045 137.800446 
L 230.629864 139.101254 
L 237.593682 140.441169 
L 244.5575 141.432741 
L 251.521318 141.954406 
L 258.485136 142.101536 
L 265.448955 142.013894 
L 272.412773 141.796636 
L 279.376591 141.514205 
L 286.340409 141.202713 
L 293.304227 140.88071 
L 300.268045 140.555884 
L 307.231864 140.228826 
L 314.195682 139.894536 
L 321.1595 139.540932 
L 328.123318 139.140214 
L 335.087136 138.615911 
L 342.050955 137.709877 
L 349.014773 135.506841 
L 355.978591 130.616192 
L 362.942409 126.215888 
L 369.906227 124.672909 
L 376.870045 124.226736 
L 383.833864 124.22921 
L 390.797682 125.549539 
L 397.7615 130.956478 
L 404.725318 136.643478 
L 411.689136 138.340141 
L 418.652955 138.593679 
" clip-path="url(#p9094139e73)" style="fill: none; stroke-dasharray: 7.4,3.2; stroke-dashoffset: 0; stroke: #9370db; stroke-width: 2"/>
   </g>
   <g id="line2d_8">
    <path d="M 70.462045 114.646071 
L 77.425864 114.552441 
L 84.389682 114.353202 
L 91.3535 113.880053 
L 98.317318 112.697834 
L 105.281136 110.101481 
L 112.244955 106.42015 
L 119.208773 103.564144 
L 126.172591 102.206463 
L 133.136409 102.574553 
L 140.100227 105.414499 
L 147.064045 109.764246 
L 154.027864 113.680275 
L 160.991682 117.606328 
L 167.9555 122.395996 
L 174.919318 127.582582 
L 181.883136 132.047825 
L 188.846955 135.044442 
L 195.810773 136.642474 
L 202.774591 137.400666 
L 209.738409 137.878439 
L 216.702227 138.491567 
L 223.666045 139.495216 
L 230.629864 140.873154 
L 237.593682 142.288966 
L 244.5575 143.367427 
L 251.521318 143.99081 
L 258.485136 144.251476 
L 265.448955 144.284779 
L 272.412773 144.192555 
L 279.376591 144.037216 
L 286.340409 143.853733 
L 293.304227 143.66007 
L 300.268045 143.463673 
L 307.231864 143.265114 
L 314.195682 143.059553 
L 321.1595 142.835286 
L 328.123318 142.565391 
L 335.087136 142.175813 
L 342.050955 141.416549 
L 349.014773 139.40121 
L 355.978591 134.783069 
L 362.942409 130.639801 
L 369.906227 129.263691 
L 376.870045 128.949776 
L 383.833864 129.070351 
L 390.797682 130.467195 
L 397.7615 135.821692 
L 404.725318 141.447412 
L 411.689136 143.208715 
L 418.652955 143.572431 
" clip-path="url(#p9094139e73)" style="fill: none; stroke-dasharray: 12.8,3.2,2,3.2; stroke-dashoffset: 0; stroke: #ff0000; stroke-width: 2"/>
   </g>
   <g id="patch_4">
    <path d="M 53.0525 165.688 
L 53.0525 70.696 
" style="fill: none; stroke: #000000; stroke-width: 0.8; stroke-linejoin: miter; stroke-linecap: square"/>
   </g>
   <g id="patch_5">
    <path d="M 436.0625 165.688 
L 436.0625 70.696 
" style="fill: none; stroke: #000000; stroke-width: 0.8; stroke-linejoin: miter; stroke-linecap: square"/>
   </g>
   <g id="patch_6">
    <path d="M 53.0525 165.688 
L 436.0625 165.688 
" style="fill: none; stroke: #000000; stroke-width: 0.8; stroke-linejoin: miter; stroke-linecap: square"/>
   </g>
   <g id="patch_7">
    <path d="M 53.0525 70.696 
L 436.0625 70.696 
" style="fill: none; stroke: #000000; stroke-width: 0.8; stroke-linejoin: miter; stroke-linecap: square"/>
   </g>
  </g>
  <g id="axes_3">
   <g id="patch_8">
    <path d="M 53.0525 276.68 
L 436.0625 276.68 
L 436.0625 181.688 
L 53.0525 181.688 
z
" style="fill: #ffffff"/>
   </g>
   <g id="PathCollection_2">
    <g clip-path="url(#p18a06612e6)">
     <use xlink:href="#med714f86fc" x="106.582058" y="214.76721" style="fill: #daa520; stroke: #daa520"/>
     <use xlink:href="#med714f86fc" x="161.335721" y="217.055747" style="fill: #daa520; stroke: #daa520"/>
     <use xlink:href="#med714f86fc" x="216.769019" y="262.535638" style="fill: #daa520; stroke: #daa520"/>
     <use xlink:href="#med714f86fc" x="378.667241" y="247.850566" style="fill: #daa520; stroke: #daa520"/>
     <use xlink:href="#med714f86fc" x="74.547133" y="248.511221" style="fill: #daa520; stroke: #daa520"/>
     <use xlink:href="#med714f86fc" x="186.155067" y="223.403372" style="fill: #daa520; stroke: #daa520"/>
     <use xlink:href="#med714f86fc" x="176.840386" y="228.731733" style="fill: #daa520; stroke: #daa520"/>
     <use xlink:href="#med714f86fc" x="77.117013" y="236.767156" style="fill: #daa520; stroke: #daa520"/>
     <use xlink:href="#med714f86fc" x="218.531786" y="250.085775" style="fill: #daa520; stroke: #daa520"/>
     <use xlink:href="#med714f86fc" x="105.256029" y="186.005818" style="fill: #daa520; stroke: #daa520"/>
     <use xlink:href="#med714f86fc" x="123.183663" y="264.057264" style="fill: #daa520; stroke: #daa520"/>
     <use xlink:href="#med714f86fc" x="198.329069" y="219.265697" style="fill: #daa520; stroke: #daa520"/>
     <use xlink:href="#med714f86fc" x="319.305389" y="220.134926" style="fill: #daa520; stroke: #daa520"/>
     <use xlink:href="#med714f86fc" x="173.692811" y="236.113959" style="fill: #daa520; stroke: #daa520"/>
     <use xlink:href="#med714f86fc" x="192.754386" y="246.355548" style="fill: #daa520; stroke: #daa520"/>
     <use xlink:href="#med714f86fc" x="182.853813" y="219.104575" style="fill: #daa520; stroke: #daa520"/>
     <use xlink:href="#med714f86fc" x="124.206182" y="219.077244" style="fill: #daa520; stroke: #daa520"/>
     <use xlink:href="#med714f86fc" x="217.812026" y="256.713808" style="fill: #daa520; stroke: #daa520"/>
     <use xlink:href="#med714f86fc" x="78.621958" y="220.817272" style="fill: #daa520; stroke: #daa520"/>
     <use xlink:href="#med714f86fc" x="138.581272" y="213.803375" style="fill: #daa520; stroke: #daa520"/>
     <use xlink:href="#med714f86fc" x="79.518222" y="255.335709" style="fill: #daa520; stroke: #daa520"/>
     <use xlink:href="#med714f86fc" x="220.606276" y="212.540398" style="fill: #daa520; stroke: #daa520"/>
     <use xlink:href="#med714f86fc" x="93.203518" y="203.356849" style="fill: #daa520; stroke: #daa520"/>
     <use xlink:href="#med714f86fc" x="104.923458" y="267.465775" style="fill: #daa520; stroke: #daa520"/>
     <use xlink:href="#med714f86fc" x="187.545002" y="233.285823" style="fill: #daa520; stroke: #daa520"/>
     <use xlink:href="#med714f86fc" x="162.134416" y="229.15018" style="fill: #daa520; stroke: #daa520"/>
     <use xlink:href="#med714f86fc" x="397.143474" y="229.016869" style="fill: #daa520; stroke: #daa520"/>
     <use xlink:href="#med714f86fc" x="86.008975" y="264.916688" style="fill: #daa520; stroke: #daa520"/>
     <use xlink:href="#med714f86fc" x="294.875708" y="233.393346" style="fill: #daa520; stroke: #daa520"/>
     <use xlink:href="#med714f86fc" x="116.477316" y="242.100846" style="fill: #daa520; stroke: #daa520"/>
     <use xlink:href="#med714f86fc" x="366.705433" y="243.976917" style="fill: #daa520; stroke: #daa520"/>
     <use xlink:href="#med714f86fc" x="150.833569" y="225.54425" style="fill: #daa520; stroke: #daa520"/>
     <use xlink:href="#med714f86fc" x="97.877227" y="272.362182" style="fill: #daa520; stroke: #daa520"/>
     <use xlink:href="#med714f86fc" x="75.137827" y="227.75229" style="fill: #daa520; stroke: #daa520"/>
     <use xlink:href="#med714f86fc" x="396.334779" y="241.249793" style="fill: #daa520; stroke: #daa520"/>
     <use xlink:href="#med714f86fc" x="266.002843" y="238.69152" style="fill: #daa520; stroke: #daa520"/>
     <use xlink:href="#med714f86fc" x="96.555644" y="201.134547" style="fill: #daa520; stroke: #daa520"/>
     <use xlink:href="#med714f86fc" x="170.171575" y="205.589238" style="fill: #daa520; stroke: #daa520"/>
     <use xlink:href="#med714f86fc" x="119.990124" y="239.617494" style="fill: #daa520; stroke: #daa520"/>
     <use xlink:href="#med714f86fc" x="118.451449" y="244.135333" style="fill: #daa520; stroke: #daa520"/>
     <use xlink:href="#med714f86fc" x="97.721801" y="199.939928" style="fill: #daa520; stroke: #daa520"/>
     <use xlink:href="#med714f86fc" x="102.522216" y="271.443351" style="fill: #daa520; stroke: #daa520"/>
     <use xlink:href="#med714f86fc" x="133.490064" y="245.064461" style="fill: #daa520; stroke: #daa520"/>
     <use xlink:href="#med714f86fc" x="82.238636" y="234.204298" style="fill: #daa520; stroke: #daa520"/>
     <use xlink:href="#med714f86fc" x="71.294805" y="233.41344" style="fill: #daa520; stroke: #daa520"/>
     <use xlink:href="#med714f86fc" x="79.125136" y="219.758203" style="fill: #daa520; stroke: #daa520"/>
     <use xlink:href="#med714f86fc" x="395.865013" y="239.089367" style="fill: #daa520; stroke: #daa520"/>
     <use xlink:href="#med714f86fc" x="184.928486" y="236.549292" style="fill: #daa520; stroke: #daa520"/>
     <use xlink:href="#med714f86fc" x="119.823243" y="269.507521" style="fill: #daa520; stroke: #daa520"/>
     <use xlink:href="#med714f86fc" x="136.384315" y="209.938734" style="fill: #daa520; stroke: #daa520"/>
     <use xlink:href="#med714f86fc" x="136.154679" y="242.061811" style="fill: #daa520; stroke: #daa520"/>
     <use xlink:href="#med714f86fc" x="196.122887" y="221.329078" style="fill: #daa520; stroke: #daa520"/>
     <use xlink:href="#med714f86fc" x="271.87042" y="229.994346" style="fill: #daa520; stroke: #daa520"/>
     <use xlink:href="#med714f86fc" x="73.942893" y="228.941907" style="fill: #daa520; stroke: #daa520"/>
     <use xlink:href="#med714f86fc" x="123.119155" y="252.458261" style="fill: #daa520; stroke: #daa520"/>
     <use xlink:href="#med714f86fc" x="166.499331" y="215.54598" style="fill: #daa520; stroke: #daa520"/>
     <use xlink:href="#med714f86fc" x="80.499568" y="217.617086" style="fill: #daa520; stroke: #daa520"/>
     <use xlink:href="#med714f86fc" x="334.39143" y="246.075944" style="fill: #daa520; stroke: #daa520"/>
     <use xlink:href="#med714f86fc" x="74.891623" y="208.409751" style="fill: #daa520; stroke: #daa520"/>
     <use xlink:href="#med714f86fc" x="145.679819" y="247.922695" style="fill: #daa520; stroke: #daa520"/>
     <use xlink:href="#med714f86fc" x="95.362416" y="245.289145" style="fill: #daa520; stroke: #daa520"/>
     <use xlink:href="#med714f86fc" x="126.582986" y="219.328283" style="fill: #daa520; stroke: #daa520"/>
     <use xlink:href="#med714f86fc" x="401.85089" y="221.587314" style="fill: #daa520; stroke: #daa520"/>
     <use xlink:href="#med714f86fc" x="177.341312" y="227.769205" style="fill: #daa520; stroke: #daa520"/>
     <use xlink:href="#med714f86fc" x="181.134791" y="240.746936" style="fill: #daa520; stroke: #daa520"/>
     <use xlink:href="#med714f86fc" x="160.744736" y="219.47287" style="fill: #daa520; stroke: #daa520"/>
     <use xlink:href="#med714f86fc" x="179.01888" y="232.212577" style="fill: #daa520; stroke: #daa520"/>
     <use xlink:href="#med714f86fc" x="78.325441" y="230.783736" style="fill: #daa520; stroke: #daa520"/>
     <use xlink:href="#med714f86fc" x="303.189534" y="254.852542" style="fill: #daa520; stroke: #daa520"/>
     <use xlink:href="#med714f86fc" x="184.448184" y="225.429276" style="fill: #daa520; stroke: #daa520"/>
     <use xlink:href="#med714f86fc" x="158.498272" y="237.673817" style="fill: #daa520; stroke: #daa520"/>
     <use xlink:href="#med714f86fc" x="222.721444" y="238.494635" style="fill: #daa520; stroke: #daa520"/>
     <use xlink:href="#med714f86fc" x="196.507054" y="216.357039" style="fill: #daa520; stroke: #daa520"/>
     <use xlink:href="#med714f86fc" x="164.859374" y="237.913723" style="fill: #daa520; stroke: #daa520"/>
     <use xlink:href="#med714f86fc" x="198.064784" y="250.462944" style="fill: #daa520; stroke: #daa520"/>
     <use xlink:href="#med714f86fc" x="107.019616" y="270.084503" style="fill: #daa520; stroke: #daa520"/>
     <use xlink:href="#med714f86fc" x="91.961959" y="204.348543" style="fill: #daa520; stroke: #daa520"/>
     <use xlink:href="#med714f86fc" x="209.122722" y="199.588091" style="fill: #daa520; stroke: #daa520"/>
     <use xlink:href="#med714f86fc" x="125.82835" y="205.661263" style="fill: #daa520; stroke: #daa520"/>
     <use xlink:href="#med714f86fc" x="216.681667" y="202.112238" style="fill: #daa520; stroke: #daa520"/>
     <use xlink:href="#med714f86fc" x="204.004862" y="254.580991" style="fill: #daa520; stroke: #daa520"/>
     <use xlink:href="#med714f86fc" x="196.155194" y="227.836087" style="fill: #daa520; stroke: #daa520"/>
     <use xlink:href="#med714f86fc" x="147.845659" y="215.868461" style="fill: #daa520; stroke: #daa520"/>
     <use xlink:href="#med714f86fc" x="264.828477" y="244.166088" style="fill: #daa520; stroke: #daa520"/>
     <use xlink:href="#med714f86fc" x="210.307125" y="256.496493" style="fill: #daa520; stroke: #daa520"/>
     <use xlink:href="#med714f86fc" x="71.107131" y="231.450412" style="fill: #daa520; stroke: #daa520"/>
     <use xlink:href="#med714f86fc" x="227.734132" y="234.304051" style="fill: #daa520; stroke: #daa520"/>
     <use xlink:href="#med714f86fc" x="173.461885" y="229.371558" style="fill: #daa520; stroke: #daa520"/>
     <use xlink:href="#med714f86fc" x="212.755019" y="260.047912" style="fill: #daa520; stroke: #daa520"/>
    </g>
   </g>
   <g id="matplotlib.axis_5">
    <g id="xtick_1">
     <g id="line2d_9">
      <defs>
       <path id="mcecc8cbe51" d="M 0 0 
L 0 3.5 
" style="stroke: #696969; stroke-width: 0.8"/>
      </defs>
      <g>
       <use xlink:href="#mcecc8cbe51" x="70.462045" y="276.68" style="fill: #696969; stroke: #696969; stroke-width: 0.8"/>
      </g>
     </g>
     <g id="text_3">
      <!-- −1.0 -->
      <g style="fill: #696969" transform="translate(51.035795 295.8375) scale(0.16 -0.16)">
       <defs>
        <path id="DejaVuSans-2212" d="M 678 2272 
L 4684 2272 
L 4684 1741 
L 678 1741 
L 678 2272 
z
" transform="scale(0.015625)"/>
        <path id="DejaVuSans-31" d="M 794 531 
L 1825 531 
L 1825 4091 
L 703 3866 
L 703 4441 
L 1819 4666 
L 2450 4666 
L 2450 531 
L 3481 531 
L 3481 0 
L 794 0 
L 794 531 
z
" transform="scale(0.015625)"/>
        <path id="DejaVuSans-2e" d="M 684 794 
L 1344 794 
L 1344 0 
L 684 0 
L 684 794 
z
" transform="scale(0.015625)"/>
       </defs>
       <use xlink:href="#DejaVuSans-2212"/>
       <use xlink:href="#DejaVuSans-31" x="83.789062"/>
       <use xlink:href="#DejaVuSans-2e" x="147.412109"/>
       <use xlink:href="#DejaVuSans-30" x="179.199219"/>
      </g>
     </g>
    </g>
    <g id="xtick_2">
     <g id="line2d_10">
      <g>
       <use xlink:href="#mcecc8cbe51" x="157.509773" y="276.68" style="fill: #696969; stroke: #696969; stroke-width: 0.8"/>
      </g>
     </g>
     <g id="text_4">
      <!-- −0.5 -->
      <g style="fill: #696969" transform="translate(138.083523 295.8375) scale(0.16 -0.16)">
       <use xlink:href="#DejaVuSans-2212"/>
       <use xlink:href="#DejaVuSans-30" x="83.789062"/>
       <use xlink:href="#DejaVuSans-2e" x="147.412109"/>
       <use xlink:href="#DejaVuSans-35" x="179.199219"/>
      </g>
     </g>
    </g>
    <g id="xtick_3">
     <g id="line2d_11">
      <g>
       <use xlink:href="#mcecc8cbe51" x="244.5575" y="276.68" style="fill: #696969; stroke: #696969; stroke-width: 0.8"/>
      </g>
     </g>
     <g id="text_5">
      <!-- 0.0 -->
      <g style="fill: #696969" transform="translate(231.835 295.8375) scale(0.16 -0.16)">
       <use xlink:href="#DejaVuSans-30"/>
       <use xlink:href="#DejaVuSans-2e" x="63.623047"/>
       <use xlink:href="#DejaVuSans-30" x="95.410156"/>
      </g>
     </g>
    </g>
    <g id="xtick_4">
     <g id="line2d_12">
      <g>
       <use xlink:href="#mcecc8cbe51" x="331.605227" y="276.68" style="fill: #696969; stroke: #696969; stroke-width: 0.8"/>
      </g>
     </g>
     <g id="text_6">
      <!-- 0.5 -->
      <g style="fill: #696969" transform="translate(318.882727 295.8375) scale(0.16 -0.16)">
       <use xlink:href="#DejaVuSans-30"/>
       <use xlink:href="#DejaVuSans-2e" x="63.623047"/>
       <use xlink:href="#DejaVuSans-35" x="95.410156"/>
      </g>
     </g>
    </g>
    <g id="xtick_5">
     <g id="line2d_13">
      <g>
       <use xlink:href="#mcecc8cbe51" x="418.652955" y="276.68" style="fill: #696969; stroke: #696969; stroke-width: 0.8"/>
      </g>
     </g>
     <g id="text_7">
      <!-- 1.0 -->
      <g style="fill: #696969" transform="translate(405.930455 295.8375) scale(0.16 -0.16)">
       <use xlink:href="#DejaVuSans-31"/>
       <use xlink:href="#DejaVuSans-2e" x="63.623047"/>
       <use xlink:href="#DejaVuSans-30" x="95.410156"/>
      </g>
     </g>
    </g>
    <g id="text_8">
     <!-- $X$ -->
     <g transform="translate(239.0375 315.3225) scale(0.16 -0.16)">
      <defs>
       <path id="DejaVuSans-Oblique-58" d="M 878 4666 
L 1516 4666 
L 2316 2981 
L 3763 4666 
L 4500 4666 
L 2578 2438 
L 3738 0 
L 3103 0 
L 2163 1966 
L 459 0 
L -275 0 
L 1906 2509 
L 878 4666 
z
" transform="scale(0.015625)"/>
      </defs>
      <use xlink:href="#DejaVuSans-Oblique-58" transform="translate(0 0.09375)"/>
     </g>
    </g>
   </g>
   <g id="matplotlib.axis_6">
    <g id="ytick_3">
     <g id="line2d_14">
      <g>
       <use xlink:href="#m0dad98e929" x="53.0525" y="262.831041" style="fill: #696969; stroke: #696969; stroke-width: 0.8"/>
      </g>
     </g>
     <g id="text_9">
      <!-- −2.5 -->
      <g style="fill: #696969" transform="translate(7.2 268.909791) scale(0.16 -0.16)">
       <defs>
        <path id="DejaVuSans-32" d="M 1228 531 
L 3431 531 
L 3431 0 
L 469 0 
L 469 531 
Q 828 903 1448 1529 
Q 2069 2156 2228 2338 
Q 2531 2678 2651 2914 
Q 2772 3150 2772 3378 
Q 2772 3750 2511 3984 
Q 2250 4219 1831 4219 
Q 1534 4219 1204 4116 
Q 875 4013 500 3803 
L 500 4441 
Q 881 4594 1212 4672 
Q 1544 4750 1819 4750 
Q 2544 4750 2975 4387 
Q 3406 4025 3406 3419 
Q 3406 3131 3298 2873 
Q 3191 2616 2906 2266 
Q 2828 2175 2409 1742 
Q 1991 1309 1228 531 
z
" transform="scale(0.015625)"/>
       </defs>
       <use xlink:href="#DejaVuSans-2212"/>
       <use xlink:href="#DejaVuSans-32" x="83.789062"/>
       <use xlink:href="#DejaVuSans-2e" x="147.412109"/>
       <use xlink:href="#DejaVuSans-35" x="179.199219"/>
      </g>
     </g>
    </g>
    <g id="ytick_4">
     <g id="line2d_15">
      <g>
       <use xlink:href="#m0dad98e929" x="53.0525" y="231.289766" style="fill: #696969; stroke: #696969; stroke-width: 0.8"/>
      </g>
     </g>
     <g id="text_10">
      <!-- 0.0 -->
      <g style="fill: #696969" transform="translate(20.6075 237.368516) scale(0.16 -0.16)">
       <use xlink:href="#DejaVuSans-30"/>
       <use xlink:href="#DejaVuSans-2e" x="63.623047"/>
       <use xlink:href="#DejaVuSans-30" x="95.410156"/>
      </g>
     </g>
    </g>
    <g id="ytick_5">
     <g id="line2d_16">
      <g>
       <use xlink:href="#m0dad98e929" x="53.0525" y="199.748491" style="fill: #696969; stroke: #696969; stroke-width: 0.8"/>
      </g>
     </g>
     <g id="text_11">
      <!-- 2.5 -->
      <g style="fill: #696969" transform="translate(20.6075 205.827241) scale(0.16 -0.16)">
       <use xlink:href="#DejaVuSans-32"/>
       <use xlink:href="#DejaVuSans-2e" x="63.623047"/>
       <use xlink:href="#DejaVuSans-35" x="95.410156"/>
      </g>
     </g>
    </g>
   </g>
   <g id="line2d_17">
    <path d="M 70.462045 223.925315 
L 77.425864 226.639967 
L 84.389682 229.165179 
L 91.3535 231.55577 
L 98.317318 233.28304 
L 105.281136 233.184384 
L 112.244955 231.267364 
L 119.208773 229.564555 
L 126.172591 228.48339 
L 133.136409 227.999787 
L 140.100227 229.029126 
L 147.064045 230.434336 
L 154.027864 229.965194 
L 160.991682 228.738726 
L 167.9555 228.518134 
L 174.919318 229.317609 
L 181.883136 230.209414 
L 188.846955 230.572844 
L 195.810773 230.568707 
L 202.774591 230.643074 
L 209.738409 230.950262 
L 216.702227 231.369478 
L 223.666045 231.740621 
L 230.629864 231.900186 
L 237.593682 231.640917 
L 244.5575 230.954785 
L 251.521318 230.211149 
L 258.485136 229.889219 
L 265.448955 230.239634 
L 272.412773 231.178509 
L 279.376591 232.36463 
L 286.340409 233.349484 
L 293.304227 233.735899 
L 300.268045 233.312472 
L 307.231864 232.142018 
L 314.195682 230.585669 
L 321.1595 229.245544 
L 328.123318 228.813064 
L 335.087136 229.812593 
L 342.050955 232.186055 
L 349.014773 234.481826 
L 355.978591 234.044303 
L 362.942409 233.749199 
L 369.906227 235.324307 
L 376.870045 235.434761 
L 383.833864 232.847723 
L 390.797682 229.084462 
L 397.7615 228.808325 
L 404.725318 228.491817 
L 411.689136 224.056626 
L 418.652955 220.077748 
" clip-path="url(#p18a06612e6)" style="fill: none; stroke: #696969; stroke-width: 2; stroke-linecap: square"/>
   </g>
   <g id="line2d_18">
    <path d="M 70.462045 231.193033 
L 77.425864 231.322839 
L 84.389682 231.452645 
L 91.3535 231.582451 
L 98.317318 231.712257 
L 105.281136 231.842063 
L 112.244955 231.971869 
L 119.208773 232.101675 
L 126.172591 232.231482 
L 133.136409 232.361288 
L 140.100227 232.491094 
L 147.064045 232.6209 
L 154.027864 232.750706 
L 160.991682 232.880512 
L 167.9555 233.010318 
L 174.919318 233.140124 
L 181.883136 233.26993 
L 188.846955 233.399736 
L 195.810773 233.529542 
L 202.774591 233.659348 
L 209.738409 233.789155 
L 216.702227 233.918961 
L 223.666045 234.048767 
L 230.629864 234.178573 
L 237.593682 234.308379 
L 244.5575 234.438185 
L 251.521318 234.567991 
L 258.485136 234.697797 
L 265.448955 234.827603 
L 272.412773 234.957409 
L 279.376591 235.087215 
L 286.340409 235.217022 
L 293.304227 235.346828 
L 300.268045 235.476634 
L 307.231864 235.60644 
L 314.195682 235.736246 
L 321.1595 235.866052 
L 328.123318 235.995858 
L 335.087136 236.125664 
L 342.050955 236.25547 
L 349.014773 236.385276 
L 355.978591 236.515082 
L 362.942409 236.644888 
L 369.906227 236.774695 
L 376.870045 236.904501 
L 383.833864 237.034307 
L 390.797682 237.164113 
L 397.7615 237.293919 
L 404.725318 237.423725 
L 411.689136 237.553531 
L 418.652955 237.683337 
" clip-path="url(#p18a06612e6)" style="fill: none; stroke-dasharray: 7.4,3.2; stroke-dashoffset: 0; stroke: #79ad41; stroke-width: 2"/>
   </g>
   <g id="patch_9">
    <path d="M 53.0525 276.68 
L 53.0525 181.688 
" style="fill: none; stroke: #000000; stroke-width: 0.8; stroke-linejoin: miter; stroke-linecap: square"/>
   </g>
   <g id="patch_10">
    <path d="M 436.0625 276.68 
L 436.0625 181.688 
" style="fill: none; stroke: #000000; stroke-width: 0.8; stroke-linejoin: miter; stroke-linecap: square"/>
   </g>
   <g id="patch_11">
    <path d="M 53.0525 276.68 
L 436.0625 276.68 
" style="fill: none; stroke: #000000; stroke-width: 0.8; stroke-linejoin: miter; stroke-linecap: square"/>
   </g>
   <g id="patch_12">
    <path d="M 53.0525 181.688 
L 436.0625 181.688 
" style="fill: none; stroke: #000000; stroke-width: 0.8; stroke-linejoin: miter; stroke-linecap: square"/>
   </g>
  </g>
 </g>
 <defs>
  <clipPath id="pb35fbc652c">
   <rect x="53.0525" y="7.2" width="383.01" height="47.496"/>
  </clipPath>
  <clipPath id="p9094139e73">
   <rect x="53.0525" y="70.696" width="383.01" height="94.992"/>
  </clipPath>
  <clipPath id="p18a06612e6">
   <rect x="53.0525" y="181.688" width="383.01" height="94.992"/>
  </clipPath>
 </defs>
</svg>
