<?xml version="1.0" encoding="utf-8" standalone="no"?>
<!DOCTYPE svg PUBLIC "-//W3C//DTD SVG 1.1//EN"
  "http://www.w3.org/Graphics/SVG/1.1/DTD/svg11.dtd">
<svg xmlns:xlink="http://www.w3.org/1999/xlink" width="443.2625pt" height="325.85pt" viewBox="0 0 443.2625 325.85" xmlns="http://www.w3.org/2000/svg" version="1.1">
 <metadata>
  <rdf:RDF xmlns:dc="http://purl.org/dc/elements/1.1/" xmlns:cc="http://creativecommons.org/ns#" xmlns:rdf="http://www.w3.org/1999/02/22-rdf-syntax-ns#">
   <cc:Work>
    <dc:type rdf:resource="http://purl.org/dc/dcmitype/StillImage"/>
    <dc:date>2024-01-28T20:55:57.604110</dc:date>
    <dc:format>image/svg+xml</dc:format>
    <dc:creator>
     <cc:Agent>
      <dc:title>Matplotlib v3.7.2, https://matplotlib.org/</dc:title>
     </cc:Agent>
    </dc:creator>
   </cc:Work>
  </rdf:RDF>
 </metadata>
 <defs>
  <style type="text/css">*{stroke-linejoin: round; stroke-linecap: butt}</style>
 </defs>
 <g id="figure_1">
  <g id="patch_1">
   <path d="M 0 325.85 
L 443.2625 325.85 
L 443.2625 0 
L 0 0 
z
" style="fill: #ffffff"/>
  </g>
  <g id="axes_1">
   <g id="patch_2">
    <path d="M 53.0525 54.696 
L 436.0625 54.696 
L 436.0625 7.2 
L 53.0525 7.2 
z
" style="fill: #ffffff"/>
   </g>
   <g id="PolyCollection_1">
    <defs>
     <path id="m54335f42ec" d="M 70.462045 -273.312909 
L 70.462045 -316.491091 
L 77.425864 -316.491091 
L 84.389682 -316.491091 
L 91.3535 -316.491091 
L 98.317318 -316.491091 
L 105.281136 -316.491091 
L 112.244955 -316.491091 
L 119.208773 -316.491091 
L 126.172591 -316.491091 
L 133.136409 -316.491091 
L 140.100227 -316.491091 
L 147.064045 -316.491091 
L 154.027864 -315.536541 
L 160.991682 -314.305535 
L 167.9555 -312.875768 
L 174.919318 -311.249317 
L 181.883136 -309.440938 
L 188.846955 -307.47885 
L 195.810773 -305.403416 
L 202.774591 -303.263709 
L 209.738409 -301.112587 
L 216.702227 -299.001295 
L 223.666045 -296.974731 
L 230.629864 -295.068253 
L 237.593682 -293.306278 
L 244.5575 -291.702569 
L 251.521318 -290.261634 
L 258.485136 -288.980679 
L 265.448955 -287.851739 
L 272.412773 -286.863535 
L 279.376591 -286.002979 
L 286.340409 -285.256311 
L 293.304227 -284.60982 
L 300.268045 -284.050335 
L 307.231864 -283.565452 
L 314.195682 -283.143648 
L 321.1595 -282.774279 
L 328.123318 -282.447535 
L 335.087136 -282.154394 
L 342.050955 -281.886543 
L 349.014773 -281.636349 
L 355.978591 -281.396814 
L 362.942409 -281.1616 
L 369.906227 -280.925038 
L 376.870045 -280.6822 
L 383.833864 -280.428952 
L 390.797682 -280.162033 
L 397.7615 -279.879145 
L 404.725318 -279.579013 
L 411.689136 -279.261435 
L 418.652955 -278.927284 
L 418.652955 -273.312909 
L 418.652955 -273.312909 
L 411.689136 -273.312909 
L 404.725318 -273.312909 
L 397.7615 -273.312909 
L 390.797682 -273.312909 
L 383.833864 -273.312909 
L 376.870045 -273.312909 
L 369.906227 -273.312909 
L 362.942409 -273.312909 
L 355.978591 -273.312909 
L 349.014773 -273.312909 
L 342.050955 -273.312909 
L 335.087136 -273.312909 
L 328.123318 -273.312909 
L 321.1595 -273.312909 
L 314.195682 -273.312909 
L 307.231864 -273.312909 
L 300.268045 -273.312909 
L 293.304227 -273.312909 
L 286.340409 -273.312909 
L 279.376591 -273.312909 
L 272.412773 -273.312909 
L 265.448955 -273.312909 
L 258.485136 -273.312909 
L 251.521318 -273.312909 
L 244.5575 -273.312909 
L 237.593682 -273.312909 
L 230.629864 -273.312909 
L 223.666045 -273.312909 
L 216.702227 -273.312909 
L 209.738409 -273.312909 
L 202.774591 -273.312909 
L 195.810773 -273.312909 
L 188.846955 -273.312909 
L 181.883136 -273.312909 
L 174.919318 -273.312909 
L 167.9555 -273.312909 
L 160.991682 -273.312909 
L 154.027864 -273.312909 
L 147.064045 -273.312909 
L 140.100227 -273.312909 
L 133.136409 -273.312909 
L 126.172591 -273.312909 
L 119.208773 -273.312909 
L 112.244955 -273.312909 
L 105.281136 -273.312909 
L 98.317318 -273.312909 
L 91.3535 -273.312909 
L 84.389682 -273.312909 
L 77.425864 -273.312909 
L 70.462045 -273.312909 
z
" style="stroke: #dc143c; stroke-opacity: 0.2"/>
    </defs>
    <g clip-path="url(#pf5d587d132)">
     <use xlink:href="#m54335f42ec" x="0" y="325.85" style="fill: #dc143c; fill-opacity: 0.2; stroke: #dc143c; stroke-opacity: 0.2"/>
    </g>
   </g>
   <g id="PolyCollection_2">
    <defs>
     <path id="m1731863734" d="M 70.462045 -273.312909 
L 70.462045 -278.110485 
L 77.425864 -278.110485 
L 84.389682 -278.110485 
L 91.3535 -278.110485 
L 98.317318 -278.110485 
L 105.281136 -278.110485 
L 112.244955 -278.110485 
L 119.208773 -278.110485 
L 126.172591 -278.110485 
L 133.136409 -278.110485 
L 140.100227 -278.110485 
L 147.064045 -278.110485 
L 154.027864 -279.065035 
L 160.991682 -280.296041 
L 167.9555 -281.725807 
L 174.919318 -283.352259 
L 181.883136 -285.160638 
L 188.846955 -287.122725 
L 195.810773 -289.19816 
L 202.774591 -291.337867 
L 209.738409 -293.488989 
L 216.702227 -295.600281 
L 223.666045 -297.626845 
L 230.629864 -299.533323 
L 237.593682 -301.295297 
L 244.5575 -302.899007 
L 251.521318 -304.339942 
L 258.485136 -305.620897 
L 265.448955 -306.749837 
L 272.412773 -307.738041 
L 279.376591 -308.598596 
L 286.340409 -309.345265 
L 293.304227 -309.991755 
L 300.268045 -310.551241 
L 307.231864 -311.036124 
L 314.195682 -311.457928 
L 321.1595 -311.827297 
L 328.123318 -312.154041 
L 335.087136 -312.447182 
L 342.050955 -312.715033 
L 349.014773 -312.965226 
L 355.978591 -313.204762 
L 362.942409 -313.439976 
L 369.906227 -313.676537 
L 376.870045 -313.919376 
L 383.833864 -314.172623 
L 390.797682 -314.439543 
L 397.7615 -314.722431 
L 404.725318 -315.022563 
L 411.689136 -315.340141 
L 418.652955 -315.674291 
L 418.652955 -273.312909 
L 418.652955 -273.312909 
L 411.689136 -273.312909 
L 404.725318 -273.312909 
L 397.7615 -273.312909 
L 390.797682 -273.312909 
L 383.833864 -273.312909 
L 376.870045 -273.312909 
L 369.906227 -273.312909 
L 362.942409 -273.312909 
L 355.978591 -273.312909 
L 349.014773 -273.312909 
L 342.050955 -273.312909 
L 335.087136 -273.312909 
L 328.123318 -273.312909 
L 321.1595 -273.312909 
L 314.195682 -273.312909 
L 307.231864 -273.312909 
L 300.268045 -273.312909 
L 293.304227 -273.312909 
L 286.340409 -273.312909 
L 279.376591 -273.312909 
L 272.412773 -273.312909 
L 265.448955 -273.312909 
L 258.485136 -273.312909 
L 251.521318 -273.312909 
L 244.5575 -273.312909 
L 237.593682 -273.312909 
L 230.629864 -273.312909 
L 223.666045 -273.312909 
L 216.702227 -273.312909 
L 209.738409 -273.312909 
L 202.774591 -273.312909 
L 195.810773 -273.312909 
L 188.846955 -273.312909 
L 181.883136 -273.312909 
L 174.919318 -273.312909 
L 167.9555 -273.312909 
L 160.991682 -273.312909 
L 154.027864 -273.312909 
L 147.064045 -273.312909 
L 140.100227 -273.312909 
L 133.136409 -273.312909 
L 126.172591 -273.312909 
L 119.208773 -273.312909 
L 112.244955 -273.312909 
L 105.281136 -273.312909 
L 98.317318 -273.312909 
L 91.3535 -273.312909 
L 84.389682 -273.312909 
L 77.425864 -273.312909 
L 70.462045 -273.312909 
z
" style="stroke: #000080; stroke-opacity: 0.2"/>
    </defs>
    <g clip-path="url(#pf5d587d132)">
     <use xlink:href="#m1731863734" x="0" y="325.85" style="fill: #000080; fill-opacity: 0.2; stroke: #000080; stroke-opacity: 0.2"/>
    </g>
   </g>
   <g id="matplotlib.axis_1"/>
   <g id="matplotlib.axis_2"/>
   <g id="line2d_1">
    <path d="M 70.462045 9.358909 
L 77.425864 9.358909 
L 84.389682 9.358909 
L 91.3535 9.358909 
L 98.317318 9.358909 
L 105.281136 9.358909 
L 112.244955 9.358909 
L 119.208773 9.358909 
L 126.172591 9.358909 
L 133.136409 9.358909 
L 140.100227 9.358909 
L 147.064045 9.358909 
L 154.027864 10.313459 
L 160.991682 11.544465 
L 167.9555 12.974232 
L 174.919318 14.600683 
L 181.883136 16.409062 
L 188.846955 18.37115 
L 195.810773 20.446584 
L 202.774591 22.586291 
L 209.738409 24.737413 
L 216.702227 26.848705 
L 223.666045 28.875269 
L 230.629864 30.781747 
L 237.593682 32.543722 
L 244.5575 34.147431 
L 251.521318 35.588366 
L 258.485136 36.869321 
L 265.448955 37.998261 
L 272.412773 38.986465 
L 279.376591 39.847021 
L 286.340409 40.593689 
L 293.304227 41.24018 
L 300.268045 41.799665 
L 307.231864 42.284548 
L 314.195682 42.706352 
L 321.1595 43.075721 
L 328.123318 43.402465 
L 335.087136 43.695606 
L 342.050955 43.963457 
L 349.014773 44.213651 
L 355.978591 44.453186 
L 362.942409 44.6884 
L 369.906227 44.924962 
L 376.870045 45.1678 
L 383.833864 45.421048 
L 390.797682 45.687967 
L 397.7615 45.970855 
L 404.725318 46.270987 
L 411.689136 46.588565 
L 418.652955 46.922716 
" clip-path="url(#pf5d587d132)" style="fill: none; stroke: #dc143c; stroke-width: 1.5; stroke-linecap: square"/>
   </g>
   <g id="line2d_2">
    <path d="M 70.462045 47.739515 
L 77.425864 47.739515 
L 84.389682 47.739515 
L 91.3535 47.739515 
L 98.317318 47.739515 
L 105.281136 47.739515 
L 112.244955 47.739515 
L 119.208773 47.739515 
L 126.172591 47.739515 
L 133.136409 47.739515 
L 140.100227 47.739515 
L 147.064045 47.739515 
L 154.027864 46.784965 
L 160.991682 45.553959 
L 167.9555 44.124193 
L 174.919318 42.497741 
L 181.883136 40.689362 
L 188.846955 38.727275 
L 195.810773 36.65184 
L 202.774591 34.512133 
L 209.738409 32.361011 
L 216.702227 30.249719 
L 223.666045 28.223155 
L 230.629864 26.316677 
L 237.593682 24.554703 
L 244.5575 22.950993 
L 251.521318 21.510058 
L 258.485136 20.229103 
L 265.448955 19.100163 
L 272.412773 18.111959 
L 279.376591 17.251404 
L 286.340409 16.504735 
L 293.304227 15.858245 
L 300.268045 15.298759 
L 307.231864 14.813876 
L 314.195682 14.392072 
L 321.1595 14.022703 
L 328.123318 13.695959 
L 335.087136 13.402818 
L 342.050955 13.134967 
L 349.014773 12.884774 
L 355.978591 12.645238 
L 362.942409 12.410024 
L 369.906227 12.173463 
L 376.870045 11.930624 
L 383.833864 11.677377 
L 390.797682 11.410457 
L 397.7615 11.127569 
L 404.725318 10.827437 
L 411.689136 10.509859 
L 418.652955 10.175709 
" clip-path="url(#pf5d587d132)" style="fill: none; stroke: #000080; stroke-width: 1.5; stroke-linecap: square"/>
   </g>
  </g>
  <g id="axes_2">
   <g id="patch_3">
    <path d="M 53.0525 165.688 
L 436.0625 165.688 
L 436.0625 70.696 
L 53.0525 70.696 
z
" style="fill: #ffffff"/>
   </g>
   <g id="PathCollection_1">
    <defs>
     <path id="m72aa72a053" d="M 0 0.866025 
C 0.229673 0.866025 0.449969 0.774776 0.612372 0.612372 
C 0.774776 0.449969 0.866025 0.229673 0.866025 0 
C 0.866025 -0.229673 0.774776 -0.449969 0.612372 -0.612372 
C 0.449969 -0.774776 0.229673 -0.866025 0 -0.866025 
C -0.229673 -0.866025 -0.449969 -0.774776 -0.612372 -0.612372 
C -0.774776 -0.449969 -0.866025 -0.229673 -0.866025 0 
C -0.866025 0.229673 -0.774776 0.449969 -0.612372 0.612372 
C -0.449969 0.774776 -0.229673 0.866025 0 0.866025 
z
" style="stroke: #daa520"/>
    </defs>
    <g clip-path="url(#p2c260bfabe)">
     <use xlink:href="#m72aa72a053" x="351.026572" y="113.814402" style="fill: #daa520; stroke: #daa520"/>
     <use xlink:href="#m72aa72a053" x="163.407694" y="117.135972" style="fill: #daa520; stroke: #daa520"/>
     <use xlink:href="#m72aa72a053" x="167.046371" y="131.690539" style="fill: #daa520; stroke: #daa520"/>
     <use xlink:href="#m72aa72a053" x="180.429529" y="135.916647" style="fill: #daa520; stroke: #daa520"/>
     <use xlink:href="#m72aa72a053" x="242.461735" y="124.882586" style="fill: #daa520; stroke: #daa520"/>
     <use xlink:href="#m72aa72a053" x="80.801328" y="115.877019" style="fill: #daa520; stroke: #daa520"/>
     <use xlink:href="#m72aa72a053" x="79.124638" y="118.925539" style="fill: #daa520; stroke: #daa520"/>
     <use xlink:href="#m72aa72a053" x="112.119736" y="80.179537" style="fill: #daa520; stroke: #daa520"/>
     <use xlink:href="#m72aa72a053" x="363.786868" y="117.589482" style="fill: #daa520; stroke: #daa520"/>
     <use xlink:href="#m72aa72a053" x="106.706248" y="75.013818" style="fill: #daa520; stroke: #daa520"/>
     <use xlink:href="#m72aa72a053" x="203.567669" y="142.22829" style="fill: #daa520; stroke: #daa520"/>
     <use xlink:href="#m72aa72a053" x="79.755344" y="92.802381" style="fill: #daa520; stroke: #daa520"/>
     <use xlink:href="#m72aa72a053" x="166.503373" y="114.34953" style="fill: #daa520; stroke: #daa520"/>
     <use xlink:href="#m72aa72a053" x="129.796508" y="96.943822" style="fill: #daa520; stroke: #daa520"/>
     <use xlink:href="#m72aa72a053" x="215.56817" y="145.47214" style="fill: #daa520; stroke: #daa520"/>
     <use xlink:href="#m72aa72a053" x="88.760292" y="138.200034" style="fill: #daa520; stroke: #daa520"/>
     <use xlink:href="#m72aa72a053" x="186.182792" y="129.005154" style="fill: #daa520; stroke: #daa520"/>
     <use xlink:href="#m72aa72a053" x="382.231708" y="125.056541" style="fill: #daa520; stroke: #daa520"/>
     <use xlink:href="#m72aa72a053" x="141.274823" y="109.806935" style="fill: #daa520; stroke: #daa520"/>
     <use xlink:href="#m72aa72a053" x="148.178436" y="96.267227" style="fill: #daa520; stroke: #daa520"/>
     <use xlink:href="#m72aa72a053" x="163.692123" y="132.846074" style="fill: #daa520; stroke: #daa520"/>
     <use xlink:href="#m72aa72a053" x="117.82043" y="90.335363" style="fill: #daa520; stroke: #daa520"/>
     <use xlink:href="#m72aa72a053" x="199.40018" y="125.247781" style="fill: #daa520; stroke: #daa520"/>
     <use xlink:href="#m72aa72a053" x="182.58539" y="128.638435" style="fill: #daa520; stroke: #daa520"/>
     <use xlink:href="#m72aa72a053" x="102.539882" y="105.83315" style="fill: #daa520; stroke: #daa520"/>
     <use xlink:href="#m72aa72a053" x="221.893874" y="161.370182" style="fill: #daa520; stroke: #daa520"/>
     <use xlink:href="#m72aa72a053" x="146.617694" y="103.778399" style="fill: #daa520; stroke: #daa520"/>
     <use xlink:href="#m72aa72a053" x="169.370927" y="113.516893" style="fill: #daa520; stroke: #daa520"/>
     <use xlink:href="#m72aa72a053" x="145.588314" y="117.853042" style="fill: #daa520; stroke: #daa520"/>
     <use xlink:href="#m72aa72a053" x="254.894622" y="131.48817" style="fill: #daa520; stroke: #daa520"/>
     <use xlink:href="#m72aa72a053" x="75.973604" y="133.06067" style="fill: #daa520; stroke: #daa520"/>
     <use xlink:href="#m72aa72a053" x="389.953478" y="127.763424" style="fill: #daa520; stroke: #daa520"/>
     <use xlink:href="#m72aa72a053" x="274.807159" y="138.705084" style="fill: #daa520; stroke: #daa520"/>
     <use xlink:href="#m72aa72a053" x="220.622614" y="112.680875" style="fill: #daa520; stroke: #daa520"/>
     <use xlink:href="#m72aa72a053" x="115.86905" y="121.111789" style="fill: #daa520; stroke: #daa520"/>
     <use xlink:href="#m72aa72a053" x="263.893452" y="132.895786" style="fill: #daa520; stroke: #daa520"/>
     <use xlink:href="#m72aa72a053" x="123.64037" y="78.942325" style="fill: #daa520; stroke: #daa520"/>
     <use xlink:href="#m72aa72a053" x="193.219819" y="122.946109" style="fill: #daa520; stroke: #daa520"/>
     <use xlink:href="#m72aa72a053" x="74.559752" y="113.82786" style="fill: #daa520; stroke: #daa520"/>
     <use xlink:href="#m72aa72a053" x="154.103364" y="111.48943" style="fill: #daa520; stroke: #daa520"/>
     <use xlink:href="#m72aa72a053" x="365.608049" y="113.42274" style="fill: #daa520; stroke: #daa520"/>
     <use xlink:href="#m72aa72a053" x="168.836564" y="118.259507" style="fill: #daa520; stroke: #daa520"/>
     <use xlink:href="#m72aa72a053" x="165.679007" y="117.077233" style="fill: #daa520; stroke: #daa520"/>
     <use xlink:href="#m72aa72a053" x="150.927611" y="98.762886" style="fill: #daa520; stroke: #daa520"/>
     <use xlink:href="#m72aa72a053" x="258.599674" y="136.404795" style="fill: #daa520; stroke: #daa520"/>
     <use xlink:href="#m72aa72a053" x="184.193885" y="132.090891" style="fill: #daa520; stroke: #daa520"/>
     <use xlink:href="#m72aa72a053" x="245.184838" y="150.74864" style="fill: #daa520; stroke: #daa520"/>
     <use xlink:href="#m72aa72a053" x="77.617862" y="96.422208" style="fill: #daa520; stroke: #daa520"/>
     <use xlink:href="#m72aa72a053" x="94.526177" y="140.921325" style="fill: #daa520; stroke: #daa520"/>
     <use xlink:href="#m72aa72a053" x="186.257469" y="134.838638" style="fill: #daa520; stroke: #daa520"/>
     <use xlink:href="#m72aa72a053" x="232.211459" y="117.620561" style="fill: #daa520; stroke: #daa520"/>
     <use xlink:href="#m72aa72a053" x="273.241131" y="131.985022" style="fill: #daa520; stroke: #daa520"/>
     <use xlink:href="#m72aa72a053" x="92.861181" y="108.249262" style="fill: #daa520; stroke: #daa520"/>
     <use xlink:href="#m72aa72a053" x="133.486176" y="126.80119" style="fill: #daa520; stroke: #daa520"/>
     <use xlink:href="#m72aa72a053" x="304.687067" y="136.508046" style="fill: #daa520; stroke: #daa520"/>
     <use xlink:href="#m72aa72a053" x="139.043664" y="98.076835" style="fill: #daa520; stroke: #daa520"/>
     <use xlink:href="#m72aa72a053" x="146.364903" y="106.776307" style="fill: #daa520; stroke: #daa520"/>
     <use xlink:href="#m72aa72a053" x="89.739842" y="111.088098" style="fill: #daa520; stroke: #daa520"/>
     <use xlink:href="#m72aa72a053" x="168.046585" y="120.980331" style="fill: #daa520; stroke: #daa520"/>
     <use xlink:href="#m72aa72a053" x="255.923694" y="155.283701" style="fill: #daa520; stroke: #daa520"/>
     <use xlink:href="#m72aa72a053" x="294.846857" y="141.521872" style="fill: #daa520; stroke: #daa520"/>
     <use xlink:href="#m72aa72a053" x="197.508723" y="137.551047" style="fill: #daa520; stroke: #daa520"/>
     <use xlink:href="#m72aa72a053" x="397.155934" y="134.319498" style="fill: #daa520; stroke: #daa520"/>
     <use xlink:href="#m72aa72a053" x="214.283058" y="157.533818" style="fill: #daa520; stroke: #daa520"/>
     <use xlink:href="#m72aa72a053" x="188.549277" y="136.27179" style="fill: #daa520; stroke: #daa520"/>
     <use xlink:href="#m72aa72a053" x="241.144217" y="123.873036" style="fill: #daa520; stroke: #daa520"/>
     <use xlink:href="#m72aa72a053" x="95.035304" y="89.140839" style="fill: #daa520; stroke: #daa520"/>
     <use xlink:href="#m72aa72a053" x="157.921898" y="126.75678" style="fill: #daa520; stroke: #daa520"/>
     <use xlink:href="#m72aa72a053" x="339.678085" y="130.550548" style="fill: #daa520; stroke: #daa520"/>
     <use xlink:href="#m72aa72a053" x="96.283329" y="81.450195" style="fill: #daa520; stroke: #daa520"/>
     <use xlink:href="#m72aa72a053" x="283.606444" y="134.277143" style="fill: #daa520; stroke: #daa520"/>
     <use xlink:href="#m72aa72a053" x="254.183745" y="137.487223" style="fill: #daa520; stroke: #daa520"/>
     <use xlink:href="#m72aa72a053" x="120.080927" y="107.393147" style="fill: #daa520; stroke: #daa520"/>
     <use xlink:href="#m72aa72a053" x="151.924645" y="116.600243" style="fill: #daa520; stroke: #daa520"/>
     <use xlink:href="#m72aa72a053" x="73.553439" y="100.017889" style="fill: #daa520; stroke: #daa520"/>
     <use xlink:href="#m72aa72a053" x="171.856975" y="114.235215" style="fill: #daa520; stroke: #daa520"/>
     <use xlink:href="#m72aa72a053" x="260.163496" y="133.581723" style="fill: #daa520; stroke: #daa520"/>
     <use xlink:href="#m72aa72a053" x="244.324156" y="161.164333" style="fill: #daa520; stroke: #daa520"/>
     <use xlink:href="#m72aa72a053" x="166.22462" y="124.104341" style="fill: #daa520; stroke: #daa520"/>
     <use xlink:href="#m72aa72a053" x="368.423004" y="112.231752" style="fill: #daa520; stroke: #daa520"/>
     <use xlink:href="#m72aa72a053" x="264.964757" y="158.592375" style="fill: #daa520; stroke: #daa520"/>
     <use xlink:href="#m72aa72a053" x="198.987037" y="141.146179" style="fill: #daa520; stroke: #daa520"/>
     <use xlink:href="#m72aa72a053" x="157.734022" y="121.190747" style="fill: #daa520; stroke: #daa520"/>
     <use xlink:href="#m72aa72a053" x="98.301957" y="84.530305" style="fill: #daa520; stroke: #daa520"/>
     <use xlink:href="#m72aa72a053" x="416.592495" y="145.318203" style="fill: #daa520; stroke: #daa520"/>
     <use xlink:href="#m72aa72a053" x="134.110903" y="113.430125" style="fill: #daa520; stroke: #daa520"/>
     <use xlink:href="#m72aa72a053" x="76.893393" y="102.529928" style="fill: #daa520; stroke: #daa520"/>
     <use xlink:href="#m72aa72a053" x="380.979181" y="112.219481" style="fill: #daa520; stroke: #daa520"/>
     <use xlink:href="#m72aa72a053" x="93.462025" y="89.098775" style="fill: #daa520; stroke: #daa520"/>
    </g>
   </g>
   <g id="matplotlib.axis_3"/>
   <g id="matplotlib.axis_4">
    <g id="ytick_1">
     <g id="line2d_3">
      <defs>
       <path id="m0cd1174e6c" d="M 0 0 
L -3.5 0 
" style="stroke: #696969; stroke-width: 0.8"/>
      </defs>
      <g>
       <use xlink:href="#m0cd1174e6c" x="53.0525" y="129.034445" style="fill: #696969; stroke: #696969; stroke-width: 0.8"/>
      </g>
     </g>
     <g id="text_1">
      <!-- 0 -->
      <g style="fill: #696969" transform="translate(35.8725 135.113195) scale(0.16 -0.16)">
       <defs>
        <path id="DejaVuSans-30" d="M 2034 4250 
Q 1547 4250 1301 3770 
Q 1056 3291 1056 2328 
Q 1056 1369 1301 889 
Q 1547 409 2034 409 
Q 2525 409 2770 889 
Q 3016 1369 3016 2328 
Q 3016 3291 2770 3770 
Q 2525 4250 2034 4250 
z
M 2034 4750 
Q 2819 4750 3233 4129 
Q 3647 3509 3647 2328 
Q 3647 1150 3233 529 
Q 2819 -91 2034 -91 
Q 1250 -91 836 529 
Q 422 1150 422 2328 
Q 422 3509 836 4129 
Q 1250 4750 2034 4750 
z
" transform="scale(0.015625)"/>
       </defs>
       <use xlink:href="#DejaVuSans-30"/>
      </g>
     </g>
    </g>
    <g id="ytick_2">
     <g id="line2d_4">
      <g>
       <use xlink:href="#m0cd1174e6c" x="53.0525" y="85.971611" style="fill: #696969; stroke: #696969; stroke-width: 0.8"/>
      </g>
     </g>
     <g id="text_2">
      <!-- 5 -->
      <g style="fill: #696969" transform="translate(35.8725 92.050361) scale(0.16 -0.16)">
       <defs>
        <path id="DejaVuSans-35" d="M 691 4666 
L 3169 4666 
L 3169 4134 
L 1269 4134 
L 1269 2991 
Q 1406 3038 1543 3061 
Q 1681 3084 1819 3084 
Q 2600 3084 3056 2656 
Q 3513 2228 3513 1497 
Q 3513 744 3044 326 
Q 2575 -91 1722 -91 
Q 1428 -91 1123 -41 
Q 819 9 494 109 
L 494 744 
Q 775 591 1075 516 
Q 1375 441 1709 441 
Q 2250 441 2565 725 
Q 2881 1009 2881 1497 
Q 2881 1984 2565 2268 
Q 2250 2553 1709 2553 
Q 1456 2553 1204 2497 
Q 953 2441 691 2322 
L 691 4666 
z
" transform="scale(0.015625)"/>
       </defs>
       <use xlink:href="#DejaVuSans-35"/>
      </g>
     </g>
    </g>
   </g>
   <g id="line2d_5">
    <path d="M 70.462045 116.234723 
L 77.425864 114.295489 
L 84.389682 112.388461 
L 91.3535 110.32146 
L 98.317318 108.055248 
L 105.281136 105.735129 
L 112.244955 103.658615 
L 119.208773 102.194796 
L 126.172591 101.684394 
L 133.136409 102.352998 
L 140.100227 104.261789 
L 147.064045 107.302325 
L 154.027864 111.22355 
L 160.991682 115.670976 
L 167.9555 120.225881 
L 174.919318 124.44943 
L 181.883136 127.946642 
L 188.846955 130.454077 
L 195.810773 131.926364 
L 202.774591 132.572791 
L 209.738409 132.802426 
L 216.702227 133.08005 
L 223.666045 133.749593 
L 230.629864 134.907746 
L 237.593682 136.386638 
L 244.5575 137.846715 
L 251.521318 138.927582 
L 258.485136 139.387039 
L 265.448955 139.178455 
L 272.412773 138.452735 
L 279.376591 137.500197 
L 286.340409 136.659172 
L 293.304227 136.217306 
L 300.268045 136.32576 
L 307.231864 136.942178 
L 314.195682 137.815584 
L 321.1595 138.524187 
L 328.123318 138.571236 
L 335.087136 137.53068 
L 342.050955 135.212276 
L 349.014773 131.791888 
L 355.978591 127.843967 
L 362.942409 124.235491 
L 369.906227 121.894859 
L 376.870045 121.5308 
L 383.833864 123.407696 
L 390.797682 127.261121 
L 397.7615 132.373329 
L 404.725318 137.7625 
L 411.689136 142.409749 
L 418.652955 145.460354 
" clip-path="url(#p2c260bfabe)" style="fill: none; stroke: #000000; stroke-width: 2; stroke-linecap: square"/>
   </g>
   <g id="line2d_6">
    <path d="M 70.462045 108.52391 
L 77.425864 109.226267 
L 84.389682 109.928625 
L 91.3535 110.630982 
L 98.317318 111.33334 
L 105.281136 112.035697 
L 112.244955 112.738055 
L 119.208773 113.440412 
L 126.172591 114.14277 
L 133.136409 114.845127 
L 140.100227 115.547485 
L 147.064045 116.249842 
L 154.027864 116.9522 
L 160.991682 117.654557 
L 167.9555 118.356915 
L 174.919318 119.059272 
L 181.883136 119.76163 
L 188.846955 120.463987 
L 195.810773 121.166345 
L 202.774591 121.868702 
L 209.738409 122.57106 
L 216.702227 123.273417 
L 223.666045 123.975775 
L 230.629864 124.678132 
L 237.593682 125.38049 
L 244.5575 126.082847 
L 251.521318 126.785205 
L 258.485136 127.487562 
L 265.448955 128.18992 
L 272.412773 128.892277 
L 279.376591 129.594635 
L 286.340409 130.296992 
L 293.304227 130.99935 
L 300.268045 131.701707 
L 307.231864 132.404065 
L 314.195682 133.106422 
L 321.1595 133.80878 
L 328.123318 134.511137 
L 335.087136 135.213495 
L 342.050955 135.915852 
L 349.014773 136.61821 
L 355.978591 137.320567 
L 362.942409 138.022925 
L 369.906227 138.725282 
L 376.870045 139.42764 
L 383.833864 140.129997 
L 390.797682 140.832355 
L 397.7615 141.534712 
L 404.725318 142.23707 
L 411.689136 142.939428 
L 418.652955 143.641785 
" clip-path="url(#p2c260bfabe)" style="fill: none; stroke-dasharray: 7.4,3.2; stroke-dashoffset: 0; stroke: #34b6c6; stroke-width: 2"/>
   </g>
   <g id="line2d_7">
    <path d="M 70.462045 111.681997 
L 77.425864 111.467931 
L 84.389682 111.141664 
L 91.3535 110.52439 
L 98.317318 109.15379 
L 105.281136 106.280791 
L 112.244955 102.255092 
L 119.208773 99.106233 
L 126.172591 97.549218 
L 133.136409 97.825691 
L 140.100227 100.728303 
L 147.064045 105.234953 
L 154.027864 109.280814 
L 160.991682 113.337324 
L 167.9555 118.311352 
L 174.919318 123.707074 
L 181.883136 128.336428 
L 188.846955 131.405491 
L 195.810773 132.988673 
L 202.774591 133.679596 
L 209.738409 134.072599 
L 216.702227 134.609403 
L 223.666045 135.561104 
L 230.629864 136.910456 
L 237.593682 138.300045 
L 244.5575 139.331228 
L 251.521318 139.878928 
L 258.485136 140.041271 
L 265.448955 139.962061 
L 272.412773 139.749488 
L 279.376591 139.469862 
L 286.340409 139.160334 
L 293.304227 138.839991 
L 300.268045 138.516743 
L 307.231864 138.191199 
L 314.195682 137.858215 
L 321.1595 137.505358 
L 328.123318 137.104026 
L 335.087136 136.575539 
L 342.050955 135.654293 
L 349.014773 133.398572 
L 355.978591 128.377592 
L 362.942409 123.861124 
L 369.906227 122.28453 
L 376.870045 121.83643 
L 383.833864 121.849939 
L 390.797682 123.219377 
L 397.7615 128.793488 
L 404.725318 134.655753 
L 411.689136 136.412397 
L 418.652955 136.684223 
" clip-path="url(#p2c260bfabe)" style="fill: none; stroke-dasharray: 7.4,3.2; stroke-dashoffset: 0; stroke: #9370db; stroke-width: 2"/>
   </g>
   <g id="line2d_8">
    <path d="M 70.462045 111.207435 
L 77.425864 111.121338 
L 84.389682 110.938128 
L 91.3535 110.503046 
L 98.317318 109.415942 
L 105.281136 107.028476 
L 112.244955 103.643322 
L 119.208773 101.017094 
L 126.172591 99.768643 
L 133.136409 100.107118 
L 140.100227 102.71858 
L 147.064045 106.718372 
L 154.027864 110.319341 
L 160.991682 113.929528 
L 167.9555 118.333847 
L 174.919318 123.103152 
L 181.883136 127.209147 
L 188.846955 129.964675 
L 195.810773 131.434139 
L 202.774591 132.131331 
L 209.738409 132.570666 
L 216.702227 133.134465 
L 223.666045 134.057366 
L 230.629864 135.324444 
L 237.593682 136.626348 
L 244.5575 137.618043 
L 251.521318 138.191272 
L 258.485136 138.430966 
L 265.448955 138.46159 
L 272.412773 138.376786 
L 279.376591 138.233944 
L 286.340409 138.065223 
L 293.304227 137.887141 
L 300.268045 137.706545 
L 307.231864 137.523961 
L 314.195682 137.334938 
L 321.1595 137.128714 
L 328.123318 136.880534 
L 335.087136 136.522299 
L 342.050955 135.82412 
L 349.014773 133.970924 
L 355.978591 129.724331 
L 362.942409 125.914405 
L 369.906227 124.649008 
L 376.870045 124.36035 
L 383.833864 124.471224 
L 390.797682 125.755686 
L 397.7615 130.679392 
L 404.725318 135.852501 
L 411.689136 137.472099 
L 418.652955 137.806553 
" clip-path="url(#p2c260bfabe)" style="fill: none; stroke-dasharray: 12.8,3.2,2,3.2; stroke-dashoffset: 0; stroke: #ff0000; stroke-width: 2"/>
   </g>
   <g id="patch_4">
    <path d="M 53.0525 165.688 
L 53.0525 70.696 
" style="fill: none; stroke: #000000; stroke-width: 0.8; stroke-linejoin: miter; stroke-linecap: square"/>
   </g>
   <g id="patch_5">
    <path d="M 436.0625 165.688 
L 436.0625 70.696 
" style="fill: none; stroke: #000000; stroke-width: 0.8; stroke-linejoin: miter; stroke-linecap: square"/>
   </g>
   <g id="patch_6">
    <path d="M 53.0525 165.688 
L 436.0625 165.688 
" style="fill: none; stroke: #000000; stroke-width: 0.8; stroke-linejoin: miter; stroke-linecap: square"/>
   </g>
   <g id="patch_7">
    <path d="M 53.0525 70.696 
L 436.0625 70.696 
" style="fill: none; stroke: #000000; stroke-width: 0.8; stroke-linejoin: miter; stroke-linecap: square"/>
   </g>
  </g>
  <g id="axes_3">
   <g id="patch_8">
    <path d="M 53.0525 276.68 
L 436.0625 276.68 
L 436.0625 181.688 
L 53.0525 181.688 
z
" style="fill: #ffffff"/>
   </g>
   <g id="PathCollection_2">
    <g clip-path="url(#p76d726655c)">
     <use xlink:href="#m72aa72a053" x="351.026572" y="255.442861" style="fill: #daa520; stroke: #daa520"/>
     <use xlink:href="#m72aa72a053" x="163.407694" y="226.33464" style="fill: #daa520; stroke: #daa520"/>
     <use xlink:href="#m72aa72a053" x="167.046371" y="209.381335" style="fill: #daa520; stroke: #daa520"/>
     <use xlink:href="#m72aa72a053" x="180.429529" y="215.644229" style="fill: #daa520; stroke: #daa520"/>
     <use xlink:href="#m72aa72a053" x="242.461735" y="246.139681" style="fill: #daa520; stroke: #daa520"/>
     <use xlink:href="#m72aa72a053" x="80.801328" y="222.090091" style="fill: #daa520; stroke: #daa520"/>
     <use xlink:href="#m72aa72a053" x="79.124638" y="217.907439" style="fill: #daa520; stroke: #daa520"/>
     <use xlink:href="#m72aa72a053" x="112.119736" y="261.482029" style="fill: #daa520; stroke: #daa520"/>
     <use xlink:href="#m72aa72a053" x="363.786868" y="240.003437" style="fill: #daa520; stroke: #daa520"/>
     <use xlink:href="#m72aa72a053" x="106.706248" y="272.362182" style="fill: #daa520; stroke: #daa520"/>
     <use xlink:href="#m72aa72a053" x="203.567669" y="214.842385" style="fill: #daa520; stroke: #daa520"/>
     <use xlink:href="#m72aa72a053" x="79.755344" y="254.187583" style="fill: #daa520; stroke: #daa520"/>
     <use xlink:href="#m72aa72a053" x="166.503373" y="232.972212" style="fill: #daa520; stroke: #daa520"/>
     <use xlink:href="#m72aa72a053" x="129.796508" y="232.626111" style="fill: #daa520; stroke: #daa520"/>
     <use xlink:href="#m72aa72a053" x="215.56817" y="211.496704" style="fill: #daa520; stroke: #daa520"/>
     <use xlink:href="#m72aa72a053" x="88.760292" y="190.60124" style="fill: #daa520; stroke: #daa520"/>
     <use xlink:href="#m72aa72a053" x="186.182792" y="228.9028" style="fill: #daa520; stroke: #daa520"/>
     <use xlink:href="#m72aa72a053" x="382.231708" y="227.882603" style="fill: #daa520; stroke: #daa520"/>
     <use xlink:href="#m72aa72a053" x="141.274823" y="219.836462" style="fill: #daa520; stroke: #daa520"/>
     <use xlink:href="#m72aa72a053" x="148.178436" y="244.179222" style="fill: #daa520; stroke: #daa520"/>
     <use xlink:href="#m72aa72a053" x="163.692123" y="204.749705" style="fill: #daa520; stroke: #daa520"/>
     <use xlink:href="#m72aa72a053" x="117.82043" y="244.210644" style="fill: #daa520; stroke: #daa520"/>
     <use xlink:href="#m72aa72a053" x="199.40018" y="237.976787" style="fill: #daa520; stroke: #daa520"/>
     <use xlink:href="#m72aa72a053" x="182.58539" y="227.288453" style="fill: #daa520; stroke: #daa520"/>
     <use xlink:href="#m72aa72a053" x="102.539882" y="232.016953" style="fill: #daa520; stroke: #daa520"/>
     <use xlink:href="#m72aa72a053" x="221.893874" y="190.463925" style="fill: #daa520; stroke: #daa520"/>
     <use xlink:href="#m72aa72a053" x="146.617694" y="232.529829" style="fill: #daa520; stroke: #daa520"/>
     <use xlink:href="#m72aa72a053" x="169.370927" y="236.839976" style="fill: #daa520; stroke: #daa520"/>
     <use xlink:href="#m72aa72a053" x="145.588314" y="212.148015" style="fill: #daa520; stroke: #daa520"/>
     <use xlink:href="#m72aa72a053" x="254.894622" y="238.318653" style="fill: #daa520; stroke: #daa520"/>
     <use xlink:href="#m72aa72a053" x="75.973604" y="198.343287" style="fill: #daa520; stroke: #daa520"/>
     <use xlink:href="#m72aa72a053" x="389.953478" y="225.59139" style="fill: #daa520; stroke: #daa520"/>
     <use xlink:href="#m72aa72a053" x="274.807159" y="228.278278" style="fill: #daa520; stroke: #daa520"/>
     <use xlink:href="#m72aa72a053" x="220.622614" y="257.868967" style="fill: #daa520; stroke: #daa520"/>
     <use xlink:href="#m72aa72a053" x="115.86905" y="202.3833" style="fill: #daa520; stroke: #daa520"/>
     <use xlink:href="#m72aa72a053" x="263.893452" y="236.538452" style="fill: #daa520; stroke: #daa520"/>
     <use xlink:href="#m72aa72a053" x="123.64037" y="258.149515" style="fill: #daa520; stroke: #daa520"/>
     <use xlink:href="#m72aa72a053" x="193.219819" y="239.999218" style="fill: #daa520; stroke: #daa520"/>
     <use xlink:href="#m72aa72a053" x="74.559752" y="225.095049" style="fill: #daa520; stroke: #daa520"/>
     <use xlink:href="#m72aa72a053" x="154.103364" y="227.221845" style="fill: #daa520; stroke: #daa520"/>
     <use xlink:href="#m72aa72a053" x="365.608049" y="245.186879" style="fill: #daa520; stroke: #daa520"/>
     <use xlink:href="#m72aa72a053" x="168.836564" y="229.738202" style="fill: #daa520; stroke: #daa520"/>
     <use xlink:href="#m72aa72a053" x="165.679007" y="228.425255" style="fill: #daa520; stroke: #daa520"/>
     <use xlink:href="#m72aa72a053" x="150.927611" y="242.72189" style="fill: #daa520; stroke: #daa520"/>
     <use xlink:href="#m72aa72a053" x="258.599674" y="231.614497" style="fill: #daa520; stroke: #daa520"/>
     <use xlink:href="#m72aa72a053" x="184.193885" y="223.508436" style="fill: #daa520; stroke: #daa520"/>
     <use xlink:href="#m72aa72a053" x="245.184838" y="210.646043" style="fill: #daa520; stroke: #daa520"/>
     <use xlink:href="#m72aa72a053" x="77.617862" y="249.216742" style="fill: #daa520; stroke: #daa520"/>
     <use xlink:href="#m72aa72a053" x="94.526177" y="186.005818" style="fill: #daa520; stroke: #daa520"/>
     <use xlink:href="#m72aa72a053" x="186.257469" y="220.835283" style="fill: #daa520; stroke: #daa520"/>
     <use xlink:href="#m72aa72a053" x="232.211459" y="253.823534" style="fill: #daa520; stroke: #daa520"/>
     <use xlink:href="#m72aa72a053" x="273.241131" y="237.657506" style="fill: #daa520; stroke: #daa520"/>
     <use xlink:href="#m72aa72a053" x="92.861181" y="231.706806" style="fill: #daa520; stroke: #daa520"/>
     <use xlink:href="#m72aa72a053" x="133.486176" y="191.806033" style="fill: #daa520; stroke: #daa520"/>
     <use xlink:href="#m72aa72a053" x="304.687067" y="230.30137" style="fill: #daa520; stroke: #daa520"/>
     <use xlink:href="#m72aa72a053" x="139.043664" y="234.497556" style="fill: #daa520; stroke: #daa520"/>
     <use xlink:href="#m72aa72a053" x="146.364903" y="228.163235" style="fill: #daa520; stroke: #daa520"/>
     <use xlink:href="#m72aa72a053" x="89.739842" y="228.175957" style="fill: #daa520; stroke: #daa520"/>
     <use xlink:href="#m72aa72a053" x="168.046585" y="225.205366" style="fill: #daa520; stroke: #daa520"/>
     <use xlink:href="#m72aa72a053" x="255.923694" y="205.298891" style="fill: #daa520; stroke: #daa520"/>
     <use xlink:href="#m72aa72a053" x="294.846857" y="223.69043" style="fill: #daa520; stroke: #daa520"/>
     <use xlink:href="#m72aa72a053" x="197.508723" y="220.601796" style="fill: #daa520; stroke: #daa520"/>
     <use xlink:href="#m72aa72a053" x="397.155934" y="222.9538" style="fill: #daa520; stroke: #daa520"/>
     <use xlink:href="#m72aa72a053" x="214.283058" y="194.575297" style="fill: #daa520; stroke: #daa520"/>
     <use xlink:href="#m72aa72a053" x="188.549277" y="219.909319" style="fill: #daa520; stroke: #daa520"/>
     <use xlink:href="#m72aa72a053" x="241.144217" y="247.292457" style="fill: #daa520; stroke: #daa520"/>
     <use xlink:href="#m72aa72a053" x="95.035304" y="257.850205" style="fill: #daa520; stroke: #daa520"/>
     <use xlink:href="#m72aa72a053" x="157.921898" y="208.655734" style="fill: #daa520; stroke: #daa520"/>
     <use xlink:href="#m72aa72a053" x="339.678085" y="236.550077" style="fill: #daa520; stroke: #daa520"/>
     <use xlink:href="#m72aa72a053" x="96.283329" y="268.24393" style="fill: #daa520; stroke: #daa520"/>
     <use xlink:href="#m72aa72a053" x="283.606444" y="234.15461" style="fill: #daa520; stroke: #daa520"/>
     <use xlink:href="#m72aa72a053" x="254.183745" y="229.946955" style="fill: #daa520; stroke: #daa520"/>
     <use xlink:href="#m72aa72a053" x="120.080927" y="219.617135" style="fill: #daa520; stroke: #daa520"/>
     <use xlink:href="#m72aa72a053" x="151.924645" y="218.631996" style="fill: #daa520; stroke: #daa520"/>
     <use xlink:href="#m72aa72a053" x="73.553439" y="244.301553" style="fill: #daa520; stroke: #daa520"/>
     <use xlink:href="#m72aa72a053" x="171.856975" y="238.232448" style="fill: #daa520; stroke: #daa520"/>
     <use xlink:href="#m72aa72a053" x="260.163496" y="235.565604" style="fill: #daa520; stroke: #daa520"/>
     <use xlink:href="#m72aa72a053" x="244.324156" y="196.041456" style="fill: #daa520; stroke: #daa520"/>
     <use xlink:href="#m72aa72a053" x="166.22462" y="219.160254" style="fill: #daa520; stroke: #daa520"/>
     <use xlink:href="#m72aa72a053" x="368.423004" y="246.248849" style="fill: #daa520; stroke: #daa520"/>
     <use xlink:href="#m72aa72a053" x="264.964757" y="200.827435" style="fill: #daa520; stroke: #daa520"/>
     <use xlink:href="#m72aa72a053" x="198.987037" y="215.829146" style="fill: #daa520; stroke: #daa520"/>
     <use xlink:href="#m72aa72a053" x="157.734022" y="216.254991" style="fill: #daa520; stroke: #daa520"/>
     <use xlink:href="#m72aa72a053" x="98.301957" y="263.38092" style="fill: #daa520; stroke: #daa520"/>
     <use xlink:href="#m72aa72a053" x="416.592495" y="218.28685" style="fill: #daa520; stroke: #daa520"/>
     <use xlink:href="#m72aa72a053" x="134.110903" y="210.589196" style="fill: #daa520; stroke: #daa520"/>
     <use xlink:href="#m72aa72a053" x="76.893393" y="240.746935" style="fill: #daa520; stroke: #daa520"/>
     <use xlink:href="#m72aa72a053" x="380.979181" y="245.675785" style="fill: #daa520; stroke: #daa520"/>
     <use xlink:href="#m72aa72a053" x="93.462025" y="258.215696" style="fill: #daa520; stroke: #daa520"/>
    </g>
   </g>
   <g id="matplotlib.axis_5">
    <g id="xtick_1">
     <g id="line2d_9">
      <defs>
       <path id="m57c03c62cf" d="M 0 0 
L 0 3.5 
" style="stroke: #696969; stroke-width: 0.8"/>
      </defs>
      <g>
       <use xlink:href="#m57c03c62cf" x="70.462045" y="276.68" style="fill: #696969; stroke: #696969; stroke-width: 0.8"/>
      </g>
     </g>
     <g id="text_3">
      <!-- −1.0 -->
      <g style="fill: #696969" transform="translate(51.035795 295.8375) scale(0.16 -0.16)">
       <defs>
        <path id="DejaVuSans-2212" d="M 678 2272 
L 4684 2272 
L 4684 1741 
L 678 1741 
L 678 2272 
z
" transform="scale(0.015625)"/>
        <path id="DejaVuSans-31" d="M 794 531 
L 1825 531 
L 1825 4091 
L 703 3866 
L 703 4441 
L 1819 4666 
L 2450 4666 
L 2450 531 
L 3481 531 
L 3481 0 
L 794 0 
L 794 531 
z
" transform="scale(0.015625)"/>
        <path id="DejaVuSans-2e" d="M 684 794 
L 1344 794 
L 1344 0 
L 684 0 
L 684 794 
z
" transform="scale(0.015625)"/>
       </defs>
       <use xlink:href="#DejaVuSans-2212"/>
       <use xlink:href="#DejaVuSans-31" x="83.789062"/>
       <use xlink:href="#DejaVuSans-2e" x="147.412109"/>
       <use xlink:href="#DejaVuSans-30" x="179.199219"/>
      </g>
     </g>
    </g>
    <g id="xtick_2">
     <g id="line2d_10">
      <g>
       <use xlink:href="#m57c03c62cf" x="157.509773" y="276.68" style="fill: #696969; stroke: #696969; stroke-width: 0.8"/>
      </g>
     </g>
     <g id="text_4">
      <!-- −0.5 -->
      <g style="fill: #696969" transform="translate(138.083523 295.8375) scale(0.16 -0.16)">
       <use xlink:href="#DejaVuSans-2212"/>
       <use xlink:href="#DejaVuSans-30" x="83.789062"/>
       <use xlink:href="#DejaVuSans-2e" x="147.412109"/>
       <use xlink:href="#DejaVuSans-35" x="179.199219"/>
      </g>
     </g>
    </g>
    <g id="xtick_3">
     <g id="line2d_11">
      <g>
       <use xlink:href="#m57c03c62cf" x="244.5575" y="276.68" style="fill: #696969; stroke: #696969; stroke-width: 0.8"/>
      </g>
     </g>
     <g id="text_5">
      <!-- 0.0 -->
      <g style="fill: #696969" transform="translate(231.835 295.8375) scale(0.16 -0.16)">
       <use xlink:href="#DejaVuSans-30"/>
       <use xlink:href="#DejaVuSans-2e" x="63.623047"/>
       <use xlink:href="#DejaVuSans-30" x="95.410156"/>
      </g>
     </g>
    </g>
    <g id="xtick_4">
     <g id="line2d_12">
      <g>
       <use xlink:href="#m57c03c62cf" x="331.605227" y="276.68" style="fill: #696969; stroke: #696969; stroke-width: 0.8"/>
      </g>
     </g>
     <g id="text_6">
      <!-- 0.5 -->
      <g style="fill: #696969" transform="translate(318.882727 295.8375) scale(0.16 -0.16)">
       <use xlink:href="#DejaVuSans-30"/>
       <use xlink:href="#DejaVuSans-2e" x="63.623047"/>
       <use xlink:href="#DejaVuSans-35" x="95.410156"/>
      </g>
     </g>
    </g>
    <g id="xtick_5">
     <g id="line2d_13">
      <g>
       <use xlink:href="#m57c03c62cf" x="418.652955" y="276.68" style="fill: #696969; stroke: #696969; stroke-width: 0.8"/>
      </g>
     </g>
     <g id="text_7">
      <!-- 1.0 -->
      <g style="fill: #696969" transform="translate(405.930455 295.8375) scale(0.16 -0.16)">
       <use xlink:href="#DejaVuSans-31"/>
       <use xlink:href="#DejaVuSans-2e" x="63.623047"/>
       <use xlink:href="#DejaVuSans-30" x="95.410156"/>
      </g>
     </g>
    </g>
    <g id="text_8">
     <!-- $X$ -->
     <g transform="translate(239.0375 315.3225) scale(0.16 -0.16)">
      <defs>
       <path id="DejaVuSans-Oblique-58" d="M 878 4666 
L 1516 4666 
L 2316 2981 
L 3763 4666 
L 4500 4666 
L 2578 2438 
L 3738 0 
L 3103 0 
L 2163 1966 
L 459 0 
L -275 0 
L 1906 2509 
L 878 4666 
z
" transform="scale(0.015625)"/>
      </defs>
      <use xlink:href="#DejaVuSans-Oblique-58" transform="translate(0 0.09375)"/>
     </g>
    </g>
   </g>
   <g id="matplotlib.axis_6">
    <g id="ytick_3">
     <g id="line2d_14">
      <g>
       <use xlink:href="#m0cd1174e6c" x="53.0525" y="258.715101" style="fill: #696969; stroke: #696969; stroke-width: 0.8"/>
      </g>
     </g>
     <g id="text_9">
      <!-- −2.5 -->
      <g style="fill: #696969" transform="translate(7.2 264.793851) scale(0.16 -0.16)">
       <defs>
        <path id="DejaVuSans-32" d="M 1228 531 
L 3431 531 
L 3431 0 
L 469 0 
L 469 531 
Q 828 903 1448 1529 
Q 2069 2156 2228 2338 
Q 2531 2678 2651 2914 
Q 2772 3150 2772 3378 
Q 2772 3750 2511 3984 
Q 2250 4219 1831 4219 
Q 1534 4219 1204 4116 
Q 875 4013 500 3803 
L 500 4441 
Q 881 4594 1212 4672 
Q 1544 4750 1819 4750 
Q 2544 4750 2975 4387 
Q 3406 4025 3406 3419 
Q 3406 3131 3298 2873 
Q 3191 2616 2906 2266 
Q 2828 2175 2409 1742 
Q 1991 1309 1228 531 
z
" transform="scale(0.015625)"/>
       </defs>
       <use xlink:href="#DejaVuSans-2212"/>
       <use xlink:href="#DejaVuSans-32" x="83.789062"/>
       <use xlink:href="#DejaVuSans-2e" x="147.412109"/>
       <use xlink:href="#DejaVuSans-35" x="179.199219"/>
      </g>
     </g>
    </g>
    <g id="ytick_4">
     <g id="line2d_15">
      <g>
       <use xlink:href="#m0cd1174e6c" x="53.0525" y="228.796444" style="fill: #696969; stroke: #696969; stroke-width: 0.8"/>
      </g>
     </g>
     <g id="text_10">
      <!-- 0.0 -->
      <g style="fill: #696969" transform="translate(20.6075 234.875194) scale(0.16 -0.16)">
       <use xlink:href="#DejaVuSans-30"/>
       <use xlink:href="#DejaVuSans-2e" x="63.623047"/>
       <use xlink:href="#DejaVuSans-30" x="95.410156"/>
      </g>
     </g>
    </g>
    <g id="ytick_5">
     <g id="line2d_16">
      <g>
       <use xlink:href="#m0cd1174e6c" x="53.0525" y="198.877788" style="fill: #696969; stroke: #696969; stroke-width: 0.8"/>
      </g>
     </g>
     <g id="text_11">
      <!-- 2.5 -->
      <g style="fill: #696969" transform="translate(20.6075 204.956538) scale(0.16 -0.16)">
       <use xlink:href="#DejaVuSans-32"/>
       <use xlink:href="#DejaVuSans-2e" x="63.623047"/>
       <use xlink:href="#DejaVuSans-35" x="95.410156"/>
      </g>
     </g>
    </g>
   </g>
   <g id="line2d_17">
    <path d="M 70.462045 221.810852 
L 77.425864 224.38585 
L 84.389682 226.781155 
L 91.3535 229.048764 
L 98.317318 230.687176 
L 105.281136 230.593594 
L 112.244955 228.775195 
L 119.208773 227.159985 
L 126.172591 226.134441 
L 133.136409 225.675716 
L 140.100227 226.652102 
L 147.064045 227.985022 
L 154.027864 227.540014 
L 160.991682 226.376641 
L 167.9555 226.167397 
L 174.919318 226.925743 
L 181.883136 227.77167 
L 188.846955 228.116404 
L 195.810773 228.112479 
L 202.774591 228.183021 
L 209.738409 228.474406 
L 216.702227 228.872056 
L 223.666045 229.224106 
L 230.629864 229.375461 
L 237.593682 229.129531 
L 244.5575 228.478696 
L 251.521318 227.773316 
L 258.485136 227.467947 
L 265.448955 227.800336 
L 272.412773 228.690911 
L 279.376591 229.816013 
L 286.340409 230.750202 
L 293.304227 231.116738 
L 300.268045 230.715093 
L 307.231864 229.604853 
L 314.195682 228.128569 
L 321.1595 226.857385 
L 328.123318 226.447154 
L 335.087136 227.395264 
L 342.050955 229.646624 
L 349.014773 231.824291 
L 355.978591 231.409276 
L 362.942409 231.129353 
L 369.906227 232.623431 
L 376.870045 232.728203 
L 383.833864 230.274253 
L 390.797682 226.704591 
L 397.7615 226.44266 
L 404.725318 226.142434 
L 411.689136 221.935408 
L 418.652955 218.161221 
" clip-path="url(#p76d726655c)" style="fill: none; stroke: #696969; stroke-width: 2; stroke-linecap: square"/>
   </g>
   <g id="line2d_18">
    <path d="M 70.462045 228.727144 
L 77.425864 228.733719 
L 84.389682 228.740293 
L 91.3535 228.746868 
L 98.317318 228.753442 
L 105.281136 228.760017 
L 112.244955 228.766591 
L 119.208773 228.773166 
L 126.172591 228.77974 
L 133.136409 228.786315 
L 140.100227 228.792889 
L 147.064045 228.799464 
L 154.027864 228.806038 
L 160.991682 228.812613 
L 167.9555 228.819187 
L 174.919318 228.825762 
L 181.883136 228.832337 
L 188.846955 228.838911 
L 195.810773 228.845486 
L 202.774591 228.85206 
L 209.738409 228.858635 
L 216.702227 228.865209 
L 223.666045 228.871784 
L 230.629864 228.878358 
L 237.593682 228.884933 
L 244.5575 228.891507 
L 251.521318 228.898082 
L 258.485136 228.904656 
L 265.448955 228.911231 
L 272.412773 228.917806 
L 279.376591 228.92438 
L 286.340409 228.930955 
L 293.304227 228.937529 
L 300.268045 228.944104 
L 307.231864 228.950678 
L 314.195682 228.957253 
L 321.1595 228.963827 
L 328.123318 228.970402 
L 335.087136 228.976976 
L 342.050955 228.983551 
L 349.014773 228.990125 
L 355.978591 228.9967 
L 362.942409 229.003275 
L 369.906227 229.009849 
L 376.870045 229.016424 
L 383.833864 229.022998 
L 390.797682 229.029573 
L 397.7615 229.036147 
L 404.725318 229.042722 
L 411.689136 229.049296 
L 418.652955 229.055871 
" clip-path="url(#p76d726655c)" style="fill: none; stroke-dasharray: 7.4,3.2; stroke-dashoffset: 0; stroke: #79ad41; stroke-width: 2"/>
   </g>
   <g id="patch_9">
    <path d="M 53.0525 276.68 
L 53.0525 181.688 
" style="fill: none; stroke: #000000; stroke-width: 0.8; stroke-linejoin: miter; stroke-linecap: square"/>
   </g>
   <g id="patch_10">
    <path d="M 436.0625 276.68 
L 436.0625 181.688 
" style="fill: none; stroke: #000000; stroke-width: 0.8; stroke-linejoin: miter; stroke-linecap: square"/>
   </g>
   <g id="patch_11">
    <path d="M 53.0525 276.68 
L 436.0625 276.68 
" style="fill: none; stroke: #000000; stroke-width: 0.8; stroke-linejoin: miter; stroke-linecap: square"/>
   </g>
   <g id="patch_12">
    <path d="M 53.0525 181.688 
L 436.0625 181.688 
" style="fill: none; stroke: #000000; stroke-width: 0.8; stroke-linejoin: miter; stroke-linecap: square"/>
   </g>
  </g>
 </g>
 <defs>
  <clipPath id="pf5d587d132">
   <rect x="53.0525" y="7.2" width="383.01" height="47.496"/>
  </clipPath>
  <clipPath id="p2c260bfabe">
   <rect x="53.0525" y="70.696" width="383.01" height="94.992"/>
  </clipPath>
  <clipPath id="p76d726655c">
   <rect x="53.0525" y="181.688" width="383.01" height="94.992"/>
  </clipPath>
 </defs>
</svg>
