<?xml version="1.0" encoding="utf-8" standalone="no"?>
<!DOCTYPE svg PUBLIC "-//W3C//DTD SVG 1.1//EN"
  "http://www.w3.org/Graphics/SVG/1.1/DTD/svg11.dtd">
<svg xmlns:xlink="http://www.w3.org/1999/xlink" width="443.2175pt" height="325.85pt" viewBox="0 0 443.2175 325.85" xmlns="http://www.w3.org/2000/svg" version="1.1">
 <metadata>
  <rdf:RDF xmlns:dc="http://purl.org/dc/elements/1.1/" xmlns:cc="http://creativecommons.org/ns#" xmlns:rdf="http://www.w3.org/1999/02/22-rdf-syntax-ns#">
   <cc:Work>
    <dc:type rdf:resource="http://purl.org/dc/dcmitype/StillImage"/>
    <dc:date>2024-01-28T20:53:18.012638</dc:date>
    <dc:format>image/svg+xml</dc:format>
    <dc:creator>
     <cc:Agent>
      <dc:title>Matplotlib v3.7.2, https://matplotlib.org/</dc:title>
     </cc:Agent>
    </dc:creator>
   </cc:Work>
  </rdf:RDF>
 </metadata>
 <defs>
  <style type="text/css">*{stroke-linejoin: round; stroke-linecap: butt}</style>
 </defs>
 <g id="figure_1">
  <g id="patch_1">
   <path d="M 0 325.85 
L 443.2175 325.85 
L 443.2175 0 
L 0 0 
z
" style="fill: #ffffff"/>
  </g>
  <g id="axes_1">
   <g id="patch_2">
    <path d="M 47.9675 54.696 
L 436.0175 54.696 
L 436.0175 7.2 
L 47.9675 7.2 
z
" style="fill: #ffffff"/>
   </g>
   <g id="PolyCollection_1">
    <defs>
     <path id="m0d1ade0529" d="M 65.606136 -273.312909 
L 65.606136 -278.738855 
L 72.661591 -278.467121 
L 79.717045 -278.188295 
L 86.7725 -278.110485 
L 93.827955 -278.110485 
L 100.883409 -278.110485 
L 107.938864 -278.110485 
L 114.994318 -278.110485 
L 122.049773 -278.110485 
L 129.105227 -278.110485 
L 136.160682 -278.110485 
L 143.216136 -278.110485 
L 150.271591 -278.110485 
L 157.327045 -278.110485 
L 164.3825 -278.110485 
L 171.437955 -278.110485 
L 178.493409 -278.110485 
L 185.548864 -278.110485 
L 192.604318 -278.110485 
L 199.659773 -278.110485 
L 206.715227 -278.110485 
L 213.770682 -278.110485 
L 220.826136 -278.110485 
L 227.881591 -278.110485 
L 234.937045 -278.110485 
L 241.9925 -278.110485 
L 249.047955 -278.401639 
L 256.103409 -279.10756 
L 263.158864 -279.957154 
L 270.214318 -280.970117 
L 277.269773 -282.164552 
L 284.325227 -283.554405 
L 291.380682 -285.146351 
L 298.436136 -286.936451 
L 305.491591 -288.907451 
L 312.547045 -291.027437 
L 319.6025 -293.250799 
L 326.657955 -295.521681 
L 333.713409 -297.779573 
L 340.768864 -299.965803 
L 347.824318 -302.029465 
L 354.879773 -303.931512 
L 361.935227 -305.646461 
L 368.990682 -307.161813 
L 376.046136 -308.475935 
L 383.101591 -309.595166 
L 390.157045 -310.530862 
L 397.2125 -311.296845 
L 404.267955 -311.907415 
L 411.323409 -312.375959 
L 418.378864 -312.714067 
L 418.378864 -273.312909 
L 418.378864 -273.312909 
L 411.323409 -273.312909 
L 404.267955 -273.312909 
L 397.2125 -273.312909 
L 390.157045 -273.312909 
L 383.101591 -273.312909 
L 376.046136 -273.312909 
L 368.990682 -273.312909 
L 361.935227 -273.312909 
L 354.879773 -273.312909 
L 347.824318 -273.312909 
L 340.768864 -273.312909 
L 333.713409 -273.312909 
L 326.657955 -273.312909 
L 319.6025 -273.312909 
L 312.547045 -273.312909 
L 305.491591 -273.312909 
L 298.436136 -273.312909 
L 291.380682 -273.312909 
L 284.325227 -273.312909 
L 277.269773 -273.312909 
L 270.214318 -273.312909 
L 263.158864 -273.312909 
L 256.103409 -273.312909 
L 249.047955 -273.312909 
L 241.9925 -273.312909 
L 234.937045 -273.312909 
L 227.881591 -273.312909 
L 220.826136 -273.312909 
L 213.770682 -273.312909 
L 206.715227 -273.312909 
L 199.659773 -273.312909 
L 192.604318 -273.312909 
L 185.548864 -273.312909 
L 178.493409 -273.312909 
L 171.437955 -273.312909 
L 164.3825 -273.312909 
L 157.327045 -273.312909 
L 150.271591 -273.312909 
L 143.216136 -273.312909 
L 136.160682 -273.312909 
L 129.105227 -273.312909 
L 122.049773 -273.312909 
L 114.994318 -273.312909 
L 107.938864 -273.312909 
L 100.883409 -273.312909 
L 93.827955 -273.312909 
L 86.7725 -273.312909 
L 79.717045 -273.312909 
L 72.661591 -273.312909 
L 65.606136 -273.312909 
z
" style="stroke: #dc143c; stroke-opacity: 0.2"/>
    </defs>
    <g clip-path="url(#p10d3238373)">
     <use xlink:href="#m0d1ade0529" x="0" y="325.85" style="fill: #dc143c; fill-opacity: 0.2; stroke: #dc143c; stroke-opacity: 0.2"/>
    </g>
   </g>
   <g id="PolyCollection_2">
    <defs>
     <path id="m5e9f34b0c1" d="M 65.606136 -273.312909 
L 65.606136 -315.862721 
L 72.661591 -316.134455 
L 79.717045 -316.413281 
L 86.7725 -316.491091 
L 93.827955 -316.491091 
L 100.883409 -316.491091 
L 107.938864 -316.491091 
L 114.994318 -316.491091 
L 122.049773 -316.491091 
L 129.105227 -316.491091 
L 136.160682 -316.491091 
L 143.216136 -316.491091 
L 150.271591 -316.491091 
L 157.327045 -316.491091 
L 164.3825 -316.491091 
L 171.437955 -316.491091 
L 178.493409 -316.491091 
L 185.548864 -316.491091 
L 192.604318 -316.491091 
L 199.659773 -316.491091 
L 206.715227 -316.491091 
L 213.770682 -316.491091 
L 220.826136 -316.491091 
L 227.881591 -316.491091 
L 234.937045 -316.491091 
L 241.9925 -316.491091 
L 249.047955 -316.199937 
L 256.103409 -315.494016 
L 263.158864 -314.644422 
L 270.214318 -313.631459 
L 277.269773 -312.437024 
L 284.325227 -311.047171 
L 291.380682 -309.455225 
L 298.436136 -307.665125 
L 305.491591 -305.694125 
L 312.547045 -303.574139 
L 319.6025 -301.350777 
L 326.657955 -299.079895 
L 333.713409 -296.822003 
L 340.768864 -294.635773 
L 347.824318 -292.57211 
L 354.879773 -290.670064 
L 361.935227 -288.955115 
L 368.990682 -287.439763 
L 376.046136 -286.125641 
L 383.101591 -285.00641 
L 390.157045 -284.070714 
L 397.2125 -283.304731 
L 404.267955 -282.694161 
L 411.323409 -282.225616 
L 418.378864 -281.887509 
L 418.378864 -273.312909 
L 418.378864 -273.312909 
L 411.323409 -273.312909 
L 404.267955 -273.312909 
L 397.2125 -273.312909 
L 390.157045 -273.312909 
L 383.101591 -273.312909 
L 376.046136 -273.312909 
L 368.990682 -273.312909 
L 361.935227 -273.312909 
L 354.879773 -273.312909 
L 347.824318 -273.312909 
L 340.768864 -273.312909 
L 333.713409 -273.312909 
L 326.657955 -273.312909 
L 319.6025 -273.312909 
L 312.547045 -273.312909 
L 305.491591 -273.312909 
L 298.436136 -273.312909 
L 291.380682 -273.312909 
L 284.325227 -273.312909 
L 277.269773 -273.312909 
L 270.214318 -273.312909 
L 263.158864 -273.312909 
L 256.103409 -273.312909 
L 249.047955 -273.312909 
L 241.9925 -273.312909 
L 234.937045 -273.312909 
L 227.881591 -273.312909 
L 220.826136 -273.312909 
L 213.770682 -273.312909 
L 206.715227 -273.312909 
L 199.659773 -273.312909 
L 192.604318 -273.312909 
L 185.548864 -273.312909 
L 178.493409 -273.312909 
L 171.437955 -273.312909 
L 164.3825 -273.312909 
L 157.327045 -273.312909 
L 150.271591 -273.312909 
L 143.216136 -273.312909 
L 136.160682 -273.312909 
L 129.105227 -273.312909 
L 122.049773 -273.312909 
L 114.994318 -273.312909 
L 107.938864 -273.312909 
L 100.883409 -273.312909 
L 93.827955 -273.312909 
L 86.7725 -273.312909 
L 79.717045 -273.312909 
L 72.661591 -273.312909 
L 65.606136 -273.312909 
z
" style="stroke: #000080; stroke-opacity: 0.2"/>
    </defs>
    <g clip-path="url(#p10d3238373)">
     <use xlink:href="#m5e9f34b0c1" x="0" y="325.85" style="fill: #000080; fill-opacity: 0.2; stroke: #000080; stroke-opacity: 0.2"/>
    </g>
   </g>
   <g id="matplotlib.axis_1"/>
   <g id="matplotlib.axis_2"/>
   <g id="line2d_1">
    <path d="M 65.606136 47.111145 
L 72.661591 47.382879 
L 79.717045 47.661705 
L 86.7725 47.739515 
L 93.827955 47.739515 
L 100.883409 47.739515 
L 107.938864 47.739515 
L 114.994318 47.739515 
L 122.049773 47.739515 
L 129.105227 47.739515 
L 136.160682 47.739515 
L 143.216136 47.739515 
L 150.271591 47.739515 
L 157.327045 47.739515 
L 164.3825 47.739515 
L 171.437955 47.739515 
L 178.493409 47.739515 
L 185.548864 47.739515 
L 192.604318 47.739515 
L 199.659773 47.739515 
L 206.715227 47.739515 
L 213.770682 47.739515 
L 220.826136 47.739515 
L 227.881591 47.739515 
L 234.937045 47.739515 
L 241.9925 47.739515 
L 249.047955 47.448361 
L 256.103409 46.74244 
L 263.158864 45.892846 
L 270.214318 44.879883 
L 277.269773 43.685448 
L 284.325227 42.295595 
L 291.380682 40.703649 
L 298.436136 38.913549 
L 305.491591 36.942549 
L 312.547045 34.822563 
L 319.6025 32.599201 
L 326.657955 30.328319 
L 333.713409 28.070427 
L 340.768864 25.884197 
L 347.824318 23.820535 
L 354.879773 21.918488 
L 361.935227 20.203539 
L 368.990682 18.688187 
L 376.046136 17.374065 
L 383.101591 16.254834 
L 390.157045 15.319138 
L 397.2125 14.553155 
L 404.267955 13.942585 
L 411.323409 13.474041 
L 418.378864 13.135933 
" clip-path="url(#p10d3238373)" style="fill: none; stroke: #dc143c; stroke-width: 1.5; stroke-linecap: square"/>
   </g>
   <g id="line2d_2">
    <path d="M 65.606136 9.987279 
L 72.661591 9.715545 
L 79.717045 9.436719 
L 86.7725 9.358909 
L 93.827955 9.358909 
L 100.883409 9.358909 
L 107.938864 9.358909 
L 114.994318 9.358909 
L 122.049773 9.358909 
L 129.105227 9.358909 
L 136.160682 9.358909 
L 143.216136 9.358909 
L 150.271591 9.358909 
L 157.327045 9.358909 
L 164.3825 9.358909 
L 171.437955 9.358909 
L 178.493409 9.358909 
L 185.548864 9.358909 
L 192.604318 9.358909 
L 199.659773 9.358909 
L 206.715227 9.358909 
L 213.770682 9.358909 
L 220.826136 9.358909 
L 227.881591 9.358909 
L 234.937045 9.358909 
L 241.9925 9.358909 
L 249.047955 9.650063 
L 256.103409 10.355984 
L 263.158864 11.205578 
L 270.214318 12.218541 
L 277.269773 13.412976 
L 284.325227 14.802829 
L 291.380682 16.394775 
L 298.436136 18.184875 
L 305.491591 20.155875 
L 312.547045 22.275861 
L 319.6025 24.499223 
L 326.657955 26.770105 
L 333.713409 29.027997 
L 340.768864 31.214227 
L 347.824318 33.27789 
L 354.879773 35.179936 
L 361.935227 36.894885 
L 368.990682 38.410237 
L 376.046136 39.724359 
L 383.101591 40.84359 
L 390.157045 41.779286 
L 397.2125 42.545269 
L 404.267955 43.155839 
L 411.323409 43.624384 
L 418.378864 43.962491 
" clip-path="url(#p10d3238373)" style="fill: none; stroke: #000080; stroke-width: 1.5; stroke-linecap: square"/>
   </g>
  </g>
  <g id="axes_2">
   <g id="patch_3">
    <path d="M 47.9675 165.688 
L 436.0175 165.688 
L 436.0175 70.696 
L 47.9675 70.696 
z
" style="fill: #ffffff"/>
   </g>
   <g id="PathCollection_1">
    <defs>
     <path id="m1b25d3d2c1" d="M 0 0.866025 
C 0.229673 0.866025 0.449969 0.774776 0.612372 0.612372 
C 0.774776 0.449969 0.866025 0.229673 0.866025 0 
C 0.866025 -0.229673 0.774776 -0.449969 0.612372 -0.612372 
C 0.449969 -0.774776 0.229673 -0.866025 0 -0.866025 
C -0.229673 -0.866025 -0.449969 -0.774776 -0.612372 -0.612372 
C -0.774776 -0.449969 -0.866025 -0.229673 -0.866025 0 
C -0.866025 0.229673 -0.774776 0.449969 -0.612372 0.612372 
C -0.449969 0.774776 -0.229673 0.866025 0 0.866025 
z
" style="stroke: #daa520"/>
    </defs>
    <g clip-path="url(#p4aebd3f2af)">
     <use xlink:href="#m1b25d3d2c1" x="355.045509" y="92.630199" style="fill: #daa520; stroke: #daa520"/>
     <use xlink:href="#m1b25d3d2c1" x="170.474989" y="82.866398" style="fill: #daa520; stroke: #daa520"/>
     <use xlink:href="#m1b25d3d2c1" x="112.676295" y="75.013818" style="fill: #daa520; stroke: #daa520"/>
     <use xlink:href="#m1b25d3d2c1" x="415.05029" y="93.92496" style="fill: #daa520; stroke: #daa520"/>
     <use xlink:href="#m1b25d3d2c1" x="241.031996" y="83.849724" style="fill: #daa520; stroke: #daa520"/>
     <use xlink:href="#m1b25d3d2c1" x="376.67911" y="93.466477" style="fill: #daa520; stroke: #daa520"/>
     <use xlink:href="#m1b25d3d2c1" x="406.649717" y="94.263455" style="fill: #daa520; stroke: #daa520"/>
     <use xlink:href="#m1b25d3d2c1" x="155.384212" y="85.596826" style="fill: #daa520; stroke: #daa520"/>
     <use xlink:href="#m1b25d3d2c1" x="367.491185" y="92.037033" style="fill: #daa520; stroke: #daa520"/>
     <use xlink:href="#m1b25d3d2c1" x="316.281034" y="90.55505" style="fill: #daa520; stroke: #daa520"/>
     <use xlink:href="#m1b25d3d2c1" x="102.054864" y="76.33008" style="fill: #daa520; stroke: #daa520"/>
     <use xlink:href="#m1b25d3d2c1" x="290.697184" y="81.648037" style="fill: #daa520; stroke: #daa520"/>
     <use xlink:href="#m1b25d3d2c1" x="388.158919" y="86.066406" style="fill: #daa520; stroke: #daa520"/>
     <use xlink:href="#m1b25d3d2c1" x="328.541238" y="82.611349" style="fill: #daa520; stroke: #daa520"/>
     <use xlink:href="#m1b25d3d2c1" x="302.722232" y="78.110626" style="fill: #daa520; stroke: #daa520"/>
     <use xlink:href="#m1b25d3d2c1" x="395.500334" y="95.563902" style="fill: #daa520; stroke: #daa520"/>
     <use xlink:href="#m1b25d3d2c1" x="406.060447" y="99.082739" style="fill: #daa520; stroke: #daa520"/>
     <use xlink:href="#m1b25d3d2c1" x="358.912862" y="87.686793" style="fill: #daa520; stroke: #daa520"/>
     <use xlink:href="#m1b25d3d2c1" x="239.834549" y="76.547216" style="fill: #daa520; stroke: #daa520"/>
     <use xlink:href="#m1b25d3d2c1" x="344.112287" y="84.367412" style="fill: #daa520; stroke: #daa520"/>
     <use xlink:href="#m1b25d3d2c1" x="233.528224" y="83.34102" style="fill: #daa520; stroke: #daa520"/>
     <use xlink:href="#m1b25d3d2c1" x="412.270683" y="99.76343" style="fill: #daa520; stroke: #daa520"/>
     <use xlink:href="#m1b25d3d2c1" x="232.858921" y="82.353071" style="fill: #daa520; stroke: #daa520"/>
     <use xlink:href="#m1b25d3d2c1" x="367.578421" y="82.887723" style="fill: #daa520; stroke: #daa520"/>
     <use xlink:href="#m1b25d3d2c1" x="411.431892" y="89.374387" style="fill: #daa520; stroke: #daa520"/>
     <use xlink:href="#m1b25d3d2c1" x="413.290168" y="94.776253" style="fill: #daa520; stroke: #daa520"/>
     <use xlink:href="#m1b25d3d2c1" x="94.394334" y="86.666031" style="fill: #daa520; stroke: #daa520"/>
     <use xlink:href="#m1b25d3d2c1" x="339.271518" y="91.397428" style="fill: #daa520; stroke: #daa520"/>
     <use xlink:href="#m1b25d3d2c1" x="133.523006" y="77.223379" style="fill: #daa520; stroke: #daa520"/>
     <use xlink:href="#m1b25d3d2c1" x="251.009363" y="82.374561" style="fill: #daa520; stroke: #daa520"/>
     <use xlink:href="#m1b25d3d2c1" x="376.270631" y="94.373614" style="fill: #daa520; stroke: #daa520"/>
     <use xlink:href="#m1b25d3d2c1" x="383.716876" y="87.811931" style="fill: #daa520; stroke: #daa520"/>
     <use xlink:href="#m1b25d3d2c1" x="376.349502" y="92.930711" style="fill: #daa520; stroke: #daa520"/>
     <use xlink:href="#m1b25d3d2c1" x="371.822916" y="92.808725" style="fill: #daa520; stroke: #daa520"/>
     <use xlink:href="#m1b25d3d2c1" x="331.306914" y="88.327126" style="fill: #daa520; stroke: #daa520"/>
     <use xlink:href="#m1b25d3d2c1" x="416.347761" y="92.333569" style="fill: #daa520; stroke: #daa520"/>
     <use xlink:href="#m1b25d3d2c1" x="277.169984" y="81.159411" style="fill: #daa520; stroke: #daa520"/>
     <use xlink:href="#m1b25d3d2c1" x="318.73908" y="77.686676" style="fill: #daa520; stroke: #daa520"/>
     <use xlink:href="#m1b25d3d2c1" x="346.253445" y="82.115837" style="fill: #daa520; stroke: #daa520"/>
     <use xlink:href="#m1b25d3d2c1" x="322.435462" y="81.344139" style="fill: #daa520; stroke: #daa520"/>
     <use xlink:href="#m1b25d3d2c1" x="403.58345" y="90.313748" style="fill: #daa520; stroke: #daa520"/>
     <use xlink:href="#m1b25d3d2c1" x="381.955942" y="93.732099" style="fill: #daa520; stroke: #daa520"/>
     <use xlink:href="#m1b25d3d2c1" x="333.550504" y="91.379273" style="fill: #daa520; stroke: #daa520"/>
     <use xlink:href="#m1b25d3d2c1" x="403.382803" y="97.411351" style="fill: #daa520; stroke: #daa520"/>
     <use xlink:href="#m1b25d3d2c1" x="223.734689" y="83.940304" style="fill: #daa520; stroke: #daa520"/>
     <use xlink:href="#m1b25d3d2c1" x="380.964042" y="93.247756" style="fill: #daa520; stroke: #daa520"/>
     <use xlink:href="#m1b25d3d2c1" x="340.385961" y="78.737094" style="fill: #daa520; stroke: #daa520"/>
     <use xlink:href="#m1b25d3d2c1" x="352.511813" y="91.144106" style="fill: #daa520; stroke: #daa520"/>
     <use xlink:href="#m1b25d3d2c1" x="364.892664" y="92.612073" style="fill: #daa520; stroke: #daa520"/>
     <use xlink:href="#m1b25d3d2c1" x="411.383705" y="90.443763" style="fill: #daa520; stroke: #daa520"/>
     <use xlink:href="#m1b25d3d2c1" x="345.089304" y="80.20937" style="fill: #daa520; stroke: #daa520"/>
     <use xlink:href="#m1b25d3d2c1" x="300.885089" y="89.181678" style="fill: #daa520; stroke: #daa520"/>
     <use xlink:href="#m1b25d3d2c1" x="363.545406" y="85.171405" style="fill: #daa520; stroke: #daa520"/>
     <use xlink:href="#m1b25d3d2c1" x="311.725084" y="85.165609" style="fill: #daa520; stroke: #daa520"/>
     <use xlink:href="#m1b25d3d2c1" x="97.169966" y="86.597246" style="fill: #daa520; stroke: #daa520"/>
     <use xlink:href="#m1b25d3d2c1" x="326.628153" y="90.018721" style="fill: #daa520; stroke: #daa520"/>
     <use xlink:href="#m1b25d3d2c1" x="338.290934" y="84.605375" style="fill: #daa520; stroke: #daa520"/>
     <use xlink:href="#m1b25d3d2c1" x="412.39363" y="98.741064" style="fill: #daa520; stroke: #daa520"/>
     <use xlink:href="#m1b25d3d2c1" x="311.198534" y="89.628558" style="fill: #daa520; stroke: #daa520"/>
     <use xlink:href="#m1b25d3d2c1" x="394.188404" y="95.856175" style="fill: #daa520; stroke: #daa520"/>
     <use xlink:href="#m1b25d3d2c1" x="398.838777" y="94.34738" style="fill: #daa520; stroke: #daa520"/>
     <use xlink:href="#m1b25d3d2c1" x="349.970803" y="89.067136" style="fill: #daa520; stroke: #daa520"/>
     <use xlink:href="#m1b25d3d2c1" x="407.584255" y="91.848297" style="fill: #daa520; stroke: #daa520"/>
     <use xlink:href="#m1b25d3d2c1" x="406.038164" y="90.336804" style="fill: #daa520; stroke: #daa520"/>
     <use xlink:href="#m1b25d3d2c1" x="340.975463" y="85.847951" style="fill: #daa520; stroke: #daa520"/>
     <use xlink:href="#m1b25d3d2c1" x="416.97299" y="94.645858" style="fill: #daa520; stroke: #daa520"/>
     <use xlink:href="#m1b25d3d2c1" x="284.418658" y="78.283524" style="fill: #daa520; stroke: #daa520"/>
     <use xlink:href="#m1b25d3d2c1" x="367.811942" y="87.878248" style="fill: #daa520; stroke: #daa520"/>
     <use xlink:href="#m1b25d3d2c1" x="374.640192" y="93.440589" style="fill: #daa520; stroke: #daa520"/>
     <use xlink:href="#m1b25d3d2c1" x="272.257471" y="80.9515" style="fill: #daa520; stroke: #daa520"/>
     <use xlink:href="#m1b25d3d2c1" x="172.552196" y="86.25914" style="fill: #daa520; stroke: #daa520"/>
     <use xlink:href="#m1b25d3d2c1" x="279.294874" y="86.57117" style="fill: #daa520; stroke: #daa520"/>
     <use xlink:href="#m1b25d3d2c1" x="173.946282" y="81.523243" style="fill: #daa520; stroke: #daa520"/>
     <use xlink:href="#m1b25d3d2c1" x="393.407585" y="93.1219" style="fill: #daa520; stroke: #daa520"/>
     <use xlink:href="#m1b25d3d2c1" x="263.918526" y="85.906901" style="fill: #daa520; stroke: #daa520"/>
     <use xlink:href="#m1b25d3d2c1" x="373.466312" y="93.113829" style="fill: #daa520; stroke: #daa520"/>
     <use xlink:href="#m1b25d3d2c1" x="194.805063" y="82.964649" style="fill: #daa520; stroke: #daa520"/>
     <use xlink:href="#m1b25d3d2c1" x="417.580201" y="94.287931" style="fill: #daa520; stroke: #daa520"/>
     <use xlink:href="#m1b25d3d2c1" x="373.065069" y="89.804103" style="fill: #daa520; stroke: #daa520"/>
     <use xlink:href="#m1b25d3d2c1" x="385.189446" y="93.321644" style="fill: #daa520; stroke: #daa520"/>
     <use xlink:href="#m1b25d3d2c1" x="115.969208" y="81.054134" style="fill: #daa520; stroke: #daa520"/>
     <use xlink:href="#m1b25d3d2c1" x="393.663165" y="94.068333" style="fill: #daa520; stroke: #daa520"/>
     <use xlink:href="#m1b25d3d2c1" x="228.089706" y="82.957465" style="fill: #daa520; stroke: #daa520"/>
     <use xlink:href="#m1b25d3d2c1" x="341.4126" y="85.398328" style="fill: #daa520; stroke: #daa520"/>
     <use xlink:href="#m1b25d3d2c1" x="395.980963" y="95.880945" style="fill: #daa520; stroke: #daa520"/>
     <use xlink:href="#m1b25d3d2c1" x="406.543251" y="99.256142" style="fill: #daa520; stroke: #daa520"/>
     <use xlink:href="#m1b25d3d2c1" x="303.167386" y="78.674073" style="fill: #daa520; stroke: #daa520"/>
     <use xlink:href="#m1b25d3d2c1" x="383.765719" y="92.490839" style="fill: #daa520; stroke: #daa520"/>
     <use xlink:href="#m1b25d3d2c1" x="96.304775" y="78.596771" style="fill: #daa520; stroke: #daa520"/>
     <use xlink:href="#m1b25d3d2c1" x="364.601415" y="84.13019" style="fill: #daa520; stroke: #daa520"/>
     <use xlink:href="#m1b25d3d2c1" x="378.331026" y="91.214355" style="fill: #daa520; stroke: #daa520"/>
     <use xlink:href="#m1b25d3d2c1" x="382.738367" y="95.913332" style="fill: #daa520; stroke: #daa520"/>
     <use xlink:href="#m1b25d3d2c1" x="374.137399" y="94.345431" style="fill: #daa520; stroke: #daa520"/>
     <use xlink:href="#m1b25d3d2c1" x="407.188093" y="93.919088" style="fill: #daa520; stroke: #daa520"/>
    </g>
   </g>
   <g id="matplotlib.axis_3"/>
   <g id="matplotlib.axis_4">
    <g id="ytick_1">
     <g id="line2d_3">
      <defs>
       <path id="m899f25554f" d="M 0 0 
L -3.5 0 
" style="stroke: #696969; stroke-width: 0.8"/>
      </defs>
      <g>
       <use xlink:href="#m899f25554f" x="47.9675" y="140.582196" style="fill: #696969; stroke: #696969; stroke-width: 0.8"/>
      </g>
     </g>
     <g id="text_1">
      <!-- −20 -->
      <g style="fill: #696969" transform="translate(7.2 146.660946) scale(0.16 -0.16)">
       <defs>
        <path id="DejaVuSans-2212" d="M 678 2272 
L 4684 2272 
L 4684 1741 
L 678 1741 
L 678 2272 
z
" transform="scale(0.015625)"/>
        <path id="DejaVuSans-32" d="M 1228 531 
L 3431 531 
L 3431 0 
L 469 0 
L 469 531 
Q 828 903 1448 1529 
Q 2069 2156 2228 2338 
Q 2531 2678 2651 2914 
Q 2772 3150 2772 3378 
Q 2772 3750 2511 3984 
Q 2250 4219 1831 4219 
Q 1534 4219 1204 4116 
Q 875 4013 500 3803 
L 500 4441 
Q 881 4594 1212 4672 
Q 1544 4750 1819 4750 
Q 2544 4750 2975 4387 
Q 3406 4025 3406 3419 
Q 3406 3131 3298 2873 
Q 3191 2616 2906 2266 
Q 2828 2175 2409 1742 
Q 1991 1309 1228 531 
z
" transform="scale(0.015625)"/>
        <path id="DejaVuSans-30" d="M 2034 4250 
Q 1547 4250 1301 3770 
Q 1056 3291 1056 2328 
Q 1056 1369 1301 889 
Q 1547 409 2034 409 
Q 2525 409 2770 889 
Q 3016 1369 3016 2328 
Q 3016 3291 2770 3770 
Q 2525 4250 2034 4250 
z
M 2034 4750 
Q 2819 4750 3233 4129 
Q 3647 3509 3647 2328 
Q 3647 1150 3233 529 
Q 2819 -91 2034 -91 
Q 1250 -91 836 529 
Q 422 1150 422 2328 
Q 422 3509 836 4129 
Q 1250 4750 2034 4750 
z
" transform="scale(0.015625)"/>
       </defs>
       <use xlink:href="#DejaVuSans-2212"/>
       <use xlink:href="#DejaVuSans-32" x="83.789062"/>
       <use xlink:href="#DejaVuSans-30" x="147.412109"/>
      </g>
     </g>
    </g>
    <g id="ytick_2">
     <g id="line2d_4">
      <g>
       <use xlink:href="#m899f25554f" x="47.9675" y="84.387661" style="fill: #696969; stroke: #696969; stroke-width: 0.8"/>
      </g>
     </g>
     <g id="text_2">
      <!-- 0 -->
      <g style="fill: #696969" transform="translate(30.7875 90.466411) scale(0.16 -0.16)">
       <use xlink:href="#DejaVuSans-30"/>
      </g>
     </g>
    </g>
   </g>
   <g id="line2d_5">
    <path d="M 65.606136 83.375956 
L 72.661591 83.01837 
L 79.717045 82.695589 
L 86.7725 82.412167 
L 93.827955 82.171326 
L 100.883409 81.974816 
L 107.938864 81.822859 
L 114.994318 81.714181 
L 122.049773 81.646119 
L 129.105227 81.614817 
L 136.160682 81.615479 
L 143.216136 81.642661 
L 150.271591 81.690574 
L 157.327045 81.753394 
L 164.3825 81.825527 
L 171.437955 81.901845 
L 178.493409 81.977873 
L 185.548864 82.04992 
L 192.604318 82.115177 
L 199.659773 82.17178 
L 206.715227 82.21886 
L 213.770682 82.256576 
L 220.826136 82.286159 
L 227.881591 82.309954 
L 234.937045 82.331457 
L 241.9925 82.355342 
L 249.047955 82.387458 
L 256.103409 82.43476 
L 263.158864 82.505185 
L 270.214318 82.607438 
L 277.269773 82.750674 
L 284.325227 82.944099 
L 291.380682 83.196486 
L 298.436136 83.515636 
L 305.491591 83.907821 
L 312.547045 84.377256 
L 319.6025 84.925625 
L 326.657955 85.551739 
L 333.713409 86.25132 
L 340.768864 87.016989 
L 347.824318 87.838425 
L 354.879773 88.702734 
L 361.935227 89.59498 
L 368.990682 90.498868 
L 376.046136 91.397527 
L 383.101591 92.274335 
L 390.157045 93.113743 
L 397.2125 93.902025 
L 404.267955 94.627919 
L 411.323409 95.283096 
L 418.378864 95.862455 
" clip-path="url(#p4aebd3f2af)" style="fill: none; stroke: #000000; stroke-width: 2; stroke-linecap: square"/>
   </g>
   <g id="line2d_6">
    <path d="M 65.606136 160.672351 
L 72.661591 128.573108 
L 79.717045 107.060616 
L 86.7725 93.215455 
L 93.827955 84.806734 
L 100.883409 80.152255 
L 107.938864 78.002854 
L 114.994318 77.447505 
L 122.049773 77.836083 
L 129.105227 78.717101 
L 136.160682 79.788 
L 143.216136 80.855913 
L 150.271591 81.807067 
L 157.327045 82.583256 
L 164.3825 83.164021 
L 171.437955 83.553396 
L 178.493409 83.770257 
L 185.548864 83.841451 
L 192.604318 83.797073 
L 199.659773 83.667318 
L 206.715227 83.480526 
L 213.770682 83.262042 
L 220.826136 83.033674 
L 227.881591 82.81354 
L 234.937045 82.616179 
L 241.9925 82.452829 
L 249.047955 82.331813 
L 256.103409 82.259 
L 263.158864 82.238313 
L 270.214318 82.272265 
L 277.269773 82.362517 
L 284.325227 82.510447 
L 291.380682 82.717682 
L 298.436136 82.98659 
L 305.491591 83.320667 
L 312.547045 83.72477 
L 319.6025 84.205123 
L 326.657955 84.769034 
L 333.713409 85.424207 
L 340.768864 86.177599 
L 347.824318 87.0337 
L 354.879773 87.992175 
L 361.935227 89.044797 
L 368.990682 90.171623 
L 376.046136 91.336398 
L 383.101591 92.481225 
L 390.157045 93.520553 
L 397.2125 94.334668 
L 404.267955 94.762856 
L 411.323409 94.596599 
L 418.378864 93.573192 
" clip-path="url(#p4aebd3f2af)" style="fill: none; stroke-dasharray: 7.4,3.2; stroke-dashoffset: 0; stroke: #34b6c6; stroke-width: 2"/>
   </g>
   <g id="line2d_7">
    <path d="M 65.606136 161.370182 
L 72.661591 128.946061 
L 79.717045 107.242544 
L 86.7725 93.290399 
L 93.827955 84.825552 
L 100.883409 80.144429 
L 107.938864 77.984658 
L 114.994318 77.427453 
L 122.049773 77.818416 
L 129.105227 78.70388 
L 136.160682 79.780265 
L 143.216136 80.854238 
L 150.271591 81.811748 
L 157.327045 82.594312 
L 164.3825 83.181121 
L 171.437955 83.575785 
L 178.493409 83.796713 
L 185.548864 83.870311 
L 192.604318 83.826301 
L 199.659773 83.694639 
L 206.715227 83.503589 
L 213.770682 83.278615 
L 220.826136 83.041846 
L 227.881591 82.811918 
L 234.937045 82.60407 
L 241.9925 82.43039 
L 249.047955 82.300155 
L 256.103409 82.220232 
L 263.158864 82.195503 
L 270.214318 82.229303 
L 277.269773 82.323863 
L 284.325227 82.480726 
L 291.380682 82.70114 
L 298.436136 82.986404 
L 305.491591 83.338167 
L 312.547045 83.758689 
L 319.6025 84.251078 
L 326.657955 84.819517 
L 333.713409 85.469429 
L 340.768864 86.207382 
L 347.824318 87.040314 
L 354.879773 87.973437 
L 361.935227 89.006187 
L 368.990682 90.126033 
L 376.046136 91.300732 
L 383.101591 92.470324 
L 390.157045 93.540258 
L 397.2125 94.376548 
L 404.267955 94.803139 
L 411.323409 94.60136 
L 418.378864 93.511492 
" clip-path="url(#p4aebd3f2af)" style="fill: none; stroke-dasharray: 7.4,3.2; stroke-dashoffset: 0; stroke: #9370db; stroke-width: 2"/>
   </g>
   <g id="line2d_8">
    <path d="M 65.606136 80.336097 
L 72.661591 80.392372 
L 79.717045 80.449707 
L 86.7725 80.508173 
L 93.827955 80.567852 
L 100.883409 80.628834 
L 107.938864 80.691223 
L 114.994318 80.755136 
L 122.049773 80.820706 
L 129.105227 80.888085 
L 136.160682 80.95745 
L 143.216136 81.029001 
L 150.271591 81.102974 
L 157.327045 81.17964 
L 164.3825 81.259317 
L 171.437955 81.342375 
L 178.493409 81.429247 
L 185.548864 81.520442 
L 192.604318 81.616558 
L 199.659773 81.718298 
L 206.715227 81.826489 
L 213.770682 81.942102 
L 220.826136 82.066282 
L 227.881591 82.20037 
L 234.937045 82.34594 
L 241.9925 82.504832 
L 249.047955 82.679191 
L 256.103409 82.871509 
L 263.158864 83.084667 
L 270.214318 83.321978 
L 277.269773 83.587218 
L 284.325227 83.884657 
L 291.380682 84.219037 
L 298.436136 84.595518 
L 305.491591 85.019506 
L 312.547045 85.496324 
L 319.6025 86.030635 
L 326.657955 86.625542 
L 333.713409 87.281344 
L 340.768864 87.994076 
L 347.824318 88.754203 
L 354.879773 89.546062 
L 361.935227 90.34866 
L 368.990682 91.138069 
L 376.046136 91.890913 
L 383.101591 92.587834 
L 390.157045 93.215792 
L 397.2125 93.768655 
L 404.267955 94.246315 
L 411.323409 94.653004 
L 418.378864 94.995507 
" clip-path="url(#p4aebd3f2af)" style="fill: none; stroke-dasharray: 12.8,3.2,2,3.2; stroke-dashoffset: 0; stroke: #ff0000; stroke-width: 2"/>
   </g>
   <g id="patch_4">
    <path d="M 47.9675 165.688 
L 47.9675 70.696 
" style="fill: none; stroke: #000000; stroke-width: 0.8; stroke-linejoin: miter; stroke-linecap: square"/>
   </g>
   <g id="patch_5">
    <path d="M 436.0175 165.688 
L 436.0175 70.696 
" style="fill: none; stroke: #000000; stroke-width: 0.8; stroke-linejoin: miter; stroke-linecap: square"/>
   </g>
   <g id="patch_6">
    <path d="M 47.9675 165.688 
L 436.0175 165.688 
" style="fill: none; stroke: #000000; stroke-width: 0.8; stroke-linejoin: miter; stroke-linecap: square"/>
   </g>
   <g id="patch_7">
    <path d="M 47.9675 70.696 
L 436.0175 70.696 
" style="fill: none; stroke: #000000; stroke-width: 0.8; stroke-linejoin: miter; stroke-linecap: square"/>
   </g>
  </g>
  <g id="axes_3">
   <g id="patch_8">
    <path d="M 47.9675 276.68 
L 436.0175 276.68 
L 436.0175 181.688 
L 47.9675 181.688 
z
" style="fill: #ffffff"/>
   </g>
   <g id="PathCollection_2">
    <g clip-path="url(#pbb50ccc5ae)">
     <use xlink:href="#m1b25d3d2c1" x="355.045509" y="250.277964" style="fill: #daa520; stroke: #daa520"/>
     <use xlink:href="#m1b25d3d2c1" x="170.474989" y="253.028522" style="fill: #daa520; stroke: #daa520"/>
     <use xlink:href="#m1b25d3d2c1" x="112.676295" y="266.074695" style="fill: #daa520; stroke: #daa520"/>
     <use xlink:href="#m1b25d3d2c1" x="415.05029" y="257.437436" style="fill: #daa520; stroke: #daa520"/>
     <use xlink:href="#m1b25d3d2c1" x="241.031996" y="253.330942" style="fill: #daa520; stroke: #daa520"/>
     <use xlink:href="#m1b25d3d2c1" x="376.67911" y="253.073581" style="fill: #daa520; stroke: #daa520"/>
     <use xlink:href="#m1b25d3d2c1" x="406.649717" y="256.019328" style="fill: #daa520; stroke: #daa520"/>
     <use xlink:href="#m1b25d3d2c1" x="155.384212" y="247.808755" style="fill: #daa520; stroke: #daa520"/>
     <use xlink:href="#m1b25d3d2c1" x="367.491185" y="253.875668" style="fill: #daa520; stroke: #daa520"/>
     <use xlink:href="#m1b25d3d2c1" x="316.281034" y="247.18883" style="fill: #daa520; stroke: #daa520"/>
     <use xlink:href="#m1b25d3d2c1" x="102.054864" y="263.537405" style="fill: #daa520; stroke: #daa520"/>
     <use xlink:href="#m1b25d3d2c1" x="290.697184" y="260.350961" style="fill: #daa520; stroke: #daa520"/>
     <use xlink:href="#m1b25d3d2c1" x="388.158919" y="268.338232" style="fill: #daa520; stroke: #daa520"/>
     <use xlink:href="#m1b25d3d2c1" x="328.541238" y="263.311478" style="fill: #daa520; stroke: #daa520"/>
     <use xlink:href="#m1b25d3d2c1" x="302.722232" y="267.902065" style="fill: #daa520; stroke: #daa520"/>
     <use xlink:href="#m1b25d3d2c1" x="395.500334" y="252.332954" style="fill: #daa520; stroke: #daa520"/>
     <use xlink:href="#m1b25d3d2c1" x="406.060447" y="247.29086" style="fill: #daa520; stroke: #daa520"/>
     <use xlink:href="#m1b25d3d2c1" x="358.912862" y="259.957899" style="fill: #daa520; stroke: #daa520"/>
     <use xlink:href="#m1b25d3d2c1" x="239.834549" y="266.41154" style="fill: #daa520; stroke: #daa520"/>
     <use xlink:href="#m1b25d3d2c1" x="344.112287" y="262.949024" style="fill: #daa520; stroke: #daa520"/>
     <use xlink:href="#m1b25d3d2c1" x="233.528224" y="253.946295" style="fill: #daa520; stroke: #daa520"/>
     <use xlink:href="#m1b25d3d2c1" x="412.270683" y="246.689836" style="fill: #daa520; stroke: #daa520"/>
     <use xlink:href="#m1b25d3d2c1" x="232.858921" y="255.697322" style="fill: #daa520; stroke: #daa520"/>
     <use xlink:href="#m1b25d3d2c1" x="367.578421" y="270.344005" style="fill: #daa520; stroke: #daa520"/>
     <use xlink:href="#m1b25d3d2c1" x="411.431892" y="265.291114" style="fill: #daa520; stroke: #daa520"/>
     <use xlink:href="#m1b25d3d2c1" x="413.290168" y="255.750642" style="fill: #daa520; stroke: #daa520"/>
     <use xlink:href="#m1b25d3d2c1" x="94.394334" y="244.833424" style="fill: #daa520; stroke: #daa520"/>
     <use xlink:href="#m1b25d3d2c1" x="339.271518" y="249.390314" style="fill: #daa520; stroke: #daa520"/>
     <use xlink:href="#m1b25d3d2c1" x="133.523006" y="262.456561" style="fill: #daa520; stroke: #daa520"/>
     <use xlink:href="#m1b25d3d2c1" x="251.009363" y="256.429993" style="fill: #daa520; stroke: #daa520"/>
     <use xlink:href="#m1b25d3d2c1" x="376.270631" y="251.367115" style="fill: #daa520; stroke: #daa520"/>
     <use xlink:href="#m1b25d3d2c1" x="383.716876" y="264.480544" style="fill: #daa520; stroke: #daa520"/>
     <use xlink:href="#m1b25d3d2c1" x="376.349502" y="253.976115" style="fill: #daa520; stroke: #daa520"/>
     <use xlink:href="#m1b25d3d2c1" x="371.822916" y="253.3391" style="fill: #daa520; stroke: #daa520"/>
     <use xlink:href="#m1b25d3d2c1" x="331.306914" y="253.494951" style="fill: #daa520; stroke: #daa520"/>
     <use xlink:href="#m1b25d3d2c1" x="416.347761" y="260.409608" style="fill: #daa520; stroke: #daa520"/>
     <use xlink:href="#m1b25d3d2c1" x="277.169984" y="260.147766" style="fill: #daa520; stroke: #daa520"/>
     <use xlink:href="#m1b25d3d2c1" x="318.73908" y="270.66911" style="fill: #daa520; stroke: #daa520"/>
     <use xlink:href="#m1b25d3d2c1" x="346.253445" y="267.415305" style="fill: #daa520; stroke: #daa520"/>
     <use xlink:href="#m1b25d3d2c1" x="322.435462" y="264.632383" style="fill: #daa520; stroke: #daa520"/>
     <use xlink:href="#m1b25d3d2c1" x="403.58345" y="262.782967" style="fill: #daa520; stroke: #daa520"/>
     <use xlink:href="#m1b25d3d2c1" x="381.955942" y="253.53661" style="fill: #daa520; stroke: #daa520"/>
     <use xlink:href="#m1b25d3d2c1" x="333.550504" y="248.392845" style="fill: #daa520; stroke: #daa520"/>
     <use xlink:href="#m1b25d3d2c1" x="403.382803" y="249.998125" style="fill: #daa520; stroke: #daa520"/>
     <use xlink:href="#m1b25d3d2c1" x="223.734689" y="252.517056" style="fill: #daa520; stroke: #daa520"/>
     <use xlink:href="#m1b25d3d2c1" x="380.964042" y="254.23561" style="fill: #daa520; stroke: #daa520"/>
     <use xlink:href="#m1b25d3d2c1" x="340.385961" y="272.362182" style="fill: #daa520; stroke: #daa520"/>
     <use xlink:href="#m1b25d3d2c1" x="352.511813" y="252.43415" style="fill: #daa520; stroke: #daa520"/>
     <use xlink:href="#m1b25d3d2c1" x="364.892664" y="252.320202" style="fill: #daa520; stroke: #daa520"/>
     <use xlink:href="#m1b25d3d2c1" x="411.383705" y="263.363742" style="fill: #daa520; stroke: #daa520"/>
     <use xlink:href="#m1b25d3d2c1" x="345.089304" y="270.615267" style="fill: #daa520; stroke: #daa520"/>
     <use xlink:href="#m1b25d3d2c1" x="300.885089" y="247.797841" style="fill: #daa520; stroke: #daa520"/>
     <use xlink:href="#m1b25d3d2c1" x="363.545406" y="265.42615" style="fill: #daa520; stroke: #daa520"/>
     <use xlink:href="#m1b25d3d2c1" x="311.725084" y="256.279152" style="fill: #daa520; stroke: #daa520"/>
     <use xlink:href="#m1b25d3d2c1" x="97.169966" y="245.000027" style="fill: #daa520; stroke: #daa520"/>
     <use xlink:href="#m1b25d3d2c1" x="326.628153" y="249.683699" style="fill: #daa520; stroke: #daa520"/>
     <use xlink:href="#m1b25d3d2c1" x="338.290934" y="261.42173" style="fill: #daa520; stroke: #daa520"/>
     <use xlink:href="#m1b25d3d2c1" x="412.39363" y="248.539518" style="fill: #daa520; stroke: #daa520"/>
     <use xlink:href="#m1b25d3d2c1" x="311.198534" y="248.187961" style="fill: #daa520; stroke: #daa520"/>
     <use xlink:href="#m1b25d3d2c1" x="394.188404" y="251.626776" style="fill: #daa520; stroke: #daa520"/>
     <use xlink:href="#m1b25d3d2c1" x="398.838777" y="254.958772" style="fill: #daa520; stroke: #daa520"/>
     <use xlink:href="#m1b25d3d2c1" x="349.970803" y="255.655601" style="fill: #daa520; stroke: #daa520"/>
     <use xlink:href="#m1b25d3d2c1" x="407.584255" y="260.460267" style="fill: #daa520; stroke: #daa520"/>
     <use xlink:href="#m1b25d3d2c1" x="406.038164" y="263.014118" style="fill: #daa520; stroke: #daa520"/>
     <use xlink:href="#m1b25d3d2c1" x="340.975463" y="259.687336" style="fill: #daa520; stroke: #daa520"/>
     <use xlink:href="#m1b25d3d2c1" x="416.97299" y="256.304085" style="fill: #daa520; stroke: #daa520"/>
     <use xlink:href="#m1b25d3d2c1" x="284.418658" y="265.868214" style="fill: #daa520; stroke: #daa520"/>
     <use xlink:href="#m1b25d3d2c1" x="367.811942" y="261.417263" style="fill: #daa520; stroke: #daa520"/>
     <use xlink:href="#m1b25d3d2c1" x="374.640192" y="252.74048" style="fill: #daa520; stroke: #daa520"/>
     <use xlink:href="#m1b25d3d2c1" x="272.257471" y="260.184433" style="fill: #daa520; stroke: #daa520"/>
     <use xlink:href="#m1b25d3d2c1" x="172.552196" y="246.973148" style="fill: #daa520; stroke: #daa520"/>
     <use xlink:href="#m1b25d3d2c1" x="279.294874" y="250.571483" style="fill: #daa520; stroke: #daa520"/>
     <use xlink:href="#m1b25d3d2c1" x="173.946282" y="255.519059" style="fill: #daa520; stroke: #daa520"/>
     <use xlink:href="#m1b25d3d2c1" x="393.407585" y="256.433381" style="fill: #daa520; stroke: #daa520"/>
     <use xlink:href="#m1b25d3d2c1" x="263.918526" y="250.758781" style="fill: #daa520; stroke: #daa520"/>
     <use xlink:href="#m1b25d3d2c1" x="373.466312" y="253.105775" style="fill: #daa520; stroke: #daa520"/>
     <use xlink:href="#m1b25d3d2c1" x="194.805063" y="253.421539" style="fill: #daa520; stroke: #daa520"/>
     <use xlink:href="#m1b25d3d2c1" x="417.580201" y="256.997469" style="fill: #daa520; stroke: #daa520"/>
     <use xlink:href="#m1b25d3d2c1" x="373.065069" y="258.9803" style="fill: #daa520; stroke: #daa520"/>
     <use xlink:href="#m1b25d3d2c1" x="385.189446" y="254.817908" style="fill: #daa520; stroke: #daa520"/>
     <use xlink:href="#m1b25d3d2c1" x="115.969208" y="255.26806" style="fill: #daa520; stroke: #daa520"/>
     <use xlink:href="#m1b25d3d2c1" x="393.663165" y="254.767759" style="fill: #daa520; stroke: #daa520"/>
     <use xlink:href="#m1b25d3d2c1" x="228.089706" y="254.435679" style="fill: #daa520; stroke: #daa520"/>
     <use xlink:href="#m1b25d3d2c1" x="341.4126" y="260.578376" style="fill: #daa520; stroke: #daa520"/>
     <use xlink:href="#m1b25d3d2c1" x="395.980963" y="251.827893" style="fill: #daa520; stroke: #daa520"/>
     <use xlink:href="#m1b25d3d2c1" x="406.543251" y="247.030864" style="fill: #daa520; stroke: #daa520"/>
     <use xlink:href="#m1b25d3d2c1" x="303.167386" y="266.937829" style="fill: #daa520; stroke: #daa520"/>
     <use xlink:href="#m1b25d3d2c1" x="383.765719" y="256.075801" style="fill: #daa520; stroke: #daa520"/>
     <use xlink:href="#m1b25d3d2c1" x="96.304775" y="259.371893" style="fill: #daa520; stroke: #daa520"/>
     <use xlink:href="#m1b25d3d2c1" x="364.601415" y="267.512237" style="fill: #daa520; stroke: #daa520"/>
     <use xlink:href="#m1b25d3d2c1" x="378.331026" y="257.424265" style="fill: #daa520; stroke: #daa520"/>
     <use xlink:href="#m1b25d3d2c1" x="382.738367" y="249.748511" style="fill: #daa520; stroke: #daa520"/>
     <use xlink:href="#m1b25d3d2c1" x="374.137399" y="251.018652" style="fill: #daa520; stroke: #daa520"/>
     <use xlink:href="#m1b25d3d2c1" x="407.188093" y="256.695444" style="fill: #daa520; stroke: #daa520"/>
    </g>
   </g>
   <g id="matplotlib.axis_5">
    <g id="xtick_1">
     <g id="line2d_9">
      <defs>
       <path id="mdbf03a0259" d="M 0 0 
L 0 3.5 
" style="stroke: #696969; stroke-width: 0.8"/>
      </defs>
      <g>
       <use xlink:href="#mdbf03a0259" x="65.606136" y="276.68" style="fill: #696969; stroke: #696969; stroke-width: 0.8"/>
      </g>
     </g>
     <g id="text_3">
      <!-- −1.0 -->
      <g style="fill: #696969" transform="translate(46.179886 295.8375) scale(0.16 -0.16)">
       <defs>
        <path id="DejaVuSans-31" d="M 794 531 
L 1825 531 
L 1825 4091 
L 703 3866 
L 703 4441 
L 1819 4666 
L 2450 4666 
L 2450 531 
L 3481 531 
L 3481 0 
L 794 0 
L 794 531 
z
" transform="scale(0.015625)"/>
        <path id="DejaVuSans-2e" d="M 684 794 
L 1344 794 
L 1344 0 
L 684 0 
L 684 794 
z
" transform="scale(0.015625)"/>
       </defs>
       <use xlink:href="#DejaVuSans-2212"/>
       <use xlink:href="#DejaVuSans-31" x="83.789062"/>
       <use xlink:href="#DejaVuSans-2e" x="147.412109"/>
       <use xlink:href="#DejaVuSans-30" x="179.199219"/>
      </g>
     </g>
    </g>
    <g id="xtick_2">
     <g id="line2d_10">
      <g>
       <use xlink:href="#mdbf03a0259" x="153.799318" y="276.68" style="fill: #696969; stroke: #696969; stroke-width: 0.8"/>
      </g>
     </g>
     <g id="text_4">
      <!-- −0.5 -->
      <g style="fill: #696969" transform="translate(134.373068 295.8375) scale(0.16 -0.16)">
       <defs>
        <path id="DejaVuSans-35" d="M 691 4666 
L 3169 4666 
L 3169 4134 
L 1269 4134 
L 1269 2991 
Q 1406 3038 1543 3061 
Q 1681 3084 1819 3084 
Q 2600 3084 3056 2656 
Q 3513 2228 3513 1497 
Q 3513 744 3044 326 
Q 2575 -91 1722 -91 
Q 1428 -91 1123 -41 
Q 819 9 494 109 
L 494 744 
Q 775 591 1075 516 
Q 1375 441 1709 441 
Q 2250 441 2565 725 
Q 2881 1009 2881 1497 
Q 2881 1984 2565 2268 
Q 2250 2553 1709 2553 
Q 1456 2553 1204 2497 
Q 953 2441 691 2322 
L 691 4666 
z
" transform="scale(0.015625)"/>
       </defs>
       <use xlink:href="#DejaVuSans-2212"/>
       <use xlink:href="#DejaVuSans-30" x="83.789062"/>
       <use xlink:href="#DejaVuSans-2e" x="147.412109"/>
       <use xlink:href="#DejaVuSans-35" x="179.199219"/>
      </g>
     </g>
    </g>
    <g id="xtick_3">
     <g id="line2d_11">
      <g>
       <use xlink:href="#mdbf03a0259" x="241.9925" y="276.68" style="fill: #696969; stroke: #696969; stroke-width: 0.8"/>
      </g>
     </g>
     <g id="text_5">
      <!-- 0.0 -->
      <g style="fill: #696969" transform="translate(229.27 295.8375) scale(0.16 -0.16)">
       <use xlink:href="#DejaVuSans-30"/>
       <use xlink:href="#DejaVuSans-2e" x="63.623047"/>
       <use xlink:href="#DejaVuSans-30" x="95.410156"/>
      </g>
     </g>
    </g>
    <g id="xtick_4">
     <g id="line2d_12">
      <g>
       <use xlink:href="#mdbf03a0259" x="330.185682" y="276.68" style="fill: #696969; stroke: #696969; stroke-width: 0.8"/>
      </g>
     </g>
     <g id="text_6">
      <!-- 0.5 -->
      <g style="fill: #696969" transform="translate(317.463182 295.8375) scale(0.16 -0.16)">
       <use xlink:href="#DejaVuSans-30"/>
       <use xlink:href="#DejaVuSans-2e" x="63.623047"/>
       <use xlink:href="#DejaVuSans-35" x="95.410156"/>
      </g>
     </g>
    </g>
    <g id="xtick_5">
     <g id="line2d_13">
      <g>
       <use xlink:href="#mdbf03a0259" x="418.378864" y="276.68" style="fill: #696969; stroke: #696969; stroke-width: 0.8"/>
      </g>
     </g>
     <g id="text_7">
      <!-- 1.0 -->
      <g style="fill: #696969" transform="translate(405.656364 295.8375) scale(0.16 -0.16)">
       <use xlink:href="#DejaVuSans-31"/>
       <use xlink:href="#DejaVuSans-2e" x="63.623047"/>
       <use xlink:href="#DejaVuSans-30" x="95.410156"/>
      </g>
     </g>
    </g>
    <g id="text_8">
     <!-- $X$ -->
     <g transform="translate(236.4725 315.3225) scale(0.16 -0.16)">
      <defs>
       <path id="DejaVuSans-Oblique-58" d="M 878 4666 
L 1516 4666 
L 2316 2981 
L 3763 4666 
L 4500 4666 
L 2578 2438 
L 3738 0 
L 3103 0 
L 2163 1966 
L 459 0 
L -275 0 
L 1906 2509 
L 878 4666 
z
" transform="scale(0.015625)"/>
      </defs>
      <use xlink:href="#DejaVuSans-Oblique-58" transform="translate(0 0.09375)"/>
     </g>
    </g>
   </g>
   <g id="matplotlib.axis_6">
    <g id="ytick_3">
     <g id="line2d_14">
      <g>
       <use xlink:href="#m899f25554f" x="47.9675" y="255.789567" style="fill: #696969; stroke: #696969; stroke-width: 0.8"/>
      </g>
     </g>
     <g id="text_9">
      <!-- 0 -->
      <g style="fill: #696969" transform="translate(30.7875 261.868317) scale(0.16 -0.16)">
       <use xlink:href="#DejaVuSans-30"/>
      </g>
     </g>
    </g>
    <g id="ytick_4">
     <g id="line2d_15">
      <g>
       <use xlink:href="#m899f25554f" x="47.9675" y="205.269163" style="fill: #696969; stroke: #696969; stroke-width: 0.8"/>
      </g>
     </g>
     <g id="text_10">
      <!-- 10 -->
      <g style="fill: #696969" transform="translate(20.6075 211.347913) scale(0.16 -0.16)">
       <use xlink:href="#DejaVuSans-31"/>
       <use xlink:href="#DejaVuSans-30" x="63.623047"/>
      </g>
     </g>
    </g>
   </g>
   <g id="line2d_16">
    <path d="M 65.606136 250.323738 
L 72.661591 251.067881 
L 79.717045 251.75135 
L 86.7725 252.366083 
L 93.827955 252.906434 
L 100.883409 253.369419 
L 107.938864 253.754825 
L 114.994318 254.065153 
L 122.049773 254.30543 
L 129.105227 254.482864 
L 136.160682 254.606395 
L 143.216136 254.686174 
L 150.271591 254.73303 
L 157.327045 254.757928 
L 164.3825 254.771492 
L 171.437955 254.783609 
L 178.493409 254.803108 
L 185.548864 254.837538 
L 192.604318 254.893025 
L 199.659773 254.974183 
L 206.715227 255.084062 
L 213.770682 255.224127 
L 220.826136 255.394217 
L 227.881591 255.59253 
L 234.937045 255.81561 
L 241.9925 256.058359 
L 249.047955 256.314119 
L 256.103409 256.574867 
L 263.158864 256.831509 
L 270.214318 257.074349 
L 277.269773 257.293719 
L 284.325227 257.480741 
L 291.380682 257.628169 
L 298.436136 257.731255 
L 305.491591 257.788437 
L 312.547045 257.801713 
L 319.6025 257.776434 
L 326.657955 257.720324 
L 333.713409 257.641606 
L 340.768864 257.546423 
L 347.824318 257.436187 
L 354.879773 257.305916 
L 361.935227 257.144725 
L 368.990682 256.938886 
L 376.046136 256.676703 
L 383.101591 256.353256 
L 390.157045 255.973056 
L 397.2125 255.54976 
L 404.267955 255.103423 
L 411.323409 254.656629 
L 418.378864 254.230748 
" clip-path="url(#pbb50ccc5ae)" style="fill: none; stroke: #696969; stroke-width: 2; stroke-linecap: square"/>
   </g>
   <g id="line2d_17">
    <path d="M 65.606136 186.005818 
L 72.661591 212.493425 
L 79.717045 230.808902 
L 86.7725 243.059232 
L 93.827955 250.883259 
L 100.883409 255.542225 
L 107.938864 257.995293 
L 114.994318 258.96212 
L 122.049773 258.974304 
L 129.105227 258.417343 
L 136.160682 257.564562 
L 143.216136 256.604284 
L 150.271591 255.661355 
L 157.327045 254.814022 
L 164.3825 254.106981 
L 171.437955 253.561345 
L 178.493409 253.18213 
L 185.548864 252.963784 
L 192.604318 252.894196 
L 199.659773 252.95753 
L 206.715227 253.136185 
L 213.770682 253.412091 
L 220.826136 253.767539 
L 227.881591 254.185675 
L 234.937045 254.65075 
L 241.9925 255.148209 
L 249.047955 255.664675 
L 256.103409 256.187842 
L 263.158864 256.706321 
L 270.214318 257.209446 
L 277.269773 257.687049 
L 284.325227 258.129229 
L 291.380682 258.52613 
L 298.436136 258.867747 
L 305.491591 259.143803 
L 312.547045 259.343737 
L 319.6025 259.456851 
L 326.657955 259.4727 
L 333.713409 259.381774 
L 340.768864 259.176591 
L 347.824318 258.853272 
L 354.879773 258.413713 
L 361.935227 257.86846 
L 368.990682 257.240407 
L 376.046136 256.569409 
L 383.101591 255.917934 
L 390.157045 255.377839 
L 397.2125 255.078354 
L 404.267955 255.195341 
L 411.323409 255.961853 
L 418.378864 257.68001 
" clip-path="url(#pbb50ccc5ae)" style="fill: none; stroke-dasharray: 7.4,3.2; stroke-dashoffset: 0; stroke: #79ad41; stroke-width: 2"/>
   </g>
   <g id="patch_9">
    <path d="M 47.9675 276.68 
L 47.9675 181.688 
" style="fill: none; stroke: #000000; stroke-width: 0.8; stroke-linejoin: miter; stroke-linecap: square"/>
   </g>
   <g id="patch_10">
    <path d="M 436.0175 276.68 
L 436.0175 181.688 
" style="fill: none; stroke: #000000; stroke-width: 0.8; stroke-linejoin: miter; stroke-linecap: square"/>
   </g>
   <g id="patch_11">
    <path d="M 47.9675 276.68 
L 436.0175 276.68 
" style="fill: none; stroke: #000000; stroke-width: 0.8; stroke-linejoin: miter; stroke-linecap: square"/>
   </g>
   <g id="patch_12">
    <path d="M 47.9675 181.688 
L 436.0175 181.688 
" style="fill: none; stroke: #000000; stroke-width: 0.8; stroke-linejoin: miter; stroke-linecap: square"/>
   </g>
  </g>
 </g>
 <defs>
  <clipPath id="p10d3238373">
   <rect x="47.9675" y="7.2" width="388.05" height="47.496"/>
  </clipPath>
  <clipPath id="p4aebd3f2af">
   <rect x="47.9675" y="70.696" width="388.05" height="94.992"/>
  </clipPath>
  <clipPath id="pbb50ccc5ae">
   <rect x="47.9675" y="181.688" width="388.05" height="94.992"/>
  </clipPath>
 </defs>
</svg>
