<?xml version="1.0" encoding="utf-8" standalone="no"?>
<!DOCTYPE svg PUBLIC "-//W3C//DTD SVG 1.1//EN"
  "http://www.w3.org/Graphics/SVG/1.1/DTD/svg11.dtd">
<svg xmlns:xlink="http://www.w3.org/1999/xlink" width="443.2625pt" height="325.85pt" viewBox="0 0 443.2625 325.85" xmlns="http://www.w3.org/2000/svg" version="1.1">
 <metadata>
  <rdf:RDF xmlns:dc="http://purl.org/dc/elements/1.1/" xmlns:cc="http://creativecommons.org/ns#" xmlns:rdf="http://www.w3.org/1999/02/22-rdf-syntax-ns#">
   <cc:Work>
    <dc:type rdf:resource="http://purl.org/dc/dcmitype/StillImage"/>
    <dc:date>2024-01-28T20:53:17.165107</dc:date>
    <dc:format>image/svg+xml</dc:format>
    <dc:creator>
     <cc:Agent>
      <dc:title>Matplotlib v3.7.2, https://matplotlib.org/</dc:title>
     </cc:Agent>
    </dc:creator>
   </cc:Work>
  </rdf:RDF>
 </metadata>
 <defs>
  <style type="text/css">*{stroke-linejoin: round; stroke-linecap: butt}</style>
 </defs>
 <g id="figure_1">
  <g id="patch_1">
   <path d="M 0 325.85 
L 443.2625 325.85 
L 443.2625 0 
L 0 0 
z
" style="fill: #ffffff"/>
  </g>
  <g id="axes_1">
   <g id="patch_2">
    <path d="M 53.0525 54.203061 
L 436.0625 54.203061 
L 436.0625 7.2 
L 53.0525 7.2 
z
" style="fill: #ffffff"/>
   </g>
   <g id="PolyCollection_1">
    <defs>
     <path id="m85f172ceb2" d="M 70.462045 -273.783442 
L 70.462045 -279.153074 
L 77.425864 -278.884161 
L 84.389682 -278.608228 
L 91.3535 -278.531226 
L 98.317318 -278.531226 
L 105.281136 -278.531226 
L 112.244955 -278.531226 
L 119.208773 -278.531226 
L 126.172591 -278.531226 
L 133.136409 -278.531226 
L 140.100227 -278.531226 
L 147.064045 -278.531226 
L 154.027864 -278.531226 
L 160.991682 -278.531226 
L 167.9555 -278.531226 
L 174.919318 -278.531226 
L 181.883136 -278.531226 
L 188.846955 -278.531226 
L 195.810773 -278.531226 
L 202.774591 -278.531226 
L 209.738409 -278.531226 
L 216.702227 -278.531226 
L 223.666045 -278.531226 
L 230.629864 -278.531226 
L 237.593682 -278.531226 
L 244.5575 -278.531226 
L 251.521318 -278.819358 
L 258.485136 -279.517953 
L 265.448955 -280.358729 
L 272.412773 -281.361179 
L 279.376591 -282.543217 
L 286.340409 -283.918646 
L 293.304227 -285.49407 
L 300.268045 -287.265591 
L 307.231864 -289.216135 
L 314.195682 -291.314119 
L 321.1595 -293.514405 
L 328.123318 -295.761719 
L 335.087136 -297.996178 
L 342.050955 -300.159718 
L 349.014773 -302.201962 
L 355.978591 -304.084268 
L 362.942409 -305.781419 
L 369.906227 -307.281043 
L 376.870045 -308.581527 
L 383.833864 -309.689142 
L 390.797682 -310.615126 
L 397.7615 -311.37316 
L 404.725318 -311.977393 
L 411.689136 -312.441075 
L 418.652955 -312.775673 
L 418.652955 -273.783442 
L 418.652955 -273.783442 
L 411.689136 -273.783442 
L 404.725318 -273.783442 
L 397.7615 -273.783442 
L 390.797682 -273.783442 
L 383.833864 -273.783442 
L 376.870045 -273.783442 
L 369.906227 -273.783442 
L 362.942409 -273.783442 
L 355.978591 -273.783442 
L 349.014773 -273.783442 
L 342.050955 -273.783442 
L 335.087136 -273.783442 
L 328.123318 -273.783442 
L 321.1595 -273.783442 
L 314.195682 -273.783442 
L 307.231864 -273.783442 
L 300.268045 -273.783442 
L 293.304227 -273.783442 
L 286.340409 -273.783442 
L 279.376591 -273.783442 
L 272.412773 -273.783442 
L 265.448955 -273.783442 
L 258.485136 -273.783442 
L 251.521318 -273.783442 
L 244.5575 -273.783442 
L 237.593682 -273.783442 
L 230.629864 -273.783442 
L 223.666045 -273.783442 
L 216.702227 -273.783442 
L 209.738409 -273.783442 
L 202.774591 -273.783442 
L 195.810773 -273.783442 
L 188.846955 -273.783442 
L 181.883136 -273.783442 
L 174.919318 -273.783442 
L 167.9555 -273.783442 
L 160.991682 -273.783442 
L 154.027864 -273.783442 
L 147.064045 -273.783442 
L 140.100227 -273.783442 
L 133.136409 -273.783442 
L 126.172591 -273.783442 
L 119.208773 -273.783442 
L 112.244955 -273.783442 
L 105.281136 -273.783442 
L 98.317318 -273.783442 
L 91.3535 -273.783442 
L 84.389682 -273.783442 
L 77.425864 -273.783442 
L 70.462045 -273.783442 
z
" style="stroke: #dc143c; stroke-opacity: 0.2"/>
    </defs>
    <g clip-path="url(#pb9a4e4e840)">
     <use xlink:href="#m85f172ceb2" x="0" y="325.85" style="fill: #dc143c; fill-opacity: 0.2; stroke: #dc143c; stroke-opacity: 0.2"/>
    </g>
   </g>
   <g id="PolyCollection_2">
    <defs>
     <path id="m6c49463aa5" d="M 70.462045 -273.783442 
L 70.462045 -315.891649 
L 77.425864 -316.160562 
L 84.389682 -316.436495 
L 91.3535 -316.513497 
L 98.317318 -316.513497 
L 105.281136 -316.513497 
L 112.244955 -316.513497 
L 119.208773 -316.513497 
L 126.172591 -316.513497 
L 133.136409 -316.513497 
L 140.100227 -316.513497 
L 147.064045 -316.513497 
L 154.027864 -316.513497 
L 160.991682 -316.513497 
L 167.9555 -316.513497 
L 174.919318 -316.513497 
L 181.883136 -316.513497 
L 188.846955 -316.513497 
L 195.810773 -316.513497 
L 202.774591 -316.513497 
L 209.738409 -316.513497 
L 216.702227 -316.513497 
L 223.666045 -316.513497 
L 230.629864 -316.513497 
L 237.593682 -316.513497 
L 244.5575 -316.513497 
L 251.521318 -316.225365 
L 258.485136 -315.52677 
L 265.448955 -314.685994 
L 272.412773 -313.683544 
L 279.376591 -312.501505 
L 286.340409 -311.126077 
L 293.304227 -309.550653 
L 300.268045 -307.779131 
L 307.231864 -305.828588 
L 314.195682 -303.730604 
L 321.1595 -301.530318 
L 328.123318 -299.283004 
L 335.087136 -297.048545 
L 342.050955 -294.885005 
L 349.014773 -292.842761 
L 355.978591 -290.960454 
L 362.942409 -289.263304 
L 369.906227 -287.76368 
L 376.870045 -286.463196 
L 383.833864 -285.355581 
L 390.797682 -284.429597 
L 397.7615 -283.671563 
L 404.725318 -283.06733 
L 411.689136 -282.603648 
L 418.652955 -282.26905 
L 418.652955 -273.783442 
L 418.652955 -273.783442 
L 411.689136 -273.783442 
L 404.725318 -273.783442 
L 397.7615 -273.783442 
L 390.797682 -273.783442 
L 383.833864 -273.783442 
L 376.870045 -273.783442 
L 369.906227 -273.783442 
L 362.942409 -273.783442 
L 355.978591 -273.783442 
L 349.014773 -273.783442 
L 342.050955 -273.783442 
L 335.087136 -273.783442 
L 328.123318 -273.783442 
L 321.1595 -273.783442 
L 314.195682 -273.783442 
L 307.231864 -273.783442 
L 300.268045 -273.783442 
L 293.304227 -273.783442 
L 286.340409 -273.783442 
L 279.376591 -273.783442 
L 272.412773 -273.783442 
L 265.448955 -273.783442 
L 258.485136 -273.783442 
L 251.521318 -273.783442 
L 244.5575 -273.783442 
L 237.593682 -273.783442 
L 230.629864 -273.783442 
L 223.666045 -273.783442 
L 216.702227 -273.783442 
L 209.738409 -273.783442 
L 202.774591 -273.783442 
L 195.810773 -273.783442 
L 188.846955 -273.783442 
L 181.883136 -273.783442 
L 174.919318 -273.783442 
L 167.9555 -273.783442 
L 160.991682 -273.783442 
L 154.027864 -273.783442 
L 147.064045 -273.783442 
L 140.100227 -273.783442 
L 133.136409 -273.783442 
L 126.172591 -273.783442 
L 119.208773 -273.783442 
L 112.244955 -273.783442 
L 105.281136 -273.783442 
L 98.317318 -273.783442 
L 91.3535 -273.783442 
L 84.389682 -273.783442 
L 77.425864 -273.783442 
L 70.462045 -273.783442 
z
" style="stroke: #000080; stroke-opacity: 0.2"/>
    </defs>
    <g clip-path="url(#pb9a4e4e840)">
     <use xlink:href="#m6c49463aa5" x="0" y="325.85" style="fill: #000080; fill-opacity: 0.2; stroke: #000080; stroke-opacity: 0.2"/>
    </g>
   </g>
   <g id="matplotlib.axis_1"/>
   <g id="matplotlib.axis_2"/>
   <g id="line2d_1">
    <path d="M 70.462045 46.696926 
L 77.425864 46.965839 
L 84.389682 47.241772 
L 91.3535 47.318774 
L 98.317318 47.318774 
L 105.281136 47.318774 
L 112.244955 47.318774 
L 119.208773 47.318774 
L 126.172591 47.318774 
L 133.136409 47.318774 
L 140.100227 47.318774 
L 147.064045 47.318774 
L 154.027864 47.318774 
L 160.991682 47.318774 
L 167.9555 47.318774 
L 174.919318 47.318774 
L 181.883136 47.318774 
L 188.846955 47.318774 
L 195.810773 47.318774 
L 202.774591 47.318774 
L 209.738409 47.318774 
L 216.702227 47.318774 
L 223.666045 47.318774 
L 230.629864 47.318774 
L 237.593682 47.318774 
L 244.5575 47.318774 
L 251.521318 47.030642 
L 258.485136 46.332047 
L 265.448955 45.491271 
L 272.412773 44.488821 
L 279.376591 43.306783 
L 286.340409 41.931354 
L 293.304227 40.35593 
L 300.268045 38.584409 
L 307.231864 36.633865 
L 314.195682 34.535881 
L 321.1595 32.335595 
L 328.123318 30.088281 
L 335.087136 27.853822 
L 342.050955 25.690282 
L 349.014773 23.648038 
L 355.978591 21.765732 
L 362.942409 20.068581 
L 369.906227 18.568957 
L 376.870045 17.268473 
L 383.833864 16.160858 
L 390.797682 15.234874 
L 397.7615 14.47684 
L 404.725318 13.872607 
L 411.689136 13.408925 
L 418.652955 13.074327 
" clip-path="url(#pb9a4e4e840)" style="fill: none; stroke: #dc143c; stroke-width: 1.5; stroke-linecap: square"/>
   </g>
   <g id="line2d_2">
    <path d="M 70.462045 9.958351 
L 77.425864 9.689438 
L 84.389682 9.413505 
L 91.3535 9.336503 
L 98.317318 9.336503 
L 105.281136 9.336503 
L 112.244955 9.336503 
L 119.208773 9.336503 
L 126.172591 9.336503 
L 133.136409 9.336503 
L 140.100227 9.336503 
L 147.064045 9.336503 
L 154.027864 9.336503 
L 160.991682 9.336503 
L 167.9555 9.336503 
L 174.919318 9.336503 
L 181.883136 9.336503 
L 188.846955 9.336503 
L 195.810773 9.336503 
L 202.774591 9.336503 
L 209.738409 9.336503 
L 216.702227 9.336503 
L 223.666045 9.336503 
L 230.629864 9.336503 
L 237.593682 9.336503 
L 244.5575 9.336503 
L 251.521318 9.624635 
L 258.485136 10.32323 
L 265.448955 11.164006 
L 272.412773 12.166456 
L 279.376591 13.348495 
L 286.340409 14.723923 
L 293.304227 16.299347 
L 300.268045 18.070869 
L 307.231864 20.021412 
L 314.195682 22.119396 
L 321.1595 24.319682 
L 328.123318 26.566996 
L 335.087136 28.801455 
L 342.050955 30.964995 
L 349.014773 33.007239 
L 355.978591 34.889546 
L 362.942409 36.586696 
L 369.906227 38.08632 
L 376.870045 39.386804 
L 383.833864 40.494419 
L 390.797682 41.420403 
L 397.7615 42.178437 
L 404.725318 42.78267 
L 411.689136 43.246352 
L 418.652955 43.58095 
" clip-path="url(#pb9a4e4e840)" style="fill: none; stroke: #000080; stroke-width: 1.5; stroke-linecap: square"/>
   </g>
  </g>
  <g id="axes_2">
   <g id="patch_3">
    <path d="M 53.0525 165.44153 
L 436.0625 165.44153 
L 436.0625 71.435409 
L 53.0525 71.435409 
z
" style="fill: #ffffff"/>
   </g>
   <g id="PathCollection_1">
    <defs>
     <path id="m5922475335" d="M 0 0.866025 
C 0.229673 0.866025 0.449969 0.774776 0.612372 0.612372 
C 0.774776 0.449969 0.866025 0.229673 0.866025 0 
C 0.866025 -0.229673 0.774776 -0.449969 0.612372 -0.612372 
C 0.449969 -0.774776 0.229673 -0.866025 0 -0.866025 
C -0.229673 -0.866025 -0.449969 -0.774776 -0.612372 -0.612372 
C -0.774776 -0.449969 -0.866025 -0.229673 -0.866025 0 
C -0.866025 0.229673 -0.774776 0.449969 -0.612372 0.612372 
C -0.449969 0.774776 -0.229673 0.866025 0 0.866025 
z
" style="stroke: #daa520"/>
    </defs>
    <g clip-path="url(#p572faf3a40)">
     <use xlink:href="#m5922475335" x="356.142175" y="136.537563" style="fill: #daa520; stroke: #daa520"/>
     <use xlink:href="#m5922475335" x="173.96886" y="102.823278" style="fill: #daa520; stroke: #daa520"/>
     <use xlink:href="#m5922475335" x="116.920856" y="75.708414" style="fill: #daa520; stroke: #daa520"/>
     <use xlink:href="#m5922475335" x="415.367612" y="141.008358" style="fill: #daa520; stroke: #daa520"/>
     <use xlink:href="#m5922475335" x="243.609471" y="106.218691" style="fill: #daa520; stroke: #daa520"/>
     <use xlink:href="#m5922475335" x="377.494798" y="139.425222" style="fill: #daa520; stroke: #daa520"/>
     <use xlink:href="#m5922475335" x="407.076146" y="142.177177" style="fill: #daa520; stroke: #daa520"/>
     <use xlink:href="#m5922475335" x="159.074082" y="112.251413" style="fill: #daa520; stroke: #daa520"/>
     <use xlink:href="#m5922475335" x="368.426206" y="134.489368" style="fill: #daa520; stroke: #daa520"/>
     <use xlink:href="#m5922475335" x="317.881173" y="129.372099" style="fill: #daa520; stroke: #daa520"/>
     <use xlink:href="#m5922475335" x="106.437376" y="80.25345" style="fill: #daa520; stroke: #daa520"/>
     <use xlink:href="#m5922475335" x="292.629607" y="98.616291" style="fill: #daa520; stroke: #daa520"/>
     <use xlink:href="#m5922475335" x="388.825507" y="113.872867" style="fill: #daa520; stroke: #daa520"/>
     <use xlink:href="#m5922475335" x="329.982142" y="101.942594" style="fill: #daa520; stroke: #daa520"/>
     <use xlink:href="#m5922475335" x="304.498473" y="86.401654" style="fill: #daa520; stroke: #daa520"/>
     <use xlink:href="#m5922475335" x="396.071572" y="146.667605" style="fill: #daa520; stroke: #daa520"/>
     <use xlink:href="#m5922475335" x="406.494529" y="158.818105" style="fill: #daa520; stroke: #daa520"/>
     <use xlink:href="#m5922475335" x="359.959298" y="119.468044" style="fill: #daa520; stroke: #daa520"/>
     <use xlink:href="#m5922475335" x="242.427577" y="81.003217" style="fill: #daa520; stroke: #daa520"/>
     <use xlink:href="#m5922475335" x="345.350953" y="108.006261" style="fill: #daa520; stroke: #daa520"/>
     <use xlink:href="#m5922475335" x="236.203158" y="104.462141" style="fill: #daa520; stroke: #daa520"/>
     <use xlink:href="#m5922475335" x="412.624107" y="161.168525" style="fill: #daa520; stroke: #daa520"/>
     <use xlink:href="#m5922475335" x="235.542548" y="101.050764" style="fill: #daa520; stroke: #daa520"/>
     <use xlink:href="#m5922475335" x="368.512309" y="102.896912" style="fill: #daa520; stroke: #daa520"/>
     <use xlink:href="#m5922475335" x="411.79621" y="125.295284" style="fill: #daa520; stroke: #daa520"/>
     <use xlink:href="#m5922475335" x="413.630351" y="143.947864" style="fill: #daa520; stroke: #daa520"/>
     <use xlink:href="#m5922475335" x="98.876342" y="115.943365" style="fill: #daa520; stroke: #daa520"/>
     <use xlink:href="#m5922475335" x="340.573056" y="132.280821" style="fill: #daa520; stroke: #daa520"/>
     <use xlink:href="#m5922475335" x="137.49681" y="83.338001" style="fill: #daa520; stroke: #daa520"/>
     <use xlink:href="#m5922475335" x="253.457252" y="101.124968" style="fill: #daa520; stroke: #daa520"/>
     <use xlink:href="#m5922475335" x="377.091624" y="142.557555" style="fill: #daa520; stroke: #daa520"/>
     <use xlink:href="#m5922475335" x="384.441157" y="119.900142" style="fill: #daa520; stroke: #daa520"/>
     <use xlink:href="#m5922475335" x="377.169471" y="137.575227" style="fill: #daa520; stroke: #daa520"/>
     <use xlink:href="#m5922475335" x="372.701676" y="137.154013" style="fill: #daa520; stroke: #daa520"/>
     <use xlink:href="#m5922475335" x="332.711897" y="121.679104" style="fill: #daa520; stroke: #daa520"/>
     <use xlink:href="#m5922475335" x="416.648232" y="135.513305" style="fill: #daa520; stroke: #daa520"/>
     <use xlink:href="#m5922475335" x="279.278098" y="96.929073" style="fill: #daa520; stroke: #daa520"/>
     <use xlink:href="#m5922475335" x="320.307294" y="84.93776" style="fill: #daa520; stroke: #daa520"/>
     <use xlink:href="#m5922475335" x="347.464302" y="100.2316" style="fill: #daa520; stroke: #daa520"/>
     <use xlink:href="#m5922475335" x="323.955668" y="97.566935" style="fill: #daa520; stroke: #daa520"/>
     <use xlink:href="#m5922475335" x="404.049704" y="128.538885" style="fill: #daa520; stroke: #daa520"/>
     <use xlink:href="#m5922475335" x="382.703095" y="140.34241" style="fill: #daa520; stroke: #daa520"/>
     <use xlink:href="#m5922475335" x="334.926347" y="132.21813" style="fill: #daa520; stroke: #daa520"/>
     <use xlink:href="#m5922475335" x="403.851663" y="153.046825" style="fill: #daa520; stroke: #daa520"/>
     <use xlink:href="#m5922475335" x="226.536822" y="106.531461" style="fill: #daa520; stroke: #daa520"/>
     <use xlink:href="#m5922475335" x="381.724077" y="138.66998" style="fill: #daa520; stroke: #daa520"/>
     <use xlink:href="#m5922475335" x="341.673025" y="88.564839" style="fill: #daa520; stroke: #daa520"/>
     <use xlink:href="#m5922475335" x="353.641386" y="131.406103" style="fill: #daa520; stroke: #daa520"/>
     <use xlink:href="#m5922475335" x="365.861434" y="136.474976" style="fill: #daa520; stroke: #daa520"/>
     <use xlink:href="#m5922475335" x="411.748649" y="128.987828" style="fill: #daa520; stroke: #daa520"/>
     <use xlink:href="#m5922475335" x="346.315281" y="93.64859" style="fill: #daa520; stroke: #daa520"/>
     <use xlink:href="#m5922475335" x="302.685191" y="124.629863" style="fill: #daa520; stroke: #daa520"/>
     <use xlink:href="#m5922475335" x="364.531675" y="110.782439" style="fill: #daa520; stroke: #daa520"/>
     <use xlink:href="#m5922475335" x="313.384396" y="110.762426" style="fill: #daa520; stroke: #daa520"/>
     <use xlink:href="#m5922475335" x="101.615923" y="115.705849" style="fill: #daa520; stroke: #daa520"/>
     <use xlink:href="#m5922475335" x="328.093903" y="127.520161" style="fill: #daa520; stroke: #daa520"/>
     <use xlink:href="#m5922475335" x="339.605208" y="108.827945" style="fill: #daa520; stroke: #daa520"/>
     <use xlink:href="#m5922475335" x="412.745458" y="157.638307" style="fill: #daa520; stroke: #daa520"/>
     <use xlink:href="#m5922475335" x="312.864685" y="126.172935" style="fill: #daa520; stroke: #daa520"/>
     <use xlink:href="#m5922475335" x="394.776681" y="147.67682" style="fill: #daa520; stroke: #daa520"/>
     <use xlink:href="#m5922475335" x="399.366654" y="142.466967" style="fill: #daa520; stroke: #daa520"/>
     <use xlink:href="#m5922475335" x="351.133379" y="124.23435" style="fill: #daa520; stroke: #daa520"/>
     <use xlink:href="#m5922475335" x="407.998546" y="133.837666" style="fill: #daa520; stroke: #daa520"/>
     <use xlink:href="#m5922475335" x="406.472536" y="128.618499" style="fill: #daa520; stroke: #daa520"/>
     <use xlink:href="#m5922475335" x="342.254871" y="113.118545" style="fill: #daa520; stroke: #daa520"/>
     <use xlink:href="#m5922475335" x="417.26534" y="143.49761" style="fill: #daa520; stroke: #daa520"/>
     <use xlink:href="#m5922475335" x="286.432626" y="86.998669" style="fill: #daa520; stroke: #daa520"/>
     <use xlink:href="#m5922475335" x="368.742797" y="120.129133" style="fill: #daa520; stroke: #daa520"/>
     <use xlink:href="#m5922475335" x="375.482362" y="139.335832" style="fill: #daa520; stroke: #daa520"/>
     <use xlink:href="#m5922475335" x="274.429389" y="96.211158" style="fill: #daa520; stroke: #daa520"/>
     <use xlink:href="#m5922475335" x="176.019088" y="114.538375" style="fill: #daa520; stroke: #daa520"/>
     <use xlink:href="#m5922475335" x="281.37539" y="115.61581" style="fill: #daa520; stroke: #daa520"/>
     <use xlink:href="#m5922475335" x="177.395067" y="98.185378" style="fill: #daa520; stroke: #daa520"/>
     <use xlink:href="#m5922475335" x="394.006003" y="138.2354" style="fill: #daa520; stroke: #daa520"/>
     <use xlink:href="#m5922475335" x="266.19875" y="113.322098" style="fill: #daa520; stroke: #daa520"/>
     <use xlink:href="#m5922475335" x="374.323728" y="138.207533" style="fill: #daa520; stroke: #daa520"/>
     <use xlink:href="#m5922475335" x="197.982934" y="103.162536" style="fill: #daa520; stroke: #daa520"/>
     <use xlink:href="#m5922475335" x="417.864665" y="142.261692" style="fill: #daa520; stroke: #daa520"/>
     <use xlink:href="#m5922475335" x="373.927697" y="126.77909" style="fill: #daa520; stroke: #daa520"/>
     <use xlink:href="#m5922475335" x="385.894602" y="138.925117" style="fill: #daa520; stroke: #daa520"/>
     <use xlink:href="#m5922475335" x="120.171001" y="96.565552" style="fill: #daa520; stroke: #daa520"/>
     <use xlink:href="#m5922475335" x="394.258264" y="141.503422" style="fill: #daa520; stroke: #daa520"/>
     <use xlink:href="#m5922475335" x="230.835276" y="103.137732" style="fill: #daa520; stroke: #daa520"/>
     <use xlink:href="#m5922475335" x="342.68633" y="111.566001" style="fill: #daa520; stroke: #daa520"/>
     <use xlink:href="#m5922475335" x="396.545958" y="147.76235" style="fill: #daa520; stroke: #daa520"/>
     <use xlink:href="#m5922475335" x="406.971063" y="159.416865" style="fill: #daa520; stroke: #daa520"/>
     <use xlink:href="#m5922475335" x="304.937846" y="88.34723" style="fill: #daa520; stroke: #daa520"/>
     <use xlink:href="#m5922475335" x="384.489367" y="136.056354" style="fill: #daa520; stroke: #daa520"/>
     <use xlink:href="#m5922475335" x="100.76197" y="88.080306" style="fill: #daa520; stroke: #daa520"/>
     <use xlink:href="#m5922475335" x="365.573968" y="107.187137" style="fill: #daa520; stroke: #daa520"/>
     <use xlink:href="#m5922475335" x="379.125258" y="131.64867" style="fill: #daa520; stroke: #daa520"/>
     <use xlink:href="#m5922475335" x="383.475357" y="147.874182" style="fill: #daa520; stroke: #daa520"/>
     <use xlink:href="#m5922475335" x="374.986099" y="142.460241" style="fill: #daa520; stroke: #daa520"/>
     <use xlink:href="#m5922475335" x="407.60753" y="140.98808" style="fill: #daa520; stroke: #daa520"/>
    </g>
   </g>
   <g id="matplotlib.axis_3"/>
   <g id="matplotlib.axis_4">
    <g id="ytick_1">
     <g id="line2d_3">
      <defs>
       <path id="m46696913d5" d="M 0 0 
L -3.5 0 
" style="stroke: #696969; stroke-width: 0.8"/>
      </defs>
      <g>
       <use xlink:href="#m46696913d5" x="53.0525" y="156.585942" style="fill: #696969; stroke: #696969; stroke-width: 0.8"/>
      </g>
     </g>
     <g id="text_1">
      <!-- −5 -->
      <g style="fill: #696969" transform="translate(22.465 162.664692) scale(0.16 -0.16)">
       <defs>
        <path id="DejaVuSans-2212" d="M 678 2272 
L 4684 2272 
L 4684 1741 
L 678 1741 
L 678 2272 
z
" transform="scale(0.015625)"/>
        <path id="DejaVuSans-35" d="M 691 4666 
L 3169 4666 
L 3169 4134 
L 1269 4134 
L 1269 2991 
Q 1406 3038 1543 3061 
Q 1681 3084 1819 3084 
Q 2600 3084 3056 2656 
Q 3513 2228 3513 1497 
Q 3513 744 3044 326 
Q 2575 -91 1722 -91 
Q 1428 -91 1123 -41 
Q 819 9 494 109 
L 494 744 
Q 775 591 1075 516 
Q 1375 441 1709 441 
Q 2250 441 2565 725 
Q 2881 1009 2881 1497 
Q 2881 1984 2565 2268 
Q 2250 2553 1709 2553 
Q 1456 2553 1204 2497 
Q 953 2441 691 2322 
L 691 4666 
z
" transform="scale(0.015625)"/>
       </defs>
       <use xlink:href="#DejaVuSans-2212"/>
       <use xlink:href="#DejaVuSans-35" x="83.789062"/>
      </g>
     </g>
    </g>
    <g id="ytick_2">
     <g id="line2d_4">
      <g>
       <use xlink:href="#m46696913d5" x="53.0525" y="108.07618" style="fill: #696969; stroke: #696969; stroke-width: 0.8"/>
      </g>
     </g>
     <g id="text_2">
      <!-- 0 -->
      <g style="fill: #696969" transform="translate(35.8725 114.15493) scale(0.16 -0.16)">
       <defs>
        <path id="DejaVuSans-30" d="M 2034 4250 
Q 1547 4250 1301 3770 
Q 1056 3291 1056 2328 
Q 1056 1369 1301 889 
Q 1547 409 2034 409 
Q 2525 409 2770 889 
Q 3016 1369 3016 2328 
Q 3016 3291 2770 3770 
Q 2525 4250 2034 4250 
z
M 2034 4750 
Q 2819 4750 3233 4129 
Q 3647 3509 3647 2328 
Q 3647 1150 3233 529 
Q 2819 -91 2034 -91 
Q 1250 -91 836 529 
Q 422 1150 422 2328 
Q 422 3509 836 4129 
Q 1250 4750 2034 4750 
z
" transform="scale(0.015625)"/>
       </defs>
       <use xlink:href="#DejaVuSans-30"/>
      </g>
     </g>
    </g>
   </g>
   <g id="line2d_5">
    <path d="M 70.462045 104.582773 
L 77.425864 103.348035 
L 84.389682 102.233476 
L 91.3535 101.254823 
L 98.317318 100.423202 
L 105.281136 99.744654 
L 112.244955 99.219949 
L 119.208773 98.844685 
L 126.172591 98.609669 
L 133.136409 98.501584 
L 140.100227 98.503869 
L 147.064045 98.597728 
L 154.027864 98.763173 
L 160.991682 98.980087 
L 167.9555 99.229161 
L 174.919318 99.492688 
L 181.883136 99.75521 
L 188.846955 100.003988 
L 195.810773 100.229319 
L 202.774591 100.424769 
L 209.738409 100.587337 
L 216.702227 100.717569 
L 223.666045 100.819718 
L 230.629864 100.901881 
L 237.593682 100.976131 
L 244.5575 101.058608 
L 251.521318 101.169505 
L 258.485136 101.332836 
L 265.448955 101.576011 
L 272.412773 101.92909 
L 279.376591 102.423684 
L 286.340409 103.091577 
L 293.304227 103.963067 
L 300.268045 105.065086 
L 307.231864 106.419298 
L 314.195682 108.04025 
L 321.1595 109.933765 
L 328.123318 112.095726 
L 335.087136 114.511372 
L 342.050955 117.155216 
L 349.014773 119.991625 
L 355.978591 122.976076 
L 362.942409 126.056989 
L 369.906227 129.178103 
L 376.870045 132.281162 
L 383.833864 135.308768 
L 390.797682 138.207236 
L 397.7615 140.929165 
L 404.725318 143.435666 
L 411.689136 145.697984 
L 418.652955 147.698505 
" clip-path="url(#p572faf3a40)" style="fill: none; stroke: #000000; stroke-width: 2; stroke-linecap: square"/>
   </g>
   <g id="line2d_6">
    <path d="M 70.462045 97.19145 
L 77.425864 97.123178 
L 84.389682 97.085102 
L 91.3535 97.073913 
L 98.317318 97.086664 
L 105.281136 97.120775 
L 112.244955 97.174028 
L 119.208773 97.244571 
L 126.172591 97.330915 
L 133.136409 97.431936 
L 140.100227 97.546872 
L 147.064045 97.675329 
L 154.027864 97.817273 
L 160.991682 97.973037 
L 167.9555 98.143318 
L 174.919318 98.329176 
L 181.883136 98.532035 
L 188.846955 98.753685 
L 195.810773 98.996278 
L 202.774591 99.262332 
L 209.738409 99.554728 
L 216.702227 99.876712 
L 223.666045 100.231894 
L 230.629864 100.624246 
L 237.593682 101.058108 
L 244.5575 101.538182 
L 251.521318 102.069534 
L 258.485136 102.657594 
L 265.448955 103.308158 
L 272.412773 104.027385 
L 279.376591 104.821797 
L 286.340409 105.698283 
L 293.304227 106.664093 
L 300.268045 107.726842 
L 307.231864 108.894512 
L 314.195682 110.175446 
L 321.1595 111.578352 
L 328.123318 113.112303 
L 335.087136 114.786734 
L 342.050955 116.611448 
L 349.014773 118.596608 
L 355.978591 120.752744 
L 362.942409 123.090748 
L 369.906227 125.62188 
L 376.870045 128.357759 
L 383.833864 131.310372 
L 390.797682 134.492069 
L 397.7615 137.915563 
L 404.725318 141.593934 
L 411.689136 145.540623 
L 418.652955 149.769438 
" clip-path="url(#p572faf3a40)" style="fill: none; stroke-dasharray: 7.4,3.2; stroke-dashoffset: 0; stroke: #34b6c6; stroke-width: 2"/>
   </g>
   <g id="line2d_7">
    <path d="M 70.462045 96.817856 
L 77.425864 96.899739 
L 84.389682 96.988574 
L 91.3535 97.082364 
L 98.317318 97.17933 
L 105.281136 97.277924 
L 112.244955 97.376826 
L 119.208773 97.474963 
L 126.172591 97.571504 
L 133.136409 97.66588 
L 140.100227 97.757794 
L 147.064045 97.847231 
L 154.027864 97.934479 
L 160.991682 98.020151 
L 167.9555 98.105204 
L 174.919318 98.190974 
L 181.883136 98.279205 
L 188.846955 98.372093 
L 195.810773 98.472334 
L 202.774591 98.583178 
L 209.738409 98.708492 
L 216.702227 98.852842 
L 223.666045 99.021571 
L 230.629864 99.220904 
L 237.593682 99.458051 
L 244.5575 99.741336 
L 251.521318 100.080327 
L 258.485136 100.485979 
L 265.448955 100.970781 
L 272.412773 101.548902 
L 279.376591 102.236309 
L 286.340409 103.050843 
L 293.304227 104.01219 
L 300.268045 105.141653 
L 307.231864 106.461577 
L 314.195682 107.994217 
L 321.1595 109.759744 
L 328.123318 111.773142 
L 335.087136 114.039919 
L 342.050955 116.551077 
L 349.014773 119.278607 
L 355.978591 122.17356 
L 362.942409 125.16881 
L 369.906227 128.187303 
L 376.870045 131.154076 
L 383.833864 134.008214 
L 390.797682 136.710774 
L 397.7615 139.246829 
L 404.725318 141.622404 
L 411.689136 143.858683 
L 418.652955 145.985841 
" clip-path="url(#p572faf3a40)" style="fill: none; stroke-dasharray: 7.4,3.2; stroke-dashoffset: 0; stroke: #9370db; stroke-width: 2"/>
   </g>
   <g id="line2d_8">
    <path d="M 70.462045 94.086179 
L 77.425864 94.280497 
L 84.389682 94.478472 
L 91.3535 94.680355 
L 98.317318 94.886424 
L 105.281136 95.096996 
L 112.244955 95.312425 
L 119.208773 95.533115 
L 126.172591 95.759527 
L 133.136409 95.992188 
L 140.100227 96.231702 
L 147.064045 96.478769 
L 154.027864 96.734196 
L 160.991682 96.998924 
L 167.9555 97.274047 
L 174.919318 97.560843 
L 181.883136 97.860811 
L 188.846955 98.175708 
L 195.810773 98.507596 
L 202.774591 98.858903 
L 209.738409 99.232483 
L 216.702227 99.631695 
L 223.666045 100.060486 
L 230.629864 100.523491 
L 237.593682 101.026143 
L 244.5575 101.574795 
L 251.521318 102.176855 
L 258.485136 102.840927 
L 265.448955 103.576959 
L 272.412773 104.396388 
L 279.376591 105.312261 
L 286.340409 106.339311 
L 293.304227 107.493923 
L 300.268045 108.793908 
L 307.231864 110.257934 
L 314.195682 111.90438 
L 321.1595 113.74935 
L 328.123318 115.803557 
L 335.087136 118.068032 
L 342.050955 120.529087 
L 349.014773 123.153797 
L 355.978591 125.888076 
L 362.942409 128.659437 
L 369.906227 131.385257 
L 376.870045 133.98482 
L 383.833864 136.391279 
L 390.797682 138.559608 
L 397.7615 140.468638 
L 404.725318 142.117992 
L 411.689136 143.522286 
L 418.652955 144.704945 
" clip-path="url(#p572faf3a40)" style="fill: none; stroke-dasharray: 12.8,3.2,2,3.2; stroke-dashoffset: 0; stroke: #ff0000; stroke-width: 2"/>
   </g>
   <g id="patch_4">
    <path d="M 53.0525 165.44153 
L 53.0525 71.435409 
" style="fill: none; stroke: #000000; stroke-width: 0.8; stroke-linejoin: miter; stroke-linecap: square"/>
   </g>
   <g id="patch_5">
    <path d="M 436.0625 165.44153 
L 436.0625 71.435409 
" style="fill: none; stroke: #000000; stroke-width: 0.8; stroke-linejoin: miter; stroke-linecap: square"/>
   </g>
   <g id="patch_6">
    <path d="M 53.0525 165.44153 
L 436.0625 165.44153 
" style="fill: none; stroke: #000000; stroke-width: 0.8; stroke-linejoin: miter; stroke-linecap: square"/>
   </g>
   <g id="patch_7">
    <path d="M 53.0525 71.435409 
L 436.0625 71.435409 
" style="fill: none; stroke: #000000; stroke-width: 0.8; stroke-linejoin: miter; stroke-linecap: square"/>
   </g>
  </g>
  <g id="axes_3">
   <g id="patch_8">
    <path d="M 53.0525 276.68 
L 436.0625 276.68 
L 436.0625 182.673878 
L 53.0525 182.673878 
z
" style="fill: #ffffff"/>
   </g>
   <g id="PathCollection_2">
    <g clip-path="url(#p0eeebbb2e0)">
     <use xlink:href="#m5922475335" x="356.142175" y="203.848879" style="fill: #daa520; stroke: #daa520"/>
     <use xlink:href="#m5922475335" x="173.96886" y="212.387697" style="fill: #daa520; stroke: #daa520"/>
     <use xlink:href="#m5922475335" x="116.920856" y="252.888157" style="fill: #daa520; stroke: #daa520"/>
     <use xlink:href="#m5922475335" x="415.367612" y="226.074702" style="fill: #daa520; stroke: #daa520"/>
     <use xlink:href="#m5922475335" x="243.609471" y="213.326528" style="fill: #daa520; stroke: #daa520"/>
     <use xlink:href="#m5922475335" x="377.494798" y="212.527579" style="fill: #daa520; stroke: #daa520"/>
     <use xlink:href="#m5922475335" x="407.076146" y="221.672336" style="fill: #daa520; stroke: #daa520"/>
     <use xlink:href="#m5922475335" x="159.074082" y="196.183484" style="fill: #daa520; stroke: #daa520"/>
     <use xlink:href="#m5922475335" x="368.426206" y="215.017573" style="fill: #daa520; stroke: #daa520"/>
     <use xlink:href="#m5922475335" x="317.881173" y="194.258992" style="fill: #daa520; stroke: #daa520"/>
     <use xlink:href="#m5922475335" x="106.437376" y="245.011409" style="fill: #daa520; stroke: #daa520"/>
     <use xlink:href="#m5922475335" x="292.629607" y="235.119433" style="fill: #daa520; stroke: #daa520"/>
     <use xlink:href="#m5922475335" x="388.825507" y="259.91507" style="fill: #daa520; stroke: #daa520"/>
     <use xlink:href="#m5922475335" x="329.982142" y="244.310043" style="fill: #daa520; stroke: #daa520"/>
     <use xlink:href="#m5922475335" x="304.498473" y="258.561033" style="fill: #daa520; stroke: #daa520"/>
     <use xlink:href="#m5922475335" x="396.071572" y="210.228378" style="fill: #daa520; stroke: #daa520"/>
     <use xlink:href="#m5922475335" x="406.494529" y="194.575734" style="fill: #daa520; stroke: #daa520"/>
     <use xlink:href="#m5922475335" x="359.959298" y="233.899212" style="fill: #daa520; stroke: #daa520"/>
     <use xlink:href="#m5922475335" x="242.427577" y="253.933857" style="fill: #daa520; stroke: #daa520"/>
     <use xlink:href="#m5922475335" x="345.350953" y="243.184842" style="fill: #daa520; stroke: #daa520"/>
     <use xlink:href="#m5922475335" x="236.203158" y="215.236826" style="fill: #daa520; stroke: #daa520"/>
     <use xlink:href="#m5922475335" x="412.624107" y="192.709917" style="fill: #daa520; stroke: #daa520"/>
     <use xlink:href="#m5922475335" x="235.542548" y="220.672703" style="fill: #daa520; stroke: #daa520"/>
     <use xlink:href="#m5922475335" x="368.512309" y="266.141779" style="fill: #daa520; stroke: #daa520"/>
     <use xlink:href="#m5922475335" x="411.79621" y="250.455615" style="fill: #daa520; stroke: #daa520"/>
     <use xlink:href="#m5922475335" x="413.630351" y="220.838229" style="fill: #daa520; stroke: #daa520"/>
     <use xlink:href="#m5922475335" x="98.876342" y="186.946884" style="fill: #daa520; stroke: #daa520"/>
     <use xlink:href="#m5922475335" x="340.573056" y="201.093266" style="fill: #daa520; stroke: #daa520"/>
     <use xlink:href="#m5922475335" x="137.49681" y="241.656046" style="fill: #daa520; stroke: #daa520"/>
     <use xlink:href="#m5922475335" x="253.457252" y="222.947203" style="fill: #daa520; stroke: #daa520"/>
     <use xlink:href="#m5922475335" x="377.091624" y="207.230034" style="fill: #daa520; stroke: #daa520"/>
     <use xlink:href="#m5922475335" x="384.441157" y="247.939284" style="fill: #daa520; stroke: #daa520"/>
     <use xlink:href="#m5922475335" x="377.169471" y="215.3294" style="fill: #daa520; stroke: #daa520"/>
     <use xlink:href="#m5922475335" x="372.701676" y="213.351854" style="fill: #daa520; stroke: #daa520"/>
     <use xlink:href="#m5922475335" x="332.711897" y="213.835678" style="fill: #daa520; stroke: #daa520"/>
     <use xlink:href="#m5922475335" x="416.648232" y="235.301494" style="fill: #daa520; stroke: #daa520"/>
     <use xlink:href="#m5922475335" x="279.278098" y="234.488634" style="fill: #daa520; stroke: #daa520"/>
     <use xlink:href="#m5922475335" x="320.307294" y="267.151034" style="fill: #daa520; stroke: #daa520"/>
     <use xlink:href="#m5922475335" x="347.464302" y="257.049939" style="fill: #daa520; stroke: #daa520"/>
     <use xlink:href="#m5922475335" x="323.955668" y="248.410654" style="fill: #daa520; stroke: #daa520"/>
     <use xlink:href="#m5922475335" x="404.049704" y="242.669337" style="fill: #daa520; stroke: #daa520"/>
     <use xlink:href="#m5922475335" x="382.703095" y="213.965001" style="fill: #daa520; stroke: #daa520"/>
     <use xlink:href="#m5922475335" x="334.926347" y="197.996729" style="fill: #daa520; stroke: #daa520"/>
     <use xlink:href="#m5922475335" x="403.851663" y="202.980152" style="fill: #daa520; stroke: #daa520"/>
     <use xlink:href="#m5922475335" x="226.536822" y="210.799903" style="fill: #daa520; stroke: #daa520"/>
     <use xlink:href="#m5922475335" x="381.724077" y="216.134974" style="fill: #daa520; stroke: #daa520"/>
     <use xlink:href="#m5922475335" x="341.673025" y="272.406994" style="fill: #daa520; stroke: #daa520"/>
     <use xlink:href="#m5922475335" x="353.641386" y="210.542533" style="fill: #daa520; stroke: #daa520"/>
     <use xlink:href="#m5922475335" x="365.861434" y="210.188792" style="fill: #daa520; stroke: #daa520"/>
     <use xlink:href="#m5922475335" x="411.748649" y="244.472293" style="fill: #daa520; stroke: #daa520"/>
     <use xlink:href="#m5922475335" x="346.315281" y="266.983882" style="fill: #daa520; stroke: #daa520"/>
     <use xlink:href="#m5922475335" x="302.685191" y="196.149601" style="fill: #daa520; stroke: #daa520"/>
     <use xlink:href="#m5922475335" x="364.531675" y="250.87482" style="fill: #daa520; stroke: #daa520"/>
     <use xlink:href="#m5922475335" x="313.384396" y="222.478933" style="fill: #daa520; stroke: #daa520"/>
     <use xlink:href="#m5922475335" x="101.615923" y="187.464084" style="fill: #daa520; stroke: #daa520"/>
     <use xlink:href="#m5922475335" x="328.093903" y="202.004048" style="fill: #daa520; stroke: #daa520"/>
     <use xlink:href="#m5922475335" x="339.605208" y="238.443521" style="fill: #daa520; stroke: #daa520"/>
     <use xlink:href="#m5922475335" x="412.745458" y="198.452059" style="fill: #daa520; stroke: #daa520"/>
     <use xlink:href="#m5922475335" x="312.864685" y="197.360689" style="fill: #daa520; stroke: #daa520"/>
     <use xlink:href="#m5922475335" x="394.776681" y="208.036123" style="fill: #daa520; stroke: #daa520"/>
     <use xlink:href="#m5922475335" x="399.366654" y="218.379952" style="fill: #daa520; stroke: #daa520"/>
     <use xlink:href="#m5922475335" x="351.133379" y="220.543186" style="fill: #daa520; stroke: #daa520"/>
     <use xlink:href="#m5922475335" x="407.998546" y="235.45876" style="fill: #daa520; stroke: #daa520"/>
     <use xlink:href="#m5922475335" x="406.472536" y="243.386921" style="fill: #daa520; stroke: #daa520"/>
     <use xlink:href="#m5922475335" x="342.254871" y="233.059279" style="fill: #daa520; stroke: #daa520"/>
     <use xlink:href="#m5922475335" x="417.26534" y="222.556334" style="fill: #daa520; stroke: #daa520"/>
     <use xlink:href="#m5922475335" x="286.432626" y="252.247159" style="fill: #daa520; stroke: #daa520"/>
     <use xlink:href="#m5922475335" x="368.742797" y="238.429653" style="fill: #daa520; stroke: #daa520"/>
     <use xlink:href="#m5922475335" x="375.482362" y="211.493502" style="fill: #daa520; stroke: #daa520"/>
     <use xlink:href="#m5922475335" x="274.429389" y="234.602465" style="fill: #daa520; stroke: #daa520"/>
     <use xlink:href="#m5922475335" x="176.019088" y="193.589429" style="fill: #daa520; stroke: #daa520"/>
     <use xlink:href="#m5922475335" x="281.37539" y="204.760081" style="fill: #daa520; stroke: #daa520"/>
     <use xlink:href="#m5922475335" x="177.395067" y="220.119304" style="fill: #daa520; stroke: #daa520"/>
     <use xlink:href="#m5922475335" x="394.006003" y="222.957721" style="fill: #daa520; stroke: #daa520"/>
     <use xlink:href="#m5922475335" x="266.19875" y="205.341528" style="fill: #daa520; stroke: #daa520"/>
     <use xlink:href="#m5922475335" x="374.323728" y="212.627521" style="fill: #daa520; stroke: #daa520"/>
     <use xlink:href="#m5922475335" x="197.982934" y="213.607775" style="fill: #daa520; stroke: #daa520"/>
     <use xlink:href="#m5922475335" x="417.864665" y="224.708873" style="fill: #daa520; stroke: #daa520"/>
     <use xlink:href="#m5922475335" x="373.927697" y="230.864361" style="fill: #daa520; stroke: #daa520"/>
     <use xlink:href="#m5922475335" x="385.894602" y="217.942655" style="fill: #daa520; stroke: #daa520"/>
     <use xlink:href="#m5922475335" x="120.171001" y="219.340106" style="fill: #daa520; stroke: #daa520"/>
     <use xlink:href="#m5922475335" x="394.258264" y="217.786972" style="fill: #daa520; stroke: #daa520"/>
     <use xlink:href="#m5922475335" x="230.835276" y="216.756067" style="fill: #daa520; stroke: #daa520"/>
     <use xlink:href="#m5922475335" x="342.68633" y="235.825419" style="fill: #daa520; stroke: #daa520"/>
     <use xlink:href="#m5922475335" x="396.545958" y="208.660472" style="fill: #daa520; stroke: #daa520"/>
     <use xlink:href="#m5922475335" x="406.971063" y="193.768603" style="fill: #daa520; stroke: #daa520"/>
     <use xlink:href="#m5922475335" x="304.937846" y="255.567666" style="fill: #daa520; stroke: #daa520"/>
     <use xlink:href="#m5922475335" x="384.489367" y="221.847652" style="fill: #daa520; stroke: #daa520"/>
     <use xlink:href="#m5922475335" x="100.76197" y="232.080021" style="fill: #daa520; stroke: #daa520"/>
     <use xlink:href="#m5922475335" x="365.573968" y="257.350856" style="fill: #daa520; stroke: #daa520"/>
     <use xlink:href="#m5922475335" x="379.125258" y="226.033814" style="fill: #daa520; stroke: #daa520"/>
     <use xlink:href="#m5922475335" x="383.475357" y="202.205251" style="fill: #daa520; stroke: #daa520"/>
     <use xlink:href="#m5922475335" x="374.986099" y="206.148268" style="fill: #daa520; stroke: #daa520"/>
     <use xlink:href="#m5922475335" x="407.60753" y="223.771267" style="fill: #daa520; stroke: #daa520"/>
    </g>
   </g>
   <g id="matplotlib.axis_5">
    <g id="xtick_1">
     <g id="line2d_9">
      <defs>
       <path id="m35bbfe958a" d="M 0 0 
L 0 3.5 
" style="stroke: #696969; stroke-width: 0.8"/>
      </defs>
      <g>
       <use xlink:href="#m35bbfe958a" x="70.462045" y="276.68" style="fill: #696969; stroke: #696969; stroke-width: 0.8"/>
      </g>
     </g>
     <g id="text_3">
      <!-- −1.0 -->
      <g style="fill: #696969" transform="translate(51.035795 295.8375) scale(0.16 -0.16)">
       <defs>
        <path id="DejaVuSans-31" d="M 794 531 
L 1825 531 
L 1825 4091 
L 703 3866 
L 703 4441 
L 1819 4666 
L 2450 4666 
L 2450 531 
L 3481 531 
L 3481 0 
L 794 0 
L 794 531 
z
" transform="scale(0.015625)"/>
        <path id="DejaVuSans-2e" d="M 684 794 
L 1344 794 
L 1344 0 
L 684 0 
L 684 794 
z
" transform="scale(0.015625)"/>
       </defs>
       <use xlink:href="#DejaVuSans-2212"/>
       <use xlink:href="#DejaVuSans-31" x="83.789062"/>
       <use xlink:href="#DejaVuSans-2e" x="147.412109"/>
       <use xlink:href="#DejaVuSans-30" x="179.199219"/>
      </g>
     </g>
    </g>
    <g id="xtick_2">
     <g id="line2d_10">
      <g>
       <use xlink:href="#m35bbfe958a" x="157.509773" y="276.68" style="fill: #696969; stroke: #696969; stroke-width: 0.8"/>
      </g>
     </g>
     <g id="text_4">
      <!-- −0.5 -->
      <g style="fill: #696969" transform="translate(138.083523 295.8375) scale(0.16 -0.16)">
       <use xlink:href="#DejaVuSans-2212"/>
       <use xlink:href="#DejaVuSans-30" x="83.789062"/>
       <use xlink:href="#DejaVuSans-2e" x="147.412109"/>
       <use xlink:href="#DejaVuSans-35" x="179.199219"/>
      </g>
     </g>
    </g>
    <g id="xtick_3">
     <g id="line2d_11">
      <g>
       <use xlink:href="#m35bbfe958a" x="244.5575" y="276.68" style="fill: #696969; stroke: #696969; stroke-width: 0.8"/>
      </g>
     </g>
     <g id="text_5">
      <!-- 0.0 -->
      <g style="fill: #696969" transform="translate(231.835 295.8375) scale(0.16 -0.16)">
       <use xlink:href="#DejaVuSans-30"/>
       <use xlink:href="#DejaVuSans-2e" x="63.623047"/>
       <use xlink:href="#DejaVuSans-30" x="95.410156"/>
      </g>
     </g>
    </g>
    <g id="xtick_4">
     <g id="line2d_12">
      <g>
       <use xlink:href="#m35bbfe958a" x="331.605227" y="276.68" style="fill: #696969; stroke: #696969; stroke-width: 0.8"/>
      </g>
     </g>
     <g id="text_6">
      <!-- 0.5 -->
      <g style="fill: #696969" transform="translate(318.882727 295.8375) scale(0.16 -0.16)">
       <use xlink:href="#DejaVuSans-30"/>
       <use xlink:href="#DejaVuSans-2e" x="63.623047"/>
       <use xlink:href="#DejaVuSans-35" x="95.410156"/>
      </g>
     </g>
    </g>
    <g id="xtick_5">
     <g id="line2d_13">
      <g>
       <use xlink:href="#m35bbfe958a" x="418.652955" y="276.68" style="fill: #696969; stroke: #696969; stroke-width: 0.8"/>
      </g>
     </g>
     <g id="text_7">
      <!-- 1.0 -->
      <g style="fill: #696969" transform="translate(405.930455 295.8375) scale(0.16 -0.16)">
       <use xlink:href="#DejaVuSans-31"/>
       <use xlink:href="#DejaVuSans-2e" x="63.623047"/>
       <use xlink:href="#DejaVuSans-30" x="95.410156"/>
      </g>
     </g>
    </g>
    <g id="text_8">
     <!-- $X$ -->
     <g transform="translate(239.0375 315.3225) scale(0.16 -0.16)">
      <defs>
       <path id="DejaVuSans-Oblique-58" d="M 878 4666 
L 1516 4666 
L 2316 2981 
L 3763 4666 
L 4500 4666 
L 2578 2438 
L 3738 0 
L 3103 0 
L 2163 1966 
L 459 0 
L -275 0 
L 1906 2509 
L 878 4666 
z
" transform="scale(0.015625)"/>
      </defs>
      <use xlink:href="#DejaVuSans-Oblique-58" transform="translate(0 0.09375)"/>
     </g>
    </g>
   </g>
   <g id="matplotlib.axis_6">
    <g id="ytick_3">
     <g id="line2d_14">
      <g>
       <use xlink:href="#m46696913d5" x="53.0525" y="260.167879" style="fill: #696969; stroke: #696969; stroke-width: 0.8"/>
      </g>
     </g>
     <g id="text_9">
      <!-- −2.5 -->
      <g style="fill: #696969" transform="translate(7.2 266.246629) scale(0.16 -0.16)">
       <defs>
        <path id="DejaVuSans-32" d="M 1228 531 
L 3431 531 
L 3431 0 
L 469 0 
L 469 531 
Q 828 903 1448 1529 
Q 2069 2156 2228 2338 
Q 2531 2678 2651 2914 
Q 2772 3150 2772 3378 
Q 2772 3750 2511 3984 
Q 2250 4219 1831 4219 
Q 1534 4219 1204 4116 
Q 875 4013 500 3803 
L 500 4441 
Q 881 4594 1212 4672 
Q 1544 4750 1819 4750 
Q 2544 4750 2975 4387 
Q 3406 4025 3406 3419 
Q 3406 3131 3298 2873 
Q 3191 2616 2906 2266 
Q 2828 2175 2409 1742 
Q 1991 1309 1228 531 
z
" transform="scale(0.015625)"/>
       </defs>
       <use xlink:href="#DejaVuSans-2212"/>
       <use xlink:href="#DejaVuSans-32" x="83.789062"/>
       <use xlink:href="#DejaVuSans-2e" x="147.412109"/>
       <use xlink:href="#DejaVuSans-35" x="179.199219"/>
      </g>
     </g>
    </g>
    <g id="ytick_4">
     <g id="line2d_15">
      <g>
       <use xlink:href="#m46696913d5" x="53.0525" y="220.959069" style="fill: #696969; stroke: #696969; stroke-width: 0.8"/>
      </g>
     </g>
     <g id="text_10">
      <!-- 0.0 -->
      <g style="fill: #696969" transform="translate(20.6075 227.037819) scale(0.16 -0.16)">
       <use xlink:href="#DejaVuSans-30"/>
       <use xlink:href="#DejaVuSans-2e" x="63.623047"/>
       <use xlink:href="#DejaVuSans-30" x="95.410156"/>
      </g>
     </g>
    </g>
   </g>
   <g id="line2d_16">
    <path d="M 70.462045 203.990981 
L 77.425864 206.301096 
L 84.389682 208.422852 
L 91.3535 210.331225 
L 98.317318 212.008687 
L 105.281136 213.445977 
L 112.244955 214.642429 
L 119.208773 215.605808 
L 126.172591 216.351722 
L 133.136409 216.902547 
L 140.100227 217.286037 
L 147.064045 217.533702 
L 154.027864 217.679162 
L 160.991682 217.756453 
L 167.9555 217.798562 
L 174.919318 217.836179 
L 181.883136 217.896711 
L 188.846955 218.003594 
L 195.810773 218.175847 
L 202.774591 218.427794 
L 209.738409 218.768904 
L 216.702227 219.203719 
L 223.666045 219.731746 
L 230.629864 220.347389 
L 237.593682 221.039916 
L 244.5575 221.793503 
L 251.521318 222.587484 
L 258.485136 223.396947 
L 265.448955 224.193666 
L 272.412773 224.947537 
L 279.376591 225.628549 
L 286.340409 226.209139 
L 293.304227 226.666813 
L 300.268045 226.986832 
L 307.231864 227.16435 
L 314.195682 227.205562 
L 321.1595 227.127087 
L 328.123318 226.952899 
L 335.087136 226.708527 
L 342.050955 226.413041 
L 349.014773 226.070824 
L 355.978591 225.666412 
L 362.942409 225.166011 
L 369.906227 224.527007 
L 376.870045 223.713088 
L 383.833864 222.708982 
L 390.797682 221.528691 
L 397.7615 220.214612 
L 404.725318 218.829007 
L 411.689136 217.441983 
L 418.652955 216.119881 
" clip-path="url(#p0eeebbb2e0)" style="fill: none; stroke: #696969; stroke-width: 2; stroke-linecap: square"/>
   </g>
   <g id="line2d_17">
    <path d="M 70.462045 216.544163 
L 77.425864 216.72554 
L 84.389682 216.901649 
L 91.3535 217.076121 
L 98.317318 217.252278 
L 105.281136 217.433133 
L 112.244955 217.621387 
L 119.208773 217.81943 
L 126.172591 218.029345 
L 133.136409 218.252902 
L 140.100227 218.491561 
L 147.064045 218.746473 
L 154.027864 219.018477 
L 160.991682 219.308103 
L 167.9555 219.615571 
L 174.919318 219.94079 
L 181.883136 220.283358 
L 188.846955 220.642564 
L 195.810773 221.017387 
L 202.774591 221.406495 
L 209.738409 221.808244 
L 216.702227 222.220684 
L 223.666045 222.641551 
L 230.629864 223.068272 
L 237.593682 223.497964 
L 244.5575 223.927433 
L 251.521318 224.353176 
L 258.485136 224.771378 
L 265.448955 225.177915 
L 272.412773 225.568353 
L 279.376591 225.937947 
L 286.340409 226.281641 
L 293.304227 226.59407 
L 300.268045 226.869558 
L 307.231864 227.10212 
L 314.195682 227.285459 
L 321.1595 227.412969 
L 328.123318 227.477733 
L 335.087136 227.472524 
L 342.050955 227.389805 
L 349.014773 227.221727 
L 355.978591 226.960134 
L 362.942409 226.596558 
L 369.906227 226.122219 
L 376.870045 225.528029 
L 383.833864 224.80459 
L 390.797682 223.942192 
L 397.7615 222.930816 
L 404.725318 221.760132 
L 411.689136 220.4195 
L 418.652955 218.89797 
" clip-path="url(#p0eeebbb2e0)" style="fill: none; stroke-dasharray: 7.4,3.2; stroke-dashoffset: 0; stroke: #79ad41; stroke-width: 2"/>
   </g>
   <g id="patch_9">
    <path d="M 53.0525 276.68 
L 53.0525 182.673878 
" style="fill: none; stroke: #000000; stroke-width: 0.8; stroke-linejoin: miter; stroke-linecap: square"/>
   </g>
   <g id="patch_10">
    <path d="M 436.0625 276.68 
L 436.0625 182.673878 
" style="fill: none; stroke: #000000; stroke-width: 0.8; stroke-linejoin: miter; stroke-linecap: square"/>
   </g>
   <g id="patch_11">
    <path d="M 53.0525 276.68 
L 436.0625 276.68 
" style="fill: none; stroke: #000000; stroke-width: 0.8; stroke-linejoin: miter; stroke-linecap: square"/>
   </g>
   <g id="patch_12">
    <path d="M 53.0525 182.673878 
L 436.0625 182.673878 
" style="fill: none; stroke: #000000; stroke-width: 0.8; stroke-linejoin: miter; stroke-linecap: square"/>
   </g>
  </g>
 </g>
 <defs>
  <clipPath id="pb9a4e4e840">
   <rect x="53.0525" y="7.2" width="383.01" height="47.003061"/>
  </clipPath>
  <clipPath id="p572faf3a40">
   <rect x="53.0525" y="71.435409" width="383.01" height="94.006122"/>
  </clipPath>
  <clipPath id="p0eeebbb2e0">
   <rect x="53.0525" y="182.673878" width="383.01" height="94.006122"/>
  </clipPath>
 </defs>
</svg>
