<?xml version="1.0" encoding="utf-8" standalone="no"?>
<!DOCTYPE svg PUBLIC "-//W3C//DTD SVG 1.1//EN"
  "http://www.w3.org/Graphics/SVG/1.1/DTD/svg11.dtd">
<svg xmlns:xlink="http://www.w3.org/1999/xlink" width="443.2625pt" height="325.85pt" viewBox="0 0 443.2625 325.85" xmlns="http://www.w3.org/2000/svg" version="1.1">
 <metadata>
  <rdf:RDF xmlns:dc="http://purl.org/dc/elements/1.1/" xmlns:cc="http://creativecommons.org/ns#" xmlns:rdf="http://www.w3.org/1999/02/22-rdf-syntax-ns#">
   <cc:Work>
    <dc:type rdf:resource="http://purl.org/dc/dcmitype/StillImage"/>
    <dc:date>2024-01-28T20:52:04.409410</dc:date>
    <dc:format>image/svg+xml</dc:format>
    <dc:creator>
     <cc:Agent>
      <dc:title>Matplotlib v3.7.2, https://matplotlib.org/</dc:title>
     </cc:Agent>
    </dc:creator>
   </cc:Work>
  </rdf:RDF>
 </metadata>
 <defs>
  <style type="text/css">*{stroke-linejoin: round; stroke-linecap: butt}</style>
 </defs>
 <g id="figure_1">
  <g id="patch_1">
   <path d="M 0 325.85 
L 443.2625 325.85 
L 443.2625 0 
L 0 0 
z
" style="fill: #ffffff"/>
  </g>
  <g id="axes_1">
   <g id="patch_2">
    <path d="M 53.0525 53.570638 
L 436.0625 53.570638 
L 436.0625 7.2 
L 53.0525 7.2 
z
" style="fill: #ffffff"/>
   </g>
   <g id="PolyCollection_1">
    <defs>
     <path id="mcb88b59088" d="M 70.462045 -274.387119 
L 70.462045 -315.715324 
L 77.425864 -314.269436 
L 84.389682 -312.875207 
L 91.3535 -311.541062 
L 98.317318 -310.273721 
L 105.281136 -309.078331 
L 112.244955 -307.958582 
L 119.208773 -306.91689 
L 126.172591 -305.954621 
L 133.136409 -305.072277 
L 140.100227 -304.269709 
L 147.064045 -303.546259 
L 154.027864 -302.900907 
L 160.991682 -302.332408 
L 167.9555 -301.839366 
L 174.919318 -301.420288 
L 181.883136 -301.073613 
L 188.846955 -300.797773 
L 195.810773 -300.591128 
L 202.774591 -300.45197 
L 209.738409 -300.378508 
L 216.702227 -300.368775 
L 223.666045 -300.420597 
L 230.629864 -300.531561 
L 237.593682 -300.698867 
L 244.5575 -300.919355 
L 251.521318 -301.189388 
L 258.485136 -301.504811 
L 265.448955 -301.86092 
L 272.412773 -302.252457 
L 279.376591 -302.67357 
L 286.340409 -303.117877 
L 293.304227 -303.578504 
L 300.268045 -304.048144 
L 307.231864 -304.519176 
L 314.195682 -304.983765 
L 321.1595 -305.434011 
L 328.123318 -305.862052 
L 335.087136 -306.260265 
L 342.050955 -306.62131 
L 349.014773 -306.938329 
L 355.978591 -307.205014 
L 362.942409 -307.415715 
L 369.906227 -307.565487 
L 376.870045 -307.650195 
L 383.833864 -307.666519 
L 390.797682 -307.612018 
L 397.7615 -307.485141 
L 404.725318 -307.285255 
L 411.689136 -307.012676 
L 418.652955 -306.668647 
L 418.652955 -274.387119 
L 418.652955 -274.387119 
L 411.689136 -274.387119 
L 404.725318 -274.387119 
L 397.7615 -274.387119 
L 390.797682 -274.387119 
L 383.833864 -274.387119 
L 376.870045 -274.387119 
L 369.906227 -274.387119 
L 362.942409 -274.387119 
L 355.978591 -274.387119 
L 349.014773 -274.387119 
L 342.050955 -274.387119 
L 335.087136 -274.387119 
L 328.123318 -274.387119 
L 321.1595 -274.387119 
L 314.195682 -274.387119 
L 307.231864 -274.387119 
L 300.268045 -274.387119 
L 293.304227 -274.387119 
L 286.340409 -274.387119 
L 279.376591 -274.387119 
L 272.412773 -274.387119 
L 265.448955 -274.387119 
L 258.485136 -274.387119 
L 251.521318 -274.387119 
L 244.5575 -274.387119 
L 237.593682 -274.387119 
L 230.629864 -274.387119 
L 223.666045 -274.387119 
L 216.702227 -274.387119 
L 209.738409 -274.387119 
L 202.774591 -274.387119 
L 195.810773 -274.387119 
L 188.846955 -274.387119 
L 181.883136 -274.387119 
L 174.919318 -274.387119 
L 167.9555 -274.387119 
L 160.991682 -274.387119 
L 154.027864 -274.387119 
L 147.064045 -274.387119 
L 140.100227 -274.387119 
L 133.136409 -274.387119 
L 126.172591 -274.387119 
L 119.208773 -274.387119 
L 112.244955 -274.387119 
L 105.281136 -274.387119 
L 98.317318 -274.387119 
L 91.3535 -274.387119 
L 84.389682 -274.387119 
L 77.425864 -274.387119 
L 70.462045 -274.387119 
z
" style="stroke: #dc143c; stroke-opacity: 0.2"/>
    </defs>
    <g clip-path="url(#pd91d6e84bf)">
     <use xlink:href="#mcb88b59088" x="0" y="325.85" style="fill: #dc143c; fill-opacity: 0.2; stroke: #dc143c; stroke-opacity: 0.2"/>
    </g>
   </g>
   <g id="PolyCollection_2">
    <defs>
     <path id="m95a6aa2c96" d="M 70.462045 -274.387119 
L 70.462045 -301.195695 
L 77.425864 -302.641583 
L 84.389682 -304.035812 
L 91.3535 -305.369957 
L 98.317318 -306.637298 
L 105.281136 -307.832688 
L 112.244955 -308.952437 
L 119.208773 -309.994129 
L 126.172591 -310.956398 
L 133.136409 -311.838742 
L 140.100227 -312.64131 
L 147.064045 -313.36476 
L 154.027864 -314.010112 
L 160.991682 -314.578611 
L 167.9555 -315.071653 
L 174.919318 -315.490731 
L 181.883136 -315.837406 
L 188.846955 -316.113246 
L 195.810773 -316.319891 
L 202.774591 -316.459049 
L 209.738409 -316.532511 
L 216.702227 -316.542244 
L 223.666045 -316.490422 
L 230.629864 -316.379458 
L 237.593682 -316.212152 
L 244.5575 -315.991664 
L 251.521318 -315.721631 
L 258.485136 -315.406208 
L 265.448955 -315.050099 
L 272.412773 -314.658562 
L 279.376591 -314.237449 
L 286.340409 -313.793142 
L 293.304227 -313.332515 
L 300.268045 -312.862875 
L 307.231864 -312.391843 
L 314.195682 -311.927254 
L 321.1595 -311.477008 
L 328.123318 -311.048967 
L 335.087136 -310.650754 
L 342.050955 -310.289709 
L 349.014773 -309.97269 
L 355.978591 -309.706005 
L 362.942409 -309.495304 
L 369.906227 -309.345532 
L 376.870045 -309.260824 
L 383.833864 -309.2445 
L 390.797682 -309.299001 
L 397.7615 -309.425878 
L 404.725318 -309.625764 
L 411.689136 -309.898343 
L 418.652955 -310.242372 
L 418.652955 -274.387119 
L 418.652955 -274.387119 
L 411.689136 -274.387119 
L 404.725318 -274.387119 
L 397.7615 -274.387119 
L 390.797682 -274.387119 
L 383.833864 -274.387119 
L 376.870045 -274.387119 
L 369.906227 -274.387119 
L 362.942409 -274.387119 
L 355.978591 -274.387119 
L 349.014773 -274.387119 
L 342.050955 -274.387119 
L 335.087136 -274.387119 
L 328.123318 -274.387119 
L 321.1595 -274.387119 
L 314.195682 -274.387119 
L 307.231864 -274.387119 
L 300.268045 -274.387119 
L 293.304227 -274.387119 
L 286.340409 -274.387119 
L 279.376591 -274.387119 
L 272.412773 -274.387119 
L 265.448955 -274.387119 
L 258.485136 -274.387119 
L 251.521318 -274.387119 
L 244.5575 -274.387119 
L 237.593682 -274.387119 
L 230.629864 -274.387119 
L 223.666045 -274.387119 
L 216.702227 -274.387119 
L 209.738409 -274.387119 
L 202.774591 -274.387119 
L 195.810773 -274.387119 
L 188.846955 -274.387119 
L 181.883136 -274.387119 
L 174.919318 -274.387119 
L 167.9555 -274.387119 
L 160.991682 -274.387119 
L 154.027864 -274.387119 
L 147.064045 -274.387119 
L 140.100227 -274.387119 
L 133.136409 -274.387119 
L 126.172591 -274.387119 
L 119.208773 -274.387119 
L 112.244955 -274.387119 
L 105.281136 -274.387119 
L 98.317318 -274.387119 
L 91.3535 -274.387119 
L 84.389682 -274.387119 
L 77.425864 -274.387119 
L 70.462045 -274.387119 
z
" style="stroke: #000080; stroke-opacity: 0.2"/>
    </defs>
    <g clip-path="url(#pd91d6e84bf)">
     <use xlink:href="#m95a6aa2c96" x="0" y="325.85" style="fill: #000080; fill-opacity: 0.2; stroke: #000080; stroke-opacity: 0.2"/>
    </g>
   </g>
   <g id="matplotlib.axis_1"/>
   <g id="matplotlib.axis_2"/>
   <g id="line2d_1">
    <path d="M 70.462045 10.134676 
L 77.425864 11.580564 
L 84.389682 12.974793 
L 91.3535 14.308938 
L 98.317318 15.576279 
L 105.281136 16.771669 
L 112.244955 17.891418 
L 119.208773 18.93311 
L 126.172591 19.895379 
L 133.136409 20.777723 
L 140.100227 21.580291 
L 147.064045 22.303741 
L 154.027864 22.949093 
L 160.991682 23.517592 
L 167.9555 24.010634 
L 174.919318 24.429712 
L 181.883136 24.776387 
L 188.846955 25.052227 
L 195.810773 25.258872 
L 202.774591 25.39803 
L 209.738409 25.471492 
L 216.702227 25.481225 
L 223.666045 25.429403 
L 230.629864 25.318439 
L 237.593682 25.151133 
L 244.5575 24.930645 
L 251.521318 24.660612 
L 258.485136 24.345189 
L 265.448955 23.98908 
L 272.412773 23.597543 
L 279.376591 23.17643 
L 286.340409 22.732123 
L 293.304227 22.271496 
L 300.268045 21.801856 
L 307.231864 21.330824 
L 314.195682 20.866235 
L 321.1595 20.415989 
L 328.123318 19.987948 
L 335.087136 19.589735 
L 342.050955 19.22869 
L 349.014773 18.911671 
L 355.978591 18.644986 
L 362.942409 18.434285 
L 369.906227 18.284513 
L 376.870045 18.199805 
L 383.833864 18.183481 
L 390.797682 18.237982 
L 397.7615 18.364859 
L 404.725318 18.564745 
L 411.689136 18.837324 
L 418.652955 19.181353 
" clip-path="url(#pd91d6e84bf)" style="fill: none; stroke: #dc143c; stroke-width: 1.5; stroke-linecap: square"/>
   </g>
   <g id="line2d_2">
    <path d="M 70.462045 24.654305 
L 77.425864 23.208417 
L 84.389682 21.814188 
L 91.3535 20.480043 
L 98.317318 19.212702 
L 105.281136 18.017312 
L 112.244955 16.897563 
L 119.208773 15.855871 
L 126.172591 14.893602 
L 133.136409 14.011258 
L 140.100227 13.20869 
L 147.064045 12.48524 
L 154.027864 11.839888 
L 160.991682 11.271389 
L 167.9555 10.778347 
L 174.919318 10.359269 
L 181.883136 10.012594 
L 188.846955 9.736754 
L 195.810773 9.530109 
L 202.774591 9.390951 
L 209.738409 9.317489 
L 216.702227 9.307756 
L 223.666045 9.359578 
L 230.629864 9.470542 
L 237.593682 9.637848 
L 244.5575 9.858336 
L 251.521318 10.128369 
L 258.485136 10.443792 
L 265.448955 10.799901 
L 272.412773 11.191438 
L 279.376591 11.612551 
L 286.340409 12.056858 
L 293.304227 12.517485 
L 300.268045 12.987125 
L 307.231864 13.458157 
L 314.195682 13.922746 
L 321.1595 14.372992 
L 328.123318 14.801033 
L 335.087136 15.199246 
L 342.050955 15.560291 
L 349.014773 15.87731 
L 355.978591 16.143995 
L 362.942409 16.354696 
L 369.906227 16.504468 
L 376.870045 16.589176 
L 383.833864 16.6055 
L 390.797682 16.550999 
L 397.7615 16.424122 
L 404.725318 16.224236 
L 411.689136 15.951657 
L 418.652955 15.607628 
" clip-path="url(#pd91d6e84bf)" style="fill: none; stroke: #000080; stroke-width: 1.5; stroke-linecap: square"/>
   </g>
  </g>
  <g id="axes_2">
   <g id="patch_3">
    <path d="M 53.0525 165.125319 
L 436.0625 165.125319 
L 436.0625 72.384044 
L 53.0525 72.384044 
z
" style="fill: #ffffff"/>
   </g>
   <g id="PathCollection_1">
    <defs>
     <path id="m06fcc6b44c" d="M 0 0.866025 
C 0.229673 0.866025 0.449969 0.774776 0.612372 0.612372 
C 0.774776 0.449969 0.866025 0.229673 0.866025 0 
C 0.866025 -0.229673 0.774776 -0.449969 0.612372 -0.612372 
C 0.449969 -0.774776 0.229673 -0.866025 0 -0.866025 
C -0.229673 -0.866025 -0.449969 -0.774776 -0.612372 -0.612372 
C -0.774776 -0.449969 -0.866025 -0.229673 -0.866025 0 
C -0.866025 0.229673 -0.774776 0.449969 -0.612372 0.612372 
C -0.449969 0.774776 -0.229673 0.866025 0 0.866025 
z
" style="stroke: #daa520"/>
    </defs>
    <g clip-path="url(#p76ddf96427)">
     <use xlink:href="#m06fcc6b44c" x="339.947333" y="103.877764" style="fill: #daa520; stroke: #daa520"/>
     <use xlink:href="#m06fcc6b44c" x="109.096692" y="160.909806" style="fill: #daa520; stroke: #daa520"/>
     <use xlink:href="#m06fcc6b44c" x="313.456049" y="108.278627" style="fill: #daa520; stroke: #daa520"/>
     <use xlink:href="#m06fcc6b44c" x="252.121389" y="134.3738" style="fill: #daa520; stroke: #daa520"/>
     <use xlink:href="#m06fcc6b44c" x="359.149017" y="92.465489" style="fill: #daa520; stroke: #daa520"/>
     <use xlink:href="#m06fcc6b44c" x="126.005923" y="97.993592" style="fill: #daa520; stroke: #daa520"/>
     <use xlink:href="#m06fcc6b44c" x="202.367344" y="114.282403" style="fill: #daa520; stroke: #daa520"/>
     <use xlink:href="#m06fcc6b44c" x="231.61362" y="78.557897" style="fill: #daa520; stroke: #daa520"/>
     <use xlink:href="#m06fcc6b44c" x="119.764634" y="118.094189" style="fill: #daa520; stroke: #daa520"/>
     <use xlink:href="#m06fcc6b44c" x="356.161427" y="95.791596" style="fill: #daa520; stroke: #daa520"/>
     <use xlink:href="#m06fcc6b44c" x="410.154674" y="120.375945" style="fill: #daa520; stroke: #daa520"/>
     <use xlink:href="#m06fcc6b44c" x="178.396552" y="92.860783" style="fill: #daa520; stroke: #daa520"/>
     <use xlink:href="#m06fcc6b44c" x="204.629668" y="85.410434" style="fill: #daa520; stroke: #daa520"/>
     <use xlink:href="#m06fcc6b44c" x="127.928245" y="105.068297" style="fill: #daa520; stroke: #daa520"/>
     <use xlink:href="#m06fcc6b44c" x="228.187413" y="104.841571" style="fill: #daa520; stroke: #daa520"/>
     <use xlink:href="#m06fcc6b44c" x="339.41265" y="106.2282" style="fill: #daa520; stroke: #daa520"/>
     <use xlink:href="#m06fcc6b44c" x="149.843535" y="96.79284" style="fill: #daa520; stroke: #daa520"/>
     <use xlink:href="#m06fcc6b44c" x="388.073576" y="90.045968" style="fill: #daa520; stroke: #daa520"/>
     <use xlink:href="#m06fcc6b44c" x="223.738912" y="78.606658" style="fill: #daa520; stroke: #daa520"/>
     <use xlink:href="#m06fcc6b44c" x="318.275238" y="111.637901" style="fill: #daa520; stroke: #daa520"/>
     <use xlink:href="#m06fcc6b44c" x="364.492779" y="98.711954" style="fill: #daa520; stroke: #daa520"/>
     <use xlink:href="#m06fcc6b44c" x="203.64796" y="81.53829" style="fill: #daa520; stroke: #daa520"/>
     <use xlink:href="#m06fcc6b44c" x="337.131298" y="95.143388" style="fill: #daa520; stroke: #daa520"/>
     <use xlink:href="#m06fcc6b44c" x="146.293979" y="153.275489" style="fill: #daa520; stroke: #daa520"/>
     <use xlink:href="#m06fcc6b44c" x="102.60083" y="87.259616" style="fill: #daa520; stroke: #daa520"/>
     <use xlink:href="#m06fcc6b44c" x="228.542069" y="83.594019" style="fill: #daa520; stroke: #daa520"/>
     <use xlink:href="#m06fcc6b44c" x="188.386935" y="85.218377" style="fill: #daa520; stroke: #daa520"/>
     <use xlink:href="#m06fcc6b44c" x="301.218942" y="87.908572" style="fill: #daa520; stroke: #daa520"/>
     <use xlink:href="#m06fcc6b44c" x="190.961591" y="126.098321" style="fill: #daa520; stroke: #daa520"/>
     <use xlink:href="#m06fcc6b44c" x="225.523826" y="132.296861" style="fill: #daa520; stroke: #daa520"/>
     <use xlink:href="#m06fcc6b44c" x="409.606776" y="91.374351" style="fill: #daa520; stroke: #daa520"/>
     <use xlink:href="#m06fcc6b44c" x="159.512037" y="124.011974" style="fill: #daa520; stroke: #daa520"/>
     <use xlink:href="#m06fcc6b44c" x="381.559617" y="105.157644" style="fill: #daa520; stroke: #daa520"/>
     <use xlink:href="#m06fcc6b44c" x="114.749017" y="99.049913" style="fill: #daa520; stroke: #daa520"/>
     <use xlink:href="#m06fcc6b44c" x="84.459609" y="76.599556" style="fill: #daa520; stroke: #daa520"/>
     <use xlink:href="#m06fcc6b44c" x="309.143653" y="102.935289" style="fill: #daa520; stroke: #daa520"/>
     <use xlink:href="#m06fcc6b44c" x="79.676115" y="139.065865" style="fill: #daa520; stroke: #daa520"/>
     <use xlink:href="#m06fcc6b44c" x="71.637704" y="98.233299" style="fill: #daa520; stroke: #daa520"/>
     <use xlink:href="#m06fcc6b44c" x="298.973606" y="119.001433" style="fill: #daa520; stroke: #daa520"/>
     <use xlink:href="#m06fcc6b44c" x="250.737656" y="117.145329" style="fill: #daa520; stroke: #daa520"/>
     <use xlink:href="#m06fcc6b44c" x="101.778667" y="89.713375" style="fill: #daa520; stroke: #daa520"/>
     <use xlink:href="#m06fcc6b44c" x="180.606884" y="98.425206" style="fill: #daa520; stroke: #daa520"/>
     <use xlink:href="#m06fcc6b44c" x="324.63793" y="103.397739" style="fill: #daa520; stroke: #daa520"/>
     <use xlink:href="#m06fcc6b44c" x="393.849556" y="88.869534" style="fill: #daa520; stroke: #daa520"/>
     <use xlink:href="#m06fcc6b44c" x="82.930643" y="102.94442" style="fill: #daa520; stroke: #daa520"/>
     <use xlink:href="#m06fcc6b44c" x="249.08837" y="121.121946" style="fill: #daa520; stroke: #daa520"/>
     <use xlink:href="#m06fcc6b44c" x="147.370104" y="100.462936" style="fill: #daa520; stroke: #daa520"/>
     <use xlink:href="#m06fcc6b44c" x="271.943893" y="103.283894" style="fill: #daa520; stroke: #daa520"/>
     <use xlink:href="#m06fcc6b44c" x="312.352285" y="101.303169" style="fill: #daa520; stroke: #daa520"/>
     <use xlink:href="#m06fcc6b44c" x="411.758543" y="114.594202" style="fill: #daa520; stroke: #daa520"/>
     <use xlink:href="#m06fcc6b44c" x="162.662641" y="105.575823" style="fill: #daa520; stroke: #daa520"/>
     <use xlink:href="#m06fcc6b44c" x="202.470909" y="96.61084" style="fill: #daa520; stroke: #daa520"/>
     <use xlink:href="#m06fcc6b44c" x="197.010495" y="138.026522" style="fill: #daa520; stroke: #daa520"/>
     <use xlink:href="#m06fcc6b44c" x="97.643257" y="159.513711" style="fill: #daa520; stroke: #daa520"/>
     <use xlink:href="#m06fcc6b44c" x="345.586295" y="108.635731" style="fill: #daa520; stroke: #daa520"/>
     <use xlink:href="#m06fcc6b44c" x="273.439852" y="84.468109" style="fill: #daa520; stroke: #daa520"/>
     <use xlink:href="#m06fcc6b44c" x="189.359988" y="96.202833" style="fill: #daa520; stroke: #daa520"/>
     <use xlink:href="#m06fcc6b44c" x="411.631683" y="110.623747" style="fill: #daa520; stroke: #daa520"/>
     <use xlink:href="#m06fcc6b44c" x="379.151877" y="99.735133" style="fill: #daa520; stroke: #daa520"/>
     <use xlink:href="#m06fcc6b44c" x="347.773085" y="93.434516" style="fill: #daa520; stroke: #daa520"/>
     <use xlink:href="#m06fcc6b44c" x="250.158654" y="81.072969" style="fill: #daa520; stroke: #daa520"/>
     <use xlink:href="#m06fcc6b44c" x="126.409079" y="159.063158" style="fill: #daa520; stroke: #daa520"/>
     <use xlink:href="#m06fcc6b44c" x="117.673083" y="91.906645" style="fill: #daa520; stroke: #daa520"/>
     <use xlink:href="#m06fcc6b44c" x="147.437452" y="153.190662" style="fill: #daa520; stroke: #daa520"/>
     <use xlink:href="#m06fcc6b44c" x="164.638672" y="102.194271" style="fill: #daa520; stroke: #daa520"/>
     <use xlink:href="#m06fcc6b44c" x="348.323558" y="91.377538" style="fill: #daa520; stroke: #daa520"/>
     <use xlink:href="#m06fcc6b44c" x="354.756553" y="97.012301" style="fill: #daa520; stroke: #daa520"/>
     <use xlink:href="#m06fcc6b44c" x="307.825827" y="103.348984" style="fill: #daa520; stroke: #daa520"/>
     <use xlink:href="#m06fcc6b44c" x="379.205695" y="88.517089" style="fill: #daa520; stroke: #daa520"/>
     <use xlink:href="#m06fcc6b44c" x="78.473962" y="94.674345" style="fill: #daa520; stroke: #daa520"/>
     <use xlink:href="#m06fcc6b44c" x="187.739354" y="109.865158" style="fill: #daa520; stroke: #daa520"/>
     <use xlink:href="#m06fcc6b44c" x="349.104613" y="91.235328" style="fill: #daa520; stroke: #daa520"/>
     <use xlink:href="#m06fcc6b44c" x="372.106467" y="103.916515" style="fill: #daa520; stroke: #daa520"/>
     <use xlink:href="#m06fcc6b44c" x="348.503727" y="108.922699" style="fill: #daa520; stroke: #daa520"/>
     <use xlink:href="#m06fcc6b44c" x="250.903701" y="82.279803" style="fill: #daa520; stroke: #daa520"/>
     <use xlink:href="#m06fcc6b44c" x="392.968829" y="117.08267" style="fill: #daa520; stroke: #daa520"/>
     <use xlink:href="#m06fcc6b44c" x="335.607088" y="105.168557" style="fill: #daa520; stroke: #daa520"/>
     <use xlink:href="#m06fcc6b44c" x="75.845654" y="123.612618" style="fill: #daa520; stroke: #daa520"/>
     <use xlink:href="#m06fcc6b44c" x="101.261144" y="156.516459" style="fill: #daa520; stroke: #daa520"/>
     <use xlink:href="#m06fcc6b44c" x="110.002599" y="153.373076" style="fill: #daa520; stroke: #daa520"/>
     <use xlink:href="#m06fcc6b44c" x="130.870593" y="96.985" style="fill: #daa520; stroke: #daa520"/>
     <use xlink:href="#m06fcc6b44c" x="151.523257" y="138.168758" style="fill: #daa520; stroke: #daa520"/>
     <use xlink:href="#m06fcc6b44c" x="369.629671" y="112.462905" style="fill: #daa520; stroke: #daa520"/>
     <use xlink:href="#m06fcc6b44c" x="133.518035" y="122.188296" style="fill: #daa520; stroke: #daa520"/>
     <use xlink:href="#m06fcc6b44c" x="308.892779" y="93.849062" style="fill: #daa520; stroke: #daa520"/>
     <use xlink:href="#m06fcc6b44c" x="329.279299" y="90.589963" style="fill: #daa520; stroke: #daa520"/>
     <use xlink:href="#m06fcc6b44c" x="151.140542" y="143.930854" style="fill: #daa520; stroke: #daa520"/>
     <use xlink:href="#m06fcc6b44c" x="177.116477" y="108.791381" style="fill: #daa520; stroke: #daa520"/>
     <use xlink:href="#m06fcc6b44c" x="131.437332" y="155.420742" style="fill: #daa520; stroke: #daa520"/>
     <use xlink:href="#m06fcc6b44c" x="71.777665" y="99.580171" style="fill: #daa520; stroke: #daa520"/>
     <use xlink:href="#m06fcc6b44c" x="219.929643" y="97.214919" style="fill: #daa520; stroke: #daa520"/>
     <use xlink:href="#m06fcc6b44c" x="119.218238" y="160.19642" style="fill: #daa520; stroke: #daa520"/>
     <use xlink:href="#m06fcc6b44c" x="83.319203" y="160.483057" style="fill: #daa520; stroke: #daa520"/>
     <use xlink:href="#m06fcc6b44c" x="331.42986" y="106.114743" style="fill: #daa520; stroke: #daa520"/>
     <use xlink:href="#m06fcc6b44c" x="282.739548" y="116.854651" style="fill: #daa520; stroke: #daa520"/>
     <use xlink:href="#m06fcc6b44c" x="312.002477" y="105.125684" style="fill: #daa520; stroke: #daa520"/>
     <use xlink:href="#m06fcc6b44c" x="144.498182" y="101.555679" style="fill: #daa520; stroke: #daa520"/>
     <use xlink:href="#m06fcc6b44c" x="383.268015" y="104.436631" style="fill: #daa520; stroke: #daa520"/>
     <use xlink:href="#m06fcc6b44c" x="357.58694" y="96.40412" style="fill: #daa520; stroke: #daa520"/>
     <use xlink:href="#m06fcc6b44c" x="235.922509" y="132.048226" style="fill: #daa520; stroke: #daa520"/>
     <use xlink:href="#m06fcc6b44c" x="284.443045" y="88.08998" style="fill: #daa520; stroke: #daa520"/>
     <use xlink:href="#m06fcc6b44c" x="81.12198" y="86.552334" style="fill: #daa520; stroke: #daa520"/>
     <use xlink:href="#m06fcc6b44c" x="136.199647" y="114.752746" style="fill: #daa520; stroke: #daa520"/>
     <use xlink:href="#m06fcc6b44c" x="127.587667" y="154.47641" style="fill: #daa520; stroke: #daa520"/>
     <use xlink:href="#m06fcc6b44c" x="338.733984" y="98.257062" style="fill: #daa520; stroke: #daa520"/>
     <use xlink:href="#m06fcc6b44c" x="296.408921" y="88.097796" style="fill: #daa520; stroke: #daa520"/>
     <use xlink:href="#m06fcc6b44c" x="196.443001" y="93.437002" style="fill: #daa520; stroke: #daa520"/>
     <use xlink:href="#m06fcc6b44c" x="287.201601" y="106.266178" style="fill: #daa520; stroke: #daa520"/>
     <use xlink:href="#m06fcc6b44c" x="399.268415" y="113.905172" style="fill: #daa520; stroke: #daa520"/>
    </g>
   </g>
   <g id="matplotlib.axis_3"/>
   <g id="matplotlib.axis_4">
    <g id="ytick_1">
     <g id="line2d_3">
      <defs>
       <path id="m14b7df5923" d="M 0 0 
L -3.5 0 
" style="stroke: #696969; stroke-width: 0.8"/>
      </defs>
      <g>
       <use xlink:href="#m14b7df5923" x="53.0525" y="157.950067" style="fill: #696969; stroke: #696969; stroke-width: 0.8"/>
      </g>
     </g>
     <g id="text_1">
      <!-- −5 -->
      <g style="fill: #696969" transform="translate(22.465 164.028817) scale(0.16 -0.16)">
       <defs>
        <path id="DejaVuSans-2212" d="M 678 2272 
L 4684 2272 
L 4684 1741 
L 678 1741 
L 678 2272 
z
" transform="scale(0.015625)"/>
        <path id="DejaVuSans-35" d="M 691 4666 
L 3169 4666 
L 3169 4134 
L 1269 4134 
L 1269 2991 
Q 1406 3038 1543 3061 
Q 1681 3084 1819 3084 
Q 2600 3084 3056 2656 
Q 3513 2228 3513 1497 
Q 3513 744 3044 326 
Q 2575 -91 1722 -91 
Q 1428 -91 1123 -41 
Q 819 9 494 109 
L 494 744 
Q 775 591 1075 516 
Q 1375 441 1709 441 
Q 2250 441 2565 725 
Q 2881 1009 2881 1497 
Q 2881 1984 2565 2268 
Q 2250 2553 1709 2553 
Q 1456 2553 1204 2497 
Q 953 2441 691 2322 
L 691 4666 
z
" transform="scale(0.015625)"/>
       </defs>
       <use xlink:href="#DejaVuSans-2212"/>
       <use xlink:href="#DejaVuSans-35" x="83.789062"/>
      </g>
     </g>
    </g>
    <g id="ytick_2">
     <g id="line2d_4">
      <g>
       <use xlink:href="#m14b7df5923" x="53.0525" y="110.497886" style="fill: #696969; stroke: #696969; stroke-width: 0.8"/>
      </g>
     </g>
     <g id="text_2">
      <!-- 0 -->
      <g style="fill: #696969" transform="translate(35.8725 116.576636) scale(0.16 -0.16)">
       <defs>
        <path id="DejaVuSans-30" d="M 2034 4250 
Q 1547 4250 1301 3770 
Q 1056 3291 1056 2328 
Q 1056 1369 1301 889 
Q 1547 409 2034 409 
Q 2525 409 2770 889 
Q 3016 1369 3016 2328 
Q 3016 3291 2770 3770 
Q 2525 4250 2034 4250 
z
M 2034 4750 
Q 2819 4750 3233 4129 
Q 3647 3509 3647 2328 
Q 3647 1150 3233 529 
Q 2819 -91 2034 -91 
Q 1250 -91 836 529 
Q 422 1150 422 2328 
Q 422 3509 836 4129 
Q 1250 4750 2034 4750 
z
" transform="scale(0.015625)"/>
       </defs>
       <use xlink:href="#DejaVuSans-30"/>
      </g>
     </g>
    </g>
   </g>
   <g id="line2d_5">
    <path d="M 70.462045 114.615461 
L 77.425864 116.643466 
L 84.389682 118.464413 
L 91.3535 120.016404 
L 98.317318 121.247029 
L 105.281136 122.115997 
L 112.244955 122.597315 
L 119.208773 122.680794 
L 126.172591 122.372804 
L 133.136409 121.696093 
L 140.100227 120.688683 
L 147.064045 119.401825 
L 154.027864 117.897123 
L 160.991682 116.24303 
L 167.9555 114.510892 
L 174.919318 112.770871 
L 181.883136 111.088018 
L 188.846955 109.518757 
L 195.810773 108.108107 
L 202.774591 106.887697 
L 209.738409 105.874855 
L 216.702227 105.072643 
L 223.666045 104.470901 
L 230.629864 104.048094 
L 237.593682 103.773841 
L 244.5575 103.611858 
L 251.521318 103.523076 
L 258.485136 103.46875 
L 265.448955 103.413307 
L 272.412773 103.326783 
L 279.376591 103.186719 
L 286.340409 102.979458 
L 293.304227 102.700781 
L 300.268045 102.355941 
L 307.231864 101.959056 
L 314.195682 101.532026 
L 321.1595 101.102954 
L 328.123318 100.704255 
L 335.087136 100.370516 
L 342.050955 100.136237 
L 349.014773 100.033574 
L 355.978591 100.090224 
L 362.942409 100.327532 
L 369.906227 100.758964 
L 376.870045 101.389017 
L 383.833864 102.212607 
L 390.797682 103.214988 
L 397.7615 104.372171 
L 404.725318 105.651829 
L 411.689136 107.014599 
L 418.652955 108.415693 
" clip-path="url(#p76ddf96427)" style="fill: none; stroke: #000000; stroke-width: 2; stroke-linecap: square"/>
   </g>
   <g id="line2d_6">
    <path d="M 70.462045 108.933876 
L 77.425864 113.13622 
L 84.389682 116.50679 
L 91.3535 119.119789 
L 98.317318 121.046579 
L 105.281136 122.355691 
L 112.244955 123.112818 
L 119.208773 123.380815 
L 126.172591 123.219704 
L 133.136409 122.68667 
L 140.100227 121.836063 
L 147.064045 120.719395 
L 154.027864 119.385344 
L 160.991682 117.879751 
L 167.9555 116.245622 
L 174.919318 114.523126 
L 181.883136 112.749598 
L 188.846955 110.959534 
L 195.810773 109.184597 
L 202.774591 107.453613 
L 209.738409 105.79257 
L 216.702227 104.224625 
L 223.666045 102.770094 
L 230.629864 101.446461 
L 237.593682 100.26837 
L 244.5575 99.247633 
L 251.521318 98.393225 
L 258.485136 97.711283 
L 265.448955 97.20511 
L 272.412773 96.875173 
L 279.376591 96.719103 
L 286.340409 96.731695 
L 293.304227 96.904908 
L 300.268045 97.227864 
L 307.231864 97.686851 
L 314.195682 98.265321 
L 321.1595 98.943887 
L 328.123318 99.70033 
L 335.087136 100.509594 
L 342.050955 101.343785 
L 349.014773 102.172175 
L 355.978591 102.9612 
L 362.942409 103.67446 
L 369.906227 104.272718 
L 376.870045 104.713903 
L 383.833864 104.953107 
L 390.797682 104.942585 
L 397.7615 104.631758 
L 404.725318 103.96721 
L 411.689136 102.892689 
L 418.652955 101.349108 
" clip-path="url(#p76ddf96427)" style="fill: none; stroke-dasharray: 7.4,3.2; stroke-dashoffset: 0; stroke: #34b6c6; stroke-width: 2"/>
   </g>
   <g id="line2d_7">
    <path d="M 70.462045 108.436035 
L 77.425864 111.966675 
L 84.389682 115.25483 
L 91.3535 118.22293 
L 98.317318 120.799609 
L 105.281136 122.91574 
L 112.244955 124.494919 
L 119.208773 125.446758 
L 126.172591 125.680684 
L 133.136409 125.158143 
L 140.100227 123.961135 
L 147.064045 122.288112 
L 154.027864 120.32958 
L 160.991682 118.147594 
L 167.9555 115.705138 
L 174.919318 113.008812 
L 181.883136 110.212931 
L 188.846955 107.581515 
L 195.810773 105.351267 
L 202.774591 103.632547 
L 209.738409 102.411942 
L 216.702227 101.608972 
L 223.666045 101.12707 
L 230.629864 100.879762 
L 237.593682 100.798239 
L 244.5575 100.830036 
L 251.521318 100.934709 
L 258.485136 101.079035 
L 265.448955 101.232459 
L 272.412773 101.362982 
L 279.376591 101.433905 
L 286.340409 101.402911 
L 293.304227 101.226761 
L 300.268045 100.87584 
L 307.231864 100.35867 
L 314.195682 99.743267 
L 321.1595 99.150546 
L 328.123318 98.711172 
L 335.087136 98.516157 
L 342.050955 98.599085 
L 349.014773 98.951487 
L 355.978591 99.54639 
L 362.942409 100.351854 
L 369.906227 101.332414 
L 376.870045 102.44414 
L 383.833864 103.629801 
L 390.797682 104.818671 
L 397.7615 105.932464 
L 404.725318 106.895404 
L 411.689136 107.644194 
L 418.652955 108.134052 
" clip-path="url(#p76ddf96427)" style="fill: none; stroke-dasharray: 7.4,3.2; stroke-dashoffset: 0; stroke: #9370db; stroke-width: 2"/>
   </g>
   <g id="line2d_8">
    <path d="M 70.462045 116.9325 
L 77.425864 118.247941 
L 84.389682 119.48222 
L 91.3535 120.584108 
L 98.317318 121.506289 
L 105.281136 122.202998 
L 112.244955 122.62435 
L 119.208773 122.712345 
L 126.172591 122.409088 
L 133.136409 121.687904 
L 140.100227 120.594182 
L 147.064045 119.24293 
L 154.027864 117.744639 
L 160.991682 116.133462 
L 167.9555 114.384725 
L 174.919318 112.499967 
L 181.883136 110.568977 
L 188.846955 108.747143 
L 195.810773 107.17379 
L 202.774591 105.913162 
L 209.738409 104.955956 
L 216.702227 104.253113 
L 223.666045 103.746206 
L 230.629864 103.38304 
L 237.593682 103.122163 
L 244.5575 102.932084 
L 251.521318 102.78869 
L 258.485136 102.67239 
L 265.448955 102.565401 
L 272.412773 102.449295 
L 279.376591 102.303061 
L 286.340409 102.102556 
L 293.304227 101.823306 
L 300.268045 101.449172 
L 307.231864 100.986961 
L 314.195682 100.479155 
L 321.1595 99.999981 
L 328.123318 99.62969 
L 335.087136 99.42512 
L 342.050955 99.4091 
L 349.014773 99.579616 
L 355.978591 99.923838 
L 362.942409 100.426198 
L 369.906227 101.06924 
L 376.870045 101.830683 
L 383.833864 102.680535 
L 390.797682 103.580979 
L 397.7615 104.489908 
L 404.725318 105.366929 
L 411.689136 106.179304 
L 418.652955 106.905545 
" clip-path="url(#p76ddf96427)" style="fill: none; stroke-dasharray: 12.8,3.2,2,3.2; stroke-dashoffset: 0; stroke: #ff0000; stroke-width: 2"/>
   </g>
   <g id="patch_4">
    <path d="M 53.0525 165.125319 
L 53.0525 72.384044 
" style="fill: none; stroke: #000000; stroke-width: 0.8; stroke-linejoin: miter; stroke-linecap: square"/>
   </g>
   <g id="patch_5">
    <path d="M 436.0625 165.125319 
L 436.0625 72.384044 
" style="fill: none; stroke: #000000; stroke-width: 0.8; stroke-linejoin: miter; stroke-linecap: square"/>
   </g>
   <g id="patch_6">
    <path d="M 53.0525 165.125319 
L 436.0625 165.125319 
" style="fill: none; stroke: #000000; stroke-width: 0.8; stroke-linejoin: miter; stroke-linecap: square"/>
   </g>
   <g id="patch_7">
    <path d="M 53.0525 72.384044 
L 436.0625 72.384044 
" style="fill: none; stroke: #000000; stroke-width: 0.8; stroke-linejoin: miter; stroke-linecap: square"/>
   </g>
  </g>
  <g id="axes_3">
   <g id="patch_8">
    <path d="M 53.0525 276.68 
L 436.0625 276.68 
L 436.0625 183.938725 
L 53.0525 183.938725 
z
" style="fill: #ffffff"/>
   </g>
   <g id="PathCollection_2">
    <g clip-path="url(#pa2c4dc5cd7)">
     <use xlink:href="#m06fcc6b44c" x="339.947333" y="224.955052" style="fill: #daa520; stroke: #daa520"/>
     <use xlink:href="#m06fcc6b44c" x="109.096692" y="190.906707" style="fill: #daa520; stroke: #daa520"/>
     <use xlink:href="#m06fcc6b44c" x="313.456049" y="221.684502" style="fill: #daa520; stroke: #daa520"/>
     <use xlink:href="#m06fcc6b44c" x="252.121389" y="197.768014" style="fill: #daa520; stroke: #daa520"/>
     <use xlink:href="#m06fcc6b44c" x="359.149017" y="237.141003" style="fill: #daa520; stroke: #daa520"/>
     <use xlink:href="#m06fcc6b44c" x="126.005923" y="253.946578" style="fill: #daa520; stroke: #daa520"/>
     <use xlink:href="#m06fcc6b44c" x="202.367344" y="221.124164" style="fill: #daa520; stroke: #daa520"/>
     <use xlink:href="#m06fcc6b44c" x="231.61362" y="254.302824" style="fill: #daa520; stroke: #daa520"/>
     <use xlink:href="#m06fcc6b44c" x="119.764634" y="234.073093" style="fill: #daa520; stroke: #daa520"/>
     <use xlink:href="#m06fcc6b44c" x="356.161427" y="233.606302" style="fill: #daa520; stroke: #daa520"/>
     <use xlink:href="#m06fcc6b44c" x="410.154674" y="215.042799" style="fill: #daa520; stroke: #daa520"/>
     <use xlink:href="#m06fcc6b44c" x="178.396552" y="248.174744" style="fill: #daa520; stroke: #daa520"/>
     <use xlink:href="#m06fcc6b44c" x="204.629668" y="249.726996" style="fill: #daa520; stroke: #daa520"/>
     <use xlink:href="#m06fcc6b44c" x="127.928245" y="246.697005" style="fill: #daa520; stroke: #daa520"/>
     <use xlink:href="#m06fcc6b44c" x="228.187413" y="228.102942" style="fill: #daa520; stroke: #daa520"/>
     <use xlink:href="#m06fcc6b44c" x="339.41265" y="222.596992" style="fill: #daa520; stroke: #daa520"/>
     <use xlink:href="#m06fcc6b44c" x="149.843535" y="251.377627" style="fill: #daa520; stroke: #daa520"/>
     <use xlink:href="#m06fcc6b44c" x="388.073576" y="242.667225" style="fill: #daa520; stroke: #daa520"/>
     <use xlink:href="#m06fcc6b44c" x="223.738912" y="254.655976" style="fill: #daa520; stroke: #daa520"/>
     <use xlink:href="#m06fcc6b44c" x="318.275238" y="217.971352" style="fill: #daa520; stroke: #daa520"/>
     <use xlink:href="#m06fcc6b44c" x="364.492779" y="231.302381" style="fill: #daa520; stroke: #daa520"/>
     <use xlink:href="#m06fcc6b44c" x="203.64796" y="253.757372" style="fill: #daa520; stroke: #daa520"/>
     <use xlink:href="#m06fcc6b44c" x="337.131298" y="233.720363" style="fill: #daa520; stroke: #daa520"/>
     <use xlink:href="#m06fcc6b44c" x="146.293979" y="195.48324" style="fill: #daa520; stroke: #daa520"/>
     <use xlink:href="#m06fcc6b44c" x="102.60083" y="264.252294" style="fill: #daa520; stroke: #daa520"/>
     <use xlink:href="#m06fcc6b44c" x="228.542069" y="249.391858" style="fill: #daa520; stroke: #daa520"/>
     <use xlink:href="#m06fcc6b44c" x="188.386935" y="253.159402" style="fill: #daa520; stroke: #daa520"/>
     <use xlink:href="#m06fcc6b44c" x="301.218942" y="242.970787" style="fill: #daa520; stroke: #daa520"/>
     <use xlink:href="#m06fcc6b44c" x="190.961591" y="211.54211" style="fill: #daa520; stroke: #daa520"/>
     <use xlink:href="#m06fcc6b44c" x="225.523826" y="200.712389" style="fill: #daa520; stroke: #daa520"/>
     <use xlink:href="#m06fcc6b44c" x="409.606776" y="244.061983" style="fill: #daa520; stroke: #daa520"/>
     <use xlink:href="#m06fcc6b44c" x="159.512037" y="221.904801" style="fill: #daa520; stroke: #daa520"/>
     <use xlink:href="#m06fcc6b44c" x="381.559617" y="226.681526" style="fill: #daa520; stroke: #daa520"/>
     <use xlink:href="#m06fcc6b44c" x="114.749017" y="253.164462" style="fill: #daa520; stroke: #daa520"/>
     <use xlink:href="#m06fcc6b44c" x="84.459609" y="272.464487" style="fill: #daa520; stroke: #daa520"/>
     <use xlink:href="#m06fcc6b44c" x="309.143653" y="227.359686" style="fill: #daa520; stroke: #daa520"/>
     <use xlink:href="#m06fcc6b44c" x="79.676115" y="208.98724" style="fill: #daa520; stroke: #daa520"/>
     <use xlink:href="#m06fcc6b44c" x="71.637704" y="248.4284" style="fill: #daa520; stroke: #daa520"/>
     <use xlink:href="#m06fcc6b44c" x="298.973606" y="211.927601" style="fill: #daa520; stroke: #daa520"/>
     <use xlink:href="#m06fcc6b44c" x="250.737656" y="215.06949" style="fill: #daa520; stroke: #daa520"/>
     <use xlink:href="#m06fcc6b44c" x="101.778667" y="261.710687" style="fill: #daa520; stroke: #daa520"/>
     <use xlink:href="#m06fcc6b44c" x="180.606884" y="241.980304" style="fill: #daa520; stroke: #daa520"/>
     <use xlink:href="#m06fcc6b44c" x="324.63793" y="225.840721" style="fill: #daa520; stroke: #daa520"/>
     <use xlink:href="#m06fcc6b44c" x="393.849556" y="244.604394" style="fill: #daa520; stroke: #daa520"/>
     <use xlink:href="#m06fcc6b44c" x="82.930643" y="245.784926" style="fill: #daa520; stroke: #daa520"/>
     <use xlink:href="#m06fcc6b44c" x="249.08837" y="211.113594" style="fill: #daa520; stroke: #daa520"/>
     <use xlink:href="#m06fcc6b44c" x="147.370104" y="248.219794" style="fill: #daa520; stroke: #daa520"/>
     <use xlink:href="#m06fcc6b44c" x="271.943893" y="228.622985" style="fill: #daa520; stroke: #daa520"/>
     <use xlink:href="#m06fcc6b44c" x="312.352285" y="228.760495" style="fill: #daa520; stroke: #daa520"/>
     <use xlink:href="#m06fcc6b44c" x="411.758543" y="221.020892" style="fill: #daa520; stroke: #daa520"/>
     <use xlink:href="#m06fcc6b44c" x="162.662641" y="239.631081" style="fill: #daa520; stroke: #daa520"/>
     <use xlink:href="#m06fcc6b44c" x="202.470909" y="238.827932" style="fill: #daa520; stroke: #daa520"/>
     <use xlink:href="#m06fcc6b44c" x="197.010495" y="198.272616" style="fill: #daa520; stroke: #daa520"/>
     <use xlink:href="#m06fcc6b44c" x="97.643257" y="191.258426" style="fill: #daa520; stroke: #daa520"/>
     <use xlink:href="#m06fcc6b44c" x="345.586295" y="220.263323" style="fill: #daa520; stroke: #daa520"/>
     <use xlink:href="#m06fcc6b44c" x="273.439852" y="247.463108" style="fill: #daa520; stroke: #daa520"/>
     <use xlink:href="#m06fcc6b44c" x="189.359988" y="241.904342" style="fill: #daa520; stroke: #daa520"/>
     <use xlink:href="#m06fcc6b44c" x="411.631683" y="224.988232" style="fill: #daa520; stroke: #daa520"/>
     <use xlink:href="#m06fcc6b44c" x="379.151877" y="231.823888" style="fill: #daa520; stroke: #daa520"/>
     <use xlink:href="#m06fcc6b44c" x="347.773085" y="235.569779" style="fill: #daa520; stroke: #daa520"/>
     <use xlink:href="#m06fcc6b44c" x="250.158654" y="251.252576" style="fill: #daa520; stroke: #daa520"/>
     <use xlink:href="#m06fcc6b44c" x="126.409079" y="192.678189" style="fill: #daa520; stroke: #daa520"/>
     <use xlink:href="#m06fcc6b44c" x="117.673083" y="260.354699" style="fill: #daa520; stroke: #daa520"/>
     <use xlink:href="#m06fcc6b44c" x="147.437452" y="195.332195" style="fill: #daa520; stroke: #daa520"/>
     <use xlink:href="#m06fcc6b44c" x="164.638672" y="242.529546" style="fill: #daa520; stroke: #daa520"/>
     <use xlink:href="#m06fcc6b44c" x="348.323558" y="237.651121" style="fill: #daa520; stroke: #daa520"/>
     <use xlink:href="#m06fcc6b44c" x="354.756553" y="232.298449" style="fill: #daa520; stroke: #daa520"/>
     <use xlink:href="#m06fcc6b44c" x="307.825827" y="227.04027" style="fill: #daa520; stroke: #daa520"/>
     <use xlink:href="#m06fcc6b44c" x="379.205695" y="243.079467" style="fill: #daa520; stroke: #daa520"/>
     <use xlink:href="#m06fcc6b44c" x="78.473962" y="253.282951" style="fill: #daa520; stroke: #daa520"/>
     <use xlink:href="#m06fcc6b44c" x="187.739354" y="228.607019" style="fill: #daa520; stroke: #daa520"/>
     <use xlink:href="#m06fcc6b44c" x="349.104613" y="237.822105" style="fill: #daa520; stroke: #daa520"/>
     <use xlink:href="#m06fcc6b44c" x="372.106467" y="226.825878" style="fill: #daa520; stroke: #daa520"/>
     <use xlink:href="#m06fcc6b44c" x="348.503727" y="220.063777" style="fill: #daa520; stroke: #daa520"/>
     <use xlink:href="#m06fcc6b44c" x="250.903701" y="250.028366" style="fill: #daa520; stroke: #daa520"/>
     <use xlink:href="#m06fcc6b44c" x="392.968829" y="216.197564" style="fill: #daa520; stroke: #daa520"/>
     <use xlink:href="#m06fcc6b44c" x="335.607088" y="223.684217" style="fill: #daa520; stroke: #daa520"/>
     <use xlink:href="#m06fcc6b44c" x="75.845654" y="223.777747" style="fill: #daa520; stroke: #daa520"/>
     <use xlink:href="#m06fcc6b44c" x="101.261144" y="194.669991" style="fill: #daa520; stroke: #daa520"/>
     <use xlink:href="#m06fcc6b44c" x="110.002599" y="198.515056" style="fill: #daa520; stroke: #daa520"/>
     <use xlink:href="#m06fcc6b44c" x="130.870593" y="254.502875" style="fill: #daa520; stroke: #daa520"/>
     <use xlink:href="#m06fcc6b44c" x="151.523257" y="209.524023" style="fill: #daa520; stroke: #daa520"/>
     <use xlink:href="#m06fcc6b44c" x="369.629671" y="217.998132" style="fill: #daa520; stroke: #daa520"/>
     <use xlink:href="#m06fcc6b44c" x="133.518035" y="228.898335" style="fill: #daa520; stroke: #daa520"/>
     <use xlink:href="#m06fcc6b44c" x="308.892779" y="236.489313" style="fill: #daa520; stroke: #daa520"/>
     <use xlink:href="#m06fcc6b44c" x="329.279299" y="238.469513" style="fill: #daa520; stroke: #daa520"/>
     <use xlink:href="#m06fcc6b44c" x="151.140542" y="203.829311" style="fill: #daa520; stroke: #daa520"/>
     <use xlink:href="#m06fcc6b44c" x="177.116477" y="232.557546" style="fill: #daa520; stroke: #daa520"/>
     <use xlink:href="#m06fcc6b44c" x="131.437332" y="195.839306" style="fill: #daa520; stroke: #daa520"/>
     <use xlink:href="#m06fcc6b44c" x="71.777665" y="247.104656" style="fill: #daa520; stroke: #daa520"/>
     <use xlink:href="#m06fcc6b44c" x="219.929643" y="236.252425" style="fill: #daa520; stroke: #daa520"/>
     <use xlink:href="#m06fcc6b44c" x="119.218238" y="191.863455" style="fill: #daa520; stroke: #daa520"/>
     <use xlink:href="#m06fcc6b44c" x="83.319203" y="188.154237" style="fill: #daa520; stroke: #daa520"/>
     <use xlink:href="#m06fcc6b44c" x="331.42986" y="222.828085" style="fill: #daa520; stroke: #daa520"/>
     <use xlink:href="#m06fcc6b44c" x="282.739548" y="214.770787" style="fill: #daa520; stroke: #daa520"/>
     <use xlink:href="#m06fcc6b44c" x="312.002477" y="224.953199" style="fill: #daa520; stroke: #daa520"/>
     <use xlink:href="#m06fcc6b44c" x="144.498182" y="247.708613" style="fill: #daa520; stroke: #daa520"/>
     <use xlink:href="#m06fcc6b44c" x="383.268015" y="227.618713" style="fill: #daa520; stroke: #daa520"/>
     <use xlink:href="#m06fcc6b44c" x="357.58694" y="233.083668" style="fill: #daa520; stroke: #daa520"/>
     <use xlink:href="#m06fcc6b44c" x="235.922509" y="200.500534" style="fill: #daa520; stroke: #daa520"/>
     <use xlink:href="#m06fcc6b44c" x="284.443045" y="243.564327" style="fill: #daa520; stroke: #daa520"/>
     <use xlink:href="#m06fcc6b44c" x="81.12198" y="261.905051" style="fill: #daa520; stroke: #daa520"/>
     <use xlink:href="#m06fcc6b44c" x="136.199647" y="235.963521" style="fill: #daa520; stroke: #daa520"/>
     <use xlink:href="#m06fcc6b44c" x="127.587667" y="197.182085" style="fill: #daa520; stroke: #daa520"/>
     <use xlink:href="#m06fcc6b44c" x="338.733984" y="230.59038" style="fill: #daa520; stroke: #daa520"/>
     <use xlink:href="#m06fcc6b44c" x="296.408921" y="243.059641" style="fill: #daa520; stroke: #daa520"/>
     <use xlink:href="#m06fcc6b44c" x="196.443001" y="243.098134" style="fill: #daa520; stroke: #daa520"/>
     <use xlink:href="#m06fcc6b44c" x="287.201601" y="225.246326" style="fill: #daa520; stroke: #daa520"/>
     <use xlink:href="#m06fcc6b44c" x="399.268415" y="220.204348" style="fill: #daa520; stroke: #daa520"/>
    </g>
   </g>
   <g id="matplotlib.axis_5">
    <g id="xtick_1">
     <g id="line2d_9">
      <defs>
       <path id="mc69185b716" d="M 0 0 
L 0 3.5 
" style="stroke: #696969; stroke-width: 0.8"/>
      </defs>
      <g>
       <use xlink:href="#mc69185b716" x="70.462045" y="276.68" style="fill: #696969; stroke: #696969; stroke-width: 0.8"/>
      </g>
     </g>
     <g id="text_3">
      <!-- −1.0 -->
      <g style="fill: #696969" transform="translate(51.035795 295.8375) scale(0.16 -0.16)">
       <defs>
        <path id="DejaVuSans-31" d="M 794 531 
L 1825 531 
L 1825 4091 
L 703 3866 
L 703 4441 
L 1819 4666 
L 2450 4666 
L 2450 531 
L 3481 531 
L 3481 0 
L 794 0 
L 794 531 
z
" transform="scale(0.015625)"/>
        <path id="DejaVuSans-2e" d="M 684 794 
L 1344 794 
L 1344 0 
L 684 0 
L 684 794 
z
" transform="scale(0.015625)"/>
       </defs>
       <use xlink:href="#DejaVuSans-2212"/>
       <use xlink:href="#DejaVuSans-31" x="83.789062"/>
       <use xlink:href="#DejaVuSans-2e" x="147.412109"/>
       <use xlink:href="#DejaVuSans-30" x="179.199219"/>
      </g>
     </g>
    </g>
    <g id="xtick_2">
     <g id="line2d_10">
      <g>
       <use xlink:href="#mc69185b716" x="157.509773" y="276.68" style="fill: #696969; stroke: #696969; stroke-width: 0.8"/>
      </g>
     </g>
     <g id="text_4">
      <!-- −0.5 -->
      <g style="fill: #696969" transform="translate(138.083523 295.8375) scale(0.16 -0.16)">
       <use xlink:href="#DejaVuSans-2212"/>
       <use xlink:href="#DejaVuSans-30" x="83.789062"/>
       <use xlink:href="#DejaVuSans-2e" x="147.412109"/>
       <use xlink:href="#DejaVuSans-35" x="179.199219"/>
      </g>
     </g>
    </g>
    <g id="xtick_3">
     <g id="line2d_11">
      <g>
       <use xlink:href="#mc69185b716" x="244.5575" y="276.68" style="fill: #696969; stroke: #696969; stroke-width: 0.8"/>
      </g>
     </g>
     <g id="text_5">
      <!-- 0.0 -->
      <g style="fill: #696969" transform="translate(231.835 295.8375) scale(0.16 -0.16)">
       <use xlink:href="#DejaVuSans-30"/>
       <use xlink:href="#DejaVuSans-2e" x="63.623047"/>
       <use xlink:href="#DejaVuSans-30" x="95.410156"/>
      </g>
     </g>
    </g>
    <g id="xtick_4">
     <g id="line2d_12">
      <g>
       <use xlink:href="#mc69185b716" x="331.605227" y="276.68" style="fill: #696969; stroke: #696969; stroke-width: 0.8"/>
      </g>
     </g>
     <g id="text_6">
      <!-- 0.5 -->
      <g style="fill: #696969" transform="translate(318.882727 295.8375) scale(0.16 -0.16)">
       <use xlink:href="#DejaVuSans-30"/>
       <use xlink:href="#DejaVuSans-2e" x="63.623047"/>
       <use xlink:href="#DejaVuSans-35" x="95.410156"/>
      </g>
     </g>
    </g>
    <g id="xtick_5">
     <g id="line2d_13">
      <g>
       <use xlink:href="#mc69185b716" x="418.652955" y="276.68" style="fill: #696969; stroke: #696969; stroke-width: 0.8"/>
      </g>
     </g>
     <g id="text_7">
      <!-- 1.0 -->
      <g style="fill: #696969" transform="translate(405.930455 295.8375) scale(0.16 -0.16)">
       <use xlink:href="#DejaVuSans-31"/>
       <use xlink:href="#DejaVuSans-2e" x="63.623047"/>
       <use xlink:href="#DejaVuSans-30" x="95.410156"/>
      </g>
     </g>
    </g>
    <g id="text_8">
     <!-- $X$ -->
     <g transform="translate(239.0375 315.3225) scale(0.16 -0.16)">
      <defs>
       <path id="DejaVuSans-Oblique-58" d="M 878 4666 
L 1516 4666 
L 2316 2981 
L 3763 4666 
L 4500 4666 
L 2578 2438 
L 3738 0 
L 3103 0 
L 2163 1966 
L 459 0 
L -275 0 
L 1906 2509 
L 878 4666 
z
" transform="scale(0.015625)"/>
      </defs>
      <use xlink:href="#DejaVuSans-Oblique-58" transform="translate(0 0.09375)"/>
     </g>
    </g>
   </g>
   <g id="matplotlib.axis_6">
    <g id="ytick_3">
     <g id="line2d_14">
      <g>
       <use xlink:href="#m14b7df5923" x="53.0525" y="253.243082" style="fill: #696969; stroke: #696969; stroke-width: 0.8"/>
      </g>
     </g>
     <g id="text_9">
      <!-- −2.5 -->
      <g style="fill: #696969" transform="translate(7.2 259.321832) scale(0.16 -0.16)">
       <defs>
        <path id="DejaVuSans-32" d="M 1228 531 
L 3431 531 
L 3431 0 
L 469 0 
L 469 531 
Q 828 903 1448 1529 
Q 2069 2156 2228 2338 
Q 2531 2678 2651 2914 
Q 2772 3150 2772 3378 
Q 2772 3750 2511 3984 
Q 2250 4219 1831 4219 
Q 1534 4219 1204 4116 
Q 875 4013 500 3803 
L 500 4441 
Q 881 4594 1212 4672 
Q 1544 4750 1819 4750 
Q 2544 4750 2975 4387 
Q 3406 4025 3406 3419 
Q 3406 3131 3298 2873 
Q 3191 2616 2906 2266 
Q 2828 2175 2409 1742 
Q 1991 1309 1228 531 
z
" transform="scale(0.015625)"/>
       </defs>
       <use xlink:href="#DejaVuSans-2212"/>
       <use xlink:href="#DejaVuSans-32" x="83.789062"/>
       <use xlink:href="#DejaVuSans-2e" x="147.412109"/>
       <use xlink:href="#DejaVuSans-35" x="179.199219"/>
      </g>
     </g>
    </g>
    <g id="ytick_4">
     <g id="line2d_15">
      <g>
       <use xlink:href="#m14b7df5923" x="53.0525" y="229.451358" style="fill: #696969; stroke: #696969; stroke-width: 0.8"/>
      </g>
     </g>
     <g id="text_10">
      <!-- 0.0 -->
      <g style="fill: #696969" transform="translate(20.6075 235.530108) scale(0.16 -0.16)">
       <use xlink:href="#DejaVuSans-30"/>
       <use xlink:href="#DejaVuSans-2e" x="63.623047"/>
       <use xlink:href="#DejaVuSans-30" x="95.410156"/>
      </g>
     </g>
    </g>
    <g id="ytick_5">
     <g id="line2d_16">
      <g>
       <use xlink:href="#m14b7df5923" x="53.0525" y="205.659634" style="fill: #696969; stroke: #696969; stroke-width: 0.8"/>
      </g>
     </g>
     <g id="text_11">
      <!-- 2.5 -->
      <g style="fill: #696969" transform="translate(20.6075 211.738384) scale(0.16 -0.16)">
       <use xlink:href="#DejaVuSans-32"/>
       <use xlink:href="#DejaVuSans-2e" x="63.623047"/>
       <use xlink:href="#DejaVuSans-35" x="95.410156"/>
      </g>
     </g>
    </g>
   </g>
   <g id="line2d_17">
    <path d="M 70.462045 231.774808 
L 77.425864 231.060272 
L 84.389682 230.471982 
L 91.3535 230.020633 
L 98.317318 229.711336 
L 105.281136 229.5386 
L 112.244955 229.478468 
L 119.208773 229.482997 
L 126.172591 229.487743 
L 133.136409 229.443147 
L 140.100227 229.356596 
L 147.064045 229.292024 
L 154.027864 229.298453 
L 160.991682 229.341487 
L 167.9555 229.324842 
L 174.919318 229.179706 
L 181.883136 228.930882 
L 188.846955 228.67761 
L 195.810773 228.514457 
L 202.774591 228.474127 
L 209.738409 228.529917 
L 216.702227 228.629561 
L 223.666045 228.724658 
L 230.629864 228.784464 
L 237.593682 228.797877 
L 244.5575 228.769703 
L 251.521318 228.714941 
L 258.485136 228.652795 
L 265.448955 228.601107 
L 272.412773 228.571443 
L 279.376591 228.565255 
L 286.340409 228.572031 
L 293.304227 228.571456 
L 300.268045 228.542081 
L 307.231864 228.476574 
L 314.195682 228.395576 
L 321.1595 228.345333 
L 328.123318 228.37382 
L 335.087136 228.503347 
L 342.050955 228.72221 
L 349.014773 228.996144 
L 355.978591 229.284512 
L 362.942409 229.550297 
L 369.906227 229.762493 
L 376.870045 229.894247 
L 383.833864 229.920581 
L 390.797682 229.818362 
L 397.7615 229.569421 
L 404.725318 229.16567 
L 411.689136 228.613752 
L 418.652955 227.937033 
" clip-path="url(#pa2c4dc5cd7)" style="fill: none; stroke: #696969; stroke-width: 2; stroke-linecap: square"/>
   </g>
   <g id="line2d_18">
    <path d="M 70.462045 234.376138 
L 77.425864 233.236502 
L 84.389682 232.257921 
L 91.3535 231.42741 
L 98.317318 230.732458 
L 105.281136 230.16103 
L 112.244955 229.701561 
L 119.208773 229.342963 
L 126.172591 229.074619 
L 133.136409 228.886387 
L 140.100227 228.768597 
L 147.064045 228.712055 
L 154.027864 228.708039 
L 160.991682 228.7483 
L 167.9555 228.825064 
L 174.919318 228.93103 
L 181.883136 229.05937 
L 188.846955 229.20373 
L 195.810773 229.35823 
L 202.774591 229.517463 
L 209.738409 229.676496 
L 216.702227 229.830869 
L 223.666045 229.976596 
L 230.629864 230.110165 
L 237.593682 230.228536 
L 244.5575 230.329144 
L 251.521318 230.409898 
L 258.485136 230.469178 
L 265.448955 230.505841 
L 272.412773 230.519215 
L 279.376591 230.509103 
L 286.340409 230.47578 
L 293.304227 230.419996 
L 300.268045 230.342974 
L 307.231864 230.246412 
L 314.195682 230.132478 
L 321.1595 230.003818 
L 328.123318 229.863548 
L 335.087136 229.715259 
L 342.050955 229.563016 
L 349.014773 229.411358 
L 355.978591 229.265295 
L 362.942409 229.130313 
L 369.906227 229.01237 
L 376.870045 228.9179 
L 383.833864 228.853807 
L 390.797682 228.827473 
L 397.7615 228.846748 
L 404.725318 228.919961 
L 411.689136 229.055912 
L 418.652955 229.263873 
" clip-path="url(#pa2c4dc5cd7)" style="fill: none; stroke-dasharray: 7.4,3.2; stroke-dashoffset: 0; stroke: #79ad41; stroke-width: 2"/>
   </g>
   <g id="patch_9">
    <path d="M 53.0525 276.68 
L 53.0525 183.938725 
" style="fill: none; stroke: #000000; stroke-width: 0.8; stroke-linejoin: miter; stroke-linecap: square"/>
   </g>
   <g id="patch_10">
    <path d="M 436.0625 276.68 
L 436.0625 183.938725 
" style="fill: none; stroke: #000000; stroke-width: 0.8; stroke-linejoin: miter; stroke-linecap: square"/>
   </g>
   <g id="patch_11">
    <path d="M 53.0525 276.68 
L 436.0625 276.68 
" style="fill: none; stroke: #000000; stroke-width: 0.8; stroke-linejoin: miter; stroke-linecap: square"/>
   </g>
   <g id="patch_12">
    <path d="M 53.0525 183.938725 
L 436.0625 183.938725 
" style="fill: none; stroke: #000000; stroke-width: 0.8; stroke-linejoin: miter; stroke-linecap: square"/>
   </g>
  </g>
 </g>
 <defs>
  <clipPath id="pd91d6e84bf">
   <rect x="53.0525" y="7.2" width="383.01" height="46.370638"/>
  </clipPath>
  <clipPath id="p76ddf96427">
   <rect x="53.0525" y="72.384044" width="383.01" height="92.741275"/>
  </clipPath>
  <clipPath id="pa2c4dc5cd7">
   <rect x="53.0525" y="183.938725" width="383.01" height="92.741275"/>
  </clipPath>
 </defs>
</svg>
