<?xml version="1.0" encoding="utf-8" standalone="no"?>
<!DOCTYPE svg PUBLIC "-//W3C//DTD SVG 1.1//EN"
  "http://www.w3.org/Graphics/SVG/1.1/DTD/svg11.dtd">
<svg xmlns:xlink="http://www.w3.org/1999/xlink" width="443.2075pt" height="325.85pt" viewBox="0 0 443.2075 325.85" xmlns="http://www.w3.org/2000/svg" version="1.1">
 <metadata>
  <rdf:RDF xmlns:dc="http://purl.org/dc/elements/1.1/" xmlns:cc="http://creativecommons.org/ns#" xmlns:rdf="http://www.w3.org/1999/02/22-rdf-syntax-ns#">
   <cc:Work>
    <dc:type rdf:resource="http://purl.org/dc/dcmitype/StillImage"/>
    <dc:date>2024-01-28T20:54:37.035540</dc:date>
    <dc:format>image/svg+xml</dc:format>
    <dc:creator>
     <cc:Agent>
      <dc:title>Matplotlib v3.7.2, https://matplotlib.org/</dc:title>
     </cc:Agent>
    </dc:creator>
   </cc:Work>
  </rdf:RDF>
 </metadata>
 <defs>
  <style type="text/css">*{stroke-linejoin: round; stroke-linecap: butt}</style>
 </defs>
 <g id="figure_1">
  <g id="patch_1">
   <path d="M 0 325.85 
L 443.2075 325.85 
L 443.2075 0 
L 0 0 
z
" style="fill: #ffffff"/>
  </g>
  <g id="axes_1">
   <g id="patch_2">
    <path d="M 37.7875 54.696 
L 436.0075 54.696 
L 436.0075 7.2 
L 37.7875 7.2 
z
" style="fill: #ffffff"/>
   </g>
   <g id="PolyCollection_1">
    <defs>
     <path id="m37ff19ea36" d="M 55.888409 -273.312909 
L 55.888409 -311.503243 
L 63.128773 -310.85875 
L 70.369136 -310.135492 
L 77.6095 -309.328427 
L 84.849864 -308.433033 
L 92.090227 -307.445672 
L 99.330591 -306.364094 
L 106.570955 -305.187958 
L 113.811318 -303.919375 
L 121.051682 -302.563392 
L 128.292045 -301.128386 
L 135.532409 -299.62622 
L 142.772773 -298.072182 
L 150.013136 -296.484526 
L 157.2535 -294.88373 
L 164.493864 -293.291501 
L 171.734227 -291.729535 
L 178.974591 -290.21828 
L 186.214955 -288.775856 
L 193.455318 -287.417161 
L 200.695682 -286.153387 
L 207.936045 -284.991843 
L 215.176409 -283.936145 
L 222.416773 -282.986639 
L 229.657136 -282.14099 
L 236.8975 -281.394854 
L 244.137864 -280.7425 
L 251.378227 -280.177417 
L 258.618591 -279.692789 
L 265.858955 -279.281884 
L 273.099318 -278.938331 
L 280.339682 -278.656318 
L 287.580045 -278.430717 
L 294.820409 -278.257138 
L 302.060773 -278.131962 
L 309.301136 -278.110485 
L 316.5415 -278.110485 
L 323.781864 -278.110485 
L 331.022227 -278.110485 
L 338.262591 -278.157289 
L 345.502955 -278.287066 
L 352.743318 -278.459297 
L 359.983682 -278.675298 
L 367.224045 -278.936731 
L 374.464409 -279.245476 
L 381.704773 -279.603543 
L 388.945136 -280.012922 
L 396.1855 -280.475449 
L 403.425864 -280.99264 
L 410.666227 -281.565532 
L 417.906591 -282.194527 
L 417.906591 -273.312909 
L 417.906591 -273.312909 
L 410.666227 -273.312909 
L 403.425864 -273.312909 
L 396.1855 -273.312909 
L 388.945136 -273.312909 
L 381.704773 -273.312909 
L 374.464409 -273.312909 
L 367.224045 -273.312909 
L 359.983682 -273.312909 
L 352.743318 -273.312909 
L 345.502955 -273.312909 
L 338.262591 -273.312909 
L 331.022227 -273.312909 
L 323.781864 -273.312909 
L 316.5415 -273.312909 
L 309.301136 -273.312909 
L 302.060773 -273.312909 
L 294.820409 -273.312909 
L 287.580045 -273.312909 
L 280.339682 -273.312909 
L 273.099318 -273.312909 
L 265.858955 -273.312909 
L 258.618591 -273.312909 
L 251.378227 -273.312909 
L 244.137864 -273.312909 
L 236.8975 -273.312909 
L 229.657136 -273.312909 
L 222.416773 -273.312909 
L 215.176409 -273.312909 
L 207.936045 -273.312909 
L 200.695682 -273.312909 
L 193.455318 -273.312909 
L 186.214955 -273.312909 
L 178.974591 -273.312909 
L 171.734227 -273.312909 
L 164.493864 -273.312909 
L 157.2535 -273.312909 
L 150.013136 -273.312909 
L 142.772773 -273.312909 
L 135.532409 -273.312909 
L 128.292045 -273.312909 
L 121.051682 -273.312909 
L 113.811318 -273.312909 
L 106.570955 -273.312909 
L 99.330591 -273.312909 
L 92.090227 -273.312909 
L 84.849864 -273.312909 
L 77.6095 -273.312909 
L 70.369136 -273.312909 
L 63.128773 -273.312909 
L 55.888409 -273.312909 
z
" style="stroke: #dc143c; stroke-opacity: 0.2"/>
    </defs>
    <g clip-path="url(#p93297e22f7)">
     <use xlink:href="#m37ff19ea36" x="0" y="325.85" style="fill: #dc143c; fill-opacity: 0.2; stroke: #dc143c; stroke-opacity: 0.2"/>
    </g>
   </g>
   <g id="PolyCollection_2">
    <defs>
     <path id="mc519dd13a6" d="M 55.888409 -273.312909 
L 55.888409 -283.098333 
L 63.128773 -283.742825 
L 70.369136 -284.466084 
L 77.6095 -285.273148 
L 84.849864 -286.168543 
L 92.090227 -287.155903 
L 99.330591 -288.237482 
L 106.570955 -289.413618 
L 113.811318 -290.682201 
L 121.051682 -292.038184 
L 128.292045 -293.47319 
L 135.532409 -294.975355 
L 142.772773 -296.529394 
L 150.013136 -298.11705 
L 157.2535 -299.717846 
L 164.493864 -301.310074 
L 171.734227 -302.872041 
L 178.974591 -304.383296 
L 186.214955 -305.82572 
L 193.455318 -307.184414 
L 200.695682 -308.448189 
L 207.936045 -309.609733 
L 215.176409 -310.665431 
L 222.416773 -311.614936 
L 229.657136 -312.460585 
L 236.8975 -313.206722 
L 244.137864 -313.859076 
L 251.378227 -314.424159 
L 258.618591 -314.908787 
L 265.858955 -315.319692 
L 273.099318 -315.663245 
L 280.339682 -315.945257 
L 287.580045 -316.170859 
L 294.820409 -316.344438 
L 302.060773 -316.469614 
L 309.301136 -316.491091 
L 316.5415 -316.491091 
L 323.781864 -316.491091 
L 331.022227 -316.491091 
L 338.262591 -316.444287 
L 345.502955 -316.314509 
L 352.743318 -316.142279 
L 359.983682 -315.926278 
L 367.224045 -315.664845 
L 374.464409 -315.3561 
L 381.704773 -314.998033 
L 388.945136 -314.588653 
L 396.1855 -314.126127 
L 403.425864 -313.608936 
L 410.666227 -313.036044 
L 417.906591 -312.407049 
L 417.906591 -273.312909 
L 417.906591 -273.312909 
L 410.666227 -273.312909 
L 403.425864 -273.312909 
L 396.1855 -273.312909 
L 388.945136 -273.312909 
L 381.704773 -273.312909 
L 374.464409 -273.312909 
L 367.224045 -273.312909 
L 359.983682 -273.312909 
L 352.743318 -273.312909 
L 345.502955 -273.312909 
L 338.262591 -273.312909 
L 331.022227 -273.312909 
L 323.781864 -273.312909 
L 316.5415 -273.312909 
L 309.301136 -273.312909 
L 302.060773 -273.312909 
L 294.820409 -273.312909 
L 287.580045 -273.312909 
L 280.339682 -273.312909 
L 273.099318 -273.312909 
L 265.858955 -273.312909 
L 258.618591 -273.312909 
L 251.378227 -273.312909 
L 244.137864 -273.312909 
L 236.8975 -273.312909 
L 229.657136 -273.312909 
L 222.416773 -273.312909 
L 215.176409 -273.312909 
L 207.936045 -273.312909 
L 200.695682 -273.312909 
L 193.455318 -273.312909 
L 186.214955 -273.312909 
L 178.974591 -273.312909 
L 171.734227 -273.312909 
L 164.493864 -273.312909 
L 157.2535 -273.312909 
L 150.013136 -273.312909 
L 142.772773 -273.312909 
L 135.532409 -273.312909 
L 128.292045 -273.312909 
L 121.051682 -273.312909 
L 113.811318 -273.312909 
L 106.570955 -273.312909 
L 99.330591 -273.312909 
L 92.090227 -273.312909 
L 84.849864 -273.312909 
L 77.6095 -273.312909 
L 70.369136 -273.312909 
L 63.128773 -273.312909 
L 55.888409 -273.312909 
z
" style="stroke: #000080; stroke-opacity: 0.2"/>
    </defs>
    <g clip-path="url(#p93297e22f7)">
     <use xlink:href="#mc519dd13a6" x="0" y="325.85" style="fill: #000080; fill-opacity: 0.2; stroke: #000080; stroke-opacity: 0.2"/>
    </g>
   </g>
   <g id="matplotlib.axis_1"/>
   <g id="matplotlib.axis_2"/>
   <g id="line2d_1">
    <path d="M 55.888409 14.346757 
L 63.128773 14.99125 
L 70.369136 15.714508 
L 77.6095 16.521573 
L 84.849864 17.416967 
L 92.090227 18.404328 
L 99.330591 19.485906 
L 106.570955 20.662042 
L 113.811318 21.930625 
L 121.051682 23.286608 
L 128.292045 24.721614 
L 135.532409 26.22378 
L 142.772773 27.777818 
L 150.013136 29.365474 
L 157.2535 30.96627 
L 164.493864 32.558499 
L 171.734227 34.120465 
L 178.974591 35.63172 
L 186.214955 37.074144 
L 193.455318 38.432839 
L 200.695682 39.696613 
L 207.936045 40.858157 
L 215.176409 41.913855 
L 222.416773 42.863361 
L 229.657136 43.70901 
L 236.8975 44.455146 
L 244.137864 45.1075 
L 251.378227 45.672583 
L 258.618591 46.157211 
L 265.858955 46.568116 
L 273.099318 46.911669 
L 280.339682 47.193682 
L 287.580045 47.419283 
L 294.820409 47.592862 
L 302.060773 47.718038 
L 309.301136 47.739515 
L 316.5415 47.739515 
L 323.781864 47.739515 
L 331.022227 47.739515 
L 338.262591 47.692711 
L 345.502955 47.562934 
L 352.743318 47.390703 
L 359.983682 47.174702 
L 367.224045 46.913269 
L 374.464409 46.604524 
L 381.704773 46.246457 
L 388.945136 45.837078 
L 396.1855 45.374551 
L 403.425864 44.85736 
L 410.666227 44.284468 
L 417.906591 43.655473 
" clip-path="url(#p93297e22f7)" style="fill: none; stroke: #dc143c; stroke-width: 1.5; stroke-linecap: square"/>
   </g>
   <g id="line2d_2">
    <path d="M 55.888409 42.751667 
L 63.128773 42.107175 
L 70.369136 41.383916 
L 77.6095 40.576852 
L 84.849864 39.681457 
L 92.090227 38.694097 
L 99.330591 37.612518 
L 106.570955 36.436382 
L 113.811318 35.167799 
L 121.051682 33.811816 
L 128.292045 32.37681 
L 135.532409 30.874645 
L 142.772773 29.320606 
L 150.013136 27.73295 
L 157.2535 26.132154 
L 164.493864 24.539926 
L 171.734227 22.977959 
L 178.974591 21.466704 
L 186.214955 20.02428 
L 193.455318 18.665586 
L 200.695682 17.401811 
L 207.936045 16.240267 
L 215.176409 15.184569 
L 222.416773 14.235064 
L 229.657136 13.389415 
L 236.8975 12.643278 
L 244.137864 11.990924 
L 251.378227 11.425841 
L 258.618591 10.941213 
L 265.858955 10.530308 
L 273.099318 10.186755 
L 280.339682 9.904743 
L 287.580045 9.679141 
L 294.820409 9.505562 
L 302.060773 9.380386 
L 309.301136 9.358909 
L 316.5415 9.358909 
L 323.781864 9.358909 
L 331.022227 9.358909 
L 338.262591 9.405713 
L 345.502955 9.535491 
L 352.743318 9.707721 
L 359.983682 9.923722 
L 367.224045 10.185155 
L 374.464409 10.4939 
L 381.704773 10.851967 
L 388.945136 11.261347 
L 396.1855 11.723873 
L 403.425864 12.241064 
L 410.666227 12.813956 
L 417.906591 13.442951 
" clip-path="url(#p93297e22f7)" style="fill: none; stroke: #000080; stroke-width: 1.5; stroke-linecap: square"/>
   </g>
  </g>
  <g id="axes_2">
   <g id="patch_3">
    <path d="M 37.7875 165.688 
L 436.0075 165.688 
L 436.0075 70.696 
L 37.7875 70.696 
z
" style="fill: #ffffff"/>
   </g>
   <g id="PathCollection_1">
    <defs>
     <path id="m598ceee712" d="M 0 0.866025 
C 0.229673 0.866025 0.449969 0.774776 0.612372 0.612372 
C 0.774776 0.449969 0.866025 0.229673 0.866025 0 
C 0.866025 -0.229673 0.774776 -0.449969 0.612372 -0.612372 
C 0.449969 -0.774776 0.229673 -0.866025 0 -0.866025 
C -0.229673 -0.866025 -0.449969 -0.774776 -0.612372 -0.612372 
C -0.774776 -0.449969 -0.866025 -0.229673 -0.866025 0 
C -0.866025 0.229673 -0.774776 0.449969 -0.612372 0.612372 
C -0.449969 0.774776 -0.229673 0.866025 0 0.866025 
z
" style="stroke: #daa520"/>
    </defs>
    <g clip-path="url(#p0b782103e6)">
     <use xlink:href="#m598ceee712" x="296.812901" y="146.373516" style="fill: #daa520; stroke: #daa520"/>
     <use xlink:href="#m598ceee712" x="398.129418" y="124.09611" style="fill: #daa520; stroke: #daa520"/>
     <use xlink:href="#m598ceee712" x="68.508723" y="135.463014" style="fill: #daa520; stroke: #daa520"/>
     <use xlink:href="#m598ceee712" x="67.883356" y="108.521664" style="fill: #daa520; stroke: #daa520"/>
     <use xlink:href="#m598ceee712" x="222.807631" y="130.541756" style="fill: #daa520; stroke: #daa520"/>
     <use xlink:href="#m598ceee712" x="118.662886" y="82.086385" style="fill: #daa520; stroke: #daa520"/>
     <use xlink:href="#m598ceee712" x="113.187304" y="80.569738" style="fill: #daa520; stroke: #daa520"/>
     <use xlink:href="#m598ceee712" x="121.391115" y="87.641657" style="fill: #daa520; stroke: #daa520"/>
     <use xlink:href="#m598ceee712" x="245.307621" y="154.432938" style="fill: #daa520; stroke: #daa520"/>
     <use xlink:href="#m598ceee712" x="194.528297" y="141.768112" style="fill: #daa520; stroke: #daa520"/>
     <use xlink:href="#m598ceee712" x="152.973928" y="101.066788" style="fill: #daa520; stroke: #daa520"/>
     <use xlink:href="#m598ceee712" x="135.645102" y="94.258479" style="fill: #daa520; stroke: #daa520"/>
     <use xlink:href="#m598ceee712" x="379.820909" y="146.408926" style="fill: #daa520; stroke: #daa520"/>
     <use xlink:href="#m598ceee712" x="56.800331" y="88.815751" style="fill: #daa520; stroke: #daa520"/>
     <use xlink:href="#m598ceee712" x="70.145602" y="83.457315" style="fill: #daa520; stroke: #daa520"/>
     <use xlink:href="#m598ceee712" x="127.713239" y="92.339255" style="fill: #daa520; stroke: #daa520"/>
     <use xlink:href="#m598ceee712" x="59.59491" y="149.031063" style="fill: #daa520; stroke: #daa520"/>
     <use xlink:href="#m598ceee712" x="138.560232" y="112.383173" style="fill: #daa520; stroke: #daa520"/>
     <use xlink:href="#m598ceee712" x="68.870845" y="86.464904" style="fill: #daa520; stroke: #daa520"/>
     <use xlink:href="#m598ceee712" x="115.629215" y="80.949243" style="fill: #daa520; stroke: #daa520"/>
     <use xlink:href="#m598ceee712" x="87.04741" y="83.080009" style="fill: #daa520; stroke: #daa520"/>
     <use xlink:href="#m598ceee712" x="95.314506" y="125.778057" style="fill: #daa520; stroke: #daa520"/>
     <use xlink:href="#m598ceee712" x="102.886611" y="151.578481" style="fill: #daa520; stroke: #daa520"/>
     <use xlink:href="#m598ceee712" x="115.76912" y="116.774721" style="fill: #daa520; stroke: #daa520"/>
     <use xlink:href="#m598ceee712" x="145.181243" y="150.932235" style="fill: #daa520; stroke: #daa520"/>
     <use xlink:href="#m598ceee712" x="274.949125" y="161.370182" style="fill: #daa520; stroke: #daa520"/>
     <use xlink:href="#m598ceee712" x="62.227486" y="110.520166" style="fill: #daa520; stroke: #daa520"/>
     <use xlink:href="#m598ceee712" x="79.651205" y="91.042794" style="fill: #daa520; stroke: #daa520"/>
     <use xlink:href="#m598ceee712" x="73.101542" y="89.487088" style="fill: #daa520; stroke: #daa520"/>
     <use xlink:href="#m598ceee712" x="111.492418" y="84.531138" style="fill: #daa520; stroke: #daa520"/>
     <use xlink:href="#m598ceee712" x="105.50559" y="101.402984" style="fill: #daa520; stroke: #daa520"/>
     <use xlink:href="#m598ceee712" x="297.499475" y="132.098128" style="fill: #daa520; stroke: #daa520"/>
     <use xlink:href="#m598ceee712" x="57.321213" y="84.251771" style="fill: #daa520; stroke: #daa520"/>
     <use xlink:href="#m598ceee712" x="229.909059" y="152.25402" style="fill: #daa520; stroke: #daa520"/>
     <use xlink:href="#m598ceee712" x="75.192177" y="88.762686" style="fill: #daa520; stroke: #daa520"/>
     <use xlink:href="#m598ceee712" x="133.19668" y="91.756804" style="fill: #daa520; stroke: #daa520"/>
     <use xlink:href="#m598ceee712" x="356.936819" y="145.096034" style="fill: #daa520; stroke: #daa520"/>
     <use xlink:href="#m598ceee712" x="413.573303" y="141.584212" style="fill: #daa520; stroke: #daa520"/>
     <use xlink:href="#m598ceee712" x="211.494095" y="75.013818" style="fill: #daa520; stroke: #daa520"/>
     <use xlink:href="#m598ceee712" x="165.356577" y="108.019538" style="fill: #daa520; stroke: #daa520"/>
     <use xlink:href="#m598ceee712" x="99.896547" y="114.754421" style="fill: #daa520; stroke: #daa520"/>
     <use xlink:href="#m598ceee712" x="415.694176" y="149.319251" style="fill: #daa520; stroke: #daa520"/>
     <use xlink:href="#m598ceee712" x="123.247328" y="82.152258" style="fill: #daa520; stroke: #daa520"/>
     <use xlink:href="#m598ceee712" x="85.711099" y="96.834589" style="fill: #daa520; stroke: #daa520"/>
     <use xlink:href="#m598ceee712" x="124.553601" y="102.876501" style="fill: #daa520; stroke: #daa520"/>
     <use xlink:href="#m598ceee712" x="405.97271" y="139.178837" style="fill: #daa520; stroke: #daa520"/>
     <use xlink:href="#m598ceee712" x="73.855427" y="135.647654" style="fill: #daa520; stroke: #daa520"/>
     <use xlink:href="#m598ceee712" x="60.456735" y="103.947282" style="fill: #daa520; stroke: #daa520"/>
     <use xlink:href="#m598ceee712" x="148.198295" y="129.83136" style="fill: #daa520; stroke: #daa520"/>
     <use xlink:href="#m598ceee712" x="136.365305" y="84.544495" style="fill: #daa520; stroke: #daa520"/>
     <use xlink:href="#m598ceee712" x="194.059558" y="154.53767" style="fill: #daa520; stroke: #daa520"/>
     <use xlink:href="#m598ceee712" x="112.288094" y="130.212609" style="fill: #daa520; stroke: #daa520"/>
     <use xlink:href="#m598ceee712" x="154.267448" y="85.599268" style="fill: #daa520; stroke: #daa520"/>
     <use xlink:href="#m598ceee712" x="202.750815" y="146.209496" style="fill: #daa520; stroke: #daa520"/>
     <use xlink:href="#m598ceee712" x="93.483269" y="81.617507" style="fill: #daa520; stroke: #daa520"/>
     <use xlink:href="#m598ceee712" x="97.747615" y="148.9257" style="fill: #daa520; stroke: #daa520"/>
     <use xlink:href="#m598ceee712" x="64.452491" y="145.505477" style="fill: #daa520; stroke: #daa520"/>
     <use xlink:href="#m598ceee712" x="411.439216" y="120.30207" style="fill: #daa520; stroke: #daa520"/>
     <use xlink:href="#m598ceee712" x="192.251116" y="82.097422" style="fill: #daa520; stroke: #daa520"/>
     <use xlink:href="#m598ceee712" x="186.157161" y="80.749891" style="fill: #daa520; stroke: #daa520"/>
     <use xlink:href="#m598ceee712" x="279.13164" y="152.746987" style="fill: #daa520; stroke: #daa520"/>
     <use xlink:href="#m598ceee712" x="70.272627" y="81.665166" style="fill: #daa520; stroke: #daa520"/>
     <use xlink:href="#m598ceee712" x="82.81436" y="97.345802" style="fill: #daa520; stroke: #daa520"/>
     <use xlink:href="#m598ceee712" x="220.475602" y="145.387906" style="fill: #daa520; stroke: #daa520"/>
     <use xlink:href="#m598ceee712" x="95.288162" y="119.385844" style="fill: #daa520; stroke: #daa520"/>
     <use xlink:href="#m598ceee712" x="118.844053" y="107.893016" style="fill: #daa520; stroke: #daa520"/>
     <use xlink:href="#m598ceee712" x="195.970222" y="85.356235" style="fill: #daa520; stroke: #daa520"/>
     <use xlink:href="#m598ceee712" x="127.001011" y="82.989067" style="fill: #daa520; stroke: #daa520"/>
     <use xlink:href="#m598ceee712" x="76.746706" y="81.275676" style="fill: #daa520; stroke: #daa520"/>
     <use xlink:href="#m598ceee712" x="129.231561" y="97.933173" style="fill: #daa520; stroke: #daa520"/>
     <use xlink:href="#m598ceee712" x="149.753857" y="88.957273" style="fill: #daa520; stroke: #daa520"/>
     <use xlink:href="#m598ceee712" x="332.169704" y="153.319966" style="fill: #daa520; stroke: #daa520"/>
     <use xlink:href="#m598ceee712" x="383.542306" y="124.425316" style="fill: #daa520; stroke: #daa520"/>
     <use xlink:href="#m598ceee712" x="127.348266" y="92.717604" style="fill: #daa520; stroke: #daa520"/>
     <use xlink:href="#m598ceee712" x="104.188736" y="117.787343" style="fill: #daa520; stroke: #daa520"/>
     <use xlink:href="#m598ceee712" x="194.085669" y="146.977571" style="fill: #daa520; stroke: #daa520"/>
     <use xlink:href="#m598ceee712" x="251.903425" y="83.475481" style="fill: #daa520; stroke: #daa520"/>
     <use xlink:href="#m598ceee712" x="221.212299" y="151.098787" style="fill: #daa520; stroke: #daa520"/>
     <use xlink:href="#m598ceee712" x="57.584828" y="152.922986" style="fill: #daa520; stroke: #daa520"/>
     <use xlink:href="#m598ceee712" x="81.651029" y="102.702132" style="fill: #daa520; stroke: #daa520"/>
     <use xlink:href="#m598ceee712" x="125.613591" y="83.107955" style="fill: #daa520; stroke: #daa520"/>
     <use xlink:href="#m598ceee712" x="219.347992" y="150.802983" style="fill: #daa520; stroke: #daa520"/>
     <use xlink:href="#m598ceee712" x="349.49712" y="118.178701" style="fill: #daa520; stroke: #daa520"/>
     <use xlink:href="#m598ceee712" x="84.546715" y="84.256361" style="fill: #daa520; stroke: #daa520"/>
     <use xlink:href="#m598ceee712" x="177.645992" y="77.67439" style="fill: #daa520; stroke: #daa520"/>
     <use xlink:href="#m598ceee712" x="88.676943" y="85.307938" style="fill: #daa520; stroke: #daa520"/>
     <use xlink:href="#m598ceee712" x="388.513426" y="134.879426" style="fill: #daa520; stroke: #daa520"/>
     <use xlink:href="#m598ceee712" x="263.850711" y="158.186497" style="fill: #daa520; stroke: #daa520"/>
     <use xlink:href="#m598ceee712" x="70.685854" y="102.43516" style="fill: #daa520; stroke: #daa520"/>
     <use xlink:href="#m598ceee712" x="133.400041" y="83.637874" style="fill: #daa520; stroke: #daa520"/>
     <use xlink:href="#m598ceee712" x="60.927521" y="134.766303" style="fill: #daa520; stroke: #daa520"/>
     <use xlink:href="#m598ceee712" x="368.081489" y="125.694683" style="fill: #daa520; stroke: #daa520"/>
     <use xlink:href="#m598ceee712" x="80.811354" y="84.06342" style="fill: #daa520; stroke: #daa520"/>
     <use xlink:href="#m598ceee712" x="83.948325" y="89.076851" style="fill: #daa520; stroke: #daa520"/>
     <use xlink:href="#m598ceee712" x="138.504104" y="130.322515" style="fill: #daa520; stroke: #daa520"/>
     <use xlink:href="#m598ceee712" x="248.372905" y="85.719223" style="fill: #daa520; stroke: #daa520"/>
     <use xlink:href="#m598ceee712" x="86.798486" y="100.372381" style="fill: #daa520; stroke: #daa520"/>
     <use xlink:href="#m598ceee712" x="306.595053" y="148.953583" style="fill: #daa520; stroke: #daa520"/>
     <use xlink:href="#m598ceee712" x="84.214473" y="88.76137" style="fill: #daa520; stroke: #daa520"/>
     <use xlink:href="#m598ceee712" x="129.064423" y="117.258905" style="fill: #daa520; stroke: #daa520"/>
     <use xlink:href="#m598ceee712" x="76.45969" y="139.952118" style="fill: #daa520; stroke: #daa520"/>
    </g>
   </g>
   <g id="matplotlib.axis_3"/>
   <g id="matplotlib.axis_4">
    <g id="ytick_1">
     <g id="line2d_3">
      <defs>
       <path id="m7e497d61ba" d="M 0 0 
L -3.5 0 
" style="stroke: #696969; stroke-width: 0.8"/>
      </defs>
      <g>
       <use xlink:href="#m7e497d61ba" x="37.7875" y="132.347121" style="fill: #696969; stroke: #696969; stroke-width: 0.8"/>
      </g>
     </g>
     <g id="text_1">
      <!-- 0 -->
      <g style="fill: #696969" transform="translate(20.6075 138.425871) scale(0.16 -0.16)">
       <defs>
        <path id="DejaVuSans-30" d="M 2034 4250 
Q 1547 4250 1301 3770 
Q 1056 3291 1056 2328 
Q 1056 1369 1301 889 
Q 1547 409 2034 409 
Q 2525 409 2770 889 
Q 3016 1369 3016 2328 
Q 3016 3291 2770 3770 
Q 2525 4250 2034 4250 
z
M 2034 4750 
Q 2819 4750 3233 4129 
Q 3647 3509 3647 2328 
Q 3647 1150 3233 529 
Q 2819 -91 2034 -91 
Q 1250 -91 836 529 
Q 422 1150 422 2328 
Q 422 3509 836 4129 
Q 1250 4750 2034 4750 
z
" transform="scale(0.015625)"/>
       </defs>
       <use xlink:href="#DejaVuSans-30"/>
      </g>
     </g>
    </g>
    <g id="ytick_2">
     <g id="line2d_4">
      <g>
       <use xlink:href="#m7e497d61ba" x="37.7875" y="89.348028" style="fill: #696969; stroke: #696969; stroke-width: 0.8"/>
      </g>
     </g>
     <g id="text_2">
      <!-- 5 -->
      <g style="fill: #696969" transform="translate(20.6075 95.426778) scale(0.16 -0.16)">
       <defs>
        <path id="DejaVuSans-35" d="M 691 4666 
L 3169 4666 
L 3169 4134 
L 1269 4134 
L 1269 2991 
Q 1406 3038 1543 3061 
Q 1681 3084 1819 3084 
Q 2600 3084 3056 2656 
Q 3513 2228 3513 1497 
Q 3513 744 3044 326 
Q 2575 -91 1722 -91 
Q 1428 -91 1123 -41 
Q 819 9 494 109 
L 494 744 
Q 775 591 1075 516 
Q 1375 441 1709 441 
Q 2250 441 2565 725 
Q 2881 1009 2881 1497 
Q 2881 1984 2565 2268 
Q 2250 2553 1709 2553 
Q 1456 2553 1204 2497 
Q 953 2441 691 2322 
L 691 4666 
z
" transform="scale(0.015625)"/>
       </defs>
       <use xlink:href="#DejaVuSans-35"/>
      </g>
     </g>
    </g>
   </g>
   <g id="line2d_5">
    <path d="M 55.888409 113.936196 
L 63.128773 112.680253 
L 70.369136 111.416377 
L 77.6095 110.182531 
L 84.849864 109.018661 
L 92.090227 107.964806 
L 99.330591 107.059107 
L 106.570955 106.335813 
L 113.811318 105.823479 
L 121.051682 105.543493 
L 128.292045 105.509033 
L 135.532409 105.724578 
L 142.772773 106.185946 
L 150.013136 106.880914 
L 157.2535 107.790281 
L 164.493864 108.88933 
L 171.734227 110.1495 
L 178.974591 111.540134 
L 186.214955 113.030143 
L 193.455318 114.589436 
L 200.695682 116.190046 
L 207.936045 117.806836 
L 215.176409 119.417838 
L 222.416773 121.004229 
L 229.657136 122.549997 
L 236.8975 124.041473 
L 244.137864 125.466774 
L 251.378227 126.815354 
L 258.618591 128.077658 
L 265.858955 129.245072 
L 273.099318 130.310068 
L 280.339682 131.266656 
L 287.580045 132.110974 
L 294.820409 132.842007 
L 302.060773 133.462314 
L 309.301136 133.978636 
L 316.5415 134.402267 
L 323.781864 134.749133 
L 331.022227 135.03952 
L 338.262591 135.297327 
L 345.502955 135.54902 
L 352.743318 135.822206 
L 359.983682 136.143969 
L 367.224045 136.539087 
L 374.464409 137.028271 
L 381.704773 137.62656 
L 388.945136 138.342065 
L 396.1855 139.175094 
L 403.425864 140.117922 
L 410.666227 141.155065 
L 417.906591 142.264238 
" clip-path="url(#p0b782103e6)" style="fill: none; stroke: #000000; stroke-width: 2; stroke-linecap: square"/>
   </g>
   <g id="line2d_6">
    <path d="M 55.888409 115.785336 
L 63.128773 111.161891 
L 70.369136 107.396631 
L 77.6095 104.421873 
L 84.849864 102.172213 
L 92.090227 100.584523 
L 99.330591 99.597955 
L 106.570955 99.153939 
L 113.811318 99.196185 
L 121.051682 99.670679 
L 128.292045 100.525686 
L 135.532409 101.711752 
L 142.772773 103.181698 
L 150.013136 104.890626 
L 157.2535 106.795915 
L 164.493864 108.857224 
L 171.734227 111.036488 
L 178.974591 113.297923 
L 186.214955 115.608022 
L 193.455318 117.935558 
L 200.695682 120.251579 
L 207.936045 122.529416 
L 215.176409 124.744676 
L 222.416773 126.875244 
L 229.657136 128.901285 
L 236.8975 130.805241 
L 244.137864 132.571834 
L 251.378227 134.188063 
L 258.618591 135.643207 
L 265.858955 136.928822 
L 273.099318 138.038743 
L 280.339682 138.969084 
L 287.580045 139.718236 
L 294.820409 140.286872 
L 302.060773 140.677938 
L 309.301136 140.896664 
L 316.5415 140.950554 
L 323.781864 140.849393 
L 331.022227 140.605245 
L 338.262591 140.23245 
L 345.502955 139.747629 
L 352.743318 139.169679 
L 359.983682 138.519777 
L 367.224045 137.821379 
L 374.464409 137.100218 
L 381.704773 136.384307 
L 388.945136 135.703936 
L 396.1855 135.091675 
L 403.425864 134.58237 
L 410.666227 134.213148 
L 417.906591 134.023414 
" clip-path="url(#p0b782103e6)" style="fill: none; stroke-dasharray: 7.4,3.2; stroke-dashoffset: 0; stroke: #34b6c6; stroke-width: 2"/>
   </g>
   <g id="line2d_7">
    <path d="M 55.888409 111.802725 
L 63.128773 109.539366 
L 70.369136 107.502161 
L 77.6095 105.684604 
L 84.849864 104.08281 
L 92.090227 102.696266 
L 99.330591 101.528791 
L 106.570955 100.589728 
L 113.811318 99.895311 
L 121.051682 99.470084 
L 128.292045 99.348008 
L 135.532409 99.572635 
L 142.772773 100.195286 
L 150.013136 101.269935 
L 157.2535 102.84364 
L 164.493864 104.942661 
L 171.734227 107.556972 
L 178.974591 110.628688 
L 186.214955 114.05047 
L 193.455318 117.676326 
L 200.695682 121.341285 
L 207.936045 124.883124 
L 215.176409 128.160756 
L 222.416773 131.06715 
L 229.657136 133.536154 
L 236.8975 135.542795 
L 244.137864 137.097468 
L 251.378227 138.236091 
L 258.618591 139.009285 
L 265.858955 139.473117 
L 273.099318 139.682643 
L 280.339682 139.688261 
L 287.580045 139.534218 
L 294.820409 139.258493 
L 302.060773 138.893392 
L 309.301136 138.466412 
L 316.5415 138.001119 
L 323.781864 137.517924 
L 331.022227 137.03471 
L 338.262591 136.567319 
L 345.502955 136.129929 
L 352.743318 135.735344 
L 359.983682 135.395222 
L 367.224045 135.120276 
L 374.464409 134.920438 
L 381.704773 134.805024 
L 388.945136 134.782878 
L 396.1855 134.862514 
L 403.425864 135.052251 
L 410.666227 135.360329 
L 417.906591 135.795026 
" clip-path="url(#p0b782103e6)" style="fill: none; stroke-dasharray: 7.4,3.2; stroke-dashoffset: 0; stroke: #9370db; stroke-width: 2"/>
   </g>
   <g id="line2d_8">
    <path d="M 55.888409 118.539103 
L 63.128773 118.348202 
L 70.369136 118.172759 
L 77.6095 118.017663 
L 84.849864 117.889305 
L 92.090227 117.796099 
L 99.330591 117.749156 
L 106.570955 117.763117 
L 113.811318 117.857107 
L 121.051682 118.055728 
L 128.292045 118.389838 
L 135.532409 118.896663 
L 142.772773 119.618533 
L 150.013136 120.599296 
L 157.2535 121.877632 
L 164.493864 123.477348 
L 171.734227 125.396542 
L 178.974591 127.599513 
L 186.214955 130.015648 
L 193.455318 132.546973 
L 200.695682 135.081908 
L 207.936045 137.510463 
L 215.176409 139.737095 
L 222.416773 141.689738 
L 229.657136 143.324582 
L 236.8975 144.626274 
L 244.137864 145.603862 
L 251.378227 146.283908 
L 258.618591 146.702919 
L 265.858955 146.900879 
L 273.099318 146.916732 
L 280.339682 146.785831 
L 287.580045 146.538896 
L 294.820409 146.201931 
L 302.060773 145.796639 
L 309.301136 145.341026 
L 316.5415 144.85002 
L 323.781864 144.336006 
L 331.022227 143.80927 
L 338.262591 143.278339 
L 345.502955 142.75024 
L 352.743318 142.230708 
L 359.983682 141.724345 
L 367.224045 141.234755 
L 374.464409 140.764669 
L 381.704773 140.316048 
L 388.945136 139.890193 
L 396.1855 139.487842 
L 403.425864 139.10926 
L 410.666227 138.754327 
L 417.906591 138.422614 
" clip-path="url(#p0b782103e6)" style="fill: none; stroke-dasharray: 12.8,3.2,2,3.2; stroke-dashoffset: 0; stroke: #ff0000; stroke-width: 2"/>
   </g>
   <g id="patch_4">
    <path d="M 37.7875 165.688 
L 37.7875 70.696 
" style="fill: none; stroke: #000000; stroke-width: 0.8; stroke-linejoin: miter; stroke-linecap: square"/>
   </g>
   <g id="patch_5">
    <path d="M 436.0075 165.688 
L 436.0075 70.696 
" style="fill: none; stroke: #000000; stroke-width: 0.8; stroke-linejoin: miter; stroke-linecap: square"/>
   </g>
   <g id="patch_6">
    <path d="M 37.7875 165.688 
L 436.0075 165.688 
" style="fill: none; stroke: #000000; stroke-width: 0.8; stroke-linejoin: miter; stroke-linecap: square"/>
   </g>
   <g id="patch_7">
    <path d="M 37.7875 70.696 
L 436.0075 70.696 
" style="fill: none; stroke: #000000; stroke-width: 0.8; stroke-linejoin: miter; stroke-linecap: square"/>
   </g>
  </g>
  <g id="axes_3">
   <g id="patch_8">
    <path d="M 37.7875 276.68 
L 436.0075 276.68 
L 436.0075 181.688 
L 37.7875 181.688 
z
" style="fill: #ffffff"/>
   </g>
   <g id="PathCollection_2">
    <g clip-path="url(#pfc816a177e)">
     <use xlink:href="#m598ceee712" x="296.812901" y="216.085061" style="fill: #daa520; stroke: #daa520"/>
     <use xlink:href="#m598ceee712" x="398.129418" y="229.793508" style="fill: #daa520; stroke: #daa520"/>
     <use xlink:href="#m598ceee712" x="68.508723" y="201.139287" style="fill: #daa520; stroke: #daa520"/>
     <use xlink:href="#m598ceee712" x="67.883356" y="224.880409" style="fill: #daa520; stroke: #daa520"/>
     <use xlink:href="#m598ceee712" x="222.807631" y="226.232593" style="fill: #daa520; stroke: #daa520"/>
     <use xlink:href="#m598ceee712" x="118.662886" y="247.938934" style="fill: #daa520; stroke: #daa520"/>
     <use xlink:href="#m598ceee712" x="113.187304" y="249.158795" style="fill: #daa520; stroke: #daa520"/>
     <use xlink:href="#m598ceee712" x="121.391115" y="243.126594" style="fill: #daa520; stroke: #daa520"/>
     <use xlink:href="#m598ceee712" x="245.307621" y="208.666853" style="fill: #daa520; stroke: #daa520"/>
     <use xlink:href="#m598ceee712" x="194.528297" y="208.540882" style="fill: #daa520; stroke: #daa520"/>
     <use xlink:href="#m598ceee712" x="152.973928" y="233.959122" style="fill: #daa520; stroke: #daa520"/>
     <use xlink:href="#m598ceee712" x="135.645102" y="238.03705" style="fill: #daa520; stroke: #daa520"/>
     <use xlink:href="#m598ceee712" x="379.820909" y="211.063871" style="fill: #daa520; stroke: #daa520"/>
     <use xlink:href="#m598ceee712" x="56.800331" y="242.48556" style="fill: #daa520; stroke: #daa520"/>
     <use xlink:href="#m598ceee712" x="70.145602" y="246.908572" style="fill: #daa520; stroke: #daa520"/>
     <use xlink:href="#m598ceee712" x="127.713239" y="239.243998" style="fill: #daa520; stroke: #daa520"/>
     <use xlink:href="#m598ceee712" x="59.59491" y="189.386429" style="fill: #daa520; stroke: #daa520"/>
     <use xlink:href="#m598ceee712" x="138.560232" y="222.306347" style="fill: #daa520; stroke: #daa520"/>
     <use xlink:href="#m598ceee712" x="68.870845" y="244.285836" style="fill: #daa520; stroke: #daa520"/>
     <use xlink:href="#m598ceee712" x="115.629215" y="248.869262" style="fill: #daa520; stroke: #daa520"/>
     <use xlink:href="#m598ceee712" x="87.04741" y="246.958117" style="fill: #daa520; stroke: #daa520"/>
     <use xlink:href="#m598ceee712" x="95.314506" y="209.275062" style="fill: #daa520; stroke: #daa520"/>
     <use xlink:href="#m598ceee712" x="102.886611" y="186.533052" style="fill: #daa520; stroke: #daa520"/>
     <use xlink:href="#m598ceee712" x="115.76912" y="217.319605" style="fill: #daa520; stroke: #daa520"/>
     <use xlink:href="#m598ceee712" x="145.181243" y="189.010422" style="fill: #daa520; stroke: #daa520"/>
     <use xlink:href="#m598ceee712" x="274.949125" y="203.581247" style="fill: #daa520; stroke: #daa520"/>
     <use xlink:href="#m598ceee712" x="62.227486" y="223.24378" style="fill: #daa520; stroke: #daa520"/>
     <use xlink:href="#m598ceee712" x="79.651205" y="240.052147" style="fill: #daa520; stroke: #daa520"/>
     <use xlink:href="#m598ceee712" x="73.101542" y="241.53952" style="fill: #daa520; stroke: #daa520"/>
     <use xlink:href="#m598ceee712" x="111.492418" y="245.644894" style="fill: #daa520; stroke: #daa520"/>
     <use xlink:href="#m598ceee712" x="105.50559" y="230.732207" style="fill: #daa520; stroke: #daa520"/>
     <use xlink:href="#m598ceee712" x="297.499475" y="228.624794" style="fill: #daa520; stroke: #daa520"/>
     <use xlink:href="#m598ceee712" x="57.321213" y="246.492812" style="fill: #daa520; stroke: #daa520"/>
     <use xlink:href="#m598ceee712" x="229.909059" y="208.509544" style="fill: #daa520; stroke: #daa520"/>
     <use xlink:href="#m598ceee712" x="75.192177" y="242.138147" style="fill: #daa520; stroke: #daa520"/>
     <use xlink:href="#m598ceee712" x="133.19668" y="240.069174" style="fill: #daa520; stroke: #daa520"/>
     <use xlink:href="#m598ceee712" x="356.936819" y="213.545626" style="fill: #daa520; stroke: #daa520"/>
     <use xlink:href="#m598ceee712" x="413.573303" y="213.717045" style="fill: #daa520; stroke: #daa520"/>
     <use xlink:href="#m598ceee712" x="211.494095" y="272.362182" style="fill: #daa520; stroke: #daa520"/>
     <use xlink:href="#m598ceee712" x="165.356577" y="230.130243" style="fill: #daa520; stroke: #daa520"/>
     <use xlink:href="#m598ceee712" x="99.896547" y="218.965525" style="fill: #daa520; stroke: #daa520"/>
     <use xlink:href="#m598ceee712" x="415.694176" y="206.819282" style="fill: #daa520; stroke: #daa520"/>
     <use xlink:href="#m598ceee712" x="123.247328" y="248.025603" style="fill: #daa520; stroke: #daa520"/>
     <use xlink:href="#m598ceee712" x="85.711099" y="234.861087" style="fill: #daa520; stroke: #daa520"/>
     <use xlink:href="#m598ceee712" x="124.553601" y="229.823452" style="fill: #daa520; stroke: #daa520"/>
     <use xlink:href="#m598ceee712" x="405.97271" y="216.155538" style="fill: #daa520; stroke: #daa520"/>
     <use xlink:href="#m598ceee712" x="73.855427" y="200.870163" style="fill: #daa520; stroke: #daa520"/>
     <use xlink:href="#m598ceee712" x="60.456735" y="229.073107" style="fill: #daa520; stroke: #daa520"/>
     <use xlink:href="#m598ceee712" x="148.198295" y="207.958244" style="fill: #daa520; stroke: #daa520"/>
     <use xlink:href="#m598ceee712" x="136.365305" y="246.646857" style="fill: #daa520; stroke: #daa520"/>
     <use xlink:href="#m598ceee712" x="194.059558" y="197.148866" style="fill: #daa520; stroke: #daa520"/>
     <use xlink:href="#m598ceee712" x="112.288094" y="205.423019" style="fill: #daa520; stroke: #daa520"/>
     <use xlink:href="#m598ceee712" x="154.267448" y="247.782716" style="fill: #daa520; stroke: #daa520"/>
     <use xlink:href="#m598ceee712" x="202.750815" y="207.149359" style="fill: #daa520; stroke: #daa520"/>
     <use xlink:href="#m598ceee712" x="93.483269" y="248.181212" style="fill: #daa520; stroke: #daa520"/>
     <use xlink:href="#m598ceee712" x="97.747615" y="188.876001" style="fill: #daa520; stroke: #daa520"/>
     <use xlink:href="#m598ceee712" x="64.452491" y="192.381551" style="fill: #daa520; stroke: #daa520"/>
     <use xlink:href="#m598ceee712" x="411.439216" y="232.548423" style="fill: #daa520; stroke: #daa520"/>
     <use xlink:href="#m598ceee712" x="192.251116" y="260.387821" style="fill: #daa520; stroke: #daa520"/>
     <use xlink:href="#m598ceee712" x="186.157161" y="259.701417" style="fill: #daa520; stroke: #daa520"/>
     <use xlink:href="#m598ceee712" x="279.13164" y="211.105989" style="fill: #daa520; stroke: #daa520"/>
     <use xlink:href="#m598ceee712" x="70.272627" y="248.484395" style="fill: #daa520; stroke: #daa520"/>
     <use xlink:href="#m598ceee712" x="82.81436" y="234.451412" style="fill: #daa520; stroke: #daa520"/>
     <use xlink:href="#m598ceee712" x="220.475602" y="212.637304" style="fill: #daa520; stroke: #daa520"/>
     <use xlink:href="#m598ceee712" x="95.288162" y="214.905033" style="fill: #daa520; stroke: #daa520"/>
     <use xlink:href="#m598ceee712" x="118.844053" y="225.215116" style="fill: #daa520; stroke: #daa520"/>
     <use xlink:href="#m598ceee712" x="195.970222" y="258.671605" style="fill: #daa520; stroke: #daa520"/>
     <use xlink:href="#m598ceee712" x="127.001011" y="247.445031" style="fill: #daa520; stroke: #daa520"/>
     <use xlink:href="#m598ceee712" x="76.746706" y="248.704046" style="fill: #daa520; stroke: #daa520"/>
     <use xlink:href="#m598ceee712" x="129.231561" y="234.394497" style="fill: #daa520; stroke: #daa520"/>
     <use xlink:href="#m598ceee712" x="149.753857" y="244.161911" style="fill: #daa520; stroke: #daa520"/>
     <use xlink:href="#m598ceee712" x="332.169704" y="207.878753" style="fill: #daa520; stroke: #daa520"/>
     <use xlink:href="#m598ceee712" x="383.542306" y="230.22745" style="fill: #daa520; stroke: #daa520"/>
     <use xlink:href="#m598ceee712" x="127.348266" y="238.893199" style="fill: #daa520; stroke: #daa520"/>
     <use xlink:href="#m598ceee712" x="104.188736" y="216.296888" style="fill: #daa520; stroke: #daa520"/>
     <use xlink:href="#m598ceee712" x="194.085669" y="203.815372" style="fill: #daa520; stroke: #daa520"/>
     <use xlink:href="#m598ceee712" x="251.903425" y="271.680442" style="fill: #daa520; stroke: #daa520"/>
     <use xlink:href="#m598ceee712" x="221.212299" y="207.774909" style="fill: #daa520; stroke: #daa520"/>
     <use xlink:href="#m598ceee712" x="57.584828" y="186.005818" style="fill: #daa520; stroke: #daa520"/>
     <use xlink:href="#m598ceee712" x="81.651029" y="229.751539" style="fill: #daa520; stroke: #daa520"/>
     <use xlink:href="#m598ceee712" x="125.613591" y="247.278201" style="fill: #daa520; stroke: #daa520"/>
     <use xlink:href="#m598ceee712" x="219.347992" y="207.606459" style="fill: #daa520; stroke: #daa520"/>
     <use xlink:href="#m598ceee712" x="349.49712" y="237.716377" style="fill: #daa520; stroke: #daa520"/>
     <use xlink:href="#m598ceee712" x="84.546715" y="245.954825" style="fill: #daa520; stroke: #daa520"/>
     <use xlink:href="#m598ceee712" x="177.645992" y="259.927341" style="fill: #daa520; stroke: #daa520"/>
     <use xlink:href="#m598ceee712" x="88.676943" y="244.976695" style="fill: #daa520; stroke: #daa520"/>
     <use xlink:href="#m598ceee712" x="388.513426" y="220.764053" style="fill: #daa520; stroke: #daa520"/>
     <use xlink:href="#m598ceee712" x="263.850711" y="206.358695" style="fill: #daa520; stroke: #daa520"/>
     <use xlink:href="#m598ceee712" x="70.685854" y="230.183315" style="fill: #daa520; stroke: #daa520"/>
     <use xlink:href="#m598ceee712" x="133.400041" y="247.233181" style="fill: #daa520; stroke: #daa520"/>
     <use xlink:href="#m598ceee712" x="60.927521" y="201.91908" style="fill: #daa520; stroke: #daa520"/>
     <use xlink:href="#m598ceee712" x="368.081489" y="229.965767" style="fill: #daa520; stroke: #daa520"/>
     <use xlink:href="#m598ceee712" x="80.811354" y="246.180343" style="fill: #daa520; stroke: #daa520"/>
     <use xlink:href="#m598ceee712" x="83.948325" y="241.717668" style="fill: #daa520; stroke: #daa520"/>
     <use xlink:href="#m598ceee712" x="138.504104" y="206.501865" style="fill: #daa520; stroke: #daa520"/>
     <use xlink:href="#m598ceee712" x="248.372905" y="269.451496" style="fill: #daa520; stroke: #daa520"/>
     <use xlink:href="#m598ceee712" x="86.798486" y="231.731307" style="fill: #daa520; stroke: #daa520"/>
     <use xlink:href="#m598ceee712" x="306.595053" y="213.301725" style="fill: #daa520; stroke: #daa520"/>
     <use xlink:href="#m598ceee712" x="84.214473" y="241.991765" style="fill: #daa520; stroke: #daa520"/>
     <use xlink:href="#m598ceee712" x="129.064423" y="217.364928" style="fill: #daa520; stroke: #daa520"/>
     <use xlink:href="#m598ceee712" x="76.45969" y="197.031102" style="fill: #daa520; stroke: #daa520"/>
    </g>
   </g>
   <g id="matplotlib.axis_5">
    <g id="xtick_1">
     <g id="line2d_9">
      <defs>
       <path id="m482b3ddaf9" d="M 0 0 
L 0 3.5 
" style="stroke: #696969; stroke-width: 0.8"/>
      </defs>
      <g>
       <use xlink:href="#m482b3ddaf9" x="55.888409" y="276.68" style="fill: #696969; stroke: #696969; stroke-width: 0.8"/>
      </g>
     </g>
     <g id="text_3">
      <!-- −1.0 -->
      <g style="fill: #696969" transform="translate(36.462159 295.8375) scale(0.16 -0.16)">
       <defs>
        <path id="DejaVuSans-2212" d="M 678 2272 
L 4684 2272 
L 4684 1741 
L 678 1741 
L 678 2272 
z
" transform="scale(0.015625)"/>
        <path id="DejaVuSans-31" d="M 794 531 
L 1825 531 
L 1825 4091 
L 703 3866 
L 703 4441 
L 1819 4666 
L 2450 4666 
L 2450 531 
L 3481 531 
L 3481 0 
L 794 0 
L 794 531 
z
" transform="scale(0.015625)"/>
        <path id="DejaVuSans-2e" d="M 684 794 
L 1344 794 
L 1344 0 
L 684 0 
L 684 794 
z
" transform="scale(0.015625)"/>
       </defs>
       <use xlink:href="#DejaVuSans-2212"/>
       <use xlink:href="#DejaVuSans-31" x="83.789062"/>
       <use xlink:href="#DejaVuSans-2e" x="147.412109"/>
       <use xlink:href="#DejaVuSans-30" x="179.199219"/>
      </g>
     </g>
    </g>
    <g id="xtick_2">
     <g id="line2d_10">
      <g>
       <use xlink:href="#m482b3ddaf9" x="146.392955" y="276.68" style="fill: #696969; stroke: #696969; stroke-width: 0.8"/>
      </g>
     </g>
     <g id="text_4">
      <!-- −0.5 -->
      <g style="fill: #696969" transform="translate(126.966705 295.8375) scale(0.16 -0.16)">
       <use xlink:href="#DejaVuSans-2212"/>
       <use xlink:href="#DejaVuSans-30" x="83.789062"/>
       <use xlink:href="#DejaVuSans-2e" x="147.412109"/>
       <use xlink:href="#DejaVuSans-35" x="179.199219"/>
      </g>
     </g>
    </g>
    <g id="xtick_3">
     <g id="line2d_11">
      <g>
       <use xlink:href="#m482b3ddaf9" x="236.8975" y="276.68" style="fill: #696969; stroke: #696969; stroke-width: 0.8"/>
      </g>
     </g>
     <g id="text_5">
      <!-- 0.0 -->
      <g style="fill: #696969" transform="translate(224.175 295.8375) scale(0.16 -0.16)">
       <use xlink:href="#DejaVuSans-30"/>
       <use xlink:href="#DejaVuSans-2e" x="63.623047"/>
       <use xlink:href="#DejaVuSans-30" x="95.410156"/>
      </g>
     </g>
    </g>
    <g id="xtick_4">
     <g id="line2d_12">
      <g>
       <use xlink:href="#m482b3ddaf9" x="327.402045" y="276.68" style="fill: #696969; stroke: #696969; stroke-width: 0.8"/>
      </g>
     </g>
     <g id="text_6">
      <!-- 0.5 -->
      <g style="fill: #696969" transform="translate(314.679545 295.8375) scale(0.16 -0.16)">
       <use xlink:href="#DejaVuSans-30"/>
       <use xlink:href="#DejaVuSans-2e" x="63.623047"/>
       <use xlink:href="#DejaVuSans-35" x="95.410156"/>
      </g>
     </g>
    </g>
    <g id="xtick_5">
     <g id="line2d_13">
      <g>
       <use xlink:href="#m482b3ddaf9" x="417.906591" y="276.68" style="fill: #696969; stroke: #696969; stroke-width: 0.8"/>
      </g>
     </g>
     <g id="text_7">
      <!-- 1.0 -->
      <g style="fill: #696969" transform="translate(405.184091 295.8375) scale(0.16 -0.16)">
       <use xlink:href="#DejaVuSans-31"/>
       <use xlink:href="#DejaVuSans-2e" x="63.623047"/>
       <use xlink:href="#DejaVuSans-30" x="95.410156"/>
      </g>
     </g>
    </g>
    <g id="text_8">
     <!-- $X$ -->
     <g transform="translate(231.3775 315.3225) scale(0.16 -0.16)">
      <defs>
       <path id="DejaVuSans-Oblique-58" d="M 878 4666 
L 1516 4666 
L 2316 2981 
L 3763 4666 
L 4500 4666 
L 2578 2438 
L 3738 0 
L 3103 0 
L 2163 1966 
L 459 0 
L -275 0 
L 1906 2509 
L 878 4666 
z
" transform="scale(0.015625)"/>
      </defs>
      <use xlink:href="#DejaVuSans-Oblique-58" transform="translate(0 0.09375)"/>
     </g>
    </g>
   </g>
   <g id="matplotlib.axis_6">
    <g id="ytick_3">
     <g id="line2d_14">
      <g>
       <use xlink:href="#m7e497d61ba" x="37.7875" y="254.199697" style="fill: #696969; stroke: #696969; stroke-width: 0.8"/>
      </g>
     </g>
     <g id="text_9">
      <!-- −5 -->
      <g style="fill: #696969" transform="translate(7.2 260.278447) scale(0.16 -0.16)">
       <use xlink:href="#DejaVuSans-2212"/>
       <use xlink:href="#DejaVuSans-35" x="83.789062"/>
      </g>
     </g>
    </g>
    <g id="ytick_4">
     <g id="line2d_15">
      <g>
       <use xlink:href="#m7e497d61ba" x="37.7875" y="216.329136" style="fill: #696969; stroke: #696969; stroke-width: 0.8"/>
      </g>
     </g>
     <g id="text_10">
      <!-- 0 -->
      <g style="fill: #696969" transform="translate(20.6075 222.407886) scale(0.16 -0.16)">
       <use xlink:href="#DejaVuSans-30"/>
      </g>
     </g>
    </g>
   </g>
   <g id="line2d_16">
    <path d="M 55.888409 220.383051 
L 63.128773 221.321065 
L 70.369136 222.279679 
L 77.6095 223.229766 
L 84.849864 224.141772 
L 92.090227 224.987843 
L 99.330591 225.744176 
L 106.570955 226.393497 
L 113.811318 226.927504 
L 121.051682 227.349029 
L 128.292045 227.673638 
L 135.532409 227.930177 
L 142.772773 228.159608 
L 150.013136 228.411317 
L 157.2535 228.736279 
L 164.493864 229.177231 
L 171.734227 229.757653 
L 178.974591 230.473101 
L 186.214955 231.288768 
L 193.455318 232.144864 
L 200.695682 232.967752 
L 207.936045 233.682698 
L 215.176409 234.224901 
L 222.416773 234.54747 
L 229.657136 234.625921 
L 236.8975 234.458774 
L 244.137864 234.064459 
L 251.378227 233.475661 
L 258.618591 232.732949 
L 265.858955 231.879123 
L 273.099318 230.955111 
L 280.339682 229.997328 
L 287.580045 229.03623 
L 294.820409 228.095613 
L 302.060773 227.192337 
L 309.301136 226.336326 
L 316.5415 225.530778 
L 323.781864 224.772576 
L 331.022227 224.052912 
L 338.262591 223.358247 
L 345.502955 222.671461 
L 352.743318 221.973291 
L 359.983682 221.243936 
L 367.224045 220.464749 
L 374.464409 219.619891 
L 381.704773 218.697847 
L 388.945136 217.692618 
L 396.1855 216.604582 
L 403.425864 215.440778 
L 410.666227 214.214735 
L 417.906591 212.945705 
" clip-path="url(#pfc816a177e)" style="fill: none; stroke: #696969; stroke-width: 2; stroke-linecap: square"/>
   </g>
   <g id="line2d_17">
    <path d="M 55.888409 222.957279 
L 63.128773 224.711534 
L 70.369136 226.230743 
L 77.6095 227.531189 
L 84.849864 228.628619 
L 92.090227 229.538243 
L 99.330591 230.274739 
L 106.570955 230.852247 
L 113.811318 231.284372 
L 121.051682 231.584186 
L 128.292045 231.764221 
L 135.532409 231.836479 
L 142.772773 231.812423 
L 150.013136 231.702981 
L 157.2535 231.518548 
L 164.493864 231.268982 
L 171.734227 230.963604 
L 178.974591 230.611203 
L 186.214955 230.22003 
L 193.455318 229.797802 
L 200.695682 229.351701 
L 207.936045 228.888372 
L 215.176409 228.413926 
L 222.416773 227.933939 
L 229.657136 227.45345 
L 236.8975 226.976964 
L 244.137864 226.50845 
L 251.378227 226.051341 
L 258.618591 225.608538 
L 265.858955 225.182402 
L 273.099318 224.774762 
L 280.339682 224.38691 
L 287.580045 224.019603 
L 294.820409 223.673064 
L 302.060773 223.346978 
L 309.301136 223.040497 
L 316.5415 222.752236 
L 323.781864 222.480276 
L 331.022227 222.222162 
L 338.262591 221.974904 
L 345.502955 221.734976 
L 352.743318 221.498317 
L 359.983682 221.260331 
L 367.224045 221.015886 
L 374.464409 220.759315 
L 381.704773 220.484416 
L 388.945136 220.184451 
L 396.1855 219.852147 
L 403.425864 219.479696 
L 410.666227 219.058754 
L 417.906591 218.580441 
" clip-path="url(#pfc816a177e)" style="fill: none; stroke-dasharray: 7.4,3.2; stroke-dashoffset: 0; stroke: #79ad41; stroke-width: 2"/>
   </g>
   <g id="patch_9">
    <path d="M 37.7875 276.68 
L 37.7875 181.688 
" style="fill: none; stroke: #000000; stroke-width: 0.8; stroke-linejoin: miter; stroke-linecap: square"/>
   </g>
   <g id="patch_10">
    <path d="M 436.0075 276.68 
L 436.0075 181.688 
" style="fill: none; stroke: #000000; stroke-width: 0.8; stroke-linejoin: miter; stroke-linecap: square"/>
   </g>
   <g id="patch_11">
    <path d="M 37.7875 276.68 
L 436.0075 276.68 
" style="fill: none; stroke: #000000; stroke-width: 0.8; stroke-linejoin: miter; stroke-linecap: square"/>
   </g>
   <g id="patch_12">
    <path d="M 37.7875 181.688 
L 436.0075 181.688 
" style="fill: none; stroke: #000000; stroke-width: 0.8; stroke-linejoin: miter; stroke-linecap: square"/>
   </g>
  </g>
 </g>
 <defs>
  <clipPath id="p93297e22f7">
   <rect x="37.7875" y="7.2" width="398.22" height="47.496"/>
  </clipPath>
  <clipPath id="p0b782103e6">
   <rect x="37.7875" y="70.696" width="398.22" height="94.992"/>
  </clipPath>
  <clipPath id="pfc816a177e">
   <rect x="37.7875" y="181.688" width="398.22" height="94.992"/>
  </clipPath>
 </defs>
</svg>
