<?xml version="1.0" encoding="utf-8" standalone="no"?>
<!DOCTYPE svg PUBLIC "-//W3C//DTD SVG 1.1//EN"
  "http://www.w3.org/Graphics/SVG/1.1/DTD/svg11.dtd">
<svg xmlns:xlink="http://www.w3.org/1999/xlink" width="443.2075pt" height="325.85pt" viewBox="0 0 443.2075 325.85" xmlns="http://www.w3.org/2000/svg" version="1.1">
 <metadata>
  <rdf:RDF xmlns:dc="http://purl.org/dc/elements/1.1/" xmlns:cc="http://creativecommons.org/ns#" xmlns:rdf="http://www.w3.org/1999/02/22-rdf-syntax-ns#">
   <cc:Work>
    <dc:type rdf:resource="http://purl.org/dc/dcmitype/StillImage"/>
    <dc:date>2024-01-28T20:51:41.602097</dc:date>
    <dc:format>image/svg+xml</dc:format>
    <dc:creator>
     <cc:Agent>
      <dc:title>Matplotlib v3.7.2, https://matplotlib.org/</dc:title>
     </cc:Agent>
    </dc:creator>
   </cc:Work>
  </rdf:RDF>
 </metadata>
 <defs>
  <style type="text/css">*{stroke-linejoin: round; stroke-linecap: butt}</style>
 </defs>
 <g id="figure_1">
  <g id="patch_1">
   <path d="M 0 325.85 
L 443.2075 325.85 
L 443.2075 0 
L 0 0 
z
" style="fill: #ffffff"/>
  </g>
  <g id="axes_1">
   <g id="patch_2">
    <path d="M 37.7875 54.696 
L 436.0075 54.696 
L 436.0075 7.2 
L 37.7875 7.2 
z
" style="fill: #ffffff"/>
   </g>
   <g id="PolyCollection_1">
    <defs>
     <path id="m7adcc6fe3a" d="M 55.888409 -273.312909 
L 55.888409 -311.503243 
L 63.128773 -310.85875 
L 70.369136 -310.135492 
L 77.6095 -309.328427 
L 84.849864 -308.433033 
L 92.090227 -307.445672 
L 99.330591 -306.364094 
L 106.570955 -305.187958 
L 113.811318 -303.919375 
L 121.051682 -302.563392 
L 128.292045 -301.128386 
L 135.532409 -299.62622 
L 142.772773 -298.072182 
L 150.013136 -296.484526 
L 157.2535 -294.88373 
L 164.493864 -293.291501 
L 171.734227 -291.729535 
L 178.974591 -290.21828 
L 186.214955 -288.775856 
L 193.455318 -287.417161 
L 200.695682 -286.153387 
L 207.936045 -284.991843 
L 215.176409 -283.936145 
L 222.416773 -282.986639 
L 229.657136 -282.14099 
L 236.8975 -281.394854 
L 244.137864 -280.7425 
L 251.378227 -280.177417 
L 258.618591 -279.692789 
L 265.858955 -279.281884 
L 273.099318 -278.938331 
L 280.339682 -278.656318 
L 287.580045 -278.430717 
L 294.820409 -278.257138 
L 302.060773 -278.131962 
L 309.301136 -278.110485 
L 316.5415 -278.110485 
L 323.781864 -278.110485 
L 331.022227 -278.110485 
L 338.262591 -278.157289 
L 345.502955 -278.287066 
L 352.743318 -278.459297 
L 359.983682 -278.675298 
L 367.224045 -278.936731 
L 374.464409 -279.245476 
L 381.704773 -279.603543 
L 388.945136 -280.012922 
L 396.1855 -280.475449 
L 403.425864 -280.99264 
L 410.666227 -281.565532 
L 417.906591 -282.194527 
L 417.906591 -273.312909 
L 417.906591 -273.312909 
L 410.666227 -273.312909 
L 403.425864 -273.312909 
L 396.1855 -273.312909 
L 388.945136 -273.312909 
L 381.704773 -273.312909 
L 374.464409 -273.312909 
L 367.224045 -273.312909 
L 359.983682 -273.312909 
L 352.743318 -273.312909 
L 345.502955 -273.312909 
L 338.262591 -273.312909 
L 331.022227 -273.312909 
L 323.781864 -273.312909 
L 316.5415 -273.312909 
L 309.301136 -273.312909 
L 302.060773 -273.312909 
L 294.820409 -273.312909 
L 287.580045 -273.312909 
L 280.339682 -273.312909 
L 273.099318 -273.312909 
L 265.858955 -273.312909 
L 258.618591 -273.312909 
L 251.378227 -273.312909 
L 244.137864 -273.312909 
L 236.8975 -273.312909 
L 229.657136 -273.312909 
L 222.416773 -273.312909 
L 215.176409 -273.312909 
L 207.936045 -273.312909 
L 200.695682 -273.312909 
L 193.455318 -273.312909 
L 186.214955 -273.312909 
L 178.974591 -273.312909 
L 171.734227 -273.312909 
L 164.493864 -273.312909 
L 157.2535 -273.312909 
L 150.013136 -273.312909 
L 142.772773 -273.312909 
L 135.532409 -273.312909 
L 128.292045 -273.312909 
L 121.051682 -273.312909 
L 113.811318 -273.312909 
L 106.570955 -273.312909 
L 99.330591 -273.312909 
L 92.090227 -273.312909 
L 84.849864 -273.312909 
L 77.6095 -273.312909 
L 70.369136 -273.312909 
L 63.128773 -273.312909 
L 55.888409 -273.312909 
z
" style="stroke: #dc143c; stroke-opacity: 0.2"/>
    </defs>
    <g clip-path="url(#pc890aabb99)">
     <use xlink:href="#m7adcc6fe3a" x="0" y="325.85" style="fill: #dc143c; fill-opacity: 0.2; stroke: #dc143c; stroke-opacity: 0.2"/>
    </g>
   </g>
   <g id="PolyCollection_2">
    <defs>
     <path id="mb8a7e4ad1a" d="M 55.888409 -273.312909 
L 55.888409 -283.098333 
L 63.128773 -283.742825 
L 70.369136 -284.466084 
L 77.6095 -285.273148 
L 84.849864 -286.168543 
L 92.090227 -287.155903 
L 99.330591 -288.237482 
L 106.570955 -289.413618 
L 113.811318 -290.682201 
L 121.051682 -292.038184 
L 128.292045 -293.47319 
L 135.532409 -294.975355 
L 142.772773 -296.529394 
L 150.013136 -298.11705 
L 157.2535 -299.717846 
L 164.493864 -301.310074 
L 171.734227 -302.872041 
L 178.974591 -304.383296 
L 186.214955 -305.82572 
L 193.455318 -307.184414 
L 200.695682 -308.448189 
L 207.936045 -309.609733 
L 215.176409 -310.665431 
L 222.416773 -311.614936 
L 229.657136 -312.460585 
L 236.8975 -313.206722 
L 244.137864 -313.859076 
L 251.378227 -314.424159 
L 258.618591 -314.908787 
L 265.858955 -315.319692 
L 273.099318 -315.663245 
L 280.339682 -315.945257 
L 287.580045 -316.170859 
L 294.820409 -316.344438 
L 302.060773 -316.469614 
L 309.301136 -316.491091 
L 316.5415 -316.491091 
L 323.781864 -316.491091 
L 331.022227 -316.491091 
L 338.262591 -316.444287 
L 345.502955 -316.314509 
L 352.743318 -316.142279 
L 359.983682 -315.926278 
L 367.224045 -315.664845 
L 374.464409 -315.3561 
L 381.704773 -314.998033 
L 388.945136 -314.588653 
L 396.1855 -314.126127 
L 403.425864 -313.608936 
L 410.666227 -313.036044 
L 417.906591 -312.407049 
L 417.906591 -273.312909 
L 417.906591 -273.312909 
L 410.666227 -273.312909 
L 403.425864 -273.312909 
L 396.1855 -273.312909 
L 388.945136 -273.312909 
L 381.704773 -273.312909 
L 374.464409 -273.312909 
L 367.224045 -273.312909 
L 359.983682 -273.312909 
L 352.743318 -273.312909 
L 345.502955 -273.312909 
L 338.262591 -273.312909 
L 331.022227 -273.312909 
L 323.781864 -273.312909 
L 316.5415 -273.312909 
L 309.301136 -273.312909 
L 302.060773 -273.312909 
L 294.820409 -273.312909 
L 287.580045 -273.312909 
L 280.339682 -273.312909 
L 273.099318 -273.312909 
L 265.858955 -273.312909 
L 258.618591 -273.312909 
L 251.378227 -273.312909 
L 244.137864 -273.312909 
L 236.8975 -273.312909 
L 229.657136 -273.312909 
L 222.416773 -273.312909 
L 215.176409 -273.312909 
L 207.936045 -273.312909 
L 200.695682 -273.312909 
L 193.455318 -273.312909 
L 186.214955 -273.312909 
L 178.974591 -273.312909 
L 171.734227 -273.312909 
L 164.493864 -273.312909 
L 157.2535 -273.312909 
L 150.013136 -273.312909 
L 142.772773 -273.312909 
L 135.532409 -273.312909 
L 128.292045 -273.312909 
L 121.051682 -273.312909 
L 113.811318 -273.312909 
L 106.570955 -273.312909 
L 99.330591 -273.312909 
L 92.090227 -273.312909 
L 84.849864 -273.312909 
L 77.6095 -273.312909 
L 70.369136 -273.312909 
L 63.128773 -273.312909 
L 55.888409 -273.312909 
z
" style="stroke: #000080; stroke-opacity: 0.2"/>
    </defs>
    <g clip-path="url(#pc890aabb99)">
     <use xlink:href="#mb8a7e4ad1a" x="0" y="325.85" style="fill: #000080; fill-opacity: 0.2; stroke: #000080; stroke-opacity: 0.2"/>
    </g>
   </g>
   <g id="matplotlib.axis_1"/>
   <g id="matplotlib.axis_2"/>
   <g id="line2d_1">
    <path d="M 55.888409 14.346757 
L 63.128773 14.99125 
L 70.369136 15.714508 
L 77.6095 16.521573 
L 84.849864 17.416967 
L 92.090227 18.404328 
L 99.330591 19.485906 
L 106.570955 20.662042 
L 113.811318 21.930625 
L 121.051682 23.286608 
L 128.292045 24.721614 
L 135.532409 26.22378 
L 142.772773 27.777818 
L 150.013136 29.365474 
L 157.2535 30.96627 
L 164.493864 32.558499 
L 171.734227 34.120465 
L 178.974591 35.63172 
L 186.214955 37.074144 
L 193.455318 38.432839 
L 200.695682 39.696613 
L 207.936045 40.858157 
L 215.176409 41.913855 
L 222.416773 42.863361 
L 229.657136 43.70901 
L 236.8975 44.455146 
L 244.137864 45.1075 
L 251.378227 45.672583 
L 258.618591 46.157211 
L 265.858955 46.568116 
L 273.099318 46.911669 
L 280.339682 47.193682 
L 287.580045 47.419283 
L 294.820409 47.592862 
L 302.060773 47.718038 
L 309.301136 47.739515 
L 316.5415 47.739515 
L 323.781864 47.739515 
L 331.022227 47.739515 
L 338.262591 47.692711 
L 345.502955 47.562934 
L 352.743318 47.390703 
L 359.983682 47.174702 
L 367.224045 46.913269 
L 374.464409 46.604524 
L 381.704773 46.246457 
L 388.945136 45.837078 
L 396.1855 45.374551 
L 403.425864 44.85736 
L 410.666227 44.284468 
L 417.906591 43.655473 
" clip-path="url(#pc890aabb99)" style="fill: none; stroke: #dc143c; stroke-width: 1.5; stroke-linecap: square"/>
   </g>
   <g id="line2d_2">
    <path d="M 55.888409 42.751667 
L 63.128773 42.107175 
L 70.369136 41.383916 
L 77.6095 40.576852 
L 84.849864 39.681457 
L 92.090227 38.694097 
L 99.330591 37.612518 
L 106.570955 36.436382 
L 113.811318 35.167799 
L 121.051682 33.811816 
L 128.292045 32.37681 
L 135.532409 30.874645 
L 142.772773 29.320606 
L 150.013136 27.73295 
L 157.2535 26.132154 
L 164.493864 24.539926 
L 171.734227 22.977959 
L 178.974591 21.466704 
L 186.214955 20.02428 
L 193.455318 18.665586 
L 200.695682 17.401811 
L 207.936045 16.240267 
L 215.176409 15.184569 
L 222.416773 14.235064 
L 229.657136 13.389415 
L 236.8975 12.643278 
L 244.137864 11.990924 
L 251.378227 11.425841 
L 258.618591 10.941213 
L 265.858955 10.530308 
L 273.099318 10.186755 
L 280.339682 9.904743 
L 287.580045 9.679141 
L 294.820409 9.505562 
L 302.060773 9.380386 
L 309.301136 9.358909 
L 316.5415 9.358909 
L 323.781864 9.358909 
L 331.022227 9.358909 
L 338.262591 9.405713 
L 345.502955 9.535491 
L 352.743318 9.707721 
L 359.983682 9.923722 
L 367.224045 10.185155 
L 374.464409 10.4939 
L 381.704773 10.851967 
L 388.945136 11.261347 
L 396.1855 11.723873 
L 403.425864 12.241064 
L 410.666227 12.813956 
L 417.906591 13.442951 
" clip-path="url(#pc890aabb99)" style="fill: none; stroke: #000080; stroke-width: 1.5; stroke-linecap: square"/>
   </g>
  </g>
  <g id="axes_2">
   <g id="patch_3">
    <path d="M 37.7875 165.688 
L 436.0075 165.688 
L 436.0075 70.696 
L 37.7875 70.696 
z
" style="fill: #ffffff"/>
   </g>
   <g id="PathCollection_1">
    <defs>
     <path id="mc082c1fe72" d="M 0 0.866025 
C 0.229673 0.866025 0.449969 0.774776 0.612372 0.612372 
C 0.774776 0.449969 0.866025 0.229673 0.866025 0 
C 0.866025 -0.229673 0.774776 -0.449969 0.612372 -0.612372 
C 0.449969 -0.774776 0.229673 -0.866025 0 -0.866025 
C -0.229673 -0.866025 -0.449969 -0.774776 -0.612372 -0.612372 
C -0.774776 -0.449969 -0.866025 -0.229673 -0.866025 0 
C -0.866025 0.229673 -0.774776 0.449969 -0.612372 0.612372 
C -0.449969 0.774776 -0.229673 0.866025 0 0.866025 
z
" style="stroke: #daa520"/>
    </defs>
    <g clip-path="url(#p1315577171)">
     <use xlink:href="#mc082c1fe72" x="67.652837" y="141.219124" style="fill: #daa520; stroke: #daa520"/>
     <use xlink:href="#mc082c1fe72" x="159.910988" y="138.246053" style="fill: #daa520; stroke: #daa520"/>
     <use xlink:href="#mc082c1fe72" x="63.216331" y="83.305939" style="fill: #daa520; stroke: #daa520"/>
     <use xlink:href="#mc082c1fe72" x="61.08272" y="114.157878" style="fill: #daa520; stroke: #daa520"/>
     <use xlink:href="#mc082c1fe72" x="65.166676" y="146.531982" style="fill: #daa520; stroke: #daa520"/>
     <use xlink:href="#mc082c1fe72" x="289.424168" y="158.398424" style="fill: #daa520; stroke: #daa520"/>
     <use xlink:href="#mc082c1fe72" x="128.27106" y="84.941271" style="fill: #daa520; stroke: #daa520"/>
     <use xlink:href="#mc082c1fe72" x="106.790036" y="138.938089" style="fill: #daa520; stroke: #daa520"/>
     <use xlink:href="#mc082c1fe72" x="246.524422" y="157.018912" style="fill: #daa520; stroke: #daa520"/>
     <use xlink:href="#mc082c1fe72" x="139.583322" y="123.763186" style="fill: #daa520; stroke: #daa520"/>
     <use xlink:href="#mc082c1fe72" x="371.69937" y="125.799149" style="fill: #daa520; stroke: #daa520"/>
     <use xlink:href="#mc082c1fe72" x="285.109144" y="160.087281" style="fill: #daa520; stroke: #daa520"/>
     <use xlink:href="#mc082c1fe72" x="59.760709" y="113.893379" style="fill: #daa520; stroke: #daa520"/>
     <use xlink:href="#mc082c1fe72" x="264.238962" y="151.911526" style="fill: #daa520; stroke: #daa520"/>
     <use xlink:href="#mc082c1fe72" x="266.054201" y="160.280436" style="fill: #daa520; stroke: #daa520"/>
     <use xlink:href="#mc082c1fe72" x="107.282282" y="136.404038" style="fill: #daa520; stroke: #daa520"/>
     <use xlink:href="#mc082c1fe72" x="367.016983" y="137.129488" style="fill: #daa520; stroke: #daa520"/>
     <use xlink:href="#mc082c1fe72" x="360.723481" y="121.089271" style="fill: #daa520; stroke: #daa520"/>
     <use xlink:href="#mc082c1fe72" x="174.29495" y="107.600553" style="fill: #daa520; stroke: #daa520"/>
     <use xlink:href="#mc082c1fe72" x="409.84218" y="142.387605" style="fill: #daa520; stroke: #daa520"/>
     <use xlink:href="#mc082c1fe72" x="124.258403" y="145.140317" style="fill: #daa520; stroke: #daa520"/>
     <use xlink:href="#mc082c1fe72" x="166.125807" y="117.60393" style="fill: #daa520; stroke: #daa520"/>
     <use xlink:href="#mc082c1fe72" x="72.252259" y="107.196895" style="fill: #daa520; stroke: #daa520"/>
     <use xlink:href="#mc082c1fe72" x="307.693773" y="143.400461" style="fill: #daa520; stroke: #daa520"/>
     <use xlink:href="#mc082c1fe72" x="136.009139" y="101.278948" style="fill: #daa520; stroke: #daa520"/>
     <use xlink:href="#mc082c1fe72" x="94.665748" y="104.909663" style="fill: #daa520; stroke: #daa520"/>
     <use xlink:href="#mc082c1fe72" x="192.912571" y="146.538008" style="fill: #daa520; stroke: #daa520"/>
     <use xlink:href="#mc082c1fe72" x="72.3894" y="132.516476" style="fill: #daa520; stroke: #daa520"/>
     <use xlink:href="#mc082c1fe72" x="68.96417" y="109.737682" style="fill: #daa520; stroke: #daa520"/>
     <use xlink:href="#mc082c1fe72" x="127.584779" y="122.778279" style="fill: #daa520; stroke: #daa520"/>
     <use xlink:href="#mc082c1fe72" x="405.27387" y="139.699205" style="fill: #daa520; stroke: #daa520"/>
     <use xlink:href="#mc082c1fe72" x="189.329295" y="121.843131" style="fill: #daa520; stroke: #daa520"/>
     <use xlink:href="#mc082c1fe72" x="109.403319" y="88.246989" style="fill: #daa520; stroke: #daa520"/>
     <use xlink:href="#mc082c1fe72" x="85.576533" y="123.041587" style="fill: #daa520; stroke: #daa520"/>
     <use xlink:href="#mc082c1fe72" x="231.967387" y="152.615123" style="fill: #daa520; stroke: #daa520"/>
     <use xlink:href="#mc082c1fe72" x="191.288674" y="101.049316" style="fill: #daa520; stroke: #daa520"/>
     <use xlink:href="#mc082c1fe72" x="80.885325" y="106.468437" style="fill: #daa520; stroke: #daa520"/>
     <use xlink:href="#mc082c1fe72" x="91.662289" y="124.881271" style="fill: #daa520; stroke: #daa520"/>
     <use xlink:href="#mc082c1fe72" x="102.995434" y="152.019749" style="fill: #daa520; stroke: #daa520"/>
     <use xlink:href="#mc082c1fe72" x="411.726366" y="145.648268" style="fill: #daa520; stroke: #daa520"/>
     <use xlink:href="#mc082c1fe72" x="99.956133" y="91.967243" style="fill: #daa520; stroke: #daa520"/>
     <use xlink:href="#mc082c1fe72" x="111.234338" y="82.589754" style="fill: #daa520; stroke: #daa520"/>
     <use xlink:href="#mc082c1fe72" x="158.327074" y="83.809537" style="fill: #daa520; stroke: #daa520"/>
     <use xlink:href="#mc082c1fe72" x="235.873092" y="133.147938" style="fill: #daa520; stroke: #daa520"/>
     <use xlink:href="#mc082c1fe72" x="78.610154" y="121.56909" style="fill: #daa520; stroke: #daa520"/>
     <use xlink:href="#mc082c1fe72" x="117.480224" y="85.140334" style="fill: #daa520; stroke: #daa520"/>
     <use xlink:href="#mc082c1fe72" x="94.681865" y="86.542082" style="fill: #daa520; stroke: #daa520"/>
     <use xlink:href="#mc082c1fe72" x="131.702928" y="86.058222" style="fill: #daa520; stroke: #daa520"/>
     <use xlink:href="#mc082c1fe72" x="80.514855" y="87.326773" style="fill: #daa520; stroke: #daa520"/>
     <use xlink:href="#mc082c1fe72" x="62.532098" y="141.30786" style="fill: #daa520; stroke: #daa520"/>
     <use xlink:href="#mc082c1fe72" x="116.911051" y="117.953399" style="fill: #daa520; stroke: #daa520"/>
     <use xlink:href="#mc082c1fe72" x="73.886935" y="110.673" style="fill: #daa520; stroke: #daa520"/>
     <use xlink:href="#mc082c1fe72" x="155.107549" y="84.786994" style="fill: #daa520; stroke: #daa520"/>
     <use xlink:href="#mc082c1fe72" x="65.747846" y="109.496213" style="fill: #daa520; stroke: #daa520"/>
     <use xlink:href="#mc082c1fe72" x="167.438069" y="81.926909" style="fill: #daa520; stroke: #daa520"/>
     <use xlink:href="#mc082c1fe72" x="66.246225" y="89.174782" style="fill: #daa520; stroke: #daa520"/>
     <use xlink:href="#mc082c1fe72" x="165.093414" y="149.781732" style="fill: #daa520; stroke: #daa520"/>
     <use xlink:href="#mc082c1fe72" x="288.839689" y="161.370182" style="fill: #daa520; stroke: #daa520"/>
     <use xlink:href="#mc082c1fe72" x="93.770319" y="85.942365" style="fill: #daa520; stroke: #daa520"/>
     <use xlink:href="#mc082c1fe72" x="312.68815" y="148.736646" style="fill: #daa520; stroke: #daa520"/>
     <use xlink:href="#mc082c1fe72" x="70.869954" y="146.561225" style="fill: #daa520; stroke: #daa520"/>
     <use xlink:href="#mc082c1fe72" x="107.889891" y="86.565469" style="fill: #daa520; stroke: #daa520"/>
     <use xlink:href="#mc082c1fe72" x="65.00368" y="102.56747" style="fill: #daa520; stroke: #daa520"/>
     <use xlink:href="#mc082c1fe72" x="112.288094" y="130.109913" style="fill: #daa520; stroke: #daa520"/>
     <use xlink:href="#mc082c1fe72" x="197.76113" y="104.091657" style="fill: #daa520; stroke: #daa520"/>
     <use xlink:href="#mc082c1fe72" x="56.68928" y="85.436652" style="fill: #daa520; stroke: #daa520"/>
     <use xlink:href="#mc082c1fe72" x="163.213473" y="139.255055" style="fill: #daa520; stroke: #daa520"/>
     <use xlink:href="#mc082c1fe72" x="303.739135" y="159.313428" style="fill: #daa520; stroke: #daa520"/>
     <use xlink:href="#mc082c1fe72" x="163.70933" y="86.976838" style="fill: #daa520; stroke: #daa520"/>
     <use xlink:href="#mc082c1fe72" x="70.66681" y="84.896313" style="fill: #daa520; stroke: #daa520"/>
     <use xlink:href="#mc082c1fe72" x="106.58124" y="97.750835" style="fill: #daa520; stroke: #daa520"/>
     <use xlink:href="#mc082c1fe72" x="90.553623" y="93.814381" style="fill: #daa520; stroke: #daa520"/>
     <use xlink:href="#mc082c1fe72" x="71.008401" y="150.923705" style="fill: #daa520; stroke: #daa520"/>
     <use xlink:href="#mc082c1fe72" x="144.228147" y="123.973381" style="fill: #daa520; stroke: #daa520"/>
     <use xlink:href="#mc082c1fe72" x="102.297559" y="81.68276" style="fill: #daa520; stroke: #daa520"/>
     <use xlink:href="#mc082c1fe72" x="146.457664" y="85.405096" style="fill: #daa520; stroke: #daa520"/>
     <use xlink:href="#mc082c1fe72" x="57.780034" y="96.107478" style="fill: #daa520; stroke: #daa520"/>
     <use xlink:href="#mc082c1fe72" x="337.252989" y="157.419541" style="fill: #daa520; stroke: #daa520"/>
     <use xlink:href="#mc082c1fe72" x="63.986641" y="106.897536" style="fill: #daa520; stroke: #daa520"/>
     <use xlink:href="#mc082c1fe72" x="404.704065" y="140.345411" style="fill: #daa520; stroke: #daa520"/>
     <use xlink:href="#mc082c1fe72" x="113.543093" y="92.086023" style="fill: #daa520; stroke: #daa520"/>
     <use xlink:href="#mc082c1fe72" x="376.850248" y="151.438888" style="fill: #daa520; stroke: #daa520"/>
     <use xlink:href="#mc082c1fe72" x="215.723906" y="77.37724" style="fill: #daa520; stroke: #daa520"/>
     <use xlink:href="#mc082c1fe72" x="416.424343" y="149.18005" style="fill: #daa520; stroke: #daa520"/>
     <use xlink:href="#mc082c1fe72" x="67.98193" y="94.093989" style="fill: #daa520; stroke: #daa520"/>
     <use xlink:href="#mc082c1fe72" x="104.561605" y="148.489006" style="fill: #daa520; stroke: #daa520"/>
     <use xlink:href="#mc082c1fe72" x="80.620653" y="80.755196" style="fill: #daa520; stroke: #daa520"/>
     <use xlink:href="#mc082c1fe72" x="108.288861" y="113.527877" style="fill: #daa520; stroke: #daa520"/>
     <use xlink:href="#mc082c1fe72" x="206.045508" y="75.013818" style="fill: #daa520; stroke: #daa520"/>
     <use xlink:href="#mc082c1fe72" x="175.151188" y="98.243188" style="fill: #daa520; stroke: #daa520"/>
     <use xlink:href="#mc082c1fe72" x="135.129229" y="84.860763" style="fill: #daa520; stroke: #daa520"/>
     <use xlink:href="#mc082c1fe72" x="324.324768" y="146.971854" style="fill: #daa520; stroke: #daa520"/>
     <use xlink:href="#mc082c1fe72" x="166.141494" y="117.198126" style="fill: #daa520; stroke: #daa520"/>
     <use xlink:href="#mc082c1fe72" x="101.091264" y="152.287166" style="fill: #daa520; stroke: #daa520"/>
     <use xlink:href="#mc082c1fe72" x="119.45833" y="82.180158" style="fill: #daa520; stroke: #daa520"/>
     <use xlink:href="#mc082c1fe72" x="394.343008" y="136.827533" style="fill: #daa520; stroke: #daa520"/>
     <use xlink:href="#mc082c1fe72" x="177.658987" y="124.912243" style="fill: #daa520; stroke: #daa520"/>
     <use xlink:href="#mc082c1fe72" x="386.167777" y="124.205619" style="fill: #daa520; stroke: #daa520"/>
     <use xlink:href="#mc082c1fe72" x="108.818145" y="130.880435" style="fill: #daa520; stroke: #daa520"/>
     <use xlink:href="#mc082c1fe72" x="94.922613" y="101.244026" style="fill: #daa520; stroke: #daa520"/>
     <use xlink:href="#mc082c1fe72" x="417.389538" y="146.232778" style="fill: #daa520; stroke: #daa520"/>
    </g>
   </g>
   <g id="matplotlib.axis_3"/>
   <g id="matplotlib.axis_4">
    <g id="ytick_1">
     <g id="line2d_3">
      <defs>
       <path id="m423f3bd822" d="M 0 0 
L -3.5 0 
" style="stroke: #696969; stroke-width: 0.8"/>
      </defs>
      <g>
       <use xlink:href="#m423f3bd822" x="37.7875" y="132.205219" style="fill: #696969; stroke: #696969; stroke-width: 0.8"/>
      </g>
     </g>
     <g id="text_1">
      <!-- 0 -->
      <g style="fill: #696969" transform="translate(20.6075 138.283969) scale(0.16 -0.16)">
       <defs>
        <path id="DejaVuSans-30" d="M 2034 4250 
Q 1547 4250 1301 3770 
Q 1056 3291 1056 2328 
Q 1056 1369 1301 889 
Q 1547 409 2034 409 
Q 2525 409 2770 889 
Q 3016 1369 3016 2328 
Q 3016 3291 2770 3770 
Q 2525 4250 2034 4250 
z
M 2034 4750 
Q 2819 4750 3233 4129 
Q 3647 3509 3647 2328 
Q 3647 1150 3233 529 
Q 2819 -91 2034 -91 
Q 1250 -91 836 529 
Q 422 1150 422 2328 
Q 422 3509 836 4129 
Q 1250 4750 2034 4750 
z
" transform="scale(0.015625)"/>
       </defs>
       <use xlink:href="#DejaVuSans-30"/>
      </g>
     </g>
    </g>
    <g id="ytick_2">
     <g id="line2d_4">
      <g>
       <use xlink:href="#m423f3bd822" x="37.7875" y="89.995909" style="fill: #696969; stroke: #696969; stroke-width: 0.8"/>
      </g>
     </g>
     <g id="text_2">
      <!-- 5 -->
      <g style="fill: #696969" transform="translate(20.6075 96.074659) scale(0.16 -0.16)">
       <defs>
        <path id="DejaVuSans-35" d="M 691 4666 
L 3169 4666 
L 3169 4134 
L 1269 4134 
L 1269 2991 
Q 1406 3038 1543 3061 
Q 1681 3084 1819 3084 
Q 2600 3084 3056 2656 
Q 3513 2228 3513 1497 
Q 3513 744 3044 326 
Q 2575 -91 1722 -91 
Q 1428 -91 1123 -41 
Q 819 9 494 109 
L 494 744 
Q 775 591 1075 516 
Q 1375 441 1709 441 
Q 2250 441 2565 725 
Q 2881 1009 2881 1497 
Q 2881 1984 2565 2268 
Q 2250 2553 1709 2553 
Q 1456 2553 1204 2497 
Q 953 2441 691 2322 
L 691 4666 
z
" transform="scale(0.015625)"/>
       </defs>
       <use xlink:href="#DejaVuSans-35"/>
      </g>
     </g>
    </g>
   </g>
   <g id="line2d_5">
    <path d="M 55.888409 114.132456 
L 63.128773 112.899581 
L 70.369136 111.65892 
L 77.6095 110.447736 
L 84.849864 109.305243 
L 92.090227 108.270745 
L 99.330591 107.381681 
L 106.570955 106.671672 
L 113.811318 106.168749 
L 121.051682 105.893905 
L 128.292045 105.860078 
L 135.532409 106.071664 
L 142.772773 106.524558 
L 150.013136 107.206761 
L 157.2535 108.099426 
L 164.493864 109.178287 
L 171.734227 110.415311 
L 178.974591 111.780404 
L 186.214955 113.243045 
L 193.455318 114.773698 
L 200.695682 116.344908 
L 207.936045 117.932002 
L 215.176409 119.513414 
L 222.416773 121.070667 
L 229.657136 122.588044 
L 236.8975 124.052124 
L 244.137864 125.451247 
L 251.378227 126.775057 
L 258.618591 128.014175 
L 265.858955 129.160147 
L 273.099318 130.205582 
L 280.339682 131.1446 
L 287.580045 131.97341 
L 294.820409 132.691015 
L 302.060773 133.299929 
L 309.301136 133.806767 
L 316.5415 134.222617 
L 323.781864 134.563112 
L 331.022227 134.848166 
L 338.262591 135.101238 
L 345.502955 135.348308 
L 352.743318 135.616476 
L 359.983682 135.932329 
L 367.224045 136.32019 
L 374.464409 136.800388 
L 381.704773 137.387689 
L 388.945136 138.090051 
L 396.1855 138.90778 
L 403.425864 139.833291 
L 410.666227 140.851385 
L 417.906591 141.940185 
" clip-path="url(#p1315577171)" style="fill: none; stroke: #000000; stroke-width: 2; stroke-linecap: square"/>
   </g>
   <g id="line2d_6">
    <path d="M 55.888409 105.433122 
L 63.128773 109.924695 
L 70.369136 112.315304 
L 77.6095 113.164558 
L 84.849864 112.936595 
L 92.090227 112.012019 
L 99.330591 110.698759 
L 106.570955 109.241897 
L 113.811318 107.832533 
L 121.051682 106.615711 
L 128.292045 105.697492 
L 135.532409 105.151208 
L 142.772773 105.022942 
L 150.013136 105.336317 
L 157.2535 106.096613 
L 164.493864 107.294287 
L 171.734227 108.907938 
L 178.974591 110.906779 
L 186.214955 113.252658 
L 193.455318 115.90169 
L 200.695682 118.805548 
L 207.936045 121.912466 
L 215.176409 125.168013 
L 222.416773 128.515679 
L 229.657136 131.897341 
L 236.8975 135.253642 
L 244.137864 138.524364 
L 251.378227 141.648814 
L 258.618591 144.566309 
L 265.858955 147.216785 
L 273.099318 149.541602 
L 280.339682 151.484591 
L 287.580045 152.993393 
L 294.820409 154.021146 
L 302.060773 154.528575 
L 309.301136 154.486537 
L 316.5415 153.879063 
L 323.781864 152.706975 
L 331.022227 150.992099 
L 338.262591 148.782157 
L 345.502955 146.156363 
L 352.743318 143.231804 
L 359.983682 140.170637 
L 367.224045 137.188161 
L 374.464409 134.561824 
L 381.704773 132.641207 
L 388.945136 131.859049 
L 396.1855 132.743358 
L 403.425864 135.930656 
L 410.666227 142.180431 
L 417.906591 152.390825 
" clip-path="url(#p1315577171)" style="fill: none; stroke-dasharray: 7.4,3.2; stroke-dashoffset: 0; stroke: #34b6c6; stroke-width: 2"/>
   </g>
   <g id="line2d_7">
    <path d="M 55.888409 105.875712 
L 63.128773 109.886904 
L 70.369136 112.220559 
L 77.6095 113.214216 
L 84.849864 113.165756 
L 92.090227 112.344022 
L 99.330591 110.996998 
L 106.570955 109.356228 
L 113.811318 107.637116 
L 121.051682 106.036308 
L 128.292045 104.728361 
L 135.532409 103.863214 
L 142.772773 103.563792 
L 150.013136 103.921055 
L 157.2535 104.984378 
L 164.493864 106.749256 
L 171.734227 109.149971 
L 178.974591 112.066282 
L 186.214955 115.346044 
L 193.455318 118.834451 
L 200.695682 122.396444 
L 207.936045 125.92555 
L 215.176409 129.341908 
L 222.416773 132.586142 
L 229.657136 135.613826 
L 236.8975 138.391908 
L 244.137864 140.896515 
L 251.378227 143.111271 
L 258.618591 145.02568 
L 265.858955 146.633577 
L 273.099318 147.931797 
L 280.339682 148.919188 
L 287.580045 149.596044 
L 294.820409 149.963962 
L 302.060773 150.026142 
L 309.301136 149.788117 
L 316.5415 149.258919 
L 323.781864 148.452681 
L 331.022227 147.390677 
L 338.262591 146.103802 
L 345.502955 144.635504 
L 352.743318 143.045167 
L 359.983682 141.411974 
L 367.224045 139.839259 
L 374.464409 138.459379 
L 381.704773 137.439117 
L 388.945136 136.98566 
L 396.1855 137.353161 
L 403.425864 138.849932 
L 410.666227 141.84627 
L 417.906591 146.782973 
" clip-path="url(#p1315577171)" style="fill: none; stroke-dasharray: 7.4,3.2; stroke-dashoffset: 0; stroke: #9370db; stroke-width: 2"/>
   </g>
   <g id="line2d_8">
    <path d="M 55.888409 112.435392 
L 63.128773 111.781297 
L 70.369136 111.054614 
L 77.6095 110.260238 
L 84.849864 109.410653 
L 92.090227 108.527965 
L 99.330591 107.644959 
L 106.570955 106.804465 
L 113.811318 106.05682 
L 121.051682 105.456064 
L 128.292045 105.056004 
L 135.532409 104.906981 
L 142.772773 105.052917 
L 150.013136 105.527238 
L 157.2535 106.346495 
L 164.493864 107.502751 
L 171.734227 108.958783 
L 178.974591 110.650929 
L 186.214955 112.500564 
L 193.455318 114.429243 
L 200.695682 116.370301 
L 207.936045 118.273303 
L 215.176409 120.102806 
L 222.416773 121.834958 
L 229.657136 123.454466 
L 236.8975 124.952627 
L 244.137864 126.326124 
L 251.378227 127.576076 
L 258.618591 128.707116 
L 265.858955 129.726468 
L 273.099318 130.643085 
L 280.339682 131.466915 
L 287.580045 132.208292 
L 294.820409 132.877478 
L 302.060773 133.484307 
L 309.301136 134.037939 
L 316.5415 134.546704 
L 323.781864 135.018009 
L 331.022227 135.458308 
L 338.262591 135.873114 
L 345.502955 136.267039 
L 352.743318 136.643855 
L 359.983682 137.006568 
L 367.224045 137.357501 
L 374.464409 137.698376 
L 381.704773 138.030396 
L 388.945136 138.354331 
L 396.1855 138.670597 
L 403.425864 138.979327 
L 410.666227 139.280445 
L 417.906591 139.573725 
" clip-path="url(#p1315577171)" style="fill: none; stroke-dasharray: 12.8,3.2,2,3.2; stroke-dashoffset: 0; stroke: #ff0000; stroke-width: 2"/>
   </g>
   <g id="patch_4">
    <path d="M 37.7875 165.688 
L 37.7875 70.696 
" style="fill: none; stroke: #000000; stroke-width: 0.8; stroke-linejoin: miter; stroke-linecap: square"/>
   </g>
   <g id="patch_5">
    <path d="M 436.0075 165.688 
L 436.0075 70.696 
" style="fill: none; stroke: #000000; stroke-width: 0.8; stroke-linejoin: miter; stroke-linecap: square"/>
   </g>
   <g id="patch_6">
    <path d="M 37.7875 165.688 
L 436.0075 165.688 
" style="fill: none; stroke: #000000; stroke-width: 0.8; stroke-linejoin: miter; stroke-linecap: square"/>
   </g>
   <g id="patch_7">
    <path d="M 37.7875 70.696 
L 436.0075 70.696 
" style="fill: none; stroke: #000000; stroke-width: 0.8; stroke-linejoin: miter; stroke-linecap: square"/>
   </g>
  </g>
  <g id="axes_3">
   <g id="patch_8">
    <path d="M 37.7875 276.68 
L 436.0075 276.68 
L 436.0075 181.688 
L 37.7875 181.688 
z
" style="fill: #ffffff"/>
   </g>
   <g id="PathCollection_2">
    <g clip-path="url(#pbd9425a72a)">
     <use xlink:href="#mc082c1fe72" x="67.652837" y="200.743159" style="fill: #daa520; stroke: #daa520"/>
     <use xlink:href="#mc082c1fe72" x="159.910988" y="199.13891" style="fill: #daa520; stroke: #daa520"/>
     <use xlink:href="#mc082c1fe72" x="63.216331" y="258.191533" style="fill: #daa520; stroke: #daa520"/>
     <use xlink:href="#mc082c1fe72" x="61.08272" y="228.014121" style="fill: #daa520; stroke: #daa520"/>
     <use xlink:href="#mc082c1fe72" x="65.166676" y="195.757035" style="fill: #daa520; stroke: #daa520"/>
     <use xlink:href="#mc082c1fe72" x="289.424168" y="204.553629" style="fill: #daa520; stroke: #daa520"/>
     <use xlink:href="#mc082c1fe72" x="128.27106" y="249.96921" style="fill: #daa520; stroke: #daa520"/>
     <use xlink:href="#mc082c1fe72" x="106.790036" y="198.503995" style="fill: #daa520; stroke: #daa520"/>
     <use xlink:href="#mc082c1fe72" x="246.524422" y="200.365345" style="fill: #daa520; stroke: #daa520"/>
     <use xlink:href="#mc082c1fe72" x="139.583322" y="211.642197" style="fill: #daa520; stroke: #daa520"/>
     <use xlink:href="#mc082c1fe72" x="371.69937" y="241.752837" style="fill: #daa520; stroke: #daa520"/>
     <use xlink:href="#mc082c1fe72" x="285.109144" y="202.476119" style="fill: #daa520; stroke: #daa520"/>
     <use xlink:href="#mc082c1fe72" x="59.760709" y="228.393771" style="fill: #daa520; stroke: #daa520"/>
     <use xlink:href="#mc082c1fe72" x="264.238962" y="208.107188" style="fill: #daa520; stroke: #daa520"/>
     <use xlink:href="#mc082c1fe72" x="266.054201" y="200.108725" style="fill: #daa520; stroke: #daa520"/>
     <use xlink:href="#mc082c1fe72" x="107.282282" y="200.94553" style="fill: #daa520; stroke: #daa520"/>
     <use xlink:href="#mc082c1fe72" x="367.016983" y="230.37942" style="fill: #daa520; stroke: #daa520"/>
     <use xlink:href="#mc082c1fe72" x="360.723481" y="245.871667" style="fill: #daa520; stroke: #daa520"/>
     <use xlink:href="#mc082c1fe72" x="174.29495" y="232.068373" style="fill: #daa520; stroke: #daa520"/>
     <use xlink:href="#mc082c1fe72" x="409.84218" y="227.072192" style="fill: #daa520; stroke: #daa520"/>
     <use xlink:href="#mc082c1fe72" x="124.258403" y="190.892112" style="fill: #daa520; stroke: #daa520"/>
     <use xlink:href="#mc082c1fe72" x="166.125807" y="220.51889" style="fill: #daa520; stroke: #daa520"/>
     <use xlink:href="#mc082c1fe72" x="72.252259" y="233.765396" style="fill: #daa520; stroke: #daa520"/>
     <use xlink:href="#mc082c1fe72" x="307.693773" y="220.829987" style="fill: #daa520; stroke: #daa520"/>
     <use xlink:href="#mc082c1fe72" x="136.009139" y="233.736712" style="fill: #daa520; stroke: #daa520"/>
     <use xlink:href="#mc082c1fe72" x="94.665748" y="233.415829" style="fill: #daa520; stroke: #daa520"/>
     <use xlink:href="#mc082c1fe72" x="192.912571" y="198.408862" style="fill: #daa520; stroke: #daa520"/>
     <use xlink:href="#mc082c1fe72" x="72.3894" y="208.822742" style="fill: #daa520; stroke: #daa520"/>
     <use xlink:href="#mc082c1fe72" x="68.96417" y="231.605523" style="fill: #daa520; stroke: #daa520"/>
     <use xlink:href="#mc082c1fe72" x="127.584779" y="212.744747" style="fill: #daa520; stroke: #daa520"/>
     <use xlink:href="#mc082c1fe72" x="405.27387" y="229.532308" style="fill: #daa520; stroke: #daa520"/>
     <use xlink:href="#mc082c1fe72" x="189.329295" y="221.777964" style="fill: #daa520; stroke: #daa520"/>
     <use xlink:href="#mc082c1fe72" x="109.403319" y="248.133487" style="fill: #daa520; stroke: #daa520"/>
     <use xlink:href="#mc082c1fe72" x="85.576533" y="216.658287" style="fill: #daa520; stroke: #daa520"/>
     <use xlink:href="#mc082c1fe72" x="231.967387" y="201.938746" style="fill: #daa520; stroke: #daa520"/>
     <use xlink:href="#mc082c1fe72" x="191.288674" y="242.765541" style="fill: #daa520; stroke: #daa520"/>
     <use xlink:href="#mc082c1fe72" x="80.885325" y="233.525068" style="fill: #daa520; stroke: #daa520"/>
     <use xlink:href="#mc082c1fe72" x="91.662289" y="214.115946" style="fill: #daa520; stroke: #daa520"/>
     <use xlink:href="#mc082c1fe72" x="102.995434" y="186.048908" style="fill: #daa520; stroke: #daa520"/>
     <use xlink:href="#mc082c1fe72" x="411.726366" y="223.938068" style="fill: #daa520; stroke: #daa520"/>
     <use xlink:href="#mc082c1fe72" x="99.956133" y="245.526176" style="fill: #daa520; stroke: #daa520"/>
     <use xlink:href="#mc082c1fe72" x="111.234338" y="253.517103" style="fill: #daa520; stroke: #daa520"/>
     <use xlink:href="#mc082c1fe72" x="158.327074" y="252.501576" style="fill: #daa520; stroke: #daa520"/>
     <use xlink:href="#mc082c1fe72" x="235.873092" y="221.894807" style="fill: #daa520; stroke: #daa520"/>
     <use xlink:href="#mc082c1fe72" x="78.610154" y="218.917918" style="fill: #daa520; stroke: #daa520"/>
     <use xlink:href="#mc082c1fe72" x="117.480224" y="250.4366" style="fill: #daa520; stroke: #daa520"/>
     <use xlink:href="#mc082c1fe72" x="94.681865" y="251.49748" style="fill: #daa520; stroke: #daa520"/>
     <use xlink:href="#mc082c1fe72" x="131.702928" y="248.765986" style="fill: #daa520; stroke: #daa520"/>
     <use xlink:href="#mc082c1fe72" x="80.514855" y="252.413449" style="fill: #daa520; stroke: #daa520"/>
     <use xlink:href="#mc082c1fe72" x="62.532098" y="201.15042" style="fill: #daa520; stroke: #daa520"/>
     <use xlink:href="#mc082c1fe72" x="116.911051" y="218.177974" style="fill: #daa520; stroke: #daa520"/>
     <use xlink:href="#mc082c1fe72" x="73.886935" y="230.16816" style="fill: #daa520; stroke: #daa520"/>
     <use xlink:href="#mc082c1fe72" x="155.107549" y="251.116288" style="fill: #daa520; stroke: #daa520"/>
     <use xlink:href="#mc082c1fe72" x="65.747846" y="232.163755" style="fill: #daa520; stroke: #daa520"/>
     <use xlink:href="#mc082c1fe72" x="167.438069" y="255.89544" style="fill: #daa520; stroke: #daa520"/>
     <use xlink:href="#mc082c1fe72" x="66.246225" y="252.122235" style="fill: #daa520; stroke: #daa520"/>
     <use xlink:href="#mc082c1fe72" x="165.093414" y="188.647581" style="fill: #daa520; stroke: #daa520"/>
     <use xlink:href="#mc082c1fe72" x="288.839689" y="201.573109" style="fill: #daa520; stroke: #daa520"/>
     <use xlink:href="#mc082c1fe72" x="93.770319" y="252.197971" style="fill: #daa520; stroke: #daa520"/>
     <use xlink:href="#mc082c1fe72" x="312.68815" y="215.932575" style="fill: #daa520; stroke: #daa520"/>
     <use xlink:href="#mc082c1fe72" x="70.869954" y="195.154989" style="fill: #daa520; stroke: #daa520"/>
     <use xlink:href="#mc082c1fe72" x="107.889891" y="249.948309" style="fill: #daa520; stroke: #daa520"/>
     <use xlink:href="#mc082c1fe72" x="65.00368" y="239.057545" style="fill: #daa520; stroke: #daa520"/>
     <use xlink:href="#mc082c1fe72" x="112.288094" y="206.628117" style="fill: #daa520; stroke: #daa520"/>
     <use xlink:href="#mc082c1fe72" x="197.76113" y="241.48099" style="fill: #daa520; stroke: #daa520"/>
     <use xlink:href="#mc082c1fe72" x="56.68928" y="256.678279" style="fill: #daa520; stroke: #daa520"/>
     <use xlink:href="#mc082c1fe72" x="163.213473" y="198.679077" style="fill: #daa520; stroke: #daa520"/>
     <use xlink:href="#mc082c1fe72" x="303.739135" y="204.8656" style="fill: #daa520; stroke: #daa520"/>
     <use xlink:href="#mc082c1fe72" x="163.70933" y="250.234718" style="fill: #daa520; stroke: #daa520"/>
     <use xlink:href="#mc082c1fe72" x="70.66681" y="255.887633" style="fill: #daa520; stroke: #daa520"/>
     <use xlink:href="#mc082c1fe72" x="106.58124" y="239.077195" style="fill: #daa520; stroke: #daa520"/>
     <use xlink:href="#mc082c1fe72" x="90.553623" y="244.836473" style="fill: #daa520; stroke: #daa520"/>
     <use xlink:href="#mc082c1fe72" x="71.008401" y="190.845515" style="fill: #daa520; stroke: #daa520"/>
     <use xlink:href="#mc082c1fe72" x="144.228147" y="211.603834" style="fill: #daa520; stroke: #daa520"/>
     <use xlink:href="#mc082c1fe72" x="102.297559" y="255.378617" style="fill: #daa520; stroke: #daa520"/>
     <use xlink:href="#mc082c1fe72" x="146.457664" y="249.704474" style="fill: #daa520; stroke: #daa520"/>
     <use xlink:href="#mc082c1fe72" x="57.780034" y="246.07883" style="fill: #daa520; stroke: #daa520"/>
     <use xlink:href="#mc082c1fe72" x="337.252989" y="208.895759" style="fill: #daa520; stroke: #daa520"/>
     <use xlink:href="#mc082c1fe72" x="63.986641" y="234.891847" style="fill: #daa520; stroke: #daa520"/>
     <use xlink:href="#mc082c1fe72" x="404.704065" y="228.872593" style="fill: #daa520; stroke: #daa520"/>
     <use xlink:href="#mc082c1fe72" x="113.543093" y="243.944481" style="fill: #daa520; stroke: #daa520"/>
     <use xlink:href="#mc082c1fe72" x="376.850248" y="216.745237" style="fill: #daa520; stroke: #daa520"/>
     <use xlink:href="#mc082c1fe72" x="215.723906" y="272.362182" style="fill: #daa520; stroke: #daa520"/>
     <use xlink:href="#mc082c1fe72" x="416.424343" y="220.648401" style="fill: #daa520; stroke: #daa520"/>
     <use xlink:href="#mc082c1fe72" x="67.98193" y="247.106682" style="fill: #daa520; stroke: #daa520"/>
     <use xlink:href="#mc082c1fe72" x="104.561605" y="189.347325" style="fill: #daa520; stroke: #daa520"/>
     <use xlink:href="#mc082c1fe72" x="80.620653" y="258.871248" style="fill: #daa520; stroke: #daa520"/>
     <use xlink:href="#mc082c1fe72" x="108.288861" y="223.360333" style="fill: #daa520; stroke: #daa520"/>
     <use xlink:href="#mc082c1fe72" x="206.045508" y="272.27189" style="fill: #daa520; stroke: #daa520"/>
     <use xlink:href="#mc082c1fe72" x="175.151188" y="241.476414" style="fill: #daa520; stroke: #daa520"/>
     <use xlink:href="#mc082c1fe72" x="135.129229" y="249.901844" style="fill: #daa520; stroke: #daa520"/>
     <use xlink:href="#mc082c1fe72" x="324.324768" y="218.429137" style="fill: #daa520; stroke: #daa520"/>
     <use xlink:href="#mc082c1fe72" x="166.141494" y="220.921367" style="fill: #daa520; stroke: #daa520"/>
     <use xlink:href="#mc082c1fe72" x="101.091264" y="186.005818" style="fill: #daa520; stroke: #daa520"/>
     <use xlink:href="#mc082c1fe72" x="119.45833" y="253.19572" style="fill: #daa520; stroke: #daa520"/>
     <use xlink:href="#mc082c1fe72" x="394.343008" y="231.900704" style="fill: #daa520; stroke: #daa520"/>
     <use xlink:href="#mc082c1fe72" x="177.658987" y="215.807261" style="fill: #daa520; stroke: #daa520"/>
     <use xlink:href="#mc082c1fe72" x="386.167777" y="243.973195" style="fill: #daa520; stroke: #daa520"/>
     <use xlink:href="#mc082c1fe72" x="108.818145" y="206.220251" style="fill: #daa520; stroke: #daa520"/>
     <use xlink:href="#mc082c1fe72" x="94.922613" y="236.993813" style="fill: #daa520; stroke: #daa520"/>
     <use xlink:href="#mc082c1fe72" x="417.389538" y="223.588217" style="fill: #daa520; stroke: #daa520"/>
    </g>
   </g>
   <g id="matplotlib.axis_5">
    <g id="xtick_1">
     <g id="line2d_9">
      <defs>
       <path id="m6e4cdb5628" d="M 0 0 
L 0 3.5 
" style="stroke: #696969; stroke-width: 0.8"/>
      </defs>
      <g>
       <use xlink:href="#m6e4cdb5628" x="55.888409" y="276.68" style="fill: #696969; stroke: #696969; stroke-width: 0.8"/>
      </g>
     </g>
     <g id="text_3">
      <!-- −1.0 -->
      <g style="fill: #696969" transform="translate(36.462159 295.8375) scale(0.16 -0.16)">
       <defs>
        <path id="DejaVuSans-2212" d="M 678 2272 
L 4684 2272 
L 4684 1741 
L 678 1741 
L 678 2272 
z
" transform="scale(0.015625)"/>
        <path id="DejaVuSans-31" d="M 794 531 
L 1825 531 
L 1825 4091 
L 703 3866 
L 703 4441 
L 1819 4666 
L 2450 4666 
L 2450 531 
L 3481 531 
L 3481 0 
L 794 0 
L 794 531 
z
" transform="scale(0.015625)"/>
        <path id="DejaVuSans-2e" d="M 684 794 
L 1344 794 
L 1344 0 
L 684 0 
L 684 794 
z
" transform="scale(0.015625)"/>
       </defs>
       <use xlink:href="#DejaVuSans-2212"/>
       <use xlink:href="#DejaVuSans-31" x="83.789062"/>
       <use xlink:href="#DejaVuSans-2e" x="147.412109"/>
       <use xlink:href="#DejaVuSans-30" x="179.199219"/>
      </g>
     </g>
    </g>
    <g id="xtick_2">
     <g id="line2d_10">
      <g>
       <use xlink:href="#m6e4cdb5628" x="146.392955" y="276.68" style="fill: #696969; stroke: #696969; stroke-width: 0.8"/>
      </g>
     </g>
     <g id="text_4">
      <!-- −0.5 -->
      <g style="fill: #696969" transform="translate(126.966705 295.8375) scale(0.16 -0.16)">
       <use xlink:href="#DejaVuSans-2212"/>
       <use xlink:href="#DejaVuSans-30" x="83.789062"/>
       <use xlink:href="#DejaVuSans-2e" x="147.412109"/>
       <use xlink:href="#DejaVuSans-35" x="179.199219"/>
      </g>
     </g>
    </g>
    <g id="xtick_3">
     <g id="line2d_11">
      <g>
       <use xlink:href="#m6e4cdb5628" x="236.8975" y="276.68" style="fill: #696969; stroke: #696969; stroke-width: 0.8"/>
      </g>
     </g>
     <g id="text_5">
      <!-- 0.0 -->
      <g style="fill: #696969" transform="translate(224.175 295.8375) scale(0.16 -0.16)">
       <use xlink:href="#DejaVuSans-30"/>
       <use xlink:href="#DejaVuSans-2e" x="63.623047"/>
       <use xlink:href="#DejaVuSans-30" x="95.410156"/>
      </g>
     </g>
    </g>
    <g id="xtick_4">
     <g id="line2d_12">
      <g>
       <use xlink:href="#m6e4cdb5628" x="327.402045" y="276.68" style="fill: #696969; stroke: #696969; stroke-width: 0.8"/>
      </g>
     </g>
     <g id="text_6">
      <!-- 0.5 -->
      <g style="fill: #696969" transform="translate(314.679545 295.8375) scale(0.16 -0.16)">
       <use xlink:href="#DejaVuSans-30"/>
       <use xlink:href="#DejaVuSans-2e" x="63.623047"/>
       <use xlink:href="#DejaVuSans-35" x="95.410156"/>
      </g>
     </g>
    </g>
    <g id="xtick_5">
     <g id="line2d_13">
      <g>
       <use xlink:href="#m6e4cdb5628" x="417.906591" y="276.68" style="fill: #696969; stroke: #696969; stroke-width: 0.8"/>
      </g>
     </g>
     <g id="text_7">
      <!-- 1.0 -->
      <g style="fill: #696969" transform="translate(405.184091 295.8375) scale(0.16 -0.16)">
       <use xlink:href="#DejaVuSans-31"/>
       <use xlink:href="#DejaVuSans-2e" x="63.623047"/>
       <use xlink:href="#DejaVuSans-30" x="95.410156"/>
      </g>
     </g>
    </g>
    <g id="text_8">
     <!-- $X$ -->
     <g transform="translate(231.3775 315.3225) scale(0.16 -0.16)">
      <defs>
       <path id="DejaVuSans-Oblique-58" d="M 878 4666 
L 1516 4666 
L 2316 2981 
L 3763 4666 
L 4500 4666 
L 2578 2438 
L 3738 0 
L 3103 0 
L 2163 1966 
L 459 0 
L -275 0 
L 1906 2509 
L 878 4666 
z
" transform="scale(0.015625)"/>
      </defs>
      <use xlink:href="#DejaVuSans-Oblique-58" transform="translate(0 0.09375)"/>
     </g>
    </g>
   </g>
   <g id="matplotlib.axis_6">
    <g id="ytick_3">
     <g id="line2d_14">
      <g>
       <use xlink:href="#m423f3bd822" x="37.7875" y="271.72137" style="fill: #696969; stroke: #696969; stroke-width: 0.8"/>
      </g>
     </g>
     <g id="text_9">
      <!-- −5 -->
      <g style="fill: #696969" transform="translate(7.2 277.80012) scale(0.16 -0.16)">
       <use xlink:href="#DejaVuSans-2212"/>
       <use xlink:href="#DejaVuSans-35" x="83.789062"/>
      </g>
     </g>
    </g>
    <g id="ytick_4">
     <g id="line2d_15">
      <g>
       <use xlink:href="#m423f3bd822" x="37.7875" y="230.164669" style="fill: #696969; stroke: #696969; stroke-width: 0.8"/>
      </g>
     </g>
     <g id="text_10">
      <!-- 0 -->
      <g style="fill: #696969" transform="translate(20.6075 236.243419) scale(0.16 -0.16)">
       <use xlink:href="#DejaVuSans-30"/>
      </g>
     </g>
    </g>
    <g id="ytick_5">
     <g id="line2d_16">
      <g>
       <use xlink:href="#m423f3bd822" x="37.7875" y="188.607968" style="fill: #696969; stroke: #696969; stroke-width: 0.8"/>
      </g>
     </g>
     <g id="text_11">
      <!-- 5 -->
      <g style="fill: #696969" transform="translate(20.6075 194.686718) scale(0.16 -0.16)">
       <use xlink:href="#DejaVuSans-35"/>
      </g>
     </g>
    </g>
   </g>
   <g id="line2d_17">
    <path d="M 55.888409 228.493844 
L 63.128773 229.063675 
L 70.369136 229.569707 
L 77.6095 229.980071 
L 84.849864 230.26845 
L 92.090227 230.417912 
L 99.330591 230.423876 
L 106.570955 230.295409 
L 113.811318 230.054472 
L 121.051682 229.733598 
L 128.292045 229.373027 
L 135.532409 229.017993 
L 142.772773 228.715781 
L 150.013136 228.511114 
L 157.2535 228.438841 
L 164.493864 228.515039 
L 171.734227 228.730661 
L 178.974591 229.052658 
L 186.214955 229.433668 
L 193.455318 229.825541 
L 200.695682 230.18967 
L 207.936045 230.500694 
L 215.176409 230.744948 
L 222.416773 230.917143 
L 229.657136 231.017695 
L 236.8975 231.051249 
L 244.137864 231.026019 
L 251.378227 230.953303 
L 258.618591 230.846896 
L 265.858955 230.722234 
L 273.099318 230.595408 
L 280.339682 230.482 
L 287.580045 230.39592 
L 294.820409 230.348249 
L 302.060773 230.346196 
L 309.301136 230.392267 
L 316.5415 230.483745 
L 323.781864 230.612533 
L 331.022227 230.765378 
L 338.262591 230.924612 
L 345.502955 231.069196 
L 352.743318 231.176163 
L 359.983682 231.222299 
L 367.224045 231.185942 
L 374.464409 231.048773 
L 381.704773 230.797439 
L 388.945136 230.424863 
L 396.1855 229.931153 
L 403.425864 229.323908 
L 410.666227 228.618018 
L 417.906591 227.834798 
" clip-path="url(#pbd9425a72a)" style="fill: none; stroke: #696969; stroke-width: 2; stroke-linecap: square"/>
   </g>
   <g id="line2d_18">
    <path d="M 55.888409 235.368294 
L 63.128773 231.600987 
L 70.369136 229.241774 
L 77.6095 227.934823 
L 84.849864 227.386918 
L 92.090227 227.359324 
L 99.330591 227.660403 
L 106.570955 228.138922 
L 113.811318 228.678043 
L 121.051682 229.189931 
L 128.292045 229.610972 
L 135.532409 229.89755 
L 142.772773 230.022347 
L 150.013136 229.971143 
L 157.2535 229.74007 
L 164.493864 229.33329 
L 171.734227 228.761055 
L 178.974591 228.038127 
L 186.214955 227.182509 
L 193.455318 226.214463 
L 200.695682 225.155766 
L 207.936045 224.029189 
L 215.176409 222.858143 
L 222.416773 221.666471 
L 229.657136 220.478344 
L 236.8975 219.318232 
L 244.137864 218.210906 
L 251.378227 217.181441 
L 258.618591 216.25519 
L 265.858955 215.45768 
L 273.099318 214.814416 
L 280.339682 214.350527 
L 287.580045 214.090257 
L 294.820409 214.05623 
L 302.060773 214.268478 
L 309.301136 214.74319 
L 316.5415 215.491137 
L 323.781864 216.515754 
L 331.022227 217.810838 
L 338.262591 219.357814 
L 345.502955 221.122556 
L 352.743318 223.051716 
L 359.983682 225.068515 
L 367.224045 227.067992 
L 374.464409 228.911637 
L 381.704773 230.421405 
L 388.945136 231.373062 
L 396.1855 231.488818 
L 403.425864 230.429239 
L 410.666227 227.784377 
L 417.906591 223.064091 
" clip-path="url(#pbd9425a72a)" style="fill: none; stroke-dasharray: 7.4,3.2; stroke-dashoffset: 0; stroke: #79ad41; stroke-width: 2"/>
   </g>
   <g id="patch_9">
    <path d="M 37.7875 276.68 
L 37.7875 181.688 
" style="fill: none; stroke: #000000; stroke-width: 0.8; stroke-linejoin: miter; stroke-linecap: square"/>
   </g>
   <g id="patch_10">
    <path d="M 436.0075 276.68 
L 436.0075 181.688 
" style="fill: none; stroke: #000000; stroke-width: 0.8; stroke-linejoin: miter; stroke-linecap: square"/>
   </g>
   <g id="patch_11">
    <path d="M 37.7875 276.68 
L 436.0075 276.68 
" style="fill: none; stroke: #000000; stroke-width: 0.8; stroke-linejoin: miter; stroke-linecap: square"/>
   </g>
   <g id="patch_12">
    <path d="M 37.7875 181.688 
L 436.0075 181.688 
" style="fill: none; stroke: #000000; stroke-width: 0.8; stroke-linejoin: miter; stroke-linecap: square"/>
   </g>
  </g>
 </g>
 <defs>
  <clipPath id="pc890aabb99">
   <rect x="37.7875" y="7.2" width="398.22" height="47.496"/>
  </clipPath>
  <clipPath id="p1315577171">
   <rect x="37.7875" y="70.696" width="398.22" height="94.992"/>
  </clipPath>
  <clipPath id="pbd9425a72a">
   <rect x="37.7875" y="181.688" width="398.22" height="94.992"/>
  </clipPath>
 </defs>
</svg>
