<?xml version="1.0" encoding="utf-8" standalone="no"?>
<!DOCTYPE svg PUBLIC "-//W3C//DTD SVG 1.1//EN"
  "http://www.w3.org/Graphics/SVG/1.1/DTD/svg11.dtd">
<svg xmlns:xlink="http://www.w3.org/1999/xlink" width="443.2625pt" height="325.85pt" viewBox="0 0 443.2625 325.85" xmlns="http://www.w3.org/2000/svg" version="1.1">
 <metadata>
  <rdf:RDF xmlns:dc="http://purl.org/dc/elements/1.1/" xmlns:cc="http://creativecommons.org/ns#" xmlns:rdf="http://www.w3.org/1999/02/22-rdf-syntax-ns#">
   <cc:Work>
    <dc:type rdf:resource="http://purl.org/dc/dcmitype/StillImage"/>
    <dc:date>2024-01-28T20:52:00.610194</dc:date>
    <dc:format>image/svg+xml</dc:format>
    <dc:creator>
     <cc:Agent>
      <dc:title>Matplotlib v3.7.2, https://matplotlib.org/</dc:title>
     </cc:Agent>
    </dc:creator>
   </cc:Work>
  </rdf:RDF>
 </metadata>
 <defs>
  <style type="text/css">*{stroke-linejoin: round; stroke-linecap: butt}</style>
 </defs>
 <g id="figure_1">
  <g id="patch_1">
   <path d="M 0 325.85 
L 443.2625 325.85 
L 443.2625 0 
L 0 0 
z
" style="fill: #ffffff"/>
  </g>
  <g id="axes_1">
   <g id="patch_2">
    <path d="M 53.0525 54.696 
L 436.0625 54.696 
L 436.0625 7.2 
L 53.0525 7.2 
z
" style="fill: #ffffff"/>
   </g>
   <g id="PolyCollection_1">
    <defs>
     <path id="mec033d7190" d="M 70.462045 -273.312909 
L 70.462045 -316.491091 
L 77.425864 -316.491091 
L 84.389682 -316.491091 
L 91.3535 -316.491091 
L 98.317318 -316.491091 
L 105.281136 -316.491091 
L 112.244955 -316.491091 
L 119.208773 -316.491091 
L 126.172591 -316.491091 
L 133.136409 -316.491091 
L 140.100227 -316.491091 
L 147.064045 -316.491091 
L 154.027864 -315.536541 
L 160.991682 -314.305535 
L 167.9555 -312.875768 
L 174.919318 -311.249317 
L 181.883136 -309.440938 
L 188.846955 -307.47885 
L 195.810773 -305.403416 
L 202.774591 -303.263709 
L 209.738409 -301.112587 
L 216.702227 -299.001295 
L 223.666045 -296.974731 
L 230.629864 -295.068253 
L 237.593682 -293.306278 
L 244.5575 -291.702569 
L 251.521318 -290.261634 
L 258.485136 -288.980679 
L 265.448955 -287.851739 
L 272.412773 -286.863535 
L 279.376591 -286.002979 
L 286.340409 -285.256311 
L 293.304227 -284.60982 
L 300.268045 -284.050335 
L 307.231864 -283.565452 
L 314.195682 -283.143648 
L 321.1595 -282.774279 
L 328.123318 -282.447535 
L 335.087136 -282.154394 
L 342.050955 -281.886543 
L 349.014773 -281.636349 
L 355.978591 -281.396814 
L 362.942409 -281.1616 
L 369.906227 -280.925038 
L 376.870045 -280.6822 
L 383.833864 -280.428952 
L 390.797682 -280.162033 
L 397.7615 -279.879145 
L 404.725318 -279.579013 
L 411.689136 -279.261435 
L 418.652955 -278.927284 
L 418.652955 -273.312909 
L 418.652955 -273.312909 
L 411.689136 -273.312909 
L 404.725318 -273.312909 
L 397.7615 -273.312909 
L 390.797682 -273.312909 
L 383.833864 -273.312909 
L 376.870045 -273.312909 
L 369.906227 -273.312909 
L 362.942409 -273.312909 
L 355.978591 -273.312909 
L 349.014773 -273.312909 
L 342.050955 -273.312909 
L 335.087136 -273.312909 
L 328.123318 -273.312909 
L 321.1595 -273.312909 
L 314.195682 -273.312909 
L 307.231864 -273.312909 
L 300.268045 -273.312909 
L 293.304227 -273.312909 
L 286.340409 -273.312909 
L 279.376591 -273.312909 
L 272.412773 -273.312909 
L 265.448955 -273.312909 
L 258.485136 -273.312909 
L 251.521318 -273.312909 
L 244.5575 -273.312909 
L 237.593682 -273.312909 
L 230.629864 -273.312909 
L 223.666045 -273.312909 
L 216.702227 -273.312909 
L 209.738409 -273.312909 
L 202.774591 -273.312909 
L 195.810773 -273.312909 
L 188.846955 -273.312909 
L 181.883136 -273.312909 
L 174.919318 -273.312909 
L 167.9555 -273.312909 
L 160.991682 -273.312909 
L 154.027864 -273.312909 
L 147.064045 -273.312909 
L 140.100227 -273.312909 
L 133.136409 -273.312909 
L 126.172591 -273.312909 
L 119.208773 -273.312909 
L 112.244955 -273.312909 
L 105.281136 -273.312909 
L 98.317318 -273.312909 
L 91.3535 -273.312909 
L 84.389682 -273.312909 
L 77.425864 -273.312909 
L 70.462045 -273.312909 
z
" style="stroke: #dc143c; stroke-opacity: 0.2"/>
    </defs>
    <g clip-path="url(#p150b3b2b0b)">
     <use xlink:href="#mec033d7190" x="0" y="325.85" style="fill: #dc143c; fill-opacity: 0.2; stroke: #dc143c; stroke-opacity: 0.2"/>
    </g>
   </g>
   <g id="PolyCollection_2">
    <defs>
     <path id="mae6ca79c1d" d="M 70.462045 -273.312909 
L 70.462045 -278.110485 
L 77.425864 -278.110485 
L 84.389682 -278.110485 
L 91.3535 -278.110485 
L 98.317318 -278.110485 
L 105.281136 -278.110485 
L 112.244955 -278.110485 
L 119.208773 -278.110485 
L 126.172591 -278.110485 
L 133.136409 -278.110485 
L 140.100227 -278.110485 
L 147.064045 -278.110485 
L 154.027864 -279.065035 
L 160.991682 -280.296041 
L 167.9555 -281.725807 
L 174.919318 -283.352259 
L 181.883136 -285.160638 
L 188.846955 -287.122725 
L 195.810773 -289.19816 
L 202.774591 -291.337867 
L 209.738409 -293.488989 
L 216.702227 -295.600281 
L 223.666045 -297.626845 
L 230.629864 -299.533323 
L 237.593682 -301.295297 
L 244.5575 -302.899007 
L 251.521318 -304.339942 
L 258.485136 -305.620897 
L 265.448955 -306.749837 
L 272.412773 -307.738041 
L 279.376591 -308.598596 
L 286.340409 -309.345265 
L 293.304227 -309.991755 
L 300.268045 -310.551241 
L 307.231864 -311.036124 
L 314.195682 -311.457928 
L 321.1595 -311.827297 
L 328.123318 -312.154041 
L 335.087136 -312.447182 
L 342.050955 -312.715033 
L 349.014773 -312.965226 
L 355.978591 -313.204762 
L 362.942409 -313.439976 
L 369.906227 -313.676537 
L 376.870045 -313.919376 
L 383.833864 -314.172623 
L 390.797682 -314.439543 
L 397.7615 -314.722431 
L 404.725318 -315.022563 
L 411.689136 -315.340141 
L 418.652955 -315.674291 
L 418.652955 -273.312909 
L 418.652955 -273.312909 
L 411.689136 -273.312909 
L 404.725318 -273.312909 
L 397.7615 -273.312909 
L 390.797682 -273.312909 
L 383.833864 -273.312909 
L 376.870045 -273.312909 
L 369.906227 -273.312909 
L 362.942409 -273.312909 
L 355.978591 -273.312909 
L 349.014773 -273.312909 
L 342.050955 -273.312909 
L 335.087136 -273.312909 
L 328.123318 -273.312909 
L 321.1595 -273.312909 
L 314.195682 -273.312909 
L 307.231864 -273.312909 
L 300.268045 -273.312909 
L 293.304227 -273.312909 
L 286.340409 -273.312909 
L 279.376591 -273.312909 
L 272.412773 -273.312909 
L 265.448955 -273.312909 
L 258.485136 -273.312909 
L 251.521318 -273.312909 
L 244.5575 -273.312909 
L 237.593682 -273.312909 
L 230.629864 -273.312909 
L 223.666045 -273.312909 
L 216.702227 -273.312909 
L 209.738409 -273.312909 
L 202.774591 -273.312909 
L 195.810773 -273.312909 
L 188.846955 -273.312909 
L 181.883136 -273.312909 
L 174.919318 -273.312909 
L 167.9555 -273.312909 
L 160.991682 -273.312909 
L 154.027864 -273.312909 
L 147.064045 -273.312909 
L 140.100227 -273.312909 
L 133.136409 -273.312909 
L 126.172591 -273.312909 
L 119.208773 -273.312909 
L 112.244955 -273.312909 
L 105.281136 -273.312909 
L 98.317318 -273.312909 
L 91.3535 -273.312909 
L 84.389682 -273.312909 
L 77.425864 -273.312909 
L 70.462045 -273.312909 
z
" style="stroke: #000080; stroke-opacity: 0.2"/>
    </defs>
    <g clip-path="url(#p150b3b2b0b)">
     <use xlink:href="#mae6ca79c1d" x="0" y="325.85" style="fill: #000080; fill-opacity: 0.2; stroke: #000080; stroke-opacity: 0.2"/>
    </g>
   </g>
   <g id="matplotlib.axis_1"/>
   <g id="matplotlib.axis_2"/>
   <g id="line2d_1">
    <path d="M 70.462045 9.358909 
L 77.425864 9.358909 
L 84.389682 9.358909 
L 91.3535 9.358909 
L 98.317318 9.358909 
L 105.281136 9.358909 
L 112.244955 9.358909 
L 119.208773 9.358909 
L 126.172591 9.358909 
L 133.136409 9.358909 
L 140.100227 9.358909 
L 147.064045 9.358909 
L 154.027864 10.313459 
L 160.991682 11.544465 
L 167.9555 12.974232 
L 174.919318 14.600683 
L 181.883136 16.409062 
L 188.846955 18.37115 
L 195.810773 20.446584 
L 202.774591 22.586291 
L 209.738409 24.737413 
L 216.702227 26.848705 
L 223.666045 28.875269 
L 230.629864 30.781747 
L 237.593682 32.543722 
L 244.5575 34.147431 
L 251.521318 35.588366 
L 258.485136 36.869321 
L 265.448955 37.998261 
L 272.412773 38.986465 
L 279.376591 39.847021 
L 286.340409 40.593689 
L 293.304227 41.24018 
L 300.268045 41.799665 
L 307.231864 42.284548 
L 314.195682 42.706352 
L 321.1595 43.075721 
L 328.123318 43.402465 
L 335.087136 43.695606 
L 342.050955 43.963457 
L 349.014773 44.213651 
L 355.978591 44.453186 
L 362.942409 44.6884 
L 369.906227 44.924962 
L 376.870045 45.1678 
L 383.833864 45.421048 
L 390.797682 45.687967 
L 397.7615 45.970855 
L 404.725318 46.270987 
L 411.689136 46.588565 
L 418.652955 46.922716 
" clip-path="url(#p150b3b2b0b)" style="fill: none; stroke: #dc143c; stroke-width: 1.5; stroke-linecap: square"/>
   </g>
   <g id="line2d_2">
    <path d="M 70.462045 47.739515 
L 77.425864 47.739515 
L 84.389682 47.739515 
L 91.3535 47.739515 
L 98.317318 47.739515 
L 105.281136 47.739515 
L 112.244955 47.739515 
L 119.208773 47.739515 
L 126.172591 47.739515 
L 133.136409 47.739515 
L 140.100227 47.739515 
L 147.064045 47.739515 
L 154.027864 46.784965 
L 160.991682 45.553959 
L 167.9555 44.124193 
L 174.919318 42.497741 
L 181.883136 40.689362 
L 188.846955 38.727275 
L 195.810773 36.65184 
L 202.774591 34.512133 
L 209.738409 32.361011 
L 216.702227 30.249719 
L 223.666045 28.223155 
L 230.629864 26.316677 
L 237.593682 24.554703 
L 244.5575 22.950993 
L 251.521318 21.510058 
L 258.485136 20.229103 
L 265.448955 19.100163 
L 272.412773 18.111959 
L 279.376591 17.251404 
L 286.340409 16.504735 
L 293.304227 15.858245 
L 300.268045 15.298759 
L 307.231864 14.813876 
L 314.195682 14.392072 
L 321.1595 14.022703 
L 328.123318 13.695959 
L 335.087136 13.402818 
L 342.050955 13.134967 
L 349.014773 12.884774 
L 355.978591 12.645238 
L 362.942409 12.410024 
L 369.906227 12.173463 
L 376.870045 11.930624 
L 383.833864 11.677377 
L 390.797682 11.410457 
L 397.7615 11.127569 
L 404.725318 10.827437 
L 411.689136 10.509859 
L 418.652955 10.175709 
" clip-path="url(#p150b3b2b0b)" style="fill: none; stroke: #000080; stroke-width: 1.5; stroke-linecap: square"/>
   </g>
  </g>
  <g id="axes_2">
   <g id="patch_3">
    <path d="M 53.0525 165.688 
L 436.0625 165.688 
L 436.0625 70.696 
L 53.0525 70.696 
z
" style="fill: #ffffff"/>
   </g>
   <g id="PathCollection_1">
    <defs>
     <path id="m0b436f9821" d="M 0 0.866025 
C 0.229673 0.866025 0.449969 0.774776 0.612372 0.612372 
C 0.774776 0.449969 0.866025 0.229673 0.866025 0 
C 0.866025 -0.229673 0.774776 -0.449969 0.612372 -0.612372 
C 0.449969 -0.774776 0.229673 -0.866025 0 -0.866025 
C -0.229673 -0.866025 -0.449969 -0.774776 -0.612372 -0.612372 
C -0.774776 -0.449969 -0.866025 -0.229673 -0.866025 0 
C -0.866025 0.229673 -0.774776 0.449969 -0.612372 0.612372 
C -0.449969 0.774776 -0.229673 0.866025 0 0.866025 
z
" style="stroke: #daa520"/>
    </defs>
    <g clip-path="url(#pdcf5e5f14e)">
     <use xlink:href="#m0b436f9821" x="165.862172" y="103.715535" style="fill: #daa520; stroke: #daa520"/>
     <use xlink:href="#m0b436f9821" x="85.208077" y="81.352593" style="fill: #daa520; stroke: #daa520"/>
     <use xlink:href="#m0b436f9821" x="72.326978" y="108.998666" style="fill: #daa520; stroke: #daa520"/>
     <use xlink:href="#m0b436f9821" x="132.708079" y="96.89305" style="fill: #daa520; stroke: #daa520"/>
     <use xlink:href="#m0b436f9821" x="360.620191" y="110.650235" style="fill: #daa520; stroke: #daa520"/>
     <use xlink:href="#m0b436f9821" x="165.06114" y="112.487916" style="fill: #daa520; stroke: #daa520"/>
     <use xlink:href="#m0b436f9821" x="178.954258" y="99.286251" style="fill: #daa520; stroke: #daa520"/>
     <use xlink:href="#m0b436f9821" x="189.366428" y="132.223205" style="fill: #daa520; stroke: #daa520"/>
     <use xlink:href="#m0b436f9821" x="167.634714" y="87.884372" style="fill: #daa520; stroke: #daa520"/>
     <use xlink:href="#m0b436f9821" x="328.190664" y="160.721262" style="fill: #daa520; stroke: #daa520"/>
     <use xlink:href="#m0b436f9821" x="136.001559" y="116.518911" style="fill: #daa520; stroke: #daa520"/>
     <use xlink:href="#m0b436f9821" x="137.687331" y="97.328385" style="fill: #daa520; stroke: #daa520"/>
     <use xlink:href="#m0b436f9821" x="187.040983" y="109.124028" style="fill: #daa520; stroke: #daa520"/>
     <use xlink:href="#m0b436f9821" x="239.422663" y="140.946966" style="fill: #daa520; stroke: #daa520"/>
     <use xlink:href="#m0b436f9821" x="192.839664" y="115.986769" style="fill: #daa520; stroke: #daa520"/>
     <use xlink:href="#m0b436f9821" x="307.259792" y="89.923973" style="fill: #daa520; stroke: #daa520"/>
     <use xlink:href="#m0b436f9821" x="166.077451" y="91.641308" style="fill: #daa520; stroke: #daa520"/>
     <use xlink:href="#m0b436f9821" x="78.205271" y="92.427035" style="fill: #daa520; stroke: #daa520"/>
     <use xlink:href="#m0b436f9821" x="159.07985" y="88.187022" style="fill: #daa520; stroke: #daa520"/>
     <use xlink:href="#m0b436f9821" x="115.693438" y="115.308167" style="fill: #daa520; stroke: #daa520"/>
     <use xlink:href="#m0b436f9821" x="190.877066" y="112.129144" style="fill: #daa520; stroke: #daa520"/>
     <use xlink:href="#m0b436f9821" x="231.035957" y="99.202597" style="fill: #daa520; stroke: #daa520"/>
     <use xlink:href="#m0b436f9821" x="82.91154" y="87.594574" style="fill: #daa520; stroke: #daa520"/>
     <use xlink:href="#m0b436f9821" x="176.877876" y="115.56656" style="fill: #daa520; stroke: #daa520"/>
     <use xlink:href="#m0b436f9821" x="181.884644" y="104.543201" style="fill: #daa520; stroke: #daa520"/>
     <use xlink:href="#m0b436f9821" x="123.244561" y="127.219268" style="fill: #daa520; stroke: #daa520"/>
     <use xlink:href="#m0b436f9821" x="262.079569" y="85.448255" style="fill: #daa520; stroke: #daa520"/>
     <use xlink:href="#m0b436f9821" x="106.886539" y="129.267719" style="fill: #daa520; stroke: #daa520"/>
     <use xlink:href="#m0b436f9821" x="165.84927" y="108.568426" style="fill: #daa520; stroke: #daa520"/>
     <use xlink:href="#m0b436f9821" x="125.564077" y="119.13616" style="fill: #daa520; stroke: #daa520"/>
     <use xlink:href="#m0b436f9821" x="171.284106" y="114.485324" style="fill: #daa520; stroke: #daa520"/>
     <use xlink:href="#m0b436f9821" x="197.248059" y="109.68662" style="fill: #daa520; stroke: #daa520"/>
     <use xlink:href="#m0b436f9821" x="116.345211" y="77.213835" style="fill: #daa520; stroke: #daa520"/>
     <use xlink:href="#m0b436f9821" x="150.303236" y="113.802096" style="fill: #daa520; stroke: #daa520"/>
     <use xlink:href="#m0b436f9821" x="186.108028" y="113.805971" style="fill: #daa520; stroke: #daa520"/>
     <use xlink:href="#m0b436f9821" x="161.560045" y="97.950755" style="fill: #daa520; stroke: #daa520"/>
     <use xlink:href="#m0b436f9821" x="242.391685" y="107.481289" style="fill: #daa520; stroke: #daa520"/>
     <use xlink:href="#m0b436f9821" x="89.7198" y="103.503073" style="fill: #daa520; stroke: #daa520"/>
     <use xlink:href="#m0b436f9821" x="298.238202" y="92.317707" style="fill: #daa520; stroke: #daa520"/>
     <use xlink:href="#m0b436f9821" x="200.035016" y="135.324215" style="fill: #daa520; stroke: #daa520"/>
     <use xlink:href="#m0b436f9821" x="224.666892" y="109.112398" style="fill: #daa520; stroke: #daa520"/>
     <use xlink:href="#m0b436f9821" x="235.820652" y="87.410684" style="fill: #daa520; stroke: #daa520"/>
     <use xlink:href="#m0b436f9821" x="293.778972" y="154.578619" style="fill: #daa520; stroke: #daa520"/>
     <use xlink:href="#m0b436f9821" x="155.597185" y="89.589753" style="fill: #daa520; stroke: #daa520"/>
     <use xlink:href="#m0b436f9821" x="383.381619" y="100.205725" style="fill: #daa520; stroke: #daa520"/>
     <use xlink:href="#m0b436f9821" x="153.519121" y="116.850028" style="fill: #daa520; stroke: #daa520"/>
     <use xlink:href="#m0b436f9821" x="96.451996" y="81.467922" style="fill: #daa520; stroke: #daa520"/>
     <use xlink:href="#m0b436f9821" x="400.756831" y="103.09311" style="fill: #daa520; stroke: #daa520"/>
     <use xlink:href="#m0b436f9821" x="324.276521" y="161.055888" style="fill: #daa520; stroke: #daa520"/>
     <use xlink:href="#m0b436f9821" x="109.739203" y="119.397439" style="fill: #daa520; stroke: #daa520"/>
     <use xlink:href="#m0b436f9821" x="260.527118" y="121.825308" style="fill: #daa520; stroke: #daa520"/>
     <use xlink:href="#m0b436f9821" x="128.058326" y="128.106271" style="fill: #daa520; stroke: #daa520"/>
     <use xlink:href="#m0b436f9821" x="123.929498" y="124.824708" style="fill: #daa520; stroke: #daa520"/>
     <use xlink:href="#m0b436f9821" x="283.726027" y="84.065303" style="fill: #daa520; stroke: #daa520"/>
     <use xlink:href="#m0b436f9821" x="75.125252" y="108.725783" style="fill: #daa520; stroke: #daa520"/>
     <use xlink:href="#m0b436f9821" x="138.074826" y="109.219492" style="fill: #daa520; stroke: #daa520"/>
     <use xlink:href="#m0b436f9821" x="154.398165" y="123.645027" style="fill: #daa520; stroke: #daa520"/>
     <use xlink:href="#m0b436f9821" x="381.507412" y="111.006165" style="fill: #daa520; stroke: #daa520"/>
     <use xlink:href="#m0b436f9821" x="152.109001" y="88.662667" style="fill: #daa520; stroke: #daa520"/>
     <use xlink:href="#m0b436f9821" x="129.794264" y="98.329671" style="fill: #daa520; stroke: #daa520"/>
     <use xlink:href="#m0b436f9821" x="178.810967" y="126.918357" style="fill: #daa520; stroke: #daa520"/>
     <use xlink:href="#m0b436f9821" x="343.37888" y="101.972007" style="fill: #daa520; stroke: #daa520"/>
     <use xlink:href="#m0b436f9821" x="174.095493" y="106.809534" style="fill: #daa520; stroke: #daa520"/>
     <use xlink:href="#m0b436f9821" x="201.440132" y="121.913341" style="fill: #daa520; stroke: #daa520"/>
     <use xlink:href="#m0b436f9821" x="89.322174" y="78.667433" style="fill: #daa520; stroke: #daa520"/>
     <use xlink:href="#m0b436f9821" x="412.764361" y="108.559314" style="fill: #daa520; stroke: #daa520"/>
     <use xlink:href="#m0b436f9821" x="210.087107" y="131.716362" style="fill: #daa520; stroke: #daa520"/>
     <use xlink:href="#m0b436f9821" x="142.743903" y="122.044863" style="fill: #daa520; stroke: #daa520"/>
     <use xlink:href="#m0b436f9821" x="173.199156" y="117.066797" style="fill: #daa520; stroke: #daa520"/>
     <use xlink:href="#m0b436f9821" x="113.394753" y="130.519595" style="fill: #daa520; stroke: #daa520"/>
     <use xlink:href="#m0b436f9821" x="189.922659" y="93.814047" style="fill: #daa520; stroke: #daa520"/>
     <use xlink:href="#m0b436f9821" x="188.658059" y="101.159778" style="fill: #daa520; stroke: #daa520"/>
     <use xlink:href="#m0b436f9821" x="94.830609" y="126.552633" style="fill: #daa520; stroke: #daa520"/>
     <use xlink:href="#m0b436f9821" x="182.656935" y="107.399245" style="fill: #daa520; stroke: #daa520"/>
     <use xlink:href="#m0b436f9821" x="269.319184" y="119.401848" style="fill: #daa520; stroke: #daa520"/>
     <use xlink:href="#m0b436f9821" x="415.119358" y="124.505668" style="fill: #daa520; stroke: #daa520"/>
     <use xlink:href="#m0b436f9821" x="115.625161" y="130.524794" style="fill: #daa520; stroke: #daa520"/>
     <use xlink:href="#m0b436f9821" x="201.125513" y="106.637626" style="fill: #daa520; stroke: #daa520"/>
     <use xlink:href="#m0b436f9821" x="188.035092" y="103.035638" style="fill: #daa520; stroke: #daa520"/>
     <use xlink:href="#m0b436f9821" x="211.311058" y="136.349511" style="fill: #daa520; stroke: #daa520"/>
     <use xlink:href="#m0b436f9821" x="159.29381" y="124.865562" style="fill: #daa520; stroke: #daa520"/>
     <use xlink:href="#m0b436f9821" x="208.753679" y="75.013818" style="fill: #daa520; stroke: #daa520"/>
     <use xlink:href="#m0b436f9821" x="282.495977" y="149.437448" style="fill: #daa520; stroke: #daa520"/>
     <use xlink:href="#m0b436f9821" x="344.250163" y="137.495316" style="fill: #daa520; stroke: #daa520"/>
     <use xlink:href="#m0b436f9821" x="326.027482" y="161.370182" style="fill: #daa520; stroke: #daa520"/>
     <use xlink:href="#m0b436f9821" x="144.807896" y="125.435242" style="fill: #daa520; stroke: #daa520"/>
     <use xlink:href="#m0b436f9821" x="248.293254" y="89.959094" style="fill: #daa520; stroke: #daa520"/>
     <use xlink:href="#m0b436f9821" x="84.903239" y="116.676807" style="fill: #daa520; stroke: #daa520"/>
     <use xlink:href="#m0b436f9821" x="83.74252" y="128.679525" style="fill: #daa520; stroke: #daa520"/>
    </g>
   </g>
   <g id="matplotlib.axis_3"/>
   <g id="matplotlib.axis_4">
    <g id="ytick_1">
     <g id="line2d_3">
      <defs>
       <path id="m7d1156e9ae" d="M 0 0 
L -3.5 0 
" style="stroke: #696969; stroke-width: 0.8"/>
      </defs>
      <g>
       <use xlink:href="#m7d1156e9ae" x="53.0525" y="148.710508" style="fill: #696969; stroke: #696969; stroke-width: 0.8"/>
      </g>
     </g>
     <g id="text_1">
      <!-- −2.5 -->
      <g style="fill: #696969" transform="translate(7.2 154.789258) scale(0.16 -0.16)">
       <defs>
        <path id="DejaVuSans-2212" d="M 678 2272 
L 4684 2272 
L 4684 1741 
L 678 1741 
L 678 2272 
z
" transform="scale(0.015625)"/>
        <path id="DejaVuSans-32" d="M 1228 531 
L 3431 531 
L 3431 0 
L 469 0 
L 469 531 
Q 828 903 1448 1529 
Q 2069 2156 2228 2338 
Q 2531 2678 2651 2914 
Q 2772 3150 2772 3378 
Q 2772 3750 2511 3984 
Q 2250 4219 1831 4219 
Q 1534 4219 1204 4116 
Q 875 4013 500 3803 
L 500 4441 
Q 881 4594 1212 4672 
Q 1544 4750 1819 4750 
Q 2544 4750 2975 4387 
Q 3406 4025 3406 3419 
Q 3406 3131 3298 2873 
Q 3191 2616 2906 2266 
Q 2828 2175 2409 1742 
Q 1991 1309 1228 531 
z
" transform="scale(0.015625)"/>
        <path id="DejaVuSans-2e" d="M 684 794 
L 1344 794 
L 1344 0 
L 684 0 
L 684 794 
z
" transform="scale(0.015625)"/>
        <path id="DejaVuSans-35" d="M 691 4666 
L 3169 4666 
L 3169 4134 
L 1269 4134 
L 1269 2991 
Q 1406 3038 1543 3061 
Q 1681 3084 1819 3084 
Q 2600 3084 3056 2656 
Q 3513 2228 3513 1497 
Q 3513 744 3044 326 
Q 2575 -91 1722 -91 
Q 1428 -91 1123 -41 
Q 819 9 494 109 
L 494 744 
Q 775 591 1075 516 
Q 1375 441 1709 441 
Q 2250 441 2565 725 
Q 2881 1009 2881 1497 
Q 2881 1984 2565 2268 
Q 2250 2553 1709 2553 
Q 1456 2553 1204 2497 
Q 953 2441 691 2322 
L 691 4666 
z
" transform="scale(0.015625)"/>
       </defs>
       <use xlink:href="#DejaVuSans-2212"/>
       <use xlink:href="#DejaVuSans-32" x="83.789062"/>
       <use xlink:href="#DejaVuSans-2e" x="147.412109"/>
       <use xlink:href="#DejaVuSans-35" x="179.199219"/>
      </g>
     </g>
    </g>
    <g id="ytick_2">
     <g id="line2d_4">
      <g>
       <use xlink:href="#m7d1156e9ae" x="53.0525" y="114.935198" style="fill: #696969; stroke: #696969; stroke-width: 0.8"/>
      </g>
     </g>
     <g id="text_2">
      <!-- 0.0 -->
      <g style="fill: #696969" transform="translate(20.6075 121.013948) scale(0.16 -0.16)">
       <defs>
        <path id="DejaVuSans-30" d="M 2034 4250 
Q 1547 4250 1301 3770 
Q 1056 3291 1056 2328 
Q 1056 1369 1301 889 
Q 1547 409 2034 409 
Q 2525 409 2770 889 
Q 3016 1369 3016 2328 
Q 3016 3291 2770 3770 
Q 2525 4250 2034 4250 
z
M 2034 4750 
Q 2819 4750 3233 4129 
Q 3647 3509 3647 2328 
Q 3647 1150 3233 529 
Q 2819 -91 2034 -91 
Q 1250 -91 836 529 
Q 422 1150 422 2328 
Q 422 3509 836 4129 
Q 1250 4750 2034 4750 
z
" transform="scale(0.015625)"/>
       </defs>
       <use xlink:href="#DejaVuSans-30"/>
       <use xlink:href="#DejaVuSans-2e" x="63.623047"/>
       <use xlink:href="#DejaVuSans-30" x="95.410156"/>
      </g>
     </g>
    </g>
    <g id="ytick_3">
     <g id="line2d_5">
      <g>
       <use xlink:href="#m7d1156e9ae" x="53.0525" y="81.159888" style="fill: #696969; stroke: #696969; stroke-width: 0.8"/>
      </g>
     </g>
     <g id="text_3">
      <!-- 2.5 -->
      <g style="fill: #696969" transform="translate(20.6075 87.238638) scale(0.16 -0.16)">
       <use xlink:href="#DejaVuSans-32"/>
       <use xlink:href="#DejaVuSans-2e" x="63.623047"/>
       <use xlink:href="#DejaVuSans-35" x="95.410156"/>
      </g>
     </g>
    </g>
   </g>
   <g id="line2d_6">
    <path d="M 70.462045 108.686011 
L 77.425864 108.166044 
L 84.389682 107.679163 
L 91.3535 107.244033 
L 98.317318 106.878132 
L 105.281136 106.595826 
L 112.244955 106.406719 
L 119.208773 106.314577 
L 126.172591 106.316829 
L 133.136409 106.404798 
L 140.100227 106.564543 
L 147.064045 106.778269 
L 154.027864 107.026152 
L 160.991682 107.288313 
L 167.9555 107.546796 
L 174.919318 107.787317 
L 181.883136 108.000574 
L 188.846955 108.183042 
L 195.810773 108.337145 
L 202.774591 108.470891 
L 209.738409 108.596902 
L 216.702227 108.731111 
L 223.666045 108.891201 
L 230.629864 109.094921 
L 237.593682 109.358535 
L 244.5575 109.695457 
L 251.521318 110.115197 
L 258.485136 110.622699 
L 265.448955 111.218082 
L 272.412773 111.89673 
L 279.376591 112.649766 
L 286.340409 113.464779 
L 293.304227 114.326766 
L 300.268045 115.219198 
L 307.231864 116.125147 
L 314.195682 117.028411 
L 321.1595 117.914515 
L 328.123318 118.771632 
L 335.087136 119.591247 
L 342.050955 120.368606 
L 349.014773 121.102923 
L 355.978591 121.79726 
L 362.942409 122.458175 
L 369.906227 123.095114 
L 376.870045 123.719623 
L 383.833864 124.344441 
L 390.797682 124.982543 
L 397.7615 125.646208 
L 404.725318 126.346214 
L 411.689136 127.091149 
L 418.652955 127.886904 
" clip-path="url(#pdcf5e5f14e)" style="fill: none; stroke: #000000; stroke-width: 2; stroke-linecap: square"/>
   </g>
   <g id="line2d_7">
    <path d="M 70.462045 101.612796 
L 77.425864 101.891339 
L 84.389682 103.593572 
L 91.3535 105.826912 
L 98.317318 108.040863 
L 105.281136 109.926983 
L 112.244955 111.342542 
L 119.208773 112.253383 
L 126.172591 112.692111 
L 133.136409 112.728348 
L 140.100227 112.448332 
L 147.064045 111.941585 
L 154.027864 111.292808 
L 160.991682 110.577518 
L 167.9555 109.860257 
L 174.919318 109.19445 
L 181.883136 108.623246 
L 188.846955 108.180839 
L 195.810773 107.89391 
L 202.774591 107.782987 
L 209.738409 107.863556 
L 216.702227 108.146884 
L 223.666045 108.640508 
L 230.629864 109.348414 
L 237.593682 110.27091 
L 244.5575 111.404242 
L 251.521318 112.73997 
L 258.485136 114.264121 
L 265.448955 115.956159 
L 272.412773 117.78778 
L 279.376591 119.721578 
L 286.340409 121.70962 
L 293.304227 123.692042 
L 300.268045 125.595788 
L 307.231864 127.33374 
L 314.195682 128.804539 
L 321.1595 129.893574 
L 328.123318 130.475751 
L 335.087136 130.42087 
L 342.050955 129.602678 
L 349.014773 127.912942 
L 355.978591 125.282238 
L 362.942409 121.70951 
L 369.906227 117.302914 
L 376.870045 112.334946 
L 383.833864 107.315409 
L 390.797682 103.0864 
L 397.7615 100.944199 
L 404.725318 102.79368 
L 411.689136 111.341727 
L 418.652955 130.337049 
" clip-path="url(#pdcf5e5f14e)" style="fill: none; stroke-dasharray: 7.4,3.2; stroke-dashoffset: 0; stroke: #34b6c6; stroke-width: 2"/>
   </g>
   <g id="line2d_8">
    <path d="M 70.462045 101.364598 
L 77.425864 101.894997 
L 84.389682 103.678802 
L 91.3535 105.901092 
L 98.317318 108.063549 
L 105.281136 109.890845 
L 112.244955 111.259402 
L 119.208773 112.144253 
L 126.172591 112.580318 
L 133.136409 112.635039 
L 140.100227 112.389753 
L 147.064045 111.927681 
L 154.027864 111.326786 
L 160.991682 110.656093 
L 167.9555 109.974364 
L 174.919318 109.330285 
L 181.883136 108.763505 
L 188.846955 108.306083 
L 195.810773 107.983993 
L 202.774591 107.818495 
L 209.738409 107.827229 
L 216.702227 108.024972 
L 223.666045 108.424027 
L 230.629864 109.034247 
L 237.593682 109.862707 
L 244.5575 110.913031 
L 251.521318 112.184412 
L 258.485136 113.67031 
L 265.448955 115.356868 
L 272.412773 117.221075 
L 279.376591 119.228719 
L 286.340409 121.332243 
L 293.304227 123.468669 
L 300.268045 125.557826 
L 307.231864 127.501241 
L 314.195682 129.182148 
L 321.1595 130.467198 
L 328.123318 131.210556 
L 335.087136 131.261234 
L 342.050955 130.474618 
L 349.014773 128.729375 
L 355.978591 125.951179 
L 362.942409 122.145036 
L 369.906227 117.438458 
L 376.870045 112.138271 
L 383.833864 106.804468 
L 390.797682 102.34521 
L 397.7615 100.137804 
L 404.725318 102.181259 
L 411.689136 111.286857 
L 418.652955 131.314024 
" clip-path="url(#pdcf5e5f14e)" style="fill: none; stroke-dasharray: 7.4,3.2; stroke-dashoffset: 0; stroke: #9370db; stroke-width: 2"/>
   </g>
   <g id="line2d_9">
    <path d="M 70.462045 106.048281 
L 77.425864 106.1076 
L 84.389682 106.167832 
L 91.3535 106.229288 
L 98.317318 106.292321 
L 105.281136 106.357326 
L 112.244955 106.424751 
L 119.208773 106.495098 
L 126.172591 106.568933 
L 133.136409 106.646894 
L 140.100227 106.729701 
L 147.064045 106.81816 
L 154.027864 106.913179 
L 160.991682 107.015777 
L 167.9555 107.127093 
L 174.919318 107.248397 
L 181.883136 107.381104 
L 188.846955 107.526778 
L 195.810773 107.687143 
L 202.774591 107.864085 
L 209.738409 108.059652 
L 216.702227 108.276048 
L 223.666045 108.515618 
L 230.629864 108.780823 
L 237.593682 109.074202 
L 244.5575 109.398317 
L 251.521318 109.75568 
L 258.485136 110.148656 
L 265.448955 110.579347 
L 272.412773 111.049446 
L 279.376591 111.560077 
L 286.340409 112.111621 
L 293.304227 112.703537 
L 300.268045 113.334206 
L 307.231864 114.000807 
L 314.195682 114.699263 
L 321.1595 115.424263 
L 328.123318 116.169394 
L 335.087136 116.927363 
L 342.050955 117.690311 
L 349.014773 118.45019 
L 355.978591 119.199151 
L 362.942409 119.929912 
L 369.906227 120.636061 
L 376.870045 121.312271 
L 383.833864 121.954413 
L 390.797682 122.559572 
L 397.7615 123.125982 
L 404.725318 123.652907 
L 411.689136 124.140482 
L 418.652955 124.589545 
" clip-path="url(#pdcf5e5f14e)" style="fill: none; stroke-dasharray: 12.8,3.2,2,3.2; stroke-dashoffset: 0; stroke: #ff0000; stroke-width: 2"/>
   </g>
   <g id="patch_4">
    <path d="M 53.0525 165.688 
L 53.0525 70.696 
" style="fill: none; stroke: #000000; stroke-width: 0.8; stroke-linejoin: miter; stroke-linecap: square"/>
   </g>
   <g id="patch_5">
    <path d="M 436.0625 165.688 
L 436.0625 70.696 
" style="fill: none; stroke: #000000; stroke-width: 0.8; stroke-linejoin: miter; stroke-linecap: square"/>
   </g>
   <g id="patch_6">
    <path d="M 53.0525 165.688 
L 436.0625 165.688 
" style="fill: none; stroke: #000000; stroke-width: 0.8; stroke-linejoin: miter; stroke-linecap: square"/>
   </g>
   <g id="patch_7">
    <path d="M 53.0525 70.696 
L 436.0625 70.696 
" style="fill: none; stroke: #000000; stroke-width: 0.8; stroke-linejoin: miter; stroke-linecap: square"/>
   </g>
  </g>
  <g id="axes_3">
   <g id="patch_8">
    <path d="M 53.0525 276.68 
L 436.0625 276.68 
L 436.0625 181.688 
L 53.0525 181.688 
z
" style="fill: #ffffff"/>
   </g>
   <g id="PathCollection_2">
    <g clip-path="url(#p2b0e281a17)">
     <use xlink:href="#m0b436f9821" x="165.862172" y="239.732533" style="fill: #daa520; stroke: #daa520"/>
     <use xlink:href="#m0b436f9821" x="85.208077" y="263.341014" style="fill: #daa520; stroke: #daa520"/>
     <use xlink:href="#m0b436f9821" x="72.326978" y="232.784192" style="fill: #daa520; stroke: #daa520"/>
     <use xlink:href="#m0b436f9821" x="132.708079" y="246.747071" style="fill: #daa520; stroke: #daa520"/>
     <use xlink:href="#m0b436f9821" x="360.620191" y="245.964918" style="fill: #daa520; stroke: #daa520"/>
     <use xlink:href="#m0b436f9821" x="165.06114" y="230.061019" style="fill: #daa520; stroke: #daa520"/>
     <use xlink:href="#m0b436f9821" x="178.954258" y="244.863081" style="fill: #daa520; stroke: #daa520"/>
     <use xlink:href="#m0b436f9821" x="189.366428" y="208.839795" style="fill: #daa520; stroke: #daa520"/>
     <use xlink:href="#m0b436f9821" x="167.634714" y="257.192644" style="fill: #daa520; stroke: #daa520"/>
     <use xlink:href="#m0b436f9821" x="328.190664" y="186.976955" style="fill: #daa520; stroke: #daa520"/>
     <use xlink:href="#m0b436f9821" x="136.001559" y="225.183777" style="fill: #daa520; stroke: #daa520"/>
     <use xlink:href="#m0b436f9821" x="137.687331" y="246.332164" style="fill: #daa520; stroke: #daa520"/>
     <use xlink:href="#m0b436f9821" x="187.040983" y="234.213348" style="fill: #daa520; stroke: #daa520"/>
     <use xlink:href="#m0b436f9821" x="239.422663" y="201.017312" style="fill: #daa520; stroke: #daa520"/>
     <use xlink:href="#m0b436f9821" x="192.839664" y="226.800535" style="fill: #daa520; stroke: #daa520"/>
     <use xlink:href="#m0b436f9821" x="307.259792" y="262.523271" style="fill: #daa520; stroke: #daa520"/>
     <use xlink:href="#m0b436f9821" x="166.077451" y="253.02855" style="fill: #daa520; stroke: #daa520"/>
     <use xlink:href="#m0b436f9821" x="78.205271" y="251.082672" style="fill: #daa520; stroke: #daa520"/>
     <use xlink:href="#m0b436f9821" x="159.07985" y="256.710889" style="fill: #daa520; stroke: #daa520"/>
     <use xlink:href="#m0b436f9821" x="115.693438" y="226.273196" style="fill: #daa520; stroke: #daa520"/>
     <use xlink:href="#m0b436f9821" x="190.877066" y="230.997874" style="fill: #daa520; stroke: #daa520"/>
     <use xlink:href="#m0b436f9821" x="231.035957" y="246.577117" style="fill: #daa520; stroke: #daa520"/>
     <use xlink:href="#m0b436f9821" x="82.91154" y="256.447353" style="fill: #daa520; stroke: #daa520"/>
     <use xlink:href="#m0b436f9821" x="176.877876" y="226.897305" style="fill: #daa520; stroke: #daa520"/>
     <use xlink:href="#m0b436f9821" x="181.884644" y="239.138973" style="fill: #daa520; stroke: #daa520"/>
     <use xlink:href="#m0b436f9821" x="123.244561" y="213.246744" style="fill: #daa520; stroke: #daa520"/>
     <use xlink:href="#m0b436f9821" x="262.079569" y="263.446133" style="fill: #daa520; stroke: #daa520"/>
     <use xlink:href="#m0b436f9821" x="106.886539" y="210.810258" style="fill: #daa520; stroke: #daa520"/>
     <use xlink:href="#m0b436f9821" x="165.84927" y="234.389899" style="fill: #daa520; stroke: #daa520"/>
     <use xlink:href="#m0b436f9821" x="125.564077" y="222.172613" style="fill: #daa520; stroke: #daa520"/>
     <use xlink:href="#m0b436f9821" x="171.284106" y="227.976684" style="fill: #daa520; stroke: #daa520"/>
     <use xlink:href="#m0b436f9821" x="197.248059" y="233.852249" style="fill: #daa520; stroke: #daa520"/>
     <use xlink:href="#m0b436f9821" x="116.345211" y="268.217382" style="fill: #daa520; stroke: #daa520"/>
     <use xlink:href="#m0b436f9821" x="150.303236" y="228.37406" style="fill: #daa520; stroke: #daa520"/>
     <use xlink:href="#m0b436f9821" x="186.108028" y="229.037303" style="fill: #daa520; stroke: #daa520"/>
     <use xlink:href="#m0b436f9821" x="161.560045" y="246.003816" style="fill: #daa520; stroke: #daa520"/>
     <use xlink:href="#m0b436f9821" x="242.391685" y="238.010411" style="fill: #daa520; stroke: #daa520"/>
     <use xlink:href="#m0b436f9821" x="89.7198" y="238.999973" style="fill: #daa520; stroke: #daa520"/>
     <use xlink:href="#m0b436f9821" x="298.238202" y="258.944598" style="fill: #daa520; stroke: #daa520"/>
     <use xlink:href="#m0b436f9821" x="200.035016" y="205.705781" style="fill: #daa520; stroke: #daa520"/>
     <use xlink:href="#m0b436f9821" x="224.666892" y="235.397958" style="fill: #daa520; stroke: #daa520"/>
     <use xlink:href="#m0b436f9821" x="235.820652" y="259.778174" style="fill: #daa520; stroke: #daa520"/>
     <use xlink:href="#m0b436f9821" x="293.778972" y="189.961738" style="fill: #daa520; stroke: #daa520"/>
     <use xlink:href="#m0b436f9821" x="155.597185" y="255.110308" style="fill: #daa520; stroke: #daa520"/>
     <use xlink:href="#m0b436f9821" x="383.381619" y="259.912565" style="fill: #daa520; stroke: #daa520"/>
     <use xlink:href="#m0b436f9821" x="153.519121" y="225.067683" style="fill: #daa520; stroke: #daa520"/>
     <use xlink:href="#m0b436f9821" x="96.451996" y="263.324443" style="fill: #daa520; stroke: #daa520"/>
     <use xlink:href="#m0b436f9821" x="400.756831" y="258.323219" style="fill: #daa520; stroke: #daa520"/>
     <use xlink:href="#m0b436f9821" x="324.276521" y="186.145152" style="fill: #daa520; stroke: #daa520"/>
     <use xlink:href="#m0b436f9821" x="109.739203" y="221.706478" style="fill: #daa520; stroke: #daa520"/>
     <use xlink:href="#m0b436f9821" x="260.527118" y="223.294929" style="fill: #daa520; stroke: #daa520"/>
     <use xlink:href="#m0b436f9821" x="128.058326" y="212.327717" style="fill: #daa520; stroke: #daa520"/>
     <use xlink:href="#m0b436f9821" x="123.929498" y="215.89089" style="fill: #daa520; stroke: #daa520"/>
     <use xlink:href="#m0b436f9821" x="283.726027" y="266.656924" style="fill: #daa520; stroke: #daa520"/>
     <use xlink:href="#m0b436f9821" x="75.125252" y="233.110826" style="fill: #daa520; stroke: #daa520"/>
     <use xlink:href="#m0b436f9821" x="138.074826" y="233.246725" style="fill: #daa520; stroke: #daa520"/>
     <use xlink:href="#m0b436f9821" x="154.398165" y="217.600964" style="fill: #daa520; stroke: #daa520"/>
     <use xlink:href="#m0b436f9821" x="381.507412" y="247.835612" style="fill: #daa520; stroke: #daa520"/>
     <use xlink:href="#m0b436f9821" x="152.109001" y="256.076621" style="fill: #daa520; stroke: #daa520"/>
     <use xlink:href="#m0b436f9821" x="129.794264" y="245.129157" style="fill: #daa520; stroke: #daa520"/>
     <use xlink:href="#m0b436f9821" x="178.810967" y="214.440687" style="fill: #daa520; stroke: #daa520"/>
     <use xlink:href="#m0b436f9821" x="343.37888" y="253.478642" style="fill: #daa520; stroke: #daa520"/>
     <use xlink:href="#m0b436f9821" x="174.095493" y="236.481487" style="fill: #daa520; stroke: #daa520"/>
     <use xlink:href="#m0b436f9821" x="201.440132" y="220.509522" style="fill: #daa520; stroke: #daa520"/>
     <use xlink:href="#m0b436f9821" x="89.322174" y="266.336913" style="fill: #daa520; stroke: #daa520"/>
     <use xlink:href="#m0b436f9821" x="412.764361" y="253.246691" style="fill: #daa520; stroke: #daa520"/>
     <use xlink:href="#m0b436f9821" x="210.087107" y="209.983165" style="fill: #daa520; stroke: #daa520"/>
     <use xlink:href="#m0b436f9821" x="142.743903" y="219.190951" style="fill: #daa520; stroke: #daa520"/>
     <use xlink:href="#m0b436f9821" x="173.199156" y="225.171899" style="fill: #daa520; stroke: #daa520"/>
     <use xlink:href="#m0b436f9821" x="113.394753" y="209.502023" style="fill: #daa520; stroke: #daa520"/>
     <use xlink:href="#m0b436f9821" x="189.922659" y="251.136881" style="fill: #daa520; stroke: #daa520"/>
     <use xlink:href="#m0b436f9821" x="188.658059" y="243.019465" style="fill: #daa520; stroke: #daa520"/>
     <use xlink:href="#m0b436f9821" x="94.830609" y="213.67581" style="fill: #daa520; stroke: #daa520"/>
     <use xlink:href="#m0b436f9821" x="182.656935" y="236.011887" style="fill: #daa520; stroke: #daa520"/>
     <use xlink:href="#m0b436f9821" x="269.319184" y="226.58451" style="fill: #daa520; stroke: #daa520"/>
     <use xlink:href="#m0b436f9821" x="415.119358" y="235.861481" style="fill: #daa520; stroke: #daa520"/>
     <use xlink:href="#m0b436f9821" x="115.625161" y="209.520901" style="fill: #daa520; stroke: #daa520"/>
     <use xlink:href="#m0b436f9821" x="201.125513" y="237.317055" style="fill: #daa520; stroke: #daa520"/>
     <use xlink:href="#m0b436f9821" x="188.035092" y="240.939449" style="fill: #daa520; stroke: #daa520"/>
     <use xlink:href="#m0b436f9821" x="211.311058" y="204.923009" style="fill: #daa520; stroke: #daa520"/>
     <use xlink:href="#m0b436f9821" x="159.29381" y="216.336102" style="fill: #daa520; stroke: #daa520"/>
     <use xlink:href="#m0b436f9821" x="208.753679" y="272.362182" style="fill: #daa520; stroke: #daa520"/>
     <use xlink:href="#m0b436f9821" x="282.495977" y="194.583117" style="fill: #daa520; stroke: #daa520"/>
     <use xlink:href="#m0b436f9821" x="344.250163" y="214.476993" style="fill: #daa520; stroke: #daa520"/>
     <use xlink:href="#m0b436f9821" x="326.027482" y="186.005818" style="fill: #daa520; stroke: #daa520"/>
     <use xlink:href="#m0b436f9821" x="144.807896" y="215.487489" style="fill: #daa520; stroke: #daa520"/>
     <use xlink:href="#m0b436f9821" x="248.293254" y="257.621168" style="fill: #daa520; stroke: #daa520"/>
     <use xlink:href="#m0b436f9821" x="84.903239" y="224.450694" style="fill: #daa520; stroke: #daa520"/>
     <use xlink:href="#m0b436f9821" x="83.74252" y="211.226103" style="fill: #daa520; stroke: #daa520"/>
    </g>
   </g>
   <g id="matplotlib.axis_5">
    <g id="xtick_1">
     <g id="line2d_10">
      <defs>
       <path id="m02dbe9d28d" d="M 0 0 
L 0 3.5 
" style="stroke: #696969; stroke-width: 0.8"/>
      </defs>
      <g>
       <use xlink:href="#m02dbe9d28d" x="70.462045" y="276.68" style="fill: #696969; stroke: #696969; stroke-width: 0.8"/>
      </g>
     </g>
     <g id="text_4">
      <!-- −1.0 -->
      <g style="fill: #696969" transform="translate(51.035795 295.8375) scale(0.16 -0.16)">
       <defs>
        <path id="DejaVuSans-31" d="M 794 531 
L 1825 531 
L 1825 4091 
L 703 3866 
L 703 4441 
L 1819 4666 
L 2450 4666 
L 2450 531 
L 3481 531 
L 3481 0 
L 794 0 
L 794 531 
z
" transform="scale(0.015625)"/>
       </defs>
       <use xlink:href="#DejaVuSans-2212"/>
       <use xlink:href="#DejaVuSans-31" x="83.789062"/>
       <use xlink:href="#DejaVuSans-2e" x="147.412109"/>
       <use xlink:href="#DejaVuSans-30" x="179.199219"/>
      </g>
     </g>
    </g>
    <g id="xtick_2">
     <g id="line2d_11">
      <g>
       <use xlink:href="#m02dbe9d28d" x="157.509773" y="276.68" style="fill: #696969; stroke: #696969; stroke-width: 0.8"/>
      </g>
     </g>
     <g id="text_5">
      <!-- −0.5 -->
      <g style="fill: #696969" transform="translate(138.083523 295.8375) scale(0.16 -0.16)">
       <use xlink:href="#DejaVuSans-2212"/>
       <use xlink:href="#DejaVuSans-30" x="83.789062"/>
       <use xlink:href="#DejaVuSans-2e" x="147.412109"/>
       <use xlink:href="#DejaVuSans-35" x="179.199219"/>
      </g>
     </g>
    </g>
    <g id="xtick_3">
     <g id="line2d_12">
      <g>
       <use xlink:href="#m02dbe9d28d" x="244.5575" y="276.68" style="fill: #696969; stroke: #696969; stroke-width: 0.8"/>
      </g>
     </g>
     <g id="text_6">
      <!-- 0.0 -->
      <g style="fill: #696969" transform="translate(231.835 295.8375) scale(0.16 -0.16)">
       <use xlink:href="#DejaVuSans-30"/>
       <use xlink:href="#DejaVuSans-2e" x="63.623047"/>
       <use xlink:href="#DejaVuSans-30" x="95.410156"/>
      </g>
     </g>
    </g>
    <g id="xtick_4">
     <g id="line2d_13">
      <g>
       <use xlink:href="#m02dbe9d28d" x="331.605227" y="276.68" style="fill: #696969; stroke: #696969; stroke-width: 0.8"/>
      </g>
     </g>
     <g id="text_7">
      <!-- 0.5 -->
      <g style="fill: #696969" transform="translate(318.882727 295.8375) scale(0.16 -0.16)">
       <use xlink:href="#DejaVuSans-30"/>
       <use xlink:href="#DejaVuSans-2e" x="63.623047"/>
       <use xlink:href="#DejaVuSans-35" x="95.410156"/>
      </g>
     </g>
    </g>
    <g id="xtick_5">
     <g id="line2d_14">
      <g>
       <use xlink:href="#m02dbe9d28d" x="418.652955" y="276.68" style="fill: #696969; stroke: #696969; stroke-width: 0.8"/>
      </g>
     </g>
     <g id="text_8">
      <!-- 1.0 -->
      <g style="fill: #696969" transform="translate(405.930455 295.8375) scale(0.16 -0.16)">
       <use xlink:href="#DejaVuSans-31"/>
       <use xlink:href="#DejaVuSans-2e" x="63.623047"/>
       <use xlink:href="#DejaVuSans-30" x="95.410156"/>
      </g>
     </g>
    </g>
    <g id="text_9">
     <!-- $X$ -->
     <g transform="translate(239.0375 315.3225) scale(0.16 -0.16)">
      <defs>
       <path id="DejaVuSans-Oblique-58" d="M 878 4666 
L 1516 4666 
L 2316 2981 
L 3763 4666 
L 4500 4666 
L 2578 2438 
L 3738 0 
L 3103 0 
L 2163 1966 
L 459 0 
L -275 0 
L 1906 2509 
L 878 4666 
z
" transform="scale(0.015625)"/>
      </defs>
      <use xlink:href="#DejaVuSans-Oblique-58" transform="translate(0 0.09375)"/>
     </g>
    </g>
   </g>
   <g id="matplotlib.axis_6">
    <g id="ytick_4">
     <g id="line2d_15">
      <g>
       <use xlink:href="#m7d1156e9ae" x="53.0525" y="273.197019" style="fill: #696969; stroke: #696969; stroke-width: 0.8"/>
      </g>
     </g>
     <g id="text_10">
      <!-- −2.5 -->
      <g style="fill: #696969" transform="translate(7.2 279.275769) scale(0.16 -0.16)">
       <use xlink:href="#DejaVuSans-2212"/>
       <use xlink:href="#DejaVuSans-32" x="83.789062"/>
       <use xlink:href="#DejaVuSans-2e" x="147.412109"/>
       <use xlink:href="#DejaVuSans-35" x="179.199219"/>
      </g>
     </g>
    </g>
    <g id="ytick_5">
     <g id="line2d_16">
      <g>
       <use xlink:href="#m7d1156e9ae" x="53.0525" y="236.014776" style="fill: #696969; stroke: #696969; stroke-width: 0.8"/>
      </g>
     </g>
     <g id="text_11">
      <!-- 0.0 -->
      <g style="fill: #696969" transform="translate(20.6075 242.093526) scale(0.16 -0.16)">
       <use xlink:href="#DejaVuSans-30"/>
       <use xlink:href="#DejaVuSans-2e" x="63.623047"/>
       <use xlink:href="#DejaVuSans-30" x="95.410156"/>
      </g>
     </g>
    </g>
    <g id="ytick_6">
     <g id="line2d_17">
      <g>
       <use xlink:href="#m7d1156e9ae" x="53.0525" y="198.832534" style="fill: #696969; stroke: #696969; stroke-width: 0.8"/>
      </g>
     </g>
     <g id="text_12">
      <!-- 2.5 -->
      <g style="fill: #696969" transform="translate(20.6075 204.911284) scale(0.16 -0.16)">
       <use xlink:href="#DejaVuSans-32"/>
       <use xlink:href="#DejaVuSans-2e" x="63.623047"/>
       <use xlink:href="#DejaVuSans-35" x="95.410156"/>
      </g>
     </g>
    </g>
   </g>
   <g id="line2d_18">
    <path d="M 70.462045 233.110977 
L 77.425864 233.748696 
L 84.389682 234.350997 
L 91.3535 234.897673 
L 98.317318 235.369874 
L 105.281136 235.752219 
L 112.244955 236.034627 
L 119.208773 236.213507 
L 126.172591 236.29231 
L 133.136409 236.281293 
L 140.100227 236.196594 
L 147.064045 236.058691 
L 154.027864 235.890408 
L 160.991682 235.71475 
L 167.9555 235.552738 
L 174.919318 235.421496 
L 181.883136 235.33282 
L 188.846955 235.292315 
L 195.810773 235.299208 
L 202.774591 235.346761 
L 209.738409 235.423333 
L 216.702227 235.51381 
L 223.666045 235.601308 
L 230.629864 235.668995 
L 237.593682 235.701763 
L 244.5575 235.687664 
L 251.521318 235.618995 
L 258.485136 235.492916 
L 265.448955 235.311612 
L 272.412773 235.082026 
L 279.376591 234.815169 
L 286.340409 234.525124 
L 293.304227 234.227812 
L 300.268045 233.939644 
L 307.231864 233.676153 
L 314.195682 233.450685 
L 321.1595 233.273331 
L 328.123318 233.15005 
L 335.087136 233.082185 
L 342.050955 233.066321 
L 349.014773 233.094462 
L 355.978591 233.154596 
L 362.942409 233.231486 
L 369.906227 233.307677 
L 376.870045 233.364594 
L 383.833864 233.383665 
L 390.797682 233.347398 
L 397.7615 233.240333 
L 404.725318 233.049794 
L 411.689136 232.766474 
L 418.652955 232.384811 
" clip-path="url(#p2b0e281a17)" style="fill: none; stroke: #696969; stroke-width: 2; stroke-linecap: square"/>
   </g>
   <g id="line2d_19">
    <path d="M 70.462045 240.947899 
L 77.425864 240.655594 
L 84.389682 238.831454 
L 91.3535 236.442729 
L 98.317318 234.085266 
L 105.281136 232.09236 
L 112.244955 230.61775 
L 119.208773 229.697734 
L 126.172591 229.296574 
L 133.136409 229.338767 
L 140.100227 229.731158 
L 147.064045 230.377362 
L 154.027864 231.186496 
L 160.991682 232.077859 
L 167.9555 232.982824 
L 174.919318 233.844936 
L 181.883136 234.618955 
L 188.846955 235.269395 
L 195.810773 235.768922 
L 202.774591 236.096869 
L 209.738409 236.238004 
L 216.702227 236.181641 
L 223.666045 235.921097 
L 230.629864 235.45351 
L 237.593682 234.779964 
L 244.5575 233.905919 
L 251.521318 232.841888 
L 258.485136 231.604352 
L 265.448955 230.216881 
L 272.412773 228.711427 
L 279.376591 227.12976 
L 286.340409 225.524992 
L 293.304227 223.96306 
L 300.268045 222.524045 
L 307.231864 221.303047 
L 314.195682 220.410276 
L 321.1595 219.969854 
L 328.123318 220.116627 
L 335.087136 220.990107 
L 342.050955 222.724348 
L 349.014773 225.43229 
L 355.978591 229.182712 
L 362.942409 233.967532 
L 369.906227 239.656709 
L 376.870045 245.93745 
L 383.833864 252.233824 
L 390.797682 257.602212 
L 397.7615 260.597237 
L 404.725318 259.10202 
L 411.689136 250.115652 
L 418.652955 229.489808 
" clip-path="url(#p2b0e281a17)" style="fill: none; stroke-dasharray: 7.4,3.2; stroke-dashoffset: 0; stroke: #79ad41; stroke-width: 2"/>
   </g>
   <g id="patch_9">
    <path d="M 53.0525 276.68 
L 53.0525 181.688 
" style="fill: none; stroke: #000000; stroke-width: 0.8; stroke-linejoin: miter; stroke-linecap: square"/>
   </g>
   <g id="patch_10">
    <path d="M 436.0625 276.68 
L 436.0625 181.688 
" style="fill: none; stroke: #000000; stroke-width: 0.8; stroke-linejoin: miter; stroke-linecap: square"/>
   </g>
   <g id="patch_11">
    <path d="M 53.0525 276.68 
L 436.0625 276.68 
" style="fill: none; stroke: #000000; stroke-width: 0.8; stroke-linejoin: miter; stroke-linecap: square"/>
   </g>
   <g id="patch_12">
    <path d="M 53.0525 181.688 
L 436.0625 181.688 
" style="fill: none; stroke: #000000; stroke-width: 0.8; stroke-linejoin: miter; stroke-linecap: square"/>
   </g>
  </g>
 </g>
 <defs>
  <clipPath id="p150b3b2b0b">
   <rect x="53.0525" y="7.2" width="383.01" height="47.496"/>
  </clipPath>
  <clipPath id="pdcf5e5f14e">
   <rect x="53.0525" y="70.696" width="383.01" height="94.992"/>
  </clipPath>
  <clipPath id="p2b0e281a17">
   <rect x="53.0525" y="181.688" width="383.01" height="94.992"/>
  </clipPath>
 </defs>
</svg>
