<?xml version="1.0" encoding="utf-8" standalone="no"?>
<!DOCTYPE svg PUBLIC "-//W3C//DTD SVG 1.1//EN"
  "http://www.w3.org/Graphics/SVG/1.1/DTD/svg11.dtd">
<svg xmlns:xlink="http://www.w3.org/1999/xlink" width="443.2625pt" height="325.85pt" viewBox="0 0 443.2625 325.85" xmlns="http://www.w3.org/2000/svg" version="1.1">
 <metadata>
  <rdf:RDF xmlns:dc="http://purl.org/dc/elements/1.1/" xmlns:cc="http://creativecommons.org/ns#" xmlns:rdf="http://www.w3.org/1999/02/22-rdf-syntax-ns#">
   <cc:Work>
    <dc:type rdf:resource="http://purl.org/dc/dcmitype/StillImage"/>
    <dc:date>2024-01-28T20:58:24.688199</dc:date>
    <dc:format>image/svg+xml</dc:format>
    <dc:creator>
     <cc:Agent>
      <dc:title>Matplotlib v3.7.2, https://matplotlib.org/</dc:title>
     </cc:Agent>
    </dc:creator>
   </cc:Work>
  </rdf:RDF>
 </metadata>
 <defs>
  <style type="text/css">*{stroke-linejoin: round; stroke-linecap: butt}</style>
 </defs>
 <g id="figure_1">
  <g id="patch_1">
   <path d="M 0 325.85 
L 443.2625 325.85 
L 443.2625 0 
L 0 0 
z
" style="fill: #ffffff"/>
  </g>
  <g id="axes_1">
   <g id="patch_2">
    <path d="M 53.0525 54.696 
L 436.0625 54.696 
L 436.0625 7.2 
L 53.0525 7.2 
z
" style="fill: #ffffff"/>
   </g>
   <g id="PolyCollection_1">
    <defs>
     <path id="ma049286a37" d="M 70.462045 -273.312909 
L 70.462045 -294.291923 
L 77.425864 -293.65071 
L 84.389682 -292.977166 
L 91.3535 -292.278565 
L 98.317318 -291.56245 
L 105.281136 -290.836403 
L 112.244955 -290.107938 
L 119.208773 -289.38433 
L 126.172591 -288.67243 
L 133.136409 -287.978555 
L 140.100227 -287.308356 
L 147.064045 -286.666751 
L 154.027864 -286.057879 
L 160.991682 -285.485091 
L 167.9555 -284.950984 
L 174.919318 -284.457443 
L 181.883136 -284.005729 
L 188.846955 -283.59656 
L 195.810773 -283.230212 
L 202.774591 -282.906612 
L 209.738409 -282.625438 
L 216.702227 -282.386208 
L 223.666045 -282.188345 
L 230.629864 -282.031261 
L 237.593682 -281.914403 
L 244.5575 -281.837289 
L 251.521318 -281.79956 
L 258.485136 -281.800974 
L 265.448955 -281.841436 
L 272.412773 -281.920978 
L 279.376591 -282.039757 
L 286.340409 -282.198034 
L 293.304227 -282.396136 
L 300.268045 -282.634416 
L 307.231864 -282.913208 
L 314.195682 -283.232771 
L 321.1595 -283.593225 
L 328.123318 -283.994503 
L 335.087136 -284.436279 
L 342.050955 -284.917913 
L 349.014773 -285.438433 
L 355.978591 -285.996485 
L 362.942409 -286.590327 
L 369.906227 -287.217869 
L 376.870045 -287.876696 
L 383.833864 -288.564145 
L 390.797682 -289.277417 
L 397.7615 -290.013658 
L 404.725318 -290.770128 
L 411.689136 -291.544313 
L 418.652955 -292.33407 
L 418.652955 -273.312909 
L 418.652955 -273.312909 
L 411.689136 -273.312909 
L 404.725318 -273.312909 
L 397.7615 -273.312909 
L 390.797682 -273.312909 
L 383.833864 -273.312909 
L 376.870045 -273.312909 
L 369.906227 -273.312909 
L 362.942409 -273.312909 
L 355.978591 -273.312909 
L 349.014773 -273.312909 
L 342.050955 -273.312909 
L 335.087136 -273.312909 
L 328.123318 -273.312909 
L 321.1595 -273.312909 
L 314.195682 -273.312909 
L 307.231864 -273.312909 
L 300.268045 -273.312909 
L 293.304227 -273.312909 
L 286.340409 -273.312909 
L 279.376591 -273.312909 
L 272.412773 -273.312909 
L 265.448955 -273.312909 
L 258.485136 -273.312909 
L 251.521318 -273.312909 
L 244.5575 -273.312909 
L 237.593682 -273.312909 
L 230.629864 -273.312909 
L 223.666045 -273.312909 
L 216.702227 -273.312909 
L 209.738409 -273.312909 
L 202.774591 -273.312909 
L 195.810773 -273.312909 
L 188.846955 -273.312909 
L 181.883136 -273.312909 
L 174.919318 -273.312909 
L 167.9555 -273.312909 
L 160.991682 -273.312909 
L 154.027864 -273.312909 
L 147.064045 -273.312909 
L 140.100227 -273.312909 
L 133.136409 -273.312909 
L 126.172591 -273.312909 
L 119.208773 -273.312909 
L 112.244955 -273.312909 
L 105.281136 -273.312909 
L 98.317318 -273.312909 
L 91.3535 -273.312909 
L 84.389682 -273.312909 
L 77.425864 -273.312909 
L 70.462045 -273.312909 
z
" style="stroke: #dc143c; stroke-opacity: 0.2"/>
    </defs>
    <g clip-path="url(#pf4b9cd299d)">
     <use xlink:href="#ma049286a37" x="0" y="325.85" style="fill: #dc143c; fill-opacity: 0.2; stroke: #dc143c; stroke-opacity: 0.2"/>
    </g>
   </g>
   <g id="PolyCollection_2">
    <defs>
     <path id="mb30ad1ae22" d="M 70.462045 -273.312909 
L 70.462045 -303.998728 
L 77.425864 -304.639941 
L 84.389682 -305.313485 
L 91.3535 -306.012085 
L 98.317318 -306.728201 
L 105.281136 -307.454247 
L 112.244955 -308.182712 
L 119.208773 -308.90632 
L 126.172591 -309.61822 
L 133.136409 -310.312096 
L 140.100227 -310.982295 
L 147.064045 -311.6239 
L 154.027864 -312.232771 
L 160.991682 -312.80556 
L 167.9555 -313.339666 
L 174.919318 -313.833207 
L 181.883136 -314.284922 
L 188.846955 -314.694091 
L 195.810773 -315.060439 
L 202.774591 -315.384039 
L 209.738409 -315.665213 
L 216.702227 -315.904443 
L 223.666045 -316.102306 
L 230.629864 -316.259389 
L 237.593682 -316.376247 
L 244.5575 -316.453361 
L 251.521318 -316.491091 
L 258.485136 -316.489677 
L 265.448955 -316.449214 
L 272.412773 -316.369673 
L 279.376591 -316.250893 
L 286.340409 -316.092616 
L 293.304227 -315.894515 
L 300.268045 -315.656234 
L 307.231864 -315.377443 
L 314.195682 -315.05788 
L 321.1595 -314.697426 
L 328.123318 -314.296147 
L 335.087136 -313.854372 
L 342.050955 -313.372737 
L 349.014773 -312.852217 
L 355.978591 -312.294165 
L 362.942409 -311.700323 
L 369.906227 -311.072782 
L 376.870045 -310.413954 
L 383.833864 -309.726505 
L 390.797682 -309.013233 
L 397.7615 -308.276993 
L 404.725318 -307.520522 
L 411.689136 -306.746337 
L 418.652955 -305.95658 
L 418.652955 -273.312909 
L 418.652955 -273.312909 
L 411.689136 -273.312909 
L 404.725318 -273.312909 
L 397.7615 -273.312909 
L 390.797682 -273.312909 
L 383.833864 -273.312909 
L 376.870045 -273.312909 
L 369.906227 -273.312909 
L 362.942409 -273.312909 
L 355.978591 -273.312909 
L 349.014773 -273.312909 
L 342.050955 -273.312909 
L 335.087136 -273.312909 
L 328.123318 -273.312909 
L 321.1595 -273.312909 
L 314.195682 -273.312909 
L 307.231864 -273.312909 
L 300.268045 -273.312909 
L 293.304227 -273.312909 
L 286.340409 -273.312909 
L 279.376591 -273.312909 
L 272.412773 -273.312909 
L 265.448955 -273.312909 
L 258.485136 -273.312909 
L 251.521318 -273.312909 
L 244.5575 -273.312909 
L 237.593682 -273.312909 
L 230.629864 -273.312909 
L 223.666045 -273.312909 
L 216.702227 -273.312909 
L 209.738409 -273.312909 
L 202.774591 -273.312909 
L 195.810773 -273.312909 
L 188.846955 -273.312909 
L 181.883136 -273.312909 
L 174.919318 -273.312909 
L 167.9555 -273.312909 
L 160.991682 -273.312909 
L 154.027864 -273.312909 
L 147.064045 -273.312909 
L 140.100227 -273.312909 
L 133.136409 -273.312909 
L 126.172591 -273.312909 
L 119.208773 -273.312909 
L 112.244955 -273.312909 
L 105.281136 -273.312909 
L 98.317318 -273.312909 
L 91.3535 -273.312909 
L 84.389682 -273.312909 
L 77.425864 -273.312909 
L 70.462045 -273.312909 
z
" style="stroke: #000080; stroke-opacity: 0.2"/>
    </defs>
    <g clip-path="url(#pf4b9cd299d)">
     <use xlink:href="#mb30ad1ae22" x="0" y="325.85" style="fill: #000080; fill-opacity: 0.2; stroke: #000080; stroke-opacity: 0.2"/>
    </g>
   </g>
   <g id="matplotlib.axis_1"/>
   <g id="matplotlib.axis_2"/>
   <g id="line2d_1">
    <path d="M 70.462045 31.558077 
L 77.425864 32.19929 
L 84.389682 32.872834 
L 91.3535 33.571435 
L 98.317318 34.28755 
L 105.281136 35.013597 
L 112.244955 35.742062 
L 119.208773 36.46567 
L 126.172591 37.17757 
L 133.136409 37.871445 
L 140.100227 38.541644 
L 147.064045 39.183249 
L 154.027864 39.792121 
L 160.991682 40.364909 
L 167.9555 40.899016 
L 174.919318 41.392557 
L 181.883136 41.844271 
L 188.846955 42.25344 
L 195.810773 42.619788 
L 202.774591 42.943388 
L 209.738409 43.224562 
L 216.702227 43.463792 
L 223.666045 43.661655 
L 230.629864 43.818739 
L 237.593682 43.935597 
L 244.5575 44.012711 
L 251.521318 44.05044 
L 258.485136 44.049026 
L 265.448955 44.008564 
L 272.412773 43.929022 
L 279.376591 43.810243 
L 286.340409 43.651966 
L 293.304227 43.453864 
L 300.268045 43.215584 
L 307.231864 42.936792 
L 314.195682 42.617229 
L 321.1595 42.256775 
L 328.123318 41.855497 
L 335.087136 41.413721 
L 342.050955 40.932087 
L 349.014773 40.411567 
L 355.978591 39.853515 
L 362.942409 39.259673 
L 369.906227 38.632131 
L 376.870045 37.973304 
L 383.833864 37.285855 
L 390.797682 36.572583 
L 397.7615 35.836342 
L 404.725318 35.079872 
L 411.689136 34.305687 
L 418.652955 33.51593 
" clip-path="url(#pf4b9cd299d)" style="fill: none; stroke: #dc143c; stroke-width: 1.5; stroke-linecap: square"/>
   </g>
   <g id="line2d_2">
    <path d="M 70.462045 21.851272 
L 77.425864 21.210059 
L 84.389682 20.536515 
L 91.3535 19.837915 
L 98.317318 19.121799 
L 105.281136 18.395753 
L 112.244955 17.667288 
L 119.208773 16.94368 
L 126.172591 16.23178 
L 133.136409 15.537904 
L 140.100227 14.867705 
L 147.064045 14.2261 
L 154.027864 13.617229 
L 160.991682 13.04444 
L 167.9555 12.510334 
L 174.919318 12.016793 
L 181.883136 11.565078 
L 188.846955 11.155909 
L 195.810773 10.789561 
L 202.774591 10.465961 
L 209.738409 10.184787 
L 216.702227 9.945557 
L 223.666045 9.747694 
L 230.629864 9.590611 
L 237.593682 9.473753 
L 244.5575 9.396639 
L 251.521318 9.358909 
L 258.485136 9.360323 
L 265.448955 9.400786 
L 272.412773 9.480327 
L 279.376591 9.599107 
L 286.340409 9.757384 
L 293.304227 9.955485 
L 300.268045 10.193766 
L 307.231864 10.472557 
L 314.195682 10.79212 
L 321.1595 11.152574 
L 328.123318 11.553853 
L 335.087136 11.995628 
L 342.050955 12.477263 
L 349.014773 12.997783 
L 355.978591 13.555835 
L 362.942409 14.149677 
L 369.906227 14.777218 
L 376.870045 15.436046 
L 383.833864 16.123495 
L 390.797682 16.836767 
L 397.7615 17.573007 
L 404.725318 18.329478 
L 411.689136 19.103663 
L 418.652955 19.89342 
" clip-path="url(#pf4b9cd299d)" style="fill: none; stroke: #000080; stroke-width: 1.5; stroke-linecap: square"/>
   </g>
  </g>
  <g id="axes_2">
   <g id="patch_3">
    <path d="M 53.0525 165.688 
L 436.0625 165.688 
L 436.0625 70.696 
L 53.0525 70.696 
z
" style="fill: #ffffff"/>
   </g>
   <g id="PathCollection_1">
    <defs>
     <path id="m24a79696e0" d="M 0 0.866025 
C 0.229673 0.866025 0.449969 0.774776 0.612372 0.612372 
C 0.774776 0.449969 0.866025 0.229673 0.866025 0 
C 0.866025 -0.229673 0.774776 -0.449969 0.612372 -0.612372 
C 0.449969 -0.774776 0.229673 -0.866025 0 -0.866025 
C -0.229673 -0.866025 -0.449969 -0.774776 -0.612372 -0.612372 
C -0.774776 -0.449969 -0.866025 -0.229673 -0.866025 0 
C -0.866025 0.229673 -0.774776 0.449969 -0.612372 0.612372 
C -0.449969 0.774776 -0.229673 0.866025 0 0.866025 
z
" style="stroke: #daa520"/>
    </defs>
    <g clip-path="url(#p7379212da4)">
     <use xlink:href="#m24a79696e0" x="365.526997" y="114.033898" style="fill: #daa520; stroke: #daa520"/>
     <use xlink:href="#m24a79696e0" x="182.985071" y="113.527937" style="fill: #daa520; stroke: #daa520"/>
     <use xlink:href="#m24a79696e0" x="345.797722" y="115.992124" style="fill: #daa520; stroke: #daa520"/>
     <use xlink:href="#m24a79696e0" x="73.005585" y="91.954699" style="fill: #daa520; stroke: #daa520"/>
     <use xlink:href="#m24a79696e0" x="106.755612" y="135.693139" style="fill: #daa520; stroke: #daa520"/>
     <use xlink:href="#m24a79696e0" x="368.170574" y="136.236396" style="fill: #daa520; stroke: #daa520"/>
     <use xlink:href="#m24a79696e0" x="147.078862" y="128.402356" style="fill: #daa520; stroke: #daa520"/>
     <use xlink:href="#m24a79696e0" x="85.309632" y="100.576567" style="fill: #daa520; stroke: #daa520"/>
     <use xlink:href="#m24a79696e0" x="217.991315" y="133.863388" style="fill: #daa520; stroke: #daa520"/>
     <use xlink:href="#m24a79696e0" x="390.998087" y="121.642264" style="fill: #daa520; stroke: #daa520"/>
     <use xlink:href="#m24a79696e0" x="349.564526" y="112.557054" style="fill: #daa520; stroke: #daa520"/>
     <use xlink:href="#m24a79696e0" x="396.940378" y="129.45929" style="fill: #daa520; stroke: #daa520"/>
     <use xlink:href="#m24a79696e0" x="292.81433" y="132.637568" style="fill: #daa520; stroke: #daa520"/>
     <use xlink:href="#m24a79696e0" x="78.502722" y="101.290724" style="fill: #daa520; stroke: #daa520"/>
     <use xlink:href="#m24a79696e0" x="137.807066" y="127.446095" style="fill: #daa520; stroke: #daa520"/>
     <use xlink:href="#m24a79696e0" x="207.157275" y="134.897919" style="fill: #daa520; stroke: #daa520"/>
     <use xlink:href="#m24a79696e0" x="273.289128" y="102.767813" style="fill: #daa520; stroke: #daa520"/>
     <use xlink:href="#m24a79696e0" x="81.479284" y="101.957893" style="fill: #daa520; stroke: #daa520"/>
     <use xlink:href="#m24a79696e0" x="119.58418" y="144.20342" style="fill: #daa520; stroke: #daa520"/>
     <use xlink:href="#m24a79696e0" x="239.462555" y="146.941978" style="fill: #daa520; stroke: #daa520"/>
     <use xlink:href="#m24a79696e0" x="385.357078" y="120.801166" style="fill: #daa520; stroke: #daa520"/>
     <use xlink:href="#m24a79696e0" x="342.882934" y="109.429168" style="fill: #daa520; stroke: #daa520"/>
     <use xlink:href="#m24a79696e0" x="359.802457" y="107.223835" style="fill: #daa520; stroke: #daa520"/>
     <use xlink:href="#m24a79696e0" x="350.968025" y="144.356998" style="fill: #daa520; stroke: #daa520"/>
     <use xlink:href="#m24a79696e0" x="411.417486" y="115.400581" style="fill: #daa520; stroke: #daa520"/>
     <use xlink:href="#m24a79696e0" x="72.788804" y="81.276934" style="fill: #daa520; stroke: #daa520"/>
     <use xlink:href="#m24a79696e0" x="398.070685" y="119.000504" style="fill: #daa520; stroke: #daa520"/>
     <use xlink:href="#m24a79696e0" x="404.483597" y="115.146069" style="fill: #daa520; stroke: #daa520"/>
     <use xlink:href="#m24a79696e0" x="85.407938" y="88.641568" style="fill: #daa520; stroke: #daa520"/>
     <use xlink:href="#m24a79696e0" x="73.026503" y="79.384945" style="fill: #daa520; stroke: #daa520"/>
     <use xlink:href="#m24a79696e0" x="129.529639" y="135.384566" style="fill: #daa520; stroke: #daa520"/>
     <use xlink:href="#m24a79696e0" x="77.861019" y="97.977191" style="fill: #daa520; stroke: #daa520"/>
     <use xlink:href="#m24a79696e0" x="416.969108" y="129.132675" style="fill: #daa520; stroke: #daa520"/>
     <use xlink:href="#m24a79696e0" x="349.932743" y="142.288344" style="fill: #daa520; stroke: #daa520"/>
     <use xlink:href="#m24a79696e0" x="416.113152" y="114.218379" style="fill: #daa520; stroke: #daa520"/>
     <use xlink:href="#m24a79696e0" x="288.044241" y="96.819215" style="fill: #daa520; stroke: #daa520"/>
     <use xlink:href="#m24a79696e0" x="383.628132" y="119.019265" style="fill: #daa520; stroke: #daa520"/>
     <use xlink:href="#m24a79696e0" x="162.66394" y="128.568239" style="fill: #daa520; stroke: #daa520"/>
     <use xlink:href="#m24a79696e0" x="143.43418" y="153.865695" style="fill: #daa520; stroke: #daa520"/>
     <use xlink:href="#m24a79696e0" x="268.081234" y="132.154103" style="fill: #daa520; stroke: #daa520"/>
     <use xlink:href="#m24a79696e0" x="148.535876" y="140.814889" style="fill: #daa520; stroke: #daa520"/>
     <use xlink:href="#m24a79696e0" x="179.54761" y="114.217875" style="fill: #daa520; stroke: #daa520"/>
     <use xlink:href="#m24a79696e0" x="79.885626" y="97.23322" style="fill: #daa520; stroke: #daa520"/>
     <use xlink:href="#m24a79696e0" x="93.464373" y="95.30234" style="fill: #daa520; stroke: #daa520"/>
     <use xlink:href="#m24a79696e0" x="210.524361" y="126.432399" style="fill: #daa520; stroke: #daa520"/>
     <use xlink:href="#m24a79696e0" x="346.149513" y="121.077491" style="fill: #daa520; stroke: #daa520"/>
     <use xlink:href="#m24a79696e0" x="129.872159" y="120.390591" style="fill: #daa520; stroke: #daa520"/>
     <use xlink:href="#m24a79696e0" x="396.997664" y="117.144031" style="fill: #daa520; stroke: #daa520"/>
     <use xlink:href="#m24a79696e0" x="395.804842" y="130.881684" style="fill: #daa520; stroke: #daa520"/>
     <use xlink:href="#m24a79696e0" x="303.31843" y="161.370182" style="fill: #daa520; stroke: #daa520"/>
     <use xlink:href="#m24a79696e0" x="195.475732" y="121.366298" style="fill: #daa520; stroke: #daa520"/>
     <use xlink:href="#m24a79696e0" x="167.434921" y="137.51955" style="fill: #daa520; stroke: #daa520"/>
     <use xlink:href="#m24a79696e0" x="326.21119" y="144.9895" style="fill: #daa520; stroke: #daa520"/>
     <use xlink:href="#m24a79696e0" x="160.9623" y="128.737027" style="fill: #daa520; stroke: #daa520"/>
     <use xlink:href="#m24a79696e0" x="134.455229" y="142.833071" style="fill: #daa520; stroke: #daa520"/>
     <use xlink:href="#m24a79696e0" x="413.589065" y="141.268183" style="fill: #daa520; stroke: #daa520"/>
     <use xlink:href="#m24a79696e0" x="238.536552" y="94.75151" style="fill: #daa520; stroke: #daa520"/>
     <use xlink:href="#m24a79696e0" x="170.005995" y="117.364197" style="fill: #daa520; stroke: #daa520"/>
     <use xlink:href="#m24a79696e0" x="193.478255" y="138.48755" style="fill: #daa520; stroke: #daa520"/>
     <use xlink:href="#m24a79696e0" x="173.399418" y="111.934663" style="fill: #daa520; stroke: #daa520"/>
     <use xlink:href="#m24a79696e0" x="76.220846" y="82.194562" style="fill: #daa520; stroke: #daa520"/>
     <use xlink:href="#m24a79696e0" x="406.329735" y="121.169153" style="fill: #daa520; stroke: #daa520"/>
     <use xlink:href="#m24a79696e0" x="372.014008" y="114.907988" style="fill: #daa520; stroke: #daa520"/>
     <use xlink:href="#m24a79696e0" x="237.996262" y="94.051271" style="fill: #daa520; stroke: #daa520"/>
     <use xlink:href="#m24a79696e0" x="84.136141" y="88.404209" style="fill: #daa520; stroke: #daa520"/>
     <use xlink:href="#m24a79696e0" x="167.791514" y="138.971489" style="fill: #daa520; stroke: #daa520"/>
     <use xlink:href="#m24a79696e0" x="111.658208" y="99.529912" style="fill: #daa520; stroke: #daa520"/>
     <use xlink:href="#m24a79696e0" x="417.831675" y="140.521251" style="fill: #daa520; stroke: #daa520"/>
     <use xlink:href="#m24a79696e0" x="166.351161" y="111.85053" style="fill: #daa520; stroke: #daa520"/>
     <use xlink:href="#m24a79696e0" x="237.718236" y="148.576778" style="fill: #daa520; stroke: #daa520"/>
     <use xlink:href="#m24a79696e0" x="326.382772" y="139.966399" style="fill: #daa520; stroke: #daa520"/>
     <use xlink:href="#m24a79696e0" x="87.064631" y="101.360799" style="fill: #daa520; stroke: #daa520"/>
     <use xlink:href="#m24a79696e0" x="255.617182" y="97.460744" style="fill: #daa520; stroke: #daa520"/>
     <use xlink:href="#m24a79696e0" x="176.781289" y="124.010115" style="fill: #daa520; stroke: #daa520"/>
     <use xlink:href="#m24a79696e0" x="185.63238" y="123.860982" style="fill: #daa520; stroke: #daa520"/>
     <use xlink:href="#m24a79696e0" x="377.497977" y="117.32789" style="fill: #daa520; stroke: #daa520"/>
     <use xlink:href="#m24a79696e0" x="369.224565" y="137.466001" style="fill: #daa520; stroke: #daa520"/>
     <use xlink:href="#m24a79696e0" x="119.713755" y="152.76179" style="fill: #daa520; stroke: #daa520"/>
     <use xlink:href="#m24a79696e0" x="153.465457" y="150.135714" style="fill: #daa520; stroke: #daa520"/>
     <use xlink:href="#m24a79696e0" x="406.390186" y="114.599134" style="fill: #daa520; stroke: #daa520"/>
     <use xlink:href="#m24a79696e0" x="86.399724" y="87.799461" style="fill: #daa520; stroke: #daa520"/>
     <use xlink:href="#m24a79696e0" x="215.789834" y="132.007447" style="fill: #daa520; stroke: #daa520"/>
     <use xlink:href="#m24a79696e0" x="190.041498" y="135.624902" style="fill: #daa520; stroke: #daa520"/>
     <use xlink:href="#m24a79696e0" x="143.655687" y="134.527334" style="fill: #daa520; stroke: #daa520"/>
     <use xlink:href="#m24a79696e0" x="105.348883" y="134.495606" style="fill: #daa520; stroke: #daa520"/>
     <use xlink:href="#m24a79696e0" x="259.790131" y="151.766427" style="fill: #daa520; stroke: #daa520"/>
     <use xlink:href="#m24a79696e0" x="292.744694" y="135.896224" style="fill: #daa520; stroke: #daa520"/>
     <use xlink:href="#m24a79696e0" x="219.348509" y="112.489216" style="fill: #daa520; stroke: #daa520"/>
     <use xlink:href="#m24a79696e0" x="83.621342" y="96.175092" style="fill: #daa520; stroke: #daa520"/>
     <use xlink:href="#m24a79696e0" x="401.892555" y="117.049698" style="fill: #daa520; stroke: #daa520"/>
     <use xlink:href="#m24a79696e0" x="158.290112" y="157.066079" style="fill: #daa520; stroke: #daa520"/>
     <use xlink:href="#m24a79696e0" x="101.303724" y="132.158491" style="fill: #daa520; stroke: #daa520"/>
     <use xlink:href="#m24a79696e0" x="274.668984" y="140.400348" style="fill: #daa520; stroke: #daa520"/>
     <use xlink:href="#m24a79696e0" x="101.998214" y="107.342377" style="fill: #daa520; stroke: #daa520"/>
     <use xlink:href="#m24a79696e0" x="385.461947" y="114.132528" style="fill: #daa520; stroke: #daa520"/>
    </g>
   </g>
   <g id="matplotlib.axis_3"/>
   <g id="matplotlib.axis_4">
    <g id="ytick_1">
     <g id="line2d_3">
      <defs>
       <path id="m232d92bd7c" d="M 0 0 
L -3.5 0 
" style="stroke: #696969; stroke-width: 0.8"/>
      </defs>
      <g>
       <use xlink:href="#m232d92bd7c" x="53.0525" y="128.444097" style="fill: #696969; stroke: #696969; stroke-width: 0.8"/>
      </g>
     </g>
     <g id="text_1">
      <!-- 0 -->
      <g style="fill: #696969" transform="translate(35.8725 134.522847) scale(0.16 -0.16)">
       <defs>
        <path id="DejaVuSans-30" d="M 2034 4250 
Q 1547 4250 1301 3770 
Q 1056 3291 1056 2328 
Q 1056 1369 1301 889 
Q 1547 409 2034 409 
Q 2525 409 2770 889 
Q 3016 1369 3016 2328 
Q 3016 3291 2770 3770 
Q 2525 4250 2034 4250 
z
M 2034 4750 
Q 2819 4750 3233 4129 
Q 3647 3509 3647 2328 
Q 3647 1150 3233 529 
Q 2819 -91 2034 -91 
Q 1250 -91 836 529 
Q 422 1150 422 2328 
Q 422 3509 836 4129 
Q 1250 4750 2034 4750 
z
" transform="scale(0.015625)"/>
       </defs>
       <use xlink:href="#DejaVuSans-30"/>
      </g>
     </g>
    </g>
    <g id="ytick_2">
     <g id="line2d_4">
      <g>
       <use xlink:href="#m232d92bd7c" x="53.0525" y="87.287303" style="fill: #696969; stroke: #696969; stroke-width: 0.8"/>
      </g>
     </g>
     <g id="text_2">
      <!-- 5 -->
      <g style="fill: #696969" transform="translate(35.8725 93.366053) scale(0.16 -0.16)">
       <defs>
        <path id="DejaVuSans-35" d="M 691 4666 
L 3169 4666 
L 3169 4134 
L 1269 4134 
L 1269 2991 
Q 1406 3038 1543 3061 
Q 1681 3084 1819 3084 
Q 2600 3084 3056 2656 
Q 3513 2228 3513 1497 
Q 3513 744 3044 326 
Q 2575 -91 1722 -91 
Q 1428 -91 1123 -41 
Q 819 9 494 109 
L 494 744 
Q 775 591 1075 516 
Q 1375 441 1709 441 
Q 2250 441 2565 725 
Q 2881 1009 2881 1497 
Q 2881 1984 2565 2268 
Q 2250 2553 1709 2553 
Q 1456 2553 1204 2497 
Q 953 2441 691 2322 
L 691 4666 
z
" transform="scale(0.015625)"/>
       </defs>
       <use xlink:href="#DejaVuSans-35"/>
      </g>
     </g>
    </g>
   </g>
   <g id="line2d_5">
    <path d="M 70.462045 85.927824 
L 77.425864 91.337005 
L 84.389682 97.934806 
L 91.3535 105.024916 
L 98.317318 112.097846 
L 105.281136 118.859099 
L 112.244955 125.1225 
L 119.208773 130.670623 
L 126.172591 135.191062 
L 133.136409 138.331358 
L 140.100227 139.83187 
L 147.064045 139.653484 
L 154.027864 138.033039 
L 160.991682 135.446453 
L 167.9555 132.499362 
L 174.919318 129.781465 
L 181.883136 127.722609 
L 188.846955 126.488765 
L 195.810773 125.953924 
L 202.774591 125.768227 
L 209.738409 125.508982 
L 216.702227 124.862404 
L 223.666045 123.762497 
L 230.629864 122.426635 
L 237.593682 121.271114 
L 244.5575 120.742627 
L 251.521318 121.13694 
L 258.485136 122.478287 
L 265.448955 124.505008 
L 272.412773 126.763478 
L 279.376591 128.771108 
L 286.340409 130.183203 
L 293.304227 130.896157 
L 300.268045 131.043579 
L 307.231864 130.88816 
L 314.195682 130.663234 
L 321.1595 130.448206 
L 328.123318 130.148041 
L 335.087136 129.588529 
L 342.050955 128.665751 
L 349.014773 127.448758 
L 355.978591 126.161448 
L 362.942409 125.051395 
L 369.906227 124.234551 
L 376.870045 123.624966 
L 383.833864 123.000967 
L 390.797682 122.164129 
L 397.7615 121.083628 
L 404.725318 119.929405 
L 411.689136 118.97198 
L 418.652955 118.412298 
" clip-path="url(#p7379212da4)" style="fill: none; stroke: #000000; stroke-width: 2; stroke-linecap: square"/>
   </g>
   <g id="line2d_6">
    <path d="M 70.462045 75.013818 
L 77.425864 89.246726 
L 84.389682 100.802959 
L 91.3535 109.996567 
L 98.317318 117.143608 
L 105.281136 122.549011 
L 112.244955 126.497784 
L 119.208773 129.249624 
L 126.172591 131.036144 
L 133.136409 132.060068 
L 140.100227 132.49583 
L 147.064045 132.491157 
L 154.027864 132.169262 
L 160.991682 131.631371 
L 167.9555 130.959381 
L 174.919318 130.218488 
L 181.883136 129.459665 
L 188.846955 128.721935 
L 195.810773 128.034394 
L 202.774591 127.417952 
L 209.738409 126.886817 
L 216.702227 126.449723 
L 223.666045 126.110916 
L 230.629864 125.870941 
L 237.593682 125.727247 
L 244.5575 125.674634 
L 251.521318 125.705575 
L 258.485136 125.810425 
L 265.448955 125.977549 
L 272.412773 126.193376 
L 279.376591 126.442392 
L 286.340409 126.707121 
L 293.304227 126.968088 
L 300.268045 127.203824 
L 307.231864 127.390963 
L 314.195682 127.504502 
L 321.1595 127.51834 
L 328.123318 127.40621 
L 335.087136 127.143227 
L 342.050955 126.70824 
L 349.014773 126.087326 
L 355.978591 125.278773 
L 362.942409 124.300011 
L 369.906227 123.197045 
L 376.870045 122.057047 
L 383.833864 121.024885 
L 390.797682 120.324514 
L 397.7615 120.286295 
L 404.725318 121.381489 
L 411.689136 124.265339 
L 418.652955 129.830378 
" clip-path="url(#p7379212da4)" style="fill: none; stroke-dasharray: 7.4,3.2; stroke-dashoffset: 0; stroke: #34b6c6; stroke-width: 2"/>
   </g>
   <g id="line2d_7">
    <path d="M 70.462045 85.411489 
L 77.425864 90.386183 
L 84.389682 96.847894 
L 91.3535 104.471504 
L 98.317318 111.649894 
L 105.281136 118.254619 
L 112.244955 124.82397 
L 119.208773 131.065416 
L 126.172591 135.442789 
L 133.136409 137.575061 
L 140.100227 138.383835 
L 147.064045 138.409776 
L 154.027864 137.619204 
L 160.991682 135.693431 
L 167.9555 132.780912 
L 174.919318 129.913856 
L 181.883136 127.745554 
L 188.846955 126.153972 
L 195.810773 124.906116 
L 202.774591 123.887449 
L 209.738409 123.057112 
L 216.702227 122.399974 
L 223.666045 121.910517 
L 230.629864 121.59244 
L 237.593682 121.463312 
L 244.5575 121.559783 
L 251.521318 121.937555 
L 258.485136 122.65332 
L 265.448955 123.715736 
L 272.412773 125.02711 
L 279.376591 126.388144 
L 286.340409 127.591735 
L 293.304227 128.512983 
L 300.268045 129.119381 
L 307.231864 129.431513 
L 314.195682 129.48612 
L 321.1595 129.317506 
L 328.123318 128.952108 
L 335.087136 128.409233 
L 342.050955 127.704198 
L 349.014773 126.852603 
L 355.978591 125.875706 
L 362.942409 124.807249 
L 369.906227 123.701887 
L 376.870045 122.644427 
L 383.833864 121.757677 
L 390.797682 121.206272 
L 397.7615 121.19583 
L 404.725318 121.970908 
L 411.689136 123.817597 
L 418.652955 127.074716 
" clip-path="url(#p7379212da4)" style="fill: none; stroke-dasharray: 7.4,3.2; stroke-dashoffset: 0; stroke: #9370db; stroke-width: 2"/>
   </g>
   <g id="line2d_8">
    <path d="M 70.462045 89.684486 
L 77.425864 92.731353 
L 84.389682 98.513746 
L 91.3535 106.426642 
L 98.317318 114.257058 
L 105.281136 121.719885 
L 112.244955 129.410999 
L 119.208773 136.881447 
L 126.172591 142.103912 
L 133.136409 144.54687 
L 140.100227 145.360992 
L 147.064045 145.216874 
L 154.027864 144.054963 
L 160.991682 141.455176 
L 167.9555 137.600604 
L 174.919318 133.810989 
L 181.883136 130.92202 
L 188.846955 128.77616 
L 195.810773 127.074553 
L 202.774591 125.671031 
L 209.738409 124.514424 
L 216.702227 123.586901 
L 223.666045 122.883178 
L 230.629864 122.409948 
L 237.593682 122.191811 
L 244.5575 122.277932 
L 251.521318 122.741997 
L 258.485136 123.659019 
L 265.448955 125.042438 
L 272.412773 126.76928 
L 279.376591 128.586209 
L 286.340409 130.229805 
L 293.304227 131.541931 
L 300.268045 132.482646 
L 307.231864 133.079533 
L 314.195682 133.379941 
L 321.1595 133.426597 
L 328.123318 133.249879 
L 335.087136 132.867716 
L 342.050955 132.288191 
L 349.014773 131.513125 
L 355.978591 130.542456 
L 362.942409 129.379759 
L 369.906227 128.038887 
L 376.870045 126.550547 
L 383.833864 124.965762 
L 390.797682 123.352561 
L 397.7615 121.784809 
L 404.725318 120.327266 
L 411.689136 119.024011 
L 418.652955 117.894894 
" clip-path="url(#p7379212da4)" style="fill: none; stroke-dasharray: 12.8,3.2,2,3.2; stroke-dashoffset: 0; stroke: #ff0000; stroke-width: 2"/>
   </g>
   <g id="patch_4">
    <path d="M 53.0525 165.688 
L 53.0525 70.696 
" style="fill: none; stroke: #000000; stroke-width: 0.8; stroke-linejoin: miter; stroke-linecap: square"/>
   </g>
   <g id="patch_5">
    <path d="M 436.0625 165.688 
L 436.0625 70.696 
" style="fill: none; stroke: #000000; stroke-width: 0.8; stroke-linejoin: miter; stroke-linecap: square"/>
   </g>
   <g id="patch_6">
    <path d="M 53.0525 165.688 
L 436.0625 165.688 
" style="fill: none; stroke: #000000; stroke-width: 0.8; stroke-linejoin: miter; stroke-linecap: square"/>
   </g>
   <g id="patch_7">
    <path d="M 53.0525 70.696 
L 436.0625 70.696 
" style="fill: none; stroke: #000000; stroke-width: 0.8; stroke-linejoin: miter; stroke-linecap: square"/>
   </g>
  </g>
  <g id="axes_3">
   <g id="patch_8">
    <path d="M 53.0525 276.68 
L 436.0625 276.68 
L 436.0625 181.688 
L 53.0525 181.688 
z
" style="fill: #ffffff"/>
   </g>
   <g id="PathCollection_2">
    <g clip-path="url(#pa522d76d44)">
     <use xlink:href="#m24a79696e0" x="365.526997" y="246.189207" style="fill: #daa520; stroke: #daa520"/>
     <use xlink:href="#m24a79696e0" x="182.985071" y="249.162034" style="fill: #daa520; stroke: #daa520"/>
     <use xlink:href="#m24a79696e0" x="345.797722" y="247.623487" style="fill: #daa520; stroke: #daa520"/>
     <use xlink:href="#m24a79696e0" x="73.005585" y="223.647087" style="fill: #daa520; stroke: #daa520"/>
     <use xlink:href="#m24a79696e0" x="106.755612" y="208.460301" style="fill: #daa520; stroke: #daa520"/>
     <use xlink:href="#m24a79696e0" x="368.170574" y="214.728276" style="fill: #daa520; stroke: #daa520"/>
     <use xlink:href="#m24a79696e0" x="147.078862" y="248.883644" style="fill: #daa520; stroke: #daa520"/>
     <use xlink:href="#m24a79696e0" x="85.309632" y="224.087331" style="fill: #daa520; stroke: #daa520"/>
     <use xlink:href="#m24a79696e0" x="217.991315" y="211.161025" style="fill: #daa520; stroke: #daa520"/>
     <use xlink:href="#m24a79696e0" x="390.998087" y="227.902477" style="fill: #daa520; stroke: #daa520"/>
     <use xlink:href="#m24a79696e0" x="349.564526" y="251.755124" style="fill: #daa520; stroke: #daa520"/>
     <use xlink:href="#m24a79696e0" x="396.940378" y="215.218177" style="fill: #daa520; stroke: #daa520"/>
     <use xlink:href="#m24a79696e0" x="292.81433" y="223.9692" style="fill: #daa520; stroke: #daa520"/>
     <use xlink:href="#m24a79696e0" x="78.502722" y="214.707003" style="fill: #daa520; stroke: #daa520"/>
     <use xlink:href="#m24a79696e0" x="137.807066" y="250.206156" style="fill: #daa520; stroke: #daa520"/>
     <use xlink:href="#m24a79696e0" x="207.157275" y="211.772532" style="fill: #daa520; stroke: #daa520"/>
     <use xlink:href="#m24a79696e0" x="273.289128" y="259.157284" style="fill: #daa520; stroke: #daa520"/>
     <use xlink:href="#m24a79696e0" x="81.479284" y="216.974653" style="fill: #daa520; stroke: #daa520"/>
     <use xlink:href="#m24a79696e0" x="119.58418" y="215.951506" style="fill: #daa520; stroke: #daa520"/>
     <use xlink:href="#m24a79696e0" x="239.462555" y="191.305969" style="fill: #daa520; stroke: #daa520"/>
     <use xlink:href="#m24a79696e0" x="385.357078" y="230.876575" style="fill: #daa520; stroke: #daa520"/>
     <use xlink:href="#m24a79696e0" x="342.882934" y="257.142937" style="fill: #daa520; stroke: #daa520"/>
     <use xlink:href="#m24a79696e0" x="359.802457" y="257.041382" style="fill: #daa520; stroke: #daa520"/>
     <use xlink:href="#m24a79696e0" x="350.968025" y="207.459268" style="fill: #daa520; stroke: #daa520"/>
     <use xlink:href="#m24a79696e0" x="411.417486" y="230.681943" style="fill: #daa520; stroke: #daa520"/>
     <use xlink:href="#m24a79696e0" x="72.788804" y="238.320482" style="fill: #daa520; stroke: #daa520"/>
     <use xlink:href="#m24a79696e0" x="398.070685" y="229.360368" style="fill: #daa520; stroke: #daa520"/>
     <use xlink:href="#m24a79696e0" x="404.483597" y="232.840203" style="fill: #daa520; stroke: #daa520"/>
     <use xlink:href="#m24a79696e0" x="85.407938" y="240.764042" style="fill: #daa520; stroke: #daa520"/>
     <use xlink:href="#m24a79696e0" x="73.026503" y="241.067228" style="fill: #daa520; stroke: #daa520"/>
     <use xlink:href="#m24a79696e0" x="129.529639" y="236.921626" style="fill: #daa520; stroke: #daa520"/>
     <use xlink:href="#m24a79696e0" x="77.861019" y="218.709955" style="fill: #daa520; stroke: #daa520"/>
     <use xlink:href="#m24a79696e0" x="416.969108" y="210.38914" style="fill: #daa520; stroke: #daa520"/>
     <use xlink:href="#m24a79696e0" x="349.932743" y="210.512371" style="fill: #daa520; stroke: #daa520"/>
     <use xlink:href="#m24a79696e0" x="416.113152" y="231.23145" style="fill: #daa520; stroke: #daa520"/>
     <use xlink:href="#m24a79696e0" x="288.044241" y="272.362182" style="fill: #daa520; stroke: #daa520"/>
     <use xlink:href="#m24a79696e0" x="383.628132" y="233.899294" style="fill: #daa520; stroke: #daa520"/>
     <use xlink:href="#m24a79696e0" x="162.66394" y="242.27066" style="fill: #daa520; stroke: #daa520"/>
     <use xlink:href="#m24a79696e0" x="143.43418" y="213.87433" style="fill: #daa520; stroke: #daa520"/>
     <use xlink:href="#m24a79696e0" x="268.081234" y="216.612376" style="fill: #daa520; stroke: #daa520"/>
     <use xlink:href="#m24a79696e0" x="148.535876" y="231.488824" style="fill: #daa520; stroke: #daa520"/>
     <use xlink:href="#m24a79696e0" x="179.54761" y="249.935314" style="fill: #daa520; stroke: #daa520"/>
     <use xlink:href="#m24a79696e0" x="79.885626" y="221.711706" style="fill: #daa520; stroke: #daa520"/>
     <use xlink:href="#m24a79696e0" x="93.464373" y="244.387638" style="fill: #daa520; stroke: #daa520"/>
     <use xlink:href="#m24a79696e0" x="210.524361" y="222.780619" style="fill: #daa520; stroke: #daa520"/>
     <use xlink:href="#m24a79696e0" x="346.149513" y="240.52525" style="fill: #daa520; stroke: #daa520"/>
     <use xlink:href="#m24a79696e0" x="129.872159" y="257.849315" style="fill: #daa520; stroke: #daa520"/>
     <use xlink:href="#m24a79696e0" x="396.997664" y="232.257112" style="fill: #daa520; stroke: #daa520"/>
     <use xlink:href="#m24a79696e0" x="395.804842" y="213.596679" style="fill: #daa520; stroke: #daa520"/>
     <use xlink:href="#m24a79696e0" x="303.31843" y="186.005818" style="fill: #daa520; stroke: #daa520"/>
     <use xlink:href="#m24a79696e0" x="195.475732" y="233.60644" style="fill: #daa520; stroke: #daa520"/>
     <use xlink:href="#m24a79696e0" x="167.434921" y="226.131478" style="fill: #daa520; stroke: #daa520"/>
     <use xlink:href="#m24a79696e0" x="326.21119" y="209.434728" style="fill: #daa520; stroke: #daa520"/>
     <use xlink:href="#m24a79696e0" x="160.9623" y="243.23171" style="fill: #daa520; stroke: #daa520"/>
     <use xlink:href="#m24a79696e0" x="134.455229" y="228.313195" style="fill: #daa520; stroke: #daa520"/>
     <use xlink:href="#m24a79696e0" x="413.589065" y="194.338823" style="fill: #daa520; stroke: #daa520"/>
     <use xlink:href="#m24a79696e0" x="238.536552" y="263.591454" style="fill: #daa520; stroke: #daa520"/>
     <use xlink:href="#m24a79696e0" x="170.005995" y="251.982601" style="fill: #daa520; stroke: #daa520"/>
     <use xlink:href="#m24a79696e0" x="193.478255" y="210.528039" style="fill: #daa520; stroke: #daa520"/>
     <use xlink:href="#m24a79696e0" x="173.399418" y="256.946147" style="fill: #daa520; stroke: #daa520"/>
     <use xlink:href="#m24a79696e0" x="76.220846" y="239.22502" style="fill: #daa520; stroke: #daa520"/>
     <use xlink:href="#m24a79696e0" x="406.329735" y="223.995261" style="fill: #daa520; stroke: #daa520"/>
     <use xlink:href="#m24a79696e0" x="372.014008" y="243.17861" style="fill: #daa520; stroke: #daa520"/>
     <use xlink:href="#m24a79696e0" x="237.996262" y="264.566321" style="fill: #daa520; stroke: #daa520"/>
     <use xlink:href="#m24a79696e0" x="84.136141" y="239.237681" style="fill: #daa520; stroke: #daa520"/>
     <use xlink:href="#m24a79696e0" x="167.791514" y="223.831685" style="fill: #daa520; stroke: #daa520"/>
     <use xlink:href="#m24a79696e0" x="111.658208" y="266.070198" style="fill: #daa520; stroke: #daa520"/>
     <use xlink:href="#m24a79696e0" x="417.831675" y="194.432186" style="fill: #daa520; stroke: #daa520"/>
     <use xlink:href="#m24a79696e0" x="166.351161" y="262.559556" style="fill: #daa520; stroke: #daa520"/>
     <use xlink:href="#m24a79696e0" x="237.718236" y="189.053048" style="fill: #daa520; stroke: #daa520"/>
     <use xlink:href="#m24a79696e0" x="326.382772" y="216.383875" style="fill: #daa520; stroke: #daa520"/>
     <use xlink:href="#m24a79696e0" x="87.064631" y="225.697322" style="fill: #daa520; stroke: #daa520"/>
     <use xlink:href="#m24a79696e0" x="255.617182" y="261.278194" style="fill: #daa520; stroke: #daa520"/>
     <use xlink:href="#m24a79696e0" x="176.781289" y="237.974441" style="fill: #daa520; stroke: #daa520"/>
     <use xlink:href="#m24a79696e0" x="185.63238" y="233.680085" style="fill: #daa520; stroke: #daa520"/>
     <use xlink:href="#m24a79696e0" x="377.497977" y="238.177104" style="fill: #daa520; stroke: #daa520"/>
     <use xlink:href="#m24a79696e0" x="369.224565" y="212.732902" style="fill: #daa520; stroke: #daa520"/>
     <use xlink:href="#m24a79696e0" x="119.713755" y="204.266681" style="fill: #daa520; stroke: #daa520"/>
     <use xlink:href="#m24a79696e0" x="153.465457" y="217.372219" style="fill: #daa520; stroke: #daa520"/>
     <use xlink:href="#m24a79696e0" x="406.390186" y="233.078413" style="fill: #daa520; stroke: #daa520"/>
     <use xlink:href="#m24a79696e0" x="86.399724" y="243.441426" style="fill: #daa520; stroke: #daa520"/>
     <use xlink:href="#m24a79696e0" x="215.789834" y="214.085929" style="fill: #daa520; stroke: #daa520"/>
     <use xlink:href="#m24a79696e0" x="190.041498" y="215.672412" style="fill: #daa520; stroke: #daa520"/>
     <use xlink:href="#m24a79696e0" x="143.655687" y="240.65164" style="fill: #daa520; stroke: #daa520"/>
     <use xlink:href="#m24a79696e0" x="105.348883" y="208.00478" style="fill: #daa520; stroke: #daa520"/>
     <use xlink:href="#m24a79696e0" x="259.790131" y="186.981294" style="fill: #daa520; stroke: #daa520"/>
     <use xlink:href="#m24a79696e0" x="292.744694" y="219.440038" style="fill: #daa520; stroke: #daa520"/>
     <use xlink:href="#m24a79696e0" x="219.348509" y="240.560735" style="fill: #daa520; stroke: #daa520"/>
     <use xlink:href="#m24a79696e0" x="83.621342" y="227.755297" style="fill: #daa520; stroke: #daa520"/>
     <use xlink:href="#m24a79696e0" x="401.892555" y="230.935037" style="fill: #daa520; stroke: #daa520"/>
     <use xlink:href="#m24a79696e0" x="158.290112" y="205.634701" style="fill: #daa520; stroke: #daa520"/>
     <use xlink:href="#m24a79696e0" x="101.303724" y="205.239667" style="fill: #daa520; stroke: #daa520"/>
     <use xlink:href="#m24a79696e0" x="274.668984" y="207.539771" style="fill: #daa520; stroke: #daa520"/>
     <use xlink:href="#m24a79696e0" x="101.998214" y="240.636007" style="fill: #daa520; stroke: #daa520"/>
     <use xlink:href="#m24a79696e0" x="385.461947" y="240.078818" style="fill: #daa520; stroke: #daa520"/>
    </g>
   </g>
   <g id="matplotlib.axis_5">
    <g id="xtick_1">
     <g id="line2d_9">
      <defs>
       <path id="mf497153f5b" d="M 0 0 
L 0 3.5 
" style="stroke: #696969; stroke-width: 0.8"/>
      </defs>
      <g>
       <use xlink:href="#mf497153f5b" x="70.462045" y="276.68" style="fill: #696969; stroke: #696969; stroke-width: 0.8"/>
      </g>
     </g>
     <g id="text_3">
      <!-- −1.0 -->
      <g style="fill: #696969" transform="translate(51.035795 295.8375) scale(0.16 -0.16)">
       <defs>
        <path id="DejaVuSans-2212" d="M 678 2272 
L 4684 2272 
L 4684 1741 
L 678 1741 
L 678 2272 
z
" transform="scale(0.015625)"/>
        <path id="DejaVuSans-31" d="M 794 531 
L 1825 531 
L 1825 4091 
L 703 3866 
L 703 4441 
L 1819 4666 
L 2450 4666 
L 2450 531 
L 3481 531 
L 3481 0 
L 794 0 
L 794 531 
z
" transform="scale(0.015625)"/>
        <path id="DejaVuSans-2e" d="M 684 794 
L 1344 794 
L 1344 0 
L 684 0 
L 684 794 
z
" transform="scale(0.015625)"/>
       </defs>
       <use xlink:href="#DejaVuSans-2212"/>
       <use xlink:href="#DejaVuSans-31" x="83.789062"/>
       <use xlink:href="#DejaVuSans-2e" x="147.412109"/>
       <use xlink:href="#DejaVuSans-30" x="179.199219"/>
      </g>
     </g>
    </g>
    <g id="xtick_2">
     <g id="line2d_10">
      <g>
       <use xlink:href="#mf497153f5b" x="157.509773" y="276.68" style="fill: #696969; stroke: #696969; stroke-width: 0.8"/>
      </g>
     </g>
     <g id="text_4">
      <!-- −0.5 -->
      <g style="fill: #696969" transform="translate(138.083523 295.8375) scale(0.16 -0.16)">
       <use xlink:href="#DejaVuSans-2212"/>
       <use xlink:href="#DejaVuSans-30" x="83.789062"/>
       <use xlink:href="#DejaVuSans-2e" x="147.412109"/>
       <use xlink:href="#DejaVuSans-35" x="179.199219"/>
      </g>
     </g>
    </g>
    <g id="xtick_3">
     <g id="line2d_11">
      <g>
       <use xlink:href="#mf497153f5b" x="244.5575" y="276.68" style="fill: #696969; stroke: #696969; stroke-width: 0.8"/>
      </g>
     </g>
     <g id="text_5">
      <!-- 0.0 -->
      <g style="fill: #696969" transform="translate(231.835 295.8375) scale(0.16 -0.16)">
       <use xlink:href="#DejaVuSans-30"/>
       <use xlink:href="#DejaVuSans-2e" x="63.623047"/>
       <use xlink:href="#DejaVuSans-30" x="95.410156"/>
      </g>
     </g>
    </g>
    <g id="xtick_4">
     <g id="line2d_12">
      <g>
       <use xlink:href="#mf497153f5b" x="331.605227" y="276.68" style="fill: #696969; stroke: #696969; stroke-width: 0.8"/>
      </g>
     </g>
     <g id="text_6">
      <!-- 0.5 -->
      <g style="fill: #696969" transform="translate(318.882727 295.8375) scale(0.16 -0.16)">
       <use xlink:href="#DejaVuSans-30"/>
       <use xlink:href="#DejaVuSans-2e" x="63.623047"/>
       <use xlink:href="#DejaVuSans-35" x="95.410156"/>
      </g>
     </g>
    </g>
    <g id="xtick_5">
     <g id="line2d_13">
      <g>
       <use xlink:href="#mf497153f5b" x="418.652955" y="276.68" style="fill: #696969; stroke: #696969; stroke-width: 0.8"/>
      </g>
     </g>
     <g id="text_7">
      <!-- 1.0 -->
      <g style="fill: #696969" transform="translate(405.930455 295.8375) scale(0.16 -0.16)">
       <use xlink:href="#DejaVuSans-31"/>
       <use xlink:href="#DejaVuSans-2e" x="63.623047"/>
       <use xlink:href="#DejaVuSans-30" x="95.410156"/>
      </g>
     </g>
    </g>
    <g id="text_8">
     <!-- $X$ -->
     <g transform="translate(239.0375 315.3225) scale(0.16 -0.16)">
      <defs>
       <path id="DejaVuSans-Oblique-58" d="M 878 4666 
L 1516 4666 
L 2316 2981 
L 3763 4666 
L 4500 4666 
L 2578 2438 
L 3738 0 
L 3103 0 
L 2163 1966 
L 459 0 
L -275 0 
L 1906 2509 
L 878 4666 
z
" transform="scale(0.015625)"/>
      </defs>
      <use xlink:href="#DejaVuSans-Oblique-58" transform="translate(0 0.09375)"/>
     </g>
    </g>
   </g>
   <g id="matplotlib.axis_6">
    <g id="ytick_3">
     <g id="line2d_14">
      <g>
       <use xlink:href="#m232d92bd7c" x="53.0525" y="254.098308" style="fill: #696969; stroke: #696969; stroke-width: 0.8"/>
      </g>
     </g>
     <g id="text_9">
      <!-- −2.5 -->
      <g style="fill: #696969" transform="translate(7.2 260.177058) scale(0.16 -0.16)">
       <defs>
        <path id="DejaVuSans-32" d="M 1228 531 
L 3431 531 
L 3431 0 
L 469 0 
L 469 531 
Q 828 903 1448 1529 
Q 2069 2156 2228 2338 
Q 2531 2678 2651 2914 
Q 2772 3150 2772 3378 
Q 2772 3750 2511 3984 
Q 2250 4219 1831 4219 
Q 1534 4219 1204 4116 
Q 875 4013 500 3803 
L 500 4441 
Q 881 4594 1212 4672 
Q 1544 4750 1819 4750 
Q 2544 4750 2975 4387 
Q 3406 4025 3406 3419 
Q 3406 3131 3298 2873 
Q 3191 2616 2906 2266 
Q 2828 2175 2409 1742 
Q 1991 1309 1228 531 
z
" transform="scale(0.015625)"/>
       </defs>
       <use xlink:href="#DejaVuSans-2212"/>
       <use xlink:href="#DejaVuSans-32" x="83.789062"/>
       <use xlink:href="#DejaVuSans-2e" x="147.412109"/>
       <use xlink:href="#DejaVuSans-35" x="179.199219"/>
      </g>
     </g>
    </g>
    <g id="ytick_4">
     <g id="line2d_15">
      <g>
       <use xlink:href="#m232d92bd7c" x="53.0525" y="225.59759" style="fill: #696969; stroke: #696969; stroke-width: 0.8"/>
      </g>
     </g>
     <g id="text_10">
      <!-- 0.0 -->
      <g style="fill: #696969" transform="translate(20.6075 231.67634) scale(0.16 -0.16)">
       <use xlink:href="#DejaVuSans-30"/>
       <use xlink:href="#DejaVuSans-2e" x="63.623047"/>
       <use xlink:href="#DejaVuSans-30" x="95.410156"/>
      </g>
     </g>
    </g>
    <g id="ytick_5">
     <g id="line2d_16">
      <g>
       <use xlink:href="#m232d92bd7c" x="53.0525" y="197.096872" style="fill: #696969; stroke: #696969; stroke-width: 0.8"/>
      </g>
     </g>
     <g id="text_11">
      <!-- 2.5 -->
      <g style="fill: #696969" transform="translate(20.6075 203.175622) scale(0.16 -0.16)">
       <use xlink:href="#DejaVuSans-32"/>
       <use xlink:href="#DejaVuSans-2e" x="63.623047"/>
       <use xlink:href="#DejaVuSans-35" x="95.410156"/>
      </g>
     </g>
    </g>
   </g>
   <g id="line2d_17">
    <path d="M 70.462045 230.800501 
L 77.425864 227.528738 
L 84.389682 226.399411 
L 91.3535 227.538956 
L 98.317318 228.588061 
L 105.281136 229.559728 
L 112.244955 231.537086 
L 119.208773 234.199472 
L 126.172591 235.171766 
L 133.136409 234.205965 
L 140.100227 233.255328 
L 147.064045 233.302788 
L 154.027864 233.937849 
L 160.991682 233.919566 
L 167.9555 232.662721 
L 174.919318 231.178411 
L 181.883136 230.028718 
L 188.846955 228.765592 
L 195.810773 227.149642 
L 202.774591 225.462975 
L 209.738409 224.220145 
L 216.702227 223.83104 
L 223.666045 224.379749 
L 230.629864 225.57448 
L 237.593682 226.87274 
L 244.5575 227.723962 
L 251.521318 227.820567 
L 258.485136 227.232884 
L 265.448955 226.341921 
L 272.412773 225.605625 
L 279.376591 225.341508 
L 286.340409 225.662133 
L 293.304227 226.491975 
L 300.268045 227.590673 
L 307.231864 228.632603 
L 314.195682 229.360182 
L 321.1595 229.722609 
L 328.123318 229.89358 
L 335.087136 230.139207 
L 342.050955 230.614606 
L 349.014773 231.226666 
L 355.978591 231.66521 
L 362.942409 231.592297 
L 369.906227 230.866529 
L 376.870045 229.649469 
L 383.833864 228.318797 
L 390.797682 227.243548 
L 397.7615 226.568714 
L 404.725318 226.14862 
L 411.689136 225.669652 
L 418.652955 224.880994 
" clip-path="url(#pa522d76d44)" style="fill: none; stroke: #696969; stroke-width: 2; stroke-linecap: square"/>
   </g>
   <g id="line2d_18">
    <path d="M 70.462045 227.980203 
L 77.425864 228.9775 
L 84.389682 229.792808 
L 91.3535 230.45137 
L 98.317318 230.972767 
L 105.281136 231.372842 
L 112.244955 231.665042 
L 119.208773 231.861309 
L 126.172591 231.972631 
L 133.136409 232.009364 
L 140.100227 231.981389 
L 147.064045 231.898161 
L 154.027864 231.768696 
L 160.991682 231.601537 
L 167.9555 231.404706 
L 174.919318 231.185667 
L 181.883136 230.951302 
L 188.846955 230.707909 
L 195.810773 230.461222 
L 202.774591 230.216437 
L 209.738409 229.978262 
L 216.702227 229.750971 
L 223.666045 229.538459 
L 230.629864 229.344304 
L 237.593682 229.171819 
L 244.5575 229.024104 
L 251.521318 228.904083 
L 258.485136 228.814533 
L 265.448955 228.758099 
L 272.412773 228.737284 
L 279.376591 228.754418 
L 286.340409 228.811584 
L 293.304227 228.910493 
L 300.268045 229.052284 
L 307.231864 229.237211 
L 314.195682 229.464192 
L 321.1595 229.730154 
L 328.123318 230.029109 
L 335.087136 230.350882 
L 342.050955 230.679384 
L 349.014773 230.990299 
L 355.978591 231.248043 
L 362.942409 231.401804 
L 369.906227 231.380455 
L 376.870045 231.086084 
L 383.833864 230.385866 
L 390.797682 229.101927 
L 397.7615 226.998829 
L 404.725318 223.768239 
L 411.689136 219.010291 
L 418.652955 212.211093 
" clip-path="url(#pa522d76d44)" style="fill: none; stroke-dasharray: 7.4,3.2; stroke-dashoffset: 0; stroke: #79ad41; stroke-width: 2"/>
   </g>
   <g id="patch_9">
    <path d="M 53.0525 276.68 
L 53.0525 181.688 
" style="fill: none; stroke: #000000; stroke-width: 0.8; stroke-linejoin: miter; stroke-linecap: square"/>
   </g>
   <g id="patch_10">
    <path d="M 436.0625 276.68 
L 436.0625 181.688 
" style="fill: none; stroke: #000000; stroke-width: 0.8; stroke-linejoin: miter; stroke-linecap: square"/>
   </g>
   <g id="patch_11">
    <path d="M 53.0525 276.68 
L 436.0625 276.68 
" style="fill: none; stroke: #000000; stroke-width: 0.8; stroke-linejoin: miter; stroke-linecap: square"/>
   </g>
   <g id="patch_12">
    <path d="M 53.0525 181.688 
L 436.0625 181.688 
" style="fill: none; stroke: #000000; stroke-width: 0.8; stroke-linejoin: miter; stroke-linecap: square"/>
   </g>
  </g>
 </g>
 <defs>
  <clipPath id="pf4b9cd299d">
   <rect x="53.0525" y="7.2" width="383.01" height="47.496"/>
  </clipPath>
  <clipPath id="p7379212da4">
   <rect x="53.0525" y="70.696" width="383.01" height="94.992"/>
  </clipPath>
  <clipPath id="pa522d76d44">
   <rect x="53.0525" y="181.688" width="383.01" height="94.992"/>
  </clipPath>
 </defs>
</svg>
