<?xml version="1.0" encoding="utf-8" standalone="no"?>
<!DOCTYPE svg PUBLIC "-//W3C//DTD SVG 1.1//EN"
  "http://www.w3.org/Graphics/SVG/1.1/DTD/svg11.dtd">
<svg xmlns:xlink="http://www.w3.org/1999/xlink" width="443.2625pt" height="325.85pt" viewBox="0 0 443.2625 325.85" xmlns="http://www.w3.org/2000/svg" version="1.1">
 <metadata>
  <rdf:RDF xmlns:dc="http://purl.org/dc/elements/1.1/" xmlns:cc="http://creativecommons.org/ns#" xmlns:rdf="http://www.w3.org/1999/02/22-rdf-syntax-ns#">
   <cc:Work>
    <dc:type rdf:resource="http://purl.org/dc/dcmitype/StillImage"/>
    <dc:date>2024-01-28T20:58:23.915295</dc:date>
    <dc:format>image/svg+xml</dc:format>
    <dc:creator>
     <cc:Agent>
      <dc:title>Matplotlib v3.7.2, https://matplotlib.org/</dc:title>
     </cc:Agent>
    </dc:creator>
   </cc:Work>
  </rdf:RDF>
 </metadata>
 <defs>
  <style type="text/css">*{stroke-linejoin: round; stroke-linecap: butt}</style>
 </defs>
 <g id="figure_1">
  <g id="patch_1">
   <path d="M 0 325.85 
L 443.2625 325.85 
L 443.2625 0 
L 0 0 
z
" style="fill: #ffffff"/>
  </g>
  <g id="axes_1">
   <g id="patch_2">
    <path d="M 53.0525 54.696 
L 436.0625 54.696 
L 436.0625 7.2 
L 53.0525 7.2 
z
" style="fill: #ffffff"/>
   </g>
   <g id="PolyCollection_1">
    <defs>
     <path id="m3c79cd706c" d="M 70.462045 -273.312909 
L 70.462045 -294.291923 
L 77.425864 -293.65071 
L 84.389682 -292.977166 
L 91.3535 -292.278565 
L 98.317318 -291.56245 
L 105.281136 -290.836403 
L 112.244955 -290.107938 
L 119.208773 -289.38433 
L 126.172591 -288.67243 
L 133.136409 -287.978555 
L 140.100227 -287.308356 
L 147.064045 -286.666751 
L 154.027864 -286.057879 
L 160.991682 -285.485091 
L 167.9555 -284.950984 
L 174.919318 -284.457443 
L 181.883136 -284.005729 
L 188.846955 -283.59656 
L 195.810773 -283.230212 
L 202.774591 -282.906612 
L 209.738409 -282.625438 
L 216.702227 -282.386208 
L 223.666045 -282.188345 
L 230.629864 -282.031261 
L 237.593682 -281.914403 
L 244.5575 -281.837289 
L 251.521318 -281.79956 
L 258.485136 -281.800974 
L 265.448955 -281.841436 
L 272.412773 -281.920978 
L 279.376591 -282.039757 
L 286.340409 -282.198034 
L 293.304227 -282.396136 
L 300.268045 -282.634416 
L 307.231864 -282.913208 
L 314.195682 -283.232771 
L 321.1595 -283.593225 
L 328.123318 -283.994503 
L 335.087136 -284.436279 
L 342.050955 -284.917913 
L 349.014773 -285.438433 
L 355.978591 -285.996485 
L 362.942409 -286.590327 
L 369.906227 -287.217869 
L 376.870045 -287.876696 
L 383.833864 -288.564145 
L 390.797682 -289.277417 
L 397.7615 -290.013658 
L 404.725318 -290.770128 
L 411.689136 -291.544313 
L 418.652955 -292.33407 
L 418.652955 -273.312909 
L 418.652955 -273.312909 
L 411.689136 -273.312909 
L 404.725318 -273.312909 
L 397.7615 -273.312909 
L 390.797682 -273.312909 
L 383.833864 -273.312909 
L 376.870045 -273.312909 
L 369.906227 -273.312909 
L 362.942409 -273.312909 
L 355.978591 -273.312909 
L 349.014773 -273.312909 
L 342.050955 -273.312909 
L 335.087136 -273.312909 
L 328.123318 -273.312909 
L 321.1595 -273.312909 
L 314.195682 -273.312909 
L 307.231864 -273.312909 
L 300.268045 -273.312909 
L 293.304227 -273.312909 
L 286.340409 -273.312909 
L 279.376591 -273.312909 
L 272.412773 -273.312909 
L 265.448955 -273.312909 
L 258.485136 -273.312909 
L 251.521318 -273.312909 
L 244.5575 -273.312909 
L 237.593682 -273.312909 
L 230.629864 -273.312909 
L 223.666045 -273.312909 
L 216.702227 -273.312909 
L 209.738409 -273.312909 
L 202.774591 -273.312909 
L 195.810773 -273.312909 
L 188.846955 -273.312909 
L 181.883136 -273.312909 
L 174.919318 -273.312909 
L 167.9555 -273.312909 
L 160.991682 -273.312909 
L 154.027864 -273.312909 
L 147.064045 -273.312909 
L 140.100227 -273.312909 
L 133.136409 -273.312909 
L 126.172591 -273.312909 
L 119.208773 -273.312909 
L 112.244955 -273.312909 
L 105.281136 -273.312909 
L 98.317318 -273.312909 
L 91.3535 -273.312909 
L 84.389682 -273.312909 
L 77.425864 -273.312909 
L 70.462045 -273.312909 
z
" style="stroke: #dc143c; stroke-opacity: 0.2"/>
    </defs>
    <g clip-path="url(#p46ca009228)">
     <use xlink:href="#m3c79cd706c" x="0" y="325.85" style="fill: #dc143c; fill-opacity: 0.2; stroke: #dc143c; stroke-opacity: 0.2"/>
    </g>
   </g>
   <g id="PolyCollection_2">
    <defs>
     <path id="m4673aa61aa" d="M 70.462045 -273.312909 
L 70.462045 -303.998728 
L 77.425864 -304.639941 
L 84.389682 -305.313485 
L 91.3535 -306.012085 
L 98.317318 -306.728201 
L 105.281136 -307.454247 
L 112.244955 -308.182712 
L 119.208773 -308.90632 
L 126.172591 -309.61822 
L 133.136409 -310.312096 
L 140.100227 -310.982295 
L 147.064045 -311.6239 
L 154.027864 -312.232771 
L 160.991682 -312.80556 
L 167.9555 -313.339666 
L 174.919318 -313.833207 
L 181.883136 -314.284922 
L 188.846955 -314.694091 
L 195.810773 -315.060439 
L 202.774591 -315.384039 
L 209.738409 -315.665213 
L 216.702227 -315.904443 
L 223.666045 -316.102306 
L 230.629864 -316.259389 
L 237.593682 -316.376247 
L 244.5575 -316.453361 
L 251.521318 -316.491091 
L 258.485136 -316.489677 
L 265.448955 -316.449214 
L 272.412773 -316.369673 
L 279.376591 -316.250893 
L 286.340409 -316.092616 
L 293.304227 -315.894515 
L 300.268045 -315.656234 
L 307.231864 -315.377443 
L 314.195682 -315.05788 
L 321.1595 -314.697426 
L 328.123318 -314.296147 
L 335.087136 -313.854372 
L 342.050955 -313.372737 
L 349.014773 -312.852217 
L 355.978591 -312.294165 
L 362.942409 -311.700323 
L 369.906227 -311.072782 
L 376.870045 -310.413954 
L 383.833864 -309.726505 
L 390.797682 -309.013233 
L 397.7615 -308.276993 
L 404.725318 -307.520522 
L 411.689136 -306.746337 
L 418.652955 -305.95658 
L 418.652955 -273.312909 
L 418.652955 -273.312909 
L 411.689136 -273.312909 
L 404.725318 -273.312909 
L 397.7615 -273.312909 
L 390.797682 -273.312909 
L 383.833864 -273.312909 
L 376.870045 -273.312909 
L 369.906227 -273.312909 
L 362.942409 -273.312909 
L 355.978591 -273.312909 
L 349.014773 -273.312909 
L 342.050955 -273.312909 
L 335.087136 -273.312909 
L 328.123318 -273.312909 
L 321.1595 -273.312909 
L 314.195682 -273.312909 
L 307.231864 -273.312909 
L 300.268045 -273.312909 
L 293.304227 -273.312909 
L 286.340409 -273.312909 
L 279.376591 -273.312909 
L 272.412773 -273.312909 
L 265.448955 -273.312909 
L 258.485136 -273.312909 
L 251.521318 -273.312909 
L 244.5575 -273.312909 
L 237.593682 -273.312909 
L 230.629864 -273.312909 
L 223.666045 -273.312909 
L 216.702227 -273.312909 
L 209.738409 -273.312909 
L 202.774591 -273.312909 
L 195.810773 -273.312909 
L 188.846955 -273.312909 
L 181.883136 -273.312909 
L 174.919318 -273.312909 
L 167.9555 -273.312909 
L 160.991682 -273.312909 
L 154.027864 -273.312909 
L 147.064045 -273.312909 
L 140.100227 -273.312909 
L 133.136409 -273.312909 
L 126.172591 -273.312909 
L 119.208773 -273.312909 
L 112.244955 -273.312909 
L 105.281136 -273.312909 
L 98.317318 -273.312909 
L 91.3535 -273.312909 
L 84.389682 -273.312909 
L 77.425864 -273.312909 
L 70.462045 -273.312909 
z
" style="stroke: #000080; stroke-opacity: 0.2"/>
    </defs>
    <g clip-path="url(#p46ca009228)">
     <use xlink:href="#m4673aa61aa" x="0" y="325.85" style="fill: #000080; fill-opacity: 0.2; stroke: #000080; stroke-opacity: 0.2"/>
    </g>
   </g>
   <g id="matplotlib.axis_1"/>
   <g id="matplotlib.axis_2"/>
   <g id="line2d_1">
    <path d="M 70.462045 31.558077 
L 77.425864 32.19929 
L 84.389682 32.872834 
L 91.3535 33.571435 
L 98.317318 34.28755 
L 105.281136 35.013597 
L 112.244955 35.742062 
L 119.208773 36.46567 
L 126.172591 37.17757 
L 133.136409 37.871445 
L 140.100227 38.541644 
L 147.064045 39.183249 
L 154.027864 39.792121 
L 160.991682 40.364909 
L 167.9555 40.899016 
L 174.919318 41.392557 
L 181.883136 41.844271 
L 188.846955 42.25344 
L 195.810773 42.619788 
L 202.774591 42.943388 
L 209.738409 43.224562 
L 216.702227 43.463792 
L 223.666045 43.661655 
L 230.629864 43.818739 
L 237.593682 43.935597 
L 244.5575 44.012711 
L 251.521318 44.05044 
L 258.485136 44.049026 
L 265.448955 44.008564 
L 272.412773 43.929022 
L 279.376591 43.810243 
L 286.340409 43.651966 
L 293.304227 43.453864 
L 300.268045 43.215584 
L 307.231864 42.936792 
L 314.195682 42.617229 
L 321.1595 42.256775 
L 328.123318 41.855497 
L 335.087136 41.413721 
L 342.050955 40.932087 
L 349.014773 40.411567 
L 355.978591 39.853515 
L 362.942409 39.259673 
L 369.906227 38.632131 
L 376.870045 37.973304 
L 383.833864 37.285855 
L 390.797682 36.572583 
L 397.7615 35.836342 
L 404.725318 35.079872 
L 411.689136 34.305687 
L 418.652955 33.51593 
" clip-path="url(#p46ca009228)" style="fill: none; stroke: #dc143c; stroke-width: 1.5; stroke-linecap: square"/>
   </g>
   <g id="line2d_2">
    <path d="M 70.462045 21.851272 
L 77.425864 21.210059 
L 84.389682 20.536515 
L 91.3535 19.837915 
L 98.317318 19.121799 
L 105.281136 18.395753 
L 112.244955 17.667288 
L 119.208773 16.94368 
L 126.172591 16.23178 
L 133.136409 15.537904 
L 140.100227 14.867705 
L 147.064045 14.2261 
L 154.027864 13.617229 
L 160.991682 13.04444 
L 167.9555 12.510334 
L 174.919318 12.016793 
L 181.883136 11.565078 
L 188.846955 11.155909 
L 195.810773 10.789561 
L 202.774591 10.465961 
L 209.738409 10.184787 
L 216.702227 9.945557 
L 223.666045 9.747694 
L 230.629864 9.590611 
L 237.593682 9.473753 
L 244.5575 9.396639 
L 251.521318 9.358909 
L 258.485136 9.360323 
L 265.448955 9.400786 
L 272.412773 9.480327 
L 279.376591 9.599107 
L 286.340409 9.757384 
L 293.304227 9.955485 
L 300.268045 10.193766 
L 307.231864 10.472557 
L 314.195682 10.79212 
L 321.1595 11.152574 
L 328.123318 11.553853 
L 335.087136 11.995628 
L 342.050955 12.477263 
L 349.014773 12.997783 
L 355.978591 13.555835 
L 362.942409 14.149677 
L 369.906227 14.777218 
L 376.870045 15.436046 
L 383.833864 16.123495 
L 390.797682 16.836767 
L 397.7615 17.573007 
L 404.725318 18.329478 
L 411.689136 19.103663 
L 418.652955 19.89342 
" clip-path="url(#p46ca009228)" style="fill: none; stroke: #000080; stroke-width: 1.5; stroke-linecap: square"/>
   </g>
  </g>
  <g id="axes_2">
   <g id="patch_3">
    <path d="M 53.0525 165.688 
L 436.0625 165.688 
L 436.0625 70.696 
L 53.0525 70.696 
z
" style="fill: #ffffff"/>
   </g>
   <g id="PathCollection_1">
    <defs>
     <path id="mdc84026b49" d="M 0 0.866025 
C 0.229673 0.866025 0.449969 0.774776 0.612372 0.612372 
C 0.774776 0.449969 0.866025 0.229673 0.866025 0 
C 0.866025 -0.229673 0.774776 -0.449969 0.612372 -0.612372 
C 0.449969 -0.774776 0.229673 -0.866025 0 -0.866025 
C -0.229673 -0.866025 -0.449969 -0.774776 -0.612372 -0.612372 
C -0.774776 -0.449969 -0.866025 -0.229673 -0.866025 0 
C -0.866025 0.229673 -0.774776 0.449969 -0.612372 0.612372 
C -0.449969 0.774776 -0.229673 0.866025 0 0.866025 
z
" style="stroke: #daa520"/>
    </defs>
    <g clip-path="url(#p7a0ba9c9a8)">
     <use xlink:href="#mdc84026b49" x="365.526997" y="111.510116" style="fill: #daa520; stroke: #daa520"/>
     <use xlink:href="#mdc84026b49" x="182.985071" y="110.977179" style="fill: #daa520; stroke: #daa520"/>
     <use xlink:href="#mdc84026b49" x="345.797722" y="113.572746" style="fill: #daa520; stroke: #daa520"/>
     <use xlink:href="#mdc84026b49" x="73.005585" y="88.253741" style="fill: #daa520; stroke: #daa520"/>
     <use xlink:href="#mdc84026b49" x="106.755612" y="134.324142" style="fill: #daa520; stroke: #daa520"/>
     <use xlink:href="#mdc84026b49" x="368.170574" y="134.896362" style="fill: #daa520; stroke: #daa520"/>
     <use xlink:href="#mdc84026b49" x="147.078862" y="126.644643" style="fill: #daa520; stroke: #daa520"/>
     <use xlink:href="#mdc84026b49" x="85.309632" y="97.335294" style="fill: #daa520; stroke: #daa520"/>
     <use xlink:href="#mdc84026b49" x="217.991315" y="132.396835" style="fill: #daa520; stroke: #daa520"/>
     <use xlink:href="#mdc84026b49" x="390.998087" y="119.524129" style="fill: #daa520; stroke: #daa520"/>
     <use xlink:href="#mdc84026b49" x="349.564526" y="109.954532" style="fill: #daa520; stroke: #daa520"/>
     <use xlink:href="#mdc84026b49" x="396.940378" y="127.757928" style="fill: #daa520; stroke: #daa520"/>
     <use xlink:href="#mdc84026b49" x="292.81433" y="131.10566" style="fill: #daa520; stroke: #daa520"/>
     <use xlink:href="#mdc84026b49" x="78.502722" y="98.087527" style="fill: #daa520; stroke: #daa520"/>
     <use xlink:href="#mdc84026b49" x="137.807066" y="125.637398" style="fill: #daa520; stroke: #daa520"/>
     <use xlink:href="#mdc84026b49" x="207.157275" y="133.486523" style="fill: #daa520; stroke: #daa520"/>
     <use xlink:href="#mdc84026b49" x="273.289128" y="99.643367" style="fill: #daa520; stroke: #daa520"/>
     <use xlink:href="#mdc84026b49" x="81.479284" y="98.790266" style="fill: #daa520; stroke: #daa520"/>
     <use xlink:href="#mdc84026b49" x="119.58418" y="143.288157" style="fill: #daa520; stroke: #daa520"/>
     <use xlink:href="#mdc84026b49" x="239.462555" y="146.172723" style="fill: #daa520; stroke: #daa520"/>
     <use xlink:href="#mdc84026b49" x="385.357078" y="118.638188" style="fill: #daa520; stroke: #daa520"/>
     <use xlink:href="#mdc84026b49" x="342.882934" y="106.65988" style="fill: #daa520; stroke: #daa520"/>
     <use xlink:href="#mdc84026b49" x="359.802457" y="104.336967" style="fill: #daa520; stroke: #daa520"/>
     <use xlink:href="#mdc84026b49" x="350.968025" y="143.449922" style="fill: #daa520; stroke: #daa520"/>
     <use xlink:href="#mdc84026b49" x="411.417486" y="112.949665" style="fill: #daa520; stroke: #daa520"/>
     <use xlink:href="#mdc84026b49" x="72.788804" y="77.00668" style="fill: #daa520; stroke: #daa520"/>
     <use xlink:href="#mdc84026b49" x="398.070685" y="116.741522" style="fill: #daa520; stroke: #daa520"/>
     <use xlink:href="#mdc84026b49" x="404.483597" y="112.681583" style="fill: #daa520; stroke: #daa520"/>
     <use xlink:href="#mdc84026b49" x="85.407938" y="84.763968" style="fill: #daa520; stroke: #daa520"/>
     <use xlink:href="#mdc84026b49" x="73.026503" y="75.013818" style="fill: #daa520; stroke: #daa520"/>
     <use xlink:href="#mdc84026b49" x="129.529639" y="133.999116" style="fill: #daa520; stroke: #daa520"/>
     <use xlink:href="#mdc84026b49" x="77.861019" y="94.597329" style="fill: #daa520; stroke: #daa520"/>
     <use xlink:href="#mdc84026b49" x="416.969108" y="127.4139" style="fill: #daa520; stroke: #daa520"/>
     <use xlink:href="#mdc84026b49" x="349.932743" y="141.270976" style="fill: #daa520; stroke: #daa520"/>
     <use xlink:href="#mdc84026b49" x="416.113152" y="111.704432" style="fill: #daa520; stroke: #daa520"/>
     <use xlink:href="#mdc84026b49" x="288.044241" y="93.377614" style="fill: #daa520; stroke: #daa520"/>
     <use xlink:href="#mdc84026b49" x="383.628132" y="116.761283" style="fill: #daa520; stroke: #daa520"/>
     <use xlink:href="#mdc84026b49" x="162.66394" y="126.81937" style="fill: #daa520; stroke: #daa520"/>
     <use xlink:href="#mdc84026b49" x="143.43418" y="153.465586" style="fill: #daa520; stroke: #daa520"/>
     <use xlink:href="#mdc84026b49" x="268.081234" y="130.596418" style="fill: #daa520; stroke: #daa520"/>
     <use xlink:href="#mdc84026b49" x="148.535876" y="139.718963" style="fill: #daa520; stroke: #daa520"/>
     <use xlink:href="#mdc84026b49" x="179.54761" y="111.703901" style="fill: #daa520; stroke: #daa520"/>
     <use xlink:href="#mdc84026b49" x="79.885626" y="93.813693" style="fill: #daa520; stroke: #daa520"/>
     <use xlink:href="#mdc84026b49" x="93.464373" y="91.779865" style="fill: #daa520; stroke: #daa520"/>
     <use xlink:href="#mdc84026b49" x="210.524361" y="124.569656" style="fill: #daa520; stroke: #daa520"/>
     <use xlink:href="#mdc84026b49" x="346.149513" y="118.929245" style="fill: #daa520; stroke: #daa520"/>
     <use xlink:href="#mdc84026b49" x="129.872159" y="118.205722" style="fill: #daa520; stroke: #daa520"/>
     <use xlink:href="#mdc84026b49" x="396.997664" y="114.786069" style="fill: #daa520; stroke: #daa520"/>
     <use xlink:href="#mdc84026b49" x="395.804842" y="129.256159" style="fill: #daa520; stroke: #daa520"/>
     <use xlink:href="#mdc84026b49" x="303.31843" y="161.370182" style="fill: #daa520; stroke: #daa520"/>
     <use xlink:href="#mdc84026b49" x="195.475732" y="119.23345" style="fill: #daa520; stroke: #daa520"/>
     <use xlink:href="#mdc84026b49" x="167.434921" y="136.247929" style="fill: #daa520; stroke: #daa520"/>
     <use xlink:href="#mdc84026b49" x="326.21119" y="144.116147" style="fill: #daa520; stroke: #daa520"/>
     <use xlink:href="#mdc84026b49" x="160.9623" y="126.997157" style="fill: #daa520; stroke: #daa520"/>
     <use xlink:href="#mdc84026b49" x="134.455229" y="141.844746" style="fill: #daa520; stroke: #daa520"/>
     <use xlink:href="#mdc84026b49" x="413.589065" y="140.196424" style="fill: #daa520; stroke: #daa520"/>
     <use xlink:href="#mdc84026b49" x="238.536552" y="91.199668" style="fill: #daa520; stroke: #daa520"/>
     <use xlink:href="#mdc84026b49" x="170.005995" y="115.017973" style="fill: #daa520; stroke: #daa520"/>
     <use xlink:href="#mdc84026b49" x="193.478255" y="137.267539" style="fill: #daa520; stroke: #daa520"/>
     <use xlink:href="#mdc84026b49" x="173.399418" y="109.298958" style="fill: #daa520; stroke: #daa520"/>
     <use xlink:href="#mdc84026b49" x="76.220846" y="77.973233" style="fill: #daa520; stroke: #daa520"/>
     <use xlink:href="#mdc84026b49" x="406.329735" y="119.025794" style="fill: #daa520; stroke: #daa520"/>
     <use xlink:href="#mdc84026b49" x="372.014008" y="112.430808" style="fill: #daa520; stroke: #daa520"/>
     <use xlink:href="#mdc84026b49" x="237.996262" y="90.462095" style="fill: #daa520; stroke: #daa520"/>
     <use xlink:href="#mdc84026b49" x="84.136141" y="84.513954" style="fill: #daa520; stroke: #daa520"/>
     <use xlink:href="#mdc84026b49" x="167.791514" y="137.77728" style="fill: #daa520; stroke: #daa520"/>
     <use xlink:href="#mdc84026b49" x="111.658208" y="96.232835" style="fill: #daa520; stroke: #daa520"/>
     <use xlink:href="#mdc84026b49" x="417.831675" y="139.409669" style="fill: #daa520; stroke: #daa520"/>
     <use xlink:href="#mdc84026b49" x="166.351161" y="109.210339" style="fill: #daa520; stroke: #daa520"/>
     <use xlink:href="#mdc84026b49" x="237.718236" y="147.894684" style="fill: #daa520; stroke: #daa520"/>
     <use xlink:href="#mdc84026b49" x="326.382772" y="138.825235" style="fill: #daa520; stroke: #daa520"/>
     <use xlink:href="#mdc84026b49" x="87.064631" y="98.161337" style="fill: #daa520; stroke: #daa520"/>
     <use xlink:href="#mdc84026b49" x="255.617182" y="94.053347" style="fill: #daa520; stroke: #daa520"/>
     <use xlink:href="#mdc84026b49" x="176.781289" y="122.018225" style="fill: #daa520; stroke: #daa520"/>
     <use xlink:href="#mdc84026b49" x="185.63238" y="121.86114" style="fill: #daa520; stroke: #daa520"/>
     <use xlink:href="#mdc84026b49" x="377.497977" y="114.97973" style="fill: #daa520; stroke: #daa520"/>
     <use xlink:href="#mdc84026b49" x="369.224565" y="136.191526" style="fill: #daa520; stroke: #daa520"/>
     <use xlink:href="#mdc84026b49" x="119.713755" y="152.302825" style="fill: #daa520; stroke: #daa520"/>
     <use xlink:href="#mdc84026b49" x="153.465457" y="149.536737" style="fill: #daa520; stroke: #daa520"/>
     <use xlink:href="#mdc84026b49" x="406.390186" y="112.105488" style="fill: #daa520; stroke: #daa520"/>
     <use xlink:href="#mdc84026b49" x="86.399724" y="83.876963" style="fill: #daa520; stroke: #daa520"/>
     <use xlink:href="#mdc84026b49" x="215.789834" y="130.441943" style="fill: #daa520; stroke: #daa520"/>
     <use xlink:href="#mdc84026b49" x="190.041498" y="134.252266" style="fill: #daa520; stroke: #daa520"/>
     <use xlink:href="#mdc84026b49" x="143.655687" y="133.09618" style="fill: #daa520; stroke: #daa520"/>
     <use xlink:href="#mdc84026b49" x="105.348883" y="133.062761" style="fill: #daa520; stroke: #daa520"/>
     <use xlink:href="#mdc84026b49" x="259.790131" y="151.254393" style="fill: #daa520; stroke: #daa520"/>
     <use xlink:href="#mdc84026b49" x="292.744694" y="134.538054" style="fill: #daa520; stroke: #daa520"/>
     <use xlink:href="#mdc84026b49" x="219.348509" y="109.883078" style="fill: #daa520; stroke: #daa520"/>
     <use xlink:href="#mdc84026b49" x="83.621342" y="92.699149" style="fill: #daa520; stroke: #daa520"/>
     <use xlink:href="#mdc84026b49" x="401.892555" y="114.686707" style="fill: #daa520; stroke: #daa520"/>
     <use xlink:href="#mdc84026b49" x="158.290112" y="156.836602" style="fill: #daa520; stroke: #daa520"/>
     <use xlink:href="#mdc84026b49" x="101.303724" y="130.60104" style="fill: #daa520; stroke: #daa520"/>
     <use xlink:href="#mdc84026b49" x="274.668984" y="139.28232" style="fill: #daa520; stroke: #daa520"/>
     <use xlink:href="#mdc84026b49" x="101.998214" y="104.461829" style="fill: #daa520; stroke: #daa520"/>
     <use xlink:href="#mdc84026b49" x="385.461947" y="111.614005" style="fill: #daa520; stroke: #daa520"/>
    </g>
   </g>
   <g id="matplotlib.axis_3"/>
   <g id="matplotlib.axis_4">
    <g id="ytick_1">
     <g id="line2d_3">
      <defs>
       <path id="m55d0211288" d="M 0 0 
L -3.5 0 
" style="stroke: #696969; stroke-width: 0.8"/>
      </defs>
      <g>
       <use xlink:href="#m55d0211288" x="53.0525" y="126.688609" style="fill: #696969; stroke: #696969; stroke-width: 0.8"/>
      </g>
     </g>
     <g id="text_1">
      <!-- 0 -->
      <g style="fill: #696969" transform="translate(35.8725 132.767359) scale(0.16 -0.16)">
       <defs>
        <path id="DejaVuSans-30" d="M 2034 4250 
Q 1547 4250 1301 3770 
Q 1056 3291 1056 2328 
Q 1056 1369 1301 889 
Q 1547 409 2034 409 
Q 2525 409 2770 889 
Q 3016 1369 3016 2328 
Q 3016 3291 2770 3770 
Q 2525 4250 2034 4250 
z
M 2034 4750 
Q 2819 4750 3233 4129 
Q 3647 3509 3647 2328 
Q 3647 1150 3233 529 
Q 2819 -91 2034 -91 
Q 1250 -91 836 529 
Q 422 1150 422 2328 
Q 422 3509 836 4129 
Q 1250 4750 2034 4750 
z
" transform="scale(0.015625)"/>
       </defs>
       <use xlink:href="#DejaVuSans-30"/>
      </g>
     </g>
    </g>
    <g id="ytick_2">
     <g id="line2d_4">
      <g>
       <use xlink:href="#m55d0211288" x="53.0525" y="83.337499" style="fill: #696969; stroke: #696969; stroke-width: 0.8"/>
      </g>
     </g>
     <g id="text_2">
      <!-- 5 -->
      <g style="fill: #696969" transform="translate(35.8725 89.416249) scale(0.16 -0.16)">
       <defs>
        <path id="DejaVuSans-35" d="M 691 4666 
L 3169 4666 
L 3169 4134 
L 1269 4134 
L 1269 2991 
Q 1406 3038 1543 3061 
Q 1681 3084 1819 3084 
Q 2600 3084 3056 2656 
Q 3513 2228 3513 1497 
Q 3513 744 3044 326 
Q 2575 -91 1722 -91 
Q 1428 -91 1123 -41 
Q 819 9 494 109 
L 494 744 
Q 775 591 1075 516 
Q 1375 441 1709 441 
Q 2250 441 2565 725 
Q 2881 1009 2881 1497 
Q 2881 1984 2565 2268 
Q 2250 2553 1709 2553 
Q 1456 2553 1204 2497 
Q 953 2441 691 2322 
L 691 4666 
z
" transform="scale(0.015625)"/>
       </defs>
       <use xlink:href="#DejaVuSans-35"/>
      </g>
     </g>
    </g>
   </g>
   <g id="line2d_5">
    <path d="M 70.462045 81.905538 
L 77.425864 87.603114 
L 84.389682 94.552685 
L 91.3535 102.020811 
L 98.317318 109.470841 
L 105.281136 116.592578 
L 112.244955 123.189918 
L 119.208773 129.033845 
L 126.172591 133.795296 
L 133.136409 137.10302 
L 140.100227 138.683533 
L 147.064045 138.495636 
L 154.027864 136.788796 
L 160.991682 134.064303 
L 167.9555 130.960084 
L 174.919318 128.09728 
L 181.883136 125.928654 
L 188.846955 124.629027 
L 195.810773 124.06567 
L 202.774591 123.870073 
L 209.738409 123.597006 
L 216.702227 122.915955 
L 223.666045 121.757405 
L 230.629864 120.35032 
L 237.593682 119.133191 
L 244.5575 118.576527 
L 251.521318 118.991863 
L 258.485136 120.404726 
L 265.448955 122.539504 
L 272.412773 124.918386 
L 279.376591 127.033055 
L 286.340409 128.520437 
L 293.304227 129.271404 
L 300.268045 129.426685 
L 307.231864 129.26298 
L 314.195682 129.026062 
L 321.1595 128.799569 
L 328.123318 128.483401 
L 335.087136 127.894058 
L 342.050955 126.922081 
L 349.014773 125.640203 
L 355.978591 124.284259 
L 362.942409 123.115022 
L 369.906227 122.254627 
L 376.870045 121.612541 
L 383.833864 120.955273 
L 390.797682 120.073818 
L 397.7615 118.935709 
L 404.725318 117.719947 
L 411.689136 116.711476 
L 418.652955 116.121955 
" clip-path="url(#p7a0ba9c9a8)" style="fill: none; stroke: #000000; stroke-width: 2; stroke-linecap: square"/>
   </g>
   <g id="line2d_6">
    <path d="M 70.462045 77.803461 
L 77.425864 87.83927 
L 84.389682 96.554614 
L 91.3535 104.052594 
L 98.317318 110.43255 
L 105.281136 115.790054 
L 112.244955 120.216916 
L 119.208773 123.801182 
L 126.172591 126.627135 
L 133.136409 128.775291 
L 140.100227 130.322403 
L 147.064045 131.341463 
L 154.027864 131.901694 
L 160.991682 132.068559 
L 167.9555 131.903755 
L 174.919318 131.465215 
L 181.883136 130.807107 
L 188.846955 129.979838 
L 195.810773 129.030049 
L 202.774591 128.000616 
L 209.738409 126.930652 
L 216.702227 125.855507 
L 223.666045 124.806765 
L 230.629864 123.812246 
L 237.593682 122.896008 
L 244.5575 122.078344 
L 251.521318 121.375781 
L 258.485136 120.801085 
L 265.448955 120.363256 
L 272.412773 120.06753 
L 279.376591 119.915379 
L 286.340409 119.904512 
L 293.304227 120.028874 
L 300.268045 120.278644 
L 307.231864 120.640238 
L 314.195682 121.096309 
L 321.1595 121.625744 
L 328.123318 122.203668 
L 335.087136 122.801439 
L 342.050955 123.386655 
L 349.014773 123.923147 
L 355.978591 124.370982 
L 362.942409 124.686464 
L 369.906227 124.822133 
L 376.870045 124.726764 
L 383.833864 124.345368 
L 390.797682 123.619194 
L 397.7615 122.485723 
L 404.725318 120.878677 
L 411.689136 118.728008 
L 418.652955 115.95991 
" clip-path="url(#p7a0ba9c9a8)" style="fill: none; stroke-dasharray: 7.4,3.2; stroke-dashoffset: 0; stroke: #34b6c6; stroke-width: 2"/>
   </g>
   <g id="line2d_7">
    <path d="M 70.462045 84.578311 
L 77.425864 87.604753 
L 84.389682 93.075521 
L 91.3535 100.44819 
L 98.317318 107.749882 
L 105.281136 114.723355 
L 112.244955 121.895504 
L 119.208773 128.863833 
L 126.172591 133.821733 
L 133.136409 136.293771 
L 140.100227 137.301548 
L 147.064045 137.439773 
L 154.027864 136.653759 
L 160.991682 134.568294 
L 167.9555 131.345121 
L 174.919318 128.157605 
L 181.883136 125.74868 
L 188.846955 123.977809 
L 195.810773 122.578975 
L 202.774591 121.422285 
L 209.738409 120.462641 
L 216.702227 119.684874 
L 223.666045 119.085244 
L 230.629864 118.670935 
L 237.593682 118.465331 
L 244.5575 118.513939 
L 251.521318 118.884349 
L 258.485136 119.6456 
L 265.448955 120.812209 
L 272.412773 122.277584 
L 279.376591 123.819409 
L 286.340409 125.206655 
L 293.304227 126.302245 
L 300.268045 127.07453 
L 307.231864 127.55221 
L 314.195682 127.781839 
L 321.1595 127.806122 
L 328.123318 127.657046 
L 335.087136 127.355785 
L 342.050955 126.915019 
L 349.014773 126.342123 
L 355.978591 125.643064 
L 362.942409 124.827307 
L 369.906227 123.913733 
L 376.870045 122.936484 
L 383.833864 121.948043 
L 390.797682 121.016294 
L 397.7615 120.214575 
L 404.725318 119.608393 
L 411.689136 119.24512 
L 418.652955 119.150834 
" clip-path="url(#p7a0ba9c9a8)" style="fill: none; stroke-dasharray: 7.4,3.2; stroke-dashoffset: 0; stroke: #9370db; stroke-width: 2"/>
   </g>
   <g id="line2d_8">
    <path d="M 70.462045 85.86249 
L 77.425864 89.071803 
L 84.389682 95.162491 
L 91.3535 103.497271 
L 98.317318 111.745174 
L 105.281136 119.605889 
L 112.244955 127.707063 
L 119.208773 135.575805 
L 126.172591 141.076712 
L 133.136409 143.649918 
L 140.100227 144.507446 
L 147.064045 144.355644 
L 154.027864 143.131785 
L 160.991682 140.393388 
L 167.9555 136.333304 
L 174.919318 132.341643 
L 181.883136 129.298645 
L 188.846955 127.038376 
L 195.810773 125.246047 
L 202.774591 123.767694 
L 209.738409 122.549422 
L 216.702227 121.572447 
L 223.666045 120.831205 
L 230.629864 120.332744 
L 237.593682 120.102976 
L 244.5575 120.193689 
L 251.521318 120.682496 
L 258.485136 121.64841 
L 265.448955 123.105587 
L 272.412773 124.924497 
L 279.376591 126.838298 
L 286.340409 128.569524 
L 293.304227 129.951607 
L 300.268045 130.942478 
L 307.231864 131.571188 
L 314.195682 131.887613 
L 321.1595 131.936756 
L 328.123318 131.750616 
L 335.087136 131.348078 
L 342.050955 130.737655 
L 349.014773 129.921265 
L 355.978591 128.898845 
L 362.942409 127.674157 
L 369.906227 126.261795 
L 376.870045 124.694103 
L 383.833864 123.024823 
L 390.797682 121.325613 
L 397.7615 119.674275 
L 404.725318 118.139021 
L 411.689136 116.766281 
L 418.652955 115.576965 
" clip-path="url(#p7a0ba9c9a8)" style="fill: none; stroke-dasharray: 12.8,3.2,2,3.2; stroke-dashoffset: 0; stroke: #ff0000; stroke-width: 2"/>
   </g>
   <g id="patch_4">
    <path d="M 53.0525 165.688 
L 53.0525 70.696 
" style="fill: none; stroke: #000000; stroke-width: 0.8; stroke-linejoin: miter; stroke-linecap: square"/>
   </g>
   <g id="patch_5">
    <path d="M 436.0625 165.688 
L 436.0625 70.696 
" style="fill: none; stroke: #000000; stroke-width: 0.8; stroke-linejoin: miter; stroke-linecap: square"/>
   </g>
   <g id="patch_6">
    <path d="M 53.0525 165.688 
L 436.0625 165.688 
" style="fill: none; stroke: #000000; stroke-width: 0.8; stroke-linejoin: miter; stroke-linecap: square"/>
   </g>
   <g id="patch_7">
    <path d="M 53.0525 70.696 
L 436.0625 70.696 
" style="fill: none; stroke: #000000; stroke-width: 0.8; stroke-linejoin: miter; stroke-linecap: square"/>
   </g>
  </g>
  <g id="axes_3">
   <g id="patch_8">
    <path d="M 53.0525 276.68 
L 436.0625 276.68 
L 436.0625 181.688 
L 53.0525 181.688 
z
" style="fill: #ffffff"/>
   </g>
   <g id="PathCollection_2">
    <g clip-path="url(#p381fe6ceb3)">
     <use xlink:href="#mdc84026b49" x="365.526997" y="246.189207" style="fill: #daa520; stroke: #daa520"/>
     <use xlink:href="#mdc84026b49" x="182.985071" y="249.162034" style="fill: #daa520; stroke: #daa520"/>
     <use xlink:href="#mdc84026b49" x="345.797722" y="247.623487" style="fill: #daa520; stroke: #daa520"/>
     <use xlink:href="#mdc84026b49" x="73.005585" y="223.647087" style="fill: #daa520; stroke: #daa520"/>
     <use xlink:href="#mdc84026b49" x="106.755612" y="208.460301" style="fill: #daa520; stroke: #daa520"/>
     <use xlink:href="#mdc84026b49" x="368.170574" y="214.728276" style="fill: #daa520; stroke: #daa520"/>
     <use xlink:href="#mdc84026b49" x="147.078862" y="248.883644" style="fill: #daa520; stroke: #daa520"/>
     <use xlink:href="#mdc84026b49" x="85.309632" y="224.087331" style="fill: #daa520; stroke: #daa520"/>
     <use xlink:href="#mdc84026b49" x="217.991315" y="211.161025" style="fill: #daa520; stroke: #daa520"/>
     <use xlink:href="#mdc84026b49" x="390.998087" y="227.902477" style="fill: #daa520; stroke: #daa520"/>
     <use xlink:href="#mdc84026b49" x="349.564526" y="251.755124" style="fill: #daa520; stroke: #daa520"/>
     <use xlink:href="#mdc84026b49" x="396.940378" y="215.218177" style="fill: #daa520; stroke: #daa520"/>
     <use xlink:href="#mdc84026b49" x="292.81433" y="223.9692" style="fill: #daa520; stroke: #daa520"/>
     <use xlink:href="#mdc84026b49" x="78.502722" y="214.707003" style="fill: #daa520; stroke: #daa520"/>
     <use xlink:href="#mdc84026b49" x="137.807066" y="250.206156" style="fill: #daa520; stroke: #daa520"/>
     <use xlink:href="#mdc84026b49" x="207.157275" y="211.772532" style="fill: #daa520; stroke: #daa520"/>
     <use xlink:href="#mdc84026b49" x="273.289128" y="259.157284" style="fill: #daa520; stroke: #daa520"/>
     <use xlink:href="#mdc84026b49" x="81.479284" y="216.974653" style="fill: #daa520; stroke: #daa520"/>
     <use xlink:href="#mdc84026b49" x="119.58418" y="215.951506" style="fill: #daa520; stroke: #daa520"/>
     <use xlink:href="#mdc84026b49" x="239.462555" y="191.305969" style="fill: #daa520; stroke: #daa520"/>
     <use xlink:href="#mdc84026b49" x="385.357078" y="230.876575" style="fill: #daa520; stroke: #daa520"/>
     <use xlink:href="#mdc84026b49" x="342.882934" y="257.142937" style="fill: #daa520; stroke: #daa520"/>
     <use xlink:href="#mdc84026b49" x="359.802457" y="257.041382" style="fill: #daa520; stroke: #daa520"/>
     <use xlink:href="#mdc84026b49" x="350.968025" y="207.459268" style="fill: #daa520; stroke: #daa520"/>
     <use xlink:href="#mdc84026b49" x="411.417486" y="230.681943" style="fill: #daa520; stroke: #daa520"/>
     <use xlink:href="#mdc84026b49" x="72.788804" y="238.320482" style="fill: #daa520; stroke: #daa520"/>
     <use xlink:href="#mdc84026b49" x="398.070685" y="229.360368" style="fill: #daa520; stroke: #daa520"/>
     <use xlink:href="#mdc84026b49" x="404.483597" y="232.840203" style="fill: #daa520; stroke: #daa520"/>
     <use xlink:href="#mdc84026b49" x="85.407938" y="240.764042" style="fill: #daa520; stroke: #daa520"/>
     <use xlink:href="#mdc84026b49" x="73.026503" y="241.067228" style="fill: #daa520; stroke: #daa520"/>
     <use xlink:href="#mdc84026b49" x="129.529639" y="236.921626" style="fill: #daa520; stroke: #daa520"/>
     <use xlink:href="#mdc84026b49" x="77.861019" y="218.709955" style="fill: #daa520; stroke: #daa520"/>
     <use xlink:href="#mdc84026b49" x="416.969108" y="210.38914" style="fill: #daa520; stroke: #daa520"/>
     <use xlink:href="#mdc84026b49" x="349.932743" y="210.512371" style="fill: #daa520; stroke: #daa520"/>
     <use xlink:href="#mdc84026b49" x="416.113152" y="231.23145" style="fill: #daa520; stroke: #daa520"/>
     <use xlink:href="#mdc84026b49" x="288.044241" y="272.362182" style="fill: #daa520; stroke: #daa520"/>
     <use xlink:href="#mdc84026b49" x="383.628132" y="233.899294" style="fill: #daa520; stroke: #daa520"/>
     <use xlink:href="#mdc84026b49" x="162.66394" y="242.27066" style="fill: #daa520; stroke: #daa520"/>
     <use xlink:href="#mdc84026b49" x="143.43418" y="213.87433" style="fill: #daa520; stroke: #daa520"/>
     <use xlink:href="#mdc84026b49" x="268.081234" y="216.612376" style="fill: #daa520; stroke: #daa520"/>
     <use xlink:href="#mdc84026b49" x="148.535876" y="231.488824" style="fill: #daa520; stroke: #daa520"/>
     <use xlink:href="#mdc84026b49" x="179.54761" y="249.935314" style="fill: #daa520; stroke: #daa520"/>
     <use xlink:href="#mdc84026b49" x="79.885626" y="221.711706" style="fill: #daa520; stroke: #daa520"/>
     <use xlink:href="#mdc84026b49" x="93.464373" y="244.387638" style="fill: #daa520; stroke: #daa520"/>
     <use xlink:href="#mdc84026b49" x="210.524361" y="222.780619" style="fill: #daa520; stroke: #daa520"/>
     <use xlink:href="#mdc84026b49" x="346.149513" y="240.52525" style="fill: #daa520; stroke: #daa520"/>
     <use xlink:href="#mdc84026b49" x="129.872159" y="257.849315" style="fill: #daa520; stroke: #daa520"/>
     <use xlink:href="#mdc84026b49" x="396.997664" y="232.257112" style="fill: #daa520; stroke: #daa520"/>
     <use xlink:href="#mdc84026b49" x="395.804842" y="213.596679" style="fill: #daa520; stroke: #daa520"/>
     <use xlink:href="#mdc84026b49" x="303.31843" y="186.005818" style="fill: #daa520; stroke: #daa520"/>
     <use xlink:href="#mdc84026b49" x="195.475732" y="233.60644" style="fill: #daa520; stroke: #daa520"/>
     <use xlink:href="#mdc84026b49" x="167.434921" y="226.131478" style="fill: #daa520; stroke: #daa520"/>
     <use xlink:href="#mdc84026b49" x="326.21119" y="209.434728" style="fill: #daa520; stroke: #daa520"/>
     <use xlink:href="#mdc84026b49" x="160.9623" y="243.23171" style="fill: #daa520; stroke: #daa520"/>
     <use xlink:href="#mdc84026b49" x="134.455229" y="228.313195" style="fill: #daa520; stroke: #daa520"/>
     <use xlink:href="#mdc84026b49" x="413.589065" y="194.338823" style="fill: #daa520; stroke: #daa520"/>
     <use xlink:href="#mdc84026b49" x="238.536552" y="263.591454" style="fill: #daa520; stroke: #daa520"/>
     <use xlink:href="#mdc84026b49" x="170.005995" y="251.982601" style="fill: #daa520; stroke: #daa520"/>
     <use xlink:href="#mdc84026b49" x="193.478255" y="210.528039" style="fill: #daa520; stroke: #daa520"/>
     <use xlink:href="#mdc84026b49" x="173.399418" y="256.946147" style="fill: #daa520; stroke: #daa520"/>
     <use xlink:href="#mdc84026b49" x="76.220846" y="239.22502" style="fill: #daa520; stroke: #daa520"/>
     <use xlink:href="#mdc84026b49" x="406.329735" y="223.995261" style="fill: #daa520; stroke: #daa520"/>
     <use xlink:href="#mdc84026b49" x="372.014008" y="243.17861" style="fill: #daa520; stroke: #daa520"/>
     <use xlink:href="#mdc84026b49" x="237.996262" y="264.566321" style="fill: #daa520; stroke: #daa520"/>
     <use xlink:href="#mdc84026b49" x="84.136141" y="239.237681" style="fill: #daa520; stroke: #daa520"/>
     <use xlink:href="#mdc84026b49" x="167.791514" y="223.831685" style="fill: #daa520; stroke: #daa520"/>
     <use xlink:href="#mdc84026b49" x="111.658208" y="266.070198" style="fill: #daa520; stroke: #daa520"/>
     <use xlink:href="#mdc84026b49" x="417.831675" y="194.432186" style="fill: #daa520; stroke: #daa520"/>
     <use xlink:href="#mdc84026b49" x="166.351161" y="262.559556" style="fill: #daa520; stroke: #daa520"/>
     <use xlink:href="#mdc84026b49" x="237.718236" y="189.053048" style="fill: #daa520; stroke: #daa520"/>
     <use xlink:href="#mdc84026b49" x="326.382772" y="216.383875" style="fill: #daa520; stroke: #daa520"/>
     <use xlink:href="#mdc84026b49" x="87.064631" y="225.697322" style="fill: #daa520; stroke: #daa520"/>
     <use xlink:href="#mdc84026b49" x="255.617182" y="261.278194" style="fill: #daa520; stroke: #daa520"/>
     <use xlink:href="#mdc84026b49" x="176.781289" y="237.974441" style="fill: #daa520; stroke: #daa520"/>
     <use xlink:href="#mdc84026b49" x="185.63238" y="233.680085" style="fill: #daa520; stroke: #daa520"/>
     <use xlink:href="#mdc84026b49" x="377.497977" y="238.177104" style="fill: #daa520; stroke: #daa520"/>
     <use xlink:href="#mdc84026b49" x="369.224565" y="212.732902" style="fill: #daa520; stroke: #daa520"/>
     <use xlink:href="#mdc84026b49" x="119.713755" y="204.266681" style="fill: #daa520; stroke: #daa520"/>
     <use xlink:href="#mdc84026b49" x="153.465457" y="217.372219" style="fill: #daa520; stroke: #daa520"/>
     <use xlink:href="#mdc84026b49" x="406.390186" y="233.078413" style="fill: #daa520; stroke: #daa520"/>
     <use xlink:href="#mdc84026b49" x="86.399724" y="243.441426" style="fill: #daa520; stroke: #daa520"/>
     <use xlink:href="#mdc84026b49" x="215.789834" y="214.085929" style="fill: #daa520; stroke: #daa520"/>
     <use xlink:href="#mdc84026b49" x="190.041498" y="215.672412" style="fill: #daa520; stroke: #daa520"/>
     <use xlink:href="#mdc84026b49" x="143.655687" y="240.65164" style="fill: #daa520; stroke: #daa520"/>
     <use xlink:href="#mdc84026b49" x="105.348883" y="208.00478" style="fill: #daa520; stroke: #daa520"/>
     <use xlink:href="#mdc84026b49" x="259.790131" y="186.981294" style="fill: #daa520; stroke: #daa520"/>
     <use xlink:href="#mdc84026b49" x="292.744694" y="219.440038" style="fill: #daa520; stroke: #daa520"/>
     <use xlink:href="#mdc84026b49" x="219.348509" y="240.560735" style="fill: #daa520; stroke: #daa520"/>
     <use xlink:href="#mdc84026b49" x="83.621342" y="227.755297" style="fill: #daa520; stroke: #daa520"/>
     <use xlink:href="#mdc84026b49" x="401.892555" y="230.935037" style="fill: #daa520; stroke: #daa520"/>
     <use xlink:href="#mdc84026b49" x="158.290112" y="205.634701" style="fill: #daa520; stroke: #daa520"/>
     <use xlink:href="#mdc84026b49" x="101.303724" y="205.239667" style="fill: #daa520; stroke: #daa520"/>
     <use xlink:href="#mdc84026b49" x="274.668984" y="207.539771" style="fill: #daa520; stroke: #daa520"/>
     <use xlink:href="#mdc84026b49" x="101.998214" y="240.636007" style="fill: #daa520; stroke: #daa520"/>
     <use xlink:href="#mdc84026b49" x="385.461947" y="240.078818" style="fill: #daa520; stroke: #daa520"/>
    </g>
   </g>
   <g id="matplotlib.axis_5">
    <g id="xtick_1">
     <g id="line2d_9">
      <defs>
       <path id="m379d74b440" d="M 0 0 
L 0 3.5 
" style="stroke: #696969; stroke-width: 0.8"/>
      </defs>
      <g>
       <use xlink:href="#m379d74b440" x="70.462045" y="276.68" style="fill: #696969; stroke: #696969; stroke-width: 0.8"/>
      </g>
     </g>
     <g id="text_3">
      <!-- −1.0 -->
      <g style="fill: #696969" transform="translate(51.035795 295.8375) scale(0.16 -0.16)">
       <defs>
        <path id="DejaVuSans-2212" d="M 678 2272 
L 4684 2272 
L 4684 1741 
L 678 1741 
L 678 2272 
z
" transform="scale(0.015625)"/>
        <path id="DejaVuSans-31" d="M 794 531 
L 1825 531 
L 1825 4091 
L 703 3866 
L 703 4441 
L 1819 4666 
L 2450 4666 
L 2450 531 
L 3481 531 
L 3481 0 
L 794 0 
L 794 531 
z
" transform="scale(0.015625)"/>
        <path id="DejaVuSans-2e" d="M 684 794 
L 1344 794 
L 1344 0 
L 684 0 
L 684 794 
z
" transform="scale(0.015625)"/>
       </defs>
       <use xlink:href="#DejaVuSans-2212"/>
       <use xlink:href="#DejaVuSans-31" x="83.789062"/>
       <use xlink:href="#DejaVuSans-2e" x="147.412109"/>
       <use xlink:href="#DejaVuSans-30" x="179.199219"/>
      </g>
     </g>
    </g>
    <g id="xtick_2">
     <g id="line2d_10">
      <g>
       <use xlink:href="#m379d74b440" x="157.509773" y="276.68" style="fill: #696969; stroke: #696969; stroke-width: 0.8"/>
      </g>
     </g>
     <g id="text_4">
      <!-- −0.5 -->
      <g style="fill: #696969" transform="translate(138.083523 295.8375) scale(0.16 -0.16)">
       <use xlink:href="#DejaVuSans-2212"/>
       <use xlink:href="#DejaVuSans-30" x="83.789062"/>
       <use xlink:href="#DejaVuSans-2e" x="147.412109"/>
       <use xlink:href="#DejaVuSans-35" x="179.199219"/>
      </g>
     </g>
    </g>
    <g id="xtick_3">
     <g id="line2d_11">
      <g>
       <use xlink:href="#m379d74b440" x="244.5575" y="276.68" style="fill: #696969; stroke: #696969; stroke-width: 0.8"/>
      </g>
     </g>
     <g id="text_5">
      <!-- 0.0 -->
      <g style="fill: #696969" transform="translate(231.835 295.8375) scale(0.16 -0.16)">
       <use xlink:href="#DejaVuSans-30"/>
       <use xlink:href="#DejaVuSans-2e" x="63.623047"/>
       <use xlink:href="#DejaVuSans-30" x="95.410156"/>
      </g>
     </g>
    </g>
    <g id="xtick_4">
     <g id="line2d_12">
      <g>
       <use xlink:href="#m379d74b440" x="331.605227" y="276.68" style="fill: #696969; stroke: #696969; stroke-width: 0.8"/>
      </g>
     </g>
     <g id="text_6">
      <!-- 0.5 -->
      <g style="fill: #696969" transform="translate(318.882727 295.8375) scale(0.16 -0.16)">
       <use xlink:href="#DejaVuSans-30"/>
       <use xlink:href="#DejaVuSans-2e" x="63.623047"/>
       <use xlink:href="#DejaVuSans-35" x="95.410156"/>
      </g>
     </g>
    </g>
    <g id="xtick_5">
     <g id="line2d_13">
      <g>
       <use xlink:href="#m379d74b440" x="418.652955" y="276.68" style="fill: #696969; stroke: #696969; stroke-width: 0.8"/>
      </g>
     </g>
     <g id="text_7">
      <!-- 1.0 -->
      <g style="fill: #696969" transform="translate(405.930455 295.8375) scale(0.16 -0.16)">
       <use xlink:href="#DejaVuSans-31"/>
       <use xlink:href="#DejaVuSans-2e" x="63.623047"/>
       <use xlink:href="#DejaVuSans-30" x="95.410156"/>
      </g>
     </g>
    </g>
    <g id="text_8">
     <!-- $X$ -->
     <g transform="translate(239.0375 315.3225) scale(0.16 -0.16)">
      <defs>
       <path id="DejaVuSans-Oblique-58" d="M 878 4666 
L 1516 4666 
L 2316 2981 
L 3763 4666 
L 4500 4666 
L 2578 2438 
L 3738 0 
L 3103 0 
L 2163 1966 
L 459 0 
L -275 0 
L 1906 2509 
L 878 4666 
z
" transform="scale(0.015625)"/>
      </defs>
      <use xlink:href="#DejaVuSans-Oblique-58" transform="translate(0 0.09375)"/>
     </g>
    </g>
   </g>
   <g id="matplotlib.axis_6">
    <g id="ytick_3">
     <g id="line2d_14">
      <g>
       <use xlink:href="#m55d0211288" x="53.0525" y="254.098308" style="fill: #696969; stroke: #696969; stroke-width: 0.8"/>
      </g>
     </g>
     <g id="text_9">
      <!-- −2.5 -->
      <g style="fill: #696969" transform="translate(7.2 260.177058) scale(0.16 -0.16)">
       <defs>
        <path id="DejaVuSans-32" d="M 1228 531 
L 3431 531 
L 3431 0 
L 469 0 
L 469 531 
Q 828 903 1448 1529 
Q 2069 2156 2228 2338 
Q 2531 2678 2651 2914 
Q 2772 3150 2772 3378 
Q 2772 3750 2511 3984 
Q 2250 4219 1831 4219 
Q 1534 4219 1204 4116 
Q 875 4013 500 3803 
L 500 4441 
Q 881 4594 1212 4672 
Q 1544 4750 1819 4750 
Q 2544 4750 2975 4387 
Q 3406 4025 3406 3419 
Q 3406 3131 3298 2873 
Q 3191 2616 2906 2266 
Q 2828 2175 2409 1742 
Q 1991 1309 1228 531 
z
" transform="scale(0.015625)"/>
       </defs>
       <use xlink:href="#DejaVuSans-2212"/>
       <use xlink:href="#DejaVuSans-32" x="83.789062"/>
       <use xlink:href="#DejaVuSans-2e" x="147.412109"/>
       <use xlink:href="#DejaVuSans-35" x="179.199219"/>
      </g>
     </g>
    </g>
    <g id="ytick_4">
     <g id="line2d_15">
      <g>
       <use xlink:href="#m55d0211288" x="53.0525" y="225.59759" style="fill: #696969; stroke: #696969; stroke-width: 0.8"/>
      </g>
     </g>
     <g id="text_10">
      <!-- 0.0 -->
      <g style="fill: #696969" transform="translate(20.6075 231.67634) scale(0.16 -0.16)">
       <use xlink:href="#DejaVuSans-30"/>
       <use xlink:href="#DejaVuSans-2e" x="63.623047"/>
       <use xlink:href="#DejaVuSans-30" x="95.410156"/>
      </g>
     </g>
    </g>
    <g id="ytick_5">
     <g id="line2d_16">
      <g>
       <use xlink:href="#m55d0211288" x="53.0525" y="197.096872" style="fill: #696969; stroke: #696969; stroke-width: 0.8"/>
      </g>
     </g>
     <g id="text_11">
      <!-- 2.5 -->
      <g style="fill: #696969" transform="translate(20.6075 203.175622) scale(0.16 -0.16)">
       <use xlink:href="#DejaVuSans-32"/>
       <use xlink:href="#DejaVuSans-2e" x="63.623047"/>
       <use xlink:href="#DejaVuSans-35" x="95.410156"/>
      </g>
     </g>
    </g>
   </g>
   <g id="line2d_17">
    <path d="M 70.462045 230.800501 
L 77.425864 227.528738 
L 84.389682 226.399411 
L 91.3535 227.538956 
L 98.317318 228.588061 
L 105.281136 229.559728 
L 112.244955 231.537086 
L 119.208773 234.199472 
L 126.172591 235.171766 
L 133.136409 234.205965 
L 140.100227 233.255328 
L 147.064045 233.302788 
L 154.027864 233.937849 
L 160.991682 233.919566 
L 167.9555 232.662721 
L 174.919318 231.178411 
L 181.883136 230.028718 
L 188.846955 228.765592 
L 195.810773 227.149642 
L 202.774591 225.462975 
L 209.738409 224.220145 
L 216.702227 223.83104 
L 223.666045 224.379749 
L 230.629864 225.57448 
L 237.593682 226.87274 
L 244.5575 227.723962 
L 251.521318 227.820567 
L 258.485136 227.232884 
L 265.448955 226.341921 
L 272.412773 225.605625 
L 279.376591 225.341508 
L 286.340409 225.662133 
L 293.304227 226.491975 
L 300.268045 227.590673 
L 307.231864 228.632603 
L 314.195682 229.360182 
L 321.1595 229.722609 
L 328.123318 229.89358 
L 335.087136 230.139207 
L 342.050955 230.614606 
L 349.014773 231.226666 
L 355.978591 231.66521 
L 362.942409 231.592297 
L 369.906227 230.866529 
L 376.870045 229.649469 
L 383.833864 228.318797 
L 390.797682 227.243548 
L 397.7615 226.568714 
L 404.725318 226.14862 
L 411.689136 225.669652 
L 418.652955 224.880994 
" clip-path="url(#p381fe6ceb3)" style="fill: none; stroke: #696969; stroke-width: 2; stroke-linecap: square"/>
   </g>
   <g id="line2d_18">
    <path d="M 70.462045 224.890542 
L 77.425864 227.435744 
L 84.389682 229.497885 
L 91.3535 231.124795 
L 98.317318 232.362218 
L 105.281136 233.253811 
L 112.244955 233.84114 
L 119.208773 234.163686 
L 126.172591 234.258841 
L 133.136409 234.161911 
L 140.100227 233.906112 
L 147.064045 233.522575 
L 154.027864 233.040339 
L 160.991682 232.486359 
L 167.9555 231.885502 
L 174.919318 231.260545 
L 181.883136 230.63218 
L 188.846955 230.019009 
L 195.810773 229.437547 
L 202.774591 228.902222 
L 209.738409 228.425374 
L 216.702227 228.017254 
L 223.666045 227.686028 
L 230.629864 227.43777 
L 237.593682 227.276471 
L 244.5575 227.204031 
L 251.521318 227.220264 
L 258.485136 227.322895 
L 265.448955 227.507563 
L 272.412773 227.767816 
L 279.376591 228.095118 
L 286.340409 228.478844 
L 293.304227 228.90628 
L 300.268045 229.362625 
L 307.231864 229.830992 
L 314.195682 230.292403 
L 321.1595 230.725796 
L 328.123318 231.108017 
L 335.087136 231.413828 
L 342.050955 231.615902 
L 349.014773 231.684823 
L 355.978591 231.589089 
L 362.942409 231.29511 
L 369.906227 230.767208 
L 376.870045 229.967616 
L 383.833864 228.856481 
L 390.797682 227.391862 
L 397.7615 225.529731 
L 404.725318 223.223969 
L 411.689136 220.426373 
L 418.652955 217.08665 
" clip-path="url(#p381fe6ceb3)" style="fill: none; stroke-dasharray: 7.4,3.2; stroke-dashoffset: 0; stroke: #79ad41; stroke-width: 2"/>
   </g>
   <g id="patch_9">
    <path d="M 53.0525 276.68 
L 53.0525 181.688 
" style="fill: none; stroke: #000000; stroke-width: 0.8; stroke-linejoin: miter; stroke-linecap: square"/>
   </g>
   <g id="patch_10">
    <path d="M 436.0625 276.68 
L 436.0625 181.688 
" style="fill: none; stroke: #000000; stroke-width: 0.8; stroke-linejoin: miter; stroke-linecap: square"/>
   </g>
   <g id="patch_11">
    <path d="M 53.0525 276.68 
L 436.0625 276.68 
" style="fill: none; stroke: #000000; stroke-width: 0.8; stroke-linejoin: miter; stroke-linecap: square"/>
   </g>
   <g id="patch_12">
    <path d="M 53.0525 181.688 
L 436.0625 181.688 
" style="fill: none; stroke: #000000; stroke-width: 0.8; stroke-linejoin: miter; stroke-linecap: square"/>
   </g>
  </g>
 </g>
 <defs>
  <clipPath id="p46ca009228">
   <rect x="53.0525" y="7.2" width="383.01" height="47.496"/>
  </clipPath>
  <clipPath id="p7a0ba9c9a8">
   <rect x="53.0525" y="70.696" width="383.01" height="94.992"/>
  </clipPath>
  <clipPath id="p381fe6ceb3">
   <rect x="53.0525" y="181.688" width="383.01" height="94.992"/>
  </clipPath>
 </defs>
</svg>
