<?xml version="1.0" encoding="utf-8" standalone="no"?>
<!DOCTYPE svg PUBLIC "-//W3C//DTD SVG 1.1//EN"
  "http://www.w3.org/Graphics/SVG/1.1/DTD/svg11.dtd">
<svg xmlns:xlink="http://www.w3.org/1999/xlink" width="443.2075pt" height="325.85pt" viewBox="0 0 443.2075 325.85" xmlns="http://www.w3.org/2000/svg" version="1.1">
 <metadata>
  <rdf:RDF xmlns:dc="http://purl.org/dc/elements/1.1/" xmlns:cc="http://creativecommons.org/ns#" xmlns:rdf="http://www.w3.org/1999/02/22-rdf-syntax-ns#">
   <cc:Work>
    <dc:type rdf:resource="http://purl.org/dc/dcmitype/StillImage"/>
    <dc:date>2024-01-28T20:54:40.963774</dc:date>
    <dc:format>image/svg+xml</dc:format>
    <dc:creator>
     <cc:Agent>
      <dc:title>Matplotlib v3.7.2, https://matplotlib.org/</dc:title>
     </cc:Agent>
    </dc:creator>
   </cc:Work>
  </rdf:RDF>
 </metadata>
 <defs>
  <style type="text/css">*{stroke-linejoin: round; stroke-linecap: butt}</style>
 </defs>
 <g id="figure_1">
  <g id="patch_1">
   <path d="M 0 325.85 
L 443.2075 325.85 
L 443.2075 0 
L 0 0 
z
" style="fill: #ffffff"/>
  </g>
  <g id="axes_1">
   <g id="patch_2">
    <path d="M 37.7875 51.438348 
L 436.0075 51.438348 
L 436.0075 7.2 
L 37.7875 7.2 
z
" style="fill: #ffffff"/>
   </g>
   <g id="PolyCollection_1">
    <defs>
     <path id="m7d314d06e6" d="M 55.888409 -276.422486 
L 55.888409 -310.326603 
L 63.128773 -310.094111 
L 70.369136 -309.794852 
L 77.6095 -309.430644 
L 84.849864 -309.003399 
L 92.090227 -308.515307 
L 99.330591 -307.969054 
L 106.570955 -307.367993 
L 113.811318 -306.716345 
L 121.051682 -306.019275 
L 128.292045 -305.283005 
L 135.532409 -304.514815 
L 142.772773 -303.722997 
L 150.013136 -302.916735 
L 157.2535 -302.105917 
L 164.493864 -301.300942 
L 171.734227 -300.512432 
L 178.974591 -299.750969 
L 186.214955 -299.026891 
L 193.455318 -298.350041 
L 200.695682 -297.729653 
L 207.936045 -297.174233 
L 215.176409 -296.691566 
L 222.416773 -296.288742 
L 229.657136 -295.972235 
L 236.8975 -295.748023 
L 244.137864 -295.621727 
L 251.378227 -295.598704 
L 258.618591 -295.684143 
L 265.858955 -295.883079 
L 273.099318 -296.200331 
L 280.339682 -296.640326 
L 287.580045 -297.206773 
L 294.820409 -297.902239 
L 302.060773 -298.727512 
L 309.301136 -299.680864 
L 316.5415 -300.757249 
L 323.781864 -301.947531 
L 331.022227 -303.237837 
L 338.262591 -304.609308 
L 345.502955 -306.038329 
L 352.743318 -307.497376 
L 359.983682 -308.956534 
L 367.224045 -310.385475 
L 374.464409 -311.755689 
L 381.704773 -313.04258 
L 388.945136 -314.227068 
L 396.1855 -315.296515 
L 403.425864 -316.24482 
L 410.666227 -316.639166 
L 417.906591 -316.639166 
L 417.906591 -276.422486 
L 417.906591 -276.422486 
L 410.666227 -276.422486 
L 403.425864 -276.422486 
L 396.1855 -276.422486 
L 388.945136 -276.422486 
L 381.704773 -276.422486 
L 374.464409 -276.422486 
L 367.224045 -276.422486 
L 359.983682 -276.422486 
L 352.743318 -276.422486 
L 345.502955 -276.422486 
L 338.262591 -276.422486 
L 331.022227 -276.422486 
L 323.781864 -276.422486 
L 316.5415 -276.422486 
L 309.301136 -276.422486 
L 302.060773 -276.422486 
L 294.820409 -276.422486 
L 287.580045 -276.422486 
L 280.339682 -276.422486 
L 273.099318 -276.422486 
L 265.858955 -276.422486 
L 258.618591 -276.422486 
L 251.378227 -276.422486 
L 244.137864 -276.422486 
L 236.8975 -276.422486 
L 229.657136 -276.422486 
L 222.416773 -276.422486 
L 215.176409 -276.422486 
L 207.936045 -276.422486 
L 200.695682 -276.422486 
L 193.455318 -276.422486 
L 186.214955 -276.422486 
L 178.974591 -276.422486 
L 171.734227 -276.422486 
L 164.493864 -276.422486 
L 157.2535 -276.422486 
L 150.013136 -276.422486 
L 142.772773 -276.422486 
L 135.532409 -276.422486 
L 128.292045 -276.422486 
L 121.051682 -276.422486 
L 113.811318 -276.422486 
L 106.570955 -276.422486 
L 99.330591 -276.422486 
L 92.090227 -276.422486 
L 84.849864 -276.422486 
L 77.6095 -276.422486 
L 70.369136 -276.422486 
L 63.128773 -276.422486 
L 55.888409 -276.422486 
z
" style="stroke: #dc143c; stroke-opacity: 0.2"/>
    </defs>
    <g clip-path="url(#pd3679cc5f8)">
     <use xlink:href="#m7d314d06e6" x="0" y="325.85" style="fill: #dc143c; fill-opacity: 0.2; stroke: #dc143c; stroke-opacity: 0.2"/>
    </g>
   </g>
   <g id="PolyCollection_2">
    <defs>
     <path id="md0ad5ada14" d="M 55.888409 -276.422486 
L 55.888409 -287.20357 
L 63.128773 -287.436062 
L 70.369136 -287.73532 
L 77.6095 -288.099528 
L 84.849864 -288.526773 
L 92.090227 -289.014866 
L 99.330591 -289.561118 
L 106.570955 -290.162179 
L 113.811318 -290.813827 
L 121.051682 -291.510897 
L 128.292045 -292.247167 
L 135.532409 -293.015357 
L 142.772773 -293.807175 
L 150.013136 -294.613437 
L 157.2535 -295.424256 
L 164.493864 -296.22923 
L 171.734227 -297.01774 
L 178.974591 -297.779203 
L 186.214955 -298.503281 
L 193.455318 -299.180132 
L 200.695682 -299.800519 
L 207.936045 -300.35594 
L 215.176409 -300.838606 
L 222.416773 -301.24143 
L 229.657136 -301.557938 
L 236.8975 -301.782149 
L 244.137864 -301.908445 
L 251.378227 -301.931468 
L 258.618591 -301.84603 
L 265.858955 -301.647093 
L 273.099318 -301.329841 
L 280.339682 -300.889846 
L 287.580045 -300.323399 
L 294.820409 -299.627933 
L 302.060773 -298.80266 
L 309.301136 -297.849309 
L 316.5415 -296.772923 
L 323.781864 -295.582641 
L 331.022227 -294.292335 
L 338.262591 -292.920864 
L 345.502955 -291.491843 
L 352.743318 -290.032796 
L 359.983682 -288.573638 
L 367.224045 -287.144697 
L 374.464409 -285.774483 
L 381.704773 -284.487592 
L 388.945136 -283.303104 
L 396.1855 -282.233657 
L 403.425864 -281.285352 
L 410.666227 -280.891006 
L 417.906591 -280.891006 
L 417.906591 -276.422486 
L 417.906591 -276.422486 
L 410.666227 -276.422486 
L 403.425864 -276.422486 
L 396.1855 -276.422486 
L 388.945136 -276.422486 
L 381.704773 -276.422486 
L 374.464409 -276.422486 
L 367.224045 -276.422486 
L 359.983682 -276.422486 
L 352.743318 -276.422486 
L 345.502955 -276.422486 
L 338.262591 -276.422486 
L 331.022227 -276.422486 
L 323.781864 -276.422486 
L 316.5415 -276.422486 
L 309.301136 -276.422486 
L 302.060773 -276.422486 
L 294.820409 -276.422486 
L 287.580045 -276.422486 
L 280.339682 -276.422486 
L 273.099318 -276.422486 
L 265.858955 -276.422486 
L 258.618591 -276.422486 
L 251.378227 -276.422486 
L 244.137864 -276.422486 
L 236.8975 -276.422486 
L 229.657136 -276.422486 
L 222.416773 -276.422486 
L 215.176409 -276.422486 
L 207.936045 -276.422486 
L 200.695682 -276.422486 
L 193.455318 -276.422486 
L 186.214955 -276.422486 
L 178.974591 -276.422486 
L 171.734227 -276.422486 
L 164.493864 -276.422486 
L 157.2535 -276.422486 
L 150.013136 -276.422486 
L 142.772773 -276.422486 
L 135.532409 -276.422486 
L 128.292045 -276.422486 
L 121.051682 -276.422486 
L 113.811318 -276.422486 
L 106.570955 -276.422486 
L 99.330591 -276.422486 
L 92.090227 -276.422486 
L 84.849864 -276.422486 
L 77.6095 -276.422486 
L 70.369136 -276.422486 
L 63.128773 -276.422486 
L 55.888409 -276.422486 
z
" style="stroke: #000080; stroke-opacity: 0.2"/>
    </defs>
    <g clip-path="url(#pd3679cc5f8)">
     <use xlink:href="#md0ad5ada14" x="0" y="325.85" style="fill: #000080; fill-opacity: 0.2; stroke: #000080; stroke-opacity: 0.2"/>
    </g>
   </g>
   <g id="matplotlib.axis_1"/>
   <g id="matplotlib.axis_2"/>
   <g id="line2d_1">
    <path d="M 55.888409 15.523397 
L 63.128773 15.755889 
L 70.369136 16.055148 
L 77.6095 16.419356 
L 84.849864 16.846601 
L 92.090227 17.334693 
L 99.330591 17.880946 
L 106.570955 18.482007 
L 113.811318 19.133655 
L 121.051682 19.830725 
L 128.292045 20.566995 
L 135.532409 21.335185 
L 142.772773 22.127003 
L 150.013136 22.933265 
L 157.2535 23.744083 
L 164.493864 24.549058 
L 171.734227 25.337568 
L 178.974591 26.099031 
L 186.214955 26.823109 
L 193.455318 27.499959 
L 200.695682 28.120347 
L 207.936045 28.675767 
L 215.176409 29.158434 
L 222.416773 29.561258 
L 229.657136 29.877765 
L 236.8975 30.101977 
L 244.137864 30.228273 
L 251.378227 30.251296 
L 258.618591 30.165857 
L 265.858955 29.966921 
L 273.099318 29.649669 
L 280.339682 29.209674 
L 287.580045 28.643227 
L 294.820409 27.947761 
L 302.060773 27.122488 
L 309.301136 26.169136 
L 316.5415 25.092751 
L 323.781864 23.902469 
L 331.022227 22.612163 
L 338.262591 21.240692 
L 345.502955 19.811671 
L 352.743318 18.352624 
L 359.983682 16.893466 
L 367.224045 15.464525 
L 374.464409 14.094311 
L 381.704773 12.80742 
L 388.945136 11.622932 
L 396.1855 10.553485 
L 403.425864 9.60518 
L 410.666227 9.210834 
L 417.906591 9.210834 
" clip-path="url(#pd3679cc5f8)" style="fill: none; stroke: #dc143c; stroke-width: 1.5; stroke-linecap: square"/>
   </g>
   <g id="line2d_2">
    <path d="M 55.888409 38.64643 
L 63.128773 38.413938 
L 70.369136 38.11468 
L 77.6095 37.750472 
L 84.849864 37.323227 
L 92.090227 36.835134 
L 99.330591 36.288882 
L 106.570955 35.687821 
L 113.811318 35.036173 
L 121.051682 34.339103 
L 128.292045 33.602833 
L 135.532409 32.834643 
L 142.772773 32.042825 
L 150.013136 31.236563 
L 157.2535 30.425744 
L 164.493864 29.62077 
L 171.734227 28.83226 
L 178.974591 28.070797 
L 186.214955 27.346719 
L 193.455318 26.669868 
L 200.695682 26.049481 
L 207.936045 25.49406 
L 215.176409 25.011394 
L 222.416773 24.60857 
L 229.657136 24.292062 
L 236.8975 24.067851 
L 244.137864 23.941555 
L 251.378227 23.918532 
L 258.618591 24.00397 
L 265.858955 24.202907 
L 273.099318 24.520159 
L 280.339682 24.960154 
L 287.580045 25.526601 
L 294.820409 26.222067 
L 302.060773 27.04734 
L 309.301136 28.000691 
L 316.5415 29.077077 
L 323.781864 30.267359 
L 331.022227 31.557665 
L 338.262591 32.929136 
L 345.502955 34.358157 
L 352.743318 35.817204 
L 359.983682 37.276362 
L 367.224045 38.705303 
L 374.464409 40.075517 
L 381.704773 41.362408 
L 388.945136 42.546896 
L 396.1855 43.616343 
L 403.425864 44.564648 
L 410.666227 44.958994 
L 417.906591 44.958994 
" clip-path="url(#pd3679cc5f8)" style="fill: none; stroke: #000080; stroke-width: 1.5; stroke-linecap: square"/>
   </g>
  </g>
  <g id="axes_2">
   <g id="patch_3">
    <path d="M 37.7875 164.059174 
L 436.0075 164.059174 
L 436.0075 75.582478 
L 37.7875 75.582478 
z
" style="fill: #ffffff"/>
   </g>
   <g id="PathCollection_1">
    <defs>
     <path id="mb373535e55" d="M 0 0.866025 
C 0.229673 0.866025 0.449969 0.774776 0.612372 0.612372 
C 0.774776 0.449969 0.866025 0.229673 0.866025 0 
C 0.866025 -0.229673 0.774776 -0.449969 0.612372 -0.612372 
C 0.449969 -0.774776 0.229673 -0.866025 0 -0.866025 
C -0.229673 -0.866025 -0.449969 -0.774776 -0.612372 -0.612372 
C -0.774776 -0.449969 -0.866025 -0.229673 -0.866025 0 
C -0.866025 0.229673 -0.774776 0.449969 -0.612372 0.612372 
C -0.449969 0.774776 -0.229673 0.866025 0 0.866025 
z
" style="stroke: #daa520"/>
    </defs>
    <g clip-path="url(#p9d239f7349)">
     <use xlink:href="#mb373535e55" x="292.172881" y="138.108275" style="fill: #daa520; stroke: #daa520"/>
     <use xlink:href="#mb373535e55" x="322.525674" y="82.435363" style="fill: #daa520; stroke: #daa520"/>
     <use xlink:href="#mb373535e55" x="116.292018" y="124.084232" style="fill: #daa520; stroke: #daa520"/>
     <use xlink:href="#mb373535e55" x="103.937817" y="117.089722" style="fill: #daa520; stroke: #daa520"/>
     <use xlink:href="#mb373535e55" x="399.828928" y="90.237647" style="fill: #daa520; stroke: #daa520"/>
     <use xlink:href="#mb373535e55" x="394.533834" y="88.261394" style="fill: #daa520; stroke: #daa520"/>
     <use xlink:href="#mb373535e55" x="173.776234" y="118.114154" style="fill: #daa520; stroke: #daa520"/>
     <use xlink:href="#mb373535e55" x="66.890142" y="124.976863" style="fill: #daa520; stroke: #daa520"/>
     <use xlink:href="#mb373535e55" x="223.981466" y="108.100873" style="fill: #daa520; stroke: #daa520"/>
     <use xlink:href="#mb373535e55" x="285.075439" y="157.360989" style="fill: #daa520; stroke: #daa520"/>
     <use xlink:href="#mb373535e55" x="361.541646" y="86.814073" style="fill: #daa520; stroke: #daa520"/>
     <use xlink:href="#mb373535e55" x="214.117391" y="101.11826" style="fill: #daa520; stroke: #daa520"/>
     <use xlink:href="#mb373535e55" x="134.872381" y="125.093089" style="fill: #daa520; stroke: #daa520"/>
     <use xlink:href="#mb373535e55" x="416.529884" y="95.329062" style="fill: #daa520; stroke: #daa520"/>
     <use xlink:href="#mb373535e55" x="123.656555" y="127.704417" style="fill: #daa520; stroke: #daa520"/>
     <use xlink:href="#mb373535e55" x="175.494861" y="143.754998" style="fill: #daa520; stroke: #daa520"/>
     <use xlink:href="#mb373535e55" x="261.845162" y="151.926329" style="fill: #daa520; stroke: #daa520"/>
     <use xlink:href="#mb373535e55" x="89.801808" y="118.378513" style="fill: #daa520; stroke: #daa520"/>
     <use xlink:href="#mb373535e55" x="384.258649" y="111.529472" style="fill: #daa520; stroke: #daa520"/>
     <use xlink:href="#mb373535e55" x="340.726806" y="82.20482" style="fill: #daa520; stroke: #daa520"/>
     <use xlink:href="#mb373535e55" x="116.355609" y="129.722748" style="fill: #daa520; stroke: #daa520"/>
     <use xlink:href="#mb373535e55" x="235.219614" y="138.244342" style="fill: #daa520; stroke: #daa520"/>
     <use xlink:href="#mb373535e55" x="346.679169" y="99.448555" style="fill: #daa520; stroke: #daa520"/>
     <use xlink:href="#mb373535e55" x="283.981305" y="160.037506" style="fill: #daa520; stroke: #daa520"/>
     <use xlink:href="#mb373535e55" x="210.35339" y="143.656264" style="fill: #daa520; stroke: #daa520"/>
     <use xlink:href="#mb373535e55" x="384.179197" y="89.254987" style="fill: #daa520; stroke: #daa520"/>
     <use xlink:href="#mb373535e55" x="213.459513" y="108.873272" style="fill: #daa520; stroke: #daa520"/>
     <use xlink:href="#mb373535e55" x="139.45406" y="118.014705" style="fill: #daa520; stroke: #daa520"/>
     <use xlink:href="#mb373535e55" x="80.57689" y="124.175402" style="fill: #daa520; stroke: #daa520"/>
     <use xlink:href="#mb373535e55" x="266.11747" y="103.382997" style="fill: #daa520; stroke: #daa520"/>
     <use xlink:href="#mb373535e55" x="394.113381" y="110.062546" style="fill: #daa520; stroke: #daa520"/>
     <use xlink:href="#mb373535e55" x="158.458544" y="113.505381" style="fill: #daa520; stroke: #daa520"/>
     <use xlink:href="#mb373535e55" x="168.06451" y="142.090771" style="fill: #daa520; stroke: #daa520"/>
     <use xlink:href="#mb373535e55" x="320.769993" y="107.186034" style="fill: #daa520; stroke: #daa520"/>
     <use xlink:href="#mb373535e55" x="354.967555" y="106.272141" style="fill: #daa520; stroke: #daa520"/>
     <use xlink:href="#mb373535e55" x="275.446213" y="93.670288" style="fill: #daa520; stroke: #daa520"/>
     <use xlink:href="#mb373535e55" x="348.67792" y="83.142528" style="fill: #daa520; stroke: #daa520"/>
     <use xlink:href="#mb373535e55" x="407.479771" y="88.997294" style="fill: #daa520; stroke: #daa520"/>
     <use xlink:href="#mb373535e55" x="370.198223" y="111.43745" style="fill: #daa520; stroke: #daa520"/>
     <use xlink:href="#mb373535e55" x="217.015664" y="155.320144" style="fill: #daa520; stroke: #daa520"/>
     <use xlink:href="#mb373535e55" x="210.68534" y="125.5606" style="fill: #daa520; stroke: #daa520"/>
     <use xlink:href="#mb373535e55" x="337.448807" y="101.614315" style="fill: #daa520; stroke: #daa520"/>
     <use xlink:href="#mb373535e55" x="401.471971" y="97.646599" style="fill: #daa520; stroke: #daa520"/>
     <use xlink:href="#mb373535e55" x="194.904799" y="113.508811" style="fill: #daa520; stroke: #daa520"/>
     <use xlink:href="#mb373535e55" x="212.230188" y="102.143955" style="fill: #daa520; stroke: #daa520"/>
     <use xlink:href="#mb373535e55" x="84.27079" y="121.834395" style="fill: #daa520; stroke: #daa520"/>
     <use xlink:href="#mb373535e55" x="367.239773" y="89.813513" style="fill: #daa520; stroke: #daa520"/>
     <use xlink:href="#mb373535e55" x="119.352457" y="136.883169" style="fill: #daa520; stroke: #daa520"/>
     <use xlink:href="#mb373535e55" x="192.991625" y="108.571574" style="fill: #daa520; stroke: #daa520"/>
     <use xlink:href="#mb373535e55" x="131.856335" y="125.877049" style="fill: #daa520; stroke: #daa520"/>
     <use xlink:href="#mb373535e55" x="334.666534" y="79.916941" style="fill: #daa520; stroke: #daa520"/>
     <use xlink:href="#mb373535e55" x="132.663224" y="115.266551" style="fill: #daa520; stroke: #daa520"/>
     <use xlink:href="#mb373535e55" x="228.323649" y="97.044968" style="fill: #daa520; stroke: #daa520"/>
     <use xlink:href="#mb373535e55" x="315.957067" y="142.571518" style="fill: #daa520; stroke: #daa520"/>
     <use xlink:href="#mb373535e55" x="222.110083" y="141.074362" style="fill: #daa520; stroke: #daa520"/>
     <use xlink:href="#mb373535e55" x="260.071238" y="85.202734" style="fill: #daa520; stroke: #daa520"/>
     <use xlink:href="#mb373535e55" x="164.689586" y="127.783824" style="fill: #daa520; stroke: #daa520"/>
     <use xlink:href="#mb373535e55" x="57.410025" y="126.860434" style="fill: #daa520; stroke: #daa520"/>
     <use xlink:href="#mb373535e55" x="406.954019" y="95.341554" style="fill: #daa520; stroke: #daa520"/>
     <use xlink:href="#mb373535e55" x="103.218688" y="140.64858" style="fill: #daa520; stroke: #daa520"/>
     <use xlink:href="#mb373535e55" x="399.235876" y="96.434202" style="fill: #daa520; stroke: #daa520"/>
     <use xlink:href="#mb373535e55" x="130.405279" y="117.038076" style="fill: #daa520; stroke: #daa520"/>
     <use xlink:href="#mb373535e55" x="356.938094" y="88.833473" style="fill: #daa520; stroke: #daa520"/>
     <use xlink:href="#mb373535e55" x="62.62663" y="123.262866" style="fill: #daa520; stroke: #daa520"/>
     <use xlink:href="#mb373535e55" x="174.52272" y="121.910823" style="fill: #daa520; stroke: #daa520"/>
     <use xlink:href="#mb373535e55" x="411.001785" y="89.189523" style="fill: #daa520; stroke: #daa520"/>
     <use xlink:href="#mb373535e55" x="254.334543" y="102.580656" style="fill: #daa520; stroke: #daa520"/>
     <use xlink:href="#mb373535e55" x="183.658577" y="110.617243" style="fill: #daa520; stroke: #daa520"/>
     <use xlink:href="#mb373535e55" x="358.743395" y="137.920392" style="fill: #daa520; stroke: #daa520"/>
     <use xlink:href="#mb373535e55" x="395.277149" y="88.421312" style="fill: #daa520; stroke: #daa520"/>
     <use xlink:href="#mb373535e55" x="159.886662" y="145.100455" style="fill: #daa520; stroke: #daa520"/>
     <use xlink:href="#mb373535e55" x="299.921445" y="126.631933" style="fill: #daa520; stroke: #daa520"/>
     <use xlink:href="#mb373535e55" x="111.378091" y="124.39493" style="fill: #daa520; stroke: #daa520"/>
     <use xlink:href="#mb373535e55" x="263.512276" y="159.715305" style="fill: #daa520; stroke: #daa520"/>
     <use xlink:href="#mb373535e55" x="97.549709" y="155.014773" style="fill: #daa520; stroke: #daa520"/>
     <use xlink:href="#mb373535e55" x="389.991957" y="101.320435" style="fill: #daa520; stroke: #daa520"/>
     <use xlink:href="#mb373535e55" x="408.888065" y="96.546258" style="fill: #daa520; stroke: #daa520"/>
     <use xlink:href="#mb373535e55" x="360.803214" y="101.438499" style="fill: #daa520; stroke: #daa520"/>
     <use xlink:href="#mb373535e55" x="320.477159" y="122.149702" style="fill: #daa520; stroke: #daa520"/>
     <use xlink:href="#mb373535e55" x="92.714538" y="117.581434" style="fill: #daa520; stroke: #daa520"/>
     <use xlink:href="#mb373535e55" x="282.738607" y="148.979326" style="fill: #daa520; stroke: #daa520"/>
     <use xlink:href="#mb373535e55" x="257.40664" y="91.447749" style="fill: #daa520; stroke: #daa520"/>
     <use xlink:href="#mb373535e55" x="345.256801" y="116.322991" style="fill: #daa520; stroke: #daa520"/>
     <use xlink:href="#mb373535e55" x="208.412096" y="112.443804" style="fill: #daa520; stroke: #daa520"/>
     <use xlink:href="#mb373535e55" x="315.006319" y="79.604146" style="fill: #daa520; stroke: #daa520"/>
     <use xlink:href="#mb373535e55" x="70.360967" y="121.156423" style="fill: #daa520; stroke: #daa520"/>
     <use xlink:href="#mb373535e55" x="350.17118" y="88.831147" style="fill: #daa520; stroke: #daa520"/>
     <use xlink:href="#mb373535e55" x="128.30379" y="152.520085" style="fill: #daa520; stroke: #daa520"/>
     <use xlink:href="#mb373535e55" x="385.648095" y="128.010483" style="fill: #daa520; stroke: #daa520"/>
     <use xlink:href="#mb373535e55" x="282.42873" y="80.030511" style="fill: #daa520; stroke: #daa520"/>
    </g>
   </g>
   <g id="matplotlib.axis_3"/>
   <g id="matplotlib.axis_4">
    <g id="ytick_1">
     <g id="line2d_3">
      <defs>
       <path id="m810e28b516" d="M 0 0 
L -3.5 0 
" style="stroke: #696969; stroke-width: 0.8"/>
      </defs>
      <g>
       <use xlink:href="#m810e28b516" x="37.7875" y="162.235538" style="fill: #696969; stroke: #696969; stroke-width: 0.8"/>
      </g>
     </g>
     <g id="text_1">
      <!-- −5 -->
      <g style="fill: #696969" transform="translate(7.2 168.314288) scale(0.16 -0.16)">
       <defs>
        <path id="DejaVuSans-2212" d="M 678 2272 
L 4684 2272 
L 4684 1741 
L 678 1741 
L 678 2272 
z
" transform="scale(0.015625)"/>
        <path id="DejaVuSans-35" d="M 691 4666 
L 3169 4666 
L 3169 4134 
L 1269 4134 
L 1269 2991 
Q 1406 3038 1543 3061 
Q 1681 3084 1819 3084 
Q 2600 3084 3056 2656 
Q 3513 2228 3513 1497 
Q 3513 744 3044 326 
Q 2575 -91 1722 -91 
Q 1428 -91 1123 -41 
Q 819 9 494 109 
L 494 744 
Q 775 591 1075 516 
Q 1375 441 1709 441 
Q 2250 441 2565 725 
Q 2881 1009 2881 1497 
Q 2881 1984 2565 2268 
Q 2250 2553 1709 2553 
Q 1456 2553 1204 2497 
Q 953 2441 691 2322 
L 691 4666 
z
" transform="scale(0.015625)"/>
       </defs>
       <use xlink:href="#DejaVuSans-2212"/>
       <use xlink:href="#DejaVuSans-35" x="83.789062"/>
      </g>
     </g>
    </g>
    <g id="ytick_2">
     <g id="line2d_4">
      <g>
       <use xlink:href="#m810e28b516" x="37.7875" y="129.825608" style="fill: #696969; stroke: #696969; stroke-width: 0.8"/>
      </g>
     </g>
     <g id="text_2">
      <!-- 0 -->
      <g style="fill: #696969" transform="translate(20.6075 135.904358) scale(0.16 -0.16)">
       <defs>
        <path id="DejaVuSans-30" d="M 2034 4250 
Q 1547 4250 1301 3770 
Q 1056 3291 1056 2328 
Q 1056 1369 1301 889 
Q 1547 409 2034 409 
Q 2525 409 2770 889 
Q 3016 1369 3016 2328 
Q 3016 3291 2770 3770 
Q 2525 4250 2034 4250 
z
M 2034 4750 
Q 2819 4750 3233 4129 
Q 3647 3509 3647 2328 
Q 3647 1150 3233 529 
Q 2819 -91 2034 -91 
Q 1250 -91 836 529 
Q 422 1150 422 2328 
Q 422 3509 836 4129 
Q 1250 4750 2034 4750 
z
" transform="scale(0.015625)"/>
       </defs>
       <use xlink:href="#DejaVuSans-30"/>
      </g>
     </g>
    </g>
    <g id="ytick_3">
     <g id="line2d_5">
      <g>
       <use xlink:href="#m810e28b516" x="37.7875" y="97.415679" style="fill: #696969; stroke: #696969; stroke-width: 0.8"/>
      </g>
     </g>
     <g id="text_3">
      <!-- 5 -->
      <g style="fill: #696969" transform="translate(20.6075 103.494429) scale(0.16 -0.16)">
       <use xlink:href="#DejaVuSans-35"/>
      </g>
     </g>
    </g>
   </g>
   <g id="line2d_6">
    <path d="M 55.888409 134.307924 
L 63.128773 133.484015 
L 70.369136 132.820301 
L 77.6095 132.306858 
L 84.849864 131.925787 
L 92.090227 131.652669 
L 99.330591 131.458388 
L 106.570955 131.311133 
L 113.811318 131.178428 
L 121.051682 131.029001 
L 128.292045 130.834382 
L 135.532409 130.570134 
L 142.772773 130.216647 
L 150.013136 129.75956 
L 157.2535 129.189785 
L 164.493864 128.50325 
L 171.734227 127.700444 
L 178.974591 126.78584 
L 186.214955 125.767281 
L 193.455318 124.655414 
L 200.695682 123.463186 
L 207.936045 122.205407 
L 215.176409 120.898401 
L 222.416773 119.559667 
L 229.657136 118.207559 
L 236.8975 116.860882 
L 244.137864 115.53845 
L 251.378227 114.258503 
L 258.618591 113.038057 
L 265.858955 111.892182 
L 273.099318 110.833247 
L 280.339682 109.870229 
L 287.580045 109.008111 
L 294.820409 108.247466 
L 302.060773 107.584301 
L 309.301136 107.010142 
L 316.5415 106.512454 
L 323.781864 106.075327 
L 331.022227 105.680423 
L 338.262591 105.308097 
L 345.502955 104.938631 
L 352.743318 104.553474 
L 359.983682 104.13638 
L 367.224045 103.674379 
L 374.464409 103.158466 
L 381.704773 102.583981 
L 388.945136 101.950629 
L 396.1855 101.262171 
L 403.425864 100.525762 
L 410.666227 99.751065 
L 417.906591 98.949156 
" clip-path="url(#p9d239f7349)" style="fill: none; stroke: #000000; stroke-width: 2; stroke-linecap: square"/>
   </g>
   <g id="line2d_7">
    <path d="M 55.888409 123.421007 
L 63.128773 124.722873 
L 70.369136 125.703708 
L 77.6095 126.416398 
L 84.849864 126.906279 
L 92.090227 127.211983 
L 99.330591 127.366218 
L 106.570955 127.396476 
L 113.811318 127.325682 
L 121.051682 127.172782 
L 128.292045 126.953275 
L 135.532409 126.679689 
L 142.772773 126.362008 
L 150.013136 126.008048 
L 157.2535 125.623797 
L 164.493864 125.213698 
L 171.734227 124.780913 
L 178.974591 124.327533 
L 186.214955 123.854767 
L 193.455318 123.363099 
L 200.695682 122.852416 
L 207.936045 122.322115 
L 215.176409 121.771193 
L 222.416773 121.198311 
L 229.657136 120.601853 
L 236.8975 119.979969 
L 244.137864 119.330612 
L 251.378227 118.651569 
L 258.618591 117.940492 
L 265.858955 117.194924 
L 273.099318 116.412342 
L 280.339682 115.590194 
L 287.580045 114.725954 
L 294.820409 113.817187 
L 302.060773 112.861634 
L 309.301136 111.857314 
L 316.5415 110.802648 
L 323.781864 109.696614 
L 331.022227 108.53892 
L 338.262591 107.330225 
L 345.502955 106.072376 
L 352.743318 104.768701 
L 359.983682 103.424328 
L 367.224045 102.046563 
L 374.464409 100.645296 
L 381.704773 99.233479 
L 388.945136 97.827641 
L 396.1855 96.448465 
L 403.425864 95.121427 
L 410.666227 93.877492 
L 417.906591 92.753882 
" clip-path="url(#p9d239f7349)" style="fill: none; stroke-dasharray: 7.4,3.2; stroke-dashoffset: 0; stroke: #34b6c6; stroke-width: 2"/>
   </g>
   <g id="line2d_8">
    <path d="M 55.888409 123.367126 
L 63.128773 124.616069 
L 70.369136 125.576608 
L 77.6095 126.295236 
L 84.849864 126.811604 
L 92.090227 127.15925 
L 99.330591 127.366269 
L 106.570955 127.455919 
L 113.811318 127.447175 
L 121.051682 127.355245 
L 128.292045 127.192056 
L 135.532409 126.966746 
L 142.772773 126.686174 
L 150.013136 126.355476 
L 157.2535 125.978665 
L 164.493864 125.559237 
L 171.734227 125.100677 
L 178.974591 124.606753 
L 186.214955 124.081469 
L 193.455318 123.528718 
L 200.695682 122.951796 
L 207.936045 122.353062 
L 215.176409 121.733929 
L 222.416773 121.095159 
L 229.657136 120.437201 
L 236.8975 119.760231 
L 244.137864 119.063875 
L 251.378227 118.347009 
L 258.618591 117.608037 
L 265.858955 116.845376 
L 273.099318 116.057498 
L 280.339682 115.242403 
L 287.580045 114.397097 
L 294.820409 113.517608 
L 302.060773 112.599498 
L 309.301136 111.638492 
L 316.5415 110.630926 
L 323.781864 109.573981 
L 331.022227 108.465762 
L 338.262591 107.305335 
L 345.502955 106.092815 
L 352.743318 104.829558 
L 359.983682 103.518499 
L 367.224045 102.164597 
L 374.464409 100.775339 
L 381.704773 99.361249 
L 388.945136 97.936381 
L 396.1855 96.518816 
L 403.425864 95.13119 
L 410.666227 93.801274 
L 417.906591 92.562639 
" clip-path="url(#p9d239f7349)" style="fill: none; stroke-dasharray: 7.4,3.2; stroke-dashoffset: 0; stroke: #9370db; stroke-width: 2"/>
   </g>
   <g id="line2d_9">
    <path d="M 55.888409 142.868318 
L 63.128773 142.648782 
L 70.369136 142.405969 
L 77.6095 142.1324 
L 84.849864 141.818595 
L 92.090227 141.452597 
L 99.330591 141.019454 
L 106.570955 140.500677 
L 113.811318 139.873792 
L 121.051682 139.112126 
L 128.292045 138.185098 
L 135.532409 137.059359 
L 142.772773 135.701202 
L 150.013136 134.080545 
L 157.2535 132.176451 
L 164.493864 129.983388 
L 171.734227 127.516448 
L 178.974591 124.813073 
L 186.214955 121.929367 
L 193.455318 118.931222 
L 200.695682 115.88351 
L 207.936045 112.842198 
L 215.176409 109.852851 
L 222.416773 106.954933 
L 229.657136 104.18702 
L 236.8975 101.586954 
L 244.137864 99.186178 
L 251.378227 97.005695 
L 258.618591 95.060614 
L 265.858955 93.36845 
L 273.099318 91.949385 
L 280.339682 90.815988 
L 287.580045 89.962821 
L 294.820409 89.365669 
L 302.060773 88.989474 
L 309.301136 88.797945 
L 316.5415 88.759692 
L 323.781864 88.849852 
L 331.022227 89.048563 
L 338.262591 89.338084 
L 345.502955 89.700193 
L 352.743318 90.114985 
L 359.983682 90.561473 
L 367.224045 91.019509 
L 374.464409 91.471931 
L 381.704773 91.905981 
L 388.945136 92.313562 
L 396.1855 92.690586 
L 403.425864 93.035897 
L 410.666227 93.350195 
L 417.906591 93.635195 
" clip-path="url(#p9d239f7349)" style="fill: none; stroke-dasharray: 12.8,3.2,2,3.2; stroke-dashoffset: 0; stroke: #ff0000; stroke-width: 2"/>
   </g>
   <g id="patch_4">
    <path d="M 37.7875 164.059174 
L 37.7875 75.582478 
" style="fill: none; stroke: #000000; stroke-width: 0.8; stroke-linejoin: miter; stroke-linecap: square"/>
   </g>
   <g id="patch_5">
    <path d="M 436.0075 164.059174 
L 436.0075 75.582478 
" style="fill: none; stroke: #000000; stroke-width: 0.8; stroke-linejoin: miter; stroke-linecap: square"/>
   </g>
   <g id="patch_6">
    <path d="M 37.7875 164.059174 
L 436.0075 164.059174 
" style="fill: none; stroke: #000000; stroke-width: 0.8; stroke-linejoin: miter; stroke-linecap: square"/>
   </g>
   <g id="patch_7">
    <path d="M 37.7875 75.582478 
L 436.0075 75.582478 
" style="fill: none; stroke: #000000; stroke-width: 0.8; stroke-linejoin: miter; stroke-linecap: square"/>
   </g>
  </g>
  <g id="axes_3">
   <g id="patch_8">
    <path d="M 37.7875 276.68 
L 436.0075 276.68 
L 436.0075 188.203304 
L 37.7875 188.203304 
z
" style="fill: #ffffff"/>
   </g>
   <g id="PathCollection_2">
    <g clip-path="url(#p0a0446a2ff)">
     <use xlink:href="#mb373535e55" x="292.172881" y="210.400226" style="fill: #daa520; stroke: #daa520"/>
     <use xlink:href="#mb373535e55" x="322.525674" y="257.653691" style="fill: #daa520; stroke: #daa520"/>
     <use xlink:href="#mb373535e55" x="116.292018" y="265.527227" style="fill: #daa520; stroke: #daa520"/>
     <use xlink:href="#mb373535e55" x="103.937817" y="272.464097" style="fill: #daa520; stroke: #daa520"/>
     <use xlink:href="#mb373535e55" x="399.828928" y="254.419975" style="fill: #daa520; stroke: #daa520"/>
     <use xlink:href="#mb373535e55" x="394.533834" y="255.895241" style="fill: #daa520; stroke: #daa520"/>
     <use xlink:href="#mb373535e55" x="173.776234" y="259.606967" style="fill: #daa520; stroke: #daa520"/>
     <use xlink:href="#mb373535e55" x="66.890142" y="267.250665" style="fill: #daa520; stroke: #daa520"/>
     <use xlink:href="#mb373535e55" x="223.981466" y="250.64682" style="fill: #daa520; stroke: #daa520"/>
     <use xlink:href="#mb373535e55" x="285.075439" y="194.418932" style="fill: #daa520; stroke: #daa520"/>
     <use xlink:href="#mb373535e55" x="361.541646" y="255.464919" style="fill: #daa520; stroke: #daa520"/>
     <use xlink:href="#mb373535e55" x="214.117391" y="260.04162" style="fill: #daa520; stroke: #daa520"/>
     <use xlink:href="#mb373535e55" x="134.872381" y="262.545228" style="fill: #daa520; stroke: #daa520"/>
     <use xlink:href="#mb373535e55" x="416.529884" y="250.655898" style="fill: #daa520; stroke: #daa520"/>
     <use xlink:href="#mb373535e55" x="123.656555" y="261.699718" style="fill: #daa520; stroke: #daa520"/>
     <use xlink:href="#mb373535e55" x="175.494861" y="237.006431" style="fill: #daa520; stroke: #daa520"/>
     <use xlink:href="#mb373535e55" x="261.845162" y="202.573362" style="fill: #daa520; stroke: #daa520"/>
     <use xlink:href="#mb373535e55" x="89.801808" y="272.107508" style="fill: #daa520; stroke: #daa520"/>
     <use xlink:href="#mb373535e55" x="384.258649" y="235.406681" style="fill: #daa520; stroke: #daa520"/>
     <use xlink:href="#mb373535e55" x="340.726806" y="258.392278" style="fill: #daa520; stroke: #daa520"/>
     <use xlink:href="#mb373535e55" x="116.355609" y="260.67222" style="fill: #daa520; stroke: #daa520"/>
     <use xlink:href="#mb373535e55" x="235.219614" y="221.133915" style="fill: #daa520; stroke: #daa520"/>
     <use xlink:href="#mb373535e55" x="346.679169" y="243.828685" style="fill: #daa520; stroke: #daa520"/>
     <use xlink:href="#mb373535e55" x="283.981305" y="192.224972" style="fill: #daa520; stroke: #daa520"/>
     <use xlink:href="#mb373535e55" x="210.35339" y="224.790597" style="fill: #daa520; stroke: #daa520"/>
     <use xlink:href="#mb373535e55" x="384.179197" y="254.560068" style="fill: #daa520; stroke: #daa520"/>
     <use xlink:href="#mb373535e55" x="213.459513" y="253.603732" style="fill: #daa520; stroke: #daa520"/>
     <use xlink:href="#mb373535e55" x="139.45406" y="267.930818" style="fill: #daa520; stroke: #daa520"/>
     <use xlink:href="#mb373535e55" x="80.57689" y="267.495574" style="fill: #daa520; stroke: #daa520"/>
     <use xlink:href="#mb373535e55" x="266.11747" y="243.496691" style="fill: #daa520; stroke: #daa520"/>
     <use xlink:href="#mb373535e55" x="394.113381" y="237.12661" style="fill: #daa520; stroke: #daa520"/>
     <use xlink:href="#mb373535e55" x="158.458544" y="267.918816" style="fill: #daa520; stroke: #daa520"/>
     <use xlink:href="#mb373535e55" x="168.06451" y="240.725993" style="fill: #daa520; stroke: #daa520"/>
     <use xlink:href="#mb373535e55" x="320.769993" y="236.342841" style="fill: #daa520; stroke: #daa520"/>
     <use xlink:href="#mb373535e55" x="354.967555" y="238.377329" style="fill: #daa520; stroke: #daa520"/>
     <use xlink:href="#mb373535e55" x="275.446213" y="250.334382" style="fill: #daa520; stroke: #daa520"/>
     <use xlink:href="#mb373535e55" x="348.67792" y="257.949334" style="fill: #daa520; stroke: #daa520"/>
     <use xlink:href="#mb373535e55" x="407.479771" y="255.785441" style="fill: #daa520; stroke: #daa520"/>
     <use xlink:href="#mb373535e55" x="370.198223" y="234.758058" style="fill: #daa520; stroke: #daa520"/>
     <use xlink:href="#mb373535e55" x="217.015664" y="212.411222" style="fill: #daa520; stroke: #daa520"/>
     <use xlink:href="#mb373535e55" x="210.68534" y="240.23553" style="fill: #daa520; stroke: #daa520"/>
     <use xlink:href="#mb373535e55" x="337.448807" y="241.567835" style="fill: #daa520; stroke: #daa520"/>
     <use xlink:href="#mb373535e55" x="401.471971" y="248.11454" style="fill: #daa520; stroke: #daa520"/>
     <use xlink:href="#mb373535e55" x="194.904799" y="256.298022" style="fill: #daa520; stroke: #daa520"/>
     <use xlink:href="#mb373535e55" x="212.230188" y="259.826098" style="fill: #daa520; stroke: #daa520"/>
     <use xlink:href="#mb373535e55" x="84.27079" y="269.368058" style="fill: #daa520; stroke: #daa520"/>
     <use xlink:href="#mb373535e55" x="367.239773" y="253.195545" style="fill: #daa520; stroke: #daa520"/>
     <use xlink:href="#mb373535e55" x="119.352457" y="254.239982" style="fill: #daa520; stroke: #daa520"/>
     <use xlink:href="#mb373535e55" x="192.991625" y="261.234311" style="fill: #daa520; stroke: #daa520"/>
     <use xlink:href="#mb373535e55" x="131.856335" y="262.289624" style="fill: #daa520; stroke: #daa520"/>
     <use xlink:href="#mb373535e55" x="334.666534" y="260.127684" style="fill: #daa520; stroke: #daa520"/>
     <use xlink:href="#mb373535e55" x="132.663224" y="271.306472" style="fill: #daa520; stroke: #daa520"/>
     <use xlink:href="#mb373535e55" x="228.323649" y="258.728541" style="fill: #daa520; stroke: #daa520"/>
     <use xlink:href="#mb373535e55" x="315.957067" y="205.874657" style="fill: #daa520; stroke: #daa520"/>
     <use xlink:href="#mb373535e55" x="222.110083" y="222.916431" style="fill: #daa520; stroke: #daa520"/>
     <use xlink:href="#mb373535e55" x="260.071238" y="260.32579" style="fill: #daa520; stroke: #daa520"/>
     <use xlink:href="#mb373535e55" x="164.689586" y="253.994854" style="fill: #daa520; stroke: #daa520"/>
     <use xlink:href="#mb373535e55" x="57.410025" y="265.886836" style="fill: #daa520; stroke: #daa520"/>
     <use xlink:href="#mb373535e55" x="406.954019" y="250.309451" style="fill: #daa520; stroke: #daa520"/>
     <use xlink:href="#mb373535e55" x="103.218688" y="252.247144" style="fill: #daa520; stroke: #daa520"/>
     <use xlink:href="#mb373535e55" x="399.235876" y="249.066191" style="fill: #daa520; stroke: #daa520"/>
     <use xlink:href="#mb373535e55" x="130.405279" y="270.081446" style="fill: #daa520; stroke: #daa520"/>
     <use xlink:href="#mb373535e55" x="356.938094" y="253.479944" style="fill: #daa520; stroke: #daa520"/>
     <use xlink:href="#mb373535e55" x="62.62663" y="268.844091" style="fill: #daa520; stroke: #daa520"/>
     <use xlink:href="#mb373535e55" x="174.52272" y="256.104891" style="fill: #daa520; stroke: #daa520"/>
     <use xlink:href="#mb373535e55" x="411.001785" y="255.747777" style="fill: #daa520; stroke: #daa520"/>
     <use xlink:href="#mb373535e55" x="254.334543" y="246.654433" style="fill: #daa520; stroke: #daa520"/>
     <use xlink:href="#mb373535e55" x="183.658577" y="262.776416" style="fill: #daa520; stroke: #daa520"/>
     <use xlink:href="#mb373535e55" x="358.743395" y="211.359262" style="fill: #daa520; stroke: #daa520"/>
     <use xlink:href="#mb373535e55" x="395.277149" y="255.790091" style="fill: #daa520; stroke: #daa520"/>
     <use xlink:href="#mb373535e55" x="159.886662" y="240.384652" style="fill: #daa520; stroke: #daa520"/>
     <use xlink:href="#mb373535e55" x="299.921445" y="219.860608" style="fill: #daa520; stroke: #daa520"/>
     <use xlink:href="#mb373535e55" x="111.378091" y="265.663045" style="fill: #daa520; stroke: #daa520"/>
     <use xlink:href="#mb373535e55" x="263.512276" y="195.542324" style="fill: #daa520; stroke: #daa520"/>
     <use xlink:href="#mb373535e55" x="97.549709" y="240.218517" style="fill: #daa520; stroke: #daa520"/>
     <use xlink:href="#mb373535e55" x="389.991957" y="244.459617" style="fill: #daa520; stroke: #daa520"/>
     <use xlink:href="#mb373535e55" x="408.888065" y="249.344692" style="fill: #daa520; stroke: #daa520"/>
     <use xlink:href="#mb373535e55" x="360.803214" y="242.847024" style="fill: #daa520; stroke: #daa520"/>
     <use xlink:href="#mb373535e55" x="320.477159" y="223.469843" style="fill: #daa520; stroke: #daa520"/>
     <use xlink:href="#mb373535e55" x="92.714538" y="272.658332" style="fill: #daa520; stroke: #daa520"/>
     <use xlink:href="#mb373535e55" x="282.738607" y="201.864735" style="fill: #daa520; stroke: #daa520"/>
     <use xlink:href="#mb373535e55" x="257.40664" y="255.530055" style="fill: #daa520; stroke: #daa520"/>
     <use xlink:href="#mb373535e55" x="345.256801" y="229.24897" style="fill: #daa520; stroke: #daa520"/>
     <use xlink:href="#mb373535e55" x="208.412096" y="252.329306" style="fill: #daa520; stroke: #daa520"/>
     <use xlink:href="#mb373535e55" x="315.006319" y="260.028845" style="fill: #daa520; stroke: #daa520"/>
     <use xlink:href="#mb373535e55" x="70.360967" y="270.433488" style="fill: #daa520; stroke: #daa520"/>
     <use xlink:href="#mb373535e55" x="350.17118" y="253.130844" style="fill: #daa520; stroke: #daa520"/>
     <use xlink:href="#mb373535e55" x="128.30379" y="239.827169" style="fill: #daa520; stroke: #daa520"/>
     <use xlink:href="#mb373535e55" x="385.648095" y="221.299653" style="fill: #daa520; stroke: #daa520"/>
     <use xlink:href="#mb373535e55" x="282.42873" y="261.19777" style="fill: #daa520; stroke: #daa520"/>
    </g>
   </g>
   <g id="matplotlib.axis_5">
    <g id="xtick_1">
     <g id="line2d_10">
      <defs>
       <path id="m328a40b4f9" d="M 0 0 
L 0 3.5 
" style="stroke: #696969; stroke-width: 0.8"/>
      </defs>
      <g>
       <use xlink:href="#m328a40b4f9" x="55.888409" y="276.68" style="fill: #696969; stroke: #696969; stroke-width: 0.8"/>
      </g>
     </g>
     <g id="text_4">
      <!-- −1.0 -->
      <g style="fill: #696969" transform="translate(36.462159 295.8375) scale(0.16 -0.16)">
       <defs>
        <path id="DejaVuSans-31" d="M 794 531 
L 1825 531 
L 1825 4091 
L 703 3866 
L 703 4441 
L 1819 4666 
L 2450 4666 
L 2450 531 
L 3481 531 
L 3481 0 
L 794 0 
L 794 531 
z
" transform="scale(0.015625)"/>
        <path id="DejaVuSans-2e" d="M 684 794 
L 1344 794 
L 1344 0 
L 684 0 
L 684 794 
z
" transform="scale(0.015625)"/>
       </defs>
       <use xlink:href="#DejaVuSans-2212"/>
       <use xlink:href="#DejaVuSans-31" x="83.789062"/>
       <use xlink:href="#DejaVuSans-2e" x="147.412109"/>
       <use xlink:href="#DejaVuSans-30" x="179.199219"/>
      </g>
     </g>
    </g>
    <g id="xtick_2">
     <g id="line2d_11">
      <g>
       <use xlink:href="#m328a40b4f9" x="146.392955" y="276.68" style="fill: #696969; stroke: #696969; stroke-width: 0.8"/>
      </g>
     </g>
     <g id="text_5">
      <!-- −0.5 -->
      <g style="fill: #696969" transform="translate(126.966705 295.8375) scale(0.16 -0.16)">
       <use xlink:href="#DejaVuSans-2212"/>
       <use xlink:href="#DejaVuSans-30" x="83.789062"/>
       <use xlink:href="#DejaVuSans-2e" x="147.412109"/>
       <use xlink:href="#DejaVuSans-35" x="179.199219"/>
      </g>
     </g>
    </g>
    <g id="xtick_3">
     <g id="line2d_12">
      <g>
       <use xlink:href="#m328a40b4f9" x="236.8975" y="276.68" style="fill: #696969; stroke: #696969; stroke-width: 0.8"/>
      </g>
     </g>
     <g id="text_6">
      <!-- 0.0 -->
      <g style="fill: #696969" transform="translate(224.175 295.8375) scale(0.16 -0.16)">
       <use xlink:href="#DejaVuSans-30"/>
       <use xlink:href="#DejaVuSans-2e" x="63.623047"/>
       <use xlink:href="#DejaVuSans-30" x="95.410156"/>
      </g>
     </g>
    </g>
    <g id="xtick_4">
     <g id="line2d_13">
      <g>
       <use xlink:href="#m328a40b4f9" x="327.402045" y="276.68" style="fill: #696969; stroke: #696969; stroke-width: 0.8"/>
      </g>
     </g>
     <g id="text_7">
      <!-- 0.5 -->
      <g style="fill: #696969" transform="translate(314.679545 295.8375) scale(0.16 -0.16)">
       <use xlink:href="#DejaVuSans-30"/>
       <use xlink:href="#DejaVuSans-2e" x="63.623047"/>
       <use xlink:href="#DejaVuSans-35" x="95.410156"/>
      </g>
     </g>
    </g>
    <g id="xtick_5">
     <g id="line2d_14">
      <g>
       <use xlink:href="#m328a40b4f9" x="417.906591" y="276.68" style="fill: #696969; stroke: #696969; stroke-width: 0.8"/>
      </g>
     </g>
     <g id="text_8">
      <!-- 1.0 -->
      <g style="fill: #696969" transform="translate(405.184091 295.8375) scale(0.16 -0.16)">
       <use xlink:href="#DejaVuSans-31"/>
       <use xlink:href="#DejaVuSans-2e" x="63.623047"/>
       <use xlink:href="#DejaVuSans-30" x="95.410156"/>
      </g>
     </g>
    </g>
    <g id="text_9">
     <!-- $X$ -->
     <g transform="translate(231.3775 315.3225) scale(0.16 -0.16)">
      <defs>
       <path id="DejaVuSans-Oblique-58" d="M 878 4666 
L 1516 4666 
L 2316 2981 
L 3763 4666 
L 4500 4666 
L 2578 2438 
L 3738 0 
L 3103 0 
L 2163 1966 
L 459 0 
L -275 0 
L 1906 2509 
L 878 4666 
z
" transform="scale(0.015625)"/>
      </defs>
      <use xlink:href="#DejaVuSans-Oblique-58" transform="translate(0 0.09375)"/>
     </g>
    </g>
   </g>
   <g id="matplotlib.axis_6">
    <g id="ytick_4">
     <g id="line2d_15">
      <g>
       <use xlink:href="#m810e28b516" x="37.7875" y="252.157467" style="fill: #696969; stroke: #696969; stroke-width: 0.8"/>
      </g>
     </g>
     <g id="text_10">
      <!-- 0 -->
      <g style="fill: #696969" transform="translate(20.6075 258.236217) scale(0.16 -0.16)">
       <use xlink:href="#DejaVuSans-30"/>
      </g>
     </g>
    </g>
    <g id="ytick_5">
     <g id="line2d_16">
      <g>
       <use xlink:href="#m810e28b516" x="37.7875" y="196.408841" style="fill: #696969; stroke: #696969; stroke-width: 0.8"/>
      </g>
     </g>
     <g id="text_11">
      <!-- 10 -->
      <g style="fill: #696969" transform="translate(10.4275 202.487591) scale(0.16 -0.16)">
       <use xlink:href="#DejaVuSans-31"/>
       <use xlink:href="#DejaVuSans-30" x="63.623047"/>
      </g>
     </g>
    </g>
   </g>
   <g id="line2d_17">
    <path d="M 55.888409 259.519874 
L 63.128773 260.039668 
L 70.369136 260.401666 
L 77.6095 260.607971 
L 84.849864 260.665824 
L 92.090227 260.585941 
L 99.330591 260.380507 
L 106.570955 260.060978 
L 113.811318 259.635956 
L 121.051682 259.109397 
L 128.292045 258.479485 
L 135.532409 257.738556 
L 142.772773 256.874484 
L 150.013136 255.873751 
L 157.2535 254.726163 
L 164.493864 253.430467 
L 171.734227 251.99922 
L 178.974591 250.46078 
L 186.214955 248.856651 
L 193.455318 247.234349 
L 200.695682 245.638531 
L 207.936045 244.104595 
L 215.176409 242.65769 
L 222.416773 241.316706 
L 229.657136 240.099036 
L 236.8975 239.021053 
L 244.137864 238.093618 
L 251.378227 237.319108 
L 258.618591 236.695882 
L 265.858955 236.226044 
L 273.099318 235.916312 
L 280.339682 235.769777 
L 287.580045 235.777476 
L 294.820409 235.918088 
L 302.060773 236.164898 
L 309.301136 236.493981 
L 316.5415 236.88912 
L 323.781864 237.342616 
L 331.022227 237.853157 
L 338.262591 238.422382 
L 345.502955 239.051577 
L 352.743318 239.739576 
L 359.983682 240.482305 
L 367.224045 241.273586 
L 374.464409 242.106408 
L 381.704773 242.973803 
L 388.945136 243.869062 
L 396.1855 244.785434 
L 403.425864 245.715773 
L 410.666227 246.652369 
L 417.906591 247.58717 
" clip-path="url(#p0a0446a2ff)" style="fill: none; stroke: #696969; stroke-width: 2; stroke-linecap: square"/>
   </g>
   <g id="line2d_18">
    <path d="M 55.888409 267.915657 
L 63.128773 267.52706 
L 70.369136 267.15344 
L 77.6095 266.744998 
L 84.849864 266.264271 
L 92.090227 265.68438 
L 99.330591 264.98746 
L 106.570955 264.163237 
L 113.811318 263.207771 
L 121.051682 262.122337 
L 128.292045 260.912439 
L 135.532409 259.586951 
L 142.772773 258.157384 
L 150.013136 256.637245 
L 157.2535 255.041508 
L 164.493864 253.386175 
L 171.734227 251.687907 
L 178.974591 249.963744 
L 186.214955 248.230876 
L 193.455318 246.506475 
L 200.695682 244.807571 
L 207.936045 243.150966 
L 215.176409 241.553175 
L 222.416773 240.030391 
L 229.657136 238.59845 
L 236.8975 237.27281 
L 244.137864 236.068513 
L 251.378227 235.000137 
L 258.618591 234.081717 
L 265.858955 233.326641 
L 273.099318 232.747491 
L 280.339682 232.355842 
L 287.580045 232.161996 
L 294.820409 232.174647 
L 302.060773 232.400468 
L 309.301136 232.84361 
L 316.5415 233.505104 
L 323.781864 234.38216 
L 331.022227 235.467349 
L 338.262591 236.747665 
L 345.502955 238.203453 
L 352.743318 239.807197 
L 359.983682 241.522158 
L 367.224045 243.300855 
L 374.464409 245.083373 
L 381.704773 246.795504 
L 388.945136 248.346695 
L 396.1855 249.627803 
L 403.425864 250.508653 
L 410.666227 250.835372 
L 417.906591 250.427519 
" clip-path="url(#p0a0446a2ff)" style="fill: none; stroke-dasharray: 7.4,3.2; stroke-dashoffset: 0; stroke: #79ad41; stroke-width: 2"/>
   </g>
   <g id="patch_9">
    <path d="M 37.7875 276.68 
L 37.7875 188.203304 
" style="fill: none; stroke: #000000; stroke-width: 0.8; stroke-linejoin: miter; stroke-linecap: square"/>
   </g>
   <g id="patch_10">
    <path d="M 436.0075 276.68 
L 436.0075 188.203304 
" style="fill: none; stroke: #000000; stroke-width: 0.8; stroke-linejoin: miter; stroke-linecap: square"/>
   </g>
   <g id="patch_11">
    <path d="M 37.7875 276.68 
L 436.0075 276.68 
" style="fill: none; stroke: #000000; stroke-width: 0.8; stroke-linejoin: miter; stroke-linecap: square"/>
   </g>
   <g id="patch_12">
    <path d="M 37.7875 188.203304 
L 436.0075 188.203304 
" style="fill: none; stroke: #000000; stroke-width: 0.8; stroke-linejoin: miter; stroke-linecap: square"/>
   </g>
  </g>
 </g>
 <defs>
  <clipPath id="pd3679cc5f8">
   <rect x="37.7875" y="7.2" width="398.22" height="44.238348"/>
  </clipPath>
  <clipPath id="p9d239f7349">
   <rect x="37.7875" y="75.582478" width="398.22" height="88.476696"/>
  </clipPath>
  <clipPath id="p0a0446a2ff">
   <rect x="37.7875" y="188.203304" width="398.22" height="88.476696"/>
  </clipPath>
 </defs>
</svg>
