<?xml version="1.0" encoding="utf-8" standalone="no"?>
<!DOCTYPE svg PUBLIC "-//W3C//DTD SVG 1.1//EN"
  "http://www.w3.org/Graphics/SVG/1.1/DTD/svg11.dtd">
<svg xmlns:xlink="http://www.w3.org/1999/xlink" width="443.2075pt" height="325.85pt" viewBox="0 0 443.2075 325.85" xmlns="http://www.w3.org/2000/svg" version="1.1">
 <metadata>
  <rdf:RDF xmlns:dc="http://purl.org/dc/elements/1.1/" xmlns:cc="http://creativecommons.org/ns#" xmlns:rdf="http://www.w3.org/1999/02/22-rdf-syntax-ns#">
   <cc:Work>
    <dc:type rdf:resource="http://purl.org/dc/dcmitype/StillImage"/>
    <dc:date>2024-01-28T20:57:01.516774</dc:date>
    <dc:format>image/svg+xml</dc:format>
    <dc:creator>
     <cc:Agent>
      <dc:title>Matplotlib v3.7.2, https://matplotlib.org/</dc:title>
     </cc:Agent>
    </dc:creator>
   </cc:Work>
  </rdf:RDF>
 </metadata>
 <defs>
  <style type="text/css">*{stroke-linejoin: round; stroke-linecap: butt}</style>
 </defs>
 <g id="figure_1">
  <g id="patch_1">
   <path d="M 0 325.85 
L 443.2075 325.85 
L 443.2075 0 
L 0 0 
z
" style="fill: #ffffff"/>
  </g>
  <g id="axes_1">
   <g id="patch_2">
    <path d="M 37.7875 52.333527 
L 436.0075 52.333527 
L 436.0075 7.2 
L 37.7875 7.2 
z
" style="fill: #ffffff"/>
   </g>
   <g id="PolyCollection_1">
    <defs>
     <path id="mece5a035f9" d="M 55.888409 -275.567997 
L 55.888409 -286.214851 
L 63.128773 -286.254745 
L 70.369136 -286.284386 
L 77.6095 -286.303209 
L 84.849864 -286.310924 
L 92.090227 -286.307584 
L 99.330591 -286.293636 
L 106.570955 -286.269966 
L 113.811318 -286.23791 
L 121.051682 -286.19929 
L 128.292045 -286.156396 
L 135.532409 -286.111995 
L 142.772773 -286.0693 
L 150.013136 -286.031955 
L 157.2535 -286.003978 
L 164.493864 -285.989772 
L 171.734227 -285.994063 
L 178.974591 -286.021911 
L 186.214955 -286.078695 
L 193.455318 -286.170121 
L 200.695682 -286.302255 
L 207.936045 -286.481538 
L 215.176409 -286.714843 
L 222.416773 -287.00949 
L 229.657136 -287.373267 
L 236.8975 -287.814411 
L 244.137864 -288.341524 
L 251.378227 -288.963397 
L 258.618591 -289.688742 
L 265.858955 -290.525718 
L 273.099318 -291.481337 
L 280.339682 -292.560634 
L 287.580045 -293.765696 
L 294.820409 -295.094583 
L 302.060773 -296.540292 
L 309.301136 -298.089914 
L 316.5415 -299.724305 
L 323.781864 -301.418344 
L 331.022227 -303.142064 
L 338.262591 -304.862525 
L 345.502955 -306.54628 
L 352.743318 -308.162004 
L 359.983682 -309.682916 
L 367.224045 -311.088491 
L 374.464409 -312.36534 
L 381.704773 -313.507161 
L 388.945136 -314.513946 
L 396.1855 -315.390738 
L 403.425864 -316.146176 
L 410.666227 -316.598476 
L 417.906591 -316.598476 
L 417.906591 -275.567997 
L 417.906591 -275.567997 
L 410.666227 -275.567997 
L 403.425864 -275.567997 
L 396.1855 -275.567997 
L 388.945136 -275.567997 
L 381.704773 -275.567997 
L 374.464409 -275.567997 
L 367.224045 -275.567997 
L 359.983682 -275.567997 
L 352.743318 -275.567997 
L 345.502955 -275.567997 
L 338.262591 -275.567997 
L 331.022227 -275.567997 
L 323.781864 -275.567997 
L 316.5415 -275.567997 
L 309.301136 -275.567997 
L 302.060773 -275.567997 
L 294.820409 -275.567997 
L 287.580045 -275.567997 
L 280.339682 -275.567997 
L 273.099318 -275.567997 
L 265.858955 -275.567997 
L 258.618591 -275.567997 
L 251.378227 -275.567997 
L 244.137864 -275.567997 
L 236.8975 -275.567997 
L 229.657136 -275.567997 
L 222.416773 -275.567997 
L 215.176409 -275.567997 
L 207.936045 -275.567997 
L 200.695682 -275.567997 
L 193.455318 -275.567997 
L 186.214955 -275.567997 
L 178.974591 -275.567997 
L 171.734227 -275.567997 
L 164.493864 -275.567997 
L 157.2535 -275.567997 
L 150.013136 -275.567997 
L 142.772773 -275.567997 
L 135.532409 -275.567997 
L 128.292045 -275.567997 
L 121.051682 -275.567997 
L 113.811318 -275.567997 
L 106.570955 -275.567997 
L 99.330591 -275.567997 
L 92.090227 -275.567997 
L 84.849864 -275.567997 
L 77.6095 -275.567997 
L 70.369136 -275.567997 
L 63.128773 -275.567997 
L 55.888409 -275.567997 
z
" style="stroke: #dc143c; stroke-opacity: 0.2"/>
    </defs>
    <g clip-path="url(#pe80003a7af)">
     <use xlink:href="#mece5a035f9" x="0" y="325.85" style="fill: #dc143c; fill-opacity: 0.2; stroke: #dc143c; stroke-opacity: 0.2"/>
    </g>
   </g>
   <g id="PolyCollection_2">
    <defs>
     <path id="mf8a3a877e9" d="M 55.888409 -275.567997 
L 55.888409 -310.510564 
L 63.128773 -310.47067 
L 70.369136 -310.441029 
L 77.6095 -310.422206 
L 84.849864 -310.414491 
L 92.090227 -310.417831 
L 99.330591 -310.431779 
L 106.570955 -310.455449 
L 113.811318 -310.487505 
L 121.051682 -310.526126 
L 128.292045 -310.56902 
L 135.532409 -310.613421 
L 142.772773 -310.656115 
L 150.013136 -310.693461 
L 157.2535 -310.721438 
L 164.493864 -310.735643 
L 171.734227 -310.731352 
L 178.974591 -310.703504 
L 186.214955 -310.646721 
L 193.455318 -310.555294 
L 200.695682 -310.42316 
L 207.936045 -310.243877 
L 215.176409 -310.010572 
L 222.416773 -309.715925 
L 229.657136 -309.352148 
L 236.8975 -308.911005 
L 244.137864 -308.383892 
L 251.378227 -307.762019 
L 258.618591 -307.036673 
L 265.858955 -306.199697 
L 273.099318 -305.244078 
L 280.339682 -304.164781 
L 287.580045 -302.959719 
L 294.820409 -301.630832 
L 302.060773 -300.185124 
L 309.301136 -298.635501 
L 316.5415 -297.00111 
L 323.781864 -295.307071 
L 331.022227 -293.583352 
L 338.262591 -291.86289 
L 345.502955 -290.179135 
L 352.743318 -288.563411 
L 359.983682 -287.0425 
L 367.224045 -285.636925 
L 374.464409 -284.360075 
L 381.704773 -283.218254 
L 388.945136 -282.211469 
L 396.1855 -281.334677 
L 403.425864 -280.579239 
L 410.666227 -280.126939 
L 417.906591 -280.126939 
L 417.906591 -275.567997 
L 417.906591 -275.567997 
L 410.666227 -275.567997 
L 403.425864 -275.567997 
L 396.1855 -275.567997 
L 388.945136 -275.567997 
L 381.704773 -275.567997 
L 374.464409 -275.567997 
L 367.224045 -275.567997 
L 359.983682 -275.567997 
L 352.743318 -275.567997 
L 345.502955 -275.567997 
L 338.262591 -275.567997 
L 331.022227 -275.567997 
L 323.781864 -275.567997 
L 316.5415 -275.567997 
L 309.301136 -275.567997 
L 302.060773 -275.567997 
L 294.820409 -275.567997 
L 287.580045 -275.567997 
L 280.339682 -275.567997 
L 273.099318 -275.567997 
L 265.858955 -275.567997 
L 258.618591 -275.567997 
L 251.378227 -275.567997 
L 244.137864 -275.567997 
L 236.8975 -275.567997 
L 229.657136 -275.567997 
L 222.416773 -275.567997 
L 215.176409 -275.567997 
L 207.936045 -275.567997 
L 200.695682 -275.567997 
L 193.455318 -275.567997 
L 186.214955 -275.567997 
L 178.974591 -275.567997 
L 171.734227 -275.567997 
L 164.493864 -275.567997 
L 157.2535 -275.567997 
L 150.013136 -275.567997 
L 142.772773 -275.567997 
L 135.532409 -275.567997 
L 128.292045 -275.567997 
L 121.051682 -275.567997 
L 113.811318 -275.567997 
L 106.570955 -275.567997 
L 99.330591 -275.567997 
L 92.090227 -275.567997 
L 84.849864 -275.567997 
L 77.6095 -275.567997 
L 70.369136 -275.567997 
L 63.128773 -275.567997 
L 55.888409 -275.567997 
z
" style="stroke: #000080; stroke-opacity: 0.2"/>
    </defs>
    <g clip-path="url(#pe80003a7af)">
     <use xlink:href="#mf8a3a877e9" x="0" y="325.85" style="fill: #000080; fill-opacity: 0.2; stroke: #000080; stroke-opacity: 0.2"/>
    </g>
   </g>
   <g id="matplotlib.axis_1"/>
   <g id="matplotlib.axis_2"/>
   <g id="line2d_1">
    <path d="M 55.888409 39.635149 
L 63.128773 39.595255 
L 70.369136 39.565614 
L 77.6095 39.546791 
L 84.849864 39.539076 
L 92.090227 39.542416 
L 99.330591 39.556364 
L 106.570955 39.580034 
L 113.811318 39.61209 
L 121.051682 39.65071 
L 128.292045 39.693604 
L 135.532409 39.738005 
L 142.772773 39.7807 
L 150.013136 39.818045 
L 157.2535 39.846022 
L 164.493864 39.860228 
L 171.734227 39.855937 
L 178.974591 39.828089 
L 186.214955 39.771305 
L 193.455318 39.679879 
L 200.695682 39.547745 
L 207.936045 39.368462 
L 215.176409 39.135157 
L 222.416773 38.84051 
L 229.657136 38.476733 
L 236.8975 38.035589 
L 244.137864 37.508476 
L 251.378227 36.886603 
L 258.618591 36.161258 
L 265.858955 35.324282 
L 273.099318 34.368663 
L 280.339682 33.289366 
L 287.580045 32.084304 
L 294.820409 30.755417 
L 302.060773 29.309708 
L 309.301136 27.760086 
L 316.5415 26.125695 
L 323.781864 24.431656 
L 331.022227 22.707936 
L 338.262591 20.987475 
L 345.502955 19.30372 
L 352.743318 17.687996 
L 359.983682 16.167084 
L 367.224045 14.761509 
L 374.464409 13.48466 
L 381.704773 12.342839 
L 388.945136 11.336054 
L 396.1855 10.459262 
L 403.425864 9.703824 
L 410.666227 9.251524 
L 417.906591 9.251524 
" clip-path="url(#pe80003a7af)" style="fill: none; stroke: #dc143c; stroke-width: 1.5; stroke-linecap: square"/>
   </g>
   <g id="line2d_2">
    <path d="M 55.888409 15.339436 
L 63.128773 15.37933 
L 70.369136 15.408971 
L 77.6095 15.427794 
L 84.849864 15.435509 
L 92.090227 15.432169 
L 99.330591 15.418221 
L 106.570955 15.394551 
L 113.811318 15.362495 
L 121.051682 15.323874 
L 128.292045 15.28098 
L 135.532409 15.236579 
L 142.772773 15.193885 
L 150.013136 15.156539 
L 157.2535 15.128562 
L 164.493864 15.114357 
L 171.734227 15.118648 
L 178.974591 15.146496 
L 186.214955 15.203279 
L 193.455318 15.294706 
L 200.695682 15.42684 
L 207.936045 15.606123 
L 215.176409 15.839428 
L 222.416773 16.134075 
L 229.657136 16.497852 
L 236.8975 16.938995 
L 244.137864 17.466108 
L 251.378227 18.087981 
L 258.618591 18.813327 
L 265.858955 19.650303 
L 273.099318 20.605922 
L 280.339682 21.685219 
L 287.580045 22.890281 
L 294.820409 24.219168 
L 302.060773 25.664876 
L 309.301136 27.214499 
L 316.5415 28.84889 
L 323.781864 30.542929 
L 331.022227 32.266648 
L 338.262591 33.98711 
L 345.502955 35.670865 
L 352.743318 37.286589 
L 359.983682 38.8075 
L 367.224045 40.213075 
L 374.464409 41.489925 
L 381.704773 42.631746 
L 388.945136 43.638531 
L 396.1855 44.515323 
L 403.425864 45.270761 
L 410.666227 45.723061 
L 417.906591 45.723061 
" clip-path="url(#pe80003a7af)" style="fill: none; stroke: #000080; stroke-width: 1.5; stroke-linecap: square"/>
   </g>
  </g>
  <g id="axes_2">
   <g id="patch_3">
    <path d="M 37.7875 164.506763 
L 436.0075 164.506763 
L 436.0075 74.23971 
L 37.7875 74.23971 
z
" style="fill: #ffffff"/>
   </g>
   <g id="PathCollection_1">
    <defs>
     <path id="mb72f4ba0b0" d="M 0 0.866025 
C 0.229673 0.866025 0.449969 0.774776 0.612372 0.612372 
C 0.774776 0.449969 0.866025 0.229673 0.866025 0 
C 0.866025 -0.229673 0.774776 -0.449969 0.612372 -0.612372 
C 0.449969 -0.774776 0.229673 -0.866025 0 -0.866025 
C -0.229673 -0.866025 -0.449969 -0.774776 -0.612372 -0.612372 
C -0.774776 -0.449969 -0.866025 -0.229673 -0.866025 0 
C -0.866025 0.229673 -0.774776 0.449969 -0.612372 0.612372 
C -0.449969 0.774776 -0.229673 0.866025 0 0.866025 
z
" style="stroke: #daa520"/>
    </defs>
    <g clip-path="url(#p845870d244)">
     <use xlink:href="#mb72f4ba0b0" x="322.860528" y="149.49736" style="fill: #daa520; stroke: #daa520"/>
     <use xlink:href="#mb72f4ba0b0" x="195.835498" y="104.964369" style="fill: #daa520; stroke: #daa520"/>
     <use xlink:href="#mb72f4ba0b0" x="370.783406" y="152.533049" style="fill: #daa520; stroke: #daa520"/>
     <use xlink:href="#mb72f4ba0b0" x="211.35067" y="152.641595" style="fill: #daa520; stroke: #daa520"/>
     <use xlink:href="#mb72f4ba0b0" x="405.34234" y="152.379374" style="fill: #daa520; stroke: #daa520"/>
     <use xlink:href="#mb72f4ba0b0" x="86.488815" y="109.102188" style="fill: #daa520; stroke: #daa520"/>
     <use xlink:href="#mb72f4ba0b0" x="332.124904" y="156.606787" style="fill: #daa520; stroke: #daa520"/>
     <use xlink:href="#mb72f4ba0b0" x="289.737395" y="131.115769" style="fill: #daa520; stroke: #daa520"/>
     <use xlink:href="#mb72f4ba0b0" x="286.592123" y="136.215957" style="fill: #daa520; stroke: #daa520"/>
     <use xlink:href="#mb72f4ba0b0" x="185.170426" y="141.097379" style="fill: #daa520; stroke: #daa520"/>
     <use xlink:href="#mb72f4ba0b0" x="322.044497" y="160.403716" style="fill: #daa520; stroke: #daa520"/>
     <use xlink:href="#mb72f4ba0b0" x="377.065132" y="135.409661" style="fill: #daa520; stroke: #daa520"/>
     <use xlink:href="#mb72f4ba0b0" x="144.869263" y="101.085974" style="fill: #daa520; stroke: #daa520"/>
     <use xlink:href="#mb72f4ba0b0" x="281.958443" y="140.683247" style="fill: #daa520; stroke: #daa520"/>
     <use xlink:href="#mb72f4ba0b0" x="266.346774" y="136.539127" style="fill: #daa520; stroke: #daa520"/>
     <use xlink:href="#mb72f4ba0b0" x="71.699031" y="126.129819" style="fill: #daa520; stroke: #daa520"/>
     <use xlink:href="#mb72f4ba0b0" x="333.14815" y="151.695153" style="fill: #daa520; stroke: #daa520"/>
     <use xlink:href="#mb72f4ba0b0" x="146.38694" y="133.184546" style="fill: #daa520; stroke: #daa520"/>
     <use xlink:href="#mb72f4ba0b0" x="416.13933" y="157.249497" style="fill: #daa520; stroke: #daa520"/>
     <use xlink:href="#mb72f4ba0b0" x="393.716271" y="149.189666" style="fill: #daa520; stroke: #daa520"/>
     <use xlink:href="#mb72f4ba0b0" x="362.272389" y="151.202877" style="fill: #daa520; stroke: #daa520"/>
     <use xlink:href="#mb72f4ba0b0" x="190.454828" y="146.60997" style="fill: #daa520; stroke: #daa520"/>
     <use xlink:href="#mb72f4ba0b0" x="175.912324" y="124.159103" style="fill: #daa520; stroke: #daa520"/>
     <use xlink:href="#mb72f4ba0b0" x="143.34141" y="128.933362" style="fill: #daa520; stroke: #daa520"/>
     <use xlink:href="#mb72f4ba0b0" x="176.819616" y="139.197617" style="fill: #daa520; stroke: #daa520"/>
     <use xlink:href="#mb72f4ba0b0" x="305.069933" y="150.808472" style="fill: #daa520; stroke: #daa520"/>
     <use xlink:href="#mb72f4ba0b0" x="391.931443" y="146.106342" style="fill: #daa520; stroke: #daa520"/>
     <use xlink:href="#mb72f4ba0b0" x="354.107862" y="143.391379" style="fill: #daa520; stroke: #daa520"/>
     <use xlink:href="#mb72f4ba0b0" x="273.530403" y="137.147072" style="fill: #daa520; stroke: #daa520"/>
     <use xlink:href="#mb72f4ba0b0" x="319.605676" y="157.140508" style="fill: #daa520; stroke: #daa520"/>
     <use xlink:href="#mb72f4ba0b0" x="344.561768" y="154.983812" style="fill: #daa520; stroke: #daa520"/>
     <use xlink:href="#mb72f4ba0b0" x="200.227656" y="145.018762" style="fill: #daa520; stroke: #daa520"/>
     <use xlink:href="#mb72f4ba0b0" x="230.154375" y="146.187738" style="fill: #daa520; stroke: #daa520"/>
     <use xlink:href="#mb72f4ba0b0" x="365.41057" y="141.292964" style="fill: #daa520; stroke: #daa520"/>
     <use xlink:href="#mb72f4ba0b0" x="322.276686" y="138.945504" style="fill: #daa520; stroke: #daa520"/>
     <use xlink:href="#mb72f4ba0b0" x="405.97628" y="156.411592" style="fill: #daa520; stroke: #daa520"/>
     <use xlink:href="#mb72f4ba0b0" x="124.645235" y="82.741498" style="fill: #daa520; stroke: #daa520"/>
     <use xlink:href="#mb72f4ba0b0" x="340.840958" y="151.573821" style="fill: #daa520; stroke: #daa520"/>
     <use xlink:href="#mb72f4ba0b0" x="175.575629" y="144.566924" style="fill: #daa520; stroke: #daa520"/>
     <use xlink:href="#mb72f4ba0b0" x="339.011939" y="138.394894" style="fill: #daa520; stroke: #daa520"/>
     <use xlink:href="#mb72f4ba0b0" x="140.290564" y="141.918046" style="fill: #daa520; stroke: #daa520"/>
     <use xlink:href="#mb72f4ba0b0" x="395.969417" y="156.598152" style="fill: #daa520; stroke: #daa520"/>
     <use xlink:href="#mb72f4ba0b0" x="395.613604" y="155.497325" style="fill: #daa520; stroke: #daa520"/>
     <use xlink:href="#mb72f4ba0b0" x="299.492645" y="150.149535" style="fill: #daa520; stroke: #daa520"/>
     <use xlink:href="#mb72f4ba0b0" x="264.873635" y="125.59598" style="fill: #daa520; stroke: #daa520"/>
     <use xlink:href="#mb72f4ba0b0" x="74.358724" y="78.342758" style="fill: #daa520; stroke: #daa520"/>
     <use xlink:href="#mb72f4ba0b0" x="361.043343" y="153.055431" style="fill: #daa520; stroke: #daa520"/>
     <use xlink:href="#mb72f4ba0b0" x="227.544727" y="134.986309" style="fill: #daa520; stroke: #daa520"/>
     <use xlink:href="#mb72f4ba0b0" x="315.816136" y="135.824186" style="fill: #daa520; stroke: #daa520"/>
     <use xlink:href="#mb72f4ba0b0" x="416.235363" y="157.82112" style="fill: #daa520; stroke: #daa520"/>
     <use xlink:href="#mb72f4ba0b0" x="311.013272" y="134.991433" style="fill: #daa520; stroke: #daa520"/>
     <use xlink:href="#mb72f4ba0b0" x="381.193467" y="153.97643" style="fill: #daa520; stroke: #daa520"/>
     <use xlink:href="#mb72f4ba0b0" x="123.144468" y="107.757466" style="fill: #daa520; stroke: #daa520"/>
     <use xlink:href="#mb72f4ba0b0" x="269.210713" y="128.41579" style="fill: #daa520; stroke: #daa520"/>
     <use xlink:href="#mb72f4ba0b0" x="411.264859" y="146.944555" style="fill: #daa520; stroke: #daa520"/>
     <use xlink:href="#mb72f4ba0b0" x="299.176811" y="132.718814" style="fill: #daa520; stroke: #daa520"/>
     <use xlink:href="#mb72f4ba0b0" x="371.362092" y="151.538782" style="fill: #daa520; stroke: #daa520"/>
     <use xlink:href="#mb72f4ba0b0" x="296.555773" y="146.360735" style="fill: #daa520; stroke: #daa520"/>
     <use xlink:href="#mb72f4ba0b0" x="405.344326" y="124.522751" style="fill: #daa520; stroke: #daa520"/>
     <use xlink:href="#mb72f4ba0b0" x="372.705734" y="152.504577" style="fill: #daa520; stroke: #daa520"/>
     <use xlink:href="#mb72f4ba0b0" x="366.127333" y="141.030396" style="fill: #daa520; stroke: #daa520"/>
     <use xlink:href="#mb72f4ba0b0" x="380.88259" y="150.476485" style="fill: #daa520; stroke: #daa520"/>
     <use xlink:href="#mb72f4ba0b0" x="349.64147" y="155.533437" style="fill: #daa520; stroke: #daa520"/>
     <use xlink:href="#mb72f4ba0b0" x="112.765454" y="143.419952" style="fill: #daa520; stroke: #daa520"/>
     <use xlink:href="#mb72f4ba0b0" x="69.113133" y="133.596797" style="fill: #daa520; stroke: #daa520"/>
     <use xlink:href="#mb72f4ba0b0" x="65.282853" y="87.892348" style="fill: #daa520; stroke: #daa520"/>
     <use xlink:href="#mb72f4ba0b0" x="177.659586" y="112.727379" style="fill: #daa520; stroke: #daa520"/>
     <use xlink:href="#mb72f4ba0b0" x="333.278951" y="151.146384" style="fill: #daa520; stroke: #daa520"/>
     <use xlink:href="#mb72f4ba0b0" x="387.121187" y="154.726951" style="fill: #daa520; stroke: #daa520"/>
     <use xlink:href="#mb72f4ba0b0" x="344.24047" y="155.102842" style="fill: #daa520; stroke: #daa520"/>
     <use xlink:href="#mb72f4ba0b0" x="298.124118" y="140.111924" style="fill: #daa520; stroke: #daa520"/>
     <use xlink:href="#mb72f4ba0b0" x="348.973195" y="153.139532" style="fill: #daa520; stroke: #daa520"/>
     <use xlink:href="#mb72f4ba0b0" x="183.865334" y="144.292642" style="fill: #daa520; stroke: #daa520"/>
     <use xlink:href="#mb72f4ba0b0" x="387.707956" y="153.448265" style="fill: #daa520; stroke: #daa520"/>
     <use xlink:href="#mb72f4ba0b0" x="150.21577" y="116.150381" style="fill: #daa520; stroke: #daa520"/>
     <use xlink:href="#mb72f4ba0b0" x="143.925019" y="124.489204" style="fill: #daa520; stroke: #daa520"/>
     <use xlink:href="#mb72f4ba0b0" x="330.89319" y="149.899866" style="fill: #daa520; stroke: #daa520"/>
     <use xlink:href="#mb72f4ba0b0" x="296.491533" y="147.450802" style="fill: #daa520; stroke: #daa520"/>
     <use xlink:href="#mb72f4ba0b0" x="370.588318" y="151.783389" style="fill: #daa520; stroke: #daa520"/>
     <use xlink:href="#mb72f4ba0b0" x="391.423776" y="132.987523" style="fill: #daa520; stroke: #daa520"/>
     <use xlink:href="#mb72f4ba0b0" x="410.196219" y="134.892752" style="fill: #daa520; stroke: #daa520"/>
     <use xlink:href="#mb72f4ba0b0" x="385.071855" y="147.718574" style="fill: #daa520; stroke: #daa520"/>
     <use xlink:href="#mb72f4ba0b0" x="79.087694" y="139.255759" style="fill: #daa520; stroke: #daa520"/>
     <use xlink:href="#mb72f4ba0b0" x="379.642572" y="148.537746" style="fill: #daa520; stroke: #daa520"/>
     <use xlink:href="#mb72f4ba0b0" x="265.140803" y="131.306481" style="fill: #daa520; stroke: #daa520"/>
     <use xlink:href="#mb72f4ba0b0" x="255.768361" y="126.936082" style="fill: #daa520; stroke: #daa520"/>
     <use xlink:href="#mb72f4ba0b0" x="265.592618" y="128.188662" style="fill: #daa520; stroke: #daa520"/>
     <use xlink:href="#mb72f4ba0b0" x="222.009528" y="108.573162" style="fill: #daa520; stroke: #daa520"/>
     <use xlink:href="#mb72f4ba0b0" x="63.679526" y="137.102295" style="fill: #daa520; stroke: #daa520"/>
     <use xlink:href="#mb72f4ba0b0" x="411.036409" y="157.261748" style="fill: #daa520; stroke: #daa520"/>
     <use xlink:href="#mb72f4ba0b0" x="416.793855" y="124.571368" style="fill: #daa520; stroke: #daa520"/>
     <use xlink:href="#mb72f4ba0b0" x="131.911788" y="127.449222" style="fill: #daa520; stroke: #daa520"/>
     <use xlink:href="#mb72f4ba0b0" x="251.505219" y="144.949739" style="fill: #daa520; stroke: #daa520"/>
    </g>
   </g>
   <g id="matplotlib.axis_3"/>
   <g id="matplotlib.axis_4">
    <g id="ytick_1">
     <g id="line2d_3">
      <defs>
       <path id="m957126c4dd" d="M 0 0 
L -3.5 0 
" style="stroke: #696969; stroke-width: 0.8"/>
      </defs>
      <g>
       <use xlink:href="#m957126c4dd" x="37.7875" y="160.495364" style="fill: #696969; stroke: #696969; stroke-width: 0.8"/>
      </g>
     </g>
     <g id="text_1">
      <!-- −5 -->
      <g style="fill: #696969" transform="translate(7.2 166.574114) scale(0.16 -0.16)">
       <defs>
        <path id="DejaVuSans-2212" d="M 678 2272 
L 4684 2272 
L 4684 1741 
L 678 1741 
L 678 2272 
z
" transform="scale(0.015625)"/>
        <path id="DejaVuSans-35" d="M 691 4666 
L 3169 4666 
L 3169 4134 
L 1269 4134 
L 1269 2991 
Q 1406 3038 1543 3061 
Q 1681 3084 1819 3084 
Q 2600 3084 3056 2656 
Q 3513 2228 3513 1497 
Q 3513 744 3044 326 
Q 2575 -91 1722 -91 
Q 1428 -91 1123 -41 
Q 819 9 494 109 
L 494 744 
Q 775 591 1075 516 
Q 1375 441 1709 441 
Q 2250 441 2565 725 
Q 2881 1009 2881 1497 
Q 2881 1984 2565 2268 
Q 2250 2553 1709 2553 
Q 1456 2553 1204 2497 
Q 953 2441 691 2322 
L 691 4666 
z
" transform="scale(0.015625)"/>
       </defs>
       <use xlink:href="#DejaVuSans-2212"/>
       <use xlink:href="#DejaVuSans-35" x="83.789062"/>
      </g>
     </g>
    </g>
    <g id="ytick_2">
     <g id="line2d_4">
      <g>
       <use xlink:href="#m957126c4dd" x="37.7875" y="127.92324" style="fill: #696969; stroke: #696969; stroke-width: 0.8"/>
      </g>
     </g>
     <g id="text_2">
      <!-- 0 -->
      <g style="fill: #696969" transform="translate(20.6075 134.00199) scale(0.16 -0.16)">
       <defs>
        <path id="DejaVuSans-30" d="M 2034 4250 
Q 1547 4250 1301 3770 
Q 1056 3291 1056 2328 
Q 1056 1369 1301 889 
Q 1547 409 2034 409 
Q 2525 409 2770 889 
Q 3016 1369 3016 2328 
Q 3016 3291 2770 3770 
Q 2525 4250 2034 4250 
z
M 2034 4750 
Q 2819 4750 3233 4129 
Q 3647 3509 3647 2328 
Q 3647 1150 3233 529 
Q 2819 -91 2034 -91 
Q 1250 -91 836 529 
Q 422 1150 422 2328 
Q 422 3509 836 4129 
Q 1250 4750 2034 4750 
z
" transform="scale(0.015625)"/>
       </defs>
       <use xlink:href="#DejaVuSans-30"/>
      </g>
     </g>
    </g>
    <g id="ytick_3">
     <g id="line2d_5">
      <g>
       <use xlink:href="#m957126c4dd" x="37.7875" y="95.351116" style="fill: #696969; stroke: #696969; stroke-width: 0.8"/>
      </g>
     </g>
     <g id="text_3">
      <!-- 5 -->
      <g style="fill: #696969" transform="translate(20.6075 101.429866) scale(0.16 -0.16)">
       <use xlink:href="#DejaVuSans-35"/>
      </g>
     </g>
    </g>
   </g>
   <g id="line2d_6">
    <path d="M 55.888409 102.68184 
L 63.128773 103.726499 
L 70.369136 105.416858 
L 77.6095 107.719568 
L 84.849864 110.444074 
L 92.090227 113.312203 
L 99.330591 116.039553 
L 106.570955 118.396867 
L 113.811318 120.247136 
L 121.051682 121.568378 
L 128.292045 122.464694 
L 135.532409 123.153716 
L 142.772773 123.91602 
L 150.013136 125.008433 
L 157.2535 126.568361 
L 164.493864 128.551656 
L 171.734227 130.739179 
L 178.974591 132.81765 
L 186.214955 134.502984 
L 193.455318 135.649587 
L 200.695682 136.293008 
L 207.936045 136.606732 
L 215.176409 136.79912 
L 222.416773 137.006903 
L 229.657136 137.238893 
L 236.8975 137.391459 
L 244.137864 137.319071 
L 251.378227 136.922748 
L 258.618591 136.222484 
L 265.858955 135.39369 
L 273.099318 134.756659 
L 280.339682 134.711222 
L 287.580045 135.618835 
L 294.820409 137.660049 
L 302.060773 140.723625 
L 309.301136 144.388411 
L 316.5415 148.024571 
L 323.781864 150.9821 
L 331.022227 152.789052 
L 338.262591 153.279273 
L 345.502955 152.60763 
L 352.743318 151.161965 
L 359.983682 149.416305 
L 367.224045 147.780189 
L 374.464409 146.491543 
L 381.704773 145.584 
L 388.945136 144.936075 
L 396.1855 144.379979 
L 403.425864 143.820941 
L 410.666227 143.309368 
L 417.906591 143.027561 
" clip-path="url(#p845870d244)" style="fill: none; stroke: #000000; stroke-width: 2; stroke-linecap: square"/>
   </g>
   <g id="line2d_7">
    <path d="M 55.888409 116.587349 
L 63.128773 117.308416 
L 70.369136 118.029483 
L 77.6095 118.750551 
L 84.849864 119.471618 
L 92.090227 120.192685 
L 99.330591 120.913752 
L 106.570955 121.634819 
L 113.811318 122.355886 
L 121.051682 123.076954 
L 128.292045 123.798021 
L 135.532409 124.519088 
L 142.772773 125.240155 
L 150.013136 125.961222 
L 157.2535 126.682289 
L 164.493864 127.403357 
L 171.734227 128.124424 
L 178.974591 128.845491 
L 186.214955 129.566558 
L 193.455318 130.287625 
L 200.695682 131.008692 
L 207.936045 131.72976 
L 215.176409 132.450827 
L 222.416773 133.171894 
L 229.657136 133.892961 
L 236.8975 134.614028 
L 244.137864 135.335095 
L 251.378227 136.056163 
L 258.618591 136.77723 
L 265.858955 137.498297 
L 273.099318 138.219364 
L 280.339682 138.940431 
L 287.580045 139.661498 
L 294.820409 140.382566 
L 302.060773 141.103633 
L 309.301136 141.8247 
L 316.5415 142.545767 
L 323.781864 143.266834 
L 331.022227 143.987901 
L 338.262591 144.708969 
L 345.502955 145.430036 
L 352.743318 146.151103 
L 359.983682 146.87217 
L 367.224045 147.593237 
L 374.464409 148.314304 
L 381.704773 149.035372 
L 388.945136 149.756439 
L 396.1855 150.477506 
L 403.425864 151.198573 
L 410.666227 151.91964 
L 417.906591 152.640707 
" clip-path="url(#p845870d244)" style="fill: none; stroke-dasharray: 7.4,3.2; stroke-dashoffset: 0; stroke: #34b6c6; stroke-width: 2"/>
   </g>
   <g id="line2d_8">
    <path d="M 55.888409 111.987865 
L 63.128773 112.339005 
L 70.369136 112.752909 
L 77.6095 113.276863 
L 84.849864 113.982346 
L 92.090227 114.941436 
L 99.330591 116.156779 
L 106.570955 117.521727 
L 113.811318 118.924847 
L 121.051682 120.341989 
L 128.292045 121.766246 
L 135.532409 123.169332 
L 142.772773 124.555154 
L 150.013136 125.965012 
L 157.2535 127.417799 
L 164.493864 128.851857 
L 171.734227 130.145575 
L 178.974591 131.21707 
L 186.214955 132.073524 
L 193.455318 132.770652 
L 200.695682 133.363782 
L 207.936045 133.89072 
L 215.176409 134.374081 
L 222.416773 134.827792 
L 229.657136 135.262208 
L 236.8975 135.687387 
L 244.137864 136.11552 
L 251.378227 136.563446 
L 258.618591 137.055743 
L 265.858955 137.627885 
L 273.099318 138.327202 
L 280.339682 139.210538 
L 287.580045 140.353097 
L 294.820409 141.894309 
L 302.060773 143.989902 
L 309.301136 146.340825 
L 316.5415 148.104018 
L 323.781864 149.052185 
L 331.022227 149.552787 
L 338.262591 149.815452 
L 345.502955 149.728497 
L 352.743318 149.012577 
L 359.983682 148.129687 
L 367.224045 147.783933 
L 374.464409 147.735188 
L 381.704773 147.599727 
L 388.945136 147.182768 
L 396.1855 146.607025 
L 403.425864 146.200023 
L 410.666227 146.08393 
L 417.906591 146.174815 
" clip-path="url(#p845870d244)" style="fill: none; stroke-dasharray: 7.4,3.2; stroke-dashoffset: 0; stroke: #9370db; stroke-width: 2"/>
   </g>
   <g id="line2d_9">
    <path d="M 55.888409 88.61612 
L 63.128773 88.751429 
L 70.369136 89.03158 
L 77.6095 89.565697 
L 84.849864 90.518733 
L 92.090227 92.057022 
L 99.330591 94.186674 
L 106.570955 96.661574 
L 113.811318 99.224561 
L 121.051682 101.81991 
L 128.292045 104.431676 
L 135.532409 106.994585 
L 142.772773 109.517657 
L 150.013136 112.096193 
L 157.2535 114.773801 
L 164.493864 117.408185 
L 171.734227 119.718704 
L 178.974591 121.516394 
L 186.214955 122.817828 
L 193.455318 123.751582 
L 200.695682 124.445337 
L 207.936045 124.986342 
L 215.176409 125.42678 
L 222.416773 125.798796 
L 229.657136 126.126282 
L 236.8975 126.432453 
L 244.137864 126.745443 
L 251.378227 127.104107 
L 258.618591 127.565168 
L 265.858955 128.210488 
L 273.099318 129.149296 
L 280.339682 130.512766 
L 287.580045 132.474451 
L 294.820409 135.356118 
L 302.060773 139.517144 
L 309.301136 144.267399 
L 316.5415 147.661337 
L 323.781864 149.17442 
L 331.022227 149.654647 
L 338.262591 149.58578 
L 345.502955 148.710088 
L 352.743318 146.382917 
L 359.983682 143.670427 
L 367.224045 142.197499 
L 374.464409 141.409985 
L 381.704773 140.422353 
L 388.945136 138.785102 
L 396.1855 136.781422 
L 403.425864 135.167149 
L 410.666227 134.224215 
L 417.906591 133.758928 
" clip-path="url(#p845870d244)" style="fill: none; stroke-dasharray: 12.8,3.2,2,3.2; stroke-dashoffset: 0; stroke: #ff0000; stroke-width: 2"/>
   </g>
   <g id="patch_4">
    <path d="M 37.7875 164.506763 
L 37.7875 74.23971 
" style="fill: none; stroke: #000000; stroke-width: 0.8; stroke-linejoin: miter; stroke-linecap: square"/>
   </g>
   <g id="patch_5">
    <path d="M 436.0075 164.506763 
L 436.0075 74.23971 
" style="fill: none; stroke: #000000; stroke-width: 0.8; stroke-linejoin: miter; stroke-linecap: square"/>
   </g>
   <g id="patch_6">
    <path d="M 37.7875 164.506763 
L 436.0075 164.506763 
" style="fill: none; stroke: #000000; stroke-width: 0.8; stroke-linejoin: miter; stroke-linecap: square"/>
   </g>
   <g id="patch_7">
    <path d="M 37.7875 74.23971 
L 436.0075 74.23971 
" style="fill: none; stroke: #000000; stroke-width: 0.8; stroke-linejoin: miter; stroke-linecap: square"/>
   </g>
  </g>
  <g id="axes_3">
   <g id="patch_8">
    <path d="M 37.7875 276.68 
L 436.0075 276.68 
L 436.0075 186.412946 
L 37.7875 186.412946 
z
" style="fill: #ffffff"/>
   </g>
   <g id="PathCollection_2">
    <g clip-path="url(#p25836a5752)">
     <use xlink:href="#mb72f4ba0b0" x="322.860528" y="248.142613" style="fill: #daa520; stroke: #daa520"/>
     <use xlink:href="#mb72f4ba0b0" x="195.835498" y="271.003873" style="fill: #daa520; stroke: #daa520"/>
     <use xlink:href="#mb72f4ba0b0" x="370.783406" y="236.047495" style="fill: #daa520; stroke: #daa520"/>
     <use xlink:href="#mb72f4ba0b0" x="211.35067" y="216.454341" style="fill: #daa520; stroke: #daa520"/>
     <use xlink:href="#mb72f4ba0b0" x="405.34234" y="228.091145" style="fill: #daa520; stroke: #daa520"/>
     <use xlink:href="#mb72f4ba0b0" x="86.488815" y="227.19031" style="fill: #daa520; stroke: #daa520"/>
     <use xlink:href="#mb72f4ba0b0" x="332.124904" y="240.525646" style="fill: #daa520; stroke: #daa520"/>
     <use xlink:href="#mb72f4ba0b0" x="289.737395" y="251.125191" style="fill: #daa520; stroke: #daa520"/>
     <use xlink:href="#mb72f4ba0b0" x="286.592123" y="243.901015" style="fill: #daa520; stroke: #daa520"/>
     <use xlink:href="#mb72f4ba0b0" x="185.170426" y="227.013616" style="fill: #daa520; stroke: #daa520"/>
     <use xlink:href="#mb72f4ba0b0" x="322.044497" y="235.201868" style="fill: #daa520; stroke: #daa520"/>
     <use xlink:href="#mb72f4ba0b0" x="377.065132" y="255.353573" style="fill: #daa520; stroke: #daa520"/>
     <use xlink:href="#mb72f4ba0b0" x="144.869263" y="259.420673" style="fill: #daa520; stroke: #daa520"/>
     <use xlink:href="#mb72f4ba0b0" x="281.958443" y="237.165948" style="fill: #daa520; stroke: #daa520"/>
     <use xlink:href="#mb72f4ba0b0" x="266.346774" y="238.945255" style="fill: #daa520; stroke: #daa520"/>
     <use xlink:href="#mb72f4ba0b0" x="71.699031" y="205.202524" style="fill: #daa520; stroke: #daa520"/>
     <use xlink:href="#mb72f4ba0b0" x="333.14815" y="246.303707" style="fill: #daa520; stroke: #daa520"/>
     <use xlink:href="#mb72f4ba0b0" x="146.38694" y="222.375587" style="fill: #daa520; stroke: #daa520"/>
     <use xlink:href="#mb72f4ba0b0" x="416.13933" y="221.184733" style="fill: #daa520; stroke: #daa520"/>
     <use xlink:href="#mb72f4ba0b0" x="393.716271" y="234.887462" style="fill: #daa520; stroke: #daa520"/>
     <use xlink:href="#mb72f4ba0b0" x="362.272389" y="239.110308" style="fill: #daa520; stroke: #daa520"/>
     <use xlink:href="#mb72f4ba0b0" x="190.454828" y="221.416502" style="fill: #daa520; stroke: #daa520"/>
     <use xlink:href="#mb72f4ba0b0" x="175.912324" y="244.742037" style="fill: #daa520; stroke: #daa520"/>
     <use xlink:href="#mb72f4ba0b0" x="143.34141" y="226.10358" style="fill: #daa520; stroke: #daa520"/>
     <use xlink:href="#mb72f4ba0b0" x="176.819616" y="227.343449" style="fill: #daa520; stroke: #daa520"/>
     <use xlink:href="#mb72f4ba0b0" x="305.069933" y="237.764146" style="fill: #daa520; stroke: #daa520"/>
     <use xlink:href="#mb72f4ba0b0" x="391.931443" y="239.096314" style="fill: #daa520; stroke: #daa520"/>
     <use xlink:href="#mb72f4ba0b0" x="354.107862" y="251.516795" style="fill: #daa520; stroke: #daa520"/>
     <use xlink:href="#mb72f4ba0b0" x="273.530403" y="239.351476" style="fill: #daa520; stroke: #daa520"/>
     <use xlink:href="#mb72f4ba0b0" x="319.605676" y="238.501777" style="fill: #daa520; stroke: #daa520"/>
     <use xlink:href="#mb72f4ba0b0" x="344.561768" y="241.514699" style="fill: #daa520; stroke: #daa520"/>
     <use xlink:href="#mb72f4ba0b0" x="200.227656" y="224.464538" style="fill: #daa520; stroke: #daa520"/>
     <use xlink:href="#mb72f4ba0b0" x="230.154375" y="225.13699" style="fill: #daa520; stroke: #daa520"/>
     <use xlink:href="#mb72f4ba0b0" x="365.41057" y="250.029743" style="fill: #daa520; stroke: #daa520"/>
     <use xlink:href="#mb72f4ba0b0" x="322.276686" y="260.430179" style="fill: #daa520; stroke: #daa520"/>
     <use xlink:href="#mb72f4ba0b0" x="405.97628" y="223.24986" style="fill: #daa520; stroke: #daa520"/>
     <use xlink:href="#mb72f4ba0b0" x="124.645235" y="272.576952" style="fill: #daa520; stroke: #daa520"/>
     <use xlink:href="#mb72f4ba0b0" x="340.840958" y="246.111486" style="fill: #daa520; stroke: #daa520"/>
     <use xlink:href="#mb72f4ba0b0" x="175.575629" y="220.691552" style="fill: #daa520; stroke: #daa520"/>
     <use xlink:href="#mb72f4ba0b0" x="339.011939" y="261.745662" style="fill: #daa520; stroke: #daa520"/>
     <use xlink:href="#mb72f4ba0b0" x="140.290564" y="209.612513" style="fill: #daa520; stroke: #daa520"/>
     <use xlink:href="#mb72f4ba0b0" x="395.969417" y="225.466504" style="fill: #daa520; stroke: #daa520"/>
     <use xlink:href="#mb72f4ba0b0" x="395.613604" y="226.870589" style="fill: #daa520; stroke: #daa520"/>
     <use xlink:href="#mb72f4ba0b0" x="299.492645" y="234.278957" style="fill: #daa520; stroke: #daa520"/>
     <use xlink:href="#mb72f4ba0b0" x="264.873635" y="251.607965" style="fill: #daa520; stroke: #daa520"/>
     <use xlink:href="#mb72f4ba0b0" x="74.358724" y="261.503037" style="fill: #daa520; stroke: #daa520"/>
     <use xlink:href="#mb72f4ba0b0" x="361.043343" y="237.294086" style="fill: #daa520; stroke: #daa520"/>
     <use xlink:href="#mb72f4ba0b0" x="227.544727" y="238.151412" style="fill: #daa520; stroke: #daa520"/>
     <use xlink:href="#mb72f4ba0b0" x="315.816136" y="262.265487" style="fill: #daa520; stroke: #daa520"/>
     <use xlink:href="#mb72f4ba0b0" x="416.235363" y="220.507976" style="fill: #daa520; stroke: #daa520"/>
     <use xlink:href="#mb72f4ba0b0" x="311.013272" y="260.704352" style="fill: #daa520; stroke: #daa520"/>
     <use xlink:href="#mb72f4ba0b0" x="381.193467" y="232.854514" style="fill: #daa520; stroke: #daa520"/>
     <use xlink:href="#mb72f4ba0b0" x="123.144468" y="242.577422" style="fill: #daa520; stroke: #daa520"/>
     <use xlink:href="#mb72f4ba0b0" x="269.210713" y="248.876825" style="fill: #daa520; stroke: #daa520"/>
     <use xlink:href="#mb72f4ba0b0" x="411.264859" y="233.666484" style="fill: #daa520; stroke: #daa520"/>
     <use xlink:href="#mb72f4ba0b0" x="299.176811" y="254.516198" style="fill: #daa520; stroke: #daa520"/>
     <use xlink:href="#mb72f4ba0b0" x="371.362092" y="237.144593" style="fill: #daa520; stroke: #daa520"/>
     <use xlink:href="#mb72f4ba0b0" x="296.555773" y="236.772133" style="fill: #daa520; stroke: #daa520"/>
     <use xlink:href="#mb72f4ba0b0" x="405.344326" y="260.78798" style="fill: #daa520; stroke: #daa520"/>
     <use xlink:href="#mb72f4ba0b0" x="372.705734" y="235.850667" style="fill: #daa520; stroke: #daa520"/>
     <use xlink:href="#mb72f4ba0b0" x="366.127333" y="250.208672" style="fill: #daa520; stroke: #daa520"/>
     <use xlink:href="#mb72f4ba0b0" x="380.88259" y="237.024178" style="fill: #daa520; stroke: #daa520"/>
     <use xlink:href="#mb72f4ba0b0" x="349.64147" y="239.296529" style="fill: #daa520; stroke: #daa520"/>
     <use xlink:href="#mb72f4ba0b0" x="112.765454" y="196.347713" style="fill: #daa520; stroke: #daa520"/>
     <use xlink:href="#mb72f4ba0b0" x="69.113133" y="196.276187" style="fill: #daa520; stroke: #daa520"/>
     <use xlink:href="#mb72f4ba0b0" x="65.282853" y="249.743227" style="fill: #daa520; stroke: #daa520"/>
     <use xlink:href="#mb72f4ba0b0" x="177.659586" y="258.638933" style="fill: #daa520; stroke: #daa520"/>
     <use xlink:href="#mb72f4ba0b0" x="333.278951" y="246.948678" style="fill: #daa520; stroke: #daa520"/>
     <use xlink:href="#mb72f4ba0b0" x="387.121187" y="230.502755" style="fill: #daa520; stroke: #daa520"/>
     <use xlink:href="#mb72f4ba0b0" x="344.24047" y="241.442812" style="fill: #daa520; stroke: #daa520"/>
     <use xlink:href="#mb72f4ba0b0" x="298.124118" y="245.117957" style="fill: #daa520; stroke: #daa520"/>
     <use xlink:href="#mb72f4ba0b0" x="348.973195" y="242.36776" style="fill: #daa520; stroke: #daa520"/>
     <use xlink:href="#mb72f4ba0b0" x="183.865334" y="223.01264" style="fill: #daa520; stroke: #daa520"/>
     <use xlink:href="#mb72f4ba0b0" x="387.707956" y="231.829191" style="fill: #daa520; stroke: #daa520"/>
     <use xlink:href="#mb72f4ba0b0" x="150.21577" y="243.987206" style="fill: #daa520; stroke: #daa520"/>
     <use xlink:href="#mb72f4ba0b0" x="143.925019" y="231.560435" style="fill: #daa520; stroke: #daa520"/>
     <use xlink:href="#mb72f4ba0b0" x="330.89319" y="248.367518" style="fill: #daa520; stroke: #daa520"/>
     <use xlink:href="#mb72f4ba0b0" x="296.491533" y="235.452859" style="fill: #daa520; stroke: #daa520"/>
     <use xlink:href="#mb72f4ba0b0" x="370.588318" y="236.951263" style="fill: #daa520; stroke: #daa520"/>
     <use xlink:href="#mb72f4ba0b0" x="391.423776" y="254.662478" style="fill: #daa520; stroke: #daa520"/>
     <use xlink:href="#mb72f4ba0b0" x="410.196219" y="247.92604" style="fill: #daa520; stroke: #daa520"/>
     <use xlink:href="#mb72f4ba0b0" x="385.071855" y="239.300534" style="fill: #daa520; stroke: #daa520"/>
     <use xlink:href="#mb72f4ba0b0" x="79.087694" y="190.515994" style="fill: #daa520; stroke: #daa520"/>
     <use xlink:href="#mb72f4ba0b0" x="379.642572" y="239.53073" style="fill: #daa520; stroke: #daa520"/>
     <use xlink:href="#mb72f4ba0b0" x="265.140803" y="244.937147" style="fill: #daa520; stroke: #daa520"/>
     <use xlink:href="#mb72f4ba0b0" x="255.768361" y="249.164926" style="fill: #daa520; stroke: #daa520"/>
     <use xlink:href="#mb72f4ba0b0" x="265.592618" y="248.65184" style="fill: #daa520; stroke: #daa520"/>
     <use xlink:href="#mb72f4ba0b0" x="222.009528" y="268.855266" style="fill: #daa520; stroke: #daa520"/>
     <use xlink:href="#mb72f4ba0b0" x="63.679526" y="191.924485" style="fill: #daa520; stroke: #daa520"/>
     <use xlink:href="#mb72f4ba0b0" x="411.036409" y="221.57977" style="fill: #daa520; stroke: #daa520"/>
     <use xlink:href="#mb72f4ba0b0" x="416.793855" y="259.502827" style="fill: #daa520; stroke: #daa520"/>
     <use xlink:href="#mb72f4ba0b0" x="131.911788" y="223.155996" style="fill: #daa520; stroke: #daa520"/>
     <use xlink:href="#mb72f4ba0b0" x="251.505219" y="227.720923" style="fill: #daa520; stroke: #daa520"/>
    </g>
   </g>
   <g id="matplotlib.axis_5">
    <g id="xtick_1">
     <g id="line2d_10">
      <defs>
       <path id="m8f5823aa4b" d="M 0 0 
L 0 3.5 
" style="stroke: #696969; stroke-width: 0.8"/>
      </defs>
      <g>
       <use xlink:href="#m8f5823aa4b" x="55.888409" y="276.68" style="fill: #696969; stroke: #696969; stroke-width: 0.8"/>
      </g>
     </g>
     <g id="text_4">
      <!-- −1.0 -->
      <g style="fill: #696969" transform="translate(36.462159 295.8375) scale(0.16 -0.16)">
       <defs>
        <path id="DejaVuSans-31" d="M 794 531 
L 1825 531 
L 1825 4091 
L 703 3866 
L 703 4441 
L 1819 4666 
L 2450 4666 
L 2450 531 
L 3481 531 
L 3481 0 
L 794 0 
L 794 531 
z
" transform="scale(0.015625)"/>
        <path id="DejaVuSans-2e" d="M 684 794 
L 1344 794 
L 1344 0 
L 684 0 
L 684 794 
z
" transform="scale(0.015625)"/>
       </defs>
       <use xlink:href="#DejaVuSans-2212"/>
       <use xlink:href="#DejaVuSans-31" x="83.789062"/>
       <use xlink:href="#DejaVuSans-2e" x="147.412109"/>
       <use xlink:href="#DejaVuSans-30" x="179.199219"/>
      </g>
     </g>
    </g>
    <g id="xtick_2">
     <g id="line2d_11">
      <g>
       <use xlink:href="#m8f5823aa4b" x="146.392955" y="276.68" style="fill: #696969; stroke: #696969; stroke-width: 0.8"/>
      </g>
     </g>
     <g id="text_5">
      <!-- −0.5 -->
      <g style="fill: #696969" transform="translate(126.966705 295.8375) scale(0.16 -0.16)">
       <use xlink:href="#DejaVuSans-2212"/>
       <use xlink:href="#DejaVuSans-30" x="83.789062"/>
       <use xlink:href="#DejaVuSans-2e" x="147.412109"/>
       <use xlink:href="#DejaVuSans-35" x="179.199219"/>
      </g>
     </g>
    </g>
    <g id="xtick_3">
     <g id="line2d_12">
      <g>
       <use xlink:href="#m8f5823aa4b" x="236.8975" y="276.68" style="fill: #696969; stroke: #696969; stroke-width: 0.8"/>
      </g>
     </g>
     <g id="text_6">
      <!-- 0.0 -->
      <g style="fill: #696969" transform="translate(224.175 295.8375) scale(0.16 -0.16)">
       <use xlink:href="#DejaVuSans-30"/>
       <use xlink:href="#DejaVuSans-2e" x="63.623047"/>
       <use xlink:href="#DejaVuSans-30" x="95.410156"/>
      </g>
     </g>
    </g>
    <g id="xtick_4">
     <g id="line2d_13">
      <g>
       <use xlink:href="#m8f5823aa4b" x="327.402045" y="276.68" style="fill: #696969; stroke: #696969; stroke-width: 0.8"/>
      </g>
     </g>
     <g id="text_7">
      <!-- 0.5 -->
      <g style="fill: #696969" transform="translate(314.679545 295.8375) scale(0.16 -0.16)">
       <use xlink:href="#DejaVuSans-30"/>
       <use xlink:href="#DejaVuSans-2e" x="63.623047"/>
       <use xlink:href="#DejaVuSans-35" x="95.410156"/>
      </g>
     </g>
    </g>
    <g id="xtick_5">
     <g id="line2d_14">
      <g>
       <use xlink:href="#m8f5823aa4b" x="417.906591" y="276.68" style="fill: #696969; stroke: #696969; stroke-width: 0.8"/>
      </g>
     </g>
     <g id="text_8">
      <!-- 1.0 -->
      <g style="fill: #696969" transform="translate(405.184091 295.8375) scale(0.16 -0.16)">
       <use xlink:href="#DejaVuSans-31"/>
       <use xlink:href="#DejaVuSans-2e" x="63.623047"/>
       <use xlink:href="#DejaVuSans-30" x="95.410156"/>
      </g>
     </g>
    </g>
    <g id="text_9">
     <!-- $X$ -->
     <g transform="translate(231.3775 315.3225) scale(0.16 -0.16)">
      <defs>
       <path id="DejaVuSans-Oblique-58" d="M 878 4666 
L 1516 4666 
L 2316 2981 
L 3763 4666 
L 4500 4666 
L 2578 2438 
L 3738 0 
L 3103 0 
L 2163 1966 
L 459 0 
L -275 0 
L 1906 2509 
L 878 4666 
z
" transform="scale(0.015625)"/>
      </defs>
      <use xlink:href="#DejaVuSans-Oblique-58" transform="translate(0 0.09375)"/>
     </g>
    </g>
   </g>
   <g id="matplotlib.axis_6">
    <g id="ytick_4">
     <g id="line2d_15">
      <g>
       <use xlink:href="#m957126c4dd" x="37.7875" y="248.659314" style="fill: #696969; stroke: #696969; stroke-width: 0.8"/>
      </g>
     </g>
     <g id="text_10">
      <!-- 0 -->
      <g style="fill: #696969" transform="translate(20.6075 254.738064) scale(0.16 -0.16)">
       <use xlink:href="#DejaVuSans-30"/>
      </g>
     </g>
    </g>
    <g id="ytick_5">
     <g id="line2d_16">
      <g>
       <use xlink:href="#m957126c4dd" x="37.7875" y="210.42723" style="fill: #696969; stroke: #696969; stroke-width: 0.8"/>
      </g>
     </g>
     <g id="text_11">
      <!-- 5 -->
      <g style="fill: #696969" transform="translate(20.6075 216.50598) scale(0.16 -0.16)">
       <use xlink:href="#DejaVuSans-35"/>
      </g>
     </g>
    </g>
   </g>
   <g id="line2d_17">
    <path d="M 55.888409 232.149437 
L 63.128773 231.082072 
L 70.369136 229.426816 
L 77.6095 227.350901 
L 84.849864 225.271607 
L 92.090227 223.710685 
L 99.330591 223.009127 
L 106.570955 223.147145 
L 113.811318 223.983709 
L 121.051682 225.479214 
L 128.292045 227.492753 
L 135.532409 229.69226 
L 142.772773 231.75899 
L 150.013136 233.503353 
L 157.2535 234.815249 
L 164.493864 235.579476 
L 171.734227 235.723844 
L 178.974591 235.394274 
L 186.214955 234.943664 
L 193.455318 234.693829 
L 200.695682 234.75291 
L 207.936045 235.019683 
L 215.176409 235.310836 
L 222.416773 235.503609 
L 229.657136 235.615699 
L 236.8975 235.795995 
L 244.137864 236.248339 
L 251.378227 237.134517 
L 258.618591 238.497643 
L 265.858955 240.22791 
L 273.099318 242.077576 
L 280.339682 243.731305 
L 287.580045 244.968541 
L 294.820409 245.955037 
L 302.060773 247.243186 
L 309.301136 248.517274 
L 316.5415 248.232962 
L 323.781864 246.537519 
L 331.022227 244.980252 
L 338.262591 244.324014 
L 345.502955 244.084509 
L 352.743318 243.049825 
L 359.983682 241.914993 
L 367.224045 242.106538 
L 374.464409 242.694748 
L 381.704773 242.600743 
L 388.945136 241.439505 
L 396.1855 239.740379 
L 403.425864 238.501779 
L 410.666227 237.995462 
L 417.906591 237.780098 
" clip-path="url(#p25836a5752)" style="fill: none; stroke: #696969; stroke-width: 2; stroke-linecap: square"/>
   </g>
   <g id="line2d_18">
    <path d="M 55.888409 228.286368 
L 63.128773 228.600858 
L 70.369136 228.915348 
L 77.6095 229.229838 
L 84.849864 229.544328 
L 92.090227 229.858818 
L 99.330591 230.173307 
L 106.570955 230.487797 
L 113.811318 230.802287 
L 121.051682 231.116777 
L 128.292045 231.431267 
L 135.532409 231.745756 
L 142.772773 232.060246 
L 150.013136 232.374736 
L 157.2535 232.689226 
L 164.493864 233.003716 
L 171.734227 233.318206 
L 178.974591 233.632695 
L 186.214955 233.947185 
L 193.455318 234.261675 
L 200.695682 234.576165 
L 207.936045 234.890655 
L 215.176409 235.205144 
L 222.416773 235.519634 
L 229.657136 235.834124 
L 236.8975 236.148614 
L 244.137864 236.463104 
L 251.378227 236.777594 
L 258.618591 237.092083 
L 265.858955 237.406573 
L 273.099318 237.721063 
L 280.339682 238.035553 
L 287.580045 238.350043 
L 294.820409 238.664532 
L 302.060773 238.979022 
L 309.301136 239.293512 
L 316.5415 239.608002 
L 323.781864 239.922492 
L 331.022227 240.236982 
L 338.262591 240.551471 
L 345.502955 240.865961 
L 352.743318 241.180451 
L 359.983682 241.494941 
L 367.224045 241.809431 
L 374.464409 242.12392 
L 381.704773 242.43841 
L 388.945136 242.7529 
L 396.1855 243.06739 
L 403.425864 243.38188 
L 410.666227 243.69637 
L 417.906591 244.010859 
" clip-path="url(#p25836a5752)" style="fill: none; stroke-dasharray: 7.4,3.2; stroke-dashoffset: 0; stroke: #79ad41; stroke-width: 2"/>
   </g>
   <g id="patch_9">
    <path d="M 37.7875 276.68 
L 37.7875 186.412946 
" style="fill: none; stroke: #000000; stroke-width: 0.8; stroke-linejoin: miter; stroke-linecap: square"/>
   </g>
   <g id="patch_10">
    <path d="M 436.0075 276.68 
L 436.0075 186.412946 
" style="fill: none; stroke: #000000; stroke-width: 0.8; stroke-linejoin: miter; stroke-linecap: square"/>
   </g>
   <g id="patch_11">
    <path d="M 37.7875 276.68 
L 436.0075 276.68 
" style="fill: none; stroke: #000000; stroke-width: 0.8; stroke-linejoin: miter; stroke-linecap: square"/>
   </g>
   <g id="patch_12">
    <path d="M 37.7875 186.412946 
L 436.0075 186.412946 
" style="fill: none; stroke: #000000; stroke-width: 0.8; stroke-linejoin: miter; stroke-linecap: square"/>
   </g>
  </g>
 </g>
 <defs>
  <clipPath id="pe80003a7af">
   <rect x="37.7875" y="7.2" width="398.22" height="45.133527"/>
  </clipPath>
  <clipPath id="p845870d244">
   <rect x="37.7875" y="74.23971" width="398.22" height="90.267054"/>
  </clipPath>
  <clipPath id="p25836a5752">
   <rect x="37.7875" y="186.412946" width="398.22" height="90.267054"/>
  </clipPath>
 </defs>
</svg>
