<?xml version="1.0" encoding="utf-8" standalone="no"?>
<!DOCTYPE svg PUBLIC "-//W3C//DTD SVG 1.1//EN"
  "http://www.w3.org/Graphics/SVG/1.1/DTD/svg11.dtd">
<svg xmlns:xlink="http://www.w3.org/1999/xlink" width="443.2625pt" height="325.85pt" viewBox="0 0 443.2625 325.85" xmlns="http://www.w3.org/2000/svg" version="1.1">
 <metadata>
  <rdf:RDF xmlns:dc="http://purl.org/dc/elements/1.1/" xmlns:cc="http://creativecommons.org/ns#" xmlns:rdf="http://www.w3.org/1999/02/22-rdf-syntax-ns#">
   <cc:Work>
    <dc:type rdf:resource="http://purl.org/dc/dcmitype/StillImage"/>
    <dc:date>2024-01-28T20:57:06.002212</dc:date>
    <dc:format>image/svg+xml</dc:format>
    <dc:creator>
     <cc:Agent>
      <dc:title>Matplotlib v3.7.2, https://matplotlib.org/</dc:title>
     </cc:Agent>
    </dc:creator>
   </cc:Work>
  </rdf:RDF>
 </metadata>
 <defs>
  <style type="text/css">*{stroke-linejoin: round; stroke-linecap: butt}</style>
 </defs>
 <g id="figure_1">
  <g id="patch_1">
   <path d="M 0 325.85 
L 443.2625 325.85 
L 443.2625 0 
L 0 0 
z
" style="fill: #ffffff"/>
  </g>
  <g id="axes_1">
   <g id="patch_2">
    <path d="M 53.0525 54.696 
L 436.0625 54.696 
L 436.0625 7.2 
L 53.0525 7.2 
z
" style="fill: #ffffff"/>
   </g>
   <g id="PolyCollection_1">
    <defs>
     <path id="m4bf1c556af" d="M 70.462045 -273.312909 
L 70.462045 -309.713679 
L 77.425864 -309.464067 
L 84.389682 -309.142771 
L 91.3535 -308.751743 
L 98.317318 -308.293036 
L 105.281136 -307.769001 
L 112.244955 -307.182524 
L 119.208773 -306.537201 
L 126.172591 -305.837567 
L 133.136409 -305.089166 
L 140.100227 -304.298677 
L 147.064045 -303.473919 
L 154.027864 -302.623792 
L 160.991682 -301.758158 
L 167.9555 -300.887633 
L 174.919318 -300.023381 
L 181.883136 -299.176806 
L 188.846955 -298.35927 
L 195.810773 -297.581871 
L 202.774591 -296.855179 
L 209.738409 -296.189107 
L 216.702227 -295.592786 
L 223.666045 -295.074577 
L 230.629864 -294.642089 
L 237.593682 -294.302275 
L 244.5575 -294.061552 
L 251.521318 -293.925956 
L 258.485136 -293.901238 
L 265.448955 -293.992968 
L 272.412773 -294.206553 
L 279.376591 -294.547168 
L 286.340409 -295.019563 
L 293.304227 -295.627723 
L 300.268045 -296.374402 
L 307.231864 -297.260447 
L 314.195682 -298.284002 
L 321.1595 -299.439651 
L 328.123318 -300.717584 
L 335.087136 -302.102906 
L 342.050955 -303.575371 
L 349.014773 -305.109622 
L 355.978591 -306.676111 
L 362.942409 -308.24272 
L 369.906227 -309.776886 
L 376.870045 -311.248002 
L 383.833864 -312.629657 
L 390.797682 -313.901369 
L 397.7615 -315.049569 
L 404.725318 -316.067706 
L 411.689136 -316.491091 
L 418.652955 -316.491091 
L 418.652955 -273.312909 
L 418.652955 -273.312909 
L 411.689136 -273.312909 
L 404.725318 -273.312909 
L 397.7615 -273.312909 
L 390.797682 -273.312909 
L 383.833864 -273.312909 
L 376.870045 -273.312909 
L 369.906227 -273.312909 
L 362.942409 -273.312909 
L 355.978591 -273.312909 
L 349.014773 -273.312909 
L 342.050955 -273.312909 
L 335.087136 -273.312909 
L 328.123318 -273.312909 
L 321.1595 -273.312909 
L 314.195682 -273.312909 
L 307.231864 -273.312909 
L 300.268045 -273.312909 
L 293.304227 -273.312909 
L 286.340409 -273.312909 
L 279.376591 -273.312909 
L 272.412773 -273.312909 
L 265.448955 -273.312909 
L 258.485136 -273.312909 
L 251.521318 -273.312909 
L 244.5575 -273.312909 
L 237.593682 -273.312909 
L 230.629864 -273.312909 
L 223.666045 -273.312909 
L 216.702227 -273.312909 
L 209.738409 -273.312909 
L 202.774591 -273.312909 
L 195.810773 -273.312909 
L 188.846955 -273.312909 
L 181.883136 -273.312909 
L 174.919318 -273.312909 
L 167.9555 -273.312909 
L 160.991682 -273.312909 
L 154.027864 -273.312909 
L 147.064045 -273.312909 
L 140.100227 -273.312909 
L 133.136409 -273.312909 
L 126.172591 -273.312909 
L 119.208773 -273.312909 
L 112.244955 -273.312909 
L 105.281136 -273.312909 
L 98.317318 -273.312909 
L 91.3535 -273.312909 
L 84.389682 -273.312909 
L 77.425864 -273.312909 
L 70.462045 -273.312909 
z
" style="stroke: #dc143c; stroke-opacity: 0.2"/>
    </defs>
    <g clip-path="url(#pff2e8309cd)">
     <use xlink:href="#m4bf1c556af" x="0" y="325.85" style="fill: #dc143c; fill-opacity: 0.2; stroke: #dc143c; stroke-opacity: 0.2"/>
    </g>
   </g>
   <g id="PolyCollection_2">
    <defs>
     <path id="mbba135ac03" d="M 70.462045 -273.312909 
L 70.462045 -284.887897 
L 77.425864 -285.137509 
L 84.389682 -285.458805 
L 91.3535 -285.849832 
L 98.317318 -286.30854 
L 105.281136 -286.832574 
L 112.244955 -287.419052 
L 119.208773 -288.064375 
L 126.172591 -288.764009 
L 133.136409 -289.51241 
L 140.100227 -290.302898 
L 147.064045 -291.127657 
L 154.027864 -291.977783 
L 160.991682 -292.843417 
L 167.9555 -293.713943 
L 174.919318 -294.578195 
L 181.883136 -295.42477 
L 188.846955 -296.242306 
L 195.810773 -297.019704 
L 202.774591 -297.746397 
L 209.738409 -298.412469 
L 216.702227 -299.00879 
L 223.666045 -299.526999 
L 230.629864 -299.959486 
L 237.593682 -300.299301 
L 244.5575 -300.540024 
L 251.521318 -300.67562 
L 258.485136 -300.700338 
L 265.448955 -300.608608 
L 272.412773 -300.395022 
L 279.376591 -300.054408 
L 286.340409 -299.582013 
L 293.304227 -298.973853 
L 300.268045 -298.227174 
L 307.231864 -297.341128 
L 314.195682 -296.317574 
L 321.1595 -295.161925 
L 328.123318 -293.883992 
L 335.087136 -292.49867 
L 342.050955 -291.026205 
L 349.014773 -289.491954 
L 355.978591 -287.925464 
L 362.942409 -286.358856 
L 369.906227 -284.82469 
L 376.870045 -283.353574 
L 383.833864 -281.971919 
L 390.797682 -280.700207 
L 397.7615 -279.552006 
L 404.725318 -278.53387 
L 411.689136 -278.110485 
L 418.652955 -278.110485 
L 418.652955 -273.312909 
L 418.652955 -273.312909 
L 411.689136 -273.312909 
L 404.725318 -273.312909 
L 397.7615 -273.312909 
L 390.797682 -273.312909 
L 383.833864 -273.312909 
L 376.870045 -273.312909 
L 369.906227 -273.312909 
L 362.942409 -273.312909 
L 355.978591 -273.312909 
L 349.014773 -273.312909 
L 342.050955 -273.312909 
L 335.087136 -273.312909 
L 328.123318 -273.312909 
L 321.1595 -273.312909 
L 314.195682 -273.312909 
L 307.231864 -273.312909 
L 300.268045 -273.312909 
L 293.304227 -273.312909 
L 286.340409 -273.312909 
L 279.376591 -273.312909 
L 272.412773 -273.312909 
L 265.448955 -273.312909 
L 258.485136 -273.312909 
L 251.521318 -273.312909 
L 244.5575 -273.312909 
L 237.593682 -273.312909 
L 230.629864 -273.312909 
L 223.666045 -273.312909 
L 216.702227 -273.312909 
L 209.738409 -273.312909 
L 202.774591 -273.312909 
L 195.810773 -273.312909 
L 188.846955 -273.312909 
L 181.883136 -273.312909 
L 174.919318 -273.312909 
L 167.9555 -273.312909 
L 160.991682 -273.312909 
L 154.027864 -273.312909 
L 147.064045 -273.312909 
L 140.100227 -273.312909 
L 133.136409 -273.312909 
L 126.172591 -273.312909 
L 119.208773 -273.312909 
L 112.244955 -273.312909 
L 105.281136 -273.312909 
L 98.317318 -273.312909 
L 91.3535 -273.312909 
L 84.389682 -273.312909 
L 77.425864 -273.312909 
L 70.462045 -273.312909 
z
" style="stroke: #000080; stroke-opacity: 0.2"/>
    </defs>
    <g clip-path="url(#pff2e8309cd)">
     <use xlink:href="#mbba135ac03" x="0" y="325.85" style="fill: #000080; fill-opacity: 0.2; stroke: #000080; stroke-opacity: 0.2"/>
    </g>
   </g>
   <g id="matplotlib.axis_1"/>
   <g id="matplotlib.axis_2"/>
   <g id="line2d_1">
    <path d="M 70.462045 16.136321 
L 77.425864 16.385933 
L 84.389682 16.707229 
L 91.3535 17.098257 
L 98.317318 17.556964 
L 105.281136 18.080999 
L 112.244955 18.667476 
L 119.208773 19.312799 
L 126.172591 20.012433 
L 133.136409 20.760834 
L 140.100227 21.551323 
L 147.064045 22.376081 
L 154.027864 23.226208 
L 160.991682 24.091842 
L 167.9555 24.962367 
L 174.919318 25.826619 
L 181.883136 26.673194 
L 188.846955 27.49073 
L 195.810773 28.268129 
L 202.774591 28.994821 
L 209.738409 29.660893 
L 216.702227 30.257214 
L 223.666045 30.775423 
L 230.629864 31.207911 
L 237.593682 31.547725 
L 244.5575 31.788448 
L 251.521318 31.924044 
L 258.485136 31.948762 
L 265.448955 31.857032 
L 272.412773 31.643447 
L 279.376591 31.302832 
L 286.340409 30.830437 
L 293.304227 30.222277 
L 300.268045 29.475598 
L 307.231864 28.589553 
L 314.195682 27.565998 
L 321.1595 26.410349 
L 328.123318 25.132416 
L 335.087136 23.747094 
L 342.050955 22.274629 
L 349.014773 20.740378 
L 355.978591 19.173889 
L 362.942409 17.60728 
L 369.906227 16.073114 
L 376.870045 14.601998 
L 383.833864 13.220343 
L 390.797682 11.948631 
L 397.7615 10.800431 
L 404.725318 9.782294 
L 411.689136 9.358909 
L 418.652955 9.358909 
" clip-path="url(#pff2e8309cd)" style="fill: none; stroke: #dc143c; stroke-width: 1.5; stroke-linecap: square"/>
   </g>
   <g id="line2d_2">
    <path d="M 70.462045 40.962103 
L 77.425864 40.712491 
L 84.389682 40.391195 
L 91.3535 40.000168 
L 98.317318 39.54146 
L 105.281136 39.017426 
L 112.244955 38.430948 
L 119.208773 37.785625 
L 126.172591 37.085991 
L 133.136409 36.33759 
L 140.100227 35.547102 
L 147.064045 34.722343 
L 154.027864 33.872217 
L 160.991682 33.006583 
L 167.9555 32.136057 
L 174.919318 31.271805 
L 181.883136 30.42523 
L 188.846955 29.607694 
L 195.810773 28.830296 
L 202.774591 28.103603 
L 209.738409 27.437531 
L 216.702227 26.84121 
L 223.666045 26.323001 
L 230.629864 25.890514 
L 237.593682 25.550699 
L 244.5575 25.309976 
L 251.521318 25.17438 
L 258.485136 25.149662 
L 265.448955 25.241392 
L 272.412773 25.454978 
L 279.376591 25.795592 
L 286.340409 26.267987 
L 293.304227 26.876147 
L 300.268045 27.622826 
L 307.231864 28.508872 
L 314.195682 29.532426 
L 321.1595 30.688075 
L 328.123318 31.966008 
L 335.087136 33.35133 
L 342.050955 34.823795 
L 349.014773 36.358046 
L 355.978591 37.924536 
L 362.942409 39.491144 
L 369.906227 41.02531 
L 376.870045 42.496426 
L 383.833864 43.878081 
L 390.797682 45.149793 
L 397.7615 46.297994 
L 404.725318 47.31613 
L 411.689136 47.739515 
L 418.652955 47.739515 
" clip-path="url(#pff2e8309cd)" style="fill: none; stroke: #000080; stroke-width: 1.5; stroke-linecap: square"/>
   </g>
  </g>
  <g id="axes_2">
   <g id="patch_3">
    <path d="M 53.0525 165.688 
L 436.0625 165.688 
L 436.0625 70.696 
L 53.0525 70.696 
z
" style="fill: #ffffff"/>
   </g>
   <g id="PathCollection_1">
    <defs>
     <path id="m3c8b4fec59" d="M 0 0.866025 
C 0.229673 0.866025 0.449969 0.774776 0.612372 0.612372 
C 0.774776 0.449969 0.866025 0.229673 0.866025 0 
C 0.866025 -0.229673 0.774776 -0.449969 0.612372 -0.612372 
C 0.449969 -0.774776 0.229673 -0.866025 0 -0.866025 
C -0.229673 -0.866025 -0.449969 -0.774776 -0.612372 -0.612372 
C -0.774776 -0.449969 -0.866025 -0.229673 -0.866025 0 
C -0.866025 0.229673 -0.774776 0.449969 -0.612372 0.612372 
C -0.449969 0.774776 -0.229673 0.866025 0 0.866025 
z
" style="stroke: #daa520"/>
    </defs>
    <g clip-path="url(#p25b95581a5)">
     <use xlink:href="#m3c8b4fec59" x="404.176587" y="103.517171" style="fill: #daa520; stroke: #daa520"/>
     <use xlink:href="#m3c8b4fec59" x="409.908769" y="134.750644" style="fill: #daa520; stroke: #daa520"/>
     <use xlink:href="#m3c8b4fec59" x="384.027972" y="116.718272" style="fill: #daa520; stroke: #daa520"/>
     <use xlink:href="#m3c8b4fec59" x="378.46506" y="120.467987" style="fill: #daa520; stroke: #daa520"/>
     <use xlink:href="#m3c8b4fec59" x="83.551901" y="153.442323" style="fill: #daa520; stroke: #daa520"/>
     <use xlink:href="#m3c8b4fec59" x="256.075153" y="95.942108" style="fill: #daa520; stroke: #daa520"/>
     <use xlink:href="#m3c8b4fec59" x="357.619769" y="93.517345" style="fill: #daa520; stroke: #daa520"/>
     <use xlink:href="#m3c8b4fec59" x="160.169627" y="129.704193" style="fill: #daa520; stroke: #daa520"/>
     <use xlink:href="#m3c8b4fec59" x="154.194398" y="131.520449" style="fill: #daa520; stroke: #daa520"/>
     <use xlink:href="#m3c8b4fec59" x="170.17553" y="108.445955" style="fill: #daa520; stroke: #daa520"/>
     <use xlink:href="#m3c8b4fec59" x="367.443644" y="110.474798" style="fill: #daa520; stroke: #daa520"/>
     <use xlink:href="#m3c8b4fec59" x="313.844228" y="107.402657" style="fill: #daa520; stroke: #daa520"/>
     <use xlink:href="#m3c8b4fec59" x="267.503506" y="110.575121" style="fill: #daa520; stroke: #daa520"/>
     <use xlink:href="#m3c8b4fec59" x="406.085432" y="135.637608" style="fill: #daa520; stroke: #daa520"/>
     <use xlink:href="#m3c8b4fec59" x="416.371492" y="104.366706" style="fill: #daa520; stroke: #daa520"/>
     <use xlink:href="#m3c8b4fec59" x="99.93091" y="154.758292" style="fill: #daa520; stroke: #daa520"/>
     <use xlink:href="#m3c8b4fec59" x="109.124646" y="155.912494" style="fill: #daa520; stroke: #daa520"/>
     <use xlink:href="#m3c8b4fec59" x="253.370078" y="94.076682" style="fill: #daa520; stroke: #daa520"/>
     <use xlink:href="#m3c8b4fec59" x="341.500212" y="106.012077" style="fill: #daa520; stroke: #daa520"/>
     <use xlink:href="#m3c8b4fec59" x="236.499787" y="95.015414" style="fill: #daa520; stroke: #daa520"/>
     <use xlink:href="#m3c8b4fec59" x="140.774089" y="130.203844" style="fill: #daa520; stroke: #daa520"/>
     <use xlink:href="#m3c8b4fec59" x="115.235162" y="138.989814" style="fill: #daa520; stroke: #daa520"/>
     <use xlink:href="#m3c8b4fec59" x="183.656609" y="118.437378" style="fill: #daa520; stroke: #daa520"/>
     <use xlink:href="#m3c8b4fec59" x="163.126847" y="120.802111" style="fill: #daa520; stroke: #daa520"/>
     <use xlink:href="#m3c8b4fec59" x="290.978831" y="118.896996" style="fill: #daa520; stroke: #daa520"/>
     <use xlink:href="#m3c8b4fec59" x="266.398333" y="104.587504" style="fill: #daa520; stroke: #daa520"/>
     <use xlink:href="#m3c8b4fec59" x="384.833932" y="129.088262" style="fill: #daa520; stroke: #daa520"/>
     <use xlink:href="#m3c8b4fec59" x="331.790503" y="107.73296" style="fill: #daa520; stroke: #daa520"/>
     <use xlink:href="#m3c8b4fec59" x="178.844073" y="125.387267" style="fill: #daa520; stroke: #daa520"/>
     <use xlink:href="#m3c8b4fec59" x="368.288265" y="101.589281" style="fill: #daa520; stroke: #daa520"/>
     <use xlink:href="#m3c8b4fec59" x="369.9025" y="117.155604" style="fill: #daa520; stroke: #daa520"/>
     <use xlink:href="#m3c8b4fec59" x="343.364893" y="107.268211" style="fill: #daa520; stroke: #daa520"/>
     <use xlink:href="#m3c8b4fec59" x="154.042445" y="133.134341" style="fill: #daa520; stroke: #daa520"/>
     <use xlink:href="#m3c8b4fec59" x="399.309128" y="132.090839" style="fill: #daa520; stroke: #daa520"/>
     <use xlink:href="#m3c8b4fec59" x="394.314455" y="105.240778" style="fill: #daa520; stroke: #daa520"/>
     <use xlink:href="#m3c8b4fec59" x="374.147316" y="94.615006" style="fill: #daa520; stroke: #daa520"/>
     <use xlink:href="#m3c8b4fec59" x="410.859543" y="104.883775" style="fill: #daa520; stroke: #daa520"/>
     <use xlink:href="#m3c8b4fec59" x="123.45153" y="152.312383" style="fill: #daa520; stroke: #daa520"/>
     <use xlink:href="#m3c8b4fec59" x="274.956968" y="102.980885" style="fill: #daa520; stroke: #daa520"/>
     <use xlink:href="#m3c8b4fec59" x="133.009431" y="144.548836" style="fill: #daa520; stroke: #daa520"/>
     <use xlink:href="#m3c8b4fec59" x="95.079648" y="151.450557" style="fill: #daa520; stroke: #daa520"/>
     <use xlink:href="#m3c8b4fec59" x="87.049283" y="150.986048" style="fill: #daa520; stroke: #daa520"/>
     <use xlink:href="#m3c8b4fec59" x="143.775295" y="137.037292" style="fill: #daa520; stroke: #daa520"/>
     <use xlink:href="#m3c8b4fec59" x="233.331633" y="82.407425" style="fill: #daa520; stroke: #daa520"/>
     <use xlink:href="#m3c8b4fec59" x="371.801508" y="90.137472" style="fill: #daa520; stroke: #daa520"/>
     <use xlink:href="#m3c8b4fec59" x="196.721237" y="87.307919" style="fill: #daa520; stroke: #daa520"/>
     <use xlink:href="#m3c8b4fec59" x="206.808344" y="98.324358" style="fill: #daa520; stroke: #daa520"/>
     <use xlink:href="#m3c8b4fec59" x="136.461485" y="145.846409" style="fill: #daa520; stroke: #daa520"/>
     <use xlink:href="#m3c8b4fec59" x="343.467498" y="99.379628" style="fill: #daa520; stroke: #daa520"/>
     <use xlink:href="#m3c8b4fec59" x="162.666361" y="123.43261" style="fill: #daa520; stroke: #daa520"/>
     <use xlink:href="#m3c8b4fec59" x="378.629292" y="101.966485" style="fill: #daa520; stroke: #daa520"/>
     <use xlink:href="#m3c8b4fec59" x="283.241933" y="118.437349" style="fill: #daa520; stroke: #daa520"/>
     <use xlink:href="#m3c8b4fec59" x="375.509988" y="121.969206" style="fill: #daa520; stroke: #daa520"/>
     <use xlink:href="#m3c8b4fec59" x="404.642204" y="90.106267" style="fill: #daa520; stroke: #daa520"/>
     <use xlink:href="#m3c8b4fec59" x="295.052294" y="114.406492" style="fill: #daa520; stroke: #daa520"/>
     <use xlink:href="#m3c8b4fec59" x="85.443662" y="156.599431" style="fill: #daa520; stroke: #daa520"/>
     <use xlink:href="#m3c8b4fec59" x="384.905691" y="129.059831" style="fill: #daa520; stroke: #daa520"/>
     <use xlink:href="#m3c8b4fec59" x="247.721975" y="90.709612" style="fill: #daa520; stroke: #daa520"/>
     <use xlink:href="#m3c8b4fec59" x="114.511396" y="148.145807" style="fill: #daa520; stroke: #daa520"/>
     <use xlink:href="#m3c8b4fec59" x="233.045165" y="94.031393" style="fill: #daa520; stroke: #daa520"/>
     <use xlink:href="#m3c8b4fec59" x="289.842941" y="108.055447" style="fill: #daa520; stroke: #daa520"/>
     <use xlink:href="#m3c8b4fec59" x="350.943336" y="103.722535" style="fill: #daa520; stroke: #daa520"/>
     <use xlink:href="#m3c8b4fec59" x="135.681866" y="145.507501" style="fill: #daa520; stroke: #daa520"/>
     <use xlink:href="#m3c8b4fec59" x="361.023892" y="92.976202" style="fill: #daa520; stroke: #daa520"/>
     <use xlink:href="#m3c8b4fec59" x="310.33898" y="112.613492" style="fill: #daa520; stroke: #daa520"/>
     <use xlink:href="#m3c8b4fec59" x="371.828227" y="118.8904" style="fill: #daa520; stroke: #daa520"/>
     <use xlink:href="#m3c8b4fec59" x="283.414623" y="106.535676" style="fill: #daa520; stroke: #daa520"/>
     <use xlink:href="#m3c8b4fec59" x="399.548003" y="111.575431" style="fill: #daa520; stroke: #daa520"/>
     <use xlink:href="#m3c8b4fec59" x="350.582701" y="106.796595" style="fill: #daa520; stroke: #daa520"/>
     <use xlink:href="#m3c8b4fec59" x="124.781153" y="135.016866" style="fill: #daa520; stroke: #daa520"/>
     <use xlink:href="#m3c8b4fec59" x="399.670015" y="113.383907" style="fill: #daa520; stroke: #daa520"/>
     <use xlink:href="#m3c8b4fec59" x="328.846654" y="103.162849" style="fill: #daa520; stroke: #daa520"/>
     <use xlink:href="#m3c8b4fec59" x="187.658255" y="107.823002" style="fill: #daa520; stroke: #daa520"/>
     <use xlink:href="#m3c8b4fec59" x="191.417944" y="115.458296" style="fill: #daa520; stroke: #daa520"/>
     <use xlink:href="#m3c8b4fec59" x="335.612843" y="106.944701" style="fill: #daa520; stroke: #daa520"/>
     <use xlink:href="#m3c8b4fec59" x="176.99093" y="121.20965" style="fill: #daa520; stroke: #daa520"/>
     <use xlink:href="#m3c8b4fec59" x="361.321612" y="92.544092" style="fill: #daa520; stroke: #daa520"/>
     <use xlink:href="#m3c8b4fec59" x="380.182252" y="125.91462" style="fill: #daa520; stroke: #daa520"/>
     <use xlink:href="#m3c8b4fec59" x="408.624576" y="123.848833" style="fill: #daa520; stroke: #daa520"/>
     <use xlink:href="#m3c8b4fec59" x="320.866683" y="107.832544" style="fill: #daa520; stroke: #daa520"/>
     <use xlink:href="#m3c8b4fec59" x="220.357414" y="75.013818" style="fill: #daa520; stroke: #daa520"/>
     <use xlink:href="#m3c8b4fec59" x="116.172516" y="139.630949" style="fill: #daa520; stroke: #daa520"/>
     <use xlink:href="#m3c8b4fec59" x="378.178331" y="121.919916" style="fill: #daa520; stroke: #daa520"/>
     <use xlink:href="#m3c8b4fec59" x="370.751835" y="109.275306" style="fill: #daa520; stroke: #daa520"/>
     <use xlink:href="#m3c8b4fec59" x="384.638999" y="127.230316" style="fill: #daa520; stroke: #daa520"/>
     <use xlink:href="#m3c8b4fec59" x="324.460764" y="110.361183" style="fill: #daa520; stroke: #daa520"/>
     <use xlink:href="#m3c8b4fec59" x="237.282514" y="85.409163" style="fill: #daa520; stroke: #daa520"/>
     <use xlink:href="#m3c8b4fec59" x="129.094575" y="138.213173" style="fill: #daa520; stroke: #daa520"/>
     <use xlink:href="#m3c8b4fec59" x="325.873593" y="104.371955" style="fill: #daa520; stroke: #daa520"/>
     <use xlink:href="#m3c8b4fec59" x="125.034665" y="134.599789" style="fill: #daa520; stroke: #daa520"/>
    </g>
   </g>
   <g id="matplotlib.axis_3"/>
   <g id="matplotlib.axis_4">
    <g id="ytick_1">
     <g id="line2d_3">
      <defs>
       <path id="m61fce6852a" d="M 0 0 
L -3.5 0 
" style="stroke: #696969; stroke-width: 0.8"/>
      </defs>
      <g>
       <use xlink:href="#m61fce6852a" x="53.0525" y="153.092675" style="fill: #696969; stroke: #696969; stroke-width: 0.8"/>
      </g>
     </g>
     <g id="text_1">
      <!-- −5 -->
      <g style="fill: #696969" transform="translate(22.465 159.171425) scale(0.16 -0.16)">
       <defs>
        <path id="DejaVuSans-2212" d="M 678 2272 
L 4684 2272 
L 4684 1741 
L 678 1741 
L 678 2272 
z
" transform="scale(0.015625)"/>
        <path id="DejaVuSans-35" d="M 691 4666 
L 3169 4666 
L 3169 4134 
L 1269 4134 
L 1269 2991 
Q 1406 3038 1543 3061 
Q 1681 3084 1819 3084 
Q 2600 3084 3056 2656 
Q 3513 2228 3513 1497 
Q 3513 744 3044 326 
Q 2575 -91 1722 -91 
Q 1428 -91 1123 -41 
Q 819 9 494 109 
L 494 744 
Q 775 591 1075 516 
Q 1375 441 1709 441 
Q 2250 441 2565 725 
Q 2881 1009 2881 1497 
Q 2881 1984 2565 2268 
Q 2250 2553 1709 2553 
Q 1456 2553 1204 2497 
Q 953 2441 691 2322 
L 691 4666 
z
" transform="scale(0.015625)"/>
       </defs>
       <use xlink:href="#DejaVuSans-2212"/>
       <use xlink:href="#DejaVuSans-35" x="83.789062"/>
      </g>
     </g>
    </g>
    <g id="ytick_2">
     <g id="line2d_4">
      <g>
       <use xlink:href="#m61fce6852a" x="53.0525" y="122.566185" style="fill: #696969; stroke: #696969; stroke-width: 0.8"/>
      </g>
     </g>
     <g id="text_2">
      <!-- 0 -->
      <g style="fill: #696969" transform="translate(35.8725 128.644935) scale(0.16 -0.16)">
       <defs>
        <path id="DejaVuSans-30" d="M 2034 4250 
Q 1547 4250 1301 3770 
Q 1056 3291 1056 2328 
Q 1056 1369 1301 889 
Q 1547 409 2034 409 
Q 2525 409 2770 889 
Q 3016 1369 3016 2328 
Q 3016 3291 2770 3770 
Q 2525 4250 2034 4250 
z
M 2034 4750 
Q 2819 4750 3233 4129 
Q 3647 3509 3647 2328 
Q 3647 1150 3233 529 
Q 2819 -91 2034 -91 
Q 1250 -91 836 529 
Q 422 1150 422 2328 
Q 422 3509 836 4129 
Q 1250 4750 2034 4750 
z
" transform="scale(0.015625)"/>
       </defs>
       <use xlink:href="#DejaVuSans-30"/>
      </g>
     </g>
    </g>
    <g id="ytick_3">
     <g id="line2d_5">
      <g>
       <use xlink:href="#m61fce6852a" x="53.0525" y="92.039696" style="fill: #696969; stroke: #696969; stroke-width: 0.8"/>
      </g>
     </g>
     <g id="text_3">
      <!-- 5 -->
      <g style="fill: #696969" transform="translate(35.8725 98.118446) scale(0.16 -0.16)">
       <use xlink:href="#DejaVuSans-35"/>
      </g>
     </g>
    </g>
   </g>
   <g id="line2d_6">
    <path d="M 70.462045 161.370182 
L 77.425864 159.455822 
L 84.389682 157.519205 
L 91.3535 155.660435 
L 98.317318 153.851465 
L 105.281136 152.002031 
L 112.244955 150.023808 
L 119.208773 147.861285 
L 126.172591 145.484613 
L 133.136409 142.859767 
L 140.100227 139.918161 
L 147.064045 136.545941 
L 154.027864 132.606605 
L 160.991682 127.998744 
L 167.9555 122.732179 
L 174.919318 116.987966 
L 181.883136 111.124837 
L 188.846955 105.615505 
L 195.810773 100.932312 
L 202.774591 97.430097 
L 209.738409 95.275067 
L 216.702227 94.441925 
L 223.666045 94.766347 
L 230.629864 96.017633 
L 237.593682 97.956417 
L 244.5575 100.359253 
L 251.521318 103.013376 
L 258.485136 105.700221 
L 265.448955 108.189392 
L 272.412773 110.255425 
L 279.376591 111.71361 
L 286.340409 112.458214 
L 293.304227 112.48405 
L 300.268045 111.880633 
L 307.231864 110.801406 
L 314.195682 109.421432 
L 321.1595 107.902221 
L 328.123318 106.379562 
L 335.087136 104.978853 
L 342.050955 103.844175 
L 349.014773 103.152271 
L 355.978591 103.083602 
L 362.942409 103.747124 
L 369.906227 105.09265 
L 376.870045 106.868682 
L 383.833864 108.670502 
L 390.797682 110.073692 
L 397.7615 110.792123 
L 404.725318 110.776654 
L 411.689136 110.200313 
L 418.652955 109.339289 
" clip-path="url(#p25b95581a5)" style="fill: none; stroke: #000000; stroke-width: 2; stroke-linecap: square"/>
   </g>
   <g id="line2d_7">
    <path d="M 70.462045 135.185438 
L 77.425864 134.539929 
L 84.389682 133.89442 
L 91.3535 133.248911 
L 98.317318 132.603402 
L 105.281136 131.957893 
L 112.244955 131.312384 
L 119.208773 130.666875 
L 126.172591 130.021366 
L 133.136409 129.375857 
L 140.100227 128.730348 
L 147.064045 128.084839 
L 154.027864 127.43933 
L 160.991682 126.793821 
L 167.9555 126.148312 
L 174.919318 125.502803 
L 181.883136 124.857294 
L 188.846955 124.211785 
L 195.810773 123.566276 
L 202.774591 122.920767 
L 209.738409 122.275258 
L 216.702227 121.629749 
L 223.666045 120.98424 
L 230.629864 120.338731 
L 237.593682 119.693222 
L 244.5575 119.047713 
L 251.521318 118.402204 
L 258.485136 117.756695 
L 265.448955 117.111186 
L 272.412773 116.465677 
L 279.376591 115.820168 
L 286.340409 115.174659 
L 293.304227 114.52915 
L 300.268045 113.883641 
L 307.231864 113.238132 
L 314.195682 112.592623 
L 321.1595 111.947114 
L 328.123318 111.301605 
L 335.087136 110.656096 
L 342.050955 110.010587 
L 349.014773 109.365078 
L 355.978591 108.719569 
L 362.942409 108.07406 
L 369.906227 107.428551 
L 376.870045 106.783042 
L 383.833864 106.137533 
L 390.797682 105.492024 
L 397.7615 104.846515 
L 404.725318 104.201006 
L 411.689136 103.555497 
L 418.652955 102.909988 
" clip-path="url(#p25b95581a5)" style="fill: none; stroke-dasharray: 7.4,3.2; stroke-dashoffset: 0; stroke: #34b6c6; stroke-width: 2"/>
   </g>
   <g id="line2d_8">
    <path d="M 70.462045 158.186805 
L 77.425864 157.438214 
L 84.389682 156.201432 
L 91.3535 154.419416 
L 98.317318 152.225223 
L 105.281136 149.920364 
L 112.244955 147.730481 
L 119.208773 145.61039 
L 126.172591 143.311795 
L 133.136409 140.595471 
L 140.100227 137.403495 
L 147.064045 133.834442 
L 154.027864 129.890945 
L 160.991682 125.320409 
L 167.9555 119.783825 
L 174.919318 113.267196 
L 181.883136 106.582545 
L 188.846955 100.673072 
L 195.810773 95.54754 
L 202.774591 91.343505 
L 209.738409 88.856637 
L 216.702227 88.115626 
L 223.666045 88.866777 
L 230.629864 91.264389 
L 237.593682 94.095348 
L 244.5575 96.64018 
L 251.521318 99.734647 
L 258.485136 103.742985 
L 265.448955 107.61428 
L 272.412773 110.100359 
L 279.376591 111.431279 
L 286.340409 112.142435 
L 293.304227 112.487023 
L 300.268045 112.503134 
L 307.231864 112.036546 
L 314.195682 110.767195 
L 321.1595 108.704236 
L 328.123318 106.711572 
L 335.087136 105.552451 
L 342.050955 105.238401 
L 349.014773 105.551354 
L 355.978591 106.359992 
L 362.942409 107.604633 
L 369.906227 109.185166 
L 376.870045 110.871575 
L 383.833864 112.383032 
L 390.797682 113.573921 
L 397.7615 114.466215 
L 404.725318 115.146794 
L 411.689136 115.693538 
L 418.652955 116.1584 
" clip-path="url(#p25b95581a5)" style="fill: none; stroke-dasharray: 7.4,3.2; stroke-dashoffset: 0; stroke: #9370db; stroke-width: 2"/>
   </g>
   <g id="line2d_9">
    <path d="M 70.462045 160.071026 
L 77.425864 159.158027 
L 84.389682 157.823781 
L 91.3535 156.019068 
L 98.317318 153.858697 
L 105.281136 151.602836 
L 112.244955 149.446185 
L 119.208773 147.349755 
L 126.172591 145.099298 
L 133.136409 142.488396 
L 140.100227 139.467064 
L 147.064045 136.120363 
L 154.027864 132.450564 
L 160.991682 128.23971 
L 167.9555 123.195279 
L 174.919318 117.305193 
L 181.883136 111.270125 
L 188.846955 105.903937 
L 195.810773 101.214191 
L 202.774591 97.319582 
L 209.738409 94.906669 
L 216.702227 94.000212 
L 223.666045 94.381301 
L 230.629864 96.183077 
L 237.593682 98.358778 
L 244.5575 100.287588 
L 251.521318 102.690663 
L 258.485136 105.882292 
L 265.448955 108.955672 
L 272.412773 110.833784 
L 279.376591 111.715141 
L 286.340409 112.061719 
L 293.304227 112.091996 
L 300.268045 111.838838 
L 307.231864 111.169173 
L 314.195682 109.806824 
L 321.1595 107.759693 
L 328.123318 105.773216 
L 335.087136 104.505982 
L 342.050955 103.967937 
L 349.014773 103.970917 
L 355.978591 104.40161 
L 362.942409 105.208519 
L 369.906227 106.30526 
L 376.870045 107.493359 
L 383.833864 108.530496 
L 390.797682 109.291023 
L 397.7615 109.793901 
L 404.725318 110.114096 
L 411.689136 110.318808 
L 418.652955 110.452866 
" clip-path="url(#p25b95581a5)" style="fill: none; stroke-dasharray: 12.8,3.2,2,3.2; stroke-dashoffset: 0; stroke: #ff0000; stroke-width: 2"/>
   </g>
   <g id="patch_4">
    <path d="M 53.0525 165.688 
L 53.0525 70.696 
" style="fill: none; stroke: #000000; stroke-width: 0.8; stroke-linejoin: miter; stroke-linecap: square"/>
   </g>
   <g id="patch_5">
    <path d="M 436.0625 165.688 
L 436.0625 70.696 
" style="fill: none; stroke: #000000; stroke-width: 0.8; stroke-linejoin: miter; stroke-linecap: square"/>
   </g>
   <g id="patch_6">
    <path d="M 53.0525 165.688 
L 436.0625 165.688 
" style="fill: none; stroke: #000000; stroke-width: 0.8; stroke-linejoin: miter; stroke-linecap: square"/>
   </g>
   <g id="patch_7">
    <path d="M 53.0525 70.696 
L 436.0625 70.696 
" style="fill: none; stroke: #000000; stroke-width: 0.8; stroke-linejoin: miter; stroke-linecap: square"/>
   </g>
  </g>
  <g id="axes_3">
   <g id="patch_8">
    <path d="M 53.0525 276.68 
L 436.0625 276.68 
L 436.0625 181.688 
L 53.0525 181.688 
z
" style="fill: #ffffff"/>
   </g>
   <g id="PathCollection_2">
    <g clip-path="url(#p1ace0f3437)">
     <use xlink:href="#m3c8b4fec59" x="404.176587" y="246.865611" style="fill: #daa520; stroke: #daa520"/>
     <use xlink:href="#m3c8b4fec59" x="409.908769" y="187.904813" style="fill: #daa520; stroke: #daa520"/>
     <use xlink:href="#m3c8b4fec59" x="384.027972" y="218.87962" style="fill: #daa520; stroke: #daa520"/>
     <use xlink:href="#m3c8b4fec59" x="378.46506" y="210.233122" style="fill: #daa520; stroke: #daa520"/>
     <use xlink:href="#m3c8b4fec59" x="83.551901" y="243.050014" style="fill: #daa520; stroke: #daa520"/>
     <use xlink:href="#m3c8b4fec59" x="256.075153" y="251.035458" style="fill: #daa520; stroke: #daa520"/>
     <use xlink:href="#m3c8b4fec59" x="357.619769" y="255.344881" style="fill: #daa520; stroke: #daa520"/>
     <use xlink:href="#m3c8b4fec59" x="160.169627" y="232.614558" style="fill: #daa520; stroke: #daa520"/>
     <use xlink:href="#m3c8b4fec59" x="154.194398" y="235.9675" style="fill: #daa520; stroke: #daa520"/>
     <use xlink:href="#m3c8b4fec59" x="170.17553" y="258.959605" style="fill: #daa520; stroke: #daa520"/>
     <use xlink:href="#m3c8b4fec59" x="367.443644" y="225.681129" style="fill: #daa520; stroke: #daa520"/>
     <use xlink:href="#m3c8b4fec59" x="313.844228" y="239.110935" style="fill: #daa520; stroke: #daa520"/>
     <use xlink:href="#m3c8b4fec59" x="267.503506" y="232.610372" style="fill: #daa520; stroke: #daa520"/>
     <use xlink:href="#m3c8b4fec59" x="406.085432" y="186.005818" style="fill: #daa520; stroke: #daa520"/>
     <use xlink:href="#m3c8b4fec59" x="416.371492" y="245.862043" style="fill: #daa520; stroke: #daa520"/>
     <use xlink:href="#m3c8b4fec59" x="99.93091" y="231.674822" style="fill: #daa520; stroke: #daa520"/>
     <use xlink:href="#m3c8b4fec59" x="109.124646" y="223.905847" style="fill: #daa520; stroke: #daa520"/>
     <use xlink:href="#m3c8b4fec59" x="253.370078" y="252.216593" style="fill: #daa520; stroke: #daa520"/>
     <use xlink:href="#m3c8b4fec59" x="341.500212" y="230.536312" style="fill: #daa520; stroke: #daa520"/>
     <use xlink:href="#m3c8b4fec59" x="236.499787" y="240.132758" style="fill: #daa520; stroke: #daa520"/>
     <use xlink:href="#m3c8b4fec59" x="140.774089" y="251.375995" style="fill: #daa520; stroke: #daa520"/>
     <use xlink:href="#m3c8b4fec59" x="115.235162" y="252.528676" style="fill: #daa520; stroke: #daa520"/>
     <use xlink:href="#m3c8b4fec59" x="183.656609" y="218.028371" style="fill: #daa520; stroke: #daa520"/>
     <use xlink:href="#m3c8b4fec59" x="163.126847" y="245.751874" style="fill: #daa520; stroke: #daa520"/>
     <use xlink:href="#m3c8b4fec59" x="290.978831" y="221.495208" style="fill: #daa520; stroke: #daa520"/>
     <use xlink:href="#m3c8b4fec59" x="266.398333" y="243.30438" style="fill: #daa520; stroke: #daa520"/>
     <use xlink:href="#m3c8b4fec59" x="384.833932" y="195.585749" style="fill: #daa520; stroke: #daa520"/>
     <use xlink:href="#m3c8b4fec59" x="331.790503" y="229.198109" style="fill: #daa520; stroke: #daa520"/>
     <use xlink:href="#m3c8b4fec59" x="178.844073" y="212.47999" style="fill: #daa520; stroke: #daa520"/>
     <use xlink:href="#m3c8b4fec59" x="368.288265" y="242.81612" style="fill: #daa520; stroke: #daa520"/>
     <use xlink:href="#m3c8b4fec59" x="369.9025" y="213.775195" style="fill: #daa520; stroke: #daa520"/>
     <use xlink:href="#m3c8b4fec59" x="343.364893" y="228.043572" style="fill: #daa520; stroke: #daa520"/>
     <use xlink:href="#m3c8b4fec59" x="154.042445" y="233.064566" style="fill: #daa520; stroke: #daa520"/>
     <use xlink:href="#m3c8b4fec59" x="399.309128" y="192.202294" style="fill: #daa520; stroke: #daa520"/>
     <use xlink:href="#m3c8b4fec59" x="394.314455" y="242.603594" style="fill: #daa520; stroke: #daa520"/>
     <use xlink:href="#m3c8b4fec59" x="374.147316" y="257.959693" style="fill: #daa520; stroke: #daa520"/>
     <use xlink:href="#m3c8b4fec59" x="410.859543" y="244.660072" style="fill: #daa520; stroke: #daa520"/>
     <use xlink:href="#m3c8b4fec59" x="123.45153" y="222.41658" style="fill: #daa520; stroke: #daa520"/>
     <use xlink:href="#m3c8b4fec59" x="274.956968" y="250.064535" style="fill: #daa520; stroke: #daa520"/>
     <use xlink:href="#m3c8b4fec59" x="133.009431" y="230.56374" style="fill: #daa520; stroke: #daa520"/>
     <use xlink:href="#m3c8b4fec59" x="95.079648" y="240.913337" style="fill: #daa520; stroke: #daa520"/>
     <use xlink:href="#m3c8b4fec59" x="87.049283" y="246.154639" style="fill: #daa520; stroke: #daa520"/>
     <use xlink:href="#m3c8b4fec59" x="143.775295" y="235.7057" style="fill: #daa520; stroke: #daa520"/>
     <use xlink:href="#m3c8b4fec59" x="233.331633" y="262.221645" style="fill: #daa520; stroke: #daa520"/>
     <use xlink:href="#m3c8b4fec59" x="371.801508" y="265.693979" style="fill: #daa520; stroke: #daa520"/>
     <use xlink:href="#m3c8b4fec59" x="196.721237" y="259.704239" style="fill: #daa520; stroke: #daa520"/>
     <use xlink:href="#m3c8b4fec59" x="206.808344" y="229.431167" style="fill: #daa520; stroke: #daa520"/>
     <use xlink:href="#m3c8b4fec59" x="136.461485" y="225.352844" style="fill: #daa520; stroke: #daa520"/>
     <use xlink:href="#m3c8b4fec59" x="343.467498" y="243.018025" style="fill: #daa520; stroke: #daa520"/>
     <use xlink:href="#m3c8b4fec59" x="162.666361" y="241.363556" style="fill: #daa520; stroke: #daa520"/>
     <use xlink:href="#m3c8b4fec59" x="378.629292" y="245.411962" style="fill: #daa520; stroke: #daa520"/>
     <use xlink:href="#m3c8b4fec59" x="283.241933" y="222.068775" style="fill: #daa520; stroke: #daa520"/>
     <use xlink:href="#m3c8b4fec59" x="375.509988" y="206.461579" style="fill: #daa520; stroke: #daa520"/>
     <use xlink:href="#m3c8b4fec59" x="404.642204" y="272.362182" style="fill: #daa520; stroke: #daa520"/>
     <use xlink:href="#m3c8b4fec59" x="295.052294" y="229.91764" style="fill: #daa520; stroke: #daa520"/>
     <use xlink:href="#m3c8b4fec59" x="85.443662" y="236.240735" style="fill: #daa520; stroke: #daa520"/>
     <use xlink:href="#m3c8b4fec59" x="384.905691" y="195.656597" style="fill: #daa520; stroke: #daa520"/>
     <use xlink:href="#m3c8b4fec59" x="247.721975" y="254.454759" style="fill: #daa520; stroke: #daa520"/>
     <use xlink:href="#m3c8b4fec59" x="114.511396" y="235.55531" style="fill: #daa520; stroke: #daa520"/>
     <use xlink:href="#m3c8b4fec59" x="233.045165" y="239.97432" style="fill: #daa520; stroke: #daa520"/>
     <use xlink:href="#m3c8b4fec59" x="289.842941" y="242.078466" style="fill: #daa520; stroke: #daa520"/>
     <use xlink:href="#m3c8b4fec59" x="350.943336" y="235.000161" style="fill: #daa520; stroke: #daa520"/>
     <use xlink:href="#m3c8b4fec59" x="135.681866" y="226.633195" style="fill: #daa520; stroke: #daa520"/>
     <use xlink:href="#m3c8b4fec59" x="361.023892" y="257.117012" style="fill: #daa520; stroke: #daa520"/>
     <use xlink:href="#m3c8b4fec59" x="310.33898" y="230.672907" style="fill: #daa520; stroke: #daa520"/>
     <use xlink:href="#m3c8b4fec59" x="371.828227" y="211.108501" style="fill: #daa520; stroke: #daa520"/>
     <use xlink:href="#m3c8b4fec59" x="283.414623" y="244.681653" style="fill: #daa520; stroke: #daa520"/>
     <use xlink:href="#m3c8b4fec59" x="399.548003" y="231.178923" style="fill: #daa520; stroke: #daa520"/>
     <use xlink:href="#m3c8b4fec59" x="350.582701" y="229.130677" style="fill: #daa520; stroke: #daa520"/>
     <use xlink:href="#m3c8b4fec59" x="124.781153" y="254.421277" style="fill: #daa520; stroke: #daa520"/>
     <use xlink:href="#m3c8b4fec59" x="399.670015" y="227.756853" style="fill: #daa520; stroke: #daa520"/>
     <use xlink:href="#m3c8b4fec59" x="328.846654" y="239.012774" style="fill: #daa520; stroke: #daa520"/>
     <use xlink:href="#m3c8b4fec59" x="187.658255" y="232.368837" style="fill: #daa520; stroke: #daa520"/>
     <use xlink:href="#m3c8b4fec59" x="191.417944" y="212.823744" style="fill: #daa520; stroke: #daa520"/>
     <use xlink:href="#m3c8b4fec59" x="335.612843" y="229.626969" style="fill: #daa520; stroke: #daa520"/>
     <use xlink:href="#m3c8b4fec59" x="176.99093" y="223.493654" style="fill: #daa520; stroke: #daa520"/>
     <use xlink:href="#m3c8b4fec59" x="361.321612" y="258.010054" style="fill: #daa520; stroke: #daa520"/>
     <use xlink:href="#m3c8b4fec59" x="380.182252" y="200.395889" style="fill: #daa520; stroke: #daa520"/>
     <use xlink:href="#m3c8b4fec59" x="408.624576" y="208.537968" style="fill: #daa520; stroke: #daa520"/>
     <use xlink:href="#m3c8b4fec59" x="320.866683" y="234.414057" style="fill: #daa520; stroke: #daa520"/>
     <use xlink:href="#m3c8b4fec59" x="220.357414" y="270.484268" style="fill: #daa520; stroke: #daa520"/>
     <use xlink:href="#m3c8b4fec59" x="116.172516" y="250.778036" style="fill: #daa520; stroke: #daa520"/>
     <use xlink:href="#m3c8b4fec59" x="378.178331" y="207.389581" style="fill: #daa520; stroke: #daa520"/>
     <use xlink:href="#m3c8b4fec59" x="370.751835" y="229.013341" style="fill: #daa520; stroke: #daa520"/>
     <use xlink:href="#m3c8b4fec59" x="384.638999" y="199.067385" style="fill: #daa520; stroke: #daa520"/>
     <use xlink:href="#m3c8b4fec59" x="324.460764" y="227.528378" style="fill: #daa520; stroke: #daa520"/>
     <use xlink:href="#m3c8b4fec59" x="237.282514" y="258.799366" style="fill: #daa520; stroke: #daa520"/>
     <use xlink:href="#m3c8b4fec59" x="129.094575" y="245.470427" style="fill: #daa520; stroke: #daa520"/>
     <use xlink:href="#m3c8b4fec59" x="325.873593" y="238.140392" style="fill: #daa520; stroke: #daa520"/>
     <use xlink:href="#m3c8b4fec59" x="125.034665" y="255.051401" style="fill: #daa520; stroke: #daa520"/>
    </g>
   </g>
   <g id="matplotlib.axis_5">
    <g id="xtick_1">
     <g id="line2d_10">
      <defs>
       <path id="m5968b5a8a9" d="M 0 0 
L 0 3.5 
" style="stroke: #696969; stroke-width: 0.8"/>
      </defs>
      <g>
       <use xlink:href="#m5968b5a8a9" x="70.462045" y="276.68" style="fill: #696969; stroke: #696969; stroke-width: 0.8"/>
      </g>
     </g>
     <g id="text_4">
      <!-- −1.0 -->
      <g style="fill: #696969" transform="translate(51.035795 295.8375) scale(0.16 -0.16)">
       <defs>
        <path id="DejaVuSans-31" d="M 794 531 
L 1825 531 
L 1825 4091 
L 703 3866 
L 703 4441 
L 1819 4666 
L 2450 4666 
L 2450 531 
L 3481 531 
L 3481 0 
L 794 0 
L 794 531 
z
" transform="scale(0.015625)"/>
        <path id="DejaVuSans-2e" d="M 684 794 
L 1344 794 
L 1344 0 
L 684 0 
L 684 794 
z
" transform="scale(0.015625)"/>
       </defs>
       <use xlink:href="#DejaVuSans-2212"/>
       <use xlink:href="#DejaVuSans-31" x="83.789062"/>
       <use xlink:href="#DejaVuSans-2e" x="147.412109"/>
       <use xlink:href="#DejaVuSans-30" x="179.199219"/>
      </g>
     </g>
    </g>
    <g id="xtick_2">
     <g id="line2d_11">
      <g>
       <use xlink:href="#m5968b5a8a9" x="157.509773" y="276.68" style="fill: #696969; stroke: #696969; stroke-width: 0.8"/>
      </g>
     </g>
     <g id="text_5">
      <!-- −0.5 -->
      <g style="fill: #696969" transform="translate(138.083523 295.8375) scale(0.16 -0.16)">
       <use xlink:href="#DejaVuSans-2212"/>
       <use xlink:href="#DejaVuSans-30" x="83.789062"/>
       <use xlink:href="#DejaVuSans-2e" x="147.412109"/>
       <use xlink:href="#DejaVuSans-35" x="179.199219"/>
      </g>
     </g>
    </g>
    <g id="xtick_3">
     <g id="line2d_12">
      <g>
       <use xlink:href="#m5968b5a8a9" x="244.5575" y="276.68" style="fill: #696969; stroke: #696969; stroke-width: 0.8"/>
      </g>
     </g>
     <g id="text_6">
      <!-- 0.0 -->
      <g style="fill: #696969" transform="translate(231.835 295.8375) scale(0.16 -0.16)">
       <use xlink:href="#DejaVuSans-30"/>
       <use xlink:href="#DejaVuSans-2e" x="63.623047"/>
       <use xlink:href="#DejaVuSans-30" x="95.410156"/>
      </g>
     </g>
    </g>
    <g id="xtick_4">
     <g id="line2d_13">
      <g>
       <use xlink:href="#m5968b5a8a9" x="331.605227" y="276.68" style="fill: #696969; stroke: #696969; stroke-width: 0.8"/>
      </g>
     </g>
     <g id="text_7">
      <!-- 0.5 -->
      <g style="fill: #696969" transform="translate(318.882727 295.8375) scale(0.16 -0.16)">
       <use xlink:href="#DejaVuSans-30"/>
       <use xlink:href="#DejaVuSans-2e" x="63.623047"/>
       <use xlink:href="#DejaVuSans-35" x="95.410156"/>
      </g>
     </g>
    </g>
    <g id="xtick_5">
     <g id="line2d_14">
      <g>
       <use xlink:href="#m5968b5a8a9" x="418.652955" y="276.68" style="fill: #696969; stroke: #696969; stroke-width: 0.8"/>
      </g>
     </g>
     <g id="text_8">
      <!-- 1.0 -->
      <g style="fill: #696969" transform="translate(405.930455 295.8375) scale(0.16 -0.16)">
       <use xlink:href="#DejaVuSans-31"/>
       <use xlink:href="#DejaVuSans-2e" x="63.623047"/>
       <use xlink:href="#DejaVuSans-30" x="95.410156"/>
      </g>
     </g>
    </g>
    <g id="text_9">
     <!-- $X$ -->
     <g transform="translate(239.0375 315.3225) scale(0.16 -0.16)">
      <defs>
       <path id="DejaVuSans-Oblique-58" d="M 878 4666 
L 1516 4666 
L 2316 2981 
L 3763 4666 
L 4500 4666 
L 2578 2438 
L 3738 0 
L 3103 0 
L 2163 1966 
L 459 0 
L -275 0 
L 1906 2509 
L 878 4666 
z
" transform="scale(0.015625)"/>
      </defs>
      <use xlink:href="#DejaVuSans-Oblique-58" transform="translate(0 0.09375)"/>
     </g>
    </g>
   </g>
   <g id="matplotlib.axis_6">
    <g id="ytick_4">
     <g id="line2d_15">
      <g>
       <use xlink:href="#m61fce6852a" x="53.0525" y="263.359219" style="fill: #696969; stroke: #696969; stroke-width: 0.8"/>
      </g>
     </g>
     <g id="text_10">
      <!-- −2.5 -->
      <g style="fill: #696969" transform="translate(7.2 269.437969) scale(0.16 -0.16)">
       <defs>
        <path id="DejaVuSans-32" d="M 1228 531 
L 3431 531 
L 3431 0 
L 469 0 
L 469 531 
Q 828 903 1448 1529 
Q 2069 2156 2228 2338 
Q 2531 2678 2651 2914 
Q 2772 3150 2772 3378 
Q 2772 3750 2511 3984 
Q 2250 4219 1831 4219 
Q 1534 4219 1204 4116 
Q 875 4013 500 3803 
L 500 4441 
Q 881 4594 1212 4672 
Q 1544 4750 1819 4750 
Q 2544 4750 2975 4387 
Q 3406 4025 3406 3419 
Q 3406 3131 3298 2873 
Q 3191 2616 2906 2266 
Q 2828 2175 2409 1742 
Q 1991 1309 1228 531 
z
" transform="scale(0.015625)"/>
       </defs>
       <use xlink:href="#DejaVuSans-2212"/>
       <use xlink:href="#DejaVuSans-32" x="83.789062"/>
       <use xlink:href="#DejaVuSans-2e" x="147.412109"/>
       <use xlink:href="#DejaVuSans-35" x="179.199219"/>
      </g>
     </g>
    </g>
    <g id="ytick_5">
     <g id="line2d_16">
      <g>
       <use xlink:href="#m61fce6852a" x="53.0525" y="234.378341" style="fill: #696969; stroke: #696969; stroke-width: 0.8"/>
      </g>
     </g>
     <g id="text_11">
      <!-- 0.0 -->
      <g style="fill: #696969" transform="translate(20.6075 240.457091) scale(0.16 -0.16)">
       <use xlink:href="#DejaVuSans-30"/>
       <use xlink:href="#DejaVuSans-2e" x="63.623047"/>
       <use xlink:href="#DejaVuSans-30" x="95.410156"/>
      </g>
     </g>
    </g>
    <g id="ytick_6">
     <g id="line2d_17">
      <g>
       <use xlink:href="#m61fce6852a" x="53.0525" y="205.397463" style="fill: #696969; stroke: #696969; stroke-width: 0.8"/>
      </g>
     </g>
     <g id="text_12">
      <!-- 2.5 -->
      <g style="fill: #696969" transform="translate(20.6075 211.476213) scale(0.16 -0.16)">
       <use xlink:href="#DejaVuSans-32"/>
       <use xlink:href="#DejaVuSans-2e" x="63.623047"/>
       <use xlink:href="#DejaVuSans-35" x="95.410156"/>
      </g>
     </g>
    </g>
   </g>
   <g id="line2d_18">
    <path d="M 70.462045 231.911586 
L 77.425864 233.812907 
L 84.389682 234.956651 
L 91.3535 235.05929 
L 98.317318 234.392074 
L 105.281136 233.620376 
L 112.244955 233.281586 
L 119.208773 233.40708 
L 126.172591 233.646731 
L 133.136409 233.673205 
L 140.100227 233.521827 
L 147.064045 233.570281 
L 154.027864 234.082061 
L 160.991682 234.835872 
L 167.9555 235.257645 
L 174.919318 234.980671 
L 181.883136 234.654203 
L 188.846955 234.925998 
L 195.810773 234.913556 
L 202.774591 234.168502 
L 209.738409 233.678852 
L 216.702227 233.539643 
L 223.666045 233.64724 
L 230.629864 234.692477 
L 237.593682 235.142319 
L 244.5575 234.242268 
L 251.521318 233.765594 
L 258.485136 234.724046 
L 265.448955 235.833304 
L 272.412773 235.476493 
L 279.376591 234.381248 
L 286.340409 233.625502 
L 293.304227 233.633933 
L 300.268045 234.298984 
L 307.231864 235.076635 
L 314.195682 235.110099 
L 321.1595 234.107717 
L 328.123318 233.227051 
L 335.087136 233.480483 
L 342.050955 234.613333 
L 349.014773 235.932734 
L 355.978591 236.880891 
L 362.942409 237.153145 
L 369.906227 236.680768 
L 376.870045 235.564438 
L 383.833864 234.112507 
L 390.797682 232.892261 
L 397.7615 232.48298 
L 404.725318 233.120318 
L 411.689136 234.603331 
L 418.652955 236.49273 
" clip-path="url(#p1ace0f3437)" style="fill: none; stroke: #696969; stroke-width: 2; stroke-linecap: square"/>
   </g>
   <g id="line2d_19">
    <path d="M 70.462045 243.944773 
L 77.425864 243.605767 
L 84.389682 243.266761 
L 91.3535 242.927755 
L 98.317318 242.588749 
L 105.281136 242.249744 
L 112.244955 241.910738 
L 119.208773 241.571732 
L 126.172591 241.232726 
L 133.136409 240.893721 
L 140.100227 240.554715 
L 147.064045 240.215709 
L 154.027864 239.876703 
L 160.991682 239.537697 
L 167.9555 239.198692 
L 174.919318 238.859686 
L 181.883136 238.52068 
L 188.846955 238.181674 
L 195.810773 237.842668 
L 202.774591 237.503663 
L 209.738409 237.164657 
L 216.702227 236.825651 
L 223.666045 236.486645 
L 230.629864 236.147639 
L 237.593682 235.808634 
L 244.5575 235.469628 
L 251.521318 235.130622 
L 258.485136 234.791616 
L 265.448955 234.45261 
L 272.412773 234.113605 
L 279.376591 233.774599 
L 286.340409 233.435593 
L 293.304227 233.096587 
L 300.268045 232.757581 
L 307.231864 232.418576 
L 314.195682 232.07957 
L 321.1595 231.740564 
L 328.123318 231.401558 
L 335.087136 231.062552 
L 342.050955 230.723547 
L 349.014773 230.384541 
L 355.978591 230.045535 
L 362.942409 229.706529 
L 369.906227 229.367524 
L 376.870045 229.028518 
L 383.833864 228.689512 
L 390.797682 228.350506 
L 397.7615 228.0115 
L 404.725318 227.672495 
L 411.689136 227.333489 
L 418.652955 226.994483 
" clip-path="url(#p1ace0f3437)" style="fill: none; stroke-dasharray: 7.4,3.2; stroke-dashoffset: 0; stroke: #79ad41; stroke-width: 2"/>
   </g>
   <g id="patch_9">
    <path d="M 53.0525 276.68 
L 53.0525 181.688 
" style="fill: none; stroke: #000000; stroke-width: 0.8; stroke-linejoin: miter; stroke-linecap: square"/>
   </g>
   <g id="patch_10">
    <path d="M 436.0625 276.68 
L 436.0625 181.688 
" style="fill: none; stroke: #000000; stroke-width: 0.8; stroke-linejoin: miter; stroke-linecap: square"/>
   </g>
   <g id="patch_11">
    <path d="M 53.0525 276.68 
L 436.0625 276.68 
" style="fill: none; stroke: #000000; stroke-width: 0.8; stroke-linejoin: miter; stroke-linecap: square"/>
   </g>
   <g id="patch_12">
    <path d="M 53.0525 181.688 
L 436.0625 181.688 
" style="fill: none; stroke: #000000; stroke-width: 0.8; stroke-linejoin: miter; stroke-linecap: square"/>
   </g>
  </g>
 </g>
 <defs>
  <clipPath id="pff2e8309cd">
   <rect x="53.0525" y="7.2" width="383.01" height="47.496"/>
  </clipPath>
  <clipPath id="p25b95581a5">
   <rect x="53.0525" y="70.696" width="383.01" height="94.992"/>
  </clipPath>
  <clipPath id="p1ace0f3437">
   <rect x="53.0525" y="181.688" width="383.01" height="94.992"/>
  </clipPath>
 </defs>
</svg>
