<?xml version="1.0" encoding="utf-8" standalone="no"?>
<!DOCTYPE svg PUBLIC "-//W3C//DTD SVG 1.1//EN"
  "http://www.w3.org/Graphics/SVG/1.1/DTD/svg11.dtd">
<svg xmlns:xlink="http://www.w3.org/1999/xlink" width="443.2625pt" height="325.85pt" viewBox="0 0 443.2625 325.85" xmlns="http://www.w3.org/2000/svg" version="1.1">
 <metadata>
  <rdf:RDF xmlns:dc="http://purl.org/dc/elements/1.1/" xmlns:cc="http://creativecommons.org/ns#" xmlns:rdf="http://www.w3.org/1999/02/22-rdf-syntax-ns#">
   <cc:Work>
    <dc:type rdf:resource="http://purl.org/dc/dcmitype/StillImage"/>
    <dc:date>2024-01-28T20:57:06.443733</dc:date>
    <dc:format>image/svg+xml</dc:format>
    <dc:creator>
     <cc:Agent>
      <dc:title>Matplotlib v3.7.2, https://matplotlib.org/</dc:title>
     </cc:Agent>
    </dc:creator>
   </cc:Work>
  </rdf:RDF>
 </metadata>
 <defs>
  <style type="text/css">*{stroke-linejoin: round; stroke-linecap: butt}</style>
 </defs>
 <g id="figure_1">
  <g id="patch_1">
   <path d="M 0 325.85 
L 443.2625 325.85 
L 443.2625 0 
L 0 0 
z
" style="fill: #ffffff"/>
  </g>
  <g id="axes_1">
   <g id="patch_2">
    <path d="M 53.0525 54.696 
L 436.0625 54.696 
L 436.0625 7.2 
L 53.0525 7.2 
z
" style="fill: #ffffff"/>
   </g>
   <g id="PolyCollection_1">
    <defs>
     <path id="ma9ffa2b460" d="M 70.462045 -273.312909 
L 70.462045 -309.713679 
L 77.425864 -309.464067 
L 84.389682 -309.142771 
L 91.3535 -308.751743 
L 98.317318 -308.293036 
L 105.281136 -307.769001 
L 112.244955 -307.182524 
L 119.208773 -306.537201 
L 126.172591 -305.837567 
L 133.136409 -305.089166 
L 140.100227 -304.298677 
L 147.064045 -303.473919 
L 154.027864 -302.623792 
L 160.991682 -301.758158 
L 167.9555 -300.887633 
L 174.919318 -300.023381 
L 181.883136 -299.176806 
L 188.846955 -298.35927 
L 195.810773 -297.581871 
L 202.774591 -296.855179 
L 209.738409 -296.189107 
L 216.702227 -295.592786 
L 223.666045 -295.074577 
L 230.629864 -294.642089 
L 237.593682 -294.302275 
L 244.5575 -294.061552 
L 251.521318 -293.925956 
L 258.485136 -293.901238 
L 265.448955 -293.992968 
L 272.412773 -294.206553 
L 279.376591 -294.547168 
L 286.340409 -295.019563 
L 293.304227 -295.627723 
L 300.268045 -296.374402 
L 307.231864 -297.260447 
L 314.195682 -298.284002 
L 321.1595 -299.439651 
L 328.123318 -300.717584 
L 335.087136 -302.102906 
L 342.050955 -303.575371 
L 349.014773 -305.109622 
L 355.978591 -306.676111 
L 362.942409 -308.24272 
L 369.906227 -309.776886 
L 376.870045 -311.248002 
L 383.833864 -312.629657 
L 390.797682 -313.901369 
L 397.7615 -315.049569 
L 404.725318 -316.067706 
L 411.689136 -316.491091 
L 418.652955 -316.491091 
L 418.652955 -273.312909 
L 418.652955 -273.312909 
L 411.689136 -273.312909 
L 404.725318 -273.312909 
L 397.7615 -273.312909 
L 390.797682 -273.312909 
L 383.833864 -273.312909 
L 376.870045 -273.312909 
L 369.906227 -273.312909 
L 362.942409 -273.312909 
L 355.978591 -273.312909 
L 349.014773 -273.312909 
L 342.050955 -273.312909 
L 335.087136 -273.312909 
L 328.123318 -273.312909 
L 321.1595 -273.312909 
L 314.195682 -273.312909 
L 307.231864 -273.312909 
L 300.268045 -273.312909 
L 293.304227 -273.312909 
L 286.340409 -273.312909 
L 279.376591 -273.312909 
L 272.412773 -273.312909 
L 265.448955 -273.312909 
L 258.485136 -273.312909 
L 251.521318 -273.312909 
L 244.5575 -273.312909 
L 237.593682 -273.312909 
L 230.629864 -273.312909 
L 223.666045 -273.312909 
L 216.702227 -273.312909 
L 209.738409 -273.312909 
L 202.774591 -273.312909 
L 195.810773 -273.312909 
L 188.846955 -273.312909 
L 181.883136 -273.312909 
L 174.919318 -273.312909 
L 167.9555 -273.312909 
L 160.991682 -273.312909 
L 154.027864 -273.312909 
L 147.064045 -273.312909 
L 140.100227 -273.312909 
L 133.136409 -273.312909 
L 126.172591 -273.312909 
L 119.208773 -273.312909 
L 112.244955 -273.312909 
L 105.281136 -273.312909 
L 98.317318 -273.312909 
L 91.3535 -273.312909 
L 84.389682 -273.312909 
L 77.425864 -273.312909 
L 70.462045 -273.312909 
z
" style="stroke: #dc143c; stroke-opacity: 0.2"/>
    </defs>
    <g clip-path="url(#p784ac9ea6b)">
     <use xlink:href="#ma9ffa2b460" x="0" y="325.85" style="fill: #dc143c; fill-opacity: 0.2; stroke: #dc143c; stroke-opacity: 0.2"/>
    </g>
   </g>
   <g id="PolyCollection_2">
    <defs>
     <path id="m934f4609d4" d="M 70.462045 -273.312909 
L 70.462045 -284.887897 
L 77.425864 -285.137509 
L 84.389682 -285.458805 
L 91.3535 -285.849832 
L 98.317318 -286.30854 
L 105.281136 -286.832574 
L 112.244955 -287.419052 
L 119.208773 -288.064375 
L 126.172591 -288.764009 
L 133.136409 -289.51241 
L 140.100227 -290.302898 
L 147.064045 -291.127657 
L 154.027864 -291.977783 
L 160.991682 -292.843417 
L 167.9555 -293.713943 
L 174.919318 -294.578195 
L 181.883136 -295.42477 
L 188.846955 -296.242306 
L 195.810773 -297.019704 
L 202.774591 -297.746397 
L 209.738409 -298.412469 
L 216.702227 -299.00879 
L 223.666045 -299.526999 
L 230.629864 -299.959486 
L 237.593682 -300.299301 
L 244.5575 -300.540024 
L 251.521318 -300.67562 
L 258.485136 -300.700338 
L 265.448955 -300.608608 
L 272.412773 -300.395022 
L 279.376591 -300.054408 
L 286.340409 -299.582013 
L 293.304227 -298.973853 
L 300.268045 -298.227174 
L 307.231864 -297.341128 
L 314.195682 -296.317574 
L 321.1595 -295.161925 
L 328.123318 -293.883992 
L 335.087136 -292.49867 
L 342.050955 -291.026205 
L 349.014773 -289.491954 
L 355.978591 -287.925464 
L 362.942409 -286.358856 
L 369.906227 -284.82469 
L 376.870045 -283.353574 
L 383.833864 -281.971919 
L 390.797682 -280.700207 
L 397.7615 -279.552006 
L 404.725318 -278.53387 
L 411.689136 -278.110485 
L 418.652955 -278.110485 
L 418.652955 -273.312909 
L 418.652955 -273.312909 
L 411.689136 -273.312909 
L 404.725318 -273.312909 
L 397.7615 -273.312909 
L 390.797682 -273.312909 
L 383.833864 -273.312909 
L 376.870045 -273.312909 
L 369.906227 -273.312909 
L 362.942409 -273.312909 
L 355.978591 -273.312909 
L 349.014773 -273.312909 
L 342.050955 -273.312909 
L 335.087136 -273.312909 
L 328.123318 -273.312909 
L 321.1595 -273.312909 
L 314.195682 -273.312909 
L 307.231864 -273.312909 
L 300.268045 -273.312909 
L 293.304227 -273.312909 
L 286.340409 -273.312909 
L 279.376591 -273.312909 
L 272.412773 -273.312909 
L 265.448955 -273.312909 
L 258.485136 -273.312909 
L 251.521318 -273.312909 
L 244.5575 -273.312909 
L 237.593682 -273.312909 
L 230.629864 -273.312909 
L 223.666045 -273.312909 
L 216.702227 -273.312909 
L 209.738409 -273.312909 
L 202.774591 -273.312909 
L 195.810773 -273.312909 
L 188.846955 -273.312909 
L 181.883136 -273.312909 
L 174.919318 -273.312909 
L 167.9555 -273.312909 
L 160.991682 -273.312909 
L 154.027864 -273.312909 
L 147.064045 -273.312909 
L 140.100227 -273.312909 
L 133.136409 -273.312909 
L 126.172591 -273.312909 
L 119.208773 -273.312909 
L 112.244955 -273.312909 
L 105.281136 -273.312909 
L 98.317318 -273.312909 
L 91.3535 -273.312909 
L 84.389682 -273.312909 
L 77.425864 -273.312909 
L 70.462045 -273.312909 
z
" style="stroke: #000080; stroke-opacity: 0.2"/>
    </defs>
    <g clip-path="url(#p784ac9ea6b)">
     <use xlink:href="#m934f4609d4" x="0" y="325.85" style="fill: #000080; fill-opacity: 0.2; stroke: #000080; stroke-opacity: 0.2"/>
    </g>
   </g>
   <g id="matplotlib.axis_1"/>
   <g id="matplotlib.axis_2"/>
   <g id="line2d_1">
    <path d="M 70.462045 16.136321 
L 77.425864 16.385933 
L 84.389682 16.707229 
L 91.3535 17.098257 
L 98.317318 17.556964 
L 105.281136 18.080999 
L 112.244955 18.667476 
L 119.208773 19.312799 
L 126.172591 20.012433 
L 133.136409 20.760834 
L 140.100227 21.551323 
L 147.064045 22.376081 
L 154.027864 23.226208 
L 160.991682 24.091842 
L 167.9555 24.962367 
L 174.919318 25.826619 
L 181.883136 26.673194 
L 188.846955 27.49073 
L 195.810773 28.268129 
L 202.774591 28.994821 
L 209.738409 29.660893 
L 216.702227 30.257214 
L 223.666045 30.775423 
L 230.629864 31.207911 
L 237.593682 31.547725 
L 244.5575 31.788448 
L 251.521318 31.924044 
L 258.485136 31.948762 
L 265.448955 31.857032 
L 272.412773 31.643447 
L 279.376591 31.302832 
L 286.340409 30.830437 
L 293.304227 30.222277 
L 300.268045 29.475598 
L 307.231864 28.589553 
L 314.195682 27.565998 
L 321.1595 26.410349 
L 328.123318 25.132416 
L 335.087136 23.747094 
L 342.050955 22.274629 
L 349.014773 20.740378 
L 355.978591 19.173889 
L 362.942409 17.60728 
L 369.906227 16.073114 
L 376.870045 14.601998 
L 383.833864 13.220343 
L 390.797682 11.948631 
L 397.7615 10.800431 
L 404.725318 9.782294 
L 411.689136 9.358909 
L 418.652955 9.358909 
" clip-path="url(#p784ac9ea6b)" style="fill: none; stroke: #dc143c; stroke-width: 1.5; stroke-linecap: square"/>
   </g>
   <g id="line2d_2">
    <path d="M 70.462045 40.962103 
L 77.425864 40.712491 
L 84.389682 40.391195 
L 91.3535 40.000168 
L 98.317318 39.54146 
L 105.281136 39.017426 
L 112.244955 38.430948 
L 119.208773 37.785625 
L 126.172591 37.085991 
L 133.136409 36.33759 
L 140.100227 35.547102 
L 147.064045 34.722343 
L 154.027864 33.872217 
L 160.991682 33.006583 
L 167.9555 32.136057 
L 174.919318 31.271805 
L 181.883136 30.42523 
L 188.846955 29.607694 
L 195.810773 28.830296 
L 202.774591 28.103603 
L 209.738409 27.437531 
L 216.702227 26.84121 
L 223.666045 26.323001 
L 230.629864 25.890514 
L 237.593682 25.550699 
L 244.5575 25.309976 
L 251.521318 25.17438 
L 258.485136 25.149662 
L 265.448955 25.241392 
L 272.412773 25.454978 
L 279.376591 25.795592 
L 286.340409 26.267987 
L 293.304227 26.876147 
L 300.268045 27.622826 
L 307.231864 28.508872 
L 314.195682 29.532426 
L 321.1595 30.688075 
L 328.123318 31.966008 
L 335.087136 33.35133 
L 342.050955 34.823795 
L 349.014773 36.358046 
L 355.978591 37.924536 
L 362.942409 39.491144 
L 369.906227 41.02531 
L 376.870045 42.496426 
L 383.833864 43.878081 
L 390.797682 45.149793 
L 397.7615 46.297994 
L 404.725318 47.31613 
L 411.689136 47.739515 
L 418.652955 47.739515 
" clip-path="url(#p784ac9ea6b)" style="fill: none; stroke: #000080; stroke-width: 1.5; stroke-linecap: square"/>
   </g>
  </g>
  <g id="axes_2">
   <g id="patch_3">
    <path d="M 53.0525 165.688 
L 436.0625 165.688 
L 436.0625 70.696 
L 53.0525 70.696 
z
" style="fill: #ffffff"/>
   </g>
   <g id="PathCollection_1">
    <defs>
     <path id="m292c6daeac" d="M 0 0.866025 
C 0.229673 0.866025 0.449969 0.774776 0.612372 0.612372 
C 0.774776 0.449969 0.866025 0.229673 0.866025 0 
C 0.866025 -0.229673 0.774776 -0.449969 0.612372 -0.612372 
C 0.449969 -0.774776 0.229673 -0.866025 0 -0.866025 
C -0.229673 -0.866025 -0.449969 -0.774776 -0.612372 -0.612372 
C -0.774776 -0.449969 -0.866025 -0.229673 -0.866025 0 
C -0.866025 0.229673 -0.774776 0.449969 -0.612372 0.612372 
C -0.449969 0.774776 -0.229673 0.866025 0 0.866025 
z
" style="stroke: #daa520"/>
    </defs>
    <g clip-path="url(#pe8904d42a0)">
     <use xlink:href="#m292c6daeac" x="404.176587" y="101.904819" style="fill: #daa520; stroke: #daa520"/>
     <use xlink:href="#m292c6daeac" x="409.908769" y="131.371505" style="fill: #daa520; stroke: #daa520"/>
     <use xlink:href="#m292c6daeac" x="384.027972" y="114.359172" style="fill: #daa520; stroke: #daa520"/>
     <use xlink:href="#m292c6daeac" x="378.46506" y="117.896777" style="fill: #daa520; stroke: #daa520"/>
     <use xlink:href="#m292c6daeac" x="83.551901" y="149.00585" style="fill: #daa520; stroke: #daa520"/>
     <use xlink:href="#m292c6daeac" x="256.075153" y="94.758256" style="fill: #daa520; stroke: #daa520"/>
     <use xlink:href="#m292c6daeac" x="357.619769" y="92.470654" style="fill: #daa520; stroke: #daa520"/>
     <use xlink:href="#m292c6daeac" x="160.169627" y="126.610518" style="fill: #daa520; stroke: #daa520"/>
     <use xlink:href="#m292c6daeac" x="154.194398" y="128.324033" style="fill: #daa520; stroke: #daa520"/>
     <use xlink:href="#m292c6daeac" x="170.17553" y="106.554796" style="fill: #daa520; stroke: #daa520"/>
     <use xlink:href="#m292c6daeac" x="367.443644" y="108.468874" style="fill: #daa520; stroke: #daa520"/>
     <use xlink:href="#m292c6daeac" x="313.844228" y="105.570515" style="fill: #daa520; stroke: #daa520"/>
     <use xlink:href="#m292c6daeac" x="267.503506" y="108.563521" style="fill: #daa520; stroke: #daa520"/>
     <use xlink:href="#m292c6daeac" x="406.085432" y="132.208297" style="fill: #daa520; stroke: #daa520"/>
     <use xlink:href="#m292c6daeac" x="416.371492" y="102.706299" style="fill: #daa520; stroke: #daa520"/>
     <use xlink:href="#m292c6daeac" x="99.93091" y="150.247379" style="fill: #daa520; stroke: #daa520"/>
     <use xlink:href="#m292c6daeac" x="109.124646" y="151.336291" style="fill: #daa520; stroke: #daa520"/>
     <use xlink:href="#m292c6daeac" x="253.370078" y="92.998351" style="fill: #daa520; stroke: #daa520"/>
     <use xlink:href="#m292c6daeac" x="341.500212" y="104.258596" style="fill: #daa520; stroke: #daa520"/>
     <use xlink:href="#m292c6daeac" x="236.499787" y="93.883982" style="fill: #daa520; stroke: #daa520"/>
     <use xlink:href="#m292c6daeac" x="140.774089" y="127.081905" style="fill: #daa520; stroke: #daa520"/>
     <use xlink:href="#m292c6daeac" x="115.235162" y="135.370878" style="fill: #daa520; stroke: #daa520"/>
     <use xlink:href="#m292c6daeac" x="183.656609" y="115.981034" style="fill: #daa520; stroke: #daa520"/>
     <use xlink:href="#m292c6daeac" x="163.126847" y="118.212001" style="fill: #daa520; stroke: #daa520"/>
     <use xlink:href="#m292c6daeac" x="290.978831" y="116.414653" style="fill: #daa520; stroke: #daa520"/>
     <use xlink:href="#m292c6daeac" x="266.398333" y="102.914607" style="fill: #daa520; stroke: #daa520"/>
     <use xlink:href="#m292c6daeac" x="384.833932" y="126.029428" style="fill: #daa520; stroke: #daa520"/>
     <use xlink:href="#m292c6daeac" x="331.790503" y="105.882133" style="fill: #daa520; stroke: #daa520"/>
     <use xlink:href="#m292c6daeac" x="178.844073" y="122.537788" style="fill: #daa520; stroke: #daa520"/>
     <use xlink:href="#m292c6daeac" x="368.288265" y="100.085985" style="fill: #daa520; stroke: #daa520"/>
     <use xlink:href="#m292c6daeac" x="369.9025" y="114.771765" style="fill: #daa520; stroke: #daa520"/>
     <use xlink:href="#m292c6daeac" x="343.364893" y="105.443674" style="fill: #daa520; stroke: #daa520"/>
     <use xlink:href="#m292c6daeac" x="154.042445" y="129.846632" style="fill: #daa520; stroke: #daa520"/>
     <use xlink:href="#m292c6daeac" x="399.309128" y="128.862158" style="fill: #daa520; stroke: #daa520"/>
     <use xlink:href="#m292c6daeac" x="394.314455" y="103.530927" style="fill: #daa520; stroke: #daa520"/>
     <use xlink:href="#m292c6daeac" x="374.147316" y="93.506224" style="fill: #daa520; stroke: #daa520"/>
     <use xlink:href="#m292c6daeac" x="410.859543" y="103.194118" style="fill: #daa520; stroke: #daa520"/>
     <use xlink:href="#m292c6daeac" x="123.45153" y="147.939828" style="fill: #daa520; stroke: #daa520"/>
     <use xlink:href="#m292c6daeac" x="274.956968" y="101.398869" style="fill: #daa520; stroke: #daa520"/>
     <use xlink:href="#m292c6daeac" x="133.009431" y="140.615442" style="fill: #daa520; stroke: #daa520"/>
     <use xlink:href="#m292c6daeac" x="95.079648" y="147.126753" style="fill: #daa520; stroke: #daa520"/>
     <use xlink:href="#m292c6daeac" x="87.049283" y="146.68852" style="fill: #daa520; stroke: #daa520"/>
     <use xlink:href="#m292c6daeac" x="143.775295" y="133.528804" style="fill: #daa520; stroke: #daa520"/>
     <use xlink:href="#m292c6daeac" x="233.331633" y="81.98919" style="fill: #daa520; stroke: #daa520"/>
     <use xlink:href="#m292c6daeac" x="371.801508" y="89.281971" style="fill: #daa520; stroke: #daa520"/>
     <use xlink:href="#m292c6daeac" x="196.721237" y="86.612477" style="fill: #daa520; stroke: #daa520"/>
     <use xlink:href="#m292c6daeac" x="206.808344" y="97.005749" style="fill: #daa520; stroke: #daa520"/>
     <use xlink:href="#m292c6daeac" x="136.461485" y="141.839615" style="fill: #daa520; stroke: #daa520"/>
     <use xlink:href="#m292c6daeac" x="343.467498" y="98.001325" style="fill: #daa520; stroke: #daa520"/>
     <use xlink:href="#m292c6daeac" x="162.666361" y="120.6937" style="fill: #daa520; stroke: #daa520"/>
     <use xlink:href="#m292c6daeac" x="378.629292" y="100.441851" style="fill: #daa520; stroke: #daa520"/>
     <use xlink:href="#m292c6daeac" x="283.241933" y="115.981006" style="fill: #daa520; stroke: #daa520"/>
     <use xlink:href="#m292c6daeac" x="375.509988" y="119.313077" style="fill: #daa520; stroke: #daa520"/>
     <use xlink:href="#m292c6daeac" x="404.642204" y="89.252531" style="fill: #daa520; stroke: #daa520"/>
     <use xlink:href="#m292c6daeac" x="295.052294" y="112.178163" style="fill: #daa520; stroke: #daa520"/>
     <use xlink:href="#m292c6daeac" x="85.443662" y="151.984371" style="fill: #daa520; stroke: #daa520"/>
     <use xlink:href="#m292c6daeac" x="384.905691" y="126.002605" style="fill: #daa520; stroke: #daa520"/>
     <use xlink:href="#m292c6daeac" x="247.721975" y="89.821747" style="fill: #daa520; stroke: #daa520"/>
     <use xlink:href="#m292c6daeac" x="114.511396" y="144.008943" style="fill: #daa520; stroke: #daa520"/>
     <use xlink:href="#m292c6daeac" x="233.045165" y="92.955624" style="fill: #daa520; stroke: #daa520"/>
     <use xlink:href="#m292c6daeac" x="289.842941" y="106.186378" style="fill: #daa520; stroke: #daa520"/>
     <use xlink:href="#m292c6daeac" x="350.943336" y="102.098566" style="fill: #daa520; stroke: #daa520"/>
     <use xlink:href="#m292c6daeac" x="135.681866" y="141.519879" style="fill: #daa520; stroke: #daa520"/>
     <use xlink:href="#m292c6daeac" x="361.023892" y="91.960123" style="fill: #daa520; stroke: #daa520"/>
     <use xlink:href="#m292c6daeac" x="310.33898" y="110.486588" style="fill: #daa520; stroke: #daa520"/>
     <use xlink:href="#m292c6daeac" x="371.828227" y="116.408429" style="fill: #daa520; stroke: #daa520"/>
     <use xlink:href="#m292c6daeac" x="283.414623" y="104.752576" style="fill: #daa520; stroke: #daa520"/>
     <use xlink:href="#m292c6daeac" x="399.548003" y="109.507247" style="fill: #daa520; stroke: #daa520"/>
     <use xlink:href="#m292c6daeac" x="350.582701" y="104.998736" style="fill: #daa520; stroke: #daa520"/>
     <use xlink:href="#m292c6daeac" x="124.781153" y="131.622668" style="fill: #daa520; stroke: #daa520"/>
     <use xlink:href="#m292c6daeac" x="399.670015" y="111.213423" style="fill: #daa520; stroke: #daa520"/>
     <use xlink:href="#m292c6daeac" x="328.846654" y="101.57054" style="fill: #daa520; stroke: #daa520"/>
     <use xlink:href="#m292c6daeac" x="187.658255" y="105.967082" style="fill: #daa520; stroke: #daa520"/>
     <use xlink:href="#m292c6daeac" x="191.417944" y="113.170469" style="fill: #daa520; stroke: #daa520"/>
     <use xlink:href="#m292c6daeac" x="335.612843" y="105.138464" style="fill: #daa520; stroke: #daa520"/>
     <use xlink:href="#m292c6daeac" x="176.99093" y="118.596487" style="fill: #daa520; stroke: #daa520"/>
     <use xlink:href="#m292c6daeac" x="361.321612" y="91.552455" style="fill: #daa520; stroke: #daa520"/>
     <use xlink:href="#m292c6daeac" x="380.182252" y="123.03531" style="fill: #daa520; stroke: #daa520"/>
     <use xlink:href="#m292c6daeac" x="408.624576" y="121.086378" style="fill: #daa520; stroke: #daa520"/>
     <use xlink:href="#m292c6daeac" x="320.866683" y="105.976084" style="fill: #daa520; stroke: #daa520"/>
     <use xlink:href="#m292c6daeac" x="220.357414" y="75.013818" style="fill: #daa520; stroke: #daa520"/>
     <use xlink:href="#m292c6daeac" x="116.172516" y="135.975746" style="fill: #daa520; stroke: #daa520"/>
     <use xlink:href="#m292c6daeac" x="378.178331" y="119.266574" style="fill: #daa520; stroke: #daa520"/>
     <use xlink:href="#m292c6daeac" x="370.751835" y="107.337233" style="fill: #daa520; stroke: #daa520"/>
     <use xlink:href="#m292c6daeac" x="384.638999" y="124.27658" style="fill: #daa520; stroke: #daa520"/>
     <use xlink:href="#m292c6daeac" x="324.460764" y="108.361686" style="fill: #daa520; stroke: #daa520"/>
     <use xlink:href="#m292c6daeac" x="237.282514" y="84.821128" style="fill: #daa520; stroke: #daa520"/>
     <use xlink:href="#m292c6daeac" x="129.094575" y="134.638169" style="fill: #daa520; stroke: #daa520"/>
     <use xlink:href="#m292c6daeac" x="325.873593" y="102.711251" style="fill: #daa520; stroke: #daa520"/>
     <use xlink:href="#m292c6daeac" x="125.034665" y="131.229184" style="fill: #daa520; stroke: #daa520"/>
    </g>
   </g>
   <g id="matplotlib.axis_3"/>
   <g id="matplotlib.axis_4">
    <g id="ytick_1">
     <g id="line2d_3">
      <defs>
       <path id="md3a9841011" d="M 0 0 
L -3.5 0 
" style="stroke: #696969; stroke-width: 0.8"/>
      </defs>
      <g>
       <use xlink:href="#md3a9841011" x="53.0525" y="148.675981" style="fill: #696969; stroke: #696969; stroke-width: 0.8"/>
      </g>
     </g>
     <g id="text_1">
      <!-- −5 -->
      <g style="fill: #696969" transform="translate(22.465 154.754731) scale(0.16 -0.16)">
       <defs>
        <path id="DejaVuSans-2212" d="M 678 2272 
L 4684 2272 
L 4684 1741 
L 678 1741 
L 678 2272 
z
" transform="scale(0.015625)"/>
        <path id="DejaVuSans-35" d="M 691 4666 
L 3169 4666 
L 3169 4134 
L 1269 4134 
L 1269 2991 
Q 1406 3038 1543 3061 
Q 1681 3084 1819 3084 
Q 2600 3084 3056 2656 
Q 3513 2228 3513 1497 
Q 3513 744 3044 326 
Q 2575 -91 1722 -91 
Q 1428 -91 1123 -41 
Q 819 9 494 109 
L 494 744 
Q 775 591 1075 516 
Q 1375 441 1709 441 
Q 2250 441 2565 725 
Q 2881 1009 2881 1497 
Q 2881 1984 2565 2268 
Q 2250 2553 1709 2553 
Q 1456 2553 1204 2497 
Q 953 2441 691 2322 
L 691 4666 
z
" transform="scale(0.015625)"/>
       </defs>
       <use xlink:href="#DejaVuSans-2212"/>
       <use xlink:href="#DejaVuSans-35" x="83.789062"/>
      </g>
     </g>
    </g>
    <g id="ytick_2">
     <g id="line2d_4">
      <g>
       <use xlink:href="#md3a9841011" x="53.0525" y="119.876286" style="fill: #696969; stroke: #696969; stroke-width: 0.8"/>
      </g>
     </g>
     <g id="text_2">
      <!-- 0 -->
      <g style="fill: #696969" transform="translate(35.8725 125.955036) scale(0.16 -0.16)">
       <defs>
        <path id="DejaVuSans-30" d="M 2034 4250 
Q 1547 4250 1301 3770 
Q 1056 3291 1056 2328 
Q 1056 1369 1301 889 
Q 1547 409 2034 409 
Q 2525 409 2770 889 
Q 3016 1369 3016 2328 
Q 3016 3291 2770 3770 
Q 2525 4250 2034 4250 
z
M 2034 4750 
Q 2819 4750 3233 4129 
Q 3647 3509 3647 2328 
Q 3647 1150 3233 529 
Q 2819 -91 2034 -91 
Q 1250 -91 836 529 
Q 422 1150 422 2328 
Q 422 3509 836 4129 
Q 1250 4750 2034 4750 
z
" transform="scale(0.015625)"/>
       </defs>
       <use xlink:href="#DejaVuSans-30"/>
      </g>
     </g>
    </g>
    <g id="ytick_3">
     <g id="line2d_5">
      <g>
       <use xlink:href="#md3a9841011" x="53.0525" y="91.076591" style="fill: #696969; stroke: #696969; stroke-width: 0.8"/>
      </g>
     </g>
     <g id="text_3">
      <!-- 5 -->
      <g style="fill: #696969" transform="translate(35.8725 97.155341) scale(0.16 -0.16)">
       <use xlink:href="#DejaVuSans-35"/>
      </g>
     </g>
    </g>
   </g>
   <g id="line2d_6">
    <path d="M 70.462045 156.485254 
L 77.425864 154.679184 
L 84.389682 152.852116 
L 91.3535 151.09849 
L 98.317318 149.391848 
L 105.281136 147.647031 
L 112.244955 145.780711 
L 119.208773 143.740515 
L 126.172591 141.498285 
L 133.136409 139.021919 
L 140.100227 136.246712 
L 147.064045 133.065248 
L 154.027864 129.348749 
L 160.991682 125.001541 
L 167.9555 120.03289 
L 174.919318 114.61361 
L 181.883136 109.082142 
L 188.846955 103.884457 
L 195.810773 99.466178 
L 202.774591 96.162073 
L 209.738409 94.128947 
L 216.702227 93.342934 
L 223.666045 93.649004 
L 230.629864 94.829508 
L 237.593682 96.658621 
L 244.5575 98.925535 
L 251.521318 101.429522 
L 258.485136 103.964381 
L 265.448955 106.312746 
L 272.412773 108.26191 
L 279.376591 109.637609 
L 286.340409 110.340094 
L 293.304227 110.364468 
L 300.268045 109.795185 
L 307.231864 108.777006 
L 314.195682 107.475094 
L 321.1595 106.04182 
L 328.123318 104.605293 
L 335.087136 103.283819 
L 342.050955 102.213325 
L 349.014773 101.560561 
L 355.978591 101.495776 
L 362.942409 102.121764 
L 369.906227 103.391178 
L 376.870045 105.066745 
L 383.833864 106.766641 
L 390.797682 108.090456 
L 397.7615 108.768248 
L 404.725318 108.753655 
L 411.689136 108.209916 
L 418.652955 107.397597 
" clip-path="url(#pe8904d42a0)" style="fill: none; stroke: #000000; stroke-width: 2; stroke-linecap: square"/>
   </g>
   <g id="line2d_7">
    <path d="M 70.462045 161.370182 
L 77.425864 158.285224 
L 84.389682 155.095049 
L 91.3535 151.826934 
L 98.317318 148.506855 
L 105.281136 145.159488 
L 112.244955 141.808204 
L 119.208773 138.475073 
L 126.172591 135.180863 
L 133.136409 131.94504 
L 140.100227 128.785767 
L 147.064045 125.719906 
L 154.027864 122.763016 
L 160.991682 119.929354 
L 167.9555 117.231876 
L 174.919318 114.682234 
L 181.883136 112.290778 
L 188.846955 110.066558 
L 195.810773 108.01732 
L 202.774591 106.149507 
L 209.738409 104.468263 
L 216.702227 102.977427 
L 223.666045 101.679538 
L 230.629864 100.57583 
L 237.593682 99.666237 
L 244.5575 98.949392 
L 251.521318 98.422622 
L 258.485136 98.081956 
L 265.448955 97.922118 
L 272.412773 97.936531 
L 279.376591 98.117316 
L 286.340409 98.455291 
L 293.304227 98.939974 
L 300.268045 99.559577 
L 307.231864 100.301014 
L 314.195682 101.149894 
L 321.1595 102.090525 
L 328.123318 103.105913 
L 335.087136 104.177762 
L 342.050955 105.286472 
L 349.014773 106.411144 
L 355.978591 107.529574 
L 362.942409 108.618258 
L 369.906227 109.652387 
L 376.870045 110.605854 
L 383.833864 111.451246 
L 390.797682 112.15985 
L 397.7615 112.70165 
L 404.725318 113.045329 
L 411.689136 113.158266 
L 418.652955 113.00654 
" clip-path="url(#pe8904d42a0)" style="fill: none; stroke-dasharray: 7.4,3.2; stroke-dashoffset: 0; stroke: #34b6c6; stroke-width: 2"/>
   </g>
   <g id="line2d_8">
    <path d="M 70.462045 150.929808 
L 77.425864 150.797136 
L 84.389682 150.138721 
L 91.3535 148.906888 
L 98.317318 147.228917 
L 105.281136 145.387114 
L 112.244955 143.593804 
L 119.208773 141.81178 
L 126.172591 139.816675 
L 133.136409 137.392361 
L 140.100227 134.489563 
L 147.064045 131.203026 
L 154.027864 127.539021 
L 160.991682 123.268661 
L 167.9555 118.083361 
L 174.919318 111.973744 
L 181.883136 105.691035 
L 188.846955 100.107155 
L 195.810773 95.233348 
L 202.774591 91.199363 
L 209.738409 88.740915 
L 216.702227 87.887266 
L 223.666045 88.407508 
L 230.629864 90.446356 
L 237.593682 92.889108 
L 244.5575 95.075563 
L 251.521318 97.777689 
L 258.485136 101.333094 
L 265.448955 104.776006 
L 272.412773 106.958873 
L 279.376591 108.095397 
L 286.340409 108.680367 
L 293.304227 108.948568 
L 300.268045 108.936578 
L 307.231864 108.503753 
L 314.195682 107.356602 
L 321.1595 105.50472 
L 328.123318 103.744757 
L 335.087136 102.780557 
L 342.050955 102.623562 
L 349.014773 103.073656 
L 355.978591 104.010504 
L 362.942409 105.379631 
L 369.906227 107.089217 
L 376.870045 108.927695 
L 383.833864 110.636593 
L 390.797682 112.081845 
L 397.7615 113.283618 
L 404.725318 114.321741 
L 411.689136 115.267639 
L 418.652955 116.168752 
" clip-path="url(#pe8904d42a0)" style="fill: none; stroke-dasharray: 7.4,3.2; stroke-dashoffset: 0; stroke: #9370db; stroke-width: 2"/>
   </g>
   <g id="line2d_9">
    <path d="M 70.462045 155.259587 
L 77.425864 154.398234 
L 84.389682 153.139463 
L 91.3535 151.436837 
L 98.317318 149.398672 
L 105.281136 147.270418 
L 112.244955 145.235762 
L 119.208773 143.257921 
L 126.172591 141.134767 
L 133.136409 138.671555 
L 140.100227 135.821132 
L 147.064045 132.663744 
L 154.027864 129.201535 
L 160.991682 125.228876 
L 167.9555 120.469794 
L 174.919318 114.912893 
L 181.883136 109.219211 
L 188.846955 104.156573 
L 195.810773 99.732112 
L 202.774591 96.057809 
L 209.738409 93.781389 
L 216.702227 92.926206 
L 223.666045 93.285738 
L 230.629864 94.985594 
L 237.593682 97.038222 
L 244.5575 98.857924 
L 251.521318 101.125064 
L 258.485136 104.136152 
L 265.448955 107.03568 
L 272.412773 108.807553 
L 279.376591 109.639054 
L 286.340409 109.966027 
L 293.304227 109.994591 
L 300.268045 109.755754 
L 307.231864 109.12397 
L 314.195682 107.838685 
L 321.1595 105.907354 
L 328.123318 104.033247 
L 335.087136 102.837696 
L 342.050955 102.330087 
L 349.014773 102.332898 
L 355.978591 102.739228 
L 362.942409 103.500492 
L 369.906227 104.535194 
L 376.870045 105.656086 
L 383.833864 106.634555 
L 390.797682 107.352062 
L 397.7615 107.826493 
L 404.725318 108.128576 
L 411.689136 108.321707 
L 418.652955 108.448182 
" clip-path="url(#pe8904d42a0)" style="fill: none; stroke-dasharray: 12.8,3.2,2,3.2; stroke-dashoffset: 0; stroke: #ff0000; stroke-width: 2"/>
   </g>
   <g id="patch_4">
    <path d="M 53.0525 165.688 
L 53.0525 70.696 
" style="fill: none; stroke: #000000; stroke-width: 0.8; stroke-linejoin: miter; stroke-linecap: square"/>
   </g>
   <g id="patch_5">
    <path d="M 436.0625 165.688 
L 436.0625 70.696 
" style="fill: none; stroke: #000000; stroke-width: 0.8; stroke-linejoin: miter; stroke-linecap: square"/>
   </g>
   <g id="patch_6">
    <path d="M 53.0525 165.688 
L 436.0625 165.688 
" style="fill: none; stroke: #000000; stroke-width: 0.8; stroke-linejoin: miter; stroke-linecap: square"/>
   </g>
   <g id="patch_7">
    <path d="M 53.0525 70.696 
L 436.0625 70.696 
" style="fill: none; stroke: #000000; stroke-width: 0.8; stroke-linejoin: miter; stroke-linecap: square"/>
   </g>
  </g>
  <g id="axes_3">
   <g id="patch_8">
    <path d="M 53.0525 276.68 
L 436.0625 276.68 
L 436.0625 181.688 
L 53.0525 181.688 
z
" style="fill: #ffffff"/>
   </g>
   <g id="PathCollection_2">
    <g clip-path="url(#pa83905fea5)">
     <use xlink:href="#m292c6daeac" x="404.176587" y="246.865611" style="fill: #daa520; stroke: #daa520"/>
     <use xlink:href="#m292c6daeac" x="409.908769" y="187.904813" style="fill: #daa520; stroke: #daa520"/>
     <use xlink:href="#m292c6daeac" x="384.027972" y="218.87962" style="fill: #daa520; stroke: #daa520"/>
     <use xlink:href="#m292c6daeac" x="378.46506" y="210.233122" style="fill: #daa520; stroke: #daa520"/>
     <use xlink:href="#m292c6daeac" x="83.551901" y="243.050014" style="fill: #daa520; stroke: #daa520"/>
     <use xlink:href="#m292c6daeac" x="256.075153" y="251.035458" style="fill: #daa520; stroke: #daa520"/>
     <use xlink:href="#m292c6daeac" x="357.619769" y="255.344881" style="fill: #daa520; stroke: #daa520"/>
     <use xlink:href="#m292c6daeac" x="160.169627" y="232.614558" style="fill: #daa520; stroke: #daa520"/>
     <use xlink:href="#m292c6daeac" x="154.194398" y="235.9675" style="fill: #daa520; stroke: #daa520"/>
     <use xlink:href="#m292c6daeac" x="170.17553" y="258.959605" style="fill: #daa520; stroke: #daa520"/>
     <use xlink:href="#m292c6daeac" x="367.443644" y="225.681129" style="fill: #daa520; stroke: #daa520"/>
     <use xlink:href="#m292c6daeac" x="313.844228" y="239.110935" style="fill: #daa520; stroke: #daa520"/>
     <use xlink:href="#m292c6daeac" x="267.503506" y="232.610372" style="fill: #daa520; stroke: #daa520"/>
     <use xlink:href="#m292c6daeac" x="406.085432" y="186.005818" style="fill: #daa520; stroke: #daa520"/>
     <use xlink:href="#m292c6daeac" x="416.371492" y="245.862043" style="fill: #daa520; stroke: #daa520"/>
     <use xlink:href="#m292c6daeac" x="99.93091" y="231.674822" style="fill: #daa520; stroke: #daa520"/>
     <use xlink:href="#m292c6daeac" x="109.124646" y="223.905847" style="fill: #daa520; stroke: #daa520"/>
     <use xlink:href="#m292c6daeac" x="253.370078" y="252.216593" style="fill: #daa520; stroke: #daa520"/>
     <use xlink:href="#m292c6daeac" x="341.500212" y="230.536312" style="fill: #daa520; stroke: #daa520"/>
     <use xlink:href="#m292c6daeac" x="236.499787" y="240.132758" style="fill: #daa520; stroke: #daa520"/>
     <use xlink:href="#m292c6daeac" x="140.774089" y="251.375995" style="fill: #daa520; stroke: #daa520"/>
     <use xlink:href="#m292c6daeac" x="115.235162" y="252.528676" style="fill: #daa520; stroke: #daa520"/>
     <use xlink:href="#m292c6daeac" x="183.656609" y="218.028371" style="fill: #daa520; stroke: #daa520"/>
     <use xlink:href="#m292c6daeac" x="163.126847" y="245.751874" style="fill: #daa520; stroke: #daa520"/>
     <use xlink:href="#m292c6daeac" x="290.978831" y="221.495208" style="fill: #daa520; stroke: #daa520"/>
     <use xlink:href="#m292c6daeac" x="266.398333" y="243.30438" style="fill: #daa520; stroke: #daa520"/>
     <use xlink:href="#m292c6daeac" x="384.833932" y="195.585749" style="fill: #daa520; stroke: #daa520"/>
     <use xlink:href="#m292c6daeac" x="331.790503" y="229.198109" style="fill: #daa520; stroke: #daa520"/>
     <use xlink:href="#m292c6daeac" x="178.844073" y="212.47999" style="fill: #daa520; stroke: #daa520"/>
     <use xlink:href="#m292c6daeac" x="368.288265" y="242.81612" style="fill: #daa520; stroke: #daa520"/>
     <use xlink:href="#m292c6daeac" x="369.9025" y="213.775195" style="fill: #daa520; stroke: #daa520"/>
     <use xlink:href="#m292c6daeac" x="343.364893" y="228.043572" style="fill: #daa520; stroke: #daa520"/>
     <use xlink:href="#m292c6daeac" x="154.042445" y="233.064566" style="fill: #daa520; stroke: #daa520"/>
     <use xlink:href="#m292c6daeac" x="399.309128" y="192.202294" style="fill: #daa520; stroke: #daa520"/>
     <use xlink:href="#m292c6daeac" x="394.314455" y="242.603594" style="fill: #daa520; stroke: #daa520"/>
     <use xlink:href="#m292c6daeac" x="374.147316" y="257.959693" style="fill: #daa520; stroke: #daa520"/>
     <use xlink:href="#m292c6daeac" x="410.859543" y="244.660072" style="fill: #daa520; stroke: #daa520"/>
     <use xlink:href="#m292c6daeac" x="123.45153" y="222.41658" style="fill: #daa520; stroke: #daa520"/>
     <use xlink:href="#m292c6daeac" x="274.956968" y="250.064535" style="fill: #daa520; stroke: #daa520"/>
     <use xlink:href="#m292c6daeac" x="133.009431" y="230.56374" style="fill: #daa520; stroke: #daa520"/>
     <use xlink:href="#m292c6daeac" x="95.079648" y="240.913337" style="fill: #daa520; stroke: #daa520"/>
     <use xlink:href="#m292c6daeac" x="87.049283" y="246.154639" style="fill: #daa520; stroke: #daa520"/>
     <use xlink:href="#m292c6daeac" x="143.775295" y="235.7057" style="fill: #daa520; stroke: #daa520"/>
     <use xlink:href="#m292c6daeac" x="233.331633" y="262.221645" style="fill: #daa520; stroke: #daa520"/>
     <use xlink:href="#m292c6daeac" x="371.801508" y="265.693979" style="fill: #daa520; stroke: #daa520"/>
     <use xlink:href="#m292c6daeac" x="196.721237" y="259.704239" style="fill: #daa520; stroke: #daa520"/>
     <use xlink:href="#m292c6daeac" x="206.808344" y="229.431167" style="fill: #daa520; stroke: #daa520"/>
     <use xlink:href="#m292c6daeac" x="136.461485" y="225.352844" style="fill: #daa520; stroke: #daa520"/>
     <use xlink:href="#m292c6daeac" x="343.467498" y="243.018025" style="fill: #daa520; stroke: #daa520"/>
     <use xlink:href="#m292c6daeac" x="162.666361" y="241.363556" style="fill: #daa520; stroke: #daa520"/>
     <use xlink:href="#m292c6daeac" x="378.629292" y="245.411962" style="fill: #daa520; stroke: #daa520"/>
     <use xlink:href="#m292c6daeac" x="283.241933" y="222.068775" style="fill: #daa520; stroke: #daa520"/>
     <use xlink:href="#m292c6daeac" x="375.509988" y="206.461579" style="fill: #daa520; stroke: #daa520"/>
     <use xlink:href="#m292c6daeac" x="404.642204" y="272.362182" style="fill: #daa520; stroke: #daa520"/>
     <use xlink:href="#m292c6daeac" x="295.052294" y="229.91764" style="fill: #daa520; stroke: #daa520"/>
     <use xlink:href="#m292c6daeac" x="85.443662" y="236.240735" style="fill: #daa520; stroke: #daa520"/>
     <use xlink:href="#m292c6daeac" x="384.905691" y="195.656597" style="fill: #daa520; stroke: #daa520"/>
     <use xlink:href="#m292c6daeac" x="247.721975" y="254.454759" style="fill: #daa520; stroke: #daa520"/>
     <use xlink:href="#m292c6daeac" x="114.511396" y="235.55531" style="fill: #daa520; stroke: #daa520"/>
     <use xlink:href="#m292c6daeac" x="233.045165" y="239.97432" style="fill: #daa520; stroke: #daa520"/>
     <use xlink:href="#m292c6daeac" x="289.842941" y="242.078466" style="fill: #daa520; stroke: #daa520"/>
     <use xlink:href="#m292c6daeac" x="350.943336" y="235.000161" style="fill: #daa520; stroke: #daa520"/>
     <use xlink:href="#m292c6daeac" x="135.681866" y="226.633195" style="fill: #daa520; stroke: #daa520"/>
     <use xlink:href="#m292c6daeac" x="361.023892" y="257.117012" style="fill: #daa520; stroke: #daa520"/>
     <use xlink:href="#m292c6daeac" x="310.33898" y="230.672907" style="fill: #daa520; stroke: #daa520"/>
     <use xlink:href="#m292c6daeac" x="371.828227" y="211.108501" style="fill: #daa520; stroke: #daa520"/>
     <use xlink:href="#m292c6daeac" x="283.414623" y="244.681653" style="fill: #daa520; stroke: #daa520"/>
     <use xlink:href="#m292c6daeac" x="399.548003" y="231.178923" style="fill: #daa520; stroke: #daa520"/>
     <use xlink:href="#m292c6daeac" x="350.582701" y="229.130677" style="fill: #daa520; stroke: #daa520"/>
     <use xlink:href="#m292c6daeac" x="124.781153" y="254.421277" style="fill: #daa520; stroke: #daa520"/>
     <use xlink:href="#m292c6daeac" x="399.670015" y="227.756853" style="fill: #daa520; stroke: #daa520"/>
     <use xlink:href="#m292c6daeac" x="328.846654" y="239.012774" style="fill: #daa520; stroke: #daa520"/>
     <use xlink:href="#m292c6daeac" x="187.658255" y="232.368837" style="fill: #daa520; stroke: #daa520"/>
     <use xlink:href="#m292c6daeac" x="191.417944" y="212.823744" style="fill: #daa520; stroke: #daa520"/>
     <use xlink:href="#m292c6daeac" x="335.612843" y="229.626969" style="fill: #daa520; stroke: #daa520"/>
     <use xlink:href="#m292c6daeac" x="176.99093" y="223.493654" style="fill: #daa520; stroke: #daa520"/>
     <use xlink:href="#m292c6daeac" x="361.321612" y="258.010054" style="fill: #daa520; stroke: #daa520"/>
     <use xlink:href="#m292c6daeac" x="380.182252" y="200.395889" style="fill: #daa520; stroke: #daa520"/>
     <use xlink:href="#m292c6daeac" x="408.624576" y="208.537968" style="fill: #daa520; stroke: #daa520"/>
     <use xlink:href="#m292c6daeac" x="320.866683" y="234.414057" style="fill: #daa520; stroke: #daa520"/>
     <use xlink:href="#m292c6daeac" x="220.357414" y="270.484268" style="fill: #daa520; stroke: #daa520"/>
     <use xlink:href="#m292c6daeac" x="116.172516" y="250.778036" style="fill: #daa520; stroke: #daa520"/>
     <use xlink:href="#m292c6daeac" x="378.178331" y="207.389581" style="fill: #daa520; stroke: #daa520"/>
     <use xlink:href="#m292c6daeac" x="370.751835" y="229.013341" style="fill: #daa520; stroke: #daa520"/>
     <use xlink:href="#m292c6daeac" x="384.638999" y="199.067385" style="fill: #daa520; stroke: #daa520"/>
     <use xlink:href="#m292c6daeac" x="324.460764" y="227.528378" style="fill: #daa520; stroke: #daa520"/>
     <use xlink:href="#m292c6daeac" x="237.282514" y="258.799366" style="fill: #daa520; stroke: #daa520"/>
     <use xlink:href="#m292c6daeac" x="129.094575" y="245.470427" style="fill: #daa520; stroke: #daa520"/>
     <use xlink:href="#m292c6daeac" x="325.873593" y="238.140392" style="fill: #daa520; stroke: #daa520"/>
     <use xlink:href="#m292c6daeac" x="125.034665" y="255.051401" style="fill: #daa520; stroke: #daa520"/>
    </g>
   </g>
   <g id="matplotlib.axis_5">
    <g id="xtick_1">
     <g id="line2d_10">
      <defs>
       <path id="m9a7aba9eae" d="M 0 0 
L 0 3.5 
" style="stroke: #696969; stroke-width: 0.8"/>
      </defs>
      <g>
       <use xlink:href="#m9a7aba9eae" x="70.462045" y="276.68" style="fill: #696969; stroke: #696969; stroke-width: 0.8"/>
      </g>
     </g>
     <g id="text_4">
      <!-- −1.0 -->
      <g style="fill: #696969" transform="translate(51.035795 295.8375) scale(0.16 -0.16)">
       <defs>
        <path id="DejaVuSans-31" d="M 794 531 
L 1825 531 
L 1825 4091 
L 703 3866 
L 703 4441 
L 1819 4666 
L 2450 4666 
L 2450 531 
L 3481 531 
L 3481 0 
L 794 0 
L 794 531 
z
" transform="scale(0.015625)"/>
        <path id="DejaVuSans-2e" d="M 684 794 
L 1344 794 
L 1344 0 
L 684 0 
L 684 794 
z
" transform="scale(0.015625)"/>
       </defs>
       <use xlink:href="#DejaVuSans-2212"/>
       <use xlink:href="#DejaVuSans-31" x="83.789062"/>
       <use xlink:href="#DejaVuSans-2e" x="147.412109"/>
       <use xlink:href="#DejaVuSans-30" x="179.199219"/>
      </g>
     </g>
    </g>
    <g id="xtick_2">
     <g id="line2d_11">
      <g>
       <use xlink:href="#m9a7aba9eae" x="157.509773" y="276.68" style="fill: #696969; stroke: #696969; stroke-width: 0.8"/>
      </g>
     </g>
     <g id="text_5">
      <!-- −0.5 -->
      <g style="fill: #696969" transform="translate(138.083523 295.8375) scale(0.16 -0.16)">
       <use xlink:href="#DejaVuSans-2212"/>
       <use xlink:href="#DejaVuSans-30" x="83.789062"/>
       <use xlink:href="#DejaVuSans-2e" x="147.412109"/>
       <use xlink:href="#DejaVuSans-35" x="179.199219"/>
      </g>
     </g>
    </g>
    <g id="xtick_3">
     <g id="line2d_12">
      <g>
       <use xlink:href="#m9a7aba9eae" x="244.5575" y="276.68" style="fill: #696969; stroke: #696969; stroke-width: 0.8"/>
      </g>
     </g>
     <g id="text_6">
      <!-- 0.0 -->
      <g style="fill: #696969" transform="translate(231.835 295.8375) scale(0.16 -0.16)">
       <use xlink:href="#DejaVuSans-30"/>
       <use xlink:href="#DejaVuSans-2e" x="63.623047"/>
       <use xlink:href="#DejaVuSans-30" x="95.410156"/>
      </g>
     </g>
    </g>
    <g id="xtick_4">
     <g id="line2d_13">
      <g>
       <use xlink:href="#m9a7aba9eae" x="331.605227" y="276.68" style="fill: #696969; stroke: #696969; stroke-width: 0.8"/>
      </g>
     </g>
     <g id="text_7">
      <!-- 0.5 -->
      <g style="fill: #696969" transform="translate(318.882727 295.8375) scale(0.16 -0.16)">
       <use xlink:href="#DejaVuSans-30"/>
       <use xlink:href="#DejaVuSans-2e" x="63.623047"/>
       <use xlink:href="#DejaVuSans-35" x="95.410156"/>
      </g>
     </g>
    </g>
    <g id="xtick_5">
     <g id="line2d_14">
      <g>
       <use xlink:href="#m9a7aba9eae" x="418.652955" y="276.68" style="fill: #696969; stroke: #696969; stroke-width: 0.8"/>
      </g>
     </g>
     <g id="text_8">
      <!-- 1.0 -->
      <g style="fill: #696969" transform="translate(405.930455 295.8375) scale(0.16 -0.16)">
       <use xlink:href="#DejaVuSans-31"/>
       <use xlink:href="#DejaVuSans-2e" x="63.623047"/>
       <use xlink:href="#DejaVuSans-30" x="95.410156"/>
      </g>
     </g>
    </g>
    <g id="text_9">
     <!-- $X$ -->
     <g transform="translate(239.0375 315.3225) scale(0.16 -0.16)">
      <defs>
       <path id="DejaVuSans-Oblique-58" d="M 878 4666 
L 1516 4666 
L 2316 2981 
L 3763 4666 
L 4500 4666 
L 2578 2438 
L 3738 0 
L 3103 0 
L 2163 1966 
L 459 0 
L -275 0 
L 1906 2509 
L 878 4666 
z
" transform="scale(0.015625)"/>
      </defs>
      <use xlink:href="#DejaVuSans-Oblique-58" transform="translate(0 0.09375)"/>
     </g>
    </g>
   </g>
   <g id="matplotlib.axis_6">
    <g id="ytick_4">
     <g id="line2d_15">
      <g>
       <use xlink:href="#md3a9841011" x="53.0525" y="263.359219" style="fill: #696969; stroke: #696969; stroke-width: 0.8"/>
      </g>
     </g>
     <g id="text_10">
      <!-- −2.5 -->
      <g style="fill: #696969" transform="translate(7.2 269.437969) scale(0.16 -0.16)">
       <defs>
        <path id="DejaVuSans-32" d="M 1228 531 
L 3431 531 
L 3431 0 
L 469 0 
L 469 531 
Q 828 903 1448 1529 
Q 2069 2156 2228 2338 
Q 2531 2678 2651 2914 
Q 2772 3150 2772 3378 
Q 2772 3750 2511 3984 
Q 2250 4219 1831 4219 
Q 1534 4219 1204 4116 
Q 875 4013 500 3803 
L 500 4441 
Q 881 4594 1212 4672 
Q 1544 4750 1819 4750 
Q 2544 4750 2975 4387 
Q 3406 4025 3406 3419 
Q 3406 3131 3298 2873 
Q 3191 2616 2906 2266 
Q 2828 2175 2409 1742 
Q 1991 1309 1228 531 
z
" transform="scale(0.015625)"/>
       </defs>
       <use xlink:href="#DejaVuSans-2212"/>
       <use xlink:href="#DejaVuSans-32" x="83.789062"/>
       <use xlink:href="#DejaVuSans-2e" x="147.412109"/>
       <use xlink:href="#DejaVuSans-35" x="179.199219"/>
      </g>
     </g>
    </g>
    <g id="ytick_5">
     <g id="line2d_16">
      <g>
       <use xlink:href="#md3a9841011" x="53.0525" y="234.378341" style="fill: #696969; stroke: #696969; stroke-width: 0.8"/>
      </g>
     </g>
     <g id="text_11">
      <!-- 0.0 -->
      <g style="fill: #696969" transform="translate(20.6075 240.457091) scale(0.16 -0.16)">
       <use xlink:href="#DejaVuSans-30"/>
       <use xlink:href="#DejaVuSans-2e" x="63.623047"/>
       <use xlink:href="#DejaVuSans-30" x="95.410156"/>
      </g>
     </g>
    </g>
    <g id="ytick_6">
     <g id="line2d_17">
      <g>
       <use xlink:href="#md3a9841011" x="53.0525" y="205.397463" style="fill: #696969; stroke: #696969; stroke-width: 0.8"/>
      </g>
     </g>
     <g id="text_12">
      <!-- 2.5 -->
      <g style="fill: #696969" transform="translate(20.6075 211.476213) scale(0.16 -0.16)">
       <use xlink:href="#DejaVuSans-32"/>
       <use xlink:href="#DejaVuSans-2e" x="63.623047"/>
       <use xlink:href="#DejaVuSans-35" x="95.410156"/>
      </g>
     </g>
    </g>
   </g>
   <g id="line2d_18">
    <path d="M 70.462045 231.911586 
L 77.425864 233.812907 
L 84.389682 234.956651 
L 91.3535 235.05929 
L 98.317318 234.392074 
L 105.281136 233.620376 
L 112.244955 233.281586 
L 119.208773 233.40708 
L 126.172591 233.646731 
L 133.136409 233.673205 
L 140.100227 233.521827 
L 147.064045 233.570281 
L 154.027864 234.082061 
L 160.991682 234.835872 
L 167.9555 235.257645 
L 174.919318 234.980671 
L 181.883136 234.654203 
L 188.846955 234.925998 
L 195.810773 234.913556 
L 202.774591 234.168502 
L 209.738409 233.678852 
L 216.702227 233.539643 
L 223.666045 233.64724 
L 230.629864 234.692477 
L 237.593682 235.142319 
L 244.5575 234.242268 
L 251.521318 233.765594 
L 258.485136 234.724046 
L 265.448955 235.833304 
L 272.412773 235.476493 
L 279.376591 234.381248 
L 286.340409 233.625502 
L 293.304227 233.633933 
L 300.268045 234.298984 
L 307.231864 235.076635 
L 314.195682 235.110099 
L 321.1595 234.107717 
L 328.123318 233.227051 
L 335.087136 233.480483 
L 342.050955 234.613333 
L 349.014773 235.932734 
L 355.978591 236.880891 
L 362.942409 237.153145 
L 369.906227 236.680768 
L 376.870045 235.564438 
L 383.833864 234.112507 
L 390.797682 232.892261 
L 397.7615 232.48298 
L 404.725318 233.120318 
L 411.689136 234.603331 
L 418.652955 236.49273 
" clip-path="url(#pa83905fea5)" style="fill: none; stroke: #696969; stroke-width: 2; stroke-linecap: square"/>
   </g>
   <g id="line2d_19">
    <path d="M 70.462045 239.61182 
L 77.425864 239.325372 
L 84.389682 239.102372 
L 91.3535 238.937285 
L 98.317318 238.824681 
L 105.281136 238.759234 
L 112.244955 238.735722 
L 119.208773 238.749027 
L 126.172591 238.794135 
L 133.136409 238.866136 
L 140.100227 238.960224 
L 147.064045 239.071697 
L 154.027864 239.195957 
L 160.991682 239.32851 
L 167.9555 239.464967 
L 174.919318 239.601041 
L 181.883136 239.732551 
L 188.846955 239.855418 
L 195.810773 239.965669 
L 202.774591 240.059435 
L 209.738409 240.132949 
L 216.702227 240.18255 
L 223.666045 240.204681 
L 230.629864 240.195887 
L 237.593682 240.152819 
L 244.5575 240.072231 
L 251.521318 239.950981 
L 258.485136 239.786033 
L 265.448955 239.574453 
L 272.412773 239.313411 
L 279.376591 239.000181 
L 286.340409 238.632143 
L 293.304227 238.206779 
L 300.268045 237.721675 
L 307.231864 237.174522 
L 314.195682 236.563114 
L 321.1595 235.885351 
L 328.123318 235.139235 
L 335.087136 234.322873 
L 342.050955 233.434475 
L 349.014773 232.472356 
L 355.978591 231.434936 
L 362.942409 230.320736 
L 369.906227 229.128384 
L 376.870045 227.856611 
L 383.833864 226.504251 
L 390.797682 225.070244 
L 397.7615 223.553632 
L 404.725318 221.953562 
L 411.689136 220.269286 
L 418.652955 218.500158 
" clip-path="url(#pa83905fea5)" style="fill: none; stroke-dasharray: 7.4,3.2; stroke-dashoffset: 0; stroke: #79ad41; stroke-width: 2"/>
   </g>
   <g id="patch_9">
    <path d="M 53.0525 276.68 
L 53.0525 181.688 
" style="fill: none; stroke: #000000; stroke-width: 0.8; stroke-linejoin: miter; stroke-linecap: square"/>
   </g>
   <g id="patch_10">
    <path d="M 436.0625 276.68 
L 436.0625 181.688 
" style="fill: none; stroke: #000000; stroke-width: 0.8; stroke-linejoin: miter; stroke-linecap: square"/>
   </g>
   <g id="patch_11">
    <path d="M 53.0525 276.68 
L 436.0625 276.68 
" style="fill: none; stroke: #000000; stroke-width: 0.8; stroke-linejoin: miter; stroke-linecap: square"/>
   </g>
   <g id="patch_12">
    <path d="M 53.0525 181.688 
L 436.0625 181.688 
" style="fill: none; stroke: #000000; stroke-width: 0.8; stroke-linejoin: miter; stroke-linecap: square"/>
   </g>
  </g>
 </g>
 <defs>
  <clipPath id="p784ac9ea6b">
   <rect x="53.0525" y="7.2" width="383.01" height="47.496"/>
  </clipPath>
  <clipPath id="pe8904d42a0">
   <rect x="53.0525" y="70.696" width="383.01" height="94.992"/>
  </clipPath>
  <clipPath id="pa83905fea5">
   <rect x="53.0525" y="181.688" width="383.01" height="94.992"/>
  </clipPath>
 </defs>
</svg>
