<?xml version="1.0" encoding="utf-8" standalone="no"?>
<!DOCTYPE svg PUBLIC "-//W3C//DTD SVG 1.1//EN"
  "http://www.w3.org/Graphics/SVG/1.1/DTD/svg11.dtd">
<svg xmlns:xlink="http://www.w3.org/1999/xlink" width="443.2625pt" height="325.85pt" viewBox="0 0 443.2625 325.85" xmlns="http://www.w3.org/2000/svg" version="1.1">
 <metadata>
  <rdf:RDF xmlns:dc="http://purl.org/dc/elements/1.1/" xmlns:cc="http://creativecommons.org/ns#" xmlns:rdf="http://www.w3.org/1999/02/22-rdf-syntax-ns#">
   <cc:Work>
    <dc:type rdf:resource="http://purl.org/dc/dcmitype/StillImage"/>
    <dc:date>2024-01-28T20:57:06.895964</dc:date>
    <dc:format>image/svg+xml</dc:format>
    <dc:creator>
     <cc:Agent>
      <dc:title>Matplotlib v3.7.2, https://matplotlib.org/</dc:title>
     </cc:Agent>
    </dc:creator>
   </cc:Work>
  </rdf:RDF>
 </metadata>
 <defs>
  <style type="text/css">*{stroke-linejoin: round; stroke-linecap: butt}</style>
 </defs>
 <g id="figure_1">
  <g id="patch_1">
   <path d="M 0 325.85 
L 443.2625 325.85 
L 443.2625 0 
L 0 0 
z
" style="fill: #ffffff"/>
  </g>
  <g id="axes_1">
   <g id="patch_2">
    <path d="M 53.0525 54.696 
L 436.0625 54.696 
L 436.0625 7.2 
L 53.0525 7.2 
z
" style="fill: #ffffff"/>
   </g>
   <g id="PolyCollection_1">
    <defs>
     <path id="ma3a7a7e9e3" d="M 70.462045 -273.312909 
L 70.462045 -309.713679 
L 77.425864 -309.464067 
L 84.389682 -309.142771 
L 91.3535 -308.751743 
L 98.317318 -308.293036 
L 105.281136 -307.769001 
L 112.244955 -307.182524 
L 119.208773 -306.537201 
L 126.172591 -305.837567 
L 133.136409 -305.089166 
L 140.100227 -304.298677 
L 147.064045 -303.473919 
L 154.027864 -302.623792 
L 160.991682 -301.758158 
L 167.9555 -300.887633 
L 174.919318 -300.023381 
L 181.883136 -299.176806 
L 188.846955 -298.35927 
L 195.810773 -297.581871 
L 202.774591 -296.855179 
L 209.738409 -296.189107 
L 216.702227 -295.592786 
L 223.666045 -295.074577 
L 230.629864 -294.642089 
L 237.593682 -294.302275 
L 244.5575 -294.061552 
L 251.521318 -293.925956 
L 258.485136 -293.901238 
L 265.448955 -293.992968 
L 272.412773 -294.206553 
L 279.376591 -294.547168 
L 286.340409 -295.019563 
L 293.304227 -295.627723 
L 300.268045 -296.374402 
L 307.231864 -297.260447 
L 314.195682 -298.284002 
L 321.1595 -299.439651 
L 328.123318 -300.717584 
L 335.087136 -302.102906 
L 342.050955 -303.575371 
L 349.014773 -305.109622 
L 355.978591 -306.676111 
L 362.942409 -308.24272 
L 369.906227 -309.776886 
L 376.870045 -311.248002 
L 383.833864 -312.629657 
L 390.797682 -313.901369 
L 397.7615 -315.049569 
L 404.725318 -316.067706 
L 411.689136 -316.491091 
L 418.652955 -316.491091 
L 418.652955 -273.312909 
L 418.652955 -273.312909 
L 411.689136 -273.312909 
L 404.725318 -273.312909 
L 397.7615 -273.312909 
L 390.797682 -273.312909 
L 383.833864 -273.312909 
L 376.870045 -273.312909 
L 369.906227 -273.312909 
L 362.942409 -273.312909 
L 355.978591 -273.312909 
L 349.014773 -273.312909 
L 342.050955 -273.312909 
L 335.087136 -273.312909 
L 328.123318 -273.312909 
L 321.1595 -273.312909 
L 314.195682 -273.312909 
L 307.231864 -273.312909 
L 300.268045 -273.312909 
L 293.304227 -273.312909 
L 286.340409 -273.312909 
L 279.376591 -273.312909 
L 272.412773 -273.312909 
L 265.448955 -273.312909 
L 258.485136 -273.312909 
L 251.521318 -273.312909 
L 244.5575 -273.312909 
L 237.593682 -273.312909 
L 230.629864 -273.312909 
L 223.666045 -273.312909 
L 216.702227 -273.312909 
L 209.738409 -273.312909 
L 202.774591 -273.312909 
L 195.810773 -273.312909 
L 188.846955 -273.312909 
L 181.883136 -273.312909 
L 174.919318 -273.312909 
L 167.9555 -273.312909 
L 160.991682 -273.312909 
L 154.027864 -273.312909 
L 147.064045 -273.312909 
L 140.100227 -273.312909 
L 133.136409 -273.312909 
L 126.172591 -273.312909 
L 119.208773 -273.312909 
L 112.244955 -273.312909 
L 105.281136 -273.312909 
L 98.317318 -273.312909 
L 91.3535 -273.312909 
L 84.389682 -273.312909 
L 77.425864 -273.312909 
L 70.462045 -273.312909 
z
" style="stroke: #dc143c; stroke-opacity: 0.2"/>
    </defs>
    <g clip-path="url(#p06f49ffdfc)">
     <use xlink:href="#ma3a7a7e9e3" x="0" y="325.85" style="fill: #dc143c; fill-opacity: 0.2; stroke: #dc143c; stroke-opacity: 0.2"/>
    </g>
   </g>
   <g id="PolyCollection_2">
    <defs>
     <path id="m84225978cf" d="M 70.462045 -273.312909 
L 70.462045 -284.887897 
L 77.425864 -285.137509 
L 84.389682 -285.458805 
L 91.3535 -285.849832 
L 98.317318 -286.30854 
L 105.281136 -286.832574 
L 112.244955 -287.419052 
L 119.208773 -288.064375 
L 126.172591 -288.764009 
L 133.136409 -289.51241 
L 140.100227 -290.302898 
L 147.064045 -291.127657 
L 154.027864 -291.977783 
L 160.991682 -292.843417 
L 167.9555 -293.713943 
L 174.919318 -294.578195 
L 181.883136 -295.42477 
L 188.846955 -296.242306 
L 195.810773 -297.019704 
L 202.774591 -297.746397 
L 209.738409 -298.412469 
L 216.702227 -299.00879 
L 223.666045 -299.526999 
L 230.629864 -299.959486 
L 237.593682 -300.299301 
L 244.5575 -300.540024 
L 251.521318 -300.67562 
L 258.485136 -300.700338 
L 265.448955 -300.608608 
L 272.412773 -300.395022 
L 279.376591 -300.054408 
L 286.340409 -299.582013 
L 293.304227 -298.973853 
L 300.268045 -298.227174 
L 307.231864 -297.341128 
L 314.195682 -296.317574 
L 321.1595 -295.161925 
L 328.123318 -293.883992 
L 335.087136 -292.49867 
L 342.050955 -291.026205 
L 349.014773 -289.491954 
L 355.978591 -287.925464 
L 362.942409 -286.358856 
L 369.906227 -284.82469 
L 376.870045 -283.353574 
L 383.833864 -281.971919 
L 390.797682 -280.700207 
L 397.7615 -279.552006 
L 404.725318 -278.53387 
L 411.689136 -278.110485 
L 418.652955 -278.110485 
L 418.652955 -273.312909 
L 418.652955 -273.312909 
L 411.689136 -273.312909 
L 404.725318 -273.312909 
L 397.7615 -273.312909 
L 390.797682 -273.312909 
L 383.833864 -273.312909 
L 376.870045 -273.312909 
L 369.906227 -273.312909 
L 362.942409 -273.312909 
L 355.978591 -273.312909 
L 349.014773 -273.312909 
L 342.050955 -273.312909 
L 335.087136 -273.312909 
L 328.123318 -273.312909 
L 321.1595 -273.312909 
L 314.195682 -273.312909 
L 307.231864 -273.312909 
L 300.268045 -273.312909 
L 293.304227 -273.312909 
L 286.340409 -273.312909 
L 279.376591 -273.312909 
L 272.412773 -273.312909 
L 265.448955 -273.312909 
L 258.485136 -273.312909 
L 251.521318 -273.312909 
L 244.5575 -273.312909 
L 237.593682 -273.312909 
L 230.629864 -273.312909 
L 223.666045 -273.312909 
L 216.702227 -273.312909 
L 209.738409 -273.312909 
L 202.774591 -273.312909 
L 195.810773 -273.312909 
L 188.846955 -273.312909 
L 181.883136 -273.312909 
L 174.919318 -273.312909 
L 167.9555 -273.312909 
L 160.991682 -273.312909 
L 154.027864 -273.312909 
L 147.064045 -273.312909 
L 140.100227 -273.312909 
L 133.136409 -273.312909 
L 126.172591 -273.312909 
L 119.208773 -273.312909 
L 112.244955 -273.312909 
L 105.281136 -273.312909 
L 98.317318 -273.312909 
L 91.3535 -273.312909 
L 84.389682 -273.312909 
L 77.425864 -273.312909 
L 70.462045 -273.312909 
z
" style="stroke: #000080; stroke-opacity: 0.2"/>
    </defs>
    <g clip-path="url(#p06f49ffdfc)">
     <use xlink:href="#m84225978cf" x="0" y="325.85" style="fill: #000080; fill-opacity: 0.2; stroke: #000080; stroke-opacity: 0.2"/>
    </g>
   </g>
   <g id="matplotlib.axis_1"/>
   <g id="matplotlib.axis_2"/>
   <g id="line2d_1">
    <path d="M 70.462045 16.136321 
L 77.425864 16.385933 
L 84.389682 16.707229 
L 91.3535 17.098257 
L 98.317318 17.556964 
L 105.281136 18.080999 
L 112.244955 18.667476 
L 119.208773 19.312799 
L 126.172591 20.012433 
L 133.136409 20.760834 
L 140.100227 21.551323 
L 147.064045 22.376081 
L 154.027864 23.226208 
L 160.991682 24.091842 
L 167.9555 24.962367 
L 174.919318 25.826619 
L 181.883136 26.673194 
L 188.846955 27.49073 
L 195.810773 28.268129 
L 202.774591 28.994821 
L 209.738409 29.660893 
L 216.702227 30.257214 
L 223.666045 30.775423 
L 230.629864 31.207911 
L 237.593682 31.547725 
L 244.5575 31.788448 
L 251.521318 31.924044 
L 258.485136 31.948762 
L 265.448955 31.857032 
L 272.412773 31.643447 
L 279.376591 31.302832 
L 286.340409 30.830437 
L 293.304227 30.222277 
L 300.268045 29.475598 
L 307.231864 28.589553 
L 314.195682 27.565998 
L 321.1595 26.410349 
L 328.123318 25.132416 
L 335.087136 23.747094 
L 342.050955 22.274629 
L 349.014773 20.740378 
L 355.978591 19.173889 
L 362.942409 17.60728 
L 369.906227 16.073114 
L 376.870045 14.601998 
L 383.833864 13.220343 
L 390.797682 11.948631 
L 397.7615 10.800431 
L 404.725318 9.782294 
L 411.689136 9.358909 
L 418.652955 9.358909 
" clip-path="url(#p06f49ffdfc)" style="fill: none; stroke: #dc143c; stroke-width: 1.5; stroke-linecap: square"/>
   </g>
   <g id="line2d_2">
    <path d="M 70.462045 40.962103 
L 77.425864 40.712491 
L 84.389682 40.391195 
L 91.3535 40.000168 
L 98.317318 39.54146 
L 105.281136 39.017426 
L 112.244955 38.430948 
L 119.208773 37.785625 
L 126.172591 37.085991 
L 133.136409 36.33759 
L 140.100227 35.547102 
L 147.064045 34.722343 
L 154.027864 33.872217 
L 160.991682 33.006583 
L 167.9555 32.136057 
L 174.919318 31.271805 
L 181.883136 30.42523 
L 188.846955 29.607694 
L 195.810773 28.830296 
L 202.774591 28.103603 
L 209.738409 27.437531 
L 216.702227 26.84121 
L 223.666045 26.323001 
L 230.629864 25.890514 
L 237.593682 25.550699 
L 244.5575 25.309976 
L 251.521318 25.17438 
L 258.485136 25.149662 
L 265.448955 25.241392 
L 272.412773 25.454978 
L 279.376591 25.795592 
L 286.340409 26.267987 
L 293.304227 26.876147 
L 300.268045 27.622826 
L 307.231864 28.508872 
L 314.195682 29.532426 
L 321.1595 30.688075 
L 328.123318 31.966008 
L 335.087136 33.35133 
L 342.050955 34.823795 
L 349.014773 36.358046 
L 355.978591 37.924536 
L 362.942409 39.491144 
L 369.906227 41.02531 
L 376.870045 42.496426 
L 383.833864 43.878081 
L 390.797682 45.149793 
L 397.7615 46.297994 
L 404.725318 47.31613 
L 411.689136 47.739515 
L 418.652955 47.739515 
" clip-path="url(#p06f49ffdfc)" style="fill: none; stroke: #000080; stroke-width: 1.5; stroke-linecap: square"/>
   </g>
  </g>
  <g id="axes_2">
   <g id="patch_3">
    <path d="M 53.0525 165.688 
L 436.0625 165.688 
L 436.0625 70.696 
L 53.0525 70.696 
z
" style="fill: #ffffff"/>
   </g>
   <g id="PathCollection_1">
    <defs>
     <path id="m122b5fe6dd" d="M 0 0.866025 
C 0.229673 0.866025 0.449969 0.774776 0.612372 0.612372 
C 0.774776 0.449969 0.866025 0.229673 0.866025 0 
C 0.866025 -0.229673 0.774776 -0.449969 0.612372 -0.612372 
C 0.449969 -0.774776 0.229673 -0.866025 0 -0.866025 
C -0.229673 -0.866025 -0.449969 -0.774776 -0.612372 -0.612372 
C -0.774776 -0.449969 -0.866025 -0.229673 -0.866025 0 
C -0.866025 0.229673 -0.774776 0.449969 -0.612372 0.612372 
C -0.449969 0.774776 -0.229673 0.866025 0 0.866025 
z
" style="stroke: #daa520"/>
    </defs>
    <g clip-path="url(#p56ea9e2a4f)">
     <use xlink:href="#m122b5fe6dd" x="404.176587" y="100.085963" style="fill: #daa520; stroke: #daa520"/>
     <use xlink:href="#m122b5fe6dd" x="409.908769" y="127.559579" style="fill: #daa520; stroke: #daa520"/>
     <use xlink:href="#m122b5fe6dd" x="384.027972" y="111.697928" style="fill: #daa520; stroke: #daa520"/>
     <use xlink:href="#m122b5fe6dd" x="378.46506" y="114.996256" style="fill: #daa520; stroke: #daa520"/>
     <use xlink:href="#m122b5fe6dd" x="83.551901" y="144.001171" style="fill: #daa520; stroke: #daa520"/>
     <use xlink:href="#m122b5fe6dd" x="256.075153" y="93.42278" style="fill: #daa520; stroke: #daa520"/>
     <use xlink:href="#m122b5fe6dd" x="357.619769" y="91.289907" style="fill: #daa520; stroke: #daa520"/>
     <use xlink:href="#m122b5fe6dd" x="160.169627" y="123.120616" style="fill: #daa520; stroke: #daa520"/>
     <use xlink:href="#m122b5fe6dd" x="154.194398" y="124.718232" style="fill: #daa520; stroke: #daa520"/>
     <use xlink:href="#m122b5fe6dd" x="170.17553" y="104.421424" style="fill: #daa520; stroke: #daa520"/>
     <use xlink:href="#m122b5fe6dd" x="367.443644" y="106.206038" style="fill: #daa520; stroke: #daa520"/>
     <use xlink:href="#m122b5fe6dd" x="313.844228" y="103.503718" style="fill: #daa520; stroke: #daa520"/>
     <use xlink:href="#m122b5fe6dd" x="267.503506" y="106.294283" style="fill: #daa520; stroke: #daa520"/>
     <use xlink:href="#m122b5fe6dd" x="406.085432" y="128.339772" style="fill: #daa520; stroke: #daa520"/>
     <use xlink:href="#m122b5fe6dd" x="416.371492" y="100.833232" style="fill: #daa520; stroke: #daa520"/>
     <use xlink:href="#m122b5fe6dd" x="99.93091" y="145.158725" style="fill: #daa520; stroke: #daa520"/>
     <use xlink:href="#m122b5fe6dd" x="109.124646" y="146.173985" style="fill: #daa520; stroke: #daa520"/>
     <use xlink:href="#m122b5fe6dd" x="253.370078" y="91.781912" style="fill: #daa520; stroke: #daa520"/>
     <use xlink:href="#m122b5fe6dd" x="341.500212" y="102.280535" style="fill: #daa520; stroke: #daa520"/>
     <use xlink:href="#m122b5fe6dd" x="236.499787" y="92.60764" style="fill: #daa520; stroke: #daa520"/>
     <use xlink:href="#m122b5fe6dd" x="140.774089" y="123.560119" style="fill: #daa520; stroke: #daa520"/>
     <use xlink:href="#m122b5fe6dd" x="115.235162" y="131.288442" style="fill: #daa520; stroke: #daa520"/>
     <use xlink:href="#m122b5fe6dd" x="183.656609" y="113.21009" style="fill: #daa520; stroke: #daa520"/>
     <use xlink:href="#m122b5fe6dd" x="163.126847" y="115.290158" style="fill: #daa520; stroke: #daa520"/>
     <use xlink:href="#m122b5fe6dd" x="290.978831" y="113.614379" style="fill: #daa520; stroke: #daa520"/>
     <use xlink:href="#m122b5fe6dd" x="266.398333" y="101.027451" style="fill: #daa520; stroke: #daa520"/>
     <use xlink:href="#m122b5fe6dd" x="384.833932" y="122.578829" style="fill: #daa520; stroke: #daa520"/>
     <use xlink:href="#m122b5fe6dd" x="331.790503" y="103.794259" style="fill: #daa520; stroke: #daa520"/>
     <use xlink:href="#m122b5fe6dd" x="178.844073" y="119.323357" style="fill: #daa520; stroke: #daa520"/>
     <use xlink:href="#m122b5fe6dd" x="368.288265" y="98.390151" style="fill: #daa520; stroke: #daa520"/>
     <use xlink:href="#m122b5fe6dd" x="369.9025" y="112.082614" style="fill: #daa520; stroke: #daa520"/>
     <use xlink:href="#m122b5fe6dd" x="343.364893" y="103.385457" style="fill: #daa520; stroke: #daa520"/>
     <use xlink:href="#m122b5fe6dd" x="154.042445" y="126.137845" style="fill: #daa520; stroke: #daa520"/>
     <use xlink:href="#m122b5fe6dd" x="399.309128" y="125.219959" style="fill: #daa520; stroke: #daa520"/>
     <use xlink:href="#m122b5fe6dd" x="394.314455" y="101.602084" style="fill: #daa520; stroke: #daa520"/>
     <use xlink:href="#m122b5fe6dd" x="374.147316" y="92.255433" style="fill: #daa520; stroke: #daa520"/>
     <use xlink:href="#m122b5fe6dd" x="410.859543" y="101.288057" style="fill: #daa520; stroke: #daa520"/>
     <use xlink:href="#m122b5fe6dd" x="123.45153" y="143.007253" style="fill: #daa520; stroke: #daa520"/>
     <use xlink:href="#m122b5fe6dd" x="274.956968" y="99.614235" style="fill: #daa520; stroke: #daa520"/>
     <use xlink:href="#m122b5fe6dd" x="133.009431" y="136.178274" style="fill: #daa520; stroke: #daa520"/>
     <use xlink:href="#m122b5fe6dd" x="95.079648" y="142.249172" style="fill: #daa520; stroke: #daa520"/>
     <use xlink:href="#m122b5fe6dd" x="87.049283" y="141.84058" style="fill: #daa520; stroke: #daa520"/>
     <use xlink:href="#m122b5fe6dd" x="143.775295" y="129.570963" style="fill: #daa520; stroke: #daa520"/>
     <use xlink:href="#m122b5fe6dd" x="233.331633" y="81.517389" style="fill: #daa520; stroke: #daa520"/>
     <use xlink:href="#m122b5fe6dd" x="371.801508" y="88.316901" style="fill: #daa520; stroke: #daa520"/>
     <use xlink:href="#m122b5fe6dd" x="196.721237" y="85.827966" style="fill: #daa520; stroke: #daa520"/>
     <use xlink:href="#m122b5fe6dd" x="206.808344" y="95.518257" style="fill: #daa520; stroke: #daa520"/>
     <use xlink:href="#m122b5fe6dd" x="136.461485" y="137.319646" style="fill: #daa520; stroke: #daa520"/>
     <use xlink:href="#m122b5fe6dd" x="343.467498" y="96.446494" style="fill: #daa520; stroke: #daa520"/>
     <use xlink:href="#m122b5fe6dd" x="162.666361" y="117.604" style="fill: #daa520; stroke: #daa520"/>
     <use xlink:href="#m122b5fe6dd" x="378.629292" y="98.721947" style="fill: #daa520; stroke: #daa520"/>
     <use xlink:href="#m122b5fe6dd" x="283.241933" y="113.210063" style="fill: #daa520; stroke: #daa520"/>
     <use xlink:href="#m122b5fe6dd" x="375.509988" y="116.31676" style="fill: #daa520; stroke: #daa520"/>
     <use xlink:href="#m122b5fe6dd" x="404.642204" y="88.289452" style="fill: #daa520; stroke: #daa520"/>
     <use xlink:href="#m122b5fe6dd" x="295.052294" y="109.664438" style="fill: #daa520; stroke: #daa520"/>
     <use xlink:href="#m122b5fe6dd" x="85.443662" y="146.77823" style="fill: #daa520; stroke: #daa520"/>
     <use xlink:href="#m122b5fe6dd" x="384.905691" y="122.553821" style="fill: #daa520; stroke: #daa520"/>
     <use xlink:href="#m122b5fe6dd" x="247.721975" y="88.820167" style="fill: #daa520; stroke: #daa520"/>
     <use xlink:href="#m122b5fe6dd" x="114.511396" y="139.342244" style="fill: #daa520; stroke: #daa520"/>
     <use xlink:href="#m122b5fe6dd" x="233.045165" y="91.742075" style="fill: #daa520; stroke: #daa520"/>
     <use xlink:href="#m122b5fe6dd" x="289.842941" y="104.077926" style="fill: #daa520; stroke: #daa520"/>
     <use xlink:href="#m122b5fe6dd" x="350.943336" y="100.266606" style="fill: #daa520; stroke: #daa520"/>
     <use xlink:href="#m122b5fe6dd" x="135.681866" y="137.021536" style="fill: #daa520; stroke: #daa520"/>
     <use xlink:href="#m122b5fe6dd" x="361.023892" y="90.813907" style="fill: #daa520; stroke: #daa520"/>
     <use xlink:href="#m122b5fe6dd" x="310.33898" y="108.087278" style="fill: #daa520; stroke: #daa520"/>
     <use xlink:href="#m122b5fe6dd" x="371.828227" y="113.608577" style="fill: #daa520; stroke: #daa520"/>
     <use xlink:href="#m122b5fe6dd" x="283.414623" y="102.741104" style="fill: #daa520; stroke: #daa520"/>
     <use xlink:href="#m122b5fe6dd" x="399.548003" y="107.174177" style="fill: #daa520; stroke: #daa520"/>
     <use xlink:href="#m122b5fe6dd" x="350.582701" y="102.970613" style="fill: #daa520; stroke: #daa520"/>
     <use xlink:href="#m122b5fe6dd" x="124.781153" y="127.793754" style="fill: #daa520; stroke: #daa520"/>
     <use xlink:href="#m122b5fe6dd" x="399.670015" y="108.764951" style="fill: #daa520; stroke: #daa520"/>
     <use xlink:href="#m122b5fe6dd" x="328.846654" y="99.774294" style="fill: #daa520; stroke: #daa520"/>
     <use xlink:href="#m122b5fe6dd" x="187.658255" y="103.873462" style="fill: #daa520; stroke: #daa520"/>
     <use xlink:href="#m122b5fe6dd" x="191.417944" y="110.589626" style="fill: #daa520; stroke: #daa520"/>
     <use xlink:href="#m122b5fe6dd" x="335.612843" y="103.100891" style="fill: #daa520; stroke: #daa520"/>
     <use xlink:href="#m122b5fe6dd" x="176.99093" y="115.648638" style="fill: #daa520; stroke: #daa520"/>
     <use xlink:href="#m122b5fe6dd" x="361.321612" y="90.433814" style="fill: #daa520; stroke: #daa520"/>
     <use xlink:href="#m122b5fe6dd" x="380.182252" y="119.787228" style="fill: #daa520; stroke: #daa520"/>
     <use xlink:href="#m122b5fe6dd" x="408.624576" y="117.970118" style="fill: #daa520; stroke: #daa520"/>
     <use xlink:href="#m122b5fe6dd" x="320.866683" y="103.881856" style="fill: #daa520; stroke: #daa520"/>
     <use xlink:href="#m122b5fe6dd" x="220.357414" y="75.013818" style="fill: #daa520; stroke: #daa520"/>
     <use xlink:href="#m122b5fe6dd" x="116.172516" y="131.852398" style="fill: #daa520; stroke: #daa520"/>
     <use xlink:href="#m122b5fe6dd" x="378.178331" y="116.273402" style="fill: #daa520; stroke: #daa520"/>
     <use xlink:href="#m122b5fe6dd" x="370.751835" y="105.150939" style="fill: #daa520; stroke: #daa520"/>
     <use xlink:href="#m122b5fe6dd" x="384.638999" y="120.944541" style="fill: #daa520; stroke: #daa520"/>
     <use xlink:href="#m122b5fe6dd" x="324.460764" y="106.1061" style="fill: #daa520; stroke: #daa520"/>
     <use xlink:href="#m122b5fe6dd" x="237.282514" y="84.157781" style="fill: #daa520; stroke: #daa520"/>
     <use xlink:href="#m122b5fe6dd" x="129.094575" y="130.605292" style="fill: #daa520; stroke: #daa520"/>
     <use xlink:href="#m122b5fe6dd" x="325.873593" y="100.837849" style="fill: #daa520; stroke: #daa520"/>
     <use xlink:href="#m122b5fe6dd" x="125.034665" y="127.426884" style="fill: #daa520; stroke: #daa520"/>
    </g>
   </g>
   <g id="matplotlib.axis_3"/>
   <g id="matplotlib.axis_4">
    <g id="ytick_1">
     <g id="line2d_3">
      <defs>
       <path id="md84f9f6bcb" d="M 0 0 
L -3.5 0 
" style="stroke: #696969; stroke-width: 0.8"/>
      </defs>
      <g>
       <use xlink:href="#md84f9f6bcb" x="53.0525" y="143.693613" style="fill: #696969; stroke: #696969; stroke-width: 0.8"/>
      </g>
     </g>
     <g id="text_1">
      <!-- −5 -->
      <g style="fill: #696969" transform="translate(22.465 149.772363) scale(0.16 -0.16)">
       <defs>
        <path id="DejaVuSans-2212" d="M 678 2272 
L 4684 2272 
L 4684 1741 
L 678 1741 
L 678 2272 
z
" transform="scale(0.015625)"/>
        <path id="DejaVuSans-35" d="M 691 4666 
L 3169 4666 
L 3169 4134 
L 1269 4134 
L 1269 2991 
Q 1406 3038 1543 3061 
Q 1681 3084 1819 3084 
Q 2600 3084 3056 2656 
Q 3513 2228 3513 1497 
Q 3513 744 3044 326 
Q 2575 -91 1722 -91 
Q 1428 -91 1123 -41 
Q 819 9 494 109 
L 494 744 
Q 775 591 1075 516 
Q 1375 441 1709 441 
Q 2250 441 2565 725 
Q 2881 1009 2881 1497 
Q 2881 1984 2565 2268 
Q 2250 2553 1709 2553 
Q 1456 2553 1204 2497 
Q 953 2441 691 2322 
L 691 4666 
z
" transform="scale(0.015625)"/>
       </defs>
       <use xlink:href="#DejaVuSans-2212"/>
       <use xlink:href="#DejaVuSans-35" x="83.789062"/>
      </g>
     </g>
    </g>
    <g id="ytick_2">
     <g id="line2d_4">
      <g>
       <use xlink:href="#md84f9f6bcb" x="53.0525" y="116.841875" style="fill: #696969; stroke: #696969; stroke-width: 0.8"/>
      </g>
     </g>
     <g id="text_2">
      <!-- 0 -->
      <g style="fill: #696969" transform="translate(35.8725 122.920625) scale(0.16 -0.16)">
       <defs>
        <path id="DejaVuSans-30" d="M 2034 4250 
Q 1547 4250 1301 3770 
Q 1056 3291 1056 2328 
Q 1056 1369 1301 889 
Q 1547 409 2034 409 
Q 2525 409 2770 889 
Q 3016 1369 3016 2328 
Q 3016 3291 2770 3770 
Q 2525 4250 2034 4250 
z
M 2034 4750 
Q 2819 4750 3233 4129 
Q 3647 3509 3647 2328 
Q 3647 1150 3233 529 
Q 2819 -91 2034 -91 
Q 1250 -91 836 529 
Q 422 1150 422 2328 
Q 422 3509 836 4129 
Q 1250 4750 2034 4750 
z
" transform="scale(0.015625)"/>
       </defs>
       <use xlink:href="#DejaVuSans-30"/>
      </g>
     </g>
    </g>
    <g id="ytick_3">
     <g id="line2d_5">
      <g>
       <use xlink:href="#md84f9f6bcb" x="53.0525" y="89.990136" style="fill: #696969; stroke: #696969; stroke-width: 0.8"/>
      </g>
     </g>
     <g id="text_3">
      <!-- 5 -->
      <g style="fill: #696969" transform="translate(35.8725 96.068886) scale(0.16 -0.16)">
       <use xlink:href="#DejaVuSans-35"/>
      </g>
     </g>
    </g>
   </g>
   <g id="line2d_6">
    <path d="M 70.462045 150.974681 
L 77.425864 149.290771 
L 84.389682 147.587282 
L 91.3535 145.952269 
L 98.317318 144.361061 
L 105.281136 142.73426 
L 112.244955 140.994174 
L 119.208773 139.091973 
L 126.172591 137.001402 
L 133.136409 134.692533 
L 140.100227 132.105036 
L 147.064045 129.13876 
L 154.027864 125.673638 
L 160.991682 121.620467 
L 167.9555 116.987886 
L 174.919318 111.935156 
L 181.883136 106.777826 
L 188.846955 101.931702 
L 195.810773 97.812267 
L 202.774591 94.731646 
L 209.738409 92.836036 
L 216.702227 92.103187 
L 223.666045 92.388556 
L 230.629864 93.489213 
L 237.593682 95.194608 
L 244.5575 97.308193 
L 251.521318 99.642814 
L 258.485136 102.00622 
L 265.448955 104.195747 
L 272.412773 106.013073 
L 279.376591 107.295722 
L 286.340409 107.950692 
L 293.304227 107.973418 
L 300.268045 107.442639 
L 307.231864 106.493328 
L 314.195682 105.279475 
L 321.1595 103.943145 
L 328.123318 102.603782 
L 335.087136 101.37169 
L 342.050955 100.373603 
L 349.014773 99.76499 
L 355.978591 99.704587 
L 362.942409 100.288234 
L 369.906227 101.471788 
L 376.870045 103.034022 
L 383.833864 104.618941 
L 390.797682 105.853216 
L 397.7615 106.485163 
L 404.725318 106.471557 
L 411.689136 105.964595 
L 418.652955 105.20722 
" clip-path="url(#p56ea9e2a4f)" style="fill: none; stroke: #000000; stroke-width: 2; stroke-linecap: square"/>
   </g>
   <g id="line2d_7">
    <path d="M 70.462045 161.370182 
L 77.425864 151.124421 
L 84.389682 145.226836 
L 91.3535 142.095001 
L 98.317318 140.523762 
L 105.281136 139.626755 
L 112.244955 138.783435 
L 119.208773 137.591374 
L 126.172591 135.823574 
L 133.136409 133.39056 
L 140.100227 130.307001 
L 147.064045 126.662628 
L 154.027864 122.597187 
L 160.991682 118.279201 
L 167.9555 113.88828 
L 174.919318 109.600753 
L 181.883136 105.578358 
L 188.846955 101.959765 
L 195.810773 98.854675 
L 202.774591 96.340255 
L 209.738409 94.459666 
L 216.702227 93.22244 
L 223.666045 92.606459 
L 230.629864 92.561298 
L 237.593682 93.012676 
L 244.5575 93.86779 
L 251.521318 95.021265 
L 258.485136 96.361499 
L 265.448955 97.77714 
L 272.412773 99.163458 
L 279.376591 100.428379 
L 286.340409 101.497913 
L 293.304227 102.320756 
L 300.268045 102.871805 
L 307.231864 103.154353 
L 314.195682 103.20071 
L 321.1595 103.071021 
L 328.123318 102.850015 
L 335.087136 102.641461 
L 342.050955 102.560082 
L 349.014773 102.720668 
L 355.978591 103.224173 
L 362.942409 104.140517 
L 369.906227 105.487884 
L 376.870045 107.208241 
L 383.833864 109.138858 
L 390.797682 110.97957 
L 397.7615 112.255542 
L 404.725318 112.275294 
L 411.689136 110.083741 
L 418.652955 104.410002 
" clip-path="url(#p56ea9e2a4f)" style="fill: none; stroke-dasharray: 7.4,3.2; stroke-dashoffset: 0; stroke: #34b6c6; stroke-width: 2"/>
   </g>
   <g id="line2d_8">
    <path d="M 70.462045 146.550336 
L 77.425864 145.498402 
L 84.389682 144.375471 
L 91.3535 143.019196 
L 98.317318 141.461433 
L 105.281136 139.905743 
L 112.244955 138.501669 
L 119.208773 137.164361 
L 126.172591 135.63443 
L 133.136409 133.669994 
L 140.100227 131.202432 
L 147.064045 128.31231 
L 154.027864 124.997498 
L 160.991682 121.026569 
L 167.9555 116.092121 
L 174.919318 110.185911 
L 181.883136 104.055966 
L 188.846955 98.571217 
L 195.810773 93.747485 
L 202.774591 89.718595 
L 209.738409 87.219767 
L 216.702227 86.285417 
L 223.666045 86.691814 
L 230.629864 88.587813 
L 237.593682 90.872735 
L 244.5575 92.896755 
L 251.521318 95.430872 
L 258.485136 98.815186 
L 265.448955 102.096784 
L 272.412773 104.142476 
L 279.376591 105.169607 
L 286.340409 105.674368 
L 293.304227 105.894864 
L 300.268045 105.872233 
L 307.231864 105.471201 
L 314.195682 104.403906 
L 321.1595 102.681762 
L 328.123318 101.095028 
L 335.087136 100.339204 
L 342.050955 100.419341 
L 349.014773 101.126094 
L 355.978591 102.323604 
L 362.942409 103.934372 
L 369.906227 105.835357 
L 376.870045 107.774527 
L 383.833864 109.441211 
L 390.797682 110.633929 
L 397.7615 111.287611 
L 404.725318 111.377179 
L 411.689136 110.847153 
L 418.652955 109.593064 
" clip-path="url(#p56ea9e2a4f)" style="fill: none; stroke-dasharray: 7.4,3.2; stroke-dashoffset: 0; stroke: #9370db; stroke-width: 2"/>
   </g>
   <g id="line2d_9">
    <path d="M 70.462045 149.831916 
L 77.425864 149.028824 
L 84.389682 147.855193 
L 91.3535 146.26773 
L 98.317318 144.367423 
L 105.281136 142.38312 
L 112.244955 140.486084 
L 119.208773 138.64202 
L 126.172591 136.662472 
L 133.136409 134.365867 
L 140.100227 131.708241 
L 147.064045 128.764413 
L 154.027864 125.536381 
L 160.991682 121.832426 
L 167.9555 117.395239 
L 174.919318 112.214196 
L 181.883136 106.905623 
L 188.846955 102.185413 
L 195.810773 98.060214 
L 202.774591 94.634434 
L 209.738409 92.511986 
L 216.702227 91.714647 
L 223.666045 92.049861 
L 230.629864 93.634741 
L 237.593682 95.548533 
L 244.5575 97.245155 
L 251.521318 99.358949 
L 258.485136 102.166373 
L 265.448955 104.869782 
L 272.412773 106.52181 
L 279.376591 107.297069 
L 286.340409 107.601927 
L 293.304227 107.628559 
L 300.268045 107.405876 
L 307.231864 106.816825 
L 314.195682 105.618474 
L 321.1595 103.817774 
L 328.123318 102.070428 
L 335.087136 100.955742 
L 342.050955 100.482467 
L 349.014773 100.485088 
L 355.978591 100.863934 
L 362.942409 101.573708 
L 369.906227 102.538425 
L 376.870045 103.583501 
L 383.833864 104.495789 
L 390.797682 105.164765 
L 397.7615 105.607106 
L 404.725318 105.888757 
L 411.689136 106.068826 
L 418.652955 106.186746 
" clip-path="url(#p56ea9e2a4f)" style="fill: none; stroke-dasharray: 12.8,3.2,2,3.2; stroke-dashoffset: 0; stroke: #ff0000; stroke-width: 2"/>
   </g>
   <g id="patch_4">
    <path d="M 53.0525 165.688 
L 53.0525 70.696 
" style="fill: none; stroke: #000000; stroke-width: 0.8; stroke-linejoin: miter; stroke-linecap: square"/>
   </g>
   <g id="patch_5">
    <path d="M 436.0625 165.688 
L 436.0625 70.696 
" style="fill: none; stroke: #000000; stroke-width: 0.8; stroke-linejoin: miter; stroke-linecap: square"/>
   </g>
   <g id="patch_6">
    <path d="M 53.0525 165.688 
L 436.0625 165.688 
" style="fill: none; stroke: #000000; stroke-width: 0.8; stroke-linejoin: miter; stroke-linecap: square"/>
   </g>
   <g id="patch_7">
    <path d="M 53.0525 70.696 
L 436.0625 70.696 
" style="fill: none; stroke: #000000; stroke-width: 0.8; stroke-linejoin: miter; stroke-linecap: square"/>
   </g>
  </g>
  <g id="axes_3">
   <g id="patch_8">
    <path d="M 53.0525 276.68 
L 436.0625 276.68 
L 436.0625 181.688 
L 53.0525 181.688 
z
" style="fill: #ffffff"/>
   </g>
   <g id="PathCollection_2">
    <g clip-path="url(#p8d96ea7fb8)">
     <use xlink:href="#m122b5fe6dd" x="404.176587" y="246.865611" style="fill: #daa520; stroke: #daa520"/>
     <use xlink:href="#m122b5fe6dd" x="409.908769" y="187.904813" style="fill: #daa520; stroke: #daa520"/>
     <use xlink:href="#m122b5fe6dd" x="384.027972" y="218.87962" style="fill: #daa520; stroke: #daa520"/>
     <use xlink:href="#m122b5fe6dd" x="378.46506" y="210.233122" style="fill: #daa520; stroke: #daa520"/>
     <use xlink:href="#m122b5fe6dd" x="83.551901" y="243.050014" style="fill: #daa520; stroke: #daa520"/>
     <use xlink:href="#m122b5fe6dd" x="256.075153" y="251.035458" style="fill: #daa520; stroke: #daa520"/>
     <use xlink:href="#m122b5fe6dd" x="357.619769" y="255.344881" style="fill: #daa520; stroke: #daa520"/>
     <use xlink:href="#m122b5fe6dd" x="160.169627" y="232.614558" style="fill: #daa520; stroke: #daa520"/>
     <use xlink:href="#m122b5fe6dd" x="154.194398" y="235.9675" style="fill: #daa520; stroke: #daa520"/>
     <use xlink:href="#m122b5fe6dd" x="170.17553" y="258.959605" style="fill: #daa520; stroke: #daa520"/>
     <use xlink:href="#m122b5fe6dd" x="367.443644" y="225.681129" style="fill: #daa520; stroke: #daa520"/>
     <use xlink:href="#m122b5fe6dd" x="313.844228" y="239.110935" style="fill: #daa520; stroke: #daa520"/>
     <use xlink:href="#m122b5fe6dd" x="267.503506" y="232.610372" style="fill: #daa520; stroke: #daa520"/>
     <use xlink:href="#m122b5fe6dd" x="406.085432" y="186.005818" style="fill: #daa520; stroke: #daa520"/>
     <use xlink:href="#m122b5fe6dd" x="416.371492" y="245.862043" style="fill: #daa520; stroke: #daa520"/>
     <use xlink:href="#m122b5fe6dd" x="99.93091" y="231.674822" style="fill: #daa520; stroke: #daa520"/>
     <use xlink:href="#m122b5fe6dd" x="109.124646" y="223.905847" style="fill: #daa520; stroke: #daa520"/>
     <use xlink:href="#m122b5fe6dd" x="253.370078" y="252.216593" style="fill: #daa520; stroke: #daa520"/>
     <use xlink:href="#m122b5fe6dd" x="341.500212" y="230.536312" style="fill: #daa520; stroke: #daa520"/>
     <use xlink:href="#m122b5fe6dd" x="236.499787" y="240.132758" style="fill: #daa520; stroke: #daa520"/>
     <use xlink:href="#m122b5fe6dd" x="140.774089" y="251.375995" style="fill: #daa520; stroke: #daa520"/>
     <use xlink:href="#m122b5fe6dd" x="115.235162" y="252.528676" style="fill: #daa520; stroke: #daa520"/>
     <use xlink:href="#m122b5fe6dd" x="183.656609" y="218.028371" style="fill: #daa520; stroke: #daa520"/>
     <use xlink:href="#m122b5fe6dd" x="163.126847" y="245.751874" style="fill: #daa520; stroke: #daa520"/>
     <use xlink:href="#m122b5fe6dd" x="290.978831" y="221.495208" style="fill: #daa520; stroke: #daa520"/>
     <use xlink:href="#m122b5fe6dd" x="266.398333" y="243.30438" style="fill: #daa520; stroke: #daa520"/>
     <use xlink:href="#m122b5fe6dd" x="384.833932" y="195.585749" style="fill: #daa520; stroke: #daa520"/>
     <use xlink:href="#m122b5fe6dd" x="331.790503" y="229.198109" style="fill: #daa520; stroke: #daa520"/>
     <use xlink:href="#m122b5fe6dd" x="178.844073" y="212.47999" style="fill: #daa520; stroke: #daa520"/>
     <use xlink:href="#m122b5fe6dd" x="368.288265" y="242.81612" style="fill: #daa520; stroke: #daa520"/>
     <use xlink:href="#m122b5fe6dd" x="369.9025" y="213.775195" style="fill: #daa520; stroke: #daa520"/>
     <use xlink:href="#m122b5fe6dd" x="343.364893" y="228.043572" style="fill: #daa520; stroke: #daa520"/>
     <use xlink:href="#m122b5fe6dd" x="154.042445" y="233.064566" style="fill: #daa520; stroke: #daa520"/>
     <use xlink:href="#m122b5fe6dd" x="399.309128" y="192.202294" style="fill: #daa520; stroke: #daa520"/>
     <use xlink:href="#m122b5fe6dd" x="394.314455" y="242.603594" style="fill: #daa520; stroke: #daa520"/>
     <use xlink:href="#m122b5fe6dd" x="374.147316" y="257.959693" style="fill: #daa520; stroke: #daa520"/>
     <use xlink:href="#m122b5fe6dd" x="410.859543" y="244.660072" style="fill: #daa520; stroke: #daa520"/>
     <use xlink:href="#m122b5fe6dd" x="123.45153" y="222.41658" style="fill: #daa520; stroke: #daa520"/>
     <use xlink:href="#m122b5fe6dd" x="274.956968" y="250.064535" style="fill: #daa520; stroke: #daa520"/>
     <use xlink:href="#m122b5fe6dd" x="133.009431" y="230.56374" style="fill: #daa520; stroke: #daa520"/>
     <use xlink:href="#m122b5fe6dd" x="95.079648" y="240.913337" style="fill: #daa520; stroke: #daa520"/>
     <use xlink:href="#m122b5fe6dd" x="87.049283" y="246.154639" style="fill: #daa520; stroke: #daa520"/>
     <use xlink:href="#m122b5fe6dd" x="143.775295" y="235.7057" style="fill: #daa520; stroke: #daa520"/>
     <use xlink:href="#m122b5fe6dd" x="233.331633" y="262.221645" style="fill: #daa520; stroke: #daa520"/>
     <use xlink:href="#m122b5fe6dd" x="371.801508" y="265.693979" style="fill: #daa520; stroke: #daa520"/>
     <use xlink:href="#m122b5fe6dd" x="196.721237" y="259.704239" style="fill: #daa520; stroke: #daa520"/>
     <use xlink:href="#m122b5fe6dd" x="206.808344" y="229.431167" style="fill: #daa520; stroke: #daa520"/>
     <use xlink:href="#m122b5fe6dd" x="136.461485" y="225.352844" style="fill: #daa520; stroke: #daa520"/>
     <use xlink:href="#m122b5fe6dd" x="343.467498" y="243.018025" style="fill: #daa520; stroke: #daa520"/>
     <use xlink:href="#m122b5fe6dd" x="162.666361" y="241.363556" style="fill: #daa520; stroke: #daa520"/>
     <use xlink:href="#m122b5fe6dd" x="378.629292" y="245.411962" style="fill: #daa520; stroke: #daa520"/>
     <use xlink:href="#m122b5fe6dd" x="283.241933" y="222.068775" style="fill: #daa520; stroke: #daa520"/>
     <use xlink:href="#m122b5fe6dd" x="375.509988" y="206.461579" style="fill: #daa520; stroke: #daa520"/>
     <use xlink:href="#m122b5fe6dd" x="404.642204" y="272.362182" style="fill: #daa520; stroke: #daa520"/>
     <use xlink:href="#m122b5fe6dd" x="295.052294" y="229.91764" style="fill: #daa520; stroke: #daa520"/>
     <use xlink:href="#m122b5fe6dd" x="85.443662" y="236.240735" style="fill: #daa520; stroke: #daa520"/>
     <use xlink:href="#m122b5fe6dd" x="384.905691" y="195.656597" style="fill: #daa520; stroke: #daa520"/>
     <use xlink:href="#m122b5fe6dd" x="247.721975" y="254.454759" style="fill: #daa520; stroke: #daa520"/>
     <use xlink:href="#m122b5fe6dd" x="114.511396" y="235.55531" style="fill: #daa520; stroke: #daa520"/>
     <use xlink:href="#m122b5fe6dd" x="233.045165" y="239.97432" style="fill: #daa520; stroke: #daa520"/>
     <use xlink:href="#m122b5fe6dd" x="289.842941" y="242.078466" style="fill: #daa520; stroke: #daa520"/>
     <use xlink:href="#m122b5fe6dd" x="350.943336" y="235.000161" style="fill: #daa520; stroke: #daa520"/>
     <use xlink:href="#m122b5fe6dd" x="135.681866" y="226.633195" style="fill: #daa520; stroke: #daa520"/>
     <use xlink:href="#m122b5fe6dd" x="361.023892" y="257.117012" style="fill: #daa520; stroke: #daa520"/>
     <use xlink:href="#m122b5fe6dd" x="310.33898" y="230.672907" style="fill: #daa520; stroke: #daa520"/>
     <use xlink:href="#m122b5fe6dd" x="371.828227" y="211.108501" style="fill: #daa520; stroke: #daa520"/>
     <use xlink:href="#m122b5fe6dd" x="283.414623" y="244.681653" style="fill: #daa520; stroke: #daa520"/>
     <use xlink:href="#m122b5fe6dd" x="399.548003" y="231.178923" style="fill: #daa520; stroke: #daa520"/>
     <use xlink:href="#m122b5fe6dd" x="350.582701" y="229.130677" style="fill: #daa520; stroke: #daa520"/>
     <use xlink:href="#m122b5fe6dd" x="124.781153" y="254.421277" style="fill: #daa520; stroke: #daa520"/>
     <use xlink:href="#m122b5fe6dd" x="399.670015" y="227.756853" style="fill: #daa520; stroke: #daa520"/>
     <use xlink:href="#m122b5fe6dd" x="328.846654" y="239.012774" style="fill: #daa520; stroke: #daa520"/>
     <use xlink:href="#m122b5fe6dd" x="187.658255" y="232.368837" style="fill: #daa520; stroke: #daa520"/>
     <use xlink:href="#m122b5fe6dd" x="191.417944" y="212.823744" style="fill: #daa520; stroke: #daa520"/>
     <use xlink:href="#m122b5fe6dd" x="335.612843" y="229.626969" style="fill: #daa520; stroke: #daa520"/>
     <use xlink:href="#m122b5fe6dd" x="176.99093" y="223.493654" style="fill: #daa520; stroke: #daa520"/>
     <use xlink:href="#m122b5fe6dd" x="361.321612" y="258.010054" style="fill: #daa520; stroke: #daa520"/>
     <use xlink:href="#m122b5fe6dd" x="380.182252" y="200.395889" style="fill: #daa520; stroke: #daa520"/>
     <use xlink:href="#m122b5fe6dd" x="408.624576" y="208.537968" style="fill: #daa520; stroke: #daa520"/>
     <use xlink:href="#m122b5fe6dd" x="320.866683" y="234.414057" style="fill: #daa520; stroke: #daa520"/>
     <use xlink:href="#m122b5fe6dd" x="220.357414" y="270.484268" style="fill: #daa520; stroke: #daa520"/>
     <use xlink:href="#m122b5fe6dd" x="116.172516" y="250.778036" style="fill: #daa520; stroke: #daa520"/>
     <use xlink:href="#m122b5fe6dd" x="378.178331" y="207.389581" style="fill: #daa520; stroke: #daa520"/>
     <use xlink:href="#m122b5fe6dd" x="370.751835" y="229.013341" style="fill: #daa520; stroke: #daa520"/>
     <use xlink:href="#m122b5fe6dd" x="384.638999" y="199.067385" style="fill: #daa520; stroke: #daa520"/>
     <use xlink:href="#m122b5fe6dd" x="324.460764" y="227.528378" style="fill: #daa520; stroke: #daa520"/>
     <use xlink:href="#m122b5fe6dd" x="237.282514" y="258.799366" style="fill: #daa520; stroke: #daa520"/>
     <use xlink:href="#m122b5fe6dd" x="129.094575" y="245.470427" style="fill: #daa520; stroke: #daa520"/>
     <use xlink:href="#m122b5fe6dd" x="325.873593" y="238.140392" style="fill: #daa520; stroke: #daa520"/>
     <use xlink:href="#m122b5fe6dd" x="125.034665" y="255.051401" style="fill: #daa520; stroke: #daa520"/>
    </g>
   </g>
   <g id="matplotlib.axis_5">
    <g id="xtick_1">
     <g id="line2d_10">
      <defs>
       <path id="m03c8a75955" d="M 0 0 
L 0 3.5 
" style="stroke: #696969; stroke-width: 0.8"/>
      </defs>
      <g>
       <use xlink:href="#m03c8a75955" x="70.462045" y="276.68" style="fill: #696969; stroke: #696969; stroke-width: 0.8"/>
      </g>
     </g>
     <g id="text_4">
      <!-- −1.0 -->
      <g style="fill: #696969" transform="translate(51.035795 295.8375) scale(0.16 -0.16)">
       <defs>
        <path id="DejaVuSans-31" d="M 794 531 
L 1825 531 
L 1825 4091 
L 703 3866 
L 703 4441 
L 1819 4666 
L 2450 4666 
L 2450 531 
L 3481 531 
L 3481 0 
L 794 0 
L 794 531 
z
" transform="scale(0.015625)"/>
        <path id="DejaVuSans-2e" d="M 684 794 
L 1344 794 
L 1344 0 
L 684 0 
L 684 794 
z
" transform="scale(0.015625)"/>
       </defs>
       <use xlink:href="#DejaVuSans-2212"/>
       <use xlink:href="#DejaVuSans-31" x="83.789062"/>
       <use xlink:href="#DejaVuSans-2e" x="147.412109"/>
       <use xlink:href="#DejaVuSans-30" x="179.199219"/>
      </g>
     </g>
    </g>
    <g id="xtick_2">
     <g id="line2d_11">
      <g>
       <use xlink:href="#m03c8a75955" x="157.509773" y="276.68" style="fill: #696969; stroke: #696969; stroke-width: 0.8"/>
      </g>
     </g>
     <g id="text_5">
      <!-- −0.5 -->
      <g style="fill: #696969" transform="translate(138.083523 295.8375) scale(0.16 -0.16)">
       <use xlink:href="#DejaVuSans-2212"/>
       <use xlink:href="#DejaVuSans-30" x="83.789062"/>
       <use xlink:href="#DejaVuSans-2e" x="147.412109"/>
       <use xlink:href="#DejaVuSans-35" x="179.199219"/>
      </g>
     </g>
    </g>
    <g id="xtick_3">
     <g id="line2d_12">
      <g>
       <use xlink:href="#m03c8a75955" x="244.5575" y="276.68" style="fill: #696969; stroke: #696969; stroke-width: 0.8"/>
      </g>
     </g>
     <g id="text_6">
      <!-- 0.0 -->
      <g style="fill: #696969" transform="translate(231.835 295.8375) scale(0.16 -0.16)">
       <use xlink:href="#DejaVuSans-30"/>
       <use xlink:href="#DejaVuSans-2e" x="63.623047"/>
       <use xlink:href="#DejaVuSans-30" x="95.410156"/>
      </g>
     </g>
    </g>
    <g id="xtick_4">
     <g id="line2d_13">
      <g>
       <use xlink:href="#m03c8a75955" x="331.605227" y="276.68" style="fill: #696969; stroke: #696969; stroke-width: 0.8"/>
      </g>
     </g>
     <g id="text_7">
      <!-- 0.5 -->
      <g style="fill: #696969" transform="translate(318.882727 295.8375) scale(0.16 -0.16)">
       <use xlink:href="#DejaVuSans-30"/>
       <use xlink:href="#DejaVuSans-2e" x="63.623047"/>
       <use xlink:href="#DejaVuSans-35" x="95.410156"/>
      </g>
     </g>
    </g>
    <g id="xtick_5">
     <g id="line2d_14">
      <g>
       <use xlink:href="#m03c8a75955" x="418.652955" y="276.68" style="fill: #696969; stroke: #696969; stroke-width: 0.8"/>
      </g>
     </g>
     <g id="text_8">
      <!-- 1.0 -->
      <g style="fill: #696969" transform="translate(405.930455 295.8375) scale(0.16 -0.16)">
       <use xlink:href="#DejaVuSans-31"/>
       <use xlink:href="#DejaVuSans-2e" x="63.623047"/>
       <use xlink:href="#DejaVuSans-30" x="95.410156"/>
      </g>
     </g>
    </g>
    <g id="text_9">
     <!-- $X$ -->
     <g transform="translate(239.0375 315.3225) scale(0.16 -0.16)">
      <defs>
       <path id="DejaVuSans-Oblique-58" d="M 878 4666 
L 1516 4666 
L 2316 2981 
L 3763 4666 
L 4500 4666 
L 2578 2438 
L 3738 0 
L 3103 0 
L 2163 1966 
L 459 0 
L -275 0 
L 1906 2509 
L 878 4666 
z
" transform="scale(0.015625)"/>
      </defs>
      <use xlink:href="#DejaVuSans-Oblique-58" transform="translate(0 0.09375)"/>
     </g>
    </g>
   </g>
   <g id="matplotlib.axis_6">
    <g id="ytick_4">
     <g id="line2d_15">
      <g>
       <use xlink:href="#md84f9f6bcb" x="53.0525" y="263.359219" style="fill: #696969; stroke: #696969; stroke-width: 0.8"/>
      </g>
     </g>
     <g id="text_10">
      <!-- −2.5 -->
      <g style="fill: #696969" transform="translate(7.2 269.437969) scale(0.16 -0.16)">
       <defs>
        <path id="DejaVuSans-32" d="M 1228 531 
L 3431 531 
L 3431 0 
L 469 0 
L 469 531 
Q 828 903 1448 1529 
Q 2069 2156 2228 2338 
Q 2531 2678 2651 2914 
Q 2772 3150 2772 3378 
Q 2772 3750 2511 3984 
Q 2250 4219 1831 4219 
Q 1534 4219 1204 4116 
Q 875 4013 500 3803 
L 500 4441 
Q 881 4594 1212 4672 
Q 1544 4750 1819 4750 
Q 2544 4750 2975 4387 
Q 3406 4025 3406 3419 
Q 3406 3131 3298 2873 
Q 3191 2616 2906 2266 
Q 2828 2175 2409 1742 
Q 1991 1309 1228 531 
z
" transform="scale(0.015625)"/>
       </defs>
       <use xlink:href="#DejaVuSans-2212"/>
       <use xlink:href="#DejaVuSans-32" x="83.789062"/>
       <use xlink:href="#DejaVuSans-2e" x="147.412109"/>
       <use xlink:href="#DejaVuSans-35" x="179.199219"/>
      </g>
     </g>
    </g>
    <g id="ytick_5">
     <g id="line2d_16">
      <g>
       <use xlink:href="#md84f9f6bcb" x="53.0525" y="234.378341" style="fill: #696969; stroke: #696969; stroke-width: 0.8"/>
      </g>
     </g>
     <g id="text_11">
      <!-- 0.0 -->
      <g style="fill: #696969" transform="translate(20.6075 240.457091) scale(0.16 -0.16)">
       <use xlink:href="#DejaVuSans-30"/>
       <use xlink:href="#DejaVuSans-2e" x="63.623047"/>
       <use xlink:href="#DejaVuSans-30" x="95.410156"/>
      </g>
     </g>
    </g>
    <g id="ytick_6">
     <g id="line2d_17">
      <g>
       <use xlink:href="#md84f9f6bcb" x="53.0525" y="205.397463" style="fill: #696969; stroke: #696969; stroke-width: 0.8"/>
      </g>
     </g>
     <g id="text_12">
      <!-- 2.5 -->
      <g style="fill: #696969" transform="translate(20.6075 211.476213) scale(0.16 -0.16)">
       <use xlink:href="#DejaVuSans-32"/>
       <use xlink:href="#DejaVuSans-2e" x="63.623047"/>
       <use xlink:href="#DejaVuSans-35" x="95.410156"/>
      </g>
     </g>
    </g>
   </g>
   <g id="line2d_18">
    <path d="M 70.462045 231.911586 
L 77.425864 233.812907 
L 84.389682 234.956651 
L 91.3535 235.05929 
L 98.317318 234.392074 
L 105.281136 233.620376 
L 112.244955 233.281586 
L 119.208773 233.40708 
L 126.172591 233.646731 
L 133.136409 233.673205 
L 140.100227 233.521827 
L 147.064045 233.570281 
L 154.027864 234.082061 
L 160.991682 234.835872 
L 167.9555 235.257645 
L 174.919318 234.980671 
L 181.883136 234.654203 
L 188.846955 234.925998 
L 195.810773 234.913556 
L 202.774591 234.168502 
L 209.738409 233.678852 
L 216.702227 233.539643 
L 223.666045 233.64724 
L 230.629864 234.692477 
L 237.593682 235.142319 
L 244.5575 234.242268 
L 251.521318 233.765594 
L 258.485136 234.724046 
L 265.448955 235.833304 
L 272.412773 235.476493 
L 279.376591 234.381248 
L 286.340409 233.625502 
L 293.304227 233.633933 
L 300.268045 234.298984 
L 307.231864 235.076635 
L 314.195682 235.110099 
L 321.1595 234.107717 
L 328.123318 233.227051 
L 335.087136 233.480483 
L 342.050955 234.613333 
L 349.014773 235.932734 
L 355.978591 236.880891 
L 362.942409 237.153145 
L 369.906227 236.680768 
L 376.870045 235.564438 
L 383.833864 234.112507 
L 390.797682 232.892261 
L 397.7615 232.48298 
L 404.725318 233.120318 
L 411.689136 234.603331 
L 418.652955 236.49273 
" clip-path="url(#p8d96ea7fb8)" style="fill: none; stroke: #696969; stroke-width: 2; stroke-linecap: square"/>
   </g>
   <g id="line2d_19">
    <path d="M 70.462045 241.288551 
L 77.425864 240.508172 
L 84.389682 239.881864 
L 91.3535 239.39477 
L 98.317318 239.032039 
L 105.281136 238.77905 
L 112.244955 238.621594 
L 119.208773 238.546028 
L 126.172591 238.53939 
L 133.136409 238.589491 
L 140.100227 238.68497 
L 147.064045 238.815336 
L 154.027864 238.970978 
L 160.991682 239.143157 
L 167.9555 239.323982 
L 174.919318 239.506367 
L 181.883136 239.683977 
L 188.846955 239.851165 
L 195.810773 240.002891 
L 202.774591 240.134649 
L 209.738409 240.242378 
L 216.702227 240.322376 
L 223.666045 240.371214 
L 230.629864 240.385659 
L 237.593682 240.362587 
L 244.5575 240.298925 
L 251.521318 240.191584 
L 258.485136 240.037415 
L 265.448955 239.833181 
L 272.412773 239.575536 
L 279.376591 239.261035 
L 286.340409 238.886162 
L 293.304227 238.447376 
L 300.268045 237.941196 
L 307.231864 237.364304 
L 314.195682 236.713682 
L 321.1595 235.98679 
L 328.123318 235.181768 
L 335.087136 234.297688 
L 342.050955 233.334836 
L 349.014773 232.295048 
L 355.978591 231.182082 
L 362.942409 230.002045 
L 369.906227 228.763865 
L 376.870045 227.479815 
L 383.833864 226.166103 
L 390.797682 224.843501 
L 397.7615 223.538049 
L 404.725318 222.281815 
L 411.689136 221.113717 
L 418.652955 220.080415 
" clip-path="url(#p8d96ea7fb8)" style="fill: none; stroke-dasharray: 7.4,3.2; stroke-dashoffset: 0; stroke: #79ad41; stroke-width: 2"/>
   </g>
   <g id="patch_9">
    <path d="M 53.0525 276.68 
L 53.0525 181.688 
" style="fill: none; stroke: #000000; stroke-width: 0.8; stroke-linejoin: miter; stroke-linecap: square"/>
   </g>
   <g id="patch_10">
    <path d="M 436.0625 276.68 
L 436.0625 181.688 
" style="fill: none; stroke: #000000; stroke-width: 0.8; stroke-linejoin: miter; stroke-linecap: square"/>
   </g>
   <g id="patch_11">
    <path d="M 53.0525 276.68 
L 436.0625 276.68 
" style="fill: none; stroke: #000000; stroke-width: 0.8; stroke-linejoin: miter; stroke-linecap: square"/>
   </g>
   <g id="patch_12">
    <path d="M 53.0525 181.688 
L 436.0625 181.688 
" style="fill: none; stroke: #000000; stroke-width: 0.8; stroke-linejoin: miter; stroke-linecap: square"/>
   </g>
  </g>
 </g>
 <defs>
  <clipPath id="p06f49ffdfc">
   <rect x="53.0525" y="7.2" width="383.01" height="47.496"/>
  </clipPath>
  <clipPath id="p56ea9e2a4f">
   <rect x="53.0525" y="70.696" width="383.01" height="94.992"/>
  </clipPath>
  <clipPath id="p8d96ea7fb8">
   <rect x="53.0525" y="181.688" width="383.01" height="94.992"/>
  </clipPath>
 </defs>
</svg>
