<?xml version="1.0" encoding="utf-8" standalone="no"?>
<!DOCTYPE svg PUBLIC "-//W3C//DTD SVG 1.1//EN"
  "http://www.w3.org/Graphics/SVG/1.1/DTD/svg11.dtd">
<svg xmlns:xlink="http://www.w3.org/1999/xlink" width="443.2625pt" height="325.85pt" viewBox="0 0 443.2625 325.85" xmlns="http://www.w3.org/2000/svg" version="1.1">
 <metadata>
  <rdf:RDF xmlns:dc="http://purl.org/dc/elements/1.1/" xmlns:cc="http://creativecommons.org/ns#" xmlns:rdf="http://www.w3.org/1999/02/22-rdf-syntax-ns#">
   <cc:Work>
    <dc:type rdf:resource="http://purl.org/dc/dcmitype/StillImage"/>
    <dc:date>2024-01-28T20:57:00.644149</dc:date>
    <dc:format>image/svg+xml</dc:format>
    <dc:creator>
     <cc:Agent>
      <dc:title>Matplotlib v3.7.2, https://matplotlib.org/</dc:title>
     </cc:Agent>
    </dc:creator>
   </cc:Work>
  </rdf:RDF>
 </metadata>
 <defs>
  <style type="text/css">*{stroke-linejoin: round; stroke-linecap: butt}</style>
 </defs>
 <g id="figure_1">
  <g id="patch_1">
   <path d="M 0 325.85 
L 443.2625 325.85 
L 443.2625 0 
L 0 0 
z
" style="fill: #ffffff"/>
  </g>
  <g id="axes_1">
   <g id="patch_2">
    <path d="M 53.0525 52.698775 
L 436.0625 52.698775 
L 436.0625 7.2 
L 53.0525 7.2 
z
" style="fill: #ffffff"/>
   </g>
   <g id="PolyCollection_1">
    <defs>
     <path id="mafd1d3107c" d="M 70.462045 -275.219352 
L 70.462045 -279.815187 
L 77.425864 -279.815187 
L 84.389682 -279.815187 
L 91.3535 -279.815187 
L 98.317318 -279.815187 
L 105.281136 -279.815187 
L 112.244955 -279.815187 
L 119.208773 -279.815187 
L 126.172591 -279.815187 
L 133.136409 -279.815187 
L 140.100227 -279.815187 
L 147.064045 -279.815187 
L 154.027864 -279.815187 
L 160.991682 -279.815187 
L 167.9555 -279.815187 
L 174.919318 -279.815187 
L 181.883136 -279.815187 
L 188.846955 -279.815187 
L 195.810773 -280.340012 
L 202.774591 -281.328398 
L 209.738409 -282.532267 
L 216.702227 -283.987366 
L 223.666045 -285.726086 
L 230.629864 -287.771123 
L 237.593682 -290.127421 
L 244.5575 -292.773696 
L 251.521318 -295.656388 
L 258.485136 -298.689294 
L 265.448955 -301.761388 
L 272.412773 -304.752241 
L 279.376591 -307.55098 
L 286.340409 -310.072687 
L 293.304227 -312.267345 
L 300.268045 -314.119911 
L 307.231864 -315.643706 
L 314.195682 -316.581874 
L 321.1595 -316.581874 
L 328.123318 -316.581874 
L 335.087136 -316.581874 
L 342.050955 -316.581874 
L 349.014773 -316.581874 
L 355.978591 -316.581874 
L 362.942409 -316.581874 
L 369.906227 -316.581874 
L 376.870045 -316.581874 
L 383.833864 -316.581874 
L 390.797682 -316.581874 
L 397.7615 -316.581874 
L 404.725318 -316.581874 
L 411.689136 -316.581874 
L 418.652955 -316.581874 
L 418.652955 -275.219352 
L 418.652955 -275.219352 
L 411.689136 -275.219352 
L 404.725318 -275.219352 
L 397.7615 -275.219352 
L 390.797682 -275.219352 
L 383.833864 -275.219352 
L 376.870045 -275.219352 
L 369.906227 -275.219352 
L 362.942409 -275.219352 
L 355.978591 -275.219352 
L 349.014773 -275.219352 
L 342.050955 -275.219352 
L 335.087136 -275.219352 
L 328.123318 -275.219352 
L 321.1595 -275.219352 
L 314.195682 -275.219352 
L 307.231864 -275.219352 
L 300.268045 -275.219352 
L 293.304227 -275.219352 
L 286.340409 -275.219352 
L 279.376591 -275.219352 
L 272.412773 -275.219352 
L 265.448955 -275.219352 
L 258.485136 -275.219352 
L 251.521318 -275.219352 
L 244.5575 -275.219352 
L 237.593682 -275.219352 
L 230.629864 -275.219352 
L 223.666045 -275.219352 
L 216.702227 -275.219352 
L 209.738409 -275.219352 
L 202.774591 -275.219352 
L 195.810773 -275.219352 
L 188.846955 -275.219352 
L 181.883136 -275.219352 
L 174.919318 -275.219352 
L 167.9555 -275.219352 
L 160.991682 -275.219352 
L 154.027864 -275.219352 
L 147.064045 -275.219352 
L 140.100227 -275.219352 
L 133.136409 -275.219352 
L 126.172591 -275.219352 
L 119.208773 -275.219352 
L 112.244955 -275.219352 
L 105.281136 -275.219352 
L 98.317318 -275.219352 
L 91.3535 -275.219352 
L 84.389682 -275.219352 
L 77.425864 -275.219352 
L 70.462045 -275.219352 
z
" style="stroke: #dc143c; stroke-opacity: 0.2"/>
    </defs>
    <g clip-path="url(#p5d4b4aec68)">
     <use xlink:href="#mafd1d3107c" x="0" y="325.85" style="fill: #dc143c; fill-opacity: 0.2; stroke: #dc143c; stroke-opacity: 0.2"/>
    </g>
   </g>
   <g id="PolyCollection_2">
    <defs>
     <path id="mcff0cc4a32" d="M 70.462045 -275.219352 
L 70.462045 -316.581874 
L 77.425864 -316.581874 
L 84.389682 -316.581874 
L 91.3535 -316.581874 
L 98.317318 -316.581874 
L 105.281136 -316.581874 
L 112.244955 -316.581874 
L 119.208773 -316.581874 
L 126.172591 -316.581874 
L 133.136409 -316.581874 
L 140.100227 -316.581874 
L 147.064045 -316.581874 
L 154.027864 -316.581874 
L 160.991682 -316.581874 
L 167.9555 -316.581874 
L 174.919318 -316.581874 
L 181.883136 -316.581874 
L 188.846955 -316.581874 
L 195.810773 -316.05705 
L 202.774591 -315.068663 
L 209.738409 -313.864794 
L 216.702227 -312.409695 
L 223.666045 -310.670975 
L 230.629864 -308.625938 
L 237.593682 -306.26964 
L 244.5575 -303.623365 
L 251.521318 -300.740673 
L 258.485136 -297.707767 
L 265.448955 -294.635674 
L 272.412773 -291.64482 
L 279.376591 -288.846081 
L 286.340409 -286.324375 
L 293.304227 -284.129717 
L 300.268045 -282.27715 
L 307.231864 -280.753355 
L 314.195682 -279.815187 
L 321.1595 -279.815187 
L 328.123318 -279.815187 
L 335.087136 -279.815187 
L 342.050955 -279.815187 
L 349.014773 -279.815187 
L 355.978591 -279.815187 
L 362.942409 -279.815187 
L 369.906227 -279.815187 
L 376.870045 -279.815187 
L 383.833864 -279.815187 
L 390.797682 -279.815187 
L 397.7615 -279.815187 
L 404.725318 -279.815187 
L 411.689136 -279.815187 
L 418.652955 -279.815187 
L 418.652955 -275.219352 
L 418.652955 -275.219352 
L 411.689136 -275.219352 
L 404.725318 -275.219352 
L 397.7615 -275.219352 
L 390.797682 -275.219352 
L 383.833864 -275.219352 
L 376.870045 -275.219352 
L 369.906227 -275.219352 
L 362.942409 -275.219352 
L 355.978591 -275.219352 
L 349.014773 -275.219352 
L 342.050955 -275.219352 
L 335.087136 -275.219352 
L 328.123318 -275.219352 
L 321.1595 -275.219352 
L 314.195682 -275.219352 
L 307.231864 -275.219352 
L 300.268045 -275.219352 
L 293.304227 -275.219352 
L 286.340409 -275.219352 
L 279.376591 -275.219352 
L 272.412773 -275.219352 
L 265.448955 -275.219352 
L 258.485136 -275.219352 
L 251.521318 -275.219352 
L 244.5575 -275.219352 
L 237.593682 -275.219352 
L 230.629864 -275.219352 
L 223.666045 -275.219352 
L 216.702227 -275.219352 
L 209.738409 -275.219352 
L 202.774591 -275.219352 
L 195.810773 -275.219352 
L 188.846955 -275.219352 
L 181.883136 -275.219352 
L 174.919318 -275.219352 
L 167.9555 -275.219352 
L 160.991682 -275.219352 
L 154.027864 -275.219352 
L 147.064045 -275.219352 
L 140.100227 -275.219352 
L 133.136409 -275.219352 
L 126.172591 -275.219352 
L 119.208773 -275.219352 
L 112.244955 -275.219352 
L 105.281136 -275.219352 
L 98.317318 -275.219352 
L 91.3535 -275.219352 
L 84.389682 -275.219352 
L 77.425864 -275.219352 
L 70.462045 -275.219352 
z
" style="stroke: #000080; stroke-opacity: 0.2"/>
    </defs>
    <g clip-path="url(#p5d4b4aec68)">
     <use xlink:href="#mcff0cc4a32" x="0" y="325.85" style="fill: #000080; fill-opacity: 0.2; stroke: #000080; stroke-opacity: 0.2"/>
    </g>
   </g>
   <g id="matplotlib.axis_1"/>
   <g id="matplotlib.axis_2"/>
   <g id="line2d_1">
    <path d="M 70.462045 46.034813 
L 77.425864 46.034813 
L 84.389682 46.034813 
L 91.3535 46.034813 
L 98.317318 46.034813 
L 105.281136 46.034813 
L 112.244955 46.034813 
L 119.208773 46.034813 
L 126.172591 46.034813 
L 133.136409 46.034813 
L 140.100227 46.034813 
L 147.064045 46.034813 
L 154.027864 46.034813 
L 160.991682 46.034813 
L 167.9555 46.034813 
L 174.919318 46.034813 
L 181.883136 46.034813 
L 188.846955 46.034813 
L 195.810773 45.509988 
L 202.774591 44.521602 
L 209.738409 43.317733 
L 216.702227 41.862634 
L 223.666045 40.123914 
L 230.629864 38.078877 
L 237.593682 35.722579 
L 244.5575 33.076304 
L 251.521318 30.193612 
L 258.485136 27.160706 
L 265.448955 24.088612 
L 272.412773 21.097759 
L 279.376591 18.29902 
L 286.340409 15.777313 
L 293.304227 13.582655 
L 300.268045 11.730089 
L 307.231864 10.206294 
L 314.195682 9.268126 
L 321.1595 9.268126 
L 328.123318 9.268126 
L 335.087136 9.268126 
L 342.050955 9.268126 
L 349.014773 9.268126 
L 355.978591 9.268126 
L 362.942409 9.268126 
L 369.906227 9.268126 
L 376.870045 9.268126 
L 383.833864 9.268126 
L 390.797682 9.268126 
L 397.7615 9.268126 
L 404.725318 9.268126 
L 411.689136 9.268126 
L 418.652955 9.268126 
" clip-path="url(#p5d4b4aec68)" style="fill: none; stroke: #dc143c; stroke-width: 1.5; stroke-linecap: square"/>
   </g>
   <g id="line2d_2">
    <path d="M 70.462045 9.268126 
L 77.425864 9.268126 
L 84.389682 9.268126 
L 91.3535 9.268126 
L 98.317318 9.268126 
L 105.281136 9.268126 
L 112.244955 9.268126 
L 119.208773 9.268126 
L 126.172591 9.268126 
L 133.136409 9.268126 
L 140.100227 9.268126 
L 147.064045 9.268126 
L 154.027864 9.268126 
L 160.991682 9.268126 
L 167.9555 9.268126 
L 174.919318 9.268126 
L 181.883136 9.268126 
L 188.846955 9.268126 
L 195.810773 9.79295 
L 202.774591 10.781337 
L 209.738409 11.985206 
L 216.702227 13.440305 
L 223.666045 15.179025 
L 230.629864 17.224062 
L 237.593682 19.58036 
L 244.5575 22.226635 
L 251.521318 25.109327 
L 258.485136 28.142233 
L 265.448955 31.214326 
L 272.412773 34.20518 
L 279.376591 37.003919 
L 286.340409 39.525625 
L 293.304227 41.720283 
L 300.268045 43.57285 
L 307.231864 45.096645 
L 314.195682 46.034813 
L 321.1595 46.034813 
L 328.123318 46.034813 
L 335.087136 46.034813 
L 342.050955 46.034813 
L 349.014773 46.034813 
L 355.978591 46.034813 
L 362.942409 46.034813 
L 369.906227 46.034813 
L 376.870045 46.034813 
L 383.833864 46.034813 
L 390.797682 46.034813 
L 397.7615 46.034813 
L 404.725318 46.034813 
L 411.689136 46.034813 
L 418.652955 46.034813 
" clip-path="url(#p5d4b4aec68)" style="fill: none; stroke: #000080; stroke-width: 1.5; stroke-linecap: square"/>
   </g>
  </g>
  <g id="axes_2">
   <g id="patch_3">
    <path d="M 53.0525 164.689387 
L 436.0625 164.689387 
L 436.0625 73.691838 
L 53.0525 73.691838 
z
" style="fill: #ffffff"/>
   </g>
   <g id="PathCollection_1">
    <defs>
     <path id="m784c799fa4" d="M 0 0.866025 
C 0.229673 0.866025 0.449969 0.774776 0.612372 0.612372 
C 0.774776 0.449969 0.866025 0.229673 0.866025 0 
C 0.866025 -0.229673 0.774776 -0.449969 0.612372 -0.612372 
C 0.449969 -0.774776 0.229673 -0.866025 0 -0.866025 
C -0.229673 -0.866025 -0.449969 -0.774776 -0.612372 -0.612372 
C -0.774776 -0.449969 -0.866025 -0.229673 -0.866025 0 
C -0.866025 0.229673 -0.774776 0.449969 -0.612372 0.612372 
C -0.449969 0.774776 -0.229673 0.866025 0 0.866025 
z
" style="stroke: #daa520"/>
    </defs>
    <g clip-path="url(#pbe2901b095)">
     <use xlink:href="#m784c799fa4" x="98.644779" y="107.282422" style="fill: #daa520; stroke: #daa520"/>
     <use xlink:href="#m784c799fa4" x="384.211573" y="127.849694" style="fill: #daa520; stroke: #daa520"/>
     <use xlink:href="#m784c799fa4" x="342.511902" y="131.970838" style="fill: #daa520; stroke: #daa520"/>
     <use xlink:href="#m784c799fa4" x="259.608369" y="160.131042" style="fill: #daa520; stroke: #daa520"/>
     <use xlink:href="#m784c799fa4" x="226.930755" y="133.4668" style="fill: #daa520; stroke: #daa520"/>
     <use xlink:href="#m784c799fa4" x="293.134698" y="136.650942" style="fill: #daa520; stroke: #daa520"/>
     <use xlink:href="#m784c799fa4" x="398.645989" y="79.882576" style="fill: #daa520; stroke: #daa520"/>
     <use xlink:href="#m784c799fa4" x="384.870678" y="116.562993" style="fill: #daa520; stroke: #daa520"/>
     <use xlink:href="#m784c799fa4" x="382.985167" y="91.665761" style="fill: #daa520; stroke: #daa520"/>
     <use xlink:href="#m784c799fa4" x="397.999596" y="125.693621" style="fill: #daa520; stroke: #daa520"/>
     <use xlink:href="#m784c799fa4" x="335.286937" y="137.86875" style="fill: #daa520; stroke: #daa520"/>
     <use xlink:href="#m784c799fa4" x="336.303339" y="130.360677" style="fill: #daa520; stroke: #daa520"/>
     <use xlink:href="#m784c799fa4" x="169.026312" y="115.773371" style="fill: #daa520; stroke: #daa520"/>
     <use xlink:href="#m784c799fa4" x="352.107663" y="137.851127" style="fill: #daa520; stroke: #daa520"/>
     <use xlink:href="#m784c799fa4" x="256.902073" y="128.629228" style="fill: #daa520; stroke: #daa520"/>
     <use xlink:href="#m784c799fa4" x="314.473924" y="137.366736" style="fill: #daa520; stroke: #daa520"/>
     <use xlink:href="#m784c799fa4" x="283.01927" y="119.834445" style="fill: #daa520; stroke: #daa520"/>
     <use xlink:href="#m784c799fa4" x="345.395886" y="138.085297" style="fill: #daa520; stroke: #daa520"/>
     <use xlink:href="#m784c799fa4" x="287.168475" y="119.967009" style="fill: #daa520; stroke: #daa520"/>
     <use xlink:href="#m784c799fa4" x="320.27269" y="135.862894" style="fill: #daa520; stroke: #daa520"/>
     <use xlink:href="#m784c799fa4" x="405.567051" y="105.460152" style="fill: #daa520; stroke: #daa520"/>
     <use xlink:href="#m784c799fa4" x="295.094336" y="124.450834" style="fill: #daa520; stroke: #daa520"/>
     <use xlink:href="#m784c799fa4" x="205.125014" y="113.666054" style="fill: #daa520; stroke: #daa520"/>
     <use xlink:href="#m784c799fa4" x="384.292801" y="89.938686" style="fill: #daa520; stroke: #daa520"/>
     <use xlink:href="#m784c799fa4" x="334.685986" y="113.081181" style="fill: #daa520; stroke: #daa520"/>
     <use xlink:href="#m784c799fa4" x="249.12045" y="150.966414" style="fill: #daa520; stroke: #daa520"/>
     <use xlink:href="#m784c799fa4" x="245.813699" y="126.880311" style="fill: #daa520; stroke: #daa520"/>
     <use xlink:href="#m784c799fa4" x="403.617468" y="110.854413" style="fill: #daa520; stroke: #daa520"/>
     <use xlink:href="#m784c799fa4" x="350.166889" y="129.358572" style="fill: #daa520; stroke: #daa520"/>
     <use xlink:href="#m784c799fa4" x="345.172508" y="133.710309" style="fill: #daa520; stroke: #daa520"/>
     <use xlink:href="#m784c799fa4" x="387.110305" y="119.023344" style="fill: #daa520; stroke: #daa520"/>
     <use xlink:href="#m784c799fa4" x="407.807781" y="77.82809" style="fill: #daa520; stroke: #daa520"/>
     <use xlink:href="#m784c799fa4" x="321.861433" y="112.992018" style="fill: #daa520; stroke: #daa520"/>
     <use xlink:href="#m784c799fa4" x="331.19309" y="150.157583" style="fill: #daa520; stroke: #daa520"/>
     <use xlink:href="#m784c799fa4" x="265.700212" y="118.249212" style="fill: #daa520; stroke: #daa520"/>
     <use xlink:href="#m784c799fa4" x="310.6986" y="148.490968" style="fill: #daa520; stroke: #daa520"/>
     <use xlink:href="#m784c799fa4" x="303.926838" y="138.247782" style="fill: #daa520; stroke: #daa520"/>
     <use xlink:href="#m784c799fa4" x="332.177548" y="130.151741" style="fill: #daa520; stroke: #daa520"/>
     <use xlink:href="#m784c799fa4" x="304.142294" y="90.296213" style="fill: #daa520; stroke: #daa520"/>
     <use xlink:href="#m784c799fa4" x="381.674491" y="128.579166" style="fill: #daa520; stroke: #daa520"/>
     <use xlink:href="#m784c799fa4" x="405.843194" y="78.066299" style="fill: #daa520; stroke: #daa520"/>
     <use xlink:href="#m784c799fa4" x="403.784273" y="116.850564" style="fill: #daa520; stroke: #daa520"/>
     <use xlink:href="#m784c799fa4" x="402.50325" y="86.419806" style="fill: #daa520; stroke: #daa520"/>
     <use xlink:href="#m784c799fa4" x="301.395165" y="136.664302" style="fill: #daa520; stroke: #daa520"/>
     <use xlink:href="#m784c799fa4" x="302.185115" y="112.332069" style="fill: #daa520; stroke: #daa520"/>
     <use xlink:href="#m784c799fa4" x="341.672119" y="146.18739" style="fill: #daa520; stroke: #daa520"/>
     <use xlink:href="#m784c799fa4" x="418.026509" y="84.972544" style="fill: #daa520; stroke: #daa520"/>
     <use xlink:href="#m784c799fa4" x="360.279451" y="124.089328" style="fill: #daa520; stroke: #daa520"/>
     <use xlink:href="#m784c799fa4" x="384.04469" y="128.163473" style="fill: #daa520; stroke: #daa520"/>
     <use xlink:href="#m784c799fa4" x="224.490726" y="126.741193" style="fill: #daa520; stroke: #daa520"/>
     <use xlink:href="#m784c799fa4" x="352.504958" y="119.122645" style="fill: #daa520; stroke: #daa520"/>
     <use xlink:href="#m784c799fa4" x="341.185102" y="123.034506" style="fill: #daa520; stroke: #daa520"/>
     <use xlink:href="#m784c799fa4" x="414.539189" y="104.751169" style="fill: #daa520; stroke: #daa520"/>
     <use xlink:href="#m784c799fa4" x="289.94163" y="94.329945" style="fill: #daa520; stroke: #daa520"/>
     <use xlink:href="#m784c799fa4" x="380.840489" y="128.439905" style="fill: #daa520; stroke: #daa520"/>
     <use xlink:href="#m784c799fa4" x="321.232535" y="115.225193" style="fill: #daa520; stroke: #daa520"/>
     <use xlink:href="#m784c799fa4" x="349.820238" y="132.545708" style="fill: #daa520; stroke: #daa520"/>
     <use xlink:href="#m784c799fa4" x="301.140532" y="118.046154" style="fill: #daa520; stroke: #daa520"/>
     <use xlink:href="#m784c799fa4" x="368.530808" y="115.419056" style="fill: #daa520; stroke: #daa520"/>
     <use xlink:href="#m784c799fa4" x="316.292875" y="130.82379" style="fill: #daa520; stroke: #daa520"/>
     <use xlink:href="#m784c799fa4" x="362.825909" y="133.182647" style="fill: #daa520; stroke: #daa520"/>
     <use xlink:href="#m784c799fa4" x="355.18282" y="147.37047" style="fill: #daa520; stroke: #daa520"/>
     <use xlink:href="#m784c799fa4" x="175.141877" y="109.509839" style="fill: #daa520; stroke: #daa520"/>
     <use xlink:href="#m784c799fa4" x="397.324903" y="122.403399" style="fill: #daa520; stroke: #daa520"/>
     <use xlink:href="#m784c799fa4" x="81.033194" y="78.571966" style="fill: #daa520; stroke: #daa520"/>
     <use xlink:href="#m784c799fa4" x="110.478824" y="108.304066" style="fill: #daa520; stroke: #daa520"/>
     <use xlink:href="#m784c799fa4" x="261.264769" y="157.278831" style="fill: #daa520; stroke: #daa520"/>
     <use xlink:href="#m784c799fa4" x="405.209673" y="78.312406" style="fill: #daa520; stroke: #daa520"/>
     <use xlink:href="#m784c799fa4" x="417.998244" y="88.964148" style="fill: #daa520; stroke: #daa520"/>
     <use xlink:href="#m784c799fa4" x="352.301909" y="131.135011" style="fill: #daa520; stroke: #daa520"/>
     <use xlink:href="#m784c799fa4" x="413.274505" y="84.255908" style="fill: #daa520; stroke: #daa520"/>
     <use xlink:href="#m784c799fa4" x="393.633601" y="94.422203" style="fill: #daa520; stroke: #daa520"/>
     <use xlink:href="#m784c799fa4" x="238.968026" y="126.546337" style="fill: #daa520; stroke: #daa520"/>
     <use xlink:href="#m784c799fa4" x="380.753473" y="123.438854" style="fill: #daa520; stroke: #daa520"/>
     <use xlink:href="#m784c799fa4" x="237.744666" y="143.416156" style="fill: #daa520; stroke: #daa520"/>
     <use xlink:href="#m784c799fa4" x="308.936387" y="147.285923" style="fill: #daa520; stroke: #daa520"/>
     <use xlink:href="#m784c799fa4" x="305.412772" y="91.649262" style="fill: #daa520; stroke: #daa520"/>
     <use xlink:href="#m784c799fa4" x="241.072975" y="113.780713" style="fill: #daa520; stroke: #daa520"/>
     <use xlink:href="#m784c799fa4" x="391.88008" y="124.320722" style="fill: #daa520; stroke: #daa520"/>
     <use xlink:href="#m784c799fa4" x="335.169737" y="129.822521" style="fill: #daa520; stroke: #daa520"/>
     <use xlink:href="#m784c799fa4" x="332.192207" y="146.006384" style="fill: #daa520; stroke: #daa520"/>
     <use xlink:href="#m784c799fa4" x="380.351275" y="122.924945" style="fill: #daa520; stroke: #daa520"/>
     <use xlink:href="#m784c799fa4" x="394.872078" y="108.295816" style="fill: #daa520; stroke: #daa520"/>
     <use xlink:href="#m784c799fa4" x="85.833375" y="119.062331" style="fill: #daa520; stroke: #daa520"/>
     <use xlink:href="#m784c799fa4" x="318.813147" y="120.864625" style="fill: #daa520; stroke: #daa520"/>
     <use xlink:href="#m784c799fa4" x="246.315586" y="145.594904" style="fill: #daa520; stroke: #daa520"/>
     <use xlink:href="#m784c799fa4" x="392.163954" y="88.443114" style="fill: #daa520; stroke: #daa520"/>
     <use xlink:href="#m784c799fa4" x="416.97521" y="81.24828" style="fill: #daa520; stroke: #daa520"/>
     <use xlink:href="#m784c799fa4" x="260.45263" y="160.553135" style="fill: #daa520; stroke: #daa520"/>
     <use xlink:href="#m784c799fa4" x="250.035278" y="150.572161" style="fill: #daa520; stroke: #daa520"/>
     <use xlink:href="#m784c799fa4" x="400.859326" y="111.207397" style="fill: #daa520; stroke: #daa520"/>
     <use xlink:href="#m784c799fa4" x="414.129557" y="97.936703" style="fill: #daa520; stroke: #daa520"/>
     <use xlink:href="#m784c799fa4" x="327.518921" y="108.715279" style="fill: #daa520; stroke: #daa520"/>
     <use xlink:href="#m784c799fa4" x="409.380533" y="90.283759" style="fill: #daa520; stroke: #daa520"/>
     <use xlink:href="#m784c799fa4" x="379.517712" y="114.579849" style="fill: #daa520; stroke: #daa520"/>
     <use xlink:href="#m784c799fa4" x="297.374972" y="124.155778" style="fill: #daa520; stroke: #daa520"/>
     <use xlink:href="#m784c799fa4" x="388.863448" y="122.129416" style="fill: #daa520; stroke: #daa520"/>
     <use xlink:href="#m784c799fa4" x="339.656537" y="150.44284" style="fill: #daa520; stroke: #daa520"/>
     <use xlink:href="#m784c799fa4" x="98.737636" y="94.810722" style="fill: #daa520; stroke: #daa520"/>
     <use xlink:href="#m784c799fa4" x="413.019226" y="84.324988" style="fill: #daa520; stroke: #daa520"/>
     <use xlink:href="#m784c799fa4" x="134.704163" y="86.260612" style="fill: #daa520; stroke: #daa520"/>
    </g>
   </g>
   <g id="matplotlib.axis_3"/>
   <g id="matplotlib.axis_4">
    <g id="ytick_1">
     <g id="line2d_3">
      <defs>
       <path id="m9e4f0d5366" d="M 0 0 
L -3.5 0 
" style="stroke: #696969; stroke-width: 0.8"/>
      </defs>
      <g>
       <use xlink:href="#m9e4f0d5366" x="53.0525" y="131.507734" style="fill: #696969; stroke: #696969; stroke-width: 0.8"/>
      </g>
     </g>
     <g id="text_1">
      <!-- 0 -->
      <g style="fill: #696969" transform="translate(35.8725 137.586484) scale(0.16 -0.16)">
       <defs>
        <path id="DejaVuSans-30" d="M 2034 4250 
Q 1547 4250 1301 3770 
Q 1056 3291 1056 2328 
Q 1056 1369 1301 889 
Q 1547 409 2034 409 
Q 2525 409 2770 889 
Q 3016 1369 3016 2328 
Q 3016 3291 2770 3770 
Q 2525 4250 2034 4250 
z
M 2034 4750 
Q 2819 4750 3233 4129 
Q 3647 3509 3647 2328 
Q 3647 1150 3233 529 
Q 2819 -91 2034 -91 
Q 1250 -91 836 529 
Q 422 1150 422 2328 
Q 422 3509 836 4129 
Q 1250 4750 2034 4750 
z
" transform="scale(0.015625)"/>
       </defs>
       <use xlink:href="#DejaVuSans-30"/>
      </g>
     </g>
    </g>
    <g id="ytick_2">
     <g id="line2d_4">
      <g>
       <use xlink:href="#m9e4f0d5366" x="53.0525" y="75.132478" style="fill: #696969; stroke: #696969; stroke-width: 0.8"/>
      </g>
     </g>
     <g id="text_2">
      <!-- 5 -->
      <g style="fill: #696969" transform="translate(35.8725 81.211228) scale(0.16 -0.16)">
       <defs>
        <path id="DejaVuSans-35" d="M 691 4666 
L 3169 4666 
L 3169 4134 
L 1269 4134 
L 1269 2991 
Q 1406 3038 1543 3061 
Q 1681 3084 1819 3084 
Q 2600 3084 3056 2656 
Q 3513 2228 3513 1497 
Q 3513 744 3044 326 
Q 2575 -91 1722 -91 
Q 1428 -91 1123 -41 
Q 819 9 494 109 
L 494 744 
Q 775 591 1075 516 
Q 1375 441 1709 441 
Q 2250 441 2565 725 
Q 2881 1009 2881 1497 
Q 2881 1984 2565 2268 
Q 2250 2553 1709 2553 
Q 1456 2553 1204 2497 
Q 953 2441 691 2322 
L 691 4666 
z
" transform="scale(0.015625)"/>
       </defs>
       <use xlink:href="#DejaVuSans-35"/>
      </g>
     </g>
    </g>
   </g>
   <g id="line2d_5">
    <path d="M 70.462045 105.52559 
L 77.425864 110.205172 
L 84.389682 114.104101 
L 91.3535 116.574048 
L 98.317318 117.221352 
L 105.281136 115.98894 
L 112.244955 113.204078 
L 119.208773 109.571412 
L 126.172591 106.06975 
L 133.136409 103.730023 
L 140.100227 103.338642 
L 147.064045 105.181114 
L 154.027864 108.952433 
L 160.991682 113.886499 
L 167.9555 119.04091 
L 174.919318 123.596792 
L 181.883136 127.049143 
L 188.846955 129.249983 
L 195.810773 130.350754 
L 202.774591 130.711446 
L 209.738409 130.805717 
L 216.702227 131.109748 
L 223.666045 131.966863 
L 230.629864 133.463283 
L 237.593682 135.381697 
L 244.5575 137.275155 
L 251.521318 138.635976 
L 258.485136 139.077552 
L 265.448955 138.447233 
L 272.412773 136.841973 
L 279.376591 134.55667 
L 286.340409 132.013522 
L 293.304227 129.695444 
L 300.268045 128.07311 
L 307.231864 127.50917 
L 314.195682 128.149116 
L 321.1595 129.839546 
L 328.123318 132.121451 
L 335.087136 134.320651 
L 342.050955 135.714661 
L 349.014773 135.719315 
L 355.978591 134.02756 
L 362.942409 130.654147 
L 369.906227 125.884588 
L 376.870045 120.171738 
L 383.833864 114.03994 
L 390.797682 108.032659 
L 397.7615 102.693822 
L 404.725318 98.542781 
L 411.689136 96.012464 
L 418.652955 95.358292 
" clip-path="url(#pbe2901b095)" style="fill: none; stroke: #000000; stroke-width: 2; stroke-linecap: square"/>
   </g>
   <g id="line2d_6">
    <path d="M 70.462045 87.495106 
L 77.425864 91.572517 
L 84.389682 95.279654 
L 91.3535 98.647253 
L 98.317318 101.704529 
L 105.281136 104.47917 
L 112.244955 106.997344 
L 119.208773 109.28369 
L 126.172591 111.361325 
L 133.136409 113.251843 
L 140.100227 114.975311 
L 147.064045 116.550273 
L 154.027864 117.993749 
L 160.991682 119.321236 
L 167.9555 120.546704 
L 174.919318 121.682601 
L 181.883136 122.739849 
L 188.846955 123.727847 
L 195.810773 124.65447 
L 202.774591 125.526068 
L 209.738409 126.347467 
L 216.702227 127.121969 
L 223.666045 127.851351 
L 230.629864 128.535866 
L 237.593682 129.174244 
L 244.5575 129.763689 
L 251.521318 130.299882 
L 258.485136 130.776979 
L 265.448955 131.187612 
L 272.412773 131.52289 
L 279.376591 131.772395 
L 286.340409 131.924188 
L 293.304227 131.964803 
L 300.268045 131.879251 
L 307.231864 131.651019 
L 314.195682 131.262069 
L 321.1595 130.69284 
L 328.123318 129.922245 
L 335.087136 128.927675 
L 342.050955 127.684994 
L 349.014773 126.168544 
L 355.978591 124.351142 
L 362.942409 122.204081 
L 369.906227 119.697129 
L 376.870045 116.79853 
L 383.833864 113.475005 
L 390.797682 109.69175 
L 397.7615 105.412436 
L 404.725318 100.599209 
L 411.689136 95.212695 
L 418.652955 89.211991 
" clip-path="url(#pbe2901b095)" style="fill: none; stroke-dasharray: 7.4,3.2; stroke-dashoffset: 0; stroke: #34b6c6; stroke-width: 2"/>
   </g>
   <g id="line2d_7">
    <path d="M 70.462045 93.29558 
L 77.425864 95.614899 
L 84.389682 97.652658 
L 91.3535 99.366694 
L 98.317318 100.677825 
L 105.281136 101.496168 
L 112.244955 101.854668 
L 119.208773 102.088964 
L 126.172591 102.701301 
L 133.136409 104.047876 
L 140.100227 106.499458 
L 147.064045 110.398625 
L 154.027864 114.952882 
L 160.991682 119.196751 
L 167.9555 123.324324 
L 174.919318 126.968727 
L 181.883136 129.517218 
L 188.846955 131.093523 
L 195.810773 132.04553 
L 202.774591 132.553953 
L 209.738409 132.610957 
L 216.702227 132.062323 
L 223.666045 130.844123 
L 230.629864 129.430276 
L 237.593682 128.361208 
L 244.5575 127.732923 
L 251.521318 127.474691 
L 258.485136 127.49326 
L 265.448955 127.715138 
L 272.412773 128.097161 
L 279.376591 128.611336 
L 286.340409 129.22242 
L 293.304227 129.875906 
L 300.268045 130.505127 
L 307.231864 131.048018 
L 314.195682 131.457429 
L 321.1595 131.700485 
L 328.123318 131.751219 
L 335.087136 131.57816 
L 342.050955 131.12129 
L 349.014773 130.245542 
L 355.978591 128.673509 
L 362.942409 126.036539 
L 369.906227 122.305736 
L 376.870045 117.892123 
L 383.833864 112.86426 
L 390.797682 107.402611 
L 397.7615 102.372625 
L 404.725318 98.239371 
L 411.689136 94.712663 
L 418.652955 91.380246 
" clip-path="url(#pbe2901b095)" style="fill: none; stroke-dasharray: 7.4,3.2; stroke-dashoffset: 0; stroke: #9370db; stroke-width: 2"/>
   </g>
   <g id="line2d_8">
    <path d="M 70.462045 118.533652 
L 77.425864 118.114445 
L 84.389682 117.559783 
L 91.3535 116.75787 
L 98.317318 115.527096 
L 105.281136 113.66668 
L 112.244955 111.213679 
L 119.208773 108.789192 
L 126.172591 107.336405 
L 133.136409 107.518845 
L 140.100227 110.02951 
L 147.064045 115.508568 
L 154.027864 122.41292 
L 160.991682 128.867953 
L 167.9555 135.23233 
L 174.919318 140.786445 
L 181.883136 144.338896 
L 188.846955 146.117204 
L 195.810773 146.781771 
L 202.774591 146.672667 
L 209.738409 145.768489 
L 216.702227 143.767511 
L 223.666045 140.543227 
L 230.629864 137.005766 
L 237.593682 134.194695 
L 244.5575 132.295625 
L 251.521318 131.174674 
L 258.485136 130.656048 
L 265.448955 130.603412 
L 272.412773 130.940239 
L 279.376591 131.620626 
L 286.340409 132.586155 
L 293.304227 133.74275 
L 300.268045 134.974367 
L 307.231864 136.17525 
L 314.195682 137.269779 
L 321.1595 138.21124 
L 328.123318 138.967644 
L 335.087136 139.497843 
L 342.050955 139.707169 
L 349.014773 139.357942 
L 355.978591 137.93994 
L 362.942409 134.768757 
L 369.906227 129.815347 
L 376.870045 123.898821 
L 383.833864 117.180575 
L 390.797682 110.038813 
L 397.7615 104.171586 
L 404.725318 100.507741 
L 411.689136 98.523914 
L 418.652955 97.46321 
" clip-path="url(#pbe2901b095)" style="fill: none; stroke-dasharray: 12.8,3.2,2,3.2; stroke-dashoffset: 0; stroke: #ff0000; stroke-width: 2"/>
   </g>
   <g id="patch_4">
    <path d="M 53.0525 164.689387 
L 53.0525 73.691838 
" style="fill: none; stroke: #000000; stroke-width: 0.8; stroke-linejoin: miter; stroke-linecap: square"/>
   </g>
   <g id="patch_5">
    <path d="M 436.0625 164.689387 
L 436.0625 73.691838 
" style="fill: none; stroke: #000000; stroke-width: 0.8; stroke-linejoin: miter; stroke-linecap: square"/>
   </g>
   <g id="patch_6">
    <path d="M 53.0525 164.689387 
L 436.0625 164.689387 
" style="fill: none; stroke: #000000; stroke-width: 0.8; stroke-linejoin: miter; stroke-linecap: square"/>
   </g>
   <g id="patch_7">
    <path d="M 53.0525 73.691838 
L 436.0625 73.691838 
" style="fill: none; stroke: #000000; stroke-width: 0.8; stroke-linejoin: miter; stroke-linecap: square"/>
   </g>
  </g>
  <g id="axes_3">
   <g id="patch_8">
    <path d="M 53.0525 276.68 
L 436.0625 276.68 
L 436.0625 185.682451 
L 53.0525 185.682451 
z
" style="fill: #ffffff"/>
   </g>
   <g id="PathCollection_2">
    <g clip-path="url(#p86f11670e5)">
     <use xlink:href="#m784c799fa4" x="98.644779" y="231.699863" style="fill: #daa520; stroke: #daa520"/>
     <use xlink:href="#m784c799fa4" x="384.211573" y="210.577229" style="fill: #daa520; stroke: #daa520"/>
     <use xlink:href="#m784c799fa4" x="342.511902" y="231.218543" style="fill: #daa520; stroke: #daa520"/>
     <use xlink:href="#m784c799fa4" x="259.608369" y="190.304803" style="fill: #daa520; stroke: #daa520"/>
     <use xlink:href="#m784c799fa4" x="226.930755" y="228.624368" style="fill: #daa520; stroke: #daa520"/>
     <use xlink:href="#m784c799fa4" x="293.134698" y="219.495774" style="fill: #daa520; stroke: #daa520"/>
     <use xlink:href="#m784c799fa4" x="398.645989" y="248.759323" style="fill: #daa520; stroke: #daa520"/>
     <use xlink:href="#m784c799fa4" x="384.870678" y="222.227904" style="fill: #daa520; stroke: #daa520"/>
     <use xlink:href="#m784c799fa4" x="382.985167" y="251.699262" style="fill: #daa520; stroke: #daa520"/>
     <use xlink:href="#m784c799fa4" x="397.999596" y="198.90442" style="fill: #daa520; stroke: #daa520"/>
     <use xlink:href="#m784c799fa4" x="335.286937" y="224.524456" style="fill: #daa520; stroke: #daa520"/>
     <use xlink:href="#m784c799fa4" x="336.303339" y="232.829609" style="fill: #daa520; stroke: #daa520"/>
     <use xlink:href="#m784c799fa4" x="169.026312" y="245.139695" style="fill: #daa520; stroke: #daa520"/>
     <use xlink:href="#m784c799fa4" x="352.107663" y="223.87705" style="fill: #daa520; stroke: #daa520"/>
     <use xlink:href="#m784c799fa4" x="256.902073" y="225.02937" style="fill: #daa520; stroke: #daa520"/>
     <use xlink:href="#m784c799fa4" x="314.473924" y="222.661017" style="fill: #daa520; stroke: #daa520"/>
     <use xlink:href="#m784c799fa4" x="283.01927" y="236.190603" style="fill: #daa520; stroke: #daa520"/>
     <use xlink:href="#m784c799fa4" x="345.395886" y="224.422631" style="fill: #daa520; stroke: #daa520"/>
     <use xlink:href="#m784c799fa4" x="287.168475" y="236.726726" style="fill: #daa520; stroke: #daa520"/>
     <use xlink:href="#m784c799fa4" x="320.27269" y="225.181166" style="fill: #daa520; stroke: #daa520"/>
     <use xlink:href="#m784c799fa4" x="405.567051" y="216.939942" style="fill: #daa520; stroke: #daa520"/>
     <use xlink:href="#m784c799fa4" x="295.094336" y="233.274449" style="fill: #daa520; stroke: #daa520"/>
     <use xlink:href="#m784c799fa4" x="205.125014" y="258.752885" style="fill: #daa520; stroke: #daa520"/>
     <use xlink:href="#m784c799fa4" x="384.292801" y="252.128835" style="fill: #daa520; stroke: #daa520"/>
     <use xlink:href="#m784c799fa4" x="334.685986" y="251.714708" style="fill: #daa520; stroke: #daa520"/>
     <use xlink:href="#m784c799fa4" x="249.12045" y="201.322718" style="fill: #daa520; stroke: #daa520"/>
     <use xlink:href="#m784c799fa4" x="245.813699" y="228.391557" style="fill: #daa520; stroke: #daa520"/>
     <use xlink:href="#m784c799fa4" x="403.617468" y="211.850011" style="fill: #daa520; stroke: #daa520"/>
     <use xlink:href="#m784c799fa4" x="350.166889" y="233.550142" style="fill: #daa520; stroke: #daa520"/>
     <use xlink:href="#m784c799fa4" x="345.172508" y="229.238985" style="fill: #daa520; stroke: #daa520"/>
     <use xlink:href="#m784c799fa4" x="387.110305" y="216.968061" style="fill: #daa520; stroke: #daa520"/>
     <use xlink:href="#m784c799fa4" x="407.807781" y="246.498455" style="fill: #daa520; stroke: #daa520"/>
     <use xlink:href="#m784c799fa4" x="321.861433" y="250.518356" style="fill: #daa520; stroke: #daa520"/>
     <use xlink:href="#m784c799fa4" x="331.19309" y="210.722462" style="fill: #daa520; stroke: #daa520"/>
     <use xlink:href="#m784c799fa4" x="265.700212" y="236.29947" style="fill: #daa520; stroke: #daa520"/>
     <use xlink:href="#m784c799fa4" x="310.6986" y="209.811421" style="fill: #daa520; stroke: #daa520"/>
     <use xlink:href="#m784c799fa4" x="303.926838" y="219.830415" style="fill: #daa520; stroke: #daa520"/>
     <use xlink:href="#m784c799fa4" x="332.177548" y="232.780343" style="fill: #daa520; stroke: #daa520"/>
     <use xlink:href="#m784c799fa4" x="304.142294" y="272.543748" style="fill: #daa520; stroke: #daa520"/>
     <use xlink:href="#m784c799fa4" x="381.674491" y="212.594157" style="fill: #daa520; stroke: #daa520"/>
     <use xlink:href="#m784c799fa4" x="405.843194" y="246.923921" style="fill: #daa520; stroke: #daa520"/>
     <use xlink:href="#m784c799fa4" x="403.784273" y="205.186199" style="fill: #daa520; stroke: #daa520"/>
     <use xlink:href="#m784c799fa4" x="402.50325" y="239.236963" style="fill: #daa520; stroke: #daa520"/>
     <use xlink:href="#m784c799fa4" x="301.395165" y="221.08482" style="fill: #daa520; stroke: #daa520"/>
     <use xlink:href="#m784c799fa4" x="302.185115" y="247.964903" style="fill: #daa520; stroke: #daa520"/>
     <use xlink:href="#m784c799fa4" x="341.672119" y="215.604349" style="fill: #daa520; stroke: #daa520"/>
     <use xlink:href="#m784c799fa4" x="418.026509" y="236.521844" style="fill: #daa520; stroke: #daa520"/>
     <use xlink:href="#m784c799fa4" x="360.279451" y="236.045579" style="fill: #daa520; stroke: #daa520"/>
     <use xlink:href="#m784c799fa4" x="384.04469" y="210.420986" style="fill: #daa520; stroke: #daa520"/>
     <use xlink:href="#m784c799fa4" x="224.490726" y="237.411305" style="fill: #daa520; stroke: #daa520"/>
     <use xlink:href="#m784c799fa4" x="352.504958" y="244.365014" style="fill: #daa520; stroke: #daa520"/>
     <use xlink:href="#m784c799fa4" x="341.185102" y="241.034037" style="fill: #daa520; stroke: #daa520"/>
     <use xlink:href="#m784c799fa4" x="414.539189" y="215.319228" style="fill: #daa520; stroke: #daa520"/>
     <use xlink:href="#m784c799fa4" x="289.94163" y="265.384039" style="fill: #daa520; stroke: #daa520"/>
     <use xlink:href="#m784c799fa4" x="380.840489" y="213.64753" style="fill: #daa520; stroke: #daa520"/>
     <use xlink:href="#m784c799fa4" x="321.232535" y="247.981623" style="fill: #daa520; stroke: #daa520"/>
     <use xlink:href="#m784c799fa4" x="349.820238" y="230.099792" style="fill: #daa520; stroke: #daa520"/>
     <use xlink:href="#m784c799fa4" x="301.140532" y="241.486734" style="fill: #daa520; stroke: #daa520"/>
     <use xlink:href="#m784c799fa4" x="368.530808" y="239.722429" style="fill: #daa520; stroke: #daa520"/>
     <use xlink:href="#m784c799fa4" x="316.292875" y="230.134195" style="fill: #daa520; stroke: #daa520"/>
     <use xlink:href="#m784c799fa4" x="362.825909" y="224.541244" style="fill: #daa520; stroke: #daa520"/>
     <use xlink:href="#m784c799fa4" x="355.18282" y="212.626465" style="fill: #daa520; stroke: #daa520"/>
     <use xlink:href="#m784c799fa4" x="175.141877" y="257.239845" style="fill: #daa520; stroke: #daa520"/>
     <use xlink:href="#m784c799fa4" x="397.324903" y="203.028999" style="fill: #daa520; stroke: #daa520"/>
     <use xlink:href="#m784c799fa4" x="81.033194" y="265.867321" style="fill: #daa520; stroke: #daa520"/>
     <use xlink:href="#m784c799fa4" x="110.478824" y="226.638384" style="fill: #daa520; stroke: #daa520"/>
     <use xlink:href="#m784c799fa4" x="261.264769" y="193.400388" style="fill: #daa520; stroke: #daa520"/>
     <use xlink:href="#m784c799fa4" x="405.209673" y="246.902802" style="fill: #daa520; stroke: #daa520"/>
     <use xlink:href="#m784c799fa4" x="417.998244" y="232.140906" style="fill: #daa520; stroke: #daa520"/>
     <use xlink:href="#m784c799fa4" x="352.301909" y="231.213753" style="fill: #daa520; stroke: #daa520"/>
     <use xlink:href="#m784c799fa4" x="413.274505" y="238.064676" style="fill: #daa520; stroke: #daa520"/>
     <use xlink:href="#m784c799fa4" x="393.633601" y="236.978969" style="fill: #daa520; stroke: #daa520"/>
     <use xlink:href="#m784c799fa4" x="238.968026" y="230.635986" style="fill: #daa520; stroke: #daa520"/>
     <use xlink:href="#m784c799fa4" x="380.753473" y="219.23406" style="fill: #daa520; stroke: #daa520"/>
     <use xlink:href="#m784c799fa4" x="237.744666" y="212.53783" style="fill: #daa520; stroke: #daa520"/>
     <use xlink:href="#m784c799fa4" x="308.936387" y="210.825666" style="fill: #daa520; stroke: #daa520"/>
     <use xlink:href="#m784c799fa4" x="305.412772" y="271.296363" style="fill: #daa520; stroke: #daa520"/>
     <use xlink:href="#m784c799fa4" x="241.072975" y="243.985697" style="fill: #daa520; stroke: #daa520"/>
     <use xlink:href="#m784c799fa4" x="391.88008" y="205.891815" style="fill: #daa520; stroke: #daa520"/>
     <use xlink:href="#m784c799fa4" x="335.169737" y="233.355699" style="fill: #daa520; stroke: #daa520"/>
     <use xlink:href="#m784c799fa4" x="332.192207" y="215.365955" style="fill: #daa520; stroke: #daa520"/>
     <use xlink:href="#m784c799fa4" x="380.351275" y="220.226861" style="fill: #daa520; stroke: #daa520"/>
     <use xlink:href="#m784c799fa4" x="394.872078" y="220.583936" style="fill: #daa520; stroke: #daa520"/>
     <use xlink:href="#m784c799fa4" x="85.833375" y="220.917357" style="fill: #daa520; stroke: #daa520"/>
     <use xlink:href="#m784c799fa4" x="318.813147" y="241.449767" style="fill: #daa520; stroke: #daa520"/>
     <use xlink:href="#m784c799fa4" x="246.315586" y="207.73029" style="fill: #daa520; stroke: #daa520"/>
     <use xlink:href="#m784c799fa4" x="392.163954" y="245.008941" style="fill: #daa520; stroke: #daa520"/>
     <use xlink:href="#m784c799fa4" x="416.97521" y="240.754499" style="fill: #daa520; stroke: #daa520"/>
     <use xlink:href="#m784c799fa4" x="260.45263" y="189.818703" style="fill: #daa520; stroke: #daa520"/>
     <use xlink:href="#m784c799fa4" x="250.035278" y="201.61641" style="fill: #daa520; stroke: #daa520"/>
     <use xlink:href="#m784c799fa4" x="400.859326" y="212.917648" style="fill: #daa520; stroke: #daa520"/>
     <use xlink:href="#m784c799fa4" x="414.129557" y="222.877047" style="fill: #daa520; stroke: #daa520"/>
     <use xlink:href="#m784c799fa4" x="327.518921" y="255.890371" style="fill: #daa520; stroke: #daa520"/>
     <use xlink:href="#m784c799fa4" x="409.380533" y="232.349112" style="fill: #daa520; stroke: #daa520"/>
     <use xlink:href="#m784c799fa4" x="379.517712" y="230.270233" style="fill: #daa520; stroke: #daa520"/>
     <use xlink:href="#m784c799fa4" x="297.374972" y="234.042456" style="fill: #daa520; stroke: #daa520"/>
     <use xlink:href="#m784c799fa4" x="388.863448" y="211.569264" style="fill: #daa520; stroke: #daa520"/>
     <use xlink:href="#m784c799fa4" x="339.656537" y="210.902199" style="fill: #daa520; stroke: #daa520"/>
     <use xlink:href="#m784c799fa4" x="98.737636" y="245.376676" style="fill: #daa520; stroke: #daa520"/>
     <use xlink:href="#m784c799fa4" x="413.019226" y="238.038938" style="fill: #daa520; stroke: #daa520"/>
     <use xlink:href="#m784c799fa4" x="134.704163" y="246.434827" style="fill: #daa520; stroke: #daa520"/>
    </g>
   </g>
   <g id="matplotlib.axis_5">
    <g id="xtick_1">
     <g id="line2d_9">
      <defs>
       <path id="m22c7c9b041" d="M 0 0 
L 0 3.5 
" style="stroke: #696969; stroke-width: 0.8"/>
      </defs>
      <g>
       <use xlink:href="#m22c7c9b041" x="70.462045" y="276.68" style="fill: #696969; stroke: #696969; stroke-width: 0.8"/>
      </g>
     </g>
     <g id="text_3">
      <!-- −1.0 -->
      <g style="fill: #696969" transform="translate(51.035795 295.8375) scale(0.16 -0.16)">
       <defs>
        <path id="DejaVuSans-2212" d="M 678 2272 
L 4684 2272 
L 4684 1741 
L 678 1741 
L 678 2272 
z
" transform="scale(0.015625)"/>
        <path id="DejaVuSans-31" d="M 794 531 
L 1825 531 
L 1825 4091 
L 703 3866 
L 703 4441 
L 1819 4666 
L 2450 4666 
L 2450 531 
L 3481 531 
L 3481 0 
L 794 0 
L 794 531 
z
" transform="scale(0.015625)"/>
        <path id="DejaVuSans-2e" d="M 684 794 
L 1344 794 
L 1344 0 
L 684 0 
L 684 794 
z
" transform="scale(0.015625)"/>
       </defs>
       <use xlink:href="#DejaVuSans-2212"/>
       <use xlink:href="#DejaVuSans-31" x="83.789062"/>
       <use xlink:href="#DejaVuSans-2e" x="147.412109"/>
       <use xlink:href="#DejaVuSans-30" x="179.199219"/>
      </g>
     </g>
    </g>
    <g id="xtick_2">
     <g id="line2d_10">
      <g>
       <use xlink:href="#m22c7c9b041" x="157.509773" y="276.68" style="fill: #696969; stroke: #696969; stroke-width: 0.8"/>
      </g>
     </g>
     <g id="text_4">
      <!-- −0.5 -->
      <g style="fill: #696969" transform="translate(138.083523 295.8375) scale(0.16 -0.16)">
       <use xlink:href="#DejaVuSans-2212"/>
       <use xlink:href="#DejaVuSans-30" x="83.789062"/>
       <use xlink:href="#DejaVuSans-2e" x="147.412109"/>
       <use xlink:href="#DejaVuSans-35" x="179.199219"/>
      </g>
     </g>
    </g>
    <g id="xtick_3">
     <g id="line2d_11">
      <g>
       <use xlink:href="#m22c7c9b041" x="244.5575" y="276.68" style="fill: #696969; stroke: #696969; stroke-width: 0.8"/>
      </g>
     </g>
     <g id="text_5">
      <!-- 0.0 -->
      <g style="fill: #696969" transform="translate(231.835 295.8375) scale(0.16 -0.16)">
       <use xlink:href="#DejaVuSans-30"/>
       <use xlink:href="#DejaVuSans-2e" x="63.623047"/>
       <use xlink:href="#DejaVuSans-30" x="95.410156"/>
      </g>
     </g>
    </g>
    <g id="xtick_4">
     <g id="line2d_12">
      <g>
       <use xlink:href="#m22c7c9b041" x="331.605227" y="276.68" style="fill: #696969; stroke: #696969; stroke-width: 0.8"/>
      </g>
     </g>
     <g id="text_6">
      <!-- 0.5 -->
      <g style="fill: #696969" transform="translate(318.882727 295.8375) scale(0.16 -0.16)">
       <use xlink:href="#DejaVuSans-30"/>
       <use xlink:href="#DejaVuSans-2e" x="63.623047"/>
       <use xlink:href="#DejaVuSans-35" x="95.410156"/>
      </g>
     </g>
    </g>
    <g id="xtick_5">
     <g id="line2d_13">
      <g>
       <use xlink:href="#m22c7c9b041" x="418.652955" y="276.68" style="fill: #696969; stroke: #696969; stroke-width: 0.8"/>
      </g>
     </g>
     <g id="text_7">
      <!-- 1.0 -->
      <g style="fill: #696969" transform="translate(405.930455 295.8375) scale(0.16 -0.16)">
       <use xlink:href="#DejaVuSans-31"/>
       <use xlink:href="#DejaVuSans-2e" x="63.623047"/>
       <use xlink:href="#DejaVuSans-30" x="95.410156"/>
      </g>
     </g>
    </g>
    <g id="text_8">
     <!-- $X$ -->
     <g transform="translate(239.0375 315.3225) scale(0.16 -0.16)">
      <defs>
       <path id="DejaVuSans-Oblique-58" d="M 878 4666 
L 1516 4666 
L 2316 2981 
L 3763 4666 
L 4500 4666 
L 2578 2438 
L 3738 0 
L 3103 0 
L 2163 1966 
L 459 0 
L -275 0 
L 1906 2509 
L 878 4666 
z
" transform="scale(0.015625)"/>
      </defs>
      <use xlink:href="#DejaVuSans-Oblique-58" transform="translate(0 0.09375)"/>
     </g>
    </g>
   </g>
   <g id="matplotlib.axis_6">
    <g id="ytick_3">
     <g id="line2d_14">
      <g>
       <use xlink:href="#m9e4f0d5366" x="53.0525" y="253.685486" style="fill: #696969; stroke: #696969; stroke-width: 0.8"/>
      </g>
     </g>
     <g id="text_9">
      <!-- −2.5 -->
      <g style="fill: #696969" transform="translate(7.2 259.764236) scale(0.16 -0.16)">
       <defs>
        <path id="DejaVuSans-32" d="M 1228 531 
L 3431 531 
L 3431 0 
L 469 0 
L 469 531 
Q 828 903 1448 1529 
Q 2069 2156 2228 2338 
Q 2531 2678 2651 2914 
Q 2772 3150 2772 3378 
Q 2772 3750 2511 3984 
Q 2250 4219 1831 4219 
Q 1534 4219 1204 4116 
Q 875 4013 500 3803 
L 500 4441 
Q 881 4594 1212 4672 
Q 1544 4750 1819 4750 
Q 2544 4750 2975 4387 
Q 3406 4025 3406 3419 
Q 3406 3131 3298 2873 
Q 3191 2616 2906 2266 
Q 2828 2175 2409 1742 
Q 1991 1309 1228 531 
z
" transform="scale(0.015625)"/>
       </defs>
       <use xlink:href="#DejaVuSans-2212"/>
       <use xlink:href="#DejaVuSans-32" x="83.789062"/>
       <use xlink:href="#DejaVuSans-2e" x="147.412109"/>
       <use xlink:href="#DejaVuSans-35" x="179.199219"/>
      </g>
     </g>
    </g>
    <g id="ytick_4">
     <g id="line2d_15">
      <g>
       <use xlink:href="#m9e4f0d5366" x="53.0525" y="222.722715" style="fill: #696969; stroke: #696969; stroke-width: 0.8"/>
      </g>
     </g>
     <g id="text_10">
      <!-- 0.0 -->
      <g style="fill: #696969" transform="translate(20.6075 228.801465) scale(0.16 -0.16)">
       <use xlink:href="#DejaVuSans-30"/>
       <use xlink:href="#DejaVuSans-2e" x="63.623047"/>
       <use xlink:href="#DejaVuSans-30" x="95.410156"/>
      </g>
     </g>
    </g>
    <g id="ytick_5">
     <g id="line2d_16">
      <g>
       <use xlink:href="#m9e4f0d5366" x="53.0525" y="191.759944" style="fill: #696969; stroke: #696969; stroke-width: 0.8"/>
      </g>
     </g>
     <g id="text_11">
      <!-- 2.5 -->
      <g style="fill: #696969" transform="translate(20.6075 197.838694) scale(0.16 -0.16)">
       <use xlink:href="#DejaVuSans-32"/>
       <use xlink:href="#DejaVuSans-2e" x="63.623047"/>
       <use xlink:href="#DejaVuSans-35" x="95.410156"/>
      </g>
     </g>
    </g>
   </g>
   <g id="line2d_17">
    <path d="M 70.462045 237.011454 
L 77.425864 231.410676 
L 84.389682 226.518617 
L 91.3535 222.924635 
L 98.317318 220.861655 
L 105.281136 220.171822 
L 112.244955 220.536357 
L 119.208773 221.863484 
L 126.172591 224.114075 
L 133.136409 226.884556 
L 140.100227 230.072316 
L 147.064045 234.066934 
L 154.027864 237.508421 
L 160.991682 239.179131 
L 167.9555 240.508221 
L 174.919318 241.604733 
L 181.883136 241.714687 
L 188.846955 241.250557 
L 195.810773 240.771407 
L 202.774591 240.255359 
L 209.738409 239.15861 
L 216.702227 236.626666 
L 223.666045 232.143443 
L 230.629864 226.613965 
L 237.593682 221.418851 
L 244.5575 217.252938 
L 251.521318 214.526829 
L 258.485136 213.472093 
L 265.448955 214.10665 
L 272.412773 216.239941 
L 279.376591 219.497611 
L 286.340409 223.351726 
L 293.304227 227.168489 
L 300.268045 230.303418 
L 307.231864 232.241993 
L 314.195682 232.741331 
L 321.1595 231.918623 
L 328.123318 230.242933 
L 335.087136 228.409615 
L 342.050955 227.108296 
L 349.014773 226.719574 
L 355.978591 227.020278 
L 362.942409 227.242419 
L 369.906227 227.040467 
L 376.870045 226.816739 
L 383.833864 226.172554 
L 390.797682 224.926381 
L 397.7615 224.345968 
L 404.725318 224.881131 
L 411.689136 225.481424 
L 418.652955 225.034868 
" clip-path="url(#p86f11670e5)" style="fill: none; stroke: #696969; stroke-width: 2; stroke-linecap: square"/>
   </g>
   <g id="line2d_18">
    <path d="M 70.462045 244.553626 
L 77.425864 243.331293 
L 84.389682 242.179333 
L 91.3535 241.095314 
L 98.317318 240.076823 
L 105.281136 239.12147 
L 112.244955 238.22689 
L 119.208773 237.390739 
L 126.172591 236.610697 
L 133.136409 235.884467 
L 140.100227 235.209774 
L 147.064045 234.584366 
L 154.027864 234.006016 
L 160.991682 233.472518 
L 167.9555 232.981688 
L 174.919318 232.531367 
L 181.883136 232.119419 
L 188.846955 231.743728 
L 195.810773 231.402205 
L 202.774591 231.092782 
L 209.738409 230.813412 
L 216.702227 230.562075 
L 223.666045 230.33677 
L 230.629864 230.135522 
L 237.593682 229.956377 
L 244.5575 229.797404 
L 251.521318 229.656696 
L 258.485136 229.532369 
L 265.448955 229.422561 
L 272.412773 229.325433 
L 279.376591 229.239169 
L 286.340409 229.161976 
L 293.304227 229.092085 
L 300.268045 229.027749 
L 307.231864 228.967243 
L 314.195682 228.908866 
L 321.1595 228.85094 
L 328.123318 228.79181 
L 335.087136 228.729844 
L 342.050955 228.663432 
L 349.014773 228.590987 
L 355.978591 228.510946 
L 362.942409 228.421769 
L 369.906227 228.321937 
L 376.870045 228.209956 
L 383.833864 228.084355 
L 390.797682 227.943684 
L 397.7615 227.786517 
L 404.725318 227.611452 
L 411.689136 227.417107 
L 418.652955 227.202127 
" clip-path="url(#p86f11670e5)" style="fill: none; stroke-dasharray: 7.4,3.2; stroke-dashoffset: 0; stroke: #79ad41; stroke-width: 2"/>
   </g>
   <g id="patch_9">
    <path d="M 53.0525 276.68 
L 53.0525 185.682451 
" style="fill: none; stroke: #000000; stroke-width: 0.8; stroke-linejoin: miter; stroke-linecap: square"/>
   </g>
   <g id="patch_10">
    <path d="M 436.0625 276.68 
L 436.0625 185.682451 
" style="fill: none; stroke: #000000; stroke-width: 0.8; stroke-linejoin: miter; stroke-linecap: square"/>
   </g>
   <g id="patch_11">
    <path d="M 53.0525 276.68 
L 436.0625 276.68 
" style="fill: none; stroke: #000000; stroke-width: 0.8; stroke-linejoin: miter; stroke-linecap: square"/>
   </g>
   <g id="patch_12">
    <path d="M 53.0525 185.682451 
L 436.0625 185.682451 
" style="fill: none; stroke: #000000; stroke-width: 0.8; stroke-linejoin: miter; stroke-linecap: square"/>
   </g>
  </g>
 </g>
 <defs>
  <clipPath id="p5d4b4aec68">
   <rect x="53.0525" y="7.2" width="383.01" height="45.498775"/>
  </clipPath>
  <clipPath id="pbe2901b095">
   <rect x="53.0525" y="73.691838" width="383.01" height="90.997549"/>
  </clipPath>
  <clipPath id="p86f11670e5">
   <rect x="53.0525" y="185.682451" width="383.01" height="90.997549"/>
  </clipPath>
 </defs>
</svg>
