<?xml version="1.0" encoding="utf-8" standalone="no"?>
<!DOCTYPE svg PUBLIC "-//W3C//DTD SVG 1.1//EN"
  "http://www.w3.org/Graphics/SVG/1.1/DTD/svg11.dtd">
<svg xmlns:xlink="http://www.w3.org/1999/xlink" width="443.2075pt" height="325.85pt" viewBox="0 0 443.2075 325.85" xmlns="http://www.w3.org/2000/svg" version="1.1">
 <metadata>
  <rdf:RDF xmlns:dc="http://purl.org/dc/elements/1.1/" xmlns:cc="http://creativecommons.org/ns#" xmlns:rdf="http://www.w3.org/1999/02/22-rdf-syntax-ns#">
   <cc:Work>
    <dc:type rdf:resource="http://purl.org/dc/dcmitype/StillImage"/>
    <dc:date>2024-01-28T20:57:01.053573</dc:date>
    <dc:format>image/svg+xml</dc:format>
    <dc:creator>
     <cc:Agent>
      <dc:title>Matplotlib v3.7.2, https://matplotlib.org/</dc:title>
     </cc:Agent>
    </dc:creator>
   </cc:Work>
  </rdf:RDF>
 </metadata>
 <defs>
  <style type="text/css">*{stroke-linejoin: round; stroke-linecap: butt}</style>
 </defs>
 <g id="figure_1">
  <g id="patch_1">
   <path d="M 0 325.85 
L 443.2075 325.85 
L 443.2075 0 
L 0 0 
z
" style="fill: #ffffff"/>
  </g>
  <g id="axes_1">
   <g id="patch_2">
    <path d="M 37.7875 52.698775 
L 436.0075 52.698775 
L 436.0075 7.2 
L 37.7875 7.2 
z
" style="fill: #ffffff"/>
   </g>
   <g id="PolyCollection_1">
    <defs>
     <path id="mb2cddcde64" d="M 55.888409 -275.219352 
L 55.888409 -279.815187 
L 63.128773 -279.815187 
L 70.369136 -279.815187 
L 77.6095 -279.815187 
L 84.849864 -279.815187 
L 92.090227 -279.815187 
L 99.330591 -279.815187 
L 106.570955 -279.815187 
L 113.811318 -279.815187 
L 121.051682 -279.815187 
L 128.292045 -279.815187 
L 135.532409 -279.815187 
L 142.772773 -279.815187 
L 150.013136 -279.815187 
L 157.2535 -279.815187 
L 164.493864 -279.815187 
L 171.734227 -279.815187 
L 178.974591 -279.815187 
L 186.214955 -280.340012 
L 193.455318 -281.328398 
L 200.695682 -282.532267 
L 207.936045 -283.987366 
L 215.176409 -285.726086 
L 222.416773 -287.771123 
L 229.657136 -290.127421 
L 236.8975 -292.773696 
L 244.137864 -295.656388 
L 251.378227 -298.689294 
L 258.618591 -301.761388 
L 265.858955 -304.752241 
L 273.099318 -307.55098 
L 280.339682 -310.072687 
L 287.580045 -312.267345 
L 294.820409 -314.119911 
L 302.060773 -315.643706 
L 309.301136 -316.581874 
L 316.5415 -316.581874 
L 323.781864 -316.581874 
L 331.022227 -316.581874 
L 338.262591 -316.581874 
L 345.502955 -316.581874 
L 352.743318 -316.581874 
L 359.983682 -316.581874 
L 367.224045 -316.581874 
L 374.464409 -316.581874 
L 381.704773 -316.581874 
L 388.945136 -316.581874 
L 396.1855 -316.581874 
L 403.425864 -316.581874 
L 410.666227 -316.581874 
L 417.906591 -316.581874 
L 417.906591 -275.219352 
L 417.906591 -275.219352 
L 410.666227 -275.219352 
L 403.425864 -275.219352 
L 396.1855 -275.219352 
L 388.945136 -275.219352 
L 381.704773 -275.219352 
L 374.464409 -275.219352 
L 367.224045 -275.219352 
L 359.983682 -275.219352 
L 352.743318 -275.219352 
L 345.502955 -275.219352 
L 338.262591 -275.219352 
L 331.022227 -275.219352 
L 323.781864 -275.219352 
L 316.5415 -275.219352 
L 309.301136 -275.219352 
L 302.060773 -275.219352 
L 294.820409 -275.219352 
L 287.580045 -275.219352 
L 280.339682 -275.219352 
L 273.099318 -275.219352 
L 265.858955 -275.219352 
L 258.618591 -275.219352 
L 251.378227 -275.219352 
L 244.137864 -275.219352 
L 236.8975 -275.219352 
L 229.657136 -275.219352 
L 222.416773 -275.219352 
L 215.176409 -275.219352 
L 207.936045 -275.219352 
L 200.695682 -275.219352 
L 193.455318 -275.219352 
L 186.214955 -275.219352 
L 178.974591 -275.219352 
L 171.734227 -275.219352 
L 164.493864 -275.219352 
L 157.2535 -275.219352 
L 150.013136 -275.219352 
L 142.772773 -275.219352 
L 135.532409 -275.219352 
L 128.292045 -275.219352 
L 121.051682 -275.219352 
L 113.811318 -275.219352 
L 106.570955 -275.219352 
L 99.330591 -275.219352 
L 92.090227 -275.219352 
L 84.849864 -275.219352 
L 77.6095 -275.219352 
L 70.369136 -275.219352 
L 63.128773 -275.219352 
L 55.888409 -275.219352 
z
" style="stroke: #dc143c; stroke-opacity: 0.2"/>
    </defs>
    <g clip-path="url(#p70ba186595)">
     <use xlink:href="#mb2cddcde64" x="0" y="325.85" style="fill: #dc143c; fill-opacity: 0.2; stroke: #dc143c; stroke-opacity: 0.2"/>
    </g>
   </g>
   <g id="PolyCollection_2">
    <defs>
     <path id="mad158fc66a" d="M 55.888409 -275.219352 
L 55.888409 -316.581874 
L 63.128773 -316.581874 
L 70.369136 -316.581874 
L 77.6095 -316.581874 
L 84.849864 -316.581874 
L 92.090227 -316.581874 
L 99.330591 -316.581874 
L 106.570955 -316.581874 
L 113.811318 -316.581874 
L 121.051682 -316.581874 
L 128.292045 -316.581874 
L 135.532409 -316.581874 
L 142.772773 -316.581874 
L 150.013136 -316.581874 
L 157.2535 -316.581874 
L 164.493864 -316.581874 
L 171.734227 -316.581874 
L 178.974591 -316.581874 
L 186.214955 -316.05705 
L 193.455318 -315.068663 
L 200.695682 -313.864794 
L 207.936045 -312.409695 
L 215.176409 -310.670975 
L 222.416773 -308.625938 
L 229.657136 -306.26964 
L 236.8975 -303.623365 
L 244.137864 -300.740673 
L 251.378227 -297.707767 
L 258.618591 -294.635674 
L 265.858955 -291.64482 
L 273.099318 -288.846081 
L 280.339682 -286.324375 
L 287.580045 -284.129717 
L 294.820409 -282.27715 
L 302.060773 -280.753355 
L 309.301136 -279.815187 
L 316.5415 -279.815187 
L 323.781864 -279.815187 
L 331.022227 -279.815187 
L 338.262591 -279.815187 
L 345.502955 -279.815187 
L 352.743318 -279.815187 
L 359.983682 -279.815187 
L 367.224045 -279.815187 
L 374.464409 -279.815187 
L 381.704773 -279.815187 
L 388.945136 -279.815187 
L 396.1855 -279.815187 
L 403.425864 -279.815187 
L 410.666227 -279.815187 
L 417.906591 -279.815187 
L 417.906591 -275.219352 
L 417.906591 -275.219352 
L 410.666227 -275.219352 
L 403.425864 -275.219352 
L 396.1855 -275.219352 
L 388.945136 -275.219352 
L 381.704773 -275.219352 
L 374.464409 -275.219352 
L 367.224045 -275.219352 
L 359.983682 -275.219352 
L 352.743318 -275.219352 
L 345.502955 -275.219352 
L 338.262591 -275.219352 
L 331.022227 -275.219352 
L 323.781864 -275.219352 
L 316.5415 -275.219352 
L 309.301136 -275.219352 
L 302.060773 -275.219352 
L 294.820409 -275.219352 
L 287.580045 -275.219352 
L 280.339682 -275.219352 
L 273.099318 -275.219352 
L 265.858955 -275.219352 
L 258.618591 -275.219352 
L 251.378227 -275.219352 
L 244.137864 -275.219352 
L 236.8975 -275.219352 
L 229.657136 -275.219352 
L 222.416773 -275.219352 
L 215.176409 -275.219352 
L 207.936045 -275.219352 
L 200.695682 -275.219352 
L 193.455318 -275.219352 
L 186.214955 -275.219352 
L 178.974591 -275.219352 
L 171.734227 -275.219352 
L 164.493864 -275.219352 
L 157.2535 -275.219352 
L 150.013136 -275.219352 
L 142.772773 -275.219352 
L 135.532409 -275.219352 
L 128.292045 -275.219352 
L 121.051682 -275.219352 
L 113.811318 -275.219352 
L 106.570955 -275.219352 
L 99.330591 -275.219352 
L 92.090227 -275.219352 
L 84.849864 -275.219352 
L 77.6095 -275.219352 
L 70.369136 -275.219352 
L 63.128773 -275.219352 
L 55.888409 -275.219352 
z
" style="stroke: #000080; stroke-opacity: 0.2"/>
    </defs>
    <g clip-path="url(#p70ba186595)">
     <use xlink:href="#mad158fc66a" x="0" y="325.85" style="fill: #000080; fill-opacity: 0.2; stroke: #000080; stroke-opacity: 0.2"/>
    </g>
   </g>
   <g id="matplotlib.axis_1"/>
   <g id="matplotlib.axis_2"/>
   <g id="line2d_1">
    <path d="M 55.888409 46.034813 
L 63.128773 46.034813 
L 70.369136 46.034813 
L 77.6095 46.034813 
L 84.849864 46.034813 
L 92.090227 46.034813 
L 99.330591 46.034813 
L 106.570955 46.034813 
L 113.811318 46.034813 
L 121.051682 46.034813 
L 128.292045 46.034813 
L 135.532409 46.034813 
L 142.772773 46.034813 
L 150.013136 46.034813 
L 157.2535 46.034813 
L 164.493864 46.034813 
L 171.734227 46.034813 
L 178.974591 46.034813 
L 186.214955 45.509988 
L 193.455318 44.521602 
L 200.695682 43.317733 
L 207.936045 41.862634 
L 215.176409 40.123914 
L 222.416773 38.078877 
L 229.657136 35.722579 
L 236.8975 33.076304 
L 244.137864 30.193612 
L 251.378227 27.160706 
L 258.618591 24.088612 
L 265.858955 21.097759 
L 273.099318 18.29902 
L 280.339682 15.777313 
L 287.580045 13.582655 
L 294.820409 11.730089 
L 302.060773 10.206294 
L 309.301136 9.268126 
L 316.5415 9.268126 
L 323.781864 9.268126 
L 331.022227 9.268126 
L 338.262591 9.268126 
L 345.502955 9.268126 
L 352.743318 9.268126 
L 359.983682 9.268126 
L 367.224045 9.268126 
L 374.464409 9.268126 
L 381.704773 9.268126 
L 388.945136 9.268126 
L 396.1855 9.268126 
L 403.425864 9.268126 
L 410.666227 9.268126 
L 417.906591 9.268126 
" clip-path="url(#p70ba186595)" style="fill: none; stroke: #dc143c; stroke-width: 1.5; stroke-linecap: square"/>
   </g>
   <g id="line2d_2">
    <path d="M 55.888409 9.268126 
L 63.128773 9.268126 
L 70.369136 9.268126 
L 77.6095 9.268126 
L 84.849864 9.268126 
L 92.090227 9.268126 
L 99.330591 9.268126 
L 106.570955 9.268126 
L 113.811318 9.268126 
L 121.051682 9.268126 
L 128.292045 9.268126 
L 135.532409 9.268126 
L 142.772773 9.268126 
L 150.013136 9.268126 
L 157.2535 9.268126 
L 164.493864 9.268126 
L 171.734227 9.268126 
L 178.974591 9.268126 
L 186.214955 9.79295 
L 193.455318 10.781337 
L 200.695682 11.985206 
L 207.936045 13.440305 
L 215.176409 15.179025 
L 222.416773 17.224062 
L 229.657136 19.58036 
L 236.8975 22.226635 
L 244.137864 25.109327 
L 251.378227 28.142233 
L 258.618591 31.214326 
L 265.858955 34.20518 
L 273.099318 37.003919 
L 280.339682 39.525625 
L 287.580045 41.720283 
L 294.820409 43.57285 
L 302.060773 45.096645 
L 309.301136 46.034813 
L 316.5415 46.034813 
L 323.781864 46.034813 
L 331.022227 46.034813 
L 338.262591 46.034813 
L 345.502955 46.034813 
L 352.743318 46.034813 
L 359.983682 46.034813 
L 367.224045 46.034813 
L 374.464409 46.034813 
L 381.704773 46.034813 
L 388.945136 46.034813 
L 396.1855 46.034813 
L 403.425864 46.034813 
L 410.666227 46.034813 
L 417.906591 46.034813 
" clip-path="url(#p70ba186595)" style="fill: none; stroke: #000080; stroke-width: 1.5; stroke-linecap: square"/>
   </g>
  </g>
  <g id="axes_2">
   <g id="patch_3">
    <path d="M 37.7875 164.689387 
L 436.0075 164.689387 
L 436.0075 73.691838 
L 37.7875 73.691838 
z
" style="fill: #ffffff"/>
   </g>
   <g id="PathCollection_1">
    <defs>
     <path id="mf6d2d3163b" d="M 0 0.866025 
C 0.229673 0.866025 0.449969 0.774776 0.612372 0.612372 
C 0.774776 0.449969 0.866025 0.229673 0.866025 0 
C 0.866025 -0.229673 0.774776 -0.449969 0.612372 -0.612372 
C 0.449969 -0.774776 0.229673 -0.866025 0 -0.866025 
C -0.229673 -0.866025 -0.449969 -0.774776 -0.612372 -0.612372 
C -0.774776 -0.449969 -0.866025 -0.229673 -0.866025 0 
C -0.866025 0.229673 -0.774776 0.449969 -0.612372 0.612372 
C -0.449969 0.774776 -0.229673 0.866025 0 0.866025 
z
" style="stroke: #daa520"/>
    </defs>
    <g clip-path="url(#p5b9879ad52)">
     <use xlink:href="#mf6d2d3163b" x="85.190329" y="107.282422" style="fill: #daa520; stroke: #daa520"/>
     <use xlink:href="#mf6d2d3163b" x="382.097481" y="127.849694" style="fill: #daa520; stroke: #daa520"/>
     <use xlink:href="#mf6d2d3163b" x="338.741843" y="131.970838" style="fill: #daa520; stroke: #daa520"/>
     <use xlink:href="#mf6d2d3163b" x="252.546065" y="160.131042" style="fill: #daa520; stroke: #daa520"/>
     <use xlink:href="#mf6d2d3163b" x="218.570766" y="133.4668" style="fill: #daa520; stroke: #daa520"/>
     <use xlink:href="#mf6d2d3163b" x="287.403783" y="136.650942" style="fill: #daa520; stroke: #daa520"/>
     <use xlink:href="#mf6d2d3163b" x="397.105114" y="79.882576" style="fill: #daa520; stroke: #daa520"/>
     <use xlink:href="#mf6d2d3163b" x="382.782761" y="116.562993" style="fill: #daa520; stroke: #daa520"/>
     <use xlink:href="#mf6d2d3163b" x="380.822373" y="91.665761" style="fill: #daa520; stroke: #daa520"/>
     <use xlink:href="#mf6d2d3163b" x="396.433051" y="125.693621" style="fill: #daa520; stroke: #daa520"/>
     <use xlink:href="#mf6d2d3163b" x="331.229963" y="137.86875" style="fill: #daa520; stroke: #daa520"/>
     <use xlink:href="#mf6d2d3163b" x="332.286727" y="130.360677" style="fill: #daa520; stroke: #daa520"/>
     <use xlink:href="#mf6d2d3163b" x="158.366835" y="115.773371" style="fill: #daa520; stroke: #daa520"/>
     <use xlink:href="#mf6d2d3163b" x="348.718669" y="137.851127" style="fill: #daa520; stroke: #daa520"/>
     <use xlink:href="#mf6d2d3163b" x="249.732297" y="128.629228" style="fill: #daa520; stroke: #daa520"/>
     <use xlink:href="#mf6d2d3163b" x="309.590428" y="137.366736" style="fill: #daa520; stroke: #daa520"/>
     <use xlink:href="#mf6d2d3163b" x="276.886655" y="119.834445" style="fill: #daa520; stroke: #daa520"/>
     <use xlink:href="#mf6d2d3163b" x="341.740356" y="138.085297" style="fill: #daa520; stroke: #daa520"/>
     <use xlink:href="#mf6d2d3163b" x="281.200632" y="119.967009" style="fill: #daa520; stroke: #daa520"/>
     <use xlink:href="#mf6d2d3163b" x="315.619473" y="135.862894" style="fill: #daa520; stroke: #daa520"/>
     <use xlink:href="#mf6d2d3163b" x="404.301023" y="105.460152" style="fill: #daa520; stroke: #daa520"/>
     <use xlink:href="#mf6d2d3163b" x="289.441243" y="124.450834" style="fill: #daa520; stroke: #daa520"/>
     <use xlink:href="#mf6d2d3163b" x="195.899081" y="113.666054" style="fill: #daa520; stroke: #daa520"/>
     <use xlink:href="#mf6d2d3163b" x="382.181936" y="89.938686" style="fill: #daa520; stroke: #daa520"/>
     <use xlink:href="#mf6d2d3163b" x="330.605147" y="113.081181" style="fill: #daa520; stroke: #daa520"/>
     <use xlink:href="#mf6d2d3163b" x="241.641653" y="150.966414" style="fill: #daa520; stroke: #daa520"/>
     <use xlink:href="#mf6d2d3163b" x="238.203585" y="126.880311" style="fill: #daa520; stroke: #daa520"/>
     <use xlink:href="#mf6d2d3163b" x="402.274019" y="110.854413" style="fill: #daa520; stroke: #daa520"/>
     <use xlink:href="#mf6d2d3163b" x="346.700823" y="129.358572" style="fill: #daa520; stroke: #daa520"/>
     <use xlink:href="#mf6d2d3163b" x="341.508106" y="133.710309" style="fill: #daa520; stroke: #daa520"/>
     <use xlink:href="#mf6d2d3163b" x="385.111327" y="119.023344" style="fill: #daa520; stroke: #daa520"/>
     <use xlink:href="#mf6d2d3163b" x="406.630737" y="77.82809" style="fill: #daa520; stroke: #daa520"/>
     <use xlink:href="#mf6d2d3163b" x="317.271308" y="112.992018" style="fill: #daa520; stroke: #daa520"/>
     <use xlink:href="#mf6d2d3163b" x="326.973542" y="150.157583" style="fill: #daa520; stroke: #daa520"/>
     <use xlink:href="#mf6d2d3163b" x="258.879826" y="118.249212" style="fill: #daa520; stroke: #daa520"/>
     <use xlink:href="#mf6d2d3163b" x="305.665179" y="148.490968" style="fill: #daa520; stroke: #daa520"/>
     <use xlink:href="#mf6d2d3163b" x="298.624499" y="138.247782" style="fill: #daa520; stroke: #daa520"/>
     <use xlink:href="#mf6d2d3163b" x="327.997094" y="130.151741" style="fill: #daa520; stroke: #daa520"/>
     <use xlink:href="#mf6d2d3163b" x="298.848511" y="90.296213" style="fill: #daa520; stroke: #daa520"/>
     <use xlink:href="#mf6d2d3163b" x="379.459648" y="128.579166" style="fill: #daa520; stroke: #daa520"/>
     <use xlink:href="#mf6d2d3163b" x="404.588133" y="78.066299" style="fill: #daa520; stroke: #daa520"/>
     <use xlink:href="#mf6d2d3163b" x="402.447448" y="116.850564" style="fill: #daa520; stroke: #daa520"/>
     <use xlink:href="#mf6d2d3163b" x="401.115553" y="86.419806" style="fill: #daa520; stroke: #daa520"/>
     <use xlink:href="#mf6d2d3163b" x="295.992289" y="136.664302" style="fill: #daa520; stroke: #daa520"/>
     <use xlink:href="#mf6d2d3163b" x="296.813609" y="112.332069" style="fill: #daa520; stroke: #daa520"/>
     <use xlink:href="#mf6d2d3163b" x="337.868712" y="146.18739" style="fill: #daa520; stroke: #daa520"/>
     <use xlink:href="#mf6d2d3163b" x="417.255268" y="84.972544" style="fill: #daa520; stroke: #daa520"/>
     <use xlink:href="#mf6d2d3163b" x="357.214973" y="124.089328" style="fill: #daa520; stroke: #daa520"/>
     <use xlink:href="#mf6d2d3163b" x="381.923971" y="128.163473" style="fill: #daa520; stroke: #daa520"/>
     <use xlink:href="#mf6d2d3163b" x="216.033839" y="126.741193" style="fill: #daa520; stroke: #daa520"/>
     <use xlink:href="#mf6d2d3163b" x="349.131741" y="119.122645" style="fill: #daa520; stroke: #daa520"/>
     <use xlink:href="#mf6d2d3163b" x="337.362354" y="123.034506" style="fill: #daa520; stroke: #daa520"/>
     <use xlink:href="#mf6d2d3163b" x="413.62946" y="104.751169" style="fill: #daa520; stroke: #daa520"/>
     <use xlink:href="#mf6d2d3163b" x="284.083913" y="94.329945" style="fill: #daa520; stroke: #daa520"/>
     <use xlink:href="#mf6d2d3163b" x="378.592526" y="128.439905" style="fill: #daa520; stroke: #daa520"/>
     <use xlink:href="#mf6d2d3163b" x="316.617435" y="115.225193" style="fill: #daa520; stroke: #daa520"/>
     <use xlink:href="#mf6d2d3163b" x="346.340406" y="132.545708" style="fill: #daa520; stroke: #daa520"/>
     <use xlink:href="#mf6d2d3163b" x="295.727544" y="118.046154" style="fill: #daa520; stroke: #daa520"/>
     <use xlink:href="#mf6d2d3163b" x="365.794006" y="115.419056" style="fill: #daa520; stroke: #daa520"/>
     <use xlink:href="#mf6d2d3163b" x="311.481613" y="130.82379" style="fill: #daa520; stroke: #daa520"/>
     <use xlink:href="#mf6d2d3163b" x="359.862555" y="133.182647" style="fill: #daa520; stroke: #daa520"/>
     <use xlink:href="#mf6d2d3163b" x="351.915946" y="147.37047" style="fill: #daa520; stroke: #daa520"/>
     <use xlink:href="#mf6d2d3163b" x="164.72526" y="109.509839" style="fill: #daa520; stroke: #daa520"/>
     <use xlink:href="#mf6d2d3163b" x="395.731565" y="122.403399" style="fill: #daa520; stroke: #daa520"/>
     <use xlink:href="#mf6d2d3163b" x="66.879357" y="78.571966" style="fill: #daa520; stroke: #daa520"/>
     <use xlink:href="#mf6d2d3163b" x="97.494324" y="108.304066" style="fill: #daa520; stroke: #daa520"/>
     <use xlink:href="#mf6d2d3163b" x="254.268244" y="157.278831" style="fill: #daa520; stroke: #daa520"/>
     <use xlink:href="#mf6d2d3163b" x="403.929453" y="78.312406" style="fill: #daa520; stroke: #daa520"/>
     <use xlink:href="#mf6d2d3163b" x="417.225881" y="88.964148" style="fill: #daa520; stroke: #daa520"/>
     <use xlink:href="#mf6d2d3163b" x="348.920628" y="131.135011" style="fill: #daa520; stroke: #daa520"/>
     <use xlink:href="#mf6d2d3163b" x="412.314553" y="84.255908" style="fill: #daa520; stroke: #daa520"/>
     <use xlink:href="#mf6d2d3163b" x="391.893675" y="94.422203" style="fill: #daa520; stroke: #daa520"/>
     <use xlink:href="#mf6d2d3163b" x="231.086059" y="126.546337" style="fill: #daa520; stroke: #daa520"/>
     <use xlink:href="#mf6d2d3163b" x="378.502054" y="123.438854" style="fill: #daa520; stroke: #daa520"/>
     <use xlink:href="#mf6d2d3163b" x="229.814117" y="143.416156" style="fill: #daa520; stroke: #daa520"/>
     <use xlink:href="#mf6d2d3163b" x="303.832986" y="147.285923" style="fill: #daa520; stroke: #daa520"/>
     <use xlink:href="#mf6d2d3163b" x="300.169442" y="91.649262" style="fill: #daa520; stroke: #daa520"/>
     <use xlink:href="#mf6d2d3163b" x="233.274599" y="113.780713" style="fill: #daa520; stroke: #daa520"/>
     <use xlink:href="#mf6d2d3163b" x="390.070518" y="124.320722" style="fill: #daa520; stroke: #daa520"/>
     <use xlink:href="#mf6d2d3163b" x="331.108109" y="129.822521" style="fill: #daa520; stroke: #daa520"/>
     <use xlink:href="#mf6d2d3163b" x="328.012336" y="146.006384" style="fill: #daa520; stroke: #daa520"/>
     <use xlink:href="#mf6d2d3163b" x="378.083884" y="122.924945" style="fill: #daa520; stroke: #daa520"/>
     <use xlink:href="#mf6d2d3163b" x="393.181333" y="108.295816" style="fill: #daa520; stroke: #daa520"/>
     <use xlink:href="#mf6d2d3163b" x="71.870161" y="119.062331" style="fill: #daa520; stroke: #daa520"/>
     <use xlink:href="#mf6d2d3163b" x="314.101969" y="120.864625" style="fill: #daa520; stroke: #daa520"/>
     <use xlink:href="#mf6d2d3163b" x="238.725403" y="145.594904" style="fill: #daa520; stroke: #daa520"/>
     <use xlink:href="#mf6d2d3163b" x="390.365665" y="88.443114" style="fill: #daa520; stroke: #daa520"/>
     <use xlink:href="#mf6d2d3163b" x="416.16222" y="81.24828" style="fill: #daa520; stroke: #daa520"/>
     <use xlink:href="#mf6d2d3163b" x="253.423853" y="160.553135" style="fill: #daa520; stroke: #daa520"/>
     <use xlink:href="#mf6d2d3163b" x="242.592811" y="150.572161" style="fill: #daa520; stroke: #daa520"/>
     <use xlink:href="#mf6d2d3163b" x="399.406346" y="111.207397" style="fill: #daa520; stroke: #daa520"/>
     <use xlink:href="#mf6d2d3163b" x="413.203562" y="97.936703" style="fill: #daa520; stroke: #daa520"/>
     <use xlink:href="#mf6d2d3163b" x="323.153465" y="108.715279" style="fill: #daa520; stroke: #daa520"/>
     <use xlink:href="#mf6d2d3163b" x="408.265945" y="90.283759" style="fill: #daa520; stroke: #daa520"/>
     <use xlink:href="#mf6d2d3163b" x="377.217219" y="114.579849" style="fill: #daa520; stroke: #daa520"/>
     <use xlink:href="#mf6d2d3163b" x="291.812447" y="124.155778" style="fill: #daa520; stroke: #daa520"/>
     <use xlink:href="#mf6d2d3163b" x="386.934091" y="122.129416" style="fill: #daa520; stroke: #daa520"/>
     <use xlink:href="#mf6d2d3163b" x="335.773086" y="150.44284" style="fill: #daa520; stroke: #daa520"/>
     <use xlink:href="#mf6d2d3163b" x="85.286873" y="94.810722" style="fill: #daa520; stroke: #daa520"/>
     <use xlink:href="#mf6d2d3163b" x="412.049137" y="84.324988" style="fill: #daa520; stroke: #daa520"/>
     <use xlink:href="#mf6d2d3163b" x="122.681694" y="86.260612" style="fill: #daa520; stroke: #daa520"/>
    </g>
   </g>
   <g id="matplotlib.axis_3"/>
   <g id="matplotlib.axis_4">
    <g id="ytick_1">
     <g id="line2d_3">
      <defs>
       <path id="m3f3137a185" d="M 0 0 
L -3.5 0 
" style="stroke: #696969; stroke-width: 0.8"/>
      </defs>
      <g>
       <use xlink:href="#m3f3137a185" x="37.7875" y="131.507734" style="fill: #696969; stroke: #696969; stroke-width: 0.8"/>
      </g>
     </g>
     <g id="text_1">
      <!-- 0 -->
      <g style="fill: #696969" transform="translate(20.6075 137.586484) scale(0.16 -0.16)">
       <defs>
        <path id="DejaVuSans-30" d="M 2034 4250 
Q 1547 4250 1301 3770 
Q 1056 3291 1056 2328 
Q 1056 1369 1301 889 
Q 1547 409 2034 409 
Q 2525 409 2770 889 
Q 3016 1369 3016 2328 
Q 3016 3291 2770 3770 
Q 2525 4250 2034 4250 
z
M 2034 4750 
Q 2819 4750 3233 4129 
Q 3647 3509 3647 2328 
Q 3647 1150 3233 529 
Q 2819 -91 2034 -91 
Q 1250 -91 836 529 
Q 422 1150 422 2328 
Q 422 3509 836 4129 
Q 1250 4750 2034 4750 
z
" transform="scale(0.015625)"/>
       </defs>
       <use xlink:href="#DejaVuSans-30"/>
      </g>
     </g>
    </g>
    <g id="ytick_2">
     <g id="line2d_4">
      <g>
       <use xlink:href="#m3f3137a185" x="37.7875" y="75.132478" style="fill: #696969; stroke: #696969; stroke-width: 0.8"/>
      </g>
     </g>
     <g id="text_2">
      <!-- 5 -->
      <g style="fill: #696969" transform="translate(20.6075 81.211228) scale(0.16 -0.16)">
       <defs>
        <path id="DejaVuSans-35" d="M 691 4666 
L 3169 4666 
L 3169 4134 
L 1269 4134 
L 1269 2991 
Q 1406 3038 1543 3061 
Q 1681 3084 1819 3084 
Q 2600 3084 3056 2656 
Q 3513 2228 3513 1497 
Q 3513 744 3044 326 
Q 2575 -91 1722 -91 
Q 1428 -91 1123 -41 
Q 819 9 494 109 
L 494 744 
Q 775 591 1075 516 
Q 1375 441 1709 441 
Q 2250 441 2565 725 
Q 2881 1009 2881 1497 
Q 2881 1984 2565 2268 
Q 2250 2553 1709 2553 
Q 1456 2553 1204 2497 
Q 953 2441 691 2322 
L 691 4666 
z
" transform="scale(0.015625)"/>
       </defs>
       <use xlink:href="#DejaVuSans-35"/>
      </g>
     </g>
    </g>
   </g>
   <g id="line2d_5">
    <path d="M 55.888409 105.52559 
L 63.128773 110.205172 
L 70.369136 114.104101 
L 77.6095 116.574048 
L 84.849864 117.221352 
L 92.090227 115.98894 
L 99.330591 113.204078 
L 106.570955 109.571412 
L 113.811318 106.06975 
L 121.051682 103.730023 
L 128.292045 103.338642 
L 135.532409 105.181114 
L 142.772773 108.952433 
L 150.013136 113.886499 
L 157.2535 119.04091 
L 164.493864 123.596792 
L 171.734227 127.049143 
L 178.974591 129.249983 
L 186.214955 130.350754 
L 193.455318 130.711446 
L 200.695682 130.805717 
L 207.936045 131.109748 
L 215.176409 131.966863 
L 222.416773 133.463283 
L 229.657136 135.381697 
L 236.8975 137.275155 
L 244.137864 138.635976 
L 251.378227 139.077552 
L 258.618591 138.447233 
L 265.858955 136.841973 
L 273.099318 134.55667 
L 280.339682 132.013522 
L 287.580045 129.695444 
L 294.820409 128.07311 
L 302.060773 127.50917 
L 309.301136 128.149116 
L 316.5415 129.839546 
L 323.781864 132.121451 
L 331.022227 134.320651 
L 338.262591 135.714661 
L 345.502955 135.719315 
L 352.743318 134.02756 
L 359.983682 130.654147 
L 367.224045 125.884588 
L 374.464409 120.171738 
L 381.704773 114.03994 
L 388.945136 108.032659 
L 396.1855 102.693822 
L 403.425864 98.542781 
L 410.666227 96.012464 
L 417.906591 95.358292 
" clip-path="url(#p5b9879ad52)" style="fill: none; stroke: #000000; stroke-width: 2; stroke-linecap: square"/>
   </g>
   <g id="line2d_6">
    <path d="M 55.888409 92.020442 
L 63.128773 94.634213 
L 70.369136 97.20365 
L 77.6095 99.700094 
L 84.849864 102.10262 
L 92.090227 104.39676 
L 99.330591 106.573358 
L 106.570955 108.627568 
L 113.811318 110.55796 
L 121.051682 112.365757 
L 128.292045 114.054162 
L 135.532409 115.6278 
L 142.772773 117.09224 
L 150.013136 118.453604 
L 157.2535 119.718248 
L 164.493864 120.892516 
L 171.734227 121.98254 
L 178.974591 122.994107 
L 186.214955 123.932553 
L 193.455318 124.802702 
L 200.695682 125.608824 
L 207.936045 126.354617 
L 215.176409 127.043194 
L 222.416773 127.677076 
L 229.657136 128.258178 
L 236.8975 128.787776 
L 244.137864 129.266461 
L 251.378227 129.694056 
L 258.618591 130.069494 
L 265.858955 130.390655 
L 273.099318 130.654145 
L 280.339682 130.855012 
L 287.580045 130.986392 
L 294.820409 131.039077 
L 302.060773 131.000998 
L 309.301136 130.856607 
L 316.5415 130.586165 
L 323.781864 130.164907 
L 331.022227 129.562106 
L 338.262591 128.739988 
L 345.502955 127.652529 
L 352.743318 126.244101 
L 359.983682 124.447971 
L 367.224045 122.184634 
L 374.464409 119.359982 
L 381.704773 115.863303 
L 388.945136 111.565088 
L 396.1855 106.31465 
L 403.425864 99.937543 
L 410.666227 92.232774 
L 417.906591 82.969796 
" clip-path="url(#p5b9879ad52)" style="fill: none; stroke-dasharray: 7.4,3.2; stroke-dashoffset: 0; stroke: #34b6c6; stroke-width: 2"/>
   </g>
   <g id="line2d_7">
    <path d="M 55.888409 94.757178 
L 63.128773 96.555635 
L 70.369136 98.275507 
L 77.6095 99.84951 
L 84.849864 101.189527 
L 92.090227 102.205238 
L 99.330591 102.902904 
L 106.570955 103.518873 
L 113.811318 104.417241 
L 121.051682 105.855779 
L 128.292045 108.105331 
L 135.532409 111.417432 
L 142.772773 115.197405 
L 150.013136 118.722456 
L 157.2535 122.136448 
L 164.493864 125.16496 
L 171.734227 127.350434 
L 178.974591 128.785575 
L 186.214955 129.730741 
L 193.455318 130.321684 
L 200.695682 130.553569 
L 207.936045 130.31245 
L 215.176409 129.552008 
L 222.416773 128.62775 
L 229.657136 127.945062 
L 236.8975 127.577691 
L 244.137864 127.475076 
L 251.378227 127.569997 
L 258.618591 127.810069 
L 265.858955 128.16554 
L 273.099318 128.617824 
L 280.339682 129.142567 
L 287.580045 129.700429 
L 294.820409 130.242089 
L 302.060773 130.720386 
L 309.301136 131.097575 
L 316.5415 131.344326 
L 323.781864 131.433616 
L 331.022227 131.330761 
L 338.262591 130.975406 
L 345.502955 130.245905 
L 352.743318 128.908054 
L 359.983682 126.65212 
L 367.224045 123.413413 
L 374.464409 119.445696 
L 381.704773 114.735457 
L 388.945136 109.339517 
L 396.1855 103.811154 
L 403.425864 98.387671 
L 410.666227 92.723292 
L 417.906591 86.359655 
" clip-path="url(#p5b9879ad52)" style="fill: none; stroke-dasharray: 7.4,3.2; stroke-dashoffset: 0; stroke: #9370db; stroke-width: 2"/>
   </g>
   <g id="line2d_8">
    <path d="M 55.888409 118.533652 
L 63.128773 118.114445 
L 70.369136 117.559783 
L 77.6095 116.75787 
L 84.849864 115.527096 
L 92.090227 113.66668 
L 99.330591 111.213679 
L 106.570955 108.789192 
L 113.811318 107.336405 
L 121.051682 107.518845 
L 128.292045 110.02951 
L 135.532409 115.508568 
L 142.772773 122.41292 
L 150.013136 128.867953 
L 157.2535 135.23233 
L 164.493864 140.786445 
L 171.734227 144.338896 
L 178.974591 146.117204 
L 186.214955 146.781771 
L 193.455318 146.672667 
L 200.695682 145.768489 
L 207.936045 143.767511 
L 215.176409 140.543227 
L 222.416773 137.005766 
L 229.657136 134.194695 
L 236.8975 132.295625 
L 244.137864 131.174674 
L 251.378227 130.656048 
L 258.618591 130.603412 
L 265.858955 130.940239 
L 273.099318 131.620626 
L 280.339682 132.586155 
L 287.580045 133.74275 
L 294.820409 134.974367 
L 302.060773 136.17525 
L 309.301136 137.269779 
L 316.5415 138.21124 
L 323.781864 138.967644 
L 331.022227 139.497843 
L 338.262591 139.707169 
L 345.502955 139.357942 
L 352.743318 137.93994 
L 359.983682 134.768757 
L 367.224045 129.815347 
L 374.464409 123.898821 
L 381.704773 117.180575 
L 388.945136 110.038813 
L 396.1855 104.171586 
L 403.425864 100.507741 
L 410.666227 98.523914 
L 417.906591 97.46321 
" clip-path="url(#p5b9879ad52)" style="fill: none; stroke-dasharray: 12.8,3.2,2,3.2; stroke-dashoffset: 0; stroke: #ff0000; stroke-width: 2"/>
   </g>
   <g id="patch_4">
    <path d="M 37.7875 164.689387 
L 37.7875 73.691838 
" style="fill: none; stroke: #000000; stroke-width: 0.8; stroke-linejoin: miter; stroke-linecap: square"/>
   </g>
   <g id="patch_5">
    <path d="M 436.0075 164.689387 
L 436.0075 73.691838 
" style="fill: none; stroke: #000000; stroke-width: 0.8; stroke-linejoin: miter; stroke-linecap: square"/>
   </g>
   <g id="patch_6">
    <path d="M 37.7875 164.689387 
L 436.0075 164.689387 
" style="fill: none; stroke: #000000; stroke-width: 0.8; stroke-linejoin: miter; stroke-linecap: square"/>
   </g>
   <g id="patch_7">
    <path d="M 37.7875 73.691838 
L 436.0075 73.691838 
" style="fill: none; stroke: #000000; stroke-width: 0.8; stroke-linejoin: miter; stroke-linecap: square"/>
   </g>
  </g>
  <g id="axes_3">
   <g id="patch_8">
    <path d="M 37.7875 276.68 
L 436.0075 276.68 
L 436.0075 185.682451 
L 37.7875 185.682451 
z
" style="fill: #ffffff"/>
   </g>
   <g id="PathCollection_2">
    <g clip-path="url(#pc8d5f5bf2c)">
     <use xlink:href="#mf6d2d3163b" x="85.190329" y="223.74925" style="fill: #daa520; stroke: #daa520"/>
     <use xlink:href="#mf6d2d3163b" x="382.097481" y="206.636484" style="fill: #daa520; stroke: #daa520"/>
     <use xlink:href="#mf6d2d3163b" x="338.741843" y="223.359303" style="fill: #daa520; stroke: #daa520"/>
     <use xlink:href="#mf6d2d3163b" x="252.546065" y="190.212523" style="fill: #daa520; stroke: #daa520"/>
     <use xlink:href="#mf6d2d3163b" x="218.570766" y="221.2576" style="fill: #daa520; stroke: #daa520"/>
     <use xlink:href="#mf6d2d3163b" x="287.403783" y="213.861955" style="fill: #daa520; stroke: #daa520"/>
     <use xlink:href="#mf6d2d3163b" x="397.105114" y="237.570186" style="fill: #daa520; stroke: #daa520"/>
     <use xlink:href="#mf6d2d3163b" x="382.782761" y="216.075424" style="fill: #daa520; stroke: #daa520"/>
     <use xlink:href="#mf6d2d3163b" x="380.822373" y="239.952015" style="fill: #daa520; stroke: #daa520"/>
     <use xlink:href="#mf6d2d3163b" x="396.433051" y="197.179611" style="fill: #daa520; stroke: #daa520"/>
     <use xlink:href="#mf6d2d3163b" x="331.229963" y="217.936004" style="fill: #daa520; stroke: #daa520"/>
     <use xlink:href="#mf6d2d3163b" x="332.286727" y="224.664529" style="fill: #daa520; stroke: #daa520"/>
     <use xlink:href="#mf6d2d3163b" x="158.366835" y="234.637699" style="fill: #daa520; stroke: #daa520"/>
     <use xlink:href="#mf6d2d3163b" x="348.718669" y="217.4115" style="fill: #daa520; stroke: #daa520"/>
     <use xlink:href="#mf6d2d3163b" x="249.732297" y="218.345067" style="fill: #daa520; stroke: #daa520"/>
     <use xlink:href="#mf6d2d3163b" x="309.590428" y="216.426316" style="fill: #daa520; stroke: #daa520"/>
     <use xlink:href="#mf6d2d3163b" x="276.886655" y="227.38748" style="fill: #daa520; stroke: #daa520"/>
     <use xlink:href="#mf6d2d3163b" x="341.740356" y="217.853509" style="fill: #daa520; stroke: #daa520"/>
     <use xlink:href="#mf6d2d3163b" x="281.200632" y="227.821827" style="fill: #daa520; stroke: #daa520"/>
     <use xlink:href="#mf6d2d3163b" x="315.619473" y="218.468047" style="fill: #daa520; stroke: #daa520"/>
     <use xlink:href="#mf6d2d3163b" x="404.301023" y="211.791315" style="fill: #daa520; stroke: #daa520"/>
     <use xlink:href="#mf6d2d3163b" x="289.441243" y="225.024921" style="fill: #daa520; stroke: #daa520"/>
     <use xlink:href="#mf6d2d3163b" x="195.899081" y="245.666596" style="fill: #daa520; stroke: #daa520"/>
     <use xlink:href="#mf6d2d3163b" x="382.181936" y="240.300039" style="fill: #daa520; stroke: #daa520"/>
     <use xlink:href="#mf6d2d3163b" x="330.605147" y="239.964529" style="fill: #daa520; stroke: #daa520"/>
     <use xlink:href="#mf6d2d3163b" x="241.641653" y="199.138825" style="fill: #daa520; stroke: #daa520"/>
     <use xlink:href="#mf6d2d3163b" x="238.203585" y="221.068985" style="fill: #daa520; stroke: #daa520"/>
     <use xlink:href="#mf6d2d3163b" x="402.274019" y="207.667644" style="fill: #daa520; stroke: #daa520"/>
     <use xlink:href="#mf6d2d3163b" x="346.700823" y="225.248277" style="fill: #daa520; stroke: #daa520"/>
     <use xlink:href="#mf6d2d3163b" x="341.508106" y="221.755539" style="fill: #daa520; stroke: #daa520"/>
     <use xlink:href="#mf6d2d3163b" x="385.111327" y="211.814096" style="fill: #daa520; stroke: #daa520"/>
     <use xlink:href="#mf6d2d3163b" x="406.630737" y="235.738516" style="fill: #daa520; stroke: #daa520"/>
     <use xlink:href="#mf6d2d3163b" x="317.271308" y="238.995289" style="fill: #daa520; stroke: #daa520"/>
     <use xlink:href="#mf6d2d3163b" x="326.973542" y="206.754146" style="fill: #daa520; stroke: #daa520"/>
     <use xlink:href="#mf6d2d3163b" x="258.879826" y="227.47568" style="fill: #daa520; stroke: #daa520"/>
     <use xlink:href="#mf6d2d3163b" x="305.665179" y="206.016055" style="fill: #daa520; stroke: #daa520"/>
     <use xlink:href="#mf6d2d3163b" x="298.624499" y="214.133068" style="fill: #daa520; stroke: #daa520"/>
     <use xlink:href="#mf6d2d3163b" x="327.997094" y="224.624615" style="fill: #daa520; stroke: #daa520"/>
     <use xlink:href="#mf6d2d3163b" x="298.848511" y="256.839437" style="fill: #daa520; stroke: #daa520"/>
     <use xlink:href="#mf6d2d3163b" x="379.459648" y="208.270523" style="fill: #daa520; stroke: #daa520"/>
     <use xlink:href="#mf6d2d3163b" x="404.588133" y="236.083213" style="fill: #daa520; stroke: #daa520"/>
     <use xlink:href="#mf6d2d3163b" x="402.447448" y="202.268873" style="fill: #daa520; stroke: #daa520"/>
     <use xlink:href="#mf6d2d3163b" x="401.115553" y="229.855527" style="fill: #daa520; stroke: #daa520"/>
     <use xlink:href="#mf6d2d3163b" x="295.992289" y="215.14934" style="fill: #daa520; stroke: #daa520"/>
     <use xlink:href="#mf6d2d3163b" x="296.813609" y="236.926577" style="fill: #daa520; stroke: #daa520"/>
     <use xlink:href="#mf6d2d3163b" x="337.868712" y="210.709268" style="fill: #daa520; stroke: #daa520"/>
     <use xlink:href="#mf6d2d3163b" x="417.255268" y="227.655839" style="fill: #daa520; stroke: #daa520"/>
     <use xlink:href="#mf6d2d3163b" x="357.214973" y="227.269987" style="fill: #daa520; stroke: #daa520"/>
     <use xlink:href="#mf6d2d3163b" x="381.923971" y="206.509901" style="fill: #daa520; stroke: #daa520"/>
     <use xlink:href="#mf6d2d3163b" x="216.033839" y="228.376447" style="fill: #daa520; stroke: #daa520"/>
     <use xlink:href="#mf6d2d3163b" x="349.131741" y="234.010081" style="fill: #daa520; stroke: #daa520"/>
     <use xlink:href="#mf6d2d3163b" x="337.362354" y="231.311449" style="fill: #daa520; stroke: #daa520"/>
     <use xlink:href="#mf6d2d3163b" x="413.62946" y="210.478274" style="fill: #daa520; stroke: #daa520"/>
     <use xlink:href="#mf6d2d3163b" x="284.083913" y="251.038909" style="fill: #daa520; stroke: #daa520"/>
     <use xlink:href="#mf6d2d3163b" x="378.592526" y="209.123926" style="fill: #daa520; stroke: #daa520"/>
     <use xlink:href="#mf6d2d3163b" x="316.617435" y="236.940123" style="fill: #daa520; stroke: #daa520"/>
     <use xlink:href="#mf6d2d3163b" x="346.340406" y="222.452933" style="fill: #daa520; stroke: #daa520"/>
     <use xlink:href="#mf6d2d3163b" x="295.727544" y="231.678207" style="fill: #daa520; stroke: #daa520"/>
     <use xlink:href="#mf6d2d3163b" x="365.794006" y="230.248833" style="fill: #daa520; stroke: #daa520"/>
     <use xlink:href="#mf6d2d3163b" x="311.481613" y="222.480805" style="fill: #daa520; stroke: #daa520"/>
     <use xlink:href="#mf6d2d3163b" x="359.862555" y="217.949606" style="fill: #daa520; stroke: #daa520"/>
     <use xlink:href="#mf6d2d3163b" x="351.915946" y="208.296698" style="fill: #daa520; stroke: #daa520"/>
     <use xlink:href="#mf6d2d3163b" x="164.72526" y="244.440788" style="fill: #daa520; stroke: #daa520"/>
     <use xlink:href="#mf6d2d3163b" x="395.731565" y="200.52119" style="fill: #daa520; stroke: #daa520"/>
     <use xlink:href="#mf6d2d3163b" x="66.879357" y="251.430446" style="fill: #daa520; stroke: #daa520"/>
     <use xlink:href="#mf6d2d3163b" x="97.494324" y="219.64863" style="fill: #daa520; stroke: #daa520"/>
     <use xlink:href="#mf6d2d3163b" x="254.268244" y="192.72045" style="fill: #daa520; stroke: #daa520"/>
     <use xlink:href="#mf6d2d3163b" x="403.929453" y="236.066102" style="fill: #daa520; stroke: #daa520"/>
     <use xlink:href="#mf6d2d3163b" x="417.225881" y="224.106567" style="fill: #daa520; stroke: #daa520"/>
     <use xlink:href="#mf6d2d3163b" x="348.920628" y="223.355422" style="fill: #daa520; stroke: #daa520"/>
     <use xlink:href="#mf6d2d3163b" x="412.314553" y="228.905783" style="fill: #daa520; stroke: #daa520"/>
     <use xlink:href="#mf6d2d3163b" x="391.893675" y="228.026184" style="fill: #daa520; stroke: #daa520"/>
     <use xlink:href="#mf6d2d3163b" x="231.086059" y="222.887338" style="fill: #daa520; stroke: #daa520"/>
     <use xlink:href="#mf6d2d3163b" x="378.502054" y="213.649923" style="fill: #daa520; stroke: #daa520"/>
     <use xlink:href="#mf6d2d3163b" x="229.814117" y="208.224889" style="fill: #daa520; stroke: #daa520"/>
     <use xlink:href="#mf6d2d3163b" x="303.832986" y="206.837758" style="fill: #daa520; stroke: #daa520"/>
     <use xlink:href="#mf6d2d3163b" x="300.169442" y="255.828852" style="fill: #daa520; stroke: #daa520"/>
     <use xlink:href="#mf6d2d3163b" x="233.274599" y="233.702773" style="fill: #daa520; stroke: #daa520"/>
     <use xlink:href="#mf6d2d3163b" x="390.070518" y="202.840537" style="fill: #daa520; stroke: #daa520"/>
     <use xlink:href="#mf6d2d3163b" x="331.108109" y="225.090747" style="fill: #daa520; stroke: #daa520"/>
     <use xlink:href="#mf6d2d3163b" x="328.012336" y="210.51613" style="fill: #daa520; stroke: #daa520"/>
     <use xlink:href="#mf6d2d3163b" x="378.083884" y="214.454254" style="fill: #daa520; stroke: #daa520"/>
     <use xlink:href="#mf6d2d3163b" x="393.181333" y="214.743542" style="fill: #daa520; stroke: #daa520"/>
     <use xlink:href="#mf6d2d3163b" x="71.870161" y="215.013668" style="fill: #daa520; stroke: #daa520"/>
     <use xlink:href="#mf6d2d3163b" x="314.101969" y="231.648258" style="fill: #daa520; stroke: #daa520"/>
     <use xlink:href="#mf6d2d3163b" x="238.725403" y="204.33" style="fill: #daa520; stroke: #daa520"/>
     <use xlink:href="#mf6d2d3163b" x="390.365665" y="234.531767" style="fill: #daa520; stroke: #daa520"/>
     <use xlink:href="#mf6d2d3163b" x="416.16222" y="231.084978" style="fill: #daa520; stroke: #daa520"/>
     <use xlink:href="#mf6d2d3163b" x="253.423853" y="189.818703" style="fill: #daa520; stroke: #daa520"/>
     <use xlink:href="#mf6d2d3163b" x="242.592811" y="199.376763" style="fill: #daa520; stroke: #daa520"/>
     <use xlink:href="#mf6d2d3163b" x="399.406346" y="208.532603" style="fill: #daa520; stroke: #daa520"/>
     <use xlink:href="#mf6d2d3163b" x="413.203562" y="216.601335" style="fill: #daa520; stroke: #daa520"/>
     <use xlink:href="#mf6d2d3163b" x="323.153465" y="243.347494" style="fill: #daa520; stroke: #daa520"/>
     <use xlink:href="#mf6d2d3163b" x="408.265945" y="224.275248" style="fill: #daa520; stroke: #daa520"/>
     <use xlink:href="#mf6d2d3163b" x="377.217219" y="222.591018" style="fill: #daa520; stroke: #daa520"/>
     <use xlink:href="#mf6d2d3163b" x="291.812447" y="225.647132" style="fill: #daa520; stroke: #daa520"/>
     <use xlink:href="#mf6d2d3163b" x="386.934091" y="207.440193" style="fill: #daa520; stroke: #daa520"/>
     <use xlink:href="#mf6d2d3163b" x="335.773086" y="206.899762" style="fill: #daa520; stroke: #daa520"/>
     <use xlink:href="#mf6d2d3163b" x="85.286873" y="234.829692" style="fill: #daa520; stroke: #daa520"/>
     <use xlink:href="#mf6d2d3163b" x="412.049137" y="228.884932" style="fill: #daa520; stroke: #daa520"/>
     <use xlink:href="#mf6d2d3163b" x="122.681694" y="235.686967" style="fill: #daa520; stroke: #daa520"/>
    </g>
   </g>
   <g id="matplotlib.axis_5">
    <g id="xtick_1">
     <g id="line2d_9">
      <defs>
       <path id="m0edfc3d4be" d="M 0 0 
L 0 3.5 
" style="stroke: #696969; stroke-width: 0.8"/>
      </defs>
      <g>
       <use xlink:href="#m0edfc3d4be" x="55.888409" y="276.68" style="fill: #696969; stroke: #696969; stroke-width: 0.8"/>
      </g>
     </g>
     <g id="text_3">
      <!-- −1.0 -->
      <g style="fill: #696969" transform="translate(36.462159 295.8375) scale(0.16 -0.16)">
       <defs>
        <path id="DejaVuSans-2212" d="M 678 2272 
L 4684 2272 
L 4684 1741 
L 678 1741 
L 678 2272 
z
" transform="scale(0.015625)"/>
        <path id="DejaVuSans-31" d="M 794 531 
L 1825 531 
L 1825 4091 
L 703 3866 
L 703 4441 
L 1819 4666 
L 2450 4666 
L 2450 531 
L 3481 531 
L 3481 0 
L 794 0 
L 794 531 
z
" transform="scale(0.015625)"/>
        <path id="DejaVuSans-2e" d="M 684 794 
L 1344 794 
L 1344 0 
L 684 0 
L 684 794 
z
" transform="scale(0.015625)"/>
       </defs>
       <use xlink:href="#DejaVuSans-2212"/>
       <use xlink:href="#DejaVuSans-31" x="83.789062"/>
       <use xlink:href="#DejaVuSans-2e" x="147.412109"/>
       <use xlink:href="#DejaVuSans-30" x="179.199219"/>
      </g>
     </g>
    </g>
    <g id="xtick_2">
     <g id="line2d_10">
      <g>
       <use xlink:href="#m0edfc3d4be" x="146.392955" y="276.68" style="fill: #696969; stroke: #696969; stroke-width: 0.8"/>
      </g>
     </g>
     <g id="text_4">
      <!-- −0.5 -->
      <g style="fill: #696969" transform="translate(126.966705 295.8375) scale(0.16 -0.16)">
       <use xlink:href="#DejaVuSans-2212"/>
       <use xlink:href="#DejaVuSans-30" x="83.789062"/>
       <use xlink:href="#DejaVuSans-2e" x="147.412109"/>
       <use xlink:href="#DejaVuSans-35" x="179.199219"/>
      </g>
     </g>
    </g>
    <g id="xtick_3">
     <g id="line2d_11">
      <g>
       <use xlink:href="#m0edfc3d4be" x="236.8975" y="276.68" style="fill: #696969; stroke: #696969; stroke-width: 0.8"/>
      </g>
     </g>
     <g id="text_5">
      <!-- 0.0 -->
      <g style="fill: #696969" transform="translate(224.175 295.8375) scale(0.16 -0.16)">
       <use xlink:href="#DejaVuSans-30"/>
       <use xlink:href="#DejaVuSans-2e" x="63.623047"/>
       <use xlink:href="#DejaVuSans-30" x="95.410156"/>
      </g>
     </g>
    </g>
    <g id="xtick_4">
     <g id="line2d_12">
      <g>
       <use xlink:href="#m0edfc3d4be" x="327.402045" y="276.68" style="fill: #696969; stroke: #696969; stroke-width: 0.8"/>
      </g>
     </g>
     <g id="text_6">
      <!-- 0.5 -->
      <g style="fill: #696969" transform="translate(314.679545 295.8375) scale(0.16 -0.16)">
       <use xlink:href="#DejaVuSans-30"/>
       <use xlink:href="#DejaVuSans-2e" x="63.623047"/>
       <use xlink:href="#DejaVuSans-35" x="95.410156"/>
      </g>
     </g>
    </g>
    <g id="xtick_5">
     <g id="line2d_13">
      <g>
       <use xlink:href="#m0edfc3d4be" x="417.906591" y="276.68" style="fill: #696969; stroke: #696969; stroke-width: 0.8"/>
      </g>
     </g>
     <g id="text_7">
      <!-- 1.0 -->
      <g style="fill: #696969" transform="translate(405.184091 295.8375) scale(0.16 -0.16)">
       <use xlink:href="#DejaVuSans-31"/>
       <use xlink:href="#DejaVuSans-2e" x="63.623047"/>
       <use xlink:href="#DejaVuSans-30" x="95.410156"/>
      </g>
     </g>
    </g>
    <g id="text_8">
     <!-- $X$ -->
     <g transform="translate(231.3775 315.3225) scale(0.16 -0.16)">
      <defs>
       <path id="DejaVuSans-Oblique-58" d="M 878 4666 
L 1516 4666 
L 2316 2981 
L 3763 4666 
L 4500 4666 
L 2578 2438 
L 3738 0 
L 3103 0 
L 2163 1966 
L 459 0 
L -275 0 
L 1906 2509 
L 878 4666 
z
" transform="scale(0.015625)"/>
      </defs>
      <use xlink:href="#DejaVuSans-Oblique-58" transform="translate(0 0.09375)"/>
     </g>
    </g>
   </g>
   <g id="matplotlib.axis_6">
    <g id="ytick_3">
     <g id="line2d_14">
      <g>
       <use xlink:href="#m3f3137a185" x="37.7875" y="266.646057" style="fill: #696969; stroke: #696969; stroke-width: 0.8"/>
      </g>
     </g>
     <g id="text_9">
      <!-- −5 -->
      <g style="fill: #696969" transform="translate(7.2 272.724807) scale(0.16 -0.16)">
       <use xlink:href="#DejaVuSans-2212"/>
       <use xlink:href="#DejaVuSans-35" x="83.789062"/>
      </g>
     </g>
    </g>
    <g id="ytick_4">
     <g id="line2d_15">
      <g>
       <use xlink:href="#m3f3137a185" x="37.7875" y="216.476302" style="fill: #696969; stroke: #696969; stroke-width: 0.8"/>
      </g>
     </g>
     <g id="text_10">
      <!-- 0 -->
      <g style="fill: #696969" transform="translate(20.6075 222.555052) scale(0.16 -0.16)">
       <use xlink:href="#DejaVuSans-30"/>
      </g>
     </g>
    </g>
   </g>
   <g id="line2d_16">
    <path d="M 55.888409 228.052503 
L 63.128773 223.514962 
L 70.369136 219.551599 
L 77.6095 216.639889 
L 84.849864 214.968541 
L 92.090227 214.409664 
L 99.330591 214.704996 
L 106.570955 215.780184 
L 113.811318 217.603529 
L 121.051682 219.848069 
L 128.292045 222.430673 
L 135.532409 225.666963 
L 142.772773 228.455127 
L 150.013136 229.808673 
L 157.2535 230.885453 
L 164.493864 231.773805 
L 171.734227 231.862886 
L 178.974591 231.486866 
L 186.214955 231.098676 
L 193.455318 230.680593 
L 200.695682 229.792048 
L 207.936045 227.740762 
L 215.176409 224.108622 
L 222.416773 219.628847 
L 229.657136 215.41996 
L 236.8975 212.044893 
L 244.137864 209.836301 
L 251.378227 208.981794 
L 258.618591 209.495888 
L 265.858955 211.224201 
L 273.099318 213.863443 
L 280.339682 216.985902 
L 287.580045 220.078101 
L 294.820409 222.617903 
L 302.060773 224.188464 
L 309.301136 224.593009 
L 316.5415 223.926482 
L 323.781864 222.5689 
L 331.022227 221.083615 
L 338.262591 220.029335 
L 345.502955 219.714407 
L 352.743318 219.958026 
L 359.983682 220.137996 
L 367.224045 219.974382 
L 374.464409 219.793126 
L 381.704773 219.271231 
L 388.945136 218.261629 
L 396.1855 217.7914 
L 403.425864 218.224969 
L 410.666227 218.711304 
L 417.906591 218.349522 
" clip-path="url(#pc8d5f5bf2c)" style="fill: none; stroke: #696969; stroke-width: 2; stroke-linecap: square"/>
   </g>
   <g id="line2d_17">
    <path d="M 55.888409 272.543748 
L 63.128773 248.787434 
L 70.369136 234.315365 
L 77.6095 226.679511 
L 84.849864 223.873597 
L 92.090227 224.279574 
L 99.330591 226.618067 
L 106.570955 229.902668 
L 113.811318 233.397926 
L 121.051682 236.580902 
L 128.292045 239.10615 
L 135.532409 240.773987 
L 142.772773 241.501909 
L 150.013136 241.299024 
L 157.2535 240.243357 
L 164.493864 238.461887 
L 171.734227 236.11319 
L 178.974591 233.372537 
L 186.214955 230.419312 
L 193.455318 227.426625 
L 200.695682 224.552954 
L 207.936045 221.935716 
L 215.176409 219.68659 
L 222.416773 217.888487 
L 229.657136 216.594003 
L 236.8975 215.825239 
L 244.137864 215.574831 
L 251.378227 215.808067 
L 258.618591 216.465946 
L 265.858955 217.469039 
L 273.099318 218.722018 
L 280.339682 220.118717 
L 287.580045 221.547583 
L 294.820409 222.897378 
L 302.060773 224.062996 
L 309.301136 224.951266 
L 316.5415 225.48658 
L 323.781864 225.616235 
L 331.022227 225.315332 
L 338.262591 224.591106 
L 345.502955 223.486534 
L 352.743318 222.083107 
L 359.983682 220.502599 
L 367.224045 218.907723 
L 374.464409 217.501511 
L 381.704773 216.525304 
L 388.945136 216.255193 
L 396.1855 216.996784 
L 403.425864 219.078154 
L 410.666227 222.840843 
L 417.906591 228.62876 
" clip-path="url(#pc8d5f5bf2c)" style="fill: none; stroke-dasharray: 7.4,3.2; stroke-dashoffset: 0; stroke: #79ad41; stroke-width: 2"/>
   </g>
   <g id="patch_9">
    <path d="M 37.7875 276.68 
L 37.7875 185.682451 
" style="fill: none; stroke: #000000; stroke-width: 0.8; stroke-linejoin: miter; stroke-linecap: square"/>
   </g>
   <g id="patch_10">
    <path d="M 436.0075 276.68 
L 436.0075 185.682451 
" style="fill: none; stroke: #000000; stroke-width: 0.8; stroke-linejoin: miter; stroke-linecap: square"/>
   </g>
   <g id="patch_11">
    <path d="M 37.7875 276.68 
L 436.0075 276.68 
" style="fill: none; stroke: #000000; stroke-width: 0.8; stroke-linejoin: miter; stroke-linecap: square"/>
   </g>
   <g id="patch_12">
    <path d="M 37.7875 185.682451 
L 436.0075 185.682451 
" style="fill: none; stroke: #000000; stroke-width: 0.8; stroke-linejoin: miter; stroke-linecap: square"/>
   </g>
  </g>
 </g>
 <defs>
  <clipPath id="p70ba186595">
   <rect x="37.7875" y="7.2" width="398.22" height="45.498775"/>
  </clipPath>
  <clipPath id="p5b9879ad52">
   <rect x="37.7875" y="73.691838" width="398.22" height="90.997549"/>
  </clipPath>
  <clipPath id="pc8d5f5bf2c">
   <rect x="37.7875" y="185.682451" width="398.22" height="90.997549"/>
  </clipPath>
 </defs>
</svg>
