<?xml version="1.0" encoding="utf-8" standalone="no"?>
<!DOCTYPE svg PUBLIC "-//W3C//DTD SVG 1.1//EN"
  "http://www.w3.org/Graphics/SVG/1.1/DTD/svg11.dtd">
<svg xmlns:xlink="http://www.w3.org/1999/xlink" width="443.2075pt" height="325.85pt" viewBox="0 0 443.2075 325.85" xmlns="http://www.w3.org/2000/svg" version="1.1">
 <metadata>
  <rdf:RDF xmlns:dc="http://purl.org/dc/elements/1.1/" xmlns:cc="http://creativecommons.org/ns#" xmlns:rdf="http://www.w3.org/1999/02/22-rdf-syntax-ns#">
   <cc:Work>
    <dc:type rdf:resource="http://purl.org/dc/dcmitype/StillImage"/>
    <dc:date>2024-01-28T20:57:01.454684</dc:date>
    <dc:format>image/svg+xml</dc:format>
    <dc:creator>
     <cc:Agent>
      <dc:title>Matplotlib v3.7.2, https://matplotlib.org/</dc:title>
     </cc:Agent>
    </dc:creator>
   </cc:Work>
  </rdf:RDF>
 </metadata>
 <defs>
  <style type="text/css">*{stroke-linejoin: round; stroke-linecap: butt}</style>
 </defs>
 <g id="figure_1">
  <g id="patch_1">
   <path d="M 0 325.85 
L 443.2075 325.85 
L 443.2075 0 
L 0 0 
z
" style="fill: #ffffff"/>
  </g>
  <g id="axes_1">
   <g id="patch_2">
    <path d="M 37.7875 54.696 
L 436.0075 54.696 
L 436.0075 7.2 
L 37.7875 7.2 
z
" style="fill: #ffffff"/>
   </g>
   <g id="PolyCollection_1">
    <defs>
     <path id="mc1c0ac9b04" d="M 55.888409 -273.312909 
L 55.888409 -278.110485 
L 63.128773 -278.110485 
L 70.369136 -278.110485 
L 77.6095 -278.110485 
L 84.849864 -278.110485 
L 92.090227 -278.110485 
L 99.330591 -278.110485 
L 106.570955 -278.110485 
L 113.811318 -278.110485 
L 121.051682 -278.110485 
L 128.292045 -278.110485 
L 135.532409 -278.110485 
L 142.772773 -278.110485 
L 150.013136 -278.110485 
L 157.2535 -278.110485 
L 164.493864 -278.110485 
L 171.734227 -278.110485 
L 178.974591 -278.110485 
L 186.214955 -278.658347 
L 193.455318 -279.69012 
L 200.695682 -280.946834 
L 207.936045 -282.465807 
L 215.176409 -284.28085 
L 222.416773 -286.415657 
L 229.657136 -288.875387 
L 236.8975 -291.637824 
L 244.137864 -294.647055 
L 251.378227 -297.813094 
L 258.618591 -301.020041 
L 265.858955 -304.142182 
L 273.099318 -307.063775 
L 280.339682 -309.696175 
L 287.580045 -311.98717 
L 294.820409 -313.921057 
L 302.060773 -315.511741 
L 309.301136 -316.491091 
L 316.5415 -316.491091 
L 323.781864 -316.491091 
L 331.022227 -316.491091 
L 338.262591 -316.491091 
L 345.502955 -316.491091 
L 352.743318 -316.491091 
L 359.983682 -316.491091 
L 367.224045 -316.491091 
L 374.464409 -316.491091 
L 381.704773 -316.491091 
L 388.945136 -316.491091 
L 396.1855 -316.491091 
L 403.425864 -316.491091 
L 410.666227 -316.491091 
L 417.906591 -316.491091 
L 417.906591 -273.312909 
L 417.906591 -273.312909 
L 410.666227 -273.312909 
L 403.425864 -273.312909 
L 396.1855 -273.312909 
L 388.945136 -273.312909 
L 381.704773 -273.312909 
L 374.464409 -273.312909 
L 367.224045 -273.312909 
L 359.983682 -273.312909 
L 352.743318 -273.312909 
L 345.502955 -273.312909 
L 338.262591 -273.312909 
L 331.022227 -273.312909 
L 323.781864 -273.312909 
L 316.5415 -273.312909 
L 309.301136 -273.312909 
L 302.060773 -273.312909 
L 294.820409 -273.312909 
L 287.580045 -273.312909 
L 280.339682 -273.312909 
L 273.099318 -273.312909 
L 265.858955 -273.312909 
L 258.618591 -273.312909 
L 251.378227 -273.312909 
L 244.137864 -273.312909 
L 236.8975 -273.312909 
L 229.657136 -273.312909 
L 222.416773 -273.312909 
L 215.176409 -273.312909 
L 207.936045 -273.312909 
L 200.695682 -273.312909 
L 193.455318 -273.312909 
L 186.214955 -273.312909 
L 178.974591 -273.312909 
L 171.734227 -273.312909 
L 164.493864 -273.312909 
L 157.2535 -273.312909 
L 150.013136 -273.312909 
L 142.772773 -273.312909 
L 135.532409 -273.312909 
L 128.292045 -273.312909 
L 121.051682 -273.312909 
L 113.811318 -273.312909 
L 106.570955 -273.312909 
L 99.330591 -273.312909 
L 92.090227 -273.312909 
L 84.849864 -273.312909 
L 77.6095 -273.312909 
L 70.369136 -273.312909 
L 63.128773 -273.312909 
L 55.888409 -273.312909 
z
" style="stroke: #dc143c; stroke-opacity: 0.2"/>
    </defs>
    <g clip-path="url(#pf63c0e02b5)">
     <use xlink:href="#mc1c0ac9b04" x="0" y="325.85" style="fill: #dc143c; fill-opacity: 0.2; stroke: #dc143c; stroke-opacity: 0.2"/>
    </g>
   </g>
   <g id="PolyCollection_2">
    <defs>
     <path id="me63a14b0aa" d="M 55.888409 -273.312909 
L 55.888409 -316.491091 
L 63.128773 -316.491091 
L 70.369136 -316.491091 
L 77.6095 -316.491091 
L 84.849864 -316.491091 
L 92.090227 -316.491091 
L 99.330591 -316.491091 
L 106.570955 -316.491091 
L 113.811318 -316.491091 
L 121.051682 -316.491091 
L 128.292045 -316.491091 
L 135.532409 -316.491091 
L 142.772773 -316.491091 
L 150.013136 -316.491091 
L 157.2535 -316.491091 
L 164.493864 -316.491091 
L 171.734227 -316.491091 
L 178.974591 -316.491091 
L 186.214955 -315.943229 
L 193.455318 -314.911456 
L 200.695682 -313.654742 
L 207.936045 -312.135769 
L 215.176409 -310.320726 
L 222.416773 -308.185919 
L 229.657136 -305.726188 
L 236.8975 -302.963752 
L 244.137864 -299.954521 
L 251.378227 -296.788482 
L 258.618591 -293.581535 
L 265.858955 -290.459394 
L 273.099318 -287.537801 
L 280.339682 -284.905401 
L 287.580045 -282.614406 
L 294.820409 -280.680519 
L 302.060773 -279.089834 
L 309.301136 -278.110485 
L 316.5415 -278.110485 
L 323.781864 -278.110485 
L 331.022227 -278.110485 
L 338.262591 -278.110485 
L 345.502955 -278.110485 
L 352.743318 -278.110485 
L 359.983682 -278.110485 
L 367.224045 -278.110485 
L 374.464409 -278.110485 
L 381.704773 -278.110485 
L 388.945136 -278.110485 
L 396.1855 -278.110485 
L 403.425864 -278.110485 
L 410.666227 -278.110485 
L 417.906591 -278.110485 
L 417.906591 -273.312909 
L 417.906591 -273.312909 
L 410.666227 -273.312909 
L 403.425864 -273.312909 
L 396.1855 -273.312909 
L 388.945136 -273.312909 
L 381.704773 -273.312909 
L 374.464409 -273.312909 
L 367.224045 -273.312909 
L 359.983682 -273.312909 
L 352.743318 -273.312909 
L 345.502955 -273.312909 
L 338.262591 -273.312909 
L 331.022227 -273.312909 
L 323.781864 -273.312909 
L 316.5415 -273.312909 
L 309.301136 -273.312909 
L 302.060773 -273.312909 
L 294.820409 -273.312909 
L 287.580045 -273.312909 
L 280.339682 -273.312909 
L 273.099318 -273.312909 
L 265.858955 -273.312909 
L 258.618591 -273.312909 
L 251.378227 -273.312909 
L 244.137864 -273.312909 
L 236.8975 -273.312909 
L 229.657136 -273.312909 
L 222.416773 -273.312909 
L 215.176409 -273.312909 
L 207.936045 -273.312909 
L 200.695682 -273.312909 
L 193.455318 -273.312909 
L 186.214955 -273.312909 
L 178.974591 -273.312909 
L 171.734227 -273.312909 
L 164.493864 -273.312909 
L 157.2535 -273.312909 
L 150.013136 -273.312909 
L 142.772773 -273.312909 
L 135.532409 -273.312909 
L 128.292045 -273.312909 
L 121.051682 -273.312909 
L 113.811318 -273.312909 
L 106.570955 -273.312909 
L 99.330591 -273.312909 
L 92.090227 -273.312909 
L 84.849864 -273.312909 
L 77.6095 -273.312909 
L 70.369136 -273.312909 
L 63.128773 -273.312909 
L 55.888409 -273.312909 
z
" style="stroke: #000080; stroke-opacity: 0.2"/>
    </defs>
    <g clip-path="url(#pf63c0e02b5)">
     <use xlink:href="#me63a14b0aa" x="0" y="325.85" style="fill: #000080; fill-opacity: 0.2; stroke: #000080; stroke-opacity: 0.2"/>
    </g>
   </g>
   <g id="matplotlib.axis_1"/>
   <g id="matplotlib.axis_2"/>
   <g id="line2d_1">
    <path d="M 55.888409 47.739515 
L 63.128773 47.739515 
L 70.369136 47.739515 
L 77.6095 47.739515 
L 84.849864 47.739515 
L 92.090227 47.739515 
L 99.330591 47.739515 
L 106.570955 47.739515 
L 113.811318 47.739515 
L 121.051682 47.739515 
L 128.292045 47.739515 
L 135.532409 47.739515 
L 142.772773 47.739515 
L 150.013136 47.739515 
L 157.2535 47.739515 
L 164.493864 47.739515 
L 171.734227 47.739515 
L 178.974591 47.739515 
L 186.214955 47.191653 
L 193.455318 46.15988 
L 200.695682 44.903166 
L 207.936045 43.384193 
L 215.176409 41.56915 
L 222.416773 39.434343 
L 229.657136 36.974613 
L 236.8975 34.212176 
L 244.137864 31.202945 
L 251.378227 28.036906 
L 258.618591 24.829959 
L 265.858955 21.707818 
L 273.099318 18.786225 
L 280.339682 16.153825 
L 287.580045 13.86283 
L 294.820409 11.928943 
L 302.060773 10.338259 
L 309.301136 9.358909 
L 316.5415 9.358909 
L 323.781864 9.358909 
L 331.022227 9.358909 
L 338.262591 9.358909 
L 345.502955 9.358909 
L 352.743318 9.358909 
L 359.983682 9.358909 
L 367.224045 9.358909 
L 374.464409 9.358909 
L 381.704773 9.358909 
L 388.945136 9.358909 
L 396.1855 9.358909 
L 403.425864 9.358909 
L 410.666227 9.358909 
L 417.906591 9.358909 
" clip-path="url(#pf63c0e02b5)" style="fill: none; stroke: #dc143c; stroke-width: 1.5; stroke-linecap: square"/>
   </g>
   <g id="line2d_2">
    <path d="M 55.888409 9.358909 
L 63.128773 9.358909 
L 70.369136 9.358909 
L 77.6095 9.358909 
L 84.849864 9.358909 
L 92.090227 9.358909 
L 99.330591 9.358909 
L 106.570955 9.358909 
L 113.811318 9.358909 
L 121.051682 9.358909 
L 128.292045 9.358909 
L 135.532409 9.358909 
L 142.772773 9.358909 
L 150.013136 9.358909 
L 157.2535 9.358909 
L 164.493864 9.358909 
L 171.734227 9.358909 
L 178.974591 9.358909 
L 186.214955 9.906771 
L 193.455318 10.938544 
L 200.695682 12.195258 
L 207.936045 13.714231 
L 215.176409 15.529274 
L 222.416773 17.664081 
L 229.657136 20.123812 
L 236.8975 22.886248 
L 244.137864 25.895479 
L 251.378227 29.061518 
L 258.618591 32.268465 
L 265.858955 35.390606 
L 273.099318 38.312199 
L 280.339682 40.944599 
L 287.580045 43.235594 
L 294.820409 45.169481 
L 302.060773 46.760166 
L 309.301136 47.739515 
L 316.5415 47.739515 
L 323.781864 47.739515 
L 331.022227 47.739515 
L 338.262591 47.739515 
L 345.502955 47.739515 
L 352.743318 47.739515 
L 359.983682 47.739515 
L 367.224045 47.739515 
L 374.464409 47.739515 
L 381.704773 47.739515 
L 388.945136 47.739515 
L 396.1855 47.739515 
L 403.425864 47.739515 
L 410.666227 47.739515 
L 417.906591 47.739515 
" clip-path="url(#pf63c0e02b5)" style="fill: none; stroke: #000080; stroke-width: 1.5; stroke-linecap: square"/>
   </g>
  </g>
  <g id="axes_2">
   <g id="patch_3">
    <path d="M 37.7875 165.688 
L 436.0075 165.688 
L 436.0075 70.696 
L 37.7875 70.696 
z
" style="fill: #ffffff"/>
   </g>
   <g id="PathCollection_1">
    <defs>
     <path id="m75e481e646" d="M 0 0.866025 
C 0.229673 0.866025 0.449969 0.774776 0.612372 0.612372 
C 0.774776 0.449969 0.866025 0.229673 0.866025 0 
C 0.866025 -0.229673 0.774776 -0.449969 0.612372 -0.612372 
C 0.449969 -0.774776 0.229673 -0.866025 0 -0.866025 
C -0.229673 -0.866025 -0.449969 -0.774776 -0.612372 -0.612372 
C -0.774776 -0.449969 -0.866025 -0.229673 -0.866025 0 
C -0.866025 0.229673 -0.774776 0.449969 -0.612372 0.612372 
C -0.449969 0.774776 -0.229673 0.866025 0 0.866025 
z
" style="stroke: #daa520"/>
    </defs>
    <g clip-path="url(#p3fb6960237)">
     <use xlink:href="#m75e481e646" x="85.190329" y="121.182424" style="fill: #daa520; stroke: #daa520"/>
     <use xlink:href="#m75e481e646" x="382.097481" y="136.698502" style="fill: #daa520; stroke: #daa520"/>
     <use xlink:href="#m75e481e646" x="338.741843" y="139.807519" style="fill: #daa520; stroke: #daa520"/>
     <use xlink:href="#m75e481e646" x="252.546065" y="161.051752" style="fill: #daa520; stroke: #daa520"/>
     <use xlink:href="#m75e481e646" x="218.570766" y="140.936082" style="fill: #daa520; stroke: #daa520"/>
     <use xlink:href="#m75e481e646" x="287.403783" y="143.338218" style="fill: #daa520; stroke: #daa520"/>
     <use xlink:href="#m75e481e646" x="397.105114" y="100.511809" style="fill: #daa520; stroke: #daa520"/>
     <use xlink:href="#m75e481e646" x="382.782761" y="128.183744" style="fill: #daa520; stroke: #daa520"/>
     <use xlink:href="#m75e481e646" x="380.822373" y="109.401117" style="fill: #daa520; stroke: #daa520"/>
     <use xlink:href="#m75e481e646" x="396.433051" y="135.071947" style="fill: #daa520; stroke: #daa520"/>
     <use xlink:href="#m75e481e646" x="331.229963" y="144.25694" style="fill: #daa520; stroke: #daa520"/>
     <use xlink:href="#m75e481e646" x="332.286727" y="138.592803" style="fill: #daa520; stroke: #daa520"/>
     <use xlink:href="#m75e481e646" x="158.366835" y="127.588048" style="fill: #daa520; stroke: #daa520"/>
     <use xlink:href="#m75e481e646" x="348.718669" y="144.243645" style="fill: #daa520; stroke: #daa520"/>
     <use xlink:href="#m75e481e646" x="249.732297" y="137.286588" style="fill: #daa520; stroke: #daa520"/>
     <use xlink:href="#m75e481e646" x="309.590428" y="143.878218" style="fill: #daa520; stroke: #daa520"/>
     <use xlink:href="#m75e481e646" x="276.886655" y="130.651748" style="fill: #daa520; stroke: #daa520"/>
     <use xlink:href="#m75e481e646" x="341.740356" y="144.420304" style="fill: #daa520; stroke: #daa520"/>
     <use xlink:href="#m75e481e646" x="281.200632" y="130.751755" style="fill: #daa520; stroke: #daa520"/>
     <use xlink:href="#m75e481e646" x="315.619473" y="142.74371" style="fill: #daa520; stroke: #daa520"/>
     <use xlink:href="#m75e481e646" x="404.301023" y="119.807692" style="fill: #daa520; stroke: #daa520"/>
     <use xlink:href="#m75e481e646" x="289.441243" y="134.134381" style="fill: #daa520; stroke: #daa520"/>
     <use xlink:href="#m75e481e646" x="195.899081" y="125.998275" style="fill: #daa520; stroke: #daa520"/>
     <use xlink:href="#m75e481e646" x="382.181936" y="108.098201" style="fill: #daa520; stroke: #daa520"/>
     <use xlink:href="#m75e481e646" x="330.605147" y="125.557044" style="fill: #daa520; stroke: #daa520"/>
     <use xlink:href="#m75e481e646" x="241.641653" y="154.137899" style="fill: #daa520; stroke: #daa520"/>
     <use xlink:href="#m75e481e646" x="238.203585" y="135.967194" style="fill: #daa520; stroke: #daa520"/>
     <use xlink:href="#m75e481e646" x="402.274019" y="123.877156" style="fill: #daa520; stroke: #daa520"/>
     <use xlink:href="#m75e481e646" x="346.700823" y="137.836809" style="fill: #daa520; stroke: #daa520"/>
     <use xlink:href="#m75e481e646" x="341.508106" y="141.119786" style="fill: #daa520; stroke: #daa520"/>
     <use xlink:href="#m75e481e646" x="385.111327" y="130.039848" style="fill: #daa520; stroke: #daa520"/>
     <use xlink:href="#m75e481e646" x="406.630737" y="98.961892" style="fill: #daa520; stroke: #daa520"/>
     <use xlink:href="#m75e481e646" x="317.271308" y="125.489778" style="fill: #daa520; stroke: #daa520"/>
     <use xlink:href="#m75e481e646" x="326.973542" y="153.527712" style="fill: #daa520; stroke: #daa520"/>
     <use xlink:href="#m75e481e646" x="258.879826" y="129.455839" style="fill: #daa520; stroke: #daa520"/>
     <use xlink:href="#m75e481e646" x="305.665179" y="152.270408" style="fill: #daa520; stroke: #daa520"/>
     <use xlink:href="#m75e481e646" x="298.624499" y="144.542884" style="fill: #daa520; stroke: #daa520"/>
     <use xlink:href="#m75e481e646" x="327.997094" y="138.435181" style="fill: #daa520; stroke: #daa520"/>
     <use xlink:href="#m75e481e646" x="298.848511" y="108.367921" style="fill: #daa520; stroke: #daa520"/>
     <use xlink:href="#m75e481e646" x="379.459648" y="137.24882" style="fill: #daa520; stroke: #daa520"/>
     <use xlink:href="#m75e481e646" x="404.588133" y="99.141598" style="fill: #daa520; stroke: #daa520"/>
     <use xlink:href="#m75e481e646" x="402.447448" y="128.40069" style="fill: #daa520; stroke: #daa520"/>
     <use xlink:href="#m75e481e646" x="401.115553" y="105.443536" style="fill: #daa520; stroke: #daa520"/>
     <use xlink:href="#m75e481e646" x="295.992289" y="143.348297" style="fill: #daa520; stroke: #daa520"/>
     <use xlink:href="#m75e481e646" x="296.813609" y="124.991909" style="fill: #daa520; stroke: #daa520"/>
     <use xlink:href="#m75e481e646" x="337.868712" y="150.532574" style="fill: #daa520; stroke: #daa520"/>
     <use xlink:href="#m75e481e646" x="417.255268" y="104.351713" style="fill: #daa520; stroke: #daa520"/>
     <use xlink:href="#m75e481e646" x="357.214973" y="133.861658" style="fill: #daa520; stroke: #daa520"/>
     <use xlink:href="#m75e481e646" x="381.923971" y="136.935219" style="fill: #daa520; stroke: #daa520"/>
     <use xlink:href="#m75e481e646" x="216.033839" y="135.862242" style="fill: #daa520; stroke: #daa520"/>
     <use xlink:href="#m75e481e646" x="349.131741" y="130.114762" style="fill: #daa520; stroke: #daa520"/>
     <use xlink:href="#m75e481e646" x="337.362354" y="133.065894" style="fill: #daa520; stroke: #daa520"/>
     <use xlink:href="#m75e481e646" x="413.62946" y="119.27283" style="fill: #daa520; stroke: #daa520"/>
     <use xlink:href="#m75e481e646" x="284.083913" y="111.410994" style="fill: #daa520; stroke: #daa520"/>
     <use xlink:href="#m75e481e646" x="378.592526" y="137.143761" style="fill: #daa520; stroke: #daa520"/>
     <use xlink:href="#m75e481e646" x="316.617435" y="127.1745" style="fill: #daa520; stroke: #daa520"/>
     <use xlink:href="#m75e481e646" x="346.340406" y="140.241204" style="fill: #daa520; stroke: #daa520"/>
     <use xlink:href="#m75e481e646" x="295.727544" y="129.30265" style="fill: #daa520; stroke: #daa520"/>
     <use xlink:href="#m75e481e646" x="365.794006" y="127.320751" style="fill: #daa520; stroke: #daa520"/>
     <use xlink:href="#m75e481e646" x="311.481613" y="138.942179" style="fill: #daa520; stroke: #daa520"/>
     <use xlink:href="#m75e481e646" x="359.862555" y="140.721714" style="fill: #daa520; stroke: #daa520"/>
     <use xlink:href="#m75e481e646" x="351.915946" y="151.425097" style="fill: #daa520; stroke: #daa520"/>
     <use xlink:href="#m75e481e646" x="164.72526" y="122.8628" style="fill: #daa520; stroke: #daa520"/>
     <use xlink:href="#m75e481e646" x="395.731565" y="132.589783" style="fill: #daa520; stroke: #daa520"/>
     <use xlink:href="#m75e481e646" x="66.879357" y="99.523076" style="fill: #daa520; stroke: #daa520"/>
     <use xlink:href="#m75e481e646" x="97.494324" y="121.953158" style="fill: #daa520; stroke: #daa520"/>
     <use xlink:href="#m75e481e646" x="254.268244" y="158.900026" style="fill: #daa520; stroke: #daa520"/>
     <use xlink:href="#m75e481e646" x="403.929453" y="99.327263" style="fill: #daa520; stroke: #daa520"/>
     <use xlink:href="#m75e481e646" x="417.225881" y="107.363003" style="fill: #daa520; stroke: #daa520"/>
     <use xlink:href="#m75e481e646" x="348.920628" y="139.176965" style="fill: #daa520; stroke: #daa520"/>
     <use xlink:href="#m75e481e646" x="412.314553" y="103.811078" style="fill: #daa520; stroke: #daa520"/>
     <use xlink:href="#m75e481e646" x="391.893675" y="111.480594" style="fill: #daa520; stroke: #daa520"/>
     <use xlink:href="#m75e481e646" x="231.086059" y="135.715241" style="fill: #daa520; stroke: #daa520"/>
     <use xlink:href="#m75e481e646" x="378.502054" y="133.370937" style="fill: #daa520; stroke: #daa520"/>
     <use xlink:href="#m75e481e646" x="229.814117" y="148.441938" style="fill: #daa520; stroke: #daa520"/>
     <use xlink:href="#m75e481e646" x="303.832986" y="151.361315" style="fill: #daa520; stroke: #daa520"/>
     <use xlink:href="#m75e481e646" x="300.169442" y="109.38867" style="fill: #daa520; stroke: #daa520"/>
     <use xlink:href="#m75e481e646" x="233.274599" y="126.084775" style="fill: #daa520; stroke: #daa520"/>
     <use xlink:href="#m75e481e646" x="390.070518" y="134.036224" style="fill: #daa520; stroke: #daa520"/>
     <use xlink:href="#m75e481e646" x="331.108109" y="138.186815" style="fill: #daa520; stroke: #daa520"/>
     <use xlink:href="#m75e481e646" x="328.012336" y="150.396022" style="fill: #daa520; stroke: #daa520"/>
     <use xlink:href="#m75e481e646" x="378.083884" y="132.983241" style="fill: #daa520; stroke: #daa520"/>
     <use xlink:href="#m75e481e646" x="393.181333" y="121.946935" style="fill: #daa520; stroke: #daa520"/>
     <use xlink:href="#m75e481e646" x="71.870161" y="130.06926" style="fill: #daa520; stroke: #daa520"/>
     <use xlink:href="#m75e481e646" x="314.101969" y="131.428922" style="fill: #daa520; stroke: #daa520"/>
     <use xlink:href="#m75e481e646" x="238.725403" y="150.085599" style="fill: #daa520; stroke: #daa520"/>
     <use xlink:href="#m75e481e646" x="390.365665" y="106.969932" style="fill: #daa520; stroke: #daa520"/>
     <use xlink:href="#m75e481e646" x="416.16222" y="101.542104" style="fill: #daa520; stroke: #daa520"/>
     <use xlink:href="#m75e481e646" x="253.423853" y="161.370182" style="fill: #daa520; stroke: #daa520"/>
     <use xlink:href="#m75e481e646" x="242.592811" y="153.840473" style="fill: #daa520; stroke: #daa520"/>
     <use xlink:href="#m75e481e646" x="399.406346" y="124.143449" style="fill: #daa520; stroke: #daa520"/>
     <use xlink:href="#m75e481e646" x="413.203562" y="114.131954" style="fill: #daa520; stroke: #daa520"/>
     <use xlink:href="#m75e481e646" x="323.153465" y="122.26338" style="fill: #daa520; stroke: #daa520"/>
     <use xlink:href="#m75e481e646" x="408.265945" y="108.358526" style="fill: #daa520; stroke: #daa520"/>
     <use xlink:href="#m75e481e646" x="377.217219" y="126.687648" style="fill: #daa520; stroke: #daa520"/>
     <use xlink:href="#m75e481e646" x="291.812447" y="133.911789" style="fill: #daa520; stroke: #daa520"/>
     <use xlink:href="#m75e481e646" x="386.934091" y="132.383089" style="fill: #daa520; stroke: #daa520"/>
     <use xlink:href="#m75e481e646" x="335.773086" y="153.742912" style="fill: #daa520; stroke: #daa520"/>
     <use xlink:href="#m75e481e646" x="85.286873" y="111.773695" style="fill: #daa520; stroke: #daa520"/>
     <use xlink:href="#m75e481e646" x="412.049137" y="103.863192" style="fill: #daa520; stroke: #daa520"/>
     <use xlink:href="#m75e481e646" x="122.681694" y="105.323439" style="fill: #daa520; stroke: #daa520"/>
    </g>
   </g>
   <g id="matplotlib.axis_3"/>
   <g id="matplotlib.axis_4">
    <g id="ytick_1">
     <g id="line2d_3">
      <defs>
       <path id="m9263b6ef00" d="M 0 0 
L -3.5 0 
" style="stroke: #696969; stroke-width: 0.8"/>
      </defs>
      <g>
       <use xlink:href="#m9263b6ef00" x="37.7875" y="139.45815" style="fill: #696969; stroke: #696969; stroke-width: 0.8"/>
      </g>
     </g>
     <g id="text_1">
      <!-- 0 -->
      <g style="fill: #696969" transform="translate(20.6075 145.5369) scale(0.16 -0.16)">
       <defs>
        <path id="DejaVuSans-30" d="M 2034 4250 
Q 1547 4250 1301 3770 
Q 1056 3291 1056 2328 
Q 1056 1369 1301 889 
Q 1547 409 2034 409 
Q 2525 409 2770 889 
Q 3016 1369 3016 2328 
Q 3016 3291 2770 3770 
Q 2525 4250 2034 4250 
z
M 2034 4750 
Q 2819 4750 3233 4129 
Q 3647 3509 3647 2328 
Q 3647 1150 3233 529 
Q 2819 -91 2034 -91 
Q 1250 -91 836 529 
Q 422 1150 422 2328 
Q 422 3509 836 4129 
Q 1250 4750 2034 4750 
z
" transform="scale(0.015625)"/>
       </defs>
       <use xlink:href="#DejaVuSans-30"/>
      </g>
     </g>
    </g>
    <g id="ytick_2">
     <g id="line2d_4">
      <g>
       <use xlink:href="#m9263b6ef00" x="37.7875" y="96.928305" style="fill: #696969; stroke: #696969; stroke-width: 0.8"/>
      </g>
     </g>
     <g id="text_2">
      <!-- 5 -->
      <g style="fill: #696969" transform="translate(20.6075 103.007055) scale(0.16 -0.16)">
       <defs>
        <path id="DejaVuSans-35" d="M 691 4666 
L 3169 4666 
L 3169 4134 
L 1269 4134 
L 1269 2991 
Q 1406 3038 1543 3061 
Q 1681 3084 1819 3084 
Q 2600 3084 3056 2656 
Q 3513 2228 3513 1497 
Q 3513 744 3044 326 
Q 2575 -91 1722 -91 
Q 1428 -91 1123 -41 
Q 819 9 494 109 
L 494 744 
Q 775 591 1075 516 
Q 1375 441 1709 441 
Q 2250 441 2565 725 
Q 2881 1009 2881 1497 
Q 2881 1984 2565 2268 
Q 2250 2553 1709 2553 
Q 1456 2553 1204 2497 
Q 953 2441 691 2322 
L 691 4666 
z
" transform="scale(0.015625)"/>
       </defs>
       <use xlink:href="#DejaVuSans-35"/>
      </g>
     </g>
    </g>
   </g>
   <g id="line2d_5">
    <path d="M 55.888409 119.857058 
L 63.128773 123.387365 
L 70.369136 126.328741 
L 77.6095 128.192084 
L 84.849864 128.680414 
L 92.090227 127.750675 
L 99.330591 125.649758 
L 106.570955 122.909252 
L 113.811318 120.267576 
L 121.051682 118.502472 
L 128.292045 118.207211 
L 135.532409 119.597183 
L 142.772773 122.44229 
L 150.013136 126.16458 
L 157.2535 130.0531 
L 164.493864 133.490086 
L 171.734227 136.094561 
L 178.974591 137.754888 
L 186.214955 138.585317 
L 193.455318 138.857425 
L 200.695682 138.928544 
L 207.936045 139.157907 
L 215.176409 139.80452 
L 222.416773 140.933428 
L 229.657136 142.380692 
L 236.8975 143.809129 
L 244.137864 144.83574 
L 251.378227 145.168868 
L 258.618591 144.693351 
L 265.858955 143.482333 
L 273.099318 141.758286 
L 280.339682 139.83972 
L 287.580045 138.090947 
L 294.820409 136.867048 
L 302.060773 136.441608 
L 309.301136 136.924388 
L 316.5415 138.199659 
L 323.781864 139.921142 
L 331.022227 141.580232 
L 338.262591 142.631882 
L 345.502955 142.635393 
L 352.743318 141.359122 
L 359.983682 138.814199 
L 367.224045 135.216014 
L 374.464409 130.906204 
L 381.704773 126.280337 
L 388.945136 121.748407 
L 396.1855 117.720755 
L 403.425864 114.589184 
L 410.666227 112.680297 
L 417.906591 112.186785 
" clip-path="url(#p3fb6960237)" style="fill: none; stroke: #000000; stroke-width: 2; stroke-linecap: square"/>
   </g>
   <g id="line2d_6">
    <path d="M 55.888409 75.013818 
L 63.128773 100.648163 
L 70.369136 114.026324 
L 77.6095 119.507058 
L 84.849864 120.277391 
L 92.090227 118.600482 
L 99.330591 116.021757 
L 106.570955 113.538725 
L 113.811318 111.739382 
L 121.051682 110.913689 
L 128.292045 111.142122 
L 135.532409 112.36493 
L 142.772773 114.435297 
L 150.013136 117.159251 
L 157.2535 120.324825 
L 164.493864 123.722611 
L 171.734227 127.159573 
L 178.974591 130.467688 
L 186.214955 133.508719 
L 193.455318 136.176188 
L 200.695682 138.395389 
L 207.936045 140.122115 
L 215.176409 141.340545 
L 222.416773 142.060652 
L 229.657136 142.315313 
L 236.8975 142.157218 
L 244.137864 141.655597 
L 251.378227 140.892716 
L 258.618591 139.960049 
L 265.858955 138.954043 
L 273.099318 137.971373 
L 280.339682 137.10364 
L 287.580045 136.431514 
L 294.820409 136.018386 
L 302.060773 135.903729 
L 309.301136 136.096459 
L 316.5415 136.568766 
L 323.781864 137.251033 
L 331.022227 138.028673 
L 338.262591 138.741937 
L 345.502955 139.189972 
L 352.743318 139.140699 
L 359.983682 138.348354 
L 367.224045 136.580867 
L 374.464409 133.65958 
L 381.704773 129.514185 
L 388.945136 124.25613 
L 396.1855 118.274184 
L 403.425864 112.356265 
L 410.666227 107.842104 
L 417.906591 106.811809 
" clip-path="url(#p3fb6960237)" style="fill: none; stroke-dasharray: 7.4,3.2; stroke-dashoffset: 0; stroke: #34b6c6; stroke-width: 2"/>
   </g>
   <g id="line2d_7">
    <path d="M 55.888409 108.661052 
L 63.128773 111.430639 
L 70.369136 113.677843 
L 77.6095 115.479597 
L 84.849864 116.865363 
L 92.090227 117.838257 
L 99.330591 118.456401 
L 106.570955 118.93982 
L 113.811318 119.595428 
L 121.051682 120.64016 
L 128.292045 122.294785 
L 135.532409 124.760738 
L 142.772773 127.586742 
L 150.013136 130.220936 
L 157.2535 132.77511 
L 164.493864 135.039022 
L 171.734227 136.661248 
L 178.974591 137.712367 
L 186.214955 138.391473 
L 193.455318 138.801984 
L 200.695682 138.939446 
L 207.936045 138.715742 
L 215.176409 138.094753 
L 222.416773 137.348886 
L 229.657136 136.788938 
L 236.8975 136.471279 
L 244.137864 136.356989 
L 251.378227 136.394496 
L 258.618591 136.543777 
L 265.858955 136.782381 
L 273.099318 137.096677 
L 280.339682 137.468924 
L 287.580045 137.870269 
L 294.820409 138.264649 
L 302.060773 138.618181 
L 309.301136 138.904748 
L 316.5415 139.105212 
L 323.781864 139.202615 
L 331.022227 139.174281 
L 338.262591 138.977583 
L 345.502955 138.521924 
L 352.743318 137.628401 
L 359.983682 136.05679 
L 367.224045 133.749624 
L 374.464409 130.885874 
L 381.704773 127.427869 
L 388.945136 123.37586 
L 396.1855 119.089236 
L 403.425864 114.655609 
L 410.666227 109.676608 
L 417.906591 103.617656 
" clip-path="url(#p3fb6960237)" style="fill: none; stroke-dasharray: 7.4,3.2; stroke-dashoffset: 0; stroke: #9370db; stroke-width: 2"/>
   </g>
   <g id="line2d_8">
    <path d="M 55.888409 129.670422 
L 63.128773 129.354169 
L 70.369136 128.935728 
L 77.6095 128.33076 
L 84.849864 127.402257 
L 92.090227 125.998747 
L 99.330591 124.148189 
L 106.570955 122.31914 
L 113.811318 121.223148 
L 121.051682 121.360782 
L 128.292045 123.254844 
L 135.532409 127.38828 
L 142.772773 132.596965 
L 150.013136 137.466683 
L 157.2535 142.268009 
L 164.493864 146.458068 
L 171.734227 149.138059 
L 178.974591 150.479626 
L 186.214955 150.980979 
L 193.455318 150.89867 
L 200.695682 150.216553 
L 207.936045 148.707002 
L 215.176409 146.274582 
L 222.416773 143.6059 
L 229.657136 141.48521 
L 236.8975 140.05254 
L 244.137864 139.206887 
L 251.378227 138.815633 
L 258.618591 138.775924 
L 265.858955 139.030028 
L 273.099318 139.543317 
L 280.339682 140.271718 
L 287.580045 141.14426 
L 294.820409 142.0734 
L 302.060773 142.979353 
L 309.301136 143.805073 
L 316.5415 144.515317 
L 323.781864 145.085953 
L 331.022227 145.485938 
L 338.262591 145.643855 
L 345.502955 145.380396 
L 352.743318 144.310646 
L 359.983682 141.918286 
L 367.224045 138.181402 
L 374.464409 133.717939 
L 381.704773 128.649652 
L 388.945136 123.261862 
L 396.1855 118.835589 
L 403.425864 116.071562 
L 410.666227 114.574951 
L 417.906591 113.774749 
" clip-path="url(#p3fb6960237)" style="fill: none; stroke-dasharray: 12.8,3.2,2,3.2; stroke-dashoffset: 0; stroke: #ff0000; stroke-width: 2"/>
   </g>
   <g id="patch_4">
    <path d="M 37.7875 165.688 
L 37.7875 70.696 
" style="fill: none; stroke: #000000; stroke-width: 0.8; stroke-linejoin: miter; stroke-linecap: square"/>
   </g>
   <g id="patch_5">
    <path d="M 436.0075 165.688 
L 436.0075 70.696 
" style="fill: none; stroke: #000000; stroke-width: 0.8; stroke-linejoin: miter; stroke-linecap: square"/>
   </g>
   <g id="patch_6">
    <path d="M 37.7875 165.688 
L 436.0075 165.688 
" style="fill: none; stroke: #000000; stroke-width: 0.8; stroke-linejoin: miter; stroke-linecap: square"/>
   </g>
   <g id="patch_7">
    <path d="M 37.7875 70.696 
L 436.0075 70.696 
" style="fill: none; stroke: #000000; stroke-width: 0.8; stroke-linejoin: miter; stroke-linecap: square"/>
   </g>
  </g>
  <g id="axes_3">
   <g id="patch_8">
    <path d="M 37.7875 276.68 
L 436.0075 276.68 
L 436.0075 181.688 
L 37.7875 181.688 
z
" style="fill: #ffffff"/>
   </g>
   <g id="PathCollection_2">
    <g clip-path="url(#p2c48e59aa9)">
     <use xlink:href="#m75e481e646" x="85.190329" y="215.973655" style="fill: #daa520; stroke: #daa520"/>
     <use xlink:href="#m75e481e646" x="382.097481" y="200.859469" style="fill: #daa520; stroke: #daa520"/>
     <use xlink:href="#m75e481e646" x="338.741843" y="215.62925" style="fill: #daa520; stroke: #daa520"/>
     <use xlink:href="#m75e481e646" x="252.546065" y="186.353644" style="fill: #daa520; stroke: #daa520"/>
     <use xlink:href="#m75e481e646" x="218.570766" y="213.773002" style="fill: #daa520; stroke: #daa520"/>
     <use xlink:href="#m75e481e646" x="287.403783" y="207.241086" style="fill: #daa520; stroke: #daa520"/>
     <use xlink:href="#m75e481e646" x="397.105114" y="228.18046" style="fill: #daa520; stroke: #daa520"/>
     <use xlink:href="#m75e481e646" x="382.782761" y="209.196047" style="fill: #daa520; stroke: #daa520"/>
     <use xlink:href="#m75e481e646" x="380.822373" y="230.284117" style="fill: #daa520; stroke: #daa520"/>
     <use xlink:href="#m75e481e646" x="396.433051" y="192.507054" style="fill: #daa520; stroke: #daa520"/>
     <use xlink:href="#m75e481e646" x="331.229963" y="210.839332" style="fill: #daa520; stroke: #daa520"/>
     <use xlink:href="#m75e481e646" x="332.286727" y="216.78204" style="fill: #daa520; stroke: #daa520"/>
     <use xlink:href="#m75e481e646" x="158.366835" y="225.590455" style="fill: #daa520; stroke: #daa520"/>
     <use xlink:href="#m75e481e646" x="348.718669" y="210.376084" style="fill: #daa520; stroke: #daa520"/>
     <use xlink:href="#m75e481e646" x="249.732297" y="211.200621" style="fill: #daa520; stroke: #daa520"/>
     <use xlink:href="#m75e481e646" x="309.590428" y="209.505958" style="fill: #daa520; stroke: #daa520"/>
     <use xlink:href="#m75e481e646" x="276.886655" y="219.18698" style="fill: #daa520; stroke: #daa520"/>
     <use xlink:href="#m75e481e646" x="341.740356" y="210.766471" style="fill: #daa520; stroke: #daa520"/>
     <use xlink:href="#m75e481e646" x="281.200632" y="219.5706" style="fill: #daa520; stroke: #daa520"/>
     <use xlink:href="#m75e481e646" x="315.619473" y="211.309238" style="fill: #daa520; stroke: #daa520"/>
     <use xlink:href="#m75e481e646" x="404.301023" y="205.412274" style="fill: #daa520; stroke: #daa520"/>
     <use xlink:href="#m75e481e646" x="289.441243" y="217.100342" style="fill: #daa520; stroke: #daa520"/>
     <use xlink:href="#m75e481e646" x="195.899081" y="235.331299" style="fill: #daa520; stroke: #daa520"/>
     <use xlink:href="#m75e481e646" x="382.181936" y="230.591496" style="fill: #daa520; stroke: #daa520"/>
     <use xlink:href="#m75e481e646" x="330.605147" y="230.29517" style="fill: #daa520; stroke: #daa520"/>
     <use xlink:href="#m75e481e646" x="241.641653" y="194.237454" style="fill: #daa520; stroke: #daa520"/>
     <use xlink:href="#m75e481e646" x="238.203585" y="213.606416" style="fill: #daa520; stroke: #daa520"/>
     <use xlink:href="#m75e481e646" x="402.274019" y="201.770201" style="fill: #daa520; stroke: #daa520"/>
     <use xlink:href="#m75e481e646" x="346.700823" y="217.297613" style="fill: #daa520; stroke: #daa520"/>
     <use xlink:href="#m75e481e646" x="341.508106" y="214.212787" style="fill: #daa520; stroke: #daa520"/>
     <use xlink:href="#m75e481e646" x="385.111327" y="205.432394" style="fill: #daa520; stroke: #daa520"/>
     <use xlink:href="#m75e481e646" x="406.630737" y="226.562708" style="fill: #daa520; stroke: #daa520"/>
     <use xlink:href="#m75e481e646" x="317.271308" y="229.439127" style="fill: #daa520; stroke: #daa520"/>
     <use xlink:href="#m75e481e646" x="326.973542" y="200.96339" style="fill: #daa520; stroke: #daa520"/>
     <use xlink:href="#m75e481e646" x="258.879826" y="219.26488" style="fill: #daa520; stroke: #daa520"/>
     <use xlink:href="#m75e481e646" x="305.665179" y="200.3115" style="fill: #daa520; stroke: #daa520"/>
     <use xlink:href="#m75e481e646" x="298.624499" y="207.480536" style="fill: #daa520; stroke: #daa520"/>
     <use xlink:href="#m75e481e646" x="327.997094" y="216.746787" style="fill: #daa520; stroke: #daa520"/>
     <use xlink:href="#m75e481e646" x="298.848511" y="245.199277" style="fill: #daa520; stroke: #daa520"/>
     <use xlink:href="#m75e481e646" x="379.459648" y="202.302671" style="fill: #daa520; stroke: #daa520"/>
     <use xlink:href="#m75e481e646" x="404.588133" y="226.867148" style="fill: #daa520; stroke: #daa520"/>
     <use xlink:href="#m75e481e646" x="402.447448" y="197.001947" style="fill: #daa520; stroke: #daa520"/>
     <use xlink:href="#m75e481e646" x="401.115553" y="221.366787" style="fill: #daa520; stroke: #daa520"/>
     <use xlink:href="#m75e481e646" x="295.992289" y="208.378119" style="fill: #daa520; stroke: #daa520"/>
     <use xlink:href="#m75e481e646" x="296.813609" y="227.612017" style="fill: #daa520; stroke: #daa520"/>
     <use xlink:href="#m75e481e646" x="337.868712" y="204.456598" style="fill: #daa520; stroke: #daa520"/>
     <use xlink:href="#m75e481e646" x="417.255268" y="219.423998" style="fill: #daa520; stroke: #daa520"/>
     <use xlink:href="#m75e481e646" x="357.214973" y="219.083209" style="fill: #daa520; stroke: #daa520"/>
     <use xlink:href="#m75e481e646" x="381.923971" y="200.74767" style="fill: #daa520; stroke: #daa520"/>
     <use xlink:href="#m75e481e646" x="216.033839" y="220.060447" style="fill: #daa520; stroke: #daa520"/>
     <use xlink:href="#m75e481e646" x="349.131741" y="225.036136" style="fill: #daa520; stroke: #daa520"/>
     <use xlink:href="#m75e481e646" x="337.362354" y="222.652674" style="fill: #daa520; stroke: #daa520"/>
     <use xlink:href="#m75e481e646" x="413.62946" y="204.252581" style="fill: #daa520; stroke: #daa520"/>
     <use xlink:href="#m75e481e646" x="284.083913" y="240.076186" style="fill: #daa520; stroke: #daa520"/>
     <use xlink:href="#m75e481e646" x="378.592526" y="203.056407" style="fill: #daa520; stroke: #daa520"/>
     <use xlink:href="#m75e481e646" x="316.617435" y="227.623981" style="fill: #daa520; stroke: #daa520"/>
     <use xlink:href="#m75e481e646" x="346.340406" y="214.828734" style="fill: #daa520; stroke: #daa520"/>
     <use xlink:href="#m75e481e646" x="295.727544" y="222.976598" style="fill: #daa520; stroke: #daa520"/>
     <use xlink:href="#m75e481e646" x="365.794006" y="221.714159" style="fill: #daa520; stroke: #daa520"/>
     <use xlink:href="#m75e481e646" x="311.481613" y="214.85335" style="fill: #daa520; stroke: #daa520"/>
     <use xlink:href="#m75e481e646" x="359.862555" y="210.851345" style="fill: #daa520; stroke: #daa520"/>
     <use xlink:href="#m75e481e646" x="351.915946" y="202.325789" style="fill: #daa520; stroke: #daa520"/>
     <use xlink:href="#m75e481e646" x="164.72526" y="234.248652" style="fill: #daa520; stroke: #daa520"/>
     <use xlink:href="#m75e481e646" x="395.731565" y="195.458374" style="fill: #daa520; stroke: #daa520"/>
     <use xlink:href="#m75e481e646" x="66.879357" y="240.421995" style="fill: #daa520; stroke: #daa520"/>
     <use xlink:href="#m75e481e646" x="97.494324" y="212.351941" style="fill: #daa520; stroke: #daa520"/>
     <use xlink:href="#m75e481e646" x="254.268244" y="188.568674" style="fill: #daa520; stroke: #daa520"/>
     <use xlink:href="#m75e481e646" x="403.929453" y="226.852036" style="fill: #daa520; stroke: #daa520"/>
     <use xlink:href="#m75e481e646" x="417.225881" y="216.289242" style="fill: #daa520; stroke: #daa520"/>
     <use xlink:href="#m75e481e646" x="348.920628" y="215.625822" style="fill: #daa520; stroke: #daa520"/>
     <use xlink:href="#m75e481e646" x="412.314553" y="220.527963" style="fill: #daa520; stroke: #daa520"/>
     <use xlink:href="#m75e481e646" x="391.893675" y="219.751091" style="fill: #daa520; stroke: #daa520"/>
     <use xlink:href="#m75e481e646" x="231.086059" y="215.212405" style="fill: #daa520; stroke: #daa520"/>
     <use xlink:href="#m75e481e646" x="378.502054" y="207.053817" style="fill: #daa520; stroke: #daa520"/>
     <use xlink:href="#m75e481e646" x="229.814117" y="202.262367" style="fill: #daa520; stroke: #daa520"/>
     <use xlink:href="#m75e481e646" x="303.832986" y="201.037237" style="fill: #daa520; stroke: #daa520"/>
     <use xlink:href="#m75e481e646" x="300.169442" y="244.306717" style="fill: #daa520; stroke: #daa520"/>
     <use xlink:href="#m75e481e646" x="233.274599" y="224.764718" style="fill: #daa520; stroke: #daa520"/>
     <use xlink:href="#m75e481e646" x="390.070518" y="197.506847" style="fill: #daa520; stroke: #daa520"/>
     <use xlink:href="#m75e481e646" x="331.108109" y="217.15848" style="fill: #daa520; stroke: #daa520"/>
     <use xlink:href="#m75e481e646" x="328.012336" y="204.286016" style="fill: #daa520; stroke: #daa520"/>
     <use xlink:href="#m75e481e646" x="378.083884" y="207.764211" style="fill: #daa520; stroke: #daa520"/>
     <use xlink:href="#m75e481e646" x="393.181333" y="208.019714" style="fill: #daa520; stroke: #daa520"/>
     <use xlink:href="#m75e481e646" x="71.870161" y="208.258292" style="fill: #daa520; stroke: #daa520"/>
     <use xlink:href="#m75e481e646" x="314.101969" y="222.950147" style="fill: #daa520; stroke: #daa520"/>
     <use xlink:href="#m75e481e646" x="238.725403" y="198.822357" style="fill: #daa520; stroke: #daa520"/>
     <use xlink:href="#m75e481e646" x="390.365665" y="225.496894" style="fill: #daa520; stroke: #daa520"/>
     <use xlink:href="#m75e481e646" x="416.16222" y="222.452652" style="fill: #daa520; stroke: #daa520"/>
     <use xlink:href="#m75e481e646" x="253.423853" y="186.005818" style="fill: #daa520; stroke: #daa520"/>
     <use xlink:href="#m75e481e646" x="242.592811" y="194.447604" style="fill: #daa520; stroke: #daa520"/>
     <use xlink:href="#m75e481e646" x="399.406346" y="202.534143" style="fill: #daa520; stroke: #daa520"/>
     <use xlink:href="#m75e481e646" x="413.203562" y="209.660537" style="fill: #daa520; stroke: #daa520"/>
     <use xlink:href="#m75e481e646" x="323.153465" y="233.283043" style="fill: #daa520; stroke: #daa520"/>
     <use xlink:href="#m75e481e646" x="408.265945" y="216.438222" style="fill: #daa520; stroke: #daa520"/>
     <use xlink:href="#m75e481e646" x="377.217219" y="214.950692" style="fill: #daa520; stroke: #daa520"/>
     <use xlink:href="#m75e481e646" x="291.812447" y="217.649885" style="fill: #daa520; stroke: #daa520"/>
     <use xlink:href="#m75e481e646" x="386.934091" y="201.569315" style="fill: #daa520; stroke: #daa520"/>
     <use xlink:href="#m75e481e646" x="335.773086" y="201.092" style="fill: #daa520; stroke: #daa520"/>
     <use xlink:href="#m75e481e646" x="85.286873" y="225.760025" style="fill: #daa520; stroke: #daa520"/>
     <use xlink:href="#m75e481e646" x="412.049137" y="220.509547" style="fill: #daa520; stroke: #daa520"/>
     <use xlink:href="#m75e481e646" x="122.681694" y="226.517179" style="fill: #daa520; stroke: #daa520"/>
    </g>
   </g>
   <g id="matplotlib.axis_5">
    <g id="xtick_1">
     <g id="line2d_9">
      <defs>
       <path id="mc08737e2ab" d="M 0 0 
L 0 3.5 
" style="stroke: #696969; stroke-width: 0.8"/>
      </defs>
      <g>
       <use xlink:href="#mc08737e2ab" x="55.888409" y="276.68" style="fill: #696969; stroke: #696969; stroke-width: 0.8"/>
      </g>
     </g>
     <g id="text_3">
      <!-- −1.0 -->
      <g style="fill: #696969" transform="translate(36.462159 295.8375) scale(0.16 -0.16)">
       <defs>
        <path id="DejaVuSans-2212" d="M 678 2272 
L 4684 2272 
L 4684 1741 
L 678 1741 
L 678 2272 
z
" transform="scale(0.015625)"/>
        <path id="DejaVuSans-31" d="M 794 531 
L 1825 531 
L 1825 4091 
L 703 3866 
L 703 4441 
L 1819 4666 
L 2450 4666 
L 2450 531 
L 3481 531 
L 3481 0 
L 794 0 
L 794 531 
z
" transform="scale(0.015625)"/>
        <path id="DejaVuSans-2e" d="M 684 794 
L 1344 794 
L 1344 0 
L 684 0 
L 684 794 
z
" transform="scale(0.015625)"/>
       </defs>
       <use xlink:href="#DejaVuSans-2212"/>
       <use xlink:href="#DejaVuSans-31" x="83.789062"/>
       <use xlink:href="#DejaVuSans-2e" x="147.412109"/>
       <use xlink:href="#DejaVuSans-30" x="179.199219"/>
      </g>
     </g>
    </g>
    <g id="xtick_2">
     <g id="line2d_10">
      <g>
       <use xlink:href="#mc08737e2ab" x="146.392955" y="276.68" style="fill: #696969; stroke: #696969; stroke-width: 0.8"/>
      </g>
     </g>
     <g id="text_4">
      <!-- −0.5 -->
      <g style="fill: #696969" transform="translate(126.966705 295.8375) scale(0.16 -0.16)">
       <use xlink:href="#DejaVuSans-2212"/>
       <use xlink:href="#DejaVuSans-30" x="83.789062"/>
       <use xlink:href="#DejaVuSans-2e" x="147.412109"/>
       <use xlink:href="#DejaVuSans-35" x="179.199219"/>
      </g>
     </g>
    </g>
    <g id="xtick_3">
     <g id="line2d_11">
      <g>
       <use xlink:href="#mc08737e2ab" x="236.8975" y="276.68" style="fill: #696969; stroke: #696969; stroke-width: 0.8"/>
      </g>
     </g>
     <g id="text_5">
      <!-- 0.0 -->
      <g style="fill: #696969" transform="translate(224.175 295.8375) scale(0.16 -0.16)">
       <use xlink:href="#DejaVuSans-30"/>
       <use xlink:href="#DejaVuSans-2e" x="63.623047"/>
       <use xlink:href="#DejaVuSans-30" x="95.410156"/>
      </g>
     </g>
    </g>
    <g id="xtick_4">
     <g id="line2d_12">
      <g>
       <use xlink:href="#mc08737e2ab" x="327.402045" y="276.68" style="fill: #696969; stroke: #696969; stroke-width: 0.8"/>
      </g>
     </g>
     <g id="text_6">
      <!-- 0.5 -->
      <g style="fill: #696969" transform="translate(314.679545 295.8375) scale(0.16 -0.16)">
       <use xlink:href="#DejaVuSans-30"/>
       <use xlink:href="#DejaVuSans-2e" x="63.623047"/>
       <use xlink:href="#DejaVuSans-35" x="95.410156"/>
      </g>
     </g>
    </g>
    <g id="xtick_5">
     <g id="line2d_13">
      <g>
       <use xlink:href="#mc08737e2ab" x="417.906591" y="276.68" style="fill: #696969; stroke: #696969; stroke-width: 0.8"/>
      </g>
     </g>
     <g id="text_7">
      <!-- 1.0 -->
      <g style="fill: #696969" transform="translate(405.184091 295.8375) scale(0.16 -0.16)">
       <use xlink:href="#DejaVuSans-31"/>
       <use xlink:href="#DejaVuSans-2e" x="63.623047"/>
       <use xlink:href="#DejaVuSans-30" x="95.410156"/>
      </g>
     </g>
    </g>
    <g id="text_8">
     <!-- $X$ -->
     <g transform="translate(231.3775 315.3225) scale(0.16 -0.16)">
      <defs>
       <path id="DejaVuSans-Oblique-58" d="M 878 4666 
L 1516 4666 
L 2316 2981 
L 3763 4666 
L 4500 4666 
L 2578 2438 
L 3738 0 
L 3103 0 
L 2163 1966 
L 459 0 
L -275 0 
L 1906 2509 
L 878 4666 
z
" transform="scale(0.015625)"/>
      </defs>
      <use xlink:href="#DejaVuSans-Oblique-58" transform="translate(0 0.09375)"/>
     </g>
    </g>
   </g>
   <g id="matplotlib.axis_6">
    <g id="ytick_3">
     <g id="line2d_14">
      <g>
       <use xlink:href="#m9263b6ef00" x="37.7875" y="253.860593" style="fill: #696969; stroke: #696969; stroke-width: 0.8"/>
      </g>
     </g>
     <g id="text_9">
      <!-- −5 -->
      <g style="fill: #696969" transform="translate(7.2 259.939343) scale(0.16 -0.16)">
       <use xlink:href="#DejaVuSans-2212"/>
       <use xlink:href="#DejaVuSans-35" x="83.789062"/>
      </g>
     </g>
    </g>
    <g id="ytick_4">
     <g id="line2d_15">
      <g>
       <use xlink:href="#m9263b6ef00" x="37.7875" y="209.550106" style="fill: #696969; stroke: #696969; stroke-width: 0.8"/>
      </g>
     </g>
     <g id="text_10">
      <!-- 0 -->
      <g style="fill: #696969" transform="translate(20.6075 215.628856) scale(0.16 -0.16)">
       <use xlink:href="#DejaVuSans-30"/>
      </g>
     </g>
    </g>
   </g>
   <g id="line2d_16">
    <path d="M 55.888409 219.774336 
L 63.128773 215.766729 
L 70.369136 212.266243 
L 77.6095 209.694589 
L 84.849864 208.218435 
L 92.090227 207.724829 
L 99.330591 207.985669 
L 106.570955 208.935288 
L 113.811318 210.545686 
L 121.051682 212.528089 
L 128.292045 214.809073 
L 135.532409 217.6674 
L 142.772773 220.129938 
L 150.013136 221.325405 
L 157.2535 222.276429 
L 164.493864 223.061032 
L 171.734227 223.139709 
L 178.974591 222.807603 
L 186.214955 222.46475 
L 193.455318 222.095494 
L 200.695682 221.310722 
L 207.936045 219.499003 
L 215.176409 216.291057 
L 222.416773 212.334469 
L 229.657136 208.617133 
L 236.8975 205.636236 
L 244.137864 203.685584 
L 251.378227 202.930874 
L 258.618591 203.384927 
L 265.858955 204.911392 
L 273.099318 207.2424 
L 280.339682 210.000191 
L 287.580045 212.731255 
L 294.820409 214.974437 
L 302.060773 216.361574 
L 309.301136 216.718872 
L 316.5415 216.130188 
L 323.781864 214.931157 
L 331.022227 213.619337 
L 338.262591 212.688185 
L 345.502955 212.410037 
L 352.743318 212.625204 
L 359.983682 212.784156 
L 367.224045 212.63965 
L 374.464409 212.479563 
L 381.704773 212.018619 
L 388.945136 211.126927 
L 396.1855 210.711616 
L 403.425864 211.094549 
L 410.666227 211.524085 
L 417.906591 211.204555 
" clip-path="url(#p2c48e59aa9)" style="fill: none; stroke: #696969; stroke-width: 2; stroke-linecap: square"/>
   </g>
   <g id="line2d_17">
    <path d="M 55.888409 272.362182 
L 63.128773 242.673765 
L 70.369136 225.50158 
L 77.6095 217.073167 
L 84.849864 214.470857 
L 92.090227 215.481068 
L 99.330591 218.464123 
L 106.570955 222.242649 
L 113.811318 226.00668 
L 121.051682 229.233691 
L 128.292045 231.621834 
L 135.532409 233.034811 
L 142.772773 233.456854 
L 150.013136 232.956437 
L 157.2535 231.657434 
L 164.493864 229.71655 
L 171.734227 227.305981 
L 178.974591 224.60035 
L 186.214955 221.767106 
L 193.455318 218.959656 
L 200.695682 216.312641 
L 207.936045 213.93884 
L 215.176409 211.927307 
L 222.416773 210.342431 
L 229.657136 209.223693 
L 236.8975 208.585979 
L 244.137864 208.420363 
L 251.378227 208.695347 
L 258.618591 209.358582 
L 265.858955 210.33912 
L 273.099318 211.550284 
L 280.339682 212.893233 
L 287.580045 214.26129 
L 294.820409 215.54508 
L 302.060773 216.638464 
L 309.301136 217.445208 
L 316.5415 217.88622 
L 323.781864 217.907097 
L 331.022227 217.485577 
L 338.262591 216.638366 
L 345.502955 215.426595 
L 352.743318 213.958984 
L 359.983682 212.391555 
L 367.224045 210.922479 
L 374.464409 209.78034 
L 381.704773 209.203803 
L 388.945136 209.410321 
L 396.1855 210.551111 
L 403.425864 212.649262 
L 410.666227 215.517343 
L 417.906591 218.650431 
" clip-path="url(#p2c48e59aa9)" style="fill: none; stroke-dasharray: 7.4,3.2; stroke-dashoffset: 0; stroke: #79ad41; stroke-width: 2"/>
   </g>
   <g id="patch_9">
    <path d="M 37.7875 276.68 
L 37.7875 181.688 
" style="fill: none; stroke: #000000; stroke-width: 0.8; stroke-linejoin: miter; stroke-linecap: square"/>
   </g>
   <g id="patch_10">
    <path d="M 436.0075 276.68 
L 436.0075 181.688 
" style="fill: none; stroke: #000000; stroke-width: 0.8; stroke-linejoin: miter; stroke-linecap: square"/>
   </g>
   <g id="patch_11">
    <path d="M 37.7875 276.68 
L 436.0075 276.68 
" style="fill: none; stroke: #000000; stroke-width: 0.8; stroke-linejoin: miter; stroke-linecap: square"/>
   </g>
   <g id="patch_12">
    <path d="M 37.7875 181.688 
L 436.0075 181.688 
" style="fill: none; stroke: #000000; stroke-width: 0.8; stroke-linejoin: miter; stroke-linecap: square"/>
   </g>
  </g>
 </g>
 <defs>
  <clipPath id="pf63c0e02b5">
   <rect x="37.7875" y="7.2" width="398.22" height="47.496"/>
  </clipPath>
  <clipPath id="p3fb6960237">
   <rect x="37.7875" y="70.696" width="398.22" height="94.992"/>
  </clipPath>
  <clipPath id="p2c48e59aa9">
   <rect x="37.7875" y="181.688" width="398.22" height="94.992"/>
  </clipPath>
 </defs>
</svg>
