<?xml version="1.0" encoding="utf-8" standalone="no"?>
<!DOCTYPE svg PUBLIC "-//W3C//DTD SVG 1.1//EN"
  "http://www.w3.org/Graphics/SVG/1.1/DTD/svg11.dtd">
<svg xmlns:xlink="http://www.w3.org/1999/xlink" width="443.2075pt" height="325.85pt" viewBox="0 0 443.2075 325.85" xmlns="http://www.w3.org/2000/svg" version="1.1">
 <metadata>
  <rdf:RDF xmlns:dc="http://purl.org/dc/elements/1.1/" xmlns:cc="http://creativecommons.org/ns#" xmlns:rdf="http://www.w3.org/1999/02/22-rdf-syntax-ns#">
   <cc:Work>
    <dc:type rdf:resource="http://purl.org/dc/dcmitype/StillImage"/>
    <dc:date>2024-01-28T20:53:12.600303</dc:date>
    <dc:format>image/svg+xml</dc:format>
    <dc:creator>
     <cc:Agent>
      <dc:title>Matplotlib v3.7.2, https://matplotlib.org/</dc:title>
     </cc:Agent>
    </dc:creator>
   </cc:Work>
  </rdf:RDF>
 </metadata>
 <defs>
  <style type="text/css">*{stroke-linejoin: round; stroke-linecap: butt}</style>
 </defs>
 <g id="figure_1">
  <g id="patch_1">
   <path d="M 0 325.85 
L 443.2075 325.85 
L 443.2075 0 
L 0 0 
z
" style="fill: #ffffff"/>
  </g>
  <g id="axes_1">
   <g id="patch_2">
    <path d="M 37.7875 54.696 
L 436.0075 54.696 
L 436.0075 7.2 
L 37.7875 7.2 
z
" style="fill: #ffffff"/>
   </g>
   <g id="PolyCollection_1">
    <defs>
     <path id="m88c95eff0c" d="M 55.888409 -273.312909 
L 55.888409 -311.503243 
L 63.128773 -310.85875 
L 70.369136 -310.135492 
L 77.6095 -309.328427 
L 84.849864 -308.433033 
L 92.090227 -307.445672 
L 99.330591 -306.364094 
L 106.570955 -305.187958 
L 113.811318 -303.919375 
L 121.051682 -302.563392 
L 128.292045 -301.128386 
L 135.532409 -299.62622 
L 142.772773 -298.072182 
L 150.013136 -296.484526 
L 157.2535 -294.88373 
L 164.493864 -293.291501 
L 171.734227 -291.729535 
L 178.974591 -290.21828 
L 186.214955 -288.775856 
L 193.455318 -287.417161 
L 200.695682 -286.153387 
L 207.936045 -284.991843 
L 215.176409 -283.936145 
L 222.416773 -282.986639 
L 229.657136 -282.14099 
L 236.8975 -281.394854 
L 244.137864 -280.7425 
L 251.378227 -280.177417 
L 258.618591 -279.692789 
L 265.858955 -279.281884 
L 273.099318 -278.938331 
L 280.339682 -278.656318 
L 287.580045 -278.430717 
L 294.820409 -278.257138 
L 302.060773 -278.131962 
L 309.301136 -278.110485 
L 316.5415 -278.110485 
L 323.781864 -278.110485 
L 331.022227 -278.110485 
L 338.262591 -278.157289 
L 345.502955 -278.287066 
L 352.743318 -278.459297 
L 359.983682 -278.675298 
L 367.224045 -278.936731 
L 374.464409 -279.245476 
L 381.704773 -279.603543 
L 388.945136 -280.012922 
L 396.1855 -280.475449 
L 403.425864 -280.99264 
L 410.666227 -281.565532 
L 417.906591 -282.194527 
L 417.906591 -273.312909 
L 417.906591 -273.312909 
L 410.666227 -273.312909 
L 403.425864 -273.312909 
L 396.1855 -273.312909 
L 388.945136 -273.312909 
L 381.704773 -273.312909 
L 374.464409 -273.312909 
L 367.224045 -273.312909 
L 359.983682 -273.312909 
L 352.743318 -273.312909 
L 345.502955 -273.312909 
L 338.262591 -273.312909 
L 331.022227 -273.312909 
L 323.781864 -273.312909 
L 316.5415 -273.312909 
L 309.301136 -273.312909 
L 302.060773 -273.312909 
L 294.820409 -273.312909 
L 287.580045 -273.312909 
L 280.339682 -273.312909 
L 273.099318 -273.312909 
L 265.858955 -273.312909 
L 258.618591 -273.312909 
L 251.378227 -273.312909 
L 244.137864 -273.312909 
L 236.8975 -273.312909 
L 229.657136 -273.312909 
L 222.416773 -273.312909 
L 215.176409 -273.312909 
L 207.936045 -273.312909 
L 200.695682 -273.312909 
L 193.455318 -273.312909 
L 186.214955 -273.312909 
L 178.974591 -273.312909 
L 171.734227 -273.312909 
L 164.493864 -273.312909 
L 157.2535 -273.312909 
L 150.013136 -273.312909 
L 142.772773 -273.312909 
L 135.532409 -273.312909 
L 128.292045 -273.312909 
L 121.051682 -273.312909 
L 113.811318 -273.312909 
L 106.570955 -273.312909 
L 99.330591 -273.312909 
L 92.090227 -273.312909 
L 84.849864 -273.312909 
L 77.6095 -273.312909 
L 70.369136 -273.312909 
L 63.128773 -273.312909 
L 55.888409 -273.312909 
z
" style="stroke: #dc143c; stroke-opacity: 0.2"/>
    </defs>
    <g clip-path="url(#p835eacb213)">
     <use xlink:href="#m88c95eff0c" x="0" y="325.85" style="fill: #dc143c; fill-opacity: 0.2; stroke: #dc143c; stroke-opacity: 0.2"/>
    </g>
   </g>
   <g id="PolyCollection_2">
    <defs>
     <path id="m195476835a" d="M 55.888409 -273.312909 
L 55.888409 -283.098333 
L 63.128773 -283.742825 
L 70.369136 -284.466084 
L 77.6095 -285.273148 
L 84.849864 -286.168543 
L 92.090227 -287.155903 
L 99.330591 -288.237482 
L 106.570955 -289.413618 
L 113.811318 -290.682201 
L 121.051682 -292.038184 
L 128.292045 -293.47319 
L 135.532409 -294.975355 
L 142.772773 -296.529394 
L 150.013136 -298.11705 
L 157.2535 -299.717846 
L 164.493864 -301.310074 
L 171.734227 -302.872041 
L 178.974591 -304.383296 
L 186.214955 -305.82572 
L 193.455318 -307.184414 
L 200.695682 -308.448189 
L 207.936045 -309.609733 
L 215.176409 -310.665431 
L 222.416773 -311.614936 
L 229.657136 -312.460585 
L 236.8975 -313.206722 
L 244.137864 -313.859076 
L 251.378227 -314.424159 
L 258.618591 -314.908787 
L 265.858955 -315.319692 
L 273.099318 -315.663245 
L 280.339682 -315.945257 
L 287.580045 -316.170859 
L 294.820409 -316.344438 
L 302.060773 -316.469614 
L 309.301136 -316.491091 
L 316.5415 -316.491091 
L 323.781864 -316.491091 
L 331.022227 -316.491091 
L 338.262591 -316.444287 
L 345.502955 -316.314509 
L 352.743318 -316.142279 
L 359.983682 -315.926278 
L 367.224045 -315.664845 
L 374.464409 -315.3561 
L 381.704773 -314.998033 
L 388.945136 -314.588653 
L 396.1855 -314.126127 
L 403.425864 -313.608936 
L 410.666227 -313.036044 
L 417.906591 -312.407049 
L 417.906591 -273.312909 
L 417.906591 -273.312909 
L 410.666227 -273.312909 
L 403.425864 -273.312909 
L 396.1855 -273.312909 
L 388.945136 -273.312909 
L 381.704773 -273.312909 
L 374.464409 -273.312909 
L 367.224045 -273.312909 
L 359.983682 -273.312909 
L 352.743318 -273.312909 
L 345.502955 -273.312909 
L 338.262591 -273.312909 
L 331.022227 -273.312909 
L 323.781864 -273.312909 
L 316.5415 -273.312909 
L 309.301136 -273.312909 
L 302.060773 -273.312909 
L 294.820409 -273.312909 
L 287.580045 -273.312909 
L 280.339682 -273.312909 
L 273.099318 -273.312909 
L 265.858955 -273.312909 
L 258.618591 -273.312909 
L 251.378227 -273.312909 
L 244.137864 -273.312909 
L 236.8975 -273.312909 
L 229.657136 -273.312909 
L 222.416773 -273.312909 
L 215.176409 -273.312909 
L 207.936045 -273.312909 
L 200.695682 -273.312909 
L 193.455318 -273.312909 
L 186.214955 -273.312909 
L 178.974591 -273.312909 
L 171.734227 -273.312909 
L 164.493864 -273.312909 
L 157.2535 -273.312909 
L 150.013136 -273.312909 
L 142.772773 -273.312909 
L 135.532409 -273.312909 
L 128.292045 -273.312909 
L 121.051682 -273.312909 
L 113.811318 -273.312909 
L 106.570955 -273.312909 
L 99.330591 -273.312909 
L 92.090227 -273.312909 
L 84.849864 -273.312909 
L 77.6095 -273.312909 
L 70.369136 -273.312909 
L 63.128773 -273.312909 
L 55.888409 -273.312909 
z
" style="stroke: #000080; stroke-opacity: 0.2"/>
    </defs>
    <g clip-path="url(#p835eacb213)">
     <use xlink:href="#m195476835a" x="0" y="325.85" style="fill: #000080; fill-opacity: 0.2; stroke: #000080; stroke-opacity: 0.2"/>
    </g>
   </g>
   <g id="matplotlib.axis_1"/>
   <g id="matplotlib.axis_2"/>
   <g id="line2d_1">
    <path d="M 55.888409 14.346757 
L 63.128773 14.99125 
L 70.369136 15.714508 
L 77.6095 16.521573 
L 84.849864 17.416967 
L 92.090227 18.404328 
L 99.330591 19.485906 
L 106.570955 20.662042 
L 113.811318 21.930625 
L 121.051682 23.286608 
L 128.292045 24.721614 
L 135.532409 26.22378 
L 142.772773 27.777818 
L 150.013136 29.365474 
L 157.2535 30.96627 
L 164.493864 32.558499 
L 171.734227 34.120465 
L 178.974591 35.63172 
L 186.214955 37.074144 
L 193.455318 38.432839 
L 200.695682 39.696613 
L 207.936045 40.858157 
L 215.176409 41.913855 
L 222.416773 42.863361 
L 229.657136 43.70901 
L 236.8975 44.455146 
L 244.137864 45.1075 
L 251.378227 45.672583 
L 258.618591 46.157211 
L 265.858955 46.568116 
L 273.099318 46.911669 
L 280.339682 47.193682 
L 287.580045 47.419283 
L 294.820409 47.592862 
L 302.060773 47.718038 
L 309.301136 47.739515 
L 316.5415 47.739515 
L 323.781864 47.739515 
L 331.022227 47.739515 
L 338.262591 47.692711 
L 345.502955 47.562934 
L 352.743318 47.390703 
L 359.983682 47.174702 
L 367.224045 46.913269 
L 374.464409 46.604524 
L 381.704773 46.246457 
L 388.945136 45.837078 
L 396.1855 45.374551 
L 403.425864 44.85736 
L 410.666227 44.284468 
L 417.906591 43.655473 
" clip-path="url(#p835eacb213)" style="fill: none; stroke: #dc143c; stroke-width: 1.5; stroke-linecap: square"/>
   </g>
   <g id="line2d_2">
    <path d="M 55.888409 42.751667 
L 63.128773 42.107175 
L 70.369136 41.383916 
L 77.6095 40.576852 
L 84.849864 39.681457 
L 92.090227 38.694097 
L 99.330591 37.612518 
L 106.570955 36.436382 
L 113.811318 35.167799 
L 121.051682 33.811816 
L 128.292045 32.37681 
L 135.532409 30.874645 
L 142.772773 29.320606 
L 150.013136 27.73295 
L 157.2535 26.132154 
L 164.493864 24.539926 
L 171.734227 22.977959 
L 178.974591 21.466704 
L 186.214955 20.02428 
L 193.455318 18.665586 
L 200.695682 17.401811 
L 207.936045 16.240267 
L 215.176409 15.184569 
L 222.416773 14.235064 
L 229.657136 13.389415 
L 236.8975 12.643278 
L 244.137864 11.990924 
L 251.378227 11.425841 
L 258.618591 10.941213 
L 265.858955 10.530308 
L 273.099318 10.186755 
L 280.339682 9.904743 
L 287.580045 9.679141 
L 294.820409 9.505562 
L 302.060773 9.380386 
L 309.301136 9.358909 
L 316.5415 9.358909 
L 323.781864 9.358909 
L 331.022227 9.358909 
L 338.262591 9.405713 
L 345.502955 9.535491 
L 352.743318 9.707721 
L 359.983682 9.923722 
L 367.224045 10.185155 
L 374.464409 10.4939 
L 381.704773 10.851967 
L 388.945136 11.261347 
L 396.1855 11.723873 
L 403.425864 12.241064 
L 410.666227 12.813956 
L 417.906591 13.442951 
" clip-path="url(#p835eacb213)" style="fill: none; stroke: #000080; stroke-width: 1.5; stroke-linecap: square"/>
   </g>
  </g>
  <g id="axes_2">
   <g id="patch_3">
    <path d="M 37.7875 165.688 
L 436.0075 165.688 
L 436.0075 70.696 
L 37.7875 70.696 
z
" style="fill: #ffffff"/>
   </g>
   <g id="PathCollection_1">
    <defs>
     <path id="mccc168261d" d="M 0 0.866025 
C 0.229673 0.866025 0.449969 0.774776 0.612372 0.612372 
C 0.774776 0.449969 0.866025 0.229673 0.866025 0 
C 0.866025 -0.229673 0.774776 -0.449969 0.612372 -0.612372 
C 0.449969 -0.774776 0.229673 -0.866025 0 -0.866025 
C -0.229673 -0.866025 -0.449969 -0.774776 -0.612372 -0.612372 
C -0.774776 -0.449969 -0.866025 -0.229673 -0.866025 0 
C -0.866025 0.229673 -0.774776 0.449969 -0.612372 0.612372 
C -0.449969 0.774776 -0.229673 0.866025 0 0.866025 
z
" style="stroke: #daa520"/>
    </defs>
    <g clip-path="url(#p9fd3790c5e)">
     <use xlink:href="#mccc168261d" x="129.131009" y="117.487609" style="fill: #daa520; stroke: #daa520"/>
     <use xlink:href="#mccc168261d" x="312.652651" y="105.150792" style="fill: #daa520; stroke: #daa520"/>
     <use xlink:href="#mccc168261d" x="172.693365" y="142.226362" style="fill: #daa520; stroke: #daa520"/>
     <use xlink:href="#mccc168261d" x="83.29066" y="80.295239" style="fill: #daa520; stroke: #daa520"/>
     <use xlink:href="#mccc168261d" x="226.811086" y="154.866685" style="fill: #daa520; stroke: #daa520"/>
     <use xlink:href="#mccc168261d" x="129.057987" y="139.949005" style="fill: #daa520; stroke: #daa520"/>
     <use xlink:href="#mccc168261d" x="129.307524" y="146.460252" style="fill: #daa520; stroke: #daa520"/>
     <use xlink:href="#mccc168261d" x="279.372497" y="132.56333" style="fill: #daa520; stroke: #daa520"/>
     <use xlink:href="#mccc168261d" x="103.776674" y="95.797235" style="fill: #daa520; stroke: #daa520"/>
     <use xlink:href="#mccc168261d" x="279.822397" y="161.370182" style="fill: #daa520; stroke: #daa520"/>
     <use xlink:href="#mccc168261d" x="330.726959" y="154.053883" style="fill: #daa520; stroke: #daa520"/>
     <use xlink:href="#mccc168261d" x="116.722471" y="141.790154" style="fill: #daa520; stroke: #daa520"/>
     <use xlink:href="#mccc168261d" x="128.639334" y="156.230664" style="fill: #daa520; stroke: #daa520"/>
     <use xlink:href="#mccc168261d" x="203.427194" y="154.896777" style="fill: #daa520; stroke: #daa520"/>
     <use xlink:href="#mccc168261d" x="140.680103" y="86.037614" style="fill: #daa520; stroke: #daa520"/>
     <use xlink:href="#mccc168261d" x="117.02479" y="103.219571" style="fill: #daa520; stroke: #daa520"/>
     <use xlink:href="#mccc168261d" x="160.385642" y="148.635012" style="fill: #daa520; stroke: #daa520"/>
     <use xlink:href="#mccc168261d" x="57.834972" y="108.92305" style="fill: #daa520; stroke: #daa520"/>
     <use xlink:href="#mccc168261d" x="102.494722" y="140.477263" style="fill: #daa520; stroke: #daa520"/>
     <use xlink:href="#mccc168261d" x="74.780501" y="146.676018" style="fill: #daa520; stroke: #daa520"/>
     <use xlink:href="#mccc168261d" x="116.021857" y="81.364609" style="fill: #daa520; stroke: #daa520"/>
     <use xlink:href="#mccc168261d" x="127.308228" y="138.479224" style="fill: #daa520; stroke: #daa520"/>
     <use xlink:href="#mccc168261d" x="181.29604" y="85.633101" style="fill: #daa520; stroke: #daa520"/>
     <use xlink:href="#mccc168261d" x="140.158218" y="89.540775" style="fill: #daa520; stroke: #daa520"/>
     <use xlink:href="#mccc168261d" x="298.378362" y="101.465079" style="fill: #daa520; stroke: #daa520"/>
     <use xlink:href="#mccc168261d" x="195.47218" y="134.9722" style="fill: #daa520; stroke: #daa520"/>
     <use xlink:href="#mccc168261d" x="258.017999" y="86.65513" style="fill: #daa520; stroke: #daa520"/>
     <use xlink:href="#mccc168261d" x="117.187317" y="81.564442" style="fill: #daa520; stroke: #daa520"/>
     <use xlink:href="#mccc168261d" x="381.943574" y="132.872329" style="fill: #daa520; stroke: #daa520"/>
     <use xlink:href="#mccc168261d" x="113.738996" y="98.69066" style="fill: #daa520; stroke: #daa520"/>
     <use xlink:href="#mccc168261d" x="153.033261" y="88.128329" style="fill: #daa520; stroke: #daa520"/>
     <use xlink:href="#mccc168261d" x="80.325057" y="91.678943" style="fill: #daa520; stroke: #daa520"/>
     <use xlink:href="#mccc168261d" x="118.473182" y="151.836446" style="fill: #daa520; stroke: #daa520"/>
     <use xlink:href="#mccc168261d" x="59.562066" y="85.992773" style="fill: #daa520; stroke: #daa520"/>
     <use xlink:href="#mccc168261d" x="119.206929" y="115.95887" style="fill: #daa520; stroke: #daa520"/>
     <use xlink:href="#mccc168261d" x="103.182267" y="134.475874" style="fill: #daa520; stroke: #daa520"/>
     <use xlink:href="#mccc168261d" x="155.9651" y="84.645133" style="fill: #daa520; stroke: #daa520"/>
     <use xlink:href="#mccc168261d" x="103.69945" y="98.036918" style="fill: #daa520; stroke: #daa520"/>
     <use xlink:href="#mccc168261d" x="76.738994" y="128.226934" style="fill: #daa520; stroke: #daa520"/>
     <use xlink:href="#mccc168261d" x="64.258362" y="139.427999" style="fill: #daa520; stroke: #daa520"/>
     <use xlink:href="#mccc168261d" x="207.739842" y="136.177891" style="fill: #daa520; stroke: #daa520"/>
     <use xlink:href="#mccc168261d" x="245.666213" y="155.104181" style="fill: #daa520; stroke: #daa520"/>
     <use xlink:href="#mccc168261d" x="370.55725" y="139.434756" style="fill: #daa520; stroke: #daa520"/>
     <use xlink:href="#mccc168261d" x="68.391138" y="83.734833" style="fill: #daa520; stroke: #daa520"/>
     <use xlink:href="#mccc168261d" x="65.390931" y="85.784778" style="fill: #daa520; stroke: #daa520"/>
     <use xlink:href="#mccc168261d" x="66.084662" y="95.986985" style="fill: #daa520; stroke: #daa520"/>
     <use xlink:href="#mccc168261d" x="64.16058" y="83.380431" style="fill: #daa520; stroke: #daa520"/>
     <use xlink:href="#mccc168261d" x="388.477518" y="142.29834" style="fill: #daa520; stroke: #daa520"/>
     <use xlink:href="#mccc168261d" x="216.863667" y="152.945404" style="fill: #daa520; stroke: #daa520"/>
     <use xlink:href="#mccc168261d" x="59.798058" y="96.293814" style="fill: #daa520; stroke: #daa520"/>
     <use xlink:href="#mccc168261d" x="178.180556" y="78.151713" style="fill: #daa520; stroke: #daa520"/>
     <use xlink:href="#mccc168261d" x="321.58116" y="107.823198" style="fill: #daa520; stroke: #daa520"/>
     <use xlink:href="#mccc168261d" x="331.705737" y="132.780095" style="fill: #daa520; stroke: #daa520"/>
     <use xlink:href="#mccc168261d" x="100.305217" y="81.199742" style="fill: #daa520; stroke: #daa520"/>
     <use xlink:href="#mccc168261d" x="380.026238" y="154.154213" style="fill: #daa520; stroke: #daa520"/>
     <use xlink:href="#mccc168261d" x="70.979626" y="82.101021" style="fill: #daa520; stroke: #daa520"/>
     <use xlink:href="#mccc168261d" x="409.893678" y="121.151085" style="fill: #daa520; stroke: #daa520"/>
     <use xlink:href="#mccc168261d" x="200.039366" y="134.854196" style="fill: #daa520; stroke: #daa520"/>
     <use xlink:href="#mccc168261d" x="107.978505" y="83.728684" style="fill: #daa520; stroke: #daa520"/>
     <use xlink:href="#mccc168261d" x="119.224194" y="104.80403" style="fill: #daa520; stroke: #daa520"/>
     <use xlink:href="#mccc168261d" x="81.026755" y="148.679612" style="fill: #daa520; stroke: #daa520"/>
     <use xlink:href="#mccc168261d" x="144.319137" y="85.988515" style="fill: #daa520; stroke: #daa520"/>
     <use xlink:href="#mccc168261d" x="64.680393" y="98.772194" style="fill: #daa520; stroke: #daa520"/>
     <use xlink:href="#mccc168261d" x="122.209666" y="114.206026" style="fill: #daa520; stroke: #daa520"/>
     <use xlink:href="#mccc168261d" x="269.700468" y="91.101474" style="fill: #daa520; stroke: #daa520"/>
     <use xlink:href="#mccc168261d" x="58.116442" y="111.627097" style="fill: #daa520; stroke: #daa520"/>
     <use xlink:href="#mccc168261d" x="223.783567" y="79.030687" style="fill: #daa520; stroke: #daa520"/>
     <use xlink:href="#mccc168261d" x="101.058876" y="112.400286" style="fill: #daa520; stroke: #daa520"/>
     <use xlink:href="#mccc168261d" x="99.185991" y="106.109093" style="fill: #daa520; stroke: #daa520"/>
     <use xlink:href="#mccc168261d" x="371.244008" y="138.942173" style="fill: #daa520; stroke: #daa520"/>
     <use xlink:href="#mccc168261d" x="227.072564" y="154.414329" style="fill: #daa520; stroke: #daa520"/>
     <use xlink:href="#mccc168261d" x="85.841144" y="82.375647" style="fill: #daa520; stroke: #daa520"/>
     <use xlink:href="#mccc168261d" x="219.281191" y="75.718679" style="fill: #daa520; stroke: #daa520"/>
     <use xlink:href="#mccc168261d" x="104.620827" y="121.030924" style="fill: #daa520; stroke: #daa520"/>
     <use xlink:href="#mccc168261d" x="155.648531" y="108.493576" style="fill: #daa520; stroke: #daa520"/>
     <use xlink:href="#mccc168261d" x="92.253943" y="101.594996" style="fill: #daa520; stroke: #daa520"/>
     <use xlink:href="#mccc168261d" x="365.108674" y="124.888308" style="fill: #daa520; stroke: #daa520"/>
     <use xlink:href="#mccc168261d" x="339.842161" y="160.756134" style="fill: #daa520; stroke: #daa520"/>
     <use xlink:href="#mccc168261d" x="124.314233" y="83.95949" style="fill: #daa520; stroke: #daa520"/>
     <use xlink:href="#mccc168261d" x="84.028266" y="144.923871" style="fill: #daa520; stroke: #daa520"/>
     <use xlink:href="#mccc168261d" x="187.888913" y="75.013818" style="fill: #daa520; stroke: #daa520"/>
     <use xlink:href="#mccc168261d" x="111.915462" y="113.94159" style="fill: #daa520; stroke: #daa520"/>
     <use xlink:href="#mccc168261d" x="110.511429" y="91.423415" style="fill: #daa520; stroke: #daa520"/>
     <use xlink:href="#mccc168261d" x="75.145793" y="84.516004" style="fill: #daa520; stroke: #daa520"/>
     <use xlink:href="#mccc168261d" x="113.448177" y="101.302762" style="fill: #daa520; stroke: #daa520"/>
     <use xlink:href="#mccc168261d" x="193.463595" y="157.323626" style="fill: #daa520; stroke: #daa520"/>
     <use xlink:href="#mccc168261d" x="202.438032" y="75.194919" style="fill: #daa520; stroke: #daa520"/>
     <use xlink:href="#mccc168261d" x="146.048172" y="86.247547" style="fill: #daa520; stroke: #daa520"/>
     <use xlink:href="#mccc168261d" x="136.702671" y="84.844155" style="fill: #daa520; stroke: #daa520"/>
     <use xlink:href="#mccc168261d" x="97.534726" y="79.747155" style="fill: #daa520; stroke: #daa520"/>
     <use xlink:href="#mccc168261d" x="80.220464" y="87.802502" style="fill: #daa520; stroke: #daa520"/>
     <use xlink:href="#mccc168261d" x="305.744882" y="147.627377" style="fill: #daa520; stroke: #daa520"/>
     <use xlink:href="#mccc168261d" x="202.656392" y="148.020751" style="fill: #daa520; stroke: #daa520"/>
     <use xlink:href="#mccc168261d" x="89.269553" y="98.984543" style="fill: #daa520; stroke: #daa520"/>
     <use xlink:href="#mccc168261d" x="95.555498" y="141.802721" style="fill: #daa520; stroke: #daa520"/>
     <use xlink:href="#mccc168261d" x="366.834903" y="147.226659" style="fill: #daa520; stroke: #daa520"/>
     <use xlink:href="#mccc168261d" x="79.408378" y="102.981974" style="fill: #daa520; stroke: #daa520"/>
     <use xlink:href="#mccc168261d" x="228.44566" y="157.223337" style="fill: #daa520; stroke: #daa520"/>
     <use xlink:href="#mccc168261d" x="135.084866" y="92.567501" style="fill: #daa520; stroke: #daa520"/>
     <use xlink:href="#mccc168261d" x="167.655564" y="155.174001" style="fill: #daa520; stroke: #daa520"/>
     <use xlink:href="#mccc168261d" x="86.709122" y="154.662095" style="fill: #daa520; stroke: #daa520"/>
    </g>
   </g>
   <g id="matplotlib.axis_3"/>
   <g id="matplotlib.axis_4">
    <g id="ytick_1">
     <g id="line2d_3">
      <defs>
       <path id="mdc53a9817b" d="M 0 0 
L -3.5 0 
" style="stroke: #696969; stroke-width: 0.8"/>
      </defs>
      <g>
       <use xlink:href="#mdc53a9817b" x="37.7875" y="134.626871" style="fill: #696969; stroke: #696969; stroke-width: 0.8"/>
      </g>
     </g>
     <g id="text_1">
      <!-- 0 -->
      <g style="fill: #696969" transform="translate(20.6075 140.705621) scale(0.16 -0.16)">
       <defs>
        <path id="DejaVuSans-30" d="M 2034 4250 
Q 1547 4250 1301 3770 
Q 1056 3291 1056 2328 
Q 1056 1369 1301 889 
Q 1547 409 2034 409 
Q 2525 409 2770 889 
Q 3016 1369 3016 2328 
Q 3016 3291 2770 3770 
Q 2525 4250 2034 4250 
z
M 2034 4750 
Q 2819 4750 3233 4129 
Q 3647 3509 3647 2328 
Q 3647 1150 3233 529 
Q 2819 -91 2034 -91 
Q 1250 -91 836 529 
Q 422 1150 422 2328 
Q 422 3509 836 4129 
Q 1250 4750 2034 4750 
z
" transform="scale(0.015625)"/>
       </defs>
       <use xlink:href="#DejaVuSans-30"/>
      </g>
     </g>
    </g>
    <g id="ytick_2">
     <g id="line2d_4">
      <g>
       <use xlink:href="#mdc53a9817b" x="37.7875" y="90.270694" style="fill: #696969; stroke: #696969; stroke-width: 0.8"/>
      </g>
     </g>
     <g id="text_2">
      <!-- 5 -->
      <g style="fill: #696969" transform="translate(20.6075 96.349444) scale(0.16 -0.16)">
       <defs>
        <path id="DejaVuSans-35" d="M 691 4666 
L 3169 4666 
L 3169 4134 
L 1269 4134 
L 1269 2991 
Q 1406 3038 1543 3061 
Q 1681 3084 1819 3084 
Q 2600 3084 3056 2656 
Q 3513 2228 3513 1497 
Q 3513 744 3044 326 
Q 2575 -91 1722 -91 
Q 1428 -91 1123 -41 
Q 819 9 494 109 
L 494 744 
Q 775 591 1075 516 
Q 1375 441 1709 441 
Q 2250 441 2565 725 
Q 2881 1009 2881 1497 
Q 2881 1984 2565 2268 
Q 2250 2553 1709 2553 
Q 1456 2553 1204 2497 
Q 953 2441 691 2322 
L 691 4666 
z
" transform="scale(0.015625)"/>
       </defs>
       <use xlink:href="#DejaVuSans-35"/>
      </g>
     </g>
    </g>
   </g>
   <g id="line2d_5">
    <path d="M 55.888409 115.634883 
L 63.128773 114.339302 
L 70.369136 113.035537 
L 77.6095 111.762749 
L 84.849864 110.562147 
L 92.090227 109.475032 
L 99.330591 108.540748 
L 106.570955 107.794626 
L 113.811318 107.266123 
L 121.051682 106.9773 
L 128.292045 106.941753 
L 135.532409 107.164101 
L 142.772773 107.64003 
L 150.013136 108.356931 
L 157.2535 109.294999 
L 164.493864 110.428734 
L 171.734227 111.728676 
L 178.974591 113.1632 
L 186.214955 114.700235 
L 193.455318 116.30874 
L 200.695682 117.959866 
L 207.936045 119.627683 
L 215.176409 121.28953 
L 222.416773 122.925989 
L 229.657136 124.520543 
L 236.8975 126.05909 
L 244.137864 127.529375 
L 251.378227 128.920518 
L 258.618591 130.22266 
L 265.858955 131.426919 
L 273.099318 132.525527 
L 280.339682 133.512306 
L 287.580045 134.383271 
L 294.820409 135.137376 
L 302.060773 135.77726 
L 309.301136 136.309878 
L 316.5415 136.746879 
L 323.781864 137.104692 
L 331.022227 137.404244 
L 338.262591 137.670188 
L 345.502955 137.929825 
L 352.743318 138.211632 
L 359.983682 138.543551 
L 367.224045 138.951139 
L 374.464409 139.455761 
L 381.704773 140.072934 
L 388.945136 140.81102 
L 396.1855 141.67034 
L 403.425864 142.642925 
L 410.666227 143.712801 
L 417.906591 144.85698 
" clip-path="url(#p9fd3790c5e)" style="fill: none; stroke: #000000; stroke-width: 2; stroke-linecap: square"/>
   </g>
   <g id="line2d_6">
    <path d="M 55.888409 101.342577 
L 63.128773 102.544342 
L 70.369136 103.706535 
L 77.6095 104.831669 
L 84.849864 105.922158 
L 92.090227 106.980313 
L 99.330591 108.008348 
L 106.570955 109.008373 
L 113.811318 109.982402 
L 121.051682 110.932344 
L 128.292045 111.860011 
L 135.532409 112.767113 
L 142.772773 113.655261 
L 150.013136 114.525963 
L 157.2535 115.38063 
L 164.493864 116.22057 
L 171.734227 117.046992 
L 178.974591 117.861004 
L 186.214955 118.663614 
L 193.455318 119.45573 
L 200.695682 120.238159 
L 207.936045 121.011608 
L 215.176409 121.776682 
L 222.416773 122.533889 
L 229.657136 123.283633 
L 236.8975 124.026221 
L 244.137864 124.761857 
L 251.378227 125.490646 
L 258.618591 126.212591 
L 265.858955 126.927598 
L 273.099318 127.635469 
L 280.339682 128.335908 
L 287.580045 129.028517 
L 294.820409 129.7128 
L 302.060773 130.388157 
L 309.301136 131.05389 
L 316.5415 131.709202 
L 323.781864 132.353192 
L 331.022227 132.984862 
L 338.262591 133.603112 
L 345.502955 134.206741 
L 352.743318 134.794449 
L 359.983682 135.364836 
L 367.224045 135.9164 
L 374.464409 136.447539 
L 381.704773 136.956551 
L 388.945136 137.441635 
L 396.1855 137.900887 
L 403.425864 138.332305 
L 410.666227 138.733785 
L 417.906591 139.103123 
" clip-path="url(#p9fd3790c5e)" style="fill: none; stroke-dasharray: 7.4,3.2; stroke-dashoffset: 0; stroke: #34b6c6; stroke-width: 2"/>
   </g>
   <g id="line2d_7">
    <path d="M 55.888409 102.451658 
L 63.128773 103.548141 
L 70.369136 104.537511 
L 77.6095 105.431044 
L 84.849864 106.240576 
L 92.090227 106.978883 
L 99.330591 107.66019 
L 106.570955 108.300828 
L 113.811318 108.920013 
L 121.051682 109.540604 
L 128.292045 110.189494 
L 135.532409 110.897002 
L 142.772773 111.694274 
L 150.013136 112.607794 
L 157.2535 113.651213 
L 164.493864 114.81727 
L 171.734227 116.07521 
L 178.974591 117.378096 
L 186.214955 118.678241 
L 193.455318 119.942447 
L 200.695682 121.158775 
L 207.936045 122.332833 
L 215.176409 123.477567 
L 222.416773 124.602203 
L 229.657136 125.704608 
L 236.8975 126.769235 
L 244.137864 127.770982 
L 251.378227 128.683268 
L 258.618591 129.486615 
L 265.858955 130.173897 
L 273.099318 130.750619 
L 280.339682 131.231514 
L 287.580045 131.635967 
L 294.820409 131.984165 
L 302.060773 132.294694 
L 309.301136 132.583418 
L 316.5415 132.863208 
L 323.781864 133.144114 
L 331.022227 133.433707 
L 338.262591 133.737451 
L 345.502955 134.059039 
L 352.743318 134.400675 
L 359.983682 134.763306 
L 367.224045 135.146808 
L 374.464409 135.550144 
L 381.704773 135.97149 
L 388.945136 136.40834 
L 396.1855 136.857599 
L 403.425864 137.315661 
L 410.666227 137.778464 
L 417.906591 138.24155 
" clip-path="url(#p9fd3790c5e)" style="fill: none; stroke-dasharray: 7.4,3.2; stroke-dashoffset: 0; stroke: #9370db; stroke-width: 2"/>
   </g>
   <g id="line2d_8">
    <path d="M 55.888409 118.535477 
L 63.128773 118.238837 
L 70.369136 117.959166 
L 77.6095 117.701986 
L 84.849864 117.474412 
L 92.090227 117.285877 
L 99.330591 117.149113 
L 106.570955 117.081425 
L 113.811318 117.106186 
L 121.051682 117.254297 
L 128.292045 117.564946 
L 135.532409 118.084428 
L 142.772773 118.861145 
L 150.013136 119.935028 
L 157.2535 121.32178 
L 164.493864 122.997325 
L 171.734227 124.892819 
L 178.974591 126.908747 
L 186.214955 128.94466 
L 193.455318 130.928537 
L 200.695682 132.829834 
L 207.936045 134.652332 
L 215.176409 136.414454 
L 222.416773 138.127974 
L 229.657136 139.783284 
L 236.8975 141.345434 
L 244.137864 142.761578 
L 251.378227 143.976521 
L 258.618591 144.949274 
L 265.858955 145.663154 
L 273.099318 146.126331 
L 280.339682 146.365268 
L 287.580045 146.415898 
L 294.820409 146.316213 
L 302.060773 146.101629 
L 309.301136 145.802826 
L 316.5415 145.445228 
L 323.781864 145.04933 
L 331.022227 144.631362 
L 338.262591 144.204005 
L 345.502955 143.777032 
L 352.743318 143.357863 
L 359.983682 142.952 
L 367.224045 142.563396 
L 374.464409 142.194752 
L 381.704773 141.84776 
L 388.945136 141.523313 
L 396.1855 141.221677 
L 403.425864 140.942639 
L 410.666227 140.685623 
L 417.906591 140.449799 
" clip-path="url(#p9fd3790c5e)" style="fill: none; stroke-dasharray: 12.8,3.2,2,3.2; stroke-dashoffset: 0; stroke: #ff0000; stroke-width: 2"/>
   </g>
   <g id="patch_4">
    <path d="M 37.7875 165.688 
L 37.7875 70.696 
" style="fill: none; stroke: #000000; stroke-width: 0.8; stroke-linejoin: miter; stroke-linecap: square"/>
   </g>
   <g id="patch_5">
    <path d="M 436.0075 165.688 
L 436.0075 70.696 
" style="fill: none; stroke: #000000; stroke-width: 0.8; stroke-linejoin: miter; stroke-linecap: square"/>
   </g>
   <g id="patch_6">
    <path d="M 37.7875 165.688 
L 436.0075 165.688 
" style="fill: none; stroke: #000000; stroke-width: 0.8; stroke-linejoin: miter; stroke-linecap: square"/>
   </g>
   <g id="patch_7">
    <path d="M 37.7875 70.696 
L 436.0075 70.696 
" style="fill: none; stroke: #000000; stroke-width: 0.8; stroke-linejoin: miter; stroke-linecap: square"/>
   </g>
  </g>
  <g id="axes_3">
   <g id="patch_8">
    <path d="M 37.7875 276.68 
L 436.0075 276.68 
L 436.0075 181.688 
L 37.7875 181.688 
z
" style="fill: #ffffff"/>
   </g>
   <g id="PathCollection_2">
    <g clip-path="url(#p081287a9bf)">
     <use xlink:href="#mccc168261d" x="129.131009" y="219.381263" style="fill: #daa520; stroke: #daa520"/>
     <use xlink:href="#mccc168261d" x="312.652651" y="254.129453" style="fill: #daa520; stroke: #daa520"/>
     <use xlink:href="#mccc168261d" x="172.693365" y="204.577809" style="fill: #daa520; stroke: #daa520"/>
     <use xlink:href="#mccc168261d" x="83.29066" y="251.316981" style="fill: #daa520; stroke: #daa520"/>
     <use xlink:href="#mccc168261d" x="226.811086" y="205.736187" style="fill: #daa520; stroke: #daa520"/>
     <use xlink:href="#mccc168261d" x="129.057987" y="200.042394" style="fill: #daa520; stroke: #daa520"/>
     <use xlink:href="#mccc168261d" x="129.307524" y="194.450252" style="fill: #daa520; stroke: #daa520"/>
     <use xlink:href="#mccc168261d" x="279.372497" y="231.136439" style="fill: #daa520; stroke: #daa520"/>
     <use xlink:href="#mccc168261d" x="103.776674" y="237.60895" style="fill: #daa520; stroke: #daa520"/>
     <use xlink:href="#mccc168261d" x="279.822397" y="206.347484" style="fill: #daa520; stroke: #daa520"/>
     <use xlink:href="#mccc168261d" x="330.726959" y="211.176723" style="fill: #daa520; stroke: #daa520"/>
     <use xlink:href="#mccc168261d" x="116.722471" y="198.06129" style="fill: #daa520; stroke: #daa520"/>
     <use xlink:href="#mccc168261d" x="128.639334" y="186.005818" style="fill: #daa520; stroke: #daa520"/>
     <use xlink:href="#mccc168261d" x="203.427194" y="200.87635" style="fill: #daa520; stroke: #daa520"/>
     <use xlink:href="#mccc168261d" x="140.680103" y="247.309635" style="fill: #daa520; stroke: #daa520"/>
     <use xlink:href="#mccc168261d" x="117.02479" y="231.26835" style="fill: #daa520; stroke: #daa520"/>
     <use xlink:href="#mccc168261d" x="160.385642" y="196.357288" style="fill: #daa520; stroke: #daa520"/>
     <use xlink:href="#mccc168261d" x="57.834972" y="227.477561" style="fill: #daa520; stroke: #daa520"/>
     <use xlink:href="#mccc168261d" x="102.494722" y="199.157808" style="fill: #daa520; stroke: #daa520"/>
     <use xlink:href="#mccc168261d" x="74.780501" y="194.415412" style="fill: #daa520; stroke: #daa520"/>
     <use xlink:href="#mccc168261d" x="116.021857" y="250.066062" style="fill: #daa520; stroke: #daa520"/>
     <use xlink:href="#mccc168261d" x="127.308228" y="201.223579" style="fill: #daa520; stroke: #daa520"/>
     <use xlink:href="#mccc168261d" x="181.29604" y="255.367314" style="fill: #daa520; stroke: #daa520"/>
     <use xlink:href="#mccc168261d" x="140.158218" y="244.242888" style="fill: #daa520; stroke: #daa520"/>
     <use xlink:href="#mccc168261d" x="298.378362" y="257.80131" style="fill: #daa520; stroke: #daa520"/>
     <use xlink:href="#mccc168261d" x="195.47218" y="216.255371" style="fill: #daa520; stroke: #daa520"/>
     <use xlink:href="#mccc168261d" x="258.017999" y="269.392397" style="fill: #daa520; stroke: #daa520"/>
     <use xlink:href="#mccc168261d" x="117.187317" y="249.912144" style="fill: #daa520; stroke: #daa520"/>
     <use xlink:href="#mccc168261d" x="381.943574" y="226.989558" style="fill: #daa520; stroke: #daa520"/>
     <use xlink:href="#mccc168261d" x="113.738996" y="235.12458" style="fill: #daa520; stroke: #daa520"/>
     <use xlink:href="#mccc168261d" x="153.033261" y="247.118101" style="fill: #daa520; stroke: #daa520"/>
     <use xlink:href="#mccc168261d" x="80.325057" y="241.597097" style="fill: #daa520; stroke: #daa520"/>
     <use xlink:href="#mccc168261d" x="118.473182" y="189.444465" style="fill: #daa520; stroke: #daa520"/>
     <use xlink:href="#mccc168261d" x="59.562066" y="247.155038" style="fill: #daa520; stroke: #daa520"/>
     <use xlink:href="#mccc168261d" x="119.206929" y="220.343705" style="fill: #daa520; stroke: #daa520"/>
     <use xlink:href="#mccc168261d" x="103.182267" y="204.318189" style="fill: #daa520; stroke: #daa520"/>
     <use xlink:href="#mccc168261d" x="155.9651" y="250.613018" style="fill: #daa520; stroke: #daa520"/>
     <use xlink:href="#mccc168261d" x="103.69945" y="235.681544" style="fill: #daa520; stroke: #daa520"/>
     <use xlink:href="#mccc168261d" x="76.738994" y="210.238245" style="fill: #daa520; stroke: #daa520"/>
     <use xlink:href="#mccc168261d" x="64.258362" y="200.994282" style="fill: #daa520; stroke: #daa520"/>
     <use xlink:href="#mccc168261d" x="207.739842" y="217.917905" style="fill: #daa520; stroke: #daa520"/>
     <use xlink:href="#mccc168261d" x="245.666213" y="208.88481" style="fill: #daa520; stroke: #daa520"/>
     <use xlink:href="#mccc168261d" x="370.55725" y="221.817739" style="fill: #daa520; stroke: #daa520"/>
     <use xlink:href="#mccc168261d" x="68.391138" y="248.797813" style="fill: #daa520; stroke: #daa520"/>
     <use xlink:href="#mccc168261d" x="65.390931" y="247.132876" style="fill: #daa520; stroke: #daa520"/>
     <use xlink:href="#mccc168261d" x="66.084662" y="238.327346" style="fill: #daa520; stroke: #daa520"/>
     <use xlink:href="#mccc168261d" x="64.16058" y="249.244266" style="fill: #daa520; stroke: #daa520"/>
     <use xlink:href="#mccc168261d" x="388.477518" y="218.623174" style="fill: #daa520; stroke: #daa520"/>
     <use xlink:href="#mccc168261d" x="216.863667" y="205.390194" style="fill: #daa520; stroke: #daa520"/>
     <use xlink:href="#mccc168261d" x="59.798058" y="238.279417" style="fill: #daa520; stroke: #daa520"/>
     <use xlink:href="#mccc168261d" x="178.180556" y="261.051151" style="fill: #daa520; stroke: #daa520"/>
     <use xlink:href="#mccc168261d" x="321.58116" y="251.423913" style="fill: #daa520; stroke: #daa520"/>
     <use xlink:href="#mccc168261d" x="331.705737" y="229.440117" style="fill: #daa520; stroke: #daa520"/>
     <use xlink:href="#mccc168261d" x="100.305217" y="250.206995" style="fill: #daa520; stroke: #daa520"/>
     <use xlink:href="#mccc168261d" x="380.026238" y="208.746828" style="fill: #daa520; stroke: #daa520"/>
     <use xlink:href="#mccc168261d" x="70.979626" y="250.120668" style="fill: #daa520; stroke: #daa520"/>
     <use xlink:href="#mccc168261d" x="409.893678" y="236.111255" style="fill: #daa520; stroke: #daa520"/>
     <use xlink:href="#mccc168261d" x="200.039366" y="217.384916" style="fill: #daa520; stroke: #daa520"/>
     <use xlink:href="#mccc168261d" x="107.978505" y="247.980645" style="fill: #daa520; stroke: #daa520"/>
     <use xlink:href="#mccc168261d" x="119.224194" y="229.946346" style="fill: #daa520; stroke: #daa520"/>
     <use xlink:href="#mccc168261d" x="81.026755" y="192.510768" style="fill: #daa520; stroke: #daa520"/>
     <use xlink:href="#mccc168261d" x="144.319137" y="247.74525" style="fill: #daa520; stroke: #daa520"/>
     <use xlink:href="#mccc168261d" x="64.680393" y="235.97712" style="fill: #daa520; stroke: #daa520"/>
     <use xlink:href="#mccc168261d" x="122.209666" y="221.929281" style="fill: #daa520; stroke: #daa520"/>
     <use xlink:href="#mccc168261d" x="269.700468" y="266.477711" style="fill: #daa520; stroke: #daa520"/>
     <use xlink:href="#mccc168261d" x="58.116442" y="225.13984" style="fill: #daa520; stroke: #daa520"/>
     <use xlink:href="#mccc168261d" x="223.783567" y="270.418236" style="fill: #daa520; stroke: #daa520"/>
     <use xlink:href="#mccc168261d" x="101.058876" y="223.340783" style="fill: #daa520; stroke: #daa520"/>
     <use xlink:href="#mccc168261d" x="99.185991" y="228.77814" style="fill: #daa520; stroke: #daa520"/>
     <use xlink:href="#mccc168261d" x="371.244008" y="222.211671" style="fill: #daa520; stroke: #daa520"/>
     <use xlink:href="#mccc168261d" x="227.072564" y="206.176804" style="fill: #daa520; stroke: #daa520"/>
     <use xlink:href="#mccc168261d" x="85.841144" y="249.462054" style="fill: #daa520; stroke: #daa520"/>
     <use xlink:href="#mccc168261d" x="219.281191" y="272.362182" style="fill: #daa520; stroke: #daa520"/>
     <use xlink:href="#mccc168261d" x="104.620827" y="215.881901" style="fill: #daa520; stroke: #daa520"/>
     <use xlink:href="#mccc168261d" x="155.648531" y="230.028203" style="fill: #daa520; stroke: #daa520"/>
     <use xlink:href="#mccc168261d" x="92.253943" y="232.776648" style="fill: #daa520; stroke: #daa520"/>
     <use xlink:href="#mccc168261d" x="365.108674" y="234.583929" style="fill: #daa520; stroke: #daa520"/>
     <use xlink:href="#mccc168261d" x="339.842161" y="204.944082" style="fill: #daa520; stroke: #daa520"/>
     <use xlink:href="#mccc168261d" x="124.314233" y="248.0345" style="fill: #daa520; stroke: #daa520"/>
     <use xlink:href="#mccc168261d" x="84.028266" y="195.664659" style="fill: #daa520; stroke: #daa520"/>
     <use xlink:href="#mccc168261d" x="187.888913" y="266.09778" style="fill: #daa520; stroke: #daa520"/>
     <use xlink:href="#mccc168261d" x="111.915462" y="221.982384" style="fill: #daa520; stroke: #daa520"/>
     <use xlink:href="#mccc168261d" x="110.511429" y="241.359911" style="fill: #daa520; stroke: #daa520"/>
     <use xlink:href="#mccc168261d" x="75.145793" y="247.912728" style="fill: #daa520; stroke: #daa520"/>
     <use xlink:href="#mccc168261d" x="113.448177" y="232.873381" style="fill: #daa520; stroke: #daa520"/>
     <use xlink:href="#mccc168261d" x="193.463595" y="196.553479" style="fill: #daa520; stroke: #daa520"/>
     <use xlink:href="#mccc168261d" x="202.438032" y="269.269146" style="fill: #daa520; stroke: #daa520"/>
     <use xlink:href="#mccc168261d" x="146.048172" y="247.732234" style="fill: #daa520; stroke: #daa520"/>
     <use xlink:href="#mccc168261d" x="136.702671" y="247.978663" style="fill: #daa520; stroke: #daa520"/>
     <use xlink:href="#mccc168261d" x="97.534726" y="251.493409" style="fill: #daa520; stroke: #daa520"/>
     <use xlink:href="#mccc168261d" x="80.220464" y="244.936889" style="fill: #daa520; stroke: #daa520"/>
     <use xlink:href="#mccc168261d" x="305.744882" y="217.836197" style="fill: #daa520; stroke: #daa520"/>
     <use xlink:href="#mccc168261d" x="202.656392" y="206.627244" style="fill: #daa520; stroke: #daa520"/>
     <use xlink:href="#mccc168261d" x="89.269553" y="235.085575" style="fill: #daa520; stroke: #daa520"/>
     <use xlink:href="#mccc168261d" x="95.555498" y="198.105674" style="fill: #daa520; stroke: #daa520"/>
     <use xlink:href="#mccc168261d" x="366.834903" y="215.276232" style="fill: #daa520; stroke: #daa520"/>
     <use xlink:href="#mccc168261d" x="79.408378" y="231.892783" style="fill: #daa520; stroke: #daa520"/>
     <use xlink:href="#mccc168261d" x="228.44566" y="204.026307" style="fill: #daa520; stroke: #daa520"/>
     <use xlink:href="#mccc168261d" x="135.084866" y="241.204622" style="fill: #daa520; stroke: #daa520"/>
     <use xlink:href="#mccc168261d" x="167.655564" y="192.268593" style="fill: #daa520; stroke: #daa520"/>
     <use xlink:href="#mccc168261d" x="86.709122" y="187.215863" style="fill: #daa520; stroke: #daa520"/>
    </g>
   </g>
   <g id="matplotlib.axis_5">
    <g id="xtick_1">
     <g id="line2d_9">
      <defs>
       <path id="m241abc3e7a" d="M 0 0 
L 0 3.5 
" style="stroke: #696969; stroke-width: 0.8"/>
      </defs>
      <g>
       <use xlink:href="#m241abc3e7a" x="55.888409" y="276.68" style="fill: #696969; stroke: #696969; stroke-width: 0.8"/>
      </g>
     </g>
     <g id="text_3">
      <!-- −1.0 -->
      <g style="fill: #696969" transform="translate(36.462159 295.8375) scale(0.16 -0.16)">
       <defs>
        <path id="DejaVuSans-2212" d="M 678 2272 
L 4684 2272 
L 4684 1741 
L 678 1741 
L 678 2272 
z
" transform="scale(0.015625)"/>
        <path id="DejaVuSans-31" d="M 794 531 
L 1825 531 
L 1825 4091 
L 703 3866 
L 703 4441 
L 1819 4666 
L 2450 4666 
L 2450 531 
L 3481 531 
L 3481 0 
L 794 0 
L 794 531 
z
" transform="scale(0.015625)"/>
        <path id="DejaVuSans-2e" d="M 684 794 
L 1344 794 
L 1344 0 
L 684 0 
L 684 794 
z
" transform="scale(0.015625)"/>
       </defs>
       <use xlink:href="#DejaVuSans-2212"/>
       <use xlink:href="#DejaVuSans-31" x="83.789062"/>
       <use xlink:href="#DejaVuSans-2e" x="147.412109"/>
       <use xlink:href="#DejaVuSans-30" x="179.199219"/>
      </g>
     </g>
    </g>
    <g id="xtick_2">
     <g id="line2d_10">
      <g>
       <use xlink:href="#m241abc3e7a" x="146.392955" y="276.68" style="fill: #696969; stroke: #696969; stroke-width: 0.8"/>
      </g>
     </g>
     <g id="text_4">
      <!-- −0.5 -->
      <g style="fill: #696969" transform="translate(126.966705 295.8375) scale(0.16 -0.16)">
       <use xlink:href="#DejaVuSans-2212"/>
       <use xlink:href="#DejaVuSans-30" x="83.789062"/>
       <use xlink:href="#DejaVuSans-2e" x="147.412109"/>
       <use xlink:href="#DejaVuSans-35" x="179.199219"/>
      </g>
     </g>
    </g>
    <g id="xtick_3">
     <g id="line2d_11">
      <g>
       <use xlink:href="#m241abc3e7a" x="236.8975" y="276.68" style="fill: #696969; stroke: #696969; stroke-width: 0.8"/>
      </g>
     </g>
     <g id="text_5">
      <!-- 0.0 -->
      <g style="fill: #696969" transform="translate(224.175 295.8375) scale(0.16 -0.16)">
       <use xlink:href="#DejaVuSans-30"/>
       <use xlink:href="#DejaVuSans-2e" x="63.623047"/>
       <use xlink:href="#DejaVuSans-30" x="95.410156"/>
      </g>
     </g>
    </g>
    <g id="xtick_4">
     <g id="line2d_12">
      <g>
       <use xlink:href="#m241abc3e7a" x="327.402045" y="276.68" style="fill: #696969; stroke: #696969; stroke-width: 0.8"/>
      </g>
     </g>
     <g id="text_6">
      <!-- 0.5 -->
      <g style="fill: #696969" transform="translate(314.679545 295.8375) scale(0.16 -0.16)">
       <use xlink:href="#DejaVuSans-30"/>
       <use xlink:href="#DejaVuSans-2e" x="63.623047"/>
       <use xlink:href="#DejaVuSans-35" x="95.410156"/>
      </g>
     </g>
    </g>
    <g id="xtick_5">
     <g id="line2d_13">
      <g>
       <use xlink:href="#m241abc3e7a" x="417.906591" y="276.68" style="fill: #696969; stroke: #696969; stroke-width: 0.8"/>
      </g>
     </g>
     <g id="text_7">
      <!-- 1.0 -->
      <g style="fill: #696969" transform="translate(405.184091 295.8375) scale(0.16 -0.16)">
       <use xlink:href="#DejaVuSans-31"/>
       <use xlink:href="#DejaVuSans-2e" x="63.623047"/>
       <use xlink:href="#DejaVuSans-30" x="95.410156"/>
      </g>
     </g>
    </g>
    <g id="text_8">
     <!-- $X$ -->
     <g transform="translate(231.3775 315.3225) scale(0.16 -0.16)">
      <defs>
       <path id="DejaVuSans-Oblique-58" d="M 878 4666 
L 1516 4666 
L 2316 2981 
L 3763 4666 
L 4500 4666 
L 2578 2438 
L 3738 0 
L 3103 0 
L 2163 1966 
L 459 0 
L -275 0 
L 1906 2509 
L 878 4666 
z
" transform="scale(0.015625)"/>
      </defs>
      <use xlink:href="#DejaVuSans-Oblique-58" transform="translate(0 0.09375)"/>
     </g>
    </g>
   </g>
   <g id="matplotlib.axis_6">
    <g id="ytick_3">
     <g id="line2d_14">
      <g>
       <use xlink:href="#mdc53a9817b" x="37.7875" y="257.455401" style="fill: #696969; stroke: #696969; stroke-width: 0.8"/>
      </g>
     </g>
     <g id="text_9">
      <!-- −5 -->
      <g style="fill: #696969" transform="translate(7.2 263.534151) scale(0.16 -0.16)">
       <use xlink:href="#DejaVuSans-2212"/>
       <use xlink:href="#DejaVuSans-35" x="83.789062"/>
      </g>
     </g>
    </g>
    <g id="ytick_4">
     <g id="line2d_15">
      <g>
       <use xlink:href="#mdc53a9817b" x="37.7875" y="219.272885" style="fill: #696969; stroke: #696969; stroke-width: 0.8"/>
      </g>
     </g>
     <g id="text_10">
      <!-- 0 -->
      <g style="fill: #696969" transform="translate(20.6075 225.351635) scale(0.16 -0.16)">
       <use xlink:href="#DejaVuSans-30"/>
      </g>
     </g>
    </g>
   </g>
   <g id="line2d_16">
    <path d="M 55.888409 221.769764 
L 63.128773 222.629668 
L 70.369136 223.511225 
L 77.6095 224.385476 
L 84.849864 225.223075 
L 92.090227 225.996588 
L 99.330591 226.683105 
L 106.570955 227.267112 
L 113.811318 227.743371 
L 121.051682 228.119491 
L 128.292045 228.417502 
L 135.532409 228.673279 
L 142.772773 228.932203 
L 150.013136 229.239499 
L 157.2535 229.625734 
L 164.493864 230.092132 
L 171.734227 230.604792 
L 178.974591 231.105275 
L 186.214955 231.534717 
L 193.455318 231.857843 
L 200.695682 232.073194 
L 207.936045 232.206346 
L 215.176409 232.292665 
L 222.416773 232.359 
L 229.657136 232.4113 
L 236.8975 232.431618 
L 244.137864 232.385012 
L 251.378227 232.233336 
L 258.618591 231.949792 
L 265.858955 231.527667 
L 273.099318 230.980677 
L 280.339682 230.336923 
L 287.580045 229.630765 
L 294.820409 228.895809 
L 302.060773 228.160269 
L 309.301136 227.444569 
L 316.5415 226.760565 
L 323.781864 226.111758 
L 331.022227 225.494106 
L 338.262591 224.897301 
L 345.502955 224.306256 
L 352.743318 223.702844 
L 359.983682 223.067749 
L 367.224045 222.382375 
L 374.464409 221.630653 
L 381.704773 220.800685 
L 388.945136 219.886039 
L 396.1855 218.886669 
L 403.425864 217.809251 
L 410.666227 216.667042 
L 417.906591 215.479112 
" clip-path="url(#p081287a9bf)" style="fill: none; stroke: #696969; stroke-width: 2; stroke-linecap: square"/>
   </g>
   <g id="line2d_17">
    <path d="M 55.888409 232.233081 
L 63.128773 231.117869 
L 70.369136 230.163366 
L 77.6095 229.357626 
L 84.849864 228.689065 
L 92.090227 228.146453 
L 99.330591 227.718924 
L 106.570955 227.395967 
L 113.811318 227.167433 
L 121.051682 227.023528 
L 128.292045 226.954821 
L 135.532409 226.952236 
L 142.772773 227.00706 
L 150.013136 227.110934 
L 157.2535 227.255862 
L 164.493864 227.434204 
L 171.734227 227.638681 
L 178.974591 227.862372 
L 186.214955 228.098714 
L 193.455318 228.341503 
L 200.695682 228.584896 
L 207.936045 228.823406 
L 215.176409 229.051906 
L 222.416773 229.265629 
L 229.657136 229.460164 
L 236.8975 229.631462 
L 244.137864 229.775831 
L 251.378227 229.889938 
L 258.618591 229.970808 
L 265.858955 230.015828 
L 273.099318 230.022741 
L 280.339682 229.989649 
L 287.580045 229.915013 
L 294.820409 229.797655 
L 302.060773 229.636752 
L 309.301136 229.431843 
L 316.5415 229.182825 
L 323.781864 228.889953 
L 331.022227 228.553842 
L 338.262591 228.175465 
L 345.502955 227.756153 
L 352.743318 227.297599 
L 359.983682 226.801851 
L 367.224045 226.271318 
L 374.464409 225.708768 
L 381.704773 225.117327 
L 388.945136 224.50048 
L 396.1855 223.86207 
L 403.425864 223.206302 
L 410.666227 222.537736 
L 417.906591 221.861293 
" clip-path="url(#p081287a9bf)" style="fill: none; stroke-dasharray: 7.4,3.2; stroke-dashoffset: 0; stroke: #79ad41; stroke-width: 2"/>
   </g>
   <g id="patch_9">
    <path d="M 37.7875 276.68 
L 37.7875 181.688 
" style="fill: none; stroke: #000000; stroke-width: 0.8; stroke-linejoin: miter; stroke-linecap: square"/>
   </g>
   <g id="patch_10">
    <path d="M 436.0075 276.68 
L 436.0075 181.688 
" style="fill: none; stroke: #000000; stroke-width: 0.8; stroke-linejoin: miter; stroke-linecap: square"/>
   </g>
   <g id="patch_11">
    <path d="M 37.7875 276.68 
L 436.0075 276.68 
" style="fill: none; stroke: #000000; stroke-width: 0.8; stroke-linejoin: miter; stroke-linecap: square"/>
   </g>
   <g id="patch_12">
    <path d="M 37.7875 181.688 
L 436.0075 181.688 
" style="fill: none; stroke: #000000; stroke-width: 0.8; stroke-linejoin: miter; stroke-linecap: square"/>
   </g>
  </g>
 </g>
 <defs>
  <clipPath id="p835eacb213">
   <rect x="37.7875" y="7.2" width="398.22" height="47.496"/>
  </clipPath>
  <clipPath id="p9fd3790c5e">
   <rect x="37.7875" y="70.696" width="398.22" height="94.992"/>
  </clipPath>
  <clipPath id="p081287a9bf">
   <rect x="37.7875" y="181.688" width="398.22" height="94.992"/>
  </clipPath>
 </defs>
</svg>
