<?xml version="1.0" encoding="utf-8" standalone="no"?>
<!DOCTYPE svg PUBLIC "-//W3C//DTD SVG 1.1//EN"
  "http://www.w3.org/Graphics/SVG/1.1/DTD/svg11.dtd">
<svg xmlns:xlink="http://www.w3.org/1999/xlink" width="443.2625pt" height="325.85pt" viewBox="0 0 443.2625 325.85" xmlns="http://www.w3.org/2000/svg" version="1.1">
 <metadata>
  <rdf:RDF xmlns:dc="http://purl.org/dc/elements/1.1/" xmlns:cc="http://creativecommons.org/ns#" xmlns:rdf="http://www.w3.org/1999/02/22-rdf-syntax-ns#">
   <cc:Work>
    <dc:type rdf:resource="http://purl.org/dc/dcmitype/StillImage"/>
    <dc:date>2024-01-28T20:54:27.852832</dc:date>
    <dc:format>image/svg+xml</dc:format>
    <dc:creator>
     <cc:Agent>
      <dc:title>Matplotlib v3.7.2, https://matplotlib.org/</dc:title>
     </cc:Agent>
    </dc:creator>
   </cc:Work>
  </rdf:RDF>
 </metadata>
 <defs>
  <style type="text/css">*{stroke-linejoin: round; stroke-linecap: butt}</style>
 </defs>
 <g id="figure_1">
  <g id="patch_1">
   <path d="M 0 325.85 
L 443.2625 325.85 
L 443.2625 0 
L 0 0 
z
" style="fill: #ffffff"/>
  </g>
  <g id="axes_1">
   <g id="patch_2">
    <path d="M 53.0525 52.463555 
L 436.0625 52.463555 
L 436.0625 7.2 
L 53.0525 7.2 
z
" style="fill: #ffffff"/>
   </g>
   <g id="PolyCollection_1">
    <defs>
     <path id="m0ac8e5e1bb" d="M 70.462045 -275.44388 
L 70.462045 -280.015956 
L 77.425864 -280.015956 
L 84.389682 -280.015956 
L 91.3535 -280.015956 
L 98.317318 -280.015956 
L 105.281136 -280.015956 
L 112.244955 -280.015956 
L 119.208773 -280.015956 
L 126.172591 -280.015956 
L 133.136409 -280.015956 
L 140.100227 -280.015956 
L 147.064045 -280.015956 
L 154.027864 -280.015956 
L 160.991682 -280.015956 
L 167.9555 -280.015956 
L 174.919318 -280.015956 
L 181.883136 -280.015956 
L 188.846955 -280.015956 
L 195.810773 -280.538067 
L 202.774591 -281.521344 
L 209.738409 -282.718989 
L 216.702227 -284.166566 
L 223.666045 -285.896296 
L 230.629864 -287.930761 
L 237.593682 -290.274878 
L 244.5575 -292.907472 
L 251.521318 -295.775261 
L 258.485136 -298.792487 
L 265.448955 -301.848699 
L 272.412773 -304.82409 
L 279.376591 -307.60836 
L 286.340409 -310.11703 
L 293.304227 -312.300342 
L 300.268045 -314.143331 
L 307.231864 -315.659248 
L 314.195682 -316.592566 
L 321.1595 -316.592566 
L 328.123318 -316.592566 
L 335.087136 -316.592566 
L 342.050955 -316.592566 
L 349.014773 -316.592566 
L 355.978591 -316.592566 
L 362.942409 -316.592566 
L 369.906227 -316.592566 
L 376.870045 -316.592566 
L 383.833864 -316.592566 
L 390.797682 -316.592566 
L 397.7615 -316.592566 
L 404.725318 -316.592566 
L 411.689136 -316.592566 
L 418.652955 -316.592566 
L 418.652955 -275.44388 
L 418.652955 -275.44388 
L 411.689136 -275.44388 
L 404.725318 -275.44388 
L 397.7615 -275.44388 
L 390.797682 -275.44388 
L 383.833864 -275.44388 
L 376.870045 -275.44388 
L 369.906227 -275.44388 
L 362.942409 -275.44388 
L 355.978591 -275.44388 
L 349.014773 -275.44388 
L 342.050955 -275.44388 
L 335.087136 -275.44388 
L 328.123318 -275.44388 
L 321.1595 -275.44388 
L 314.195682 -275.44388 
L 307.231864 -275.44388 
L 300.268045 -275.44388 
L 293.304227 -275.44388 
L 286.340409 -275.44388 
L 279.376591 -275.44388 
L 272.412773 -275.44388 
L 265.448955 -275.44388 
L 258.485136 -275.44388 
L 251.521318 -275.44388 
L 244.5575 -275.44388 
L 237.593682 -275.44388 
L 230.629864 -275.44388 
L 223.666045 -275.44388 
L 216.702227 -275.44388 
L 209.738409 -275.44388 
L 202.774591 -275.44388 
L 195.810773 -275.44388 
L 188.846955 -275.44388 
L 181.883136 -275.44388 
L 174.919318 -275.44388 
L 167.9555 -275.44388 
L 160.991682 -275.44388 
L 154.027864 -275.44388 
L 147.064045 -275.44388 
L 140.100227 -275.44388 
L 133.136409 -275.44388 
L 126.172591 -275.44388 
L 119.208773 -275.44388 
L 112.244955 -275.44388 
L 105.281136 -275.44388 
L 98.317318 -275.44388 
L 91.3535 -275.44388 
L 84.389682 -275.44388 
L 77.425864 -275.44388 
L 70.462045 -275.44388 
z
" style="stroke: #dc143c; stroke-opacity: 0.2"/>
    </defs>
    <g clip-path="url(#p821a4da018)">
     <use xlink:href="#m0ac8e5e1bb" x="0" y="325.85" style="fill: #dc143c; fill-opacity: 0.2; stroke: #dc143c; stroke-opacity: 0.2"/>
    </g>
   </g>
   <g id="PolyCollection_2">
    <defs>
     <path id="m89f1da30d7" d="M 70.462045 -275.44388 
L 70.462045 -316.592566 
L 77.425864 -316.592566 
L 84.389682 -316.592566 
L 91.3535 -316.592566 
L 98.317318 -316.592566 
L 105.281136 -316.592566 
L 112.244955 -316.592566 
L 119.208773 -316.592566 
L 126.172591 -316.592566 
L 133.136409 -316.592566 
L 140.100227 -316.592566 
L 147.064045 -316.592566 
L 154.027864 -316.592566 
L 160.991682 -316.592566 
L 167.9555 -316.592566 
L 174.919318 -316.592566 
L 181.883136 -316.592566 
L 188.846955 -316.592566 
L 195.810773 -316.070455 
L 202.774591 -315.087178 
L 209.738409 -313.889533 
L 216.702227 -312.441956 
L 223.666045 -310.712225 
L 230.629864 -308.67776 
L 237.593682 -306.333644 
L 244.5575 -303.70105 
L 251.521318 -300.833261 
L 258.485136 -297.816034 
L 265.448955 -294.759823 
L 272.412773 -291.784432 
L 279.376591 -289.000162 
L 286.340409 -286.491492 
L 293.304227 -284.30818 
L 300.268045 -282.465191 
L 307.231864 -280.949273 
L 314.195682 -280.015956 
L 321.1595 -280.015956 
L 328.123318 -280.015956 
L 335.087136 -280.015956 
L 342.050955 -280.015956 
L 349.014773 -280.015956 
L 355.978591 -280.015956 
L 362.942409 -280.015956 
L 369.906227 -280.015956 
L 376.870045 -280.015956 
L 383.833864 -280.015956 
L 390.797682 -280.015956 
L 397.7615 -280.015956 
L 404.725318 -280.015956 
L 411.689136 -280.015956 
L 418.652955 -280.015956 
L 418.652955 -275.44388 
L 418.652955 -275.44388 
L 411.689136 -275.44388 
L 404.725318 -275.44388 
L 397.7615 -275.44388 
L 390.797682 -275.44388 
L 383.833864 -275.44388 
L 376.870045 -275.44388 
L 369.906227 -275.44388 
L 362.942409 -275.44388 
L 355.978591 -275.44388 
L 349.014773 -275.44388 
L 342.050955 -275.44388 
L 335.087136 -275.44388 
L 328.123318 -275.44388 
L 321.1595 -275.44388 
L 314.195682 -275.44388 
L 307.231864 -275.44388 
L 300.268045 -275.44388 
L 293.304227 -275.44388 
L 286.340409 -275.44388 
L 279.376591 -275.44388 
L 272.412773 -275.44388 
L 265.448955 -275.44388 
L 258.485136 -275.44388 
L 251.521318 -275.44388 
L 244.5575 -275.44388 
L 237.593682 -275.44388 
L 230.629864 -275.44388 
L 223.666045 -275.44388 
L 216.702227 -275.44388 
L 209.738409 -275.44388 
L 202.774591 -275.44388 
L 195.810773 -275.44388 
L 188.846955 -275.44388 
L 181.883136 -275.44388 
L 174.919318 -275.44388 
L 167.9555 -275.44388 
L 160.991682 -275.44388 
L 154.027864 -275.44388 
L 147.064045 -275.44388 
L 140.100227 -275.44388 
L 133.136409 -275.44388 
L 126.172591 -275.44388 
L 119.208773 -275.44388 
L 112.244955 -275.44388 
L 105.281136 -275.44388 
L 98.317318 -275.44388 
L 91.3535 -275.44388 
L 84.389682 -275.44388 
L 77.425864 -275.44388 
L 70.462045 -275.44388 
z
" style="stroke: #000080; stroke-opacity: 0.2"/>
    </defs>
    <g clip-path="url(#p821a4da018)">
     <use xlink:href="#m89f1da30d7" x="0" y="325.85" style="fill: #000080; fill-opacity: 0.2; stroke: #000080; stroke-opacity: 0.2"/>
    </g>
   </g>
   <g id="matplotlib.axis_1"/>
   <g id="matplotlib.axis_2"/>
   <g id="line2d_1">
    <path d="M 70.462045 45.834044 
L 77.425864 45.834044 
L 84.389682 45.834044 
L 91.3535 45.834044 
L 98.317318 45.834044 
L 105.281136 45.834044 
L 112.244955 45.834044 
L 119.208773 45.834044 
L 126.172591 45.834044 
L 133.136409 45.834044 
L 140.100227 45.834044 
L 147.064045 45.834044 
L 154.027864 45.834044 
L 160.991682 45.834044 
L 167.9555 45.834044 
L 174.919318 45.834044 
L 181.883136 45.834044 
L 188.846955 45.834044 
L 195.810773 45.311933 
L 202.774591 44.328656 
L 209.738409 43.131011 
L 216.702227 41.683434 
L 223.666045 39.953704 
L 230.629864 37.919239 
L 237.593682 35.575122 
L 244.5575 32.942528 
L 251.521318 30.074739 
L 258.485136 27.057513 
L 265.448955 24.001301 
L 272.412773 21.02591 
L 279.376591 18.24164 
L 286.340409 15.73297 
L 293.304227 13.549658 
L 300.268045 11.706669 
L 307.231864 10.190752 
L 314.195682 9.257434 
L 321.1595 9.257434 
L 328.123318 9.257434 
L 335.087136 9.257434 
L 342.050955 9.257434 
L 349.014773 9.257434 
L 355.978591 9.257434 
L 362.942409 9.257434 
L 369.906227 9.257434 
L 376.870045 9.257434 
L 383.833864 9.257434 
L 390.797682 9.257434 
L 397.7615 9.257434 
L 404.725318 9.257434 
L 411.689136 9.257434 
L 418.652955 9.257434 
" clip-path="url(#p821a4da018)" style="fill: none; stroke: #dc143c; stroke-width: 1.5; stroke-linecap: square"/>
   </g>
   <g id="line2d_2">
    <path d="M 70.462045 9.257434 
L 77.425864 9.257434 
L 84.389682 9.257434 
L 91.3535 9.257434 
L 98.317318 9.257434 
L 105.281136 9.257434 
L 112.244955 9.257434 
L 119.208773 9.257434 
L 126.172591 9.257434 
L 133.136409 9.257434 
L 140.100227 9.257434 
L 147.064045 9.257434 
L 154.027864 9.257434 
L 160.991682 9.257434 
L 167.9555 9.257434 
L 174.919318 9.257434 
L 181.883136 9.257434 
L 188.846955 9.257434 
L 195.810773 9.779545 
L 202.774591 10.762822 
L 209.738409 11.960467 
L 216.702227 13.408044 
L 223.666045 15.137775 
L 230.629864 17.17224 
L 237.593682 19.516356 
L 244.5575 22.14895 
L 251.521318 25.016739 
L 258.485136 28.033966 
L 265.448955 31.090177 
L 272.412773 34.065568 
L 279.376591 36.849838 
L 286.340409 39.358508 
L 293.304227 41.54182 
L 300.268045 43.384809 
L 307.231864 44.900727 
L 314.195682 45.834044 
L 321.1595 45.834044 
L 328.123318 45.834044 
L 335.087136 45.834044 
L 342.050955 45.834044 
L 349.014773 45.834044 
L 355.978591 45.834044 
L 362.942409 45.834044 
L 369.906227 45.834044 
L 376.870045 45.834044 
L 383.833864 45.834044 
L 390.797682 45.834044 
L 397.7615 45.834044 
L 404.725318 45.834044 
L 411.689136 45.834044 
L 418.652955 45.834044 
" clip-path="url(#p821a4da018)" style="fill: none; stroke: #000080; stroke-width: 1.5; stroke-linecap: square"/>
   </g>
  </g>
  <g id="axes_2">
   <g id="patch_3">
    <path d="M 53.0525 164.571777 
L 436.0625 164.571777 
L 436.0625 74.044668 
L 53.0525 74.044668 
z
" style="fill: #ffffff"/>
   </g>
   <g id="PathCollection_1">
    <defs>
     <path id="me93d384ac7" d="M 0 0.866025 
C 0.229673 0.866025 0.449969 0.774776 0.612372 0.612372 
C 0.774776 0.449969 0.866025 0.229673 0.866025 0 
C 0.866025 -0.229673 0.774776 -0.449969 0.612372 -0.612372 
C 0.449969 -0.774776 0.229673 -0.866025 0 -0.866025 
C -0.229673 -0.866025 -0.449969 -0.774776 -0.612372 -0.612372 
C -0.774776 -0.449969 -0.866025 -0.229673 -0.866025 0 
C -0.866025 0.229673 -0.774776 0.449969 -0.612372 0.612372 
C -0.449969 0.774776 -0.229673 0.866025 0 0.866025 
z
" style="stroke: #daa520"/>
    </defs>
    <g clip-path="url(#pcceca720a5)">
     <use xlink:href="#me93d384ac7" x="342.690506" y="86.50507" style="fill: #daa520; stroke: #daa520"/>
     <use xlink:href="#me93d384ac7" x="146.840205" y="104.259799" style="fill: #daa520; stroke: #daa520"/>
     <use xlink:href="#me93d384ac7" x="402.140102" y="139.759733" style="fill: #daa520; stroke: #daa520"/>
     <use xlink:href="#me93d384ac7" x="323.849098" y="122.239641" style="fill: #daa520; stroke: #daa520"/>
     <use xlink:href="#me93d384ac7" x="415.783603" y="100.97331" style="fill: #daa520; stroke: #daa520"/>
     <use xlink:href="#me93d384ac7" x="398.476874" y="123.153813" style="fill: #daa520; stroke: #daa520"/>
     <use xlink:href="#me93d384ac7" x="325.794985" y="100.911386" style="fill: #daa520; stroke: #daa520"/>
     <use xlink:href="#me93d384ac7" x="238.940585" y="153.075853" style="fill: #daa520; stroke: #daa520"/>
     <use xlink:href="#me93d384ac7" x="300.112802" y="124.047267" style="fill: #daa520; stroke: #daa520"/>
     <use xlink:href="#me93d384ac7" x="298.551461" y="124.26285" style="fill: #daa520; stroke: #daa520"/>
     <use xlink:href="#me93d384ac7" x="359.658284" y="111.69782" style="fill: #daa520; stroke: #daa520"/>
     <use xlink:href="#me93d384ac7" x="331.123795" y="138.91891" style="fill: #daa520; stroke: #daa520"/>
     <use xlink:href="#me93d384ac7" x="323.478745" y="118.821178" style="fill: #daa520; stroke: #daa520"/>
     <use xlink:href="#me93d384ac7" x="400.355317" y="123.445782" style="fill: #daa520; stroke: #daa520"/>
     <use xlink:href="#me93d384ac7" x="208.877681" y="109.895822" style="fill: #daa520; stroke: #daa520"/>
     <use xlink:href="#me93d384ac7" x="212.454323" y="117.806806" style="fill: #daa520; stroke: #daa520"/>
     <use xlink:href="#me93d384ac7" x="377.691168" y="103.277119" style="fill: #daa520; stroke: #daa520"/>
     <use xlink:href="#me93d384ac7" x="407.110573" y="130.658723" style="fill: #daa520; stroke: #daa520"/>
     <use xlink:href="#me93d384ac7" x="374.145361" y="131.970998" style="fill: #daa520; stroke: #daa520"/>
     <use xlink:href="#me93d384ac7" x="370.364467" y="135.00585" style="fill: #daa520; stroke: #daa520"/>
     <use xlink:href="#me93d384ac7" x="346.729789" y="114.991622" style="fill: #daa520; stroke: #daa520"/>
     <use xlink:href="#me93d384ac7" x="344.322677" y="135.055993" style="fill: #daa520; stroke: #daa520"/>
     <use xlink:href="#me93d384ac7" x="348.437909" y="88.470172" style="fill: #daa520; stroke: #daa520"/>
     <use xlink:href="#me93d384ac7" x="357.712091" y="119.706855" style="fill: #daa520; stroke: #daa520"/>
     <use xlink:href="#me93d384ac7" x="229.251776" y="112.290403" style="fill: #daa520; stroke: #daa520"/>
     <use xlink:href="#me93d384ac7" x="358.426582" y="86.396722" style="fill: #daa520; stroke: #daa520"/>
     <use xlink:href="#me93d384ac7" x="308.858064" y="97.002287" style="fill: #daa520; stroke: #daa520"/>
     <use xlink:href="#me93d384ac7" x="137.702566" y="127.6055" style="fill: #daa520; stroke: #daa520"/>
     <use xlink:href="#me93d384ac7" x="328.522133" y="97.565583" style="fill: #daa520; stroke: #daa520"/>
     <use xlink:href="#me93d384ac7" x="149.053252" y="103.488675" style="fill: #daa520; stroke: #daa520"/>
     <use xlink:href="#me93d384ac7" x="318.662644" y="116.617556" style="fill: #daa520; stroke: #daa520"/>
     <use xlink:href="#me93d384ac7" x="364.181172" y="89.033502" style="fill: #daa520; stroke: #daa520"/>
     <use xlink:href="#me93d384ac7" x="102.567319" y="142.008753" style="fill: #daa520; stroke: #daa520"/>
     <use xlink:href="#me93d384ac7" x="385.422115" y="94.993472" style="fill: #daa520; stroke: #daa520"/>
     <use xlink:href="#me93d384ac7" x="313.575589" y="135.931551" style="fill: #daa520; stroke: #daa520"/>
     <use xlink:href="#me93d384ac7" x="373.041465" y="111.937534" style="fill: #daa520; stroke: #daa520"/>
     <use xlink:href="#me93d384ac7" x="295.079359" y="124.741882" style="fill: #daa520; stroke: #daa520"/>
     <use xlink:href="#me93d384ac7" x="414.27773" y="123.266176" style="fill: #daa520; stroke: #daa520"/>
     <use xlink:href="#me93d384ac7" x="174.398069" y="109.448041" style="fill: #daa520; stroke: #daa520"/>
     <use xlink:href="#me93d384ac7" x="314.739736" y="152.786113" style="fill: #daa520; stroke: #daa520"/>
     <use xlink:href="#me93d384ac7" x="311.75212" y="94.167258" style="fill: #daa520; stroke: #daa520"/>
     <use xlink:href="#me93d384ac7" x="286.234794" y="134.788265" style="fill: #daa520; stroke: #daa520"/>
     <use xlink:href="#me93d384ac7" x="209.729572" y="122.331259" style="fill: #daa520; stroke: #daa520"/>
     <use xlink:href="#me93d384ac7" x="93.01079" y="127.479786" style="fill: #daa520; stroke: #daa520"/>
     <use xlink:href="#me93d384ac7" x="172.331283" y="105.792808" style="fill: #daa520; stroke: #daa520"/>
     <use xlink:href="#me93d384ac7" x="287.150448" y="125.91232" style="fill: #daa520; stroke: #daa520"/>
     <use xlink:href="#me93d384ac7" x="117.979536" y="106.522431" style="fill: #daa520; stroke: #daa520"/>
     <use xlink:href="#me93d384ac7" x="294.994658" y="160.456909" style="fill: #daa520; stroke: #daa520"/>
     <use xlink:href="#me93d384ac7" x="366.83757" y="119.057569" style="fill: #daa520; stroke: #daa520"/>
     <use xlink:href="#me93d384ac7" x="297.827943" y="123.390893" style="fill: #daa520; stroke: #daa520"/>
     <use xlink:href="#me93d384ac7" x="365.491576" y="82.087652" style="fill: #daa520; stroke: #daa520"/>
     <use xlink:href="#me93d384ac7" x="320.990551" y="97.007198" style="fill: #daa520; stroke: #daa520"/>
     <use xlink:href="#me93d384ac7" x="330.738172" y="123.787974" style="fill: #daa520; stroke: #daa520"/>
     <use xlink:href="#me93d384ac7" x="367.392129" y="111.085155" style="fill: #daa520; stroke: #daa520"/>
     <use xlink:href="#me93d384ac7" x="359.328168" y="148.64483" style="fill: #daa520; stroke: #daa520"/>
     <use xlink:href="#me93d384ac7" x="381.119399" y="78.159537" style="fill: #daa520; stroke: #daa520"/>
     <use xlink:href="#me93d384ac7" x="335.384805" y="107.586272" style="fill: #daa520; stroke: #daa520"/>
     <use xlink:href="#me93d384ac7" x="312.842557" y="159.204943" style="fill: #daa520; stroke: #daa520"/>
     <use xlink:href="#me93d384ac7" x="321.099675" y="120.119801" style="fill: #daa520; stroke: #daa520"/>
     <use xlink:href="#me93d384ac7" x="413.98962" y="107.34288" style="fill: #daa520; stroke: #daa520"/>
     <use xlink:href="#me93d384ac7" x="372.282447" y="78.223409" style="fill: #daa520; stroke: #daa520"/>
     <use xlink:href="#me93d384ac7" x="365.714557" y="109.400449" style="fill: #daa520; stroke: #daa520"/>
     <use xlink:href="#me93d384ac7" x="358.838692" y="145.302232" style="fill: #daa520; stroke: #daa520"/>
     <use xlink:href="#me93d384ac7" x="332.639373" y="117.267274" style="fill: #daa520; stroke: #daa520"/>
     <use xlink:href="#me93d384ac7" x="371.492394" y="109.562852" style="fill: #daa520; stroke: #daa520"/>
     <use xlink:href="#me93d384ac7" x="301.215758" y="158.307998" style="fill: #daa520; stroke: #daa520"/>
     <use xlink:href="#me93d384ac7" x="359.545431" y="106.095611" style="fill: #daa520; stroke: #daa520"/>
     <use xlink:href="#me93d384ac7" x="342.984858" y="106.681518" style="fill: #daa520; stroke: #daa520"/>
     <use xlink:href="#me93d384ac7" x="322.952796" y="140.651813" style="fill: #daa520; stroke: #daa520"/>
     <use xlink:href="#me93d384ac7" x="310.945147" y="94.475051" style="fill: #daa520; stroke: #daa520"/>
     <use xlink:href="#me93d384ac7" x="328.287337" y="152.785246" style="fill: #daa520; stroke: #daa520"/>
     <use xlink:href="#me93d384ac7" x="295.261793" y="98.103007" style="fill: #daa520; stroke: #daa520"/>
     <use xlink:href="#me93d384ac7" x="324.56126" y="118.486838" style="fill: #daa520; stroke: #daa520"/>
     <use xlink:href="#me93d384ac7" x="244.49619" y="110.379911" style="fill: #daa520; stroke: #daa520"/>
     <use xlink:href="#me93d384ac7" x="401.782661" y="126.843227" style="fill: #daa520; stroke: #daa520"/>
     <use xlink:href="#me93d384ac7" x="262.842657" y="118.703433" style="fill: #daa520; stroke: #daa520"/>
     <use xlink:href="#me93d384ac7" x="358.798327" y="112.791688" style="fill: #daa520; stroke: #daa520"/>
     <use xlink:href="#me93d384ac7" x="332.910962" y="123.018201" style="fill: #daa520; stroke: #daa520"/>
     <use xlink:href="#me93d384ac7" x="301.049965" y="96.364945" style="fill: #daa520; stroke: #daa520"/>
     <use xlink:href="#me93d384ac7" x="305.629069" y="122.950475" style="fill: #daa520; stroke: #daa520"/>
     <use xlink:href="#me93d384ac7" x="290.849494" y="148.478409" style="fill: #daa520; stroke: #daa520"/>
     <use xlink:href="#me93d384ac7" x="359.33561" y="89.888523" style="fill: #daa520; stroke: #daa520"/>
     <use xlink:href="#me93d384ac7" x="358.537804" y="110.121175" style="fill: #daa520; stroke: #daa520"/>
     <use xlink:href="#me93d384ac7" x="80.599467" y="108.099486" style="fill: #daa520; stroke: #daa520"/>
     <use xlink:href="#me93d384ac7" x="403.135266" y="133.599879" style="fill: #daa520; stroke: #daa520"/>
     <use xlink:href="#me93d384ac7" x="324.837073" y="106.110447" style="fill: #daa520; stroke: #daa520"/>
     <use xlink:href="#me93d384ac7" x="353.382981" y="91.836508" style="fill: #daa520; stroke: #daa520"/>
     <use xlink:href="#me93d384ac7" x="368.766014" y="90.338867" style="fill: #daa520; stroke: #daa520"/>
     <use xlink:href="#me93d384ac7" x="274.262383" y="103.299822" style="fill: #daa520; stroke: #daa520"/>
     <use xlink:href="#me93d384ac7" x="414.658153" y="104.538455" style="fill: #daa520; stroke: #daa520"/>
     <use xlink:href="#me93d384ac7" x="371.14897" y="111.511237" style="fill: #daa520; stroke: #daa520"/>
     <use xlink:href="#me93d384ac7" x="270.80138" y="125.320304" style="fill: #daa520; stroke: #daa520"/>
     <use xlink:href="#me93d384ac7" x="331.895801" y="126.604905" style="fill: #daa520; stroke: #daa520"/>
     <use xlink:href="#me93d384ac7" x="336.262726" y="127.914306" style="fill: #daa520; stroke: #daa520"/>
     <use xlink:href="#me93d384ac7" x="403.240204" y="139.766896" style="fill: #daa520; stroke: #daa520"/>
     <use xlink:href="#me93d384ac7" x="364.100631" y="78.80418" style="fill: #daa520; stroke: #daa520"/>
     <use xlink:href="#me93d384ac7" x="255.40842" y="125.940442" style="fill: #daa520; stroke: #daa520"/>
     <use xlink:href="#me93d384ac7" x="385.986654" y="104.246798" style="fill: #daa520; stroke: #daa520"/>
     <use xlink:href="#me93d384ac7" x="381.320226" y="84.915698" style="fill: #daa520; stroke: #daa520"/>
     <use xlink:href="#me93d384ac7" x="417.895396" y="96.866958" style="fill: #daa520; stroke: #daa520"/>
     <use xlink:href="#me93d384ac7" x="366.584949" y="103.868302" style="fill: #daa520; stroke: #daa520"/>
    </g>
   </g>
   <g id="matplotlib.axis_3"/>
   <g id="matplotlib.axis_4">
    <g id="ytick_1">
     <g id="line2d_3">
      <defs>
       <path id="m0e968cde93" d="M 0 0 
L -3.5 0 
" style="stroke: #696969; stroke-width: 0.8"/>
      </defs>
      <g>
       <use xlink:href="#m0e968cde93" x="53.0525" y="149.351707" style="fill: #696969; stroke: #696969; stroke-width: 0.8"/>
      </g>
     </g>
     <g id="text_1">
      <!-- −2.5 -->
      <g style="fill: #696969" transform="translate(7.2 155.430457) scale(0.16 -0.16)">
       <defs>
        <path id="DejaVuSans-2212" d="M 678 2272 
L 4684 2272 
L 4684 1741 
L 678 1741 
L 678 2272 
z
" transform="scale(0.015625)"/>
        <path id="DejaVuSans-32" d="M 1228 531 
L 3431 531 
L 3431 0 
L 469 0 
L 469 531 
Q 828 903 1448 1529 
Q 2069 2156 2228 2338 
Q 2531 2678 2651 2914 
Q 2772 3150 2772 3378 
Q 2772 3750 2511 3984 
Q 2250 4219 1831 4219 
Q 1534 4219 1204 4116 
Q 875 4013 500 3803 
L 500 4441 
Q 881 4594 1212 4672 
Q 1544 4750 1819 4750 
Q 2544 4750 2975 4387 
Q 3406 4025 3406 3419 
Q 3406 3131 3298 2873 
Q 3191 2616 2906 2266 
Q 2828 2175 2409 1742 
Q 1991 1309 1228 531 
z
" transform="scale(0.015625)"/>
        <path id="DejaVuSans-2e" d="M 684 794 
L 1344 794 
L 1344 0 
L 684 0 
L 684 794 
z
" transform="scale(0.015625)"/>
        <path id="DejaVuSans-35" d="M 691 4666 
L 3169 4666 
L 3169 4134 
L 1269 4134 
L 1269 2991 
Q 1406 3038 1543 3061 
Q 1681 3084 1819 3084 
Q 2600 3084 3056 2656 
Q 3513 2228 3513 1497 
Q 3513 744 3044 326 
Q 2575 -91 1722 -91 
Q 1428 -91 1123 -41 
Q 819 9 494 109 
L 494 744 
Q 775 591 1075 516 
Q 1375 441 1709 441 
Q 2250 441 2565 725 
Q 2881 1009 2881 1497 
Q 2881 1984 2565 2268 
Q 2250 2553 1709 2553 
Q 1456 2553 1204 2497 
Q 953 2441 691 2322 
L 691 4666 
z
" transform="scale(0.015625)"/>
       </defs>
       <use xlink:href="#DejaVuSans-2212"/>
       <use xlink:href="#DejaVuSans-32" x="83.789062"/>
       <use xlink:href="#DejaVuSans-2e" x="147.412109"/>
       <use xlink:href="#DejaVuSans-35" x="179.199219"/>
      </g>
     </g>
    </g>
    <g id="ytick_2">
     <g id="line2d_4">
      <g>
       <use xlink:href="#m0e968cde93" x="53.0525" y="122.413852" style="fill: #696969; stroke: #696969; stroke-width: 0.8"/>
      </g>
     </g>
     <g id="text_2">
      <!-- 0.0 -->
      <g style="fill: #696969" transform="translate(20.6075 128.492602) scale(0.16 -0.16)">
       <defs>
        <path id="DejaVuSans-30" d="M 2034 4250 
Q 1547 4250 1301 3770 
Q 1056 3291 1056 2328 
Q 1056 1369 1301 889 
Q 1547 409 2034 409 
Q 2525 409 2770 889 
Q 3016 1369 3016 2328 
Q 3016 3291 2770 3770 
Q 2525 4250 2034 4250 
z
M 2034 4750 
Q 2819 4750 3233 4129 
Q 3647 3509 3647 2328 
Q 3647 1150 3233 529 
Q 2819 -91 2034 -91 
Q 1250 -91 836 529 
Q 422 1150 422 2328 
Q 422 3509 836 4129 
Q 1250 4750 2034 4750 
z
" transform="scale(0.015625)"/>
       </defs>
       <use xlink:href="#DejaVuSans-30"/>
       <use xlink:href="#DejaVuSans-2e" x="63.623047"/>
       <use xlink:href="#DejaVuSans-30" x="95.410156"/>
      </g>
     </g>
    </g>
    <g id="ytick_3">
     <g id="line2d_5">
      <g>
       <use xlink:href="#m0e968cde93" x="53.0525" y="95.475997" style="fill: #696969; stroke: #696969; stroke-width: 0.8"/>
      </g>
     </g>
     <g id="text_3">
      <!-- 2.5 -->
      <g style="fill: #696969" transform="translate(20.6075 101.554747) scale(0.16 -0.16)">
       <use xlink:href="#DejaVuSans-32"/>
       <use xlink:href="#DejaVuSans-2e" x="63.623047"/>
       <use xlink:href="#DejaVuSans-35" x="95.410156"/>
      </g>
     </g>
    </g>
   </g>
   <g id="line2d_6">
    <path d="M 70.462045 132.265994 
L 77.425864 129.524217 
L 84.389682 126.72244 
L 91.3535 123.932736 
L 98.317318 121.226557 
L 105.281136 118.671919 
L 112.244955 116.330921 
L 119.208773 114.257525 
L 126.172591 112.495866 
L 133.136409 111.079009 
L 140.100227 110.028242 
L 147.064045 109.352867 
L 154.027864 109.050437 
L 160.991682 109.107427 
L 167.9555 109.5002 
L 174.919318 110.196178 
L 181.883136 111.155185 
L 188.846955 112.3308 
L 195.810773 113.67172 
L 202.774591 115.123073 
L 209.738409 116.62768 
L 216.702227 118.127322 
L 223.666045 119.564004 
L 230.629864 120.881338 
L 237.593682 122.025994 
L 244.5575 122.949378 
L 251.521318 123.609357 
L 258.485136 123.972113 
L 265.448955 124.013934 
L 272.412773 123.722848 
L 279.376591 123.099936 
L 286.340409 122.160081 
L 293.304227 120.932157 
L 300.268045 119.458398 
L 307.231864 117.793015 
L 314.195682 116.000005 
L 321.1595 114.150321 
L 328.123318 112.318511 
L 335.087136 110.579063 
L 342.050955 109.002702 
L 349.014773 107.652861 
L 355.978591 106.582562 
L 362.942409 105.83191 
L 369.906227 105.426293 
L 376.870045 105.375394 
L 383.833864 105.673025 
L 390.797682 106.297732 
L 397.7615 107.214099 
L 404.725318 108.374689 
L 411.689136 109.722425 
L 418.652955 111.193366 
" clip-path="url(#pcceca720a5)" style="fill: none; stroke: #000000; stroke-width: 2; stroke-linecap: square"/>
   </g>
   <g id="line2d_7">
    <path d="M 70.462045 132.750965 
L 77.425864 127.73248 
L 84.389682 123.574978 
L 91.3535 120.200052 
L 98.317318 117.532403 
L 105.281136 115.499841 
L 112.244955 114.033286 
L 119.208773 113.066769 
L 126.172591 112.537427 
L 133.136409 112.385508 
L 140.100227 112.55437 
L 147.064045 112.990479 
L 154.027864 113.643411 
L 160.991682 114.465851 
L 167.9555 115.413594 
L 174.919318 116.445543 
L 181.883136 117.523712 
L 188.846955 118.613223 
L 195.810773 119.682308 
L 202.774591 120.702307 
L 209.738409 121.647672 
L 216.702227 122.495962 
L 223.666045 123.227845 
L 230.629864 123.827101 
L 237.593682 124.280616 
L 244.5575 124.578388 
L 251.521318 124.713523 
L 258.485136 124.682237 
L 265.448955 124.483854 
L 272.412773 124.120808 
L 279.376591 123.598643 
L 286.340409 122.926012 
L 293.304227 122.114676 
L 300.268045 121.179508 
L 307.231864 120.138488 
L 314.195682 119.012706 
L 321.1595 117.826361 
L 328.123318 116.606762 
L 335.087136 115.384328 
L 342.050955 114.192584 
L 349.014773 113.068169 
L 355.978591 112.050827 
L 362.942409 111.183414 
L 369.906227 110.511895 
L 376.870045 110.085343 
L 383.833864 109.955941 
L 390.797682 110.178983 
L 397.7615 110.812869 
L 404.725318 111.919112 
L 411.689136 113.56233 
L 418.652955 115.810255 
" clip-path="url(#pcceca720a5)" style="fill: none; stroke-dasharray: 7.4,3.2; stroke-dashoffset: 0; stroke: #34b6c6; stroke-width: 2"/>
   </g>
   <g id="line2d_8">
    <path d="M 70.462045 129.968568 
L 77.425864 128.94313 
L 84.389682 126.502973 
L 91.3535 123.195961 
L 98.317318 120.171695 
L 105.281136 118.032257 
L 112.244955 116.512977 
L 119.208773 115.145026 
L 126.172591 113.713705 
L 133.136409 112.317057 
L 140.100227 111.210646 
L 147.064045 110.597367 
L 154.027864 110.520379 
L 160.991682 110.898378 
L 167.9555 111.613603 
L 174.919318 112.572485 
L 181.883136 113.724096 
L 188.846955 115.051391 
L 195.810773 116.548996 
L 202.774591 118.196366 
L 209.738409 119.937316 
L 216.702227 121.679576 
L 223.666045 123.318224 
L 230.629864 124.7674 
L 237.593682 125.977873 
L 244.5575 126.932506 
L 251.521318 127.628416 
L 258.485136 128.057944 
L 265.448955 128.195454 
L 272.412773 127.993903 
L 279.376591 127.396834 
L 286.340409 126.371844 
L 293.304227 124.956731 
L 300.268045 123.276878 
L 307.231864 121.488199 
L 314.195682 119.674727 
L 321.1595 117.807001 
L 328.123318 115.83003 
L 335.087136 113.817687 
L 342.050955 112.004472 
L 349.014773 110.615352 
L 355.978591 109.71755 
L 362.942409 109.255373 
L 369.906227 109.157218 
L 376.870045 109.406176 
L 383.833864 110.058016 
L 390.797682 111.177423 
L 397.7615 112.668453 
L 404.725318 114.193443 
L 411.689136 115.405318 
L 418.652955 116.183297 
" clip-path="url(#pcceca720a5)" style="fill: none; stroke-dasharray: 7.4,3.2; stroke-dashoffset: 0; stroke: #9370db; stroke-width: 2"/>
   </g>
   <g id="line2d_9">
    <path d="M 70.462045 137.071835 
L 77.425864 134.938525 
L 84.389682 131.750472 
L 91.3535 127.943191 
L 98.317318 124.436607 
L 105.281136 121.710255 
L 112.244955 119.546394 
L 119.208773 117.563191 
L 126.172591 115.583506 
L 133.136409 113.682056 
L 140.100227 112.060511 
L 147.064045 110.87835 
L 154.027864 110.166713 
L 160.991682 109.856777 
L 167.9555 109.850579 
L 174.919318 110.069818 
L 181.883136 110.470699 
L 188.846955 111.03689 
L 195.810773 111.761647 
L 202.774591 112.626209 
L 209.738409 113.583333 
L 216.702227 114.556936 
L 223.666045 115.460944 
L 230.629864 116.224822 
L 237.593682 116.807703 
L 244.5575 117.194741 
L 251.521318 117.382756 
L 258.485136 117.364918 
L 265.448955 117.120129 
L 272.412773 116.610259 
L 279.376591 115.789796 
L 286.340409 114.632782 
L 293.304227 113.169942 
L 300.268045 111.502676 
L 307.231864 109.757149 
L 314.195682 108.001877 
L 321.1595 106.214244 
L 328.123318 104.351284 
L 335.087136 102.473924 
L 342.050955 100.772541 
L 349.014773 99.430034 
L 355.978591 98.502567 
L 362.942409 97.947583 
L 369.906227 97.70992 
L 376.870045 97.778625 
L 383.833864 98.20142 
L 390.797682 99.033399 
L 397.7615 100.200594 
L 404.725318 101.434721 
L 411.689136 102.460117 
L 418.652955 103.183414 
" clip-path="url(#pcceca720a5)" style="fill: none; stroke-dasharray: 12.8,3.2,2,3.2; stroke-dashoffset: 0; stroke: #ff0000; stroke-width: 2"/>
   </g>
   <g id="patch_4">
    <path d="M 53.0525 164.571777 
L 53.0525 74.044668 
" style="fill: none; stroke: #000000; stroke-width: 0.8; stroke-linejoin: miter; stroke-linecap: square"/>
   </g>
   <g id="patch_5">
    <path d="M 436.0625 164.571777 
L 436.0625 74.044668 
" style="fill: none; stroke: #000000; stroke-width: 0.8; stroke-linejoin: miter; stroke-linecap: square"/>
   </g>
   <g id="patch_6">
    <path d="M 53.0525 164.571777 
L 436.0625 164.571777 
" style="fill: none; stroke: #000000; stroke-width: 0.8; stroke-linejoin: miter; stroke-linecap: square"/>
   </g>
   <g id="patch_7">
    <path d="M 53.0525 74.044668 
L 436.0625 74.044668 
" style="fill: none; stroke: #000000; stroke-width: 0.8; stroke-linejoin: miter; stroke-linecap: square"/>
   </g>
  </g>
  <g id="axes_3">
   <g id="patch_8">
    <path d="M 53.0525 276.68 
L 436.0625 276.68 
L 436.0625 186.152891 
L 53.0525 186.152891 
z
" style="fill: #ffffff"/>
   </g>
   <g id="PathCollection_2">
    <g clip-path="url(#p9f0efa6ca3)">
     <use xlink:href="#me93d384ac7" x="342.690506" y="260.300145" style="fill: #daa520; stroke: #daa520"/>
     <use xlink:href="#me93d384ac7" x="146.840205" y="252.241486" style="fill: #daa520; stroke: #daa520"/>
     <use xlink:href="#me93d384ac7" x="402.140102" y="203.296875" style="fill: #daa520; stroke: #daa520"/>
     <use xlink:href="#me93d384ac7" x="323.849098" y="227.041558" style="fill: #daa520; stroke: #daa520"/>
     <use xlink:href="#me93d384ac7" x="415.783603" y="247.174767" style="fill: #daa520; stroke: #daa520"/>
     <use xlink:href="#me93d384ac7" x="398.476874" y="220.481033" style="fill: #daa520; stroke: #daa520"/>
     <use xlink:href="#me93d384ac7" x="325.794985" y="249.462926" style="fill: #daa520; stroke: #daa520"/>
     <use xlink:href="#me93d384ac7" x="238.940585" y="206.090703" style="fill: #daa520; stroke: #daa520"/>
     <use xlink:href="#me93d384ac7" x="300.112802" y="231.599608" style="fill: #daa520; stroke: #daa520"/>
     <use xlink:href="#me93d384ac7" x="298.551461" y="231.781433" style="fill: #daa520; stroke: #daa520"/>
     <use xlink:href="#me93d384ac7" x="359.658284" y="230.495399" style="fill: #daa520; stroke: #daa520"/>
     <use xlink:href="#me93d384ac7" x="331.123795" y="206.946294" style="fill: #daa520; stroke: #daa520"/>
     <use xlink:href="#me93d384ac7" x="323.478745" y="230.831583" style="fill: #daa520; stroke: #daa520"/>
     <use xlink:href="#me93d384ac7" x="400.355317" y="220.532898" style="fill: #daa520; stroke: #daa520"/>
     <use xlink:href="#me93d384ac7" x="208.877681" y="248.919762" style="fill: #daa520; stroke: #daa520"/>
     <use xlink:href="#me93d384ac7" x="212.454323" y="240.937364" style="fill: #daa520; stroke: #daa520"/>
     <use xlink:href="#me93d384ac7" x="377.691168" y="239.183519" style="fill: #daa520; stroke: #daa520"/>
     <use xlink:href="#me93d384ac7" x="407.110573" y="213.997751" style="fill: #daa520; stroke: #daa520"/>
     <use xlink:href="#me93d384ac7" x="374.145361" y="208.159932" style="fill: #daa520; stroke: #daa520"/>
     <use xlink:href="#me93d384ac7" x="370.364467" y="204.880327" style="fill: #daa520; stroke: #daa520"/>
     <use xlink:href="#me93d384ac7" x="346.729789" y="228.732349" style="fill: #daa520; stroke: #daa520"/>
     <use xlink:href="#me93d384ac7" x="344.322677" y="207.611651" style="fill: #daa520; stroke: #daa520"/>
     <use xlink:href="#me93d384ac7" x="348.437909" y="256.989582" style="fill: #daa520; stroke: #daa520"/>
     <use xlink:href="#me93d384ac7" x="357.712091" y="222.04271" style="fill: #daa520; stroke: #daa520"/>
     <use xlink:href="#me93d384ac7" x="229.251776" y="249.167818" style="fill: #daa520; stroke: #daa520"/>
     <use xlink:href="#me93d384ac7" x="358.426582" y="257.869373" style="fill: #daa520; stroke: #daa520"/>
     <use xlink:href="#me93d384ac7" x="308.858064" y="258.379868" style="fill: #daa520; stroke: #daa520"/>
     <use xlink:href="#me93d384ac7" x="137.702566" y="228.879195" style="fill: #daa520; stroke: #daa520"/>
     <use xlink:href="#me93d384ac7" x="328.522133" y="252.271833" style="fill: #daa520; stroke: #daa520"/>
     <use xlink:href="#me93d384ac7" x="149.053252" y="252.770672" style="fill: #daa520; stroke: #daa520"/>
     <use xlink:href="#me93d384ac7" x="318.662644" y="234.564371" style="fill: #daa520; stroke: #daa520"/>
     <use xlink:href="#me93d384ac7" x="364.181172" y="254.612911" style="fill: #daa520; stroke: #daa520"/>
     <use xlink:href="#me93d384ac7" x="102.567319" y="224.251667" style="fill: #daa520; stroke: #daa520"/>
     <use xlink:href="#me93d384ac7" x="385.422115" y="248.698382" style="fill: #daa520; stroke: #daa520"/>
     <use xlink:href="#me93d384ac7" x="313.575589" y="215.147985" style="fill: #daa520; stroke: #daa520"/>
     <use xlink:href="#me93d384ac7" x="373.041465" y="229.735242" style="fill: #daa520; stroke: #daa520"/>
     <use xlink:href="#me93d384ac7" x="295.079359" y="232.163638" style="fill: #daa520; stroke: #daa520"/>
     <use xlink:href="#me93d384ac7" x="414.27773" y="222.982373" style="fill: #daa520; stroke: #daa520"/>
     <use xlink:href="#me93d384ac7" x="174.398069" y="245.721582" style="fill: #daa520; stroke: #daa520"/>
     <use xlink:href="#me93d384ac7" x="314.739736" y="196.667928" style="fill: #daa520; stroke: #daa520"/>
     <use xlink:href="#me93d384ac7" x="311.75212" y="260.649445" style="fill: #daa520; stroke: #daa520"/>
     <use xlink:href="#me93d384ac7" x="286.234794" y="223.378153" style="fill: #daa520; stroke: #daa520"/>
     <use xlink:href="#me93d384ac7" x="209.729572" y="235.648174" style="fill: #daa520; stroke: #daa520"/>
     <use xlink:href="#me93d384ac7" x="93.01079" y="244.612932" style="fill: #daa520; stroke: #daa520"/>
     <use xlink:href="#me93d384ac7" x="172.331283" y="249.572954" style="fill: #daa520; stroke: #daa520"/>
     <use xlink:href="#me93d384ac7" x="287.150448" y="232.753535" style="fill: #daa520; stroke: #daa520"/>
     <use xlink:href="#me93d384ac7" x="117.979536" y="257.349451" style="fill: #daa520; stroke: #daa520"/>
     <use xlink:href="#me93d384ac7" x="294.994658" y="193.698126" style="fill: #daa520; stroke: #daa520"/>
     <use xlink:href="#me93d384ac7" x="366.83757" y="222.144887" style="fill: #daa520; stroke: #daa520"/>
     <use xlink:href="#me93d384ac7" x="297.827943" y="232.911164" style="fill: #daa520; stroke: #daa520"/>
     <use xlink:href="#me93d384ac7" x="365.491576" y="262.035821" style="fill: #daa520; stroke: #daa520"/>
     <use xlink:href="#me93d384ac7" x="320.990551" y="255.045635" style="fill: #daa520; stroke: #daa520"/>
     <use xlink:href="#me93d384ac7" x="330.738172" y="223.364421" style="fill: #daa520; stroke: #daa520"/>
     <use xlink:href="#me93d384ac7" x="367.392129" y="230.718244" style="fill: #daa520; stroke: #daa520"/>
     <use xlink:href="#me93d384ac7" x="359.328168" y="190.709009" style="fill: #daa520; stroke: #daa520"/>
     <use xlink:href="#me93d384ac7" x="381.119399" y="266.445775" style="fill: #daa520; stroke: #daa520"/>
     <use xlink:href="#me93d384ac7" x="335.384805" y="239.483294" style="fill: #daa520; stroke: #daa520"/>
     <use xlink:href="#me93d384ac7" x="312.842557" y="190.267759" style="fill: #daa520; stroke: #daa520"/>
     <use xlink:href="#me93d384ac7" x="321.099675" y="230.108463" style="fill: #daa520; stroke: #daa520"/>
     <use xlink:href="#me93d384ac7" x="413.98962" y="240.107392" style="fill: #daa520; stroke: #daa520"/>
     <use xlink:href="#me93d384ac7" x="372.282447" y="266.062038" style="fill: #daa520; stroke: #daa520"/>
     <use xlink:href="#me93d384ac7" x="365.714557" y="232.593829" style="fill: #daa520; stroke: #daa520"/>
     <use xlink:href="#me93d384ac7" x="358.838692" y="194.354275" style="fill: #daa520; stroke: #daa520"/>
     <use xlink:href="#me93d384ac7" x="332.639373" y="229.836728" style="fill: #daa520; stroke: #daa520"/>
     <use xlink:href="#me93d384ac7" x="371.492394" y="232.290428" style="fill: #daa520; stroke: #daa520"/>
     <use xlink:href="#me93d384ac7" x="301.215758" y="194.384735" style="fill: #daa520; stroke: #daa520"/>
     <use xlink:href="#me93d384ac7" x="359.545431" y="236.541932" style="fill: #daa520; stroke: #daa520"/>
     <use xlink:href="#me93d384ac7" x="342.984858" y="238.489423" style="fill: #daa520; stroke: #daa520"/>
     <use xlink:href="#me93d384ac7" x="322.952796" y="207.457081" style="fill: #daa520; stroke: #daa520"/>
     <use xlink:href="#me93d384ac7" x="310.945147" y="260.536863" style="fill: #daa520; stroke: #daa520"/>
     <use xlink:href="#me93d384ac7" x="328.287337" y="192.835312" style="fill: #daa520; stroke: #daa520"/>
     <use xlink:href="#me93d384ac7" x="295.261793" y="260.82378" style="fill: #daa520; stroke: #daa520"/>
     <use xlink:href="#me93d384ac7" x="324.56126" y="230.880611" style="fill: #daa520; stroke: #daa520"/>
     <use xlink:href="#me93d384ac7" x="244.49619" y="252.417381" style="fill: #daa520; stroke: #daa520"/>
     <use xlink:href="#me93d384ac7" x="401.782661" y="217.14755" style="fill: #daa520; stroke: #daa520"/>
     <use xlink:href="#me93d384ac7" x="262.842657" y="243.499808" style="fill: #daa520; stroke: #daa520"/>
     <use xlink:href="#me93d384ac7" x="358.798327" y="229.391665" style="fill: #daa520; stroke: #daa520"/>
     <use xlink:href="#me93d384ac7" x="332.910962" y="223.560768" style="fill: #daa520; stroke: #daa520"/>
     <use xlink:href="#me93d384ac7" x="301.049965" y="261.179762" style="fill: #daa520; stroke: #daa520"/>
     <use xlink:href="#me93d384ac7" x="305.629069" y="231.293977" style="fill: #daa520; stroke: #daa520"/>
     <use xlink:href="#me93d384ac7" x="290.849494" y="207.615374" style="fill: #daa520; stroke: #daa520"/>
     <use xlink:href="#me93d384ac7" x="359.33561" y="254.024847" style="fill: #daa520; stroke: #daa520"/>
     <use xlink:href="#me93d384ac7" x="358.537804" y="232.293286" style="fill: #daa520; stroke: #daa520"/>
     <use xlink:href="#me93d384ac7" x="80.599467" y="272.565131" style="fill: #daa520; stroke: #daa520"/>
     <use xlink:href="#me93d384ac7" x="403.135266" y="210.122792" style="fill: #daa520; stroke: #daa520"/>
     <use xlink:href="#me93d384ac7" x="324.837073" y="244.137915" style="fill: #daa520; stroke: #daa520"/>
     <use xlink:href="#me93d384ac7" x="353.382981" y="252.58175" style="fill: #daa520; stroke: #daa520"/>
     <use xlink:href="#me93d384ac7" x="368.766014" y="253.03934" style="fill: #daa520; stroke: #daa520"/>
     <use xlink:href="#me93d384ac7" x="274.262383" y="259.219522" style="fill: #daa520; stroke: #daa520"/>
     <use xlink:href="#me93d384ac7" x="414.658153" y="243.207772" style="fill: #daa520; stroke: #daa520"/>
     <use xlink:href="#me93d384ac7" x="371.14897" y="230.192218" style="fill: #daa520; stroke: #daa520"/>
     <use xlink:href="#me93d384ac7" x="270.80138" y="235.845511" style="fill: #daa520; stroke: #daa520"/>
     <use xlink:href="#me93d384ac7" x="331.895801" y="219.990599" style="fill: #daa520; stroke: #daa520"/>
     <use xlink:href="#me93d384ac7" x="336.262726" y="217.332158" style="fill: #daa520; stroke: #daa520"/>
     <use xlink:href="#me93d384ac7" x="403.240204" y="203.496753" style="fill: #daa520; stroke: #daa520"/>
     <use xlink:href="#me93d384ac7" x="364.100631" y="265.640339" style="fill: #daa520; stroke: #daa520"/>
     <use xlink:href="#me93d384ac7" x="255.40842" y="235.872159" style="fill: #daa520; stroke: #daa520"/>
     <use xlink:href="#me93d384ac7" x="385.986654" y="238.791287" style="fill: #daa520; stroke: #daa520"/>
     <use xlink:href="#me93d384ac7" x="381.320226" y="259.179835" style="fill: #daa520; stroke: #daa520"/>
     <use xlink:href="#me93d384ac7" x="417.895396" y="251.813071" style="fill: #daa520; stroke: #daa520"/>
     <use xlink:href="#me93d384ac7" x="366.584949" y="238.521806" style="fill: #daa520; stroke: #daa520"/>
    </g>
   </g>
   <g id="matplotlib.axis_5">
    <g id="xtick_1">
     <g id="line2d_10">
      <defs>
       <path id="me2bd835b2a" d="M 0 0 
L 0 3.5 
" style="stroke: #696969; stroke-width: 0.8"/>
      </defs>
      <g>
       <use xlink:href="#me2bd835b2a" x="70.462045" y="276.68" style="fill: #696969; stroke: #696969; stroke-width: 0.8"/>
      </g>
     </g>
     <g id="text_4">
      <!-- −1.0 -->
      <g style="fill: #696969" transform="translate(51.035795 295.8375) scale(0.16 -0.16)">
       <defs>
        <path id="DejaVuSans-31" d="M 794 531 
L 1825 531 
L 1825 4091 
L 703 3866 
L 703 4441 
L 1819 4666 
L 2450 4666 
L 2450 531 
L 3481 531 
L 3481 0 
L 794 0 
L 794 531 
z
" transform="scale(0.015625)"/>
       </defs>
       <use xlink:href="#DejaVuSans-2212"/>
       <use xlink:href="#DejaVuSans-31" x="83.789062"/>
       <use xlink:href="#DejaVuSans-2e" x="147.412109"/>
       <use xlink:href="#DejaVuSans-30" x="179.199219"/>
      </g>
     </g>
    </g>
    <g id="xtick_2">
     <g id="line2d_11">
      <g>
       <use xlink:href="#me2bd835b2a" x="157.509773" y="276.68" style="fill: #696969; stroke: #696969; stroke-width: 0.8"/>
      </g>
     </g>
     <g id="text_5">
      <!-- −0.5 -->
      <g style="fill: #696969" transform="translate(138.083523 295.8375) scale(0.16 -0.16)">
       <use xlink:href="#DejaVuSans-2212"/>
       <use xlink:href="#DejaVuSans-30" x="83.789062"/>
       <use xlink:href="#DejaVuSans-2e" x="147.412109"/>
       <use xlink:href="#DejaVuSans-35" x="179.199219"/>
      </g>
     </g>
    </g>
    <g id="xtick_3">
     <g id="line2d_12">
      <g>
       <use xlink:href="#me2bd835b2a" x="244.5575" y="276.68" style="fill: #696969; stroke: #696969; stroke-width: 0.8"/>
      </g>
     </g>
     <g id="text_6">
      <!-- 0.0 -->
      <g style="fill: #696969" transform="translate(231.835 295.8375) scale(0.16 -0.16)">
       <use xlink:href="#DejaVuSans-30"/>
       <use xlink:href="#DejaVuSans-2e" x="63.623047"/>
       <use xlink:href="#DejaVuSans-30" x="95.410156"/>
      </g>
     </g>
    </g>
    <g id="xtick_4">
     <g id="line2d_13">
      <g>
       <use xlink:href="#me2bd835b2a" x="331.605227" y="276.68" style="fill: #696969; stroke: #696969; stroke-width: 0.8"/>
      </g>
     </g>
     <g id="text_7">
      <!-- 0.5 -->
      <g style="fill: #696969" transform="translate(318.882727 295.8375) scale(0.16 -0.16)">
       <use xlink:href="#DejaVuSans-30"/>
       <use xlink:href="#DejaVuSans-2e" x="63.623047"/>
       <use xlink:href="#DejaVuSans-35" x="95.410156"/>
      </g>
     </g>
    </g>
    <g id="xtick_5">
     <g id="line2d_14">
      <g>
       <use xlink:href="#me2bd835b2a" x="418.652955" y="276.68" style="fill: #696969; stroke: #696969; stroke-width: 0.8"/>
      </g>
     </g>
     <g id="text_8">
      <!-- 1.0 -->
      <g style="fill: #696969" transform="translate(405.930455 295.8375) scale(0.16 -0.16)">
       <use xlink:href="#DejaVuSans-31"/>
       <use xlink:href="#DejaVuSans-2e" x="63.623047"/>
       <use xlink:href="#DejaVuSans-30" x="95.410156"/>
      </g>
     </g>
    </g>
    <g id="text_9">
     <!-- $X$ -->
     <g transform="translate(239.0375 315.3225) scale(0.16 -0.16)">
      <defs>
       <path id="DejaVuSans-Oblique-58" d="M 878 4666 
L 1516 4666 
L 2316 2981 
L 3763 4666 
L 4500 4666 
L 2578 2438 
L 3738 0 
L 3103 0 
L 2163 1966 
L 459 0 
L -275 0 
L 1906 2509 
L 878 4666 
z
" transform="scale(0.015625)"/>
      </defs>
      <use xlink:href="#DejaVuSans-Oblique-58" transform="translate(0 0.09375)"/>
     </g>
    </g>
   </g>
   <g id="matplotlib.axis_6">
    <g id="ytick_4">
     <g id="line2d_15">
      <g>
       <use xlink:href="#m0e968cde93" x="53.0525" y="245.076381" style="fill: #696969; stroke: #696969; stroke-width: 0.8"/>
      </g>
     </g>
     <g id="text_10">
      <!-- 0 -->
      <g style="fill: #696969" transform="translate(35.8725 251.155131) scale(0.16 -0.16)">
       <use xlink:href="#DejaVuSans-30"/>
      </g>
     </g>
    </g>
    <g id="ytick_5">
     <g id="line2d_16">
      <g>
       <use xlink:href="#m0e968cde93" x="53.0525" y="187.019287" style="fill: #696969; stroke: #696969; stroke-width: 0.8"/>
      </g>
     </g>
     <g id="text_11">
      <!-- 5 -->
      <g style="fill: #696969" transform="translate(35.8725 193.098037) scale(0.16 -0.16)">
       <use xlink:href="#DejaVuSans-35"/>
      </g>
     </g>
    </g>
   </g>
   <g id="line2d_17">
    <path d="M 70.462045 250.255212 
L 77.425864 250.910902 
L 84.389682 250.494647 
L 91.3535 249.398093 
L 98.317318 248.535569 
L 105.281136 248.350527 
L 112.244955 248.541412 
L 119.208773 248.638604 
L 126.172591 248.403657 
L 133.136409 247.881454 
L 140.100227 247.266377 
L 147.064045 246.720259 
L 154.027864 246.279293 
L 160.991682 245.88389 
L 167.9555 245.453953 
L 174.919318 244.940213 
L 181.883136 244.338771 
L 188.846955 243.682048 
L 195.810773 243.018063 
L 202.774591 242.38573 
L 209.738409 241.795758 
L 216.702227 241.228891 
L 223.666045 240.654875 
L 230.629864 240.058465 
L 237.593682 239.45309 
L 244.5575 238.875116 
L 251.521318 238.366523 
L 258.485136 237.95639 
L 265.448955 237.647537 
L 272.412773 237.411772 
L 279.376591 237.198889 
L 286.340409 236.964875 
L 293.304227 236.711727 
L 300.268045 236.503201 
L 307.231864 236.416838 
L 314.195682 236.457505 
L 321.1595 236.524371 
L 328.123318 236.490804 
L 335.087136 236.342188 
L 342.050955 236.207462 
L 349.014773 236.215367 
L 355.978591 236.369284 
L 362.942409 236.580138 
L 369.906227 236.761127 
L 376.870045 236.890014 
L 383.833864 237.024892 
L 390.797682 237.24825 
L 397.7615 237.518545 
L 404.725318 237.597789 
L 411.689136 237.250433 
L 418.652955 236.444763 
" clip-path="url(#p9f0efa6ca3)" style="fill: none; stroke: #696969; stroke-width: 2; stroke-linecap: square"/>
   </g>
   <g id="line2d_18">
    <path d="M 70.462045 254.793515 
L 77.425864 253.541312 
L 84.389682 252.344248 
L 91.3535 251.200116 
L 98.317318 250.106777 
L 105.281136 249.062162 
L 112.244955 248.064269 
L 119.208773 247.111165 
L 126.172591 246.200985 
L 133.136409 245.331932 
L 140.100227 244.502279 
L 147.064045 243.710365 
L 154.027864 242.9546 
L 160.991682 242.23346 
L 167.9555 241.545492 
L 174.919318 240.889308 
L 181.883136 240.263591 
L 188.846955 239.667092 
L 195.810773 239.098629 
L 202.774591 238.55709 
L 209.738409 238.041431 
L 216.702227 237.550675 
L 223.666045 237.083916 
L 230.629864 236.640314 
L 237.593682 236.219098 
L 244.5575 235.819565 
L 251.521318 235.441083 
L 258.485136 235.083085 
L 265.448955 234.745074 
L 272.412773 234.426621 
L 279.376591 234.127365 
L 286.340409 233.847015 
L 293.304227 233.585347 
L 300.268045 233.342205 
L 307.231864 233.117502 
L 314.195682 232.91122 
L 321.1595 232.723409 
L 328.123318 232.554187 
L 335.087136 232.40374 
L 342.050955 232.272323 
L 349.014773 232.160259 
L 355.978591 232.06794 
L 362.942409 231.995827 
L 369.906227 231.944447 
L 376.870045 231.914398 
L 383.833864 231.906344 
L 390.797682 231.92102 
L 397.7615 231.959226 
L 404.725318 232.021834 
L 411.689136 232.109782 
L 418.652955 232.224077 
" clip-path="url(#p9f0efa6ca3)" style="fill: none; stroke-dasharray: 7.4,3.2; stroke-dashoffset: 0; stroke: #79ad41; stroke-width: 2"/>
   </g>
   <g id="patch_9">
    <path d="M 53.0525 276.68 
L 53.0525 186.152891 
" style="fill: none; stroke: #000000; stroke-width: 0.8; stroke-linejoin: miter; stroke-linecap: square"/>
   </g>
   <g id="patch_10">
    <path d="M 436.0625 276.68 
L 436.0625 186.152891 
" style="fill: none; stroke: #000000; stroke-width: 0.8; stroke-linejoin: miter; stroke-linecap: square"/>
   </g>
   <g id="patch_11">
    <path d="M 53.0525 276.68 
L 436.0625 276.68 
" style="fill: none; stroke: #000000; stroke-width: 0.8; stroke-linejoin: miter; stroke-linecap: square"/>
   </g>
   <g id="patch_12">
    <path d="M 53.0525 186.152891 
L 436.0625 186.152891 
" style="fill: none; stroke: #000000; stroke-width: 0.8; stroke-linejoin: miter; stroke-linecap: square"/>
   </g>
  </g>
 </g>
 <defs>
  <clipPath id="p821a4da018">
   <rect x="53.0525" y="7.2" width="383.01" height="45.263555"/>
  </clipPath>
  <clipPath id="pcceca720a5">
   <rect x="53.0525" y="74.044668" width="383.01" height="90.527109"/>
  </clipPath>
  <clipPath id="p9f0efa6ca3">
   <rect x="53.0525" y="186.152891" width="383.01" height="90.527109"/>
  </clipPath>
 </defs>
</svg>
