<?xml version="1.0" encoding="utf-8" standalone="no"?>
<!DOCTYPE svg PUBLIC "-//W3C//DTD SVG 1.1//EN"
  "http://www.w3.org/Graphics/SVG/1.1/DTD/svg11.dtd">
<svg xmlns:xlink="http://www.w3.org/1999/xlink" width="443.2075pt" height="325.85pt" viewBox="0 0 443.2075 325.85" xmlns="http://www.w3.org/2000/svg" version="1.1">
 <metadata>
  <rdf:RDF xmlns:dc="http://purl.org/dc/elements/1.1/" xmlns:cc="http://creativecommons.org/ns#" xmlns:rdf="http://www.w3.org/1999/02/22-rdf-syntax-ns#">
   <cc:Work>
    <dc:type rdf:resource="http://purl.org/dc/dcmitype/StillImage"/>
    <dc:date>2024-01-28T20:54:28.647267</dc:date>
    <dc:format>image/svg+xml</dc:format>
    <dc:creator>
     <cc:Agent>
      <dc:title>Matplotlib v3.7.2, https://matplotlib.org/</dc:title>
     </cc:Agent>
    </dc:creator>
   </cc:Work>
  </rdf:RDF>
 </metadata>
 <defs>
  <style type="text/css">*{stroke-linejoin: round; stroke-linecap: butt}</style>
 </defs>
 <g id="figure_1">
  <g id="patch_1">
   <path d="M 0 325.85 
L 443.2075 325.85 
L 443.2075 0 
L 0 0 
z
" style="fill: #ffffff"/>
  </g>
  <g id="axes_1">
   <g id="patch_2">
    <path d="M 37.7875 53.064399 
L 436.0075 53.064399 
L 436.0075 7.2 
L 37.7875 7.2 
z
" style="fill: #ffffff"/>
   </g>
   <g id="PolyCollection_1">
    <defs>
     <path id="m5731dab7f2" d="M 55.888409 -274.870346 
L 55.888409 -279.503114 
L 63.128773 -279.503114 
L 70.369136 -279.503114 
L 77.6095 -279.503114 
L 84.849864 -279.503114 
L 92.090227 -279.503114 
L 99.330591 -279.503114 
L 106.570955 -279.503114 
L 113.811318 -279.503114 
L 121.051682 -279.503114 
L 128.292045 -279.503114 
L 135.532409 -279.503114 
L 142.772773 -279.503114 
L 150.013136 -279.503114 
L 157.2535 -279.503114 
L 164.493864 -279.503114 
L 171.734227 -279.503114 
L 178.974591 -279.503114 
L 186.214955 -280.032155 
L 193.455318 -281.028484 
L 200.695682 -282.242027 
L 207.936045 -283.70882 
L 215.176409 -285.461512 
L 222.416773 -287.522983 
L 229.657136 -289.898216 
L 236.8975 -292.565756 
L 244.137864 -295.471613 
L 251.378227 -298.528891 
L 258.618591 -301.625672 
L 265.858955 -304.64056 
L 273.099318 -307.461789 
L 280.339682 -310.00376 
L 287.580045 -312.216054 
L 294.820409 -314.083507 
L 302.060773 -315.619548 
L 309.301136 -316.565255 
L 316.5415 -316.565255 
L 323.781864 -316.565255 
L 331.022227 -316.565255 
L 338.262591 -316.565255 
L 345.502955 -316.565255 
L 352.743318 -316.565255 
L 359.983682 -316.565255 
L 367.224045 -316.565255 
L 374.464409 -316.565255 
L 381.704773 -316.565255 
L 388.945136 -316.565255 
L 396.1855 -316.565255 
L 403.425864 -316.565255 
L 410.666227 -316.565255 
L 417.906591 -316.565255 
L 417.906591 -274.870346 
L 417.906591 -274.870346 
L 410.666227 -274.870346 
L 403.425864 -274.870346 
L 396.1855 -274.870346 
L 388.945136 -274.870346 
L 381.704773 -274.870346 
L 374.464409 -274.870346 
L 367.224045 -274.870346 
L 359.983682 -274.870346 
L 352.743318 -274.870346 
L 345.502955 -274.870346 
L 338.262591 -274.870346 
L 331.022227 -274.870346 
L 323.781864 -274.870346 
L 316.5415 -274.870346 
L 309.301136 -274.870346 
L 302.060773 -274.870346 
L 294.820409 -274.870346 
L 287.580045 -274.870346 
L 280.339682 -274.870346 
L 273.099318 -274.870346 
L 265.858955 -274.870346 
L 258.618591 -274.870346 
L 251.378227 -274.870346 
L 244.137864 -274.870346 
L 236.8975 -274.870346 
L 229.657136 -274.870346 
L 222.416773 -274.870346 
L 215.176409 -274.870346 
L 207.936045 -274.870346 
L 200.695682 -274.870346 
L 193.455318 -274.870346 
L 186.214955 -274.870346 
L 178.974591 -274.870346 
L 171.734227 -274.870346 
L 164.493864 -274.870346 
L 157.2535 -274.870346 
L 150.013136 -274.870346 
L 142.772773 -274.870346 
L 135.532409 -274.870346 
L 128.292045 -274.870346 
L 121.051682 -274.870346 
L 113.811318 -274.870346 
L 106.570955 -274.870346 
L 99.330591 -274.870346 
L 92.090227 -274.870346 
L 84.849864 -274.870346 
L 77.6095 -274.870346 
L 70.369136 -274.870346 
L 63.128773 -274.870346 
L 55.888409 -274.870346 
z
" style="stroke: #dc143c; stroke-opacity: 0.2"/>
    </defs>
    <g clip-path="url(#p05472efff9)">
     <use xlink:href="#m5731dab7f2" x="0" y="325.85" style="fill: #dc143c; fill-opacity: 0.2; stroke: #dc143c; stroke-opacity: 0.2"/>
    </g>
   </g>
   <g id="PolyCollection_2">
    <defs>
     <path id="mdfd3e8f9a1" d="M 55.888409 -274.870346 
L 55.888409 -316.565255 
L 63.128773 -316.565255 
L 70.369136 -316.565255 
L 77.6095 -316.565255 
L 84.849864 -316.565255 
L 92.090227 -316.565255 
L 99.330591 -316.565255 
L 106.570955 -316.565255 
L 113.811318 -316.565255 
L 121.051682 -316.565255 
L 128.292045 -316.565255 
L 135.532409 -316.565255 
L 142.772773 -316.565255 
L 150.013136 -316.565255 
L 157.2535 -316.565255 
L 164.493864 -316.565255 
L 171.734227 -316.565255 
L 178.974591 -316.565255 
L 186.214955 -316.036213 
L 193.455318 -315.039884 
L 200.695682 -313.826341 
L 207.936045 -312.359548 
L 215.176409 -310.606857 
L 222.416773 -308.545385 
L 229.657136 -306.170152 
L 236.8975 -303.502612 
L 244.137864 -300.596755 
L 251.378227 -297.539477 
L 258.618591 -294.442696 
L 265.858955 -291.427808 
L 273.099318 -288.606579 
L 280.339682 -286.064608 
L 287.580045 -283.852314 
L 294.820409 -281.984861 
L 302.060773 -280.44882 
L 309.301136 -279.503114 
L 316.5415 -279.503114 
L 323.781864 -279.503114 
L 331.022227 -279.503114 
L 338.262591 -279.503114 
L 345.502955 -279.503114 
L 352.743318 -279.503114 
L 359.983682 -279.503114 
L 367.224045 -279.503114 
L 374.464409 -279.503114 
L 381.704773 -279.503114 
L 388.945136 -279.503114 
L 396.1855 -279.503114 
L 403.425864 -279.503114 
L 410.666227 -279.503114 
L 417.906591 -279.503114 
L 417.906591 -274.870346 
L 417.906591 -274.870346 
L 410.666227 -274.870346 
L 403.425864 -274.870346 
L 396.1855 -274.870346 
L 388.945136 -274.870346 
L 381.704773 -274.870346 
L 374.464409 -274.870346 
L 367.224045 -274.870346 
L 359.983682 -274.870346 
L 352.743318 -274.870346 
L 345.502955 -274.870346 
L 338.262591 -274.870346 
L 331.022227 -274.870346 
L 323.781864 -274.870346 
L 316.5415 -274.870346 
L 309.301136 -274.870346 
L 302.060773 -274.870346 
L 294.820409 -274.870346 
L 287.580045 -274.870346 
L 280.339682 -274.870346 
L 273.099318 -274.870346 
L 265.858955 -274.870346 
L 258.618591 -274.870346 
L 251.378227 -274.870346 
L 244.137864 -274.870346 
L 236.8975 -274.870346 
L 229.657136 -274.870346 
L 222.416773 -274.870346 
L 215.176409 -274.870346 
L 207.936045 -274.870346 
L 200.695682 -274.870346 
L 193.455318 -274.870346 
L 186.214955 -274.870346 
L 178.974591 -274.870346 
L 171.734227 -274.870346 
L 164.493864 -274.870346 
L 157.2535 -274.870346 
L 150.013136 -274.870346 
L 142.772773 -274.870346 
L 135.532409 -274.870346 
L 128.292045 -274.870346 
L 121.051682 -274.870346 
L 113.811318 -274.870346 
L 106.570955 -274.870346 
L 99.330591 -274.870346 
L 92.090227 -274.870346 
L 84.849864 -274.870346 
L 77.6095 -274.870346 
L 70.369136 -274.870346 
L 63.128773 -274.870346 
L 55.888409 -274.870346 
z
" style="stroke: #000080; stroke-opacity: 0.2"/>
    </defs>
    <g clip-path="url(#p05472efff9)">
     <use xlink:href="#mdfd3e8f9a1" x="0" y="325.85" style="fill: #000080; fill-opacity: 0.2; stroke: #000080; stroke-opacity: 0.2"/>
    </g>
   </g>
   <g id="matplotlib.axis_1"/>
   <g id="matplotlib.axis_2"/>
   <g id="line2d_1">
    <path d="M 55.888409 46.346886 
L 63.128773 46.346886 
L 70.369136 46.346886 
L 77.6095 46.346886 
L 84.849864 46.346886 
L 92.090227 46.346886 
L 99.330591 46.346886 
L 106.570955 46.346886 
L 113.811318 46.346886 
L 121.051682 46.346886 
L 128.292045 46.346886 
L 135.532409 46.346886 
L 142.772773 46.346886 
L 150.013136 46.346886 
L 157.2535 46.346886 
L 164.493864 46.346886 
L 171.734227 46.346886 
L 178.974591 46.346886 
L 186.214955 45.817845 
L 193.455318 44.821516 
L 200.695682 43.607973 
L 207.936045 42.14118 
L 215.176409 40.388488 
L 222.416773 38.327017 
L 229.657136 35.951784 
L 236.8975 33.284244 
L 244.137864 30.378387 
L 251.378227 27.321109 
L 258.618591 24.224328 
L 265.858955 21.20944 
L 273.099318 18.388211 
L 280.339682 15.84624 
L 287.580045 13.633946 
L 294.820409 11.766493 
L 302.060773 10.230452 
L 309.301136 9.284745 
L 316.5415 9.284745 
L 323.781864 9.284745 
L 331.022227 9.284745 
L 338.262591 9.284745 
L 345.502955 9.284745 
L 352.743318 9.284745 
L 359.983682 9.284745 
L 367.224045 9.284745 
L 374.464409 9.284745 
L 381.704773 9.284745 
L 388.945136 9.284745 
L 396.1855 9.284745 
L 403.425864 9.284745 
L 410.666227 9.284745 
L 417.906591 9.284745 
" clip-path="url(#p05472efff9)" style="fill: none; stroke: #dc143c; stroke-width: 1.5; stroke-linecap: square"/>
   </g>
   <g id="line2d_2">
    <path d="M 55.888409 9.284745 
L 63.128773 9.284745 
L 70.369136 9.284745 
L 77.6095 9.284745 
L 84.849864 9.284745 
L 92.090227 9.284745 
L 99.330591 9.284745 
L 106.570955 9.284745 
L 113.811318 9.284745 
L 121.051682 9.284745 
L 128.292045 9.284745 
L 135.532409 9.284745 
L 142.772773 9.284745 
L 150.013136 9.284745 
L 157.2535 9.284745 
L 164.493864 9.284745 
L 171.734227 9.284745 
L 178.974591 9.284745 
L 186.214955 9.813787 
L 193.455318 10.810116 
L 200.695682 12.023659 
L 207.936045 13.490452 
L 215.176409 15.243143 
L 222.416773 17.304615 
L 229.657136 19.679848 
L 236.8975 22.347388 
L 244.137864 25.253245 
L 251.378227 28.310523 
L 258.618591 31.407304 
L 265.858955 34.422192 
L 273.099318 37.243421 
L 280.339682 39.785392 
L 287.580045 41.997686 
L 294.820409 43.865139 
L 302.060773 45.40118 
L 309.301136 46.346886 
L 316.5415 46.346886 
L 323.781864 46.346886 
L 331.022227 46.346886 
L 338.262591 46.346886 
L 345.502955 46.346886 
L 352.743318 46.346886 
L 359.983682 46.346886 
L 367.224045 46.346886 
L 374.464409 46.346886 
L 381.704773 46.346886 
L 388.945136 46.346886 
L 396.1855 46.346886 
L 403.425864 46.346886 
L 410.666227 46.346886 
L 417.906591 46.346886 
" clip-path="url(#p05472efff9)" style="fill: none; stroke: #000080; stroke-width: 1.5; stroke-linecap: square"/>
   </g>
  </g>
  <g id="axes_2">
   <g id="patch_3">
    <path d="M 37.7875 164.8722 
L 436.0075 164.8722 
L 436.0075 73.143401 
L 37.7875 73.143401 
z
" style="fill: #ffffff"/>
   </g>
   <g id="PathCollection_1">
    <defs>
     <path id="mdcaaff841a" d="M 0 0.866025 
C 0.229673 0.866025 0.449969 0.774776 0.612372 0.612372 
C 0.774776 0.449969 0.866025 0.229673 0.866025 0 
C 0.866025 -0.229673 0.774776 -0.449969 0.612372 -0.612372 
C 0.449969 -0.774776 0.229673 -0.866025 0 -0.866025 
C -0.229673 -0.866025 -0.449969 -0.774776 -0.612372 -0.612372 
C -0.774776 -0.449969 -0.866025 -0.229673 -0.866025 0 
C -0.866025 0.229673 -0.774776 0.449969 -0.612372 0.612372 
C -0.449969 0.774776 -0.229673 0.866025 0 0.866025 
z
" style="stroke: #daa520"/>
    </defs>
    <g clip-path="url(#p3a9ba133a1)">
     <use xlink:href="#mdcaaff841a" x="338.927541" y="104.746872" style="fill: #daa520; stroke: #daa520"/>
     <use xlink:href="#mdcaaff841a" x="135.299679" y="118.18103" style="fill: #daa520; stroke: #daa520"/>
     <use xlink:href="#mdcaaff841a" x="400.737984" y="145.042141" style="fill: #daa520; stroke: #daa520"/>
     <use xlink:href="#mdcaaff841a" x="319.337907" y="131.785521" style="fill: #daa520; stroke: #daa520"/>
     <use xlink:href="#mdcaaff841a" x="414.923292" y="115.694301" style="fill: #daa520; stroke: #daa520"/>
     <use xlink:href="#mdcaaff841a" x="396.929283" y="132.477231" style="fill: #daa520; stroke: #daa520"/>
     <use xlink:href="#mdcaaff841a" x="321.361068" y="115.647446" style="fill: #daa520; stroke: #daa520"/>
     <use xlink:href="#mdcaaff841a" x="231.057527" y="155.117815" style="fill: #daa520; stroke: #daa520"/>
     <use xlink:href="#mdcaaff841a" x="294.659001" y="133.153266" style="fill: #daa520; stroke: #daa520"/>
     <use xlink:href="#mdcaaff841a" x="293.035656" y="133.316387" style="fill: #daa520; stroke: #daa520"/>
     <use xlink:href="#mdcaaff841a" x="356.569138" y="123.809027" style="fill: #daa520; stroke: #daa520"/>
     <use xlink:href="#mdcaaff841a" x="326.901495" y="144.40593" style="fill: #daa520; stroke: #daa520"/>
     <use xlink:href="#mdcaaff841a" x="318.952846" y="129.198933" style="fill: #daa520; stroke: #daa520"/>
     <use xlink:href="#mdcaaff841a" x="398.882322" y="132.69815" style="fill: #daa520; stroke: #daa520"/>
     <use xlink:href="#mdcaaff841a" x="199.800773" y="122.445541" style="fill: #daa520; stroke: #daa520"/>
     <use xlink:href="#mdcaaff841a" x="203.51945" y="128.431406" style="fill: #daa520; stroke: #daa520"/>
     <use xlink:href="#mdcaaff841a" x="375.31814" y="117.437483" style="fill: #daa520; stroke: #daa520"/>
     <use xlink:href="#mdcaaff841a" x="405.905841" y="138.15584" style="fill: #daa520; stroke: #daa520"/>
     <use xlink:href="#mdcaaff841a" x="371.631522" y="139.148776" style="fill: #daa520; stroke: #daa520"/>
     <use xlink:href="#mdcaaff841a" x="367.700483" y="141.445104" style="fill: #daa520; stroke: #daa520"/>
     <use xlink:href="#mdcaaff841a" x="343.12723" y="126.30129" style="fill: #daa520; stroke: #daa520"/>
     <use xlink:href="#mdcaaff841a" x="340.624528" y="141.483045" style="fill: #daa520; stroke: #daa520"/>
     <use xlink:href="#mdcaaff841a" x="344.903183" y="106.233771" style="fill: #daa520; stroke: #daa520"/>
     <use xlink:href="#mdcaaff841a" x="354.545659" y="129.869082" style="fill: #daa520; stroke: #daa520"/>
     <use xlink:href="#mdcaaff841a" x="220.983959" y="124.257406" style="fill: #daa520; stroke: #daa520"/>
     <use xlink:href="#mdcaaff841a" x="355.288523" y="104.66489" style="fill: #daa520; stroke: #daa520"/>
     <use xlink:href="#mdcaaff841a" x="303.751552" y="112.689616" style="fill: #daa520; stroke: #daa520"/>
     <use xlink:href="#mdcaaff841a" x="125.799169" y="135.845611" style="fill: #daa520; stroke: #daa520"/>
     <use xlink:href="#mdcaaff841a" x="324.196517" y="113.115835" style="fill: #daa520; stroke: #daa520"/>
     <use xlink:href="#mdcaaff841a" x="137.60061" y="117.597558" style="fill: #daa520; stroke: #daa520"/>
     <use xlink:href="#mdcaaff841a" x="313.94549" y="127.531557" style="fill: #daa520; stroke: #daa520"/>
     <use xlink:href="#mdcaaff841a" x="361.271638" y="106.660016" style="fill: #daa520; stroke: #daa520"/>
     <use xlink:href="#mdcaaff841a" x="89.26864" y="146.743867" style="fill: #daa520; stroke: #daa520"/>
     <use xlink:href="#mdcaaff841a" x="383.356097" y="111.169642" style="fill: #daa520; stroke: #daa520"/>
     <use xlink:href="#mdcaaff841a" x="308.656418" y="142.145538" style="fill: #daa520; stroke: #daa520"/>
     <use xlink:href="#mdcaaff841a" x="370.483789" y="123.990407" style="fill: #daa520; stroke: #daa520"/>
     <use xlink:href="#mdcaaff841a" x="289.425671" y="133.678848" style="fill: #daa520; stroke: #daa520"/>
     <use xlink:href="#mdcaaff841a" x="413.357619" y="132.562251" style="fill: #daa520; stroke: #daa520"/>
     <use xlink:href="#mdcaaff841a" x="163.951915" y="122.106726" style="fill: #daa520; stroke: #daa520"/>
     <use xlink:href="#mdcaaff841a" x="309.866796" y="154.898583" style="fill: #daa520; stroke: #daa520"/>
     <use xlink:href="#mdcaaff841a" x="306.760536" y="110.544485" style="fill: #daa520; stroke: #daa520"/>
     <use xlink:href="#mdcaaff841a" x="280.229873" y="141.280468" style="fill: #daa520; stroke: #daa520"/>
     <use xlink:href="#mdcaaff841a" x="200.686493" y="131.854844" style="fill: #daa520; stroke: #daa520"/>
     <use xlink:href="#mdcaaff841a" x="79.332604" y="135.750489" style="fill: #daa520; stroke: #daa520"/>
     <use xlink:href="#mdcaaff841a" x="161.803053" y="119.340985" style="fill: #daa520; stroke: #daa520"/>
     <use xlink:href="#mdcaaff841a" x="281.181889" y="134.564462" style="fill: #daa520; stroke: #daa520"/>
     <use xlink:href="#mdcaaff841a" x="105.292902" y="119.893056" style="fill: #daa520; stroke: #daa520"/>
     <use xlink:href="#mdcaaff841a" x="289.337606" y="160.702709" style="fill: #daa520; stroke: #daa520"/>
     <use xlink:href="#mdcaaff841a" x="364.033527" y="129.377798" style="fill: #daa520; stroke: #daa520"/>
     <use xlink:href="#mdcaaff841a" x="292.283406" y="132.656619" style="fill: #daa520; stroke: #daa520"/>
     <use xlink:href="#mdcaaff841a" x="362.63408" y="101.404421" style="fill: #daa520; stroke: #daa520"/>
     <use xlink:href="#mdcaaff841a" x="316.365842" y="112.693332" style="fill: #daa520; stroke: #daa520"/>
     <use xlink:href="#mdcaaff841a" x="326.500558" y="132.957071" style="fill: #daa520; stroke: #daa520"/>
     <use xlink:href="#mdcaaff841a" x="364.610108" y="123.345453" style="fill: #daa520; stroke: #daa520"/>
     <use xlink:href="#mdcaaff841a" x="356.225913" y="151.765071" style="fill: #daa520; stroke: #daa520"/>
     <use xlink:href="#mdcaaff841a" x="378.882512" y="98.432204" style="fill: #daa520; stroke: #daa520"/>
     <use xlink:href="#mdcaaff841a" x="331.331716" y="120.698014" style="fill: #daa520; stroke: #daa520"/>
     <use xlink:href="#mdcaaff841a" x="307.894276" y="159.755406" style="fill: #daa520; stroke: #daa520"/>
     <use xlink:href="#mdcaaff841a" x="316.4793" y="130.181539" style="fill: #daa520; stroke: #daa520"/>
     <use xlink:href="#mdcaaff841a" x="413.058067" y="120.513851" style="fill: #daa520; stroke: #daa520"/>
     <use xlink:href="#mdcaaff841a" x="369.694629" y="98.480533" style="fill: #daa520; stroke: #daa520"/>
     <use xlink:href="#mdcaaff841a" x="362.865917" y="122.070715" style="fill: #daa520; stroke: #daa520"/>
     <use xlink:href="#mdcaaff841a" x="355.716999" y="149.235887" style="fill: #daa520; stroke: #daa520"/>
     <use xlink:href="#mdcaaff841a" x="328.477259" y="128.023168" style="fill: #daa520; stroke: #daa520"/>
     <use xlink:href="#mdcaaff841a" x="368.873202" y="122.193598" style="fill: #daa520; stroke: #daa520"/>
     <use xlink:href="#mdcaaff841a" x="295.805757" y="159.07673" style="fill: #daa520; stroke: #daa520"/>
     <use xlink:href="#mdcaaff841a" x="356.451804" y="119.570102" style="fill: #daa520; stroke: #daa520"/>
     <use xlink:href="#mdcaaff841a" x="339.233581" y="120.01343" style="fill: #daa520; stroke: #daa520"/>
     <use xlink:href="#mdcaaff841a" x="318.406011" y="145.717136" style="fill: #daa520; stroke: #daa520"/>
     <use xlink:href="#mdcaaff841a" x="305.921517" y="110.777377" style="fill: #daa520; stroke: #daa520"/>
     <use xlink:href="#mdcaaff841a" x="323.952396" y="154.897927" style="fill: #daa520; stroke: #daa520"/>
     <use xlink:href="#mdcaaff841a" x="289.615349" y="113.522479" style="fill: #daa520; stroke: #daa520"/>
     <use xlink:href="#mdcaaff841a" x="320.07835" y="128.945954" style="fill: #daa520; stroke: #daa520"/>
     <use xlink:href="#mdcaaff841a" x="236.833756" y="122.811828" style="fill: #daa520; stroke: #daa520"/>
     <use xlink:href="#mdcaaff841a" x="400.366348" y="135.268836" style="fill: #daa520; stroke: #daa520"/>
     <use xlink:href="#mdcaaff841a" x="255.908793" y="129.109841" style="fill: #daa520; stroke: #daa520"/>
     <use xlink:href="#mdcaaff841a" x="355.675031" y="124.636704" style="fill: #daa520; stroke: #daa520"/>
     <use xlink:href="#mdcaaff841a" x="328.759633" y="132.374621" style="fill: #daa520; stroke: #daa520"/>
     <use xlink:href="#mdcaaff841a" x="295.63338" y="112.20737" style="fill: #daa520; stroke: #daa520"/>
     <use xlink:href="#mdcaaff841a" x="300.394329" y="132.323375" style="fill: #daa520; stroke: #daa520"/>
     <use xlink:href="#mdcaaff841a" x="285.027831" y="151.639148" style="fill: #daa520; stroke: #daa520"/>
     <use xlink:href="#mdcaaff841a" x="356.233651" y="107.306969" style="fill: #daa520; stroke: #daa520"/>
     <use xlink:href="#mdcaaff841a" x="355.404162" y="122.616055" style="fill: #daa520; stroke: #daa520"/>
     <use xlink:href="#mdcaaff841a" x="66.428406" y="121.086338" style="fill: #daa520; stroke: #daa520"/>
     <use xlink:href="#mdcaaff841a" x="401.772668" y="140.381272" style="fill: #daa520; stroke: #daa520"/>
     <use xlink:href="#mdcaaff841a" x="320.365115" y="119.581328" style="fill: #daa520; stroke: #daa520"/>
     <use xlink:href="#mdcaaff841a" x="350.044632" y="108.780917" style="fill: #daa520; stroke: #daa520"/>
     <use xlink:href="#mdcaaff841a" x="366.038553" y="107.647723" style="fill: #daa520; stroke: #daa520"/>
     <use xlink:href="#mdcaaff841a" x="267.782016" y="117.454661" style="fill: #daa520; stroke: #daa520"/>
     <use xlink:href="#mdcaaff841a" x="413.753148" y="118.391876" style="fill: #daa520; stroke: #daa520"/>
     <use xlink:href="#mdcaaff841a" x="368.51614" y="123.667849" style="fill: #daa520; stroke: #daa520"/>
     <use xlink:href="#mdcaaff841a" x="264.183571" y="134.116512" style="fill: #daa520; stroke: #daa520"/>
     <use xlink:href="#mdcaaff841a" x="327.704158" y="135.088509" style="fill: #daa520; stroke: #daa520"/>
     <use xlink:href="#mdcaaff841a" x="332.244502" y="136.07927" style="fill: #daa520; stroke: #daa520"/>
     <use xlink:href="#mdcaaff841a" x="401.881773" y="145.047561" style="fill: #daa520; stroke: #daa520"/>
     <use xlink:href="#mdcaaff841a" x="361.187898" y="98.919975" style="fill: #daa520; stroke: #daa520"/>
     <use xlink:href="#mdcaaff841a" x="248.17933" y="134.585741" style="fill: #daa520; stroke: #daa520"/>
     <use xlink:href="#mdcaaff841a" x="383.943054" y="118.171193" style="fill: #daa520; stroke: #daa520"/>
     <use xlink:href="#mdcaaff841a" x="379.091314" y="103.544269" style="fill: #daa520; stroke: #daa520"/>
     <use xlink:href="#mdcaaff841a" x="417.118948" y="112.58722" style="fill: #daa520; stroke: #daa520"/>
     <use xlink:href="#mdcaaff841a" x="363.770873" y="117.884803" style="fill: #daa520; stroke: #daa520"/>
    </g>
   </g>
   <g id="matplotlib.axis_3"/>
   <g id="matplotlib.axis_4">
    <g id="ytick_1">
     <g id="line2d_3">
      <defs>
       <path id="m833801d70d" d="M 0 0 
L -3.5 0 
" style="stroke: #696969; stroke-width: 0.8"/>
      </defs>
      <g>
       <use xlink:href="#m833801d70d" x="37.7875" y="131.917338" style="fill: #696969; stroke: #696969; stroke-width: 0.8"/>
      </g>
     </g>
     <g id="text_1">
      <!-- 0 -->
      <g style="fill: #696969" transform="translate(20.6075 137.996088) scale(0.16 -0.16)">
       <defs>
        <path id="DejaVuSans-30" d="M 2034 4250 
Q 1547 4250 1301 3770 
Q 1056 3291 1056 2328 
Q 1056 1369 1301 889 
Q 1547 409 2034 409 
Q 2525 409 2770 889 
Q 3016 1369 3016 2328 
Q 3016 3291 2770 3770 
Q 2525 4250 2034 4250 
z
M 2034 4750 
Q 2819 4750 3233 4129 
Q 3647 3509 3647 2328 
Q 3647 1150 3233 529 
Q 2819 -91 2034 -91 
Q 1250 -91 836 529 
Q 422 1150 422 2328 
Q 422 3509 836 4129 
Q 1250 4750 2034 4750 
z
" transform="scale(0.015625)"/>
       </defs>
       <use xlink:href="#DejaVuSans-30"/>
      </g>
     </g>
    </g>
    <g id="ytick_2">
     <g id="line2d_4">
      <g>
       <use xlink:href="#m833801d70d" x="37.7875" y="91.152153" style="fill: #696969; stroke: #696969; stroke-width: 0.8"/>
      </g>
     </g>
     <g id="text_2">
      <!-- 5 -->
      <g style="fill: #696969" transform="translate(20.6075 97.230903) scale(0.16 -0.16)">
       <defs>
        <path id="DejaVuSans-35" d="M 691 4666 
L 3169 4666 
L 3169 4134 
L 1269 4134 
L 1269 2991 
Q 1406 3038 1543 3061 
Q 1681 3084 1819 3084 
Q 2600 3084 3056 2656 
Q 3513 2228 3513 1497 
Q 3513 744 3044 326 
Q 2575 -91 1722 -91 
Q 1428 -91 1123 -41 
Q 819 9 494 109 
L 494 744 
Q 775 591 1075 516 
Q 1375 441 1709 441 
Q 2250 441 2565 725 
Q 2881 1009 2881 1497 
Q 2881 1984 2565 2268 
Q 2250 2553 1709 2553 
Q 1456 2553 1204 2497 
Q 953 2441 691 2322 
L 691 4666 
z
" transform="scale(0.015625)"/>
       </defs>
       <use xlink:href="#DejaVuSans-35"/>
      </g>
     </g>
    </g>
   </g>
   <g id="line2d_5">
    <path d="M 55.888409 139.371985 
L 63.128773 137.297413 
L 70.369136 135.177442 
L 77.6095 133.066606 
L 84.849864 131.018968 
L 92.090227 129.085995 
L 99.330591 127.314674 
L 106.570955 125.745834 
L 113.811318 124.41287 
L 121.051682 123.340802 
L 128.292045 122.545737 
L 135.532409 122.034712 
L 142.772773 121.805878 
L 150.013136 121.848999 
L 157.2535 122.146193 
L 164.493864 122.672806 
L 171.734227 123.39844 
L 178.974591 124.287973 
L 186.214955 125.302583 
L 193.455318 126.400753 
L 200.695682 127.539217 
L 207.936045 128.673925 
L 215.176409 129.760994 
L 222.416773 130.757758 
L 229.657136 131.623865 
L 236.8975 132.322545 
L 244.137864 132.82192 
L 251.378227 133.0964 
L 258.618591 133.128044 
L 265.858955 132.907793 
L 273.099318 132.436465 
L 280.339682 131.725322 
L 287.580045 130.79621 
L 294.820409 129.681087 
L 302.060773 128.420971 
L 309.301136 127.064286 
L 316.5415 125.664718 
L 323.781864 124.278674 
L 331.022227 122.962517 
L 338.262591 121.769759 
L 345.502955 120.748399 
L 352.743318 119.938554 
L 359.983682 119.370572 
L 367.224045 119.063661 
L 374.464409 119.025148 
L 381.704773 119.250351 
L 388.945136 119.723038 
L 396.1855 120.416409 
L 403.425864 121.294572 
L 410.666227 122.314339 
L 417.906591 123.42733 
" clip-path="url(#p3a9ba133a1)" style="fill: none; stroke: #000000; stroke-width: 2; stroke-linecap: square"/>
   </g>
   <g id="line2d_6">
    <path d="M 55.888409 77.312892 
L 63.128773 111.531982 
L 70.369136 129.518916 
L 77.6095 137.263756 
L 84.849864 138.923258 
L 92.090227 137.296446 
L 99.330591 134.196253 
L 106.570955 130.735889 
L 113.811318 127.545948 
L 121.051682 124.935952 
L 128.292045 123.011929 
L 135.532409 121.759719 
L 142.772773 121.102052 
L 150.013136 120.935959 
L 157.2535 121.155811 
L 164.493864 121.666159 
L 171.734227 122.387615 
L 178.974591 123.258222 
L 186.214955 124.232087 
L 193.455318 125.276567 
L 200.695682 126.368816 
L 207.936045 127.492257 
L 215.176409 128.633259 
L 222.416773 129.77819 
L 229.657136 130.910898 
L 236.8975 132.010671 
L 244.137864 133.050697 
L 251.378227 133.997112 
L 258.618591 134.808726 
L 265.858955 135.437608 
L 273.099318 135.830732 
L 280.339682 135.932865 
L 287.580045 135.690935 
L 294.820409 135.059954 
L 302.060773 134.010529 
L 309.301136 132.537725 
L 316.5415 130.670807 
L 323.781864 128.482962 
L 331.022227 126.099658 
L 338.262591 123.703639 
L 345.502955 121.533819 
L 352.743318 119.874471 
L 359.983682 119.029999 
L 367.224045 119.279414 
L 374.464409 120.80317 
L 381.704773 123.573459 
L 388.945136 127.197212 
L 396.1855 130.699045 
L 403.425864 132.229097 
L 410.666227 128.67822 
L 417.906591 115.180179 
" clip-path="url(#p3a9ba133a1)" style="fill: none; stroke-dasharray: 7.4,3.2; stroke-dashoffset: 0; stroke: #34b6c6; stroke-width: 2"/>
   </g>
   <g id="line2d_7">
    <path d="M 55.888409 77.434231 
L 63.128773 111.178736 
L 70.369136 129.35879 
L 77.6095 137.807134 
L 84.849864 139.76477 
L 92.090227 137.615222 
L 99.330591 133.61775 
L 106.570955 129.495408 
L 113.811318 126.171005 
L 121.051682 123.875386 
L 128.292045 122.439994 
L 135.532409 121.612804 
L 142.772773 121.235771 
L 150.013136 121.248426 
L 157.2535 121.619513 
L 164.493864 122.297193 
L 171.734227 123.19718 
L 178.974591 124.215202 
L 186.214955 125.250882 
L 193.455318 126.234879 
L 200.695682 127.148327 
L 207.936045 128.02051 
L 215.176409 128.900929 
L 222.416773 129.822764 
L 229.657136 130.781972 
L 236.8975 131.740625 
L 244.137864 132.645104 
L 251.378227 133.446196 
L 258.618591 134.113656 
L 265.858955 134.641183 
L 273.099318 135.035901 
L 280.339682 135.286047 
L 287.580045 135.316481 
L 294.820409 134.976704 
L 302.060773 134.110441 
L 309.301136 132.675216 
L 316.5415 130.797005 
L 323.781864 128.684947 
L 331.022227 126.472447 
L 338.262591 124.185905 
L 345.502955 121.923336 
L 352.743318 119.997921 
L 359.983682 118.867988 
L 367.224045 118.966255 
L 374.464409 120.537221 
L 381.704773 123.490478 
L 388.945136 127.289694 
L 396.1855 130.889349 
L 403.425864 132.494032 
L 410.666227 128.879372 
L 417.906591 114.586452 
" clip-path="url(#p3a9ba133a1)" style="fill: none; stroke-dasharray: 7.4,3.2; stroke-dashoffset: 0; stroke: #9370db; stroke-width: 2"/>
   </g>
   <g id="line2d_8">
    <path d="M 55.888409 143.008337 
L 63.128773 141.394162 
L 70.369136 138.981915 
L 77.6095 136.101126 
L 84.849864 133.447861 
L 92.090227 131.38496 
L 99.330591 129.74767 
L 106.570955 128.247074 
L 113.811318 126.74914 
L 121.051682 125.310403 
L 128.292045 124.083457 
L 135.532409 123.188973 
L 142.772773 122.650511 
L 150.013136 122.415997 
L 157.2535 122.411307 
L 164.493864 122.577195 
L 171.734227 122.880523 
L 178.974591 123.308933 
L 186.214955 123.857322 
L 193.455318 124.511494 
L 200.695682 125.235705 
L 207.936045 125.972384 
L 215.176409 126.656404 
L 222.416773 127.234394 
L 229.657136 127.675432 
L 236.8975 127.968285 
L 244.137864 128.110547 
L 251.378227 128.09705 
L 258.618591 127.91183 
L 265.858955 127.526036 
L 273.099318 126.90523 
L 280.339682 126.029773 
L 287.580045 124.922911 
L 294.820409 123.66137 
L 302.060773 122.340614 
L 309.301136 121.012483 
L 316.5415 119.659866 
L 323.781864 118.250253 
L 331.022227 116.829743 
L 338.262591 115.542388 
L 345.502955 114.526577 
L 352.743318 113.824807 
L 359.983682 113.404877 
L 367.224045 113.225049 
L 374.464409 113.277034 
L 381.704773 113.596943 
L 388.945136 114.226462 
L 396.1855 115.109623 
L 403.425864 116.043428 
L 410.666227 116.819297 
L 417.906591 117.366581 
" clip-path="url(#p3a9ba133a1)" style="fill: none; stroke-dasharray: 12.8,3.2,2,3.2; stroke-dashoffset: 0; stroke: #ff0000; stroke-width: 2"/>
   </g>
   <g id="patch_4">
    <path d="M 37.7875 164.8722 
L 37.7875 73.143401 
" style="fill: none; stroke: #000000; stroke-width: 0.8; stroke-linejoin: miter; stroke-linecap: square"/>
   </g>
   <g id="patch_5">
    <path d="M 436.0075 164.8722 
L 436.0075 73.143401 
" style="fill: none; stroke: #000000; stroke-width: 0.8; stroke-linejoin: miter; stroke-linecap: square"/>
   </g>
   <g id="patch_6">
    <path d="M 37.7875 164.8722 
L 436.0075 164.8722 
" style="fill: none; stroke: #000000; stroke-width: 0.8; stroke-linejoin: miter; stroke-linecap: square"/>
   </g>
   <g id="patch_7">
    <path d="M 37.7875 73.143401 
L 436.0075 73.143401 
" style="fill: none; stroke: #000000; stroke-width: 0.8; stroke-linejoin: miter; stroke-linecap: square"/>
   </g>
  </g>
  <g id="axes_3">
   <g id="patch_8">
    <path d="M 37.7875 276.68 
L 436.0075 276.68 
L 436.0075 184.951201 
L 37.7875 184.951201 
z
" style="fill: #ffffff"/>
   </g>
   <g id="PathCollection_2">
    <g clip-path="url(#pb37d72a9f8)">
     <use xlink:href="#mdcaaff841a" x="338.927541" y="228.455489" style="fill: #daa520; stroke: #daa520"/>
     <use xlink:href="#mdcaaff841a" x="135.299679" y="223.929216" style="fill: #daa520; stroke: #daa520"/>
     <use xlink:href="#mdcaaff841a" x="400.737984" y="196.438701" style="fill: #daa520; stroke: #daa520"/>
     <use xlink:href="#mdcaaff841a" x="319.337907" y="209.775278" style="fill: #daa520; stroke: #daa520"/>
     <use xlink:href="#mdcaaff841a" x="414.923292" y="221.083413" style="fill: #daa520; stroke: #daa520"/>
     <use xlink:href="#mdcaaff841a" x="396.929283" y="206.090455" style="fill: #daa520; stroke: #daa520"/>
     <use xlink:href="#mdcaaff841a" x="321.361068" y="222.368594" style="fill: #daa520; stroke: #daa520"/>
     <use xlink:href="#mdcaaff841a" x="231.057527" y="198.007898" style="fill: #daa520; stroke: #daa520"/>
     <use xlink:href="#mdcaaff841a" x="294.659001" y="212.335379" style="fill: #daa520; stroke: #daa520"/>
     <use xlink:href="#mdcaaff841a" x="293.035656" y="212.437503" style="fill: #daa520; stroke: #daa520"/>
     <use xlink:href="#mdcaaff841a" x="356.569138" y="211.715182" style="fill: #daa520; stroke: #daa520"/>
     <use xlink:href="#mdcaaff841a" x="326.901495" y="198.488455" style="fill: #daa520; stroke: #daa520"/>
     <use xlink:href="#mdcaaff841a" x="318.952846" y="211.904005" style="fill: #daa520; stroke: #daa520"/>
     <use xlink:href="#mdcaaff841a" x="398.882322" y="206.119586" style="fill: #daa520; stroke: #daa520"/>
     <use xlink:href="#mdcaaff841a" x="199.800773" y="222.063517" style="fill: #daa520; stroke: #daa520"/>
     <use xlink:href="#mdcaaff841a" x="203.51945" y="217.580077" style="fill: #daa520; stroke: #daa520"/>
     <use xlink:href="#mdcaaff841a" x="375.31814" y="216.595002" style="fill: #daa520; stroke: #daa520"/>
     <use xlink:href="#mdcaaff841a" x="405.905841" y="202.449017" style="fill: #daa520; stroke: #daa520"/>
     <use xlink:href="#mdcaaff841a" x="371.631522" y="199.170114" style="fill: #daa520; stroke: #daa520"/>
     <use xlink:href="#mdcaaff841a" x="367.700483" y="197.328072" style="fill: #daa520; stroke: #daa520"/>
     <use xlink:href="#mdcaaff841a" x="343.12723" y="210.724937" style="fill: #daa520; stroke: #daa520"/>
     <use xlink:href="#mdcaaff841a" x="340.624528" y="198.862163" style="fill: #daa520; stroke: #daa520"/>
     <use xlink:href="#mdcaaff841a" x="344.903183" y="226.596059" style="fill: #daa520; stroke: #daa520"/>
     <use xlink:href="#mdcaaff841a" x="354.545659" y="206.967596" style="fill: #daa520; stroke: #daa520"/>
     <use xlink:href="#mdcaaff841a" x="220.983959" y="222.202841" style="fill: #daa520; stroke: #daa520"/>
     <use xlink:href="#mdcaaff841a" x="355.288523" y="227.090208" style="fill: #daa520; stroke: #daa520"/>
     <use xlink:href="#mdcaaff841a" x="303.751552" y="227.376935" style="fill: #daa520; stroke: #daa520"/>
     <use xlink:href="#mdcaaff841a" x="125.799169" y="210.807416" style="fill: #daa520; stroke: #daa520"/>
     <use xlink:href="#mdcaaff841a" x="324.196517" y="223.946261" style="fill: #daa520; stroke: #daa520"/>
     <use xlink:href="#mdcaaff841a" x="137.60061" y="224.226441" style="fill: #daa520; stroke: #daa520"/>
     <use xlink:href="#mdcaaff841a" x="313.94549" y="214.000585" style="fill: #daa520; stroke: #daa520"/>
     <use xlink:href="#mdcaaff841a" x="361.271638" y="225.261164" style="fill: #daa520; stroke: #daa520"/>
     <use xlink:href="#mdcaaff841a" x="89.26864" y="208.208291" style="fill: #daa520; stroke: #daa520"/>
     <use xlink:href="#mdcaaff841a" x="383.356097" y="221.939175" style="fill: #daa520; stroke: #daa520"/>
     <use xlink:href="#mdcaaff841a" x="308.656418" y="203.095064" style="fill: #daa520; stroke: #daa520"/>
     <use xlink:href="#mdcaaff841a" x="370.483789" y="211.288228" style="fill: #daa520; stroke: #daa520"/>
     <use xlink:href="#mdcaaff841a" x="289.425671" y="212.652175" style="fill: #daa520; stroke: #daa520"/>
     <use xlink:href="#mdcaaff841a" x="413.357619" y="207.495372" style="fill: #daa520; stroke: #daa520"/>
     <use xlink:href="#mdcaaff841a" x="163.951915" y="220.267209" style="fill: #daa520; stroke: #daa520"/>
     <use xlink:href="#mdcaaff841a" x="309.866796" y="192.715448" style="fill: #daa520; stroke: #daa520"/>
     <use xlink:href="#mdcaaff841a" x="306.760536" y="228.651679" style="fill: #daa520; stroke: #daa520"/>
     <use xlink:href="#mdcaaff841a" x="280.229873" y="207.717668" style="fill: #daa520; stroke: #daa520"/>
     <use xlink:href="#mdcaaff841a" x="200.686493" y="214.60932" style="fill: #daa520; stroke: #daa520"/>
     <use xlink:href="#mdcaaff841a" x="79.332604" y="219.644518" style="fill: #daa520; stroke: #daa520"/>
     <use xlink:href="#mdcaaff841a" x="161.803053" y="222.430393" style="fill: #daa520; stroke: #daa520"/>
     <use xlink:href="#mdcaaff841a" x="281.181889" y="212.9835" style="fill: #daa520; stroke: #daa520"/>
     <use xlink:href="#mdcaaff841a" x="105.292902" y="226.798185" style="fill: #daa520; stroke: #daa520"/>
     <use xlink:href="#mdcaaff841a" x="289.337606" y="191.047412" style="fill: #daa520; stroke: #daa520"/>
     <use xlink:href="#mdcaaff841a" x="364.033527" y="207.024985" style="fill: #daa520; stroke: #daa520"/>
     <use xlink:href="#mdcaaff841a" x="292.283406" y="213.072035" style="fill: #daa520; stroke: #daa520"/>
     <use xlink:href="#mdcaaff841a" x="362.63408" y="229.430359" style="fill: #daa520; stroke: #daa520"/>
     <use xlink:href="#mdcaaff841a" x="316.365842" y="225.50421" style="fill: #daa520; stroke: #daa520"/>
     <use xlink:href="#mdcaaff841a" x="326.500558" y="207.709956" style="fill: #daa520; stroke: #daa520"/>
     <use xlink:href="#mdcaaff841a" x="364.610108" y="211.840347" style="fill: #daa520; stroke: #daa520"/>
     <use xlink:href="#mdcaaff841a" x="356.225913" y="189.368527" style="fill: #daa520; stroke: #daa520"/>
     <use xlink:href="#mdcaaff841a" x="378.882512" y="231.907279" style="fill: #daa520; stroke: #daa520"/>
     <use xlink:href="#mdcaaff841a" x="331.331716" y="216.763375" style="fill: #daa520; stroke: #daa520"/>
     <use xlink:href="#mdcaaff841a" x="307.894276" y="189.120692" style="fill: #daa520; stroke: #daa520"/>
     <use xlink:href="#mdcaaff841a" x="316.4793" y="211.497854" style="fill: #daa520; stroke: #daa520"/>
     <use xlink:href="#mdcaaff841a" x="413.058067" y="217.11391" style="fill: #daa520; stroke: #daa520"/>
     <use xlink:href="#mdcaaff841a" x="369.694629" y="231.691748" style="fill: #daa520; stroke: #daa520"/>
     <use xlink:href="#mdcaaff841a" x="362.865917" y="212.893798" style="fill: #daa520; stroke: #daa520"/>
     <use xlink:href="#mdcaaff841a" x="355.716999" y="191.415948" style="fill: #daa520; stroke: #daa520"/>
     <use xlink:href="#mdcaaff841a" x="328.477259" y="211.345229" style="fill: #daa520; stroke: #daa520"/>
     <use xlink:href="#mdcaaff841a" x="368.873202" y="212.723389" style="fill: #daa520; stroke: #daa520"/>
     <use xlink:href="#mdcaaff841a" x="295.805757" y="191.433056" style="fill: #daa520; stroke: #daa520"/>
     <use xlink:href="#mdcaaff841a" x="356.451804" y="215.111313" style="fill: #daa520; stroke: #daa520"/>
     <use xlink:href="#mdcaaff841a" x="339.233581" y="216.205152" style="fill: #daa520; stroke: #daa520"/>
     <use xlink:href="#mdcaaff841a" x="318.406011" y="198.775346" style="fill: #daa520; stroke: #daa520"/>
     <use xlink:href="#mdcaaff841a" x="305.921517" y="228.588446" style="fill: #daa520; stroke: #daa520"/>
     <use xlink:href="#mdcaaff841a" x="323.952396" y="190.562798" style="fill: #daa520; stroke: #daa520"/>
     <use xlink:href="#mdcaaff841a" x="289.615349" y="228.749597" style="fill: #daa520; stroke: #daa520"/>
     <use xlink:href="#mdcaaff841a" x="320.07835" y="211.931542" style="fill: #daa520; stroke: #daa520"/>
     <use xlink:href="#mdcaaff841a" x="236.833756" y="224.02801" style="fill: #daa520; stroke: #daa520"/>
     <use xlink:href="#mdcaaff841a" x="400.366348" y="204.218151" style="fill: #daa520; stroke: #daa520"/>
     <use xlink:href="#mdcaaff841a" x="255.908793" y="219.019314" style="fill: #daa520; stroke: #daa520"/>
     <use xlink:href="#mdcaaff841a" x="355.675031" y="211.095252" style="fill: #daa520; stroke: #daa520"/>
     <use xlink:href="#mdcaaff841a" x="328.759633" y="207.820237" style="fill: #daa520; stroke: #daa520"/>
     <use xlink:href="#mdcaaff841a" x="295.63338" y="228.94954" style="fill: #daa520; stroke: #daa520"/>
     <use xlink:href="#mdcaaff841a" x="300.394329" y="212.163716" style="fill: #daa520; stroke: #daa520"/>
     <use xlink:href="#mdcaaff841a" x="285.027831" y="198.864254" style="fill: #daa520; stroke: #daa520"/>
     <use xlink:href="#mdcaaff841a" x="356.233651" y="224.930869" style="fill: #daa520; stroke: #daa520"/>
     <use xlink:href="#mdcaaff841a" x="355.404162" y="212.724994" style="fill: #daa520; stroke: #daa520"/>
     <use xlink:href="#mdcaaff841a" x="66.428406" y="235.344313" style="fill: #daa520; stroke: #daa520"/>
     <use xlink:href="#mdcaaff841a" x="401.772668" y="200.272585" style="fill: #daa520; stroke: #daa520"/>
     <use xlink:href="#mdcaaff841a" x="320.365115" y="219.377717" style="fill: #daa520; stroke: #daa520"/>
     <use xlink:href="#mdcaaff841a" x="350.044632" y="224.12033" style="fill: #daa520; stroke: #daa520"/>
     <use xlink:href="#mdcaaff841a" x="366.038553" y="224.377344" style="fill: #daa520; stroke: #daa520"/>
     <use xlink:href="#mdcaaff841a" x="267.782016" y="227.84854" style="fill: #daa520; stroke: #daa520"/>
     <use xlink:href="#mdcaaff841a" x="413.753148" y="218.855288" style="fill: #daa520; stroke: #daa520"/>
     <use xlink:href="#mdcaaff841a" x="368.51614" y="211.544896" style="fill: #daa520; stroke: #daa520"/>
     <use xlink:href="#mdcaaff841a" x="264.183571" y="214.720157" style="fill: #daa520; stroke: #daa520"/>
     <use xlink:href="#mdcaaff841a" x="327.704158" y="205.814995" style="fill: #daa520; stroke: #daa520"/>
     <use xlink:href="#mdcaaff841a" x="332.244502" y="204.32184" style="fill: #daa520; stroke: #daa520"/>
     <use xlink:href="#mdcaaff841a" x="401.881773" y="196.550966" style="fill: #daa520; stroke: #daa520"/>
     <use xlink:href="#mdcaaff841a" x="361.187898" y="231.454894" style="fill: #daa520; stroke: #daa520"/>
     <use xlink:href="#mdcaaff841a" x="248.17933" y="214.735124" style="fill: #daa520; stroke: #daa520"/>
     <use xlink:href="#mdcaaff841a" x="383.943054" y="216.374699" style="fill: #daa520; stroke: #daa520"/>
     <use xlink:href="#mdcaaff841a" x="379.091314" y="227.826249" style="fill: #daa520; stroke: #daa520"/>
     <use xlink:href="#mdcaaff841a" x="417.118948" y="223.68859" style="fill: #daa520; stroke: #daa520"/>
     <use xlink:href="#mdcaaff841a" x="363.770873" y="216.223341" style="fill: #daa520; stroke: #daa520"/>
    </g>
   </g>
   <g id="matplotlib.axis_5">
    <g id="xtick_1">
     <g id="line2d_9">
      <defs>
       <path id="mac7f7ab540" d="M 0 0 
L 0 3.5 
" style="stroke: #696969; stroke-width: 0.8"/>
      </defs>
      <g>
       <use xlink:href="#mac7f7ab540" x="55.888409" y="276.68" style="fill: #696969; stroke: #696969; stroke-width: 0.8"/>
      </g>
     </g>
     <g id="text_3">
      <!-- −1.0 -->
      <g style="fill: #696969" transform="translate(36.462159 295.8375) scale(0.16 -0.16)">
       <defs>
        <path id="DejaVuSans-2212" d="M 678 2272 
L 4684 2272 
L 4684 1741 
L 678 1741 
L 678 2272 
z
" transform="scale(0.015625)"/>
        <path id="DejaVuSans-31" d="M 794 531 
L 1825 531 
L 1825 4091 
L 703 3866 
L 703 4441 
L 1819 4666 
L 2450 4666 
L 2450 531 
L 3481 531 
L 3481 0 
L 794 0 
L 794 531 
z
" transform="scale(0.015625)"/>
        <path id="DejaVuSans-2e" d="M 684 794 
L 1344 794 
L 1344 0 
L 684 0 
L 684 794 
z
" transform="scale(0.015625)"/>
       </defs>
       <use xlink:href="#DejaVuSans-2212"/>
       <use xlink:href="#DejaVuSans-31" x="83.789062"/>
       <use xlink:href="#DejaVuSans-2e" x="147.412109"/>
       <use xlink:href="#DejaVuSans-30" x="179.199219"/>
      </g>
     </g>
    </g>
    <g id="xtick_2">
     <g id="line2d_10">
      <g>
       <use xlink:href="#mac7f7ab540" x="146.392955" y="276.68" style="fill: #696969; stroke: #696969; stroke-width: 0.8"/>
      </g>
     </g>
     <g id="text_4">
      <!-- −0.5 -->
      <g style="fill: #696969" transform="translate(126.966705 295.8375) scale(0.16 -0.16)">
       <use xlink:href="#DejaVuSans-2212"/>
       <use xlink:href="#DejaVuSans-30" x="83.789062"/>
       <use xlink:href="#DejaVuSans-2e" x="147.412109"/>
       <use xlink:href="#DejaVuSans-35" x="179.199219"/>
      </g>
     </g>
    </g>
    <g id="xtick_3">
     <g id="line2d_11">
      <g>
       <use xlink:href="#mac7f7ab540" x="236.8975" y="276.68" style="fill: #696969; stroke: #696969; stroke-width: 0.8"/>
      </g>
     </g>
     <g id="text_5">
      <!-- 0.0 -->
      <g style="fill: #696969" transform="translate(224.175 295.8375) scale(0.16 -0.16)">
       <use xlink:href="#DejaVuSans-30"/>
       <use xlink:href="#DejaVuSans-2e" x="63.623047"/>
       <use xlink:href="#DejaVuSans-30" x="95.410156"/>
      </g>
     </g>
    </g>
    <g id="xtick_4">
     <g id="line2d_12">
      <g>
       <use xlink:href="#mac7f7ab540" x="327.402045" y="276.68" style="fill: #696969; stroke: #696969; stroke-width: 0.8"/>
      </g>
     </g>
     <g id="text_6">
      <!-- 0.5 -->
      <g style="fill: #696969" transform="translate(314.679545 295.8375) scale(0.16 -0.16)">
       <use xlink:href="#DejaVuSans-30"/>
       <use xlink:href="#DejaVuSans-2e" x="63.623047"/>
       <use xlink:href="#DejaVuSans-35" x="95.410156"/>
      </g>
     </g>
    </g>
    <g id="xtick_5">
     <g id="line2d_13">
      <g>
       <use xlink:href="#mac7f7ab540" x="417.906591" y="276.68" style="fill: #696969; stroke: #696969; stroke-width: 0.8"/>
      </g>
     </g>
     <g id="text_7">
      <!-- 1.0 -->
      <g style="fill: #696969" transform="translate(405.184091 295.8375) scale(0.16 -0.16)">
       <use xlink:href="#DejaVuSans-31"/>
       <use xlink:href="#DejaVuSans-2e" x="63.623047"/>
       <use xlink:href="#DejaVuSans-30" x="95.410156"/>
      </g>
     </g>
    </g>
    <g id="text_8">
     <!-- $X$ -->
     <g transform="translate(231.3775 315.3225) scale(0.16 -0.16)">
      <defs>
       <path id="DejaVuSans-Oblique-58" d="M 878 4666 
L 1516 4666 
L 2316 2981 
L 3763 4666 
L 4500 4666 
L 2578 2438 
L 3738 0 
L 3103 0 
L 2163 1966 
L 459 0 
L -275 0 
L 1906 2509 
L 878 4666 
z
" transform="scale(0.015625)"/>
      </defs>
      <use xlink:href="#DejaVuSans-Oblique-58" transform="translate(0 0.09375)"/>
     </g>
    </g>
   </g>
   <g id="matplotlib.axis_6">
    <g id="ytick_3">
     <g id="line2d_14">
      <g>
       <use xlink:href="#m833801d70d" x="37.7875" y="252.513506" style="fill: #696969; stroke: #696969; stroke-width: 0.8"/>
      </g>
     </g>
     <g id="text_9">
      <!-- −5 -->
      <g style="fill: #696969" transform="translate(7.2 258.592256) scale(0.16 -0.16)">
       <use xlink:href="#DejaVuSans-2212"/>
       <use xlink:href="#DejaVuSans-35" x="83.789062"/>
      </g>
     </g>
    </g>
    <g id="ytick_4">
     <g id="line2d_15">
      <g>
       <use xlink:href="#m833801d70d" x="37.7875" y="219.904821" style="fill: #696969; stroke: #696969; stroke-width: 0.8"/>
      </g>
     </g>
     <g id="text_10">
      <!-- 0 -->
      <g style="fill: #696969" transform="translate(20.6075 225.983571) scale(0.16 -0.16)">
       <use xlink:href="#DejaVuSans-30"/>
      </g>
     </g>
    </g>
    <g id="ytick_5">
     <g id="line2d_16">
      <g>
       <use xlink:href="#m833801d70d" x="37.7875" y="187.296136" style="fill: #696969; stroke: #696969; stroke-width: 0.8"/>
      </g>
     </g>
     <g id="text_11">
      <!-- 5 -->
      <g style="fill: #696969" transform="translate(20.6075 193.374886) scale(0.16 -0.16)">
       <use xlink:href="#DejaVuSans-35"/>
      </g>
     </g>
    </g>
   </g>
   <g id="line2d_17">
    <path d="M 55.888409 222.813593 
L 63.128773 223.181873 
L 70.369136 222.948076 
L 77.6095 222.332179 
L 84.849864 221.847729 
L 92.090227 221.743798 
L 99.330591 221.851011 
L 106.570955 221.9056 
L 113.811318 221.773639 
L 121.051682 221.480335 
L 128.292045 221.134867 
L 135.532409 220.828131 
L 142.772773 220.580456 
L 150.013136 220.358371 
L 157.2535 220.116891 
L 164.493864 219.828341 
L 171.734227 219.490531 
L 178.974591 219.121672 
L 186.214955 218.748735 
L 193.455318 218.393575 
L 200.695682 218.062207 
L 207.936045 217.743818 
L 215.176409 217.421413 
L 222.416773 217.08643 
L 229.657136 216.746411 
L 236.8975 216.421783 
L 244.137864 216.136123 
L 251.378227 215.905766 
L 258.618591 215.732294 
L 265.858955 215.599872 
L 273.099318 215.480303 
L 280.339682 215.348865 
L 287.580045 215.206681 
L 294.820409 215.089559 
L 302.060773 215.041052 
L 309.301136 215.063893 
L 316.5415 215.10145 
L 323.781864 215.082596 
L 331.022227 214.999123 
L 338.262591 214.923453 
L 345.502955 214.927892 
L 352.743318 215.014342 
L 359.983682 215.132772 
L 367.224045 215.234428 
L 374.464409 215.306819 
L 381.704773 215.382575 
L 388.945136 215.508028 
L 396.1855 215.659843 
L 403.425864 215.704352 
L 410.666227 215.509254 
L 417.906591 215.056736 
" clip-path="url(#pb37d72a9f8)" style="fill: none; stroke: #696969; stroke-width: 2; stroke-linecap: square"/>
   </g>
   <g id="line2d_18">
    <path d="M 55.888409 272.510509 
L 63.128773 243.63216 
L 70.369136 227.401948 
L 77.6095 219.220732 
L 84.849864 215.90581 
L 92.090227 215.320403 
L 99.330591 216.08452 
L 106.570955 217.352578 
L 113.811318 218.645187 
L 121.051682 219.724372 
L 128.292045 220.503114 
L 135.532409 220.981614 
L 142.772773 221.203974 
L 150.013136 221.230139 
L 157.2535 221.118969 
L 164.493864 220.919159 
L 171.734227 220.665488 
L 178.974591 220.378484 
L 186.214955 220.066115 
L 193.455318 219.72653 
L 200.695682 219.351211 
L 207.936045 218.928123 
L 215.176409 218.444644 
L 222.416773 217.890173 
L 229.657136 217.258376 
L 236.8975 216.549042 
L 244.137864 215.769562 
L 251.378227 214.935945 
L 258.618591 214.073325 
L 265.858955 213.215798 
L 273.099318 212.405464 
L 280.339682 211.690459 
L 287.580045 211.121851 
L 294.820409 210.749247 
L 302.060773 210.615098 
L 309.301136 210.74783 
L 316.5415 211.154117 
L 323.781864 211.810935 
L 331.022227 212.658389 
L 338.262591 213.594772 
L 345.502955 214.475906 
L 352.743318 215.121474 
L 359.983682 215.33188 
L 367.224045 214.920118 
L 374.464409 213.764191 
L 381.704773 211.886901 
L 388.945136 209.571177 
L 396.1855 207.520734 
L 403.425864 207.077563 
L 410.666227 210.509726 
L 417.906591 221.385055 
" clip-path="url(#pb37d72a9f8)" style="fill: none; stroke-dasharray: 7.4,3.2; stroke-dashoffset: 0; stroke: #79ad41; stroke-width: 2"/>
   </g>
   <g id="patch_9">
    <path d="M 37.7875 276.68 
L 37.7875 184.951201 
" style="fill: none; stroke: #000000; stroke-width: 0.8; stroke-linejoin: miter; stroke-linecap: square"/>
   </g>
   <g id="patch_10">
    <path d="M 436.0075 276.68 
L 436.0075 184.951201 
" style="fill: none; stroke: #000000; stroke-width: 0.8; stroke-linejoin: miter; stroke-linecap: square"/>
   </g>
   <g id="patch_11">
    <path d="M 37.7875 276.68 
L 436.0075 276.68 
" style="fill: none; stroke: #000000; stroke-width: 0.8; stroke-linejoin: miter; stroke-linecap: square"/>
   </g>
   <g id="patch_12">
    <path d="M 37.7875 184.951201 
L 436.0075 184.951201 
" style="fill: none; stroke: #000000; stroke-width: 0.8; stroke-linejoin: miter; stroke-linecap: square"/>
   </g>
  </g>
 </g>
 <defs>
  <clipPath id="p05472efff9">
   <rect x="37.7875" y="7.2" width="398.22" height="45.864399"/>
  </clipPath>
  <clipPath id="p3a9ba133a1">
   <rect x="37.7875" y="73.143401" width="398.22" height="91.728799"/>
  </clipPath>
  <clipPath id="pb37d72a9f8">
   <rect x="37.7875" y="184.951201" width="398.22" height="91.728799"/>
  </clipPath>
 </defs>
</svg>
