<?xml version="1.0" encoding="utf-8" standalone="no"?>
<!DOCTYPE svg PUBLIC "-//W3C//DTD SVG 1.1//EN"
  "http://www.w3.org/Graphics/SVG/1.1/DTD/svg11.dtd">
<svg xmlns:xlink="http://www.w3.org/1999/xlink" width="443.2075pt" height="325.85pt" viewBox="0 0 443.2075 325.85" xmlns="http://www.w3.org/2000/svg" version="1.1">
 <metadata>
  <rdf:RDF xmlns:dc="http://purl.org/dc/elements/1.1/" xmlns:cc="http://creativecommons.org/ns#" xmlns:rdf="http://www.w3.org/1999/02/22-rdf-syntax-ns#">
   <cc:Work>
    <dc:type rdf:resource="http://purl.org/dc/dcmitype/StillImage"/>
    <dc:date>2024-01-28T20:57:14.984159</dc:date>
    <dc:format>image/svg+xml</dc:format>
    <dc:creator>
     <cc:Agent>
      <dc:title>Matplotlib v3.7.2, https://matplotlib.org/</dc:title>
     </cc:Agent>
    </dc:creator>
   </cc:Work>
  </rdf:RDF>
 </metadata>
 <defs>
  <style type="text/css">*{stroke-linejoin: round; stroke-linecap: butt}</style>
 </defs>
 <g id="figure_1">
  <g id="patch_1">
   <path d="M 0 325.85 
L 443.2075 325.85 
L 443.2075 0 
L 0 0 
z
" style="fill: #ffffff"/>
  </g>
  <g id="axes_1">
   <g id="patch_2">
    <path d="M 37.7875 50.034534 
L 436.0075 50.034534 
L 436.0075 7.2 
L 37.7875 7.2 
z
" style="fill: #ffffff"/>
   </g>
   <g id="PolyCollection_1">
    <defs>
     <path id="m6a85aa1c71" d="M 55.888409 -277.76249 
L 55.888409 -315.939115 
L 63.128773 -314.603486 
L 70.369136 -313.315578 
L 77.6095 -312.083171 
L 84.849864 -310.912474 
L 92.090227 -309.808242 
L 99.330591 -308.773882 
L 106.570955 -307.811626 
L 113.811318 -306.922737 
L 121.051682 -306.107679 
L 128.292045 -305.366312 
L 135.532409 -304.698031 
L 142.772773 -304.101892 
L 150.013136 -303.576745 
L 157.2535 -303.121301 
L 164.493864 -302.734181 
L 171.734227 -302.413942 
L 178.974591 -302.159137 
L 186.214955 -301.968251 
L 193.455318 -301.839705 
L 200.695682 -301.771844 
L 207.936045 -301.762854 
L 215.176409 -301.810724 
L 222.416773 -301.913226 
L 229.657136 -302.067774 
L 236.8975 -302.271448 
L 244.137864 -302.520889 
L 251.378227 -302.812259 
L 258.618591 -303.141211 
L 265.858955 -303.502891 
L 273.099318 -303.89189 
L 280.339682 -304.302316 
L 287.580045 -304.727817 
L 294.820409 -305.161643 
L 302.060773 -305.596755 
L 309.301136 -306.025916 
L 316.5415 -306.441828 
L 323.781864 -306.837228 
L 331.022227 -307.205074 
L 338.262591 -307.538587 
L 345.502955 -307.83143 
L 352.743318 -308.077779 
L 359.983682 -308.272412 
L 367.224045 -308.410763 
L 374.464409 -308.489012 
L 381.704773 -308.504091 
L 388.945136 -308.453745 
L 396.1855 -308.336544 
L 403.425864 -308.151901 
L 410.666227 -307.900108 
L 417.906591 -307.582314 
L 417.906591 -277.76249 
L 417.906591 -277.76249 
L 410.666227 -277.76249 
L 403.425864 -277.76249 
L 396.1855 -277.76249 
L 388.945136 -277.76249 
L 381.704773 -277.76249 
L 374.464409 -277.76249 
L 367.224045 -277.76249 
L 359.983682 -277.76249 
L 352.743318 -277.76249 
L 345.502955 -277.76249 
L 338.262591 -277.76249 
L 331.022227 -277.76249 
L 323.781864 -277.76249 
L 316.5415 -277.76249 
L 309.301136 -277.76249 
L 302.060773 -277.76249 
L 294.820409 -277.76249 
L 287.580045 -277.76249 
L 280.339682 -277.76249 
L 273.099318 -277.76249 
L 265.858955 -277.76249 
L 258.618591 -277.76249 
L 251.378227 -277.76249 
L 244.137864 -277.76249 
L 236.8975 -277.76249 
L 229.657136 -277.76249 
L 222.416773 -277.76249 
L 215.176409 -277.76249 
L 207.936045 -277.76249 
L 200.695682 -277.76249 
L 193.455318 -277.76249 
L 186.214955 -277.76249 
L 178.974591 -277.76249 
L 171.734227 -277.76249 
L 164.493864 -277.76249 
L 157.2535 -277.76249 
L 150.013136 -277.76249 
L 142.772773 -277.76249 
L 135.532409 -277.76249 
L 128.292045 -277.76249 
L 121.051682 -277.76249 
L 113.811318 -277.76249 
L 106.570955 -277.76249 
L 99.330591 -277.76249 
L 92.090227 -277.76249 
L 84.849864 -277.76249 
L 77.6095 -277.76249 
L 70.369136 -277.76249 
L 63.128773 -277.76249 
L 55.888409 -277.76249 
z
" style="stroke: #dc143c; stroke-opacity: 0.2"/>
    </defs>
    <g clip-path="url(#p11688ba160)">
     <use xlink:href="#m6a85aa1c71" x="0" y="325.85" style="fill: #dc143c; fill-opacity: 0.2; stroke: #dc143c; stroke-opacity: 0.2"/>
    </g>
   </g>
   <g id="PolyCollection_2">
    <defs>
     <path id="m5192529b64" d="M 55.888409 -277.76249 
L 55.888409 -302.526715 
L 63.128773 -303.862343 
L 70.369136 -305.150251 
L 77.6095 -306.382659 
L 84.849864 -307.553355 
L 92.090227 -308.657588 
L 99.330591 -309.691948 
L 106.570955 -310.654203 
L 113.811318 -311.543092 
L 121.051682 -312.35815 
L 128.292045 -313.099517 
L 135.532409 -313.767799 
L 142.772773 -314.363938 
L 150.013136 -314.889084 
L 157.2535 -315.344528 
L 164.493864 -315.731649 
L 171.734227 -316.051887 
L 178.974591 -316.306692 
L 186.214955 -316.497579 
L 193.455318 -316.626125 
L 200.695682 -316.693985 
L 207.936045 -316.702976 
L 215.176409 -316.655106 
L 222.416773 -316.552604 
L 229.657136 -316.398056 
L 236.8975 -316.194382 
L 244.137864 -315.944941 
L 251.378227 -315.653571 
L 258.618591 -315.324618 
L 265.858955 -314.962938 
L 273.099318 -314.573939 
L 280.339682 -314.163513 
L 287.580045 -313.738012 
L 294.820409 -313.304186 
L 302.060773 -312.869074 
L 309.301136 -312.439913 
L 316.5415 -312.024002 
L 323.781864 -311.628602 
L 331.022227 -311.260755 
L 338.262591 -310.927243 
L 345.502955 -310.634399 
L 352.743318 -310.38805 
L 359.983682 -310.193418 
L 367.224045 -310.055066 
L 374.464409 -309.976818 
L 381.704773 -309.961739 
L 388.945136 -310.012084 
L 396.1855 -310.129286 
L 403.425864 -310.313929 
L 410.666227 -310.565722 
L 417.906591 -310.883516 
L 417.906591 -277.76249 
L 417.906591 -277.76249 
L 410.666227 -277.76249 
L 403.425864 -277.76249 
L 396.1855 -277.76249 
L 388.945136 -277.76249 
L 381.704773 -277.76249 
L 374.464409 -277.76249 
L 367.224045 -277.76249 
L 359.983682 -277.76249 
L 352.743318 -277.76249 
L 345.502955 -277.76249 
L 338.262591 -277.76249 
L 331.022227 -277.76249 
L 323.781864 -277.76249 
L 316.5415 -277.76249 
L 309.301136 -277.76249 
L 302.060773 -277.76249 
L 294.820409 -277.76249 
L 287.580045 -277.76249 
L 280.339682 -277.76249 
L 273.099318 -277.76249 
L 265.858955 -277.76249 
L 258.618591 -277.76249 
L 251.378227 -277.76249 
L 244.137864 -277.76249 
L 236.8975 -277.76249 
L 229.657136 -277.76249 
L 222.416773 -277.76249 
L 215.176409 -277.76249 
L 207.936045 -277.76249 
L 200.695682 -277.76249 
L 193.455318 -277.76249 
L 186.214955 -277.76249 
L 178.974591 -277.76249 
L 171.734227 -277.76249 
L 164.493864 -277.76249 
L 157.2535 -277.76249 
L 150.013136 -277.76249 
L 142.772773 -277.76249 
L 135.532409 -277.76249 
L 128.292045 -277.76249 
L 121.051682 -277.76249 
L 113.811318 -277.76249 
L 106.570955 -277.76249 
L 99.330591 -277.76249 
L 92.090227 -277.76249 
L 84.849864 -277.76249 
L 77.6095 -277.76249 
L 70.369136 -277.76249 
L 63.128773 -277.76249 
L 55.888409 -277.76249 
z
" style="stroke: #000080; stroke-opacity: 0.2"/>
    </defs>
    <g clip-path="url(#p11688ba160)">
     <use xlink:href="#m5192529b64" x="0" y="325.85" style="fill: #000080; fill-opacity: 0.2; stroke: #000080; stroke-opacity: 0.2"/>
    </g>
   </g>
   <g id="matplotlib.axis_1"/>
   <g id="matplotlib.axis_2"/>
   <g id="line2d_1">
    <path d="M 55.888409 9.910885 
L 63.128773 11.246514 
L 70.369136 12.534422 
L 77.6095 13.766829 
L 84.849864 14.937526 
L 92.090227 16.041758 
L 99.330591 17.076118 
L 106.570955 18.038374 
L 113.811318 18.927263 
L 121.051682 19.742321 
L 128.292045 20.483688 
L 135.532409 21.151969 
L 142.772773 21.748108 
L 150.013136 22.273255 
L 157.2535 22.728699 
L 164.493864 23.115819 
L 171.734227 23.436058 
L 178.974591 23.690863 
L 186.214955 23.881749 
L 193.455318 24.010295 
L 200.695682 24.078156 
L 207.936045 24.087146 
L 215.176409 24.039276 
L 222.416773 23.936774 
L 229.657136 23.782226 
L 236.8975 23.578552 
L 244.137864 23.329111 
L 251.378227 23.037741 
L 258.618591 22.708789 
L 265.858955 22.347109 
L 273.099318 21.95811 
L 280.339682 21.547684 
L 287.580045 21.122183 
L 294.820409 20.688357 
L 302.060773 20.253245 
L 309.301136 19.824084 
L 316.5415 19.408172 
L 323.781864 19.012772 
L 331.022227 18.644926 
L 338.262591 18.311413 
L 345.502955 18.01857 
L 352.743318 17.772221 
L 359.983682 17.577588 
L 367.224045 17.439237 
L 374.464409 17.360988 
L 381.704773 17.345909 
L 388.945136 17.396255 
L 396.1855 17.513456 
L 403.425864 17.698099 
L 410.666227 17.949892 
L 417.906591 18.267686 
" clip-path="url(#p11688ba160)" style="fill: none; stroke: #dc143c; stroke-width: 1.5; stroke-linecap: square"/>
   </g>
   <g id="line2d_2">
    <path d="M 55.888409 23.323285 
L 63.128773 21.987657 
L 70.369136 20.699749 
L 77.6095 19.467341 
L 84.849864 18.296645 
L 92.090227 17.192412 
L 99.330591 16.158052 
L 106.570955 15.195797 
L 113.811318 14.306908 
L 121.051682 13.49185 
L 128.292045 12.750483 
L 135.532409 12.082201 
L 142.772773 11.486062 
L 150.013136 10.960916 
L 157.2535 10.505472 
L 164.493864 10.118351 
L 171.734227 9.798113 
L 178.974591 9.543308 
L 186.214955 9.352421 
L 193.455318 9.223875 
L 200.695682 9.156015 
L 207.936045 9.147024 
L 215.176409 9.194894 
L 222.416773 9.297396 
L 229.657136 9.451944 
L 236.8975 9.655618 
L 244.137864 9.905059 
L 251.378227 10.196429 
L 258.618591 10.525382 
L 265.858955 10.887062 
L 273.099318 11.276061 
L 280.339682 11.686487 
L 287.580045 12.111988 
L 294.820409 12.545814 
L 302.060773 12.980926 
L 309.301136 13.410087 
L 316.5415 13.825998 
L 323.781864 14.221398 
L 331.022227 14.589245 
L 338.262591 14.922757 
L 345.502955 15.215601 
L 352.743318 15.46195 
L 359.983682 15.656582 
L 367.224045 15.794934 
L 374.464409 15.873182 
L 381.704773 15.888261 
L 388.945136 15.837916 
L 396.1855 15.720714 
L 403.425864 15.536071 
L 410.666227 15.284278 
L 417.906591 14.966484 
" clip-path="url(#p11688ba160)" style="fill: none; stroke: #000080; stroke-width: 1.5; stroke-linecap: square"/>
   </g>
  </g>
  <g id="axes_2">
   <g id="patch_3">
    <path d="M 37.7875 163.357267 
L 436.0075 163.357267 
L 436.0075 77.688199 
L 37.7875 77.688199 
z
" style="fill: #ffffff"/>
   </g>
   <g id="PathCollection_1">
    <defs>
     <path id="mf73b748206" d="M 0 0.866025 
C 0.229673 0.866025 0.449969 0.774776 0.612372 0.612372 
C 0.774776 0.449969 0.866025 0.229673 0.866025 0 
C 0.866025 -0.229673 0.774776 -0.449969 0.612372 -0.612372 
C 0.449969 -0.774776 0.229673 -0.866025 0 -0.866025 
C -0.229673 -0.866025 -0.449969 -0.774776 -0.612372 -0.612372 
C -0.774776 -0.449969 -0.866025 -0.229673 -0.866025 0 
C -0.866025 0.229673 -0.774776 0.449969 -0.612372 0.612372 
C -0.449969 0.774776 -0.229673 0.866025 0 0.866025 
z
" style="stroke: #daa520"/>
    </defs>
    <g clip-path="url(#p7096f9c158)">
     <use xlink:href="#mf73b748206" x="146.046293" y="128.224319" style="fill: #daa520; stroke: #daa520"/>
     <use xlink:href="#mf73b748206" x="197.348089" y="95.579645" style="fill: #daa520; stroke: #daa520"/>
     <use xlink:href="#mf73b748206" x="405.404744" y="123.572549" style="fill: #daa520; stroke: #daa520"/>
     <use xlink:href="#mf73b748206" x="117.433767" y="135.170477" style="fill: #daa520; stroke: #daa520"/>
     <use xlink:href="#mf73b748206" x="197.749306" y="121.563171" style="fill: #daa520; stroke: #daa520"/>
     <use xlink:href="#mf73b748206" x="87.419097" y="127.262879" style="fill: #daa520; stroke: #daa520"/>
     <use xlink:href="#mf73b748206" x="331.10083" y="117.022791" style="fill: #daa520; stroke: #daa520"/>
     <use xlink:href="#mf73b748206" x="368.263053" y="121.782473" style="fill: #daa520; stroke: #daa520"/>
     <use xlink:href="#mf73b748206" x="110.784914" y="128.615043" style="fill: #daa520; stroke: #daa520"/>
     <use xlink:href="#mf73b748206" x="408.773759" y="127.888597" style="fill: #daa520; stroke: #daa520"/>
     <use xlink:href="#mf73b748206" x="274.225647" y="108.225764" style="fill: #daa520; stroke: #daa520"/>
     <use xlink:href="#mf73b748206" x="401.360073" y="105.420696" style="fill: #daa520; stroke: #daa520"/>
     <use xlink:href="#mf73b748206" x="64.746813" y="134.946573" style="fill: #daa520; stroke: #daa520"/>
     <use xlink:href="#mf73b748206" x="67.604529" y="148.081669" style="fill: #daa520; stroke: #daa520"/>
     <use xlink:href="#mf73b748206" x="295.966179" y="109.212309" style="fill: #daa520; stroke: #daa520"/>
     <use xlink:href="#mf73b748206" x="159.20787" y="121.467701" style="fill: #daa520; stroke: #daa520"/>
     <use xlink:href="#mf73b748206" x="146.463305" y="123.05971" style="fill: #daa520; stroke: #daa520"/>
     <use xlink:href="#mf73b748206" x="335.324185" y="146.265314" style="fill: #daa520; stroke: #daa520"/>
     <use xlink:href="#mf73b748206" x="154.608422" y="123.872189" style="fill: #daa520; stroke: #daa520"/>
     <use xlink:href="#mf73b748206" x="285.703226" y="120.600689" style="fill: #daa520; stroke: #daa520"/>
     <use xlink:href="#mf73b748206" x="209.912928" y="104.791634" style="fill: #daa520; stroke: #daa520"/>
     <use xlink:href="#mf73b748206" x="303.844767" y="128.437815" style="fill: #daa520; stroke: #daa520"/>
     <use xlink:href="#mf73b748206" x="180.18397" y="122.921476" style="fill: #daa520; stroke: #daa520"/>
     <use xlink:href="#mf73b748206" x="317.350918" y="118.586815" style="fill: #daa520; stroke: #daa520"/>
     <use xlink:href="#mf73b748206" x="287.730718" y="119.419481" style="fill: #daa520; stroke: #daa520"/>
     <use xlink:href="#mf73b748206" x="408.45365" y="118.1295" style="fill: #daa520; stroke: #daa520"/>
     <use xlink:href="#mf73b748206" x="363.401644" y="128.639737" style="fill: #daa520; stroke: #daa520"/>
     <use xlink:href="#mf73b748206" x="81.159427" y="87.389508" style="fill: #daa520; stroke: #daa520"/>
     <use xlink:href="#mf73b748206" x="402.008262" y="128.173421" style="fill: #daa520; stroke: #daa520"/>
     <use xlink:href="#mf73b748206" x="409.407048" y="107.610123" style="fill: #daa520; stroke: #daa520"/>
     <use xlink:href="#mf73b748206" x="396.762054" y="158.37804" style="fill: #daa520; stroke: #daa520"/>
     <use xlink:href="#mf73b748206" x="106.981566" y="100.877814" style="fill: #daa520; stroke: #daa520"/>
     <use xlink:href="#mf73b748206" x="391.615724" y="132.067727" style="fill: #daa520; stroke: #daa520"/>
     <use xlink:href="#mf73b748206" x="85.929597" y="101.662777" style="fill: #daa520; stroke: #daa520"/>
     <use xlink:href="#mf73b748206" x="271.888167" y="118.673017" style="fill: #daa520; stroke: #daa520"/>
     <use xlink:href="#mf73b748206" x="313.988214" y="118.998925" style="fill: #daa520; stroke: #daa520"/>
     <use xlink:href="#mf73b748206" x="185.73914" y="112.583135" style="fill: #daa520; stroke: #daa520"/>
     <use xlink:href="#mf73b748206" x="161.191921" y="112.129869" style="fill: #daa520; stroke: #daa520"/>
     <use xlink:href="#mf73b748206" x="232.053094" y="131.847895" style="fill: #daa520; stroke: #daa520"/>
     <use xlink:href="#mf73b748206" x="351.231749" y="152.641626" style="fill: #daa520; stroke: #daa520"/>
     <use xlink:href="#mf73b748206" x="98.928459" y="127.435055" style="fill: #daa520; stroke: #daa520"/>
     <use xlink:href="#mf73b748206" x="210.254561" y="87.716769" style="fill: #daa520; stroke: #daa520"/>
     <use xlink:href="#mf73b748206" x="225.235432" y="109.453433" style="fill: #daa520; stroke: #daa520"/>
     <use xlink:href="#mf73b748206" x="310.603118" y="96.456533" style="fill: #daa520; stroke: #daa520"/>
     <use xlink:href="#mf73b748206" x="290.181829" y="112.985968" style="fill: #daa520; stroke: #daa520"/>
     <use xlink:href="#mf73b748206" x="196.643921" y="115.029461" style="fill: #daa520; stroke: #daa520"/>
     <use xlink:href="#mf73b748206" x="228.831695" y="108.084606" style="fill: #daa520; stroke: #daa520"/>
     <use xlink:href="#mf73b748206" x="59.15226" y="118.101452" style="fill: #daa520; stroke: #daa520"/>
     <use xlink:href="#mf73b748206" x="344.46489" y="113.048358" style="fill: #daa520; stroke: #daa520"/>
     <use xlink:href="#mf73b748206" x="404.70131" y="156.792029" style="fill: #daa520; stroke: #daa520"/>
     <use xlink:href="#mf73b748206" x="226.847495" y="122.041014" style="fill: #daa520; stroke: #daa520"/>
     <use xlink:href="#mf73b748206" x="223.745519" y="128.203288" style="fill: #daa520; stroke: #daa520"/>
     <use xlink:href="#mf73b748206" x="88.673412" y="135.355388" style="fill: #daa520; stroke: #daa520"/>
     <use xlink:href="#mf73b748206" x="103.257265" y="111.152686" style="fill: #daa520; stroke: #daa520"/>
     <use xlink:href="#mf73b748206" x="334.516099" y="119.909529" style="fill: #daa520; stroke: #daa520"/>
     <use xlink:href="#mf73b748206" x="77.999202" y="125.005717" style="fill: #daa520; stroke: #daa520"/>
     <use xlink:href="#mf73b748206" x="231.904997" y="129.409653" style="fill: #daa520; stroke: #daa520"/>
     <use xlink:href="#mf73b748206" x="143.492889" y="131.922313" style="fill: #daa520; stroke: #daa520"/>
     <use xlink:href="#mf73b748206" x="131.220568" y="135.575077" style="fill: #daa520; stroke: #daa520"/>
     <use xlink:href="#mf73b748206" x="351.047063" y="137.560196" style="fill: #daa520; stroke: #daa520"/>
     <use xlink:href="#mf73b748206" x="372.285399" y="136.00159" style="fill: #daa520; stroke: #daa520"/>
     <use xlink:href="#mf73b748206" x="81.887811" y="129.102963" style="fill: #daa520; stroke: #daa520"/>
     <use xlink:href="#mf73b748206" x="228.77992" y="89.263535" style="fill: #daa520; stroke: #daa520"/>
     <use xlink:href="#mf73b748206" x="365.500018" y="94.413267" style="fill: #daa520; stroke: #daa520"/>
     <use xlink:href="#mf73b748206" x="113.430806" y="134.416381" style="fill: #daa520; stroke: #daa520"/>
     <use xlink:href="#mf73b748206" x="329.284073" y="105.660193" style="fill: #daa520; stroke: #daa520"/>
     <use xlink:href="#mf73b748206" x="264.945153" y="117.575924" style="fill: #daa520; stroke: #daa520"/>
     <use xlink:href="#mf73b748206" x="211.494017" y="97.642374" style="fill: #daa520; stroke: #daa520"/>
     <use xlink:href="#mf73b748206" x="133.823391" y="134.985372" style="fill: #daa520; stroke: #daa520"/>
     <use xlink:href="#mf73b748206" x="242.255319" y="105.075831" style="fill: #daa520; stroke: #daa520"/>
     <use xlink:href="#mf73b748206" x="149.880359" y="131.236258" style="fill: #daa520; stroke: #daa520"/>
     <use xlink:href="#mf73b748206" x="288.95163" y="109.783628" style="fill: #daa520; stroke: #daa520"/>
     <use xlink:href="#mf73b748206" x="304.713324" y="144.800117" style="fill: #daa520; stroke: #daa520"/>
     <use xlink:href="#mf73b748206" x="112.594148" y="116.545174" style="fill: #daa520; stroke: #daa520"/>
     <use xlink:href="#mf73b748206" x="265.239305" y="117.535109" style="fill: #daa520; stroke: #daa520"/>
     <use xlink:href="#mf73b748206" x="57.676642" y="151.507256" style="fill: #daa520; stroke: #daa520"/>
     <use xlink:href="#mf73b748206" x="66.254479" y="81.582248" style="fill: #daa520; stroke: #daa520"/>
     <use xlink:href="#mf73b748206" x="385.428591" y="83.266665" style="fill: #daa520; stroke: #daa520"/>
     <use xlink:href="#mf73b748206" x="267.344805" y="100.104448" style="fill: #daa520; stroke: #daa520"/>
     <use xlink:href="#mf73b748206" x="321.811952" y="139.364052" style="fill: #daa520; stroke: #daa520"/>
     <use xlink:href="#mf73b748206" x="69.776092" y="99.519367" style="fill: #daa520; stroke: #daa520"/>
     <use xlink:href="#mf73b748206" x="162.14145" y="118.554519" style="fill: #daa520; stroke: #daa520"/>
     <use xlink:href="#mf73b748206" x="310.105073" y="122.382078" style="fill: #daa520; stroke: #daa520"/>
     <use xlink:href="#mf73b748206" x="333.064079" y="146.796561" style="fill: #daa520; stroke: #daa520"/>
     <use xlink:href="#mf73b748206" x="147.345912" y="103.164419" style="fill: #daa520; stroke: #daa520"/>
     <use xlink:href="#mf73b748206" x="253.033161" y="112.233072" style="fill: #daa520; stroke: #daa520"/>
     <use xlink:href="#mf73b748206" x="169.869783" y="93.170998" style="fill: #daa520; stroke: #daa520"/>
     <use xlink:href="#mf73b748206" x="169.297604" y="123.446303" style="fill: #daa520; stroke: #daa520"/>
     <use xlink:href="#mf73b748206" x="75.124793" y="145.384584" style="fill: #daa520; stroke: #daa520"/>
     <use xlink:href="#mf73b748206" x="192.170914" y="101.582529" style="fill: #daa520; stroke: #daa520"/>
     <use xlink:href="#mf73b748206" x="99.916814" y="130.407209" style="fill: #daa520; stroke: #daa520"/>
     <use xlink:href="#mf73b748206" x="416.032954" y="120.815996" style="fill: #daa520; stroke: #daa520"/>
     <use xlink:href="#mf73b748206" x="379.473234" y="93.346415" style="fill: #daa520; stroke: #daa520"/>
     <use xlink:href="#mf73b748206" x="180.558043" y="102.71556" style="fill: #daa520; stroke: #daa520"/>
     <use xlink:href="#mf73b748206" x="119.152296" y="138.287227" style="fill: #daa520; stroke: #daa520"/>
     <use xlink:href="#mf73b748206" x="90.340459" y="102.0957" style="fill: #daa520; stroke: #daa520"/>
     <use xlink:href="#mf73b748206" x="399.852132" y="134.780264" style="fill: #daa520; stroke: #daa520"/>
     <use xlink:href="#mf73b748206" x="320.590424" y="133.508513" style="fill: #daa520; stroke: #daa520"/>
     <use xlink:href="#mf73b748206" x="150.572006" y="127.543261" style="fill: #daa520; stroke: #daa520"/>
     <use xlink:href="#mf73b748206" x="400.598749" y="127.987238" style="fill: #daa520; stroke: #daa520"/>
     <use xlink:href="#mf73b748206" x="113.899112" y="140.533959" style="fill: #daa520; stroke: #daa520"/>
     <use xlink:href="#mf73b748206" x="100.362953" y="137.715347" style="fill: #daa520; stroke: #daa520"/>
     <use xlink:href="#mf73b748206" x="260.529697" y="122.058893" style="fill: #daa520; stroke: #daa520"/>
     <use xlink:href="#mf73b748206" x="356.303556" y="159.463218" style="fill: #daa520; stroke: #daa520"/>
     <use xlink:href="#mf73b748206" x="241.491666" y="131.057773" style="fill: #daa520; stroke: #daa520"/>
     <use xlink:href="#mf73b748206" x="97.302655" y="144.882029" style="fill: #daa520; stroke: #daa520"/>
     <use xlink:href="#mf73b748206" x="93.640322" y="143.454118" style="fill: #daa520; stroke: #daa520"/>
     <use xlink:href="#mf73b748206" x="59.93966" y="132.753478" style="fill: #daa520; stroke: #daa520"/>
     <use xlink:href="#mf73b748206" x="390.38114" y="134.892732" style="fill: #daa520; stroke: #daa520"/>
    </g>
   </g>
   <g id="matplotlib.axis_3"/>
   <g id="matplotlib.axis_4">
    <g id="ytick_1">
     <g id="line2d_3">
      <defs>
       <path id="m89dbbcc931" d="M 0 0 
L -3.5 0 
" style="stroke: #696969; stroke-width: 0.8"/>
      </defs>
      <g>
       <use xlink:href="#m89dbbcc931" x="37.7875" y="161.445235" style="fill: #696969; stroke: #696969; stroke-width: 0.8"/>
      </g>
     </g>
     <g id="text_1">
      <!-- −5 -->
      <g style="fill: #696969" transform="translate(7.2 167.523985) scale(0.16 -0.16)">
       <defs>
        <path id="DejaVuSans-2212" d="M 678 2272 
L 4684 2272 
L 4684 1741 
L 678 1741 
L 678 2272 
z
" transform="scale(0.015625)"/>
        <path id="DejaVuSans-35" d="M 691 4666 
L 3169 4666 
L 3169 4134 
L 1269 4134 
L 1269 2991 
Q 1406 3038 1543 3061 
Q 1681 3084 1819 3084 
Q 2600 3084 3056 2656 
Q 3513 2228 3513 1497 
Q 3513 744 3044 326 
Q 2575 -91 1722 -91 
Q 1428 -91 1123 -41 
Q 819 9 494 109 
L 494 744 
Q 775 591 1075 516 
Q 1375 441 1709 441 
Q 2250 441 2565 725 
Q 2881 1009 2881 1497 
Q 2881 1984 2565 2268 
Q 2250 2553 1709 2553 
Q 1456 2553 1204 2497 
Q 953 2441 691 2322 
L 691 4666 
z
" transform="scale(0.015625)"/>
       </defs>
       <use xlink:href="#DejaVuSans-2212"/>
       <use xlink:href="#DejaVuSans-35" x="83.789062"/>
      </g>
     </g>
    </g>
    <g id="ytick_2">
     <g id="line2d_4">
      <g>
       <use xlink:href="#m89dbbcc931" x="37.7875" y="123.370306" style="fill: #696969; stroke: #696969; stroke-width: 0.8"/>
      </g>
     </g>
     <g id="text_2">
      <!-- 0 -->
      <g style="fill: #696969" transform="translate(20.6075 129.449056) scale(0.16 -0.16)">
       <defs>
        <path id="DejaVuSans-30" d="M 2034 4250 
Q 1547 4250 1301 3770 
Q 1056 3291 1056 2328 
Q 1056 1369 1301 889 
Q 1547 409 2034 409 
Q 2525 409 2770 889 
Q 3016 1369 3016 2328 
Q 3016 3291 2770 3770 
Q 2525 4250 2034 4250 
z
M 2034 4750 
Q 2819 4750 3233 4129 
Q 3647 3509 3647 2328 
Q 3647 1150 3233 529 
Q 2819 -91 2034 -91 
Q 1250 -91 836 529 
Q 422 1150 422 2328 
Q 422 3509 836 4129 
Q 1250 4750 2034 4750 
z
" transform="scale(0.015625)"/>
       </defs>
       <use xlink:href="#DejaVuSans-30"/>
      </g>
     </g>
    </g>
    <g id="ytick_3">
     <g id="line2d_5">
      <g>
       <use xlink:href="#m89dbbcc931" x="37.7875" y="85.295376" style="fill: #696969; stroke: #696969; stroke-width: 0.8"/>
      </g>
     </g>
     <g id="text_3">
      <!-- 5 -->
      <g style="fill: #696969" transform="translate(20.6075 91.374126) scale(0.16 -0.16)">
       <use xlink:href="#DejaVuSans-35"/>
      </g>
     </g>
    </g>
   </g>
   <g id="line2d_6">
    <path d="M 55.888409 127.515447 
L 63.128773 126.821173 
L 70.369136 126.453318 
L 77.6095 126.5962 
L 84.849864 127.266814 
L 92.090227 128.296001 
L 99.330591 129.388025 
L 106.570955 130.228583 
L 113.811318 130.583037 
L 121.051682 130.336259 
L 128.292045 129.466026 
L 135.532409 127.983779 
L 142.772773 125.890936 
L 150.013136 123.180821 
L 157.2535 119.884073 
L 164.493864 116.131248 
L 171.734227 112.198126 
L 178.974591 108.503169 
L 186.214955 105.540127 
L 193.455318 103.754408 
L 200.695682 103.404382 
L 207.936045 104.46871 
L 215.176409 106.647049 
L 222.416773 109.454977 
L 229.657136 112.364517 
L 236.8975 114.925361 
L 244.137864 116.828871 
L 251.378227 117.922152 
L 258.618591 118.204172 
L 265.858955 117.823393 
L 273.099318 117.065078 
L 280.339682 116.302317 
L 287.580045 115.904993 
L 294.820409 116.138335 
L 302.060773 117.10078 
L 309.301136 118.730436 
L 316.5415 120.865826 
L 323.781864 123.315957 
L 331.022227 125.900547 
L 338.262591 128.453732 
L 345.502955 130.813475 
L 352.743318 132.821571 
L 359.983682 134.339842 
L 367.224045 135.26877 
L 374.464409 135.554021 
L 381.704773 135.181276 
L 388.945136 134.173044 
L 396.1855 132.598013 
L 403.425864 130.586203 
L 410.666227 128.329002 
L 417.906591 126.047879 
" clip-path="url(#p7096f9c158)" style="fill: none; stroke: #000000; stroke-width: 2; stroke-linecap: square"/>
   </g>
   <g id="line2d_7">
    <path d="M 55.888409 120.821892 
L 63.128773 120.84785 
L 70.369136 120.873809 
L 77.6095 120.899768 
L 84.849864 120.925726 
L 92.090227 120.951685 
L 99.330591 120.977644 
L 106.570955 121.003602 
L 113.811318 121.029561 
L 121.051682 121.05552 
L 128.292045 121.081478 
L 135.532409 121.107437 
L 142.772773 121.133396 
L 150.013136 121.159354 
L 157.2535 121.185313 
L 164.493864 121.211272 
L 171.734227 121.23723 
L 178.974591 121.263189 
L 186.214955 121.289148 
L 193.455318 121.315106 
L 200.695682 121.341065 
L 207.936045 121.367024 
L 215.176409 121.392982 
L 222.416773 121.418941 
L 229.657136 121.4449 
L 236.8975 121.470859 
L 244.137864 121.496817 
L 251.378227 121.522776 
L 258.618591 121.548735 
L 265.858955 121.574693 
L 273.099318 121.600652 
L 280.339682 121.626611 
L 287.580045 121.652569 
L 294.820409 121.678528 
L 302.060773 121.704487 
L 309.301136 121.730445 
L 316.5415 121.756404 
L 323.781864 121.782363 
L 331.022227 121.808321 
L 338.262591 121.83428 
L 345.502955 121.860239 
L 352.743318 121.886197 
L 359.983682 121.912156 
L 367.224045 121.938115 
L 374.464409 121.964073 
L 381.704773 121.990032 
L 388.945136 122.015991 
L 396.1855 122.041949 
L 403.425864 122.067908 
L 410.666227 122.093867 
L 417.906591 122.119825 
" clip-path="url(#p7096f9c158)" style="fill: none; stroke-dasharray: 7.4,3.2; stroke-dashoffset: 0; stroke: #34b6c6; stroke-width: 2"/>
   </g>
   <g id="line2d_8">
    <path d="M 55.888409 121.222764 
L 63.128773 121.503439 
L 70.369136 121.90519 
L 77.6095 122.582872 
L 84.849864 123.817489 
L 92.090227 125.736489 
L 99.330591 127.675319 
L 106.570955 128.860883 
L 113.811318 129.340707 
L 121.051682 129.214245 
L 128.292045 127.990422 
L 135.532409 125.609718 
L 142.772773 123.380422 
L 150.013136 121.09289 
L 157.2535 118.289424 
L 164.493864 114.777308 
L 171.734227 111.073562 
L 178.974591 109.069679 
L 186.214955 108.533379 
L 193.455318 108.670497 
L 200.695682 109.48232 
L 207.936045 111.676593 
L 215.176409 114.673871 
L 222.416773 117.359574 
L 229.657136 120.251604 
L 236.8975 122.035007 
L 244.137864 122.502632 
L 251.378227 122.118754 
L 258.618591 120.943544 
L 265.858955 118.922674 
L 273.099318 116.096918 
L 280.339682 113.938835 
L 287.580045 113.25407 
L 294.820409 113.515378 
L 302.060773 114.576256 
L 309.301136 116.433462 
L 316.5415 118.728782 
L 323.781864 120.973676 
L 331.022227 122.919437 
L 338.262591 124.536102 
L 345.502955 125.864526 
L 352.743318 126.940462 
L 359.983682 127.774122 
L 367.224045 128.35739 
L 374.464409 128.682091 
L 381.704773 128.708709 
L 388.945136 128.266019 
L 396.1855 127.095295 
L 403.425864 125.404428 
L 410.666227 123.960415 
L 417.906591 123.097109 
" clip-path="url(#p7096f9c158)" style="fill: none; stroke-dasharray: 7.4,3.2; stroke-dashoffset: 0; stroke: #9370db; stroke-width: 2"/>
   </g>
   <g id="line2d_9">
    <path d="M 55.888409 123.722275 
L 63.128773 123.859637 
L 70.369136 124.126109 
L 77.6095 124.686824 
L 84.849864 125.841431 
L 92.090227 127.725839 
L 99.330591 129.631392 
L 106.570955 130.733692 
L 113.811318 131.083419 
L 121.051682 130.786625 
L 128.292045 129.319648 
L 135.532409 126.619019 
L 142.772773 124.079846 
L 150.013136 121.478572 
L 157.2535 118.327126 
L 164.493864 114.420003 
L 171.734227 110.308534 
L 178.974591 108.009732 
L 186.214955 107.275903 
L 193.455318 107.260181 
L 200.695682 107.963938 
L 207.936045 110.141886 
L 215.176409 113.176127 
L 222.416773 115.878116 
L 229.657136 118.800124 
L 236.8975 120.539937 
L 244.137864 120.876655 
L 251.378227 120.305363 
L 258.618591 118.890225 
L 265.858955 116.573309 
L 273.099318 113.398094 
L 280.339682 110.93486 
L 287.580045 110.042713 
L 294.820409 110.159423 
L 302.060773 111.128763 
L 309.301136 112.947275 
L 316.5415 115.232976 
L 323.781864 117.464903 
L 331.022227 119.377848 
L 338.262591 120.939857 
L 345.502955 122.194497 
L 352.743318 123.179894 
L 359.983682 123.906937 
L 367.224045 124.366972 
L 374.464409 124.551281 
L 381.704773 124.417726 
L 388.945136 123.783719 
L 396.1855 122.373366 
L 403.425864 120.408352 
L 410.666227 118.706574 
L 417.906591 117.624038 
" clip-path="url(#p7096f9c158)" style="fill: none; stroke-dasharray: 12.8,3.2,2,3.2; stroke-dashoffset: 0; stroke: #ff0000; stroke-width: 2"/>
   </g>
   <g id="patch_4">
    <path d="M 37.7875 163.357267 
L 37.7875 77.688199 
" style="fill: none; stroke: #000000; stroke-width: 0.8; stroke-linejoin: miter; stroke-linecap: square"/>
   </g>
   <g id="patch_5">
    <path d="M 436.0075 163.357267 
L 436.0075 77.688199 
" style="fill: none; stroke: #000000; stroke-width: 0.8; stroke-linejoin: miter; stroke-linecap: square"/>
   </g>
   <g id="patch_6">
    <path d="M 37.7875 163.357267 
L 436.0075 163.357267 
" style="fill: none; stroke: #000000; stroke-width: 0.8; stroke-linejoin: miter; stroke-linecap: square"/>
   </g>
   <g id="patch_7">
    <path d="M 37.7875 77.688199 
L 436.0075 77.688199 
" style="fill: none; stroke: #000000; stroke-width: 0.8; stroke-linejoin: miter; stroke-linecap: square"/>
   </g>
  </g>
  <g id="axes_3">
   <g id="patch_8">
    <path d="M 37.7875 276.68 
L 436.0075 276.68 
L 436.0075 191.010932 
L 37.7875 191.010932 
z
" style="fill: #ffffff"/>
   </g>
   <g id="PathCollection_2">
    <g clip-path="url(#p922a383b83)">
     <use xlink:href="#mf73b748206" x="146.046293" y="225.881747" style="fill: #daa520; stroke: #daa520"/>
     <use xlink:href="#mf73b748206" x="197.348089" y="242.814709" style="fill: #daa520; stroke: #daa520"/>
     <use xlink:href="#mf73b748206" x="405.404744" y="227.436566" style="fill: #daa520; stroke: #daa520"/>
     <use xlink:href="#mf73b748206" x="117.433767" y="226.990736" style="fill: #daa520; stroke: #daa520"/>
     <use xlink:href="#mf73b748206" x="197.749306" y="217.269318" style="fill: #daa520; stroke: #daa520"/>
     <use xlink:href="#mf73b748206" x="87.419097" y="230.256734" style="fill: #daa520; stroke: #daa520"/>
     <use xlink:href="#mf73b748206" x="331.10083" y="233.402929" style="fill: #daa520; stroke: #daa520"/>
     <use xlink:href="#mf73b748206" x="368.263053" y="233.653315" style="fill: #daa520; stroke: #daa520"/>
     <use xlink:href="#mf73b748206" x="110.784914" y="233.4247" style="fill: #daa520; stroke: #daa520"/>
     <use xlink:href="#mf73b748206" x="408.773759" y="222.403763" style="fill: #daa520; stroke: #daa520"/>
     <use xlink:href="#mf73b748206" x="274.225647" y="235.683098" style="fill: #daa520; stroke: #daa520"/>
     <use xlink:href="#mf73b748206" x="401.360073" y="246.384174" style="fill: #daa520; stroke: #daa520"/>
     <use xlink:href="#mf73b748206" x="64.746813" y="220.192267" style="fill: #daa520; stroke: #daa520"/>
     <use xlink:href="#mf73b748206" x="67.604529" y="207.354404" style="fill: #daa520; stroke: #daa520"/>
     <use xlink:href="#mf73b748206" x="295.966179" y="232.091007" style="fill: #daa520; stroke: #daa520"/>
     <use xlink:href="#mf73b748206" x="159.20787" y="227.022339" style="fill: #daa520; stroke: #daa520"/>
     <use xlink:href="#mf73b748206" x="146.463305" y="230.821239" style="fill: #daa520; stroke: #daa520"/>
     <use xlink:href="#mf73b748206" x="335.324185" y="205.543238" style="fill: #daa520; stroke: #daa520"/>
     <use xlink:href="#mf73b748206" x="154.608422" y="226.808282" style="fill: #daa520; stroke: #daa520"/>
     <use xlink:href="#mf73b748206" x="285.703226" y="220.781301" style="fill: #daa520; stroke: #daa520"/>
     <use xlink:href="#mf73b748206" x="209.912928" y="237.167208" style="fill: #daa520; stroke: #daa520"/>
     <use xlink:href="#mf73b748206" x="303.844767" y="214.392595" style="fill: #daa520; stroke: #daa520"/>
     <use xlink:href="#mf73b748206" x="180.18397" y="216.185526" style="fill: #daa520; stroke: #daa520"/>
     <use xlink:href="#mf73b748206" x="317.350918" y="228.018925" style="fill: #daa520; stroke: #daa520"/>
     <use xlink:href="#mf73b748206" x="287.730718" y="221.826254" style="fill: #daa520; stroke: #daa520"/>
     <use xlink:href="#mf73b748206" x="408.45365" y="232.081918" style="fill: #daa520; stroke: #daa520"/>
     <use xlink:href="#mf73b748206" x="363.401644" y="226.652404" style="fill: #daa520; stroke: #daa520"/>
     <use xlink:href="#mf73b748206" x="81.159427" y="268.255089" style="fill: #daa520; stroke: #daa520"/>
     <use xlink:href="#mf73b748206" x="402.008262" y="223.802638" style="fill: #daa520; stroke: #daa520"/>
     <use xlink:href="#mf73b748206" x="409.407048" y="242.239402" style="fill: #daa520; stroke: #daa520"/>
     <use xlink:href="#mf73b748206" x="396.762054" y="195.469394" style="fill: #daa520; stroke: #daa520"/>
     <use xlink:href="#mf73b748206" x="106.981566" y="260.500291" style="fill: #daa520; stroke: #daa520"/>
     <use xlink:href="#mf73b748206" x="391.615724" y="222.492638" style="fill: #daa520; stroke: #daa520"/>
     <use xlink:href="#mf73b748206" x="85.929597" y="255.110105" style="fill: #daa520; stroke: #daa520"/>
     <use xlink:href="#mf73b748206" x="271.888167" y="226.404513" style="fill: #daa520; stroke: #daa520"/>
     <use xlink:href="#mf73b748206" x="313.988214" y="226.546478" style="fill: #daa520; stroke: #daa520"/>
     <use xlink:href="#mf73b748206" x="185.73914" y="225.860425" style="fill: #daa520; stroke: #daa520"/>
     <use xlink:href="#mf73b748206" x="161.191921" y="235.186793" style="fill: #daa520; stroke: #daa520"/>
     <use xlink:href="#mf73b748206" x="232.053094" y="218.96935" style="fill: #daa520; stroke: #daa520"/>
     <use xlink:href="#mf73b748206" x="351.231749" y="201.873683" style="fill: #daa520; stroke: #daa520"/>
     <use xlink:href="#mf73b748206" x="98.928459" y="233.141385" style="fill: #daa520; stroke: #daa520"/>
     <use xlink:href="#mf73b748206" x="210.254561" y="254.127462" style="fill: #daa520; stroke: #daa520"/>
     <use xlink:href="#mf73b748206" x="225.235432" y="238.538349" style="fill: #daa520; stroke: #daa520"/>
     <use xlink:href="#mf73b748206" x="310.603118" y="247.690546" style="fill: #daa520; stroke: #daa520"/>
     <use xlink:href="#mf73b748206" x="290.181829" y="228.114284" style="fill: #daa520; stroke: #daa520"/>
     <use xlink:href="#mf73b748206" x="196.643921" y="223.600402" style="fill: #daa520; stroke: #daa520"/>
     <use xlink:href="#mf73b748206" x="228.831695" y="241.319746" style="fill: #daa520; stroke: #daa520"/>
     <use xlink:href="#mf73b748206" x="59.15226" y="236.651213" style="fill: #daa520; stroke: #daa520"/>
     <use xlink:href="#mf73b748206" x="344.46489" y="239.9112" style="fill: #daa520; stroke: #daa520"/>
     <use xlink:href="#mf73b748206" x="404.70131" y="194.904981" style="fill: #daa520; stroke: #daa520"/>
     <use xlink:href="#mf73b748206" x="226.847495" y="226.805099" style="fill: #daa520; stroke: #daa520"/>
     <use xlink:href="#mf73b748206" x="223.745519" y="219.462798" style="fill: #daa520; stroke: #daa520"/>
     <use xlink:href="#mf73b748206" x="88.673412" y="222.609162" style="fill: #daa520; stroke: #daa520"/>
     <use xlink:href="#mf73b748206" x="103.257265" y="249.95916" style="fill: #daa520; stroke: #daa520"/>
     <use xlink:href="#mf73b748206" x="334.516099" y="231.325033" style="fill: #daa520; stroke: #daa520"/>
     <use xlink:href="#mf73b748206" x="77.999202" y="230.794723" style="fill: #daa520; stroke: #daa520"/>
     <use xlink:href="#mf73b748206" x="231.904997" y="221.328988" style="fill: #daa520; stroke: #daa520"/>
     <use xlink:href="#mf73b748206" x="143.492889" y="223.105407" style="fill: #daa520; stroke: #daa520"/>
     <use xlink:href="#mf73b748206" x="131.220568" y="223.898652" style="fill: #daa520; stroke: #daa520"/>
     <use xlink:href="#mf73b748206" x="351.047063" y="216.701013" style="fill: #daa520; stroke: #daa520"/>
     <use xlink:href="#mf73b748206" x="372.285399" y="219.765475" style="fill: #daa520; stroke: #daa520"/>
     <use xlink:href="#mf73b748206" x="81.887811" y="227.297403" style="fill: #daa520; stroke: #daa520"/>
     <use xlink:href="#mf73b748206" x="228.77992" y="259.83316" style="fill: #daa520; stroke: #daa520"/>
     <use xlink:href="#mf73b748206" x="365.500018" y="260.476534" style="fill: #daa520; stroke: #daa520"/>
     <use xlink:href="#mf73b748206" x="113.430806" y="227.780036" style="fill: #daa520; stroke: #daa520"/>
     <use xlink:href="#mf73b748206" x="329.284073" y="244.15321" style="fill: #daa520; stroke: #daa520"/>
     <use xlink:href="#mf73b748206" x="264.945153" y="230.422294" style="fill: #daa520; stroke: #daa520"/>
     <use xlink:href="#mf73b748206" x="211.494017" y="244.885466" style="fill: #daa520; stroke: #daa520"/>
     <use xlink:href="#mf73b748206" x="133.823391" y="223.481785" style="fill: #daa520; stroke: #daa520"/>
     <use xlink:href="#mf73b748206" x="242.255319" y="246.635005" style="fill: #daa520; stroke: #daa520"/>
     <use xlink:href="#mf73b748206" x="149.880359" y="221.508844" style="fill: #daa520; stroke: #daa520"/>
     <use xlink:href="#mf73b748206" x="288.95163" y="231.27877" style="fill: #daa520; stroke: #daa520"/>
     <use xlink:href="#mf73b748206" x="304.713324" y="198.48002" style="fill: #daa520; stroke: #daa520"/>
     <use xlink:href="#mf73b748206" x="112.594148" y="245.364018" style="fill: #daa520; stroke: #daa520"/>
     <use xlink:href="#mf73b748206" x="265.239305" y="230.353594" style="fill: #daa520; stroke: #daa520"/>
     <use xlink:href="#mf73b748206" x="57.676642" y="203.7327" style="fill: #daa520; stroke: #daa520"/>
     <use xlink:href="#mf73b748206" x="66.254479" y="272.785951" style="fill: #daa520; stroke: #daa520"/>
     <use xlink:href="#mf73b748206" x="385.428591" y="271.345169" style="fill: #daa520; stroke: #daa520"/>
     <use xlink:href="#mf73b748206" x="267.344805" y="246.68701" style="fill: #daa520; stroke: #daa520"/>
     <use xlink:href="#mf73b748206" x="321.811952" y="208.929734" style="fill: #daa520; stroke: #daa520"/>
     <use xlink:href="#mf73b748206" x="69.776092" y="255.265759" style="fill: #daa520; stroke: #daa520"/>
     <use xlink:href="#mf73b748206" x="162.14145" y="228.342364" style="fill: #daa520; stroke: #daa520"/>
     <use xlink:href="#mf73b748206" x="310.105073" y="222.012712" style="fill: #daa520; stroke: #daa520"/>
     <use xlink:href="#mf73b748206" x="333.064079" y="204.534256" style="fill: #daa520; stroke: #daa520"/>
     <use xlink:href="#mf73b748206" x="147.345912" y="250.097306" style="fill: #daa520; stroke: #daa520"/>
     <use xlink:href="#mf73b748206" x="253.033161" y="238.769699" style="fill: #daa520; stroke: #daa520"/>
     <use xlink:href="#mf73b748206" x="169.869783" y="248.870597" style="fill: #daa520; stroke: #daa520"/>
     <use xlink:href="#mf73b748206" x="169.297604" y="219.368848" style="fill: #daa520; stroke: #daa520"/>
     <use xlink:href="#mf73b748206" x="75.124793" y="210.446741" style="fill: #daa520; stroke: #daa520"/>
     <use xlink:href="#mf73b748206" x="192.170914" y="236.618744" style="fill: #daa520; stroke: #daa520"/>
     <use xlink:href="#mf73b748206" x="99.916814" y="230.423046" style="fill: #daa520; stroke: #daa520"/>
     <use xlink:href="#mf73b748206" x="416.032954" y="228.145598" style="fill: #daa520; stroke: #daa520"/>
     <use xlink:href="#mf73b748206" x="379.473234" y="261.741411" style="fill: #daa520; stroke: #daa520"/>
     <use xlink:href="#mf73b748206" x="180.558043" y="236.028612" style="fill: #daa520; stroke: #daa520"/>
     <use xlink:href="#mf73b748206" x="119.152296" y="223.835549" style="fill: #daa520; stroke: #daa520"/>
     <use xlink:href="#mf73b748206" x="90.340459" y="255.810527" style="fill: #daa520; stroke: #daa520"/>
     <use xlink:href="#mf73b748206" x="399.852132" y="217.888302" style="fill: #daa520; stroke: #daa520"/>
     <use xlink:href="#mf73b748206" x="320.590424" y="214.329469" style="fill: #daa520; stroke: #daa520"/>
     <use xlink:href="#mf73b748206" x="150.572006" y="224.874869" style="fill: #daa520; stroke: #daa520"/>
     <use xlink:href="#mf73b748206" x="400.598749" y="224.372621" style="fill: #daa520; stroke: #daa520"/>
     <use xlink:href="#mf73b748206" x="113.899112" y="221.760378" style="fill: #daa520; stroke: #daa520"/>
     <use xlink:href="#mf73b748206" x="100.362953" y="223.315362" style="fill: #daa520; stroke: #daa520"/>
     <use xlink:href="#mf73b748206" x="260.529697" y="227.436398" style="fill: #daa520; stroke: #daa520"/>
     <use xlink:href="#mf73b748206" x="356.303556" y="195.72243" style="fill: #daa520; stroke: #daa520"/>
     <use xlink:href="#mf73b748206" x="241.491666" y="221.038337" style="fill: #daa520; stroke: #daa520"/>
     <use xlink:href="#mf73b748206" x="97.302655" y="215.584255" style="fill: #daa520; stroke: #daa520"/>
     <use xlink:href="#mf73b748206" x="93.640322" y="216.01679" style="fill: #daa520; stroke: #daa520"/>
     <use xlink:href="#mf73b748206" x="59.93966" y="222.238228" style="fill: #daa520; stroke: #daa520"/>
     <use xlink:href="#mf73b748206" x="390.38114" y="219.917395" style="fill: #daa520; stroke: #daa520"/>
    </g>
   </g>
   <g id="matplotlib.axis_5">
    <g id="xtick_1">
     <g id="line2d_10">
      <defs>
       <path id="mf7b83779b3" d="M 0 0 
L 0 3.5 
" style="stroke: #696969; stroke-width: 0.8"/>
      </defs>
      <g>
       <use xlink:href="#mf7b83779b3" x="55.888409" y="276.68" style="fill: #696969; stroke: #696969; stroke-width: 0.8"/>
      </g>
     </g>
     <g id="text_4">
      <!-- −1.0 -->
      <g style="fill: #696969" transform="translate(36.462159 295.8375) scale(0.16 -0.16)">
       <defs>
        <path id="DejaVuSans-31" d="M 794 531 
L 1825 531 
L 1825 4091 
L 703 3866 
L 703 4441 
L 1819 4666 
L 2450 4666 
L 2450 531 
L 3481 531 
L 3481 0 
L 794 0 
L 794 531 
z
" transform="scale(0.015625)"/>
        <path id="DejaVuSans-2e" d="M 684 794 
L 1344 794 
L 1344 0 
L 684 0 
L 684 794 
z
" transform="scale(0.015625)"/>
       </defs>
       <use xlink:href="#DejaVuSans-2212"/>
       <use xlink:href="#DejaVuSans-31" x="83.789062"/>
       <use xlink:href="#DejaVuSans-2e" x="147.412109"/>
       <use xlink:href="#DejaVuSans-30" x="179.199219"/>
      </g>
     </g>
    </g>
    <g id="xtick_2">
     <g id="line2d_11">
      <g>
       <use xlink:href="#mf7b83779b3" x="146.392955" y="276.68" style="fill: #696969; stroke: #696969; stroke-width: 0.8"/>
      </g>
     </g>
     <g id="text_5">
      <!-- −0.5 -->
      <g style="fill: #696969" transform="translate(126.966705 295.8375) scale(0.16 -0.16)">
       <use xlink:href="#DejaVuSans-2212"/>
       <use xlink:href="#DejaVuSans-30" x="83.789062"/>
       <use xlink:href="#DejaVuSans-2e" x="147.412109"/>
       <use xlink:href="#DejaVuSans-35" x="179.199219"/>
      </g>
     </g>
    </g>
    <g id="xtick_3">
     <g id="line2d_12">
      <g>
       <use xlink:href="#mf7b83779b3" x="236.8975" y="276.68" style="fill: #696969; stroke: #696969; stroke-width: 0.8"/>
      </g>
     </g>
     <g id="text_6">
      <!-- 0.0 -->
      <g style="fill: #696969" transform="translate(224.175 295.8375) scale(0.16 -0.16)">
       <use xlink:href="#DejaVuSans-30"/>
       <use xlink:href="#DejaVuSans-2e" x="63.623047"/>
       <use xlink:href="#DejaVuSans-30" x="95.410156"/>
      </g>
     </g>
    </g>
    <g id="xtick_4">
     <g id="line2d_13">
      <g>
       <use xlink:href="#mf7b83779b3" x="327.402045" y="276.68" style="fill: #696969; stroke: #696969; stroke-width: 0.8"/>
      </g>
     </g>
     <g id="text_7">
      <!-- 0.5 -->
      <g style="fill: #696969" transform="translate(314.679545 295.8375) scale(0.16 -0.16)">
       <use xlink:href="#DejaVuSans-30"/>
       <use xlink:href="#DejaVuSans-2e" x="63.623047"/>
       <use xlink:href="#DejaVuSans-35" x="95.410156"/>
      </g>
     </g>
    </g>
    <g id="xtick_5">
     <g id="line2d_14">
      <g>
       <use xlink:href="#mf7b83779b3" x="417.906591" y="276.68" style="fill: #696969; stroke: #696969; stroke-width: 0.8"/>
      </g>
     </g>
     <g id="text_8">
      <!-- 1.0 -->
      <g style="fill: #696969" transform="translate(405.184091 295.8375) scale(0.16 -0.16)">
       <use xlink:href="#DejaVuSans-31"/>
       <use xlink:href="#DejaVuSans-2e" x="63.623047"/>
       <use xlink:href="#DejaVuSans-30" x="95.410156"/>
      </g>
     </g>
    </g>
    <g id="text_9">
     <!-- $X$ -->
     <g transform="translate(231.3775 315.3225) scale(0.16 -0.16)">
      <defs>
       <path id="DejaVuSans-Oblique-58" d="M 878 4666 
L 1516 4666 
L 2316 2981 
L 3763 4666 
L 4500 4666 
L 2578 2438 
L 3738 0 
L 3103 0 
L 2163 1966 
L 459 0 
L -275 0 
L 1906 2509 
L 878 4666 
z
" transform="scale(0.015625)"/>
      </defs>
      <use xlink:href="#DejaVuSans-Oblique-58" transform="translate(0 0.09375)"/>
     </g>
    </g>
   </g>
   <g id="matplotlib.axis_6">
    <g id="ytick_4">
     <g id="line2d_15">
      <g>
       <use xlink:href="#m89dbbcc931" x="37.7875" y="268.556822" style="fill: #696969; stroke: #696969; stroke-width: 0.8"/>
      </g>
     </g>
     <g id="text_10">
      <!-- −5 -->
      <g style="fill: #696969" transform="translate(7.2 274.635572) scale(0.16 -0.16)">
       <use xlink:href="#DejaVuSans-2212"/>
       <use xlink:href="#DejaVuSans-35" x="83.789062"/>
      </g>
     </g>
    </g>
    <g id="ytick_5">
     <g id="line2d_16">
      <g>
       <use xlink:href="#m89dbbcc931" x="37.7875" y="231.065471" style="fill: #696969; stroke: #696969; stroke-width: 0.8"/>
      </g>
     </g>
     <g id="text_11">
      <!-- 0 -->
      <g style="fill: #696969" transform="translate(20.6075 237.144221) scale(0.16 -0.16)">
       <use xlink:href="#DejaVuSans-30"/>
      </g>
     </g>
    </g>
    <g id="ytick_6">
     <g id="line2d_17">
      <g>
       <use xlink:href="#m89dbbcc931" x="37.7875" y="193.574121" style="fill: #696969; stroke: #696969; stroke-width: 0.8"/>
      </g>
     </g>
     <g id="text_12">
      <!-- 5 -->
      <g style="fill: #696969" transform="translate(20.6075 199.652871) scale(0.16 -0.16)">
       <use xlink:href="#DejaVuSans-35"/>
      </g>
     </g>
    </g>
   </g>
   <g id="line2d_18">
    <path d="M 55.888409 227.330438 
L 63.128773 228.149327 
L 70.369136 228.773931 
L 77.6095 229.18536 
L 84.849864 229.661936 
L 92.090227 230.504049 
L 99.330591 231.305108 
L 106.570955 231.562838 
L 113.811318 231.558184 
L 121.051682 231.508934 
L 128.292045 230.921337 
L 135.532409 229.721629 
L 142.772773 229.28214 
L 150.013136 229.389312 
L 157.2535 229.532388 
L 164.493864 229.380455 
L 171.734227 229.204841 
L 178.974591 230.579598 
L 186.214955 232.774643 
L 193.455318 234.517511 
L 200.695682 235.555142 
L 207.936045 236.651694 
L 215.176409 237.494478 
L 222.416773 237.390162 
L 229.657136 237.402439 
L 236.8975 236.593992 
L 244.137864 235.051214 
L 251.378227 233.412154 
L 258.618591 231.741009 
L 265.858955 229.834548 
L 273.099318 227.454691 
L 280.339682 225.780281 
L 287.580045 225.293043 
L 294.820409 225.178199 
L 302.060773 225.184988 
L 309.301136 225.370949 
L 316.5415 225.518956 
L 323.781864 225.304097 
L 331.022227 224.642746 
L 338.262591 223.666762 
L 345.502955 222.578598 
L 352.743318 221.571573 
L 359.983682 220.792473 
L 367.224045 220.330767 
L 374.464409 220.231372 
L 381.704773 220.466896 
L 388.945136 220.835385 
L 396.1855 220.997539 
L 403.425864 221.043617 
L 410.666227 221.590528 
L 417.906591 222.770744 
" clip-path="url(#p922a383b83)" style="fill: none; stroke: #696969; stroke-width: 2; stroke-linecap: square"/>
   </g>
   <g id="line2d_19">
    <path d="M 55.888409 233.500478 
L 63.128773 233.342717 
L 70.369136 233.184956 
L 77.6095 233.027195 
L 84.849864 232.869434 
L 92.090227 232.711673 
L 99.330591 232.553912 
L 106.570955 232.396151 
L 113.811318 232.23839 
L 121.051682 232.080629 
L 128.292045 231.922868 
L 135.532409 231.765107 
L 142.772773 231.607346 
L 150.013136 231.449585 
L 157.2535 231.291824 
L 164.493864 231.134063 
L 171.734227 230.976302 
L 178.974591 230.818541 
L 186.214955 230.66078 
L 193.455318 230.503019 
L 200.695682 230.345258 
L 207.936045 230.187497 
L 215.176409 230.029736 
L 222.416773 229.871975 
L 229.657136 229.714214 
L 236.8975 229.556453 
L 244.137864 229.398692 
L 251.378227 229.240931 
L 258.618591 229.08317 
L 265.858955 228.925409 
L 273.099318 228.767648 
L 280.339682 228.609887 
L 287.580045 228.452126 
L 294.820409 228.294365 
L 302.060773 228.136604 
L 309.301136 227.978843 
L 316.5415 227.821082 
L 323.781864 227.663321 
L 331.022227 227.50556 
L 338.262591 227.347799 
L 345.502955 227.190038 
L 352.743318 227.032277 
L 359.983682 226.874516 
L 367.224045 226.716755 
L 374.464409 226.558994 
L 381.704773 226.401233 
L 388.945136 226.243472 
L 396.1855 226.085711 
L 403.425864 225.92795 
L 410.666227 225.770189 
L 417.906591 225.612428 
" clip-path="url(#p922a383b83)" style="fill: none; stroke-dasharray: 7.4,3.2; stroke-dashoffset: 0; stroke: #79ad41; stroke-width: 2"/>
   </g>
   <g id="patch_9">
    <path d="M 37.7875 276.68 
L 37.7875 191.010932 
" style="fill: none; stroke: #000000; stroke-width: 0.8; stroke-linejoin: miter; stroke-linecap: square"/>
   </g>
   <g id="patch_10">
    <path d="M 436.0075 276.68 
L 436.0075 191.010932 
" style="fill: none; stroke: #000000; stroke-width: 0.8; stroke-linejoin: miter; stroke-linecap: square"/>
   </g>
   <g id="patch_11">
    <path d="M 37.7875 276.68 
L 436.0075 276.68 
" style="fill: none; stroke: #000000; stroke-width: 0.8; stroke-linejoin: miter; stroke-linecap: square"/>
   </g>
   <g id="patch_12">
    <path d="M 37.7875 191.010932 
L 436.0075 191.010932 
" style="fill: none; stroke: #000000; stroke-width: 0.8; stroke-linejoin: miter; stroke-linecap: square"/>
   </g>
  </g>
 </g>
 <defs>
  <clipPath id="p11688ba160">
   <rect x="37.7875" y="7.2" width="398.22" height="42.834534"/>
  </clipPath>
  <clipPath id="p7096f9c158">
   <rect x="37.7875" y="77.688199" width="398.22" height="85.669068"/>
  </clipPath>
  <clipPath id="p922a383b83">
   <rect x="37.7875" y="191.010932" width="398.22" height="85.669068"/>
  </clipPath>
 </defs>
</svg>
