<?xml version="1.0" encoding="utf-8" standalone="no"?>
<!DOCTYPE svg PUBLIC "-//W3C//DTD SVG 1.1//EN"
  "http://www.w3.org/Graphics/SVG/1.1/DTD/svg11.dtd">
<svg xmlns:xlink="http://www.w3.org/1999/xlink" width="443.2075pt" height="325.85pt" viewBox="0 0 443.2075 325.85" xmlns="http://www.w3.org/2000/svg" version="1.1">
 <metadata>
  <rdf:RDF xmlns:dc="http://purl.org/dc/elements/1.1/" xmlns:cc="http://creativecommons.org/ns#" xmlns:rdf="http://www.w3.org/1999/02/22-rdf-syntax-ns#">
   <cc:Work>
    <dc:type rdf:resource="http://purl.org/dc/dcmitype/StillImage"/>
    <dc:date>2024-01-28T20:55:55.184611</dc:date>
    <dc:format>image/svg+xml</dc:format>
    <dc:creator>
     <cc:Agent>
      <dc:title>Matplotlib v3.7.2, https://matplotlib.org/</dc:title>
     </cc:Agent>
    </dc:creator>
   </cc:Work>
  </rdf:RDF>
 </metadata>
 <defs>
  <style type="text/css">*{stroke-linejoin: round; stroke-linecap: butt}</style>
 </defs>
 <g id="figure_1">
  <g id="patch_1">
   <path d="M 0 325.85 
L 443.2075 325.85 
L 443.2075 0 
L 0 0 
z
" style="fill: #ffffff"/>
  </g>
  <g id="axes_1">
   <g id="patch_2">
    <path d="M 37.7875 51.821531 
L 436.0075 51.821531 
L 436.0075 7.2 
L 37.7875 7.2 
z
" style="fill: #ffffff"/>
   </g>
   <g id="PolyCollection_1">
    <defs>
     <path id="m7667e58f86" d="M 55.888409 -276.05672 
L 55.888409 -286.582796 
L 63.128773 -286.622237 
L 70.369136 -286.651542 
L 77.6095 -286.670152 
L 84.849864 -286.677779 
L 92.090227 -286.674477 
L 99.330591 -286.660688 
L 106.570955 -286.637286 
L 113.811318 -286.605593 
L 121.051682 -286.567411 
L 128.292045 -286.525004 
L 135.532409 -286.481106 
L 142.772773 -286.438896 
L 150.013136 -286.401974 
L 157.2535 -286.374315 
L 164.493864 -286.36027 
L 171.734227 -286.364513 
L 178.974591 -286.392045 
L 186.214955 -286.448184 
L 193.455318 -286.538574 
L 200.695682 -286.669209 
L 207.936045 -286.846458 
L 215.176409 -287.077116 
L 222.416773 -287.368421 
L 229.657136 -287.728071 
L 236.8975 -288.16421 
L 244.137864 -288.685343 
L 251.378227 -289.300162 
L 258.618591 -290.017279 
L 265.858955 -290.844761 
L 273.099318 -291.789539 
L 280.339682 -292.856593 
L 287.580045 -294.047984 
L 294.820409 -295.361796 
L 302.060773 -296.791105 
L 309.301136 -298.323148 
L 316.5415 -299.938998 
L 323.781864 -301.61382 
L 331.022227 -303.317986 
L 338.262591 -305.01893 
L 345.502955 -306.683585 
L 352.743318 -308.28098 
L 359.983682 -309.784638 
L 367.224045 -311.174269 
L 374.464409 -312.436634 
L 381.704773 -313.565502 
L 388.945136 -314.560866 
L 396.1855 -315.427711 
L 403.425864 -316.17458 
L 410.666227 -316.621749 
L 417.906591 -316.621749 
L 417.906591 -276.05672 
L 417.906591 -276.05672 
L 410.666227 -276.05672 
L 403.425864 -276.05672 
L 396.1855 -276.05672 
L 388.945136 -276.05672 
L 381.704773 -276.05672 
L 374.464409 -276.05672 
L 367.224045 -276.05672 
L 359.983682 -276.05672 
L 352.743318 -276.05672 
L 345.502955 -276.05672 
L 338.262591 -276.05672 
L 331.022227 -276.05672 
L 323.781864 -276.05672 
L 316.5415 -276.05672 
L 309.301136 -276.05672 
L 302.060773 -276.05672 
L 294.820409 -276.05672 
L 287.580045 -276.05672 
L 280.339682 -276.05672 
L 273.099318 -276.05672 
L 265.858955 -276.05672 
L 258.618591 -276.05672 
L 251.378227 -276.05672 
L 244.137864 -276.05672 
L 236.8975 -276.05672 
L 229.657136 -276.05672 
L 222.416773 -276.05672 
L 215.176409 -276.05672 
L 207.936045 -276.05672 
L 200.695682 -276.05672 
L 193.455318 -276.05672 
L 186.214955 -276.05672 
L 178.974591 -276.05672 
L 171.734227 -276.05672 
L 164.493864 -276.05672 
L 157.2535 -276.05672 
L 150.013136 -276.05672 
L 142.772773 -276.05672 
L 135.532409 -276.05672 
L 128.292045 -276.05672 
L 121.051682 -276.05672 
L 113.811318 -276.05672 
L 106.570955 -276.05672 
L 99.330591 -276.05672 
L 92.090227 -276.05672 
L 84.849864 -276.05672 
L 77.6095 -276.05672 
L 70.369136 -276.05672 
L 63.128773 -276.05672 
L 55.888409 -276.05672 
z
" style="stroke: #dc143c; stroke-opacity: 0.2"/>
    </defs>
    <g clip-path="url(#pc7d134db9e)">
     <use xlink:href="#m7667e58f86" x="0" y="325.85" style="fill: #dc143c; fill-opacity: 0.2; stroke: #dc143c; stroke-opacity: 0.2"/>
    </g>
   </g>
   <g id="PolyCollection_2">
    <defs>
     <path id="m2944a978ab" d="M 55.888409 -276.05672 
L 55.888409 -310.602898 
L 63.128773 -310.563457 
L 70.369136 -310.534152 
L 77.6095 -310.515542 
L 84.849864 -310.507915 
L 92.090227 -310.511217 
L 99.330591 -310.525006 
L 106.570955 -310.548408 
L 113.811318 -310.580101 
L 121.051682 -310.618283 
L 128.292045 -310.66069 
L 135.532409 -310.704588 
L 142.772773 -310.746798 
L 150.013136 -310.78372 
L 157.2535 -310.811379 
L 164.493864 -310.825424 
L 171.734227 -310.821181 
L 178.974591 -310.793649 
L 186.214955 -310.73751 
L 193.455318 -310.64712 
L 200.695682 -310.516485 
L 207.936045 -310.339236 
L 215.176409 -310.108578 
L 222.416773 -309.817273 
L 229.657136 -309.457623 
L 236.8975 -309.021484 
L 244.137864 -308.500351 
L 251.378227 -307.885532 
L 258.618591 -307.168415 
L 265.858955 -306.340933 
L 273.099318 -305.396155 
L 280.339682 -304.329102 
L 287.580045 -303.13771 
L 294.820409 -301.823898 
L 302.060773 -300.394589 
L 309.301136 -298.862546 
L 316.5415 -297.246696 
L 323.781864 -295.571874 
L 331.022227 -293.867708 
L 338.262591 -292.166764 
L 345.502955 -290.502109 
L 352.743318 -288.904714 
L 359.983682 -287.401056 
L 367.224045 -286.011426 
L 374.464409 -284.749061 
L 381.704773 -283.620193 
L 388.945136 -282.624828 
L 396.1855 -281.757983 
L 403.425864 -281.011114 
L 410.666227 -280.563946 
L 417.906591 -280.563946 
L 417.906591 -276.05672 
L 417.906591 -276.05672 
L 410.666227 -276.05672 
L 403.425864 -276.05672 
L 396.1855 -276.05672 
L 388.945136 -276.05672 
L 381.704773 -276.05672 
L 374.464409 -276.05672 
L 367.224045 -276.05672 
L 359.983682 -276.05672 
L 352.743318 -276.05672 
L 345.502955 -276.05672 
L 338.262591 -276.05672 
L 331.022227 -276.05672 
L 323.781864 -276.05672 
L 316.5415 -276.05672 
L 309.301136 -276.05672 
L 302.060773 -276.05672 
L 294.820409 -276.05672 
L 287.580045 -276.05672 
L 280.339682 -276.05672 
L 273.099318 -276.05672 
L 265.858955 -276.05672 
L 258.618591 -276.05672 
L 251.378227 -276.05672 
L 244.137864 -276.05672 
L 236.8975 -276.05672 
L 229.657136 -276.05672 
L 222.416773 -276.05672 
L 215.176409 -276.05672 
L 207.936045 -276.05672 
L 200.695682 -276.05672 
L 193.455318 -276.05672 
L 186.214955 -276.05672 
L 178.974591 -276.05672 
L 171.734227 -276.05672 
L 164.493864 -276.05672 
L 157.2535 -276.05672 
L 150.013136 -276.05672 
L 142.772773 -276.05672 
L 135.532409 -276.05672 
L 128.292045 -276.05672 
L 121.051682 -276.05672 
L 113.811318 -276.05672 
L 106.570955 -276.05672 
L 99.330591 -276.05672 
L 92.090227 -276.05672 
L 84.849864 -276.05672 
L 77.6095 -276.05672 
L 70.369136 -276.05672 
L 63.128773 -276.05672 
L 55.888409 -276.05672 
z
" style="stroke: #000080; stroke-opacity: 0.2"/>
    </defs>
    <g clip-path="url(#pc7d134db9e)">
     <use xlink:href="#m2944a978ab" x="0" y="325.85" style="fill: #000080; fill-opacity: 0.2; stroke: #000080; stroke-opacity: 0.2"/>
    </g>
   </g>
   <g id="matplotlib.axis_1"/>
   <g id="matplotlib.axis_2"/>
   <g id="line2d_1">
    <path d="M 55.888409 39.267204 
L 63.128773 39.227763 
L 70.369136 39.198458 
L 77.6095 39.179848 
L 84.849864 39.172221 
L 92.090227 39.175523 
L 99.330591 39.189312 
L 106.570955 39.212714 
L 113.811318 39.244407 
L 121.051682 39.282589 
L 128.292045 39.324996 
L 135.532409 39.368894 
L 142.772773 39.411104 
L 150.013136 39.448026 
L 157.2535 39.475685 
L 164.493864 39.48973 
L 171.734227 39.485487 
L 178.974591 39.457955 
L 186.214955 39.401816 
L 193.455318 39.311426 
L 200.695682 39.180791 
L 207.936045 39.003542 
L 215.176409 38.772884 
L 222.416773 38.481579 
L 229.657136 38.121929 
L 236.8975 37.68579 
L 244.137864 37.164657 
L 251.378227 36.549838 
L 258.618591 35.832721 
L 265.858955 35.005239 
L 273.099318 34.060461 
L 280.339682 32.993407 
L 287.580045 31.802016 
L 294.820409 30.488204 
L 302.060773 29.058895 
L 309.301136 27.526852 
L 316.5415 25.911002 
L 323.781864 24.23618 
L 331.022227 22.532014 
L 338.262591 20.83107 
L 345.502955 19.166415 
L 352.743318 17.56902 
L 359.983682 16.065362 
L 367.224045 14.675731 
L 374.464409 13.413366 
L 381.704773 12.284498 
L 388.945136 11.289134 
L 396.1855 10.422289 
L 403.425864 9.67542 
L 410.666227 9.228251 
L 417.906591 9.228251 
" clip-path="url(#pc7d134db9e)" style="fill: none; stroke: #dc143c; stroke-width: 1.5; stroke-linecap: square"/>
   </g>
   <g id="line2d_2">
    <path d="M 55.888409 15.247102 
L 63.128773 15.286543 
L 70.369136 15.315848 
L 77.6095 15.334458 
L 84.849864 15.342085 
L 92.090227 15.338783 
L 99.330591 15.324994 
L 106.570955 15.301592 
L 113.811318 15.269899 
L 121.051682 15.231717 
L 128.292045 15.18931 
L 135.532409 15.145412 
L 142.772773 15.103202 
L 150.013136 15.06628 
L 157.2535 15.038621 
L 164.493864 15.024576 
L 171.734227 15.028819 
L 178.974591 15.056351 
L 186.214955 15.11249 
L 193.455318 15.20288 
L 200.695682 15.333515 
L 207.936045 15.510764 
L 215.176409 15.741422 
L 222.416773 16.032727 
L 229.657136 16.392377 
L 236.8975 16.828516 
L 244.137864 17.349649 
L 251.378227 17.964468 
L 258.618591 18.681585 
L 265.858955 19.509067 
L 273.099318 20.453845 
L 280.339682 21.520898 
L 287.580045 22.71229 
L 294.820409 24.026102 
L 302.060773 25.455411 
L 309.301136 26.987454 
L 316.5415 28.603304 
L 323.781864 30.278126 
L 331.022227 31.982292 
L 338.262591 33.683236 
L 345.502955 35.347891 
L 352.743318 36.945286 
L 359.983682 38.448944 
L 367.224045 39.838574 
L 374.464409 41.100939 
L 381.704773 42.229807 
L 388.945136 43.225172 
L 396.1855 44.092017 
L 403.425864 44.838886 
L 410.666227 45.286054 
L 417.906591 45.286054 
" clip-path="url(#pc7d134db9e)" style="fill: none; stroke: #000080; stroke-width: 1.5; stroke-linecap: square"/>
   </g>
  </g>
  <g id="axes_2">
   <g id="patch_3">
    <path d="M 37.7875 164.250766 
L 436.0075 164.250766 
L 436.0075 75.007703 
L 37.7875 75.007703 
z
" style="fill: #ffffff"/>
   </g>
   <g id="PathCollection_1">
    <defs>
     <path id="m774c96a08d" d="M 0 0.866025 
C 0.229673 0.866025 0.449969 0.774776 0.612372 0.612372 
C 0.774776 0.449969 0.866025 0.229673 0.866025 0 
C 0.866025 -0.229673 0.774776 -0.449969 0.612372 -0.612372 
C 0.449969 -0.774776 0.229673 -0.866025 0 -0.866025 
C -0.229673 -0.866025 -0.449969 -0.774776 -0.612372 -0.612372 
C -0.774776 -0.449969 -0.866025 -0.229673 -0.866025 0 
C -0.866025 0.229673 -0.774776 0.449969 -0.612372 0.612372 
C -0.449969 0.774776 -0.229673 0.866025 0 0.866025 
z
" style="stroke: #daa520"/>
    </defs>
    <g clip-path="url(#p19f2a3eaa4)">
     <use xlink:href="#m774c96a08d" x="137.573408" y="129.790511" style="fill: #daa520; stroke: #daa520"/>
     <use xlink:href="#m774c96a08d" x="336.128403" y="152.451159" style="fill: #daa520; stroke: #daa520"/>
     <use xlink:href="#m774c96a08d" x="315.695945" y="138.329888" style="fill: #daa520; stroke: #daa520"/>
     <use xlink:href="#m774c96a08d" x="195.715617" y="149.611882" style="fill: #daa520; stroke: #daa520"/>
     <use xlink:href="#m774c96a08d" x="372.295553" y="152.019967" style="fill: #daa520; stroke: #daa520"/>
     <use xlink:href="#m774c96a08d" x="392.218653" y="147.580653" style="fill: #daa520; stroke: #daa520"/>
     <use xlink:href="#m774c96a08d" x="189.123067" y="139.614385" style="fill: #daa520; stroke: #daa520"/>
     <use xlink:href="#m774c96a08d" x="215.178883" y="146.56828" style="fill: #daa520; stroke: #daa520"/>
     <use xlink:href="#m774c96a08d" x="274.962429" y="152.811286" style="fill: #daa520; stroke: #daa520"/>
     <use xlink:href="#m774c96a08d" x="78.716806" y="138.685699" style="fill: #daa520; stroke: #daa520"/>
     <use xlink:href="#m774c96a08d" x="393.306919" y="145.961629" style="fill: #daa520; stroke: #daa520"/>
     <use xlink:href="#m774c96a08d" x="154.821515" y="105.120684" style="fill: #daa520; stroke: #daa520"/>
     <use xlink:href="#m774c96a08d" x="388.735077" y="135.382793" style="fill: #daa520; stroke: #daa520"/>
     <use xlink:href="#m774c96a08d" x="410.3453" y="155.75523" style="fill: #daa520; stroke: #daa520"/>
     <use xlink:href="#m774c96a08d" x="205.697565" y="143.723771" style="fill: #daa520; stroke: #daa520"/>
     <use xlink:href="#m774c96a08d" x="124.603352" y="147.331441" style="fill: #daa520; stroke: #daa520"/>
     <use xlink:href="#m774c96a08d" x="409.124919" y="148.350455" style="fill: #daa520; stroke: #daa520"/>
     <use xlink:href="#m774c96a08d" x="109.538879" y="124.736581" style="fill: #daa520; stroke: #daa520"/>
     <use xlink:href="#m774c96a08d" x="208.820796" y="126.74715" style="fill: #daa520; stroke: #daa520"/>
     <use xlink:href="#m774c96a08d" x="366.802426" y="151.051228" style="fill: #daa520; stroke: #daa520"/>
     <use xlink:href="#m774c96a08d" x="389.101925" y="154.676395" style="fill: #daa520; stroke: #daa520"/>
     <use xlink:href="#m774c96a08d" x="351.607805" y="134.972772" style="fill: #daa520; stroke: #daa520"/>
     <use xlink:href="#m774c96a08d" x="411.185023" y="156.721883" style="fill: #daa520; stroke: #daa520"/>
     <use xlink:href="#m774c96a08d" x="104.416271" y="149.616019" style="fill: #daa520; stroke: #daa520"/>
     <use xlink:href="#m774c96a08d" x="386.905644" y="130.873978" style="fill: #daa520; stroke: #daa520"/>
     <use xlink:href="#m774c96a08d" x="298.464364" y="133.696551" style="fill: #daa520; stroke: #daa520"/>
     <use xlink:href="#m774c96a08d" x="413.682541" y="156.684872" style="fill: #daa520; stroke: #daa520"/>
     <use xlink:href="#m774c96a08d" x="79.049141" y="79.497935" style="fill: #daa520; stroke: #daa520"/>
     <use xlink:href="#m774c96a08d" x="308.393953" y="155.354374" style="fill: #daa520; stroke: #daa520"/>
     <use xlink:href="#m774c96a08d" x="414.174537" y="149.784138" style="fill: #daa520; stroke: #daa520"/>
     <use xlink:href="#m774c96a08d" x="335.042717" y="157.998999" style="fill: #daa520; stroke: #daa520"/>
     <use xlink:href="#m774c96a08d" x="76.068627" y="114.305977" style="fill: #daa520; stroke: #daa520"/>
     <use xlink:href="#m774c96a08d" x="148.560187" y="138.044455" style="fill: #daa520; stroke: #daa520"/>
     <use xlink:href="#m774c96a08d" x="352.878809" y="155.998898" style="fill: #daa520; stroke: #daa520"/>
     <use xlink:href="#m774c96a08d" x="292.777686" y="132.32507" style="fill: #daa520; stroke: #daa520"/>
     <use xlink:href="#m774c96a08d" x="189.223355" y="144.803224" style="fill: #daa520; stroke: #daa520"/>
     <use xlink:href="#m774c96a08d" x="401.199651" y="130.52874" style="fill: #daa520; stroke: #daa520"/>
     <use xlink:href="#m774c96a08d" x="329.657186" y="154.591478" style="fill: #daa520; stroke: #daa520"/>
     <use xlink:href="#m774c96a08d" x="348.08645" y="145.388006" style="fill: #daa520; stroke: #daa520"/>
     <use xlink:href="#m774c96a08d" x="362.923244" y="147.281934" style="fill: #daa520; stroke: #daa520"/>
     <use xlink:href="#m774c96a08d" x="284.470221" y="138.468116" style="fill: #daa520; stroke: #daa520"/>
     <use xlink:href="#m774c96a08d" x="128.59653" y="139.606933" style="fill: #daa520; stroke: #daa520"/>
     <use xlink:href="#m774c96a08d" x="99.690683" y="148.66152" style="fill: #daa520; stroke: #daa520"/>
     <use xlink:href="#m774c96a08d" x="359.85005" y="151.37319" style="fill: #daa520; stroke: #daa520"/>
     <use xlink:href="#m774c96a08d" x="326.838889" y="160.194263" style="fill: #daa520; stroke: #daa520"/>
     <use xlink:href="#m774c96a08d" x="371.908111" y="152.19258" style="fill: #daa520; stroke: #daa520"/>
     <use xlink:href="#m774c96a08d" x="414.320326" y="124.900359" style="fill: #daa520; stroke: #daa520"/>
     <use xlink:href="#m774c96a08d" x="270.189262" y="139.553399" style="fill: #daa520; stroke: #daa520"/>
     <use xlink:href="#m774c96a08d" x="323.988205" y="144.457132" style="fill: #daa520; stroke: #daa520"/>
     <use xlink:href="#m774c96a08d" x="403.231334" y="122.799204" style="fill: #daa520; stroke: #daa520"/>
     <use xlink:href="#m774c96a08d" x="343.139027" y="155.057037" style="fill: #daa520; stroke: #daa520"/>
     <use xlink:href="#m774c96a08d" x="115.579162" y="85.301787" style="fill: #daa520; stroke: #daa520"/>
     <use xlink:href="#m774c96a08d" x="299.045196" y="132.648071" style="fill: #daa520; stroke: #daa520"/>
     <use xlink:href="#m774c96a08d" x="57.964521" y="79.313097" style="fill: #daa520; stroke: #daa520"/>
     <use xlink:href="#m774c96a08d" x="394.518819" y="138.399482" style="fill: #daa520; stroke: #daa520"/>
     <use xlink:href="#m774c96a08d" x="85.31478" y="141.607493" style="fill: #daa520; stroke: #daa520"/>
     <use xlink:href="#m774c96a08d" x="399.277597" y="130.022276" style="fill: #daa520; stroke: #daa520"/>
     <use xlink:href="#m774c96a08d" x="353.42673" y="144.52058" style="fill: #daa520; stroke: #daa520"/>
     <use xlink:href="#m774c96a08d" x="403.862739" y="138.201792" style="fill: #daa520; stroke: #daa520"/>
     <use xlink:href="#m774c96a08d" x="382.959757" y="146.810907" style="fill: #daa520; stroke: #daa520"/>
     <use xlink:href="#m774c96a08d" x="402.233465" y="129.912289" style="fill: #daa520; stroke: #daa520"/>
     <use xlink:href="#m774c96a08d" x="368.891792" y="155.252162" style="fill: #daa520; stroke: #daa520"/>
     <use xlink:href="#m774c96a08d" x="400.507581" y="146.773204" style="fill: #daa520; stroke: #daa520"/>
     <use xlink:href="#m774c96a08d" x="201.209039" y="143.713523" style="fill: #daa520; stroke: #daa520"/>
     <use xlink:href="#m774c96a08d" x="368.540519" y="142.751733" style="fill: #daa520; stroke: #daa520"/>
     <use xlink:href="#m774c96a08d" x="374.461996" y="152.621077" style="fill: #daa520; stroke: #daa520"/>
     <use xlink:href="#m774c96a08d" x="95.414933" y="96.034382" style="fill: #daa520; stroke: #daa520"/>
     <use xlink:href="#m774c96a08d" x="77.79961" y="137.921633" style="fill: #daa520; stroke: #daa520"/>
     <use xlink:href="#m774c96a08d" x="310.253248" y="150.916981" style="fill: #daa520; stroke: #daa520"/>
     <use xlink:href="#m774c96a08d" x="109.24974" y="149.600561" style="fill: #daa520; stroke: #daa520"/>
     <use xlink:href="#m774c96a08d" x="173.720766" y="145.168333" style="fill: #daa520; stroke: #daa520"/>
     <use xlink:href="#m774c96a08d" x="303.804764" y="140.652478" style="fill: #daa520; stroke: #daa520"/>
     <use xlink:href="#m774c96a08d" x="393.837712" y="134.266665" style="fill: #daa520; stroke: #daa520"/>
     <use xlink:href="#m774c96a08d" x="396.939106" y="153.68283" style="fill: #daa520; stroke: #daa520"/>
     <use xlink:href="#m774c96a08d" x="186.536177" y="139.76576" style="fill: #daa520; stroke: #daa520"/>
     <use xlink:href="#m774c96a08d" x="364.897958" y="147.354866" style="fill: #daa520; stroke: #daa520"/>
     <use xlink:href="#m774c96a08d" x="390.882207" y="123.813742" style="fill: #daa520; stroke: #daa520"/>
     <use xlink:href="#m774c96a08d" x="414.946627" y="145.13737" style="fill: #daa520; stroke: #daa520"/>
     <use xlink:href="#m774c96a08d" x="171.249729" y="122.976436" style="fill: #daa520; stroke: #daa520"/>
     <use xlink:href="#m774c96a08d" x="408.404563" y="152.274445" style="fill: #daa520; stroke: #daa520"/>
     <use xlink:href="#m774c96a08d" x="400.236387" y="133.194834" style="fill: #daa520; stroke: #daa520"/>
     <use xlink:href="#m774c96a08d" x="337.055977" y="157.409464" style="fill: #daa520; stroke: #daa520"/>
     <use xlink:href="#m774c96a08d" x="357.083393" y="154.742552" style="fill: #daa520; stroke: #daa520"/>
     <use xlink:href="#m774c96a08d" x="334.493748" y="154.168687" style="fill: #daa520; stroke: #daa520"/>
     <use xlink:href="#m774c96a08d" x="319.941688" y="160.101373" style="fill: #daa520; stroke: #daa520"/>
     <use xlink:href="#m774c96a08d" x="286.012521" y="134.95977" style="fill: #daa520; stroke: #daa520"/>
     <use xlink:href="#m774c96a08d" x="73.362975" y="100.81618" style="fill: #daa520; stroke: #daa520"/>
     <use xlink:href="#m774c96a08d" x="264.61641" y="115.902482" style="fill: #daa520; stroke: #daa520"/>
     <use xlink:href="#m774c96a08d" x="370.586773" y="147.70177" style="fill: #daa520; stroke: #daa520"/>
     <use xlink:href="#m774c96a08d" x="414.782432" y="124.580989" style="fill: #daa520; stroke: #daa520"/>
     <use xlink:href="#m774c96a08d" x="385.917476" y="135.207126" style="fill: #daa520; stroke: #daa520"/>
     <use xlink:href="#m774c96a08d" x="315.577676" y="159.296737" style="fill: #daa520; stroke: #daa520"/>
     <use xlink:href="#m774c96a08d" x="228.762377" y="148.713188" style="fill: #daa520; stroke: #daa520"/>
    </g>
   </g>
   <g id="matplotlib.axis_3"/>
   <g id="matplotlib.axis_4">
    <g id="ytick_1">
     <g id="line2d_3">
      <defs>
       <path id="m5a448c3a75" d="M 0 0 
L -3.5 0 
" style="stroke: #696969; stroke-width: 0.8"/>
      </defs>
      <g>
       <use xlink:href="#m5a448c3a75" x="37.7875" y="160.08319" style="fill: #696969; stroke: #696969; stroke-width: 0.8"/>
      </g>
     </g>
     <g id="text_1">
      <!-- −5 -->
      <g style="fill: #696969" transform="translate(7.2 166.16194) scale(0.16 -0.16)">
       <defs>
        <path id="DejaVuSans-2212" d="M 678 2272 
L 4684 2272 
L 4684 1741 
L 678 1741 
L 678 2272 
z
" transform="scale(0.015625)"/>
        <path id="DejaVuSans-35" d="M 691 4666 
L 3169 4666 
L 3169 4134 
L 1269 4134 
L 1269 2991 
Q 1406 3038 1543 3061 
Q 1681 3084 1819 3084 
Q 2600 3084 3056 2656 
Q 3513 2228 3513 1497 
Q 3513 744 3044 326 
Q 2575 -91 1722 -91 
Q 1428 -91 1123 -41 
Q 819 9 494 109 
L 494 744 
Q 775 591 1075 516 
Q 1375 441 1709 441 
Q 2250 441 2565 725 
Q 2881 1009 2881 1497 
Q 2881 1984 2565 2268 
Q 2250 2553 1709 2553 
Q 1456 2553 1204 2497 
Q 953 2441 691 2322 
L 691 4666 
z
" transform="scale(0.015625)"/>
       </defs>
       <use xlink:href="#DejaVuSans-2212"/>
       <use xlink:href="#DejaVuSans-35" x="83.789062"/>
      </g>
     </g>
    </g>
    <g id="ytick_2">
     <g id="line2d_4">
      <g>
       <use xlink:href="#m5a448c3a75" x="37.7875" y="126.91155" style="fill: #696969; stroke: #696969; stroke-width: 0.8"/>
      </g>
     </g>
     <g id="text_2">
      <!-- 0 -->
      <g style="fill: #696969" transform="translate(20.6075 132.9903) scale(0.16 -0.16)">
       <defs>
        <path id="DejaVuSans-30" d="M 2034 4250 
Q 1547 4250 1301 3770 
Q 1056 3291 1056 2328 
Q 1056 1369 1301 889 
Q 1547 409 2034 409 
Q 2525 409 2770 889 
Q 3016 1369 3016 2328 
Q 3016 3291 2770 3770 
Q 2525 4250 2034 4250 
z
M 2034 4750 
Q 2819 4750 3233 4129 
Q 3647 3509 3647 2328 
Q 3647 1150 3233 529 
Q 2819 -91 2034 -91 
Q 1250 -91 836 529 
Q 422 1150 422 2328 
Q 422 3509 836 4129 
Q 1250 4750 2034 4750 
z
" transform="scale(0.015625)"/>
       </defs>
       <use xlink:href="#DejaVuSans-30"/>
      </g>
     </g>
    </g>
    <g id="ytick_3">
     <g id="line2d_5">
      <g>
       <use xlink:href="#m5a448c3a75" x="37.7875" y="93.739911" style="fill: #696969; stroke: #696969; stroke-width: 0.8"/>
      </g>
     </g>
     <g id="text_3">
      <!-- 5 -->
      <g style="fill: #696969" transform="translate(20.6075 99.818661) scale(0.16 -0.16)">
       <use xlink:href="#DejaVuSans-35"/>
      </g>
     </g>
    </g>
   </g>
   <g id="line2d_6">
    <path d="M 55.888409 101.205563 
L 63.128773 102.269449 
L 70.369136 103.990922 
L 77.6095 106.336014 
L 84.849864 109.110667 
L 92.090227 112.031586 
L 99.330591 114.809135 
L 106.570955 117.209837 
L 113.811318 119.094162 
L 121.051682 120.439723 
L 128.292045 121.352536 
L 135.532409 122.05424 
L 142.772773 122.830575 
L 150.013136 123.943094 
L 157.2535 125.531734 
L 164.493864 127.551533 
L 171.734227 129.77932 
L 178.974591 131.896046 
L 186.214955 133.612399 
L 193.455318 134.780107 
L 200.695682 135.43537 
L 207.936045 135.754869 
L 215.176409 135.950798 
L 222.416773 136.162405 
L 229.657136 136.398665 
L 236.8975 136.554039 
L 244.137864 136.480319 
L 251.378227 136.076702 
L 258.618591 135.363549 
L 265.858955 134.5195 
L 273.099318 133.870744 
L 280.339682 133.82447 
L 287.580045 134.748789 
L 294.820409 136.827573 
L 302.060773 139.947537 
L 309.301136 143.679776 
L 316.5415 147.382863 
L 323.781864 150.394827 
L 331.022227 152.235037 
L 338.262591 152.734281 
L 345.502955 152.050276 
L 352.743318 150.578002 
L 359.983682 148.800212 
L 367.224045 147.133982 
L 374.464409 145.821618 
L 381.704773 144.89737 
L 388.945136 144.23752 
L 396.1855 143.671188 
L 403.425864 143.101861 
L 410.666227 142.580872 
L 417.906591 142.293878 
" clip-path="url(#p19f2a3eaa4)" style="fill: none; stroke: #000000; stroke-width: 2; stroke-linecap: square"/>
   </g>
   <g id="line2d_7">
    <path d="M 55.888409 79.064206 
L 63.128773 94.942815 
L 70.369136 106.621597 
L 77.6095 115.105957 
L 84.849864 121.18894 
L 92.090227 125.490114 
L 99.330591 128.488538 
L 106.570955 130.550514 
L 113.811318 131.952757 
L 121.051682 132.901579 
L 128.292045 133.548623 
L 135.532409 134.003628 
L 142.772773 134.344675 
L 150.013136 134.626306 
L 157.2535 134.885861 
L 164.493864 135.148353 
L 171.734227 135.430157 
L 178.974591 135.741722 
L 186.214955 136.089546 
L 193.455318 136.477544 
L 200.695682 136.907977 
L 207.936045 137.38204 
L 215.176409 137.900197 
L 222.416773 138.462345 
L 229.657136 139.067834 
L 236.8975 139.715401 
L 244.137864 140.403018 
L 251.378227 141.127683 
L 258.618591 141.885156 
L 265.858955 142.669638 
L 273.099318 143.473406 
L 280.339682 144.286417 
L 287.580045 145.095888 
L 294.820409 145.885884 
L 302.060773 146.636979 
L 309.301136 147.326014 
L 316.5415 147.926084 
L 323.781864 148.40684 
L 331.022227 148.735258 
L 338.262591 148.877061 
L 345.502955 148.799021 
L 352.743318 148.472384 
L 359.983682 147.877764 
L 367.224045 147.011845 
L 374.464409 145.89633 
L 381.704773 144.58963 
L 388.945136 143.201827 
L 396.1855 141.913566 
L 403.425864 140.999547 
L 410.666227 140.857442 
L 417.906591 142.043069 
" clip-path="url(#p19f2a3eaa4)" style="fill: none; stroke-dasharray: 7.4,3.2; stroke-dashoffset: 0; stroke: #34b6c6; stroke-width: 2"/>
   </g>
   <g id="line2d_8">
    <path d="M 55.888409 82.273991 
L 63.128773 96.434681 
L 70.369136 106.398277 
L 77.6095 113.669221 
L 84.849864 119.437997 
L 92.090227 124.580305 
L 99.330591 129.16209 
L 106.570955 132.226641 
L 113.811318 133.37603 
L 121.051682 133.231839 
L 128.292045 132.508913 
L 135.532409 131.711049 
L 142.772773 131.223051 
L 150.013136 131.385738 
L 157.2535 132.432096 
L 164.493864 134.276287 
L 171.734227 136.395741 
L 178.974591 138.135742 
L 186.214955 139.178778 
L 193.455318 139.603732 
L 200.695682 139.63354 
L 207.936045 139.45722 
L 215.176409 139.192029 
L 222.416773 138.90087 
L 229.657136 138.614445 
L 236.8975 138.346166 
L 244.137864 138.100633 
L 251.378227 137.87831 
L 258.618591 137.678469 
L 265.858955 137.502235 
L 273.099318 137.358856 
L 280.339682 137.284432 
L 287.580045 137.406411 
L 294.820409 138.169441 
L 302.060773 140.925117 
L 309.301136 147.088859 
L 316.5415 152.359793 
L 323.781864 154.096168 
L 331.022227 154.286205 
L 338.262591 153.93039 
L 345.502955 153.140273 
L 352.743318 151.502816 
L 359.983682 148.560966 
L 367.224045 145.390322 
L 374.464409 143.349806 
L 381.704773 142.223414 
L 388.945136 141.557561 
L 396.1855 141.199103 
L 403.425864 141.168079 
L 410.666227 141.563154 
L 417.906591 142.529151 
" clip-path="url(#p19f2a3eaa4)" style="fill: none; stroke-dasharray: 7.4,3.2; stroke-dashoffset: 0; stroke: #9370db; stroke-width: 2"/>
   </g>
   <g id="line2d_9">
    <path d="M 55.888409 101.118845 
L 63.128773 101.90595 
L 70.369136 103.176707 
L 77.6095 105.052999 
L 84.849864 107.660264 
L 92.090227 111.076805 
L 99.330591 114.913316 
L 106.570955 118.115976 
L 113.811318 120.150626 
L 121.051682 121.33371 
L 128.292045 122.105149 
L 135.532409 122.781433 
L 142.772773 123.615466 
L 150.013136 124.845846 
L 157.2535 126.641809 
L 164.493864 128.937029 
L 171.734227 131.336004 
L 178.974591 133.34509 
L 186.214955 134.730497 
L 193.455318 135.562601 
L 200.695682 136.021976 
L 207.936045 136.262688 
L 215.176409 136.383124 
L 222.416773 136.439277 
L 229.657136 136.461747 
L 236.8975 136.467238 
L 244.137864 136.465154 
L 251.378227 136.461295 
L 258.618591 136.460242 
L 265.858955 136.467807 
L 273.099318 136.49596 
L 280.339682 136.577294 
L 287.580045 136.81452 
L 294.820409 137.55356 
L 302.060773 139.835372 
L 309.301136 144.749959 
L 316.5415 149.007949 
L 323.781864 150.590757 
L 331.022227 151.026165 
L 338.262591 151.083868 
L 345.502955 150.850317 
L 352.743318 150.00677 
L 359.983682 148.196114 
L 367.224045 146.229164 
L 374.464409 145.12564 
L 381.704773 144.688399 
L 388.945136 144.525671 
L 396.1855 144.460781 
L 403.425864 144.432166 
L 410.666227 144.418554 
L 417.906591 144.412008 
" clip-path="url(#p19f2a3eaa4)" style="fill: none; stroke-dasharray: 12.8,3.2,2,3.2; stroke-dashoffset: 0; stroke: #ff0000; stroke-width: 2"/>
   </g>
   <g id="patch_4">
    <path d="M 37.7875 164.250766 
L 37.7875 75.007703 
" style="fill: none; stroke: #000000; stroke-width: 0.8; stroke-linejoin: miter; stroke-linecap: square"/>
   </g>
   <g id="patch_5">
    <path d="M 436.0075 164.250766 
L 436.0075 75.007703 
" style="fill: none; stroke: #000000; stroke-width: 0.8; stroke-linejoin: miter; stroke-linecap: square"/>
   </g>
   <g id="patch_6">
    <path d="M 37.7875 164.250766 
L 436.0075 164.250766 
" style="fill: none; stroke: #000000; stroke-width: 0.8; stroke-linejoin: miter; stroke-linecap: square"/>
   </g>
   <g id="patch_7">
    <path d="M 37.7875 75.007703 
L 436.0075 75.007703 
" style="fill: none; stroke: #000000; stroke-width: 0.8; stroke-linejoin: miter; stroke-linecap: square"/>
   </g>
  </g>
  <g id="axes_3">
   <g id="patch_8">
    <path d="M 37.7875 276.68 
L 436.0075 276.68 
L 436.0075 187.436938 
L 37.7875 187.436938 
z
" style="fill: #ffffff"/>
   </g>
   <g id="PathCollection_2">
    <g clip-path="url(#p9e21bce1eb)">
     <use xlink:href="#m774c96a08d" x="137.573408" y="223.206087" style="fill: #daa520; stroke: #daa520"/>
     <use xlink:href="#m774c96a08d" x="336.128403" y="229.6096" style="fill: #daa520; stroke: #daa520"/>
     <use xlink:href="#m774c96a08d" x="315.695945" y="243.375686" style="fill: #daa520; stroke: #daa520"/>
     <use xlink:href="#m774c96a08d" x="195.715617" y="214.882738" style="fill: #daa520; stroke: #daa520"/>
     <use xlink:href="#m774c96a08d" x="372.295553" y="223.375952" style="fill: #daa520; stroke: #daa520"/>
     <use xlink:href="#m774c96a08d" x="392.218653" y="227.570587" style="fill: #daa520; stroke: #daa520"/>
     <use xlink:href="#m774c96a08d" x="189.123067" y="225.921264" style="fill: #daa520; stroke: #daa520"/>
     <use xlink:href="#m774c96a08d" x="215.178883" y="219.223518" style="fill: #daa520; stroke: #daa520"/>
     <use xlink:href="#m774c96a08d" x="274.962429" y="212.026402" style="fill: #daa520; stroke: #daa520"/>
     <use xlink:href="#m774c96a08d" x="78.716806" y="192.043331" style="fill: #daa520; stroke: #daa520"/>
     <use xlink:href="#m774c96a08d" x="393.306919" y="229.464795" style="fill: #daa520; stroke: #daa520"/>
     <use xlink:href="#m774c96a08d" x="154.821515" y="255.743585" style="fill: #daa520; stroke: #daa520"/>
     <use xlink:href="#m774c96a08d" x="388.735077" y="241.969375" style="fill: #daa520; stroke: #daa520"/>
     <use xlink:href="#m774c96a08d" x="410.3453" y="217.86903" style="fill: #daa520; stroke: #daa520"/>
     <use xlink:href="#m774c96a08d" x="205.697565" y="222.360545" style="fill: #daa520; stroke: #daa520"/>
     <use xlink:href="#m774c96a08d" x="124.603352" y="201.097179" style="fill: #daa520; stroke: #daa520"/>
     <use xlink:href="#m774c96a08d" x="409.124919" y="226.583951" style="fill: #daa520; stroke: #daa520"/>
     <use xlink:href="#m774c96a08d" x="109.538879" y="224.556471" style="fill: #daa520; stroke: #daa520"/>
     <use xlink:href="#m774c96a08d" x="208.820796" y="242.427697" style="fill: #daa520; stroke: #daa520"/>
     <use xlink:href="#m774c96a08d" x="366.802426" y="225.644551" style="fill: #daa520; stroke: #daa520"/>
     <use xlink:href="#m774c96a08d" x="389.101925" y="219.261535" style="fill: #daa520; stroke: #daa520"/>
     <use xlink:href="#m774c96a08d" x="351.607805" y="249.126413" style="fill: #daa520; stroke: #daa520"/>
     <use xlink:href="#m774c96a08d" x="411.185023" y="216.730354" style="fill: #daa520; stroke: #daa520"/>
     <use xlink:href="#m774c96a08d" x="104.416271" y="193.163148" style="fill: #daa520; stroke: #daa520"/>
     <use xlink:href="#m774c96a08d" x="386.905644" y="247.308296" style="fill: #daa520; stroke: #daa520"/>
     <use xlink:href="#m774c96a08d" x="298.464364" y="236.746254" style="fill: #daa520; stroke: #daa520"/>
     <use xlink:href="#m774c96a08d" x="413.682541" y="216.77074" style="fill: #daa520; stroke: #daa520"/>
     <use xlink:href="#m774c96a08d" x="79.049141" y="261.814116" style="fill: #daa520; stroke: #daa520"/>
     <use xlink:href="#m774c96a08d" x="308.393953" y="217.915582" style="fill: #daa520; stroke: #daa520"/>
     <use xlink:href="#m774c96a08d" x="414.174537" y="224.890021" style="fill: #daa520; stroke: #daa520"/>
     <use xlink:href="#m774c96a08d" x="335.042717" y="223.077526" style="fill: #daa520; stroke: #daa520"/>
     <use xlink:href="#m774c96a08d" x="76.068627" y="219.783653" style="fill: #daa520; stroke: #daa520"/>
     <use xlink:href="#m774c96a08d" x="148.560187" y="215.33765" style="fill: #daa520; stroke: #daa520"/>
     <use xlink:href="#m774c96a08d" x="352.878809" y="224.127874" style="fill: #daa520; stroke: #daa520"/>
     <use xlink:href="#m774c96a08d" x="292.777686" y="237.006404" style="fill: #daa520; stroke: #daa520"/>
     <use xlink:href="#m774c96a08d" x="189.223355" y="219.829903" style="fill: #daa520; stroke: #daa520"/>
     <use xlink:href="#m774c96a08d" x="401.199651" y="247.575316" style="fill: #daa520; stroke: #daa520"/>
     <use xlink:href="#m774c96a08d" x="329.657186" y="226.962518" style="fill: #daa520; stroke: #daa520"/>
     <use xlink:href="#m774c96a08d" x="348.08645" y="237.395595" style="fill: #daa520; stroke: #daa520"/>
     <use xlink:href="#m774c96a08d" x="362.923244" y="231.265045" style="fill: #daa520; stroke: #daa520"/>
     <use xlink:href="#m774c96a08d" x="284.470221" y="229.104677" style="fill: #daa520; stroke: #daa520"/>
     <use xlink:href="#m774c96a08d" x="128.59653" y="210.647825" style="fill: #daa520; stroke: #daa520"/>
     <use xlink:href="#m774c96a08d" x="99.690683" y="191.713331" style="fill: #daa520; stroke: #daa520"/>
     <use xlink:href="#m774c96a08d" x="359.85005" y="227.516104" style="fill: #daa520; stroke: #daa520"/>
     <use xlink:href="#m774c96a08d" x="326.838889" y="220.209528" style="fill: #daa520; stroke: #daa520"/>
     <use xlink:href="#m774c96a08d" x="371.908111" y="223.231586" style="fill: #daa520; stroke: #daa520"/>
     <use xlink:href="#m774c96a08d" x="414.320326" y="254.169602" style="fill: #daa520; stroke: #daa520"/>
     <use xlink:href="#m774c96a08d" x="270.189262" y="227.592601" style="fill: #daa520; stroke: #daa520"/>
     <use xlink:href="#m774c96a08d" x="323.988205" y="238.451156" style="fill: #daa520; stroke: #daa520"/>
     <use xlink:href="#m774c96a08d" x="403.231334" y="256.663183" style="fill: #daa520; stroke: #daa520"/>
     <use xlink:href="#m774c96a08d" x="343.139027" y="226.399306" style="fill: #daa520; stroke: #daa520"/>
     <use xlink:href="#m774c96a08d" x="115.579162" y="272.623497" style="fill: #daa520; stroke: #daa520"/>
     <use xlink:href="#m774c96a08d" x="299.045196" y="238.19766" style="fill: #daa520; stroke: #daa520"/>
     <use xlink:href="#m774c96a08d" x="57.964521" y="257.081672" style="fill: #daa520; stroke: #daa520"/>
     <use xlink:href="#m774c96a08d" x="394.518819" y="238.352326" style="fill: #daa520; stroke: #daa520"/>
     <use xlink:href="#m774c96a08d" x="85.31478" y="191.49344" style="fill: #daa520; stroke: #daa520"/>
     <use xlink:href="#m774c96a08d" x="399.277597" y="248.179574" style="fill: #daa520; stroke: #daa520"/>
     <use xlink:href="#m774c96a08d" x="353.42673" y="237.510519" style="fill: #daa520; stroke: #daa520"/>
     <use xlink:href="#m774c96a08d" x="403.862739" y="238.537643" style="fill: #daa520; stroke: #daa520"/>
     <use xlink:href="#m774c96a08d" x="382.959757" y="228.662742" style="fill: #daa520; stroke: #daa520"/>
     <use xlink:href="#m774c96a08d" x="402.233465" y="248.296837" style="fill: #daa520; stroke: #daa520"/>
     <use xlink:href="#m774c96a08d" x="368.891792" y="220.193524" style="fill: #daa520; stroke: #daa520"/>
     <use xlink:href="#m774c96a08d" x="400.507581" y="228.463919" style="fill: #daa520; stroke: #daa520"/>
     <use xlink:href="#m774c96a08d" x="201.209039" y="222.184452" style="fill: #daa520; stroke: #daa520"/>
     <use xlink:href="#m774c96a08d" x="368.540519" y="234.98068" style="fill: #daa520; stroke: #daa520"/>
     <use xlink:href="#m774c96a08d" x="374.461996" y="222.388638" style="fill: #daa520; stroke: #daa520"/>
     <use xlink:href="#m774c96a08d" x="95.414933" y="250.986264" style="fill: #daa520; stroke: #daa520"/>
     <use xlink:href="#m774c96a08d" x="77.79961" y="192.601638" style="fill: #daa520; stroke: #daa520"/>
     <use xlink:href="#m774c96a08d" x="310.253248" y="224.787663" style="fill: #daa520; stroke: #daa520"/>
     <use xlink:href="#m774c96a08d" x="109.24974" y="195.19946" style="fill: #daa520; stroke: #daa520"/>
     <use xlink:href="#m774c96a08d" x="173.720766" y="215.645811" style="fill: #daa520; stroke: #daa520"/>
     <use xlink:href="#m774c96a08d" x="303.804764" y="231.382979" style="fill: #daa520; stroke: #daa520"/>
     <use xlink:href="#m774c96a08d" x="393.837712" y="243.220985" style="fill: #daa520; stroke: #daa520"/>
     <use xlink:href="#m774c96a08d" x="396.939106" y="220.351887" style="fill: #daa520; stroke: #daa520"/>
     <use xlink:href="#m774c96a08d" x="186.536177" y="225.338942" style="fill: #daa520; stroke: #daa520"/>
     <use xlink:href="#m774c96a08d" x="364.897958" y="230.541201" style="fill: #daa520; stroke: #daa520"/>
     <use xlink:href="#m774c96a08d" x="390.882207" y="255.551532" style="fill: #daa520; stroke: #daa520"/>
     <use xlink:href="#m774c96a08d" x="414.946627" y="230.356902" style="fill: #daa520; stroke: #daa520"/>
     <use xlink:href="#m774c96a08d" x="171.249729" y="240.864244" style="fill: #daa520; stroke: #daa520"/>
     <use xlink:href="#m774c96a08d" x="408.404563" y="221.968066" style="fill: #daa520; stroke: #daa520"/>
     <use xlink:href="#m774c96a08d" x="400.236387" y="244.442192" style="fill: #daa520; stroke: #daa520"/>
     <use xlink:href="#m774c96a08d" x="337.055977" y="223.773887" style="fill: #daa520; stroke: #daa520"/>
     <use xlink:href="#m774c96a08d" x="357.083393" y="224.475994" style="fill: #daa520; stroke: #daa520"/>
     <use xlink:href="#m774c96a08d" x="334.493748" y="227.57997" style="fill: #daa520; stroke: #daa520"/>
     <use xlink:href="#m774c96a08d" x="319.941688" y="219.310206" style="fill: #daa520; stroke: #daa520"/>
     <use xlink:href="#m774c96a08d" x="286.012521" y="233.301529" style="fill: #daa520; stroke: #daa520"/>
     <use xlink:href="#m774c96a08d" x="73.362975" y="234.80383" style="fill: #daa520; stroke: #daa520"/>
     <use xlink:href="#m774c96a08d" x="264.61641" y="255.403632" style="fill: #daa520; stroke: #daa520"/>
     <use xlink:href="#m774c96a08d" x="370.586773" y="228.738223" style="fill: #daa520; stroke: #daa520"/>
     <use xlink:href="#m774c96a08d" x="414.782432" y="254.544922" style="fill: #daa520; stroke: #daa520"/>
     <use xlink:href="#m774c96a08d" x="385.917476" y="242.231393" style="fill: #daa520; stroke: #daa520"/>
     <use xlink:href="#m774c96a08d" x="315.577676" y="218.645366" style="fill: #daa520; stroke: #daa520"/>
     <use xlink:href="#m774c96a08d" x="228.762377" y="216.79028" style="fill: #daa520; stroke: #daa520"/>
    </g>
   </g>
   <g id="matplotlib.axis_5">
    <g id="xtick_1">
     <g id="line2d_10">
      <defs>
       <path id="m666f67fec5" d="M 0 0 
L 0 3.5 
" style="stroke: #696969; stroke-width: 0.8"/>
      </defs>
      <g>
       <use xlink:href="#m666f67fec5" x="55.888409" y="276.68" style="fill: #696969; stroke: #696969; stroke-width: 0.8"/>
      </g>
     </g>
     <g id="text_4">
      <!-- −1.0 -->
      <g style="fill: #696969" transform="translate(36.462159 295.8375) scale(0.16 -0.16)">
       <defs>
        <path id="DejaVuSans-31" d="M 794 531 
L 1825 531 
L 1825 4091 
L 703 3866 
L 703 4441 
L 1819 4666 
L 2450 4666 
L 2450 531 
L 3481 531 
L 3481 0 
L 794 0 
L 794 531 
z
" transform="scale(0.015625)"/>
        <path id="DejaVuSans-2e" d="M 684 794 
L 1344 794 
L 1344 0 
L 684 0 
L 684 794 
z
" transform="scale(0.015625)"/>
       </defs>
       <use xlink:href="#DejaVuSans-2212"/>
       <use xlink:href="#DejaVuSans-31" x="83.789062"/>
       <use xlink:href="#DejaVuSans-2e" x="147.412109"/>
       <use xlink:href="#DejaVuSans-30" x="179.199219"/>
      </g>
     </g>
    </g>
    <g id="xtick_2">
     <g id="line2d_11">
      <g>
       <use xlink:href="#m666f67fec5" x="146.392955" y="276.68" style="fill: #696969; stroke: #696969; stroke-width: 0.8"/>
      </g>
     </g>
     <g id="text_5">
      <!-- −0.5 -->
      <g style="fill: #696969" transform="translate(126.966705 295.8375) scale(0.16 -0.16)">
       <use xlink:href="#DejaVuSans-2212"/>
       <use xlink:href="#DejaVuSans-30" x="83.789062"/>
       <use xlink:href="#DejaVuSans-2e" x="147.412109"/>
       <use xlink:href="#DejaVuSans-35" x="179.199219"/>
      </g>
     </g>
    </g>
    <g id="xtick_3">
     <g id="line2d_12">
      <g>
       <use xlink:href="#m666f67fec5" x="236.8975" y="276.68" style="fill: #696969; stroke: #696969; stroke-width: 0.8"/>
      </g>
     </g>
     <g id="text_6">
      <!-- 0.0 -->
      <g style="fill: #696969" transform="translate(224.175 295.8375) scale(0.16 -0.16)">
       <use xlink:href="#DejaVuSans-30"/>
       <use xlink:href="#DejaVuSans-2e" x="63.623047"/>
       <use xlink:href="#DejaVuSans-30" x="95.410156"/>
      </g>
     </g>
    </g>
    <g id="xtick_4">
     <g id="line2d_13">
      <g>
       <use xlink:href="#m666f67fec5" x="327.402045" y="276.68" style="fill: #696969; stroke: #696969; stroke-width: 0.8"/>
      </g>
     </g>
     <g id="text_7">
      <!-- 0.5 -->
      <g style="fill: #696969" transform="translate(314.679545 295.8375) scale(0.16 -0.16)">
       <use xlink:href="#DejaVuSans-30"/>
       <use xlink:href="#DejaVuSans-2e" x="63.623047"/>
       <use xlink:href="#DejaVuSans-35" x="95.410156"/>
      </g>
     </g>
    </g>
    <g id="xtick_5">
     <g id="line2d_14">
      <g>
       <use xlink:href="#m666f67fec5" x="417.906591" y="276.68" style="fill: #696969; stroke: #696969; stroke-width: 0.8"/>
      </g>
     </g>
     <g id="text_8">
      <!-- 1.0 -->
      <g style="fill: #696969" transform="translate(405.184091 295.8375) scale(0.16 -0.16)">
       <use xlink:href="#DejaVuSans-31"/>
       <use xlink:href="#DejaVuSans-2e" x="63.623047"/>
       <use xlink:href="#DejaVuSans-30" x="95.410156"/>
      </g>
     </g>
    </g>
    <g id="text_9">
     <!-- $X$ -->
     <g transform="translate(231.3775 315.3225) scale(0.16 -0.16)">
      <defs>
       <path id="DejaVuSans-Oblique-58" d="M 878 4666 
L 1516 4666 
L 2316 2981 
L 3763 4666 
L 4500 4666 
L 2578 2438 
L 3738 0 
L 3103 0 
L 2163 1966 
L 459 0 
L -275 0 
L 1906 2509 
L 878 4666 
z
" transform="scale(0.015625)"/>
      </defs>
      <use xlink:href="#DejaVuSans-Oblique-58" transform="translate(0 0.09375)"/>
     </g>
    </g>
   </g>
   <g id="matplotlib.axis_6">
    <g id="ytick_4">
     <g id="line2d_15">
      <g>
       <use xlink:href="#m5a448c3a75" x="37.7875" y="270.239666" style="fill: #696969; stroke: #696969; stroke-width: 0.8"/>
      </g>
     </g>
     <g id="text_10">
      <!-- −5 -->
      <g style="fill: #696969" transform="translate(7.2 276.318416) scale(0.16 -0.16)">
       <use xlink:href="#DejaVuSans-2212"/>
       <use xlink:href="#DejaVuSans-35" x="83.789062"/>
      </g>
     </g>
    </g>
    <g id="ytick_5">
     <g id="line2d_16">
      <g>
       <use xlink:href="#m5a448c3a75" x="37.7875" y="231.207944" style="fill: #696969; stroke: #696969; stroke-width: 0.8"/>
      </g>
     </g>
     <g id="text_11">
      <!-- 0 -->
      <g style="fill: #696969" transform="translate(20.6075 237.286694) scale(0.16 -0.16)">
       <use xlink:href="#DejaVuSans-30"/>
      </g>
     </g>
    </g>
    <g id="ytick_6">
     <g id="line2d_17">
      <g>
       <use xlink:href="#m5a448c3a75" x="37.7875" y="192.176222" style="fill: #696969; stroke: #696969; stroke-width: 0.8"/>
      </g>
     </g>
     <g id="text_12">
      <!-- 5 -->
      <g style="fill: #696969" transform="translate(20.6075 198.254972) scale(0.16 -0.16)">
       <use xlink:href="#DejaVuSans-35"/>
      </g>
     </g>
    </g>
   </g>
   <g id="line2d_18">
    <path d="M 55.888409 231.105906 
L 63.128773 230.780229 
L 70.369136 230.24989 
L 77.6095 229.698273 
L 84.849864 229.501313 
L 92.090227 230.084493 
L 99.330591 231.33053 
L 106.570955 232.274161 
L 113.811318 232.451042 
L 121.051682 232.259863 
L 128.292045 232.093513 
L 135.532409 232.063603 
L 142.772773 232.131493 
L 150.013136 232.270176 
L 157.2535 232.514125 
L 164.493864 232.8382 
L 171.734227 233.039632 
L 178.974591 232.912976 
L 186.214955 232.523565 
L 193.455318 232.128673 
L 200.695682 231.898179 
L 207.936045 231.805474 
L 215.176409 231.716645 
L 222.416773 231.533728 
L 229.657136 231.28217 
L 236.8975 231.105809 
L 244.137864 231.1901 
L 251.378227 231.66048 
L 258.618591 232.498378 
L 265.858955 233.500438 
L 273.099318 234.29693 
L 280.339682 234.447081 
L 287.580045 233.638606 
L 294.820409 232.062184 
L 302.060773 231.075965 
L 309.301136 232.467186 
L 316.5415 233.120117 
L 323.781864 231.438487 
L 331.022227 229.785513 
L 338.262591 229.26597 
L 345.502955 229.796002 
L 352.743318 230.535798 
L 359.983682 230.497127 
L 367.224045 230.143282 
L 374.464409 230.389015 
L 381.704773 230.962056 
L 388.945136 231.547 
L 396.1855 232.137026 
L 403.425864 232.77326 
L 410.666227 233.370271 
L 417.906591 233.700261 
" clip-path="url(#p9e21bce1eb)" style="fill: none; stroke: #696969; stroke-width: 2; stroke-linecap: square"/>
   </g>
   <g id="line2d_19">
    <path d="M 55.888409 254.265249 
L 63.128773 238.056324 
L 70.369136 227.355796 
L 77.6095 220.674198 
L 84.849864 216.867706 
L 92.090227 215.068546 
L 99.330591 214.62735 
L 106.570955 215.065765 
L 113.811318 216.037831 
L 121.051682 217.298786 
L 128.292045 218.68013 
L 135.532409 220.069913 
L 142.772773 221.39734 
L 150.013136 222.620918 
L 157.2535 223.719475 
L 164.493864 224.685464 
L 171.734227 225.520085 
L 178.974591 226.229811 
L 186.214955 226.823987 
L 193.455318 227.313233 
L 200.695682 227.708436 
L 207.936045 228.020156 
L 215.176409 228.25833 
L 222.416773 228.432169 
L 229.657136 228.55018 
L 236.8975 228.620274 
L 244.137864 228.649928 
L 251.378227 228.646376 
L 258.618591 228.61683 
L 265.858955 228.56871 
L 273.099318 228.509892 
L 280.339682 228.448945 
L 287.580045 228.395354 
L 294.820409 228.359704 
L 302.060773 228.353788 
L 309.301136 228.390591 
L 316.5415 228.484117 
L 323.781864 228.648966 
L 331.022227 228.899602 
L 338.262591 229.249228 
L 345.502955 229.708155 
L 352.743318 230.281579 
L 359.983682 230.966654 
L 367.224045 231.748734 
L 374.464409 232.596695 
L 381.704773 233.457212 
L 388.945136 234.247899 
L 396.1855 234.849209 
L 403.425864 235.095042 
L 410.666227 234.761989 
L 417.906591 233.557195 
" clip-path="url(#p9e21bce1eb)" style="fill: none; stroke-dasharray: 7.4,3.2; stroke-dashoffset: 0; stroke: #79ad41; stroke-width: 2"/>
   </g>
   <g id="patch_9">
    <path d="M 37.7875 276.68 
L 37.7875 187.436938 
" style="fill: none; stroke: #000000; stroke-width: 0.8; stroke-linejoin: miter; stroke-linecap: square"/>
   </g>
   <g id="patch_10">
    <path d="M 436.0075 276.68 
L 436.0075 187.436938 
" style="fill: none; stroke: #000000; stroke-width: 0.8; stroke-linejoin: miter; stroke-linecap: square"/>
   </g>
   <g id="patch_11">
    <path d="M 37.7875 276.68 
L 436.0075 276.68 
" style="fill: none; stroke: #000000; stroke-width: 0.8; stroke-linejoin: miter; stroke-linecap: square"/>
   </g>
   <g id="patch_12">
    <path d="M 37.7875 187.436938 
L 436.0075 187.436938 
" style="fill: none; stroke: #000000; stroke-width: 0.8; stroke-linejoin: miter; stroke-linecap: square"/>
   </g>
  </g>
 </g>
 <defs>
  <clipPath id="pc7d134db9e">
   <rect x="37.7875" y="7.2" width="398.22" height="44.621531"/>
  </clipPath>
  <clipPath id="p19f2a3eaa4">
   <rect x="37.7875" y="75.007703" width="398.22" height="89.243062"/>
  </clipPath>
  <clipPath id="p9e21bce1eb">
   <rect x="37.7875" y="187.436938" width="398.22" height="89.243062"/>
  </clipPath>
 </defs>
</svg>
