<?xml version="1.0" encoding="utf-8" standalone="no"?>
<!DOCTYPE svg PUBLIC "-//W3C//DTD SVG 1.1//EN"
  "http://www.w3.org/Graphics/SVG/1.1/DTD/svg11.dtd">
<svg xmlns:xlink="http://www.w3.org/1999/xlink" width="443.2075pt" height="325.85pt" viewBox="0 0 443.2075 325.85" xmlns="http://www.w3.org/2000/svg" version="1.1">
 <metadata>
  <rdf:RDF xmlns:dc="http://purl.org/dc/elements/1.1/" xmlns:cc="http://creativecommons.org/ns#" xmlns:rdf="http://www.w3.org/1999/02/22-rdf-syntax-ns#">
   <cc:Work>
    <dc:type rdf:resource="http://purl.org/dc/dcmitype/StillImage"/>
    <dc:date>2024-01-28T20:55:54.786444</dc:date>
    <dc:format>image/svg+xml</dc:format>
    <dc:creator>
     <cc:Agent>
      <dc:title>Matplotlib v3.7.2, https://matplotlib.org/</dc:title>
     </cc:Agent>
    </dc:creator>
   </cc:Work>
  </rdf:RDF>
 </metadata>
 <defs>
  <style type="text/css">*{stroke-linejoin: round; stroke-linecap: butt}</style>
 </defs>
 <g id="figure_1">
  <g id="patch_1">
   <path d="M 0 325.85 
L 443.2075 325.85 
L 443.2075 0 
L 0 0 
z
" style="fill: #ffffff"/>
  </g>
  <g id="axes_1">
   <g id="patch_2">
    <path d="M 37.7875 51.818802 
L 436.0075 51.818802 
L 436.0075 7.2 
L 37.7875 7.2 
z
" style="fill: #ffffff"/>
   </g>
   <g id="PolyCollection_1">
    <defs>
     <path id="mda51767d35" d="M 55.888409 -276.059325 
L 55.888409 -286.584757 
L 63.128773 -286.624196 
L 70.369136 -286.653499 
L 77.6095 -286.672108 
L 84.849864 -286.679735 
L 92.090227 -286.676432 
L 99.330591 -286.662644 
L 106.570955 -286.639243 
L 113.811318 -286.607553 
L 121.051682 -286.569373 
L 128.292045 -286.526968 
L 135.532409 -286.483074 
L 142.772773 -286.440866 
L 150.013136 -286.403947 
L 157.2535 -286.376289 
L 164.493864 -286.362245 
L 171.734227 -286.366487 
L 178.974591 -286.394018 
L 186.214955 -286.450154 
L 193.455318 -286.540538 
L 200.695682 -286.671165 
L 207.936045 -286.848403 
L 215.176409 -287.079047 
L 222.416773 -287.370334 
L 229.657136 -287.729962 
L 236.8975 -288.166074 
L 244.137864 -288.687176 
L 251.378227 -289.301957 
L 258.618591 -290.01903 
L 265.858955 -290.846461 
L 273.099318 -291.791182 
L 280.339682 -292.85817 
L 287.580045 -294.049489 
L 294.820409 -295.36322 
L 302.060773 -296.792441 
L 309.301136 -298.324391 
L 316.5415 -299.940143 
L 323.781864 -301.614862 
L 331.022227 -303.318924 
L 338.262591 -305.019764 
L 345.502955 -306.684317 
L 352.743318 -308.281614 
L 359.983682 -309.78518 
L 367.224045 -311.174726 
L 374.464409 -312.437014 
L 381.704773 -313.565813 
L 388.945136 -314.561116 
L 396.1855 -315.427908 
L 403.425864 -316.174731 
L 410.666227 -316.621873 
L 417.906591 -316.621873 
L 417.906591 -276.059325 
L 417.906591 -276.059325 
L 410.666227 -276.059325 
L 403.425864 -276.059325 
L 396.1855 -276.059325 
L 388.945136 -276.059325 
L 381.704773 -276.059325 
L 374.464409 -276.059325 
L 367.224045 -276.059325 
L 359.983682 -276.059325 
L 352.743318 -276.059325 
L 345.502955 -276.059325 
L 338.262591 -276.059325 
L 331.022227 -276.059325 
L 323.781864 -276.059325 
L 316.5415 -276.059325 
L 309.301136 -276.059325 
L 302.060773 -276.059325 
L 294.820409 -276.059325 
L 287.580045 -276.059325 
L 280.339682 -276.059325 
L 273.099318 -276.059325 
L 265.858955 -276.059325 
L 258.618591 -276.059325 
L 251.378227 -276.059325 
L 244.137864 -276.059325 
L 236.8975 -276.059325 
L 229.657136 -276.059325 
L 222.416773 -276.059325 
L 215.176409 -276.059325 
L 207.936045 -276.059325 
L 200.695682 -276.059325 
L 193.455318 -276.059325 
L 186.214955 -276.059325 
L 178.974591 -276.059325 
L 171.734227 -276.059325 
L 164.493864 -276.059325 
L 157.2535 -276.059325 
L 150.013136 -276.059325 
L 142.772773 -276.059325 
L 135.532409 -276.059325 
L 128.292045 -276.059325 
L 121.051682 -276.059325 
L 113.811318 -276.059325 
L 106.570955 -276.059325 
L 99.330591 -276.059325 
L 92.090227 -276.059325 
L 84.849864 -276.059325 
L 77.6095 -276.059325 
L 70.369136 -276.059325 
L 63.128773 -276.059325 
L 55.888409 -276.059325 
z
" style="stroke: #dc143c; stroke-opacity: 0.2"/>
    </defs>
    <g clip-path="url(#p5f47764562)">
     <use xlink:href="#mda51767d35" x="0" y="325.85" style="fill: #dc143c; fill-opacity: 0.2; stroke: #dc143c; stroke-opacity: 0.2"/>
    </g>
   </g>
   <g id="PolyCollection_2">
    <defs>
     <path id="m5d7aa0ef8a" d="M 55.888409 -276.059325 
L 55.888409 -310.60339 
L 63.128773 -310.563951 
L 70.369136 -310.534648 
L 77.6095 -310.51604 
L 84.849864 -310.508413 
L 92.090227 -310.511715 
L 99.330591 -310.525503 
L 106.570955 -310.548904 
L 113.811318 -310.580594 
L 121.051682 -310.618774 
L 128.292045 -310.661179 
L 135.532409 -310.705074 
L 142.772773 -310.747281 
L 150.013136 -310.784201 
L 157.2535 -310.811859 
L 164.493864 -310.825903 
L 171.734227 -310.82166 
L 178.974591 -310.79413 
L 186.214955 -310.737994 
L 193.455318 -310.64761 
L 200.695682 -310.516983 
L 207.936045 -310.339744 
L 215.176409 -310.1091 
L 222.416773 -309.817813 
L 229.657136 -309.458185 
L 236.8975 -309.022073 
L 244.137864 -308.500971 
L 251.378227 -307.88619 
L 258.618591 -307.169117 
L 265.858955 -306.341686 
L 273.099318 -305.396966 
L 280.339682 -304.329977 
L 287.580045 -303.138659 
L 294.820409 -301.824927 
L 302.060773 -300.395706 
L 309.301136 -298.863756 
L 316.5415 -297.248005 
L 323.781864 -295.573285 
L 331.022227 -293.869224 
L 338.262591 -292.168383 
L 345.502955 -290.503831 
L 352.743318 -288.906533 
L 359.983682 -287.402967 
L 367.224045 -286.013422 
L 374.464409 -284.751134 
L 381.704773 -283.622335 
L 388.945136 -282.627031 
L 396.1855 -281.760239 
L 403.425864 -281.013416 
L 410.666227 -280.566275 
L 417.906591 -280.566275 
L 417.906591 -276.059325 
L 417.906591 -276.059325 
L 410.666227 -276.059325 
L 403.425864 -276.059325 
L 396.1855 -276.059325 
L 388.945136 -276.059325 
L 381.704773 -276.059325 
L 374.464409 -276.059325 
L 367.224045 -276.059325 
L 359.983682 -276.059325 
L 352.743318 -276.059325 
L 345.502955 -276.059325 
L 338.262591 -276.059325 
L 331.022227 -276.059325 
L 323.781864 -276.059325 
L 316.5415 -276.059325 
L 309.301136 -276.059325 
L 302.060773 -276.059325 
L 294.820409 -276.059325 
L 287.580045 -276.059325 
L 280.339682 -276.059325 
L 273.099318 -276.059325 
L 265.858955 -276.059325 
L 258.618591 -276.059325 
L 251.378227 -276.059325 
L 244.137864 -276.059325 
L 236.8975 -276.059325 
L 229.657136 -276.059325 
L 222.416773 -276.059325 
L 215.176409 -276.059325 
L 207.936045 -276.059325 
L 200.695682 -276.059325 
L 193.455318 -276.059325 
L 186.214955 -276.059325 
L 178.974591 -276.059325 
L 171.734227 -276.059325 
L 164.493864 -276.059325 
L 157.2535 -276.059325 
L 150.013136 -276.059325 
L 142.772773 -276.059325 
L 135.532409 -276.059325 
L 128.292045 -276.059325 
L 121.051682 -276.059325 
L 113.811318 -276.059325 
L 106.570955 -276.059325 
L 99.330591 -276.059325 
L 92.090227 -276.059325 
L 84.849864 -276.059325 
L 77.6095 -276.059325 
L 70.369136 -276.059325 
L 63.128773 -276.059325 
L 55.888409 -276.059325 
z
" style="stroke: #000080; stroke-opacity: 0.2"/>
    </defs>
    <g clip-path="url(#p5f47764562)">
     <use xlink:href="#m5d7aa0ef8a" x="0" y="325.85" style="fill: #000080; fill-opacity: 0.2; stroke: #000080; stroke-opacity: 0.2"/>
    </g>
   </g>
   <g id="matplotlib.axis_1"/>
   <g id="matplotlib.axis_2"/>
   <g id="line2d_1">
    <path d="M 55.888409 39.265243 
L 63.128773 39.225804 
L 70.369136 39.196501 
L 77.6095 39.177892 
L 84.849864 39.170265 
L 92.090227 39.173568 
L 99.330591 39.187356 
L 106.570955 39.210757 
L 113.811318 39.242447 
L 121.051682 39.280627 
L 128.292045 39.323032 
L 135.532409 39.366926 
L 142.772773 39.409134 
L 150.013136 39.446053 
L 157.2535 39.473711 
L 164.493864 39.487755 
L 171.734227 39.483513 
L 178.974591 39.455982 
L 186.214955 39.399846 
L 193.455318 39.309462 
L 200.695682 39.178835 
L 207.936045 39.001597 
L 215.176409 38.770953 
L 222.416773 38.479666 
L 229.657136 38.120038 
L 236.8975 37.683926 
L 244.137864 37.162824 
L 251.378227 36.548043 
L 258.618591 35.83097 
L 265.858955 35.003539 
L 273.099318 34.058818 
L 280.339682 32.99183 
L 287.580045 31.800511 
L 294.820409 30.48678 
L 302.060773 29.057559 
L 309.301136 27.525609 
L 316.5415 25.909857 
L 323.781864 24.235138 
L 331.022227 22.531076 
L 338.262591 20.830236 
L 345.502955 19.165683 
L 352.743318 17.568386 
L 359.983682 16.06482 
L 367.224045 14.675274 
L 374.464409 13.412986 
L 381.704773 12.284187 
L 388.945136 11.288884 
L 396.1855 10.422092 
L 403.425864 9.675269 
L 410.666227 9.228127 
L 417.906591 9.228127 
" clip-path="url(#p5f47764562)" style="fill: none; stroke: #dc143c; stroke-width: 1.5; stroke-linecap: square"/>
   </g>
   <g id="line2d_2">
    <path d="M 55.888409 15.24661 
L 63.128773 15.286049 
L 70.369136 15.315352 
L 77.6095 15.33396 
L 84.849864 15.341587 
L 92.090227 15.338285 
L 99.330591 15.324497 
L 106.570955 15.301096 
L 113.811318 15.269406 
L 121.051682 15.231226 
L 128.292045 15.188821 
L 135.532409 15.144926 
L 142.772773 15.102719 
L 150.013136 15.065799 
L 157.2535 15.038141 
L 164.493864 15.024097 
L 171.734227 15.02834 
L 178.974591 15.05587 
L 186.214955 15.112006 
L 193.455318 15.20239 
L 200.695682 15.333017 
L 207.936045 15.510256 
L 215.176409 15.7409 
L 222.416773 16.032187 
L 229.657136 16.391815 
L 236.8975 16.827927 
L 244.137864 17.349029 
L 251.378227 17.96381 
L 258.618591 18.680883 
L 265.858955 19.508314 
L 273.099318 20.453034 
L 280.339682 21.520023 
L 287.580045 22.711341 
L 294.820409 24.025073 
L 302.060773 25.454294 
L 309.301136 26.986244 
L 316.5415 28.601995 
L 323.781864 30.276715 
L 331.022227 31.980776 
L 338.262591 33.681617 
L 345.502955 35.346169 
L 352.743318 36.943467 
L 359.983682 38.447033 
L 367.224045 39.836578 
L 374.464409 41.098866 
L 381.704773 42.227665 
L 388.945136 43.222969 
L 396.1855 44.089761 
L 403.425864 44.836584 
L 410.666227 45.283725 
L 417.906591 45.283725 
" clip-path="url(#p5f47764562)" style="fill: none; stroke: #000080; stroke-width: 1.5; stroke-linecap: square"/>
   </g>
  </g>
  <g id="axes_2">
   <g id="patch_3">
    <path d="M 37.7875 164.249401 
L 436.0075 164.249401 
L 436.0075 75.011796 
L 37.7875 75.011796 
z
" style="fill: #ffffff"/>
   </g>
   <g id="PathCollection_1">
    <defs>
     <path id="m124f6d7512" d="M 0 0.866025 
C 0.229673 0.866025 0.449969 0.774776 0.612372 0.612372 
C 0.774776 0.449969 0.866025 0.229673 0.866025 0 
C 0.866025 -0.229673 0.774776 -0.449969 0.612372 -0.612372 
C 0.449969 -0.774776 0.229673 -0.866025 0 -0.866025 
C -0.229673 -0.866025 -0.449969 -0.774776 -0.612372 -0.612372 
C -0.774776 -0.449969 -0.866025 -0.229673 -0.866025 0 
C -0.866025 0.229673 -0.774776 0.449969 -0.612372 0.612372 
C -0.449969 0.774776 -0.229673 0.866025 0 0.866025 
z
" style="stroke: #daa520"/>
    </defs>
    <g clip-path="url(#pc6d722506c)">
     <use xlink:href="#m124f6d7512" x="137.573408" y="131.565467" style="fill: #daa520; stroke: #daa520"/>
     <use xlink:href="#m124f6d7512" x="336.128403" y="152.902366" style="fill: #daa520; stroke: #daa520"/>
     <use xlink:href="#m124f6d7512" x="315.695945" y="139.606006" style="fill: #daa520; stroke: #daa520"/>
     <use xlink:href="#m124f6d7512" x="195.715617" y="150.228949" style="fill: #daa520; stroke: #daa520"/>
     <use xlink:href="#m124f6d7512" x="372.295553" y="152.496362" style="fill: #daa520; stroke: #daa520"/>
     <use xlink:href="#m124f6d7512" x="392.218653" y="148.316376" style="fill: #daa520; stroke: #daa520"/>
     <use xlink:href="#m124f6d7512" x="189.123067" y="140.815467" style="fill: #daa520; stroke: #daa520"/>
     <use xlink:href="#m124f6d7512" x="215.178883" y="147.363142" style="fill: #daa520; stroke: #daa520"/>
     <use xlink:href="#m124f6d7512" x="274.962429" y="153.241455" style="fill: #daa520; stroke: #daa520"/>
     <use xlink:href="#m124f6d7512" x="78.716806" y="139.941032" style="fill: #daa520; stroke: #daa520"/>
     <use xlink:href="#m124f6d7512" x="393.306919" y="146.791929" style="fill: #daa520; stroke: #daa520"/>
     <use xlink:href="#m124f6d7512" x="154.821515" y="108.336759" style="fill: #daa520; stroke: #daa520"/>
     <use xlink:href="#m124f6d7512" x="388.735077" y="136.831069" style="fill: #daa520; stroke: #daa520"/>
     <use xlink:href="#m124f6d7512" x="410.3453" y="156.013426" style="fill: #daa520; stroke: #daa520"/>
     <use xlink:href="#m124f6d7512" x="205.697565" y="144.684799" style="fill: #daa520; stroke: #daa520"/>
     <use xlink:href="#m124f6d7512" x="124.603352" y="148.081722" style="fill: #daa520; stroke: #daa520"/>
     <use xlink:href="#m124f6d7512" x="409.124919" y="149.04121" style="fill: #daa520; stroke: #daa520"/>
     <use xlink:href="#m124f6d7512" x="109.538879" y="126.806768" style="fill: #daa520; stroke: #daa520"/>
     <use xlink:href="#m124f6d7512" x="208.820796" y="128.699888" style="fill: #daa520; stroke: #daa520"/>
     <use xlink:href="#m124f6d7512" x="366.802426" y="151.584213" style="fill: #daa520; stroke: #daa520"/>
     <use xlink:href="#m124f6d7512" x="389.101925" y="154.997612" style="fill: #daa520; stroke: #daa520"/>
     <use xlink:href="#m124f6d7512" x="351.607805" y="136.445" style="fill: #daa520; stroke: #daa520"/>
     <use xlink:href="#m124f6d7512" x="411.185023" y="156.92361" style="fill: #daa520; stroke: #daa520"/>
     <use xlink:href="#m124f6d7512" x="104.416271" y="150.232843" style="fill: #daa520; stroke: #daa520"/>
     <use xlink:href="#m124f6d7512" x="386.905644" y="132.585642" style="fill: #daa520; stroke: #daa520"/>
     <use xlink:href="#m124f6d7512" x="298.464364" y="135.243331" style="fill: #daa520; stroke: #daa520"/>
     <use xlink:href="#m124f6d7512" x="413.682541" y="156.888761" style="fill: #daa520; stroke: #daa520"/>
     <use xlink:href="#m124f6d7512" x="79.049141" y="84.210793" style="fill: #daa520; stroke: #daa520"/>
     <use xlink:href="#m124f6d7512" x="308.393953" y="155.635986" style="fill: #daa520; stroke: #daa520"/>
     <use xlink:href="#m124f6d7512" x="414.174537" y="150.391142" style="fill: #daa520; stroke: #daa520"/>
     <use xlink:href="#m124f6d7512" x="335.042717" y="158.126121" style="fill: #daa520; stroke: #daa520"/>
     <use xlink:href="#m124f6d7512" x="76.068627" y="116.985481" style="fill: #daa520; stroke: #daa520"/>
     <use xlink:href="#m124f6d7512" x="148.560187" y="139.337247" style="fill: #daa520; stroke: #daa520"/>
     <use xlink:href="#m124f6d7512" x="352.878809" y="156.242859" style="fill: #daa520; stroke: #daa520"/>
     <use xlink:href="#m124f6d7512" x="292.777686" y="133.951967" style="fill: #daa520; stroke: #daa520"/>
     <use xlink:href="#m124f6d7512" x="189.223355" y="145.701194" style="fill: #daa520; stroke: #daa520"/>
     <use xlink:href="#m124f6d7512" x="401.199651" y="132.260571" style="fill: #daa520; stroke: #daa520"/>
     <use xlink:href="#m124f6d7512" x="329.657186" y="154.917655" style="fill: #daa520; stroke: #daa520"/>
     <use xlink:href="#m124f6d7512" x="348.08645" y="146.251815" style="fill: #daa520; stroke: #daa520"/>
     <use xlink:href="#m124f6d7512" x="362.923244" y="148.035107" style="fill: #daa520; stroke: #daa520"/>
     <use xlink:href="#m124f6d7512" x="284.470221" y="139.736159" style="fill: #daa520; stroke: #daa520"/>
     <use xlink:href="#m124f6d7512" x="128.59653" y="140.808451" style="fill: #daa520; stroke: #daa520"/>
     <use xlink:href="#m124f6d7512" x="99.690683" y="149.334103" style="fill: #daa520; stroke: #daa520"/>
     <use xlink:href="#m124f6d7512" x="359.85005" y="151.887368" style="fill: #daa520; stroke: #daa520"/>
     <use xlink:href="#m124f6d7512" x="326.838889" y="160.193146" style="fill: #daa520; stroke: #daa520"/>
     <use xlink:href="#m124f6d7512" x="371.908111" y="152.658892" style="fill: #daa520; stroke: #daa520"/>
     <use xlink:href="#m124f6d7512" x="414.320326" y="126.960979" style="fill: #daa520; stroke: #daa520"/>
     <use xlink:href="#m124f6d7512" x="270.189262" y="140.758044" style="fill: #daa520; stroke: #daa520"/>
     <use xlink:href="#m124f6d7512" x="323.988205" y="145.375319" style="fill: #daa520; stroke: #daa520"/>
     <use xlink:href="#m124f6d7512" x="403.231334" y="124.982566" style="fill: #daa520; stroke: #daa520"/>
     <use xlink:href="#m124f6d7512" x="343.139027" y="155.356018" style="fill: #daa520; stroke: #daa520"/>
     <use xlink:href="#m124f6d7512" x="115.579162" y="89.675607" style="fill: #daa520; stroke: #daa520"/>
     <use xlink:href="#m124f6d7512" x="299.045196" y="134.256099" style="fill: #daa520; stroke: #daa520"/>
     <use xlink:href="#m124f6d7512" x="57.964521" y="84.036753" style="fill: #daa520; stroke: #daa520"/>
     <use xlink:href="#m124f6d7512" x="394.518819" y="139.671535" style="fill: #daa520; stroke: #daa520"/>
     <use xlink:href="#m124f6d7512" x="85.31478" y="142.692145" style="fill: #daa520; stroke: #daa520"/>
     <use xlink:href="#m124f6d7512" x="399.277597" y="131.783693" style="fill: #daa520; stroke: #daa520"/>
     <use xlink:href="#m124f6d7512" x="353.42673" y="145.435061" style="fill: #daa520; stroke: #daa520"/>
     <use xlink:href="#m124f6d7512" x="403.862739" y="139.485393" style="fill: #daa520; stroke: #daa520"/>
     <use xlink:href="#m124f6d7512" x="382.959757" y="147.591596" style="fill: #daa520; stroke: #daa520"/>
     <use xlink:href="#m124f6d7512" x="402.233465" y="131.680132" style="fill: #daa520; stroke: #daa520"/>
     <use xlink:href="#m124f6d7512" x="368.891792" y="155.539744" style="fill: #daa520; stroke: #daa520"/>
     <use xlink:href="#m124f6d7512" x="400.507581" y="147.556095" style="fill: #daa520; stroke: #daa520"/>
     <use xlink:href="#m124f6d7512" x="201.209039" y="144.675149" style="fill: #daa520; stroke: #daa520"/>
     <use xlink:href="#m124f6d7512" x="368.540519" y="143.769543" style="fill: #daa520; stroke: #daa520"/>
     <use xlink:href="#m124f6d7512" x="374.461996" y="153.062357" style="fill: #daa520; stroke: #daa520"/>
     <use xlink:href="#m124f6d7512" x="95.414933" y="99.781243" style="fill: #daa520; stroke: #daa520"/>
     <use xlink:href="#m124f6d7512" x="77.79961" y="139.221599" style="fill: #daa520; stroke: #daa520"/>
     <use xlink:href="#m124f6d7512" x="310.253248" y="151.457809" style="fill: #daa520; stroke: #daa520"/>
     <use xlink:href="#m124f6d7512" x="109.24974" y="150.218288" style="fill: #daa520; stroke: #daa520"/>
     <use xlink:href="#m124f6d7512" x="173.720766" y="146.044975" style="fill: #daa520; stroke: #daa520"/>
     <use xlink:href="#m124f6d7512" x="303.804764" y="141.792919" style="fill: #daa520; stroke: #daa520"/>
     <use xlink:href="#m124f6d7512" x="393.837712" y="135.780141" style="fill: #daa520; stroke: #daa520"/>
     <use xlink:href="#m124f6d7512" x="396.939106" y="154.062087" style="fill: #daa520; stroke: #daa520"/>
     <use xlink:href="#m124f6d7512" x="186.536177" y="140.958" style="fill: #daa520; stroke: #daa520"/>
     <use xlink:href="#m124f6d7512" x="364.897958" y="148.103779" style="fill: #daa520; stroke: #daa520"/>
     <use xlink:href="#m124f6d7512" x="390.882207" y="125.937838" style="fill: #daa520; stroke: #daa520"/>
     <use xlink:href="#m124f6d7512" x="414.946627" y="146.015821" style="fill: #daa520; stroke: #daa520"/>
     <use xlink:href="#m124f6d7512" x="171.249729" y="125.149445" style="fill: #daa520; stroke: #daa520"/>
     <use xlink:href="#m124f6d7512" x="408.404563" y="152.735975" style="fill: #daa520; stroke: #daa520"/>
     <use xlink:href="#m124f6d7512" x="400.236387" y="134.770922" style="fill: #daa520; stroke: #daa520"/>
     <use xlink:href="#m124f6d7512" x="337.055977" y="157.571025" style="fill: #daa520; stroke: #daa520"/>
     <use xlink:href="#m124f6d7512" x="357.083393" y="155.059904" style="fill: #daa520; stroke: #daa520"/>
     <use xlink:href="#m124f6d7512" x="334.493748" y="154.519562" style="fill: #daa520; stroke: #daa520"/>
     <use xlink:href="#m124f6d7512" x="319.941688" y="160.105683" style="fill: #daa520; stroke: #daa520"/>
     <use xlink:href="#m124f6d7512" x="286.012521" y="136.432758" style="fill: #daa520; stroke: #daa520"/>
     <use xlink:href="#m124f6d7512" x="73.362975" y="104.283707" style="fill: #daa520; stroke: #daa520"/>
     <use xlink:href="#m124f6d7512" x="264.61641" y="118.488724" style="fill: #daa520; stroke: #daa520"/>
     <use xlink:href="#m124f6d7512" x="370.586773" y="148.430418" style="fill: #daa520; stroke: #daa520"/>
     <use xlink:href="#m124f6d7512" x="414.782432" y="126.660266" style="fill: #daa520; stroke: #daa520"/>
     <use xlink:href="#m124f6d7512" x="385.917476" y="136.665664" style="fill: #daa520; stroke: #daa520"/>
     <use xlink:href="#m124f6d7512" x="315.577676" y="159.34805" style="fill: #daa520; stroke: #daa520"/>
     <use xlink:href="#m124f6d7512" x="228.762377" y="149.382752" style="fill: #daa520; stroke: #daa520"/>
    </g>
   </g>
   <g id="matplotlib.axis_3"/>
   <g id="matplotlib.axis_4">
    <g id="ytick_1">
     <g id="line2d_3">
      <defs>
       <path id="m9662cb7072" d="M 0 0 
L -3.5 0 
" style="stroke: #696969; stroke-width: 0.8"/>
      </defs>
      <g>
       <use xlink:href="#m9662cb7072" x="37.7875" y="160.088562" style="fill: #696969; stroke: #696969; stroke-width: 0.8"/>
      </g>
     </g>
     <g id="text_1">
      <!-- −5 -->
      <g style="fill: #696969" transform="translate(7.2 166.167312) scale(0.16 -0.16)">
       <defs>
        <path id="DejaVuSans-2212" d="M 678 2272 
L 4684 2272 
L 4684 1741 
L 678 1741 
L 678 2272 
z
" transform="scale(0.015625)"/>
        <path id="DejaVuSans-35" d="M 691 4666 
L 3169 4666 
L 3169 4134 
L 1269 4134 
L 1269 2991 
Q 1406 3038 1543 3061 
Q 1681 3084 1819 3084 
Q 2600 3084 3056 2656 
Q 3513 2228 3513 1497 
Q 3513 744 3044 326 
Q 2575 -91 1722 -91 
Q 1428 -91 1123 -41 
Q 819 9 494 109 
L 494 744 
Q 775 591 1075 516 
Q 1375 441 1709 441 
Q 2250 441 2565 725 
Q 2881 1009 2881 1497 
Q 2881 1984 2565 2268 
Q 2250 2553 1709 2553 
Q 1456 2553 1204 2497 
Q 953 2441 691 2322 
L 691 4666 
z
" transform="scale(0.015625)"/>
       </defs>
       <use xlink:href="#DejaVuSans-2212"/>
       <use xlink:href="#DejaVuSans-35" x="83.789062"/>
      </g>
     </g>
    </g>
    <g id="ytick_2">
     <g id="line2d_4">
      <g>
       <use xlink:href="#m9662cb7072" x="37.7875" y="128.854684" style="fill: #696969; stroke: #696969; stroke-width: 0.8"/>
      </g>
     </g>
     <g id="text_2">
      <!-- 0 -->
      <g style="fill: #696969" transform="translate(20.6075 134.933434) scale(0.16 -0.16)">
       <defs>
        <path id="DejaVuSans-30" d="M 2034 4250 
Q 1547 4250 1301 3770 
Q 1056 3291 1056 2328 
Q 1056 1369 1301 889 
Q 1547 409 2034 409 
Q 2525 409 2770 889 
Q 3016 1369 3016 2328 
Q 3016 3291 2770 3770 
Q 2525 4250 2034 4250 
z
M 2034 4750 
Q 2819 4750 3233 4129 
Q 3647 3509 3647 2328 
Q 3647 1150 3233 529 
Q 2819 -91 2034 -91 
Q 1250 -91 836 529 
Q 422 1150 422 2328 
Q 422 3509 836 4129 
Q 1250 4750 2034 4750 
z
" transform="scale(0.015625)"/>
       </defs>
       <use xlink:href="#DejaVuSans-30"/>
      </g>
     </g>
    </g>
    <g id="ytick_3">
     <g id="line2d_5">
      <g>
       <use xlink:href="#m9662cb7072" x="37.7875" y="97.620807" style="fill: #696969; stroke: #696969; stroke-width: 0.8"/>
      </g>
     </g>
     <g id="text_3">
      <!-- 5 -->
      <g style="fill: #696969" transform="translate(20.6075 103.699557) scale(0.16 -0.16)">
       <use xlink:href="#DejaVuSans-35"/>
      </g>
     </g>
    </g>
   </g>
   <g id="line2d_6">
    <path d="M 55.888409 104.650344 
L 63.128773 105.652082 
L 70.369136 107.272992 
L 77.6095 109.481093 
L 84.849864 112.093662 
L 92.090227 114.843951 
L 99.330591 117.459246 
L 106.570955 119.719708 
L 113.811318 121.493959 
L 121.051682 122.760916 
L 128.292045 123.620407 
L 135.532409 124.28112 
L 142.772773 125.012104 
L 150.013136 126.059634 
L 157.2535 127.555471 
L 164.493864 129.457282 
L 171.734227 131.554929 
L 178.974591 133.548004 
L 186.214955 135.164095 
L 193.455318 136.26359 
L 200.695682 136.880575 
L 207.936045 137.18141 
L 215.176409 137.365893 
L 222.416773 137.565139 
L 229.657136 137.787598 
L 236.8975 137.933895 
L 244.137864 137.864481 
L 251.378227 137.484442 
L 258.618591 136.812949 
L 265.858955 136.018206 
L 273.099318 135.407348 
L 280.339682 135.363778 
L 287.580045 136.234101 
L 294.820409 138.19145 
L 302.060773 141.129158 
L 309.301136 144.643373 
L 316.5415 148.13014 
L 323.781864 150.966156 
L 331.022227 152.698869 
L 338.262591 153.168949 
L 345.502955 152.5249 
L 352.743318 151.138632 
L 359.983682 149.464693 
L 367.224045 147.895798 
L 374.464409 146.660097 
L 381.704773 145.789841 
L 388.945136 145.168536 
L 396.1855 144.635288 
L 403.425864 144.099218 
L 410.666227 143.608663 
L 417.906591 143.338435 
" clip-path="url(#pc6d722506c)" style="fill: none; stroke: #000000; stroke-width: 2; stroke-linecap: square"/>
   </g>
   <g id="line2d_7">
    <path d="M 55.888409 88.954325 
L 63.128773 100.598697 
L 70.369136 109.753126 
L 77.6095 116.871309 
L 84.849864 122.339638 
L 92.090227 126.485009 
L 99.330591 129.582003 
L 106.570955 131.859466 
L 113.811318 133.506503 
L 121.051682 134.677929 
L 128.292045 135.499187 
L 135.532409 136.070773 
L 142.772773 136.472177 
L 150.013136 136.765383 
L 157.2535 136.997946 
L 164.493864 137.205667 
L 171.734227 137.414901 
L 178.974591 137.644522 
L 186.214955 137.907565 
L 193.455318 138.212576 
L 200.695682 138.564696 
L 207.936045 138.9665 
L 215.176409 139.418629 
L 222.416773 139.92022 
L 229.657136 140.469182 
L 236.8975 141.062334 
L 244.137864 141.695422 
L 251.378227 142.363059 
L 258.618591 143.058604 
L 265.858955 143.774003 
L 273.099318 144.49962 
L 280.339682 145.224096 
L 287.580045 145.934236 
L 294.820409 146.61498 
L 302.060773 147.249461 
L 309.301136 147.819183 
L 316.5415 148.304351 
L 323.781864 148.684373 
L 331.022227 148.938556 
L 338.262591 149.047032 
L 345.502955 148.991934 
L 352.743318 148.758842 
L 359.983682 148.338542 
L 367.224045 147.729102 
L 374.464409 146.938312 
L 381.704773 145.986498 
L 388.945136 144.909741 
L 396.1855 143.763533 
L 403.425864 142.626887 
L 410.666227 141.60693 
L 417.906591 140.844009 
" clip-path="url(#pc6d722506c)" style="fill: none; stroke-dasharray: 7.4,3.2; stroke-dashoffset: 0; stroke: #34b6c6; stroke-width: 2"/>
   </g>
   <g id="line2d_8">
    <path d="M 55.888409 79.068051 
L 63.128773 97.457863 
L 70.369136 109.973169 
L 77.6095 118.431032 
L 84.849864 124.340612 
L 92.090227 128.881347 
L 99.330591 132.415977 
L 106.570955 134.279304 
L 113.811318 134.287723 
L 121.051682 133.180576 
L 128.292045 131.737755 
L 135.532409 130.493988 
L 142.772773 129.833378 
L 150.013136 130.068278 
L 157.2535 131.385535 
L 164.493864 133.651804 
L 171.734227 136.307386 
L 178.974591 138.663418 
L 186.214955 140.355774 
L 193.455318 141.405753 
L 200.695682 141.981842 
L 207.936045 142.231612 
L 215.176409 142.246655 
L 222.416773 142.079488 
L 229.657136 141.764169 
L 236.8975 141.329295 
L 244.137864 140.804276 
L 251.378227 140.221512 
L 258.618591 139.616603 
L 265.858955 139.028496 
L 273.099318 138.502654 
L 280.339682 138.106269 
L 287.580045 137.987462 
L 294.820409 138.589171 
L 302.060773 141.21154 
L 309.301136 147.204576 
L 316.5415 152.439994 
L 323.781864 154.365294 
L 331.022227 154.846428 
L 338.262591 154.79778 
L 345.502955 154.280329 
L 352.743318 152.855031 
L 359.983682 150.048743 
L 367.224045 146.869936 
L 374.464409 144.623398 
L 381.704773 143.14446 
L 388.945136 142.091385 
L 396.1855 141.475595 
L 403.425864 141.558208 
L 410.666227 142.780728 
L 417.906591 145.758346 
" clip-path="url(#pc6d722506c)" style="fill: none; stroke-dasharray: 7.4,3.2; stroke-dashoffset: 0; stroke: #9370db; stroke-width: 2"/>
   </g>
   <g id="line2d_9">
    <path d="M 55.888409 104.568691 
L 63.128773 105.309817 
L 70.369136 106.506341 
L 77.6095 108.273027 
L 84.849864 110.727985 
L 92.090227 113.944946 
L 99.330591 117.557341 
L 106.570955 120.572914 
L 113.811318 122.488708 
L 121.051682 123.60268 
L 128.292045 124.329055 
L 135.532409 124.965833 
L 142.772773 125.751145 
L 150.013136 126.909651 
L 157.2535 128.6007 
L 164.493864 130.761842 
L 171.734227 133.020678 
L 178.974591 134.912401 
L 186.214955 136.216878 
L 193.455318 137.000373 
L 200.695682 137.432913 
L 207.936045 137.659564 
L 215.176409 137.772965 
L 222.416773 137.825837 
L 229.657136 137.846995 
L 236.8975 137.852165 
L 244.137864 137.850202 
L 251.378227 137.846569 
L 258.618591 137.845577 
L 265.858955 137.8527 
L 273.099318 137.879209 
L 280.339682 137.955792 
L 287.580045 138.17916 
L 294.820409 138.875028 
L 302.060773 141.023545 
L 309.301136 145.651041 
L 316.5415 149.660295 
L 323.781864 151.150641 
L 331.022227 151.560614 
L 338.262591 151.614946 
L 345.502955 151.395039 
L 352.743318 150.600768 
L 359.983682 148.895884 
L 367.224045 147.043836 
L 374.464409 146.004775 
L 381.704773 145.593077 
L 388.945136 145.439855 
L 396.1855 145.378755 
L 403.425864 145.351812 
L 410.666227 145.338995 
L 417.906591 145.332831 
" clip-path="url(#pc6d722506c)" style="fill: none; stroke-dasharray: 12.8,3.2,2,3.2; stroke-dashoffset: 0; stroke: #ff0000; stroke-width: 2"/>
   </g>
   <g id="patch_4">
    <path d="M 37.7875 164.249401 
L 37.7875 75.011796 
" style="fill: none; stroke: #000000; stroke-width: 0.8; stroke-linejoin: miter; stroke-linecap: square"/>
   </g>
   <g id="patch_5">
    <path d="M 436.0075 164.249401 
L 436.0075 75.011796 
" style="fill: none; stroke: #000000; stroke-width: 0.8; stroke-linejoin: miter; stroke-linecap: square"/>
   </g>
   <g id="patch_6">
    <path d="M 37.7875 164.249401 
L 436.0075 164.249401 
" style="fill: none; stroke: #000000; stroke-width: 0.8; stroke-linejoin: miter; stroke-linecap: square"/>
   </g>
   <g id="patch_7">
    <path d="M 37.7875 75.011796 
L 436.0075 75.011796 
" style="fill: none; stroke: #000000; stroke-width: 0.8; stroke-linejoin: miter; stroke-linecap: square"/>
   </g>
  </g>
  <g id="axes_3">
   <g id="patch_8">
    <path d="M 37.7875 276.68 
L 436.0075 276.68 
L 436.0075 187.442395 
L 37.7875 187.442395 
z
" style="fill: #ffffff"/>
   </g>
   <g id="PathCollection_2">
    <g clip-path="url(#p5c020075b8)">
     <use xlink:href="#m124f6d7512" x="137.573408" y="223.209357" style="fill: #daa520; stroke: #daa520"/>
     <use xlink:href="#m124f6d7512" x="336.128403" y="229.612478" style="fill: #daa520; stroke: #daa520"/>
     <use xlink:href="#m124f6d7512" x="315.695945" y="243.377723" style="fill: #daa520; stroke: #daa520"/>
     <use xlink:href="#m124f6d7512" x="195.715617" y="214.886517" style="fill: #daa520; stroke: #daa520"/>
     <use xlink:href="#m124f6d7512" x="372.295553" y="223.379211" style="fill: #daa520; stroke: #daa520"/>
     <use xlink:href="#m124f6d7512" x="392.218653" y="227.57359" style="fill: #daa520; stroke: #daa520"/>
     <use xlink:href="#m124f6d7512" x="189.123067" y="225.924368" style="fill: #daa520; stroke: #daa520"/>
     <use xlink:href="#m124f6d7512" x="215.178883" y="219.227031" style="fill: #daa520; stroke: #daa520"/>
     <use xlink:href="#m124f6d7512" x="274.962429" y="212.030356" style="fill: #daa520; stroke: #daa520"/>
     <use xlink:href="#m124f6d7512" x="78.716806" y="192.048506" style="fill: #daa520; stroke: #daa520"/>
     <use xlink:href="#m124f6d7512" x="393.306919" y="229.467682" style="fill: #daa520; stroke: #daa520"/>
     <use xlink:href="#m124f6d7512" x="154.821515" y="255.744865" style="fill: #daa520; stroke: #daa520"/>
     <use xlink:href="#m124f6d7512" x="388.735077" y="241.971498" style="fill: #daa520; stroke: #daa520"/>
     <use xlink:href="#m124f6d7512" x="410.3453" y="217.872626" style="fill: #daa520; stroke: #daa520"/>
     <use xlink:href="#m124f6d7512" x="205.697565" y="222.363867" style="fill: #daa520; stroke: #daa520"/>
     <use xlink:href="#m124f6d7512" x="124.603352" y="201.101801" style="fill: #daa520; stroke: #daa520"/>
     <use xlink:href="#m124f6d7512" x="409.124919" y="226.587014" style="fill: #daa520; stroke: #daa520"/>
     <use xlink:href="#m124f6d7512" x="109.538879" y="224.559659" style="fill: #daa520; stroke: #daa520"/>
     <use xlink:href="#m124f6d7512" x="208.820796" y="242.429791" style="fill: #daa520; stroke: #daa520"/>
     <use xlink:href="#m124f6d7512" x="366.802426" y="225.647672" style="fill: #daa520; stroke: #daa520"/>
     <use xlink:href="#m124f6d7512" x="389.101925" y="219.265047" style="fill: #daa520; stroke: #daa520"/>
     <use xlink:href="#m124f6d7512" x="351.607805" y="249.128098" style="fill: #daa520; stroke: #daa520"/>
     <use xlink:href="#m124f6d7512" x="411.185023" y="216.73402" style="fill: #daa520; stroke: #daa520"/>
     <use xlink:href="#m124f6d7512" x="104.416271" y="193.168255" style="fill: #daa520; stroke: #daa520"/>
     <use xlink:href="#m124f6d7512" x="386.905644" y="247.310092" style="fill: #daa520; stroke: #daa520"/>
     <use xlink:href="#m124f6d7512" x="298.464364" y="236.748696" style="fill: #daa520; stroke: #daa520"/>
     <use xlink:href="#m124f6d7512" x="413.682541" y="216.774404" style="fill: #daa520; stroke: #daa520"/>
     <use xlink:href="#m124f6d7512" x="79.049141" y="261.815025" style="fill: #daa520; stroke: #daa520"/>
     <use xlink:href="#m124f6d7512" x="308.393953" y="217.919176" style="fill: #daa520; stroke: #daa520"/>
     <use xlink:href="#m124f6d7512" x="414.174537" y="224.893188" style="fill: #daa520; stroke: #daa520"/>
     <use xlink:href="#m124f6d7512" x="335.042717" y="223.080804" style="fill: #daa520; stroke: #daa520"/>
     <use xlink:href="#m124f6d7512" x="76.068627" y="219.787133" style="fill: #daa520; stroke: #daa520"/>
     <use xlink:href="#m124f6d7512" x="148.560187" y="215.341401" style="fill: #daa520; stroke: #daa520"/>
     <use xlink:href="#m124f6d7512" x="352.878809" y="224.131088" style="fill: #daa520; stroke: #daa520"/>
     <use xlink:href="#m124f6d7512" x="292.777686" y="237.00883" style="fill: #daa520; stroke: #daa520"/>
     <use xlink:href="#m124f6d7512" x="189.223355" y="219.83338" style="fill: #daa520; stroke: #daa520"/>
     <use xlink:href="#m124f6d7512" x="401.199651" y="247.577096" style="fill: #daa520; stroke: #daa520"/>
     <use xlink:href="#m124f6d7512" x="329.657186" y="226.965558" style="fill: #daa520; stroke: #daa520"/>
     <use xlink:href="#m124f6d7512" x="348.08645" y="237.397997" style="fill: #daa520; stroke: #daa520"/>
     <use xlink:href="#m124f6d7512" x="362.923244" y="231.267822" style="fill: #daa520; stroke: #daa520"/>
     <use xlink:href="#m124f6d7512" x="284.470221" y="229.107587" style="fill: #daa520; stroke: #daa520"/>
     <use xlink:href="#m124f6d7512" x="128.59653" y="210.651863" style="fill: #daa520; stroke: #daa520"/>
     <use xlink:href="#m124f6d7512" x="99.690683" y="191.718527" style="fill: #daa520; stroke: #daa520"/>
     <use xlink:href="#m124f6d7512" x="359.85005" y="227.519111" style="fill: #daa520; stroke: #daa520"/>
     <use xlink:href="#m124f6d7512" x="326.838889" y="220.212982" style="fill: #daa520; stroke: #daa520"/>
     <use xlink:href="#m124f6d7512" x="371.908111" y="223.234854" style="fill: #daa520; stroke: #daa520"/>
     <use xlink:href="#m124f6d7512" x="414.320326" y="254.170979" style="fill: #daa520; stroke: #daa520"/>
     <use xlink:href="#m124f6d7512" x="270.189262" y="227.595602" style="fill: #daa520; stroke: #daa520"/>
     <use xlink:href="#m124f6d7512" x="323.988205" y="238.453494" style="fill: #daa520; stroke: #daa520"/>
     <use xlink:href="#m124f6d7512" x="403.231334" y="256.664407" style="fill: #daa520; stroke: #daa520"/>
     <use xlink:href="#m124f6d7512" x="343.139027" y="226.40238" style="fill: #daa520; stroke: #daa520"/>
     <use xlink:href="#m124f6d7512" x="115.579162" y="272.623745" style="fill: #daa520; stroke: #daa520"/>
     <use xlink:href="#m124f6d7512" x="299.045196" y="238.200014" style="fill: #daa520; stroke: #daa520"/>
     <use xlink:href="#m124f6d7512" x="57.964521" y="257.08287" style="fill: #daa520; stroke: #daa520"/>
     <use xlink:href="#m124f6d7512" x="394.518819" y="238.35467" style="fill: #daa520; stroke: #daa520"/>
     <use xlink:href="#m124f6d7512" x="85.31478" y="191.49865" style="fill: #daa520; stroke: #daa520"/>
     <use xlink:href="#m124f6d7512" x="399.277597" y="248.181317" style="fill: #daa520; stroke: #daa520"/>
     <use xlink:href="#m124f6d7512" x="353.42673" y="237.512914" style="fill: #daa520; stroke: #daa520"/>
     <use xlink:href="#m124f6d7512" x="403.862739" y="238.539976" style="fill: #daa520; stroke: #daa520"/>
     <use xlink:href="#m124f6d7512" x="382.959757" y="228.665678" style="fill: #daa520; stroke: #daa520"/>
     <use xlink:href="#m124f6d7512" x="402.233465" y="248.298572" style="fill: #daa520; stroke: #daa520"/>
     <use xlink:href="#m124f6d7512" x="368.891792" y="220.196979" style="fill: #daa520; stroke: #daa520"/>
     <use xlink:href="#m124f6d7512" x="400.507581" y="228.466868" style="fill: #daa520; stroke: #daa520"/>
     <use xlink:href="#m124f6d7512" x="201.209039" y="222.187785" style="fill: #daa520; stroke: #daa520"/>
     <use xlink:href="#m124f6d7512" x="368.540519" y="234.98323" style="fill: #daa520; stroke: #daa520"/>
     <use xlink:href="#m124f6d7512" x="374.461996" y="222.391958" style="fill: #daa520; stroke: #daa520"/>
     <use xlink:href="#m124f6d7512" x="95.414933" y="250.987835" style="fill: #daa520; stroke: #daa520"/>
     <use xlink:href="#m124f6d7512" x="77.79961" y="192.60678" style="fill: #daa520; stroke: #daa520"/>
     <use xlink:href="#m124f6d7512" x="310.253248" y="224.790837" style="fill: #daa520; stroke: #daa520"/>
     <use xlink:href="#m124f6d7512" x="109.24974" y="195.204442" style="fill: #daa520; stroke: #daa520"/>
     <use xlink:href="#m124f6d7512" x="173.720766" y="215.649543" style="fill: #daa520; stroke: #daa520"/>
     <use xlink:href="#m124f6d7512" x="303.804764" y="231.385749" style="fill: #daa520; stroke: #daa520"/>
     <use xlink:href="#m124f6d7512" x="393.837712" y="243.223031" style="fill: #daa520; stroke: #daa520"/>
     <use xlink:href="#m124f6d7512" x="396.939106" y="220.355332" style="fill: #daa520; stroke: #daa520"/>
     <use xlink:href="#m124f6d7512" x="186.536177" y="225.342081" style="fill: #daa520; stroke: #daa520"/>
     <use xlink:href="#m124f6d7512" x="364.897958" y="230.544023" style="fill: #daa520; stroke: #daa520"/>
     <use xlink:href="#m124f6d7512" x="390.882207" y="255.552824" style="fill: #daa520; stroke: #daa520"/>
     <use xlink:href="#m124f6d7512" x="414.946627" y="230.359735" style="fill: #daa520; stroke: #daa520"/>
     <use xlink:href="#m124f6d7512" x="171.249729" y="240.866434" style="fill: #daa520; stroke: #daa520"/>
     <use xlink:href="#m124f6d7512" x="408.404563" y="221.971412" style="fill: #daa520; stroke: #daa520"/>
     <use xlink:href="#m124f6d7512" x="400.236387" y="244.444164" style="fill: #daa520; stroke: #daa520"/>
     <use xlink:href="#m124f6d7512" x="337.055977" y="223.777123" style="fill: #daa520; stroke: #daa520"/>
     <use xlink:href="#m124f6d7512" x="357.083393" y="224.479186" style="fill: #daa520; stroke: #daa520"/>
     <use xlink:href="#m124f6d7512" x="334.493748" y="227.582972" style="fill: #daa520; stroke: #daa520"/>
     <use xlink:href="#m124f6d7512" x="319.941688" y="219.313714" style="fill: #daa520; stroke: #daa520"/>
     <use xlink:href="#m124f6d7512" x="286.012521" y="233.304182" style="fill: #daa520; stroke: #daa520"/>
     <use xlink:href="#m124f6d7512" x="73.362975" y="234.806391" style="fill: #daa520; stroke: #daa520"/>
     <use xlink:href="#m124f6d7512" x="264.61641" y="255.404933" style="fill: #daa520; stroke: #daa520"/>
     <use xlink:href="#m124f6d7512" x="370.586773" y="228.741155" style="fill: #daa520; stroke: #daa520"/>
     <use xlink:href="#m124f6d7512" x="414.782432" y="254.546276" style="fill: #daa520; stroke: #daa520"/>
     <use xlink:href="#m124f6d7512" x="385.917476" y="242.233499" style="fill: #daa520; stroke: #daa520"/>
     <use xlink:href="#m124f6d7512" x="315.577676" y="218.648915" style="fill: #daa520; stroke: #daa520"/>
     <use xlink:href="#m124f6d7512" x="228.762377" y="216.793942" style="fill: #daa520; stroke: #daa520"/>
    </g>
   </g>
   <g id="matplotlib.axis_5">
    <g id="xtick_1">
     <g id="line2d_10">
      <defs>
       <path id="mf6b854c2a2" d="M 0 0 
L 0 3.5 
" style="stroke: #696969; stroke-width: 0.8"/>
      </defs>
      <g>
       <use xlink:href="#mf6b854c2a2" x="55.888409" y="276.68" style="fill: #696969; stroke: #696969; stroke-width: 0.8"/>
      </g>
     </g>
     <g id="text_4">
      <!-- −1.0 -->
      <g style="fill: #696969" transform="translate(36.462159 295.8375) scale(0.16 -0.16)">
       <defs>
        <path id="DejaVuSans-31" d="M 794 531 
L 1825 531 
L 1825 4091 
L 703 3866 
L 703 4441 
L 1819 4666 
L 2450 4666 
L 2450 531 
L 3481 531 
L 3481 0 
L 794 0 
L 794 531 
z
" transform="scale(0.015625)"/>
        <path id="DejaVuSans-2e" d="M 684 794 
L 1344 794 
L 1344 0 
L 684 0 
L 684 794 
z
" transform="scale(0.015625)"/>
       </defs>
       <use xlink:href="#DejaVuSans-2212"/>
       <use xlink:href="#DejaVuSans-31" x="83.789062"/>
       <use xlink:href="#DejaVuSans-2e" x="147.412109"/>
       <use xlink:href="#DejaVuSans-30" x="179.199219"/>
      </g>
     </g>
    </g>
    <g id="xtick_2">
     <g id="line2d_11">
      <g>
       <use xlink:href="#mf6b854c2a2" x="146.392955" y="276.68" style="fill: #696969; stroke: #696969; stroke-width: 0.8"/>
      </g>
     </g>
     <g id="text_5">
      <!-- −0.5 -->
      <g style="fill: #696969" transform="translate(126.966705 295.8375) scale(0.16 -0.16)">
       <use xlink:href="#DejaVuSans-2212"/>
       <use xlink:href="#DejaVuSans-30" x="83.789062"/>
       <use xlink:href="#DejaVuSans-2e" x="147.412109"/>
       <use xlink:href="#DejaVuSans-35" x="179.199219"/>
      </g>
     </g>
    </g>
    <g id="xtick_3">
     <g id="line2d_12">
      <g>
       <use xlink:href="#mf6b854c2a2" x="236.8975" y="276.68" style="fill: #696969; stroke: #696969; stroke-width: 0.8"/>
      </g>
     </g>
     <g id="text_6">
      <!-- 0.0 -->
      <g style="fill: #696969" transform="translate(224.175 295.8375) scale(0.16 -0.16)">
       <use xlink:href="#DejaVuSans-30"/>
       <use xlink:href="#DejaVuSans-2e" x="63.623047"/>
       <use xlink:href="#DejaVuSans-30" x="95.410156"/>
      </g>
     </g>
    </g>
    <g id="xtick_4">
     <g id="line2d_13">
      <g>
       <use xlink:href="#mf6b854c2a2" x="327.402045" y="276.68" style="fill: #696969; stroke: #696969; stroke-width: 0.8"/>
      </g>
     </g>
     <g id="text_7">
      <!-- 0.5 -->
      <g style="fill: #696969" transform="translate(314.679545 295.8375) scale(0.16 -0.16)">
       <use xlink:href="#DejaVuSans-30"/>
       <use xlink:href="#DejaVuSans-2e" x="63.623047"/>
       <use xlink:href="#DejaVuSans-35" x="95.410156"/>
      </g>
     </g>
    </g>
    <g id="xtick_5">
     <g id="line2d_14">
      <g>
       <use xlink:href="#mf6b854c2a2" x="417.906591" y="276.68" style="fill: #696969; stroke: #696969; stroke-width: 0.8"/>
      </g>
     </g>
     <g id="text_8">
      <!-- 1.0 -->
      <g style="fill: #696969" transform="translate(405.184091 295.8375) scale(0.16 -0.16)">
       <use xlink:href="#DejaVuSans-31"/>
       <use xlink:href="#DejaVuSans-2e" x="63.623047"/>
       <use xlink:href="#DejaVuSans-30" x="95.410156"/>
      </g>
     </g>
    </g>
    <g id="text_9">
     <!-- $X$ -->
     <g transform="translate(231.3775 315.3225) scale(0.16 -0.16)">
      <defs>
       <path id="DejaVuSans-Oblique-58" d="M 878 4666 
L 1516 4666 
L 2316 2981 
L 3763 4666 
L 4500 4666 
L 2578 2438 
L 3738 0 
L 3103 0 
L 2163 1966 
L 459 0 
L -275 0 
L 1906 2509 
L 878 4666 
z
" transform="scale(0.015625)"/>
      </defs>
      <use xlink:href="#DejaVuSans-Oblique-58" transform="translate(0 0.09375)"/>
     </g>
    </g>
   </g>
   <g id="matplotlib.axis_6">
    <g id="ytick_4">
     <g id="line2d_15">
      <g>
       <use xlink:href="#m9662cb7072" x="37.7875" y="270.24006" style="fill: #696969; stroke: #696969; stroke-width: 0.8"/>
      </g>
     </g>
     <g id="text_10">
      <!-- −5 -->
      <g style="fill: #696969" transform="translate(7.2 276.31881) scale(0.16 -0.16)">
       <use xlink:href="#DejaVuSans-2212"/>
       <use xlink:href="#DejaVuSans-35" x="83.789062"/>
      </g>
     </g>
    </g>
    <g id="ytick_5">
     <g id="line2d_16">
      <g>
       <use xlink:href="#m9662cb7072" x="37.7875" y="231.210725" style="fill: #696969; stroke: #696969; stroke-width: 0.8"/>
      </g>
     </g>
     <g id="text_11">
      <!-- 0 -->
      <g style="fill: #696969" transform="translate(20.6075 237.289475) scale(0.16 -0.16)">
       <use xlink:href="#DejaVuSans-30"/>
      </g>
     </g>
    </g>
    <g id="ytick_6">
     <g id="line2d_17">
      <g>
       <use xlink:href="#m9662cb7072" x="37.7875" y="192.18139" style="fill: #696969; stroke: #696969; stroke-width: 0.8"/>
      </g>
     </g>
     <g id="text_12">
      <!-- 5 -->
      <g style="fill: #696969" transform="translate(20.6075 198.26014) scale(0.16 -0.16)">
       <use xlink:href="#DejaVuSans-35"/>
      </g>
     </g>
    </g>
   </g>
   <g id="line2d_18">
    <path d="M 55.888409 231.108693 
L 63.128773 230.783036 
L 70.369136 230.25273 
L 77.6095 229.701146 
L 84.849864 229.504199 
L 92.090227 230.087342 
L 99.330591 231.333303 
L 106.570955 232.276877 
L 113.811318 232.453747 
L 121.051682 232.26258 
L 128.292045 232.09624 
L 135.532409 232.066332 
L 142.772773 232.134218 
L 150.013136 232.272892 
L 157.2535 232.516826 
L 164.493864 232.840882 
L 171.734227 233.042301 
L 178.974591 232.915653 
L 186.214955 232.526265 
L 193.455318 232.131398 
L 200.695682 231.900918 
L 207.936045 231.808219 
L 215.176409 231.719394 
L 222.416773 231.536488 
L 229.657136 231.284946 
L 236.8975 231.108596 
L 244.137864 231.192882 
L 251.378227 231.663233 
L 258.618591 232.50108 
L 265.858955 233.503079 
L 273.099318 234.299522 
L 280.339682 234.449663 
L 287.580045 233.641238 
L 294.820409 232.064912 
L 302.060773 231.078753 
L 309.301136 232.46989 
L 316.5415 233.122781 
L 323.781864 231.441254 
L 331.022227 229.788381 
L 338.262591 229.26887 
L 345.502955 229.798869 
L 352.743318 230.53862 
L 359.983682 230.499951 
L 367.224045 230.146128 
L 374.464409 230.391846 
L 381.704773 230.964852 
L 388.945136 231.54976 
L 396.1855 232.13975 
L 403.425864 232.775946 
L 410.666227 233.372919 
L 417.906591 233.70289 
" clip-path="url(#p5c020075b8)" style="fill: none; stroke: #696969; stroke-width: 2; stroke-linecap: square"/>
   </g>
   <g id="line2d_19">
    <path d="M 55.888409 244.778638 
L 63.128773 234.746958 
L 70.369136 227.438235 
L 77.6095 222.319236 
L 84.849864 218.937814 
L 92.090227 216.913514 
L 99.330591 215.928927 
L 106.570955 215.72176 
L 113.811318 216.077601 
L 121.051682 216.823323 
L 128.292045 217.821135 
L 135.532409 218.963208 
L 142.772773 220.166879 
L 150.013136 221.370385 
L 157.2535 222.529099 
L 164.493864 223.612241 
L 171.734227 224.600029 
L 178.974591 225.481252 
L 186.214955 226.251208 
L 193.455318 226.910008 
L 200.695682 227.461196 
L 207.936045 227.910655 
L 215.176409 228.26578 
L 222.416773 228.534878 
L 229.657136 228.726762 
L 236.8975 228.85052 
L 244.137864 228.915419 
L 251.378227 228.930919 
L 258.618591 228.906758 
L 265.858955 228.853091 
L 273.099318 228.78064 
L 280.339682 228.700832 
L 287.580045 228.625892 
L 294.820409 228.568858 
L 302.060773 228.543493 
L 309.301136 228.564062 
L 316.5415 228.644939 
L 323.781864 228.800015 
L 331.022227 229.041886 
L 338.262591 229.380776 
L 345.502955 229.823173 
L 352.743318 230.370146 
L 359.983682 231.015315 
L 367.224045 231.742435 
L 374.464409 232.522577 
L 381.704773 233.31086 
L 388.945136 234.042719 
L 396.1855 234.629666 
L 403.425864 234.954519 
L 410.666227 234.866072 
L 417.906591 234.173166 
" clip-path="url(#p5c020075b8)" style="fill: none; stroke-dasharray: 7.4,3.2; stroke-dashoffset: 0; stroke: #79ad41; stroke-width: 2"/>
   </g>
   <g id="patch_9">
    <path d="M 37.7875 276.68 
L 37.7875 187.442395 
" style="fill: none; stroke: #000000; stroke-width: 0.8; stroke-linejoin: miter; stroke-linecap: square"/>
   </g>
   <g id="patch_10">
    <path d="M 436.0075 276.68 
L 436.0075 187.442395 
" style="fill: none; stroke: #000000; stroke-width: 0.8; stroke-linejoin: miter; stroke-linecap: square"/>
   </g>
   <g id="patch_11">
    <path d="M 37.7875 276.68 
L 436.0075 276.68 
" style="fill: none; stroke: #000000; stroke-width: 0.8; stroke-linejoin: miter; stroke-linecap: square"/>
   </g>
   <g id="patch_12">
    <path d="M 37.7875 187.442395 
L 436.0075 187.442395 
" style="fill: none; stroke: #000000; stroke-width: 0.8; stroke-linejoin: miter; stroke-linecap: square"/>
   </g>
  </g>
 </g>
 <defs>
  <clipPath id="p5f47764562">
   <rect x="37.7875" y="7.2" width="398.22" height="44.618802"/>
  </clipPath>
  <clipPath id="pc6d722506c">
   <rect x="37.7875" y="75.011796" width="398.22" height="89.237605"/>
  </clipPath>
  <clipPath id="p5c020075b8">
   <rect x="37.7875" y="187.442395" width="398.22" height="89.237605"/>
  </clipPath>
 </defs>
</svg>
