<?xml version="1.0" encoding="utf-8" standalone="no"?>
<!DOCTYPE svg PUBLIC "-//W3C//DTD SVG 1.1//EN"
  "http://www.w3.org/Graphics/SVG/1.1/DTD/svg11.dtd">
<svg xmlns:xlink="http://www.w3.org/1999/xlink" width="443.2075pt" height="325.85pt" viewBox="0 0 443.2075 325.85" xmlns="http://www.w3.org/2000/svg" version="1.1">
 <metadata>
  <rdf:RDF xmlns:dc="http://purl.org/dc/elements/1.1/" xmlns:cc="http://creativecommons.org/ns#" xmlns:rdf="http://www.w3.org/1999/02/22-rdf-syntax-ns#">
   <cc:Work>
    <dc:type rdf:resource="http://purl.org/dc/dcmitype/StillImage"/>
    <dc:date>2024-01-28T20:55:54.393365</dc:date>
    <dc:format>image/svg+xml</dc:format>
    <dc:creator>
     <cc:Agent>
      <dc:title>Matplotlib v3.7.2, https://matplotlib.org/</dc:title>
     </cc:Agent>
    </dc:creator>
   </cc:Work>
  </rdf:RDF>
 </metadata>
 <defs>
  <style type="text/css">*{stroke-linejoin: round; stroke-linecap: butt}</style>
 </defs>
 <g id="figure_1">
  <g id="patch_1">
   <path d="M 0 325.85 
L 443.2075 325.85 
L 443.2075 0 
L 0 0 
z
" style="fill: #ffffff"/>
  </g>
  <g id="axes_1">
   <g id="patch_2">
    <path d="M 37.7875 51.821675 
L 436.0075 51.821675 
L 436.0075 7.2 
L 37.7875 7.2 
z
" style="fill: #ffffff"/>
   </g>
   <g id="PolyCollection_1">
    <defs>
     <path id="m01aa1eee74" d="M 55.888409 -276.056583 
L 55.888409 -286.582693 
L 63.128773 -286.622134 
L 70.369136 -286.651439 
L 77.6095 -286.670049 
L 84.849864 -286.677676 
L 92.090227 -286.674374 
L 99.330591 -286.660585 
L 106.570955 -286.637183 
L 113.811318 -286.60549 
L 121.051682 -286.567308 
L 128.292045 -286.5249 
L 135.532409 -286.481003 
L 142.772773 -286.438792 
L 150.013136 -286.40187 
L 157.2535 -286.374211 
L 164.493864 -286.360166 
L 171.734227 -286.364409 
L 178.974591 -286.391941 
L 186.214955 -286.44808 
L 193.455318 -286.53847 
L 200.695682 -286.669106 
L 207.936045 -286.846355 
L 215.176409 -287.077014 
L 222.416773 -287.36832 
L 229.657136 -287.727972 
L 236.8975 -288.164112 
L 244.137864 -288.685247 
L 251.378227 -289.300067 
L 258.618591 -290.017187 
L 265.858955 -290.844671 
L 273.099318 -291.789452 
L 280.339682 -292.856509 
L 287.580045 -294.047905 
L 294.820409 -295.361721 
L 302.060773 -296.791034 
L 309.301136 -298.323082 
L 316.5415 -299.938938 
L 323.781864 -301.613765 
L 331.022227 -303.317937 
L 338.262591 -305.018886 
L 345.502955 -306.683546 
L 352.743318 -308.280947 
L 359.983682 -309.78461 
L 367.224045 -311.174244 
L 374.464409 -312.436614 
L 381.704773 -313.565485 
L 388.945136 -314.560853 
L 396.1855 -315.427701 
L 403.425864 -316.174572 
L 410.666227 -316.621742 
L 417.906591 -316.621742 
L 417.906591 -276.056583 
L 417.906591 -276.056583 
L 410.666227 -276.056583 
L 403.425864 -276.056583 
L 396.1855 -276.056583 
L 388.945136 -276.056583 
L 381.704773 -276.056583 
L 374.464409 -276.056583 
L 367.224045 -276.056583 
L 359.983682 -276.056583 
L 352.743318 -276.056583 
L 345.502955 -276.056583 
L 338.262591 -276.056583 
L 331.022227 -276.056583 
L 323.781864 -276.056583 
L 316.5415 -276.056583 
L 309.301136 -276.056583 
L 302.060773 -276.056583 
L 294.820409 -276.056583 
L 287.580045 -276.056583 
L 280.339682 -276.056583 
L 273.099318 -276.056583 
L 265.858955 -276.056583 
L 258.618591 -276.056583 
L 251.378227 -276.056583 
L 244.137864 -276.056583 
L 236.8975 -276.056583 
L 229.657136 -276.056583 
L 222.416773 -276.056583 
L 215.176409 -276.056583 
L 207.936045 -276.056583 
L 200.695682 -276.056583 
L 193.455318 -276.056583 
L 186.214955 -276.056583 
L 178.974591 -276.056583 
L 171.734227 -276.056583 
L 164.493864 -276.056583 
L 157.2535 -276.056583 
L 150.013136 -276.056583 
L 142.772773 -276.056583 
L 135.532409 -276.056583 
L 128.292045 -276.056583 
L 121.051682 -276.056583 
L 113.811318 -276.056583 
L 106.570955 -276.056583 
L 99.330591 -276.056583 
L 92.090227 -276.056583 
L 84.849864 -276.056583 
L 77.6095 -276.056583 
L 70.369136 -276.056583 
L 63.128773 -276.056583 
L 55.888409 -276.056583 
z
" style="stroke: #dc143c; stroke-opacity: 0.2"/>
    </defs>
    <g clip-path="url(#p51e1fffa2f)">
     <use xlink:href="#m01aa1eee74" x="0" y="325.85" style="fill: #dc143c; fill-opacity: 0.2; stroke: #dc143c; stroke-opacity: 0.2"/>
    </g>
   </g>
   <g id="PolyCollection_2">
    <defs>
     <path id="m5149f578bd" d="M 55.888409 -276.056583 
L 55.888409 -310.602872 
L 63.128773 -310.563431 
L 70.369136 -310.534126 
L 77.6095 -310.515516 
L 84.849864 -310.507889 
L 92.090227 -310.511191 
L 99.330591 -310.52498 
L 106.570955 -310.548382 
L 113.811318 -310.580075 
L 121.051682 -310.618257 
L 128.292045 -310.660665 
L 135.532409 -310.704562 
L 142.772773 -310.746772 
L 150.013136 -310.783694 
L 157.2535 -310.811354 
L 164.493864 -310.825399 
L 171.734227 -310.821156 
L 178.974591 -310.793624 
L 186.214955 -310.737484 
L 193.455318 -310.647094 
L 200.695682 -310.516459 
L 207.936045 -310.339209 
L 215.176409 -310.108551 
L 222.416773 -309.817245 
L 229.657136 -309.457593 
L 236.8975 -309.021453 
L 244.137864 -308.500318 
L 251.378227 -307.885497 
L 258.618591 -307.168378 
L 265.858955 -306.340894 
L 273.099318 -305.396112 
L 280.339682 -304.329055 
L 287.580045 -303.13766 
L 294.820409 -301.823844 
L 302.060773 -300.394531 
L 309.301136 -298.862482 
L 316.5415 -297.246627 
L 323.781864 -295.571799 
L 331.022227 -293.867628 
L 338.262591 -292.166678 
L 345.502955 -290.502018 
L 352.743318 -288.904618 
L 359.983682 -287.400955 
L 367.224045 -286.01132 
L 374.464409 -284.748951 
L 381.704773 -283.62008 
L 388.945136 -282.624712 
L 396.1855 -281.757864 
L 403.425864 -281.010993 
L 410.666227 -280.563823 
L 417.906591 -280.563823 
L 417.906591 -276.056583 
L 417.906591 -276.056583 
L 410.666227 -276.056583 
L 403.425864 -276.056583 
L 396.1855 -276.056583 
L 388.945136 -276.056583 
L 381.704773 -276.056583 
L 374.464409 -276.056583 
L 367.224045 -276.056583 
L 359.983682 -276.056583 
L 352.743318 -276.056583 
L 345.502955 -276.056583 
L 338.262591 -276.056583 
L 331.022227 -276.056583 
L 323.781864 -276.056583 
L 316.5415 -276.056583 
L 309.301136 -276.056583 
L 302.060773 -276.056583 
L 294.820409 -276.056583 
L 287.580045 -276.056583 
L 280.339682 -276.056583 
L 273.099318 -276.056583 
L 265.858955 -276.056583 
L 258.618591 -276.056583 
L 251.378227 -276.056583 
L 244.137864 -276.056583 
L 236.8975 -276.056583 
L 229.657136 -276.056583 
L 222.416773 -276.056583 
L 215.176409 -276.056583 
L 207.936045 -276.056583 
L 200.695682 -276.056583 
L 193.455318 -276.056583 
L 186.214955 -276.056583 
L 178.974591 -276.056583 
L 171.734227 -276.056583 
L 164.493864 -276.056583 
L 157.2535 -276.056583 
L 150.013136 -276.056583 
L 142.772773 -276.056583 
L 135.532409 -276.056583 
L 128.292045 -276.056583 
L 121.051682 -276.056583 
L 113.811318 -276.056583 
L 106.570955 -276.056583 
L 99.330591 -276.056583 
L 92.090227 -276.056583 
L 84.849864 -276.056583 
L 77.6095 -276.056583 
L 70.369136 -276.056583 
L 63.128773 -276.056583 
L 55.888409 -276.056583 
z
" style="stroke: #000080; stroke-opacity: 0.2"/>
    </defs>
    <g clip-path="url(#p51e1fffa2f)">
     <use xlink:href="#m5149f578bd" x="0" y="325.85" style="fill: #000080; fill-opacity: 0.2; stroke: #000080; stroke-opacity: 0.2"/>
    </g>
   </g>
   <g id="matplotlib.axis_1"/>
   <g id="matplotlib.axis_2"/>
   <g id="line2d_1">
    <path d="M 55.888409 39.267307 
L 63.128773 39.227866 
L 70.369136 39.198561 
L 77.6095 39.179951 
L 84.849864 39.172324 
L 92.090227 39.175626 
L 99.330591 39.189415 
L 106.570955 39.212817 
L 113.811318 39.24451 
L 121.051682 39.282692 
L 128.292045 39.3251 
L 135.532409 39.368997 
L 142.772773 39.411208 
L 150.013136 39.44813 
L 157.2535 39.475789 
L 164.493864 39.489834 
L 171.734227 39.485591 
L 178.974591 39.458059 
L 186.214955 39.40192 
L 193.455318 39.31153 
L 200.695682 39.180894 
L 207.936045 39.003645 
L 215.176409 38.772986 
L 222.416773 38.48168 
L 229.657136 38.122028 
L 236.8975 37.685888 
L 244.137864 37.164753 
L 251.378227 36.549933 
L 258.618591 35.832813 
L 265.858955 35.005329 
L 273.099318 34.060548 
L 280.339682 32.993491 
L 287.580045 31.802095 
L 294.820409 30.488279 
L 302.060773 29.058966 
L 309.301136 27.526918 
L 316.5415 25.911062 
L 323.781864 24.236235 
L 331.022227 22.532063 
L 338.262591 20.831114 
L 345.502955 19.166454 
L 352.743318 17.569053 
L 359.983682 16.06539 
L 367.224045 14.675756 
L 374.464409 13.413386 
L 381.704773 12.284515 
L 388.945136 11.289147 
L 396.1855 10.422299 
L 403.425864 9.675428 
L 410.666227 9.228258 
L 417.906591 9.228258 
" clip-path="url(#p51e1fffa2f)" style="fill: none; stroke: #dc143c; stroke-width: 1.5; stroke-linecap: square"/>
   </g>
   <g id="line2d_2">
    <path d="M 55.888409 15.247128 
L 63.128773 15.286569 
L 70.369136 15.315874 
L 77.6095 15.334484 
L 84.849864 15.342111 
L 92.090227 15.338809 
L 99.330591 15.32502 
L 106.570955 15.301618 
L 113.811318 15.269925 
L 121.051682 15.231743 
L 128.292045 15.189335 
L 135.532409 15.145438 
L 142.772773 15.103228 
L 150.013136 15.066306 
L 157.2535 15.038646 
L 164.493864 15.024601 
L 171.734227 15.028844 
L 178.974591 15.056376 
L 186.214955 15.112516 
L 193.455318 15.202906 
L 200.695682 15.333541 
L 207.936045 15.510791 
L 215.176409 15.741449 
L 222.416773 16.032755 
L 229.657136 16.392407 
L 236.8975 16.828547 
L 244.137864 17.349682 
L 251.378227 17.964503 
L 258.618591 18.681622 
L 265.858955 19.509106 
L 273.099318 20.453888 
L 280.339682 21.520945 
L 287.580045 22.71234 
L 294.820409 24.026156 
L 302.060773 25.455469 
L 309.301136 26.987518 
L 316.5415 28.603373 
L 323.781864 30.278201 
L 331.022227 31.982372 
L 338.262591 33.683322 
L 345.502955 35.347982 
L 352.743318 36.945382 
L 359.983682 38.449045 
L 367.224045 39.83868 
L 374.464409 41.101049 
L 381.704773 42.22992 
L 388.945136 43.225288 
L 396.1855 44.092136 
L 403.425864 44.839007 
L 410.666227 45.286177 
L 417.906591 45.286177 
" clip-path="url(#p51e1fffa2f)" style="fill: none; stroke: #000080; stroke-width: 1.5; stroke-linecap: square"/>
   </g>
  </g>
  <g id="axes_2">
   <g id="patch_3">
    <path d="M 37.7875 164.250838 
L 436.0075 164.250838 
L 436.0075 75.007487 
L 37.7875 75.007487 
z
" style="fill: #ffffff"/>
   </g>
   <g id="PathCollection_1">
    <defs>
     <path id="m0fea4b88f4" d="M 0 0.866025 
C 0.229673 0.866025 0.449969 0.774776 0.612372 0.612372 
C 0.774776 0.449969 0.866025 0.229673 0.866025 0 
C 0.866025 -0.229673 0.774776 -0.449969 0.612372 -0.612372 
C 0.449969 -0.774776 0.229673 -0.866025 0 -0.866025 
C -0.229673 -0.866025 -0.449969 -0.774776 -0.612372 -0.612372 
C -0.774776 -0.449969 -0.866025 -0.229673 -0.866025 0 
C -0.866025 0.229673 -0.774776 0.449969 -0.612372 0.612372 
C -0.449969 0.774776 -0.229673 0.866025 0 0.866025 
z
" style="stroke: #daa520"/>
    </defs>
    <g clip-path="url(#p1a83a5d398)">
     <use xlink:href="#m0fea4b88f4" x="137.573408" y="129.696911" style="fill: #daa520; stroke: #daa520"/>
     <use xlink:href="#m0fea4b88f4" x="336.128403" y="152.427366" style="fill: #daa520; stroke: #daa520"/>
     <use xlink:href="#m0fea4b88f4" x="315.695945" y="138.262594" style="fill: #daa520; stroke: #daa520"/>
     <use xlink:href="#m0fea4b88f4" x="195.715617" y="149.579342" style="fill: #daa520; stroke: #daa520"/>
     <use xlink:href="#m0fea4b88f4" x="372.295553" y="151.994845" style="fill: #daa520; stroke: #daa520"/>
     <use xlink:href="#m0fea4b88f4" x="392.218653" y="147.541855" style="fill: #daa520; stroke: #daa520"/>
     <use xlink:href="#m0fea4b88f4" x="189.123067" y="139.551048" style="fill: #daa520; stroke: #daa520"/>
     <use xlink:href="#m0fea4b88f4" x="215.178883" y="146.526364" style="fill: #daa520; stroke: #daa520"/>
     <use xlink:href="#m0fea4b88f4" x="274.962429" y="152.788602" style="fill: #daa520; stroke: #daa520"/>
     <use xlink:href="#m0fea4b88f4" x="78.716806" y="138.619501" style="fill: #daa520; stroke: #daa520"/>
     <use xlink:href="#m0fea4b88f4" x="393.306919" y="145.917844" style="fill: #daa520; stroke: #daa520"/>
     <use xlink:href="#m0fea4b88f4" x="154.821515" y="104.95109" style="fill: #daa520; stroke: #daa520"/>
     <use xlink:href="#m0fea4b88f4" x="388.735077" y="135.306421" style="fill: #daa520; stroke: #daa520"/>
     <use xlink:href="#m0fea4b88f4" x="410.3453" y="155.741615" style="fill: #daa520; stroke: #daa520"/>
     <use xlink:href="#m0fea4b88f4" x="205.697565" y="143.673093" style="fill: #daa520; stroke: #daa520"/>
     <use xlink:href="#m0fea4b88f4" x="124.603352" y="147.291876" style="fill: #daa520; stroke: #daa520"/>
     <use xlink:href="#m0fea4b88f4" x="409.124919" y="148.31403" style="fill: #daa520; stroke: #daa520"/>
     <use xlink:href="#m0fea4b88f4" x="109.538879" y="124.627413" style="fill: #daa520; stroke: #daa520"/>
     <use xlink:href="#m0fea4b88f4" x="208.820796" y="126.644176" style="fill: #daa520; stroke: #daa520"/>
     <use xlink:href="#m0fea4b88f4" x="366.802426" y="151.023122" style="fill: #daa520; stroke: #daa520"/>
     <use xlink:href="#m0fea4b88f4" x="389.101925" y="154.659456" style="fill: #daa520; stroke: #daa520"/>
     <use xlink:href="#m0fea4b88f4" x="351.607805" y="134.895137" style="fill: #daa520; stroke: #daa520"/>
     <use xlink:href="#m0fea4b88f4" x="411.185023" y="156.711245" style="fill: #daa520; stroke: #daa520"/>
     <use xlink:href="#m0fea4b88f4" x="104.416271" y="149.583492" style="fill: #daa520; stroke: #daa520"/>
     <use xlink:href="#m0fea4b88f4" x="386.905644" y="130.783716" style="fill: #daa520; stroke: #daa520"/>
     <use xlink:href="#m0fea4b88f4" x="298.464364" y="133.614984" style="fill: #daa520; stroke: #daa520"/>
     <use xlink:href="#m0fea4b88f4" x="413.682541" y="156.67412" style="fill: #daa520; stroke: #daa520"/>
     <use xlink:href="#m0fea4b88f4" x="79.049141" y="79.24941" style="fill: #daa520; stroke: #daa520"/>
     <use xlink:href="#m0fea4b88f4" x="308.393953" y="155.339524" style="fill: #daa520; stroke: #daa520"/>
     <use xlink:href="#m0fea4b88f4" x="414.174537" y="149.752129" style="fill: #daa520; stroke: #daa520"/>
     <use xlink:href="#m0fea4b88f4" x="335.042717" y="157.992295" style="fill: #daa520; stroke: #daa520"/>
     <use xlink:href="#m0fea4b88f4" x="76.068627" y="114.164678" style="fill: #daa520; stroke: #daa520"/>
     <use xlink:href="#m0fea4b88f4" x="148.560187" y="137.976282" style="fill: #daa520; stroke: #daa520"/>
     <use xlink:href="#m0fea4b88f4" x="352.878809" y="155.986033" style="fill: #daa520; stroke: #daa520"/>
     <use xlink:href="#m0fea4b88f4" x="292.777686" y="132.239279" style="fill: #daa520; stroke: #daa520"/>
     <use xlink:href="#m0fea4b88f4" x="189.223355" y="144.755871" style="fill: #daa520; stroke: #daa520"/>
     <use xlink:href="#m0fea4b88f4" x="401.199651" y="130.437414" style="fill: #daa520; stroke: #daa520"/>
     <use xlink:href="#m0fea4b88f4" x="329.657186" y="154.574277" style="fill: #daa520; stroke: #daa520"/>
     <use xlink:href="#m0fea4b88f4" x="348.08645" y="145.342455" style="fill: #daa520; stroke: #daa520"/>
     <use xlink:href="#m0fea4b88f4" x="362.923244" y="147.242216" style="fill: #daa520; stroke: #daa520"/>
     <use xlink:href="#m0fea4b88f4" x="284.470221" y="138.401248" style="fill: #daa520; stroke: #daa520"/>
     <use xlink:href="#m0fea4b88f4" x="128.59653" y="139.543573" style="fill: #daa520; stroke: #daa520"/>
     <use xlink:href="#m0fea4b88f4" x="99.690683" y="148.626052" style="fill: #daa520; stroke: #daa520"/>
     <use xlink:href="#m0fea4b88f4" x="359.85005" y="151.346076" style="fill: #daa520; stroke: #daa520"/>
     <use xlink:href="#m0fea4b88f4" x="326.838889" y="160.194322" style="fill: #daa520; stroke: #daa520"/>
     <use xlink:href="#m0fea4b88f4" x="371.908111" y="152.16799" style="fill: #daa520; stroke: #daa520"/>
     <use xlink:href="#m0fea4b88f4" x="414.320326" y="124.791695" style="fill: #daa520; stroke: #daa520"/>
     <use xlink:href="#m0fea4b88f4" x="270.189262" y="139.489874" style="fill: #daa520; stroke: #daa520"/>
     <use xlink:href="#m0fea4b88f4" x="323.988205" y="144.408713" style="fill: #daa520; stroke: #daa520"/>
     <use xlink:href="#m0fea4b88f4" x="403.231334" y="122.684068" style="fill: #daa520; stroke: #daa520"/>
     <use xlink:href="#m0fea4b88f4" x="343.139027" y="155.041271" style="fill: #daa520; stroke: #daa520"/>
     <use xlink:href="#m0fea4b88f4" x="115.579162" y="85.071141" style="fill: #daa520; stroke: #daa520"/>
     <use xlink:href="#m0fea4b88f4" x="299.045196" y="132.563274" style="fill: #daa520; stroke: #daa520"/>
     <use xlink:href="#m0fea4b88f4" x="57.964521" y="79.064003" style="fill: #daa520; stroke: #daa520"/>
     <use xlink:href="#m0fea4b88f4" x="394.518819" y="138.332403" style="fill: #daa520; stroke: #daa520"/>
     <use xlink:href="#m0fea4b88f4" x="85.31478" y="141.550295" style="fill: #daa520; stroke: #daa520"/>
     <use xlink:href="#m0fea4b88f4" x="399.277597" y="129.92939" style="fill: #daa520; stroke: #daa520"/>
     <use xlink:href="#m0fea4b88f4" x="353.42673" y="144.472356" style="fill: #daa520; stroke: #daa520"/>
     <use xlink:href="#m0fea4b88f4" x="403.862739" y="138.134104" style="fill: #daa520; stroke: #daa520"/>
     <use xlink:href="#m0fea4b88f4" x="382.959757" y="146.769738" style="fill: #daa520; stroke: #daa520"/>
     <use xlink:href="#m0fea4b88f4" x="402.233465" y="129.819065" style="fill: #daa520; stroke: #daa520"/>
     <use xlink:href="#m0fea4b88f4" x="368.891792" y="155.236997" style="fill: #daa520; stroke: #daa520"/>
     <use xlink:href="#m0fea4b88f4" x="400.507581" y="146.73192" style="fill: #daa520; stroke: #daa520"/>
     <use xlink:href="#m0fea4b88f4" x="201.209039" y="143.662813" style="fill: #daa520; stroke: #daa520"/>
     <use xlink:href="#m0fea4b88f4" x="368.540519" y="142.698061" style="fill: #daa520; stroke: #daa520"/>
     <use xlink:href="#m0fea4b88f4" x="374.461996" y="152.597806" style="fill: #daa520; stroke: #daa520"/>
     <use xlink:href="#m0fea4b88f4" x="95.414933" y="95.836797" style="fill: #daa520; stroke: #daa520"/>
     <use xlink:href="#m0fea4b88f4" x="77.79961" y="137.853081" style="fill: #daa520; stroke: #daa520"/>
     <use xlink:href="#m0fea4b88f4" x="310.253248" y="150.888462" style="fill: #daa520; stroke: #daa520"/>
     <use xlink:href="#m0fea4b88f4" x="109.24974" y="149.567986" style="fill: #daa520; stroke: #daa520"/>
     <use xlink:href="#m0fea4b88f4" x="173.720766" y="145.122105" style="fill: #daa520; stroke: #daa520"/>
     <use xlink:href="#m0fea4b88f4" x="303.804764" y="140.592339" style="fill: #daa520; stroke: #daa520"/>
     <use xlink:href="#m0fea4b88f4" x="393.837712" y="134.186854" style="fill: #daa520; stroke: #daa520"/>
     <use xlink:href="#m0fea4b88f4" x="396.939106" y="153.66283" style="fill: #daa520; stroke: #daa520"/>
     <use xlink:href="#m0fea4b88f4" x="186.536177" y="139.702889" style="fill: #daa520; stroke: #daa520"/>
     <use xlink:href="#m0fea4b88f4" x="364.897958" y="147.315374" style="fill: #daa520; stroke: #daa520"/>
     <use xlink:href="#m0fea4b88f4" x="390.882207" y="123.701731" style="fill: #daa520; stroke: #daa520"/>
     <use xlink:href="#m0fea4b88f4" x="414.946627" y="145.091046" style="fill: #daa520; stroke: #daa520"/>
     <use xlink:href="#m0fea4b88f4" x="171.249729" y="122.861846" style="fill: #daa520; stroke: #daa520"/>
     <use xlink:href="#m0fea4b88f4" x="408.404563" y="152.250107" style="fill: #daa520; stroke: #daa520"/>
     <use xlink:href="#m0fea4b88f4" x="400.236387" y="133.111721" style="fill: #daa520; stroke: #daa520"/>
     <use xlink:href="#m0fea4b88f4" x="337.055977" y="157.400945" style="fill: #daa520; stroke: #daa520"/>
     <use xlink:href="#m0fea4b88f4" x="357.083393" y="154.725817" style="fill: #daa520; stroke: #daa520"/>
     <use xlink:href="#m0fea4b88f4" x="334.493748" y="154.150184" style="fill: #daa520; stroke: #daa520"/>
     <use xlink:href="#m0fea4b88f4" x="319.941688" y="160.101146" style="fill: #daa520; stroke: #daa520"/>
     <use xlink:href="#m0fea4b88f4" x="286.012521" y="134.882095" style="fill: #daa520; stroke: #daa520"/>
     <use xlink:href="#m0fea4b88f4" x="73.362975" y="100.633326" style="fill: #daa520; stroke: #daa520"/>
     <use xlink:href="#m0fea4b88f4" x="264.61641" y="115.766101" style="fill: #daa520; stroke: #daa520"/>
     <use xlink:href="#m0fea4b88f4" x="370.586773" y="147.663346" style="fill: #daa520; stroke: #daa520"/>
     <use xlink:href="#m0fea4b88f4" x="414.782432" y="124.471342" style="fill: #daa520; stroke: #daa520"/>
     <use xlink:href="#m0fea4b88f4" x="385.917476" y="135.130212" style="fill: #daa520; stroke: #daa520"/>
     <use xlink:href="#m0fea4b88f4" x="315.577676" y="159.294031" style="fill: #daa520; stroke: #daa520"/>
     <use xlink:href="#m0fea4b88f4" x="228.762377" y="148.677879" style="fill: #daa520; stroke: #daa520"/>
    </g>
   </g>
   <g id="matplotlib.axis_3"/>
   <g id="matplotlib.axis_4">
    <g id="ytick_1">
     <g id="line2d_3">
      <defs>
       <path id="m361abb34ce" d="M 0 0 
L -3.5 0 
" style="stroke: #696969; stroke-width: 0.8"/>
      </defs>
      <g>
       <use xlink:href="#m361abb34ce" x="37.7875" y="160.082906" style="fill: #696969; stroke: #696969; stroke-width: 0.8"/>
      </g>
     </g>
     <g id="text_1">
      <!-- −5 -->
      <g style="fill: #696969" transform="translate(7.2 166.161656) scale(0.16 -0.16)">
       <defs>
        <path id="DejaVuSans-2212" d="M 678 2272 
L 4684 2272 
L 4684 1741 
L 678 1741 
L 678 2272 
z
" transform="scale(0.015625)"/>
        <path id="DejaVuSans-35" d="M 691 4666 
L 3169 4666 
L 3169 4134 
L 1269 4134 
L 1269 2991 
Q 1406 3038 1543 3061 
Q 1681 3084 1819 3084 
Q 2600 3084 3056 2656 
Q 3513 2228 3513 1497 
Q 3513 744 3044 326 
Q 2575 -91 1722 -91 
Q 1428 -91 1123 -41 
Q 819 9 494 109 
L 494 744 
Q 775 591 1075 516 
Q 1375 441 1709 441 
Q 2250 441 2565 725 
Q 2881 1009 2881 1497 
Q 2881 1984 2565 2268 
Q 2250 2553 1709 2553 
Q 1456 2553 1204 2497 
Q 953 2441 691 2322 
L 691 4666 
z
" transform="scale(0.015625)"/>
       </defs>
       <use xlink:href="#DejaVuSans-2212"/>
       <use xlink:href="#DejaVuSans-35" x="83.789062"/>
      </g>
     </g>
    </g>
    <g id="ytick_2">
     <g id="line2d_4">
      <g>
       <use xlink:href="#m361abb34ce" x="37.7875" y="126.809082" style="fill: #696969; stroke: #696969; stroke-width: 0.8"/>
      </g>
     </g>
     <g id="text_2">
      <!-- 0 -->
      <g style="fill: #696969" transform="translate(20.6075 132.887832) scale(0.16 -0.16)">
       <defs>
        <path id="DejaVuSans-30" d="M 2034 4250 
Q 1547 4250 1301 3770 
Q 1056 3291 1056 2328 
Q 1056 1369 1301 889 
Q 1547 409 2034 409 
Q 2525 409 2770 889 
Q 3016 1369 3016 2328 
Q 3016 3291 2770 3770 
Q 2525 4250 2034 4250 
z
M 2034 4750 
Q 2819 4750 3233 4129 
Q 3647 3509 3647 2328 
Q 3647 1150 3233 529 
Q 2819 -91 2034 -91 
Q 1250 -91 836 529 
Q 422 1150 422 2328 
Q 422 3509 836 4129 
Q 1250 4750 2034 4750 
z
" transform="scale(0.015625)"/>
       </defs>
       <use xlink:href="#DejaVuSans-30"/>
      </g>
     </g>
    </g>
    <g id="ytick_3">
     <g id="line2d_5">
      <g>
       <use xlink:href="#m361abb34ce" x="37.7875" y="93.535259" style="fill: #696969; stroke: #696969; stroke-width: 0.8"/>
      </g>
     </g>
     <g id="text_3">
      <!-- 5 -->
      <g style="fill: #696969" transform="translate(20.6075 99.614009) scale(0.16 -0.16)">
       <use xlink:href="#DejaVuSans-35"/>
      </g>
     </g>
    </g>
   </g>
   <g id="line2d_6">
    <path d="M 55.888409 101.023908 
L 63.128773 102.091072 
L 70.369136 103.817847 
L 77.6095 106.170163 
L 84.849864 108.953364 
L 92.090227 111.883281 
L 99.330591 114.669386 
L 106.570955 117.077483 
L 113.811318 118.967613 
L 121.051682 120.317318 
L 128.292045 121.232944 
L 135.532409 121.936809 
L 142.772773 122.715536 
L 150.013136 123.831482 
L 157.2535 125.425015 
L 164.493864 127.451037 
L 171.734227 129.685686 
L 178.974591 131.808932 
L 186.214955 133.530573 
L 193.455318 134.701878 
L 200.695682 135.35916 
L 207.936045 135.679643 
L 215.176409 135.876175 
L 222.416773 136.088435 
L 229.657136 136.325422 
L 236.8975 136.481275 
L 244.137864 136.407327 
L 251.378227 136.002467 
L 258.618591 135.287117 
L 265.858955 134.440468 
L 273.099318 133.789714 
L 280.339682 133.743298 
L 287.580045 134.670463 
L 294.820409 136.755651 
L 302.060773 139.885226 
L 309.301136 143.628962 
L 316.5415 147.343456 
L 323.781864 150.364698 
L 331.022227 152.210578 
L 338.262591 152.711359 
L 345.502955 152.025247 
L 352.743318 150.548439 
L 359.983682 148.765171 
L 367.224045 147.093808 
L 374.464409 145.777402 
L 381.704773 144.850307 
L 388.945136 144.188424 
L 396.1855 143.620348 
L 403.425864 143.049267 
L 410.666227 142.526673 
L 417.906591 142.238795 
" clip-path="url(#p1a83a5d398)" style="fill: none; stroke: #000000; stroke-width: 2; stroke-linecap: square"/>
   </g>
   <g id="line2d_7">
    <path d="M 55.888409 104.158552 
L 63.128773 108.196839 
L 70.369136 111.862072 
L 77.6095 115.181426 
L 84.849864 118.181021 
L 92.090227 120.885926 
L 99.330591 123.320152 
L 106.570955 125.506659 
L 113.811318 127.467353 
L 121.051682 129.223086 
L 128.292045 130.793654 
L 135.532409 132.197801 
L 142.772773 133.453218 
L 150.013136 134.576541 
L 157.2535 135.583351 
L 164.493864 136.488177 
L 171.734227 137.304493 
L 178.974591 138.04472 
L 186.214955 138.720225 
L 193.455318 139.341319 
L 200.695682 139.917263 
L 207.936045 140.456261 
L 215.176409 140.965464 
L 222.416773 141.45097 
L 229.657136 141.917822 
L 236.8975 142.370009 
L 244.137864 142.810467 
L 251.378227 143.241078 
L 258.618591 143.66267 
L 265.858955 144.075017 
L 273.099318 144.476838 
L 280.339682 144.8658 
L 287.580045 145.238516 
L 294.820409 145.590544 
L 302.060773 145.916389 
L 309.301136 146.209501 
L 316.5415 146.462277 
L 323.781864 146.666061 
L 331.022227 146.811141 
L 338.262591 146.886753 
L 345.502955 146.881077 
L 352.743318 146.781243 
L 359.983682 146.573322 
L 367.224045 146.242335 
L 374.464409 145.772248 
L 381.704773 145.145973 
L 388.945136 144.345368 
L 396.1855 143.351237 
L 403.425864 142.14333 
L 410.666227 140.700344 
L 417.906591 138.999922 
" clip-path="url(#p1a83a5d398)" style="fill: none; stroke-dasharray: 7.4,3.2; stroke-dashoffset: 0; stroke: #34b6c6; stroke-width: 2"/>
   </g>
   <g id="line2d_8">
    <path d="M 55.888409 107.687946 
L 63.128773 108.810484 
L 70.369136 110.368504 
L 77.6095 112.50168 
L 84.849864 115.353203 
L 92.090227 119.014965 
L 99.330591 123.072758 
L 106.570955 126.393311 
L 113.811318 128.405097 
L 121.051682 129.456289 
L 128.292045 130.028287 
L 135.532409 130.468668 
L 142.772773 131.055905 
L 150.013136 132.052681 
L 157.2535 133.646326 
L 164.493864 135.769065 
L 171.734227 137.996761 
L 178.974591 139.7988 
L 186.214955 140.925306 
L 193.455318 141.455067 
L 200.695682 141.585742 
L 207.936045 141.485994 
L 215.176409 141.263938 
L 222.416773 140.981515 
L 229.657136 140.672876 
L 236.8975 140.356819 
L 244.137864 140.043922 
L 251.378227 139.740544 
L 258.618591 139.451398 
L 265.858955 139.182211 
L 273.099318 138.945043 
L 280.339682 138.773938 
L 287.580045 138.778456 
L 294.820409 139.330896 
L 302.060773 141.554989 
L 309.301136 146.627189 
L 316.5415 150.986856 
L 323.781864 152.447524 
L 331.022227 152.658183 
L 338.262591 152.447547 
L 345.502955 151.905006 
L 352.743318 150.681362 
L 359.983682 148.385595 
L 367.224045 145.889602 
L 374.464409 144.290911 
L 381.704773 143.370555 
L 388.945136 142.698735 
L 396.1855 142.077978 
L 403.425864 141.434991 
L 410.666227 140.739741 
L 417.906591 139.97629 
" clip-path="url(#p1a83a5d398)" style="fill: none; stroke-dasharray: 7.4,3.2; stroke-dashoffset: 0; stroke: #9370db; stroke-width: 2"/>
   </g>
   <g id="line2d_9">
    <path d="M 55.888409 100.936923 
L 63.128773 101.726453 
L 70.369136 103.001124 
L 77.6095 104.883196 
L 84.849864 107.498493 
L 92.090227 110.925559 
L 99.330591 114.773887 
L 106.570955 117.986413 
L 113.811318 120.027331 
L 121.051682 121.21406 
L 128.292045 121.987875 
L 135.532409 122.666243 
L 142.772773 123.502844 
L 150.013136 124.737015 
L 157.2535 126.53851 
L 164.493864 128.8408 
L 171.734227 131.247166 
L 178.974591 133.262441 
L 186.214955 134.652116 
L 193.455318 135.486782 
L 200.695682 135.947572 
L 207.936045 136.189026 
L 215.176409 136.309833 
L 222.416773 136.366159 
L 229.657136 136.388698 
L 236.8975 136.394206 
L 244.137864 136.392115 
L 251.378227 136.388245 
L 258.618591 136.387188 
L 265.858955 136.394777 
L 273.099318 136.423017 
L 280.339682 136.504602 
L 287.580045 136.742558 
L 294.820409 137.483874 
L 302.060773 139.772716 
L 309.301136 144.702442 
L 316.5415 148.973548 
L 323.781864 150.561232 
L 331.022227 150.997981 
L 338.262591 151.055862 
L 345.502955 150.821592 
L 352.743318 149.975446 
L 359.983682 148.159213 
L 367.224045 146.186203 
L 374.464409 145.07928 
L 381.704773 144.640692 
L 388.945136 144.477463 
L 396.1855 144.412373 
L 403.425864 144.38367 
L 410.666227 144.370016 
L 417.906591 144.36345 
" clip-path="url(#p1a83a5d398)" style="fill: none; stroke-dasharray: 12.8,3.2,2,3.2; stroke-dashoffset: 0; stroke: #ff0000; stroke-width: 2"/>
   </g>
   <g id="patch_4">
    <path d="M 37.7875 164.250838 
L 37.7875 75.007487 
" style="fill: none; stroke: #000000; stroke-width: 0.8; stroke-linejoin: miter; stroke-linecap: square"/>
   </g>
   <g id="patch_5">
    <path d="M 436.0075 164.250838 
L 436.0075 75.007487 
" style="fill: none; stroke: #000000; stroke-width: 0.8; stroke-linejoin: miter; stroke-linecap: square"/>
   </g>
   <g id="patch_6">
    <path d="M 37.7875 164.250838 
L 436.0075 164.250838 
" style="fill: none; stroke: #000000; stroke-width: 0.8; stroke-linejoin: miter; stroke-linecap: square"/>
   </g>
   <g id="patch_7">
    <path d="M 37.7875 75.007487 
L 436.0075 75.007487 
" style="fill: none; stroke: #000000; stroke-width: 0.8; stroke-linejoin: miter; stroke-linecap: square"/>
   </g>
  </g>
  <g id="axes_3">
   <g id="patch_8">
    <path d="M 37.7875 276.68 
L 436.0075 276.68 
L 436.0075 187.43665 
L 37.7875 187.43665 
z
" style="fill: #ffffff"/>
   </g>
   <g id="PathCollection_2">
    <g clip-path="url(#p559ddeefae)">
     <use xlink:href="#m0fea4b88f4" x="137.573408" y="223.205914" style="fill: #daa520; stroke: #daa520"/>
     <use xlink:href="#m0fea4b88f4" x="336.128403" y="229.609448" style="fill: #daa520; stroke: #daa520"/>
     <use xlink:href="#m0fea4b88f4" x="315.695945" y="243.375579" style="fill: #daa520; stroke: #daa520"/>
     <use xlink:href="#m0fea4b88f4" x="195.715617" y="214.882538" style="fill: #daa520; stroke: #daa520"/>
     <use xlink:href="#m0fea4b88f4" x="372.295553" y="223.37578" style="fill: #daa520; stroke: #daa520"/>
     <use xlink:href="#m0fea4b88f4" x="392.218653" y="227.570428" style="fill: #daa520; stroke: #daa520"/>
     <use xlink:href="#m0fea4b88f4" x="189.123067" y="225.9211" style="fill: #daa520; stroke: #daa520"/>
     <use xlink:href="#m0fea4b88f4" x="215.178883" y="219.223332" style="fill: #daa520; stroke: #daa520"/>
     <use xlink:href="#m0fea4b88f4" x="274.962429" y="212.026194" style="fill: #daa520; stroke: #daa520"/>
     <use xlink:href="#m0fea4b88f4" x="78.716806" y="192.043058" style="fill: #daa520; stroke: #daa520"/>
     <use xlink:href="#m0fea4b88f4" x="393.306919" y="229.464643" style="fill: #daa520; stroke: #daa520"/>
     <use xlink:href="#m0fea4b88f4" x="154.821515" y="255.743517" style="fill: #daa520; stroke: #daa520"/>
     <use xlink:href="#m0fea4b88f4" x="388.735077" y="241.969263" style="fill: #daa520; stroke: #daa520"/>
     <use xlink:href="#m0fea4b88f4" x="410.3453" y="217.86884" style="fill: #daa520; stroke: #daa520"/>
     <use xlink:href="#m0fea4b88f4" x="205.697565" y="222.36037" style="fill: #daa520; stroke: #daa520"/>
     <use xlink:href="#m0fea4b88f4" x="124.603352" y="201.096935" style="fill: #daa520; stroke: #daa520"/>
     <use xlink:href="#m0fea4b88f4" x="409.124919" y="226.583789" style="fill: #daa520; stroke: #daa520"/>
     <use xlink:href="#m0fea4b88f4" x="109.538879" y="224.556303" style="fill: #daa520; stroke: #daa520"/>
     <use xlink:href="#m0fea4b88f4" x="208.820796" y="242.427586" style="fill: #daa520; stroke: #daa520"/>
     <use xlink:href="#m0fea4b88f4" x="366.802426" y="225.644387" style="fill: #daa520; stroke: #daa520"/>
     <use xlink:href="#m0fea4b88f4" x="389.101925" y="219.26135" style="fill: #daa520; stroke: #daa520"/>
     <use xlink:href="#m0fea4b88f4" x="351.607805" y="249.126324" style="fill: #daa520; stroke: #daa520"/>
     <use xlink:href="#m0fea4b88f4" x="411.185023" y="216.73016" style="fill: #daa520; stroke: #daa520"/>
     <use xlink:href="#m0fea4b88f4" x="104.416271" y="193.162878" style="fill: #daa520; stroke: #daa520"/>
     <use xlink:href="#m0fea4b88f4" x="386.905644" y="247.308202" style="fill: #daa520; stroke: #daa520"/>
     <use xlink:href="#m0fea4b88f4" x="298.464364" y="236.746125" style="fill: #daa520; stroke: #daa520"/>
     <use xlink:href="#m0fea4b88f4" x="413.682541" y="216.770547" style="fill: #daa520; stroke: #daa520"/>
     <use xlink:href="#m0fea4b88f4" x="79.049141" y="261.814068" style="fill: #daa520; stroke: #daa520"/>
     <use xlink:href="#m0fea4b88f4" x="308.393953" y="217.915393" style="fill: #daa520; stroke: #daa520"/>
     <use xlink:href="#m0fea4b88f4" x="414.174537" y="224.889854" style="fill: #daa520; stroke: #daa520"/>
     <use xlink:href="#m0fea4b88f4" x="335.042717" y="223.077353" style="fill: #daa520; stroke: #daa520"/>
     <use xlink:href="#m0fea4b88f4" x="76.068627" y="219.78347" style="fill: #daa520; stroke: #daa520"/>
     <use xlink:href="#m0fea4b88f4" x="148.560187" y="215.337452" style="fill: #daa520; stroke: #daa520"/>
     <use xlink:href="#m0fea4b88f4" x="352.878809" y="224.127705" style="fill: #daa520; stroke: #daa520"/>
     <use xlink:href="#m0fea4b88f4" x="292.777686" y="237.006276" style="fill: #daa520; stroke: #daa520"/>
     <use xlink:href="#m0fea4b88f4" x="189.223355" y="219.82972" style="fill: #daa520; stroke: #daa520"/>
     <use xlink:href="#m0fea4b88f4" x="401.199651" y="247.575222" style="fill: #daa520; stroke: #daa520"/>
     <use xlink:href="#m0fea4b88f4" x="329.657186" y="226.962358" style="fill: #daa520; stroke: #daa520"/>
     <use xlink:href="#m0fea4b88f4" x="348.08645" y="237.395468" style="fill: #daa520; stroke: #daa520"/>
     <use xlink:href="#m0fea4b88f4" x="362.923244" y="231.264899" style="fill: #daa520; stroke: #daa520"/>
     <use xlink:href="#m0fea4b88f4" x="284.470221" y="229.104524" style="fill: #daa520; stroke: #daa520"/>
     <use xlink:href="#m0fea4b88f4" x="128.59653" y="210.647612" style="fill: #daa520; stroke: #daa520"/>
     <use xlink:href="#m0fea4b88f4" x="99.690683" y="191.713057" style="fill: #daa520; stroke: #daa520"/>
     <use xlink:href="#m0fea4b88f4" x="359.85005" y="227.515946" style="fill: #daa520; stroke: #daa520"/>
     <use xlink:href="#m0fea4b88f4" x="326.838889" y="220.209346" style="fill: #daa520; stroke: #daa520"/>
     <use xlink:href="#m0fea4b88f4" x="371.908111" y="223.231413" style="fill: #daa520; stroke: #daa520"/>
     <use xlink:href="#m0fea4b88f4" x="414.320326" y="254.169529" style="fill: #daa520; stroke: #daa520"/>
     <use xlink:href="#m0fea4b88f4" x="270.189262" y="227.592442" style="fill: #daa520; stroke: #daa520"/>
     <use xlink:href="#m0fea4b88f4" x="323.988205" y="238.451033" style="fill: #daa520; stroke: #daa520"/>
     <use xlink:href="#m0fea4b88f4" x="403.231334" y="256.663119" style="fill: #daa520; stroke: #daa520"/>
     <use xlink:href="#m0fea4b88f4" x="343.139027" y="226.399143" style="fill: #daa520; stroke: #daa520"/>
     <use xlink:href="#m0fea4b88f4" x="115.579162" y="272.623484" style="fill: #daa520; stroke: #daa520"/>
     <use xlink:href="#m0fea4b88f4" x="299.045196" y="238.197536" style="fill: #daa520; stroke: #daa520"/>
     <use xlink:href="#m0fea4b88f4" x="57.964521" y="257.081609" style="fill: #daa520; stroke: #daa520"/>
     <use xlink:href="#m0fea4b88f4" x="394.518819" y="238.352202" style="fill: #daa520; stroke: #daa520"/>
     <use xlink:href="#m0fea4b88f4" x="85.31478" y="191.493166" style="fill: #daa520; stroke: #daa520"/>
     <use xlink:href="#m0fea4b88f4" x="399.277597" y="248.179482" style="fill: #daa520; stroke: #daa520"/>
     <use xlink:href="#m0fea4b88f4" x="353.42673" y="237.510392" style="fill: #daa520; stroke: #daa520"/>
     <use xlink:href="#m0fea4b88f4" x="403.862739" y="238.53752" style="fill: #daa520; stroke: #daa520"/>
     <use xlink:href="#m0fea4b88f4" x="382.959757" y="228.662587" style="fill: #daa520; stroke: #daa520"/>
     <use xlink:href="#m0fea4b88f4" x="402.233465" y="248.296745" style="fill: #daa520; stroke: #daa520"/>
     <use xlink:href="#m0fea4b88f4" x="368.891792" y="220.193342" style="fill: #daa520; stroke: #daa520"/>
     <use xlink:href="#m0fea4b88f4" x="400.507581" y="228.463764" style="fill: #daa520; stroke: #daa520"/>
     <use xlink:href="#m0fea4b88f4" x="201.209039" y="222.184276" style="fill: #daa520; stroke: #daa520"/>
     <use xlink:href="#m0fea4b88f4" x="368.540519" y="234.980546" style="fill: #daa520; stroke: #daa520"/>
     <use xlink:href="#m0fea4b88f4" x="374.461996" y="222.388463" style="fill: #daa520; stroke: #daa520"/>
     <use xlink:href="#m0fea4b88f4" x="95.414933" y="250.986181" style="fill: #daa520; stroke: #daa520"/>
     <use xlink:href="#m0fea4b88f4" x="77.79961" y="192.601367" style="fill: #daa520; stroke: #daa520"/>
     <use xlink:href="#m0fea4b88f4" x="310.253248" y="224.787496" style="fill: #daa520; stroke: #daa520"/>
     <use xlink:href="#m0fea4b88f4" x="109.24974" y="195.199197" style="fill: #daa520; stroke: #daa520"/>
     <use xlink:href="#m0fea4b88f4" x="173.720766" y="215.645614" style="fill: #daa520; stroke: #daa520"/>
     <use xlink:href="#m0fea4b88f4" x="303.804764" y="231.382833" style="fill: #daa520; stroke: #daa520"/>
     <use xlink:href="#m0fea4b88f4" x="393.837712" y="243.220877" style="fill: #daa520; stroke: #daa520"/>
     <use xlink:href="#m0fea4b88f4" x="396.939106" y="220.351705" style="fill: #daa520; stroke: #daa520"/>
     <use xlink:href="#m0fea4b88f4" x="186.536177" y="225.338776" style="fill: #daa520; stroke: #daa520"/>
     <use xlink:href="#m0fea4b88f4" x="364.897958" y="230.541053" style="fill: #daa520; stroke: #daa520"/>
     <use xlink:href="#m0fea4b88f4" x="390.882207" y="255.551464" style="fill: #daa520; stroke: #daa520"/>
     <use xlink:href="#m0fea4b88f4" x="414.946627" y="230.356752" style="fill: #daa520; stroke: #daa520"/>
     <use xlink:href="#m0fea4b88f4" x="171.249729" y="240.864129" style="fill: #daa520; stroke: #daa520"/>
     <use xlink:href="#m0fea4b88f4" x="408.404563" y="221.96789" style="fill: #daa520; stroke: #daa520"/>
     <use xlink:href="#m0fea4b88f4" x="400.236387" y="244.442088" style="fill: #daa520; stroke: #daa520"/>
     <use xlink:href="#m0fea4b88f4" x="337.055977" y="223.773717" style="fill: #daa520; stroke: #daa520"/>
     <use xlink:href="#m0fea4b88f4" x="357.083393" y="224.475826" style="fill: #daa520; stroke: #daa520"/>
     <use xlink:href="#m0fea4b88f4" x="334.493748" y="227.579811" style="fill: #daa520; stroke: #daa520"/>
     <use xlink:href="#m0fea4b88f4" x="319.941688" y="219.310021" style="fill: #daa520; stroke: #daa520"/>
     <use xlink:href="#m0fea4b88f4" x="286.012521" y="233.301389" style="fill: #daa520; stroke: #daa520"/>
     <use xlink:href="#m0fea4b88f4" x="73.362975" y="234.803695" style="fill: #daa520; stroke: #daa520"/>
     <use xlink:href="#m0fea4b88f4" x="264.61641" y="255.403563" style="fill: #daa520; stroke: #daa520"/>
     <use xlink:href="#m0fea4b88f4" x="370.586773" y="228.738068" style="fill: #daa520; stroke: #daa520"/>
     <use xlink:href="#m0fea4b88f4" x="414.782432" y="254.544851" style="fill: #daa520; stroke: #daa520"/>
     <use xlink:href="#m0fea4b88f4" x="385.917476" y="242.231282" style="fill: #daa520; stroke: #daa520"/>
     <use xlink:href="#m0fea4b88f4" x="315.577676" y="218.645179" style="fill: #daa520; stroke: #daa520"/>
     <use xlink:href="#m0fea4b88f4" x="228.762377" y="216.790087" style="fill: #daa520; stroke: #daa520"/>
    </g>
   </g>
   <g id="matplotlib.axis_5">
    <g id="xtick_1">
     <g id="line2d_10">
      <defs>
       <path id="m060cfb5c2b" d="M 0 0 
L 0 3.5 
" style="stroke: #696969; stroke-width: 0.8"/>
      </defs>
      <g>
       <use xlink:href="#m060cfb5c2b" x="55.888409" y="276.68" style="fill: #696969; stroke: #696969; stroke-width: 0.8"/>
      </g>
     </g>
     <g id="text_4">
      <!-- −1.0 -->
      <g style="fill: #696969" transform="translate(36.462159 295.8375) scale(0.16 -0.16)">
       <defs>
        <path id="DejaVuSans-31" d="M 794 531 
L 1825 531 
L 1825 4091 
L 703 3866 
L 703 4441 
L 1819 4666 
L 2450 4666 
L 2450 531 
L 3481 531 
L 3481 0 
L 794 0 
L 794 531 
z
" transform="scale(0.015625)"/>
        <path id="DejaVuSans-2e" d="M 684 794 
L 1344 794 
L 1344 0 
L 684 0 
L 684 794 
z
" transform="scale(0.015625)"/>
       </defs>
       <use xlink:href="#DejaVuSans-2212"/>
       <use xlink:href="#DejaVuSans-31" x="83.789062"/>
       <use xlink:href="#DejaVuSans-2e" x="147.412109"/>
       <use xlink:href="#DejaVuSans-30" x="179.199219"/>
      </g>
     </g>
    </g>
    <g id="xtick_2">
     <g id="line2d_11">
      <g>
       <use xlink:href="#m060cfb5c2b" x="146.392955" y="276.68" style="fill: #696969; stroke: #696969; stroke-width: 0.8"/>
      </g>
     </g>
     <g id="text_5">
      <!-- −0.5 -->
      <g style="fill: #696969" transform="translate(126.966705 295.8375) scale(0.16 -0.16)">
       <use xlink:href="#DejaVuSans-2212"/>
       <use xlink:href="#DejaVuSans-30" x="83.789062"/>
       <use xlink:href="#DejaVuSans-2e" x="147.412109"/>
       <use xlink:href="#DejaVuSans-35" x="179.199219"/>
      </g>
     </g>
    </g>
    <g id="xtick_3">
     <g id="line2d_12">
      <g>
       <use xlink:href="#m060cfb5c2b" x="236.8975" y="276.68" style="fill: #696969; stroke: #696969; stroke-width: 0.8"/>
      </g>
     </g>
     <g id="text_6">
      <!-- 0.0 -->
      <g style="fill: #696969" transform="translate(224.175 295.8375) scale(0.16 -0.16)">
       <use xlink:href="#DejaVuSans-30"/>
       <use xlink:href="#DejaVuSans-2e" x="63.623047"/>
       <use xlink:href="#DejaVuSans-30" x="95.410156"/>
      </g>
     </g>
    </g>
    <g id="xtick_4">
     <g id="line2d_13">
      <g>
       <use xlink:href="#m060cfb5c2b" x="327.402045" y="276.68" style="fill: #696969; stroke: #696969; stroke-width: 0.8"/>
      </g>
     </g>
     <g id="text_7">
      <!-- 0.5 -->
      <g style="fill: #696969" transform="translate(314.679545 295.8375) scale(0.16 -0.16)">
       <use xlink:href="#DejaVuSans-30"/>
       <use xlink:href="#DejaVuSans-2e" x="63.623047"/>
       <use xlink:href="#DejaVuSans-35" x="95.410156"/>
      </g>
     </g>
    </g>
    <g id="xtick_5">
     <g id="line2d_14">
      <g>
       <use xlink:href="#m060cfb5c2b" x="417.906591" y="276.68" style="fill: #696969; stroke: #696969; stroke-width: 0.8"/>
      </g>
     </g>
     <g id="text_8">
      <!-- 1.0 -->
      <g style="fill: #696969" transform="translate(405.184091 295.8375) scale(0.16 -0.16)">
       <use xlink:href="#DejaVuSans-31"/>
       <use xlink:href="#DejaVuSans-2e" x="63.623047"/>
       <use xlink:href="#DejaVuSans-30" x="95.410156"/>
      </g>
     </g>
    </g>
    <g id="text_9">
     <!-- $X$ -->
     <g transform="translate(231.3775 315.3225) scale(0.16 -0.16)">
      <defs>
       <path id="DejaVuSans-Oblique-58" d="M 878 4666 
L 1516 4666 
L 2316 2981 
L 3763 4666 
L 4500 4666 
L 2578 2438 
L 3738 0 
L 3103 0 
L 2163 1966 
L 459 0 
L -275 0 
L 1906 2509 
L 878 4666 
z
" transform="scale(0.015625)"/>
      </defs>
      <use xlink:href="#DejaVuSans-Oblique-58" transform="translate(0 0.09375)"/>
     </g>
    </g>
   </g>
   <g id="matplotlib.axis_6">
    <g id="ytick_4">
     <g id="line2d_15">
      <g>
       <use xlink:href="#m361abb34ce" x="37.7875" y="270.239646" style="fill: #696969; stroke: #696969; stroke-width: 0.8"/>
      </g>
     </g>
     <g id="text_10">
      <!-- −5 -->
      <g style="fill: #696969" transform="translate(7.2 276.318396) scale(0.16 -0.16)">
       <use xlink:href="#DejaVuSans-2212"/>
       <use xlink:href="#DejaVuSans-35" x="83.789062"/>
      </g>
     </g>
    </g>
    <g id="ytick_5">
     <g id="line2d_16">
      <g>
       <use xlink:href="#m361abb34ce" x="37.7875" y="231.207798" style="fill: #696969; stroke: #696969; stroke-width: 0.8"/>
      </g>
     </g>
     <g id="text_11">
      <!-- 0 -->
      <g style="fill: #696969" transform="translate(20.6075 237.286548) scale(0.16 -0.16)">
       <use xlink:href="#DejaVuSans-30"/>
      </g>
     </g>
    </g>
    <g id="ytick_6">
     <g id="line2d_17">
      <g>
       <use xlink:href="#m361abb34ce" x="37.7875" y="192.17595" style="fill: #696969; stroke: #696969; stroke-width: 0.8"/>
      </g>
     </g>
     <g id="text_12">
      <!-- 5 -->
      <g style="fill: #696969" transform="translate(20.6075 198.2547) scale(0.16 -0.16)">
       <use xlink:href="#DejaVuSans-35"/>
      </g>
     </g>
    </g>
   </g>
   <g id="line2d_18">
    <path d="M 55.888409 231.105759 
L 63.128773 230.780081 
L 70.369136 230.249741 
L 77.6095 229.698121 
L 84.849864 229.501161 
L 92.090227 230.084343 
L 99.330591 231.330383 
L 106.570955 232.274018 
L 113.811318 232.4509 
L 121.051682 232.25972 
L 128.292045 232.093369 
L 135.532409 232.063459 
L 142.772773 232.13135 
L 150.013136 232.270033 
L 157.2535 232.513983 
L 164.493864 232.838059 
L 171.734227 233.039491 
L 178.974591 232.912835 
L 186.214955 232.523423 
L 193.455318 232.12853 
L 200.695682 231.898035 
L 207.936045 231.80533 
L 215.176409 231.7165 
L 222.416773 231.533582 
L 229.657136 231.282024 
L 236.8975 231.105662 
L 244.137864 231.189953 
L 251.378227 231.660335 
L 258.618591 232.498236 
L 265.858955 233.500299 
L 273.099318 234.296793 
L 280.339682 234.446945 
L 287.580045 233.638467 
L 294.820409 232.06204 
L 302.060773 231.075817 
L 309.301136 232.467043 
L 316.5415 233.119977 
L 323.781864 231.438341 
L 331.022227 229.785362 
L 338.262591 229.265817 
L 345.502955 229.795851 
L 352.743318 230.535649 
L 359.983682 230.496978 
L 367.224045 230.143132 
L 374.464409 230.388866 
L 381.704773 230.961909 
L 388.945136 231.546854 
L 396.1855 232.136883 
L 403.425864 232.773119 
L 410.666227 233.370131 
L 417.906591 233.700123 
" clip-path="url(#p559ddeefae)" style="fill: none; stroke: #696969; stroke-width: 2; stroke-linecap: square"/>
   </g>
   <g id="line2d_19">
    <path d="M 55.888409 223.589103 
L 63.128773 222.950141 
L 70.369136 222.438292 
L 77.6095 222.042711 
L 84.849864 221.752994 
L 92.090227 221.559178 
L 99.330591 221.451741 
L 106.570955 221.421604 
L 113.811318 221.460127 
L 121.051682 221.559114 
L 128.292045 221.71081 
L 135.532409 221.907899 
L 142.772773 222.143509 
L 150.013136 222.411208 
L 157.2535 222.705006 
L 164.493864 223.019354 
L 171.734227 223.349145 
L 178.974591 223.689714 
L 186.214955 224.036835 
L 193.455318 224.386726 
L 200.695682 224.736045 
L 207.936045 225.081891 
L 215.176409 225.421807 
L 222.416773 225.753773 
L 229.657136 226.076215 
L 236.8975 226.387998 
L 244.137864 226.688428 
L 251.378227 226.977253 
L 258.618591 227.254664 
L 265.858955 227.521291 
L 273.099318 227.778207 
L 280.339682 228.026925 
L 287.580045 228.269401 
L 294.820409 228.508031 
L 302.060773 228.745653 
L 309.301136 228.985548 
L 316.5415 229.231435 
L 323.781864 229.487476 
L 331.022227 229.758277 
L 338.262591 230.048881 
L 345.502955 230.364775 
L 352.743318 230.711887 
L 359.983682 231.096587 
L 367.224045 231.525684 
L 374.464409 232.006432 
L 381.704773 232.546524 
L 388.945136 233.154094 
L 396.1855 233.837719 
L 403.425864 234.606417 
L 410.666227 235.469646 
L 417.906591 236.437309 
" clip-path="url(#p559ddeefae)" style="fill: none; stroke-dasharray: 7.4,3.2; stroke-dashoffset: 0; stroke: #79ad41; stroke-width: 2"/>
   </g>
   <g id="patch_9">
    <path d="M 37.7875 276.68 
L 37.7875 187.43665 
" style="fill: none; stroke: #000000; stroke-width: 0.8; stroke-linejoin: miter; stroke-linecap: square"/>
   </g>
   <g id="patch_10">
    <path d="M 436.0075 276.68 
L 436.0075 187.43665 
" style="fill: none; stroke: #000000; stroke-width: 0.8; stroke-linejoin: miter; stroke-linecap: square"/>
   </g>
   <g id="patch_11">
    <path d="M 37.7875 276.68 
L 436.0075 276.68 
" style="fill: none; stroke: #000000; stroke-width: 0.8; stroke-linejoin: miter; stroke-linecap: square"/>
   </g>
   <g id="patch_12">
    <path d="M 37.7875 187.43665 
L 436.0075 187.43665 
" style="fill: none; stroke: #000000; stroke-width: 0.8; stroke-linejoin: miter; stroke-linecap: square"/>
   </g>
  </g>
 </g>
 <defs>
  <clipPath id="p51e1fffa2f">
   <rect x="37.7875" y="7.2" width="398.22" height="44.621675"/>
  </clipPath>
  <clipPath id="p1a83a5d398">
   <rect x="37.7875" y="75.007487" width="398.22" height="89.24335"/>
  </clipPath>
  <clipPath id="p559ddeefae">
   <rect x="37.7875" y="187.43665" width="398.22" height="89.24335"/>
  </clipPath>
 </defs>
</svg>
