<?xml version="1.0" encoding="utf-8" standalone="no"?>
<!DOCTYPE svg PUBLIC "-//W3C//DTD SVG 1.1//EN"
  "http://www.w3.org/Graphics/SVG/1.1/DTD/svg11.dtd">
<svg xmlns:xlink="http://www.w3.org/1999/xlink" width="443.2625pt" height="325.85pt" viewBox="0 0 443.2625 325.85" xmlns="http://www.w3.org/2000/svg" version="1.1">
 <metadata>
  <rdf:RDF xmlns:dc="http://purl.org/dc/elements/1.1/" xmlns:cc="http://creativecommons.org/ns#" xmlns:rdf="http://www.w3.org/1999/02/22-rdf-syntax-ns#">
   <cc:Work>
    <dc:type rdf:resource="http://purl.org/dc/dcmitype/StillImage"/>
    <dc:date>2024-01-28T20:55:56.500705</dc:date>
    <dc:format>image/svg+xml</dc:format>
    <dc:creator>
     <cc:Agent>
      <dc:title>Matplotlib v3.7.2, https://matplotlib.org/</dc:title>
     </cc:Agent>
    </dc:creator>
   </cc:Work>
  </rdf:RDF>
 </metadata>
 <defs>
  <style type="text/css">*{stroke-linejoin: round; stroke-linecap: butt}</style>
 </defs>
 <g id="figure_1">
  <g id="patch_1">
   <path d="M 0 325.85 
L 443.2625 325.85 
L 443.2625 0 
L 0 0 
z
" style="fill: #ffffff"/>
  </g>
  <g id="axes_1">
   <g id="patch_2">
    <path d="M 53.0525 51.142534 
L 436.0625 51.142534 
L 436.0625 7.2 
L 53.0525 7.2 
z
" style="fill: #ffffff"/>
   </g>
   <g id="PolyCollection_1">
    <defs>
     <path id="m84e7b84bf0" d="M 70.462045 -276.704854 
L 70.462045 -296.114299 
L 77.425864 -295.521059 
L 84.389682 -294.897907 
L 91.3535 -294.251573 
L 98.317318 -293.589035 
L 105.281136 -292.917308 
L 112.244955 -292.243344 
L 119.208773 -291.573874 
L 126.172591 -290.915235 
L 133.136409 -290.273273 
L 140.100227 -289.653216 
L 147.064045 -289.059613 
L 154.027864 -288.496295 
L 160.991682 -287.96636 
L 167.9555 -287.472214 
L 174.919318 -287.015597 
L 181.883136 -286.597678 
L 188.846955 -286.219121 
L 195.810773 -285.880183 
L 202.774591 -285.580793 
L 209.738409 -285.320655 
L 216.702227 -285.099324 
L 223.666045 -284.916264 
L 230.629864 -284.770933 
L 237.593682 -284.662818 
L 244.5575 -284.591473 
L 251.521318 -284.556566 
L 258.485136 -284.557875 
L 265.448955 -284.59531 
L 272.412773 -284.6689 
L 279.376591 -284.778793 
L 286.340409 -284.925229 
L 293.304227 -285.108509 
L 300.268045 -285.328962 
L 307.231864 -285.586896 
L 314.195682 -285.88255 
L 321.1595 -286.216036 
L 328.123318 -286.587293 
L 335.087136 -286.996016 
L 342.050955 -287.441617 
L 349.014773 -287.923194 
L 355.978591 -288.439494 
L 362.942409 -288.988907 
L 369.906227 -289.569499 
L 376.870045 -290.179035 
L 383.833864 -290.815052 
L 390.797682 -291.47496 
L 397.7615 -292.156118 
L 404.725318 -292.855992 
L 411.689136 -293.572255 
L 418.652955 -294.302926 
L 418.652955 -276.704854 
L 418.652955 -276.704854 
L 411.689136 -276.704854 
L 404.725318 -276.704854 
L 397.7615 -276.704854 
L 390.797682 -276.704854 
L 383.833864 -276.704854 
L 376.870045 -276.704854 
L 369.906227 -276.704854 
L 362.942409 -276.704854 
L 355.978591 -276.704854 
L 349.014773 -276.704854 
L 342.050955 -276.704854 
L 335.087136 -276.704854 
L 328.123318 -276.704854 
L 321.1595 -276.704854 
L 314.195682 -276.704854 
L 307.231864 -276.704854 
L 300.268045 -276.704854 
L 293.304227 -276.704854 
L 286.340409 -276.704854 
L 279.376591 -276.704854 
L 272.412773 -276.704854 
L 265.448955 -276.704854 
L 258.485136 -276.704854 
L 251.521318 -276.704854 
L 244.5575 -276.704854 
L 237.593682 -276.704854 
L 230.629864 -276.704854 
L 223.666045 -276.704854 
L 216.702227 -276.704854 
L 209.738409 -276.704854 
L 202.774591 -276.704854 
L 195.810773 -276.704854 
L 188.846955 -276.704854 
L 181.883136 -276.704854 
L 174.919318 -276.704854 
L 167.9555 -276.704854 
L 160.991682 -276.704854 
L 154.027864 -276.704854 
L 147.064045 -276.704854 
L 140.100227 -276.704854 
L 133.136409 -276.704854 
L 126.172591 -276.704854 
L 119.208773 -276.704854 
L 112.244955 -276.704854 
L 105.281136 -276.704854 
L 98.317318 -276.704854 
L 91.3535 -276.704854 
L 84.389682 -276.704854 
L 77.425864 -276.704854 
L 70.462045 -276.704854 
z
" style="stroke: #dc143c; stroke-opacity: 0.2"/>
    </defs>
    <g clip-path="url(#pbeea00dae5)">
     <use xlink:href="#m84e7b84bf0" x="0" y="325.85" style="fill: #dc143c; fill-opacity: 0.2; stroke: #dc143c; stroke-opacity: 0.2"/>
    </g>
   </g>
   <g id="PolyCollection_2">
    <defs>
     <path id="m2b2bd2801b" d="M 70.462045 -276.704854 
L 70.462045 -305.094879 
L 77.425864 -305.688119 
L 84.389682 -306.311271 
L 91.3535 -306.957605 
L 98.317318 -307.620144 
L 105.281136 -308.29187 
L 112.244955 -308.965834 
L 119.208773 -309.635304 
L 126.172591 -310.293943 
L 133.136409 -310.935905 
L 140.100227 -311.555962 
L 147.064045 -312.149565 
L 154.027864 -312.712883 
L 160.991682 -313.242818 
L 167.9555 -313.736965 
L 174.919318 -314.193581 
L 181.883136 -314.6115 
L 188.846955 -314.990057 
L 195.810773 -315.328996 
L 202.774591 -315.628385 
L 209.738409 -315.888523 
L 216.702227 -316.109855 
L 223.666045 -316.292914 
L 230.629864 -316.438245 
L 237.593682 -316.54636 
L 244.5575 -316.617705 
L 251.521318 -316.652612 
L 258.485136 -316.651304 
L 265.448955 -316.613869 
L 272.412773 -316.540278 
L 279.376591 -316.430385 
L 286.340409 -316.28395 
L 293.304227 -316.10067 
L 300.268045 -315.880216 
L 307.231864 -315.622283 
L 314.195682 -315.326628 
L 321.1595 -314.993142 
L 328.123318 -314.621886 
L 335.087136 -314.213162 
L 342.050955 -313.767562 
L 349.014773 -313.285985 
L 355.978591 -312.769684 
L 362.942409 -312.220271 
L 369.906227 -311.63968 
L 376.870045 -311.030143 
L 383.833864 -310.394126 
L 390.797682 -309.734218 
L 397.7615 -309.053061 
L 404.725318 -308.353187 
L 411.689136 -307.636923 
L 418.652955 -306.906252 
L 418.652955 -276.704854 
L 418.652955 -276.704854 
L 411.689136 -276.704854 
L 404.725318 -276.704854 
L 397.7615 -276.704854 
L 390.797682 -276.704854 
L 383.833864 -276.704854 
L 376.870045 -276.704854 
L 369.906227 -276.704854 
L 362.942409 -276.704854 
L 355.978591 -276.704854 
L 349.014773 -276.704854 
L 342.050955 -276.704854 
L 335.087136 -276.704854 
L 328.123318 -276.704854 
L 321.1595 -276.704854 
L 314.195682 -276.704854 
L 307.231864 -276.704854 
L 300.268045 -276.704854 
L 293.304227 -276.704854 
L 286.340409 -276.704854 
L 279.376591 -276.704854 
L 272.412773 -276.704854 
L 265.448955 -276.704854 
L 258.485136 -276.704854 
L 251.521318 -276.704854 
L 244.5575 -276.704854 
L 237.593682 -276.704854 
L 230.629864 -276.704854 
L 223.666045 -276.704854 
L 216.702227 -276.704854 
L 209.738409 -276.704854 
L 202.774591 -276.704854 
L 195.810773 -276.704854 
L 188.846955 -276.704854 
L 181.883136 -276.704854 
L 174.919318 -276.704854 
L 167.9555 -276.704854 
L 160.991682 -276.704854 
L 154.027864 -276.704854 
L 147.064045 -276.704854 
L 140.100227 -276.704854 
L 133.136409 -276.704854 
L 126.172591 -276.704854 
L 119.208773 -276.704854 
L 112.244955 -276.704854 
L 105.281136 -276.704854 
L 98.317318 -276.704854 
L 91.3535 -276.704854 
L 84.389682 -276.704854 
L 77.425864 -276.704854 
L 70.462045 -276.704854 
z
" style="stroke: #000080; stroke-opacity: 0.2"/>
    </defs>
    <g clip-path="url(#pbeea00dae5)">
     <use xlink:href="#m2b2bd2801b" x="0" y="325.85" style="fill: #000080; fill-opacity: 0.2; stroke: #000080; stroke-opacity: 0.2"/>
    </g>
   </g>
   <g id="matplotlib.axis_1"/>
   <g id="matplotlib.axis_2"/>
   <g id="line2d_1">
    <path d="M 70.462045 29.735701 
L 77.425864 30.328941 
L 84.389682 30.952093 
L 91.3535 31.598427 
L 98.317318 32.260965 
L 105.281136 32.932692 
L 112.244955 33.606656 
L 119.208773 34.276126 
L 126.172591 34.934765 
L 133.136409 35.576727 
L 140.100227 36.196784 
L 147.064045 36.790387 
L 154.027864 37.353705 
L 160.991682 37.88364 
L 167.9555 38.377786 
L 174.919318 38.834403 
L 181.883136 39.252322 
L 188.846955 39.630879 
L 195.810773 39.969817 
L 202.774591 40.269207 
L 209.738409 40.529345 
L 216.702227 40.750676 
L 223.666045 40.933736 
L 230.629864 41.079067 
L 237.593682 41.187182 
L 244.5575 41.258527 
L 251.521318 41.293434 
L 258.485136 41.292125 
L 265.448955 41.25469 
L 272.412773 41.1811 
L 279.376591 41.071207 
L 286.340409 40.924771 
L 293.304227 40.741491 
L 300.268045 40.521038 
L 307.231864 40.263104 
L 314.195682 39.96745 
L 321.1595 39.633964 
L 328.123318 39.262707 
L 335.087136 38.853984 
L 342.050955 38.408383 
L 349.014773 37.926806 
L 355.978591 37.410506 
L 362.942409 36.861093 
L 369.906227 36.280501 
L 376.870045 35.670965 
L 383.833864 35.034948 
L 390.797682 34.37504 
L 397.7615 33.693882 
L 404.725318 32.994008 
L 411.689136 32.277745 
L 418.652955 31.547074 
" clip-path="url(#pbeea00dae5)" style="fill: none; stroke: #dc143c; stroke-width: 1.5; stroke-linecap: square"/>
   </g>
   <g id="line2d_2">
    <path d="M 70.462045 20.755121 
L 77.425864 20.161881 
L 84.389682 19.538729 
L 91.3535 18.892395 
L 98.317318 18.229856 
L 105.281136 17.55813 
L 112.244955 16.884166 
L 119.208773 16.214696 
L 126.172591 15.556057 
L 133.136409 14.914095 
L 140.100227 14.294038 
L 147.064045 13.700435 
L 154.027864 13.137117 
L 160.991682 12.607182 
L 167.9555 12.113035 
L 174.919318 11.656419 
L 181.883136 11.2385 
L 188.846955 10.859943 
L 195.810773 10.521004 
L 202.774591 10.221615 
L 209.738409 9.961477 
L 216.702227 9.740145 
L 223.666045 9.557086 
L 230.629864 9.411755 
L 237.593682 9.30364 
L 244.5575 9.232295 
L 251.521318 9.197388 
L 258.485136 9.198696 
L 265.448955 9.236131 
L 272.412773 9.309722 
L 279.376591 9.419615 
L 286.340409 9.56605 
L 293.304227 9.74933 
L 300.268045 9.969784 
L 307.231864 10.227717 
L 314.195682 10.523372 
L 321.1595 10.856858 
L 328.123318 11.228114 
L 335.087136 11.636838 
L 342.050955 12.082438 
L 349.014773 12.564015 
L 355.978591 13.080316 
L 362.942409 13.629729 
L 369.906227 14.21032 
L 376.870045 14.819857 
L 383.833864 15.455874 
L 390.797682 16.115782 
L 397.7615 16.796939 
L 404.725318 17.496813 
L 411.689136 18.213077 
L 418.652955 18.943748 
" clip-path="url(#pbeea00dae5)" style="fill: none; stroke: #000080; stroke-width: 1.5; stroke-linecap: square"/>
   </g>
  </g>
  <g id="axes_2">
   <g id="patch_3">
    <path d="M 53.0525 163.911267 
L 436.0625 163.911267 
L 436.0625 76.026199 
L 53.0525 76.026199 
z
" style="fill: #ffffff"/>
   </g>
   <g id="PathCollection_1">
    <defs>
     <path id="m6a21804e5d" d="M 0 0.866025 
C 0.229673 0.866025 0.449969 0.774776 0.612372 0.612372 
C 0.774776 0.449969 0.866025 0.229673 0.866025 0 
C 0.866025 -0.229673 0.774776 -0.449969 0.612372 -0.612372 
C 0.449969 -0.774776 0.229673 -0.866025 0 -0.866025 
C -0.229673 -0.866025 -0.449969 -0.774776 -0.612372 -0.612372 
C -0.774776 -0.449969 -0.866025 -0.229673 -0.866025 0 
C -0.866025 0.229673 -0.774776 0.449969 -0.612372 0.612372 
C -0.449969 0.774776 -0.229673 0.866025 0 0.866025 
z
" style="stroke: #daa520"/>
    </defs>
    <g clip-path="url(#p4d78f70e78)">
     <use xlink:href="#m6a21804e5d" x="121.768106" y="114.061518" style="fill: #daa520; stroke: #daa520"/>
     <use xlink:href="#m6a21804e5d" x="215.653275" y="126.582795" style="fill: #daa520; stroke: #daa520"/>
     <use xlink:href="#m6a21804e5d" x="416.315904" y="108.351467" style="fill: #daa520; stroke: #daa520"/>
     <use xlink:href="#m6a21804e5d" x="93.581555" y="97.88411" style="fill: #daa520; stroke: #daa520"/>
     <use xlink:href="#m6a21804e5d" x="362.340563" y="108.442816" style="fill: #daa520; stroke: #daa520"/>
     <use xlink:href="#m6a21804e5d" x="166.261848" y="133.914831" style="fill: #daa520; stroke: #daa520"/>
     <use xlink:href="#m6a21804e5d" x="400.451152" y="115.092376" style="fill: #daa520; stroke: #daa520"/>
     <use xlink:href="#m6a21804e5d" x="343.999187" y="139.212688" style="fill: #daa520; stroke: #daa520"/>
     <use xlink:href="#m6a21804e5d" x="401.787216" y="111.510693" style="fill: #daa520; stroke: #daa520"/>
     <use xlink:href="#m6a21804e5d" x="373.706787" y="130.952818" style="fill: #daa520; stroke: #daa520"/>
     <use xlink:href="#m6a21804e5d" x="175.584562" y="137.345954" style="fill: #daa520; stroke: #daa520"/>
     <use xlink:href="#m6a21804e5d" x="74.006726" y="80.020975" style="fill: #daa520; stroke: #daa520"/>
     <use xlink:href="#m6a21804e5d" x="158.778455" y="147.990936" style="fill: #daa520; stroke: #daa520"/>
     <use xlink:href="#m6a21804e5d" x="146.86478" y="144.37544" style="fill: #daa520; stroke: #daa520"/>
     <use xlink:href="#m6a21804e5d" x="107.791934" y="107.91955" style="fill: #daa520; stroke: #daa520"/>
     <use xlink:href="#m6a21804e5d" x="93.189849" y="99.070816" style="fill: #daa520; stroke: #daa520"/>
     <use xlink:href="#m6a21804e5d" x="100.139062" y="120.840408" style="fill: #daa520; stroke: #daa520"/>
     <use xlink:href="#m6a21804e5d" x="136.977559" y="154.733016" style="fill: #daa520; stroke: #daa520"/>
     <use xlink:href="#m6a21804e5d" x="222.729739" y="129.402796" style="fill: #daa520; stroke: #daa520"/>
     <use xlink:href="#m6a21804e5d" x="114.259425" y="109.485464" style="fill: #daa520; stroke: #daa520"/>
     <use xlink:href="#m6a21804e5d" x="150.03958" y="129.985205" style="fill: #daa520; stroke: #daa520"/>
     <use xlink:href="#m6a21804e5d" x="158.413435" y="124.113061" style="fill: #daa520; stroke: #daa520"/>
     <use xlink:href="#m6a21804e5d" x="282.587033" y="139.155595" style="fill: #daa520; stroke: #daa520"/>
     <use xlink:href="#m6a21804e5d" x="120.016639" y="101.265513" style="fill: #daa520; stroke: #daa520"/>
     <use xlink:href="#m6a21804e5d" x="327.187436" y="139.440829" style="fill: #daa520; stroke: #daa520"/>
     <use xlink:href="#m6a21804e5d" x="286.151464" y="158.89484" style="fill: #daa520; stroke: #daa520"/>
     <use xlink:href="#m6a21804e5d" x="265.459342" y="147.765766" style="fill: #daa520; stroke: #daa520"/>
     <use xlink:href="#m6a21804e5d" x="230.742029" y="137.186205" style="fill: #daa520; stroke: #daa520"/>
     <use xlink:href="#m6a21804e5d" x="171.344322" y="105.360719" style="fill: #daa520; stroke: #daa520"/>
     <use xlink:href="#m6a21804e5d" x="336.509436" y="139.349117" style="fill: #daa520; stroke: #daa520"/>
     <use xlink:href="#m6a21804e5d" x="315.769193" y="145.639068" style="fill: #daa520; stroke: #daa520"/>
     <use xlink:href="#m6a21804e5d" x="180.292847" y="134.8852" style="fill: #daa520; stroke: #daa520"/>
     <use xlink:href="#m6a21804e5d" x="107.453533" y="127.45224" style="fill: #daa520; stroke: #daa520"/>
     <use xlink:href="#m6a21804e5d" x="331.979311" y="128.15094" style="fill: #daa520; stroke: #daa520"/>
     <use xlink:href="#m6a21804e5d" x="335.62537" y="127.141311" style="fill: #daa520; stroke: #daa520"/>
     <use xlink:href="#m6a21804e5d" x="224.275106" y="133.40107" style="fill: #daa520; stroke: #daa520"/>
     <use xlink:href="#m6a21804e5d" x="103.687767" y="127.701623" style="fill: #daa520; stroke: #daa520"/>
     <use xlink:href="#m6a21804e5d" x="321.467868" y="120.435945" style="fill: #daa520; stroke: #daa520"/>
     <use xlink:href="#m6a21804e5d" x="286.234088" y="147.515966" style="fill: #daa520; stroke: #daa520"/>
     <use xlink:href="#m6a21804e5d" x="334.697288" y="113.304484" style="fill: #daa520; stroke: #daa520"/>
     <use xlink:href="#m6a21804e5d" x="280.638093" y="157.54623" style="fill: #daa520; stroke: #daa520"/>
     <use xlink:href="#m6a21804e5d" x="418.288965" y="107.953178" style="fill: #daa520; stroke: #daa520"/>
     <use xlink:href="#m6a21804e5d" x="403.589356" y="129.007976" style="fill: #daa520; stroke: #daa520"/>
     <use xlink:href="#m6a21804e5d" x="244.214881" y="114.367031" style="fill: #daa520; stroke: #daa520"/>
     <use xlink:href="#m6a21804e5d" x="282.289005" y="153.522919" style="fill: #daa520; stroke: #daa520"/>
     <use xlink:href="#m6a21804e5d" x="384.386369" y="116.160933" style="fill: #daa520; stroke: #daa520"/>
     <use xlink:href="#m6a21804e5d" x="183.063693" y="132.267185" style="fill: #daa520; stroke: #daa520"/>
     <use xlink:href="#m6a21804e5d" x="185.005568" y="133.34777" style="fill: #daa520; stroke: #daa520"/>
     <use xlink:href="#m6a21804e5d" x="231.972648" y="127.587479" style="fill: #daa520; stroke: #daa520"/>
     <use xlink:href="#m6a21804e5d" x="172.229289" y="138.061833" style="fill: #daa520; stroke: #daa520"/>
     <use xlink:href="#m6a21804e5d" x="280.49873" y="158.431957" style="fill: #daa520; stroke: #daa520"/>
     <use xlink:href="#m6a21804e5d" x="418.310782" y="108.018195" style="fill: #daa520; stroke: #daa520"/>
     <use xlink:href="#m6a21804e5d" x="225.799359" y="96.781319" style="fill: #daa520; stroke: #daa520"/>
     <use xlink:href="#m6a21804e5d" x="203.987107" y="136.945029" style="fill: #daa520; stroke: #daa520"/>
     <use xlink:href="#m6a21804e5d" x="307.268411" y="106.641511" style="fill: #daa520; stroke: #daa520"/>
     <use xlink:href="#m6a21804e5d" x="287.943676" y="159.916491" style="fill: #daa520; stroke: #daa520"/>
     <use xlink:href="#m6a21804e5d" x="80.550283" y="92.750812" style="fill: #daa520; stroke: #daa520"/>
     <use xlink:href="#m6a21804e5d" x="91.28931" y="113.325394" style="fill: #daa520; stroke: #daa520"/>
     <use xlink:href="#m6a21804e5d" x="299.01625" y="100.085757" style="fill: #daa520; stroke: #daa520"/>
     <use xlink:href="#m6a21804e5d" x="106.868211" y="117.341351" style="fill: #daa520; stroke: #daa520"/>
     <use xlink:href="#m6a21804e5d" x="388.712267" y="116.867169" style="fill: #daa520; stroke: #daa520"/>
     <use xlink:href="#m6a21804e5d" x="319.149374" y="131.418373" style="fill: #daa520; stroke: #daa520"/>
     <use xlink:href="#m6a21804e5d" x="257.923742" y="123.127543" style="fill: #daa520; stroke: #daa520"/>
     <use xlink:href="#m6a21804e5d" x="227.967018" y="131.884066" style="fill: #daa520; stroke: #daa520"/>
     <use xlink:href="#m6a21804e5d" x="259.119111" y="91.368425" style="fill: #daa520; stroke: #daa520"/>
     <use xlink:href="#m6a21804e5d" x="173.736261" y="135.693391" style="fill: #daa520; stroke: #daa520"/>
     <use xlink:href="#m6a21804e5d" x="194.751534" y="123.68689" style="fill: #daa520; stroke: #daa520"/>
     <use xlink:href="#m6a21804e5d" x="313.447094" y="149.743814" style="fill: #daa520; stroke: #daa520"/>
     <use xlink:href="#m6a21804e5d" x="220.035321" y="101.118565" style="fill: #daa520; stroke: #daa520"/>
     <use xlink:href="#m6a21804e5d" x="338.807676" y="131.257792" style="fill: #daa520; stroke: #daa520"/>
     <use xlink:href="#m6a21804e5d" x="417.201712" y="126.270652" style="fill: #daa520; stroke: #daa520"/>
     <use xlink:href="#m6a21804e5d" x="136.865997" y="128.867436" style="fill: #daa520; stroke: #daa520"/>
     <use xlink:href="#m6a21804e5d" x="253.702059" y="105.631631" style="fill: #daa520; stroke: #daa520"/>
     <use xlink:href="#m6a21804e5d" x="368.022706" y="134.251776" style="fill: #daa520; stroke: #daa520"/>
     <use xlink:href="#m6a21804e5d" x="152.180071" y="119.803552" style="fill: #daa520; stroke: #daa520"/>
     <use xlink:href="#m6a21804e5d" x="334.434597" y="137.134457" style="fill: #daa520; stroke: #daa520"/>
     <use xlink:href="#m6a21804e5d" x="328.042323" y="109.031481" style="fill: #daa520; stroke: #daa520"/>
     <use xlink:href="#m6a21804e5d" x="366.308546" y="115.029657" style="fill: #daa520; stroke: #daa520"/>
     <use xlink:href="#m6a21804e5d" x="383.082682" y="115.991515" style="fill: #daa520; stroke: #daa520"/>
     <use xlink:href="#m6a21804e5d" x="162.135809" y="121.455656" style="fill: #daa520; stroke: #daa520"/>
     <use xlink:href="#m6a21804e5d" x="133.90123" y="118.327148" style="fill: #daa520; stroke: #daa520"/>
     <use xlink:href="#m6a21804e5d" x="405.994358" y="134.94242" style="fill: #daa520; stroke: #daa520"/>
     <use xlink:href="#m6a21804e5d" x="407.570447" y="111.214064" style="fill: #daa520; stroke: #daa520"/>
     <use xlink:href="#m6a21804e5d" x="293.609478" y="158.630046" style="fill: #daa520; stroke: #daa520"/>
     <use xlink:href="#m6a21804e5d" x="207.481593" y="132.680369" style="fill: #daa520; stroke: #daa520"/>
     <use xlink:href="#m6a21804e5d" x="78.042622" y="93.559697" style="fill: #daa520; stroke: #daa520"/>
     <use xlink:href="#m6a21804e5d" x="101.632287" y="127.703278" style="fill: #daa520; stroke: #daa520"/>
     <use xlink:href="#m6a21804e5d" x="71.944689" y="83.053736" style="fill: #daa520; stroke: #daa520"/>
     <use xlink:href="#m6a21804e5d" x="308.497927" y="149.092787" style="fill: #daa520; stroke: #daa520"/>
     <use xlink:href="#m6a21804e5d" x="159.975686" y="139.31905" style="fill: #daa520; stroke: #daa520"/>
     <use xlink:href="#m6a21804e5d" x="348.482185" y="124.613101" style="fill: #daa520; stroke: #daa520"/>
     <use xlink:href="#m6a21804e5d" x="392.709317" y="117.507893" style="fill: #daa520; stroke: #daa520"/>
     <use xlink:href="#m6a21804e5d" x="277.130298" y="147.20788" style="fill: #daa520; stroke: #daa520"/>
     <use xlink:href="#m6a21804e5d" x="416.518857" y="113.21022" style="fill: #daa520; stroke: #daa520"/>
     <use xlink:href="#m6a21804e5d" x="405.153462" y="130.518706" style="fill: #daa520; stroke: #daa520"/>
    </g>
   </g>
   <g id="matplotlib.axis_3"/>
   <g id="matplotlib.axis_4">
    <g id="ytick_1">
     <g id="line2d_3">
      <defs>
       <path id="m3a9390dc31" d="M 0 0 
L -3.5 0 
" style="stroke: #696969; stroke-width: 0.8"/>
      </defs>
      <g>
       <use xlink:href="#m3a9390dc31" x="53.0525" y="162.791826" style="fill: #696969; stroke: #696969; stroke-width: 0.8"/>
      </g>
     </g>
     <g id="text_1">
      <!-- −5 -->
      <g style="fill: #696969" transform="translate(22.465 168.870576) scale(0.16 -0.16)">
       <defs>
        <path id="DejaVuSans-2212" d="M 678 2272 
L 4684 2272 
L 4684 1741 
L 678 1741 
L 678 2272 
z
" transform="scale(0.015625)"/>
        <path id="DejaVuSans-35" d="M 691 4666 
L 3169 4666 
L 3169 4134 
L 1269 4134 
L 1269 2991 
Q 1406 3038 1543 3061 
Q 1681 3084 1819 3084 
Q 2600 3084 3056 2656 
Q 3513 2228 3513 1497 
Q 3513 744 3044 326 
Q 2575 -91 1722 -91 
Q 1428 -91 1123 -41 
Q 819 9 494 109 
L 494 744 
Q 775 591 1075 516 
Q 1375 441 1709 441 
Q 2250 441 2565 725 
Q 2881 1009 2881 1497 
Q 2881 1984 2565 2268 
Q 2250 2553 1709 2553 
Q 1456 2553 1204 2497 
Q 953 2441 691 2322 
L 691 4666 
z
" transform="scale(0.015625)"/>
       </defs>
       <use xlink:href="#DejaVuSans-2212"/>
       <use xlink:href="#DejaVuSans-35" x="83.789062"/>
      </g>
     </g>
    </g>
    <g id="ytick_2">
     <g id="line2d_4">
      <g>
       <use xlink:href="#m3a9390dc31" x="53.0525" y="124.605235" style="fill: #696969; stroke: #696969; stroke-width: 0.8"/>
      </g>
     </g>
     <g id="text_2">
      <!-- 0 -->
      <g style="fill: #696969" transform="translate(35.8725 130.683985) scale(0.16 -0.16)">
       <defs>
        <path id="DejaVuSans-30" d="M 2034 4250 
Q 1547 4250 1301 3770 
Q 1056 3291 1056 2328 
Q 1056 1369 1301 889 
Q 1547 409 2034 409 
Q 2525 409 2770 889 
Q 3016 1369 3016 2328 
Q 3016 3291 2770 3770 
Q 2525 4250 2034 4250 
z
M 2034 4750 
Q 2819 4750 3233 4129 
Q 3647 3509 3647 2328 
Q 3647 1150 3233 529 
Q 2819 -91 2034 -91 
Q 1250 -91 836 529 
Q 422 1150 422 2328 
Q 422 3509 836 4129 
Q 1250 4750 2034 4750 
z
" transform="scale(0.015625)"/>
       </defs>
       <use xlink:href="#DejaVuSans-30"/>
      </g>
     </g>
    </g>
    <g id="ytick_3">
     <g id="line2d_5">
      <g>
       <use xlink:href="#m3a9390dc31" x="53.0525" y="86.418645" style="fill: #696969; stroke: #696969; stroke-width: 0.8"/>
      </g>
     </g>
     <g id="text_3">
      <!-- 5 -->
      <g style="fill: #696969" transform="translate(35.8725 92.497395) scale(0.16 -0.16)">
       <use xlink:href="#DejaVuSans-35"/>
      </g>
     </g>
    </g>
   </g>
   <g id="line2d_6">
    <path d="M 70.462045 85.157277 
L 77.425864 90.176087 
L 84.389682 96.297739 
L 91.3535 102.87617 
L 98.317318 109.438661 
L 105.281136 115.711968 
L 112.244955 121.523351 
L 119.208773 126.671078 
L 126.172591 130.865286 
L 133.136409 133.778953 
L 140.100227 135.171175 
L 147.064045 135.005664 
L 154.027864 133.502163 
L 160.991682 131.102246 
L 167.9555 128.36784 
L 174.919318 125.846088 
L 181.883136 123.935816 
L 188.846955 122.791016 
L 195.810773 122.294773 
L 202.774591 122.122478 
L 209.738409 121.881942 
L 216.702227 121.282026 
L 223.666045 120.261497 
L 230.629864 119.022041 
L 237.593682 117.949912 
L 244.5575 117.459565 
L 251.521318 117.825421 
L 258.485136 119.069966 
L 265.448955 120.950422 
L 272.412773 123.045903 
L 279.376591 124.908647 
L 286.340409 126.218833 
L 293.304227 126.880335 
L 300.268045 127.017118 
L 307.231864 126.872915 
L 314.195682 126.664222 
L 321.1595 126.464712 
L 328.123318 126.18621 
L 335.087136 125.667076 
L 342.050955 124.810893 
L 349.014773 123.681728 
L 355.978591 122.487321 
L 362.942409 121.457378 
L 369.906227 120.699484 
L 376.870045 120.133891 
L 383.833864 119.554925 
L 390.797682 118.77848 
L 397.7615 117.775956 
L 404.725318 116.705031 
L 411.689136 115.816702 
L 418.652955 115.297412 
" clip-path="url(#p4d78f70e78)" style="fill: none; stroke: #000000; stroke-width: 2; stroke-linecap: square"/>
   </g>
   <g id="line2d_7">
    <path d="M 70.462045 84.827415 
L 77.425864 93.326322 
L 84.389682 100.386941 
L 91.3535 106.229286 
L 98.317318 111.044826 
L 105.281136 114.999418 
L 112.244955 118.236027 
L 119.208773 120.877235 
L 126.172591 123.027567 
L 133.136409 124.775613 
L 140.100227 126.195981 
L 147.064045 127.35107 
L 154.027864 128.292679 
L 160.991682 129.063463 
L 167.9555 129.698236 
L 174.919318 130.225135 
L 181.883136 130.666647 
L 188.846955 131.040519 
L 195.810773 131.360542 
L 202.774591 131.637232 
L 209.738409 131.878407 
L 216.702227 132.089671 
L 223.666045 132.274814 
L 230.629864 132.436133 
L 237.593682 132.574683 
L 244.5575 132.690474 
L 251.521318 132.782602 
L 258.485136 132.849345 
L 265.448955 132.888217 
L 272.412773 132.895995 
L 279.376591 132.868721 
L 286.340409 132.801694 
L 293.304227 132.689453 
L 300.268045 132.525767 
L 307.231864 132.30363 
L 314.195682 132.015281 
L 321.1595 131.652241 
L 328.123318 131.205394 
L 335.087136 130.665104 
L 342.050955 130.021384 
L 349.014773 129.264125 
L 355.978591 128.383388 
L 362.942409 127.369772 
L 369.906227 126.214862 
L 376.870045 124.911772 
L 383.833864 123.455783 
L 390.797682 121.845082 
L 397.7615 120.081624 
L 404.725318 118.172111 
L 411.689136 116.129101 
L 418.652955 113.972256 
" clip-path="url(#p4d78f70e78)" style="fill: none; stroke-dasharray: 7.4,3.2; stroke-dashoffset: 0; stroke: #34b6c6; stroke-width: 2"/>
   </g>
   <g id="line2d_8">
    <path d="M 70.462045 85.488801 
L 77.425864 90.217803 
L 84.389682 96.599231 
L 91.3535 102.607835 
L 98.317318 108.185724 
L 105.281136 114.098713 
L 112.244955 120.174487 
L 119.208773 125.653164 
L 126.172591 129.597634 
L 133.136409 131.926203 
L 140.100227 133.246972 
L 147.064045 133.985764 
L 154.027864 134.16752 
L 160.991682 133.336341 
L 167.9555 131.181301 
L 174.919318 129.263322 
L 181.883136 128.461676 
L 188.846955 128.228848 
L 195.810773 128.212175 
L 202.774591 128.256608 
L 209.738409 128.24522 
L 216.702227 128.068867 
L 223.666045 127.687176 
L 230.629864 127.245912 
L 237.593682 127.027009 
L 244.5575 127.202563 
L 251.521318 127.796288 
L 258.485136 128.814282 
L 265.448955 130.216582 
L 272.412773 131.746337 
L 279.376591 133.01504 
L 286.340409 133.83837 
L 293.304227 134.265455 
L 300.268045 134.40218 
L 307.231864 134.325216 
L 314.195682 134.075938 
L 321.1595 133.67167 
L 328.123318 133.114318 
L 335.087136 132.395141 
L 342.050955 131.498176 
L 349.014773 130.405205 
L 355.978591 129.104821 
L 362.942409 127.605574 
L 369.906227 125.946661 
L 376.870045 124.194393 
L 383.833864 122.420865 
L 390.797682 120.679865 
L 397.7615 118.997864 
L 404.725318 117.380772 
L 411.689136 115.825628 
L 418.652955 114.329623 
" clip-path="url(#p4d78f70e78)" style="fill: none; stroke-dasharray: 7.4,3.2; stroke-dashoffset: 0; stroke: #9370db; stroke-width: 2"/>
   </g>
   <g id="line2d_9">
    <path d="M 70.462045 87.052137 
L 77.425864 91.094802 
L 84.389682 97.478102 
L 91.3535 103.570127 
L 98.317318 109.266987 
L 105.281136 115.525689 
L 112.244955 122.104391 
L 119.208773 128.011403 
L 126.172591 132.030879 
L 133.136409 134.046529 
L 140.100227 134.828864 
L 147.064045 134.916612 
L 154.027864 134.336107 
L 160.991682 132.498499 
L 167.9555 129.00199 
L 174.919318 125.845977 
L 181.883136 124.156588 
L 188.846955 123.231069 
L 195.810773 122.617061 
L 202.774591 122.116062 
L 209.738409 121.578834 
L 216.702227 120.866449 
L 223.666045 119.928464 
L 230.629864 118.953381 
L 237.593682 118.304572 
L 244.5575 118.20481 
L 251.521318 118.686856 
L 258.485136 119.761134 
L 265.448955 121.37926 
L 272.412773 123.214996 
L 279.376591 124.773541 
L 286.340409 125.822156 
L 293.304227 126.42768 
L 300.268045 126.72992 
L 307.231864 126.831375 
L 314.195682 126.789367 
L 321.1595 126.630389 
L 328.123318 126.361064 
L 335.087136 125.97414 
L 342.050955 125.45273 
L 349.014773 124.776498 
L 355.978591 123.933071 
L 362.942409 122.934644 
L 369.906227 121.831417 
L 376.870045 120.706729 
L 383.833864 119.649352 
L 390.797682 118.722186 
L 397.7615 117.950262 
L 404.725318 117.328894 
L 411.689136 116.83812 
L 418.652955 116.453667 
" clip-path="url(#p4d78f70e78)" style="fill: none; stroke-dasharray: 12.8,3.2,2,3.2; stroke-dashoffset: 0; stroke: #ff0000; stroke-width: 2"/>
   </g>
   <g id="patch_4">
    <path d="M 53.0525 163.911267 
L 53.0525 76.026199 
" style="fill: none; stroke: #000000; stroke-width: 0.8; stroke-linejoin: miter; stroke-linecap: square"/>
   </g>
   <g id="patch_5">
    <path d="M 436.0625 163.911267 
L 436.0625 76.026199 
" style="fill: none; stroke: #000000; stroke-width: 0.8; stroke-linejoin: miter; stroke-linecap: square"/>
   </g>
   <g id="patch_6">
    <path d="M 53.0525 163.911267 
L 436.0625 163.911267 
" style="fill: none; stroke: #000000; stroke-width: 0.8; stroke-linejoin: miter; stroke-linecap: square"/>
   </g>
   <g id="patch_7">
    <path d="M 53.0525 76.026199 
L 436.0625 76.026199 
" style="fill: none; stroke: #000000; stroke-width: 0.8; stroke-linejoin: miter; stroke-linecap: square"/>
   </g>
  </g>
  <g id="axes_3">
   <g id="patch_8">
    <path d="M 53.0525 276.68 
L 436.0625 276.68 
L 436.0625 188.794932 
L 53.0525 188.794932 
z
" style="fill: #ffffff"/>
   </g>
   <g id="PathCollection_2">
    <g clip-path="url(#p5b9a625ed8)">
     <use xlink:href="#m6a21804e5d" x="121.768106" y="256.265457" style="fill: #daa520; stroke: #daa520"/>
     <use xlink:href="#m6a21804e5d" x="215.653275" y="229.035383" style="fill: #daa520; stroke: #daa520"/>
     <use xlink:href="#m6a21804e5d" x="416.315904" y="246.711789" style="fill: #daa520; stroke: #daa520"/>
     <use xlink:href="#m6a21804e5d" x="93.581555" y="245.76976" style="fill: #daa520; stroke: #daa520"/>
     <use xlink:href="#m6a21804e5d" x="362.340563" y="254.852742" style="fill: #daa520; stroke: #daa520"/>
     <use xlink:href="#m6a21804e5d" x="166.261848" y="231.095026" style="fill: #daa520; stroke: #daa520"/>
     <use xlink:href="#m6a21804e5d" x="400.451152" y="239.520898" style="fill: #daa520; stroke: #daa520"/>
     <use xlink:href="#m6a21804e5d" x="343.999187" y="218.365374" style="fill: #daa520; stroke: #daa520"/>
     <use xlink:href="#m6a21804e5d" x="401.787216" y="243.950852" style="fill: #daa520; stroke: #daa520"/>
     <use xlink:href="#m6a21804e5d" x="373.706787" y="223.732055" style="fill: #daa520; stroke: #daa520"/>
     <use xlink:href="#m6a21804e5d" x="175.584562" y="221.20105" style="fill: #daa520; stroke: #daa520"/>
     <use xlink:href="#m6a21804e5d" x="74.006726" y="247.3572" style="fill: #daa520; stroke: #daa520"/>
     <use xlink:href="#m6a21804e5d" x="158.778455" y="217.364114" style="fill: #daa520; stroke: #daa520"/>
     <use xlink:href="#m6a21804e5d" x="146.86478" y="224.097088" style="fill: #daa520; stroke: #daa520"/>
     <use xlink:href="#m6a21804e5d" x="107.791934" y="248.964129" style="fill: #daa520; stroke: #daa520"/>
     <use xlink:href="#m6a21804e5d" x="93.189849" y="243.847654" style="fill: #daa520; stroke: #daa520"/>
     <use xlink:href="#m6a21804e5d" x="100.139062" y="223.397448" style="fill: #daa520; stroke: #daa520"/>
     <use xlink:href="#m6a21804e5d" x="136.977559" y="210.412352" style="fill: #daa520; stroke: #daa520"/>
     <use xlink:href="#m6a21804e5d" x="222.729739" y="224.24332" style="fill: #daa520; stroke: #daa520"/>
     <use xlink:href="#m6a21804e5d" x="114.259425" y="254.688709" style="fill: #daa520; stroke: #daa520"/>
     <use xlink:href="#m6a21804e5d" x="150.03958" y="242.314121" style="fill: #daa520; stroke: #daa520"/>
     <use xlink:href="#m6a21804e5d" x="158.413435" y="248.056558" style="fill: #daa520; stroke: #daa520"/>
     <use xlink:href="#m6a21804e5d" x="282.587033" y="218.490297" style="fill: #daa520; stroke: #daa520"/>
     <use xlink:href="#m6a21804e5d" x="120.016639" y="271.157255" style="fill: #daa520; stroke: #daa520"/>
     <use xlink:href="#m6a21804e5d" x="327.187436" y="219.511501" style="fill: #daa520; stroke: #daa520"/>
     <use xlink:href="#m6a21804e5d" x="286.151464" y="193.846934" style="fill: #daa520; stroke: #daa520"/>
     <use xlink:href="#m6a21804e5d" x="265.459342" y="202.433728" style="fill: #daa520; stroke: #daa520"/>
     <use xlink:href="#m6a21804e5d" x="230.742029" y="212.845363" style="fill: #daa520; stroke: #daa520"/>
     <use xlink:href="#m6a21804e5d" x="171.344322" y="264.231605" style="fill: #daa520; stroke: #daa520"/>
     <use xlink:href="#m6a21804e5d" x="336.509436" y="218.95763" style="fill: #daa520; stroke: #daa520"/>
     <use xlink:href="#m6a21804e5d" x="315.769193" y="212.040412" style="fill: #daa520; stroke: #daa520"/>
     <use xlink:href="#m6a21804e5d" x="180.292847" y="222.839437" style="fill: #daa520; stroke: #daa520"/>
     <use xlink:href="#m6a21804e5d" x="107.453533" y="223.559867" style="fill: #daa520; stroke: #daa520"/>
     <use xlink:href="#m6a21804e5d" x="331.979311" y="233.648284" style="fill: #daa520; stroke: #daa520"/>
     <use xlink:href="#m6a21804e5d" x="335.62537" y="234.654344" style="fill: #daa520; stroke: #daa520"/>
     <use xlink:href="#m6a21804e5d" x="224.275106" y="218.84068" style="fill: #daa520; stroke: #daa520"/>
     <use xlink:href="#m6a21804e5d" x="103.687767" y="218.713273" style="fill: #daa520; stroke: #daa520"/>
     <use xlink:href="#m6a21804e5d" x="321.467868" y="244.106667" style="fill: #daa520; stroke: #daa520"/>
     <use xlink:href="#m6a21804e5d" x="286.234088" y="208.419008" style="fill: #daa520; stroke: #daa520"/>
     <use xlink:href="#m6a21804e5d" x="334.697288" y="252.436246" style="fill: #daa520; stroke: #daa520"/>
     <use xlink:href="#m6a21804e5d" x="280.638093" y="194.551202" style="fill: #daa520; stroke: #daa520"/>
     <use xlink:href="#m6a21804e5d" x="418.288965" y="247.092434" style="fill: #daa520; stroke: #daa520"/>
     <use xlink:href="#m6a21804e5d" x="403.589356" y="221.36651" style="fill: #daa520; stroke: #daa520"/>
     <use xlink:href="#m6a21804e5d" x="244.214881" y="241.09231" style="fill: #daa520; stroke: #daa520"/>
     <use xlink:href="#m6a21804e5d" x="282.289005" y="200.047818" style="fill: #daa520; stroke: #daa520"/>
     <use xlink:href="#m6a21804e5d" x="384.386369" y="240.555524" style="fill: #daa520; stroke: #daa520"/>
     <use xlink:href="#m6a21804e5d" x="183.063693" y="225.568646" style="fill: #daa520; stroke: #daa520"/>
     <use xlink:href="#m6a21804e5d" x="185.005568" y="223.827823" style="fill: #daa520; stroke: #daa520"/>
     <use xlink:href="#m6a21804e5d" x="231.972648" y="224.939189" style="fill: #daa520; stroke: #daa520"/>
     <use xlink:href="#m6a21804e5d" x="172.229289" y="221.882728" style="fill: #daa520; stroke: #daa520"/>
     <use xlink:href="#m6a21804e5d" x="280.49873" y="193.386695" style="fill: #daa520; stroke: #daa520"/>
     <use xlink:href="#m6a21804e5d" x="418.310782" y="247.007866" style="fill: #daa520; stroke: #daa520"/>
     <use xlink:href="#m6a21804e5d" x="225.799359" y="265.412836" style="fill: #daa520; stroke: #daa520"/>
     <use xlink:href="#m6a21804e5d" x="203.987107" y="217.107568" style="fill: #daa520; stroke: #daa520"/>
     <use xlink:href="#m6a21804e5d" x="307.268411" y="262.026788" style="fill: #daa520; stroke: #daa520"/>
     <use xlink:href="#m6a21804e5d" x="287.943676" y="192.789708" style="fill: #daa520; stroke: #daa520"/>
     <use xlink:href="#m6a21804e5d" x="80.550283" y="237.552823" style="fill: #daa520; stroke: #daa520"/>
     <use xlink:href="#m6a21804e5d" x="91.28931" y="223.643841" style="fill: #daa520; stroke: #daa520"/>
     <use xlink:href="#m6a21804e5d" x="299.01625" y="270.23754" style="fill: #daa520; stroke: #daa520"/>
     <use xlink:href="#m6a21804e5d" x="106.868211" y="235.786467" style="fill: #daa520; stroke: #daa520"/>
     <use xlink:href="#m6a21804e5d" x="388.712267" y="238.901445" style="fill: #daa520; stroke: #daa520"/>
     <use xlink:href="#m6a21804e5d" x="319.149374" y="230.139666" style="fill: #daa520; stroke: #daa520"/>
     <use xlink:href="#m6a21804e5d" x="257.923742" y="231.746392" style="fill: #daa520; stroke: #daa520"/>
     <use xlink:href="#m6a21804e5d" x="227.967018" y="220.100857" style="fill: #daa520; stroke: #daa520"/>
     <use xlink:href="#m6a21804e5d" x="259.119111" y="272.685224" style="fill: #daa520; stroke: #daa520"/>
     <use xlink:href="#m6a21804e5d" x="173.736261" y="224.132948" style="fill: #daa520; stroke: #daa520"/>
     <use xlink:href="#m6a21804e5d" x="194.751534" y="234.929236" style="fill: #daa520; stroke: #daa520"/>
     <use xlink:href="#m6a21804e5d" x="313.447094" y="206.835043" style="fill: #daa520; stroke: #daa520"/>
     <use xlink:href="#m6a21804e5d" x="220.035321" y="260.91662" style="fill: #daa520; stroke: #daa520"/>
     <use xlink:href="#m6a21804e5d" x="338.807676" y="229.098885" style="fill: #daa520; stroke: #daa520"/>
     <use xlink:href="#m6a21804e5d" x="417.201712" y="223.724445" style="fill: #daa520; stroke: #daa520"/>
     <use xlink:href="#m6a21804e5d" x="136.865997" y="243.493603" style="fill: #daa520; stroke: #daa520"/>
     <use xlink:href="#m6a21804e5d" x="253.702059" y="253.245468" style="fill: #daa520; stroke: #daa520"/>
     <use xlink:href="#m6a21804e5d" x="368.022706" y="220.689997" style="fill: #daa520; stroke: #daa520"/>
     <use xlink:href="#m6a21804e5d" x="152.180071" y="255.095543" style="fill: #daa520; stroke: #daa520"/>
     <use xlink:href="#m6a21804e5d" x="334.434597" y="221.966102" style="fill: #daa520; stroke: #daa520"/>
     <use xlink:href="#m6a21804e5d" x="328.042323" y="258.37163" style="fill: #daa520; stroke: #daa520"/>
     <use xlink:href="#m6a21804e5d" x="366.308546" y="245.636144" style="fill: #daa520; stroke: #daa520"/>
     <use xlink:href="#m6a21804e5d" x="383.082682" y="241.012181" style="fill: #daa520; stroke: #daa520"/>
     <use xlink:href="#m6a21804e5d" x="162.135809" y="249.708116" style="fill: #daa520; stroke: #daa520"/>
     <use xlink:href="#m6a21804e5d" x="133.90123" y="256.475812" style="fill: #daa520; stroke: #daa520"/>
     <use xlink:href="#m6a21804e5d" x="405.994358" y="213.529669" style="fill: #daa520; stroke: #daa520"/>
     <use xlink:href="#m6a21804e5d" x="407.570447" y="243.742051" style="fill: #daa520; stroke: #daa520"/>
     <use xlink:href="#m6a21804e5d" x="293.609478" y="195.012538" style="fill: #daa520; stroke: #daa520"/>
     <use xlink:href="#m6a21804e5d" x="207.481593" y="222.227402" style="fill: #daa520; stroke: #daa520"/>
     <use xlink:href="#m6a21804e5d" x="78.042622" y="233.678057" style="fill: #daa520; stroke: #daa520"/>
     <use xlink:href="#m6a21804e5d" x="101.632287" y="216.312789" style="fill: #daa520; stroke: #daa520"/>
     <use xlink:href="#m6a21804e5d" x="71.944689" y="242.109179" style="fill: #daa520; stroke: #daa520"/>
     <use xlink:href="#m6a21804e5d" x="308.497927" y="207.710965" style="fill: #daa520; stroke: #daa520"/>
     <use xlink:href="#m6a21804e5d" x="159.975686" y="227.954098" style="fill: #daa520; stroke: #daa520"/>
     <use xlink:href="#m6a21804e5d" x="348.482185" y="236.475619" style="fill: #daa520; stroke: #daa520"/>
     <use xlink:href="#m6a21804e5d" x="392.709317" y="237.455419" style="fill: #daa520; stroke: #daa520"/>
     <use xlink:href="#m6a21804e5d" x="277.130298" y="206.911193" style="fill: #daa520; stroke: #daa520"/>
     <use xlink:href="#m6a21804e5d" x="416.518857" y="240.481131" style="fill: #daa520; stroke: #daa520"/>
     <use xlink:href="#m6a21804e5d" x="405.153462" y="219.272863" style="fill: #daa520; stroke: #daa520"/>
    </g>
   </g>
   <g id="matplotlib.axis_5">
    <g id="xtick_1">
     <g id="line2d_10">
      <defs>
       <path id="m768de37bd3" d="M 0 0 
L 0 3.5 
" style="stroke: #696969; stroke-width: 0.8"/>
      </defs>
      <g>
       <use xlink:href="#m768de37bd3" x="70.462045" y="276.68" style="fill: #696969; stroke: #696969; stroke-width: 0.8"/>
      </g>
     </g>
     <g id="text_4">
      <!-- −1.0 -->
      <g style="fill: #696969" transform="translate(51.035795 295.8375) scale(0.16 -0.16)">
       <defs>
        <path id="DejaVuSans-31" d="M 794 531 
L 1825 531 
L 1825 4091 
L 703 3866 
L 703 4441 
L 1819 4666 
L 2450 4666 
L 2450 531 
L 3481 531 
L 3481 0 
L 794 0 
L 794 531 
z
" transform="scale(0.015625)"/>
        <path id="DejaVuSans-2e" d="M 684 794 
L 1344 794 
L 1344 0 
L 684 0 
L 684 794 
z
" transform="scale(0.015625)"/>
       </defs>
       <use xlink:href="#DejaVuSans-2212"/>
       <use xlink:href="#DejaVuSans-31" x="83.789062"/>
       <use xlink:href="#DejaVuSans-2e" x="147.412109"/>
       <use xlink:href="#DejaVuSans-30" x="179.199219"/>
      </g>
     </g>
    </g>
    <g id="xtick_2">
     <g id="line2d_11">
      <g>
       <use xlink:href="#m768de37bd3" x="157.509773" y="276.68" style="fill: #696969; stroke: #696969; stroke-width: 0.8"/>
      </g>
     </g>
     <g id="text_5">
      <!-- −0.5 -->
      <g style="fill: #696969" transform="translate(138.083523 295.8375) scale(0.16 -0.16)">
       <use xlink:href="#DejaVuSans-2212"/>
       <use xlink:href="#DejaVuSans-30" x="83.789062"/>
       <use xlink:href="#DejaVuSans-2e" x="147.412109"/>
       <use xlink:href="#DejaVuSans-35" x="179.199219"/>
      </g>
     </g>
    </g>
    <g id="xtick_3">
     <g id="line2d_12">
      <g>
       <use xlink:href="#m768de37bd3" x="244.5575" y="276.68" style="fill: #696969; stroke: #696969; stroke-width: 0.8"/>
      </g>
     </g>
     <g id="text_6">
      <!-- 0.0 -->
      <g style="fill: #696969" transform="translate(231.835 295.8375) scale(0.16 -0.16)">
       <use xlink:href="#DejaVuSans-30"/>
       <use xlink:href="#DejaVuSans-2e" x="63.623047"/>
       <use xlink:href="#DejaVuSans-30" x="95.410156"/>
      </g>
     </g>
    </g>
    <g id="xtick_4">
     <g id="line2d_13">
      <g>
       <use xlink:href="#m768de37bd3" x="331.605227" y="276.68" style="fill: #696969; stroke: #696969; stroke-width: 0.8"/>
      </g>
     </g>
     <g id="text_7">
      <!-- 0.5 -->
      <g style="fill: #696969" transform="translate(318.882727 295.8375) scale(0.16 -0.16)">
       <use xlink:href="#DejaVuSans-30"/>
       <use xlink:href="#DejaVuSans-2e" x="63.623047"/>
       <use xlink:href="#DejaVuSans-35" x="95.410156"/>
      </g>
     </g>
    </g>
    <g id="xtick_5">
     <g id="line2d_14">
      <g>
       <use xlink:href="#m768de37bd3" x="418.652955" y="276.68" style="fill: #696969; stroke: #696969; stroke-width: 0.8"/>
      </g>
     </g>
     <g id="text_8">
      <!-- 1.0 -->
      <g style="fill: #696969" transform="translate(405.930455 295.8375) scale(0.16 -0.16)">
       <use xlink:href="#DejaVuSans-31"/>
       <use xlink:href="#DejaVuSans-2e" x="63.623047"/>
       <use xlink:href="#DejaVuSans-30" x="95.410156"/>
      </g>
     </g>
    </g>
    <g id="text_9">
     <!-- $X$ -->
     <g transform="translate(239.0375 315.3225) scale(0.16 -0.16)">
      <defs>
       <path id="DejaVuSans-Oblique-58" d="M 878 4666 
L 1516 4666 
L 2316 2981 
L 3763 4666 
L 4500 4666 
L 2578 2438 
L 3738 0 
L 3103 0 
L 2163 1966 
L 459 0 
L -275 0 
L 1906 2509 
L 878 4666 
z
" transform="scale(0.015625)"/>
      </defs>
      <use xlink:href="#DejaVuSans-Oblique-58" transform="translate(0 0.09375)"/>
     </g>
    </g>
   </g>
   <g id="matplotlib.axis_6">
    <g id="ytick_4">
     <g id="line2d_15">
      <g>
       <use xlink:href="#m3a9390dc31" x="53.0525" y="260.623531" style="fill: #696969; stroke: #696969; stroke-width: 0.8"/>
      </g>
     </g>
     <g id="text_10">
      <!-- −2.5 -->
      <g style="fill: #696969" transform="translate(7.2 266.702281) scale(0.16 -0.16)">
       <defs>
        <path id="DejaVuSans-32" d="M 1228 531 
L 3431 531 
L 3431 0 
L 469 0 
L 469 531 
Q 828 903 1448 1529 
Q 2069 2156 2228 2338 
Q 2531 2678 2651 2914 
Q 2772 3150 2772 3378 
Q 2772 3750 2511 3984 
Q 2250 4219 1831 4219 
Q 1534 4219 1204 4116 
Q 875 4013 500 3803 
L 500 4441 
Q 881 4594 1212 4672 
Q 1544 4750 1819 4750 
Q 2544 4750 2975 4387 
Q 3406 4025 3406 3419 
Q 3406 3131 3298 2873 
Q 3191 2616 2906 2266 
Q 2828 2175 2409 1742 
Q 1991 1309 1228 531 
z
" transform="scale(0.015625)"/>
       </defs>
       <use xlink:href="#DejaVuSans-2212"/>
       <use xlink:href="#DejaVuSans-32" x="83.789062"/>
       <use xlink:href="#DejaVuSans-2e" x="147.412109"/>
       <use xlink:href="#DejaVuSans-35" x="179.199219"/>
      </g>
     </g>
    </g>
    <g id="ytick_5">
     <g id="line2d_16">
      <g>
       <use xlink:href="#m3a9390dc31" x="53.0525" y="236.192882" style="fill: #696969; stroke: #696969; stroke-width: 0.8"/>
      </g>
     </g>
     <g id="text_11">
      <!-- 0.0 -->
      <g style="fill: #696969" transform="translate(20.6075 242.271632) scale(0.16 -0.16)">
       <use xlink:href="#DejaVuSans-30"/>
       <use xlink:href="#DejaVuSans-2e" x="63.623047"/>
       <use xlink:href="#DejaVuSans-30" x="95.410156"/>
      </g>
     </g>
    </g>
    <g id="ytick_6">
     <g id="line2d_17">
      <g>
       <use xlink:href="#m3a9390dc31" x="53.0525" y="211.762234" style="fill: #696969; stroke: #696969; stroke-width: 0.8"/>
      </g>
     </g>
     <g id="text_12">
      <!-- 2.5 -->
      <g style="fill: #696969" transform="translate(20.6075 217.840984) scale(0.16 -0.16)">
       <use xlink:href="#DejaVuSans-32"/>
       <use xlink:href="#DejaVuSans-2e" x="63.623047"/>
       <use xlink:href="#DejaVuSans-35" x="95.410156"/>
      </g>
     </g>
    </g>
   </g>
   <g id="line2d_18">
    <path d="M 70.462045 238.617434 
L 77.425864 237.368416 
L 84.389682 237.703205 
L 91.3535 237.080829 
L 98.317318 235.973219 
L 105.281136 235.954531 
L 112.244955 236.936346 
L 119.208773 237.907883 
L 126.172591 237.684306 
L 133.136409 236.535257 
L 140.100227 235.754881 
L 147.064045 236.078937 
L 154.027864 237.259948 
L 160.991682 237.979445 
L 167.9555 237.004304 
L 174.919318 236.192741 
L 181.883136 236.47537 
L 188.846955 236.755948 
L 195.810773 236.605263 
L 202.774591 236.184673 
L 209.738409 235.805043 
L 216.702227 235.661134 
L 223.666045 235.766752 
L 230.629864 236.105029 
L 237.593682 236.646685 
L 244.5575 237.146454 
L 251.521318 237.295124 
L 258.485136 237.07726 
L 265.448955 236.741597 
L 272.412773 236.409244 
L 279.376591 236.020009 
L 286.340409 235.685317 
L 293.304227 235.613692 
L 300.268045 235.825401 
L 307.231864 236.13973 
L 314.195682 236.353011 
L 321.1595 236.404874 
L 328.123318 236.416616 
L 335.087136 236.585783 
L 342.050955 237.014139 
L 349.014773 237.593685 
L 355.978591 238.042778 
L 362.942409 238.083104 
L 369.906227 237.641238 
L 376.870045 236.925852 
L 383.833864 236.313705 
L 390.797682 236.120852 
L 397.7615 236.415913 
L 404.725318 236.991139 
L 411.689136 237.499829 
L 418.652955 237.672359 
" clip-path="url(#p5b9a625ed8)" style="fill: none; stroke: #696969; stroke-width: 2; stroke-linecap: square"/>
   </g>
   <g id="line2d_19">
    <path d="M 70.462045 237.954349 
L 77.425864 238.437804 
L 84.389682 238.685515 
L 91.3535 238.732205 
L 98.317318 238.609081 
L 105.281136 238.344082 
L 112.244955 237.962121 
L 119.208773 237.485329 
L 126.172591 236.933279 
L 133.136409 236.323207 
L 140.100227 235.670232 
L 147.064045 234.987557 
L 154.027864 234.286665 
L 160.991682 233.577511 
L 167.9555 232.868697 
L 174.919318 232.167647 
L 181.883136 231.48076 
L 188.846955 230.813567 
L 195.810773 230.170864 
L 202.774591 229.55685 
L 209.738409 228.975239 
L 216.702227 228.429369 
L 223.666045 227.922302 
L 230.629864 227.456906 
L 237.593682 227.035931 
L 244.5575 226.662068 
L 251.521318 226.337999 
L 258.485136 226.066434 
L 265.448955 225.850137 
L 272.412773 225.69193 
L 279.376591 225.5947 
L 286.340409 225.561374 
L 293.304227 225.594895 
L 300.268045 225.698173 
L 307.231864 225.874032 
L 314.195682 226.125131 
L 321.1595 226.45388 
L 328.123318 226.862335 
L 335.087136 227.352079 
L 342.050955 227.924087 
L 349.014773 228.578577 
L 355.978591 229.314842 
L 362.942409 230.131068 
L 369.906227 231.024132 
L 376.870045 231.989385 
L 383.833864 233.02042 
L 390.797682 234.108818 
L 397.7615 235.243876 
L 404.725318 236.412325 
L 411.689136 237.598018 
L 418.652955 238.781607 
" clip-path="url(#p5b9a625ed8)" style="fill: none; stroke-dasharray: 7.4,3.2; stroke-dashoffset: 0; stroke: #79ad41; stroke-width: 2"/>
   </g>
   <g id="patch_9">
    <path d="M 53.0525 276.68 
L 53.0525 188.794932 
" style="fill: none; stroke: #000000; stroke-width: 0.8; stroke-linejoin: miter; stroke-linecap: square"/>
   </g>
   <g id="patch_10">
    <path d="M 436.0625 276.68 
L 436.0625 188.794932 
" style="fill: none; stroke: #000000; stroke-width: 0.8; stroke-linejoin: miter; stroke-linecap: square"/>
   </g>
   <g id="patch_11">
    <path d="M 53.0525 276.68 
L 436.0625 276.68 
" style="fill: none; stroke: #000000; stroke-width: 0.8; stroke-linejoin: miter; stroke-linecap: square"/>
   </g>
   <g id="patch_12">
    <path d="M 53.0525 188.794932 
L 436.0625 188.794932 
" style="fill: none; stroke: #000000; stroke-width: 0.8; stroke-linejoin: miter; stroke-linecap: square"/>
   </g>
  </g>
 </g>
 <defs>
  <clipPath id="pbeea00dae5">
   <rect x="53.0525" y="7.2" width="383.01" height="43.942534"/>
  </clipPath>
  <clipPath id="p4d78f70e78">
   <rect x="53.0525" y="76.026199" width="383.01" height="87.885068"/>
  </clipPath>
  <clipPath id="p5b9a625ed8">
   <rect x="53.0525" y="188.794932" width="383.01" height="87.885068"/>
  </clipPath>
 </defs>
</svg>
