<?xml version="1.0" encoding="utf-8" standalone="no"?>
<!DOCTYPE svg PUBLIC "-//W3C//DTD SVG 1.1//EN"
  "http://www.w3.org/Graphics/SVG/1.1/DTD/svg11.dtd">
<svg xmlns:xlink="http://www.w3.org/1999/xlink" width="443.2625pt" height="325.85pt" viewBox="0 0 443.2625 325.85" xmlns="http://www.w3.org/2000/svg" version="1.1">
 <metadata>
  <rdf:RDF xmlns:dc="http://purl.org/dc/elements/1.1/" xmlns:cc="http://creativecommons.org/ns#" xmlns:rdf="http://www.w3.org/1999/02/22-rdf-syntax-ns#">
   <cc:Work>
    <dc:type rdf:resource="http://purl.org/dc/dcmitype/StillImage"/>
    <dc:date>2024-01-28T20:53:19.266202</dc:date>
    <dc:format>image/svg+xml</dc:format>
    <dc:creator>
     <cc:Agent>
      <dc:title>Matplotlib v3.7.2, https://matplotlib.org/</dc:title>
     </cc:Agent>
    </dc:creator>
   </cc:Work>
  </rdf:RDF>
 </metadata>
 <defs>
  <style type="text/css">*{stroke-linejoin: round; stroke-linecap: butt}</style>
 </defs>
 <g id="figure_1">
  <g id="patch_1">
   <path d="M 0 325.85 
L 443.2625 325.85 
L 443.2625 0 
L 0 0 
z
" style="fill: #ffffff"/>
  </g>
  <g id="axes_1">
   <g id="patch_2">
    <path d="M 53.0525 54.696 
L 436.0625 54.696 
L 436.0625 7.2 
L 53.0525 7.2 
z
" style="fill: #ffffff"/>
   </g>
   <g id="PolyCollection_1">
    <defs>
     <path id="m9586d3ae16" d="M 70.462045 -273.312909 
L 70.462045 -278.110485 
L 77.425864 -278.110485 
L 84.389682 -278.110485 
L 91.3535 -278.110485 
L 98.317318 -278.110485 
L 105.281136 -278.110485 
L 112.244955 -278.110485 
L 119.208773 -278.110485 
L 126.172591 -278.110485 
L 133.136409 -278.110485 
L 140.100227 -278.110485 
L 147.064045 -278.110485 
L 154.027864 -278.110485 
L 160.991682 -278.110485 
L 167.9555 -278.110485 
L 174.919318 -278.110485 
L 181.883136 -278.110485 
L 188.846955 -278.110485 
L 195.810773 -278.658347 
L 202.774591 -279.69012 
L 209.738409 -280.946834 
L 216.702227 -282.465807 
L 223.666045 -284.28085 
L 230.629864 -286.415657 
L 237.593682 -288.875387 
L 244.5575 -291.637824 
L 251.521318 -294.647055 
L 258.485136 -297.813094 
L 265.448955 -301.020041 
L 272.412773 -304.142182 
L 279.376591 -307.063775 
L 286.340409 -309.696175 
L 293.304227 -311.98717 
L 300.268045 -313.921057 
L 307.231864 -315.511741 
L 314.195682 -316.491091 
L 321.1595 -316.491091 
L 328.123318 -316.491091 
L 335.087136 -316.491091 
L 342.050955 -316.491091 
L 349.014773 -316.491091 
L 355.978591 -316.491091 
L 362.942409 -316.491091 
L 369.906227 -316.491091 
L 376.870045 -316.491091 
L 383.833864 -316.491091 
L 390.797682 -316.491091 
L 397.7615 -316.491091 
L 404.725318 -316.491091 
L 411.689136 -316.491091 
L 418.652955 -316.491091 
L 418.652955 -273.312909 
L 418.652955 -273.312909 
L 411.689136 -273.312909 
L 404.725318 -273.312909 
L 397.7615 -273.312909 
L 390.797682 -273.312909 
L 383.833864 -273.312909 
L 376.870045 -273.312909 
L 369.906227 -273.312909 
L 362.942409 -273.312909 
L 355.978591 -273.312909 
L 349.014773 -273.312909 
L 342.050955 -273.312909 
L 335.087136 -273.312909 
L 328.123318 -273.312909 
L 321.1595 -273.312909 
L 314.195682 -273.312909 
L 307.231864 -273.312909 
L 300.268045 -273.312909 
L 293.304227 -273.312909 
L 286.340409 -273.312909 
L 279.376591 -273.312909 
L 272.412773 -273.312909 
L 265.448955 -273.312909 
L 258.485136 -273.312909 
L 251.521318 -273.312909 
L 244.5575 -273.312909 
L 237.593682 -273.312909 
L 230.629864 -273.312909 
L 223.666045 -273.312909 
L 216.702227 -273.312909 
L 209.738409 -273.312909 
L 202.774591 -273.312909 
L 195.810773 -273.312909 
L 188.846955 -273.312909 
L 181.883136 -273.312909 
L 174.919318 -273.312909 
L 167.9555 -273.312909 
L 160.991682 -273.312909 
L 154.027864 -273.312909 
L 147.064045 -273.312909 
L 140.100227 -273.312909 
L 133.136409 -273.312909 
L 126.172591 -273.312909 
L 119.208773 -273.312909 
L 112.244955 -273.312909 
L 105.281136 -273.312909 
L 98.317318 -273.312909 
L 91.3535 -273.312909 
L 84.389682 -273.312909 
L 77.425864 -273.312909 
L 70.462045 -273.312909 
z
" style="stroke: #dc143c; stroke-opacity: 0.2"/>
    </defs>
    <g clip-path="url(#pb9cb4433cf)">
     <use xlink:href="#m9586d3ae16" x="0" y="325.85" style="fill: #dc143c; fill-opacity: 0.2; stroke: #dc143c; stroke-opacity: 0.2"/>
    </g>
   </g>
   <g id="PolyCollection_2">
    <defs>
     <path id="m3d16eec75f" d="M 70.462045 -273.312909 
L 70.462045 -316.491091 
L 77.425864 -316.491091 
L 84.389682 -316.491091 
L 91.3535 -316.491091 
L 98.317318 -316.491091 
L 105.281136 -316.491091 
L 112.244955 -316.491091 
L 119.208773 -316.491091 
L 126.172591 -316.491091 
L 133.136409 -316.491091 
L 140.100227 -316.491091 
L 147.064045 -316.491091 
L 154.027864 -316.491091 
L 160.991682 -316.491091 
L 167.9555 -316.491091 
L 174.919318 -316.491091 
L 181.883136 -316.491091 
L 188.846955 -316.491091 
L 195.810773 -315.943229 
L 202.774591 -314.911456 
L 209.738409 -313.654742 
L 216.702227 -312.135769 
L 223.666045 -310.320726 
L 230.629864 -308.185919 
L 237.593682 -305.726188 
L 244.5575 -302.963752 
L 251.521318 -299.954521 
L 258.485136 -296.788482 
L 265.448955 -293.581535 
L 272.412773 -290.459394 
L 279.376591 -287.537801 
L 286.340409 -284.905401 
L 293.304227 -282.614406 
L 300.268045 -280.680519 
L 307.231864 -279.089834 
L 314.195682 -278.110485 
L 321.1595 -278.110485 
L 328.123318 -278.110485 
L 335.087136 -278.110485 
L 342.050955 -278.110485 
L 349.014773 -278.110485 
L 355.978591 -278.110485 
L 362.942409 -278.110485 
L 369.906227 -278.110485 
L 376.870045 -278.110485 
L 383.833864 -278.110485 
L 390.797682 -278.110485 
L 397.7615 -278.110485 
L 404.725318 -278.110485 
L 411.689136 -278.110485 
L 418.652955 -278.110485 
L 418.652955 -273.312909 
L 418.652955 -273.312909 
L 411.689136 -273.312909 
L 404.725318 -273.312909 
L 397.7615 -273.312909 
L 390.797682 -273.312909 
L 383.833864 -273.312909 
L 376.870045 -273.312909 
L 369.906227 -273.312909 
L 362.942409 -273.312909 
L 355.978591 -273.312909 
L 349.014773 -273.312909 
L 342.050955 -273.312909 
L 335.087136 -273.312909 
L 328.123318 -273.312909 
L 321.1595 -273.312909 
L 314.195682 -273.312909 
L 307.231864 -273.312909 
L 300.268045 -273.312909 
L 293.304227 -273.312909 
L 286.340409 -273.312909 
L 279.376591 -273.312909 
L 272.412773 -273.312909 
L 265.448955 -273.312909 
L 258.485136 -273.312909 
L 251.521318 -273.312909 
L 244.5575 -273.312909 
L 237.593682 -273.312909 
L 230.629864 -273.312909 
L 223.666045 -273.312909 
L 216.702227 -273.312909 
L 209.738409 -273.312909 
L 202.774591 -273.312909 
L 195.810773 -273.312909 
L 188.846955 -273.312909 
L 181.883136 -273.312909 
L 174.919318 -273.312909 
L 167.9555 -273.312909 
L 160.991682 -273.312909 
L 154.027864 -273.312909 
L 147.064045 -273.312909 
L 140.100227 -273.312909 
L 133.136409 -273.312909 
L 126.172591 -273.312909 
L 119.208773 -273.312909 
L 112.244955 -273.312909 
L 105.281136 -273.312909 
L 98.317318 -273.312909 
L 91.3535 -273.312909 
L 84.389682 -273.312909 
L 77.425864 -273.312909 
L 70.462045 -273.312909 
z
" style="stroke: #000080; stroke-opacity: 0.2"/>
    </defs>
    <g clip-path="url(#pb9cb4433cf)">
     <use xlink:href="#m3d16eec75f" x="0" y="325.85" style="fill: #000080; fill-opacity: 0.2; stroke: #000080; stroke-opacity: 0.2"/>
    </g>
   </g>
   <g id="matplotlib.axis_1"/>
   <g id="matplotlib.axis_2"/>
   <g id="line2d_1">
    <path d="M 70.462045 47.739515 
L 77.425864 47.739515 
L 84.389682 47.739515 
L 91.3535 47.739515 
L 98.317318 47.739515 
L 105.281136 47.739515 
L 112.244955 47.739515 
L 119.208773 47.739515 
L 126.172591 47.739515 
L 133.136409 47.739515 
L 140.100227 47.739515 
L 147.064045 47.739515 
L 154.027864 47.739515 
L 160.991682 47.739515 
L 167.9555 47.739515 
L 174.919318 47.739515 
L 181.883136 47.739515 
L 188.846955 47.739515 
L 195.810773 47.191653 
L 202.774591 46.15988 
L 209.738409 44.903166 
L 216.702227 43.384193 
L 223.666045 41.56915 
L 230.629864 39.434343 
L 237.593682 36.974613 
L 244.5575 34.212176 
L 251.521318 31.202945 
L 258.485136 28.036906 
L 265.448955 24.829959 
L 272.412773 21.707818 
L 279.376591 18.786225 
L 286.340409 16.153825 
L 293.304227 13.86283 
L 300.268045 11.928943 
L 307.231864 10.338259 
L 314.195682 9.358909 
L 321.1595 9.358909 
L 328.123318 9.358909 
L 335.087136 9.358909 
L 342.050955 9.358909 
L 349.014773 9.358909 
L 355.978591 9.358909 
L 362.942409 9.358909 
L 369.906227 9.358909 
L 376.870045 9.358909 
L 383.833864 9.358909 
L 390.797682 9.358909 
L 397.7615 9.358909 
L 404.725318 9.358909 
L 411.689136 9.358909 
L 418.652955 9.358909 
" clip-path="url(#pb9cb4433cf)" style="fill: none; stroke: #dc143c; stroke-width: 1.5; stroke-linecap: square"/>
   </g>
   <g id="line2d_2">
    <path d="M 70.462045 9.358909 
L 77.425864 9.358909 
L 84.389682 9.358909 
L 91.3535 9.358909 
L 98.317318 9.358909 
L 105.281136 9.358909 
L 112.244955 9.358909 
L 119.208773 9.358909 
L 126.172591 9.358909 
L 133.136409 9.358909 
L 140.100227 9.358909 
L 147.064045 9.358909 
L 154.027864 9.358909 
L 160.991682 9.358909 
L 167.9555 9.358909 
L 174.919318 9.358909 
L 181.883136 9.358909 
L 188.846955 9.358909 
L 195.810773 9.906771 
L 202.774591 10.938544 
L 209.738409 12.195258 
L 216.702227 13.714231 
L 223.666045 15.529274 
L 230.629864 17.664081 
L 237.593682 20.123812 
L 244.5575 22.886248 
L 251.521318 25.895479 
L 258.485136 29.061518 
L 265.448955 32.268465 
L 272.412773 35.390606 
L 279.376591 38.312199 
L 286.340409 40.944599 
L 293.304227 43.235594 
L 300.268045 45.169481 
L 307.231864 46.760166 
L 314.195682 47.739515 
L 321.1595 47.739515 
L 328.123318 47.739515 
L 335.087136 47.739515 
L 342.050955 47.739515 
L 349.014773 47.739515 
L 355.978591 47.739515 
L 362.942409 47.739515 
L 369.906227 47.739515 
L 376.870045 47.739515 
L 383.833864 47.739515 
L 390.797682 47.739515 
L 397.7615 47.739515 
L 404.725318 47.739515 
L 411.689136 47.739515 
L 418.652955 47.739515 
" clip-path="url(#pb9cb4433cf)" style="fill: none; stroke: #000080; stroke-width: 1.5; stroke-linecap: square"/>
   </g>
  </g>
  <g id="axes_2">
   <g id="patch_3">
    <path d="M 53.0525 165.688 
L 436.0625 165.688 
L 436.0625 70.696 
L 53.0525 70.696 
z
" style="fill: #ffffff"/>
   </g>
   <g id="PathCollection_1">
    <defs>
     <path id="m7a14f27687" d="M 0 0.866025 
C 0.229673 0.866025 0.449969 0.774776 0.612372 0.612372 
C 0.774776 0.449969 0.866025 0.229673 0.866025 0 
C 0.866025 -0.229673 0.774776 -0.449969 0.612372 -0.612372 
C 0.449969 -0.774776 0.229673 -0.866025 0 -0.866025 
C -0.229673 -0.866025 -0.449969 -0.774776 -0.612372 -0.612372 
C -0.774776 -0.449969 -0.866025 -0.229673 -0.866025 0 
C -0.866025 0.229673 -0.774776 0.449969 -0.612372 0.612372 
C -0.449969 0.774776 -0.229673 0.866025 0 0.866025 
z
" style="stroke: #daa520"/>
    </defs>
    <g clip-path="url(#pe4bd35bc03)">
     <use xlink:href="#m7a14f27687" x="343.832787" y="88.590448" style="fill: #daa520; stroke: #daa520"/>
     <use xlink:href="#m7a14f27687" x="295.720916" y="94.023618" style="fill: #daa520; stroke: #daa520"/>
     <use xlink:href="#m7a14f27687" x="288.842083" y="145.926608" style="fill: #daa520; stroke: #daa520"/>
     <use xlink:href="#m7a14f27687" x="341.377557" y="112.851389" style="fill: #daa520; stroke: #daa520"/>
     <use xlink:href="#m7a14f27687" x="321.494336" y="115.505496" style="fill: #daa520; stroke: #daa520"/>
     <use xlink:href="#m7a14f27687" x="334.244934" y="114.152711" style="fill: #daa520; stroke: #daa520"/>
     <use xlink:href="#m7a14f27687" x="251.774233" y="106.090295" style="fill: #daa520; stroke: #daa520"/>
     <use xlink:href="#m7a14f27687" x="362.202328" y="142.396544" style="fill: #daa520; stroke: #daa520"/>
     <use xlink:href="#m7a14f27687" x="102.410138" y="110.245558" style="fill: #daa520; stroke: #daa520"/>
     <use xlink:href="#m7a14f27687" x="355.542933" y="108.48478" style="fill: #daa520; stroke: #daa520"/>
     <use xlink:href="#m7a14f27687" x="374.143827" y="78.514946" style="fill: #daa520; stroke: #daa520"/>
     <use xlink:href="#m7a14f27687" x="380.709373" y="94.36102" style="fill: #daa520; stroke: #daa520"/>
     <use xlink:href="#m7a14f27687" x="402.627158" y="107.318463" style="fill: #daa520; stroke: #daa520"/>
     <use xlink:href="#m7a14f27687" x="335.231171" y="92.387829" style="fill: #daa520; stroke: #daa520"/>
     <use xlink:href="#m7a14f27687" x="365.695426" y="107.354491" style="fill: #daa520; stroke: #daa520"/>
     <use xlink:href="#m7a14f27687" x="339.285889" y="129.853091" style="fill: #daa520; stroke: #daa520"/>
     <use xlink:href="#m7a14f27687" x="278.487416" y="123.313374" style="fill: #daa520; stroke: #daa520"/>
     <use xlink:href="#m7a14f27687" x="172.409154" y="98.19789" style="fill: #daa520; stroke: #daa520"/>
     <use xlink:href="#m7a14f27687" x="394.132187" y="109.550135" style="fill: #daa520; stroke: #daa520"/>
     <use xlink:href="#m7a14f27687" x="345.845747" y="110.913717" style="fill: #daa520; stroke: #daa520"/>
     <use xlink:href="#m7a14f27687" x="110.816462" y="136.641505" style="fill: #daa520; stroke: #daa520"/>
     <use xlink:href="#m7a14f27687" x="376.216762" y="133.734391" style="fill: #daa520; stroke: #daa520"/>
     <use xlink:href="#m7a14f27687" x="362.507702" y="140.597544" style="fill: #daa520; stroke: #daa520"/>
     <use xlink:href="#m7a14f27687" x="413.787842" y="99.334123" style="fill: #daa520; stroke: #daa520"/>
     <use xlink:href="#m7a14f27687" x="77.880438" y="134.514979" style="fill: #daa520; stroke: #daa520"/>
     <use xlink:href="#m7a14f27687" x="320.082727" y="98.280406" style="fill: #daa520; stroke: #daa520"/>
     <use xlink:href="#m7a14f27687" x="402.59841" y="126.766078" style="fill: #daa520; stroke: #daa520"/>
     <use xlink:href="#m7a14f27687" x="315.885991" y="116.94574" style="fill: #daa520; stroke: #daa520"/>
     <use xlink:href="#m7a14f27687" x="285.093856" y="122.420305" style="fill: #daa520; stroke: #daa520"/>
     <use xlink:href="#m7a14f27687" x="368.965553" y="99.204544" style="fill: #daa520; stroke: #daa520"/>
     <use xlink:href="#m7a14f27687" x="299.520902" y="96.182143" style="fill: #daa520; stroke: #daa520"/>
     <use xlink:href="#m7a14f27687" x="279.738074" y="123.039607" style="fill: #daa520; stroke: #daa520"/>
     <use xlink:href="#m7a14f27687" x="328.750725" y="84.515957" style="fill: #daa520; stroke: #daa520"/>
     <use xlink:href="#m7a14f27687" x="337.939158" y="87.64634" style="fill: #daa520; stroke: #daa520"/>
     <use xlink:href="#m7a14f27687" x="334.600478" y="126.890545" style="fill: #daa520; stroke: #daa520"/>
     <use xlink:href="#m7a14f27687" x="402.214638" y="84.472993" style="fill: #daa520; stroke: #daa520"/>
     <use xlink:href="#m7a14f27687" x="343.580886" y="81.121048" style="fill: #daa520; stroke: #daa520"/>
     <use xlink:href="#m7a14f27687" x="342.46214" y="88.071788" style="fill: #daa520; stroke: #daa520"/>
     <use xlink:href="#m7a14f27687" x="379.336344" y="98.367844" style="fill: #daa520; stroke: #daa520"/>
     <use xlink:href="#m7a14f27687" x="351.211811" y="105.247912" style="fill: #daa520; stroke: #daa520"/>
     <use xlink:href="#m7a14f27687" x="234.383897" y="107.760925" style="fill: #daa520; stroke: #daa520"/>
     <use xlink:href="#m7a14f27687" x="253.901096" y="125.788806" style="fill: #daa520; stroke: #daa520"/>
     <use xlink:href="#m7a14f27687" x="414.774875" y="90.437412" style="fill: #daa520; stroke: #daa520"/>
     <use xlink:href="#m7a14f27687" x="255.093053" y="105.229311" style="fill: #daa520; stroke: #daa520"/>
     <use xlink:href="#m7a14f27687" x="342.978441" y="81.023064" style="fill: #daa520; stroke: #daa520"/>
     <use xlink:href="#m7a14f27687" x="83.702919" y="111.520119" style="fill: #daa520; stroke: #daa520"/>
     <use xlink:href="#m7a14f27687" x="200.066525" y="103.284138" style="fill: #daa520; stroke: #daa520"/>
     <use xlink:href="#m7a14f27687" x="220.835591" y="109.156286" style="fill: #daa520; stroke: #daa520"/>
     <use xlink:href="#m7a14f27687" x="102.410145" y="107.005393" style="fill: #daa520; stroke: #daa520"/>
     <use xlink:href="#m7a14f27687" x="331.16768" y="110.894098" style="fill: #daa520; stroke: #daa520"/>
     <use xlink:href="#m7a14f27687" x="299.980337" y="119.892393" style="fill: #daa520; stroke: #daa520"/>
     <use xlink:href="#m7a14f27687" x="410.369539" y="101.396589" style="fill: #daa520; stroke: #daa520"/>
     <use xlink:href="#m7a14f27687" x="78.889151" y="109.085617" style="fill: #daa520; stroke: #daa520"/>
     <use xlink:href="#m7a14f27687" x="97.814033" y="115.960403" style="fill: #daa520; stroke: #daa520"/>
     <use xlink:href="#m7a14f27687" x="378.986271" y="127.710324" style="fill: #daa520; stroke: #daa520"/>
     <use xlink:href="#m7a14f27687" x="87.052595" y="140.016251" style="fill: #daa520; stroke: #daa520"/>
     <use xlink:href="#m7a14f27687" x="287.941179" y="100.244102" style="fill: #daa520; stroke: #daa520"/>
     <use xlink:href="#m7a14f27687" x="298.217171" y="120.811393" style="fill: #daa520; stroke: #daa520"/>
     <use xlink:href="#m7a14f27687" x="292.831419" y="99.268998" style="fill: #daa520; stroke: #daa520"/>
     <use xlink:href="#m7a14f27687" x="354.777629" y="142.108226" style="fill: #daa520; stroke: #daa520"/>
     <use xlink:href="#m7a14f27687" x="247.792942" y="112.033365" style="fill: #daa520; stroke: #daa520"/>
     <use xlink:href="#m7a14f27687" x="404.991319" y="122.545496" style="fill: #daa520; stroke: #daa520"/>
     <use xlink:href="#m7a14f27687" x="355.343383" y="95.157976" style="fill: #daa520; stroke: #daa520"/>
     <use xlink:href="#m7a14f27687" x="418.191243" y="89.854329" style="fill: #daa520; stroke: #daa520"/>
     <use xlink:href="#m7a14f27687" x="285.699537" y="155.172201" style="fill: #daa520; stroke: #daa520"/>
     <use xlink:href="#m7a14f27687" x="311.356632" y="115.978291" style="fill: #daa520; stroke: #daa520"/>
     <use xlink:href="#m7a14f27687" x="275.749764" y="100.56271" style="fill: #daa520; stroke: #daa520"/>
     <use xlink:href="#m7a14f27687" x="316.260343" y="94.638608" style="fill: #daa520; stroke: #daa520"/>
     <use xlink:href="#m7a14f27687" x="321.650719" y="111.212978" style="fill: #daa520; stroke: #daa520"/>
     <use xlink:href="#m7a14f27687" x="244.230616" y="105.005146" style="fill: #daa520; stroke: #daa520"/>
     <use xlink:href="#m7a14f27687" x="320.199344" y="86.815739" style="fill: #daa520; stroke: #daa520"/>
     <use xlink:href="#m7a14f27687" x="219.931035" y="138.111836" style="fill: #daa520; stroke: #daa520"/>
     <use xlink:href="#m7a14f27687" x="391.871312" y="75.013818" style="fill: #daa520; stroke: #daa520"/>
     <use xlink:href="#m7a14f27687" x="411.227071" y="104.024425" style="fill: #daa520; stroke: #daa520"/>
     <use xlink:href="#m7a14f27687" x="290.712356" y="161.370182" style="fill: #daa520; stroke: #daa520"/>
     <use xlink:href="#m7a14f27687" x="330.397242" y="125.572891" style="fill: #daa520; stroke: #daa520"/>
     <use xlink:href="#m7a14f27687" x="411.410279" y="109.632447" style="fill: #daa520; stroke: #daa520"/>
     <use xlink:href="#m7a14f27687" x="288.971368" y="159.882545" style="fill: #daa520; stroke: #daa520"/>
     <use xlink:href="#m7a14f27687" x="394.579566" y="102.477186" style="fill: #daa520; stroke: #daa520"/>
     <use xlink:href="#m7a14f27687" x="301.823601" y="120.399345" style="fill: #daa520; stroke: #daa520"/>
     <use xlink:href="#m7a14f27687" x="412.990081" y="95.380743" style="fill: #daa520; stroke: #daa520"/>
     <use xlink:href="#m7a14f27687" x="251.386395" y="122.293976" style="fill: #daa520; stroke: #daa520"/>
     <use xlink:href="#m7a14f27687" x="386.944905" y="87.597802" style="fill: #daa520; stroke: #daa520"/>
     <use xlink:href="#m7a14f27687" x="398.311807" y="125.254225" style="fill: #daa520; stroke: #daa520"/>
     <use xlink:href="#m7a14f27687" x="401.059458" y="112.547305" style="fill: #daa520; stroke: #daa520"/>
     <use xlink:href="#m7a14f27687" x="407.922599" y="107.080914" style="fill: #daa520; stroke: #daa520"/>
     <use xlink:href="#m7a14f27687" x="317.226361" y="105.727523" style="fill: #daa520; stroke: #daa520"/>
     <use xlink:href="#m7a14f27687" x="294.575098" y="115.809808" style="fill: #daa520; stroke: #daa520"/>
     <use xlink:href="#m7a14f27687" x="301.770086" y="92.224379" style="fill: #daa520; stroke: #daa520"/>
     <use xlink:href="#m7a14f27687" x="319.770956" y="121.024044" style="fill: #daa520; stroke: #daa520"/>
     <use xlink:href="#m7a14f27687" x="353.04904" y="84.726958" style="fill: #daa520; stroke: #daa520"/>
     <use xlink:href="#m7a14f27687" x="165.402923" y="97.500212" style="fill: #daa520; stroke: #daa520"/>
     <use xlink:href="#m7a14f27687" x="279.819096" y="102.52658" style="fill: #daa520; stroke: #daa520"/>
     <use xlink:href="#m7a14f27687" x="194.28966" y="104.022717" style="fill: #daa520; stroke: #daa520"/>
     <use xlink:href="#m7a14f27687" x="391.642304" y="75.440488" style="fill: #daa520; stroke: #daa520"/>
     <use xlink:href="#m7a14f27687" x="377.659202" y="138.310483" style="fill: #daa520; stroke: #daa520"/>
     <use xlink:href="#m7a14f27687" x="379.957323" y="97.878801" style="fill: #daa520; stroke: #daa520"/>
     <use xlink:href="#m7a14f27687" x="265.06807" y="129.698518" style="fill: #daa520; stroke: #daa520"/>
     <use xlink:href="#m7a14f27687" x="399.475871" y="110.698782" style="fill: #daa520; stroke: #daa520"/>
     <use xlink:href="#m7a14f27687" x="121.053212" y="126.182394" style="fill: #daa520; stroke: #daa520"/>
     <use xlink:href="#m7a14f27687" x="291.743548" y="122.185137" style="fill: #daa520; stroke: #daa520"/>
    </g>
   </g>
   <g id="matplotlib.axis_3"/>
   <g id="matplotlib.axis_4">
    <g id="ytick_1">
     <g id="line2d_3">
      <defs>
       <path id="m30e21c2dcb" d="M 0 0 
L -3.5 0 
" style="stroke: #696969; stroke-width: 0.8"/>
      </defs>
      <g>
       <use xlink:href="#m30e21c2dcb" x="53.0525" y="146.652384" style="fill: #696969; stroke: #696969; stroke-width: 0.8"/>
      </g>
     </g>
     <g id="text_1">
      <!-- −2.5 -->
      <g style="fill: #696969" transform="translate(7.2 152.731134) scale(0.16 -0.16)">
       <defs>
        <path id="DejaVuSans-2212" d="M 678 2272 
L 4684 2272 
L 4684 1741 
L 678 1741 
L 678 2272 
z
" transform="scale(0.015625)"/>
        <path id="DejaVuSans-32" d="M 1228 531 
L 3431 531 
L 3431 0 
L 469 0 
L 469 531 
Q 828 903 1448 1529 
Q 2069 2156 2228 2338 
Q 2531 2678 2651 2914 
Q 2772 3150 2772 3378 
Q 2772 3750 2511 3984 
Q 2250 4219 1831 4219 
Q 1534 4219 1204 4116 
Q 875 4013 500 3803 
L 500 4441 
Q 881 4594 1212 4672 
Q 1544 4750 1819 4750 
Q 2544 4750 2975 4387 
Q 3406 4025 3406 3419 
Q 3406 3131 3298 2873 
Q 3191 2616 2906 2266 
Q 2828 2175 2409 1742 
Q 1991 1309 1228 531 
z
" transform="scale(0.015625)"/>
        <path id="DejaVuSans-2e" d="M 684 794 
L 1344 794 
L 1344 0 
L 684 0 
L 684 794 
z
" transform="scale(0.015625)"/>
        <path id="DejaVuSans-35" d="M 691 4666 
L 3169 4666 
L 3169 4134 
L 1269 4134 
L 1269 2991 
Q 1406 3038 1543 3061 
Q 1681 3084 1819 3084 
Q 2600 3084 3056 2656 
Q 3513 2228 3513 1497 
Q 3513 744 3044 326 
Q 2575 -91 1722 -91 
Q 1428 -91 1123 -41 
Q 819 9 494 109 
L 494 744 
Q 775 591 1075 516 
Q 1375 441 1709 441 
Q 2250 441 2565 725 
Q 2881 1009 2881 1497 
Q 2881 1984 2565 2268 
Q 2250 2553 1709 2553 
Q 1456 2553 1204 2497 
Q 953 2441 691 2322 
L 691 4666 
z
" transform="scale(0.015625)"/>
       </defs>
       <use xlink:href="#DejaVuSans-2212"/>
       <use xlink:href="#DejaVuSans-32" x="83.789062"/>
       <use xlink:href="#DejaVuSans-2e" x="147.412109"/>
       <use xlink:href="#DejaVuSans-35" x="179.199219"/>
      </g>
     </g>
    </g>
    <g id="ytick_2">
     <g id="line2d_4">
      <g>
       <use xlink:href="#m30e21c2dcb" x="53.0525" y="119.032077" style="fill: #696969; stroke: #696969; stroke-width: 0.8"/>
      </g>
     </g>
     <g id="text_2">
      <!-- 0.0 -->
      <g style="fill: #696969" transform="translate(20.6075 125.110827) scale(0.16 -0.16)">
       <defs>
        <path id="DejaVuSans-30" d="M 2034 4250 
Q 1547 4250 1301 3770 
Q 1056 3291 1056 2328 
Q 1056 1369 1301 889 
Q 1547 409 2034 409 
Q 2525 409 2770 889 
Q 3016 1369 3016 2328 
Q 3016 3291 2770 3770 
Q 2525 4250 2034 4250 
z
M 2034 4750 
Q 2819 4750 3233 4129 
Q 3647 3509 3647 2328 
Q 3647 1150 3233 529 
Q 2819 -91 2034 -91 
Q 1250 -91 836 529 
Q 422 1150 422 2328 
Q 422 3509 836 4129 
Q 1250 4750 2034 4750 
z
" transform="scale(0.015625)"/>
       </defs>
       <use xlink:href="#DejaVuSans-30"/>
       <use xlink:href="#DejaVuSans-2e" x="63.623047"/>
       <use xlink:href="#DejaVuSans-30" x="95.410156"/>
      </g>
     </g>
    </g>
    <g id="ytick_3">
     <g id="line2d_5">
      <g>
       <use xlink:href="#m30e21c2dcb" x="53.0525" y="91.41177" style="fill: #696969; stroke: #696969; stroke-width: 0.8"/>
      </g>
     </g>
     <g id="text_3">
      <!-- 2.5 -->
      <g style="fill: #696969" transform="translate(20.6075 97.49052) scale(0.16 -0.16)">
       <use xlink:href="#DejaVuSans-32"/>
       <use xlink:href="#DejaVuSans-2e" x="63.623047"/>
       <use xlink:href="#DejaVuSans-35" x="95.410156"/>
      </g>
     </g>
    </g>
   </g>
   <g id="line2d_6">
    <path d="M 70.462045 129.133816 
L 77.425864 126.322577 
L 84.389682 123.44982 
L 91.3535 120.589441 
L 98.317318 117.814702 
L 105.281136 115.195344 
L 112.244955 112.795038 
L 119.208773 110.669115 
L 126.172591 108.862825 
L 133.136409 107.410073 
L 140.100227 106.332686 
L 147.064045 105.640201 
L 154.027864 105.330109 
L 160.991682 105.388542 
L 167.9555 105.791267 
L 174.919318 106.504876 
L 181.883136 107.488179 
L 188.846955 108.693578 
L 195.810773 110.068469 
L 202.774591 111.556591 
L 209.738409 113.099316 
L 216.702227 114.63695 
L 223.666045 116.11003 
L 230.629864 117.460737 
L 237.593682 118.634393 
L 244.5575 119.58117 
L 251.521318 120.257868 
L 258.485136 120.629815 
L 265.448955 120.672695 
L 272.412773 120.374235 
L 279.376591 119.735542 
L 286.340409 118.771877 
L 293.304227 117.512844 
L 300.268045 116.001749 
L 307.231864 114.294174 
L 314.195682 112.455739 
L 321.1595 110.559195 
L 328.123318 108.680977 
L 335.087136 106.897462 
L 342.050955 105.281165 
L 349.014773 103.897126 
L 355.978591 102.799712 
L 362.942409 102.030043 
L 369.906227 101.61415 
L 376.870045 101.561961 
L 383.833864 101.867133 
L 390.797682 102.507666 
L 397.7615 103.447249 
L 404.725318 104.637242 
L 411.689136 106.019121 
L 418.652955 107.527327 
" clip-path="url(#pe4bd35bc03)" style="fill: none; stroke: #000000; stroke-width: 2; stroke-linecap: square"/>
   </g>
   <g id="line2d_7">
    <path d="M 70.462045 122.61469 
L 77.425864 121.509277 
L 84.389682 120.528796 
L 91.3535 119.664124 
L 98.317318 118.906393 
L 105.281136 118.246995 
L 112.244955 117.677579 
L 119.208773 117.190053 
L 126.172591 116.776581 
L 133.136409 116.429587 
L 140.100227 116.14175 
L 147.064045 115.906008 
L 154.027864 115.715559 
L 160.991682 115.563856 
L 167.9555 115.444611 
L 174.919318 115.351792 
L 181.883136 115.279628 
L 188.846955 115.222604 
L 195.810773 115.175462 
L 202.774591 115.133204 
L 209.738409 115.091087 
L 216.702227 115.044628 
L 223.666045 114.989601 
L 230.629864 114.922039 
L 237.593682 114.83823 
L 244.5575 114.734723 
L 251.521318 114.608322 
L 258.485136 114.456091 
L 265.448955 114.275351 
L 272.412773 114.06368 
L 279.376591 113.818916 
L 286.340409 113.539151 
L 293.304227 113.222739 
L 300.268045 112.86829 
L 307.231864 112.47467 
L 314.195682 112.041007 
L 321.1595 111.566682 
L 328.123318 111.051337 
L 335.087136 110.494872 
L 342.050955 109.897442 
L 349.014773 109.259463 
L 355.978591 108.581606 
L 362.942409 107.864803 
L 369.906227 107.11024 
L 376.870045 106.319363 
L 383.833864 105.493877 
L 390.797682 104.635742 
L 397.7615 103.747178 
L 404.725318 102.830662 
L 411.689136 101.888928 
L 418.652955 100.924968 
" clip-path="url(#pe4bd35bc03)" style="fill: none; stroke-dasharray: 7.4,3.2; stroke-dashoffset: 0; stroke: #34b6c6; stroke-width: 2"/>
   </g>
   <g id="line2d_8">
    <path d="M 70.462045 114.803725 
L 77.425864 119.27463 
L 84.389682 122.027558 
L 91.3535 123.211016 
L 98.317318 123.025744 
L 105.281136 121.728026 
L 112.244955 119.611964 
L 119.208773 116.974022 
L 126.172591 114.076406 
L 133.136409 111.128151 
L 140.100227 108.291155 
L 147.064045 105.703457 
L 154.027864 103.504042 
L 160.991682 101.842427 
L 167.9555 100.858666 
L 174.919318 100.630439 
L 181.883136 101.113953 
L 188.846955 102.138947 
L 195.810773 103.496158 
L 202.774591 105.063704 
L 209.738409 106.863733 
L 216.702227 108.994644 
L 223.666045 111.476266 
L 230.629864 114.119752 
L 237.593682 116.561516 
L 244.5575 118.469257 
L 251.521318 119.719459 
L 258.485136 120.388912 
L 265.448955 120.629852 
L 272.412773 120.560294 
L 279.376591 120.21173 
L 286.340409 119.515434 
L 293.304227 118.310276 
L 300.268045 116.389293 
L 307.231864 113.658388 
L 314.195682 110.431744 
L 321.1595 107.498672 
L 328.123318 105.581079 
L 335.087136 104.831614 
L 342.050955 104.970659 
L 349.014773 105.624 
L 355.978591 106.48172 
L 362.942409 107.315281 
L 369.906227 107.953441 
L 376.870045 108.25846 
L 383.833864 108.110232 
L 390.797682 107.396839 
L 397.7615 106.009086 
L 404.725318 103.837357 
L 411.689136 100.769769 
L 418.652955 96.691074 
" clip-path="url(#pe4bd35bc03)" style="fill: none; stroke-dasharray: 7.4,3.2; stroke-dashoffset: 0; stroke: #9370db; stroke-width: 2"/>
   </g>
   <g id="line2d_9">
    <path d="M 70.462045 117.739712 
L 77.425864 116.61484 
L 84.389682 115.268686 
L 91.3535 113.713856 
L 98.317318 111.997395 
L 105.281136 110.202772 
L 112.244955 108.439242 
L 119.208773 106.820547 
L 126.172591 105.442936 
L 133.136409 104.373802 
L 140.100227 103.655305 
L 147.064045 103.318355 
L 154.027864 103.397503 
L 160.991682 103.936695 
L 167.9555 104.977271 
L 174.919318 106.526189 
L 181.883136 108.520541 
L 188.846955 110.82455 
L 195.810773 113.282093 
L 202.774591 115.792591 
L 209.738409 118.345024 
L 216.702227 120.977235 
L 223.666045 123.682958 
L 230.629864 126.333698 
L 237.593682 128.699105 
L 244.5575 130.570691 
L 251.521318 131.86841 
L 258.485136 132.63557 
L 265.448955 132.963853 
L 272.412773 132.927468 
L 279.376591 132.551742 
L 286.340409 131.804898 
L 293.304227 130.602745 
L 300.268045 128.836643 
L 307.231864 126.468801 
L 314.195682 123.709664 
L 321.1595 121.05805 
L 328.123318 118.975377 
L 335.087136 117.584314 
L 342.050955 116.751035 
L 349.014773 116.287986 
L 355.978591 116.049295 
L 362.942409 115.941032 
L 369.906227 115.906742 
L 376.870045 115.913162 
L 383.833864 115.940692 
L 390.797682 115.97772 
L 397.7615 116.017346 
L 404.725318 116.055488 
L 411.689136 116.089777 
L 418.652955 116.118898 
" clip-path="url(#pe4bd35bc03)" style="fill: none; stroke-dasharray: 12.8,3.2,2,3.2; stroke-dashoffset: 0; stroke: #ff0000; stroke-width: 2"/>
   </g>
   <g id="patch_4">
    <path d="M 53.0525 165.688 
L 53.0525 70.696 
" style="fill: none; stroke: #000000; stroke-width: 0.8; stroke-linejoin: miter; stroke-linecap: square"/>
   </g>
   <g id="patch_5">
    <path d="M 436.0625 165.688 
L 436.0625 70.696 
" style="fill: none; stroke: #000000; stroke-width: 0.8; stroke-linejoin: miter; stroke-linecap: square"/>
   </g>
   <g id="patch_6">
    <path d="M 53.0525 165.688 
L 436.0625 165.688 
" style="fill: none; stroke: #000000; stroke-width: 0.8; stroke-linejoin: miter; stroke-linecap: square"/>
   </g>
   <g id="patch_7">
    <path d="M 53.0525 70.696 
L 436.0625 70.696 
" style="fill: none; stroke: #000000; stroke-width: 0.8; stroke-linejoin: miter; stroke-linecap: square"/>
   </g>
  </g>
  <g id="axes_3">
   <g id="patch_8">
    <path d="M 53.0525 276.68 
L 436.0625 276.68 
L 436.0625 181.688 
L 53.0525 181.688 
z
" style="fill: #ffffff"/>
   </g>
   <g id="PathCollection_2">
    <g clip-path="url(#p27b89d5cae)">
     <use xlink:href="#m7a14f27687" x="343.832787" y="256.654425" style="fill: #daa520; stroke: #daa520"/>
     <use xlink:href="#m7a14f27687" x="295.720916" y="266.379279" style="fill: #daa520; stroke: #daa520"/>
     <use xlink:href="#m7a14f27687" x="288.842083" y="205.117901" style="fill: #daa520; stroke: #daa520"/>
     <use xlink:href="#m7a14f27687" x="341.377557" y="227.494186" style="fill: #daa520; stroke: #daa520"/>
     <use xlink:href="#m7a14f27687" x="321.494336" y="229.283248" style="fill: #daa520; stroke: #daa520"/>
     <use xlink:href="#m7a14f27687" x="334.244934" y="227.015456" style="fill: #daa520; stroke: #daa520"/>
     <use xlink:href="#m7a14f27687" x="251.774233" y="253.988555" style="fill: #daa520; stroke: #daa520"/>
     <use xlink:href="#m7a14f27687" x="362.202328" y="190.626795" style="fill: #daa520; stroke: #daa520"/>
     <use xlink:href="#m7a14f27687" x="102.410138" y="223.540263" style="fill: #daa520; stroke: #daa520"/>
     <use xlink:href="#m7a14f27687" x="355.542933" y="231.875198" style="fill: #daa520; stroke: #daa520"/>
     <use xlink:href="#m7a14f27687" x="374.143827" y="268.024782" style="fill: #daa520; stroke: #daa520"/>
     <use xlink:href="#m7a14f27687" x="380.709373" y="248.837029" style="fill: #daa520; stroke: #daa520"/>
     <use xlink:href="#m7a14f27687" x="402.627158" y="233.27061" style="fill: #daa520; stroke: #daa520"/>
     <use xlink:href="#m7a14f27687" x="335.231171" y="253.212053" style="fill: #daa520; stroke: #daa520"/>
     <use xlink:href="#m7a14f27687" x="365.695426" y="233.077275" style="fill: #daa520; stroke: #daa520"/>
     <use xlink:href="#m7a14f27687" x="339.285889" y="207.142561" style="fill: #daa520; stroke: #daa520"/>
     <use xlink:href="#m7a14f27687" x="278.487416" y="233.973698" style="fill: #daa520; stroke: #daa520"/>
     <use xlink:href="#m7a14f27687" x="172.409154" y="232.043363" style="fill: #daa520; stroke: #daa520"/>
     <use xlink:href="#m7a14f27687" x="394.132187" y="230.507247" style="fill: #daa520; stroke: #daa520"/>
     <use xlink:href="#m7a14f27687" x="345.845747" y="229.41997" style="fill: #daa520; stroke: #daa520"/>
     <use xlink:href="#m7a14f27687" x="110.816462" y="188.928939" style="fill: #daa520; stroke: #daa520"/>
     <use xlink:href="#m7a14f27687" x="376.216762" y="201.083807" style="fill: #daa520; stroke: #daa520"/>
     <use xlink:href="#m7a14f27687" x="362.507702" y="192.804092" style="fill: #daa520; stroke: #daa520"/>
     <use xlink:href="#m7a14f27687" x="413.787842" y="243.01699" style="fill: #daa520; stroke: #daa520"/>
     <use xlink:href="#m7a14f27687" x="77.880438" y="200.891911" style="fill: #daa520; stroke: #daa520"/>
     <use xlink:href="#m7a14f27687" x="320.082727" y="250.768469" style="fill: #daa520; stroke: #daa520"/>
     <use xlink:href="#m7a14f27687" x="402.59841" y="209.692851" style="fill: #daa520; stroke: #daa520"/>
     <use xlink:href="#m7a14f27687" x="315.885991" y="230.073498" style="fill: #daa520; stroke: #daa520"/>
     <use xlink:href="#m7a14f27687" x="285.093856" y="234.268219" style="fill: #daa520; stroke: #daa520"/>
     <use xlink:href="#m7a14f27687" x="368.965553" y="242.942883" style="fill: #daa520; stroke: #daa520"/>
     <use xlink:href="#m7a14f27687" x="299.520902" y="262.546353" style="fill: #daa520; stroke: #daa520"/>
     <use xlink:href="#m7a14f27687" x="279.738074" y="234.188574" style="fill: #daa520; stroke: #daa520"/>
     <use xlink:href="#m7a14f27687" x="328.750725" y="264.283756" style="fill: #daa520; stroke: #daa520"/>
     <use xlink:href="#m7a14f27687" x="337.939158" y="258.505312" style="fill: #daa520; stroke: #daa520"/>
     <use xlink:href="#m7a14f27687" x="334.600478" y="211.502355" style="fill: #daa520; stroke: #daa520"/>
     <use xlink:href="#m7a14f27687" x="402.214638" y="260.964905" style="fill: #daa520; stroke: #daa520"/>
     <use xlink:href="#m7a14f27687" x="343.580886" y="265.7336" style="fill: #daa520; stroke: #daa520"/>
     <use xlink:href="#m7a14f27687" x="342.46214" y="257.417806" style="fill: #daa520; stroke: #daa520"/>
     <use xlink:href="#m7a14f27687" x="379.336344" y="243.972776" style="fill: #daa520; stroke: #daa520"/>
     <use xlink:href="#m7a14f27687" x="351.211811" y="235.96213" style="fill: #daa520; stroke: #daa520"/>
     <use xlink:href="#m7a14f27687" x="234.383897" y="246.816367" style="fill: #daa520; stroke: #daa520"/>
     <use xlink:href="#m7a14f27687" x="253.901096" y="230.44725" style="fill: #daa520; stroke: #daa520"/>
     <use xlink:href="#m7a14f27687" x="414.774875" y="253.808164" style="fill: #daa520; stroke: #daa520"/>
     <use xlink:href="#m7a14f27687" x="255.093053" y="255.538574" style="fill: #daa520; stroke: #daa520"/>
     <use xlink:href="#m7a14f27687" x="342.978441" y="265.910849" style="fill: #daa520; stroke: #daa520"/>
     <use xlink:href="#m7a14f27687" x="83.702919" y="227.409064" style="fill: #daa520; stroke: #daa520"/>
     <use xlink:href="#m7a14f27687" x="200.066525" y="236.668365" style="fill: #daa520; stroke: #daa520"/>
     <use xlink:href="#m7a14f27687" x="220.835591" y="238.965441" style="fill: #daa520; stroke: #daa520"/>
     <use xlink:href="#m7a14f27687" x="102.410145" y="227.468517" style="fill: #daa520; stroke: #daa520"/>
     <use xlink:href="#m7a14f27687" x="331.16768" y="231.654286" style="fill: #daa520; stroke: #daa520"/>
     <use xlink:href="#m7a14f27687" x="299.980337" y="233.638668" style="fill: #daa520; stroke: #daa520"/>
     <use xlink:href="#m7a14f27687" x="410.369539" y="240.497752" style="fill: #daa520; stroke: #daa520"/>
     <use xlink:href="#m7a14f27687" x="78.889151" y="231.499216" style="fill: #daa520; stroke: #daa520"/>
     <use xlink:href="#m7a14f27687" x="97.814033" y="218.042115" style="fill: #daa520; stroke: #daa520"/>
     <use xlink:href="#m7a14f27687" x="378.986271" y="208.397488" style="fill: #daa520; stroke: #daa520"/>
     <use xlink:href="#m7a14f27687" x="87.052595" y="191.995631" style="fill: #daa520; stroke: #daa520"/>
     <use xlink:href="#m7a14f27687" x="287.941179" y="260.67343" style="fill: #daa520; stroke: #daa520"/>
     <use xlink:href="#m7a14f27687" x="298.217171" y="233.129205" style="fill: #daa520; stroke: #daa520"/>
     <use xlink:href="#m7a14f27687" x="292.831419" y="260.798755" style="fill: #daa520; stroke: #daa520"/>
     <use xlink:href="#m7a14f27687" x="354.777629" y="191.134958" style="fill: #daa520; stroke: #daa520"/>
     <use xlink:href="#m7a14f27687" x="247.792942" y="245.982559" style="fill: #daa520; stroke: #daa520"/>
     <use xlink:href="#m7a14f27687" x="404.991319" y="214.825147" style="fill: #daa520; stroke: #daa520"/>
     <use xlink:href="#m7a14f27687" x="355.343383" y="248.038081" style="fill: #daa520; stroke: #daa520"/>
     <use xlink:href="#m7a14f27687" x="418.191243" y="254.53177" style="fill: #daa520; stroke: #daa520"/>
     <use xlink:href="#m7a14f27687" x="285.699537" y="194.466499" style="fill: #daa520; stroke: #daa520"/>
     <use xlink:href="#m7a14f27687" x="311.356632" y="233.452273" style="fill: #daa520; stroke: #daa520"/>
     <use xlink:href="#m7a14f27687" x="275.749764" y="261.763346" style="fill: #daa520; stroke: #daa520"/>
     <use xlink:href="#m7a14f27687" x="316.260343" y="256.938661" style="fill: #daa520; stroke: #daa520"/>
     <use xlink:href="#m7a14f27687" x="321.650719" y="234.422464" style="fill: #daa520; stroke: #daa520"/>
     <use xlink:href="#m7a14f27687" x="244.230616" y="253.595405" style="fill: #daa520; stroke: #daa520"/>
     <use xlink:href="#m7a14f27687" x="320.199344" y="264.616975" style="fill: #daa520; stroke: #daa520"/>
     <use xlink:href="#m7a14f27687" x="219.931035" y="203.433705" style="fill: #daa520; stroke: #daa520"/>
     <use xlink:href="#m7a14f27687" x="391.871312" y="272.362182" style="fill: #daa520; stroke: #daa520"/>
     <use xlink:href="#m7a14f27687" x="411.227071" y="237.316716" style="fill: #daa520; stroke: #daa520"/>
     <use xlink:href="#m7a14f27687" x="290.712356" y="186.005818" style="fill: #daa520; stroke: #daa520"/>
     <use xlink:href="#m7a14f27687" x="330.397242" y="214.054463" style="fill: #daa520; stroke: #daa520"/>
     <use xlink:href="#m7a14f27687" x="411.410279" y="230.518782" style="fill: #daa520; stroke: #daa520"/>
     <use xlink:href="#m7a14f27687" x="288.971368" y="188.172778" style="fill: #daa520; stroke: #daa520"/>
     <use xlink:href="#m7a14f27687" x="394.579566" y="239.085329" style="fill: #daa520; stroke: #daa520"/>
     <use xlink:href="#m7a14f27687" x="301.823601" y="232.340104" style="fill: #daa520; stroke: #daa520"/>
     <use xlink:href="#m7a14f27687" x="412.990081" y="247.805677" style="fill: #daa520; stroke: #daa520"/>
     <use xlink:href="#m7a14f27687" x="251.386395" y="234.275351" style="fill: #daa520; stroke: #daa520"/>
     <use xlink:href="#m7a14f27687" x="386.944905" y="257.072807" style="fill: #daa520; stroke: #daa520"/>
     <use xlink:href="#m7a14f27687" x="398.311807" y="211.497022" style="fill: #daa520; stroke: #daa520"/>
     <use xlink:href="#m7a14f27687" x="401.059458" y="226.920991" style="fill: #daa520; stroke: #daa520"/>
     <use xlink:href="#m7a14f27687" x="407.922599" y="233.591933" style="fill: #daa520; stroke: #daa520"/>
     <use xlink:href="#m7a14f27687" x="317.226361" y="243.037359" style="fill: #daa520; stroke: #daa520"/>
     <use xlink:href="#m7a14f27687" x="294.575098" y="240.289925" style="fill: #daa520; stroke: #daa520"/>
     <use xlink:href="#m7a14f27687" x="301.770086" y="266.518986" style="fill: #daa520; stroke: #daa520"/>
     <use xlink:href="#m7a14f27687" x="319.770956" y="223.331733" style="fill: #daa520; stroke: #daa520"/>
     <use xlink:href="#m7a14f27687" x="353.04904" y="260.762904" style="fill: #daa520; stroke: #daa520"/>
     <use xlink:href="#m7a14f27687" x="165.402923" y="231.221634" style="fill: #daa520; stroke: #daa520"/>
     <use xlink:href="#m7a14f27687" x="279.819096" y="259.049734" style="fill: #daa520; stroke: #daa520"/>
     <use xlink:href="#m7a14f27687" x="194.28966" y="233.258595" style="fill: #daa520; stroke: #daa520"/>
     <use xlink:href="#m7a14f27687" x="391.642304" y="271.84333" style="fill: #daa520; stroke: #daa520"/>
     <use xlink:href="#m7a14f27687" x="377.659202" y="195.540846" style="fill: #daa520; stroke: #daa520"/>
     <use xlink:href="#m7a14f27687" x="379.957323" y="244.568541" style="fill: #daa520; stroke: #daa520"/>
     <use xlink:href="#m7a14f27687" x="265.06807" y="226.64073" style="fill: #daa520; stroke: #daa520"/>
     <use xlink:href="#m7a14f27687" x="399.475871" y="229.151425" style="fill: #daa520; stroke: #daa520"/>
     <use xlink:href="#m7a14f27687" x="121.053212" y="198.743297" style="fill: #daa520; stroke: #daa520"/>
     <use xlink:href="#m7a14f27687" x="291.743548" y="233.27845" style="fill: #daa520; stroke: #daa520"/>
    </g>
   </g>
   <g id="matplotlib.axis_5">
    <g id="xtick_1">
     <g id="line2d_10">
      <defs>
       <path id="mfca7d891e3" d="M 0 0 
L 0 3.5 
" style="stroke: #696969; stroke-width: 0.8"/>
      </defs>
      <g>
       <use xlink:href="#mfca7d891e3" x="70.462045" y="276.68" style="fill: #696969; stroke: #696969; stroke-width: 0.8"/>
      </g>
     </g>
     <g id="text_4">
      <!-- −1.0 -->
      <g style="fill: #696969" transform="translate(51.035795 295.8375) scale(0.16 -0.16)">
       <defs>
        <path id="DejaVuSans-31" d="M 794 531 
L 1825 531 
L 1825 4091 
L 703 3866 
L 703 4441 
L 1819 4666 
L 2450 4666 
L 2450 531 
L 3481 531 
L 3481 0 
L 794 0 
L 794 531 
z
" transform="scale(0.015625)"/>
       </defs>
       <use xlink:href="#DejaVuSans-2212"/>
       <use xlink:href="#DejaVuSans-31" x="83.789062"/>
       <use xlink:href="#DejaVuSans-2e" x="147.412109"/>
       <use xlink:href="#DejaVuSans-30" x="179.199219"/>
      </g>
     </g>
    </g>
    <g id="xtick_2">
     <g id="line2d_11">
      <g>
       <use xlink:href="#mfca7d891e3" x="157.509773" y="276.68" style="fill: #696969; stroke: #696969; stroke-width: 0.8"/>
      </g>
     </g>
     <g id="text_5">
      <!-- −0.5 -->
      <g style="fill: #696969" transform="translate(138.083523 295.8375) scale(0.16 -0.16)">
       <use xlink:href="#DejaVuSans-2212"/>
       <use xlink:href="#DejaVuSans-30" x="83.789062"/>
       <use xlink:href="#DejaVuSans-2e" x="147.412109"/>
       <use xlink:href="#DejaVuSans-35" x="179.199219"/>
      </g>
     </g>
    </g>
    <g id="xtick_3">
     <g id="line2d_12">
      <g>
       <use xlink:href="#mfca7d891e3" x="244.5575" y="276.68" style="fill: #696969; stroke: #696969; stroke-width: 0.8"/>
      </g>
     </g>
     <g id="text_6">
      <!-- 0.0 -->
      <g style="fill: #696969" transform="translate(231.835 295.8375) scale(0.16 -0.16)">
       <use xlink:href="#DejaVuSans-30"/>
       <use xlink:href="#DejaVuSans-2e" x="63.623047"/>
       <use xlink:href="#DejaVuSans-30" x="95.410156"/>
      </g>
     </g>
    </g>
    <g id="xtick_4">
     <g id="line2d_13">
      <g>
       <use xlink:href="#mfca7d891e3" x="331.605227" y="276.68" style="fill: #696969; stroke: #696969; stroke-width: 0.8"/>
      </g>
     </g>
     <g id="text_7">
      <!-- 0.5 -->
      <g style="fill: #696969" transform="translate(318.882727 295.8375) scale(0.16 -0.16)">
       <use xlink:href="#DejaVuSans-30"/>
       <use xlink:href="#DejaVuSans-2e" x="63.623047"/>
       <use xlink:href="#DejaVuSans-35" x="95.410156"/>
      </g>
     </g>
    </g>
    <g id="xtick_5">
     <g id="line2d_14">
      <g>
       <use xlink:href="#mfca7d891e3" x="418.652955" y="276.68" style="fill: #696969; stroke: #696969; stroke-width: 0.8"/>
      </g>
     </g>
     <g id="text_8">
      <!-- 1.0 -->
      <g style="fill: #696969" transform="translate(405.930455 295.8375) scale(0.16 -0.16)">
       <use xlink:href="#DejaVuSans-31"/>
       <use xlink:href="#DejaVuSans-2e" x="63.623047"/>
       <use xlink:href="#DejaVuSans-30" x="95.410156"/>
      </g>
     </g>
    </g>
    <g id="text_9">
     <!-- $X$ -->
     <g transform="translate(239.0375 315.3225) scale(0.16 -0.16)">
      <defs>
       <path id="DejaVuSans-Oblique-58" d="M 878 4666 
L 1516 4666 
L 2316 2981 
L 3763 4666 
L 4500 4666 
L 2578 2438 
L 3738 0 
L 3103 0 
L 2163 1966 
L 459 0 
L -275 0 
L 1906 2509 
L 878 4666 
z
" transform="scale(0.015625)"/>
      </defs>
      <use xlink:href="#DejaVuSans-Oblique-58" transform="translate(0 0.09375)"/>
     </g>
    </g>
   </g>
   <g id="matplotlib.axis_6">
    <g id="ytick_4">
     <g id="line2d_15">
      <g>
       <use xlink:href="#m30e21c2dcb" x="53.0525" y="256.177544" style="fill: #696969; stroke: #696969; stroke-width: 0.8"/>
      </g>
     </g>
     <g id="text_10">
      <!-- −2.5 -->
      <g style="fill: #696969" transform="translate(7.2 262.256294) scale(0.16 -0.16)">
       <use xlink:href="#DejaVuSans-2212"/>
       <use xlink:href="#DejaVuSans-32" x="83.789062"/>
       <use xlink:href="#DejaVuSans-2e" x="147.412109"/>
       <use xlink:href="#DejaVuSans-35" x="179.199219"/>
      </g>
     </g>
    </g>
    <g id="ytick_5">
     <g id="line2d_16">
      <g>
       <use xlink:href="#m30e21c2dcb" x="53.0525" y="222.691705" style="fill: #696969; stroke: #696969; stroke-width: 0.8"/>
      </g>
     </g>
     <g id="text_11">
      <!-- 0.0 -->
      <g style="fill: #696969" transform="translate(20.6075 228.770455) scale(0.16 -0.16)">
       <use xlink:href="#DejaVuSans-30"/>
       <use xlink:href="#DejaVuSans-2e" x="63.623047"/>
       <use xlink:href="#DejaVuSans-30" x="95.410156"/>
      </g>
     </g>
    </g>
    <g id="ytick_6">
     <g id="line2d_17">
      <g>
       <use xlink:href="#m30e21c2dcb" x="53.0525" y="189.205866" style="fill: #696969; stroke: #696969; stroke-width: 0.8"/>
      </g>
     </g>
     <g id="text_12">
      <!-- 2.5 -->
      <g style="fill: #696969" transform="translate(20.6075 195.284616) scale(0.16 -0.16)">
       <use xlink:href="#DejaVuSans-32"/>
       <use xlink:href="#DejaVuSans-2e" x="63.623047"/>
       <use xlink:href="#DejaVuSans-35" x="95.410156"/>
      </g>
     </g>
    </g>
   </g>
   <g id="line2d_18">
    <path d="M 70.462045 208.877915 
L 77.425864 210.922403 
L 84.389682 212.773201 
L 91.3535 214.356 
L 98.317318 215.639017 
L 105.281136 216.638895 
L 112.244955 217.410898 
L 119.208773 218.025844 
L 126.172591 218.545559 
L 133.136409 219.010642 
L 140.100227 219.445748 
L 147.064045 219.876786 
L 154.027864 220.348685 
L 160.991682 220.931539 
L 167.9555 221.704847 
L 174.919318 222.717544 
L 181.883136 223.943303 
L 188.846955 225.275218 
L 195.810773 226.587784 
L 202.774591 227.827275 
L 209.738409 229.051409 
L 216.702227 230.378432 
L 223.666045 231.872843 
L 230.629864 233.448954 
L 237.593682 234.89379 
L 244.5575 236.014994 
L 251.521318 236.767897 
L 258.485136 237.247038 
L 265.448955 237.593051 
L 272.412773 237.910781 
L 279.376591 238.229593 
L 286.340409 238.492458 
L 293.304227 238.561417 
L 300.268045 238.252256 
L 307.231864 237.451773 
L 314.195682 236.335547 
L 321.1595 235.420128 
L 328.123318 235.172254 
L 335.087136 235.648049 
L 342.050955 236.597351 
L 349.014773 237.713925 
L 355.978591 238.75501 
L 362.942409 239.556874 
L 369.906227 240.019516 
L 376.870045 240.09057 
L 383.833864 239.753967 
L 390.797682 239.0223 
L 397.7615 237.931226 
L 404.725318 236.534765 
L 411.689136 234.900996 
L 418.652955 233.107808 
" clip-path="url(#p27b89d5cae)" style="fill: none; stroke: #696969; stroke-width: 2; stroke-linecap: square"/>
   </g>
   <g id="line2d_19">
    <path d="M 70.462045 209.217699 
L 77.425864 210.97259 
L 84.389682 212.678769 
L 91.3535 214.333919 
L 98.317318 215.935922 
L 105.281136 217.482859 
L 112.244955 218.973008 
L 119.208773 220.404849 
L 126.172591 221.777058 
L 133.136409 223.088511 
L 140.100227 224.338283 
L 147.064045 225.525645 
L 154.027864 226.650071 
L 160.991682 227.711231 
L 167.9555 228.708994 
L 174.919318 229.643428 
L 181.883136 230.514801 
L 188.846955 231.323577 
L 195.810773 232.070421 
L 202.774591 232.756196 
L 209.738409 233.381964 
L 216.702227 233.948986 
L 223.666045 234.45872 
L 230.629864 234.912824 
L 237.593682 235.313156 
L 244.5575 235.66177 
L 251.521318 235.960922 
L 258.485136 236.213063 
L 265.448955 236.420846 
L 272.412773 236.587121 
L 279.376591 236.714936 
L 286.340409 236.807541 
L 293.304227 236.868382 
L 300.268045 236.901103 
L 307.231864 236.90955 
L 314.195682 236.897764 
L 321.1595 236.869988 
L 328.123318 236.830661 
L 335.087136 236.784424 
L 342.050955 236.736113 
L 349.014773 236.690765 
L 355.978591 236.653615 
L 362.942409 236.630098 
L 369.906227 236.625846 
L 376.870045 236.646691 
L 383.833864 236.698662 
L 390.797682 236.787989 
L 397.7615 236.9211 
L 404.725318 237.10462 
L 411.689136 237.345376 
L 418.652955 237.65039 
" clip-path="url(#p27b89d5cae)" style="fill: none; stroke-dasharray: 7.4,3.2; stroke-dashoffset: 0; stroke: #79ad41; stroke-width: 2"/>
   </g>
   <g id="patch_9">
    <path d="M 53.0525 276.68 
L 53.0525 181.688 
" style="fill: none; stroke: #000000; stroke-width: 0.8; stroke-linejoin: miter; stroke-linecap: square"/>
   </g>
   <g id="patch_10">
    <path d="M 436.0625 276.68 
L 436.0625 181.688 
" style="fill: none; stroke: #000000; stroke-width: 0.8; stroke-linejoin: miter; stroke-linecap: square"/>
   </g>
   <g id="patch_11">
    <path d="M 53.0525 276.68 
L 436.0625 276.68 
" style="fill: none; stroke: #000000; stroke-width: 0.8; stroke-linejoin: miter; stroke-linecap: square"/>
   </g>
   <g id="patch_12">
    <path d="M 53.0525 181.688 
L 436.0625 181.688 
" style="fill: none; stroke: #000000; stroke-width: 0.8; stroke-linejoin: miter; stroke-linecap: square"/>
   </g>
  </g>
 </g>
 <defs>
  <clipPath id="pb9cb4433cf">
   <rect x="53.0525" y="7.2" width="383.01" height="47.496"/>
  </clipPath>
  <clipPath id="pe4bd35bc03">
   <rect x="53.0525" y="70.696" width="383.01" height="94.992"/>
  </clipPath>
  <clipPath id="p27b89d5cae">
   <rect x="53.0525" y="181.688" width="383.01" height="94.992"/>
  </clipPath>
 </defs>
</svg>
