<?xml version="1.0" encoding="utf-8" standalone="no"?>
<!DOCTYPE svg PUBLIC "-//W3C//DTD SVG 1.1//EN"
  "http://www.w3.org/Graphics/SVG/1.1/DTD/svg11.dtd">
<svg xmlns:xlink="http://www.w3.org/1999/xlink" width="443.2075pt" height="325.85pt" viewBox="0 0 443.2075 325.85" xmlns="http://www.w3.org/2000/svg" version="1.1">
 <metadata>
  <rdf:RDF xmlns:dc="http://purl.org/dc/elements/1.1/" xmlns:cc="http://creativecommons.org/ns#" xmlns:rdf="http://www.w3.org/1999/02/22-rdf-syntax-ns#">
   <cc:Work>
    <dc:type rdf:resource="http://purl.org/dc/dcmitype/StillImage"/>
    <dc:date>2024-01-28T20:53:21.254903</dc:date>
    <dc:format>image/svg+xml</dc:format>
    <dc:creator>
     <cc:Agent>
      <dc:title>Matplotlib v3.7.2, https://matplotlib.org/</dc:title>
     </cc:Agent>
    </dc:creator>
   </cc:Work>
  </rdf:RDF>
 </metadata>
 <defs>
  <style type="text/css">*{stroke-linejoin: round; stroke-linecap: butt}</style>
 </defs>
 <g id="figure_1">
  <g id="patch_1">
   <path d="M 0 325.85 
L 443.2075 325.85 
L 443.2075 0 
L 0 0 
z
" style="fill: #ffffff"/>
  </g>
  <g id="axes_1">
   <g id="patch_2">
    <path d="M 37.7875 52.127865 
L 436.0075 52.127865 
L 436.0075 7.2 
L 37.7875 7.2 
z
" style="fill: #ffffff"/>
   </g>
   <g id="PolyCollection_1">
    <defs>
     <path id="m22f0b5d357" d="M 55.888409 -275.76431 
L 55.888409 -310.196871 
L 63.128773 -309.960755 
L 70.369136 -309.656832 
L 77.6095 -309.286947 
L 84.849864 -308.853043 
L 92.090227 -308.357343 
L 99.330591 -307.802576 
L 106.570955 -307.192147 
L 113.811318 -306.530342 
L 121.051682 -305.822407 
L 128.292045 -305.074661 
L 135.532409 -304.294498 
L 142.772773 -303.490338 
L 150.013136 -302.67151 
L 157.2535 -301.848054 
L 164.493864 -301.030532 
L 171.734227 -300.229732 
L 178.974591 -299.456401 
L 186.214955 -298.721037 
L 193.455318 -298.033637 
L 200.695682 -297.403579 
L 207.936045 -296.839502 
L 215.176409 -296.349313 
L 222.416773 -295.94021 
L 229.657136 -295.618769 
L 236.8975 -295.391063 
L 244.137864 -295.262799 
L 251.378227 -295.239417 
L 258.618591 -295.326187 
L 265.858955 -295.528224 
L 273.099318 -295.850421 
L 280.339682 -296.297274 
L 287.580045 -296.87255 
L 294.820409 -297.578856 
L 302.060773 -298.416992 
L 309.301136 -299.385203 
L 316.5415 -300.478365 
L 323.781864 -301.687199 
L 331.022227 -302.997617 
L 338.262591 -304.390464 
L 345.502955 -305.841758 
L 352.743318 -307.323546 
L 359.983682 -308.805447 
L 367.224045 -310.25666 
L 374.464409 -311.648232 
L 381.704773 -312.95518 
L 388.945136 -314.15813 
L 396.1855 -315.244247 
L 403.425864 -316.207332 
L 410.666227 -316.607824 
L 417.906591 -316.607824 
L 417.906591 -275.76431 
L 417.906591 -275.76431 
L 410.666227 -275.76431 
L 403.425864 -275.76431 
L 396.1855 -275.76431 
L 388.945136 -275.76431 
L 381.704773 -275.76431 
L 374.464409 -275.76431 
L 367.224045 -275.76431 
L 359.983682 -275.76431 
L 352.743318 -275.76431 
L 345.502955 -275.76431 
L 338.262591 -275.76431 
L 331.022227 -275.76431 
L 323.781864 -275.76431 
L 316.5415 -275.76431 
L 309.301136 -275.76431 
L 302.060773 -275.76431 
L 294.820409 -275.76431 
L 287.580045 -275.76431 
L 280.339682 -275.76431 
L 273.099318 -275.76431 
L 265.858955 -275.76431 
L 258.618591 -275.76431 
L 251.378227 -275.76431 
L 244.137864 -275.76431 
L 236.8975 -275.76431 
L 229.657136 -275.76431 
L 222.416773 -275.76431 
L 215.176409 -275.76431 
L 207.936045 -275.76431 
L 200.695682 -275.76431 
L 193.455318 -275.76431 
L 186.214955 -275.76431 
L 178.974591 -275.76431 
L 171.734227 -275.76431 
L 164.493864 -275.76431 
L 157.2535 -275.76431 
L 150.013136 -275.76431 
L 142.772773 -275.76431 
L 135.532409 -275.76431 
L 128.292045 -275.76431 
L 121.051682 -275.76431 
L 113.811318 -275.76431 
L 106.570955 -275.76431 
L 99.330591 -275.76431 
L 92.090227 -275.76431 
L 84.849864 -275.76431 
L 77.6095 -275.76431 
L 70.369136 -275.76431 
L 63.128773 -275.76431 
L 55.888409 -275.76431 
z
" style="stroke: #dc143c; stroke-opacity: 0.2"/>
    </defs>
    <g clip-path="url(#p672a79c2fb)">
     <use xlink:href="#m22f0b5d357" x="0" y="325.85" style="fill: #dc143c; fill-opacity: 0.2; stroke: #dc143c; stroke-opacity: 0.2"/>
    </g>
   </g>
   <g id="PolyCollection_2">
    <defs>
     <path id="mfe6e2d6991" d="M 55.888409 -275.76431 
L 55.888409 -286.713432 
L 63.128773 -286.949548 
L 70.369136 -287.253471 
L 77.6095 -287.623356 
L 84.849864 -288.05726 
L 92.090227 -288.55296 
L 99.330591 -289.107727 
L 106.570955 -289.718156 
L 113.811318 -290.379961 
L 121.051682 -291.087895 
L 128.292045 -291.835642 
L 135.532409 -292.615805 
L 142.772773 -293.419965 
L 150.013136 -294.238793 
L 157.2535 -295.062249 
L 164.493864 -295.879771 
L 171.734227 -296.680571 
L 178.974591 -297.453902 
L 186.214955 -298.189266 
L 193.455318 -298.876666 
L 200.695682 -299.506723 
L 207.936045 -300.070801 
L 215.176409 -300.56099 
L 222.416773 -300.970093 
L 229.657136 -301.291534 
L 236.8975 -301.51924 
L 244.137864 -301.647504 
L 251.378227 -301.670886 
L 258.618591 -301.584116 
L 265.858955 -301.382079 
L 273.099318 -301.059882 
L 280.339682 -300.613029 
L 287.580045 -300.037753 
L 294.820409 -299.331447 
L 302.060773 -298.493311 
L 309.301136 -297.5251 
L 316.5415 -296.431938 
L 323.781864 -295.223104 
L 331.022227 -293.912686 
L 338.262591 -292.519839 
L 345.502955 -291.068545 
L 352.743318 -289.586757 
L 359.983682 -288.104856 
L 367.224045 -286.653643 
L 374.464409 -285.262071 
L 381.704773 -283.955123 
L 388.945136 -282.752173 
L 396.1855 -281.666056 
L 403.425864 -280.702971 
L 410.666227 -280.302479 
L 417.906591 -280.302479 
L 417.906591 -275.76431 
L 417.906591 -275.76431 
L 410.666227 -275.76431 
L 403.425864 -275.76431 
L 396.1855 -275.76431 
L 388.945136 -275.76431 
L 381.704773 -275.76431 
L 374.464409 -275.76431 
L 367.224045 -275.76431 
L 359.983682 -275.76431 
L 352.743318 -275.76431 
L 345.502955 -275.76431 
L 338.262591 -275.76431 
L 331.022227 -275.76431 
L 323.781864 -275.76431 
L 316.5415 -275.76431 
L 309.301136 -275.76431 
L 302.060773 -275.76431 
L 294.820409 -275.76431 
L 287.580045 -275.76431 
L 280.339682 -275.76431 
L 273.099318 -275.76431 
L 265.858955 -275.76431 
L 258.618591 -275.76431 
L 251.378227 -275.76431 
L 244.137864 -275.76431 
L 236.8975 -275.76431 
L 229.657136 -275.76431 
L 222.416773 -275.76431 
L 215.176409 -275.76431 
L 207.936045 -275.76431 
L 200.695682 -275.76431 
L 193.455318 -275.76431 
L 186.214955 -275.76431 
L 178.974591 -275.76431 
L 171.734227 -275.76431 
L 164.493864 -275.76431 
L 157.2535 -275.76431 
L 150.013136 -275.76431 
L 142.772773 -275.76431 
L 135.532409 -275.76431 
L 128.292045 -275.76431 
L 121.051682 -275.76431 
L 113.811318 -275.76431 
L 106.570955 -275.76431 
L 99.330591 -275.76431 
L 92.090227 -275.76431 
L 84.849864 -275.76431 
L 77.6095 -275.76431 
L 70.369136 -275.76431 
L 63.128773 -275.76431 
L 55.888409 -275.76431 
z
" style="stroke: #000080; stroke-opacity: 0.2"/>
    </defs>
    <g clip-path="url(#p672a79c2fb)">
     <use xlink:href="#mfe6e2d6991" x="0" y="325.85" style="fill: #000080; fill-opacity: 0.2; stroke: #000080; stroke-opacity: 0.2"/>
    </g>
   </g>
   <g id="matplotlib.axis_1"/>
   <g id="matplotlib.axis_2"/>
   <g id="line2d_1">
    <path d="M 55.888409 15.653129 
L 63.128773 15.889245 
L 70.369136 16.193168 
L 77.6095 16.563053 
L 84.849864 16.996957 
L 92.090227 17.492657 
L 99.330591 18.047424 
L 106.570955 18.657853 
L 113.811318 19.319658 
L 121.051682 20.027593 
L 128.292045 20.775339 
L 135.532409 21.555502 
L 142.772773 22.359662 
L 150.013136 23.17849 
L 157.2535 24.001946 
L 164.493864 24.819468 
L 171.734227 25.620268 
L 178.974591 26.393599 
L 186.214955 27.128963 
L 193.455318 27.816363 
L 200.695682 28.446421 
L 207.936045 29.010498 
L 215.176409 29.500687 
L 222.416773 29.90979 
L 229.657136 30.231231 
L 236.8975 30.458937 
L 244.137864 30.587201 
L 251.378227 30.610583 
L 258.618591 30.523813 
L 265.858955 30.321776 
L 273.099318 29.999579 
L 280.339682 29.552726 
L 287.580045 28.97745 
L 294.820409 28.271144 
L 302.060773 27.433008 
L 309.301136 26.464797 
L 316.5415 25.371635 
L 323.781864 24.162801 
L 331.022227 22.852383 
L 338.262591 21.459536 
L 345.502955 20.008242 
L 352.743318 18.526454 
L 359.983682 17.044553 
L 367.224045 15.59334 
L 374.464409 14.201768 
L 381.704773 12.89482 
L 388.945136 11.69187 
L 396.1855 10.605753 
L 403.425864 9.642668 
L 410.666227 9.242176 
L 417.906591 9.242176 
" clip-path="url(#p672a79c2fb)" style="fill: none; stroke: #dc143c; stroke-width: 1.5; stroke-linecap: square"/>
   </g>
   <g id="line2d_2">
    <path d="M 55.888409 39.136568 
L 63.128773 38.900452 
L 70.369136 38.596529 
L 77.6095 38.226644 
L 84.849864 37.79274 
L 92.090227 37.29704 
L 99.330591 36.742273 
L 106.570955 36.131844 
L 113.811318 35.470039 
L 121.051682 34.762105 
L 128.292045 34.014358 
L 135.532409 33.234195 
L 142.772773 32.430035 
L 150.013136 31.611207 
L 157.2535 30.787751 
L 164.493864 29.970229 
L 171.734227 29.169429 
L 178.974591 28.396098 
L 186.214955 27.660734 
L 193.455318 26.973334 
L 200.695682 26.343277 
L 207.936045 25.779199 
L 215.176409 25.28901 
L 222.416773 24.879907 
L 229.657136 24.558466 
L 236.8975 24.33076 
L 244.137864 24.202496 
L 251.378227 24.179114 
L 258.618591 24.265884 
L 265.858955 24.467921 
L 273.099318 24.790118 
L 280.339682 25.236971 
L 287.580045 25.812247 
L 294.820409 26.518553 
L 302.060773 27.356689 
L 309.301136 28.3249 
L 316.5415 29.418062 
L 323.781864 30.626896 
L 331.022227 31.937314 
L 338.262591 33.330161 
L 345.502955 34.781455 
L 352.743318 36.263243 
L 359.983682 37.745144 
L 367.224045 39.196357 
L 374.464409 40.587929 
L 381.704773 41.894877 
L 388.945136 43.097827 
L 396.1855 44.183944 
L 403.425864 45.147029 
L 410.666227 45.547521 
L 417.906591 45.547521 
" clip-path="url(#p672a79c2fb)" style="fill: none; stroke: #000080; stroke-width: 1.5; stroke-linecap: square"/>
   </g>
  </g>
  <g id="axes_2">
   <g id="patch_3">
    <path d="M 37.7875 164.403933 
L 436.0075 164.403933 
L 436.0075 74.548202 
L 37.7875 74.548202 
z
" style="fill: #ffffff"/>
   </g>
   <g id="PathCollection_1">
    <defs>
     <path id="mb4fe7ad46e" d="M 0 0.866025 
C 0.229673 0.866025 0.449969 0.774776 0.612372 0.612372 
C 0.774776 0.449969 0.866025 0.229673 0.866025 0 
C 0.866025 -0.229673 0.774776 -0.449969 0.612372 -0.612372 
C 0.449969 -0.774776 0.229673 -0.866025 0 -0.866025 
C -0.229673 -0.866025 -0.449969 -0.774776 -0.612372 -0.612372 
C -0.774776 -0.449969 -0.866025 -0.229673 -0.866025 0 
C -0.866025 0.229673 -0.774776 0.449969 -0.612372 0.612372 
C -0.449969 0.774776 -0.229673 0.866025 0 0.866025 
z
" style="stroke: #daa520"/>
    </defs>
    <g clip-path="url(#p42d91c3c9c)">
     <use xlink:href="#mb4fe7ad46e" x="332.738123" y="101.915662" style="fill: #daa520; stroke: #daa520"/>
     <use xlink:href="#mb4fe7ad46e" x="209.994928" y="101.514353" style="fill: #daa520; stroke: #daa520"/>
     <use xlink:href="#mb4fe7ad46e" x="358.3524" y="97.40943" style="fill: #daa520; stroke: #daa520"/>
     <use xlink:href="#mb4fe7ad46e" x="210.201495" y="103.521807" style="fill: #daa520; stroke: #daa520"/>
     <use xlink:href="#mb4fe7ad46e" x="370.82143" y="91.736815" style="fill: #daa520; stroke: #daa520"/>
     <use xlink:href="#mb4fe7ad46e" x="197.605609" y="107.150934" style="fill: #daa520; stroke: #daa520"/>
     <use xlink:href="#mb4fe7ad46e" x="383.648844" y="85.959315" style="fill: #daa520; stroke: #daa520"/>
     <use xlink:href="#mb4fe7ad46e" x="414.933465" y="93.474797" style="fill: #daa520; stroke: #daa520"/>
     <use xlink:href="#mb4fe7ad46e" x="380.59535" y="126.499811" style="fill: #daa520; stroke: #daa520"/>
     <use xlink:href="#mb4fe7ad46e" x="281.485562" y="90.082767" style="fill: #daa520; stroke: #daa520"/>
     <use xlink:href="#mb4fe7ad46e" x="342.861926" y="78.632553" style="fill: #daa520; stroke: #daa520"/>
     <use xlink:href="#mb4fe7ad46e" x="98.044456" y="159.070537" style="fill: #daa520; stroke: #daa520"/>
     <use xlink:href="#mb4fe7ad46e" x="369.526127" y="134.805305" style="fill: #daa520; stroke: #daa520"/>
     <use xlink:href="#mb4fe7ad46e" x="380.87447" y="91.18906" style="fill: #daa520; stroke: #daa520"/>
     <use xlink:href="#mb4fe7ad46e" x="200.724522" y="103.894579" style="fill: #daa520; stroke: #daa520"/>
     <use xlink:href="#mb4fe7ad46e" x="283.922358" y="131.546671" style="fill: #daa520; stroke: #daa520"/>
     <use xlink:href="#mb4fe7ad46e" x="137.969664" y="155.1889" style="fill: #daa520; stroke: #daa520"/>
     <use xlink:href="#mb4fe7ad46e" x="116.240725" y="159.402037" style="fill: #daa520; stroke: #daa520"/>
     <use xlink:href="#mb4fe7ad46e" x="381.112092" y="102.55756" style="fill: #daa520; stroke: #daa520"/>
     <use xlink:href="#mb4fe7ad46e" x="355.787714" y="142.614437" style="fill: #daa520; stroke: #daa520"/>
     <use xlink:href="#mb4fe7ad46e" x="145.593687" y="148.856602" style="fill: #daa520; stroke: #daa520"/>
     <use xlink:href="#mb4fe7ad46e" x="352.281476" y="119.237351" style="fill: #daa520; stroke: #daa520"/>
     <use xlink:href="#mb4fe7ad46e" x="120.080161" y="131.869517" style="fill: #daa520; stroke: #daa520"/>
     <use xlink:href="#mb4fe7ad46e" x="153.707371" y="124.988643" style="fill: #daa520; stroke: #daa520"/>
     <use xlink:href="#mb4fe7ad46e" x="244.782194" y="89.377206" style="fill: #daa520; stroke: #daa520"/>
     <use xlink:href="#mb4fe7ad46e" x="223.592845" y="97.771231" style="fill: #daa520; stroke: #daa520"/>
     <use xlink:href="#mb4fe7ad46e" x="410.795844" y="117.24751" style="fill: #daa520; stroke: #daa520"/>
     <use xlink:href="#mb4fe7ad46e" x="385.52595" y="91.232025" style="fill: #daa520; stroke: #daa520"/>
     <use xlink:href="#mb4fe7ad46e" x="92.633997" y="118.737487" style="fill: #daa520; stroke: #daa520"/>
     <use xlink:href="#mb4fe7ad46e" x="193.814701" y="108.042247" style="fill: #daa520; stroke: #daa520"/>
     <use xlink:href="#mb4fe7ad46e" x="413.331494" y="91.1558" style="fill: #daa520; stroke: #daa520"/>
     <use xlink:href="#mb4fe7ad46e" x="373.545685" y="95.659988" style="fill: #daa520; stroke: #daa520"/>
     <use xlink:href="#mb4fe7ad46e" x="286.45631" y="82.240432" style="fill: #daa520; stroke: #daa520"/>
     <use xlink:href="#mb4fe7ad46e" x="363.826806" y="81.663703" style="fill: #daa520; stroke: #daa520"/>
     <use xlink:href="#mb4fe7ad46e" x="59.271228" y="125.058577" style="fill: #daa520; stroke: #daa520"/>
     <use xlink:href="#mb4fe7ad46e" x="333.263265" y="80.466062" style="fill: #daa520; stroke: #daa520"/>
     <use xlink:href="#mb4fe7ad46e" x="267.621353" y="85.196056" style="fill: #daa520; stroke: #daa520"/>
     <use xlink:href="#mb4fe7ad46e" x="401.214517" y="125.418525" style="fill: #daa520; stroke: #daa520"/>
     <use xlink:href="#mb4fe7ad46e" x="107.182002" y="114.718621" style="fill: #daa520; stroke: #daa520"/>
     <use xlink:href="#mb4fe7ad46e" x="206.450309" y="118.675123" style="fill: #daa520; stroke: #daa520"/>
     <use xlink:href="#mb4fe7ad46e" x="285.906359" y="122.422905" style="fill: #daa520; stroke: #daa520"/>
     <use xlink:href="#mb4fe7ad46e" x="125.191476" y="117.587647" style="fill: #daa520; stroke: #daa520"/>
     <use xlink:href="#mb4fe7ad46e" x="294.25181" y="112.327078" style="fill: #daa520; stroke: #daa520"/>
     <use xlink:href="#mb4fe7ad46e" x="243.484291" y="88.75537" style="fill: #daa520; stroke: #daa520"/>
     <use xlink:href="#mb4fe7ad46e" x="361.366351" y="141.233557" style="fill: #daa520; stroke: #daa520"/>
     <use xlink:href="#mb4fe7ad46e" x="137.163784" y="119.596409" style="fill: #daa520; stroke: #daa520"/>
     <use xlink:href="#mb4fe7ad46e" x="59.91598" y="120.028375" style="fill: #daa520; stroke: #daa520"/>
     <use xlink:href="#mb4fe7ad46e" x="300.414436" y="101.56377" style="fill: #daa520; stroke: #daa520"/>
     <use xlink:href="#mb4fe7ad46e" x="115.242154" y="120.513841" style="fill: #daa520; stroke: #daa520"/>
     <use xlink:href="#mb4fe7ad46e" x="196.626055" y="136.001878" style="fill: #daa520; stroke: #daa520"/>
     <use xlink:href="#mb4fe7ad46e" x="309.445492" y="114.534214" style="fill: #daa520; stroke: #daa520"/>
     <use xlink:href="#mb4fe7ad46e" x="191.010045" y="127.299736" style="fill: #daa520; stroke: #daa520"/>
     <use xlink:href="#mb4fe7ad46e" x="251.327459" y="160.319581" style="fill: #daa520; stroke: #daa520"/>
     <use xlink:href="#mb4fe7ad46e" x="226.8569" y="136.123954" style="fill: #daa520; stroke: #daa520"/>
     <use xlink:href="#mb4fe7ad46e" x="387.595048" y="84.147417" style="fill: #daa520; stroke: #daa520"/>
     <use xlink:href="#mb4fe7ad46e" x="172.09012" y="151.329092" style="fill: #daa520; stroke: #daa520"/>
     <use xlink:href="#mb4fe7ad46e" x="110.181404" y="126.201822" style="fill: #daa520; stroke: #daa520"/>
     <use xlink:href="#mb4fe7ad46e" x="98.117274" y="157.609313" style="fill: #daa520; stroke: #daa520"/>
     <use xlink:href="#mb4fe7ad46e" x="306.743518" y="88.056215" style="fill: #daa520; stroke: #daa520"/>
     <use xlink:href="#mb4fe7ad46e" x="269.058492" y="152.59491" style="fill: #daa520; stroke: #daa520"/>
     <use xlink:href="#mb4fe7ad46e" x="123.635945" y="143.431227" style="fill: #daa520; stroke: #daa520"/>
     <use xlink:href="#mb4fe7ad46e" x="355.02381" y="94.025401" style="fill: #daa520; stroke: #daa520"/>
     <use xlink:href="#mb4fe7ad46e" x="267.28197" y="95.829196" style="fill: #daa520; stroke: #daa520"/>
     <use xlink:href="#mb4fe7ad46e" x="85.986785" y="116.301633" style="fill: #daa520; stroke: #daa520"/>
     <use xlink:href="#mb4fe7ad46e" x="79.477837" y="129.284525" style="fill: #daa520; stroke: #daa520"/>
     <use xlink:href="#mb4fe7ad46e" x="101.13562" y="158.311003" style="fill: #daa520; stroke: #daa520"/>
     <use xlink:href="#mb4fe7ad46e" x="380.770103" y="87.521309" style="fill: #daa520; stroke: #daa520"/>
     <use xlink:href="#mb4fe7ad46e" x="228.210813" y="99.028371" style="fill: #daa520; stroke: #daa520"/>
     <use xlink:href="#mb4fe7ad46e" x="299.551767" y="109.106017" style="fill: #daa520; stroke: #daa520"/>
     <use xlink:href="#mb4fe7ad46e" x="112.52779" y="123.314475" style="fill: #daa520; stroke: #daa520"/>
     <use xlink:href="#mb4fe7ad46e" x="172.444221" y="149.118894" style="fill: #daa520; stroke: #daa520"/>
     <use xlink:href="#mb4fe7ad46e" x="300.156775" y="79.529848" style="fill: #daa520; stroke: #daa520"/>
     <use xlink:href="#mb4fe7ad46e" x="401.050696" y="107.725763" style="fill: #daa520; stroke: #daa520"/>
     <use xlink:href="#mb4fe7ad46e" x="98.057289" y="150.295792" style="fill: #daa520; stroke: #daa520"/>
     <use xlink:href="#mb4fe7ad46e" x="125.102331" y="136.663999" style="fill: #daa520; stroke: #daa520"/>
     <use xlink:href="#mb4fe7ad46e" x="145.092502" y="121.855316" style="fill: #daa520; stroke: #daa520"/>
     <use xlink:href="#mb4fe7ad46e" x="215.924487" y="122.460923" style="fill: #daa520; stroke: #daa520"/>
     <use xlink:href="#mb4fe7ad46e" x="410.777611" y="100.188012" style="fill: #daa520; stroke: #daa520"/>
     <use xlink:href="#mb4fe7ad46e" x="70.645659" y="131.748484" style="fill: #daa520; stroke: #daa520"/>
     <use xlink:href="#mb4fe7ad46e" x="302.581089" y="144.304141" style="fill: #daa520; stroke: #daa520"/>
     <use xlink:href="#mb4fe7ad46e" x="248.201841" y="88.697628" style="fill: #daa520; stroke: #daa520"/>
     <use xlink:href="#mb4fe7ad46e" x="162.956022" y="143.314834" style="fill: #daa520; stroke: #daa520"/>
     <use xlink:href="#mb4fe7ad46e" x="190.480499" y="108.05056" style="fill: #daa520; stroke: #daa520"/>
     <use xlink:href="#mb4fe7ad46e" x="387.205895" y="87.663666" style="fill: #daa520; stroke: #daa520"/>
     <use xlink:href="#mb4fe7ad46e" x="376.852574" y="125.398665" style="fill: #daa520; stroke: #daa520"/>
     <use xlink:href="#mb4fe7ad46e" x="393.218697" y="99.491877" style="fill: #daa520; stroke: #daa520"/>
     <use xlink:href="#mb4fe7ad46e" x="126.809036" y="154.918192" style="fill: #daa520; stroke: #daa520"/>
     <use xlink:href="#mb4fe7ad46e" x="297.767794" y="83.134666" style="fill: #daa520; stroke: #daa520"/>
     <use xlink:href="#mb4fe7ad46e" x="219.469131" y="98.594809" style="fill: #daa520; stroke: #daa520"/>
     <use xlink:href="#mb4fe7ad46e" x="361.187911" y="118.044104" style="fill: #daa520; stroke: #daa520"/>
    </g>
   </g>
   <g id="matplotlib.axis_3"/>
   <g id="matplotlib.axis_4">
    <g id="ytick_1">
     <g id="line2d_3">
      <defs>
       <path id="m61ddd2318b" d="M 0 0 
L -3.5 0 
" style="stroke: #696969; stroke-width: 0.8"/>
      </defs>
      <g>
       <use xlink:href="#m61ddd2318b" x="37.7875" y="160.902707" style="fill: #696969; stroke: #696969; stroke-width: 0.8"/>
      </g>
     </g>
     <g id="text_1">
      <!-- −5 -->
      <g style="fill: #696969" transform="translate(7.2 166.981457) scale(0.16 -0.16)">
       <defs>
        <path id="DejaVuSans-2212" d="M 678 2272 
L 4684 2272 
L 4684 1741 
L 678 1741 
L 678 2272 
z
" transform="scale(0.015625)"/>
        <path id="DejaVuSans-35" d="M 691 4666 
L 3169 4666 
L 3169 4134 
L 1269 4134 
L 1269 2991 
Q 1406 3038 1543 3061 
Q 1681 3084 1819 3084 
Q 2600 3084 3056 2656 
Q 3513 2228 3513 1497 
Q 3513 744 3044 326 
Q 2575 -91 1722 -91 
Q 1428 -91 1123 -41 
Q 819 9 494 109 
L 494 744 
Q 775 591 1075 516 
Q 1375 441 1709 441 
Q 2250 441 2565 725 
Q 2881 1009 2881 1497 
Q 2881 1984 2565 2268 
Q 2250 2553 1709 2553 
Q 1456 2553 1204 2497 
Q 953 2441 691 2322 
L 691 4666 
z
" transform="scale(0.015625)"/>
       </defs>
       <use xlink:href="#DejaVuSans-2212"/>
       <use xlink:href="#DejaVuSans-35" x="83.789062"/>
      </g>
     </g>
    </g>
    <g id="ytick_2">
     <g id="line2d_4">
      <g>
       <use xlink:href="#m61ddd2318b" x="37.7875" y="128.192154" style="fill: #696969; stroke: #696969; stroke-width: 0.8"/>
      </g>
     </g>
     <g id="text_2">
      <!-- 0 -->
      <g style="fill: #696969" transform="translate(20.6075 134.270904) scale(0.16 -0.16)">
       <defs>
        <path id="DejaVuSans-30" d="M 2034 4250 
Q 1547 4250 1301 3770 
Q 1056 3291 1056 2328 
Q 1056 1369 1301 889 
Q 1547 409 2034 409 
Q 2525 409 2770 889 
Q 3016 1369 3016 2328 
Q 3016 3291 2770 3770 
Q 2525 4250 2034 4250 
z
M 2034 4750 
Q 2819 4750 3233 4129 
Q 3647 3509 3647 2328 
Q 3647 1150 3233 529 
Q 2819 -91 2034 -91 
Q 1250 -91 836 529 
Q 422 1150 422 2328 
Q 422 3509 836 4129 
Q 1250 4750 2034 4750 
z
" transform="scale(0.015625)"/>
       </defs>
       <use xlink:href="#DejaVuSans-30"/>
      </g>
     </g>
    </g>
    <g id="ytick_3">
     <g id="line2d_5">
      <g>
       <use xlink:href="#m61ddd2318b" x="37.7875" y="95.481602" style="fill: #696969; stroke: #696969; stroke-width: 0.8"/>
      </g>
     </g>
     <g id="text_3">
      <!-- 5 -->
      <g style="fill: #696969" transform="translate(20.6075 101.560352) scale(0.16 -0.16)">
       <use xlink:href="#DejaVuSans-35"/>
      </g>
     </g>
    </g>
   </g>
   <g id="line2d_6">
    <path d="M 55.888409 132.716046 
L 63.128773 131.884495 
L 70.369136 131.214625 
L 77.6095 130.69642 
L 84.849864 130.311813 
L 92.090227 130.036162 
L 99.330591 129.840079 
L 106.570955 129.691458 
L 113.811318 129.557523 
L 121.051682 129.406709 
L 128.292045 129.210285 
L 135.532409 128.943585 
L 142.772773 128.58682 
L 150.013136 128.125493 
L 157.2535 127.550433 
L 164.493864 126.85753 
L 171.734227 126.047278 
L 178.974591 125.12419 
L 186.214955 124.096183 
L 193.455318 122.974003 
L 200.695682 121.770717 
L 207.936045 120.50127 
L 215.176409 119.182141 
L 222.416773 117.830989 
L 229.657136 116.46634 
L 236.8975 115.107172 
L 244.137864 113.772473 
L 251.378227 112.480653 
L 258.618591 111.248888 
L 265.858955 110.092384 
L 273.099318 109.023626 
L 280.339682 108.051676 
L 287.580045 107.181561 
L 294.820409 106.413861 
L 302.060773 105.744544 
L 309.301136 105.165059 
L 316.5415 104.662755 
L 323.781864 104.221574 
L 331.022227 103.823007 
L 338.262591 103.447227 
L 345.502955 103.074333 
L 352.743318 102.685604 
L 359.983682 102.264641 
L 367.224045 101.798355 
L 374.464409 101.277657 
L 381.704773 100.697843 
L 388.945136 100.058617 
L 396.1855 99.363773 
L 403.425864 98.620533 
L 410.666227 97.83865 
L 417.906591 97.029302 
" clip-path="url(#p42d91c3c9c)" style="fill: none; stroke: #000000; stroke-width: 2; stroke-linecap: square"/>
   </g>
   <g id="line2d_7">
    <path d="M 55.888409 134.332148 
L 63.128773 134.860038 
L 70.369136 135.155616 
L 77.6095 135.238034 
L 84.849864 135.125791 
L 92.090227 134.836736 
L 99.330591 134.388064 
L 106.570955 133.796319 
L 113.811318 133.077394 
L 121.051682 132.246528 
L 128.292045 131.318311 
L 135.532409 130.306677 
L 142.772773 129.224913 
L 150.013136 128.08565 
L 157.2535 126.900868 
L 164.493864 125.681896 
L 171.734227 124.439412 
L 178.974591 123.18344 
L 186.214955 121.923352 
L 193.455318 120.66787 
L 200.695682 119.425062 
L 207.936045 118.202346 
L 215.176409 117.006486 
L 222.416773 115.843597 
L 229.657136 114.719138 
L 236.8975 113.637921 
L 244.137864 112.604101 
L 251.378227 111.621185 
L 258.618591 110.692025 
L 265.858955 109.818825 
L 273.099318 109.003132 
L 280.339682 108.245846 
L 287.580045 107.547212 
L 294.820409 106.906824 
L 302.060773 106.323624 
L 309.301136 105.795901 
L 316.5415 105.321295 
L 323.781864 104.896792 
L 331.022227 104.518725 
L 338.262591 104.182777 
L 345.502955 103.883978 
L 352.743318 103.616707 
L 359.983682 103.374691 
L 367.224045 103.151004 
L 374.464409 102.938069 
L 381.704773 102.727657 
L 388.945136 102.510886 
L 396.1855 102.278224 
L 403.425864 102.019485 
L 410.666227 101.723833 
L 417.906591 101.379779 
" clip-path="url(#p42d91c3c9c)" style="fill: none; stroke-dasharray: 7.4,3.2; stroke-dashoffset: 0; stroke: #34b6c6; stroke-width: 2"/>
   </g>
   <g id="line2d_8">
    <path d="M 55.888409 132.017437 
L 63.128773 132.82877 
L 70.369136 133.443126 
L 77.6095 133.876451 
L 84.849864 134.143714 
L 92.090227 134.258829 
L 99.330591 134.234562 
L 106.570955 134.082408 
L 113.811318 133.812426 
L 121.051682 133.43303 
L 128.292045 132.950727 
L 135.532409 132.369777 
L 142.772773 131.691805 
L 150.013136 130.915381 
L 157.2535 130.035659 
L 164.493864 129.044285 
L 171.734227 127.929911 
L 178.974591 126.679868 
L 186.214955 125.283541 
L 193.455318 123.737663 
L 200.695682 122.052566 
L 207.936045 120.256844 
L 215.176409 118.396992 
L 222.416773 116.530272 
L 229.657136 114.713169 
L 236.8975 112.990955 
L 244.137864 111.39287 
L 251.378227 109.933381 
L 258.618591 108.61675 
L 265.858955 107.44178 
L 273.099318 106.405063 
L 280.339682 105.502514 
L 287.580045 104.729717 
L 294.820409 104.081702 
L 302.060773 103.552603 
L 309.301136 103.135412 
L 316.5415 102.821896 
L 323.781864 102.602652 
L 331.022227 102.467252 
L 338.262591 102.404415 
L 345.502955 102.402185 
L 352.743318 102.448067 
L 359.983682 102.529142 
L 367.224045 102.632136 
L 374.464409 102.743456 
L 381.704773 102.849214 
L 388.945136 102.935214 
L 396.1855 102.986942 
L 403.425864 102.989544 
L 410.666227 102.927793 
L 417.906591 102.786065 
" clip-path="url(#p42d91c3c9c)" style="fill: none; stroke-dasharray: 7.4,3.2; stroke-dashoffset: 0; stroke: #9370db; stroke-width: 2"/>
   </g>
   <g id="line2d_9">
    <path d="M 55.888409 130.78026 
L 63.128773 130.560888 
L 70.369136 130.338198 
L 77.6095 130.110908 
L 84.849864 129.877478 
L 92.090227 129.636048 
L 99.330591 129.384363 
L 106.570955 129.119668 
L 113.811318 128.838578 
L 121.051682 128.536909 
L 128.292045 128.209455 
L 135.532409 127.849723 
L 142.772773 127.449611 
L 150.013136 126.999061 
L 157.2535 126.485776 
L 164.493864 125.895131 
L 171.734227 125.210608 
L 178.974591 124.415143 
L 186.214955 123.493893 
L 193.455318 122.438538 
L 200.695682 121.252388 
L 207.936045 119.954178 
L 215.176409 118.577775 
L 222.416773 117.166365 
L 229.657136 115.763038 
L 236.8975 114.402283 
L 244.137864 113.106056 
L 251.378227 111.884814 
L 258.618591 110.741228 
L 265.858955 109.674064 
L 273.099318 108.680819 
L 280.339682 107.758982 
L 287.580045 106.906308 
L 294.820409 106.120641 
L 302.060773 105.399635 
L 309.301136 104.74055 
L 316.5415 104.140189 
L 323.781864 103.594937 
L 331.022227 103.100886 
L 338.262591 102.653971 
L 345.502955 102.250114 
L 352.743318 101.885339 
L 359.983682 101.555864 
L 367.224045 101.258153 
L 374.464409 100.988956 
L 381.704773 100.745314 
L 388.945136 100.524561 
L 396.1855 100.324312 
L 403.425864 100.142438 
L 410.666227 99.977052 
L 417.906591 99.826479 
" clip-path="url(#p42d91c3c9c)" style="fill: none; stroke-dasharray: 12.8,3.2,2,3.2; stroke-dashoffset: 0; stroke: #ff0000; stroke-width: 2"/>
   </g>
   <g id="patch_4">
    <path d="M 37.7875 164.403933 
L 37.7875 74.548202 
" style="fill: none; stroke: #000000; stroke-width: 0.8; stroke-linejoin: miter; stroke-linecap: square"/>
   </g>
   <g id="patch_5">
    <path d="M 436.0075 164.403933 
L 436.0075 74.548202 
" style="fill: none; stroke: #000000; stroke-width: 0.8; stroke-linejoin: miter; stroke-linecap: square"/>
   </g>
   <g id="patch_6">
    <path d="M 37.7875 164.403933 
L 436.0075 164.403933 
" style="fill: none; stroke: #000000; stroke-width: 0.8; stroke-linejoin: miter; stroke-linecap: square"/>
   </g>
   <g id="patch_7">
    <path d="M 37.7875 74.548202 
L 436.0075 74.548202 
" style="fill: none; stroke: #000000; stroke-width: 0.8; stroke-linejoin: miter; stroke-linecap: square"/>
   </g>
  </g>
  <g id="axes_3">
   <g id="patch_8">
    <path d="M 37.7875 276.68 
L 436.0075 276.68 
L 436.0075 186.824269 
L 37.7875 186.824269 
z
" style="fill: #ffffff"/>
   </g>
   <g id="PathCollection_2">
    <g clip-path="url(#p945f07da07)">
     <use xlink:href="#mb4fe7ad46e" x="332.738123" y="245.200493" style="fill: #daa520; stroke: #daa520"/>
     <use xlink:href="#mb4fe7ad46e" x="209.994928" y="263.822965" style="fill: #daa520; stroke: #daa520"/>
     <use xlink:href="#mb4fe7ad46e" x="358.3524" y="248.647166" style="fill: #daa520; stroke: #daa520"/>
     <use xlink:href="#mb4fe7ad46e" x="210.201495" y="261.578519" style="fill: #daa520; stroke: #daa520"/>
     <use xlink:href="#mb4fe7ad46e" x="370.82143" y="254.313556" style="fill: #daa520; stroke: #daa520"/>
     <use xlink:href="#mb4fe7ad46e" x="197.605609" y="260.059134" style="fill: #daa520; stroke: #daa520"/>
     <use xlink:href="#mb4fe7ad46e" x="383.648844" y="260.170702" style="fill: #daa520; stroke: #daa520"/>
     <use xlink:href="#mb4fe7ad46e" x="414.933465" y="251.053527" style="fill: #daa520; stroke: #daa520"/>
     <use xlink:href="#mb4fe7ad46e" x="380.59535" y="215.813776" style="fill: #daa520; stroke: #daa520"/>
     <use xlink:href="#mb4fe7ad46e" x="281.485562" y="263.254963" style="fill: #daa520; stroke: #daa520"/>
     <use xlink:href="#mb4fe7ad46e" x="342.861926" y="270.080616" style="fill: #daa520; stroke: #daa520"/>
     <use xlink:href="#mb4fe7ad46e" x="98.044456" y="211.512372" style="fill: #daa520; stroke: #daa520"/>
     <use xlink:href="#mb4fe7ad46e" x="369.526127" y="207.130688" style="fill: #daa520; stroke: #daa520"/>
     <use xlink:href="#mb4fe7ad46e" x="380.87447" y="254.531561" style="fill: #daa520; stroke: #daa520"/>
     <use xlink:href="#mb4fe7ad46e" x="200.724522" y="263.053296" style="fill: #daa520; stroke: #daa520"/>
     <use xlink:href="#mb4fe7ad46e" x="283.922358" y="217.459578" style="fill: #daa520; stroke: #daa520"/>
     <use xlink:href="#mb4fe7ad46e" x="137.969664" y="213.894229" style="fill: #daa520; stroke: #daa520"/>
     <use xlink:href="#mb4fe7ad46e" x="116.240725" y="210.39197" style="fill: #daa520; stroke: #daa520"/>
     <use xlink:href="#mb4fe7ad46e" x="381.112092" y="242.054525" style="fill: #daa520; stroke: #daa520"/>
     <use xlink:href="#mb4fe7ad46e" x="355.787714" y="199.194431" style="fill: #daa520; stroke: #daa520"/>
     <use xlink:href="#mb4fe7ad46e" x="145.593687" y="220.357475" style="fill: #daa520; stroke: #daa520"/>
     <use xlink:href="#mb4fe7ad46e" x="352.281476" y="225.01443" style="fill: #daa520; stroke: #daa520"/>
     <use xlink:href="#mb4fe7ad46e" x="120.080161" y="240.412048" style="fill: #daa520; stroke: #daa520"/>
     <use xlink:href="#mb4fe7ad46e" x="153.707371" y="245.948523" style="fill: #daa520; stroke: #daa520"/>
     <use xlink:href="#mb4fe7ad46e" x="244.782194" y="269.923679" style="fill: #daa520; stroke: #daa520"/>
     <use xlink:href="#mb4fe7ad46e" x="223.592845" y="265.041461" style="fill: #daa520; stroke: #daa520"/>
     <use xlink:href="#mb4fe7ad46e" x="410.795844" y="225.07646" style="fill: #daa520; stroke: #daa520"/>
     <use xlink:href="#mb4fe7ad46e" x="385.52595" y="254.324388" style="fill: #daa520; stroke: #daa520"/>
     <use xlink:href="#mb4fe7ad46e" x="92.633997" y="255.954138" style="fill: #daa520; stroke: #daa520"/>
     <use xlink:href="#mb4fe7ad46e" x="193.814701" y="259.749357" style="fill: #daa520; stroke: #daa520"/>
     <use xlink:href="#mb4fe7ad46e" x="413.331494" y="253.633526" style="fill: #daa520; stroke: #daa520"/>
     <use xlink:href="#mb4fe7ad46e" x="373.545685" y="249.901737" style="fill: #daa520; stroke: #daa520"/>
     <use xlink:href="#mb4fe7ad46e" x="286.45631" y="271.214266" style="fill: #daa520; stroke: #daa520"/>
     <use xlink:href="#mb4fe7ad46e" x="363.826806" y="265.660922" style="fill: #daa520; stroke: #daa520"/>
     <use xlink:href="#mb4fe7ad46e" x="59.271228" y="250.184569" style="fill: #daa520; stroke: #daa520"/>
     <use xlink:href="#mb4fe7ad46e" x="333.263265" y="268.689377" style="fill: #daa520; stroke: #daa520"/>
     <use xlink:href="#mb4fe7ad46e" x="267.621353" y="270.595432" style="fill: #daa520; stroke: #daa520"/>
     <use xlink:href="#mb4fe7ad46e" x="401.214517" y="216.358149" style="fill: #daa520; stroke: #daa520"/>
     <use xlink:href="#mb4fe7ad46e" x="107.182002" y="259.790594" style="fill: #daa520; stroke: #daa520"/>
     <use xlink:href="#mb4fe7ad46e" x="206.450309" y="245.724666" style="fill: #daa520; stroke: #daa520"/>
     <use xlink:href="#mb4fe7ad46e" x="285.906359" y="227.212694" style="fill: #daa520; stroke: #daa520"/>
     <use xlink:href="#mb4fe7ad46e" x="125.191476" y="255.828589" style="fill: #daa520; stroke: #daa520"/>
     <use xlink:href="#mb4fe7ad46e" x="294.25181" y="237.279292" style="fill: #daa520; stroke: #daa520"/>
     <use xlink:href="#mb4fe7ad46e" x="243.484291" y="270.853359" style="fill: #daa520; stroke: #daa520"/>
     <use xlink:href="#mb4fe7ad46e" x="361.366351" y="200.439076" style="fill: #daa520; stroke: #daa520"/>
     <use xlink:href="#mb4fe7ad46e" x="137.163784" y="252.978567" style="fill: #daa520; stroke: #daa520"/>
     <use xlink:href="#mb4fe7ad46e" x="59.91598" y="255.680112" style="fill: #daa520; stroke: #daa520"/>
     <use xlink:href="#mb4fe7ad46e" x="300.414436" y="248.40203" style="fill: #daa520; stroke: #daa520"/>
     <use xlink:href="#mb4fe7ad46e" x="115.242154" y="253.088123" style="fill: #daa520; stroke: #daa520"/>
     <use xlink:href="#mb4fe7ad46e" x="196.626055" y="228.592551" style="fill: #daa520; stroke: #daa520"/>
     <use xlink:href="#mb4fe7ad46e" x="309.445492" y="233.266121" style="fill: #daa520; stroke: #daa520"/>
     <use xlink:href="#mb4fe7ad46e" x="191.010045" y="239.0971" style="fill: #daa520; stroke: #daa520"/>
     <use xlink:href="#mb4fe7ad46e" x="251.327459" y="190.908621" style="fill: #daa520; stroke: #daa520"/>
     <use xlink:href="#mb4fe7ad46e" x="226.8569" y="222.28155" style="fill: #daa520; stroke: #daa520"/>
     <use xlink:href="#mb4fe7ad46e" x="387.595048" y="262.026548" style="fill: #daa520; stroke: #daa520"/>
     <use xlink:href="#mb4fe7ad46e" x="172.09012" y="215.335428" style="fill: #daa520; stroke: #daa520"/>
     <use xlink:href="#mb4fe7ad46e" x="110.181404" y="247.070228" style="fill: #daa520; stroke: #daa520"/>
     <use xlink:href="#mb4fe7ad46e" x="98.117274" y="213.112178" style="fill: #daa520; stroke: #daa520"/>
     <use xlink:href="#mb4fe7ad46e" x="306.743518" y="262.567897" style="fill: #daa520; stroke: #daa520"/>
     <use xlink:href="#mb4fe7ad46e" x="269.058492" y="196.455802" style="fill: #daa520; stroke: #daa520"/>
     <use xlink:href="#mb4fe7ad46e" x="123.635945" y="227.561025" style="fill: #daa520; stroke: #daa520"/>
     <use xlink:href="#mb4fe7ad46e" x="355.02381" y="252.523974" style="fill: #daa520; stroke: #daa520"/>
     <use xlink:href="#mb4fe7ad46e" x="267.28197" y="258.985448" style="fill: #daa520; stroke: #daa520"/>
     <use xlink:href="#mb4fe7ad46e" x="85.986785" y="258.869863" style="fill: #daa520; stroke: #daa520"/>
     <use xlink:href="#mb4fe7ad46e" x="79.477837" y="244.862253" style="fill: #daa520; stroke: #daa520"/>
     <use xlink:href="#mb4fe7ad46e" x="101.13562" y="212.224516" style="fill: #daa520; stroke: #daa520"/>
     <use xlink:href="#mb4fe7ad46e" x="380.770103" y="258.557943" style="fill: #daa520; stroke: #daa520"/>
     <use xlink:href="#mb4fe7ad46e" x="228.210813" y="262.680043" style="fill: #daa520; stroke: #daa520"/>
     <use xlink:href="#mb4fe7ad46e" x="299.551767" y="240.22238" style="fill: #daa520; stroke: #daa520"/>
     <use xlink:href="#mb4fe7ad46e" x="112.52779" y="250.136062" style="fill: #daa520; stroke: #daa520"/>
     <use xlink:href="#mb4fe7ad46e" x="172.444221" y="217.719519" style="fill: #daa520; stroke: #daa520"/>
     <use xlink:href="#mb4fe7ad46e" x="300.156775" y="272.595649" style="fill: #daa520; stroke: #daa520"/>
     <use xlink:href="#mb4fe7ad46e" x="401.050696" y="235.767444" style="fill: #daa520; stroke: #daa520"/>
     <use xlink:href="#mb4fe7ad46e" x="98.057289" y="221.135738" style="fill: #daa520; stroke: #daa520"/>
     <use xlink:href="#mb4fe7ad46e" x="125.102331" y="234.910694" style="fill: #daa520; stroke: #daa520"/>
     <use xlink:href="#mb4fe7ad46e" x="145.092502" y="250.00519" style="fill: #daa520; stroke: #daa520"/>
     <use xlink:href="#mb4fe7ad46e" x="215.924487" y="239.60333" style="fill: #daa520; stroke: #daa520"/>
     <use xlink:href="#mb4fe7ad46e" x="410.777611" y="243.787213" style="fill: #daa520; stroke: #daa520"/>
     <use xlink:href="#mb4fe7ad46e" x="70.645659" y="242.465072" style="fill: #daa520; stroke: #daa520"/>
     <use xlink:href="#mb4fe7ad46e" x="302.581089" y="201.297842" style="fill: #daa520; stroke: #daa520"/>
     <use xlink:href="#mb4fe7ad46e" x="248.201841" y="270.029374" style="fill: #daa520; stroke: #daa520"/>
     <use xlink:href="#mb4fe7ad46e" x="162.956022" y="225.061436" style="fill: #daa520; stroke: #daa520"/>
     <use xlink:href="#mb4fe7ad46e" x="190.480499" y="260.295016" style="fill: #daa520; stroke: #daa520"/>
     <use xlink:href="#mb4fe7ad46e" x="387.205895" y="258.182683" style="fill: #daa520; stroke: #daa520"/>
     <use xlink:href="#mb4fe7ad46e" x="376.852574" y="217.158362" style="fill: #daa520; stroke: #daa520"/>
     <use xlink:href="#mb4fe7ad46e" x="393.218697" y="245.021666" style="fill: #daa520; stroke: #daa520"/>
     <use xlink:href="#mb4fe7ad46e" x="126.809036" y="214.804136" style="fill: #daa520; stroke: #daa520"/>
     <use xlink:href="#mb4fe7ad46e" x="297.767794" y="268.901231" style="fill: #daa520; stroke: #daa520"/>
     <use xlink:href="#mb4fe7ad46e" x="219.469131" y="265.021625" style="fill: #daa520; stroke: #daa520"/>
     <use xlink:href="#mb4fe7ad46e" x="361.187911" y="225.880844" style="fill: #daa520; stroke: #daa520"/>
    </g>
   </g>
   <g id="matplotlib.axis_5">
    <g id="xtick_1">
     <g id="line2d_10">
      <defs>
       <path id="mf003383cc9" d="M 0 0 
L 0 3.5 
" style="stroke: #696969; stroke-width: 0.8"/>
      </defs>
      <g>
       <use xlink:href="#mf003383cc9" x="55.888409" y="276.68" style="fill: #696969; stroke: #696969; stroke-width: 0.8"/>
      </g>
     </g>
     <g id="text_4">
      <!-- −1.0 -->
      <g style="fill: #696969" transform="translate(36.462159 295.8375) scale(0.16 -0.16)">
       <defs>
        <path id="DejaVuSans-31" d="M 794 531 
L 1825 531 
L 1825 4091 
L 703 3866 
L 703 4441 
L 1819 4666 
L 2450 4666 
L 2450 531 
L 3481 531 
L 3481 0 
L 794 0 
L 794 531 
z
" transform="scale(0.015625)"/>
        <path id="DejaVuSans-2e" d="M 684 794 
L 1344 794 
L 1344 0 
L 684 0 
L 684 794 
z
" transform="scale(0.015625)"/>
       </defs>
       <use xlink:href="#DejaVuSans-2212"/>
       <use xlink:href="#DejaVuSans-31" x="83.789062"/>
       <use xlink:href="#DejaVuSans-2e" x="147.412109"/>
       <use xlink:href="#DejaVuSans-30" x="179.199219"/>
      </g>
     </g>
    </g>
    <g id="xtick_2">
     <g id="line2d_11">
      <g>
       <use xlink:href="#mf003383cc9" x="146.392955" y="276.68" style="fill: #696969; stroke: #696969; stroke-width: 0.8"/>
      </g>
     </g>
     <g id="text_5">
      <!-- −0.5 -->
      <g style="fill: #696969" transform="translate(126.966705 295.8375) scale(0.16 -0.16)">
       <use xlink:href="#DejaVuSans-2212"/>
       <use xlink:href="#DejaVuSans-30" x="83.789062"/>
       <use xlink:href="#DejaVuSans-2e" x="147.412109"/>
       <use xlink:href="#DejaVuSans-35" x="179.199219"/>
      </g>
     </g>
    </g>
    <g id="xtick_3">
     <g id="line2d_12">
      <g>
       <use xlink:href="#mf003383cc9" x="236.8975" y="276.68" style="fill: #696969; stroke: #696969; stroke-width: 0.8"/>
      </g>
     </g>
     <g id="text_6">
      <!-- 0.0 -->
      <g style="fill: #696969" transform="translate(224.175 295.8375) scale(0.16 -0.16)">
       <use xlink:href="#DejaVuSans-30"/>
       <use xlink:href="#DejaVuSans-2e" x="63.623047"/>
       <use xlink:href="#DejaVuSans-30" x="95.410156"/>
      </g>
     </g>
    </g>
    <g id="xtick_4">
     <g id="line2d_13">
      <g>
       <use xlink:href="#mf003383cc9" x="327.402045" y="276.68" style="fill: #696969; stroke: #696969; stroke-width: 0.8"/>
      </g>
     </g>
     <g id="text_7">
      <!-- 0.5 -->
      <g style="fill: #696969" transform="translate(314.679545 295.8375) scale(0.16 -0.16)">
       <use xlink:href="#DejaVuSans-30"/>
       <use xlink:href="#DejaVuSans-2e" x="63.623047"/>
       <use xlink:href="#DejaVuSans-35" x="95.410156"/>
      </g>
     </g>
    </g>
    <g id="xtick_5">
     <g id="line2d_14">
      <g>
       <use xlink:href="#mf003383cc9" x="417.906591" y="276.68" style="fill: #696969; stroke: #696969; stroke-width: 0.8"/>
      </g>
     </g>
     <g id="text_8">
      <!-- 1.0 -->
      <g style="fill: #696969" transform="translate(405.184091 295.8375) scale(0.16 -0.16)">
       <use xlink:href="#DejaVuSans-31"/>
       <use xlink:href="#DejaVuSans-2e" x="63.623047"/>
       <use xlink:href="#DejaVuSans-30" x="95.410156"/>
      </g>
     </g>
    </g>
    <g id="text_9">
     <!-- $X$ -->
     <g transform="translate(231.3775 315.3225) scale(0.16 -0.16)">
      <defs>
       <path id="DejaVuSans-Oblique-58" d="M 878 4666 
L 1516 4666 
L 2316 2981 
L 3763 4666 
L 4500 4666 
L 2578 2438 
L 3738 0 
L 3103 0 
L 2163 1966 
L 459 0 
L -275 0 
L 1906 2509 
L 878 4666 
z
" transform="scale(0.015625)"/>
      </defs>
      <use xlink:href="#DejaVuSans-Oblique-58" transform="translate(0 0.09375)"/>
     </g>
    </g>
   </g>
   <g id="matplotlib.axis_6">
    <g id="ytick_4">
     <g id="line2d_15">
      <g>
       <use xlink:href="#m61ddd2318b" x="37.7875" y="244.021247" style="fill: #696969; stroke: #696969; stroke-width: 0.8"/>
      </g>
     </g>
     <g id="text_10">
      <!-- 0 -->
      <g style="fill: #696969" transform="translate(20.6075 250.099997) scale(0.16 -0.16)">
       <use xlink:href="#DejaVuSans-30"/>
      </g>
     </g>
    </g>
    <g id="ytick_5">
     <g id="line2d_16">
      <g>
       <use xlink:href="#m61ddd2318b" x="37.7875" y="208.145347" style="fill: #696969; stroke: #696969; stroke-width: 0.8"/>
      </g>
     </g>
     <g id="text_11">
      <!-- 5 -->
      <g style="fill: #696969" transform="translate(20.6075 214.224097) scale(0.16 -0.16)">
       <use xlink:href="#DejaVuSans-35"/>
      </g>
     </g>
    </g>
   </g>
   <g id="line2d_17">
    <path d="M 55.888409 241.898137 
L 63.128773 242.569557 
L 70.369136 243.06001 
L 77.6095 243.379076 
L 84.849864 243.544882 
L 92.090227 243.582414 
L 99.330591 243.521432 
L 106.570955 243.394126 
L 113.811318 243.232732 
L 121.051682 243.067278 
L 128.292045 242.923568 
L 135.532409 242.821534 
L 142.772773 242.773991 
L 150.013136 242.785813 
L 157.2535 242.853565 
L 164.493864 242.965719 
L 171.734227 243.103614 
L 178.974591 243.243587 
L 186.214955 243.360674 
L 193.455318 243.433966 
L 200.695682 243.45276 
L 207.936045 243.421213 
L 215.176409 243.358398 
L 222.416773 243.292308 
L 229.657136 243.249888 
L 236.8975 243.248147 
L 244.137864 243.290342 
L 251.378227 243.367749 
L 258.618591 243.464462 
L 265.858955 243.562447 
L 273.099318 243.645267 
L 280.339682 243.70023 
L 287.580045 243.719358 
L 294.820409 243.699653 
L 302.060773 243.642961 
L 309.301136 243.555659 
L 316.5415 243.448113 
L 323.781864 243.333972 
L 331.022227 243.229248 
L 338.262591 243.151228 
L 345.502955 243.117269 
L 352.743318 243.143542 
L 359.983682 243.243882 
L 367.224045 243.42877 
L 374.464409 243.704609 
L 381.704773 244.073312 
L 388.945136 244.53228 
L 396.1855 245.074736 
L 403.425864 245.690425 
L 410.666227 246.366579 
L 417.906591 247.089102 
" clip-path="url(#p945f07da07)" style="fill: none; stroke: #696969; stroke-width: 2; stroke-linecap: square"/>
   </g>
   <g id="line2d_18">
    <path d="M 55.888409 251.623515 
L 63.128773 247.470847 
L 70.369136 244.055433 
L 77.6095 241.310382 
L 84.849864 239.171453 
L 92.090227 237.577053 
L 99.330591 236.468236 
L 106.570955 235.788705 
L 113.811318 235.484808 
L 121.051682 235.505544 
L 128.292045 235.802558 
L 135.532409 236.330143 
L 142.772773 237.04524 
L 150.013136 237.907438 
L 157.2535 238.878973 
L 164.493864 239.924729 
L 171.734227 241.01224 
L 178.974591 242.111683 
L 186.214955 243.195888 
L 193.455318 244.24033 
L 200.695682 245.223131 
L 207.936045 246.125063 
L 215.176409 246.929544 
L 222.416773 247.622641 
L 229.657136 248.193069 
L 236.8975 248.632188 
L 244.137864 248.93401 
L 251.378227 249.095192 
L 258.618591 249.11504 
L 265.858955 248.995505 
L 273.099318 248.741191 
L 280.339682 248.359344 
L 287.580045 247.859863 
L 294.820409 247.255291 
L 302.060773 246.56082 
L 309.301136 245.79429 
L 316.5415 244.976189 
L 323.781864 244.129653 
L 331.022227 243.280464 
L 338.262591 242.457054 
L 345.502955 241.690501 
L 352.743318 241.014532 
L 359.983682 240.465522 
L 367.224045 240.082492 
L 374.464409 239.907113 
L 381.704773 239.983702 
L 388.945136 240.359224 
L 396.1855 241.083293 
L 403.425864 242.208171 
L 410.666227 243.788765 
L 417.906591 245.882632 
" clip-path="url(#p945f07da07)" style="fill: none; stroke-dasharray: 7.4,3.2; stroke-dashoffset: 0; stroke: #79ad41; stroke-width: 2"/>
   </g>
   <g id="patch_9">
    <path d="M 37.7875 276.68 
L 37.7875 186.824269 
" style="fill: none; stroke: #000000; stroke-width: 0.8; stroke-linejoin: miter; stroke-linecap: square"/>
   </g>
   <g id="patch_10">
    <path d="M 436.0075 276.68 
L 436.0075 186.824269 
" style="fill: none; stroke: #000000; stroke-width: 0.8; stroke-linejoin: miter; stroke-linecap: square"/>
   </g>
   <g id="patch_11">
    <path d="M 37.7875 276.68 
L 436.0075 276.68 
" style="fill: none; stroke: #000000; stroke-width: 0.8; stroke-linejoin: miter; stroke-linecap: square"/>
   </g>
   <g id="patch_12">
    <path d="M 37.7875 186.824269 
L 436.0075 186.824269 
" style="fill: none; stroke: #000000; stroke-width: 0.8; stroke-linejoin: miter; stroke-linecap: square"/>
   </g>
  </g>
 </g>
 <defs>
  <clipPath id="p672a79c2fb">
   <rect x="37.7875" y="7.2" width="398.22" height="44.927865"/>
  </clipPath>
  <clipPath id="p42d91c3c9c">
   <rect x="37.7875" y="74.548202" width="398.22" height="89.855731"/>
  </clipPath>
  <clipPath id="p945f07da07">
   <rect x="37.7875" y="186.824269" width="398.22" height="89.855731"/>
  </clipPath>
 </defs>
</svg>
