<?xml version="1.0" encoding="utf-8" standalone="no"?>
<!DOCTYPE svg PUBLIC "-//W3C//DTD SVG 1.1//EN"
  "http://www.w3.org/Graphics/SVG/1.1/DTD/svg11.dtd">
<svg xmlns:xlink="http://www.w3.org/1999/xlink" width="443.2075pt" height="325.85pt" viewBox="0 0 443.2075 325.85" xmlns="http://www.w3.org/2000/svg" version="1.1">
 <metadata>
  <rdf:RDF xmlns:dc="http://purl.org/dc/elements/1.1/" xmlns:cc="http://creativecommons.org/ns#" xmlns:rdf="http://www.w3.org/1999/02/22-rdf-syntax-ns#">
   <cc:Work>
    <dc:type rdf:resource="http://purl.org/dc/dcmitype/StillImage"/>
    <dc:date>2024-01-28T20:52:04.822237</dc:date>
    <dc:format>image/svg+xml</dc:format>
    <dc:creator>
     <cc:Agent>
      <dc:title>Matplotlib v3.7.2, https://matplotlib.org/</dc:title>
     </cc:Agent>
    </dc:creator>
   </cc:Work>
  </rdf:RDF>
 </metadata>
 <defs>
  <style type="text/css">*{stroke-linejoin: round; stroke-linecap: butt}</style>
 </defs>
 <g id="figure_1">
  <g id="patch_1">
   <path d="M 0 325.85 
L 443.2075 325.85 
L 443.2075 0 
L 0 0 
z
" style="fill: #ffffff"/>
  </g>
  <g id="axes_1">
   <g id="patch_2">
    <path d="M 37.7875 53.324805 
L 436.0075 53.324805 
L 436.0075 7.2 
L 37.7875 7.2 
z
" style="fill: #ffffff"/>
   </g>
   <g id="PolyCollection_1">
    <defs>
     <path id="mc8e76b101d" d="M 55.888409 -274.621777 
L 55.888409 -309.971668 
L 63.128773 -309.729262 
L 70.369136 -309.417241 
L 77.6095 -309.037503 
L 84.849864 -308.592038 
L 92.090227 -308.083133 
L 99.330591 -307.513586 
L 106.570955 -306.886894 
L 113.811318 -306.207458 
L 121.051682 -305.480663 
L 128.292045 -304.712996 
L 135.532409 -303.912048 
L 142.772773 -303.086464 
L 150.013136 -302.245821 
L 157.2535 -301.400427 
L 164.493864 -300.561125 
L 171.734227 -299.738991 
L 178.974591 -298.945057 
L 186.214955 -298.190102 
L 193.455318 -297.484389 
L 200.695682 -296.837546 
L 207.936045 -296.258441 
L 215.176409 -295.755192 
L 222.416773 -295.33519 
L 229.657136 -295.005186 
L 236.8975 -294.771413 
L 244.137864 -294.639732 
L 251.378227 -294.615727 
L 258.618591 -294.704809 
L 265.858955 -294.912228 
L 273.099318 -295.243009 
L 280.339682 -295.701766 
L 287.580045 -296.292369 
L 294.820409 -297.017491 
L 302.060773 -297.877957 
L 309.301136 -298.871962 
L 316.5415 -299.994247 
L 323.781864 -301.235287 
L 331.022227 -302.580616 
L 338.262591 -304.010571 
L 345.502955 -305.500529 
L 352.743318 -307.021794 
L 359.983682 -308.543175 
L 367.224045 -310.03305 
L 374.464409 -311.461695 
L 381.704773 -312.803462 
L 388.945136 -314.038461 
L 396.1855 -315.153513 
L 403.425864 -316.142256 
L 410.666227 -316.553418 
L 417.906591 -316.553418 
L 417.906591 -274.621777 
L 417.906591 -274.621777 
L 410.666227 -274.621777 
L 403.425864 -274.621777 
L 396.1855 -274.621777 
L 388.945136 -274.621777 
L 381.704773 -274.621777 
L 374.464409 -274.621777 
L 367.224045 -274.621777 
L 359.983682 -274.621777 
L 352.743318 -274.621777 
L 345.502955 -274.621777 
L 338.262591 -274.621777 
L 331.022227 -274.621777 
L 323.781864 -274.621777 
L 316.5415 -274.621777 
L 309.301136 -274.621777 
L 302.060773 -274.621777 
L 294.820409 -274.621777 
L 287.580045 -274.621777 
L 280.339682 -274.621777 
L 273.099318 -274.621777 
L 265.858955 -274.621777 
L 258.618591 -274.621777 
L 251.378227 -274.621777 
L 244.137864 -274.621777 
L 236.8975 -274.621777 
L 229.657136 -274.621777 
L 222.416773 -274.621777 
L 215.176409 -274.621777 
L 207.936045 -274.621777 
L 200.695682 -274.621777 
L 193.455318 -274.621777 
L 186.214955 -274.621777 
L 178.974591 -274.621777 
L 171.734227 -274.621777 
L 164.493864 -274.621777 
L 157.2535 -274.621777 
L 150.013136 -274.621777 
L 142.772773 -274.621777 
L 135.532409 -274.621777 
L 128.292045 -274.621777 
L 121.051682 -274.621777 
L 113.811318 -274.621777 
L 106.570955 -274.621777 
L 99.330591 -274.621777 
L 92.090227 -274.621777 
L 84.849864 -274.621777 
L 77.6095 -274.621777 
L 70.369136 -274.621777 
L 63.128773 -274.621777 
L 55.888409 -274.621777 
z
" style="stroke: #dc143c; stroke-opacity: 0.2"/>
    </defs>
    <g clip-path="url(#p6a02483b16)">
     <use xlink:href="#mc8e76b101d" x="0" y="325.85" style="fill: #dc143c; fill-opacity: 0.2; stroke: #dc143c; stroke-opacity: 0.2"/>
    </g>
   </g>
   <g id="PolyCollection_2">
    <defs>
     <path id="m95b8c579e9" d="M 55.888409 -274.621777 
L 55.888409 -285.862598 
L 63.128773 -286.105004 
L 70.369136 -286.417025 
L 77.6095 -286.796763 
L 84.849864 -287.242228 
L 92.090227 -287.751134 
L 99.330591 -288.32068 
L 106.570955 -288.947372 
L 113.811318 -289.626808 
L 121.051682 -290.353603 
L 128.292045 -291.12127 
L 135.532409 -291.922218 
L 142.772773 -292.747802 
L 150.013136 -293.588445 
L 157.2535 -294.433839 
L 164.493864 -295.273141 
L 171.734227 -296.095275 
L 178.974591 -296.889209 
L 186.214955 -297.644164 
L 193.455318 -298.349877 
L 200.695682 -298.99672 
L 207.936045 -299.575825 
L 215.176409 -300.079074 
L 222.416773 -300.499076 
L 229.657136 -300.82908 
L 236.8975 -301.062853 
L 244.137864 -301.194534 
L 251.378227 -301.218539 
L 258.618591 -301.129457 
L 265.858955 -300.922038 
L 273.099318 -300.591257 
L 280.339682 -300.1325 
L 287.580045 -299.541897 
L 294.820409 -298.816775 
L 302.060773 -297.956309 
L 309.301136 -296.962304 
L 316.5415 -295.840019 
L 323.781864 -294.598979 
L 331.022227 -293.25365 
L 338.262591 -291.823695 
L 345.502955 -290.333737 
L 352.743318 -288.812472 
L 359.983682 -287.291091 
L 367.224045 -285.801216 
L 374.464409 -284.372571 
L 381.704773 -283.030804 
L 388.945136 -281.795805 
L 396.1855 -280.680753 
L 403.425864 -279.69201 
L 410.666227 -279.280848 
L 417.906591 -279.280848 
L 417.906591 -274.621777 
L 417.906591 -274.621777 
L 410.666227 -274.621777 
L 403.425864 -274.621777 
L 396.1855 -274.621777 
L 388.945136 -274.621777 
L 381.704773 -274.621777 
L 374.464409 -274.621777 
L 367.224045 -274.621777 
L 359.983682 -274.621777 
L 352.743318 -274.621777 
L 345.502955 -274.621777 
L 338.262591 -274.621777 
L 331.022227 -274.621777 
L 323.781864 -274.621777 
L 316.5415 -274.621777 
L 309.301136 -274.621777 
L 302.060773 -274.621777 
L 294.820409 -274.621777 
L 287.580045 -274.621777 
L 280.339682 -274.621777 
L 273.099318 -274.621777 
L 265.858955 -274.621777 
L 258.618591 -274.621777 
L 251.378227 -274.621777 
L 244.137864 -274.621777 
L 236.8975 -274.621777 
L 229.657136 -274.621777 
L 222.416773 -274.621777 
L 215.176409 -274.621777 
L 207.936045 -274.621777 
L 200.695682 -274.621777 
L 193.455318 -274.621777 
L 186.214955 -274.621777 
L 178.974591 -274.621777 
L 171.734227 -274.621777 
L 164.493864 -274.621777 
L 157.2535 -274.621777 
L 150.013136 -274.621777 
L 142.772773 -274.621777 
L 135.532409 -274.621777 
L 128.292045 -274.621777 
L 121.051682 -274.621777 
L 113.811318 -274.621777 
L 106.570955 -274.621777 
L 99.330591 -274.621777 
L 92.090227 -274.621777 
L 84.849864 -274.621777 
L 77.6095 -274.621777 
L 70.369136 -274.621777 
L 63.128773 -274.621777 
L 55.888409 -274.621777 
z
" style="stroke: #000080; stroke-opacity: 0.2"/>
    </defs>
    <g clip-path="url(#p6a02483b16)">
     <use xlink:href="#m95b8c579e9" x="0" y="325.85" style="fill: #000080; fill-opacity: 0.2; stroke: #000080; stroke-opacity: 0.2"/>
    </g>
   </g>
   <g id="matplotlib.axis_1"/>
   <g id="matplotlib.axis_2"/>
   <g id="line2d_1">
    <path d="M 55.888409 15.878332 
L 63.128773 16.120738 
L 70.369136 16.432759 
L 77.6095 16.812497 
L 84.849864 17.257962 
L 92.090227 17.766867 
L 99.330591 18.336414 
L 106.570955 18.963106 
L 113.811318 19.642542 
L 121.051682 20.369337 
L 128.292045 21.137004 
L 135.532409 21.937952 
L 142.772773 22.763536 
L 150.013136 23.604179 
L 157.2535 24.449573 
L 164.493864 25.288875 
L 171.734227 26.111009 
L 178.974591 26.904943 
L 186.214955 27.659898 
L 193.455318 28.365611 
L 200.695682 29.012454 
L 207.936045 29.591559 
L 215.176409 30.094808 
L 222.416773 30.51481 
L 229.657136 30.844814 
L 236.8975 31.078587 
L 244.137864 31.210268 
L 251.378227 31.234273 
L 258.618591 31.145191 
L 265.858955 30.937772 
L 273.099318 30.606991 
L 280.339682 30.148234 
L 287.580045 29.557631 
L 294.820409 28.832509 
L 302.060773 27.972043 
L 309.301136 26.978038 
L 316.5415 25.855753 
L 323.781864 24.614713 
L 331.022227 23.269384 
L 338.262591 21.839429 
L 345.502955 20.349471 
L 352.743318 18.828206 
L 359.983682 17.306825 
L 367.224045 15.81695 
L 374.464409 14.388305 
L 381.704773 13.046538 
L 388.945136 11.811539 
L 396.1855 10.696487 
L 403.425864 9.707744 
L 410.666227 9.296582 
L 417.906591 9.296582 
" clip-path="url(#p6a02483b16)" style="fill: none; stroke: #dc143c; stroke-width: 1.5; stroke-linecap: square"/>
   </g>
   <g id="line2d_2">
    <path d="M 55.888409 39.987402 
L 63.128773 39.744996 
L 70.369136 39.432975 
L 77.6095 39.053237 
L 84.849864 38.607772 
L 92.090227 38.098866 
L 99.330591 37.52932 
L 106.570955 36.902628 
L 113.811318 36.223192 
L 121.051682 35.496397 
L 128.292045 34.72873 
L 135.532409 33.927782 
L 142.772773 33.102198 
L 150.013136 32.261555 
L 157.2535 31.416161 
L 164.493864 30.576859 
L 171.734227 29.754725 
L 178.974591 28.960791 
L 186.214955 28.205836 
L 193.455318 27.500123 
L 200.695682 26.85328 
L 207.936045 26.274175 
L 215.176409 25.770926 
L 222.416773 25.350924 
L 229.657136 25.02092 
L 236.8975 24.787147 
L 244.137864 24.655466 
L 251.378227 24.631461 
L 258.618591 24.720543 
L 265.858955 24.927962 
L 273.099318 25.258743 
L 280.339682 25.7175 
L 287.580045 26.308103 
L 294.820409 27.033225 
L 302.060773 27.893691 
L 309.301136 28.887696 
L 316.5415 30.009981 
L 323.781864 31.251021 
L 331.022227 32.59635 
L 338.262591 34.026305 
L 345.502955 35.516263 
L 352.743318 37.037528 
L 359.983682 38.558909 
L 367.224045 40.048784 
L 374.464409 41.477429 
L 381.704773 42.819196 
L 388.945136 44.054195 
L 396.1855 45.169247 
L 403.425864 46.15799 
L 410.666227 46.569152 
L 417.906591 46.569152 
" clip-path="url(#p6a02483b16)" style="fill: none; stroke: #000080; stroke-width: 1.5; stroke-linecap: square"/>
   </g>
  </g>
  <g id="axes_2">
   <g id="patch_3">
    <path d="M 37.7875 165.002403 
L 436.0075 165.002403 
L 436.0075 72.752792 
L 37.7875 72.752792 
z
" style="fill: #ffffff"/>
   </g>
   <g id="PathCollection_1">
    <defs>
     <path id="mbf8b933717" d="M 0 0.866025 
C 0.229673 0.866025 0.449969 0.774776 0.612372 0.612372 
C 0.774776 0.449969 0.866025 0.229673 0.866025 0 
C 0.866025 -0.229673 0.774776 -0.449969 0.612372 -0.612372 
C 0.449969 -0.774776 0.229673 -0.866025 0 -0.866025 
C -0.229673 -0.866025 -0.449969 -0.774776 -0.612372 -0.612372 
C -0.774776 -0.449969 -0.866025 -0.229673 -0.866025 0 
C -0.866025 0.229673 -0.774776 0.449969 -0.612372 0.612372 
C -0.449969 0.774776 -0.229673 0.866025 0 0.866025 
z
" style="stroke: #daa520"/>
    </defs>
    <g clip-path="url(#p4bf609e685)">
     <use xlink:href="#mbf8b933717" x="103.089423" y="119.554693" style="fill: #daa520; stroke: #daa520"/>
     <use xlink:href="#mbf8b933717" x="278.331" y="156.238023" style="fill: #daa520; stroke: #daa520"/>
     <use xlink:href="#mbf8b933717" x="253.366146" y="90.731978" style="fill: #daa520; stroke: #daa520"/>
     <use xlink:href="#mbf8b933717" x="311.564422" y="93.032515" style="fill: #daa520; stroke: #daa520"/>
     <use xlink:href="#mbf8b933717" x="396.999381" y="90.346609" style="fill: #daa520; stroke: #daa520"/>
     <use xlink:href="#mbf8b933717" x="166.176384" y="130.577483" style="fill: #daa520; stroke: #daa520"/>
     <use xlink:href="#mbf8b933717" x="162.866587" y="133.17498" style="fill: #daa520; stroke: #daa520"/>
     <use xlink:href="#mbf8b933717" x="65.179115" y="152.038115" style="fill: #daa520; stroke: #daa520"/>
     <use xlink:href="#mbf8b933717" x="129.454951" y="149.313423" style="fill: #daa520; stroke: #daa520"/>
     <use xlink:href="#mbf8b933717" x="228.007719" y="116.859367" style="fill: #daa520; stroke: #daa520"/>
     <use xlink:href="#mbf8b933717" x="99.806698" y="119.188153" style="fill: #daa520; stroke: #daa520"/>
     <use xlink:href="#mbf8b933717" x="369.538538" y="116.759201" style="fill: #daa520; stroke: #daa520"/>
     <use xlink:href="#mbf8b933717" x="149.964015" y="149.663354" style="fill: #daa520; stroke: #daa520"/>
     <use xlink:href="#mbf8b933717" x="197.772759" y="107.107921" style="fill: #daa520; stroke: #daa520"/>
     <use xlink:href="#mbf8b933717" x="181.796184" y="108.374471" style="fill: #daa520; stroke: #daa520"/>
     <use xlink:href="#mbf8b933717" x="137.374607" y="116.748848" style="fill: #daa520; stroke: #daa520"/>
     <use xlink:href="#mbf8b933717" x="409.990796" y="88.195056" style="fill: #daa520; stroke: #daa520"/>
     <use xlink:href="#mbf8b933717" x="96.474297" y="117.415492" style="fill: #daa520; stroke: #daa520"/>
     <use xlink:href="#mbf8b933717" x="374.258295" y="132.054653" style="fill: #daa520; stroke: #daa520"/>
     <use xlink:href="#mbf8b933717" x="285.227799" y="93.28632" style="fill: #daa520; stroke: #daa520"/>
     <use xlink:href="#mbf8b933717" x="345.19592" y="139.117928" style="fill: #daa520; stroke: #daa520"/>
     <use xlink:href="#mbf8b933717" x="262.043966" y="83.938951" style="fill: #daa520; stroke: #daa520"/>
     <use xlink:href="#mbf8b933717" x="173.634412" y="115.978694" style="fill: #daa520; stroke: #daa520"/>
     <use xlink:href="#mbf8b933717" x="182.680412" y="109.768267" style="fill: #daa520; stroke: #daa520"/>
     <use xlink:href="#mbf8b933717" x="179.57023" y="123.663763" style="fill: #daa520; stroke: #daa520"/>
     <use xlink:href="#mbf8b933717" x="75.190566" y="126.335609" style="fill: #daa520; stroke: #daa520"/>
     <use xlink:href="#mbf8b933717" x="288.291219" y="157.258228" style="fill: #daa520; stroke: #daa520"/>
     <use xlink:href="#mbf8b933717" x="301.486763" y="83.856561" style="fill: #daa520; stroke: #daa520"/>
     <use xlink:href="#mbf8b933717" x="211.439992" y="100.263855" style="fill: #daa520; stroke: #daa520"/>
     <use xlink:href="#mbf8b933717" x="248.903458" y="92.893701" style="fill: #daa520; stroke: #daa520"/>
     <use xlink:href="#mbf8b933717" x="390.804521" y="108.774472" style="fill: #daa520; stroke: #daa520"/>
     <use xlink:href="#mbf8b933717" x="102.881986" y="122.124459" style="fill: #daa520; stroke: #daa520"/>
     <use xlink:href="#mbf8b933717" x="323.094149" y="85.373626" style="fill: #daa520; stroke: #daa520"/>
     <use xlink:href="#mbf8b933717" x="99.659368" y="117.192416" style="fill: #daa520; stroke: #daa520"/>
     <use xlink:href="#mbf8b933717" x="310.237359" y="76.950495" style="fill: #daa520; stroke: #daa520"/>
     <use xlink:href="#mbf8b933717" x="350.998154" y="127.714225" style="fill: #daa520; stroke: #daa520"/>
     <use xlink:href="#mbf8b933717" x="154.151648" y="127.972632" style="fill: #daa520; stroke: #daa520"/>
     <use xlink:href="#mbf8b933717" x="261.143757" y="88.082578" style="fill: #daa520; stroke: #daa520"/>
     <use xlink:href="#mbf8b933717" x="375.50475" y="84.660834" style="fill: #daa520; stroke: #daa520"/>
     <use xlink:href="#mbf8b933717" x="147.513535" y="124.666369" style="fill: #daa520; stroke: #daa520"/>
     <use xlink:href="#mbf8b933717" x="300.149881" y="77.948127" style="fill: #daa520; stroke: #daa520"/>
     <use xlink:href="#mbf8b933717" x="92.68822" y="118.995331" style="fill: #daa520; stroke: #daa520"/>
     <use xlink:href="#mbf8b933717" x="405.143445" y="87.067463" style="fill: #daa520; stroke: #daa520"/>
     <use xlink:href="#mbf8b933717" x="309.584473" y="76.945956" style="fill: #daa520; stroke: #daa520"/>
     <use xlink:href="#mbf8b933717" x="128.238611" y="137.736561" style="fill: #daa520; stroke: #daa520"/>
     <use xlink:href="#mbf8b933717" x="250.791164" y="87.178095" style="fill: #daa520; stroke: #daa520"/>
     <use xlink:href="#mbf8b933717" x="379.010605" y="93.804676" style="fill: #daa520; stroke: #daa520"/>
     <use xlink:href="#mbf8b933717" x="332.343482" y="108.084526" style="fill: #daa520; stroke: #daa520"/>
     <use xlink:href="#mbf8b933717" x="79.90988" y="122.478008" style="fill: #daa520; stroke: #daa520"/>
     <use xlink:href="#mbf8b933717" x="92.002499" y="116.285019" style="fill: #daa520; stroke: #daa520"/>
     <use xlink:href="#mbf8b933717" x="129.80664" y="143.884146" style="fill: #daa520; stroke: #daa520"/>
     <use xlink:href="#mbf8b933717" x="80.250729" y="116.257497" style="fill: #daa520; stroke: #daa520"/>
     <use xlink:href="#mbf8b933717" x="83.904834" y="131.991655" style="fill: #daa520; stroke: #daa520"/>
     <use xlink:href="#mbf8b933717" x="198.726704" y="124.780312" style="fill: #daa520; stroke: #daa520"/>
     <use xlink:href="#mbf8b933717" x="352.862154" y="141.144761" style="fill: #daa520; stroke: #daa520"/>
     <use xlink:href="#mbf8b933717" x="399.003236" y="101.80225" style="fill: #daa520; stroke: #daa520"/>
     <use xlink:href="#mbf8b933717" x="154.689545" y="114.476192" style="fill: #daa520; stroke: #daa520"/>
     <use xlink:href="#mbf8b933717" x="401.354423" y="86.671368" style="fill: #daa520; stroke: #daa520"/>
     <use xlink:href="#mbf8b933717" x="77.409338" y="125.798398" style="fill: #daa520; stroke: #daa520"/>
     <use xlink:href="#mbf8b933717" x="103.346595" y="116.141529" style="fill: #daa520; stroke: #daa520"/>
     <use xlink:href="#mbf8b933717" x="72.193086" y="160.809238" style="fill: #daa520; stroke: #daa520"/>
     <use xlink:href="#mbf8b933717" x="92.884383" y="116.054467" style="fill: #daa520; stroke: #daa520"/>
     <use xlink:href="#mbf8b933717" x="363.409414" y="95.711972" style="fill: #daa520; stroke: #daa520"/>
     <use xlink:href="#mbf8b933717" x="61.029692" y="155.909471" style="fill: #daa520; stroke: #daa520"/>
     <use xlink:href="#mbf8b933717" x="277.58951" y="129.307338" style="fill: #daa520; stroke: #daa520"/>
     <use xlink:href="#mbf8b933717" x="157.591475" y="122.007782" style="fill: #daa520; stroke: #daa520"/>
     <use xlink:href="#mbf8b933717" x="64.982955" y="119.217144" style="fill: #daa520; stroke: #daa520"/>
     <use xlink:href="#mbf8b933717" x="414.410559" y="88.298916" style="fill: #daa520; stroke: #daa520"/>
     <use xlink:href="#mbf8b933717" x="415.033554" y="95.346133" style="fill: #daa520; stroke: #daa520"/>
     <use xlink:href="#mbf8b933717" x="62.63079" y="129.499468" style="fill: #daa520; stroke: #daa520"/>
     <use xlink:href="#mbf8b933717" x="197.322678" y="135.449051" style="fill: #daa520; stroke: #daa520"/>
     <use xlink:href="#mbf8b933717" x="343.570063" y="93.627043" style="fill: #daa520; stroke: #daa520"/>
     <use xlink:href="#mbf8b933717" x="336.375227" y="96.428942" style="fill: #daa520; stroke: #daa520"/>
     <use xlink:href="#mbf8b933717" x="330.551519" y="111.785026" style="fill: #daa520; stroke: #daa520"/>
     <use xlink:href="#mbf8b933717" x="258.253527" y="122.019782" style="fill: #daa520; stroke: #daa520"/>
     <use xlink:href="#mbf8b933717" x="410.087936" y="111.969646" style="fill: #daa520; stroke: #daa520"/>
     <use xlink:href="#mbf8b933717" x="116.879729" y="122.356818" style="fill: #daa520; stroke: #daa520"/>
     <use xlink:href="#mbf8b933717" x="377.016503" y="100.133951" style="fill: #daa520; stroke: #daa520"/>
     <use xlink:href="#mbf8b933717" x="380.517143" y="84.808204" style="fill: #daa520; stroke: #daa520"/>
     <use xlink:href="#mbf8b933717" x="337.734082" y="110.350675" style="fill: #daa520; stroke: #daa520"/>
     <use xlink:href="#mbf8b933717" x="63.933572" y="131.523327" style="fill: #daa520; stroke: #daa520"/>
     <use xlink:href="#mbf8b933717" x="172.162617" y="113.273713" style="fill: #daa520; stroke: #daa520"/>
     <use xlink:href="#mbf8b933717" x="341.962492" y="116.040893" style="fill: #daa520; stroke: #daa520"/>
     <use xlink:href="#mbf8b933717" x="229.323551" y="113.805431" style="fill: #daa520; stroke: #daa520"/>
     <use xlink:href="#mbf8b933717" x="141.504812" y="113.006835" style="fill: #daa520; stroke: #daa520"/>
     <use xlink:href="#mbf8b933717" x="146.913654" y="116.596444" style="fill: #daa520; stroke: #daa520"/>
     <use xlink:href="#mbf8b933717" x="120.414988" y="145.311286" style="fill: #daa520; stroke: #daa520"/>
     <use xlink:href="#mbf8b933717" x="132.567066" y="140.373189" style="fill: #daa520; stroke: #daa520"/>
     <use xlink:href="#mbf8b933717" x="101.869698" y="126.830269" style="fill: #daa520; stroke: #daa520"/>
     <use xlink:href="#mbf8b933717" x="410.163608" y="92.314381" style="fill: #daa520; stroke: #daa520"/>
    </g>
   </g>
   <g id="matplotlib.axis_3"/>
   <g id="matplotlib.axis_4">
    <g id="ytick_1">
     <g id="line2d_3">
      <defs>
       <path id="m62353d9632" d="M 0 0 
L -3.5 0 
" style="stroke: #696969; stroke-width: 0.8"/>
      </defs>
      <g>
       <use xlink:href="#m62353d9632" x="37.7875" y="158.468828" style="fill: #696969; stroke: #696969; stroke-width: 0.8"/>
      </g>
     </g>
     <g id="text_1">
      <!-- −5 -->
      <g style="fill: #696969" transform="translate(7.2 164.547578) scale(0.16 -0.16)">
       <defs>
        <path id="DejaVuSans-2212" d="M 678 2272 
L 4684 2272 
L 4684 1741 
L 678 1741 
L 678 2272 
z
" transform="scale(0.015625)"/>
        <path id="DejaVuSans-35" d="M 691 4666 
L 3169 4666 
L 3169 4134 
L 1269 4134 
L 1269 2991 
Q 1406 3038 1543 3061 
Q 1681 3084 1819 3084 
Q 2600 3084 3056 2656 
Q 3513 2228 3513 1497 
Q 3513 744 3044 326 
Q 2575 -91 1722 -91 
Q 1428 -91 1123 -41 
Q 819 9 494 109 
L 494 744 
Q 775 591 1075 516 
Q 1375 441 1709 441 
Q 2250 441 2565 725 
Q 2881 1009 2881 1497 
Q 2881 1984 2565 2268 
Q 2250 2553 1709 2553 
Q 1456 2553 1204 2497 
Q 953 2441 691 2322 
L 691 4666 
z
" transform="scale(0.015625)"/>
       </defs>
       <use xlink:href="#DejaVuSans-2212"/>
       <use xlink:href="#DejaVuSans-35" x="83.789062"/>
      </g>
     </g>
    </g>
    <g id="ytick_2">
     <g id="line2d_4">
      <g>
       <use xlink:href="#m62353d9632" x="37.7875" y="127.138406" style="fill: #696969; stroke: #696969; stroke-width: 0.8"/>
      </g>
     </g>
     <g id="text_2">
      <!-- 0 -->
      <g style="fill: #696969" transform="translate(20.6075 133.217156) scale(0.16 -0.16)">
       <defs>
        <path id="DejaVuSans-30" d="M 2034 4250 
Q 1547 4250 1301 3770 
Q 1056 3291 1056 2328 
Q 1056 1369 1301 889 
Q 1547 409 2034 409 
Q 2525 409 2770 889 
Q 3016 1369 3016 2328 
Q 3016 3291 2770 3770 
Q 2525 4250 2034 4250 
z
M 2034 4750 
Q 2819 4750 3233 4129 
Q 3647 3509 3647 2328 
Q 3647 1150 3233 529 
Q 2819 -91 2034 -91 
Q 1250 -91 836 529 
Q 422 1150 422 2328 
Q 422 3509 836 4129 
Q 1250 4750 2034 4750 
z
" transform="scale(0.015625)"/>
       </defs>
       <use xlink:href="#DejaVuSans-30"/>
      </g>
     </g>
    </g>
    <g id="ytick_3">
     <g id="line2d_5">
      <g>
       <use xlink:href="#m62353d9632" x="37.7875" y="95.807984" style="fill: #696969; stroke: #696969; stroke-width: 0.8"/>
      </g>
     </g>
     <g id="text_3">
      <!-- 5 -->
      <g style="fill: #696969" transform="translate(20.6075 101.886734) scale(0.16 -0.16)">
       <use xlink:href="#DejaVuSans-35"/>
      </g>
     </g>
    </g>
   </g>
   <g id="line2d_6">
    <path d="M 55.888409 131.471425 
L 63.128773 130.674959 
L 70.369136 130.033352 
L 77.6095 129.537011 
L 84.849864 129.168632 
L 92.090227 128.904612 
L 99.330591 128.716802 
L 106.570955 128.574451 
L 113.811318 128.446166 
L 121.051682 128.301716 
L 128.292045 128.11358 
L 135.532409 127.858133 
L 142.772773 127.51642 
L 150.013136 127.074557 
L 157.2535 126.52376 
L 164.493864 125.860093 
L 171.734227 125.084027 
L 178.974591 124.199886 
L 186.214955 123.215253 
L 193.455318 122.14042 
L 200.695682 120.987903 
L 207.936045 119.772018 
L 215.176409 118.508545 
L 222.416773 117.214401 
L 229.657136 115.90733 
L 236.8975 114.605508 
L 244.137864 113.327123 
L 251.378227 112.089808 
L 258.618591 110.910013 
L 265.858955 109.802305 
L 273.099318 108.77864 
L 280.339682 107.847699 
L 287.580045 107.014296 
L 294.820409 106.278987 
L 302.060773 105.637911 
L 309.301136 105.082875 
L 316.5415 104.601764 
L 323.781864 104.179198 
L 331.022227 103.797447 
L 338.262591 103.437522 
L 345.502955 103.080362 
L 352.743318 102.708034 
L 359.983682 102.304832 
L 367.224045 101.85822 
L 374.464409 101.359491 
L 381.704773 100.80414 
L 388.945136 100.191885 
L 396.1855 99.526358 
L 403.425864 98.814477 
L 410.666227 98.065583 
L 417.906591 97.290384 
" clip-path="url(#p4bf609e685)" style="fill: none; stroke: #000000; stroke-width: 2; stroke-linecap: square"/>
   </g>
   <g id="line2d_7">
    <path d="M 55.888409 131.682581 
L 63.128773 130.962689 
L 70.369136 130.242798 
L 77.6095 129.522906 
L 84.849864 128.803015 
L 92.090227 128.083123 
L 99.330591 127.363231 
L 106.570955 126.64334 
L 113.811318 125.923448 
L 121.051682 125.203557 
L 128.292045 124.483665 
L 135.532409 123.763774 
L 142.772773 123.043882 
L 150.013136 122.323991 
L 157.2535 121.604099 
L 164.493864 120.884208 
L 171.734227 120.164316 
L 178.974591 119.444425 
L 186.214955 118.724533 
L 193.455318 118.004641 
L 200.695682 117.28475 
L 207.936045 116.564858 
L 215.176409 115.844967 
L 222.416773 115.125075 
L 229.657136 114.405184 
L 236.8975 113.685292 
L 244.137864 112.965401 
L 251.378227 112.245509 
L 258.618591 111.525618 
L 265.858955 110.805726 
L 273.099318 110.085834 
L 280.339682 109.365943 
L 287.580045 108.646051 
L 294.820409 107.92616 
L 302.060773 107.206268 
L 309.301136 106.486377 
L 316.5415 105.766485 
L 323.781864 105.046594 
L 331.022227 104.326702 
L 338.262591 103.606811 
L 345.502955 102.886919 
L 352.743318 102.167027 
L 359.983682 101.447136 
L 367.224045 100.727244 
L 374.464409 100.007353 
L 381.704773 99.287461 
L 388.945136 98.56757 
L 396.1855 97.847678 
L 403.425864 97.127787 
L 410.666227 96.407895 
L 417.906591 95.688004 
" clip-path="url(#p4bf609e685)" style="fill: none; stroke-dasharray: 7.4,3.2; stroke-dashoffset: 0; stroke: #34b6c6; stroke-width: 2"/>
   </g>
   <g id="line2d_8">
    <path d="M 55.888409 129.835718 
L 63.128773 129.449428 
L 70.369136 129.062821 
L 77.6095 128.675146 
L 84.849864 128.285435 
L 92.090227 127.892457 
L 99.330591 127.494636 
L 106.570955 127.089956 
L 113.811318 126.675842 
L 121.051682 126.249007 
L 128.292045 125.805272 
L 135.532409 125.339357 
L 142.772773 124.844673 
L 150.013136 124.313142 
L 157.2535 123.735134 
L 164.493864 123.099647 
L 171.734227 122.394937 
L 178.974591 121.609834 
L 186.214955 120.735917 
L 193.455318 119.770429 
L 200.695682 118.719205 
L 207.936045 117.59824 
L 215.176409 116.43248 
L 222.416773 115.25153 
L 229.657136 114.083848 
L 236.8975 112.951953 
L 244.137864 111.870326 
L 251.378227 110.845934 
L 258.618591 109.880148 
L 265.858955 108.970844 
L 273.099318 108.114073 
L 280.339682 107.305179 
L 287.580045 106.539503 
L 294.820409 105.812782 
L 302.060773 105.121383 
L 309.301136 104.462386 
L 316.5415 103.833574 
L 323.781864 103.233341 
L 331.022227 102.660545 
L 338.262591 102.114338 
L 345.502955 101.594003 
L 352.743318 101.098809 
L 359.983682 100.627914 
L 367.224045 100.180312 
L 374.464409 99.75482 
L 381.704773 99.350099 
L 388.945136 98.964691 
L 396.1855 98.597067 
L 403.425864 98.24568 
L 410.666227 97.909 
L 417.906591 97.585559 
" clip-path="url(#p4bf609e685)" style="fill: none; stroke-dasharray: 7.4,3.2; stroke-dashoffset: 0; stroke: #9370db; stroke-width: 2"/>
   </g>
   <g id="line2d_9">
    <path d="M 55.888409 130.39958 
L 63.128773 130.158514 
L 70.369136 129.916981 
L 77.6095 129.673864 
L 84.849864 129.427738 
L 92.090227 129.176777 
L 99.330591 128.918648 
L 106.570955 128.65037 
L 113.811318 128.368134 
L 121.051682 128.067075 
L 128.292045 127.741008 
L 135.532409 127.382122 
L 142.772773 126.980666 
L 150.013136 126.524689 
L 157.2535 125.999938 
L 164.493864 125.390137 
L 171.734227 124.677907 
L 178.974591 123.846719 
L 186.214955 122.884115 
L 193.455318 121.786013 
L 200.695682 120.561046 
L 207.936045 119.232886 
L 215.176409 117.838442 
L 222.416773 116.42152 
L 229.657136 115.024233 
L 236.8975 113.679898 
L 244.137864 112.409945 
L 251.378227 111.224683 
L 258.618591 110.12614 
L 265.858955 109.111173 
L 273.099318 108.173938 
L 280.339682 107.307548 
L 287.580045 106.505106 
L 294.820409 105.760306 
L 302.060773 105.067772 
L 309.301136 104.423184 
L 316.5415 103.82326 
L 323.781864 103.265623 
L 331.022227 102.748585 
L 338.262591 102.270892 
L 345.502955 101.83148 
L 352.743318 101.42927 
L 359.983682 101.063014 
L 367.224045 100.731226 
L 374.464409 100.432154 
L 381.704773 100.163817 
L 388.945136 99.924056 
L 396.1855 99.710611 
L 403.425864 99.52119 
L 410.666227 99.353533 
L 417.906591 99.205464 
" clip-path="url(#p4bf609e685)" style="fill: none; stroke-dasharray: 12.8,3.2,2,3.2; stroke-dashoffset: 0; stroke: #ff0000; stroke-width: 2"/>
   </g>
   <g id="patch_4">
    <path d="M 37.7875 165.002403 
L 37.7875 72.752792 
" style="fill: none; stroke: #000000; stroke-width: 0.8; stroke-linejoin: miter; stroke-linecap: square"/>
   </g>
   <g id="patch_5">
    <path d="M 436.0075 165.002403 
L 436.0075 72.752792 
" style="fill: none; stroke: #000000; stroke-width: 0.8; stroke-linejoin: miter; stroke-linecap: square"/>
   </g>
   <g id="patch_6">
    <path d="M 37.7875 165.002403 
L 436.0075 165.002403 
" style="fill: none; stroke: #000000; stroke-width: 0.8; stroke-linejoin: miter; stroke-linecap: square"/>
   </g>
   <g id="patch_7">
    <path d="M 37.7875 72.752792 
L 436.0075 72.752792 
" style="fill: none; stroke: #000000; stroke-width: 0.8; stroke-linejoin: miter; stroke-linecap: square"/>
   </g>
  </g>
  <g id="axes_3">
   <g id="patch_8">
    <path d="M 37.7875 276.68 
L 436.0075 276.68 
L 436.0075 184.43039 
L 37.7875 184.43039 
z
" style="fill: #ffffff"/>
   </g>
   <g id="PathCollection_2">
    <g clip-path="url(#p526b60ba0f)">
     <use xlink:href="#mbf8b933717" x="103.089423" y="252.960472" style="fill: #daa520; stroke: #daa520"/>
     <use xlink:href="#mbf8b933717" x="278.331" y="190.90749" style="fill: #daa520; stroke: #daa520"/>
     <use xlink:href="#mbf8b933717" x="253.366146" y="264.698028" style="fill: #daa520; stroke: #daa520"/>
     <use xlink:href="#mbf8b933717" x="311.564422" y="255.073402" style="fill: #daa520; stroke: #daa520"/>
     <use xlink:href="#mbf8b933717" x="396.999381" y="253.084087" style="fill: #daa520; stroke: #daa520"/>
     <use xlink:href="#mbf8b933717" x="166.176384" y="237.352414" style="fill: #daa520; stroke: #daa520"/>
     <use xlink:href="#mbf8b933717" x="162.866587" y="234.892269" style="fill: #daa520; stroke: #daa520"/>
     <use xlink:href="#mbf8b933717" x="65.179115" y="219.563634" style="fill: #daa520; stroke: #daa520"/>
     <use xlink:href="#mbf8b933717" x="129.454951" y="219.906764" style="fill: #daa520; stroke: #daa520"/>
     <use xlink:href="#mbf8b933717" x="228.007719" y="241.447594" style="fill: #daa520; stroke: #daa520"/>
     <use xlink:href="#mbf8b933717" x="99.806698" y="253.482236" style="fill: #daa520; stroke: #daa520"/>
     <use xlink:href="#mbf8b933717" x="369.538538" y="225.799536" style="fill: #daa520; stroke: #daa520"/>
     <use xlink:href="#mbf8b933717" x="149.964015" y="218.291518" style="fill: #daa520; stroke: #daa520"/>
     <use xlink:href="#mbf8b933717" x="197.772759" y="258.033697" style="fill: #daa520; stroke: #daa520"/>
     <use xlink:href="#mbf8b933717" x="181.796184" y="259.26727" style="fill: #daa520; stroke: #daa520"/>
     <use xlink:href="#mbf8b933717" x="137.374607" y="254.363275" style="fill: #daa520; stroke: #daa520"/>
     <use xlink:href="#mbf8b933717" x="409.990796" y="255.046394" style="fill: #daa520; stroke: #daa520"/>
     <use xlink:href="#mbf8b933717" x="96.474297" y="255.510012" style="fill: #daa520; stroke: #daa520"/>
     <use xlink:href="#mbf8b933717" x="374.258295" y="209.207885" style="fill: #daa520; stroke: #daa520"/>
     <use xlink:href="#mbf8b933717" x="285.227799" y="257.509977" style="fill: #daa520; stroke: #daa520"/>
     <use xlink:href="#mbf8b933717" x="345.19592" y="203.150576" style="fill: #daa520; stroke: #daa520"/>
     <use xlink:href="#mbf8b933717" x="262.043966" y="270.605615" style="fill: #daa520; stroke: #daa520"/>
     <use xlink:href="#mbf8b933717" x="173.634412" y="252.175243" style="fill: #daa520; stroke: #daa520"/>
     <use xlink:href="#mbf8b933717" x="182.680412" y="257.649052" style="fill: #daa520; stroke: #daa520"/>
     <use xlink:href="#mbf8b933717" x="179.57023" y="243.193078" style="fill: #daa520; stroke: #daa520"/>
     <use xlink:href="#mbf8b933717" x="75.190566" y="246.740034" style="fill: #daa520; stroke: #daa520"/>
     <use xlink:href="#mbf8b933717" x="288.291219" y="188.623554" style="fill: #daa520; stroke: #daa520"/>
     <use xlink:href="#mbf8b933717" x="301.486763" y="265.856963" style="fill: #daa520; stroke: #daa520"/>
     <use xlink:href="#mbf8b933717" x="211.439992" y="262.681105" style="fill: #daa520; stroke: #daa520"/>
     <use xlink:href="#mbf8b933717" x="248.903458" y="263.138002" style="fill: #daa520; stroke: #daa520"/>
     <use xlink:href="#mbf8b933717" x="390.804521" y="233.533686" style="fill: #daa520; stroke: #daa520"/>
     <use xlink:href="#mbf8b933717" x="102.881986" y="250.215708" style="fill: #daa520; stroke: #daa520"/>
     <use xlink:href="#mbf8b933717" x="323.094149" y="262.299043" style="fill: #daa520; stroke: #daa520"/>
     <use xlink:href="#mbf8b933717" x="99.659368" y="255.62601" style="fill: #daa520; stroke: #daa520"/>
     <use xlink:href="#mbf8b933717" x="310.237359" y="272.422269" style="fill: #daa520; stroke: #daa520"/>
     <use xlink:href="#mbf8b933717" x="350.998154" y="215.017629" style="fill: #daa520; stroke: #daa520"/>
     <use xlink:href="#mbf8b933717" x="154.151648" y="241.214052" style="fill: #daa520; stroke: #daa520"/>
     <use xlink:href="#mbf8b933717" x="261.143757" y="266.302662" style="fill: #daa520; stroke: #daa520"/>
     <use xlink:href="#mbf8b933717" x="375.50475" y="259.92903" style="fill: #daa520; stroke: #daa520"/>
     <use xlink:href="#mbf8b933717" x="147.513535" y="245.243433" style="fill: #daa520; stroke: #daa520"/>
     <use xlink:href="#mbf8b933717" x="300.149881" y="272.320438" style="fill: #daa520; stroke: #daa520"/>
     <use xlink:href="#mbf8b933717" x="92.68822" y="253.961357" style="fill: #daa520; stroke: #daa520"/>
     <use xlink:href="#mbf8b933717" x="405.143445" y="256.373536" style="fill: #daa520; stroke: #daa520"/>
     <use xlink:href="#mbf8b933717" x="309.584473" y="272.486836" style="fill: #daa520; stroke: #daa520"/>
     <use xlink:href="#mbf8b933717" x="128.238611" y="232.370909" style="fill: #daa520; stroke: #daa520"/>
     <use xlink:href="#mbf8b933717" x="250.791164" y="268.937097" style="fill: #daa520; stroke: #daa520"/>
     <use xlink:href="#mbf8b933717" x="379.010605" y="249.992291" style="fill: #daa520; stroke: #daa520"/>
     <use xlink:href="#mbf8b933717" x="332.343482" y="237.263567" style="fill: #daa520; stroke: #daa520"/>
     <use xlink:href="#mbf8b933717" x="79.90988" y="250.702058" style="fill: #daa520; stroke: #daa520"/>
     <use xlink:href="#mbf8b933717" x="92.002499" y="256.890726" style="fill: #daa520; stroke: #daa520"/>
     <use xlink:href="#mbf8b933717" x="129.80664" y="225.705091" style="fill: #daa520; stroke: #daa520"/>
     <use xlink:href="#mbf8b933717" x="80.250729" y="257.353723" style="fill: #daa520; stroke: #daa520"/>
     <use xlink:href="#mbf8b933717" x="83.904834" y="240.364401" style="fill: #daa520; stroke: #daa520"/>
     <use xlink:href="#mbf8b933717" x="198.726704" y="238.925536" style="fill: #daa520; stroke: #daa520"/>
     <use xlink:href="#mbf8b933717" x="352.862154" y="200.522445" style="fill: #daa520; stroke: #daa520"/>
     <use xlink:href="#mbf8b933717" x="399.003236" y="240.753792" style="fill: #daa520; stroke: #daa520"/>
     <use xlink:href="#mbf8b933717" x="154.689545" y="255.63043" style="fill: #daa520; stroke: #daa520"/>
     <use xlink:href="#mbf8b933717" x="401.354423" y="256.898073" style="fill: #daa520; stroke: #daa520"/>
     <use xlink:href="#mbf8b933717" x="77.409338" y="247.235495" style="fill: #daa520; stroke: #daa520"/>
     <use xlink:href="#mbf8b933717" x="103.346595" y="256.606781" style="fill: #daa520; stroke: #daa520"/>
     <use xlink:href="#mbf8b933717" x="72.193086" y="209.91614" style="fill: #daa520; stroke: #daa520"/>
     <use xlink:href="#mbf8b933717" x="92.884383" y="257.104513" style="fill: #daa520; stroke: #daa520"/>
     <use xlink:href="#mbf8b933717" x="363.409414" y="248.636376" style="fill: #daa520; stroke: #daa520"/>
     <use xlink:href="#mbf8b933717" x="61.029692" y="215.5643" style="fill: #daa520; stroke: #daa520"/>
     <use xlink:href="#mbf8b933717" x="277.58951" y="219.852147" style="fill: #daa520; stroke: #daa520"/>
     <use xlink:href="#mbf8b933717" x="157.591475" y="247.324945" style="fill: #daa520; stroke: #daa520"/>
     <use xlink:href="#mbf8b933717" x="64.982955" y="254.7318" style="fill: #daa520; stroke: #daa520"/>
     <use xlink:href="#mbf8b933717" x="414.410559" y="254.834786" style="fill: #daa520; stroke: #daa520"/>
     <use xlink:href="#mbf8b933717" x="415.033554" y="247.271551" style="fill: #daa520; stroke: #daa520"/>
     <use xlink:href="#mbf8b933717" x="62.63079" y="243.80027" style="fill: #daa520; stroke: #daa520"/>
     <use xlink:href="#mbf8b933717" x="197.322678" y="227.75395" style="fill: #daa520; stroke: #daa520"/>
     <use xlink:href="#mbf8b933717" x="343.570063" y="251.987614" style="fill: #daa520; stroke: #daa520"/>
     <use xlink:href="#mbf8b933717" x="336.375227" y="249.464361" style="fill: #daa520; stroke: #daa520"/>
     <use xlink:href="#mbf8b933717" x="330.551519" y="233.430427" style="fill: #daa520; stroke: #daa520"/>
     <use xlink:href="#mbf8b933717" x="258.253527" y="230.391939" style="fill: #daa520; stroke: #daa520"/>
     <use xlink:href="#mbf8b933717" x="410.087936" y="229.574347" style="fill: #daa520; stroke: #daa520"/>
     <use xlink:href="#mbf8b933717" x="116.879729" y="249.382526" style="fill: #daa520; stroke: #daa520"/>
     <use xlink:href="#mbf8b933717" x="377.016503" y="243.290962" style="fill: #daa520; stroke: #daa520"/>
     <use xlink:href="#mbf8b933717" x="380.517143" y="259.571951" style="fill: #daa520; stroke: #daa520"/>
     <use xlink:href="#mbf8b933717" x="337.734082" y="234.456535" style="fill: #daa520; stroke: #daa520"/>
     <use xlink:href="#mbf8b933717" x="63.933572" y="241.585622" style="fill: #daa520; stroke: #daa520"/>
     <use xlink:href="#mbf8b933717" x="172.162617" y="255.24482" style="fill: #daa520; stroke: #daa520"/>
     <use xlink:href="#mbf8b933717" x="341.962492" y="228.079033" style="fill: #daa520; stroke: #daa520"/>
     <use xlink:href="#mbf8b933717" x="229.323551" y="244.450119" style="fill: #daa520; stroke: #daa520"/>
     <use xlink:href="#mbf8b933717" x="141.504812" y="258.125797" style="fill: #daa520; stroke: #daa520"/>
     <use xlink:href="#mbf8b933717" x="146.913654" y="253.9298" style="fill: #daa520; stroke: #daa520"/>
     <use xlink:href="#mbf8b933717" x="120.414988" y="224.632042" style="fill: #daa520; stroke: #daa520"/>
     <use xlink:href="#mbf8b933717" x="132.567066" y="229.321448" style="fill: #daa520; stroke: #daa520"/>
     <use xlink:href="#mbf8b933717" x="101.869698" y="245.214386" style="fill: #daa520; stroke: #daa520"/>
     <use xlink:href="#mbf8b933717" x="410.163608" y="250.629286" style="fill: #daa520; stroke: #daa520"/>
    </g>
   </g>
   <g id="matplotlib.axis_5">
    <g id="xtick_1">
     <g id="line2d_10">
      <defs>
       <path id="mbef6409c2e" d="M 0 0 
L 0 3.5 
" style="stroke: #696969; stroke-width: 0.8"/>
      </defs>
      <g>
       <use xlink:href="#mbef6409c2e" x="55.888409" y="276.68" style="fill: #696969; stroke: #696969; stroke-width: 0.8"/>
      </g>
     </g>
     <g id="text_4">
      <!-- −1.0 -->
      <g style="fill: #696969" transform="translate(36.462159 295.8375) scale(0.16 -0.16)">
       <defs>
        <path id="DejaVuSans-31" d="M 794 531 
L 1825 531 
L 1825 4091 
L 703 3866 
L 703 4441 
L 1819 4666 
L 2450 4666 
L 2450 531 
L 3481 531 
L 3481 0 
L 794 0 
L 794 531 
z
" transform="scale(0.015625)"/>
        <path id="DejaVuSans-2e" d="M 684 794 
L 1344 794 
L 1344 0 
L 684 0 
L 684 794 
z
" transform="scale(0.015625)"/>
       </defs>
       <use xlink:href="#DejaVuSans-2212"/>
       <use xlink:href="#DejaVuSans-31" x="83.789062"/>
       <use xlink:href="#DejaVuSans-2e" x="147.412109"/>
       <use xlink:href="#DejaVuSans-30" x="179.199219"/>
      </g>
     </g>
    </g>
    <g id="xtick_2">
     <g id="line2d_11">
      <g>
       <use xlink:href="#mbef6409c2e" x="146.392955" y="276.68" style="fill: #696969; stroke: #696969; stroke-width: 0.8"/>
      </g>
     </g>
     <g id="text_5">
      <!-- −0.5 -->
      <g style="fill: #696969" transform="translate(126.966705 295.8375) scale(0.16 -0.16)">
       <use xlink:href="#DejaVuSans-2212"/>
       <use xlink:href="#DejaVuSans-30" x="83.789062"/>
       <use xlink:href="#DejaVuSans-2e" x="147.412109"/>
       <use xlink:href="#DejaVuSans-35" x="179.199219"/>
      </g>
     </g>
    </g>
    <g id="xtick_3">
     <g id="line2d_12">
      <g>
       <use xlink:href="#mbef6409c2e" x="236.8975" y="276.68" style="fill: #696969; stroke: #696969; stroke-width: 0.8"/>
      </g>
     </g>
     <g id="text_6">
      <!-- 0.0 -->
      <g style="fill: #696969" transform="translate(224.175 295.8375) scale(0.16 -0.16)">
       <use xlink:href="#DejaVuSans-30"/>
       <use xlink:href="#DejaVuSans-2e" x="63.623047"/>
       <use xlink:href="#DejaVuSans-30" x="95.410156"/>
      </g>
     </g>
    </g>
    <g id="xtick_4">
     <g id="line2d_13">
      <g>
       <use xlink:href="#mbef6409c2e" x="327.402045" y="276.68" style="fill: #696969; stroke: #696969; stroke-width: 0.8"/>
      </g>
     </g>
     <g id="text_7">
      <!-- 0.5 -->
      <g style="fill: #696969" transform="translate(314.679545 295.8375) scale(0.16 -0.16)">
       <use xlink:href="#DejaVuSans-30"/>
       <use xlink:href="#DejaVuSans-2e" x="63.623047"/>
       <use xlink:href="#DejaVuSans-35" x="95.410156"/>
      </g>
     </g>
    </g>
    <g id="xtick_5">
     <g id="line2d_14">
      <g>
       <use xlink:href="#mbef6409c2e" x="417.906591" y="276.68" style="fill: #696969; stroke: #696969; stroke-width: 0.8"/>
      </g>
     </g>
     <g id="text_8">
      <!-- 1.0 -->
      <g style="fill: #696969" transform="translate(405.184091 295.8375) scale(0.16 -0.16)">
       <use xlink:href="#DejaVuSans-31"/>
       <use xlink:href="#DejaVuSans-2e" x="63.623047"/>
       <use xlink:href="#DejaVuSans-30" x="95.410156"/>
      </g>
     </g>
    </g>
    <g id="text_9">
     <!-- $X$ -->
     <g transform="translate(231.3775 315.3225) scale(0.16 -0.16)">
      <defs>
       <path id="DejaVuSans-Oblique-58" d="M 878 4666 
L 1516 4666 
L 2316 2981 
L 3763 4666 
L 4500 4666 
L 2578 2438 
L 3738 0 
L 3103 0 
L 2163 1966 
L 459 0 
L -275 0 
L 1906 2509 
L 878 4666 
z
" transform="scale(0.015625)"/>
      </defs>
      <use xlink:href="#DejaVuSans-Oblique-58" transform="translate(0 0.09375)"/>
     </g>
    </g>
   </g>
   <g id="matplotlib.axis_6">
    <g id="ytick_4">
     <g id="line2d_15">
      <g>
       <use xlink:href="#m62353d9632" x="37.7875" y="276.640801" style="fill: #696969; stroke: #696969; stroke-width: 0.8"/>
      </g>
     </g>
     <g id="text_10">
      <!-- −5 -->
      <g style="fill: #696969" transform="translate(7.2 282.719551) scale(0.16 -0.16)">
       <use xlink:href="#DejaVuSans-2212"/>
       <use xlink:href="#DejaVuSans-35" x="83.789062"/>
      </g>
     </g>
    </g>
    <g id="ytick_5">
     <g id="line2d_16">
      <g>
       <use xlink:href="#m62353d9632" x="37.7875" y="243.076466" style="fill: #696969; stroke: #696969; stroke-width: 0.8"/>
      </g>
     </g>
     <g id="text_11">
      <!-- 0 -->
      <g style="fill: #696969" transform="translate(20.6075 249.155216) scale(0.16 -0.16)">
       <use xlink:href="#DejaVuSans-30"/>
      </g>
     </g>
    </g>
    <g id="ytick_6">
     <g id="line2d_17">
      <g>
       <use xlink:href="#m62353d9632" x="37.7875" y="209.512132" style="fill: #696969; stroke: #696969; stroke-width: 0.8"/>
      </g>
     </g>
     <g id="text_12">
      <!-- 5 -->
      <g style="fill: #696969" transform="translate(20.6075 215.590882) scale(0.16 -0.16)">
       <use xlink:href="#DejaVuSans-35"/>
      </g>
     </g>
    </g>
   </g>
   <g id="line2d_18">
    <path d="M 55.888409 241.928196 
L 63.128773 242.523198 
L 70.369136 242.951798 
L 77.6095 243.223078 
L 84.849864 243.354047 
L 92.090227 243.368037 
L 99.330591 243.292704 
L 106.570955 243.157799 
L 113.811318 242.99287 
L 121.051682 242.825094 
L 128.292045 242.677329 
L 135.532409 242.566515 
L 142.772773 242.502512 
L 150.013136 242.487391 
L 157.2535 242.515295 
L 164.493864 242.573002 
L 171.734227 242.641389 
L 178.974591 242.698118 
L 186.214955 242.721717 
L 193.455318 242.696789 
L 200.695682 242.619174 
L 207.936045 242.498894 
L 215.176409 242.358583 
L 222.416773 242.227051 
L 229.657136 242.130403 
L 236.8975 242.084859 
L 244.137864 242.093892 
L 251.378227 242.149656 
L 258.618591 242.236701 
L 265.858955 242.336056 
L 273.099318 242.428647 
L 280.339682 242.497802 
L 287.580045 242.530969 
L 294.820409 242.520803 
L 302.060773 242.465676 
L 309.301136 242.369737 
L 316.5415 242.242453 
L 323.781864 242.097753 
L 331.022227 241.952819 
L 338.262591 241.826653 
L 345.502955 241.738538 
L 352.743318 241.706524 
L 359.983682 241.746105 
L 367.224045 241.869115 
L 374.464409 242.083009 
L 381.704773 242.390486 
L 388.945136 242.789541 
L 396.1855 243.273857 
L 403.425864 243.833569 
L 410.666227 244.456249 
L 417.906591 245.128095 
" clip-path="url(#p526b60ba0f)" style="fill: none; stroke: #696969; stroke-width: 2; stroke-linecap: square"/>
   </g>
   <g id="line2d_19">
    <path d="M 55.888409 244.629634 
L 63.128773 244.613775 
L 70.369136 244.597917 
L 77.6095 244.582059 
L 84.849864 244.566201 
L 92.090227 244.550342 
L 99.330591 244.534484 
L 106.570955 244.518626 
L 113.811318 244.502768 
L 121.051682 244.486909 
L 128.292045 244.471051 
L 135.532409 244.455193 
L 142.772773 244.439335 
L 150.013136 244.423477 
L 157.2535 244.407618 
L 164.493864 244.39176 
L 171.734227 244.375902 
L 178.974591 244.360044 
L 186.214955 244.344185 
L 193.455318 244.328327 
L 200.695682 244.312469 
L 207.936045 244.296611 
L 215.176409 244.280752 
L 222.416773 244.264894 
L 229.657136 244.249036 
L 236.8975 244.233178 
L 244.137864 244.21732 
L 251.378227 244.201461 
L 258.618591 244.185603 
L 265.858955 244.169745 
L 273.099318 244.153887 
L 280.339682 244.138028 
L 287.580045 244.12217 
L 294.820409 244.106312 
L 302.060773 244.090454 
L 309.301136 244.074595 
L 316.5415 244.058737 
L 323.781864 244.042879 
L 331.022227 244.027021 
L 338.262591 244.011163 
L 345.502955 243.995304 
L 352.743318 243.979446 
L 359.983682 243.963588 
L 367.224045 243.94773 
L 374.464409 243.931871 
L 381.704773 243.916013 
L 388.945136 243.900155 
L 396.1855 243.884297 
L 403.425864 243.868438 
L 410.666227 243.85258 
L 417.906591 243.836722 
" clip-path="url(#p526b60ba0f)" style="fill: none; stroke-dasharray: 7.4,3.2; stroke-dashoffset: 0; stroke: #79ad41; stroke-width: 2"/>
   </g>
   <g id="patch_9">
    <path d="M 37.7875 276.68 
L 37.7875 184.43039 
" style="fill: none; stroke: #000000; stroke-width: 0.8; stroke-linejoin: miter; stroke-linecap: square"/>
   </g>
   <g id="patch_10">
    <path d="M 436.0075 276.68 
L 436.0075 184.43039 
" style="fill: none; stroke: #000000; stroke-width: 0.8; stroke-linejoin: miter; stroke-linecap: square"/>
   </g>
   <g id="patch_11">
    <path d="M 37.7875 276.68 
L 436.0075 276.68 
" style="fill: none; stroke: #000000; stroke-width: 0.8; stroke-linejoin: miter; stroke-linecap: square"/>
   </g>
   <g id="patch_12">
    <path d="M 37.7875 184.43039 
L 436.0075 184.43039 
" style="fill: none; stroke: #000000; stroke-width: 0.8; stroke-linejoin: miter; stroke-linecap: square"/>
   </g>
  </g>
 </g>
 <defs>
  <clipPath id="p6a02483b16">
   <rect x="37.7875" y="7.2" width="398.22" height="46.124805"/>
  </clipPath>
  <clipPath id="p4bf609e685">
   <rect x="37.7875" y="72.752792" width="398.22" height="92.24961"/>
  </clipPath>
  <clipPath id="p526b60ba0f">
   <rect x="37.7875" y="184.43039" width="398.22" height="92.24961"/>
  </clipPath>
 </defs>
</svg>
