<?xml version="1.0" encoding="utf-8" standalone="no"?>
<!DOCTYPE svg PUBLIC "-//W3C//DTD SVG 1.1//EN"
  "http://www.w3.org/Graphics/SVG/1.1/DTD/svg11.dtd">
<svg xmlns:xlink="http://www.w3.org/1999/xlink" width="443.2075pt" height="325.85pt" viewBox="0 0 443.2075 325.85" xmlns="http://www.w3.org/2000/svg" version="1.1">
 <metadata>
  <rdf:RDF xmlns:dc="http://purl.org/dc/elements/1.1/" xmlns:cc="http://creativecommons.org/ns#" xmlns:rdf="http://www.w3.org/1999/02/22-rdf-syntax-ns#">
   <cc:Work>
    <dc:type rdf:resource="http://purl.org/dc/dcmitype/StillImage"/>
    <dc:date>2024-01-28T20:57:14.253710</dc:date>
    <dc:format>image/svg+xml</dc:format>
    <dc:creator>
     <cc:Agent>
      <dc:title>Matplotlib v3.7.2, https://matplotlib.org/</dc:title>
     </cc:Agent>
    </dc:creator>
   </cc:Work>
  </rdf:RDF>
 </metadata>
 <defs>
  <style type="text/css">*{stroke-linejoin: round; stroke-linecap: butt}</style>
 </defs>
 <g id="figure_1">
  <g id="patch_1">
   <path d="M 0 325.85 
L 443.2075 325.85 
L 443.2075 0 
L 0 0 
z
" style="fill: #ffffff"/>
  </g>
  <g id="axes_1">
   <g id="patch_2">
    <path d="M 37.7875 53.347052 
L 436.0075 53.347052 
L 436.0075 7.2 
L 37.7875 7.2 
z
" style="fill: #ffffff"/>
   </g>
   <g id="PolyCollection_1">
    <defs>
     <path id="m277d2b0139" d="M 55.888409 -274.600541 
L 55.888409 -311.70622 
L 63.128773 -311.080032 
L 70.369136 -310.377315 
L 77.6095 -309.593172 
L 84.849864 -308.723208 
L 92.090227 -307.76389 
L 99.330591 -306.713029 
L 106.570955 -305.570297 
L 113.811318 -304.337744 
L 121.051682 -303.020272 
L 128.292045 -301.626022 
L 135.532409 -300.16652 
L 142.772773 -298.656618 
L 150.013136 -297.114054 
L 157.2535 -295.558723 
L 164.493864 -294.011715 
L 171.734227 -292.494111 
L 178.974591 -291.025778 
L 186.214955 -289.62432 
L 193.455318 -288.304214 
L 200.695682 -287.076332 
L 207.936045 -285.947778 
L 215.176409 -284.922063 
L 222.416773 -283.999525 
L 229.657136 -283.177893 
L 236.8975 -282.452948 
L 244.137864 -281.819122 
L 251.378227 -281.270088 
L 258.618591 -280.799224 
L 265.858955 -280.399989 
L 273.099318 -280.066193 
L 280.339682 -279.792191 
L 287.580045 -279.572996 
L 294.820409 -279.404347 
L 302.060773 -279.282726 
L 309.301136 -279.261859 
L 316.5415 -279.261859 
L 323.781864 -279.261859 
L 331.022227 -279.261859 
L 338.262591 -279.307334 
L 345.502955 -279.433426 
L 352.743318 -279.600765 
L 359.983682 -279.810631 
L 367.224045 -280.064639 
L 374.464409 -280.364615 
L 381.704773 -280.712513 
L 388.945136 -281.110265 
L 396.1855 -281.559655 
L 403.425864 -282.062158 
L 410.666227 -282.618779 
L 417.906591 -283.22991 
L 417.906591 -274.600541 
L 417.906591 -274.600541 
L 410.666227 -274.600541 
L 403.425864 -274.600541 
L 396.1855 -274.600541 
L 388.945136 -274.600541 
L 381.704773 -274.600541 
L 374.464409 -274.600541 
L 367.224045 -274.600541 
L 359.983682 -274.600541 
L 352.743318 -274.600541 
L 345.502955 -274.600541 
L 338.262591 -274.600541 
L 331.022227 -274.600541 
L 323.781864 -274.600541 
L 316.5415 -274.600541 
L 309.301136 -274.600541 
L 302.060773 -274.600541 
L 294.820409 -274.600541 
L 287.580045 -274.600541 
L 280.339682 -274.600541 
L 273.099318 -274.600541 
L 265.858955 -274.600541 
L 258.618591 -274.600541 
L 251.378227 -274.600541 
L 244.137864 -274.600541 
L 236.8975 -274.600541 
L 229.657136 -274.600541 
L 222.416773 -274.600541 
L 215.176409 -274.600541 
L 207.936045 -274.600541 
L 200.695682 -274.600541 
L 193.455318 -274.600541 
L 186.214955 -274.600541 
L 178.974591 -274.600541 
L 171.734227 -274.600541 
L 164.493864 -274.600541 
L 157.2535 -274.600541 
L 150.013136 -274.600541 
L 142.772773 -274.600541 
L 135.532409 -274.600541 
L 128.292045 -274.600541 
L 121.051682 -274.600541 
L 113.811318 -274.600541 
L 106.570955 -274.600541 
L 99.330591 -274.600541 
L 92.090227 -274.600541 
L 84.849864 -274.600541 
L 77.6095 -274.600541 
L 70.369136 -274.600541 
L 63.128773 -274.600541 
L 55.888409 -274.600541 
z
" style="stroke: #dc143c; stroke-opacity: 0.2"/>
    </defs>
    <g clip-path="url(#pb91ee73e65)">
     <use xlink:href="#m277d2b0139" x="0" y="325.85" style="fill: #dc143c; fill-opacity: 0.2; stroke: #dc143c; stroke-opacity: 0.2"/>
    </g>
   </g>
   <g id="PolyCollection_2">
    <defs>
     <path id="m5929447bf7" d="M 55.888409 -274.600541 
L 55.888409 -284.108046 
L 63.128773 -284.734234 
L 70.369136 -285.436951 
L 77.6095 -286.221094 
L 84.849864 -287.091058 
L 92.090227 -288.050376 
L 99.330591 -289.101237 
L 106.570955 -290.243969 
L 113.811318 -291.476522 
L 121.051682 -292.793994 
L 128.292045 -294.188244 
L 135.532409 -295.647746 
L 142.772773 -297.157648 
L 150.013136 -298.700212 
L 157.2535 -300.255543 
L 164.493864 -301.802551 
L 171.734227 -303.320155 
L 178.974591 -304.788488 
L 186.214955 -306.189946 
L 193.455318 -307.510052 
L 200.695682 -308.737934 
L 207.936045 -309.866488 
L 215.176409 -310.892203 
L 222.416773 -311.814741 
L 229.657136 -312.636373 
L 236.8975 -313.361318 
L 244.137864 -313.995144 
L 251.378227 -314.544178 
L 258.618591 -315.015042 
L 265.858955 -315.414277 
L 273.099318 -315.748073 
L 280.339682 -316.022075 
L 287.580045 -316.24127 
L 294.820409 -316.409919 
L 302.060773 -316.53154 
L 309.301136 -316.552407 
L 316.5415 -316.552407 
L 323.781864 -316.552407 
L 331.022227 -316.552407 
L 338.262591 -316.506932 
L 345.502955 -316.38084 
L 352.743318 -316.213501 
L 359.983682 -316.003635 
L 367.224045 -315.749627 
L 374.464409 -315.449651 
L 381.704773 -315.101753 
L 388.945136 -314.704001 
L 396.1855 -314.254611 
L 403.425864 -313.752108 
L 410.666227 -313.195487 
L 417.906591 -312.584357 
L 417.906591 -274.600541 
L 417.906591 -274.600541 
L 410.666227 -274.600541 
L 403.425864 -274.600541 
L 396.1855 -274.600541 
L 388.945136 -274.600541 
L 381.704773 -274.600541 
L 374.464409 -274.600541 
L 367.224045 -274.600541 
L 359.983682 -274.600541 
L 352.743318 -274.600541 
L 345.502955 -274.600541 
L 338.262591 -274.600541 
L 331.022227 -274.600541 
L 323.781864 -274.600541 
L 316.5415 -274.600541 
L 309.301136 -274.600541 
L 302.060773 -274.600541 
L 294.820409 -274.600541 
L 287.580045 -274.600541 
L 280.339682 -274.600541 
L 273.099318 -274.600541 
L 265.858955 -274.600541 
L 258.618591 -274.600541 
L 251.378227 -274.600541 
L 244.137864 -274.600541 
L 236.8975 -274.600541 
L 229.657136 -274.600541 
L 222.416773 -274.600541 
L 215.176409 -274.600541 
L 207.936045 -274.600541 
L 200.695682 -274.600541 
L 193.455318 -274.600541 
L 186.214955 -274.600541 
L 178.974591 -274.600541 
L 171.734227 -274.600541 
L 164.493864 -274.600541 
L 157.2535 -274.600541 
L 150.013136 -274.600541 
L 142.772773 -274.600541 
L 135.532409 -274.600541 
L 128.292045 -274.600541 
L 121.051682 -274.600541 
L 113.811318 -274.600541 
L 106.570955 -274.600541 
L 99.330591 -274.600541 
L 92.090227 -274.600541 
L 84.849864 -274.600541 
L 77.6095 -274.600541 
L 70.369136 -274.600541 
L 63.128773 -274.600541 
L 55.888409 -274.600541 
z
" style="stroke: #000080; stroke-opacity: 0.2"/>
    </defs>
    <g clip-path="url(#pb91ee73e65)">
     <use xlink:href="#m5929447bf7" x="0" y="325.85" style="fill: #000080; fill-opacity: 0.2; stroke: #000080; stroke-opacity: 0.2"/>
    </g>
   </g>
   <g id="matplotlib.axis_1"/>
   <g id="matplotlib.axis_2"/>
   <g id="line2d_1">
    <path d="M 55.888409 14.14378 
L 63.128773 14.769968 
L 70.369136 15.472685 
L 77.6095 16.256828 
L 84.849864 17.126792 
L 92.090227 18.08611 
L 99.330591 19.136971 
L 106.570955 20.279703 
L 113.811318 21.512256 
L 121.051682 22.829728 
L 128.292045 24.223978 
L 135.532409 25.68348 
L 142.772773 27.193382 
L 150.013136 28.735946 
L 157.2535 30.291277 
L 164.493864 31.838285 
L 171.734227 33.355889 
L 178.974591 34.824222 
L 186.214955 36.22568 
L 193.455318 37.545786 
L 200.695682 38.773668 
L 207.936045 39.902222 
L 215.176409 40.927937 
L 222.416773 41.850475 
L 229.657136 42.672107 
L 236.8975 43.397052 
L 244.137864 44.030878 
L 251.378227 44.579912 
L 258.618591 45.050776 
L 265.858955 45.450011 
L 273.099318 45.783807 
L 280.339682 46.057809 
L 287.580045 46.277004 
L 294.820409 46.445653 
L 302.060773 46.567274 
L 309.301136 46.588141 
L 316.5415 46.588141 
L 323.781864 46.588141 
L 331.022227 46.588141 
L 338.262591 46.542666 
L 345.502955 46.416574 
L 352.743318 46.249235 
L 359.983682 46.039369 
L 367.224045 45.785361 
L 374.464409 45.485385 
L 381.704773 45.137487 
L 388.945136 44.739735 
L 396.1855 44.290345 
L 403.425864 43.787842 
L 410.666227 43.231221 
L 417.906591 42.62009 
" clip-path="url(#pb91ee73e65)" style="fill: none; stroke: #dc143c; stroke-width: 1.5; stroke-linecap: square"/>
   </g>
   <g id="line2d_2">
    <path d="M 55.888409 41.741954 
L 63.128773 41.115766 
L 70.369136 40.413049 
L 77.6095 39.628906 
L 84.849864 38.758942 
L 92.090227 37.799624 
L 99.330591 36.748763 
L 106.570955 35.606031 
L 113.811318 34.373478 
L 121.051682 33.056006 
L 128.292045 31.661756 
L 135.532409 30.202254 
L 142.772773 28.692352 
L 150.013136 27.149788 
L 157.2535 25.594457 
L 164.493864 24.047449 
L 171.734227 22.529845 
L 178.974591 21.061512 
L 186.214955 19.660054 
L 193.455318 18.339948 
L 200.695682 17.112066 
L 207.936045 15.983512 
L 215.176409 14.957797 
L 222.416773 14.035259 
L 229.657136 13.213627 
L 236.8975 12.488682 
L 244.137864 11.854856 
L 251.378227 11.305822 
L 258.618591 10.834958 
L 265.858955 10.435723 
L 273.099318 10.101927 
L 280.339682 9.827925 
L 287.580045 9.60873 
L 294.820409 9.440081 
L 302.060773 9.31846 
L 309.301136 9.297593 
L 316.5415 9.297593 
L 323.781864 9.297593 
L 331.022227 9.297593 
L 338.262591 9.343068 
L 345.502955 9.46916 
L 352.743318 9.636499 
L 359.983682 9.846365 
L 367.224045 10.100373 
L 374.464409 10.400349 
L 381.704773 10.748247 
L 388.945136 11.145999 
L 396.1855 11.595389 
L 403.425864 12.097892 
L 410.666227 12.654513 
L 417.906591 13.265643 
" clip-path="url(#pb91ee73e65)" style="fill: none; stroke: #000080; stroke-width: 1.5; stroke-linecap: square"/>
   </g>
  </g>
  <g id="axes_2">
   <g id="patch_3">
    <path d="M 37.7875 165.013526 
L 436.0075 165.013526 
L 436.0075 72.719421 
L 37.7875 72.719421 
z
" style="fill: #ffffff"/>
   </g>
   <g id="PathCollection_1">
    <defs>
     <path id="mc3a76f5c1f" d="M 0 0.866025 
C 0.229673 0.866025 0.449969 0.774776 0.612372 0.612372 
C 0.774776 0.449969 0.866025 0.229673 0.866025 0 
C 0.866025 -0.229673 0.774776 -0.449969 0.612372 -0.612372 
C 0.449969 -0.774776 0.229673 -0.866025 0 -0.866025 
C -0.229673 -0.866025 -0.449969 -0.774776 -0.612372 -0.612372 
C -0.774776 -0.449969 -0.866025 -0.229673 -0.866025 0 
C -0.866025 0.229673 -0.774776 0.449969 -0.612372 0.612372 
C -0.449969 0.774776 -0.229673 0.866025 0 0.866025 
z
" style="stroke: #daa520"/>
    </defs>
    <g clip-path="url(#pb503349930)">
     <use xlink:href="#mc3a76f5c1f" x="66.836987" y="117.743125" style="fill: #daa520; stroke: #daa520"/>
     <use xlink:href="#mc3a76f5c1f" x="80.777763" y="128.674236" style="fill: #daa520; stroke: #daa520"/>
     <use xlink:href="#mc3a76f5c1f" x="69.390091" y="136.119799" style="fill: #daa520; stroke: #daa520"/>
     <use xlink:href="#mc3a76f5c1f" x="58.64218" y="121.153304" style="fill: #daa520; stroke: #daa520"/>
     <use xlink:href="#mc3a76f5c1f" x="104.055599" y="108.634815" style="fill: #daa520; stroke: #daa520"/>
     <use xlink:href="#mc3a76f5c1f" x="115.164411" y="109.934767" style="fill: #daa520; stroke: #daa520"/>
     <use xlink:href="#mc3a76f5c1f" x="381.101051" y="101.505724" style="fill: #daa520; stroke: #daa520"/>
     <use xlink:href="#mc3a76f5c1f" x="128.829842" y="105.606944" style="fill: #daa520; stroke: #daa520"/>
     <use xlink:href="#mc3a76f5c1f" x="214.325348" y="147.538655" style="fill: #daa520; stroke: #daa520"/>
     <use xlink:href="#mc3a76f5c1f" x="79.386558" y="123.972331" style="fill: #daa520; stroke: #daa520"/>
     <use xlink:href="#mc3a76f5c1f" x="193.109326" y="105.951287" style="fill: #daa520; stroke: #daa520"/>
     <use xlink:href="#mc3a76f5c1f" x="179.580846" y="160.81834" style="fill: #daa520; stroke: #daa520"/>
     <use xlink:href="#mc3a76f5c1f" x="218.363747" y="118.453099" style="fill: #daa520; stroke: #daa520"/>
     <use xlink:href="#mc3a76f5c1f" x="111.663705" y="108.482033" style="fill: #daa520; stroke: #daa520"/>
     <use xlink:href="#mc3a76f5c1f" x="153.450083" y="109.242515" style="fill: #daa520; stroke: #daa520"/>
     <use xlink:href="#mc3a76f5c1f" x="82.434146" y="125.096959" style="fill: #daa520; stroke: #daa520"/>
     <use xlink:href="#mc3a76f5c1f" x="106.261573" y="112.532401" style="fill: #daa520; stroke: #daa520"/>
     <use xlink:href="#mc3a76f5c1f" x="217.119374" y="76.914608" style="fill: #daa520; stroke: #daa520"/>
     <use xlink:href="#mc3a76f5c1f" x="82.986476" y="116.93042" style="fill: #daa520; stroke: #daa520"/>
     <use xlink:href="#mc3a76f5c1f" x="121.667006" y="111.723541" style="fill: #daa520; stroke: #daa520"/>
     <use xlink:href="#mc3a76f5c1f" x="167.384407" y="113.577507" style="fill: #daa520; stroke: #daa520"/>
     <use xlink:href="#mc3a76f5c1f" x="320.827773" y="97.946889" style="fill: #daa520; stroke: #daa520"/>
     <use xlink:href="#mc3a76f5c1f" x="259.709933" y="84.284513" style="fill: #daa520; stroke: #daa520"/>
     <use xlink:href="#mc3a76f5c1f" x="148.783799" y="114.634154" style="fill: #daa520; stroke: #daa520"/>
     <use xlink:href="#mc3a76f5c1f" x="102.093772" y="111.172965" style="fill: #daa520; stroke: #daa520"/>
     <use xlink:href="#mc3a76f5c1f" x="100.739449" y="99.6743" style="fill: #daa520; stroke: #daa520"/>
     <use xlink:href="#mc3a76f5c1f" x="157.277585" y="144.432262" style="fill: #daa520; stroke: #daa520"/>
     <use xlink:href="#mc3a76f5c1f" x="158.18766" y="105.801645" style="fill: #daa520; stroke: #daa520"/>
     <use xlink:href="#mc3a76f5c1f" x="174.875787" y="113.638468" style="fill: #daa520; stroke: #daa520"/>
     <use xlink:href="#mc3a76f5c1f" x="124.896861" y="98.29528" style="fill: #daa520; stroke: #daa520"/>
     <use xlink:href="#mc3a76f5c1f" x="363.052664" y="98.87332" style="fill: #daa520; stroke: #daa520"/>
     <use xlink:href="#mc3a76f5c1f" x="66.216566" y="123.05053" style="fill: #daa520; stroke: #daa520"/>
     <use xlink:href="#mc3a76f5c1f" x="72.073753" y="125.005471" style="fill: #daa520; stroke: #daa520"/>
     <use xlink:href="#mc3a76f5c1f" x="121.393862" y="110.249385" style="fill: #daa520; stroke: #daa520"/>
     <use xlink:href="#mc3a76f5c1f" x="362.147206" y="99.608983" style="fill: #daa520; stroke: #daa520"/>
     <use xlink:href="#mc3a76f5c1f" x="230.846939" y="120.096372" style="fill: #daa520; stroke: #daa520"/>
     <use xlink:href="#mc3a76f5c1f" x="62.878167" y="122.310739" style="fill: #daa520; stroke: #daa520"/>
     <use xlink:href="#mc3a76f5c1f" x="172.006654" y="112.11528" style="fill: #daa520; stroke: #daa520"/>
     <use xlink:href="#mc3a76f5c1f" x="67.022114" y="134.34027" style="fill: #daa520; stroke: #daa520"/>
     <use xlink:href="#mc3a76f5c1f" x="360.135894" y="101.652193" style="fill: #daa520; stroke: #daa520"/>
     <use xlink:href="#mc3a76f5c1f" x="122.550439" y="100.858543" style="fill: #daa520; stroke: #daa520"/>
     <use xlink:href="#mc3a76f5c1f" x="368.426018" y="129.830726" style="fill: #daa520; stroke: #daa520"/>
     <use xlink:href="#mc3a76f5c1f" x="384.481438" y="121.816719" style="fill: #daa520; stroke: #daa520"/>
     <use xlink:href="#mc3a76f5c1f" x="318.832926" y="101.309828" style="fill: #daa520; stroke: #daa520"/>
     <use xlink:href="#mc3a76f5c1f" x="64.539446" y="123.6043" style="fill: #daa520; stroke: #daa520"/>
     <use xlink:href="#mc3a76f5c1f" x="146.403438" y="105.133139" style="fill: #daa520; stroke: #daa520"/>
     <use xlink:href="#mc3a76f5c1f" x="368.081489" y="99.498138" style="fill: #daa520; stroke: #daa520"/>
     <use xlink:href="#mc3a76f5c1f" x="260.65752" y="126.90438" style="fill: #daa520; stroke: #daa520"/>
     <use xlink:href="#mc3a76f5c1f" x="104.824111" y="99.77547" style="fill: #daa520; stroke: #daa520"/>
     <use xlink:href="#mc3a76f5c1f" x="363.027249" y="101.519224" style="fill: #daa520; stroke: #daa520"/>
     <use xlink:href="#mc3a76f5c1f" x="83.58613" y="112.102202" style="fill: #daa520; stroke: #daa520"/>
     <use xlink:href="#mc3a76f5c1f" x="342.259571" y="114.963685" style="fill: #daa520; stroke: #daa520"/>
     <use xlink:href="#mc3a76f5c1f" x="182.712937" y="108.461013" style="fill: #daa520; stroke: #daa520"/>
     <use xlink:href="#mc3a76f5c1f" x="78.707441" y="129.782541" style="fill: #daa520; stroke: #daa520"/>
     <use xlink:href="#mc3a76f5c1f" x="107.273406" y="106.574756" style="fill: #daa520; stroke: #daa520"/>
     <use xlink:href="#mc3a76f5c1f" x="138.938198" y="109.096659" style="fill: #daa520; stroke: #daa520"/>
     <use xlink:href="#mc3a76f5c1f" x="151.774175" y="112.462462" style="fill: #daa520; stroke: #daa520"/>
     <use xlink:href="#mc3a76f5c1f" x="100.864495" y="112.018492" style="fill: #daa520; stroke: #daa520"/>
     <use xlink:href="#mc3a76f5c1f" x="146.535968" y="110.123947" style="fill: #daa520; stroke: #daa520"/>
     <use xlink:href="#mc3a76f5c1f" x="231.987885" y="151.180554" style="fill: #daa520; stroke: #daa520"/>
     <use xlink:href="#mc3a76f5c1f" x="378.828884" y="136.517634" style="fill: #daa520; stroke: #daa520"/>
     <use xlink:href="#mc3a76f5c1f" x="121.020127" y="107.111087" style="fill: #daa520; stroke: #daa520"/>
     <use xlink:href="#mc3a76f5c1f" x="142.746707" y="108.713096" style="fill: #daa520; stroke: #daa520"/>
     <use xlink:href="#mc3a76f5c1f" x="128.446363" y="104.296294" style="fill: #daa520; stroke: #daa520"/>
     <use xlink:href="#mc3a76f5c1f" x="348.989525" y="113.286275" style="fill: #daa520; stroke: #daa520"/>
     <use xlink:href="#mc3a76f5c1f" x="112.631974" y="107.989903" style="fill: #daa520; stroke: #daa520"/>
     <use xlink:href="#mc3a76f5c1f" x="91.476245" y="105.919758" style="fill: #daa520; stroke: #daa520"/>
     <use xlink:href="#mc3a76f5c1f" x="343.162565" y="94.593514" style="fill: #daa520; stroke: #daa520"/>
     <use xlink:href="#mc3a76f5c1f" x="83.777067" y="127.19476" style="fill: #daa520; stroke: #daa520"/>
     <use xlink:href="#mc3a76f5c1f" x="67.84137" y="122.630565" style="fill: #daa520; stroke: #daa520"/>
     <use xlink:href="#mc3a76f5c1f" x="335.961985" y="114.095945" style="fill: #daa520; stroke: #daa520"/>
     <use xlink:href="#mc3a76f5c1f" x="333.548206" y="116.695215" style="fill: #daa520; stroke: #daa520"/>
     <use xlink:href="#mc3a76f5c1f" x="326.336936" y="95.160345" style="fill: #daa520; stroke: #daa520"/>
     <use xlink:href="#mc3a76f5c1f" x="370.43602" y="100.423657" style="fill: #daa520; stroke: #daa520"/>
     <use xlink:href="#mc3a76f5c1f" x="408.216239" y="106.555071" style="fill: #daa520; stroke: #daa520"/>
     <use xlink:href="#mc3a76f5c1f" x="193.874624" y="103.586432" style="fill: #daa520; stroke: #daa520"/>
     <use xlink:href="#mc3a76f5c1f" x="140.677373" y="130.584581" style="fill: #daa520; stroke: #daa520"/>
     <use xlink:href="#mc3a76f5c1f" x="91.432269" y="122.811434" style="fill: #daa520; stroke: #daa520"/>
     <use xlink:href="#mc3a76f5c1f" x="278.616912" y="86.391694" style="fill: #daa520; stroke: #daa520"/>
     <use xlink:href="#mc3a76f5c1f" x="158.652989" y="109.016468" style="fill: #daa520; stroke: #daa520"/>
     <use xlink:href="#mc3a76f5c1f" x="97.665953" y="107.308846" style="fill: #daa520; stroke: #daa520"/>
     <use xlink:href="#mc3a76f5c1f" x="117.897079" y="105.30976" style="fill: #daa520; stroke: #daa520"/>
     <use xlink:href="#mc3a76f5c1f" x="98.071362" y="117.597671" style="fill: #daa520; stroke: #daa520"/>
     <use xlink:href="#mc3a76f5c1f" x="98.720743" y="115.743204" style="fill: #daa520; stroke: #daa520"/>
     <use xlink:href="#mc3a76f5c1f" x="120.425235" y="116.289225" style="fill: #daa520; stroke: #daa520"/>
     <use xlink:href="#mc3a76f5c1f" x="122.979006" y="97.226255" style="fill: #daa520; stroke: #daa520"/>
     <use xlink:href="#mc3a76f5c1f" x="118.146129" y="114.396487" style="fill: #daa520; stroke: #daa520"/>
     <use xlink:href="#mc3a76f5c1f" x="157.882196" y="105.250155" style="fill: #daa520; stroke: #daa520"/>
     <use xlink:href="#mc3a76f5c1f" x="90.257677" y="117.627019" style="fill: #daa520; stroke: #daa520"/>
     <use xlink:href="#mc3a76f5c1f" x="152.371937" y="110.360726" style="fill: #daa520; stroke: #daa520"/>
     <use xlink:href="#mc3a76f5c1f" x="157.085127" y="114.314864" style="fill: #daa520; stroke: #daa520"/>
     <use xlink:href="#mc3a76f5c1f" x="89.369678" y="122.13489" style="fill: #daa520; stroke: #daa520"/>
     <use xlink:href="#mc3a76f5c1f" x="158.520213" y="113.827722" style="fill: #daa520; stroke: #daa520"/>
     <use xlink:href="#mc3a76f5c1f" x="181.497027" y="158.853288" style="fill: #daa520; stroke: #daa520"/>
     <use xlink:href="#mc3a76f5c1f" x="117.938405" y="100.307736" style="fill: #daa520; stroke: #daa520"/>
     <use xlink:href="#mc3a76f5c1f" x="88.261075" y="102.14718" style="fill: #daa520; stroke: #daa520"/>
     <use xlink:href="#mc3a76f5c1f" x="78.546536" y="128.659296" style="fill: #daa520; stroke: #daa520"/>
     <use xlink:href="#mc3a76f5c1f" x="73.830784" y="115.723959" style="fill: #daa520; stroke: #daa520"/>
     <use xlink:href="#mc3a76f5c1f" x="140.694659" y="109.817673" style="fill: #daa520; stroke: #daa520"/>
     <use xlink:href="#mc3a76f5c1f" x="80.525702" y="121.208587" style="fill: #daa520; stroke: #daa520"/>
     <use xlink:href="#mc3a76f5c1f" x="67.595876" y="136.985348" style="fill: #daa520; stroke: #daa520"/>
    </g>
   </g>
   <g id="matplotlib.axis_3"/>
   <g id="matplotlib.axis_4">
    <g id="ytick_1">
     <g id="line2d_3">
      <defs>
       <path id="meb4882d9fd" d="M 0 0 
L -3.5 0 
" style="stroke: #696969; stroke-width: 0.8"/>
      </defs>
      <g>
       <use xlink:href="#meb4882d9fd" x="37.7875" y="148.909551" style="fill: #696969; stroke: #696969; stroke-width: 0.8"/>
      </g>
     </g>
     <g id="text_1">
      <!-- −5 -->
      <g style="fill: #696969" transform="translate(7.2 154.988301) scale(0.16 -0.16)">
       <defs>
        <path id="DejaVuSans-2212" d="M 678 2272 
L 4684 2272 
L 4684 1741 
L 678 1741 
L 678 2272 
z
" transform="scale(0.015625)"/>
        <path id="DejaVuSans-35" d="M 691 4666 
L 3169 4666 
L 3169 4134 
L 1269 4134 
L 1269 2991 
Q 1406 3038 1543 3061 
Q 1681 3084 1819 3084 
Q 2600 3084 3056 2656 
Q 3513 2228 3513 1497 
Q 3513 744 3044 326 
Q 2575 -91 1722 -91 
Q 1428 -91 1123 -41 
Q 819 9 494 109 
L 494 744 
Q 775 591 1075 516 
Q 1375 441 1709 441 
Q 2250 441 2565 725 
Q 2881 1009 2881 1497 
Q 2881 1984 2565 2268 
Q 2250 2553 1709 2553 
Q 1456 2553 1204 2497 
Q 953 2441 691 2322 
L 691 4666 
z
" transform="scale(0.015625)"/>
       </defs>
       <use xlink:href="#DejaVuSans-2212"/>
       <use xlink:href="#DejaVuSans-35" x="83.789062"/>
      </g>
     </g>
    </g>
    <g id="ytick_2">
     <g id="line2d_4">
      <g>
       <use xlink:href="#meb4882d9fd" x="37.7875" y="116.611776" style="fill: #696969; stroke: #696969; stroke-width: 0.8"/>
      </g>
     </g>
     <g id="text_2">
      <!-- 0 -->
      <g style="fill: #696969" transform="translate(20.6075 122.690526) scale(0.16 -0.16)">
       <defs>
        <path id="DejaVuSans-30" d="M 2034 4250 
Q 1547 4250 1301 3770 
Q 1056 3291 1056 2328 
Q 1056 1369 1301 889 
Q 1547 409 2034 409 
Q 2525 409 2770 889 
Q 3016 1369 3016 2328 
Q 3016 3291 2770 3770 
Q 2525 4250 2034 4250 
z
M 2034 4750 
Q 2819 4750 3233 4129 
Q 3647 3509 3647 2328 
Q 3647 1150 3233 529 
Q 2819 -91 2034 -91 
Q 1250 -91 836 529 
Q 422 1150 422 2328 
Q 422 3509 836 4129 
Q 1250 4750 2034 4750 
z
" transform="scale(0.015625)"/>
       </defs>
       <use xlink:href="#DejaVuSans-30"/>
      </g>
     </g>
    </g>
    <g id="ytick_3">
     <g id="line2d_5">
      <g>
       <use xlink:href="#meb4882d9fd" x="37.7875" y="84.314002" style="fill: #696969; stroke: #696969; stroke-width: 0.8"/>
      </g>
     </g>
     <g id="text_3">
      <!-- 5 -->
      <g style="fill: #696969" transform="translate(20.6075 90.392752) scale(0.16 -0.16)">
       <use xlink:href="#DejaVuSans-35"/>
      </g>
     </g>
    </g>
   </g>
   <g id="line2d_6">
    <path d="M 55.888409 126.858212 
L 63.128773 127.068092 
L 70.369136 126.165325 
L 77.6095 123.888112 
L 84.849864 120.310433 
L 92.090227 115.887554 
L 99.330591 111.348448 
L 106.570955 107.480412 
L 113.811318 104.9013 
L 121.051682 103.913137 
L 128.292045 104.482803 
L 135.532409 106.330114 
L 142.772773 109.057017 
L 150.013136 112.247967 
L 157.2535 115.508666 
L 164.493864 118.460676 
L 171.734227 120.737787 
L 178.974591 122.018665 
L 186.214955 122.093153 
L 193.455318 120.928584 
L 200.695682 118.700601 
L 207.936045 115.775031 
L 215.176409 112.650503 
L 222.416773 109.878461 
L 229.657136 107.971279 
L 236.8975 107.305211 
L 244.137864 108.030545 
L 251.378227 110.011705 
L 258.618591 112.824099 
L 265.858955 115.826159 
L 273.099318 118.304009 
L 280.339682 119.657385 
L 287.580045 119.568527 
L 294.820409 118.088215 
L 302.060773 115.598157 
L 309.301136 112.66288 
L 316.5415 109.838169 
L 323.781864 107.52183 
L 331.022227 105.902001 
L 338.262591 104.99883 
L 345.502955 104.747592 
L 352.743318 105.063589 
L 359.983682 105.859329 
L 367.224045 107.02553 
L 374.464409 108.410732 
L 381.704773 109.829245 
L 388.945136 111.102473 
L 396.1855 112.113669 
L 403.425864 112.845571 
L 410.666227 113.37863 
L 417.906591 113.847646 
" clip-path="url(#pb503349930)" style="fill: none; stroke: #000000; stroke-width: 2; stroke-linecap: square"/>
   </g>
   <g id="line2d_7">
    <path d="M 55.888409 135.106286 
L 63.128773 128.030929 
L 70.369136 122.830464 
L 77.6095 119.075069 
L 84.849864 116.423335 
L 92.090227 114.605783 
L 99.330591 113.411107 
L 106.570955 112.674752 
L 113.811318 112.269493 
L 121.051682 112.097713 
L 128.292045 112.085117 
L 135.532409 112.17565 
L 142.772773 112.327424 
L 150.013136 112.509471 
L 157.2535 112.699184 
L 164.493864 112.880311 
L 171.734227 113.041395 
L 178.974591 113.174578 
L 186.214955 113.274687 
L 193.455318 113.338542 
L 200.695682 113.364434 
L 207.936045 113.351749 
L 215.176409 113.300678 
L 222.416773 113.212016 
L 229.657136 113.087018 
L 236.8975 112.9273 
L 244.137864 112.734771 
L 251.378227 112.511605 
L 258.618591 112.260221 
L 265.858955 111.983294 
L 273.099318 111.683782 
L 280.339682 111.364967 
L 287.580045 111.030514 
L 294.820409 110.684556 
L 302.060773 110.331793 
L 309.301136 109.977623 
L 316.5415 109.628301 
L 323.781864 109.291145 
L 331.022227 108.974798 
L 338.262591 108.689554 
L 345.502955 108.447793 
L 352.743318 108.264528 
L 359.983682 108.15812 
L 367.224045 108.151206 
L 374.464409 108.271885 
L 381.704773 108.555253 
L 388.945136 109.045354 
L 396.1855 109.797664 
L 403.425864 110.882222 
L 410.666227 112.387553 
L 417.906591 114.425552 
" clip-path="url(#pb503349930)" style="fill: none; stroke-dasharray: 7.4,3.2; stroke-dashoffset: 0; stroke: #34b6c6; stroke-width: 2"/>
   </g>
   <g id="line2d_8">
    <path d="M 55.888409 128.191096 
L 63.128773 126.152106 
L 70.369136 124.237908 
L 77.6095 122.173054 
L 84.849864 119.631769 
L 92.090227 116.414655 
L 99.330591 112.863455 
L 106.570955 109.908447 
L 113.811318 108.093685 
L 121.051682 107.205439 
L 128.292045 106.990833 
L 135.532409 107.568324 
L 142.772773 109.476631 
L 150.013136 112.330877 
L 157.2535 114.690445 
L 164.493864 116.641878 
L 171.734227 118.03847 
L 178.974591 118.690785 
L 186.214955 118.833184 
L 193.455318 118.682027 
L 200.695682 118.329393 
L 207.936045 117.797271 
L 215.176409 117.101302 
L 222.416773 116.317815 
L 229.657136 115.594628 
L 236.8975 115.074168 
L 244.137864 114.877801 
L 251.378227 115.223522 
L 258.618591 116.355498 
L 265.858955 117.759681 
L 273.099318 118.541772 
L 280.339682 118.713256 
L 287.580045 118.426732 
L 294.820409 117.400373 
L 302.060773 115.191228 
L 309.301136 112.200199 
L 316.5415 109.386806 
L 323.781864 107.104102 
L 331.022227 105.487152 
L 338.262591 104.632528 
L 345.502955 104.496282 
L 352.743318 104.954567 
L 359.983682 105.931644 
L 367.224045 107.325187 
L 374.464409 108.882885 
L 381.704773 110.345514 
L 388.945136 111.619094 
L 396.1855 112.718532 
L 403.425864 113.666307 
L 410.666227 114.455214 
L 417.906591 115.044268 
" clip-path="url(#pb503349930)" style="fill: none; stroke-dasharray: 7.4,3.2; stroke-dashoffset: 0; stroke: #9370db; stroke-width: 2"/>
   </g>
   <g id="line2d_9">
    <path d="M 55.888409 130.519171 
L 63.128773 129.914839 
L 70.369136 128.854486 
L 77.6095 126.995588 
L 84.849864 123.876123 
L 92.090227 119.236545 
L 99.330591 113.76856 
L 106.570955 109.203763 
L 113.811318 106.566571 
L 121.051682 105.509693 
L 128.292045 105.606587 
L 135.532409 107.090253 
L 142.772773 110.942603 
L 150.013136 116.482899 
L 157.2535 121.1315 
L 164.493864 125.048062 
L 171.734227 127.971493 
L 178.974591 129.562502 
L 186.214955 130.241584 
L 193.455318 130.396089 
L 200.695682 130.189602 
L 207.936045 129.659384 
L 215.176409 128.830907 
L 222.416773 127.83828 
L 229.657136 126.943657 
L 236.8975 126.399234 
L 244.137864 126.419089 
L 251.378227 127.390476 
L 258.618591 129.747295 
L 265.858955 132.561741 
L 273.099318 134.222867 
L 280.339682 134.745531 
L 287.580045 134.397435 
L 294.820409 132.665767 
L 302.060773 128.747893 
L 309.301136 123.355725 
L 316.5415 118.203701 
L 323.781864 113.917106 
L 331.022227 110.729803 
L 338.262591 108.806901 
L 345.502955 108.062134 
L 352.743318 108.267497 
L 359.983682 109.284161 
L 367.224045 110.929806 
L 374.464409 112.758962 
L 381.704773 114.322301 
L 388.945136 115.478825 
L 396.1855 116.298513 
L 403.425864 116.885188 
L 410.666227 117.315462 
L 417.906591 117.638478 
" clip-path="url(#pb503349930)" style="fill: none; stroke-dasharray: 12.8,3.2,2,3.2; stroke-dashoffset: 0; stroke: #ff0000; stroke-width: 2"/>
   </g>
   <g id="patch_4">
    <path d="M 37.7875 165.013526 
L 37.7875 72.719421 
" style="fill: none; stroke: #000000; stroke-width: 0.8; stroke-linejoin: miter; stroke-linecap: square"/>
   </g>
   <g id="patch_5">
    <path d="M 436.0075 165.013526 
L 436.0075 72.719421 
" style="fill: none; stroke: #000000; stroke-width: 0.8; stroke-linejoin: miter; stroke-linecap: square"/>
   </g>
   <g id="patch_6">
    <path d="M 37.7875 165.013526 
L 436.0075 165.013526 
" style="fill: none; stroke: #000000; stroke-width: 0.8; stroke-linejoin: miter; stroke-linecap: square"/>
   </g>
   <g id="patch_7">
    <path d="M 37.7875 72.719421 
L 436.0075 72.719421 
" style="fill: none; stroke: #000000; stroke-width: 0.8; stroke-linejoin: miter; stroke-linecap: square"/>
   </g>
  </g>
  <g id="axes_3">
   <g id="patch_8">
    <path d="M 37.7875 276.68 
L 436.0075 276.68 
L 436.0075 184.385895 
L 37.7875 184.385895 
z
" style="fill: #ffffff"/>
   </g>
   <g id="PathCollection_2">
    <g clip-path="url(#p33f7ea34fe)">
     <use xlink:href="#mc3a76f5c1f" x="66.836987" y="232.012511" style="fill: #daa520; stroke: #daa520"/>
     <use xlink:href="#mc3a76f5c1f" x="80.777763" y="217.258135" style="fill: #daa520; stroke: #daa520"/>
     <use xlink:href="#mc3a76f5c1f" x="69.390091" y="212.980519" style="fill: #daa520; stroke: #daa520"/>
     <use xlink:href="#mc3a76f5c1f" x="58.64218" y="229.450554" style="fill: #daa520; stroke: #daa520"/>
     <use xlink:href="#mc3a76f5c1f" x="104.055599" y="222.133689" style="fill: #daa520; stroke: #daa520"/>
     <use xlink:href="#mc3a76f5c1f" x="115.164411" y="216.442331" style="fill: #daa520; stroke: #daa520"/>
     <use xlink:href="#mc3a76f5c1f" x="381.101051" y="233.023897" style="fill: #daa520; stroke: #daa520"/>
     <use xlink:href="#mc3a76f5c1f" x="128.829842" y="220.211355" style="fill: #daa520; stroke: #daa520"/>
     <use xlink:href="#mc3a76f5c1f" x="214.325348" y="201.317628" style="fill: #daa520; stroke: #daa520"/>
     <use xlink:href="#mc3a76f5c1f" x="79.386558" y="222.580334" style="fill: #daa520; stroke: #daa520"/>
     <use xlink:href="#mc3a76f5c1f" x="193.109326" y="244.920891" style="fill: #daa520; stroke: #daa520"/>
     <use xlink:href="#mc3a76f5c1f" x="179.580846" y="188.581082" style="fill: #daa520; stroke: #daa520"/>
     <use xlink:href="#mc3a76f5c1f" x="218.363747" y="230.233628" style="fill: #daa520; stroke: #daa520"/>
     <use xlink:href="#mc3a76f5c1f" x="111.663705" y="218.813092" style="fill: #daa520; stroke: #daa520"/>
     <use xlink:href="#mc3a76f5c1f" x="153.450083" y="229.87" style="fill: #daa520; stroke: #daa520"/>
     <use xlink:href="#mc3a76f5c1f" x="82.434146" y="220.144129" style="fill: #daa520; stroke: #daa520"/>
     <use xlink:href="#mc3a76f5c1f" x="106.261573" y="216.943892" style="fill: #daa520; stroke: #daa520"/>
     <use xlink:href="#mc3a76f5c1f" x="217.119374" y="272.484813" style="fill: #daa520; stroke: #daa520"/>
     <use xlink:href="#mc3a76f5c1f" x="82.986476" y="228.152671" style="fill: #daa520; stroke: #daa520"/>
     <use xlink:href="#mc3a76f5c1f" x="121.667006" y="213.827589" style="fill: #daa520; stroke: #daa520"/>
     <use xlink:href="#mc3a76f5c1f" x="167.384407" y="233.123452" style="fill: #daa520; stroke: #daa520"/>
     <use xlink:href="#mc3a76f5c1f" x="320.827773" y="237.986615" style="fill: #daa520; stroke: #daa520"/>
     <use xlink:href="#mc3a76f5c1f" x="259.709933" y="266.661099" style="fill: #daa520; stroke: #daa520"/>
     <use xlink:href="#mc3a76f5c1f" x="148.783799" y="221.102362" style="fill: #daa520; stroke: #daa520"/>
     <use xlink:href="#mc3a76f5c1f" x="102.093772" y="220.819004" style="fill: #daa520; stroke: #daa520"/>
     <use xlink:href="#mc3a76f5c1f" x="100.739449" y="233.406713" style="fill: #daa520; stroke: #daa520"/>
     <use xlink:href="#mc3a76f5c1f" x="157.277585" y="196.567665" style="fill: #daa520; stroke: #daa520"/>
     <use xlink:href="#mc3a76f5c1f" x="158.18766" y="236.228685" style="fill: #daa520; stroke: #daa520"/>
     <use xlink:href="#mc3a76f5c1f" x="174.875787" y="235.523268" style="fill: #daa520; stroke: #daa520"/>
     <use xlink:href="#mc3a76f5c1f" x="124.896861" y="227.376788" style="fill: #daa520; stroke: #daa520"/>
     <use xlink:href="#mc3a76f5c1f" x="363.052664" y="231.352289" style="fill: #daa520; stroke: #daa520"/>
     <use xlink:href="#mc3a76f5c1f" x="66.216566" y="226.725406" style="fill: #daa520; stroke: #daa520"/>
     <use xlink:href="#mc3a76f5c1f" x="72.073753" y="223.701739" style="fill: #daa520; stroke: #daa520"/>
     <use xlink:href="#mc3a76f5c1f" x="121.393862" y="215.335391" style="fill: #daa520; stroke: #daa520"/>
     <use xlink:href="#mc3a76f5c1f" x="362.147206" y="230.404695" style="fill: #daa520; stroke: #daa520"/>
     <use xlink:href="#mc3a76f5c1f" x="230.846939" y="226.972728" style="fill: #daa520; stroke: #daa520"/>
     <use xlink:href="#mc3a76f5c1f" x="62.878167" y="227.887296" style="fill: #daa520; stroke: #daa520"/>
     <use xlink:href="#mc3a76f5c1f" x="172.006654" y="236.3029" style="fill: #daa520; stroke: #daa520"/>
     <use xlink:href="#mc3a76f5c1f" x="67.022114" y="215.172263" style="fill: #daa520; stroke: #daa520"/>
     <use xlink:href="#mc3a76f5c1f" x="360.135894" y="227.91774" style="fill: #daa520; stroke: #daa520"/>
     <use xlink:href="#mc3a76f5c1f" x="122.550439" y="224.79754" style="fill: #daa520; stroke: #daa520"/>
     <use xlink:href="#mc3a76f5c1f" x="368.426018" y="201.320177" style="fill: #daa520; stroke: #daa520"/>
     <use xlink:href="#mc3a76f5c1f" x="384.481438" y="213.06169" style="fill: #daa520; stroke: #daa520"/>
     <use xlink:href="#mc3a76f5c1f" x="318.832926" y="235.791297" style="fill: #daa520; stroke: #daa520"/>
     <use xlink:href="#mc3a76f5c1f" x="64.539446" y="226.385085" style="fill: #daa520; stroke: #daa520"/>
     <use xlink:href="#mc3a76f5c1f" x="146.403438" y="228.851445" style="fill: #daa520; stroke: #daa520"/>
     <use xlink:href="#mc3a76f5c1f" x="368.081489" y="231.95771" style="fill: #daa520; stroke: #daa520"/>
     <use xlink:href="#mc3a76f5c1f" x="260.65752" y="223.883131" style="fill: #daa520; stroke: #daa520"/>
     <use xlink:href="#mc3a76f5c1f" x="104.824111" y="230.654063" style="fill: #daa520; stroke: #daa520"/>
     <use xlink:href="#mc3a76f5c1f" x="363.027249" y="228.666219" style="fill: #daa520; stroke: #daa520"/>
     <use xlink:href="#mc3a76f5c1f" x="83.58613" y="232.746415" style="fill: #daa520; stroke: #daa520"/>
     <use xlink:href="#mc3a76f5c1f" x="342.259571" y="213.371467" style="fill: #daa520; stroke: #daa520"/>
     <use xlink:href="#mc3a76f5c1f" x="182.712937" y="241.972424" style="fill: #daa520; stroke: #daa520"/>
     <use xlink:href="#mc3a76f5c1f" x="78.707441" y="216.948552" style="fill: #daa520; stroke: #daa520"/>
     <use xlink:href="#mc3a76f5c1f" x="107.273406" y="222.474024" style="fill: #daa520; stroke: #daa520"/>
     <use xlink:href="#mc3a76f5c1f" x="138.938198" y="219.607339" style="fill: #daa520; stroke: #daa520"/>
     <use xlink:href="#mc3a76f5c1f" x="151.774175" y="225.488103" style="fill: #daa520; stroke: #daa520"/>
     <use xlink:href="#mc3a76f5c1f" x="100.864495" y="220.813231" style="fill: #daa520; stroke: #daa520"/>
     <use xlink:href="#mc3a76f5c1f" x="146.535968" y="223.901588" style="fill: #daa520; stroke: #daa520"/>
     <use xlink:href="#mc3a76f5c1f" x="231.987885" y="195.379109" style="fill: #daa520; stroke: #daa520"/>
     <use xlink:href="#mc3a76f5c1f" x="378.828884" y="197.09294" style="fill: #daa520; stroke: #daa520"/>
     <use xlink:href="#mc3a76f5c1f" x="121.020127" y="218.53684" style="fill: #daa520; stroke: #daa520"/>
     <use xlink:href="#mc3a76f5c1f" x="142.746707" y="222.396646" style="fill: #daa520; stroke: #daa520"/>
     <use xlink:href="#mc3a76f5c1f" x="128.446363" y="221.499284" style="fill: #daa520; stroke: #daa520"/>
     <use xlink:href="#mc3a76f5c1f" x="348.989525" y="214.856475" style="fill: #daa520; stroke: #daa520"/>
     <use xlink:href="#mc3a76f5c1f" x="112.631974" y="219.024225" style="fill: #daa520; stroke: #daa520"/>
     <use xlink:href="#mc3a76f5c1f" x="91.476245" y="234.097275" style="fill: #daa520; stroke: #daa520"/>
     <use xlink:href="#mc3a76f5c1f" x="343.162565" y="233.928671" style="fill: #daa520; stroke: #daa520"/>
     <use xlink:href="#mc3a76f5c1f" x="83.777067" y="217.360845" style="fill: #daa520; stroke: #daa520"/>
     <use xlink:href="#mc3a76f5c1f" x="67.84137" y="226.907566" style="fill: #daa520; stroke: #daa520"/>
     <use xlink:href="#mc3a76f5c1f" x="335.961985" y="215.279137" style="fill: #daa520; stroke: #daa520"/>
     <use xlink:href="#mc3a76f5c1f" x="333.548206" y="213.287531" style="fill: #daa520; stroke: #daa520"/>
     <use xlink:href="#mc3a76f5c1f" x="326.336936" y="237.878192" style="fill: #daa520; stroke: #daa520"/>
     <use xlink:href="#mc3a76f5c1f" x="370.43602" y="231.631272" style="fill: #daa520; stroke: #daa520"/>
     <use xlink:href="#mc3a76f5c1f" x="408.216239" y="230.923917" style="fill: #daa520; stroke: #daa520"/>
     <use xlink:href="#mc3a76f5c1f" x="193.874624" y="247.312101" style="fill: #daa520; stroke: #daa520"/>
     <use xlink:href="#mc3a76f5c1f" x="140.677373" y="198.842565" style="fill: #daa520; stroke: #daa520"/>
     <use xlink:href="#mc3a76f5c1f" x="91.432269" y="217.018128" style="fill: #daa520; stroke: #daa520"/>
     <use xlink:href="#mc3a76f5c1f" x="278.616912" y="269.092034" style="fill: #daa520; stroke: #daa520"/>
     <use xlink:href="#mc3a76f5c1f" x="158.652989" y="233.239286" style="fill: #daa520; stroke: #daa520"/>
     <use xlink:href="#mc3a76f5c1f" x="97.665953" y="227.962022" style="fill: #daa520; stroke: #daa520"/>
     <use xlink:href="#mc3a76f5c1f" x="117.897079" y="220.667956" style="fill: #daa520; stroke: #daa520"/>
     <use xlink:href="#mc3a76f5c1f" x="98.071362" y="217.228864" style="fill: #daa520; stroke: #daa520"/>
     <use xlink:href="#mc3a76f5c1f" x="98.720743" y="218.614077" style="fill: #daa520; stroke: #daa520"/>
     <use xlink:href="#mc3a76f5c1f" x="120.425235" y="209.281218" style="fill: #daa520; stroke: #daa520"/>
     <use xlink:href="#mc3a76f5c1f" x="122.979006" y="228.4653" style="fill: #daa520; stroke: #daa520"/>
     <use xlink:href="#mc3a76f5c1f" x="118.146129" y="211.430601" style="fill: #daa520; stroke: #daa520"/>
     <use xlink:href="#mc3a76f5c1f" x="157.882196" y="236.610849" style="fill: #daa520; stroke: #daa520"/>
     <use xlink:href="#mc3a76f5c1f" x="90.257677" y="223.108224" style="fill: #daa520; stroke: #daa520"/>
     <use xlink:href="#mc3a76f5c1f" x="152.371937" y="228.024922" style="fill: #daa520; stroke: #daa520"/>
     <use xlink:href="#mc3a76f5c1f" x="157.085127" y="226.963466" style="fill: #daa520; stroke: #daa520"/>
     <use xlink:href="#mc3a76f5c1f" x="89.369678" y="219.153565" style="fill: #daa520; stroke: #daa520"/>
     <use xlink:href="#mc3a76f5c1f" x="158.520213" y="228.289489" style="fill: #daa520; stroke: #daa520"/>
     <use xlink:href="#mc3a76f5c1f" x="181.497027" y="190.804849" style="fill: #daa520; stroke: #daa520"/>
     <use xlink:href="#mc3a76f5c1f" x="117.938405" y="225.729455" style="fill: #daa520; stroke: #daa520"/>
     <use xlink:href="#mc3a76f5c1f" x="88.261075" y="240.135231" style="fill: #daa520; stroke: #daa520"/>
     <use xlink:href="#mc3a76f5c1f" x="78.546536" y="218.144778" style="fill: #daa520; stroke: #daa520"/>
     <use xlink:href="#mc3a76f5c1f" x="73.830784" y="232.686205" style="fill: #daa520; stroke: #daa520"/>
     <use xlink:href="#mc3a76f5c1f" x="140.694659" y="219.89006" style="fill: #daa520; stroke: #daa520"/>
     <use xlink:href="#mc3a76f5c1f" x="80.525702" y="224.926088" style="fill: #daa520; stroke: #daa520"/>
     <use xlink:href="#mc3a76f5c1f" x="67.595876" y="212.405066" style="fill: #daa520; stroke: #daa520"/>
    </g>
   </g>
   <g id="matplotlib.axis_5">
    <g id="xtick_1">
     <g id="line2d_10">
      <defs>
       <path id="md563b66d24" d="M 0 0 
L 0 3.5 
" style="stroke: #696969; stroke-width: 0.8"/>
      </defs>
      <g>
       <use xlink:href="#md563b66d24" x="55.888409" y="276.68" style="fill: #696969; stroke: #696969; stroke-width: 0.8"/>
      </g>
     </g>
     <g id="text_4">
      <!-- −1.0 -->
      <g style="fill: #696969" transform="translate(36.462159 295.8375) scale(0.16 -0.16)">
       <defs>
        <path id="DejaVuSans-31" d="M 794 531 
L 1825 531 
L 1825 4091 
L 703 3866 
L 703 4441 
L 1819 4666 
L 2450 4666 
L 2450 531 
L 3481 531 
L 3481 0 
L 794 0 
L 794 531 
z
" transform="scale(0.015625)"/>
        <path id="DejaVuSans-2e" d="M 684 794 
L 1344 794 
L 1344 0 
L 684 0 
L 684 794 
z
" transform="scale(0.015625)"/>
       </defs>
       <use xlink:href="#DejaVuSans-2212"/>
       <use xlink:href="#DejaVuSans-31" x="83.789062"/>
       <use xlink:href="#DejaVuSans-2e" x="147.412109"/>
       <use xlink:href="#DejaVuSans-30" x="179.199219"/>
      </g>
     </g>
    </g>
    <g id="xtick_2">
     <g id="line2d_11">
      <g>
       <use xlink:href="#md563b66d24" x="146.392955" y="276.68" style="fill: #696969; stroke: #696969; stroke-width: 0.8"/>
      </g>
     </g>
     <g id="text_5">
      <!-- −0.5 -->
      <g style="fill: #696969" transform="translate(126.966705 295.8375) scale(0.16 -0.16)">
       <use xlink:href="#DejaVuSans-2212"/>
       <use xlink:href="#DejaVuSans-30" x="83.789062"/>
       <use xlink:href="#DejaVuSans-2e" x="147.412109"/>
       <use xlink:href="#DejaVuSans-35" x="179.199219"/>
      </g>
     </g>
    </g>
    <g id="xtick_3">
     <g id="line2d_12">
      <g>
       <use xlink:href="#md563b66d24" x="236.8975" y="276.68" style="fill: #696969; stroke: #696969; stroke-width: 0.8"/>
      </g>
     </g>
     <g id="text_6">
      <!-- 0.0 -->
      <g style="fill: #696969" transform="translate(224.175 295.8375) scale(0.16 -0.16)">
       <use xlink:href="#DejaVuSans-30"/>
       <use xlink:href="#DejaVuSans-2e" x="63.623047"/>
       <use xlink:href="#DejaVuSans-30" x="95.410156"/>
      </g>
     </g>
    </g>
    <g id="xtick_4">
     <g id="line2d_13">
      <g>
       <use xlink:href="#md563b66d24" x="327.402045" y="276.68" style="fill: #696969; stroke: #696969; stroke-width: 0.8"/>
      </g>
     </g>
     <g id="text_7">
      <!-- 0.5 -->
      <g style="fill: #696969" transform="translate(314.679545 295.8375) scale(0.16 -0.16)">
       <use xlink:href="#DejaVuSans-30"/>
       <use xlink:href="#DejaVuSans-2e" x="63.623047"/>
       <use xlink:href="#DejaVuSans-35" x="95.410156"/>
      </g>
     </g>
    </g>
    <g id="xtick_5">
     <g id="line2d_14">
      <g>
       <use xlink:href="#md563b66d24" x="417.906591" y="276.68" style="fill: #696969; stroke: #696969; stroke-width: 0.8"/>
      </g>
     </g>
     <g id="text_8">
      <!-- 1.0 -->
      <g style="fill: #696969" transform="translate(405.184091 295.8375) scale(0.16 -0.16)">
       <use xlink:href="#DejaVuSans-31"/>
       <use xlink:href="#DejaVuSans-2e" x="63.623047"/>
       <use xlink:href="#DejaVuSans-30" x="95.410156"/>
      </g>
     </g>
    </g>
    <g id="text_9">
     <!-- $X$ -->
     <g transform="translate(231.3775 315.3225) scale(0.16 -0.16)">
      <defs>
       <path id="DejaVuSans-Oblique-58" d="M 878 4666 
L 1516 4666 
L 2316 2981 
L 3763 4666 
L 4500 4666 
L 2578 2438 
L 3738 0 
L 3103 0 
L 2163 1966 
L 459 0 
L -275 0 
L 1906 2509 
L 878 4666 
z
" transform="scale(0.015625)"/>
      </defs>
      <use xlink:href="#DejaVuSans-Oblique-58" transform="translate(0 0.09375)"/>
     </g>
    </g>
   </g>
   <g id="matplotlib.axis_6">
    <g id="ytick_4">
     <g id="line2d_15">
      <g>
       <use xlink:href="#meb4882d9fd" x="37.7875" y="252.874401" style="fill: #696969; stroke: #696969; stroke-width: 0.8"/>
      </g>
     </g>
     <g id="text_10">
      <!-- −5 -->
      <g style="fill: #696969" transform="translate(7.2 258.953151) scale(0.16 -0.16)">
       <use xlink:href="#DejaVuSans-2212"/>
       <use xlink:href="#DejaVuSans-35" x="83.789062"/>
      </g>
     </g>
    </g>
    <g id="ytick_5">
     <g id="line2d_16">
      <g>
       <use xlink:href="#meb4882d9fd" x="37.7875" y="220.157034" style="fill: #696969; stroke: #696969; stroke-width: 0.8"/>
      </g>
     </g>
     <g id="text_11">
      <!-- 0 -->
      <g style="fill: #696969" transform="translate(20.6075 226.235784) scale(0.16 -0.16)">
       <use xlink:href="#DejaVuSans-30"/>
      </g>
     </g>
    </g>
    <g id="ytick_6">
     <g id="line2d_17">
      <g>
       <use xlink:href="#meb4882d9fd" x="37.7875" y="187.439667" style="fill: #696969; stroke: #696969; stroke-width: 0.8"/>
      </g>
     </g>
     <g id="text_12">
      <!-- 5 -->
      <g style="fill: #696969" transform="translate(20.6075 193.518417) scale(0.16 -0.16)">
       <use xlink:href="#DejaVuSans-35"/>
      </g>
     </g>
    </g>
   </g>
   <g id="line2d_18">
    <path d="M 55.888409 223.865554 
L 63.128773 223.040764 
L 70.369136 222.881131 
L 77.6095 223.304881 
L 84.849864 223.769047 
L 92.090227 223.549533 
L 99.330591 222.608587 
L 106.570955 221.902774 
L 113.811318 221.843939 
L 121.051682 221.774332 
L 128.292045 221.295418 
L 135.532409 220.927048 
L 142.772773 222.067117 
L 150.013136 224.446984 
L 157.2535 225.852917 
L 164.493864 226.83 
L 171.734227 227.484716 
L 178.974591 227.798875 
L 186.214955 228.411325 
L 193.455318 229.747534 
L 200.695682 231.795293 
L 207.936045 234.221764 
L 215.176409 236.547645 
L 222.416773 238.350176 
L 229.657136 239.375889 
L 236.8975 239.499114 
L 244.137864 238.78447 
L 251.378227 237.76158 
L 258.618591 237.300085 
L 265.858955 237.110034 
L 273.099318 236.2827 
L 280.339682 235.441196 
L 287.580045 235.17859 
L 294.820409 234.923969 
L 302.060773 233.477602 
L 309.301136 230.988794 
L 316.5415 228.631246 
L 323.781864 226.635393 
L 331.022227 225.047556 
L 338.262591 224.014577 
L 345.502955 223.514636 
L 352.743318 223.402566 
L 359.983682 223.62636 
L 367.224045 224.112032 
L 374.464409 224.561753 
L 381.704773 224.708461 
L 388.945136 224.590241 
L 396.1855 224.396245 
L 403.425864 224.249132 
L 410.666227 224.145011 
L 417.906591 223.997114 
" clip-path="url(#p33f7ea34fe)" style="fill: none; stroke: #696969; stroke-width: 2; stroke-linecap: square"/>
   </g>
   <g id="line2d_19">
    <path d="M 55.888409 228.08733 
L 63.128773 225.482528 
L 70.369136 223.699527 
L 77.6095 222.545991 
L 84.849864 221.871304 
L 92.090227 221.558069 
L 99.330591 221.515173 
L 106.570955 221.672171 
L 113.811318 221.974775 
L 121.051682 222.381252 
L 128.292045 222.859569 
L 135.532409 223.385145 
L 142.772773 223.939103 
L 150.013136 224.506901 
L 157.2535 225.077291 
L 164.493864 225.64151 
L 171.734227 226.192663 
L 178.974591 226.725256 
L 186.214955 227.234836 
L 193.455318 227.717716 
L 200.695682 228.170764 
L 207.936045 228.591233 
L 215.176409 228.976637 
L 222.416773 229.32464 
L 229.657136 229.632974 
L 236.8975 229.899369 
L 244.137864 230.121493 
L 251.378227 230.296902 
L 258.618591 230.423003 
L 265.858955 230.497017 
L 273.099318 230.515962 
L 280.339682 230.47664 
L 287.580045 230.375648 
L 294.820409 230.209418 
L 302.060773 229.974285 
L 309.301136 229.666625 
L 316.5415 229.28306 
L 323.781864 228.820778 
L 331.022227 228.277996 
L 338.262591 227.654623 
L 345.502955 226.953176 
L 352.743318 226.180034 
L 359.983682 225.347108 
L 367.224045 224.474055 
L 374.464409 223.591147 
L 381.704773 222.742967 
L 388.945136 221.993095 
L 396.1855 221.430008 
L 403.425864 221.17443 
L 410.666227 221.388406 
L 417.906591 222.286411 
" clip-path="url(#p33f7ea34fe)" style="fill: none; stroke-dasharray: 7.4,3.2; stroke-dashoffset: 0; stroke: #79ad41; stroke-width: 2"/>
   </g>
   <g id="patch_9">
    <path d="M 37.7875 276.68 
L 37.7875 184.385895 
" style="fill: none; stroke: #000000; stroke-width: 0.8; stroke-linejoin: miter; stroke-linecap: square"/>
   </g>
   <g id="patch_10">
    <path d="M 436.0075 276.68 
L 436.0075 184.385895 
" style="fill: none; stroke: #000000; stroke-width: 0.8; stroke-linejoin: miter; stroke-linecap: square"/>
   </g>
   <g id="patch_11">
    <path d="M 37.7875 276.68 
L 436.0075 276.68 
" style="fill: none; stroke: #000000; stroke-width: 0.8; stroke-linejoin: miter; stroke-linecap: square"/>
   </g>
   <g id="patch_12">
    <path d="M 37.7875 184.385895 
L 436.0075 184.385895 
" style="fill: none; stroke: #000000; stroke-width: 0.8; stroke-linejoin: miter; stroke-linecap: square"/>
   </g>
  </g>
 </g>
 <defs>
  <clipPath id="pb91ee73e65">
   <rect x="37.7875" y="7.2" width="398.22" height="46.147052"/>
  </clipPath>
  <clipPath id="pb503349930">
   <rect x="37.7875" y="72.719421" width="398.22" height="92.294105"/>
  </clipPath>
  <clipPath id="p33f7ea34fe">
   <rect x="37.7875" y="184.385895" width="398.22" height="92.294105"/>
  </clipPath>
 </defs>
</svg>
