<?xml version="1.0" encoding="utf-8" standalone="no"?>
<!DOCTYPE svg PUBLIC "-//W3C//DTD SVG 1.1//EN"
  "http://www.w3.org/Graphics/SVG/1.1/DTD/svg11.dtd">
<svg xmlns:xlink="http://www.w3.org/1999/xlink" width="443.2625pt" height="325.85pt" viewBox="0 0 443.2625 325.85" xmlns="http://www.w3.org/2000/svg" version="1.1">
 <metadata>
  <rdf:RDF xmlns:dc="http://purl.org/dc/elements/1.1/" xmlns:cc="http://creativecommons.org/ns#" xmlns:rdf="http://www.w3.org/1999/02/22-rdf-syntax-ns#">
   <cc:Work>
    <dc:type rdf:resource="http://purl.org/dc/dcmitype/StillImage"/>
    <dc:date>2024-01-28T20:58:29.846998</dc:date>
    <dc:format>image/svg+xml</dc:format>
    <dc:creator>
     <cc:Agent>
      <dc:title>Matplotlib v3.7.2, https://matplotlib.org/</dc:title>
     </cc:Agent>
    </dc:creator>
   </cc:Work>
  </rdf:RDF>
 </metadata>
 <defs>
  <style type="text/css">*{stroke-linejoin: round; stroke-linecap: butt}</style>
 </defs>
 <g id="figure_1">
  <g id="patch_1">
   <path d="M 0 325.85 
L 443.2625 325.85 
L 443.2625 0 
L 0 0 
z
" style="fill: #ffffff"/>
  </g>
  <g id="axes_1">
   <g id="patch_2">
    <path d="M 53.0525 53.667185 
L 436.0625 53.667185 
L 436.0625 7.2 
L 53.0525 7.2 
z
" style="fill: #ffffff"/>
   </g>
   <g id="PolyCollection_1">
    <defs>
     <path id="m2ac973c737" d="M 70.462045 -274.29496 
L 70.462045 -278.988615 
L 77.425864 -278.988615 
L 84.389682 -278.988615 
L 91.3535 -278.988615 
L 98.317318 -278.988615 
L 105.281136 -278.988615 
L 112.244955 -278.988615 
L 119.208773 -278.988615 
L 126.172591 -278.988615 
L 133.136409 -278.988615 
L 140.100227 -278.988615 
L 147.064045 -278.988615 
L 154.027864 -278.988615 
L 160.991682 -278.988615 
L 167.9555 -278.988615 
L 174.919318 -278.988615 
L 181.883136 -278.988615 
L 188.846955 -278.988615 
L 195.810773 -279.52461 
L 202.774591 -280.534033 
L 209.738409 -281.763526 
L 216.702227 -283.249596 
L 223.666045 -285.025323 
L 230.629864 -287.113888 
L 237.593682 -289.520338 
L 244.5575 -292.222937 
L 251.521318 -295.166985 
L 258.485136 -298.264444 
L 265.448955 -301.401925 
L 272.412773 -304.456437 
L 279.376591 -307.314745 
L 286.340409 -309.890124 
L 293.304227 -312.131494 
L 300.268045 -314.023491 
L 307.231864 -315.57972 
L 314.195682 -316.537855 
L 321.1595 -316.537855 
L 328.123318 -316.537855 
L 335.087136 -316.537855 
L 342.050955 -316.537855 
L 349.014773 -316.537855 
L 355.978591 -316.537855 
L 362.942409 -316.537855 
L 369.906227 -316.537855 
L 376.870045 -316.537855 
L 383.833864 -316.537855 
L 390.797682 -316.537855 
L 397.7615 -316.537855 
L 404.725318 -316.537855 
L 411.689136 -316.537855 
L 418.652955 -316.537855 
L 418.652955 -274.29496 
L 418.652955 -274.29496 
L 411.689136 -274.29496 
L 404.725318 -274.29496 
L 397.7615 -274.29496 
L 390.797682 -274.29496 
L 383.833864 -274.29496 
L 376.870045 -274.29496 
L 369.906227 -274.29496 
L 362.942409 -274.29496 
L 355.978591 -274.29496 
L 349.014773 -274.29496 
L 342.050955 -274.29496 
L 335.087136 -274.29496 
L 328.123318 -274.29496 
L 321.1595 -274.29496 
L 314.195682 -274.29496 
L 307.231864 -274.29496 
L 300.268045 -274.29496 
L 293.304227 -274.29496 
L 286.340409 -274.29496 
L 279.376591 -274.29496 
L 272.412773 -274.29496 
L 265.448955 -274.29496 
L 258.485136 -274.29496 
L 251.521318 -274.29496 
L 244.5575 -274.29496 
L 237.593682 -274.29496 
L 230.629864 -274.29496 
L 223.666045 -274.29496 
L 216.702227 -274.29496 
L 209.738409 -274.29496 
L 202.774591 -274.29496 
L 195.810773 -274.29496 
L 188.846955 -274.29496 
L 181.883136 -274.29496 
L 174.919318 -274.29496 
L 167.9555 -274.29496 
L 160.991682 -274.29496 
L 154.027864 -274.29496 
L 147.064045 -274.29496 
L 140.100227 -274.29496 
L 133.136409 -274.29496 
L 126.172591 -274.29496 
L 119.208773 -274.29496 
L 112.244955 -274.29496 
L 105.281136 -274.29496 
L 98.317318 -274.29496 
L 91.3535 -274.29496 
L 84.389682 -274.29496 
L 77.425864 -274.29496 
L 70.462045 -274.29496 
z
" style="stroke: #dc143c; stroke-opacity: 0.2"/>
    </defs>
    <g clip-path="url(#p18b40988d4)">
     <use xlink:href="#m2ac973c737" x="0" y="325.85" style="fill: #dc143c; fill-opacity: 0.2; stroke: #dc143c; stroke-opacity: 0.2"/>
    </g>
   </g>
   <g id="PolyCollection_2">
    <defs>
     <path id="mf77e0282f1" d="M 70.462045 -274.29496 
L 70.462045 -316.537855 
L 77.425864 -316.537855 
L 84.389682 -316.537855 
L 91.3535 -316.537855 
L 98.317318 -316.537855 
L 105.281136 -316.537855 
L 112.244955 -316.537855 
L 119.208773 -316.537855 
L 126.172591 -316.537855 
L 133.136409 -316.537855 
L 140.100227 -316.537855 
L 147.064045 -316.537855 
L 154.027864 -316.537855 
L 160.991682 -316.537855 
L 167.9555 -316.537855 
L 174.919318 -316.537855 
L 181.883136 -316.537855 
L 188.846955 -316.537855 
L 195.810773 -316.00186 
L 202.774591 -314.992437 
L 209.738409 -313.762945 
L 216.702227 -312.276874 
L 223.666045 -310.501147 
L 230.629864 -308.412583 
L 237.593682 -306.006132 
L 244.5575 -303.303533 
L 251.521318 -300.359486 
L 258.485136 -297.262026 
L 265.448955 -294.124545 
L 272.412773 -291.070033 
L 279.376591 -288.211725 
L 286.340409 -285.636346 
L 293.304227 -283.394976 
L 300.268045 -281.502979 
L 307.231864 -279.946751 
L 314.195682 -278.988615 
L 321.1595 -278.988615 
L 328.123318 -278.988615 
L 335.087136 -278.988615 
L 342.050955 -278.988615 
L 349.014773 -278.988615 
L 355.978591 -278.988615 
L 362.942409 -278.988615 
L 369.906227 -278.988615 
L 376.870045 -278.988615 
L 383.833864 -278.988615 
L 390.797682 -278.988615 
L 397.7615 -278.988615 
L 404.725318 -278.988615 
L 411.689136 -278.988615 
L 418.652955 -278.988615 
L 418.652955 -274.29496 
L 418.652955 -274.29496 
L 411.689136 -274.29496 
L 404.725318 -274.29496 
L 397.7615 -274.29496 
L 390.797682 -274.29496 
L 383.833864 -274.29496 
L 376.870045 -274.29496 
L 369.906227 -274.29496 
L 362.942409 -274.29496 
L 355.978591 -274.29496 
L 349.014773 -274.29496 
L 342.050955 -274.29496 
L 335.087136 -274.29496 
L 328.123318 -274.29496 
L 321.1595 -274.29496 
L 314.195682 -274.29496 
L 307.231864 -274.29496 
L 300.268045 -274.29496 
L 293.304227 -274.29496 
L 286.340409 -274.29496 
L 279.376591 -274.29496 
L 272.412773 -274.29496 
L 265.448955 -274.29496 
L 258.485136 -274.29496 
L 251.521318 -274.29496 
L 244.5575 -274.29496 
L 237.593682 -274.29496 
L 230.629864 -274.29496 
L 223.666045 -274.29496 
L 216.702227 -274.29496 
L 209.738409 -274.29496 
L 202.774591 -274.29496 
L 195.810773 -274.29496 
L 188.846955 -274.29496 
L 181.883136 -274.29496 
L 174.919318 -274.29496 
L 167.9555 -274.29496 
L 160.991682 -274.29496 
L 154.027864 -274.29496 
L 147.064045 -274.29496 
L 140.100227 -274.29496 
L 133.136409 -274.29496 
L 126.172591 -274.29496 
L 119.208773 -274.29496 
L 112.244955 -274.29496 
L 105.281136 -274.29496 
L 98.317318 -274.29496 
L 91.3535 -274.29496 
L 84.389682 -274.29496 
L 77.425864 -274.29496 
L 70.462045 -274.29496 
z
" style="stroke: #000080; stroke-opacity: 0.2"/>
    </defs>
    <g clip-path="url(#p18b40988d4)">
     <use xlink:href="#mf77e0282f1" x="0" y="325.85" style="fill: #000080; fill-opacity: 0.2; stroke: #000080; stroke-opacity: 0.2"/>
    </g>
   </g>
   <g id="matplotlib.axis_1"/>
   <g id="matplotlib.axis_2"/>
   <g id="line2d_1">
    <path d="M 70.462045 46.861385 
L 77.425864 46.861385 
L 84.389682 46.861385 
L 91.3535 46.861385 
L 98.317318 46.861385 
L 105.281136 46.861385 
L 112.244955 46.861385 
L 119.208773 46.861385 
L 126.172591 46.861385 
L 133.136409 46.861385 
L 140.100227 46.861385 
L 147.064045 46.861385 
L 154.027864 46.861385 
L 160.991682 46.861385 
L 167.9555 46.861385 
L 174.919318 46.861385 
L 181.883136 46.861385 
L 188.846955 46.861385 
L 195.810773 46.32539 
L 202.774591 45.315967 
L 209.738409 44.086474 
L 216.702227 42.600404 
L 223.666045 40.824677 
L 230.629864 38.736112 
L 237.593682 36.329662 
L 244.5575 33.627063 
L 251.521318 30.683015 
L 258.485136 27.585556 
L 265.448955 24.448075 
L 272.412773 21.393563 
L 279.376591 18.535255 
L 286.340409 15.959876 
L 293.304227 13.718506 
L 300.268045 11.826509 
L 307.231864 10.27028 
L 314.195682 9.312145 
L 321.1595 9.312145 
L 328.123318 9.312145 
L 335.087136 9.312145 
L 342.050955 9.312145 
L 349.014773 9.312145 
L 355.978591 9.312145 
L 362.942409 9.312145 
L 369.906227 9.312145 
L 376.870045 9.312145 
L 383.833864 9.312145 
L 390.797682 9.312145 
L 397.7615 9.312145 
L 404.725318 9.312145 
L 411.689136 9.312145 
L 418.652955 9.312145 
" clip-path="url(#p18b40988d4)" style="fill: none; stroke: #dc143c; stroke-width: 1.5; stroke-linecap: square"/>
   </g>
   <g id="line2d_2">
    <path d="M 70.462045 9.312145 
L 77.425864 9.312145 
L 84.389682 9.312145 
L 91.3535 9.312145 
L 98.317318 9.312145 
L 105.281136 9.312145 
L 112.244955 9.312145 
L 119.208773 9.312145 
L 126.172591 9.312145 
L 133.136409 9.312145 
L 140.100227 9.312145 
L 147.064045 9.312145 
L 154.027864 9.312145 
L 160.991682 9.312145 
L 167.9555 9.312145 
L 174.919318 9.312145 
L 181.883136 9.312145 
L 188.846955 9.312145 
L 195.810773 9.84814 
L 202.774591 10.857563 
L 209.738409 12.087055 
L 216.702227 13.573126 
L 223.666045 15.348853 
L 230.629864 17.437417 
L 237.593682 19.843868 
L 244.5575 22.546467 
L 251.521318 25.490514 
L 258.485136 28.587974 
L 265.448955 31.725455 
L 272.412773 34.779967 
L 279.376591 37.638275 
L 286.340409 40.213654 
L 293.304227 42.455024 
L 300.268045 44.347021 
L 307.231864 45.903249 
L 314.195682 46.861385 
L 321.1595 46.861385 
L 328.123318 46.861385 
L 335.087136 46.861385 
L 342.050955 46.861385 
L 349.014773 46.861385 
L 355.978591 46.861385 
L 362.942409 46.861385 
L 369.906227 46.861385 
L 376.870045 46.861385 
L 383.833864 46.861385 
L 390.797682 46.861385 
L 397.7615 46.861385 
L 404.725318 46.861385 
L 411.689136 46.861385 
L 418.652955 46.861385 
" clip-path="url(#p18b40988d4)" style="fill: none; stroke: #000080; stroke-width: 1.5; stroke-linecap: square"/>
   </g>
  </g>
  <g id="axes_2">
   <g id="patch_3">
    <path d="M 53.0525 165.173592 
L 436.0625 165.173592 
L 436.0625 72.239223 
L 53.0525 72.239223 
z
" style="fill: #ffffff"/>
   </g>
   <g id="PathCollection_1">
    <defs>
     <path id="m2a5809b570" d="M 0 0.866025 
C 0.229673 0.866025 0.449969 0.774776 0.612372 0.612372 
C 0.774776 0.449969 0.866025 0.229673 0.866025 0 
C 0.866025 -0.229673 0.774776 -0.449969 0.612372 -0.612372 
C 0.449969 -0.774776 0.229673 -0.866025 0 -0.866025 
C -0.229673 -0.866025 -0.449969 -0.774776 -0.612372 -0.612372 
C -0.774776 -0.449969 -0.866025 -0.229673 -0.866025 0 
C -0.866025 0.229673 -0.774776 0.449969 -0.612372 0.612372 
C -0.449969 0.774776 -0.229673 0.866025 0 0.866025 
z
" style="stroke: #daa520"/>
    </defs>
    <g clip-path="url(#pcd7d00c0f6)">
     <use xlink:href="#m2a5809b570" x="318.428743" y="135.936915" style="fill: #daa520; stroke: #daa520"/>
     <use xlink:href="#m2a5809b570" x="311.433614" y="89.55991" style="fill: #daa520; stroke: #daa520"/>
     <use xlink:href="#m2a5809b570" x="338.922248" y="141.800849" style="fill: #daa520; stroke: #daa520"/>
     <use xlink:href="#m2a5809b570" x="276.772271" y="130.129072" style="fill: #daa520; stroke: #daa520"/>
     <use xlink:href="#m2a5809b570" x="329.561574" y="126.166359" style="fill: #daa520; stroke: #daa520"/>
     <use xlink:href="#m2a5809b570" x="371.454904" y="110.418944" style="fill: #daa520; stroke: #daa520"/>
     <use xlink:href="#m2a5809b570" x="264.708957" y="99.163363" style="fill: #daa520; stroke: #daa520"/>
     <use xlink:href="#m2a5809b570" x="409.023415" y="108.678253" style="fill: #daa520; stroke: #daa520"/>
     <use xlink:href="#m2a5809b570" x="106.900609" y="115.193108" style="fill: #daa520; stroke: #daa520"/>
     <use xlink:href="#m2a5809b570" x="409.575362" y="79.205204" style="fill: #daa520; stroke: #daa520"/>
     <use xlink:href="#m2a5809b570" x="350.976761" y="127.831534" style="fill: #daa520; stroke: #daa520"/>
     <use xlink:href="#m2a5809b570" x="353.374925" y="137.696952" style="fill: #daa520; stroke: #daa520"/>
     <use xlink:href="#m2a5809b570" x="280.736306" y="131.051119" style="fill: #daa520; stroke: #daa520"/>
     <use xlink:href="#m2a5809b570" x="275.854909" y="131.264274" style="fill: #daa520; stroke: #daa520"/>
     <use xlink:href="#m2a5809b570" x="335.089265" y="126.933199" style="fill: #daa520; stroke: #daa520"/>
     <use xlink:href="#m2a5809b570" x="195.719321" y="160.949303" style="fill: #daa520; stroke: #daa520"/>
     <use xlink:href="#m2a5809b570" x="95.332077" y="105.549186" style="fill: #daa520; stroke: #daa520"/>
     <use xlink:href="#m2a5809b570" x="100.971593" y="106.016389" style="fill: #daa520; stroke: #daa520"/>
     <use xlink:href="#m2a5809b570" x="343.043207" y="128.36163" style="fill: #daa520; stroke: #daa520"/>
     <use xlink:href="#m2a5809b570" x="389.172418" y="92.684895" style="fill: #daa520; stroke: #daa520"/>
     <use xlink:href="#m2a5809b570" x="277.18903" y="98.233249" style="fill: #daa520; stroke: #daa520"/>
     <use xlink:href="#m2a5809b570" x="381.739621" y="115.805226" style="fill: #daa520; stroke: #daa520"/>
     <use xlink:href="#m2a5809b570" x="372.461241" y="120.493929" style="fill: #daa520; stroke: #daa520"/>
     <use xlink:href="#m2a5809b570" x="270.628826" y="137.228685" style="fill: #daa520; stroke: #daa520"/>
     <use xlink:href="#m2a5809b570" x="143.965237" y="101.303172" style="fill: #daa520; stroke: #daa520"/>
     <use xlink:href="#m2a5809b570" x="356.051232" y="123.372106" style="fill: #daa520; stroke: #daa520"/>
     <use xlink:href="#m2a5809b570" x="329.502651" y="133.180501" style="fill: #daa520; stroke: #daa520"/>
     <use xlink:href="#m2a5809b570" x="388.721983" y="127.802842" style="fill: #daa520; stroke: #daa520"/>
     <use xlink:href="#m2a5809b570" x="399.370375" y="77.566166" style="fill: #daa520; stroke: #daa520"/>
     <use xlink:href="#m2a5809b570" x="231.024048" y="123.592442" style="fill: #daa520; stroke: #daa520"/>
     <use xlink:href="#m2a5809b570" x="396.870986" y="117.378438" style="fill: #daa520; stroke: #daa520"/>
     <use xlink:href="#m2a5809b570" x="75.644626" y="115.493253" style="fill: #daa520; stroke: #daa520"/>
     <use xlink:href="#m2a5809b570" x="150.557991" y="130.576721" style="fill: #daa520; stroke: #daa520"/>
     <use xlink:href="#m2a5809b570" x="193.517294" y="101.670985" style="fill: #daa520; stroke: #daa520"/>
     <use xlink:href="#m2a5809b570" x="265.564023" y="148.162197" style="fill: #daa520; stroke: #daa520"/>
     <use xlink:href="#m2a5809b570" x="410.594746" y="105.753081" style="fill: #daa520; stroke: #daa520"/>
     <use xlink:href="#m2a5809b570" x="127.971331" y="89.048184" style="fill: #daa520; stroke: #daa520"/>
     <use xlink:href="#m2a5809b570" x="142.697953" y="104.198533" style="fill: #daa520; stroke: #daa520"/>
     <use xlink:href="#m2a5809b570" x="133.475179" y="99.849399" style="fill: #daa520; stroke: #daa520"/>
     <use xlink:href="#m2a5809b570" x="355.17993" y="124.903996" style="fill: #daa520; stroke: #daa520"/>
     <use xlink:href="#m2a5809b570" x="369.028184" y="131.692797" style="fill: #daa520; stroke: #daa520"/>
     <use xlink:href="#m2a5809b570" x="264.978287" y="140.017848" style="fill: #daa520; stroke: #daa520"/>
     <use xlink:href="#m2a5809b570" x="314.709765" y="143.183292" style="fill: #daa520; stroke: #daa520"/>
     <use xlink:href="#m2a5809b570" x="336.562913" y="139.996471" style="fill: #daa520; stroke: #daa520"/>
     <use xlink:href="#m2a5809b570" x="378.755832" y="120.525577" style="fill: #daa520; stroke: #daa520"/>
     <use xlink:href="#m2a5809b570" x="201.24154" y="105.963642" style="fill: #daa520; stroke: #daa520"/>
     <use xlink:href="#m2a5809b570" x="309.621443" y="139.562428" style="fill: #daa520; stroke: #daa520"/>
     <use xlink:href="#m2a5809b570" x="401.629486" y="112.579886" style="fill: #daa520; stroke: #daa520"/>
     <use xlink:href="#m2a5809b570" x="321.280243" y="123.548518" style="fill: #daa520; stroke: #daa520"/>
     <use xlink:href="#m2a5809b570" x="221.871499" y="126.579222" style="fill: #daa520; stroke: #daa520"/>
     <use xlink:href="#m2a5809b570" x="412.864296" y="107.298004" style="fill: #daa520; stroke: #daa520"/>
     <use xlink:href="#m2a5809b570" x="375.556414" y="118.381432" style="fill: #daa520; stroke: #daa520"/>
     <use xlink:href="#m2a5809b570" x="89.587586" y="118.045066" style="fill: #daa520; stroke: #daa520"/>
     <use xlink:href="#m2a5809b570" x="412.910138" y="107.882328" style="fill: #daa520; stroke: #daa520"/>
     <use xlink:href="#m2a5809b570" x="410.758375" y="79.198548" style="fill: #daa520; stroke: #daa520"/>
     <use xlink:href="#m2a5809b570" x="341.294107" y="125.757273" style="fill: #daa520; stroke: #daa520"/>
     <use xlink:href="#m2a5809b570" x="193.582186" y="124.295201" style="fill: #daa520; stroke: #daa520"/>
     <use xlink:href="#m2a5809b570" x="312.514397" y="129.850608" style="fill: #daa520; stroke: #daa520"/>
     <use xlink:href="#m2a5809b570" x="230.500828" y="131.132681" style="fill: #daa520; stroke: #daa520"/>
     <use xlink:href="#m2a5809b570" x="373.612044" y="119.023942" style="fill: #daa520; stroke: #daa520"/>
     <use xlink:href="#m2a5809b570" x="298.225262" y="132.70827" style="fill: #daa520; stroke: #daa520"/>
     <use xlink:href="#m2a5809b570" x="364.693534" y="117.835161" style="fill: #daa520; stroke: #daa520"/>
     <use xlink:href="#m2a5809b570" x="396.136016" y="119.569905" style="fill: #daa520; stroke: #daa520"/>
     <use xlink:href="#m2a5809b570" x="328.304354" y="130.003897" style="fill: #daa520; stroke: #daa520"/>
     <use xlink:href="#m2a5809b570" x="411.766662" y="107.111178" style="fill: #daa520; stroke: #daa520"/>
     <use xlink:href="#m2a5809b570" x="374.195271" y="126.285436" style="fill: #daa520; stroke: #daa520"/>
     <use xlink:href="#m2a5809b570" x="322.532951" y="130.407662" style="fill: #daa520; stroke: #daa520"/>
     <use xlink:href="#m2a5809b570" x="410.900484" y="102.362207" style="fill: #daa520; stroke: #daa520"/>
     <use xlink:href="#m2a5809b570" x="96.40295" y="116.053158" style="fill: #daa520; stroke: #daa520"/>
     <use xlink:href="#m2a5809b570" x="382.780227" y="123.924922" style="fill: #daa520; stroke: #daa520"/>
     <use xlink:href="#m2a5809b570" x="282.430268" y="141.547193" style="fill: #daa520; stroke: #daa520"/>
     <use xlink:href="#m2a5809b570" x="314.364465" y="144.209457" style="fill: #daa520; stroke: #daa520"/>
     <use xlink:href="#m2a5809b570" x="319.023101" y="109.62928" style="fill: #daa520; stroke: #daa520"/>
     <use xlink:href="#m2a5809b570" x="333.920528" y="143.765458" style="fill: #daa520; stroke: #daa520"/>
     <use xlink:href="#m2a5809b570" x="333.919684" y="129.072743" style="fill: #daa520; stroke: #daa520"/>
     <use xlink:href="#m2a5809b570" x="329.690064" y="124.588745" style="fill: #daa520; stroke: #daa520"/>
     <use xlink:href="#m2a5809b570" x="405.538574" y="76.463512" style="fill: #daa520; stroke: #daa520"/>
     <use xlink:href="#m2a5809b570" x="406.171593" y="76.488896" style="fill: #daa520; stroke: #daa520"/>
     <use xlink:href="#m2a5809b570" x="411.613754" y="107.656451" style="fill: #daa520; stroke: #daa520"/>
     <use xlink:href="#m2a5809b570" x="345.994448" y="141.814209" style="fill: #daa520; stroke: #daa520"/>
     <use xlink:href="#m2a5809b570" x="417.994478" y="95.054105" style="fill: #daa520; stroke: #daa520"/>
     <use xlink:href="#m2a5809b570" x="289.58336" y="101.162825" style="fill: #daa520; stroke: #daa520"/>
     <use xlink:href="#m2a5809b570" x="332.82824" y="131.662374" style="fill: #daa520; stroke: #daa520"/>
     <use xlink:href="#m2a5809b570" x="122.960964" y="111.223768" style="fill: #daa520; stroke: #daa520"/>
     <use xlink:href="#m2a5809b570" x="410.061482" y="77.50033" style="fill: #daa520; stroke: #daa520"/>
     <use xlink:href="#m2a5809b570" x="371.624785" y="105.676994" style="fill: #daa520; stroke: #daa520"/>
     <use xlink:href="#m2a5809b570" x="253.509188" y="149.609596" style="fill: #daa520; stroke: #daa520"/>
     <use xlink:href="#m2a5809b570" x="376.694673" y="117.045391" style="fill: #daa520; stroke: #daa520"/>
     <use xlink:href="#m2a5809b570" x="386.80784" y="91.054996" style="fill: #daa520; stroke: #daa520"/>
     <use xlink:href="#m2a5809b570" x="415.37608" y="100.96892" style="fill: #daa520; stroke: #daa520"/>
     <use xlink:href="#m2a5809b570" x="341.238397" y="127.675492" style="fill: #daa520; stroke: #daa520"/>
     <use xlink:href="#m2a5809b570" x="329.883449" y="111.998064" style="fill: #daa520; stroke: #daa520"/>
     <use xlink:href="#m2a5809b570" x="377.157662" y="103.992221" style="fill: #daa520; stroke: #daa520"/>
     <use xlink:href="#m2a5809b570" x="299.761357" y="109.956396" style="fill: #daa520; stroke: #daa520"/>
     <use xlink:href="#m2a5809b570" x="379.364964" y="124.876116" style="fill: #daa520; stroke: #daa520"/>
     <use xlink:href="#m2a5809b570" x="282.714356" y="139.053549" style="fill: #daa520; stroke: #daa520"/>
     <use xlink:href="#m2a5809b570" x="311.60927" y="129.929375" style="fill: #daa520; stroke: #daa520"/>
     <use xlink:href="#m2a5809b570" x="407.283412" y="110.175923" style="fill: #daa520; stroke: #daa520"/>
     <use xlink:href="#m2a5809b570" x="333.276339" y="107.827173" style="fill: #daa520; stroke: #daa520"/>
     <use xlink:href="#m2a5809b570" x="315.15984" y="126.017297" style="fill: #daa520; stroke: #daa520"/>
     <use xlink:href="#m2a5809b570" x="280.95129" y="137.461969" style="fill: #daa520; stroke: #daa520"/>
    </g>
   </g>
   <g id="matplotlib.axis_3"/>
   <g id="matplotlib.axis_4">
    <g id="ytick_1">
     <g id="line2d_3">
      <defs>
       <path id="mca901d8b01" d="M 0 0 
L -3.5 0 
" style="stroke: #696969; stroke-width: 0.8"/>
      </defs>
      <g>
       <use xlink:href="#mca901d8b01" x="53.0525" y="126.249259" style="fill: #696969; stroke: #696969; stroke-width: 0.8"/>
      </g>
     </g>
     <g id="text_1">
      <!-- 0 -->
      <g style="fill: #696969" transform="translate(35.8725 132.328009) scale(0.16 -0.16)">
       <defs>
        <path id="DejaVuSans-30" d="M 2034 4250 
Q 1547 4250 1301 3770 
Q 1056 3291 1056 2328 
Q 1056 1369 1301 889 
Q 1547 409 2034 409 
Q 2525 409 2770 889 
Q 3016 1369 3016 2328 
Q 3016 3291 2770 3770 
Q 2525 4250 2034 4250 
z
M 2034 4750 
Q 2819 4750 3233 4129 
Q 3647 3509 3647 2328 
Q 3647 1150 3233 529 
Q 2819 -91 2034 -91 
Q 1250 -91 836 529 
Q 422 1150 422 2328 
Q 422 3509 836 4129 
Q 1250 4750 2034 4750 
z
" transform="scale(0.015625)"/>
       </defs>
       <use xlink:href="#DejaVuSans-30"/>
      </g>
     </g>
    </g>
    <g id="ytick_2">
     <g id="line2d_4">
      <g>
       <use xlink:href="#mca901d8b01" x="53.0525" y="76.106096" style="fill: #696969; stroke: #696969; stroke-width: 0.8"/>
      </g>
     </g>
     <g id="text_2">
      <!-- 5 -->
      <g style="fill: #696969" transform="translate(35.8725 82.184846) scale(0.16 -0.16)">
       <defs>
        <path id="DejaVuSans-35" d="M 691 4666 
L 3169 4666 
L 3169 4134 
L 1269 4134 
L 1269 2991 
Q 1406 3038 1543 3061 
Q 1681 3084 1819 3084 
Q 2600 3084 3056 2656 
Q 3513 2228 3513 1497 
Q 3513 744 3044 326 
Q 2575 -91 1722 -91 
Q 1428 -91 1123 -41 
Q 819 9 494 109 
L 494 744 
Q 775 591 1075 516 
Q 1375 441 1709 441 
Q 2250 441 2565 725 
Q 2881 1009 2881 1497 
Q 2881 1984 2565 2268 
Q 2250 2553 1709 2553 
Q 1456 2553 1204 2497 
Q 953 2441 691 2322 
L 691 4666 
z
" transform="scale(0.015625)"/>
       </defs>
       <use xlink:href="#DejaVuSans-35"/>
      </g>
     </g>
    </g>
   </g>
   <g id="line2d_5">
    <path d="M 70.462045 103.139353 
L 77.425864 107.301623 
L 84.389682 110.769539 
L 91.3535 112.966441 
L 98.317318 113.542188 
L 105.281136 112.446015 
L 112.244955 109.96901 
L 119.208773 106.737923 
L 126.172591 103.623358 
L 133.136409 101.54228 
L 140.100227 101.194164 
L 147.064045 102.832957 
L 154.027864 106.18737 
L 160.991682 110.575992 
L 167.9555 115.1606 
L 174.919318 119.212845 
L 181.883136 122.28355 
L 188.846955 124.241094 
L 195.810773 125.220179 
L 202.774591 125.540998 
L 209.738409 125.624848 
L 216.702227 125.895269 
L 223.666045 126.657633 
L 230.629864 127.988629 
L 237.593682 129.694968 
L 244.5575 131.379111 
L 251.521318 132.589498 
L 258.485136 132.982259 
L 265.448955 132.42162 
L 272.412773 130.993816 
L 279.376591 128.961145 
L 286.340409 126.699134 
L 293.304227 124.637311 
L 300.268045 123.194321 
L 307.231864 122.692722 
L 314.195682 123.261925 
L 321.1595 124.765484 
L 328.123318 126.795132 
L 335.087136 128.751217 
L 342.050955 129.991125 
L 349.014773 129.995265 
L 355.978591 128.490527 
L 362.942409 125.490033 
L 369.906227 121.247733 
L 376.870045 116.166419 
L 383.833864 110.71247 
L 390.797682 105.369274 
L 397.7615 100.620627 
L 404.725318 96.92847 
L 411.689136 94.677871 
L 418.652955 94.096015 
" clip-path="url(#pcd7d00c0f6)" style="fill: none; stroke: #000000; stroke-width: 2; stroke-linecap: square"/>
   </g>
   <g id="line2d_6">
    <path d="M 70.462045 112.379939 
L 77.425864 111.114664 
L 84.389682 110.384499 
L 91.3535 110.087365 
L 98.317318 110.136282 
L 105.281136 110.457601 
L 112.244955 110.989383 
L 119.208773 111.679921 
L 126.172591 112.486396 
L 133.136409 113.373655 
L 140.100227 114.313117 
L 147.064045 115.281785 
L 154.027864 116.261369 
L 160.991682 117.237501 
L 167.9555 118.199051 
L 174.919318 119.137522 
L 181.883136 120.046526 
L 188.846955 120.921331 
L 195.810773 121.758468 
L 202.774591 122.555404 
L 209.738409 123.31026 
L 216.702227 124.02157 
L 223.666045 124.688082 
L 230.629864 125.308589 
L 237.593682 125.881776 
L 244.5575 126.406089 
L 251.521318 126.879614 
L 258.485136 127.299947 
L 265.448955 127.664077 
L 272.412773 127.968238 
L 279.376591 128.207758 
L 286.340409 128.376869 
L 293.304227 128.468496 
L 300.268045 128.473998 
L 307.231864 128.382864 
L 314.195682 128.182359 
L 321.1595 127.857105 
L 328.123318 127.388599 
L 335.087136 126.75465 
L 342.050955 125.928743 
L 349.014773 124.879308 
L 355.978591 123.568897 
L 362.942409 121.953259 
L 369.906227 119.980302 
L 376.870045 117.588946 
L 383.833864 114.707846 
L 390.797682 111.25399 
L 397.7615 107.131156 
L 404.725318 102.228231 
L 411.689136 96.417371 
L 418.652955 89.552013 
" clip-path="url(#pcd7d00c0f6)" style="fill: none; stroke-dasharray: 7.4,3.2; stroke-dashoffset: 0; stroke: #34b6c6; stroke-width: 2"/>
   </g>
   <g id="line2d_7">
    <path d="M 70.462045 107.799446 
L 77.425864 108.531071 
L 84.389682 110.62467 
L 91.3535 113.011476 
L 98.317318 114.338503 
L 105.281136 114.525041 
L 112.244955 113.48779 
L 119.208773 111.064925 
L 126.172591 108.152453 
L 133.136409 106.440484 
L 140.100227 106.167505 
L 147.064045 106.751448 
L 154.027864 108.105568 
L 160.991682 110.313631 
L 167.9555 113.157512 
L 174.919318 115.967368 
L 181.883136 118.111179 
L 188.846955 119.516632 
L 195.810773 120.460009 
L 202.774591 121.229855 
L 209.738409 122.086412 
L 216.702227 123.323406 
L 223.666045 125.222003 
L 230.629864 127.796071 
L 237.593682 130.566172 
L 244.5575 132.853018 
L 251.521318 134.303059 
L 258.485136 134.934139 
L 265.448955 134.81 
L 272.412773 133.772161 
L 279.376591 131.675055 
L 286.340409 129.052538 
L 293.304227 126.679868 
L 300.268045 124.929291 
L 307.231864 123.960815 
L 314.195682 123.841305 
L 321.1595 124.645673 
L 328.123318 126.365561 
L 335.087136 127.85531 
L 342.050955 128.342824 
L 349.014773 128.112182 
L 355.978591 127.147355 
L 362.942409 124.946608 
L 369.906227 121.342153 
L 376.870045 117.537207 
L 383.833864 113.757538 
L 390.797682 109.233379 
L 397.7615 104.248633 
L 404.725318 100.001553 
L 411.689136 96.616975 
L 418.652955 93.511769 
" clip-path="url(#pcd7d00c0f6)" style="fill: none; stroke-dasharray: 7.4,3.2; stroke-dashoffset: 0; stroke: #9370db; stroke-width: 2"/>
   </g>
   <g id="line2d_8">
    <path d="M 70.462045 101.842398 
L 77.425864 104.001087 
L 84.389682 107.853368 
L 91.3535 111.846178 
L 98.317318 113.983527 
L 105.281136 114.194848 
L 112.244955 112.397293 
L 119.208773 108.381272 
L 126.172591 103.53958 
L 133.136409 100.467162 
L 140.100227 99.546582 
L 147.064045 99.908452 
L 154.027864 101.433246 
L 160.991682 104.257896 
L 167.9555 108.05785 
L 174.919318 111.819658 
L 181.883136 114.585848 
L 188.846955 116.248953 
L 195.810773 117.230731 
L 202.774591 117.970928 
L 209.738409 118.865795 
L 216.702227 120.362232 
L 223.666045 122.887921 
L 230.629864 126.46404 
L 237.593682 130.36167 
L 244.5575 133.54817 
L 251.521318 135.486577 
L 258.485136 136.205129 
L 265.448955 135.802307 
L 272.412773 134.03917 
L 279.376591 130.697026 
L 286.340409 126.591168 
L 293.304227 122.904828 
L 300.268045 120.209295 
L 307.231864 118.754192 
L 314.195682 118.648781 
L 321.1595 120.016071 
L 328.123318 122.854198 
L 335.087136 125.433739 
L 342.050955 126.595795 
L 349.014773 126.790482 
L 355.978591 126.014754 
L 362.942409 123.530638 
L 369.906227 119.112341 
L 376.870045 114.624038 
L 383.833864 110.449051 
L 390.797682 105.46312 
L 397.7615 100.151711 
L 404.725318 96.39908 
L 411.689136 94.466315 
L 418.652955 93.548238 
" clip-path="url(#pcd7d00c0f6)" style="fill: none; stroke-dasharray: 12.8,3.2,2,3.2; stroke-dashoffset: 0; stroke: #ff0000; stroke-width: 2"/>
   </g>
   <g id="patch_4">
    <path d="M 53.0525 165.173592 
L 53.0525 72.239223 
" style="fill: none; stroke: #000000; stroke-width: 0.8; stroke-linejoin: miter; stroke-linecap: square"/>
   </g>
   <g id="patch_5">
    <path d="M 436.0625 165.173592 
L 436.0625 72.239223 
" style="fill: none; stroke: #000000; stroke-width: 0.8; stroke-linejoin: miter; stroke-linecap: square"/>
   </g>
   <g id="patch_6">
    <path d="M 53.0525 165.173592 
L 436.0625 165.173592 
" style="fill: none; stroke: #000000; stroke-width: 0.8; stroke-linejoin: miter; stroke-linecap: square"/>
   </g>
   <g id="patch_7">
    <path d="M 53.0525 72.239223 
L 436.0625 72.239223 
" style="fill: none; stroke: #000000; stroke-width: 0.8; stroke-linejoin: miter; stroke-linecap: square"/>
   </g>
  </g>
  <g id="axes_3">
   <g id="patch_8">
    <path d="M 53.0525 276.68 
L 436.0625 276.68 
L 436.0625 183.74563 
L 53.0525 183.74563 
z
" style="fill: #ffffff"/>
   </g>
   <g id="PathCollection_2">
    <g clip-path="url(#p7d77681888)">
     <use xlink:href="#m2a5809b570" x="318.428743" y="216.400483" style="fill: #daa520; stroke: #daa520"/>
     <use xlink:href="#m2a5809b570" x="311.433614" y="264.294655" style="fill: #daa520; stroke: #daa520"/>
     <use xlink:href="#m2a5809b570" x="338.922248" y="217.526156" style="fill: #daa520; stroke: #daa520"/>
     <use xlink:href="#m2a5809b570" x="276.772271" y="235.958109" style="fill: #daa520; stroke: #daa520"/>
     <use xlink:href="#m2a5809b570" x="329.561574" y="231.070427" style="fill: #daa520; stroke: #daa520"/>
     <use xlink:href="#m2a5809b570" x="371.454904" y="241.89737" style="fill: #daa520; stroke: #daa520"/>
     <use xlink:href="#m2a5809b570" x="264.708957" y="272.45571" style="fill: #daa520; stroke: #daa520"/>
     <use xlink:href="#m2a5809b570" x="409.023415" y="219.566783" style="fill: #daa520; stroke: #daa520"/>
     <use xlink:href="#m2a5809b570" x="106.900609" y="232.601401" style="fill: #daa520; stroke: #daa520"/>
     <use xlink:href="#m2a5809b570" x="409.575362" y="250.371314" style="fill: #daa520; stroke: #daa520"/>
     <use xlink:href="#m2a5809b570" x="350.976761" y="232.684339" style="fill: #daa520; stroke: #daa520"/>
     <use xlink:href="#m2a5809b570" x="353.374925" y="222.076707" style="fill: #daa520; stroke: #daa520"/>
     <use xlink:href="#m2a5809b570" x="280.736306" y="232.686943" style="fill: #daa520; stroke: #daa520"/>
     <use xlink:href="#m2a5809b570" x="275.854909" y="235.245494" style="fill: #daa520; stroke: #daa520"/>
     <use xlink:href="#m2a5809b570" x="335.089265" y="232.308652" style="fill: #daa520; stroke: #daa520"/>
     <use xlink:href="#m2a5809b570" x="195.719321" y="187.96992" style="fill: #daa520; stroke: #daa520"/>
     <use xlink:href="#m2a5809b570" x="95.332077" y="242.044514" style="fill: #daa520; stroke: #daa520"/>
     <use xlink:href="#m2a5809b570" x="100.971593" y="242.557115" style="fill: #daa520; stroke: #daa520"/>
     <use xlink:href="#m2a5809b570" x="343.043207" y="232.1104" style="fill: #daa520; stroke: #daa520"/>
     <use xlink:href="#m2a5809b570" x="389.172418" y="248.612647" style="fill: #daa520; stroke: #daa520"/>
     <use xlink:href="#m2a5809b570" x="277.18903" y="269.220815" style="fill: #daa520; stroke: #daa520"/>
     <use xlink:href="#m2a5809b570" x="381.739621" y="229.625425" style="fill: #daa520; stroke: #daa520"/>
     <use xlink:href="#m2a5809b570" x="372.461241" y="230.61227" style="fill: #daa520; stroke: #daa520"/>
     <use xlink:href="#m2a5809b570" x="270.628826" y="231.169017" style="fill: #daa520; stroke: #daa520"/>
     <use xlink:href="#m2a5809b570" x="143.965237" y="232.107183" style="fill: #daa520; stroke: #daa520"/>
     <use xlink:href="#m2a5809b570" x="356.051232" y="236.640841" style="fill: #daa520; stroke: #daa520"/>
     <use xlink:href="#m2a5809b570" x="329.502651" y="223.679449" style="fill: #daa520; stroke: #daa520"/>
     <use xlink:href="#m2a5809b570" x="388.721983" y="212.097236" style="fill: #daa520; stroke: #daa520"/>
     <use xlink:href="#m2a5809b570" x="399.370375" y="256.490045" style="fill: #daa520; stroke: #daa520"/>
     <use xlink:href="#m2a5809b570" x="231.024048" y="237.130567" style="fill: #daa520; stroke: #daa520"/>
     <use xlink:href="#m2a5809b570" x="396.870986" y="216.451759" style="fill: #daa520; stroke: #daa520"/>
     <use xlink:href="#m2a5809b570" x="75.644626" y="221.067018" style="fill: #daa520; stroke: #daa520"/>
     <use xlink:href="#m2a5809b570" x="150.557991" y="202.320625" style="fill: #daa520; stroke: #daa520"/>
     <use xlink:href="#m2a5809b570" x="193.517294" y="249.928294" style="fill: #daa520; stroke: #daa520"/>
     <use xlink:href="#m2a5809b570" x="265.564023" y="220.887625" style="fill: #daa520; stroke: #daa520"/>
     <use xlink:href="#m2a5809b570" x="410.594746" y="222.259967" style="fill: #daa520; stroke: #daa520"/>
     <use xlink:href="#m2a5809b570" x="127.971331" y="248.010452" style="fill: #daa520; stroke: #daa520"/>
     <use xlink:href="#m2a5809b570" x="142.697953" y="229.005457" style="fill: #daa520; stroke: #daa520"/>
     <use xlink:href="#m2a5809b570" x="133.475179" y="234.440351" style="fill: #daa520; stroke: #daa520"/>
     <use xlink:href="#m2a5809b570" x="355.17993" y="235.213602" style="fill: #daa520; stroke: #daa520"/>
     <use xlink:href="#m2a5809b570" x="369.028184" y="221.310042" style="fill: #daa520; stroke: #daa520"/>
     <use xlink:href="#m2a5809b570" x="264.978287" y="229.524921" style="fill: #daa520; stroke: #daa520"/>
     <use xlink:href="#m2a5809b570" x="314.709765" y="208.172771" style="fill: #daa520; stroke: #daa520"/>
     <use xlink:href="#m2a5809b570" x="336.562913" y="218.963948" style="fill: #daa520; stroke: #daa520"/>
     <use xlink:href="#m2a5809b570" x="378.755832" y="226.522068" style="fill: #daa520; stroke: #daa520"/>
     <use xlink:href="#m2a5809b570" x="201.24154" y="246.319028" style="fill: #daa520; stroke: #daa520"/>
     <use xlink:href="#m2a5809b570" x="309.621443" y="211.835014" style="fill: #daa520; stroke: #daa520"/>
     <use xlink:href="#m2a5809b570" x="401.629486" y="218.37157" style="fill: #daa520; stroke: #daa520"/>
     <use xlink:href="#m2a5809b570" x="321.280243" y="230.213788" style="fill: #daa520; stroke: #daa520"/>
     <use xlink:href="#m2a5809b570" x="221.871499" y="229.205987" style="fill: #daa520; stroke: #daa520"/>
     <use xlink:href="#m2a5809b570" x="412.864296" y="220.19343" style="fill: #daa520; stroke: #daa520"/>
     <use xlink:href="#m2a5809b570" x="375.556414" y="230.766686" style="fill: #daa520; stroke: #daa520"/>
     <use xlink:href="#m2a5809b570" x="89.587586" y="226.452841" style="fill: #daa520; stroke: #daa520"/>
     <use xlink:href="#m2a5809b570" x="412.910138" y="219.572024" style="fill: #daa520; stroke: #daa520"/>
     <use xlink:href="#m2a5809b570" x="410.758375" y="250.104592" style="fill: #daa520; stroke: #daa520"/>
     <use xlink:href="#m2a5809b570" x="341.294107" y="234.687353" style="fill: #daa520; stroke: #daa520"/>
     <use xlink:href="#m2a5809b570" x="193.582186" y="226.183155" style="fill: #daa520; stroke: #daa520"/>
     <use xlink:href="#m2a5809b570" x="312.514397" y="222.015133" style="fill: #daa520; stroke: #daa520"/>
     <use xlink:href="#m2a5809b570" x="230.500828" y="228.904556" style="fill: #daa520; stroke: #daa520"/>
     <use xlink:href="#m2a5809b570" x="373.612044" y="231.368241" style="fill: #daa520; stroke: #daa520"/>
     <use xlink:href="#m2a5809b570" x="298.225262" y="221.463469" style="fill: #daa520; stroke: #daa520"/>
     <use xlink:href="#m2a5809b570" x="364.693534" y="238.838897" style="fill: #daa520; stroke: #daa520"/>
     <use xlink:href="#m2a5809b570" x="396.136016" y="214.712871" style="fill: #daa520; stroke: #daa520"/>
     <use xlink:href="#m2a5809b570" x="328.304354" y="226.46092" style="fill: #daa520; stroke: #daa520"/>
     <use xlink:href="#m2a5809b570" x="411.766662" y="220.591011" style="fill: #daa520; stroke: #daa520"/>
     <use xlink:href="#m2a5809b570" x="374.195271" y="223.354384" style="fill: #daa520; stroke: #daa520"/>
     <use xlink:href="#m2a5809b570" x="322.532951" y="223.460343" style="fill: #daa520; stroke: #daa520"/>
     <use xlink:href="#m2a5809b570" x="410.900484" y="225.753752" style="fill: #daa520; stroke: #daa520"/>
     <use xlink:href="#m2a5809b570" x="96.40295" y="231.308897" style="fill: #daa520; stroke: #daa520"/>
     <use xlink:href="#m2a5809b570" x="382.780227" y="220.431058" style="fill: #daa520; stroke: #daa520"/>
     <use xlink:href="#m2a5809b570" x="282.430268" y="220.613847" style="fill: #daa520; stroke: #daa520"/>
     <use xlink:href="#m2a5809b570" x="314.364465" y="207.060918" style="fill: #daa520; stroke: #daa520"/>
     <use xlink:href="#m2a5809b570" x="319.023101" y="244.165132" style="fill: #daa520; stroke: #daa520"/>
     <use xlink:href="#m2a5809b570" x="333.920528" y="214.289633" style="fill: #daa520; stroke: #daa520"/>
     <use xlink:href="#m2a5809b570" x="333.919684" y="229.715707" style="fill: #daa520; stroke: #daa520"/>
     <use xlink:href="#m2a5809b570" x="329.690064" y="232.784601" style="fill: #daa520; stroke: #daa520"/>
     <use xlink:href="#m2a5809b570" x="405.538574" y="254.49314" style="fill: #daa520; stroke: #daa520"/>
     <use xlink:href="#m2a5809b570" x="406.171593" y="254.235" style="fill: #daa520; stroke: #daa520"/>
     <use xlink:href="#m2a5809b570" x="411.613754" y="220.048508" style="fill: #daa520; stroke: #daa520"/>
     <use xlink:href="#m2a5809b570" x="345.994448" y="218.125084" style="fill: #daa520; stroke: #daa520"/>
     <use xlink:href="#m2a5809b570" x="417.994478" y="232.365248" style="fill: #daa520; stroke: #daa520"/>
     <use xlink:href="#m2a5809b570" x="289.58336" y="258.672968" style="fill: #daa520; stroke: #daa520"/>
     <use xlink:href="#m2a5809b570" x="332.82824" y="226.629975" style="fill: #daa520; stroke: #daa520"/>
     <use xlink:href="#m2a5809b570" x="122.960964" y="228.079318" style="fill: #daa520; stroke: #daa520"/>
     <use xlink:href="#m2a5809b570" x="410.061482" y="252.0446" style="fill: #daa520; stroke: #daa520"/>
     <use xlink:href="#m2a5809b570" x="371.624785" y="246.755656" style="fill: #daa520; stroke: #daa520"/>
     <use xlink:href="#m2a5809b570" x="253.509188" y="219.392055" style="fill: #daa520; stroke: #daa520"/>
     <use xlink:href="#m2a5809b570" x="376.694673" y="231.449665" style="fill: #daa520; stroke: #daa520"/>
     <use xlink:href="#m2a5809b570" x="386.80784" y="252.143459" style="fill: #daa520; stroke: #daa520"/>
     <use xlink:href="#m2a5809b570" x="415.37608" y="226.457698" style="fill: #daa520; stroke: #daa520"/>
     <use xlink:href="#m2a5809b570" x="341.238397" y="232.667344" style="fill: #daa520; stroke: #daa520"/>
     <use xlink:href="#m2a5809b570" x="329.883449" y="246.090257" style="fill: #daa520; stroke: #daa520"/>
     <use xlink:href="#m2a5809b570" x="377.157662" y="244.866083" style="fill: #daa520; stroke: #daa520"/>
     <use xlink:href="#m2a5809b570" x="299.761357" y="244.811537" style="fill: #daa520; stroke: #daa520"/>
     <use xlink:href="#m2a5809b570" x="379.364964" y="221.580208" style="fill: #daa520; stroke: #daa520"/>
     <use xlink:href="#m2a5809b570" x="282.714356" y="223.053936" style="fill: #daa520; stroke: #daa520"/>
     <use xlink:href="#m2a5809b570" x="311.60927" y="221.910841" style="fill: #daa520; stroke: #daa520"/>
     <use xlink:href="#m2a5809b570" x="407.283412" y="218.494515" style="fill: #daa520; stroke: #daa520"/>
     <use xlink:href="#m2a5809b570" x="333.276339" y="251.810971" style="fill: #daa520; stroke: #daa520"/>
     <use xlink:href="#m2a5809b570" x="315.15984" y="226.246468" style="fill: #daa520; stroke: #daa520"/>
     <use xlink:href="#m2a5809b570" x="280.95129" y="225.82362" style="fill: #daa520; stroke: #daa520"/>
    </g>
   </g>
   <g id="matplotlib.axis_5">
    <g id="xtick_1">
     <g id="line2d_9">
      <defs>
       <path id="m6efbd45e93" d="M 0 0 
L 0 3.5 
" style="stroke: #696969; stroke-width: 0.8"/>
      </defs>
      <g>
       <use xlink:href="#m6efbd45e93" x="70.462045" y="276.68" style="fill: #696969; stroke: #696969; stroke-width: 0.8"/>
      </g>
     </g>
     <g id="text_3">
      <!-- −1.0 -->
      <g style="fill: #696969" transform="translate(51.035795 295.8375) scale(0.16 -0.16)">
       <defs>
        <path id="DejaVuSans-2212" d="M 678 2272 
L 4684 2272 
L 4684 1741 
L 678 1741 
L 678 2272 
z
" transform="scale(0.015625)"/>
        <path id="DejaVuSans-31" d="M 794 531 
L 1825 531 
L 1825 4091 
L 703 3866 
L 703 4441 
L 1819 4666 
L 2450 4666 
L 2450 531 
L 3481 531 
L 3481 0 
L 794 0 
L 794 531 
z
" transform="scale(0.015625)"/>
        <path id="DejaVuSans-2e" d="M 684 794 
L 1344 794 
L 1344 0 
L 684 0 
L 684 794 
z
" transform="scale(0.015625)"/>
       </defs>
       <use xlink:href="#DejaVuSans-2212"/>
       <use xlink:href="#DejaVuSans-31" x="83.789062"/>
       <use xlink:href="#DejaVuSans-2e" x="147.412109"/>
       <use xlink:href="#DejaVuSans-30" x="179.199219"/>
      </g>
     </g>
    </g>
    <g id="xtick_2">
     <g id="line2d_10">
      <g>
       <use xlink:href="#m6efbd45e93" x="157.509773" y="276.68" style="fill: #696969; stroke: #696969; stroke-width: 0.8"/>
      </g>
     </g>
     <g id="text_4">
      <!-- −0.5 -->
      <g style="fill: #696969" transform="translate(138.083523 295.8375) scale(0.16 -0.16)">
       <use xlink:href="#DejaVuSans-2212"/>
       <use xlink:href="#DejaVuSans-30" x="83.789062"/>
       <use xlink:href="#DejaVuSans-2e" x="147.412109"/>
       <use xlink:href="#DejaVuSans-35" x="179.199219"/>
      </g>
     </g>
    </g>
    <g id="xtick_3">
     <g id="line2d_11">
      <g>
       <use xlink:href="#m6efbd45e93" x="244.5575" y="276.68" style="fill: #696969; stroke: #696969; stroke-width: 0.8"/>
      </g>
     </g>
     <g id="text_5">
      <!-- 0.0 -->
      <g style="fill: #696969" transform="translate(231.835 295.8375) scale(0.16 -0.16)">
       <use xlink:href="#DejaVuSans-30"/>
       <use xlink:href="#DejaVuSans-2e" x="63.623047"/>
       <use xlink:href="#DejaVuSans-30" x="95.410156"/>
      </g>
     </g>
    </g>
    <g id="xtick_4">
     <g id="line2d_12">
      <g>
       <use xlink:href="#m6efbd45e93" x="331.605227" y="276.68" style="fill: #696969; stroke: #696969; stroke-width: 0.8"/>
      </g>
     </g>
     <g id="text_6">
      <!-- 0.5 -->
      <g style="fill: #696969" transform="translate(318.882727 295.8375) scale(0.16 -0.16)">
       <use xlink:href="#DejaVuSans-30"/>
       <use xlink:href="#DejaVuSans-2e" x="63.623047"/>
       <use xlink:href="#DejaVuSans-35" x="95.410156"/>
      </g>
     </g>
    </g>
    <g id="xtick_5">
     <g id="line2d_13">
      <g>
       <use xlink:href="#m6efbd45e93" x="418.652955" y="276.68" style="fill: #696969; stroke: #696969; stroke-width: 0.8"/>
      </g>
     </g>
     <g id="text_7">
      <!-- 1.0 -->
      <g style="fill: #696969" transform="translate(405.930455 295.8375) scale(0.16 -0.16)">
       <use xlink:href="#DejaVuSans-31"/>
       <use xlink:href="#DejaVuSans-2e" x="63.623047"/>
       <use xlink:href="#DejaVuSans-30" x="95.410156"/>
      </g>
     </g>
    </g>
    <g id="text_8">
     <!-- $X$ -->
     <g transform="translate(239.0375 315.3225) scale(0.16 -0.16)">
      <defs>
       <path id="DejaVuSans-Oblique-58" d="M 878 4666 
L 1516 4666 
L 2316 2981 
L 3763 4666 
L 4500 4666 
L 2578 2438 
L 3738 0 
L 3103 0 
L 2163 1966 
L 459 0 
L -275 0 
L 1906 2509 
L 878 4666 
z
" transform="scale(0.015625)"/>
      </defs>
      <use xlink:href="#DejaVuSans-Oblique-58" transform="translate(0 0.09375)"/>
     </g>
    </g>
   </g>
   <g id="matplotlib.axis_6">
    <g id="ytick_3">
     <g id="line2d_14">
      <g>
       <use xlink:href="#mca901d8b01" x="53.0525" y="260.205831" style="fill: #696969; stroke: #696969; stroke-width: 0.8"/>
      </g>
     </g>
     <g id="text_9">
      <!-- −2.5 -->
      <g style="fill: #696969" transform="translate(7.2 266.284581) scale(0.16 -0.16)">
       <defs>
        <path id="DejaVuSans-32" d="M 1228 531 
L 3431 531 
L 3431 0 
L 469 0 
L 469 531 
Q 828 903 1448 1529 
Q 2069 2156 2228 2338 
Q 2531 2678 2651 2914 
Q 2772 3150 2772 3378 
Q 2772 3750 2511 3984 
Q 2250 4219 1831 4219 
Q 1534 4219 1204 4116 
Q 875 4013 500 3803 
L 500 4441 
Q 881 4594 1212 4672 
Q 1544 4750 1819 4750 
Q 2544 4750 2975 4387 
Q 3406 4025 3406 3419 
Q 3406 3131 3298 2873 
Q 3191 2616 2906 2266 
Q 2828 2175 2409 1742 
Q 1991 1309 1228 531 
z
" transform="scale(0.015625)"/>
       </defs>
       <use xlink:href="#DejaVuSans-2212"/>
       <use xlink:href="#DejaVuSans-32" x="83.789062"/>
       <use xlink:href="#DejaVuSans-2e" x="147.412109"/>
       <use xlink:href="#DejaVuSans-35" x="179.199219"/>
      </g>
     </g>
    </g>
    <g id="ytick_4">
     <g id="line2d_15">
      <g>
       <use xlink:href="#mca901d8b01" x="53.0525" y="233.882394" style="fill: #696969; stroke: #696969; stroke-width: 0.8"/>
      </g>
     </g>
     <g id="text_10">
      <!-- 0.0 -->
      <g style="fill: #696969" transform="translate(20.6075 239.961144) scale(0.16 -0.16)">
       <use xlink:href="#DejaVuSans-30"/>
       <use xlink:href="#DejaVuSans-2e" x="63.623047"/>
       <use xlink:href="#DejaVuSans-30" x="95.410156"/>
      </g>
     </g>
    </g>
    <g id="ytick_5">
     <g id="line2d_16">
      <g>
       <use xlink:href="#mca901d8b01" x="53.0525" y="207.558957" style="fill: #696969; stroke: #696969; stroke-width: 0.8"/>
      </g>
     </g>
     <g id="text_11">
      <!-- 2.5 -->
      <g style="fill: #696969" transform="translate(20.6075 213.637707) scale(0.16 -0.16)">
       <use xlink:href="#DejaVuSans-32"/>
       <use xlink:href="#DejaVuSans-2e" x="63.623047"/>
       <use xlink:href="#DejaVuSans-35" x="95.410156"/>
      </g>
     </g>
    </g>
   </g>
   <g id="line2d_17">
    <path d="M 70.462045 232.520681 
L 77.425864 230.417058 
L 84.389682 230.820615 
L 91.3535 232.706195 
L 98.317318 234.34577 
L 105.281136 235.718549 
L 112.244955 236.431924 
L 119.208773 235.607798 
L 126.172591 233.794434 
L 133.136409 232.753594 
L 140.100227 232.152546 
L 147.064045 230.811864 
L 154.027864 228.890891 
L 160.991682 227.248828 
L 167.9555 226.424995 
L 174.919318 226.120056 
L 181.883136 225.800336 
L 188.846955 225.491195 
L 195.810773 225.494023 
L 202.774591 225.934341 
L 209.738409 226.785854 
L 216.702227 228.073086 
L 223.666045 229.924456 
L 230.629864 232.281682 
L 237.593682 234.582385 
L 244.5575 236.159756 
L 251.521318 236.924128 
L 258.485136 237.266186 
L 265.448955 237.431884 
L 272.412773 237.079806 
L 279.376591 235.704949 
L 286.340409 233.769037 
L 293.304227 232.063406 
L 300.268045 230.748322 
L 307.231864 229.747208 
L 314.195682 229.038911 
L 321.1595 228.895838 
L 328.123318 229.744685 
L 335.087136 230.39927 
L 342.050955 230.317531 
L 349.014773 230.517593 
L 355.978591 231.283003 
L 362.942409 231.825164 
L 369.906227 231.640379 
L 376.870045 232.263 
L 383.833864 233.605822 
L 390.797682 233.980927 
L 397.7615 233.390064 
L 404.725318 233.326572 
L 411.689136 233.660275 
L 418.652955 233.307266 
" clip-path="url(#p7d77681888)" style="fill: none; stroke: #696969; stroke-width: 2; stroke-linecap: square"/>
   </g>
   <g id="line2d_18">
    <path d="M 70.462045 230.132554 
L 77.425864 230.538952 
L 84.389682 230.841391 
L 91.3535 231.059983 
L 98.317318 231.211885 
L 105.281136 231.311605 
L 112.244955 231.371297 
L 119.208773 231.401028 
L 126.172591 231.409031 
L 133.136409 231.401932 
L 140.100227 231.384969 
L 147.064045 231.362177 
L 154.027864 231.336574 
L 160.991682 231.310318 
L 167.9555 231.284856 
L 174.919318 231.261051 
L 181.883136 231.239304 
L 188.846955 231.219657 
L 195.810773 231.201882 
L 202.774591 231.185567 
L 209.738409 231.170178 
L 216.702227 231.155128 
L 223.666045 231.139816 
L 230.629864 231.123678 
L 237.593682 231.106215 
L 244.5575 231.087021 
L 251.521318 231.065806 
L 258.485136 231.042407 
L 265.448955 231.016799 
L 272.412773 230.989102 
L 279.376591 230.959584 
L 286.340409 230.928662 
L 293.304227 230.896898 
L 300.268045 230.864998 
L 307.231864 230.833811 
L 314.195682 230.804325 
L 321.1595 230.777669 
L 328.123318 230.75511 
L 335.087136 230.738062 
L 342.050955 230.728094 
L 349.014773 230.726938 
L 355.978591 230.736511 
L 362.942409 230.758935 
L 369.906227 230.796573 
L 376.870045 230.852058 
L 383.833864 230.928346 
L 390.797682 231.028769 
L 397.7615 231.157095 
L 404.725318 231.317612 
L 411.689136 231.515204 
L 418.652955 231.755456 
" clip-path="url(#p7d77681888)" style="fill: none; stroke-dasharray: 7.4,3.2; stroke-dashoffset: 0; stroke: #79ad41; stroke-width: 2"/>
   </g>
   <g id="patch_9">
    <path d="M 53.0525 276.68 
L 53.0525 183.74563 
" style="fill: none; stroke: #000000; stroke-width: 0.8; stroke-linejoin: miter; stroke-linecap: square"/>
   </g>
   <g id="patch_10">
    <path d="M 436.0625 276.68 
L 436.0625 183.74563 
" style="fill: none; stroke: #000000; stroke-width: 0.8; stroke-linejoin: miter; stroke-linecap: square"/>
   </g>
   <g id="patch_11">
    <path d="M 53.0525 276.68 
L 436.0625 276.68 
" style="fill: none; stroke: #000000; stroke-width: 0.8; stroke-linejoin: miter; stroke-linecap: square"/>
   </g>
   <g id="patch_12">
    <path d="M 53.0525 183.74563 
L 436.0625 183.74563 
" style="fill: none; stroke: #000000; stroke-width: 0.8; stroke-linejoin: miter; stroke-linecap: square"/>
   </g>
  </g>
 </g>
 <defs>
  <clipPath id="p18b40988d4">
   <rect x="53.0525" y="7.2" width="383.01" height="46.467185"/>
  </clipPath>
  <clipPath id="pcd7d00c0f6">
   <rect x="53.0525" y="72.239223" width="383.01" height="92.93437"/>
  </clipPath>
  <clipPath id="p7d77681888">
   <rect x="53.0525" y="183.74563" width="383.01" height="92.93437"/>
  </clipPath>
 </defs>
</svg>
