<?xml version="1.0" encoding="utf-8" standalone="no"?>
<!DOCTYPE svg PUBLIC "-//W3C//DTD SVG 1.1//EN"
  "http://www.w3.org/Graphics/SVG/1.1/DTD/svg11.dtd">
<svg xmlns:xlink="http://www.w3.org/1999/xlink" width="443.2075pt" height="325.85pt" viewBox="0 0 443.2075 325.85" xmlns="http://www.w3.org/2000/svg" version="1.1">
 <metadata>
  <rdf:RDF xmlns:dc="http://purl.org/dc/elements/1.1/" xmlns:cc="http://creativecommons.org/ns#" xmlns:rdf="http://www.w3.org/1999/02/22-rdf-syntax-ns#">
   <cc:Work>
    <dc:type rdf:resource="http://purl.org/dc/dcmitype/StillImage"/>
    <dc:date>2024-01-28T20:58:30.173857</dc:date>
    <dc:format>image/svg+xml</dc:format>
    <dc:creator>
     <cc:Agent>
      <dc:title>Matplotlib v3.7.2, https://matplotlib.org/</dc:title>
     </cc:Agent>
    </dc:creator>
   </cc:Work>
  </rdf:RDF>
 </metadata>
 <defs>
  <style type="text/css">*{stroke-linejoin: round; stroke-linecap: butt}</style>
 </defs>
 <g id="figure_1">
  <g id="patch_1">
   <path d="M 0 325.85 
L 443.2075 325.85 
L 443.2075 0 
L 0 0 
z
" style="fill: #ffffff"/>
  </g>
  <g id="axes_1">
   <g id="patch_2">
    <path d="M 37.7875 51.847632 
L 436.0075 51.847632 
L 436.0075 7.2 
L 37.7875 7.2 
z
" style="fill: #ffffff"/>
   </g>
   <g id="PolyCollection_1">
    <defs>
     <path id="m6ae441e836" d="M 55.888409 -276.031805 
L 55.888409 -286.564039 
L 63.128773 -286.603503 
L 70.369136 -286.632825 
L 77.6095 -286.651446 
L 84.849864 -286.659077 
L 92.090227 -286.655773 
L 99.330591 -286.641976 
L 106.570955 -286.61856 
L 113.811318 -286.586849 
L 121.051682 -286.548645 
L 128.292045 -286.506212 
L 135.532409 -286.462289 
L 142.772773 -286.420054 
L 150.013136 -286.383111 
L 157.2535 -286.355435 
L 164.493864 -286.341382 
L 171.734227 -286.345628 
L 178.974591 -286.373176 
L 186.214955 -286.429348 
L 193.455318 -286.51979 
L 200.695682 -286.650502 
L 207.936045 -286.827855 
L 215.176409 -287.058648 
L 222.416773 -287.350123 
L 229.657136 -287.709984 
L 236.8975 -288.146378 
L 244.137864 -288.667816 
L 251.378227 -289.282994 
L 258.618591 -290.000531 
L 265.858955 -290.828496 
L 273.099318 -291.773827 
L 280.339682 -292.841505 
L 287.580045 -294.033593 
L 294.820409 -295.348174 
L 302.060773 -296.778318 
L 309.301136 -298.311258 
L 316.5415 -299.928054 
L 323.781864 -301.603855 
L 331.022227 -303.309018 
L 338.262591 -305.010957 
L 345.502955 -306.676585 
L 352.743318 -308.274915 
L 359.983682 -309.779453 
L 367.224045 -311.169896 
L 374.464409 -312.432999 
L 381.704773 -313.562527 
L 388.945136 -314.558474 
L 396.1855 -315.425826 
L 403.425864 -316.173132 
L 410.666227 -316.620562 
L 417.906591 -316.620562 
L 417.906591 -276.031805 
L 417.906591 -276.031805 
L 410.666227 -276.031805 
L 403.425864 -276.031805 
L 396.1855 -276.031805 
L 388.945136 -276.031805 
L 381.704773 -276.031805 
L 374.464409 -276.031805 
L 367.224045 -276.031805 
L 359.983682 -276.031805 
L 352.743318 -276.031805 
L 345.502955 -276.031805 
L 338.262591 -276.031805 
L 331.022227 -276.031805 
L 323.781864 -276.031805 
L 316.5415 -276.031805 
L 309.301136 -276.031805 
L 302.060773 -276.031805 
L 294.820409 -276.031805 
L 287.580045 -276.031805 
L 280.339682 -276.031805 
L 273.099318 -276.031805 
L 265.858955 -276.031805 
L 258.618591 -276.031805 
L 251.378227 -276.031805 
L 244.137864 -276.031805 
L 236.8975 -276.031805 
L 229.657136 -276.031805 
L 222.416773 -276.031805 
L 215.176409 -276.031805 
L 207.936045 -276.031805 
L 200.695682 -276.031805 
L 193.455318 -276.031805 
L 186.214955 -276.031805 
L 178.974591 -276.031805 
L 171.734227 -276.031805 
L 164.493864 -276.031805 
L 157.2535 -276.031805 
L 150.013136 -276.031805 
L 142.772773 -276.031805 
L 135.532409 -276.031805 
L 128.292045 -276.031805 
L 121.051682 -276.031805 
L 113.811318 -276.031805 
L 106.570955 -276.031805 
L 99.330591 -276.031805 
L 92.090227 -276.031805 
L 84.849864 -276.031805 
L 77.6095 -276.031805 
L 70.369136 -276.031805 
L 63.128773 -276.031805 
L 55.888409 -276.031805 
z
" style="stroke: #dc143c; stroke-opacity: 0.2"/>
    </defs>
    <g clip-path="url(#p2ca7dcc9d8)">
     <use xlink:href="#m6ae441e836" x="0" y="325.85" style="fill: #dc143c; fill-opacity: 0.2; stroke: #dc143c; stroke-opacity: 0.2"/>
    </g>
   </g>
   <g id="PolyCollection_2">
    <defs>
     <path id="m4e08e93cf8" d="M 55.888409 -276.031805 
L 55.888409 -310.598191 
L 63.128773 -310.558727 
L 70.369136 -310.529404 
L 77.6095 -310.510784 
L 84.849864 -310.503152 
L 92.090227 -310.506456 
L 99.330591 -310.520254 
L 106.570955 -310.543669 
L 113.811318 -310.57538 
L 121.051682 -310.613585 
L 128.292045 -310.656017 
L 135.532409 -310.69994 
L 142.772773 -310.742175 
L 150.013136 -310.779118 
L 157.2535 -310.806794 
L 164.493864 -310.820847 
L 171.734227 -310.816602 
L 178.974591 -310.789054 
L 186.214955 -310.732881 
L 193.455318 -310.642439 
L 200.695682 -310.511728 
L 207.936045 -310.334375 
L 215.176409 -310.103582 
L 222.416773 -309.812107 
L 229.657136 -309.452246 
L 236.8975 -309.015852 
L 244.137864 -308.494414 
L 251.378227 -307.879236 
L 258.618591 -307.161699 
L 265.858955 -306.333733 
L 273.099318 -305.388402 
L 280.339682 -304.320725 
L 287.580045 -303.128636 
L 294.820409 -301.814056 
L 302.060773 -300.383911 
L 309.301136 -298.850972 
L 316.5415 -297.234176 
L 323.781864 -295.558374 
L 331.022227 -293.853212 
L 338.262591 -292.151273 
L 345.502955 -290.485644 
L 352.743318 -288.887315 
L 359.983682 -287.382777 
L 367.224045 -285.992334 
L 374.464409 -284.72923 
L 381.704773 -283.599702 
L 388.945136 -282.603756 
L 396.1855 -281.736403 
L 403.425864 -280.989098 
L 410.666227 -280.541667 
L 417.906591 -280.541667 
L 417.906591 -276.031805 
L 417.906591 -276.031805 
L 410.666227 -276.031805 
L 403.425864 -276.031805 
L 396.1855 -276.031805 
L 388.945136 -276.031805 
L 381.704773 -276.031805 
L 374.464409 -276.031805 
L 367.224045 -276.031805 
L 359.983682 -276.031805 
L 352.743318 -276.031805 
L 345.502955 -276.031805 
L 338.262591 -276.031805 
L 331.022227 -276.031805 
L 323.781864 -276.031805 
L 316.5415 -276.031805 
L 309.301136 -276.031805 
L 302.060773 -276.031805 
L 294.820409 -276.031805 
L 287.580045 -276.031805 
L 280.339682 -276.031805 
L 273.099318 -276.031805 
L 265.858955 -276.031805 
L 258.618591 -276.031805 
L 251.378227 -276.031805 
L 244.137864 -276.031805 
L 236.8975 -276.031805 
L 229.657136 -276.031805 
L 222.416773 -276.031805 
L 215.176409 -276.031805 
L 207.936045 -276.031805 
L 200.695682 -276.031805 
L 193.455318 -276.031805 
L 186.214955 -276.031805 
L 178.974591 -276.031805 
L 171.734227 -276.031805 
L 164.493864 -276.031805 
L 157.2535 -276.031805 
L 150.013136 -276.031805 
L 142.772773 -276.031805 
L 135.532409 -276.031805 
L 128.292045 -276.031805 
L 121.051682 -276.031805 
L 113.811318 -276.031805 
L 106.570955 -276.031805 
L 99.330591 -276.031805 
L 92.090227 -276.031805 
L 84.849864 -276.031805 
L 77.6095 -276.031805 
L 70.369136 -276.031805 
L 63.128773 -276.031805 
L 55.888409 -276.031805 
z
" style="stroke: #000080; stroke-opacity: 0.2"/>
    </defs>
    <g clip-path="url(#p2ca7dcc9d8)">
     <use xlink:href="#m4e08e93cf8" x="0" y="325.85" style="fill: #000080; fill-opacity: 0.2; stroke: #000080; stroke-opacity: 0.2"/>
    </g>
   </g>
   <g id="matplotlib.axis_1"/>
   <g id="matplotlib.axis_2"/>
   <g id="line2d_1">
    <path d="M 55.888409 39.285961 
L 63.128773 39.246497 
L 70.369136 39.217175 
L 77.6095 39.198554 
L 84.849864 39.190923 
L 92.090227 39.194227 
L 99.330591 39.208024 
L 106.570955 39.23144 
L 113.811318 39.263151 
L 121.051682 39.301355 
L 128.292045 39.343788 
L 135.532409 39.387711 
L 142.772773 39.429946 
L 150.013136 39.466889 
L 157.2535 39.494565 
L 164.493864 39.508618 
L 171.734227 39.504372 
L 178.974591 39.476824 
L 186.214955 39.420652 
L 193.455318 39.33021 
L 200.695682 39.199498 
L 207.936045 39.022145 
L 215.176409 38.791352 
L 222.416773 38.499877 
L 229.657136 38.140016 
L 236.8975 37.703622 
L 244.137864 37.182184 
L 251.378227 36.567006 
L 258.618591 35.849469 
L 265.858955 35.021504 
L 273.099318 34.076173 
L 280.339682 33.008495 
L 287.580045 31.816407 
L 294.820409 30.501826 
L 302.060773 29.071682 
L 309.301136 27.538742 
L 316.5415 25.921946 
L 323.781864 24.246145 
L 331.022227 22.540982 
L 338.262591 20.839043 
L 345.502955 19.173415 
L 352.743318 17.575085 
L 359.983682 16.070547 
L 367.224045 14.680104 
L 374.464409 13.417001 
L 381.704773 12.287473 
L 388.945136 11.291526 
L 396.1855 10.424174 
L 403.425864 9.676868 
L 410.666227 9.229438 
L 417.906591 9.229438 
" clip-path="url(#p2ca7dcc9d8)" style="fill: none; stroke: #dc143c; stroke-width: 1.5; stroke-linecap: square"/>
   </g>
   <g id="line2d_2">
    <path d="M 55.888409 15.251809 
L 63.128773 15.291273 
L 70.369136 15.320596 
L 77.6095 15.339216 
L 84.849864 15.346848 
L 92.090227 15.343544 
L 99.330591 15.329746 
L 106.570955 15.306331 
L 113.811318 15.27462 
L 121.051682 15.236415 
L 128.292045 15.193983 
L 135.532409 15.15006 
L 142.772773 15.107825 
L 150.013136 15.070882 
L 157.2535 15.043206 
L 164.493864 15.029153 
L 171.734227 15.033398 
L 178.974591 15.060946 
L 186.214955 15.117119 
L 193.455318 15.207561 
L 200.695682 15.338272 
L 207.936045 15.515625 
L 215.176409 15.746418 
L 222.416773 16.037893 
L 229.657136 16.397754 
L 236.8975 16.834148 
L 244.137864 17.355586 
L 251.378227 17.970764 
L 258.618591 18.688301 
L 265.858955 19.516267 
L 273.099318 20.461598 
L 280.339682 21.529275 
L 287.580045 22.721364 
L 294.820409 24.035944 
L 302.060773 25.466089 
L 309.301136 26.999028 
L 316.5415 28.615824 
L 323.781864 30.291626 
L 331.022227 31.996788 
L 338.262591 33.698727 
L 345.502955 35.364356 
L 352.743318 36.962685 
L 359.983682 38.467223 
L 367.224045 39.857666 
L 374.464409 41.12077 
L 381.704773 42.250298 
L 388.945136 43.246244 
L 396.1855 44.113597 
L 403.425864 44.860902 
L 410.666227 45.308333 
L 417.906591 45.308333 
" clip-path="url(#p2ca7dcc9d8)" style="fill: none; stroke: #000080; stroke-width: 1.5; stroke-linecap: square"/>
   </g>
  </g>
  <g id="axes_2">
   <g id="patch_3">
    <path d="M 37.7875 164.263816 
L 436.0075 164.263816 
L 436.0075 74.968551 
L 37.7875 74.968551 
z
" style="fill: #ffffff"/>
   </g>
   <g id="PathCollection_1">
    <defs>
     <path id="m96899c1036" d="M 0 0.866025 
C 0.229673 0.866025 0.449969 0.774776 0.612372 0.612372 
C 0.774776 0.449969 0.866025 0.229673 0.866025 0 
C 0.866025 -0.229673 0.774776 -0.449969 0.612372 -0.612372 
C 0.449969 -0.774776 0.229673 -0.866025 0 -0.866025 
C -0.229673 -0.866025 -0.449969 -0.774776 -0.612372 -0.612372 
C -0.774776 -0.449969 -0.866025 -0.229673 -0.866025 0 
C -0.866025 0.229673 -0.774776 0.449969 -0.612372 0.612372 
C -0.449969 0.774776 -0.229673 0.866025 0 0.866025 
z
" style="stroke: #daa520"/>
    </defs>
    <g clip-path="url(#p4efc907885)">
     <use xlink:href="#m96899c1036" x="395.215765" y="142.993274" style="fill: #daa520; stroke: #daa520"/>
     <use xlink:href="#m96899c1036" x="302.442542" y="148.360979" style="fill: #daa520; stroke: #daa520"/>
     <use xlink:href="#m96899c1036" x="153.61823" y="134.614475" style="fill: #daa520; stroke: #daa520"/>
     <use xlink:href="#m96899c1036" x="387.040395" y="150.902315" style="fill: #daa520; stroke: #daa520"/>
     <use xlink:href="#m96899c1036" x="290.808081" y="136.482269" style="fill: #daa520; stroke: #daa520"/>
     <use xlink:href="#m96899c1036" x="373.465968" y="151.728685" style="fill: #daa520; stroke: #daa520"/>
     <use xlink:href="#m96899c1036" x="341.802321" y="157.794366" style="fill: #daa520; stroke: #daa520"/>
     <use xlink:href="#m96899c1036" x="139.497352" y="137.7479" style="fill: #daa520; stroke: #daa520"/>
     <use xlink:href="#m96899c1036" x="315.598268" y="156.588351" style="fill: #daa520; stroke: #daa520"/>
     <use xlink:href="#m96899c1036" x="368.333355" y="145.974189" style="fill: #daa520; stroke: #daa520"/>
     <use xlink:href="#m96899c1036" x="173.889276" y="124.87073" style="fill: #daa520; stroke: #daa520"/>
     <use xlink:href="#m96899c1036" x="146.40948" y="125.542412" style="fill: #daa520; stroke: #daa520"/>
     <use xlink:href="#m96899c1036" x="114.979247" y="143.86283" style="fill: #daa520; stroke: #daa520"/>
     <use xlink:href="#m96899c1036" x="209.488837" y="117.994692" style="fill: #daa520; stroke: #daa520"/>
     <use xlink:href="#m96899c1036" x="413.725719" y="151.930085" style="fill: #daa520; stroke: #daa520"/>
     <use xlink:href="#m96899c1036" x="377.680961" y="128.120575" style="fill: #daa520; stroke: #daa520"/>
     <use xlink:href="#m96899c1036" x="236.704342" y="150.340941" style="fill: #daa520; stroke: #daa520"/>
     <use xlink:href="#m96899c1036" x="339.666539" y="151.954441" style="fill: #daa520; stroke: #daa520"/>
     <use xlink:href="#m96899c1036" x="376.922434" y="150.155495" style="fill: #daa520; stroke: #daa520"/>
     <use xlink:href="#m96899c1036" x="371.631275" y="149.395903" style="fill: #daa520; stroke: #daa520"/>
     <use xlink:href="#m96899c1036" x="300.970617" y="130.884044" style="fill: #daa520; stroke: #daa520"/>
     <use xlink:href="#m96899c1036" x="144.598266" y="99.962396" style="fill: #daa520; stroke: #daa520"/>
     <use xlink:href="#m96899c1036" x="414.460276" y="127.046019" style="fill: #daa520; stroke: #daa520"/>
     <use xlink:href="#m96899c1036" x="131.286062" y="139.20095" style="fill: #daa520; stroke: #daa520"/>
     <use xlink:href="#m96899c1036" x="416.948044" y="133.506353" style="fill: #daa520; stroke: #daa520"/>
     <use xlink:href="#m96899c1036" x="403.593905" y="146.32168" style="fill: #daa520; stroke: #daa520"/>
     <use xlink:href="#m96899c1036" x="150.150025" y="140.092956" style="fill: #daa520; stroke: #daa520"/>
     <use xlink:href="#m96899c1036" x="344.22429" y="153.43161" style="fill: #daa520; stroke: #daa520"/>
     <use xlink:href="#m96899c1036" x="170.754858" y="111.170271" style="fill: #daa520; stroke: #daa520"/>
     <use xlink:href="#m96899c1036" x="135.246855" y="140.530462" style="fill: #daa520; stroke: #daa520"/>
     <use xlink:href="#m96899c1036" x="408.241769" y="151.273761" style="fill: #daa520; stroke: #daa520"/>
     <use xlink:href="#m96899c1036" x="320.288249" y="150.906412" style="fill: #daa520; stroke: #daa520"/>
     <use xlink:href="#m96899c1036" x="325.096781" y="150.857606" style="fill: #daa520; stroke: #daa520"/>
     <use xlink:href="#m96899c1036" x="402.263901" y="126.827305" style="fill: #daa520; stroke: #daa520"/>
     <use xlink:href="#m96899c1036" x="355.855966" y="133.859681" style="fill: #daa520; stroke: #daa520"/>
     <use xlink:href="#m96899c1036" x="208.752575" y="111.626874" style="fill: #daa520; stroke: #daa520"/>
     <use xlink:href="#m96899c1036" x="355.068986" y="137.695643" style="fill: #daa520; stroke: #daa520"/>
     <use xlink:href="#m96899c1036" x="318.07738" y="154.129737" style="fill: #daa520; stroke: #daa520"/>
     <use xlink:href="#m96899c1036" x="356.090095" y="138.817591" style="fill: #daa520; stroke: #daa520"/>
     <use xlink:href="#m96899c1036" x="81.423821" y="79.027427" style="fill: #daa520; stroke: #daa520"/>
     <use xlink:href="#m96899c1036" x="238.803938" y="134.581757" style="fill: #daa520; stroke: #daa520"/>
     <use xlink:href="#m96899c1036" x="321.285791" y="155.939792" style="fill: #daa520; stroke: #daa520"/>
     <use xlink:href="#m96899c1036" x="276.94937" y="124.763662" style="fill: #daa520; stroke: #daa520"/>
     <use xlink:href="#m96899c1036" x="357.701487" y="149.517759" style="fill: #daa520; stroke: #daa520"/>
     <use xlink:href="#m96899c1036" x="396.169145" y="150.108013" style="fill: #daa520; stroke: #daa520"/>
     <use xlink:href="#m96899c1036" x="412.014879" y="125.885037" style="fill: #daa520; stroke: #daa520"/>
     <use xlink:href="#m96899c1036" x="352.784143" y="151.390288" style="fill: #daa520; stroke: #daa520"/>
     <use xlink:href="#m96899c1036" x="412.81174" y="124.259284" style="fill: #daa520; stroke: #daa520"/>
     <use xlink:href="#m96899c1036" x="365.5658" y="153.863775" style="fill: #daa520; stroke: #daa520"/>
     <use xlink:href="#m96899c1036" x="219.229637" y="142.760701" style="fill: #daa520; stroke: #daa520"/>
     <use xlink:href="#m96899c1036" x="359.197549" y="157.801025" style="fill: #daa520; stroke: #daa520"/>
     <use xlink:href="#m96899c1036" x="315.449818" y="149.330049" style="fill: #daa520; stroke: #daa520"/>
     <use xlink:href="#m96899c1036" x="292.841727" y="135.539508" style="fill: #daa520; stroke: #daa520"/>
     <use xlink:href="#m96899c1036" x="397.853296" y="149.675648" style="fill: #daa520; stroke: #daa520"/>
     <use xlink:href="#m96899c1036" x="353.245349" y="151.51569" style="fill: #daa520; stroke: #daa520"/>
     <use xlink:href="#m96899c1036" x="403.295805" y="153.313919" style="fill: #daa520; stroke: #daa520"/>
     <use xlink:href="#m96899c1036" x="409.094172" y="149.72676" style="fill: #daa520; stroke: #daa520"/>
     <use xlink:href="#m96899c1036" x="315.49875" y="151.141114" style="fill: #daa520; stroke: #daa520"/>
     <use xlink:href="#m96899c1036" x="415.960845" y="140.685418" style="fill: #daa520; stroke: #daa520"/>
     <use xlink:href="#m96899c1036" x="376.57517" y="131.657997" style="fill: #daa520; stroke: #daa520"/>
     <use xlink:href="#m96899c1036" x="392.255132" y="150.23035" style="fill: #daa520; stroke: #daa520"/>
     <use xlink:href="#m96899c1036" x="381.234467" y="133.693296" style="fill: #daa520; stroke: #daa520"/>
     <use xlink:href="#m96899c1036" x="306.259298" y="141.342913" style="fill: #daa520; stroke: #daa520"/>
     <use xlink:href="#m96899c1036" x="376.497723" y="147.538513" style="fill: #daa520; stroke: #daa520"/>
     <use xlink:href="#m96899c1036" x="354.636775" y="150.361102" style="fill: #daa520; stroke: #daa520"/>
     <use xlink:href="#m96899c1036" x="236.282969" y="136.278485" style="fill: #daa520; stroke: #daa520"/>
     <use xlink:href="#m96899c1036" x="401.848249" y="147.620125" style="fill: #daa520; stroke: #daa520"/>
     <use xlink:href="#m96899c1036" x="414.883609" y="126.432066" style="fill: #daa520; stroke: #daa520"/>
     <use xlink:href="#m96899c1036" x="269.710173" y="137.499783" style="fill: #daa520; stroke: #daa520"/>
     <use xlink:href="#m96899c1036" x="215.346409" y="143.885477" style="fill: #daa520; stroke: #daa520"/>
     <use xlink:href="#m96899c1036" x="106.410165" y="80.315255" style="fill: #daa520; stroke: #daa520"/>
     <use xlink:href="#m96899c1036" x="102.069259" y="146.50765" style="fill: #daa520; stroke: #daa520"/>
     <use xlink:href="#m96899c1036" x="71.630443" y="104.714589" style="fill: #daa520; stroke: #daa520"/>
     <use xlink:href="#m96899c1036" x="146.236271" y="100.297383" style="fill: #daa520; stroke: #daa520"/>
     <use xlink:href="#m96899c1036" x="177.9162" y="143.841347" style="fill: #daa520; stroke: #daa520"/>
     <use xlink:href="#m96899c1036" x="262.849685" y="129.797521" style="fill: #daa520; stroke: #daa520"/>
     <use xlink:href="#m96899c1036" x="316.106862" y="155.760838" style="fill: #daa520; stroke: #daa520"/>
     <use xlink:href="#m96899c1036" x="109.831426" y="95.949525" style="fill: #daa520; stroke: #daa520"/>
     <use xlink:href="#m96899c1036" x="275.80044" y="133.811411" style="fill: #daa520; stroke: #daa520"/>
     <use xlink:href="#m96899c1036" x="236.75087" y="120.030753" style="fill: #daa520; stroke: #daa520"/>
     <use xlink:href="#m96899c1036" x="324.696766" y="143.821662" style="fill: #daa520; stroke: #daa520"/>
     <use xlink:href="#m96899c1036" x="206.287662" y="107.945844" style="fill: #daa520; stroke: #daa520"/>
     <use xlink:href="#m96899c1036" x="374.665863" y="152.020911" style="fill: #daa520; stroke: #daa520"/>
     <use xlink:href="#m96899c1036" x="381.600034" y="152.289043" style="fill: #daa520; stroke: #daa520"/>
     <use xlink:href="#m96899c1036" x="381.500302" y="151.717355" style="fill: #daa520; stroke: #daa520"/>
     <use xlink:href="#m96899c1036" x="339.603224" y="151.34865" style="fill: #daa520; stroke: #daa520"/>
     <use xlink:href="#m96899c1036" x="409.733569" y="127.75744" style="fill: #daa520; stroke: #daa520"/>
     <use xlink:href="#m96899c1036" x="348.711316" y="160.204941" style="fill: #daa520; stroke: #daa520"/>
     <use xlink:href="#m96899c1036" x="93.281622" y="140.052042" style="fill: #daa520; stroke: #daa520"/>
     <use xlink:href="#m96899c1036" x="273.207578" y="134.242587" style="fill: #daa520; stroke: #daa520"/>
     <use xlink:href="#m96899c1036" x="377.799911" y="150.139015" style="fill: #daa520; stroke: #daa520"/>
     <use xlink:href="#m96899c1036" x="157.745515" y="108.454511" style="fill: #daa520; stroke: #daa520"/>
     <use xlink:href="#m96899c1036" x="414.077916" y="154.120963" style="fill: #daa520; stroke: #daa520"/>
    </g>
   </g>
   <g id="matplotlib.axis_3"/>
   <g id="matplotlib.axis_4">
    <g id="ytick_1">
     <g id="line2d_3">
      <defs>
       <path id="m7e0f9df4bf" d="M 0 0 
L -3.5 0 
" style="stroke: #696969; stroke-width: 0.8"/>
      </defs>
      <g>
       <use xlink:href="#m7e0f9df4bf" x="37.7875" y="157.344025" style="fill: #696969; stroke: #696969; stroke-width: 0.8"/>
      </g>
     </g>
     <g id="text_1">
      <!-- −5 -->
      <g style="fill: #696969" transform="translate(7.2 163.422775) scale(0.16 -0.16)">
       <defs>
        <path id="DejaVuSans-2212" d="M 678 2272 
L 4684 2272 
L 4684 1741 
L 678 1741 
L 678 2272 
z
" transform="scale(0.015625)"/>
        <path id="DejaVuSans-35" d="M 691 4666 
L 3169 4666 
L 3169 4134 
L 1269 4134 
L 1269 2991 
Q 1406 3038 1543 3061 
Q 1681 3084 1819 3084 
Q 2600 3084 3056 2656 
Q 3513 2228 3513 1497 
Q 3513 744 3044 326 
Q 2575 -91 1722 -91 
Q 1428 -91 1123 -41 
Q 819 9 494 109 
L 494 744 
Q 775 591 1075 516 
Q 1375 441 1709 441 
Q 2250 441 2565 725 
Q 2881 1009 2881 1497 
Q 2881 1984 2565 2268 
Q 2250 2553 1709 2553 
Q 1456 2553 1204 2497 
Q 953 2441 691 2322 
L 691 4666 
z
" transform="scale(0.015625)"/>
       </defs>
       <use xlink:href="#DejaVuSans-2212"/>
       <use xlink:href="#DejaVuSans-35" x="83.789062"/>
      </g>
     </g>
    </g>
    <g id="ytick_2">
     <g id="line2d_4">
      <g>
       <use xlink:href="#m7e0f9df4bf" x="37.7875" y="129.188487" style="fill: #696969; stroke: #696969; stroke-width: 0.8"/>
      </g>
     </g>
     <g id="text_2">
      <!-- 0 -->
      <g style="fill: #696969" transform="translate(20.6075 135.267237) scale(0.16 -0.16)">
       <defs>
        <path id="DejaVuSans-30" d="M 2034 4250 
Q 1547 4250 1301 3770 
Q 1056 3291 1056 2328 
Q 1056 1369 1301 889 
Q 1547 409 2034 409 
Q 2525 409 2770 889 
Q 3016 1369 3016 2328 
Q 3016 3291 2770 3770 
Q 2525 4250 2034 4250 
z
M 2034 4750 
Q 2819 4750 3233 4129 
Q 3647 3509 3647 2328 
Q 3647 1150 3233 529 
Q 2819 -91 2034 -91 
Q 1250 -91 836 529 
Q 422 1150 422 2328 
Q 422 3509 836 4129 
Q 1250 4750 2034 4750 
z
" transform="scale(0.015625)"/>
       </defs>
       <use xlink:href="#DejaVuSans-30"/>
      </g>
     </g>
    </g>
    <g id="ytick_3">
     <g id="line2d_5">
      <g>
       <use xlink:href="#m7e0f9df4bf" x="37.7875" y="101.032948" style="fill: #696969; stroke: #696969; stroke-width: 0.8"/>
      </g>
     </g>
     <g id="text_3">
      <!-- 5 -->
      <g style="fill: #696969" transform="translate(20.6075 107.111698) scale(0.16 -0.16)">
       <use xlink:href="#DejaVuSans-35"/>
      </g>
     </g>
    </g>
   </g>
   <g id="line2d_6">
    <path d="M 55.888409 107.36967 
L 63.128773 108.272679 
L 70.369136 109.733836 
L 77.6095 111.724312 
L 84.849864 114.079392 
L 92.090227 116.558619 
L 99.330591 118.916157 
L 106.570955 120.953833 
L 113.811318 122.553217 
L 121.051682 123.695306 
L 128.292045 124.470087 
L 135.532409 125.065682 
L 142.772773 125.724622 
L 150.013136 126.66891 
L 157.2535 128.017321 
L 164.493864 129.731693 
L 171.734227 131.622601 
L 178.974591 133.419243 
L 186.214955 134.876056 
L 193.455318 135.867187 
L 200.695682 136.423364 
L 207.936045 136.694549 
L 215.176409 136.86085 
L 222.416773 137.040459 
L 229.657136 137.240993 
L 236.8975 137.372871 
L 244.137864 137.310299 
L 251.378227 136.967715 
L 258.618591 136.362403 
L 265.858955 135.645988 
L 273.099318 135.095335 
L 280.339682 135.056058 
L 287.580045 135.840605 
L 294.820409 137.605042 
L 302.060773 140.253216 
L 309.301136 143.421078 
L 316.5415 146.564197 
L 323.781864 149.120702 
L 331.022227 150.682643 
L 338.262591 151.106393 
L 345.502955 150.52582 
L 352.743318 149.276179 
L 359.983682 147.76722 
L 367.224045 146.352951 
L 374.464409 145.239039 
L 381.704773 144.454552 
L 388.945136 143.894483 
L 396.1855 143.41379 
L 403.425864 142.930554 
L 410.666227 142.488347 
L 417.906591 142.244752 
" clip-path="url(#p4efc907885)" style="fill: none; stroke: #000000; stroke-width: 2; stroke-linecap: square"/>
   </g>
   <g id="line2d_7">
    <path d="M 55.888409 93.967387 
L 63.128773 98.767751 
L 70.369136 102.969995 
L 77.6095 106.630103 
L 84.849864 109.801614 
L 92.090227 112.535618 
L 99.330591 114.880763 
L 106.570955 116.883247 
L 113.811318 118.586824 
L 121.051682 120.032804 
L 128.292045 121.260047 
L 135.532409 122.30497 
L 142.772773 123.201544 
L 150.013136 123.981291 
L 157.2535 124.67329 
L 164.493864 125.304173 
L 171.734227 125.898127 
L 178.974591 126.476892 
L 186.214955 127.059761 
L 193.455318 127.663584 
L 200.695682 128.302763 
L 207.936045 128.989253 
L 215.176409 129.732565 
L 222.416773 130.539764 
L 229.657136 131.415469 
L 236.8975 132.36185 
L 244.137864 133.378636 
L 251.378227 134.463106 
L 258.618591 135.610095 
L 265.858955 136.811992 
L 273.099318 138.058739 
L 280.339682 139.337833 
L 287.580045 140.634324 
L 294.820409 141.930817 
L 302.060773 143.207472 
L 309.301136 144.442 
L 316.5415 145.609668 
L 323.781864 146.683297 
L 331.022227 147.633263 
L 338.262591 148.427493 
L 345.502955 149.031471 
L 352.743318 149.408234 
L 359.983682 149.518372 
L 367.224045 149.320031 
L 374.464409 148.768909 
L 381.704773 147.81826 
L 388.945136 146.418891 
L 396.1855 144.519162 
L 403.425864 142.06499 
L 410.666227 138.999842 
L 417.906591 135.264742 
" clip-path="url(#p4efc907885)" style="fill: none; stroke-dasharray: 7.4,3.2; stroke-dashoffset: 0; stroke: #34b6c6; stroke-width: 2"/>
   </g>
   <g id="line2d_8">
    <path d="M 55.888409 101.233046 
L 63.128773 102.291635 
L 70.369136 103.741337 
L 77.6095 105.75486 
L 84.849864 108.296334 
L 92.090227 111.150673 
L 99.330591 114.203367 
L 106.570955 117.010018 
L 113.811318 118.856729 
L 121.051682 119.800511 
L 128.292045 120.325892 
L 135.532409 120.792351 
L 142.772773 121.407292 
L 150.013136 122.284599 
L 157.2535 123.465721 
L 164.493864 125.000514 
L 171.734227 127.040437 
L 178.974591 129.504618 
L 186.214955 131.704637 
L 193.455318 133.128484 
L 200.695682 133.904256 
L 207.936045 134.316234 
L 215.176409 134.540922 
L 222.416773 134.658408 
L 229.657136 134.699451 
L 236.8975 134.674662 
L 244.137864 134.592888 
L 251.378227 134.475257 
L 258.618591 134.361108 
L 265.858955 134.300132 
L 273.099318 134.341357 
L 280.339682 134.544441 
L 287.580045 135.036648 
L 294.820409 136.136813 
L 302.060773 138.519439 
L 309.301136 142.971941 
L 316.5415 147.843552 
L 323.781864 150.583225 
L 331.022227 151.65521 
L 338.262591 151.935713 
L 345.502955 151.707525 
L 352.743318 150.838582 
L 359.983682 149.126788 
L 367.224045 147.132013 
L 374.464409 145.648827 
L 381.704773 144.564311 
L 388.945136 143.585761 
L 396.1855 142.60069 
L 403.425864 141.575312 
L 410.666227 140.487719 
L 417.906591 139.313993 
" clip-path="url(#p4efc907885)" style="fill: none; stroke-dasharray: 7.4,3.2; stroke-dashoffset: 0; stroke: #9370db; stroke-width: 2"/>
   </g>
   <g id="line2d_9">
    <path d="M 55.888409 107.294683 
L 63.128773 108.177737 
L 70.369136 109.450633 
L 77.6095 111.259433 
L 84.849864 113.565962 
L 92.090227 116.173803 
L 99.330591 118.975915 
L 106.570955 121.573663 
L 113.811318 123.330262 
L 121.051682 124.291574 
L 128.292045 124.882188 
L 135.532409 125.416389 
L 142.772773 126.074239 
L 150.013136 126.953392 
L 157.2535 128.087766 
L 164.493864 129.519085 
L 171.734227 131.379357 
L 178.974591 133.595341 
L 186.214955 135.556456 
L 193.455318 136.808625 
L 200.695682 137.464642 
L 207.936045 137.775901 
L 215.176409 137.898773 
L 222.416773 137.904664 
L 229.657136 137.82169 
L 236.8975 137.660499 
L 244.137864 137.430546 
L 251.378227 137.15252 
L 258.618591 136.863591 
L 265.858955 136.610461 
L 273.099318 136.439609 
L 280.339682 136.407287 
L 287.580045 136.629948 
L 294.820409 137.393956 
L 302.060773 139.30082 
L 309.301136 143.052344 
L 316.5415 147.19283 
L 323.781864 149.470172 
L 331.022227 150.301262 
L 338.262591 150.467951 
L 345.502955 150.227264 
L 352.743318 149.469435 
L 359.983682 148.023081 
L 367.224045 146.391549 
L 374.464409 145.28627 
L 381.704773 144.615885 
L 388.945136 144.130283 
L 396.1855 143.73922 
L 403.425864 143.422469 
L 410.666227 143.170682 
L 417.906591 142.973097 
" clip-path="url(#p4efc907885)" style="fill: none; stroke-dasharray: 12.8,3.2,2,3.2; stroke-dashoffset: 0; stroke: #ff0000; stroke-width: 2"/>
   </g>
   <g id="patch_4">
    <path d="M 37.7875 164.263816 
L 37.7875 74.968551 
" style="fill: none; stroke: #000000; stroke-width: 0.8; stroke-linejoin: miter; stroke-linecap: square"/>
   </g>
   <g id="patch_5">
    <path d="M 436.0075 164.263816 
L 436.0075 74.968551 
" style="fill: none; stroke: #000000; stroke-width: 0.8; stroke-linejoin: miter; stroke-linecap: square"/>
   </g>
   <g id="patch_6">
    <path d="M 37.7875 164.263816 
L 436.0075 164.263816 
" style="fill: none; stroke: #000000; stroke-width: 0.8; stroke-linejoin: miter; stroke-linecap: square"/>
   </g>
   <g id="patch_7">
    <path d="M 37.7875 74.968551 
L 436.0075 74.968551 
" style="fill: none; stroke: #000000; stroke-width: 0.8; stroke-linejoin: miter; stroke-linecap: square"/>
   </g>
  </g>
  <g id="axes_3">
   <g id="patch_8">
    <path d="M 37.7875 276.68 
L 436.0075 276.68 
L 436.0075 187.384735 
L 37.7875 187.384735 
z
" style="fill: #ffffff"/>
   </g>
   <g id="PathCollection_2">
    <g clip-path="url(#p6fedacdeea)">
     <use xlink:href="#m96899c1036" x="395.215765" y="224.155441" style="fill: #daa520; stroke: #daa520"/>
     <use xlink:href="#m96899c1036" x="302.442542" y="212.517159" style="fill: #daa520; stroke: #daa520"/>
     <use xlink:href="#m96899c1036" x="153.61823" y="214.654321" style="fill: #daa520; stroke: #daa520"/>
     <use xlink:href="#m96899c1036" x="387.040395" y="215.222647" style="fill: #daa520; stroke: #daa520"/>
     <use xlink:href="#m96899c1036" x="290.808081" y="223.676478" style="fill: #daa520; stroke: #daa520"/>
     <use xlink:href="#m96899c1036" x="373.465968" y="215.620653" style="fill: #daa520; stroke: #daa520"/>
     <use xlink:href="#m96899c1036" x="341.802321" y="214.33759" style="fill: #daa520; stroke: #daa520"/>
     <use xlink:href="#m96899c1036" x="139.497352" y="208.819583" style="fill: #daa520; stroke: #daa520"/>
     <use xlink:href="#m96899c1036" x="315.598268" y="211.395743" style="fill: #daa520; stroke: #daa520"/>
     <use xlink:href="#m96899c1036" x="368.333355" y="223.453103" style="fill: #daa520; stroke: #daa520"/>
     <use xlink:href="#m96899c1036" x="173.889276" y="231.778026" style="fill: #daa520; stroke: #daa520"/>
     <use xlink:href="#m96899c1036" x="146.40948" y="224.333696" style="fill: #daa520; stroke: #daa520"/>
     <use xlink:href="#m96899c1036" x="114.979247" y="198.818238" style="fill: #daa520; stroke: #daa520"/>
     <use xlink:href="#m96899c1036" x="209.488837" y="246.97192" style="fill: #daa520; stroke: #daa520"/>
     <use xlink:href="#m96899c1036" x="413.725719" y="212.59187" style="fill: #daa520; stroke: #daa520"/>
     <use xlink:href="#m96899c1036" x="377.680961" y="243.38992" style="fill: #daa520; stroke: #daa520"/>
     <use xlink:href="#m96899c1036" x="236.704342" y="208.003269" style="fill: #daa520; stroke: #daa520"/>
     <use xlink:href="#m96899c1036" x="339.666539" y="221.402211" style="fill: #daa520; stroke: #daa520"/>
     <use xlink:href="#m96899c1036" x="376.922434" y="217.052124" style="fill: #daa520; stroke: #daa520"/>
     <use xlink:href="#m96899c1036" x="371.631275" y="218.710462" style="fill: #daa520; stroke: #daa520"/>
     <use xlink:href="#m96899c1036" x="300.970617" y="232.823676" style="fill: #daa520; stroke: #daa520"/>
     <use xlink:href="#m96899c1036" x="144.598266" y="254.755235" style="fill: #daa520; stroke: #daa520"/>
     <use xlink:href="#m96899c1036" x="414.460276" y="242.408998" style="fill: #daa520; stroke: #daa520"/>
     <use xlink:href="#m96899c1036" x="131.286062" y="206.290358" style="fill: #daa520; stroke: #daa520"/>
     <use xlink:href="#m96899c1036" x="416.948044" y="234.584267" style="fill: #daa520; stroke: #daa520"/>
     <use xlink:href="#m96899c1036" x="403.593905" y="219.718895" style="fill: #daa520; stroke: #daa520"/>
     <use xlink:href="#m96899c1036" x="150.150025" y="207.469221" style="fill: #daa520; stroke: #daa520"/>
     <use xlink:href="#m96899c1036" x="344.22429" y="219.44882" style="fill: #daa520; stroke: #daa520"/>
     <use xlink:href="#m96899c1036" x="170.754858" y="247.102834" style="fill: #daa520; stroke: #daa520"/>
     <use xlink:href="#m96899c1036" x="135.246855" y="205.051516" style="fill: #daa520; stroke: #daa520"/>
     <use xlink:href="#m96899c1036" x="408.241769" y="213.579391" style="fill: #daa520; stroke: #daa520"/>
     <use xlink:href="#m96899c1036" x="320.288249" y="220.456754" style="fill: #daa520; stroke: #daa520"/>
     <use xlink:href="#m96899c1036" x="325.096781" y="221.813634" style="fill: #daa520; stroke: #daa520"/>
     <use xlink:href="#m96899c1036" x="402.263901" y="243.160035" style="fill: #daa520; stroke: #daa520"/>
     <use xlink:href="#m96899c1036" x="355.855966" y="241.270805" style="fill: #daa520; stroke: #daa520"/>
     <use xlink:href="#m96899c1036" x="208.752575" y="254.587385" style="fill: #daa520; stroke: #daa520"/>
     <use xlink:href="#m96899c1036" x="355.068986" y="236.851027" style="fill: #daa520; stroke: #daa520"/>
     <use xlink:href="#m96899c1036" x="318.07738" y="215.668757" style="fill: #daa520; stroke: #daa520"/>
     <use xlink:href="#m96899c1036" x="356.090095" y="235.269656" style="fill: #daa520; stroke: #daa520"/>
     <use xlink:href="#m96899c1036" x="81.423821" y="263.254391" style="fill: #daa520; stroke: #daa520"/>
     <use xlink:href="#m96899c1036" x="238.803938" y="226.830284" style="fill: #daa520; stroke: #daa520"/>
     <use xlink:href="#m96899c1036" x="321.285791" y="214.762862" style="fill: #daa520; stroke: #daa520"/>
     <use xlink:href="#m96899c1036" x="276.94937" y="237.158119" style="fill: #daa520; stroke: #daa520"/>
     <use xlink:href="#m96899c1036" x="357.701487" y="222.033816" style="fill: #daa520; stroke: #daa520"/>
     <use xlink:href="#m96899c1036" x="396.169145" y="215.566932" style="fill: #daa520; stroke: #daa520"/>
     <use xlink:href="#m96899c1036" x="412.014879" y="243.88401" style="fill: #daa520; stroke: #daa520"/>
     <use xlink:href="#m96899c1036" x="352.784143" y="220.892526" style="fill: #daa520; stroke: #daa520"/>
     <use xlink:href="#m96899c1036" x="412.81174" y="245.805911" style="fill: #daa520; stroke: #daa520"/>
     <use xlink:href="#m96899c1036" x="365.5658" y="214.650359" style="fill: #daa520; stroke: #daa520"/>
     <use xlink:href="#m96899c1036" x="219.229637" y="217.391359" style="fill: #daa520; stroke: #daa520"/>
     <use xlink:href="#m96899c1036" x="359.197549" y="211.69717" style="fill: #daa520; stroke: #daa520"/>
     <use xlink:href="#m96899c1036" x="315.449818" y="220.010935" style="fill: #daa520; stroke: #daa520"/>
     <use xlink:href="#m96899c1036" x="292.841727" y="225.079713" style="fill: #daa520; stroke: #daa520"/>
     <use xlink:href="#m96899c1036" x="397.853296" y="215.989485" style="fill: #daa520; stroke: #daa520"/>
     <use xlink:href="#m96899c1036" x="353.245349" y="220.65571" style="fill: #daa520; stroke: #daa520"/>
     <use xlink:href="#m96899c1036" x="403.295805" y="211.347666" style="fill: #daa520; stroke: #daa520"/>
     <use xlink:href="#m96899c1036" x="409.094172" y="215.400945" style="fill: #daa520; stroke: #daa520"/>
     <use xlink:href="#m96899c1036" x="315.49875" y="217.868553" style="fill: #daa520; stroke: #daa520"/>
     <use xlink:href="#m96899c1036" x="415.960845" y="226.004989" style="fill: #daa520; stroke: #daa520"/>
     <use xlink:href="#m96899c1036" x="376.57517" y="239.275626" style="fill: #daa520; stroke: #daa520"/>
     <use xlink:href="#m96899c1036" x="392.255132" y="215.661972" style="fill: #daa520; stroke: #daa520"/>
     <use xlink:href="#m96899c1036" x="381.234467" y="236.34541" style="fill: #daa520; stroke: #daa520"/>
     <use xlink:href="#m96899c1036" x="306.259298" y="223.102866" style="fill: #daa520; stroke: #daa520"/>
     <use xlink:href="#m96899c1036" x="376.497723" y="220.240809" style="fill: #daa520; stroke: #daa520"/>
     <use xlink:href="#m96899c1036" x="354.636775" y="221.757161" style="fill: #daa520; stroke: #daa520"/>
     <use xlink:href="#m96899c1036" x="236.282969" y="224.88066" style="fill: #daa520; stroke: #daa520"/>
     <use xlink:href="#m96899c1036" x="401.848249" y="218.245357" style="fill: #daa520; stroke: #daa520"/>
     <use xlink:href="#m96899c1036" x="414.883609" y="243.131617" style="fill: #daa520; stroke: #daa520"/>
     <use xlink:href="#m96899c1036" x="269.710173" y="222.012167" style="fill: #daa520; stroke: #daa520"/>
     <use xlink:href="#m96899c1036" x="215.346409" y="216.025756" style="fill: #daa520; stroke: #daa520"/>
     <use xlink:href="#m96899c1036" x="106.410165" y="272.621124" style="fill: #daa520; stroke: #daa520"/>
     <use xlink:href="#m96899c1036" x="102.069259" y="191.443611" style="fill: #daa520; stroke: #daa520"/>
     <use xlink:href="#m96899c1036" x="71.630443" y="229.211872" style="fill: #daa520; stroke: #daa520"/>
     <use xlink:href="#m96899c1036" x="146.236271" y="254.582715" style="fill: #daa520; stroke: #daa520"/>
     <use xlink:href="#m96899c1036" x="177.9162" y="210.525369" style="fill: #daa520; stroke: #daa520"/>
     <use xlink:href="#m96899c1036" x="262.849685" y="231.491001" style="fill: #daa520; stroke: #daa520"/>
     <use xlink:href="#m96899c1036" x="316.106862" y="212.685058" style="fill: #daa520; stroke: #daa520"/>
     <use xlink:href="#m96899c1036" x="109.831426" y="255.024694" style="fill: #daa520; stroke: #daa520"/>
     <use xlink:href="#m96899c1036" x="275.80044" y="226.316477" style="fill: #daa520; stroke: #daa520"/>
     <use xlink:href="#m96899c1036" x="236.75087" y="244.350095" style="fill: #daa520; stroke: #daa520"/>
     <use xlink:href="#m96899c1036" x="324.696766" y="230.173383" style="fill: #daa520; stroke: #daa520"/>
     <use xlink:href="#m96899c1036" x="206.287662" y="258.915661" style="fill: #daa520; stroke: #daa520"/>
     <use xlink:href="#m96899c1036" x="374.665863" y="215.099636" style="fill: #daa520; stroke: #daa520"/>
     <use xlink:href="#m96899c1036" x="381.600034" y="214.011356" style="fill: #daa520; stroke: #daa520"/>
     <use xlink:href="#m96899c1036" x="381.500302" y="214.706104" style="fill: #daa520; stroke: #daa520"/>
     <use xlink:href="#m96899c1036" x="339.603224" y="222.129891" style="fill: #daa520; stroke: #daa520"/>
     <use xlink:href="#m96899c1036" x="409.733569" y="241.72221" style="fill: #daa520; stroke: #daa520"/>
     <use xlink:href="#m96899c1036" x="348.711316" y="210.930473" style="fill: #daa520; stroke: #daa520"/>
     <use xlink:href="#m96899c1036" x="93.281622" y="195.109068" style="fill: #daa520; stroke: #daa520"/>
     <use xlink:href="#m96899c1036" x="273.207578" y="225.836187" style="fill: #daa520; stroke: #daa520"/>
     <use xlink:href="#m96899c1036" x="377.799911" y="216.971896" style="fill: #daa520; stroke: #daa520"/>
     <use xlink:href="#m96899c1036" x="157.745515" y="246.85209" style="fill: #daa520; stroke: #daa520"/>
     <use xlink:href="#m96899c1036" x="414.077916" y="209.952894" style="fill: #daa520; stroke: #daa520"/>
    </g>
   </g>
   <g id="matplotlib.axis_5">
    <g id="xtick_1">
     <g id="line2d_10">
      <defs>
       <path id="ma289d961a1" d="M 0 0 
L 0 3.5 
" style="stroke: #696969; stroke-width: 0.8"/>
      </defs>
      <g>
       <use xlink:href="#ma289d961a1" x="55.888409" y="276.68" style="fill: #696969; stroke: #696969; stroke-width: 0.8"/>
      </g>
     </g>
     <g id="text_4">
      <!-- −1.0 -->
      <g style="fill: #696969" transform="translate(36.462159 295.8375) scale(0.16 -0.16)">
       <defs>
        <path id="DejaVuSans-31" d="M 794 531 
L 1825 531 
L 1825 4091 
L 703 3866 
L 703 4441 
L 1819 4666 
L 2450 4666 
L 2450 531 
L 3481 531 
L 3481 0 
L 794 0 
L 794 531 
z
" transform="scale(0.015625)"/>
        <path id="DejaVuSans-2e" d="M 684 794 
L 1344 794 
L 1344 0 
L 684 0 
L 684 794 
z
" transform="scale(0.015625)"/>
       </defs>
       <use xlink:href="#DejaVuSans-2212"/>
       <use xlink:href="#DejaVuSans-31" x="83.789062"/>
       <use xlink:href="#DejaVuSans-2e" x="147.412109"/>
       <use xlink:href="#DejaVuSans-30" x="179.199219"/>
      </g>
     </g>
    </g>
    <g id="xtick_2">
     <g id="line2d_11">
      <g>
       <use xlink:href="#ma289d961a1" x="146.392955" y="276.68" style="fill: #696969; stroke: #696969; stroke-width: 0.8"/>
      </g>
     </g>
     <g id="text_5">
      <!-- −0.5 -->
      <g style="fill: #696969" transform="translate(126.966705 295.8375) scale(0.16 -0.16)">
       <use xlink:href="#DejaVuSans-2212"/>
       <use xlink:href="#DejaVuSans-30" x="83.789062"/>
       <use xlink:href="#DejaVuSans-2e" x="147.412109"/>
       <use xlink:href="#DejaVuSans-35" x="179.199219"/>
      </g>
     </g>
    </g>
    <g id="xtick_3">
     <g id="line2d_12">
      <g>
       <use xlink:href="#ma289d961a1" x="236.8975" y="276.68" style="fill: #696969; stroke: #696969; stroke-width: 0.8"/>
      </g>
     </g>
     <g id="text_6">
      <!-- 0.0 -->
      <g style="fill: #696969" transform="translate(224.175 295.8375) scale(0.16 -0.16)">
       <use xlink:href="#DejaVuSans-30"/>
       <use xlink:href="#DejaVuSans-2e" x="63.623047"/>
       <use xlink:href="#DejaVuSans-30" x="95.410156"/>
      </g>
     </g>
    </g>
    <g id="xtick_4">
     <g id="line2d_13">
      <g>
       <use xlink:href="#ma289d961a1" x="327.402045" y="276.68" style="fill: #696969; stroke: #696969; stroke-width: 0.8"/>
      </g>
     </g>
     <g id="text_7">
      <!-- 0.5 -->
      <g style="fill: #696969" transform="translate(314.679545 295.8375) scale(0.16 -0.16)">
       <use xlink:href="#DejaVuSans-30"/>
       <use xlink:href="#DejaVuSans-2e" x="63.623047"/>
       <use xlink:href="#DejaVuSans-35" x="95.410156"/>
      </g>
     </g>
    </g>
    <g id="xtick_5">
     <g id="line2d_14">
      <g>
       <use xlink:href="#ma289d961a1" x="417.906591" y="276.68" style="fill: #696969; stroke: #696969; stroke-width: 0.8"/>
      </g>
     </g>
     <g id="text_8">
      <!-- 1.0 -->
      <g style="fill: #696969" transform="translate(405.184091 295.8375) scale(0.16 -0.16)">
       <use xlink:href="#DejaVuSans-31"/>
       <use xlink:href="#DejaVuSans-2e" x="63.623047"/>
       <use xlink:href="#DejaVuSans-30" x="95.410156"/>
      </g>
     </g>
    </g>
    <g id="text_9">
     <!-- $X$ -->
     <g transform="translate(231.3775 315.3225) scale(0.16 -0.16)">
      <defs>
       <path id="DejaVuSans-Oblique-58" d="M 878 4666 
L 1516 4666 
L 2316 2981 
L 3763 4666 
L 4500 4666 
L 2578 2438 
L 3738 0 
L 3103 0 
L 2163 1966 
L 459 0 
L -275 0 
L 1906 2509 
L 878 4666 
z
" transform="scale(0.015625)"/>
      </defs>
      <use xlink:href="#DejaVuSans-Oblique-58" transform="translate(0 0.09375)"/>
     </g>
    </g>
   </g>
   <g id="matplotlib.axis_6">
    <g id="ytick_4">
     <g id="line2d_15">
      <g>
       <use xlink:href="#m7e0f9df4bf" x="37.7875" y="256.967965" style="fill: #696969; stroke: #696969; stroke-width: 0.8"/>
      </g>
     </g>
     <g id="text_10">
      <!-- −5 -->
      <g style="fill: #696969" transform="translate(7.2 263.046715) scale(0.16 -0.16)">
       <use xlink:href="#DejaVuSans-2212"/>
       <use xlink:href="#DejaVuSans-35" x="83.789062"/>
      </g>
     </g>
    </g>
    <g id="ytick_5">
     <g id="line2d_16">
      <g>
       <use xlink:href="#m7e0f9df4bf" x="37.7875" y="223.203509" style="fill: #696969; stroke: #696969; stroke-width: 0.8"/>
      </g>
     </g>
     <g id="text_11">
      <!-- 0 -->
      <g style="fill: #696969" transform="translate(20.6075 229.282259) scale(0.16 -0.16)">
       <use xlink:href="#DejaVuSans-30"/>
      </g>
     </g>
    </g>
    <g id="ytick_6">
     <g id="line2d_17">
      <g>
       <use xlink:href="#m7e0f9df4bf" x="37.7875" y="189.439053" style="fill: #696969; stroke: #696969; stroke-width: 0.8"/>
      </g>
     </g>
     <g id="text_12">
      <!-- 5 -->
      <g style="fill: #696969" transform="translate(20.6075 195.517803) scale(0.16 -0.16)">
       <use xlink:href="#DejaVuSans-35"/>
      </g>
     </g>
    </g>
   </g>
   <g id="line2d_18">
    <path d="M 55.888409 223.113583 
L 63.128773 223.089653 
L 70.369136 222.863888 
L 77.6095 222.64602 
L 84.849864 222.587798 
L 92.090227 222.742032 
L 99.330591 223.275171 
L 106.570955 223.946816 
L 113.811318 224.135351 
L 121.051682 223.918561 
L 128.292045 223.697705 
L 135.532409 223.624081 
L 142.772773 223.622773 
L 150.013136 223.544663 
L 157.2535 223.287988 
L 164.493864 222.948546 
L 171.734227 222.911808 
L 178.974591 223.414687 
L 186.214955 224.019453 
L 193.455318 224.332493 
L 200.695682 224.452223 
L 207.936045 224.500279 
L 215.176409 224.448198 
L 222.416773 224.239874 
L 229.657136 223.899888 
L 236.8975 223.548436 
L 244.137864 223.347711 
L 251.378227 223.425129 
L 258.618591 223.804539 
L 265.858955 224.360117 
L 273.099318 224.815578 
L 280.339682 224.823918 
L 287.580045 224.150098 
L 294.820409 222.950372 
L 302.060773 222.061384 
L 309.301136 222.761318 
L 316.5415 223.957373 
L 323.781864 223.622597 
L 331.022227 222.746153 
L 338.262591 222.437883 
L 345.502955 222.845477 
L 352.743318 223.435263 
L 359.983682 223.510341 
L 367.224045 223.249795 
L 374.464409 223.260149 
L 381.704773 223.39698 
L 388.945136 223.486284 
L 396.1855 223.593769 
L 403.425864 223.79342 
L 410.666227 224.021773 
L 417.906591 224.076949 
" clip-path="url(#p6fedacdeea)" style="fill: none; stroke: #696969; stroke-width: 2; stroke-linecap: square"/>
   </g>
   <g id="line2d_19">
    <path d="M 55.888409 230.59109 
L 63.128773 230.114916 
L 70.369136 229.72863 
L 77.6095 229.420762 
L 84.849864 229.18043 
L 92.090227 228.997343 
L 99.330591 228.861795 
L 106.570955 228.76467 
L 113.811318 228.697441 
L 121.051682 228.65217 
L 128.292045 228.621505 
L 135.532409 228.598685 
L 142.772773 228.577536 
L 150.013136 228.552473 
L 157.2535 228.518499 
L 164.493864 228.471207 
L 171.734227 228.406776 
L 178.974591 228.321975 
L 186.214955 228.214162 
L 193.455318 228.081282 
L 200.695682 227.92187 
L 207.936045 227.735047 
L 215.176409 227.520527 
L 222.416773 227.278607 
L 229.657136 227.010177 
L 236.8975 226.716712 
L 244.137864 226.400278 
L 251.378227 226.063528 
L 258.618591 225.709705 
L 265.858955 225.342638 
L 273.099318 224.966747 
L 280.339682 224.587039 
L 287.580045 224.20911 
L 294.820409 223.839144 
L 302.060773 223.483914 
L 309.301136 223.150782 
L 316.5415 222.847697 
L 323.781864 222.583197 
L 331.022227 222.366409 
L 338.262591 222.207049 
L 345.502955 222.11542 
L 352.743318 222.102413 
L 359.983682 222.17951 
L 367.224045 222.35878 
L 374.464409 222.65288 
L 381.704773 223.075057 
L 388.945136 223.639144 
L 396.1855 224.359565 
L 403.425864 225.25133 
L 410.666227 226.330041 
L 417.906591 227.611886 
" clip-path="url(#p6fedacdeea)" style="fill: none; stroke-dasharray: 7.4,3.2; stroke-dashoffset: 0; stroke: #79ad41; stroke-width: 2"/>
   </g>
   <g id="patch_9">
    <path d="M 37.7875 276.68 
L 37.7875 187.384735 
" style="fill: none; stroke: #000000; stroke-width: 0.8; stroke-linejoin: miter; stroke-linecap: square"/>
   </g>
   <g id="patch_10">
    <path d="M 436.0075 276.68 
L 436.0075 187.384735 
" style="fill: none; stroke: #000000; stroke-width: 0.8; stroke-linejoin: miter; stroke-linecap: square"/>
   </g>
   <g id="patch_11">
    <path d="M 37.7875 276.68 
L 436.0075 276.68 
" style="fill: none; stroke: #000000; stroke-width: 0.8; stroke-linejoin: miter; stroke-linecap: square"/>
   </g>
   <g id="patch_12">
    <path d="M 37.7875 187.384735 
L 436.0075 187.384735 
" style="fill: none; stroke: #000000; stroke-width: 0.8; stroke-linejoin: miter; stroke-linecap: square"/>
   </g>
  </g>
 </g>
 <defs>
  <clipPath id="p2ca7dcc9d8">
   <rect x="37.7875" y="7.2" width="398.22" height="44.647632"/>
  </clipPath>
  <clipPath id="p4efc907885">
   <rect x="37.7875" y="74.968551" width="398.22" height="89.295265"/>
  </clipPath>
  <clipPath id="p6fedacdeea">
   <rect x="37.7875" y="187.384735" width="398.22" height="89.295265"/>
  </clipPath>
 </defs>
</svg>
