<?xml version="1.0" encoding="utf-8" standalone="no"?>
<!DOCTYPE svg PUBLIC "-//W3C//DTD SVG 1.1//EN"
  "http://www.w3.org/Graphics/SVG/1.1/DTD/svg11.dtd">
<svg xmlns:xlink="http://www.w3.org/1999/xlink" width="443.2075pt" height="325.85pt" viewBox="0 0 443.2075 325.85" xmlns="http://www.w3.org/2000/svg" version="1.1">
 <metadata>
  <rdf:RDF xmlns:dc="http://purl.org/dc/elements/1.1/" xmlns:cc="http://creativecommons.org/ns#" xmlns:rdf="http://www.w3.org/1999/02/22-rdf-syntax-ns#">
   <cc:Work>
    <dc:type rdf:resource="http://purl.org/dc/dcmitype/StillImage"/>
    <dc:date>2024-01-28T20:57:13.860417</dc:date>
    <dc:format>image/svg+xml</dc:format>
    <dc:creator>
     <cc:Agent>
      <dc:title>Matplotlib v3.7.2, https://matplotlib.org/</dc:title>
     </cc:Agent>
    </dc:creator>
   </cc:Work>
  </rdf:RDF>
 </metadata>
 <defs>
  <style type="text/css">*{stroke-linejoin: round; stroke-linecap: butt}</style>
 </defs>
 <g id="figure_1">
  <g id="patch_1">
   <path d="M 0 325.85 
L 443.2075 325.85 
L 443.2075 0 
L 0 0 
z
" style="fill: #ffffff"/>
  </g>
  <g id="axes_1">
   <g id="patch_2">
    <path d="M 37.7875 54.696 
L 436.0075 54.696 
L 436.0075 7.2 
L 37.7875 7.2 
z
" style="fill: #ffffff"/>
   </g>
   <g id="PolyCollection_1">
    <defs>
     <path id="m0959f709d6" d="M 55.888409 -273.312909 
L 55.888409 -309.478486 
L 63.128773 -309.355957 
L 70.369136 -309.251615 
L 77.6095 -309.157041 
L 84.849864 -309.06393 
L 92.090227 -308.964235 
L 99.330591 -308.850202 
L 106.570955 -308.714404 
L 113.811318 -308.549763 
L 121.051682 -308.34947 
L 128.292045 -308.106999 
L 135.532409 -307.816037 
L 142.772773 -307.470455 
L 150.013136 -307.064286 
L 157.2535 -306.591732 
L 164.493864 -306.047217 
L 171.734227 -305.425452 
L 178.974591 -304.721574 
L 186.214955 -303.931356 
L 193.455318 -303.051459 
L 200.695682 -302.079723 
L 207.936045 -301.015554 
L 215.176409 -299.86031 
L 222.416773 -298.617652 
L 229.657136 -297.293903 
L 236.8975 -295.898272 
L 244.137864 -294.442924 
L 251.378227 -292.942829 
L 258.618591 -291.415423 
L 265.858955 -289.879935 
L 273.099318 -288.356561 
L 280.339682 -286.865493 
L 287.580045 -285.425854 
L 294.820409 -284.054726 
L 302.060773 -282.766358 
L 309.301136 -281.571598 
L 316.5415 -280.477642 
L 323.781864 -279.488059 
L 331.022227 -278.603083 
L 338.262591 -278.110485 
L 345.502955 -278.110485 
L 352.743318 -278.110485 
L 359.983682 -278.110485 
L 367.224045 -278.110485 
L 374.464409 -278.110485 
L 381.704773 -278.110485 
L 388.945136 -278.110485 
L 396.1855 -278.110485 
L 403.425864 -278.110485 
L 410.666227 -278.110485 
L 417.906591 -278.110485 
L 417.906591 -273.312909 
L 417.906591 -273.312909 
L 410.666227 -273.312909 
L 403.425864 -273.312909 
L 396.1855 -273.312909 
L 388.945136 -273.312909 
L 381.704773 -273.312909 
L 374.464409 -273.312909 
L 367.224045 -273.312909 
L 359.983682 -273.312909 
L 352.743318 -273.312909 
L 345.502955 -273.312909 
L 338.262591 -273.312909 
L 331.022227 -273.312909 
L 323.781864 -273.312909 
L 316.5415 -273.312909 
L 309.301136 -273.312909 
L 302.060773 -273.312909 
L 294.820409 -273.312909 
L 287.580045 -273.312909 
L 280.339682 -273.312909 
L 273.099318 -273.312909 
L 265.858955 -273.312909 
L 258.618591 -273.312909 
L 251.378227 -273.312909 
L 244.137864 -273.312909 
L 236.8975 -273.312909 
L 229.657136 -273.312909 
L 222.416773 -273.312909 
L 215.176409 -273.312909 
L 207.936045 -273.312909 
L 200.695682 -273.312909 
L 193.455318 -273.312909 
L 186.214955 -273.312909 
L 178.974591 -273.312909 
L 171.734227 -273.312909 
L 164.493864 -273.312909 
L 157.2535 -273.312909 
L 150.013136 -273.312909 
L 142.772773 -273.312909 
L 135.532409 -273.312909 
L 128.292045 -273.312909 
L 121.051682 -273.312909 
L 113.811318 -273.312909 
L 106.570955 -273.312909 
L 99.330591 -273.312909 
L 92.090227 -273.312909 
L 84.849864 -273.312909 
L 77.6095 -273.312909 
L 70.369136 -273.312909 
L 63.128773 -273.312909 
L 55.888409 -273.312909 
z
" style="stroke: #dc143c; stroke-opacity: 0.2"/>
    </defs>
    <g clip-path="url(#paab9aa5bc7)">
     <use xlink:href="#m0959f709d6" x="0" y="325.85" style="fill: #dc143c; fill-opacity: 0.2; stroke: #dc143c; stroke-opacity: 0.2"/>
    </g>
   </g>
   <g id="PolyCollection_2">
    <defs>
     <path id="m57b7f1b253" d="M 55.888409 -273.312909 
L 55.888409 -285.123089 
L 63.128773 -285.245619 
L 70.369136 -285.34996 
L 77.6095 -285.444535 
L 84.849864 -285.537646 
L 92.090227 -285.637341 
L 99.330591 -285.751374 
L 106.570955 -285.887172 
L 113.811318 -286.051813 
L 121.051682 -286.252106 
L 128.292045 -286.494577 
L 135.532409 -286.785539 
L 142.772773 -287.131121 
L 150.013136 -287.53729 
L 157.2535 -288.009843 
L 164.493864 -288.554359 
L 171.734227 -289.176123 
L 178.974591 -289.880002 
L 186.214955 -290.670219 
L 193.455318 -291.550117 
L 200.695682 -292.521853 
L 207.936045 -293.586021 
L 215.176409 -294.741266 
L 222.416773 -295.983924 
L 229.657136 -297.307673 
L 236.8975 -298.703303 
L 244.137864 -300.158651 
L 251.378227 -301.658747 
L 258.618591 -303.186153 
L 265.858955 -304.721641 
L 273.099318 -306.245015 
L 280.339682 -307.736082 
L 287.580045 -309.175721 
L 294.820409 -310.54685 
L 302.060773 -311.835218 
L 309.301136 -313.029977 
L 316.5415 -314.123933 
L 323.781864 -315.113517 
L 331.022227 -315.998493 
L 338.262591 -316.491091 
L 345.502955 -316.491091 
L 352.743318 -316.491091 
L 359.983682 -316.491091 
L 367.224045 -316.491091 
L 374.464409 -316.491091 
L 381.704773 -316.491091 
L 388.945136 -316.491091 
L 396.1855 -316.491091 
L 403.425864 -316.491091 
L 410.666227 -316.491091 
L 417.906591 -316.491091 
L 417.906591 -273.312909 
L 417.906591 -273.312909 
L 410.666227 -273.312909 
L 403.425864 -273.312909 
L 396.1855 -273.312909 
L 388.945136 -273.312909 
L 381.704773 -273.312909 
L 374.464409 -273.312909 
L 367.224045 -273.312909 
L 359.983682 -273.312909 
L 352.743318 -273.312909 
L 345.502955 -273.312909 
L 338.262591 -273.312909 
L 331.022227 -273.312909 
L 323.781864 -273.312909 
L 316.5415 -273.312909 
L 309.301136 -273.312909 
L 302.060773 -273.312909 
L 294.820409 -273.312909 
L 287.580045 -273.312909 
L 280.339682 -273.312909 
L 273.099318 -273.312909 
L 265.858955 -273.312909 
L 258.618591 -273.312909 
L 251.378227 -273.312909 
L 244.137864 -273.312909 
L 236.8975 -273.312909 
L 229.657136 -273.312909 
L 222.416773 -273.312909 
L 215.176409 -273.312909 
L 207.936045 -273.312909 
L 200.695682 -273.312909 
L 193.455318 -273.312909 
L 186.214955 -273.312909 
L 178.974591 -273.312909 
L 171.734227 -273.312909 
L 164.493864 -273.312909 
L 157.2535 -273.312909 
L 150.013136 -273.312909 
L 142.772773 -273.312909 
L 135.532409 -273.312909 
L 128.292045 -273.312909 
L 121.051682 -273.312909 
L 113.811318 -273.312909 
L 106.570955 -273.312909 
L 99.330591 -273.312909 
L 92.090227 -273.312909 
L 84.849864 -273.312909 
L 77.6095 -273.312909 
L 70.369136 -273.312909 
L 63.128773 -273.312909 
L 55.888409 -273.312909 
z
" style="stroke: #000080; stroke-opacity: 0.2"/>
    </defs>
    <g clip-path="url(#paab9aa5bc7)">
     <use xlink:href="#m57b7f1b253" x="0" y="325.85" style="fill: #000080; fill-opacity: 0.2; stroke: #000080; stroke-opacity: 0.2"/>
    </g>
   </g>
   <g id="matplotlib.axis_1"/>
   <g id="matplotlib.axis_2"/>
   <g id="line2d_1">
    <path d="M 55.888409 16.371514 
L 63.128773 16.494043 
L 70.369136 16.598385 
L 77.6095 16.692959 
L 84.849864 16.78607 
L 92.090227 16.885765 
L 99.330591 16.999798 
L 106.570955 17.135596 
L 113.811318 17.300237 
L 121.051682 17.50053 
L 128.292045 17.743001 
L 135.532409 18.033963 
L 142.772773 18.379545 
L 150.013136 18.785714 
L 157.2535 19.258268 
L 164.493864 19.802783 
L 171.734227 20.424548 
L 178.974591 21.128426 
L 186.214955 21.918644 
L 193.455318 22.798541 
L 200.695682 23.770277 
L 207.936045 24.834446 
L 215.176409 25.98969 
L 222.416773 27.232348 
L 229.657136 28.556097 
L 236.8975 29.951728 
L 244.137864 31.407076 
L 251.378227 32.907171 
L 258.618591 34.434577 
L 265.858955 35.970065 
L 273.099318 37.493439 
L 280.339682 38.984507 
L 287.580045 40.424146 
L 294.820409 41.795274 
L 302.060773 43.083642 
L 309.301136 44.278402 
L 316.5415 45.372358 
L 323.781864 46.361941 
L 331.022227 47.246917 
L 338.262591 47.739515 
L 345.502955 47.739515 
L 352.743318 47.739515 
L 359.983682 47.739515 
L 367.224045 47.739515 
L 374.464409 47.739515 
L 381.704773 47.739515 
L 388.945136 47.739515 
L 396.1855 47.739515 
L 403.425864 47.739515 
L 410.666227 47.739515 
L 417.906591 47.739515 
" clip-path="url(#paab9aa5bc7)" style="fill: none; stroke: #dc143c; stroke-width: 1.5; stroke-linecap: square"/>
   </g>
   <g id="line2d_2">
    <path d="M 55.888409 40.726911 
L 63.128773 40.604381 
L 70.369136 40.50004 
L 77.6095 40.405465 
L 84.849864 40.312354 
L 92.090227 40.212659 
L 99.330591 40.098626 
L 106.570955 39.962828 
L 113.811318 39.798187 
L 121.051682 39.597894 
L 128.292045 39.355423 
L 135.532409 39.064461 
L 142.772773 38.718879 
L 150.013136 38.31271 
L 157.2535 37.840157 
L 164.493864 37.295641 
L 171.734227 36.673877 
L 178.974591 35.969998 
L 186.214955 35.179781 
L 193.455318 34.299883 
L 200.695682 33.328147 
L 207.936045 32.263979 
L 215.176409 31.108734 
L 222.416773 29.866076 
L 229.657136 28.542327 
L 236.8975 27.146697 
L 244.137864 25.691349 
L 251.378227 24.191253 
L 258.618591 22.663847 
L 265.858955 21.128359 
L 273.099318 19.604985 
L 280.339682 18.113918 
L 287.580045 16.674279 
L 294.820409 15.30315 
L 302.060773 14.014782 
L 309.301136 12.820023 
L 316.5415 11.726067 
L 323.781864 10.736483 
L 331.022227 9.851507 
L 338.262591 9.358909 
L 345.502955 9.358909 
L 352.743318 9.358909 
L 359.983682 9.358909 
L 367.224045 9.358909 
L 374.464409 9.358909 
L 381.704773 9.358909 
L 388.945136 9.358909 
L 396.1855 9.358909 
L 403.425864 9.358909 
L 410.666227 9.358909 
L 417.906591 9.358909 
" clip-path="url(#paab9aa5bc7)" style="fill: none; stroke: #000080; stroke-width: 1.5; stroke-linecap: square"/>
   </g>
  </g>
  <g id="axes_2">
   <g id="patch_3">
    <path d="M 37.7875 165.688 
L 436.0075 165.688 
L 436.0075 70.696 
L 37.7875 70.696 
z
" style="fill: #ffffff"/>
   </g>
   <g id="PathCollection_1">
    <defs>
     <path id="m4d6ecd4a99" d="M 0 0.866025 
C 0.229673 0.866025 0.449969 0.774776 0.612372 0.612372 
C 0.774776 0.449969 0.866025 0.229673 0.866025 0 
C 0.866025 -0.229673 0.774776 -0.449969 0.612372 -0.612372 
C 0.449969 -0.774776 0.229673 -0.866025 0 -0.866025 
C -0.229673 -0.866025 -0.449969 -0.774776 -0.612372 -0.612372 
C -0.774776 -0.449969 -0.866025 -0.229673 -0.866025 0 
C -0.866025 0.229673 -0.774776 0.449969 -0.612372 0.612372 
C -0.449969 0.774776 -0.229673 0.866025 0 0.866025 
z
" style="stroke: #daa520"/>
    </defs>
    <g clip-path="url(#p0afaf5b1c0)">
     <use xlink:href="#m4d6ecd4a99" x="106.814592" y="85.327056" style="fill: #daa520; stroke: #daa520"/>
     <use xlink:href="#m4d6ecd4a99" x="168.40111" y="126.510884" style="fill: #daa520; stroke: #daa520"/>
     <use xlink:href="#m4d6ecd4a99" x="130.570835" y="105.472474" style="fill: #daa520; stroke: #daa520"/>
     <use xlink:href="#m4d6ecd4a99" x="283.630652" y="91.419831" style="fill: #daa520; stroke: #daa520"/>
     <use xlink:href="#m4d6ecd4a99" x="203.78853" y="120.012567" style="fill: #daa520; stroke: #daa520"/>
     <use xlink:href="#m4d6ecd4a99" x="166.227438" y="100.884523" style="fill: #daa520; stroke: #daa520"/>
     <use xlink:href="#m4d6ecd4a99" x="60.965088" y="95.819648" style="fill: #daa520; stroke: #daa520"/>
     <use xlink:href="#m4d6ecd4a99" x="229.558958" y="112.144334" style="fill: #daa520; stroke: #daa520"/>
     <use xlink:href="#m4d6ecd4a99" x="139.05937" y="122.978704" style="fill: #daa520; stroke: #daa520"/>
     <use xlink:href="#m4d6ecd4a99" x="141.354581" y="123.195305" style="fill: #daa520; stroke: #daa520"/>
     <use xlink:href="#m4d6ecd4a99" x="143.808881" y="113.580312" style="fill: #daa520; stroke: #daa520"/>
     <use xlink:href="#m4d6ecd4a99" x="201.872481" y="117.794751" style="fill: #daa520; stroke: #daa520"/>
     <use xlink:href="#m4d6ecd4a99" x="290.40184" y="129.687279" style="fill: #daa520; stroke: #daa520"/>
     <use xlink:href="#m4d6ecd4a99" x="73.233623" y="99.891856" style="fill: #daa520; stroke: #daa520"/>
     <use xlink:href="#m4d6ecd4a99" x="293.7416" y="111.707876" style="fill: #daa520; stroke: #daa520"/>
     <use xlink:href="#m4d6ecd4a99" x="354.871866" y="147.835242" style="fill: #daa520; stroke: #daa520"/>
     <use xlink:href="#m4d6ecd4a99" x="144.642121" y="121.544572" style="fill: #daa520; stroke: #daa520"/>
     <use xlink:href="#m4d6ecd4a99" x="210.102658" y="119.093351" style="fill: #daa520; stroke: #daa520"/>
     <use xlink:href="#m4d6ecd4a99" x="186.883582" y="123.258811" style="fill: #daa520; stroke: #daa520"/>
     <use xlink:href="#m4d6ecd4a99" x="261.445576" y="131.867296" style="fill: #daa520; stroke: #daa520"/>
     <use xlink:href="#m4d6ecd4a99" x="200.591985" y="121.103778" style="fill: #daa520; stroke: #daa520"/>
     <use xlink:href="#m4d6ecd4a99" x="101.698179" y="91.324024" style="fill: #daa520; stroke: #daa520"/>
     <use xlink:href="#m4d6ecd4a99" x="73.942734" y="91.086648" style="fill: #daa520; stroke: #daa520"/>
     <use xlink:href="#m4d6ecd4a99" x="335.300993" y="90.29855" style="fill: #daa520; stroke: #daa520"/>
     <use xlink:href="#m4d6ecd4a99" x="107.293956" y="110.017636" style="fill: #daa520; stroke: #daa520"/>
     <use xlink:href="#m4d6ecd4a99" x="155.916791" y="106.201353" style="fill: #daa520; stroke: #daa520"/>
     <use xlink:href="#m4d6ecd4a99" x="58.525458" y="124.095995" style="fill: #daa520; stroke: #daa520"/>
     <use xlink:href="#m4d6ecd4a99" x="201.03995" y="121.257363" style="fill: #daa520; stroke: #daa520"/>
     <use xlink:href="#m4d6ecd4a99" x="221.529419" y="116.35596" style="fill: #daa520; stroke: #daa520"/>
     <use xlink:href="#m4d6ecd4a99" x="57.097374" y="161.370182" style="fill: #daa520; stroke: #daa520"/>
     <use xlink:href="#m4d6ecd4a99" x="121.985206" y="128.388571" style="fill: #daa520; stroke: #daa520"/>
     <use xlink:href="#m4d6ecd4a99" x="118.893754" y="131.350275" style="fill: #daa520; stroke: #daa520"/>
     <use xlink:href="#m4d6ecd4a99" x="114.173229" y="137.652519" style="fill: #daa520; stroke: #daa520"/>
     <use xlink:href="#m4d6ecd4a99" x="194.099761" y="118.484431" style="fill: #daa520; stroke: #daa520"/>
     <use xlink:href="#m4d6ecd4a99" x="193.456153" y="119.017638" style="fill: #daa520; stroke: #daa520"/>
     <use xlink:href="#m4d6ecd4a99" x="121.850188" y="93.316042" style="fill: #daa520; stroke: #daa520"/>
     <use xlink:href="#m4d6ecd4a99" x="142.005634" y="84.579448" style="fill: #daa520; stroke: #daa520"/>
     <use xlink:href="#m4d6ecd4a99" x="143.594832" y="87.369292" style="fill: #daa520; stroke: #daa520"/>
     <use xlink:href="#m4d6ecd4a99" x="109.990367" y="87.973343" style="fill: #daa520; stroke: #daa520"/>
     <use xlink:href="#m4d6ecd4a99" x="72.078721" y="155.430732" style="fill: #daa520; stroke: #daa520"/>
     <use xlink:href="#m4d6ecd4a99" x="238.879118" y="123.322176" style="fill: #daa520; stroke: #daa520"/>
     <use xlink:href="#m4d6ecd4a99" x="111.368313" y="77.524973" style="fill: #daa520; stroke: #daa520"/>
     <use xlink:href="#m4d6ecd4a99" x="77.637974" y="77.0563" style="fill: #daa520; stroke: #daa520"/>
     <use xlink:href="#m4d6ecd4a99" x="220.287788" y="115.432337" style="fill: #daa520; stroke: #daa520"/>
     <use xlink:href="#m4d6ecd4a99" x="91.499419" y="114.755297" style="fill: #daa520; stroke: #daa520"/>
     <use xlink:href="#m4d6ecd4a99" x="410.674701" y="129.130362" style="fill: #daa520; stroke: #daa520"/>
     <use xlink:href="#m4d6ecd4a99" x="110.589877" y="112.816353" style="fill: #daa520; stroke: #daa520"/>
     <use xlink:href="#m4d6ecd4a99" x="157.969039" y="107.11956" style="fill: #daa520; stroke: #daa520"/>
     <use xlink:href="#m4d6ecd4a99" x="202.738762" y="120.885039" style="fill: #daa520; stroke: #daa520"/>
     <use xlink:href="#m4d6ecd4a99" x="106.150877" y="114.448411" style="fill: #daa520; stroke: #daa520"/>
     <use xlink:href="#m4d6ecd4a99" x="206.053427" y="119.51066" style="fill: #daa520; stroke: #daa520"/>
     <use xlink:href="#m4d6ecd4a99" x="251.168644" y="102.959879" style="fill: #daa520; stroke: #daa520"/>
     <use xlink:href="#m4d6ecd4a99" x="207.52286" y="118.300769" style="fill: #daa520; stroke: #daa520"/>
     <use xlink:href="#m4d6ecd4a99" x="215.476809" y="115.778104" style="fill: #daa520; stroke: #daa520"/>
     <use xlink:href="#m4d6ecd4a99" x="163.829934" y="109.992949" style="fill: #daa520; stroke: #daa520"/>
     <use xlink:href="#m4d6ecd4a99" x="225.444796" y="113.776533" style="fill: #daa520; stroke: #daa520"/>
     <use xlink:href="#m4d6ecd4a99" x="161.379816" y="93.821321" style="fill: #daa520; stroke: #daa520"/>
     <use xlink:href="#m4d6ecd4a99" x="237.878154" y="95.27695" style="fill: #daa520; stroke: #daa520"/>
     <use xlink:href="#m4d6ecd4a99" x="371.045607" y="103.132317" style="fill: #daa520; stroke: #daa520"/>
     <use xlink:href="#m4d6ecd4a99" x="162.516508" y="115.042529" style="fill: #daa520; stroke: #daa520"/>
     <use xlink:href="#m4d6ecd4a99" x="147.757664" y="84.982524" style="fill: #daa520; stroke: #daa520"/>
     <use xlink:href="#m4d6ecd4a99" x="88.109578" y="145.449926" style="fill: #daa520; stroke: #daa520"/>
     <use xlink:href="#m4d6ecd4a99" x="325.677238" y="133.620408" style="fill: #daa520; stroke: #daa520"/>
     <use xlink:href="#m4d6ecd4a99" x="306.298995" y="93.744783" style="fill: #daa520; stroke: #daa520"/>
     <use xlink:href="#m4d6ecd4a99" x="110.157696" y="122.937122" style="fill: #daa520; stroke: #daa520"/>
     <use xlink:href="#m4d6ecd4a99" x="253.458267" y="105.84126" style="fill: #daa520; stroke: #daa520"/>
     <use xlink:href="#m4d6ecd4a99" x="103.891424" y="75.013818" style="fill: #daa520; stroke: #daa520"/>
     <use xlink:href="#m4d6ecd4a99" x="223.195154" y="113.913395" style="fill: #daa520; stroke: #daa520"/>
     <use xlink:href="#m4d6ecd4a99" x="241.269347" y="99.049227" style="fill: #daa520; stroke: #daa520"/>
     <use xlink:href="#m4d6ecd4a99" x="220.020307" y="110.356338" style="fill: #daa520; stroke: #daa520"/>
     <use xlink:href="#m4d6ecd4a99" x="377.610048" y="88.886639" style="fill: #daa520; stroke: #daa520"/>
     <use xlink:href="#m4d6ecd4a99" x="395.280275" y="97.423576" style="fill: #daa520; stroke: #daa520"/>
     <use xlink:href="#m4d6ecd4a99" x="111.065963" y="112.72015" style="fill: #daa520; stroke: #daa520"/>
     <use xlink:href="#m4d6ecd4a99" x="131.063991" y="124.81444" style="fill: #daa520; stroke: #daa520"/>
     <use xlink:href="#m4d6ecd4a99" x="83.784643" y="136.482795" style="fill: #daa520; stroke: #daa520"/>
     <use xlink:href="#m4d6ecd4a99" x="181.235489" y="103.959532" style="fill: #daa520; stroke: #daa520"/>
     <use xlink:href="#m4d6ecd4a99" x="155.453861" y="88.033302" style="fill: #daa520; stroke: #daa520"/>
     <use xlink:href="#m4d6ecd4a99" x="138.257649" y="91.667681" style="fill: #daa520; stroke: #daa520"/>
     <use xlink:href="#m4d6ecd4a99" x="330.268843" y="90.478061" style="fill: #daa520; stroke: #daa520"/>
     <use xlink:href="#m4d6ecd4a99" x="190.079626" y="107.717548" style="fill: #daa520; stroke: #daa520"/>
     <use xlink:href="#m4d6ecd4a99" x="282.493873" y="98.738785" style="fill: #daa520; stroke: #daa520"/>
     <use xlink:href="#m4d6ecd4a99" x="254.046951" y="105.356508" style="fill: #daa520; stroke: #daa520"/>
     <use xlink:href="#m4d6ecd4a99" x="77.891987" y="158.701934" style="fill: #daa520; stroke: #daa520"/>
     <use xlink:href="#m4d6ecd4a99" x="63.703551" y="139.959034" style="fill: #daa520; stroke: #daa520"/>
     <use xlink:href="#m4d6ecd4a99" x="69.482316" y="139.788025" style="fill: #daa520; stroke: #daa520"/>
     <use xlink:href="#m4d6ecd4a99" x="175.631588" y="106.940935" style="fill: #daa520; stroke: #daa520"/>
     <use xlink:href="#m4d6ecd4a99" x="175.549355" y="126.090658" style="fill: #daa520; stroke: #daa520"/>
     <use xlink:href="#m4d6ecd4a99" x="116.801197" y="96.141753" style="fill: #daa520; stroke: #daa520"/>
     <use xlink:href="#m4d6ecd4a99" x="210.847755" y="116.250798" style="fill: #daa520; stroke: #daa520"/>
     <use xlink:href="#m4d6ecd4a99" x="93.634145" y="125.11253" style="fill: #daa520; stroke: #daa520"/>
     <use xlink:href="#m4d6ecd4a99" x="386.234182" y="134.307275" style="fill: #daa520; stroke: #daa520"/>
     <use xlink:href="#m4d6ecd4a99" x="173.894226" y="112.897432" style="fill: #daa520; stroke: #daa520"/>
     <use xlink:href="#m4d6ecd4a99" x="137.577232" y="123.374603" style="fill: #daa520; stroke: #daa520"/>
     <use xlink:href="#m4d6ecd4a99" x="97.281522" y="86.550583" style="fill: #daa520; stroke: #daa520"/>
     <use xlink:href="#m4d6ecd4a99" x="119.2781" y="114.34837" style="fill: #daa520; stroke: #daa520"/>
     <use xlink:href="#m4d6ecd4a99" x="163.672749" y="121.742239" style="fill: #daa520; stroke: #daa520"/>
     <use xlink:href="#m4d6ecd4a99" x="172.023906" y="112.618118" style="fill: #daa520; stroke: #daa520"/>
     <use xlink:href="#m4d6ecd4a99" x="94.088752" y="115.659207" style="fill: #daa520; stroke: #daa520"/>
     <use xlink:href="#m4d6ecd4a99" x="179.478392" y="124.288073" style="fill: #daa520; stroke: #daa520"/>
    </g>
   </g>
   <g id="matplotlib.axis_3"/>
   <g id="matplotlib.axis_4">
    <g id="ytick_1">
     <g id="line2d_3">
      <defs>
       <path id="m18d3cb7c13" d="M 0 0 
L -3.5 0 
" style="stroke: #696969; stroke-width: 0.8"/>
      </defs>
      <g>
       <use xlink:href="#m18d3cb7c13" x="37.7875" y="141.213449" style="fill: #696969; stroke: #696969; stroke-width: 0.8"/>
      </g>
     </g>
     <g id="text_1">
      <!-- −5 -->
      <g style="fill: #696969" transform="translate(7.2 147.292199) scale(0.16 -0.16)">
       <defs>
        <path id="DejaVuSans-2212" d="M 678 2272 
L 4684 2272 
L 4684 1741 
L 678 1741 
L 678 2272 
z
" transform="scale(0.015625)"/>
        <path id="DejaVuSans-35" d="M 691 4666 
L 3169 4666 
L 3169 4134 
L 1269 4134 
L 1269 2991 
Q 1406 3038 1543 3061 
Q 1681 3084 1819 3084 
Q 2600 3084 3056 2656 
Q 3513 2228 3513 1497 
Q 3513 744 3044 326 
Q 2575 -91 1722 -91 
Q 1428 -91 1123 -41 
Q 819 9 494 109 
L 494 744 
Q 775 591 1075 516 
Q 1375 441 1709 441 
Q 2250 441 2565 725 
Q 2881 1009 2881 1497 
Q 2881 1984 2565 2268 
Q 2250 2553 1709 2553 
Q 1456 2553 1204 2497 
Q 953 2441 691 2322 
L 691 4666 
z
" transform="scale(0.015625)"/>
       </defs>
       <use xlink:href="#DejaVuSans-2212"/>
       <use xlink:href="#DejaVuSans-35" x="83.789062"/>
      </g>
     </g>
    </g>
    <g id="ytick_2">
     <g id="line2d_4">
      <g>
       <use xlink:href="#m18d3cb7c13" x="37.7875" y="113.222503" style="fill: #696969; stroke: #696969; stroke-width: 0.8"/>
      </g>
     </g>
     <g id="text_2">
      <!-- 0 -->
      <g style="fill: #696969" transform="translate(20.6075 119.301253) scale(0.16 -0.16)">
       <defs>
        <path id="DejaVuSans-30" d="M 2034 4250 
Q 1547 4250 1301 3770 
Q 1056 3291 1056 2328 
Q 1056 1369 1301 889 
Q 1547 409 2034 409 
Q 2525 409 2770 889 
Q 3016 1369 3016 2328 
Q 3016 3291 2770 3770 
Q 2525 4250 2034 4250 
z
M 2034 4750 
Q 2819 4750 3233 4129 
Q 3647 3509 3647 2328 
Q 3647 1150 3233 529 
Q 2819 -91 2034 -91 
Q 1250 -91 836 529 
Q 422 1150 422 2328 
Q 422 3509 836 4129 
Q 1250 4750 2034 4750 
z
" transform="scale(0.015625)"/>
       </defs>
       <use xlink:href="#DejaVuSans-30"/>
      </g>
     </g>
    </g>
    <g id="ytick_3">
     <g id="line2d_5">
      <g>
       <use xlink:href="#m18d3cb7c13" x="37.7875" y="85.231556" style="fill: #696969; stroke: #696969; stroke-width: 0.8"/>
      </g>
     </g>
     <g id="text_3">
      <!-- 5 -->
      <g style="fill: #696969" transform="translate(20.6075 91.310306) scale(0.16 -0.16)">
       <use xlink:href="#DejaVuSans-35"/>
      </g>
     </g>
    </g>
   </g>
   <g id="line2d_6">
    <path d="M 55.888409 129.755204 
L 63.128773 127.038254 
L 70.369136 123.295643 
L 77.6095 118.974222 
L 84.849864 114.65437 
L 92.090227 110.907142 
L 99.330591 108.142066 
L 106.570955 106.503576 
L 113.811318 105.865647 
L 121.051682 105.934251 
L 128.292045 106.411303 
L 135.532409 107.135223 
L 142.772773 108.12169 
L 150.013136 109.484455 
L 157.2535 111.287607 
L 164.493864 113.42161 
L 171.734227 115.5797 
L 178.974591 117.350321 
L 186.214955 118.375367 
L 193.455318 118.491547 
L 200.695682 117.787162 
L 207.936045 116.552987 
L 215.176409 115.156105 
L 222.416773 113.896496 
L 229.657136 112.908623 
L 236.8975 112.146314 
L 244.137864 111.449749 
L 251.378227 110.655129 
L 258.618591 109.689735 
L 265.858955 108.60741 
L 273.099318 107.556012 
L 280.339682 106.706435 
L 287.580045 106.18934 
L 294.820409 106.071381 
L 302.060773 106.369837 
L 309.301136 107.076965 
L 316.5415 108.162488 
L 323.781864 109.545517 
L 331.022227 111.058864 
L 338.262591 112.445528 
L 345.502955 113.415006 
L 352.743318 113.750339 
L 359.983682 113.416913 
L 367.224045 112.608024 
L 374.464409 111.685885 
L 381.704773 111.031787 
L 388.945136 110.874639 
L 396.1855 111.186181 
L 403.425864 111.698347 
L 410.666227 112.03197 
L 417.906591 111.867723 
" clip-path="url(#p0afaf5b1c0)" style="fill: none; stroke: #000000; stroke-width: 2; stroke-linecap: square"/>
   </g>
   <g id="line2d_7">
    <path d="M 55.888409 132.747342 
L 63.128773 126.80805 
L 70.369136 122.102063 
L 77.6095 118.427765 
L 84.849864 115.609905 
L 92.090227 113.496931 
L 99.330591 111.958517 
L 106.570955 110.883262 
L 113.811318 110.176559 
L 121.051682 109.758634 
L 128.292045 109.562739 
L 135.532409 109.533504 
L 142.772773 109.625426 
L 150.013136 109.801507 
L 157.2535 110.032016 
L 164.493864 110.293389 
L 171.734227 110.567235 
L 178.974591 110.839474 
L 186.214955 111.099565 
L 193.455318 111.339851 
L 200.695682 111.554984 
L 207.936045 111.741456 
L 215.176409 111.897196 
L 222.416773 112.021253 
L 229.657136 112.113547 
L 236.8975 112.174679 
L 244.137864 112.205805 
L 251.378227 112.208551 
L 258.618591 112.184986 
L 265.858955 112.137619 
L 273.099318 112.069432 
L 280.339682 111.983945 
L 287.580045 111.88529 
L 294.820409 111.778303 
L 302.060773 111.668621 
L 309.301136 111.562777 
L 316.5415 111.468288 
L 323.781864 111.393737 
L 331.022227 111.348826 
L 338.262591 111.344406 
L 345.502955 111.39248 
L 352.743318 111.506161 
L 359.983682 111.69959 
L 367.224045 111.987797 
L 374.464409 112.386512 
L 381.704773 112.911905 
L 388.945136 113.58026 
L 396.1855 114.40757 
L 403.425864 115.409051 
L 410.666227 116.598565 
L 417.906591 117.987949 
" clip-path="url(#p0afaf5b1c0)" style="fill: none; stroke-dasharray: 7.4,3.2; stroke-dashoffset: 0; stroke: #34b6c6; stroke-width: 2"/>
   </g>
   <g id="line2d_8">
    <path d="M 55.888409 134.26546 
L 63.128773 130.4411 
L 70.369136 125.406565 
L 77.6095 119.470545 
L 84.849864 114.567032 
L 92.090227 111.289367 
L 99.330591 109.126207 
L 106.570955 107.671401 
L 113.811318 106.734655 
L 121.051682 106.276152 
L 128.292045 106.35185 
L 135.532409 107.005167 
L 142.772773 108.061759 
L 150.013136 109.179098 
L 157.2535 110.351991 
L 164.493864 111.933613 
L 171.734227 113.868819 
L 178.974591 115.467602 
L 186.214955 116.350391 
L 193.455318 116.668001 
L 200.695682 116.558104 
L 207.936045 116.00296 
L 215.176409 114.998796 
L 222.416773 113.745557 
L 229.657136 112.513118 
L 236.8975 111.37358 
L 244.137864 110.268214 
L 251.378227 109.195345 
L 258.618591 108.214122 
L 265.858955 107.321457 
L 273.099318 106.446399 
L 280.339682 105.688519 
L 287.580045 105.393555 
L 294.820409 105.77181 
L 302.060773 106.763832 
L 309.301136 107.98914 
L 316.5415 108.931586 
L 323.781864 109.526537 
L 331.022227 109.94434 
L 338.262591 110.304699 
L 345.502955 110.667587 
L 352.743318 111.065629 
L 359.983682 111.521161 
L 367.224045 112.05341 
L 374.464409 112.681606 
L 381.704773 113.426478 
L 388.945136 114.311109 
L 396.1855 115.361498 
L 403.425864 116.607025 
L 410.666227 118.080848 
L 417.906591 119.820296 
" clip-path="url(#p0afaf5b1c0)" style="fill: none; stroke-dasharray: 7.4,3.2; stroke-dashoffset: 0; stroke: #9370db; stroke-width: 2"/>
   </g>
   <g id="line2d_9">
    <path d="M 55.888409 121.882912 
L 63.128773 120.253166 
L 70.369136 116.655412 
L 77.6095 111.531941 
L 84.849864 107.332837 
L 92.090227 104.841025 
L 99.330591 103.465144 
L 106.570955 102.739293 
L 113.811318 102.460591 
L 121.051682 102.608555 
L 128.292045 103.277702 
L 135.532409 104.543684 
L 142.772773 106.209309 
L 150.013136 107.866303 
L 157.2535 109.522053 
L 164.493864 111.625946 
L 171.734227 114.119541 
L 178.974591 116.156066 
L 186.214955 117.27206 
L 193.455318 117.660135 
L 200.695682 117.495598 
L 207.936045 116.760305 
L 215.176409 115.452687 
L 222.416773 113.823007 
L 229.657136 112.207657 
L 236.8975 110.697488 
L 244.137864 109.220817 
L 251.378227 107.776286 
L 258.618591 106.437543 
L 265.858955 105.200733 
L 273.099318 103.977494 
L 280.339682 102.890316 
L 287.580045 102.366208 
L 294.820409 102.663726 
L 302.060773 103.706399 
L 309.301136 105.019068 
L 316.5415 105.957432 
L 323.781864 106.435517 
L 331.022227 106.657156 
L 338.262591 106.761828 
L 345.502955 106.813157 
L 352.743318 106.838802 
L 359.983682 106.851309 
L 367.224045 106.856733 
L 374.464409 106.858168 
L 381.704773 106.857282 
L 388.945136 106.855016 
L 396.1855 106.851917 
L 403.425864 106.848316 
L 410.666227 106.84442 
L 417.906591 106.840359 
" clip-path="url(#p0afaf5b1c0)" style="fill: none; stroke-dasharray: 12.8,3.2,2,3.2; stroke-dashoffset: 0; stroke: #ff0000; stroke-width: 2"/>
   </g>
   <g id="patch_4">
    <path d="M 37.7875 165.688 
L 37.7875 70.696 
" style="fill: none; stroke: #000000; stroke-width: 0.8; stroke-linejoin: miter; stroke-linecap: square"/>
   </g>
   <g id="patch_5">
    <path d="M 436.0075 165.688 
L 436.0075 70.696 
" style="fill: none; stroke: #000000; stroke-width: 0.8; stroke-linejoin: miter; stroke-linecap: square"/>
   </g>
   <g id="patch_6">
    <path d="M 37.7875 165.688 
L 436.0075 165.688 
" style="fill: none; stroke: #000000; stroke-width: 0.8; stroke-linejoin: miter; stroke-linecap: square"/>
   </g>
   <g id="patch_7">
    <path d="M 37.7875 70.696 
L 436.0075 70.696 
" style="fill: none; stroke: #000000; stroke-width: 0.8; stroke-linejoin: miter; stroke-linecap: square"/>
   </g>
  </g>
  <g id="axes_3">
   <g id="patch_8">
    <path d="M 37.7875 276.68 
L 436.0075 276.68 
L 436.0075 181.688 
L 37.7875 181.688 
z
" style="fill: #ffffff"/>
   </g>
   <g id="PathCollection_2">
    <g clip-path="url(#p83677def07)">
     <use xlink:href="#m4d6ecd4a99" x="106.814592" y="254.356734" style="fill: #daa520; stroke: #daa520"/>
     <use xlink:href="#m4d6ecd4a99" x="168.40111" y="221.704523" style="fill: #daa520; stroke: #daa520"/>
     <use xlink:href="#m4d6ecd4a99" x="130.570835" y="234.034052" style="fill: #daa520; stroke: #daa520"/>
     <use xlink:href="#m4d6ecd4a99" x="283.630652" y="247.75172" style="fill: #daa520; stroke: #daa520"/>
     <use xlink:href="#m4d6ecd4a99" x="203.78853" y="233.086183" style="fill: #daa520; stroke: #daa520"/>
     <use xlink:href="#m4d6ecd4a99" x="166.227438" y="247.95199" style="fill: #daa520; stroke: #daa520"/>
     <use xlink:href="#m4d6ecd4a99" x="60.965088" y="262.468188" style="fill: #daa520; stroke: #daa520"/>
     <use xlink:href="#m4d6ecd4a99" x="229.558958" y="236.085384" style="fill: #daa520; stroke: #daa520"/>
     <use xlink:href="#m4d6ecd4a99" x="139.05937" y="217.371171" style="fill: #daa520; stroke: #daa520"/>
     <use xlink:href="#m4d6ecd4a99" x="141.354581" y="217.713355" style="fill: #daa520; stroke: #daa520"/>
     <use xlink:href="#m4d6ecd4a99" x="143.808881" y="228.475147" style="fill: #daa520; stroke: #daa520"/>
     <use xlink:href="#m4d6ecd4a99" x="201.872481" y="235.597393" style="fill: #daa520; stroke: #daa520"/>
     <use xlink:href="#m4d6ecd4a99" x="290.40184" y="207.177688" style="fill: #daa520; stroke: #daa520"/>
     <use xlink:href="#m4d6ecd4a99" x="73.233623" y="251.603398" style="fill: #daa520; stroke: #daa520"/>
     <use xlink:href="#m4d6ecd4a99" x="293.7416" y="226.348682" style="fill: #daa520; stroke: #daa520"/>
     <use xlink:href="#m4d6ecd4a99" x="354.871866" y="192.732251" style="fill: #daa520; stroke: #daa520"/>
     <use xlink:href="#m4d6ecd4a99" x="144.642121" y="220.275744" style="fill: #daa520; stroke: #daa520"/>
     <use xlink:href="#m4d6ecd4a99" x="210.102658" y="233.178198" style="fill: #daa520; stroke: #daa520"/>
     <use xlink:href="#m4d6ecd4a99" x="186.883582" y="229.7432" style="fill: #daa520; stroke: #daa520"/>
     <use xlink:href="#m4d6ecd4a99" x="261.445576" y="208.639612" style="fill: #daa520; stroke: #daa520"/>
     <use xlink:href="#m4d6ecd4a99" x="200.591985" y="232.194654" style="fill: #daa520; stroke: #daa520"/>
     <use xlink:href="#m4d6ecd4a99" x="101.698179" y="248.499538" style="fill: #daa520; stroke: #daa520"/>
     <use xlink:href="#m4d6ecd4a99" x="73.942734" y="260.355526" style="fill: #daa520; stroke: #daa520"/>
     <use xlink:href="#m4d6ecd4a99" x="335.300993" y="253.336374" style="fill: #daa520; stroke: #daa520"/>
     <use xlink:href="#m4d6ecd4a99" x="107.293956" y="228.26554" style="fill: #daa520; stroke: #daa520"/>
     <use xlink:href="#m4d6ecd4a99" x="155.916791" y="239.156871" style="fill: #daa520; stroke: #daa520"/>
     <use xlink:href="#m4d6ecd4a99" x="58.525458" y="233.205274" style="fill: #daa520; stroke: #daa520"/>
     <use xlink:href="#m4d6ecd4a99" x="201.03995" y="232.003334" style="fill: #daa520; stroke: #daa520"/>
     <use xlink:href="#m4d6ecd4a99" x="221.529419" y="233.538357" style="fill: #daa520; stroke: #daa520"/>
     <use xlink:href="#m4d6ecd4a99" x="57.097374" y="194.130266" style="fill: #daa520; stroke: #daa520"/>
     <use xlink:href="#m4d6ecd4a99" x="121.985206" y="208.844565" style="fill: #daa520; stroke: #daa520"/>
     <use xlink:href="#m4d6ecd4a99" x="118.893754" y="205.563207" style="fill: #daa520; stroke: #daa520"/>
     <use xlink:href="#m4d6ecd4a99" x="114.173229" y="198.850221" style="fill: #daa520; stroke: #daa520"/>
     <use xlink:href="#m4d6ecd4a99" x="194.099761" y="235.133649" style="fill: #daa520; stroke: #daa520"/>
     <use xlink:href="#m4d6ecd4a99" x="193.456153" y="234.563546" style="fill: #daa520; stroke: #daa520"/>
     <use xlink:href="#m4d6ecd4a99" x="121.850188" y="245.852387" style="fill: #daa520; stroke: #daa520"/>
     <use xlink:href="#m4d6ecd4a99" x="142.005634" y="258.632991" style="fill: #daa520; stroke: #daa520"/>
     <use xlink:href="#m4d6ecd4a99" x="143.594832" y="256.085866" style="fill: #daa520; stroke: #daa520"/>
     <use xlink:href="#m4d6ecd4a99" x="109.990367" y="251.38806" style="fill: #daa520; stroke: #daa520"/>
     <use xlink:href="#m4d6ecd4a99" x="72.078721" y="193.851497" style="fill: #daa520; stroke: #daa520"/>
     <use xlink:href="#m4d6ecd4a99" x="238.879118" y="222.244288" style="fill: #daa520; stroke: #daa520"/>
     <use xlink:href="#m4d6ecd4a99" x="111.368313" y="262.365235" style="fill: #daa520; stroke: #daa520"/>
     <use xlink:href="#m4d6ecd4a99" x="77.637974" y="272.362182" style="fill: #daa520; stroke: #daa520"/>
     <use xlink:href="#m4d6ecd4a99" x="220.287788" y="234.814701" style="fill: #daa520; stroke: #daa520"/>
     <use xlink:href="#m4d6ecd4a99" x="91.499419" y="225.693856" style="fill: #daa520; stroke: #daa520"/>
     <use xlink:href="#m4d6ecd4a99" x="410.674701" y="212.474969" style="fill: #daa520; stroke: #daa520"/>
     <use xlink:href="#m4d6ecd4a99" x="110.589877" y="225.144114" style="fill: #daa520; stroke: #daa520"/>
     <use xlink:href="#m4d6ecd4a99" x="157.969039" y="238.723333" style="fill: #daa520; stroke: #daa520"/>
     <use xlink:href="#m4d6ecd4a99" x="202.738762" y="232.264186" style="fill: #daa520; stroke: #daa520"/>
     <use xlink:href="#m4d6ecd4a99" x="106.150877" y="223.668623" style="fill: #daa520; stroke: #daa520"/>
     <use xlink:href="#m4d6ecd4a99" x="206.053427" y="233.356832" style="fill: #daa520; stroke: #daa520"/>
     <use xlink:href="#m4d6ecd4a99" x="251.168644" y="241.122576" style="fill: #daa520; stroke: #daa520"/>
     <use xlink:href="#m4d6ecd4a99" x="207.52286" y="234.43194" style="fill: #daa520; stroke: #daa520"/>
     <use xlink:href="#m4d6ecd4a99" x="215.476809" y="235.585458" style="fill: #daa520; stroke: #daa520"/>
     <use xlink:href="#m4d6ecd4a99" x="163.829934" y="237.489965" style="fill: #daa520; stroke: #daa520"/>
     <use xlink:href="#m4d6ecd4a99" x="225.444796" y="235.317739" style="fill: #daa520; stroke: #daa520"/>
     <use xlink:href="#m4d6ecd4a99" x="161.379816" y="253.753544" style="fill: #daa520; stroke: #daa520"/>
     <use xlink:href="#m4d6ecd4a99" x="237.878154" y="252.059919" style="fill: #daa520; stroke: #daa520"/>
     <use xlink:href="#m4d6ecd4a99" x="371.045607" y="239.928345" style="fill: #daa520; stroke: #daa520"/>
     <use xlink:href="#m4d6ecd4a99" x="162.516508" y="231.720147" style="fill: #daa520; stroke: #daa520"/>
     <use xlink:href="#m4d6ecd4a99" x="147.757664" y="259.618852" style="fill: #daa520; stroke: #daa520"/>
     <use xlink:href="#m4d6ecd4a99" x="88.109578" y="194.391145" style="fill: #daa520; stroke: #daa520"/>
     <use xlink:href="#m4d6ecd4a99" x="325.677238" y="207.383979" style="fill: #daa520; stroke: #daa520"/>
     <use xlink:href="#m4d6ecd4a99" x="306.298995" y="247.338184" style="fill: #daa520; stroke: #daa520"/>
     <use xlink:href="#m4d6ecd4a99" x="110.157696" y="214.479201" style="fill: #daa520; stroke: #daa520"/>
     <use xlink:href="#m4d6ecd4a99" x="253.458267" y="237.618585" style="fill: #daa520; stroke: #daa520"/>
     <use xlink:href="#m4d6ecd4a99" x="103.891424" y="265.480665" style="fill: #daa520; stroke: #daa520"/>
     <use xlink:href="#m4d6ecd4a99" x="223.195154" y="235.712445" style="fill: #daa520; stroke: #daa520"/>
     <use xlink:href="#m4d6ecd4a99" x="241.269347" y="247.348116" style="fill: #daa520; stroke: #daa520"/>
     <use xlink:href="#m4d6ecd4a99" x="220.020307" y="240.236902" style="fill: #daa520; stroke: #daa520"/>
     <use xlink:href="#m4d6ecd4a99" x="377.610048" y="254.96385" style="fill: #daa520; stroke: #daa520"/>
     <use xlink:href="#m4d6ecd4a99" x="395.280275" y="245.947709" style="fill: #daa520; stroke: #daa520"/>
     <use xlink:href="#m4d6ecd4a99" x="111.065963" y="225.228822" style="fill: #daa520; stroke: #daa520"/>
     <use xlink:href="#m4d6ecd4a99" x="131.063991" y="213.705018" style="fill: #daa520; stroke: #daa520"/>
     <use xlink:href="#m4d6ecd4a99" x="83.784643" y="205.760787" style="fill: #daa520; stroke: #daa520"/>
     <use xlink:href="#m4d6ecd4a99" x="181.235489" y="249.337866" style="fill: #daa520; stroke: #daa520"/>
     <use xlink:href="#m4d6ecd4a99" x="155.453861" y="258.216347" style="fill: #daa520; stroke: #daa520"/>
     <use xlink:href="#m4d6ecd4a99" x="138.257649" y="250.222325" style="fill: #daa520; stroke: #daa520"/>
     <use xlink:href="#m4d6ecd4a99" x="330.268843" y="253.055346" style="fill: #daa520; stroke: #daa520"/>
     <use xlink:href="#m4d6ecd4a99" x="190.079626" y="246.377256" style="fill: #daa520; stroke: #daa520"/>
     <use xlink:href="#m4d6ecd4a99" x="282.493873" y="240.131196" style="fill: #daa520; stroke: #daa520"/>
     <use xlink:href="#m4d6ecd4a99" x="254.046951" y="238.013353" style="fill: #daa520; stroke: #daa520"/>
     <use xlink:href="#m4d6ecd4a99" x="77.891987" y="186.005818" style="fill: #daa520; stroke: #daa520"/>
     <use xlink:href="#m4d6ecd4a99" x="63.703551" y="214.984968" style="fill: #daa520; stroke: #daa520"/>
     <use xlink:href="#m4d6ecd4a99" x="69.482316" y="212.174454" style="fill: #daa520; stroke: #daa520"/>
     <use xlink:href="#m4d6ecd4a99" x="175.631588" y="244.844391" style="fill: #daa520; stroke: #daa520"/>
     <use xlink:href="#m4d6ecd4a99" x="175.549355" y="224.608848" style="fill: #daa520; stroke: #daa520"/>
     <use xlink:href="#m4d6ecd4a99" x="116.801197" y="242.671454" style="fill: #daa520; stroke: #daa520"/>
     <use xlink:href="#m4d6ecd4a99" x="210.847755" y="236.043615" style="fill: #daa520; stroke: #daa520"/>
     <use xlink:href="#m4d6ecd4a99" x="93.634145" y="214.214429" style="fill: #daa520; stroke: #daa520"/>
     <use xlink:href="#m4d6ecd4a99" x="386.234182" y="207.023298" style="fill: #daa520; stroke: #daa520"/>
     <use xlink:href="#m4d6ecd4a99" x="173.894226" y="238.019205" style="fill: #daa520; stroke: #daa520"/>
     <use xlink:href="#m4d6ecd4a99" x="137.577232" y="216.594354" style="fill: #daa520; stroke: #daa520"/>
     <use xlink:href="#m4d6ecd4a99" x="97.281522" y="254.174567" style="fill: #daa520; stroke: #daa520"/>
     <use xlink:href="#m4d6ecd4a99" x="119.2781" y="223.521644" style="fill: #daa520; stroke: #daa520"/>
     <use xlink:href="#m4d6ecd4a99" x="163.672749" y="225.035647" style="fill: #daa520; stroke: #daa520"/>
     <use xlink:href="#m4d6ecd4a99" x="172.023906" y="237.682609" style="fill: #daa520; stroke: #daa520"/>
     <use xlink:href="#m4d6ecd4a99" x="94.088752" y="224.086976" style="fill: #daa520; stroke: #daa520"/>
     <use xlink:href="#m4d6ecd4a99" x="179.478392" y="227.526653" style="fill: #daa520; stroke: #daa520"/>
    </g>
   </g>
   <g id="matplotlib.axis_5">
    <g id="xtick_1">
     <g id="line2d_10">
      <defs>
       <path id="me335921b27" d="M 0 0 
L 0 3.5 
" style="stroke: #696969; stroke-width: 0.8"/>
      </defs>
      <g>
       <use xlink:href="#me335921b27" x="55.888409" y="276.68" style="fill: #696969; stroke: #696969; stroke-width: 0.8"/>
      </g>
     </g>
     <g id="text_4">
      <!-- −1.0 -->
      <g style="fill: #696969" transform="translate(36.462159 295.8375) scale(0.16 -0.16)">
       <defs>
        <path id="DejaVuSans-31" d="M 794 531 
L 1825 531 
L 1825 4091 
L 703 3866 
L 703 4441 
L 1819 4666 
L 2450 4666 
L 2450 531 
L 3481 531 
L 3481 0 
L 794 0 
L 794 531 
z
" transform="scale(0.015625)"/>
        <path id="DejaVuSans-2e" d="M 684 794 
L 1344 794 
L 1344 0 
L 684 0 
L 684 794 
z
" transform="scale(0.015625)"/>
       </defs>
       <use xlink:href="#DejaVuSans-2212"/>
       <use xlink:href="#DejaVuSans-31" x="83.789062"/>
       <use xlink:href="#DejaVuSans-2e" x="147.412109"/>
       <use xlink:href="#DejaVuSans-30" x="179.199219"/>
      </g>
     </g>
    </g>
    <g id="xtick_2">
     <g id="line2d_11">
      <g>
       <use xlink:href="#me335921b27" x="146.392955" y="276.68" style="fill: #696969; stroke: #696969; stroke-width: 0.8"/>
      </g>
     </g>
     <g id="text_5">
      <!-- −0.5 -->
      <g style="fill: #696969" transform="translate(126.966705 295.8375) scale(0.16 -0.16)">
       <use xlink:href="#DejaVuSans-2212"/>
       <use xlink:href="#DejaVuSans-30" x="83.789062"/>
       <use xlink:href="#DejaVuSans-2e" x="147.412109"/>
       <use xlink:href="#DejaVuSans-35" x="179.199219"/>
      </g>
     </g>
    </g>
    <g id="xtick_3">
     <g id="line2d_12">
      <g>
       <use xlink:href="#me335921b27" x="236.8975" y="276.68" style="fill: #696969; stroke: #696969; stroke-width: 0.8"/>
      </g>
     </g>
     <g id="text_6">
      <!-- 0.0 -->
      <g style="fill: #696969" transform="translate(224.175 295.8375) scale(0.16 -0.16)">
       <use xlink:href="#DejaVuSans-30"/>
       <use xlink:href="#DejaVuSans-2e" x="63.623047"/>
       <use xlink:href="#DejaVuSans-30" x="95.410156"/>
      </g>
     </g>
    </g>
    <g id="xtick_4">
     <g id="line2d_13">
      <g>
       <use xlink:href="#me335921b27" x="327.402045" y="276.68" style="fill: #696969; stroke: #696969; stroke-width: 0.8"/>
      </g>
     </g>
     <g id="text_7">
      <!-- 0.5 -->
      <g style="fill: #696969" transform="translate(314.679545 295.8375) scale(0.16 -0.16)">
       <use xlink:href="#DejaVuSans-30"/>
       <use xlink:href="#DejaVuSans-2e" x="63.623047"/>
       <use xlink:href="#DejaVuSans-35" x="95.410156"/>
      </g>
     </g>
    </g>
    <g id="xtick_5">
     <g id="line2d_14">
      <g>
       <use xlink:href="#me335921b27" x="417.906591" y="276.68" style="fill: #696969; stroke: #696969; stroke-width: 0.8"/>
      </g>
     </g>
     <g id="text_8">
      <!-- 1.0 -->
      <g style="fill: #696969" transform="translate(405.184091 295.8375) scale(0.16 -0.16)">
       <use xlink:href="#DejaVuSans-31"/>
       <use xlink:href="#DejaVuSans-2e" x="63.623047"/>
       <use xlink:href="#DejaVuSans-30" x="95.410156"/>
      </g>
     </g>
    </g>
    <g id="text_9">
     <!-- $X$ -->
     <g transform="translate(231.3775 315.3225) scale(0.16 -0.16)">
      <defs>
       <path id="DejaVuSans-Oblique-58" d="M 878 4666 
L 1516 4666 
L 2316 2981 
L 3763 4666 
L 4500 4666 
L 2578 2438 
L 3738 0 
L 3103 0 
L 2163 1966 
L 459 0 
L -275 0 
L 1906 2509 
L 878 4666 
z
" transform="scale(0.015625)"/>
      </defs>
      <use xlink:href="#DejaVuSans-Oblique-58" transform="translate(0 0.09375)"/>
     </g>
    </g>
   </g>
   <g id="matplotlib.axis_6">
    <g id="ytick_4">
     <g id="line2d_15">
      <g>
       <use xlink:href="#m18d3cb7c13" x="37.7875" y="265.538847" style="fill: #696969; stroke: #696969; stroke-width: 0.8"/>
      </g>
     </g>
     <g id="text_10">
      <!-- −5 -->
      <g style="fill: #696969" transform="translate(7.2 271.617597) scale(0.16 -0.16)">
       <use xlink:href="#DejaVuSans-2212"/>
       <use xlink:href="#DejaVuSans-35" x="83.789062"/>
      </g>
     </g>
    </g>
    <g id="ytick_5">
     <g id="line2d_16">
      <g>
       <use xlink:href="#m18d3cb7c13" x="37.7875" y="235.996287" style="fill: #696969; stroke: #696969; stroke-width: 0.8"/>
      </g>
     </g>
     <g id="text_11">
      <!-- 0 -->
      <g style="fill: #696969" transform="translate(20.6075 242.075037) scale(0.16 -0.16)">
       <use xlink:href="#DejaVuSans-30"/>
      </g>
     </g>
    </g>
    <g id="ytick_6">
     <g id="line2d_17">
      <g>
       <use xlink:href="#m18d3cb7c13" x="37.7875" y="206.453726" style="fill: #696969; stroke: #696969; stroke-width: 0.8"/>
      </g>
     </g>
     <g id="text_12">
      <!-- 5 -->
      <g style="fill: #696969" transform="translate(20.6075 212.532476) scale(0.16 -0.16)">
       <use xlink:href="#DejaVuSans-35"/>
      </g>
     </g>
    </g>
   </g>
   <g id="line2d_18">
    <path d="M 55.888409 227.687612 
L 63.128773 228.835083 
L 70.369136 228.98797 
L 77.6095 228.14146 
L 84.849864 228.268902 
L 92.090227 229.593908 
L 99.330591 231.060111 
L 106.570955 232.02334 
L 113.811318 232.402479 
L 121.051682 232.486238 
L 128.292045 232.688981 
L 135.532409 233.261091 
L 142.772773 233.977897 
L 150.013136 234.288436 
L 157.2535 234.132864 
L 164.493864 234.101084 
L 171.734227 234.455187 
L 178.974591 234.735831 
L 186.214955 234.831821 
L 193.455318 235.118787 
L 200.695682 235.688561 
L 207.936045 236.215097 
L 215.176409 236.309309 
L 222.416773 235.918723 
L 229.657136 235.256465 
L 236.8975 234.467148 
L 244.137864 233.643799 
L 251.378227 232.957861 
L 258.618591 232.563817 
L 265.858955 232.400768 
L 273.099318 232.219401 
L 280.339682 231.968629 
L 287.580045 231.961228 
L 294.820409 232.399735 
L 302.060773 233.185207 
L 309.301136 233.824315 
L 316.5415 233.668999 
L 323.781864 232.713891 
L 331.022227 231.35058 
L 338.262591 229.997523 
L 345.502955 229.02848 
L 352.743318 228.701624 
L 359.983682 229.066734 
L 367.224045 229.926186 
L 374.464409 230.900956 
L 381.704773 231.590378 
L 388.945136 231.753845 
L 396.1855 231.421762 
L 403.425864 230.877405 
L 410.666227 230.521176 
L 417.906591 230.690242 
" clip-path="url(#p83677def07)" style="fill: none; stroke: #696969; stroke-width: 2; stroke-linecap: square"/>
   </g>
   <g id="line2d_19">
    <path d="M 55.888409 222.544056 
L 63.128773 224.326358 
L 70.369136 225.925734 
L 77.6095 227.35435 
L 84.849864 228.624378 
L 92.090227 229.747847 
L 99.330591 230.736499 
L 106.570955 231.60169 
L 113.811318 232.35429 
L 121.051682 233.004619 
L 128.292045 233.562395 
L 135.532409 234.036695 
L 142.772773 234.435935 
L 150.013136 234.767862 
L 157.2535 235.039558 
L 164.493864 235.257452 
L 171.734227 235.427344 
L 178.974591 235.554433 
L 186.214955 235.643351 
L 193.455318 235.6982 
L 200.695682 235.722593 
L 207.936045 235.719696 
L 215.176409 235.692266 
L 222.416773 235.642689 
L 229.657136 235.573012 
L 236.8975 235.484973 
L 244.137864 235.38002 
L 251.378227 235.259321 
L 258.618591 235.123766 
L 265.858955 234.973959 
L 273.099318 234.810191 
L 280.339682 234.632401 
L 287.580045 234.440119 
L 294.820409 234.232394 
L 302.060773 234.007702 
L 309.301136 233.763825 
L 316.5415 233.497717 
L 323.781864 233.205342 
L 331.022227 232.881481 
L 338.262591 232.519523 
L 345.502955 232.111212 
L 352.743318 231.646377 
L 359.983682 231.112621 
L 367.224045 230.494978 
L 374.464409 229.775536 
L 381.704773 228.933026 
L 388.945136 227.942362 
L 396.1855 226.774154 
L 403.425864 225.394169 
L 410.666227 223.762755 
L 417.906591 221.834217 
" clip-path="url(#p83677def07)" style="fill: none; stroke-dasharray: 7.4,3.2; stroke-dashoffset: 0; stroke: #79ad41; stroke-width: 2"/>
   </g>
   <g id="patch_9">
    <path d="M 37.7875 276.68 
L 37.7875 181.688 
" style="fill: none; stroke: #000000; stroke-width: 0.8; stroke-linejoin: miter; stroke-linecap: square"/>
   </g>
   <g id="patch_10">
    <path d="M 436.0075 276.68 
L 436.0075 181.688 
" style="fill: none; stroke: #000000; stroke-width: 0.8; stroke-linejoin: miter; stroke-linecap: square"/>
   </g>
   <g id="patch_11">
    <path d="M 37.7875 276.68 
L 436.0075 276.68 
" style="fill: none; stroke: #000000; stroke-width: 0.8; stroke-linejoin: miter; stroke-linecap: square"/>
   </g>
   <g id="patch_12">
    <path d="M 37.7875 181.688 
L 436.0075 181.688 
" style="fill: none; stroke: #000000; stroke-width: 0.8; stroke-linejoin: miter; stroke-linecap: square"/>
   </g>
  </g>
 </g>
 <defs>
  <clipPath id="paab9aa5bc7">
   <rect x="37.7875" y="7.2" width="398.22" height="47.496"/>
  </clipPath>
  <clipPath id="p0afaf5b1c0">
   <rect x="37.7875" y="70.696" width="398.22" height="94.992"/>
  </clipPath>
  <clipPath id="p83677def07">
   <rect x="37.7875" y="181.688" width="398.22" height="94.992"/>
  </clipPath>
 </defs>
</svg>
