<?xml version="1.0" encoding="utf-8" standalone="no"?>
<!DOCTYPE svg PUBLIC "-//W3C//DTD SVG 1.1//EN"
  "http://www.w3.org/Graphics/SVG/1.1/DTD/svg11.dtd">
<svg xmlns:xlink="http://www.w3.org/1999/xlink" width="443.2625pt" height="325.85pt" viewBox="0 0 443.2625 325.85" xmlns="http://www.w3.org/2000/svg" version="1.1">
 <metadata>
  <rdf:RDF xmlns:dc="http://purl.org/dc/elements/1.1/" xmlns:cc="http://creativecommons.org/ns#" xmlns:rdf="http://www.w3.org/1999/02/22-rdf-syntax-ns#">
   <cc:Work>
    <dc:type rdf:resource="http://purl.org/dc/dcmitype/StillImage"/>
    <dc:date>2024-01-28T20:58:25.776855</dc:date>
    <dc:format>image/svg+xml</dc:format>
    <dc:creator>
     <cc:Agent>
      <dc:title>Matplotlib v3.7.2, https://matplotlib.org/</dc:title>
     </cc:Agent>
    </dc:creator>
   </cc:Work>
  </rdf:RDF>
 </metadata>
 <defs>
  <style type="text/css">*{stroke-linejoin: round; stroke-linecap: butt}</style>
 </defs>
 <g id="figure_1">
  <g id="patch_1">
   <path d="M 0 325.85 
L 443.2625 325.85 
L 443.2625 0 
L 0 0 
z
" style="fill: #ffffff"/>
  </g>
  <g id="axes_1">
   <g id="patch_2">
    <path d="M 53.0525 54.576276 
L 436.0625 54.576276 
L 436.0625 7.2 
L 53.0525 7.2 
z
" style="fill: #ffffff"/>
   </g>
   <g id="PolyCollection_1">
    <defs>
     <path id="ma5588caa8a" d="M 70.462045 -273.427192 
L 70.462045 -279.420524 
L 77.425864 -280.085292 
L 84.389682 -280.814031 
L 91.3535 -281.606952 
L 98.317318 -282.462424 
L 105.281136 -283.376674 
L 112.244955 -284.343602 
L 119.208773 -285.354734 
L 126.172591 -286.399344 
L 133.136409 -287.464759 
L 140.100227 -288.53683 
L 147.064045 -289.600503 
L 154.027864 -290.640517 
L 160.991682 -291.642015 
L 167.9555 -292.591175 
L 174.919318 -293.475674 
L 181.883136 -294.28499 
L 188.846955 -295.010632 
L 195.810773 -295.646126 
L 202.774591 -296.186979 
L 209.738409 -296.630531 
L 216.702227 -296.975761 
L 223.666045 -297.223102 
L 230.629864 -297.374277 
L 237.593682 -297.432114 
L 244.5575 -297.40045 
L 251.521318 -297.28403 
L 258.485136 -297.088424 
L 265.448955 -296.819988 
L 272.412773 -296.485776 
L 279.376591 -296.09351 
L 286.340409 -295.651443 
L 293.304227 -295.168287 
L 300.268045 -294.653031 
L 307.231864 -294.114833 
L 314.195682 -293.562792 
L 321.1595 -293.005814 
L 328.123318 -292.452403 
L 335.087136 -291.910557 
L 342.050955 -291.387618 
L 349.014773 -290.890186 
L 355.978591 -290.424119 
L 362.942409 -289.994487 
L 369.906227 -289.605633 
L 376.870045 -289.261203 
L 383.833864 -288.964274 
L 390.797682 -288.717419 
L 397.7615 -288.52281 
L 404.725318 -288.382345 
L 411.689136 -288.297717 
L 418.652955 -288.270521 
L 418.652955 -273.427192 
L 418.652955 -273.427192 
L 411.689136 -273.427192 
L 404.725318 -273.427192 
L 397.7615 -273.427192 
L 390.797682 -273.427192 
L 383.833864 -273.427192 
L 376.870045 -273.427192 
L 369.906227 -273.427192 
L 362.942409 -273.427192 
L 355.978591 -273.427192 
L 349.014773 -273.427192 
L 342.050955 -273.427192 
L 335.087136 -273.427192 
L 328.123318 -273.427192 
L 321.1595 -273.427192 
L 314.195682 -273.427192 
L 307.231864 -273.427192 
L 300.268045 -273.427192 
L 293.304227 -273.427192 
L 286.340409 -273.427192 
L 279.376591 -273.427192 
L 272.412773 -273.427192 
L 265.448955 -273.427192 
L 258.485136 -273.427192 
L 251.521318 -273.427192 
L 244.5575 -273.427192 
L 237.593682 -273.427192 
L 230.629864 -273.427192 
L 223.666045 -273.427192 
L 216.702227 -273.427192 
L 209.738409 -273.427192 
L 202.774591 -273.427192 
L 195.810773 -273.427192 
L 188.846955 -273.427192 
L 181.883136 -273.427192 
L 174.919318 -273.427192 
L 167.9555 -273.427192 
L 160.991682 -273.427192 
L 154.027864 -273.427192 
L 147.064045 -273.427192 
L 140.100227 -273.427192 
L 133.136409 -273.427192 
L 126.172591 -273.427192 
L 119.208773 -273.427192 
L 112.244955 -273.427192 
L 105.281136 -273.427192 
L 98.317318 -273.427192 
L 91.3535 -273.427192 
L 84.389682 -273.427192 
L 77.425864 -273.427192 
L 70.462045 -273.427192 
z
" style="stroke: #dc143c; stroke-opacity: 0.2"/>
    </defs>
    <g clip-path="url(#p7f119b7611)">
     <use xlink:href="#ma5588caa8a" x="0" y="325.85" style="fill: #dc143c; fill-opacity: 0.2; stroke: #dc143c; stroke-opacity: 0.2"/>
    </g>
   </g>
   <g id="PolyCollection_2">
    <defs>
     <path id="mfac963305e" d="M 70.462045 -273.427192 
L 70.462045 -316.496533 
L 77.425864 -315.831765 
L 84.389682 -315.103026 
L 91.3535 -314.310105 
L 98.317318 -313.454632 
L 105.281136 -312.540382 
L 112.244955 -311.573454 
L 119.208773 -310.562322 
L 126.172591 -309.517713 
L 133.136409 -308.452297 
L 140.100227 -307.380227 
L 147.064045 -306.316553 
L 154.027864 -305.27654 
L 160.991682 -304.275042 
L 167.9555 -303.325882 
L 174.919318 -302.441382 
L 181.883136 -301.632067 
L 188.846955 -300.906424 
L 195.810773 -300.270931 
L 202.774591 -299.730078 
L 209.738409 -299.286525 
L 216.702227 -298.941296 
L 223.666045 -298.693955 
L 230.629864 -298.54278 
L 237.593682 -298.484942 
L 244.5575 -298.516607 
L 251.521318 -298.633026 
L 258.485136 -298.828632 
L 265.448955 -299.097069 
L 272.412773 -299.431281 
L 279.376591 -299.823546 
L 286.340409 -300.265614 
L 293.304227 -300.74877 
L 300.268045 -301.264025 
L 307.231864 -301.802223 
L 314.195682 -302.354264 
L 321.1595 -302.911243 
L 328.123318 -303.464654 
L 335.087136 -304.0065 
L 342.050955 -304.529438 
L 349.014773 -305.02687 
L 355.978591 -305.492938 
L 362.942409 -305.92257 
L 369.906227 -306.311424 
L 376.870045 -306.655853 
L 383.833864 -306.952782 
L 390.797682 -307.199637 
L 397.7615 -307.394247 
L 404.725318 -307.534711 
L 411.689136 -307.61934 
L 418.652955 -307.646536 
L 418.652955 -273.427192 
L 418.652955 -273.427192 
L 411.689136 -273.427192 
L 404.725318 -273.427192 
L 397.7615 -273.427192 
L 390.797682 -273.427192 
L 383.833864 -273.427192 
L 376.870045 -273.427192 
L 369.906227 -273.427192 
L 362.942409 -273.427192 
L 355.978591 -273.427192 
L 349.014773 -273.427192 
L 342.050955 -273.427192 
L 335.087136 -273.427192 
L 328.123318 -273.427192 
L 321.1595 -273.427192 
L 314.195682 -273.427192 
L 307.231864 -273.427192 
L 300.268045 -273.427192 
L 293.304227 -273.427192 
L 286.340409 -273.427192 
L 279.376591 -273.427192 
L 272.412773 -273.427192 
L 265.448955 -273.427192 
L 258.485136 -273.427192 
L 251.521318 -273.427192 
L 244.5575 -273.427192 
L 237.593682 -273.427192 
L 230.629864 -273.427192 
L 223.666045 -273.427192 
L 216.702227 -273.427192 
L 209.738409 -273.427192 
L 202.774591 -273.427192 
L 195.810773 -273.427192 
L 188.846955 -273.427192 
L 181.883136 -273.427192 
L 174.919318 -273.427192 
L 167.9555 -273.427192 
L 160.991682 -273.427192 
L 154.027864 -273.427192 
L 147.064045 -273.427192 
L 140.100227 -273.427192 
L 133.136409 -273.427192 
L 126.172591 -273.427192 
L 119.208773 -273.427192 
L 112.244955 -273.427192 
L 105.281136 -273.427192 
L 98.317318 -273.427192 
L 91.3535 -273.427192 
L 84.389682 -273.427192 
L 77.425864 -273.427192 
L 70.462045 -273.427192 
z
" style="stroke: #000080; stroke-opacity: 0.2"/>
    </defs>
    <g clip-path="url(#p7f119b7611)">
     <use xlink:href="#mfac963305e" x="0" y="325.85" style="fill: #000080; fill-opacity: 0.2; stroke: #000080; stroke-opacity: 0.2"/>
    </g>
   </g>
   <g id="matplotlib.axis_1"/>
   <g id="matplotlib.axis_2"/>
   <g id="line2d_1">
    <path d="M 70.462045 46.429476 
L 77.425864 45.764708 
L 84.389682 45.035969 
L 91.3535 44.243048 
L 98.317318 43.387576 
L 105.281136 42.473326 
L 112.244955 41.506398 
L 119.208773 40.495266 
L 126.172591 39.450656 
L 133.136409 38.385241 
L 140.100227 37.31317 
L 147.064045 36.249497 
L 154.027864 35.209483 
L 160.991682 34.207985 
L 167.9555 33.258825 
L 174.919318 32.374326 
L 181.883136 31.56501 
L 188.846955 30.839368 
L 195.810773 30.203874 
L 202.774591 29.663021 
L 209.738409 29.219469 
L 216.702227 28.874239 
L 223.666045 28.626898 
L 230.629864 28.475723 
L 237.593682 28.417886 
L 244.5575 28.44955 
L 251.521318 28.56597 
L 258.485136 28.761576 
L 265.448955 29.030012 
L 272.412773 29.364224 
L 279.376591 29.75649 
L 286.340409 30.198557 
L 293.304227 30.681713 
L 300.268045 31.196969 
L 307.231864 31.735167 
L 314.195682 32.287208 
L 321.1595 32.844186 
L 328.123318 33.397597 
L 335.087136 33.939443 
L 342.050955 34.462382 
L 349.014773 34.959814 
L 355.978591 35.425881 
L 362.942409 35.855513 
L 369.906227 36.244367 
L 376.870045 36.588797 
L 383.833864 36.885726 
L 390.797682 37.132581 
L 397.7615 37.32719 
L 404.725318 37.467655 
L 411.689136 37.552283 
L 418.652955 37.579479 
" clip-path="url(#p7f119b7611)" style="fill: none; stroke: #dc143c; stroke-width: 1.5; stroke-linecap: square"/>
   </g>
   <g id="line2d_2">
    <path d="M 70.462045 9.353467 
L 77.425864 10.018235 
L 84.389682 10.746974 
L 91.3535 11.539895 
L 98.317318 12.395368 
L 105.281136 13.309618 
L 112.244955 14.276546 
L 119.208773 15.287678 
L 126.172591 16.332287 
L 133.136409 17.397703 
L 140.100227 18.469773 
L 147.064045 19.533447 
L 154.027864 20.57346 
L 160.991682 21.574958 
L 167.9555 22.524118 
L 174.919318 23.408618 
L 181.883136 24.217933 
L 188.846955 24.943576 
L 195.810773 25.579069 
L 202.774591 26.119922 
L 209.738409 26.563475 
L 216.702227 26.908704 
L 223.666045 27.156045 
L 230.629864 27.30722 
L 237.593682 27.365058 
L 244.5575 27.333393 
L 251.521318 27.216974 
L 258.485136 27.021368 
L 265.448955 26.752931 
L 272.412773 26.418719 
L 279.376591 26.026454 
L 286.340409 25.584386 
L 293.304227 25.10123 
L 300.268045 24.585975 
L 307.231864 24.047777 
L 314.195682 23.495736 
L 321.1595 22.938757 
L 328.123318 22.385346 
L 335.087136 21.8435 
L 342.050955 21.320562 
L 349.014773 20.82313 
L 355.978591 20.357062 
L 362.942409 19.92743 
L 369.906227 19.538576 
L 376.870045 19.194147 
L 383.833864 18.897218 
L 390.797682 18.650363 
L 397.7615 18.455753 
L 404.725318 18.315289 
L 411.689136 18.23066 
L 418.652955 18.203464 
" clip-path="url(#p7f119b7611)" style="fill: none; stroke: #000080; stroke-width: 1.5; stroke-linecap: square"/>
   </g>
  </g>
  <g id="axes_2">
   <g id="patch_3">
    <path d="M 53.0525 165.628138 
L 436.0625 165.628138 
L 436.0625 70.875587 
L 53.0525 70.875587 
z
" style="fill: #ffffff"/>
   </g>
   <g id="PathCollection_1">
    <defs>
     <path id="m2866280648" d="M 0 0.866025 
C 0.229673 0.866025 0.449969 0.774776 0.612372 0.612372 
C 0.774776 0.449969 0.866025 0.229673 0.866025 0 
C 0.866025 -0.229673 0.774776 -0.449969 0.612372 -0.612372 
C 0.449969 -0.774776 0.229673 -0.866025 0 -0.866025 
C -0.229673 -0.866025 -0.449969 -0.774776 -0.612372 -0.612372 
C -0.774776 -0.449969 -0.866025 -0.229673 -0.866025 0 
C -0.866025 0.229673 -0.774776 0.449969 -0.612372 0.612372 
C -0.449969 0.774776 -0.229673 0.866025 0 0.866025 
z
" style="stroke: #daa520"/>
    </defs>
    <g clip-path="url(#pa224e07c2d)">
     <use xlink:href="#m2866280648" x="166.63256" y="125.748384" style="fill: #daa520; stroke: #daa520"/>
     <use xlink:href="#m2866280648" x="193.763577" y="110.142236" style="fill: #daa520; stroke: #daa520"/>
     <use xlink:href="#m2866280648" x="231.838622" y="144.873795" style="fill: #daa520; stroke: #daa520"/>
     <use xlink:href="#m2866280648" x="403.326461" y="91.056846" style="fill: #daa520; stroke: #daa520"/>
     <use xlink:href="#m2866280648" x="223.562291" y="141.749986" style="fill: #daa520; stroke: #daa520"/>
     <use xlink:href="#m2866280648" x="97.111171" y="101.75965" style="fill: #daa520; stroke: #daa520"/>
     <use xlink:href="#m2866280648" x="363.339523" y="143.831795" style="fill: #daa520; stroke: #daa520"/>
     <use xlink:href="#m2866280648" x="265.398887" y="92.2025" style="fill: #daa520; stroke: #daa520"/>
     <use xlink:href="#m2866280648" x="233.246732" y="97.49352" style="fill: #daa520; stroke: #daa520"/>
     <use xlink:href="#m2866280648" x="308.259145" y="94.437521" style="fill: #daa520; stroke: #daa520"/>
     <use xlink:href="#m2866280648" x="224.469098" y="107.636103" style="fill: #daa520; stroke: #daa520"/>
     <use xlink:href="#m2866280648" x="417.113071" y="141.731977" style="fill: #daa520; stroke: #daa520"/>
     <use xlink:href="#m2866280648" x="203.939375" y="121.476861" style="fill: #daa520; stroke: #daa520"/>
     <use xlink:href="#m2866280648" x="232.752728" y="145.305212" style="fill: #daa520; stroke: #daa520"/>
     <use xlink:href="#m2866280648" x="194.441756" y="112.031244" style="fill: #daa520; stroke: #daa520"/>
     <use xlink:href="#m2866280648" x="305.552568" y="92.988188" style="fill: #daa520; stroke: #daa520"/>
     <use xlink:href="#m2866280648" x="331.704134" y="113.537718" style="fill: #daa520; stroke: #daa520"/>
     <use xlink:href="#m2866280648" x="106.663492" y="117.710977" style="fill: #daa520; stroke: #daa520"/>
     <use xlink:href="#m2866280648" x="389.702241" y="155.082452" style="fill: #daa520; stroke: #daa520"/>
     <use xlink:href="#m2866280648" x="87.98063" y="119.105376" style="fill: #daa520; stroke: #daa520"/>
     <use xlink:href="#m2866280648" x="167.75385" y="130.968155" style="fill: #daa520; stroke: #daa520"/>
     <use xlink:href="#m2866280648" x="207.285945" y="119.427819" style="fill: #daa520; stroke: #daa520"/>
     <use xlink:href="#m2866280648" x="299.906379" y="159.842752" style="fill: #daa520; stroke: #daa520"/>
     <use xlink:href="#m2866280648" x="348.041403" y="104.147897" style="fill: #daa520; stroke: #daa520"/>
     <use xlink:href="#m2866280648" x="404.827142" y="102.289042" style="fill: #daa520; stroke: #daa520"/>
     <use xlink:href="#m2866280648" x="85.260815" y="118.619319" style="fill: #daa520; stroke: #daa520"/>
     <use xlink:href="#m2866280648" x="213.744178" y="128.251555" style="fill: #daa520; stroke: #daa520"/>
     <use xlink:href="#m2866280648" x="265.000205" y="150.945294" style="fill: #daa520; stroke: #daa520"/>
     <use xlink:href="#m2866280648" x="264.801206" y="117.528713" style="fill: #daa520; stroke: #daa520"/>
     <use xlink:href="#m2866280648" x="138.118611" y="88.686073" style="fill: #daa520; stroke: #daa520"/>
     <use xlink:href="#m2866280648" x="76.230877" y="121.44735" style="fill: #daa520; stroke: #daa520"/>
     <use xlink:href="#m2866280648" x="236.895921" y="135.353375" style="fill: #daa520; stroke: #daa520"/>
     <use xlink:href="#m2866280648" x="137.117561" y="88.504457" style="fill: #daa520; stroke: #daa520"/>
     <use xlink:href="#m2866280648" x="353.447416" y="104.090468" style="fill: #daa520; stroke: #daa520"/>
     <use xlink:href="#m2866280648" x="142.481266" y="132.156804" style="fill: #daa520; stroke: #daa520"/>
     <use xlink:href="#m2866280648" x="364.060659" y="99.183204" style="fill: #daa520; stroke: #daa520"/>
     <use xlink:href="#m2866280648" x="294.869745" y="118.521988" style="fill: #daa520; stroke: #daa520"/>
     <use xlink:href="#m2866280648" x="286.215387" y="104.073298" style="fill: #daa520; stroke: #daa520"/>
     <use xlink:href="#m2866280648" x="138.118199" y="97.407866" style="fill: #daa520; stroke: #daa520"/>
     <use xlink:href="#m2866280648" x="138.100935" y="82.675542" style="fill: #daa520; stroke: #daa520"/>
     <use xlink:href="#m2866280648" x="278.896583" y="161.321204" style="fill: #daa520; stroke: #daa520"/>
     <use xlink:href="#m2866280648" x="139.216463" y="132.64864" style="fill: #daa520; stroke: #daa520"/>
     <use xlink:href="#m2866280648" x="248.059864" y="103.585038" style="fill: #daa520; stroke: #daa520"/>
     <use xlink:href="#m2866280648" x="169.650032" y="97.486916" style="fill: #daa520; stroke: #daa520"/>
     <use xlink:href="#m2866280648" x="399.355522" y="87.438802" style="fill: #daa520; stroke: #daa520"/>
     <use xlink:href="#m2866280648" x="215.305034" y="102.356091" style="fill: #daa520; stroke: #daa520"/>
     <use xlink:href="#m2866280648" x="163.979453" y="99.310315" style="fill: #daa520; stroke: #daa520"/>
     <use xlink:href="#m2866280648" x="365.823982" y="137.363743" style="fill: #daa520; stroke: #daa520"/>
     <use xlink:href="#m2866280648" x="417.583302" y="113.978359" style="fill: #daa520; stroke: #daa520"/>
     <use xlink:href="#m2866280648" x="87.113219" y="134.091159" style="fill: #daa520; stroke: #daa520"/>
     <use xlink:href="#m2866280648" x="320.761542" y="104.385527" style="fill: #daa520; stroke: #daa520"/>
     <use xlink:href="#m2866280648" x="177.010792" y="121.725397" style="fill: #daa520; stroke: #daa520"/>
     <use xlink:href="#m2866280648" x="150.984427" y="126.836115" style="fill: #daa520; stroke: #daa520"/>
     <use xlink:href="#m2866280648" x="132.601004" y="83.104068" style="fill: #daa520; stroke: #daa520"/>
     <use xlink:href="#m2866280648" x="291.372918" y="158.903408" style="fill: #daa520; stroke: #daa520"/>
     <use xlink:href="#m2866280648" x="220.179022" y="103.498568" style="fill: #daa520; stroke: #daa520"/>
     <use xlink:href="#m2866280648" x="226.110595" y="124.780516" style="fill: #daa520; stroke: #daa520"/>
     <use xlink:href="#m2866280648" x="270.244938" y="111.033314" style="fill: #daa520; stroke: #daa520"/>
     <use xlink:href="#m2866280648" x="417.030957" y="139.084727" style="fill: #daa520; stroke: #daa520"/>
     <use xlink:href="#m2866280648" x="111.868347" y="93.347469" style="fill: #daa520; stroke: #daa520"/>
     <use xlink:href="#m2866280648" x="191.554491" y="127.721704" style="fill: #daa520; stroke: #daa520"/>
     <use xlink:href="#m2866280648" x="136.418501" y="97.826254" style="fill: #daa520; stroke: #daa520"/>
     <use xlink:href="#m2866280648" x="335.096231" y="119.436649" style="fill: #daa520; stroke: #daa520"/>
     <use xlink:href="#m2866280648" x="198.600069" y="100.920604" style="fill: #daa520; stroke: #daa520"/>
     <use xlink:href="#m2866280648" x="366.538129" y="105.397434" style="fill: #daa520; stroke: #daa520"/>
     <use xlink:href="#m2866280648" x="230.119275" y="100.103571" style="fill: #daa520; stroke: #daa520"/>
     <use xlink:href="#m2866280648" x="179.30561" y="120.228575" style="fill: #daa520; stroke: #daa520"/>
     <use xlink:href="#m2866280648" x="170.516114" y="115.978578" style="fill: #daa520; stroke: #daa520"/>
     <use xlink:href="#m2866280648" x="192.966407" y="125.59984" style="fill: #daa520; stroke: #daa520"/>
     <use xlink:href="#m2866280648" x="159.977258" y="103.246205" style="fill: #daa520; stroke: #daa520"/>
     <use xlink:href="#m2866280648" x="233.312623" y="149.875869" style="fill: #daa520; stroke: #daa520"/>
     <use xlink:href="#m2866280648" x="414.787699" y="107.658783" style="fill: #daa520; stroke: #daa520"/>
     <use xlink:href="#m2866280648" x="289.645446" y="117.321661" style="fill: #daa520; stroke: #daa520"/>
     <use xlink:href="#m2866280648" x="290.537238" y="114.776525" style="fill: #daa520; stroke: #daa520"/>
     <use xlink:href="#m2866280648" x="337.862292" y="101.974112" style="fill: #daa520; stroke: #daa520"/>
     <use xlink:href="#m2866280648" x="239.967183" y="136.92497" style="fill: #daa520; stroke: #daa520"/>
     <use xlink:href="#m2866280648" x="126.675312" y="94.462165" style="fill: #daa520; stroke: #daa520"/>
     <use xlink:href="#m2866280648" x="138.157208" y="105.475725" style="fill: #daa520; stroke: #daa520"/>
     <use xlink:href="#m2866280648" x="413.07322" y="111.819157" style="fill: #daa520; stroke: #daa520"/>
     <use xlink:href="#m2866280648" x="170.127114" y="117.69405" style="fill: #daa520; stroke: #daa520"/>
     <use xlink:href="#m2866280648" x="219.333744" y="136.982153" style="fill: #daa520; stroke: #daa520"/>
     <use xlink:href="#m2866280648" x="186.619663" y="126.079922" style="fill: #daa520; stroke: #daa520"/>
     <use xlink:href="#m2866280648" x="189.390541" y="126.932125" style="fill: #daa520; stroke: #daa520"/>
     <use xlink:href="#m2866280648" x="356.327359" y="142.893116" style="fill: #daa520; stroke: #daa520"/>
     <use xlink:href="#m2866280648" x="190.109186" y="120.368996" style="fill: #daa520; stroke: #daa520"/>
     <use xlink:href="#m2866280648" x="122.858407" y="75.182521" style="fill: #daa520; stroke: #daa520"/>
     <use xlink:href="#m2866280648" x="404.502906" y="122.937359" style="fill: #daa520; stroke: #daa520"/>
     <use xlink:href="#m2866280648" x="274.919688" y="142.139966" style="fill: #daa520; stroke: #daa520"/>
     <use xlink:href="#m2866280648" x="160.878105" y="102.370479" style="fill: #daa520; stroke: #daa520"/>
     <use xlink:href="#m2866280648" x="332.213479" y="100.627054" style="fill: #daa520; stroke: #daa520"/>
     <use xlink:href="#m2866280648" x="222.948913" y="145.337484" style="fill: #daa520; stroke: #daa520"/>
     <use xlink:href="#m2866280648" x="309.372314" y="106.126925" style="fill: #daa520; stroke: #daa520"/>
     <use xlink:href="#m2866280648" x="224.088494" y="102.204836" style="fill: #daa520; stroke: #daa520"/>
     <use xlink:href="#m2866280648" x="117.978886" y="122.624827" style="fill: #daa520; stroke: #daa520"/>
     <use xlink:href="#m2866280648" x="278.938945" y="160.716916" style="fill: #daa520; stroke: #daa520"/>
     <use xlink:href="#m2866280648" x="346.04636" y="105.642097" style="fill: #daa520; stroke: #daa520"/>
     <use xlink:href="#m2866280648" x="240.855235" y="94.68857" style="fill: #daa520; stroke: #daa520"/>
     <use xlink:href="#m2866280648" x="339.212295" y="113.38477" style="fill: #daa520; stroke: #daa520"/>
     <use xlink:href="#m2866280648" x="331.135871" y="122.11994" style="fill: #daa520; stroke: #daa520"/>
     <use xlink:href="#m2866280648" x="73.843691" y="136.142805" style="fill: #daa520; stroke: #daa520"/>
     <use xlink:href="#m2866280648" x="321.390632" y="148.196169" style="fill: #daa520; stroke: #daa520"/>
     <use xlink:href="#m2866280648" x="274.218549" y="120.598689" style="fill: #daa520; stroke: #daa520"/>
     <use xlink:href="#m2866280648" x="325.352074" y="112.895392" style="fill: #daa520; stroke: #daa520"/>
     <use xlink:href="#m2866280648" x="346.811405" y="123.451556" style="fill: #daa520; stroke: #daa520"/>
     <use xlink:href="#m2866280648" x="382.689946" y="151.784636" style="fill: #daa520; stroke: #daa520"/>
     <use xlink:href="#m2866280648" x="224.118441" y="109.688989" style="fill: #daa520; stroke: #daa520"/>
     <use xlink:href="#m2866280648" x="143.730131" y="103.399088" style="fill: #daa520; stroke: #daa520"/>
    </g>
   </g>
   <g id="matplotlib.axis_3"/>
   <g id="matplotlib.axis_4">
    <g id="ytick_1">
     <g id="line2d_3">
      <defs>
       <path id="me530253d84" d="M 0 0 
L -3.5 0 
" style="stroke: #696969; stroke-width: 0.8"/>
      </defs>
      <g>
       <use xlink:href="#me530253d84" x="53.0525" y="129.990055" style="fill: #696969; stroke: #696969; stroke-width: 0.8"/>
      </g>
     </g>
     <g id="text_1">
      <!-- 0 -->
      <g style="fill: #696969" transform="translate(35.8725 136.068805) scale(0.16 -0.16)">
       <defs>
        <path id="DejaVuSans-30" d="M 2034 4250 
Q 1547 4250 1301 3770 
Q 1056 3291 1056 2328 
Q 1056 1369 1301 889 
Q 1547 409 2034 409 
Q 2525 409 2770 889 
Q 3016 1369 3016 2328 
Q 3016 3291 2770 3770 
Q 2525 4250 2034 4250 
z
M 2034 4750 
Q 2819 4750 3233 4129 
Q 3647 3509 3647 2328 
Q 3647 1150 3233 529 
Q 2819 -91 2034 -91 
Q 1250 -91 836 529 
Q 422 1150 422 2328 
Q 422 3509 836 4129 
Q 1250 4750 2034 4750 
z
" transform="scale(0.015625)"/>
       </defs>
       <use xlink:href="#DejaVuSans-30"/>
      </g>
     </g>
    </g>
    <g id="ytick_2">
     <g id="line2d_4">
      <g>
       <use xlink:href="#me530253d84" x="53.0525" y="77.110939" style="fill: #696969; stroke: #696969; stroke-width: 0.8"/>
      </g>
     </g>
     <g id="text_2">
      <!-- 5 -->
      <g style="fill: #696969" transform="translate(35.8725 83.189689) scale(0.16 -0.16)">
       <defs>
        <path id="DejaVuSans-35" d="M 691 4666 
L 3169 4666 
L 3169 4134 
L 1269 4134 
L 1269 2991 
Q 1406 3038 1543 3061 
Q 1681 3084 1819 3084 
Q 2600 3084 3056 2656 
Q 3513 2228 3513 1497 
Q 3513 744 3044 326 
Q 2575 -91 1722 -91 
Q 1428 -91 1123 -41 
Q 819 9 494 109 
L 494 744 
Q 775 591 1075 516 
Q 1375 441 1709 441 
Q 2250 441 2565 725 
Q 2881 1009 2881 1497 
Q 2881 1984 2565 2268 
Q 2250 2553 1709 2553 
Q 1456 2553 1204 2497 
Q 953 2441 691 2322 
L 691 4666 
z
" transform="scale(0.015625)"/>
       </defs>
       <use xlink:href="#DejaVuSans-35"/>
      </g>
     </g>
    </g>
   </g>
   <g id="line2d_5">
    <path d="M 70.462045 131.872753 
L 77.425864 129.014094 
L 84.389682 124.83965 
L 91.3535 119.900089 
L 98.317318 114.713229 
L 105.281136 109.734491 
L 112.244955 105.378015 
L 119.208773 102.03235 
L 126.172591 100.028456 
L 133.136409 99.562328 
L 140.100227 100.616148 
L 147.064045 102.93236 
L 154.027864 106.069534 
L 160.991682 109.523811 
L 167.9555 112.861753 
L 174.919318 115.801864 
L 181.883136 118.210273 
L 188.846955 120.027169 
L 195.810773 121.182498 
L 202.774591 121.563919 
L 209.738409 121.062637 
L 216.702227 119.670018 
L 223.666045 117.564855 
L 230.629864 115.135277 
L 237.593682 112.911223 
L 244.5575 111.422166 
L 251.521318 111.025598 
L 258.485136 111.76914 
L 265.448955 113.347926 
L 272.412773 115.191629 
L 279.376591 116.664342 
L 286.340409 117.304514 
L 293.304227 117.002873 
L 300.268045 116.036456 
L 307.231864 114.940528 
L 314.195682 114.275366 
L 321.1595 114.391852 
L 328.123318 115.29644 
L 335.087136 116.667214 
L 342.050955 118.005707 
L 349.014773 118.853509 
L 355.978591 118.981069 
L 362.942409 118.47371 
L 369.906227 117.688865 
L 376.870045 117.117292 
L 383.833864 117.221101 
L 390.797682 118.319923 
L 397.7615 120.554031 
L 404.725318 123.898891 
L 411.689136 128.181201 
L 418.652955 133.070744 
" clip-path="url(#pa224e07c2d)" style="fill: none; stroke: #000000; stroke-width: 2; stroke-linecap: square"/>
   </g>
   <g id="line2d_6">
    <path d="M 70.462045 135.553686 
L 77.425864 124.640828 
L 84.389682 117.060744 
L 91.3535 111.996263 
L 98.317318 108.809842 
L 105.281136 107.00785 
L 112.244955 106.211126 
L 119.208773 106.130871 
L 126.172591 106.54905 
L 133.136409 107.302588 
L 140.100227 108.270726 
L 147.064045 109.364991 
L 154.027864 110.52132 
L 160.991682 111.693918 
L 167.9555 112.850537 
L 174.919318 113.968869 
L 181.883136 115.033821 
L 188.846955 116.035488 
L 195.810773 116.96765 
L 202.774591 117.826673 
L 209.738409 118.610714 
L 216.702227 119.319154 
L 223.666045 119.952185 
L 230.629864 120.510523 
L 237.593682 120.995207 
L 244.5575 121.407453 
L 251.521318 121.748557 
L 258.485136 122.01983 
L 265.448955 122.22255 
L 272.412773 122.357944 
L 279.376591 122.427173 
L 286.340409 122.431337 
L 293.304227 122.371498 
L 300.268045 122.248716 
L 307.231864 122.064115 
L 314.195682 121.818997 
L 321.1595 121.515013 
L 328.123318 121.154431 
L 335.087136 120.740551 
L 342.050955 120.278309 
L 349.014773 119.775177 
L 355.978591 119.242431 
L 362.942409 118.696947 
L 369.906227 118.163675 
L 376.870045 117.678987 
L 383.833864 117.295167 
L 390.797682 117.086317 
L 397.7615 117.15604 
L 404.725318 117.647325 
L 411.689136 118.755097 
L 418.652955 120.742027 
" clip-path="url(#pa224e07c2d)" style="fill: none; stroke-dasharray: 7.4,3.2; stroke-dashoffset: 0; stroke: #34b6c6; stroke-width: 2"/>
   </g>
   <g id="line2d_7">
    <path d="M 70.462045 132.653807 
L 77.425864 126.048185 
L 84.389682 120.774577 
L 91.3535 116.231876 
L 98.317318 112.009283 
L 105.281136 108.105723 
L 112.244955 104.932881 
L 119.208773 102.854892 
L 126.172591 101.868508 
L 133.136409 101.782919 
L 140.100227 102.486521 
L 147.064045 104.074257 
L 154.027864 106.791433 
L 160.991682 110.534381 
L 167.9555 114.348916 
L 174.919318 117.366129 
L 181.883136 119.537553 
L 188.846955 121.085215 
L 195.810773 122.158557 
L 202.774591 122.812884 
L 209.738409 123.028775 
L 216.702227 122.765894 
L 223.666045 122.094341 
L 230.629864 121.282762 
L 237.593682 120.636412 
L 244.5575 120.27581 
L 251.521318 120.151153 
L 258.485136 120.166743 
L 265.448955 120.246829 
L 272.412773 120.344566 
L 279.376591 120.433683 
L 286.340409 120.500107 
L 293.304227 120.536668 
L 300.268045 120.540174 
L 307.231864 120.509886 
L 314.195682 120.446727 
L 321.1595 120.35285 
L 328.123318 120.231341 
L 335.087136 120.085929 
L 342.050955 119.920631 
L 349.014773 119.739332 
L 355.978591 119.545439 
L 362.942409 119.341909 
L 369.906227 119.132109 
L 376.870045 118.922051 
L 383.833864 118.72443 
L 390.797682 118.564558 
L 397.7615 118.487981 
L 404.725318 118.569358 
L 411.689136 118.922411 
L 418.652955 119.711083 
" clip-path="url(#pa224e07c2d)" style="fill: none; stroke-dasharray: 7.4,3.2; stroke-dashoffset: 0; stroke: #9370db; stroke-width: 2"/>
   </g>
   <g id="line2d_8">
    <path d="M 70.462045 126.276682 
L 77.425864 124.866976 
L 84.389682 122.844031 
L 91.3535 119.940884 
L 98.317318 116.036097 
L 105.281136 111.517737 
L 112.244955 107.312064 
L 119.208773 104.201072 
L 126.172591 102.350532 
L 133.136409 101.596977 
L 140.100227 101.864712 
L 147.064045 103.368014 
L 154.027864 106.531667 
L 160.991682 111.234182 
L 167.9555 116.04652 
L 174.919318 119.66218 
L 181.883136 122.020581 
L 188.846955 123.469829 
L 195.810773 124.244578 
L 202.774591 124.433994 
L 209.738409 124.011962 
L 216.702227 122.919594 
L 223.666045 121.26588 
L 230.629864 119.462301 
L 237.593682 117.976001 
L 244.5575 116.992316 
L 251.521318 116.436849 
L 258.485136 116.165316 
L 265.448955 116.064035 
L 272.412773 116.063636 
L 279.376591 116.126392 
L 286.340409 116.23348 
L 293.304227 116.376925 
L 300.268045 116.555148 
L 307.231864 116.77062 
L 314.195682 117.028598 
L 321.1595 117.336337 
L 328.123318 117.702414 
L 335.087136 118.135899 
L 342.050955 118.645223 
L 349.014773 119.236637 
L 355.978591 119.912383 
L 362.942409 120.668864 
L 369.906227 121.495384 
L 376.870045 122.374041 
L 383.833864 123.281184 
L 390.797682 124.190278 
L 397.7615 125.075475 
L 404.725318 125.914854 
L 411.689136 126.692514 
L 418.652955 127.399192 
" clip-path="url(#pa224e07c2d)" style="fill: none; stroke-dasharray: 12.8,3.2,2,3.2; stroke-dashoffset: 0; stroke: #ff0000; stroke-width: 2"/>
   </g>
   <g id="patch_4">
    <path d="M 53.0525 165.628138 
L 53.0525 70.875587 
" style="fill: none; stroke: #000000; stroke-width: 0.8; stroke-linejoin: miter; stroke-linecap: square"/>
   </g>
   <g id="patch_5">
    <path d="M 436.0625 165.628138 
L 436.0625 70.875587 
" style="fill: none; stroke: #000000; stroke-width: 0.8; stroke-linejoin: miter; stroke-linecap: square"/>
   </g>
   <g id="patch_6">
    <path d="M 53.0525 165.628138 
L 436.0625 165.628138 
" style="fill: none; stroke: #000000; stroke-width: 0.8; stroke-linejoin: miter; stroke-linecap: square"/>
   </g>
   <g id="patch_7">
    <path d="M 53.0525 70.875587 
L 436.0625 70.875587 
" style="fill: none; stroke: #000000; stroke-width: 0.8; stroke-linejoin: miter; stroke-linecap: square"/>
   </g>
  </g>
  <g id="axes_3">
   <g id="patch_8">
    <path d="M 53.0525 276.68 
L 436.0625 276.68 
L 436.0625 181.927449 
L 53.0525 181.927449 
z
" style="fill: #ffffff"/>
   </g>
   <g id="PathCollection_2">
    <g clip-path="url(#p63f3ff479a)">
     <use xlink:href="#m2866280648" x="166.63256" y="222.185918" style="fill: #daa520; stroke: #daa520"/>
     <use xlink:href="#m2866280648" x="193.763577" y="247.582927" style="fill: #daa520; stroke: #daa520"/>
     <use xlink:href="#m2866280648" x="231.838622" y="206.462126" style="fill: #daa520; stroke: #daa520"/>
     <use xlink:href="#m2866280648" x="403.326461" y="269.11609" style="fill: #daa520; stroke: #daa520"/>
     <use xlink:href="#m2866280648" x="223.562291" y="211.903132" style="fill: #daa520; stroke: #daa520"/>
     <use xlink:href="#m2866280648" x="97.111171" y="248.702829" style="fill: #daa520; stroke: #daa520"/>
     <use xlink:href="#m2866280648" x="363.339523" y="209.143178" style="fill: #daa520; stroke: #daa520"/>
     <use xlink:href="#m2866280648" x="265.398887" y="257.879009" style="fill: #daa520; stroke: #daa520"/>
     <use xlink:href="#m2866280648" x="233.246732" y="255.278855" style="fill: #daa520; stroke: #daa520"/>
     <use xlink:href="#m2866280648" x="308.259145" y="256.329655" style="fill: #daa520; stroke: #daa520"/>
     <use xlink:href="#m2866280648" x="224.469098" y="247.046139" style="fill: #daa520; stroke: #daa520"/>
     <use xlink:href="#m2866280648" x="417.113071" y="218.100869" style="fill: #daa520; stroke: #daa520"/>
     <use xlink:href="#m2866280648" x="203.939375" y="236.165705" style="fill: #daa520; stroke: #daa520"/>
     <use xlink:href="#m2866280648" x="232.752728" y="205.795011" style="fill: #daa520; stroke: #daa520"/>
     <use xlink:href="#m2866280648" x="194.441756" y="245.685941" style="fill: #daa520; stroke: #daa520"/>
     <use xlink:href="#m2866280648" x="305.552568" y="257.738939" style="fill: #daa520; stroke: #daa520"/>
     <use xlink:href="#m2866280648" x="331.704134" y="237.667349" style="fill: #daa520; stroke: #daa520"/>
     <use xlink:href="#m2866280648" x="106.663492" y="225.774785" style="fill: #daa520; stroke: #daa520"/>
     <use xlink:href="#m2866280648" x="389.702241" y="200.930512" style="fill: #daa520; stroke: #daa520"/>
     <use xlink:href="#m2866280648" x="87.98063" y="235.580096" style="fill: #daa520; stroke: #daa520"/>
     <use xlink:href="#m2866280648" x="167.75385" y="217.515325" style="fill: #daa520; stroke: #daa520"/>
     <use xlink:href="#m2866280648" x="207.285945" y="238.112042" style="fill: #daa520; stroke: #daa520"/>
     <use xlink:href="#m2866280648" x="299.906379" y="188.208489" style="fill: #daa520; stroke: #daa520"/>
     <use xlink:href="#m2866280648" x="348.041403" y="248.686884" style="fill: #daa520; stroke: #daa520"/>
     <use xlink:href="#m2866280648" x="404.827142" y="257.646444" style="fill: #daa520; stroke: #daa520"/>
     <use xlink:href="#m2866280648" x="85.260815" y="237.186312" style="fill: #daa520; stroke: #daa520"/>
     <use xlink:href="#m2866280648" x="213.744178" y="228.159782" style="fill: #daa520; stroke: #daa520"/>
     <use xlink:href="#m2866280648" x="265.000205" y="196.942695" style="fill: #daa520; stroke: #daa520"/>
     <use xlink:href="#m2866280648" x="264.801206" y="231.610132" style="fill: #daa520; stroke: #daa520"/>
     <use xlink:href="#m2866280648" x="138.118611" y="246.603002" style="fill: #daa520; stroke: #daa520"/>
     <use xlink:href="#m2866280648" x="76.230877" y="236.961296" style="fill: #daa520; stroke: #daa520"/>
     <use xlink:href="#m2866280648" x="236.895921" y="215.229349" style="fill: #daa520; stroke: #daa520"/>
     <use xlink:href="#m2866280648" x="137.117561" y="246.729758" style="fill: #daa520; stroke: #daa520"/>
     <use xlink:href="#m2866280648" x="353.447416" y="249.273655" style="fill: #daa520; stroke: #daa520"/>
     <use xlink:href="#m2866280648" x="142.481266" y="202.068325" style="fill: #daa520; stroke: #daa520"/>
     <use xlink:href="#m2866280648" x="364.060659" y="255.547174" style="fill: #daa520; stroke: #daa520"/>
     <use xlink:href="#m2866280648" x="294.869745" y="230.938152" style="fill: #daa520; stroke: #daa520"/>
     <use xlink:href="#m2866280648" x="286.215387" y="245.737512" style="fill: #daa520; stroke: #daa520"/>
     <use xlink:href="#m2866280648" x="138.118199" y="237.555093" style="fill: #daa520; stroke: #daa520"/>
     <use xlink:href="#m2866280648" x="138.100935" y="252.83696" style="fill: #daa520; stroke: #daa520"/>
     <use xlink:href="#m2866280648" x="278.896583" y="186.234383" style="fill: #daa520; stroke: #daa520"/>
     <use xlink:href="#m2866280648" x="139.216463" y="201.091878" style="fill: #daa520; stroke: #daa520"/>
     <use xlink:href="#m2866280648" x="248.059864" y="246.69776" style="fill: #daa520; stroke: #daa520"/>
     <use xlink:href="#m2866280648" x="169.650032" y="253.425591" style="fill: #daa520; stroke: #daa520"/>
     <use xlink:href="#m2866280648" x="399.355522" y="272.373066" style="fill: #daa520; stroke: #daa520"/>
     <use xlink:href="#m2866280648" x="215.305034" y="254.739598" style="fill: #daa520; stroke: #daa520"/>
     <use xlink:href="#m2866280648" x="163.979453" y="247.732183" style="fill: #daa520; stroke: #daa520"/>
     <use xlink:href="#m2866280648" x="365.823982" y="216.152853" style="fill: #daa520; stroke: #daa520"/>
     <use xlink:href="#m2866280648" x="417.583302" y="246.940016" style="fill: #daa520; stroke: #daa520"/>
     <use xlink:href="#m2866280648" x="87.113219" y="220.402223" style="fill: #daa520; stroke: #daa520"/>
     <use xlink:href="#m2866280648" x="320.761542" y="246.540254" style="fill: #daa520; stroke: #daa520"/>
     <use xlink:href="#m2866280648" x="177.010792" y="231.83979" style="fill: #daa520; stroke: #daa520"/>
     <use xlink:href="#m2866280648" x="150.984427" y="210.394472" style="fill: #daa520; stroke: #daa520"/>
     <use xlink:href="#m2866280648" x="132.601004" y="252.332421" style="fill: #daa520; stroke: #daa520"/>
     <use xlink:href="#m2866280648" x="291.372918" y="188.963721" style="fill: #daa520; stroke: #daa520"/>
     <use xlink:href="#m2866280648" x="220.179022" y="252.468302" style="fill: #daa520; stroke: #daa520"/>
     <use xlink:href="#m2866280648" x="226.110595" y="228.811643" style="fill: #daa520; stroke: #daa520"/>
     <use xlink:href="#m2866280648" x="270.244938" y="238.335185" style="fill: #daa520; stroke: #daa520"/>
     <use xlink:href="#m2866280648" x="417.030957" y="220.838696" style="fill: #daa520; stroke: #daa520"/>
     <use xlink:href="#m2866280648" x="111.868347" y="247.823165" style="fill: #daa520; stroke: #daa520"/>
     <use xlink:href="#m2866280648" x="191.554491" y="229.101697" style="fill: #daa520; stroke: #daa520"/>
     <use xlink:href="#m2866280648" x="136.418501" y="237.030105" style="fill: #daa520; stroke: #daa520"/>
     <use xlink:href="#m2866280648" x="335.096231" y="231.776286" style="fill: #daa520; stroke: #daa520"/>
     <use xlink:href="#m2866280648" x="198.600069" y="257.471897" style="fill: #daa520; stroke: #daa520"/>
     <use xlink:href="#m2866280648" x="366.538129" y="249.40208" style="fill: #daa520; stroke: #daa520"/>
     <use xlink:href="#m2866280648" x="230.119275" y="253.338189" style="fill: #daa520; stroke: #daa520"/>
     <use xlink:href="#m2866280648" x="179.30561" y="234.206733" style="fill: #daa520; stroke: #daa520"/>
     <use xlink:href="#m2866280648" x="170.516114" y="234.744334" style="fill: #daa520; stroke: #daa520"/>
     <use xlink:href="#m2866280648" x="192.966407" y="231.466363" style="fill: #daa520; stroke: #daa520"/>
     <use xlink:href="#m2866280648" x="159.977258" y="240.647863" style="fill: #daa520; stroke: #daa520"/>
     <use xlink:href="#m2866280648" x="233.312623" y="200.922842" style="fill: #daa520; stroke: #daa520"/>
     <use xlink:href="#m2866280648" x="414.787699" y="253.206005" style="fill: #daa520; stroke: #daa520"/>
     <use xlink:href="#m2866280648" x="289.645446" y="232.062306" style="fill: #daa520; stroke: #daa520"/>
     <use xlink:href="#m2866280648" x="290.537238" y="234.72184" style="fill: #daa520; stroke: #daa520"/>
     <use xlink:href="#m2866280648" x="337.862292" y="250.091766" style="fill: #daa520; stroke: #daa520"/>
     <use xlink:href="#m2866280648" x="239.967183" y="213.061531" style="fill: #daa520; stroke: #daa520"/>
     <use xlink:href="#m2866280648" x="126.675312" y="241.216008" style="fill: #daa520; stroke: #daa520"/>
     <use xlink:href="#m2866280648" x="138.157208" y="229.188475" style="fill: #daa520; stroke: #daa520"/>
     <use xlink:href="#m2866280648" x="413.07322" y="248.706225" style="fill: #daa520; stroke: #daa520"/>
     <use xlink:href="#m2866280648" x="170.127114" y="232.742191" style="fill: #daa520; stroke: #daa520"/>
     <use xlink:href="#m2866280648" x="219.333744" y="217.940093" style="fill: #daa520; stroke: #daa520"/>
     <use xlink:href="#m2866280648" x="186.619663" y="230.020927" style="fill: #daa520; stroke: #daa520"/>
     <use xlink:href="#m2866280648" x="189.390541" y="229.619148" style="fill: #daa520; stroke: #daa520"/>
     <use xlink:href="#m2866280648" x="356.327359" y="209.322475" style="fill: #daa520; stroke: #daa520"/>
     <use xlink:href="#m2866280648" x="190.109186" y="236.534863" style="fill: #daa520; stroke: #daa520"/>
     <use xlink:href="#m2866280648" x="122.858407" y="262.068224" style="fill: #daa520; stroke: #daa520"/>
     <use xlink:href="#m2866280648" x="404.502906" y="236.186957" style="fill: #daa520; stroke: #daa520"/>
     <use xlink:href="#m2866280648" x="274.919688" y="206.090993" style="fill: #daa520; stroke: #daa520"/>
     <use xlink:href="#m2866280648" x="160.878105" y="242.234388" style="fill: #daa520; stroke: #daa520"/>
     <use xlink:href="#m2866280648" x="332.213479" y="251.093854" style="fill: #daa520; stroke: #daa520"/>
     <use xlink:href="#m2866280648" x="222.948913" y="208.346556" style="fill: #daa520; stroke: #daa520"/>
     <use xlink:href="#m2866280648" x="309.372314" y="244.243918" style="fill: #daa520; stroke: #daa520"/>
     <use xlink:href="#m2866280648" x="224.088494" y="252.784121" style="fill: #daa520; stroke: #daa520"/>
     <use xlink:href="#m2866280648" x="117.978886" y="214.484854" style="fill: #daa520; stroke: #daa520"/>
     <use xlink:href="#m2866280648" x="278.938945" y="186.861794" style="fill: #daa520; stroke: #daa520"/>
     <use xlink:href="#m2866280648" x="346.04636" y="246.955633" style="fill: #daa520; stroke: #daa520"/>
     <use xlink:href="#m2866280648" x="240.855235" y="256.741114" style="fill: #daa520; stroke: #daa520"/>
     <use xlink:href="#m2866280648" x="339.212295" y="238.356795" style="fill: #daa520; stroke: #daa520"/>
     <use xlink:href="#m2866280648" x="331.135871" y="228.727754" style="fill: #daa520; stroke: #daa520"/>
     <use xlink:href="#m2866280648" x="73.843691" y="222.243014" style="fill: #daa520; stroke: #daa520"/>
     <use xlink:href="#m2866280648" x="321.390632" y="201.123006" style="fill: #daa520; stroke: #daa520"/>
     <use xlink:href="#m2866280648" x="274.218549" y="228.432061" style="fill: #daa520; stroke: #daa520"/>
     <use xlink:href="#m2866280648" x="325.352074" y="237.952797" style="fill: #daa520; stroke: #daa520"/>
     <use xlink:href="#m2866280648" x="346.811405" y="228.54895" style="fill: #daa520; stroke: #daa520"/>
     <use xlink:href="#m2866280648" x="382.689946" y="203.400436" style="fill: #daa520; stroke: #daa520"/>
     <use xlink:href="#m2866280648" x="224.118441" y="245.01201" style="fill: #daa520; stroke: #daa520"/>
     <use xlink:href="#m2866280648" x="143.730131" y="232.158993" style="fill: #daa520; stroke: #daa520"/>
    </g>
   </g>
   <g id="matplotlib.axis_5">
    <g id="xtick_1">
     <g id="line2d_9">
      <defs>
       <path id="mdaa41cef59" d="M 0 0 
L 0 3.5 
" style="stroke: #696969; stroke-width: 0.8"/>
      </defs>
      <g>
       <use xlink:href="#mdaa41cef59" x="70.462045" y="276.68" style="fill: #696969; stroke: #696969; stroke-width: 0.8"/>
      </g>
     </g>
     <g id="text_3">
      <!-- −1.0 -->
      <g style="fill: #696969" transform="translate(51.035795 295.8375) scale(0.16 -0.16)">
       <defs>
        <path id="DejaVuSans-2212" d="M 678 2272 
L 4684 2272 
L 4684 1741 
L 678 1741 
L 678 2272 
z
" transform="scale(0.015625)"/>
        <path id="DejaVuSans-31" d="M 794 531 
L 1825 531 
L 1825 4091 
L 703 3866 
L 703 4441 
L 1819 4666 
L 2450 4666 
L 2450 531 
L 3481 531 
L 3481 0 
L 794 0 
L 794 531 
z
" transform="scale(0.015625)"/>
        <path id="DejaVuSans-2e" d="M 684 794 
L 1344 794 
L 1344 0 
L 684 0 
L 684 794 
z
" transform="scale(0.015625)"/>
       </defs>
       <use xlink:href="#DejaVuSans-2212"/>
       <use xlink:href="#DejaVuSans-31" x="83.789062"/>
       <use xlink:href="#DejaVuSans-2e" x="147.412109"/>
       <use xlink:href="#DejaVuSans-30" x="179.199219"/>
      </g>
     </g>
    </g>
    <g id="xtick_2">
     <g id="line2d_10">
      <g>
       <use xlink:href="#mdaa41cef59" x="157.509773" y="276.68" style="fill: #696969; stroke: #696969; stroke-width: 0.8"/>
      </g>
     </g>
     <g id="text_4">
      <!-- −0.5 -->
      <g style="fill: #696969" transform="translate(138.083523 295.8375) scale(0.16 -0.16)">
       <use xlink:href="#DejaVuSans-2212"/>
       <use xlink:href="#DejaVuSans-30" x="83.789062"/>
       <use xlink:href="#DejaVuSans-2e" x="147.412109"/>
       <use xlink:href="#DejaVuSans-35" x="179.199219"/>
      </g>
     </g>
    </g>
    <g id="xtick_3">
     <g id="line2d_11">
      <g>
       <use xlink:href="#mdaa41cef59" x="244.5575" y="276.68" style="fill: #696969; stroke: #696969; stroke-width: 0.8"/>
      </g>
     </g>
     <g id="text_5">
      <!-- 0.0 -->
      <g style="fill: #696969" transform="translate(231.835 295.8375) scale(0.16 -0.16)">
       <use xlink:href="#DejaVuSans-30"/>
       <use xlink:href="#DejaVuSans-2e" x="63.623047"/>
       <use xlink:href="#DejaVuSans-30" x="95.410156"/>
      </g>
     </g>
    </g>
    <g id="xtick_4">
     <g id="line2d_12">
      <g>
       <use xlink:href="#mdaa41cef59" x="331.605227" y="276.68" style="fill: #696969; stroke: #696969; stroke-width: 0.8"/>
      </g>
     </g>
     <g id="text_6">
      <!-- 0.5 -->
      <g style="fill: #696969" transform="translate(318.882727 295.8375) scale(0.16 -0.16)">
       <use xlink:href="#DejaVuSans-30"/>
       <use xlink:href="#DejaVuSans-2e" x="63.623047"/>
       <use xlink:href="#DejaVuSans-35" x="95.410156"/>
      </g>
     </g>
    </g>
    <g id="xtick_5">
     <g id="line2d_13">
      <g>
       <use xlink:href="#mdaa41cef59" x="418.652955" y="276.68" style="fill: #696969; stroke: #696969; stroke-width: 0.8"/>
      </g>
     </g>
     <g id="text_7">
      <!-- 1.0 -->
      <g style="fill: #696969" transform="translate(405.930455 295.8375) scale(0.16 -0.16)">
       <use xlink:href="#DejaVuSans-31"/>
       <use xlink:href="#DejaVuSans-2e" x="63.623047"/>
       <use xlink:href="#DejaVuSans-30" x="95.410156"/>
      </g>
     </g>
    </g>
    <g id="text_8">
     <!-- $X$ -->
     <g transform="translate(239.0375 315.3225) scale(0.16 -0.16)">
      <defs>
       <path id="DejaVuSans-Oblique-58" d="M 878 4666 
L 1516 4666 
L 2316 2981 
L 3763 4666 
L 4500 4666 
L 2578 2438 
L 3738 0 
L 3103 0 
L 2163 1966 
L 459 0 
L -275 0 
L 1906 2509 
L 878 4666 
z
" transform="scale(0.015625)"/>
      </defs>
      <use xlink:href="#DejaVuSans-Oblique-58" transform="translate(0 0.09375)"/>
     </g>
    </g>
   </g>
   <g id="matplotlib.axis_6">
    <g id="ytick_3">
     <g id="line2d_14">
      <g>
       <use xlink:href="#me530253d84" x="53.0525" y="260.553099" style="fill: #696969; stroke: #696969; stroke-width: 0.8"/>
      </g>
     </g>
     <g id="text_9">
      <!-- −2.5 -->
      <g style="fill: #696969" transform="translate(7.2 266.631849) scale(0.16 -0.16)">
       <defs>
        <path id="DejaVuSans-32" d="M 1228 531 
L 3431 531 
L 3431 0 
L 469 0 
L 469 531 
Q 828 903 1448 1529 
Q 2069 2156 2228 2338 
Q 2531 2678 2651 2914 
Q 2772 3150 2772 3378 
Q 2772 3750 2511 3984 
Q 2250 4219 1831 4219 
Q 1534 4219 1204 4116 
Q 875 4013 500 3803 
L 500 4441 
Q 881 4594 1212 4672 
Q 1544 4750 1819 4750 
Q 2544 4750 2975 4387 
Q 3406 4025 3406 3419 
Q 3406 3131 3298 2873 
Q 3191 2616 2906 2266 
Q 2828 2175 2409 1742 
Q 1991 1309 1228 531 
z
" transform="scale(0.015625)"/>
       </defs>
       <use xlink:href="#DejaVuSans-2212"/>
       <use xlink:href="#DejaVuSans-32" x="83.789062"/>
       <use xlink:href="#DejaVuSans-2e" x="147.412109"/>
       <use xlink:href="#DejaVuSans-35" x="179.199219"/>
      </g>
     </g>
    </g>
    <g id="ytick_4">
     <g id="line2d_15">
      <g>
       <use xlink:href="#me530253d84" x="53.0525" y="233.12503" style="fill: #696969; stroke: #696969; stroke-width: 0.8"/>
      </g>
     </g>
     <g id="text_10">
      <!-- 0.0 -->
      <g style="fill: #696969" transform="translate(20.6075 239.20378) scale(0.16 -0.16)">
       <use xlink:href="#DejaVuSans-30"/>
       <use xlink:href="#DejaVuSans-2e" x="63.623047"/>
       <use xlink:href="#DejaVuSans-30" x="95.410156"/>
      </g>
     </g>
    </g>
    <g id="ytick_5">
     <g id="line2d_16">
      <g>
       <use xlink:href="#me530253d84" x="53.0525" y="205.696961" style="fill: #696969; stroke: #696969; stroke-width: 0.8"/>
      </g>
     </g>
     <g id="text_11">
      <!-- 2.5 -->
      <g style="fill: #696969" transform="translate(20.6075 211.775711) scale(0.16 -0.16)">
       <use xlink:href="#DejaVuSans-32"/>
       <use xlink:href="#DejaVuSans-2e" x="63.623047"/>
       <use xlink:href="#DejaVuSans-35" x="95.410156"/>
      </g>
     </g>
    </g>
   </g>
   <g id="line2d_17">
    <path d="M 70.462045 227.319736 
L 77.425864 228.822861 
L 84.389682 231.054799 
L 91.3535 233.167351 
L 98.317318 234.497357 
L 105.281136 234.974948 
L 112.244955 235.131389 
L 119.208773 235.374836 
L 126.172591 235.533923 
L 133.136409 235.23575 
L 140.100227 234.420275 
L 147.064045 233.576972 
L 154.027864 233.604441 
L 160.991682 234.899347 
L 167.9555 236.428868 
L 174.919318 237.129674 
L 181.883136 237.077798 
L 188.846955 236.696403 
L 195.810773 236.301594 
L 202.774591 236.10241 
L 209.738409 236.184623 
L 216.702227 236.4961 
L 223.666045 236.964428 
L 230.629864 237.613831 
L 237.593682 238.379168 
L 244.5575 238.903436 
L 251.521318 238.738596 
L 258.485136 237.685569 
L 265.448955 235.942688 
L 272.412773 234.02964 
L 279.376591 232.566968 
L 286.340409 232.013953 
L 293.304227 232.475679 
L 300.268045 233.663115 
L 307.231864 235.023546 
L 314.195682 235.981199 
L 321.1595 236.179603 
L 328.123318 235.620958 
L 335.087136 234.648626 
L 342.050955 233.788457 
L 349.014773 233.522483 
L 355.978591 234.091164 
L 362.942409 235.402256 
L 369.906227 237.073866 
L 376.870045 238.578316 
L 383.833864 239.411685 
L 390.797682 239.214864 
L 397.7615 237.81552 
L 404.725318 235.216366 
L 411.689136 231.580685 
L 418.652955 227.241433 
" clip-path="url(#p63f3ff479a)" style="fill: none; stroke: #696969; stroke-width: 2; stroke-linecap: square"/>
   </g>
   <g id="line2d_18">
    <path d="M 70.462045 228.089509 
L 77.425864 231.132846 
L 84.389682 233.248336 
L 91.3535 234.664891 
L 98.317318 235.559149 
L 105.281136 236.066423 
L 112.244955 236.28963 
L 119.208773 236.306493 
L 126.172591 236.175318 
L 133.136409 235.939586 
L 140.100227 235.631559 
L 147.064045 235.275095 
L 154.027864 234.88782 
L 160.991682 234.482781 
L 167.9555 234.069697 
L 174.919318 233.655892 
L 181.883136 233.246988 
L 188.846955 232.847403 
L 195.810773 232.460722 
L 202.774591 232.089959 
L 209.738409 231.73775 
L 216.702227 231.406485 
L 223.666045 231.098419 
L 230.629864 230.815743 
L 237.593682 230.560646 
L 244.5575 230.335363 
L 251.521318 230.14222 
L 258.485136 229.983674 
L 265.448955 229.862344 
L 272.412773 229.781057 
L 279.376591 229.742874 
L 286.340409 229.751136 
L 293.304227 229.809492 
L 300.268045 229.921931 
L 307.231864 230.0928 
L 314.195682 230.326801 
L 321.1595 230.628954 
L 328.123318 231.004508 
L 335.087136 231.458771 
L 342.050955 231.996822 
L 349.014773 232.623072 
L 355.978591 233.340596 
L 362.942409 234.150182 
L 369.906227 235.049 
L 376.870045 236.028785 
L 383.833864 237.073402 
L 390.797682 238.155646 
L 397.7615 239.233093 
L 404.725318 240.242777 
L 411.689136 241.094477 
L 418.652955 241.662299 
" clip-path="url(#p63f3ff479a)" style="fill: none; stroke-dasharray: 7.4,3.2; stroke-dashoffset: 0; stroke: #79ad41; stroke-width: 2"/>
   </g>
   <g id="patch_9">
    <path d="M 53.0525 276.68 
L 53.0525 181.927449 
" style="fill: none; stroke: #000000; stroke-width: 0.8; stroke-linejoin: miter; stroke-linecap: square"/>
   </g>
   <g id="patch_10">
    <path d="M 436.0625 276.68 
L 436.0625 181.927449 
" style="fill: none; stroke: #000000; stroke-width: 0.8; stroke-linejoin: miter; stroke-linecap: square"/>
   </g>
   <g id="patch_11">
    <path d="M 53.0525 276.68 
L 436.0625 276.68 
" style="fill: none; stroke: #000000; stroke-width: 0.8; stroke-linejoin: miter; stroke-linecap: square"/>
   </g>
   <g id="patch_12">
    <path d="M 53.0525 181.927449 
L 436.0625 181.927449 
" style="fill: none; stroke: #000000; stroke-width: 0.8; stroke-linejoin: miter; stroke-linecap: square"/>
   </g>
  </g>
 </g>
 <defs>
  <clipPath id="p7f119b7611">
   <rect x="53.0525" y="7.2" width="383.01" height="47.376276"/>
  </clipPath>
  <clipPath id="pa224e07c2d">
   <rect x="53.0525" y="70.875587" width="383.01" height="94.752551"/>
  </clipPath>
  <clipPath id="p63f3ff479a">
   <rect x="53.0525" y="181.927449" width="383.01" height="94.752551"/>
  </clipPath>
 </defs>
</svg>
