<?xml version="1.0" encoding="utf-8" standalone="no"?>
<!DOCTYPE svg PUBLIC "-//W3C//DTD SVG 1.1//EN"
  "http://www.w3.org/Graphics/SVG/1.1/DTD/svg11.dtd">
<svg xmlns:xlink="http://www.w3.org/1999/xlink" width="443.2625pt" height="325.85pt" viewBox="0 0 443.2625 325.85" xmlns="http://www.w3.org/2000/svg" version="1.1">
 <metadata>
  <rdf:RDF xmlns:dc="http://purl.org/dc/elements/1.1/" xmlns:cc="http://creativecommons.org/ns#" xmlns:rdf="http://www.w3.org/1999/02/22-rdf-syntax-ns#">
   <cc:Work>
    <dc:type rdf:resource="http://purl.org/dc/dcmitype/StillImage"/>
    <dc:date>2024-01-28T20:52:00.106252</dc:date>
    <dc:format>image/svg+xml</dc:format>
    <dc:creator>
     <cc:Agent>
      <dc:title>Matplotlib v3.7.2, https://matplotlib.org/</dc:title>
     </cc:Agent>
    </dc:creator>
   </cc:Work>
  </rdf:RDF>
 </metadata>
 <defs>
  <style type="text/css">*{stroke-linejoin: round; stroke-linecap: butt}</style>
 </defs>
 <g id="figure_1">
  <g id="patch_1">
   <path d="M 0 325.85 
L 443.2625 325.85 
L 443.2625 0 
L 0 0 
z
" style="fill: #ffffff"/>
  </g>
  <g id="axes_1">
   <g id="patch_2">
    <path d="M 53.0525 54.696 
L 436.0625 54.696 
L 436.0625 7.2 
L 53.0525 7.2 
z
" style="fill: #ffffff"/>
   </g>
   <g id="PolyCollection_1">
    <defs>
     <path id="m13afd9a262" d="M 70.462045 -273.312909 
L 70.462045 -278.738855 
L 77.425864 -278.467121 
L 84.389682 -278.188295 
L 91.3535 -278.110485 
L 98.317318 -278.110485 
L 105.281136 -278.110485 
L 112.244955 -278.110485 
L 119.208773 -278.110485 
L 126.172591 -278.110485 
L 133.136409 -278.110485 
L 140.100227 -278.110485 
L 147.064045 -278.110485 
L 154.027864 -278.110485 
L 160.991682 -278.110485 
L 167.9555 -278.110485 
L 174.919318 -278.110485 
L 181.883136 -278.110485 
L 188.846955 -278.110485 
L 195.810773 -278.110485 
L 202.774591 -278.110485 
L 209.738409 -278.110485 
L 216.702227 -278.110485 
L 223.666045 -278.110485 
L 230.629864 -278.110485 
L 237.593682 -278.110485 
L 244.5575 -278.110485 
L 251.521318 -278.401639 
L 258.485136 -279.10756 
L 265.448955 -279.957154 
L 272.412773 -280.970117 
L 279.376591 -282.164552 
L 286.340409 -283.554405 
L 293.304227 -285.146351 
L 300.268045 -286.936451 
L 307.231864 -288.907451 
L 314.195682 -291.027437 
L 321.1595 -293.250799 
L 328.123318 -295.521681 
L 335.087136 -297.779573 
L 342.050955 -299.965803 
L 349.014773 -302.029465 
L 355.978591 -303.931512 
L 362.942409 -305.646461 
L 369.906227 -307.161813 
L 376.870045 -308.475935 
L 383.833864 -309.595166 
L 390.797682 -310.530862 
L 397.7615 -311.296845 
L 404.725318 -311.907415 
L 411.689136 -312.375959 
L 418.652955 -312.714067 
L 418.652955 -273.312909 
L 418.652955 -273.312909 
L 411.689136 -273.312909 
L 404.725318 -273.312909 
L 397.7615 -273.312909 
L 390.797682 -273.312909 
L 383.833864 -273.312909 
L 376.870045 -273.312909 
L 369.906227 -273.312909 
L 362.942409 -273.312909 
L 355.978591 -273.312909 
L 349.014773 -273.312909 
L 342.050955 -273.312909 
L 335.087136 -273.312909 
L 328.123318 -273.312909 
L 321.1595 -273.312909 
L 314.195682 -273.312909 
L 307.231864 -273.312909 
L 300.268045 -273.312909 
L 293.304227 -273.312909 
L 286.340409 -273.312909 
L 279.376591 -273.312909 
L 272.412773 -273.312909 
L 265.448955 -273.312909 
L 258.485136 -273.312909 
L 251.521318 -273.312909 
L 244.5575 -273.312909 
L 237.593682 -273.312909 
L 230.629864 -273.312909 
L 223.666045 -273.312909 
L 216.702227 -273.312909 
L 209.738409 -273.312909 
L 202.774591 -273.312909 
L 195.810773 -273.312909 
L 188.846955 -273.312909 
L 181.883136 -273.312909 
L 174.919318 -273.312909 
L 167.9555 -273.312909 
L 160.991682 -273.312909 
L 154.027864 -273.312909 
L 147.064045 -273.312909 
L 140.100227 -273.312909 
L 133.136409 -273.312909 
L 126.172591 -273.312909 
L 119.208773 -273.312909 
L 112.244955 -273.312909 
L 105.281136 -273.312909 
L 98.317318 -273.312909 
L 91.3535 -273.312909 
L 84.389682 -273.312909 
L 77.425864 -273.312909 
L 70.462045 -273.312909 
z
" style="stroke: #dc143c; stroke-opacity: 0.2"/>
    </defs>
    <g clip-path="url(#p9c04d40f42)">
     <use xlink:href="#m13afd9a262" x="0" y="325.85" style="fill: #dc143c; fill-opacity: 0.2; stroke: #dc143c; stroke-opacity: 0.2"/>
    </g>
   </g>
   <g id="PolyCollection_2">
    <defs>
     <path id="m12e671f030" d="M 70.462045 -273.312909 
L 70.462045 -315.862721 
L 77.425864 -316.134455 
L 84.389682 -316.413281 
L 91.3535 -316.491091 
L 98.317318 -316.491091 
L 105.281136 -316.491091 
L 112.244955 -316.491091 
L 119.208773 -316.491091 
L 126.172591 -316.491091 
L 133.136409 -316.491091 
L 140.100227 -316.491091 
L 147.064045 -316.491091 
L 154.027864 -316.491091 
L 160.991682 -316.491091 
L 167.9555 -316.491091 
L 174.919318 -316.491091 
L 181.883136 -316.491091 
L 188.846955 -316.491091 
L 195.810773 -316.491091 
L 202.774591 -316.491091 
L 209.738409 -316.491091 
L 216.702227 -316.491091 
L 223.666045 -316.491091 
L 230.629864 -316.491091 
L 237.593682 -316.491091 
L 244.5575 -316.491091 
L 251.521318 -316.199937 
L 258.485136 -315.494016 
L 265.448955 -314.644422 
L 272.412773 -313.631459 
L 279.376591 -312.437024 
L 286.340409 -311.047171 
L 293.304227 -309.455225 
L 300.268045 -307.665125 
L 307.231864 -305.694125 
L 314.195682 -303.574139 
L 321.1595 -301.350777 
L 328.123318 -299.079895 
L 335.087136 -296.822003 
L 342.050955 -294.635773 
L 349.014773 -292.57211 
L 355.978591 -290.670064 
L 362.942409 -288.955115 
L 369.906227 -287.439763 
L 376.870045 -286.125641 
L 383.833864 -285.00641 
L 390.797682 -284.070714 
L 397.7615 -283.304731 
L 404.725318 -282.694161 
L 411.689136 -282.225616 
L 418.652955 -281.887509 
L 418.652955 -273.312909 
L 418.652955 -273.312909 
L 411.689136 -273.312909 
L 404.725318 -273.312909 
L 397.7615 -273.312909 
L 390.797682 -273.312909 
L 383.833864 -273.312909 
L 376.870045 -273.312909 
L 369.906227 -273.312909 
L 362.942409 -273.312909 
L 355.978591 -273.312909 
L 349.014773 -273.312909 
L 342.050955 -273.312909 
L 335.087136 -273.312909 
L 328.123318 -273.312909 
L 321.1595 -273.312909 
L 314.195682 -273.312909 
L 307.231864 -273.312909 
L 300.268045 -273.312909 
L 293.304227 -273.312909 
L 286.340409 -273.312909 
L 279.376591 -273.312909 
L 272.412773 -273.312909 
L 265.448955 -273.312909 
L 258.485136 -273.312909 
L 251.521318 -273.312909 
L 244.5575 -273.312909 
L 237.593682 -273.312909 
L 230.629864 -273.312909 
L 223.666045 -273.312909 
L 216.702227 -273.312909 
L 209.738409 -273.312909 
L 202.774591 -273.312909 
L 195.810773 -273.312909 
L 188.846955 -273.312909 
L 181.883136 -273.312909 
L 174.919318 -273.312909 
L 167.9555 -273.312909 
L 160.991682 -273.312909 
L 154.027864 -273.312909 
L 147.064045 -273.312909 
L 140.100227 -273.312909 
L 133.136409 -273.312909 
L 126.172591 -273.312909 
L 119.208773 -273.312909 
L 112.244955 -273.312909 
L 105.281136 -273.312909 
L 98.317318 -273.312909 
L 91.3535 -273.312909 
L 84.389682 -273.312909 
L 77.425864 -273.312909 
L 70.462045 -273.312909 
z
" style="stroke: #000080; stroke-opacity: 0.2"/>
    </defs>
    <g clip-path="url(#p9c04d40f42)">
     <use xlink:href="#m12e671f030" x="0" y="325.85" style="fill: #000080; fill-opacity: 0.2; stroke: #000080; stroke-opacity: 0.2"/>
    </g>
   </g>
   <g id="matplotlib.axis_1"/>
   <g id="matplotlib.axis_2"/>
   <g id="line2d_1">
    <path d="M 70.462045 47.111145 
L 77.425864 47.382879 
L 84.389682 47.661705 
L 91.3535 47.739515 
L 98.317318 47.739515 
L 105.281136 47.739515 
L 112.244955 47.739515 
L 119.208773 47.739515 
L 126.172591 47.739515 
L 133.136409 47.739515 
L 140.100227 47.739515 
L 147.064045 47.739515 
L 154.027864 47.739515 
L 160.991682 47.739515 
L 167.9555 47.739515 
L 174.919318 47.739515 
L 181.883136 47.739515 
L 188.846955 47.739515 
L 195.810773 47.739515 
L 202.774591 47.739515 
L 209.738409 47.739515 
L 216.702227 47.739515 
L 223.666045 47.739515 
L 230.629864 47.739515 
L 237.593682 47.739515 
L 244.5575 47.739515 
L 251.521318 47.448361 
L 258.485136 46.74244 
L 265.448955 45.892846 
L 272.412773 44.879883 
L 279.376591 43.685448 
L 286.340409 42.295595 
L 293.304227 40.703649 
L 300.268045 38.913549 
L 307.231864 36.942549 
L 314.195682 34.822563 
L 321.1595 32.599201 
L 328.123318 30.328319 
L 335.087136 28.070427 
L 342.050955 25.884197 
L 349.014773 23.820535 
L 355.978591 21.918488 
L 362.942409 20.203539 
L 369.906227 18.688187 
L 376.870045 17.374065 
L 383.833864 16.254834 
L 390.797682 15.319138 
L 397.7615 14.553155 
L 404.725318 13.942585 
L 411.689136 13.474041 
L 418.652955 13.135933 
" clip-path="url(#p9c04d40f42)" style="fill: none; stroke: #dc143c; stroke-width: 1.5; stroke-linecap: square"/>
   </g>
   <g id="line2d_2">
    <path d="M 70.462045 9.987279 
L 77.425864 9.715545 
L 84.389682 9.436719 
L 91.3535 9.358909 
L 98.317318 9.358909 
L 105.281136 9.358909 
L 112.244955 9.358909 
L 119.208773 9.358909 
L 126.172591 9.358909 
L 133.136409 9.358909 
L 140.100227 9.358909 
L 147.064045 9.358909 
L 154.027864 9.358909 
L 160.991682 9.358909 
L 167.9555 9.358909 
L 174.919318 9.358909 
L 181.883136 9.358909 
L 188.846955 9.358909 
L 195.810773 9.358909 
L 202.774591 9.358909 
L 209.738409 9.358909 
L 216.702227 9.358909 
L 223.666045 9.358909 
L 230.629864 9.358909 
L 237.593682 9.358909 
L 244.5575 9.358909 
L 251.521318 9.650063 
L 258.485136 10.355984 
L 265.448955 11.205578 
L 272.412773 12.218541 
L 279.376591 13.412976 
L 286.340409 14.802829 
L 293.304227 16.394775 
L 300.268045 18.184875 
L 307.231864 20.155875 
L 314.195682 22.275861 
L 321.1595 24.499223 
L 328.123318 26.770105 
L 335.087136 29.027997 
L 342.050955 31.214227 
L 349.014773 33.27789 
L 355.978591 35.179936 
L 362.942409 36.894885 
L 369.906227 38.410237 
L 376.870045 39.724359 
L 383.833864 40.84359 
L 390.797682 41.779286 
L 397.7615 42.545269 
L 404.725318 43.155839 
L 411.689136 43.624384 
L 418.652955 43.962491 
" clip-path="url(#p9c04d40f42)" style="fill: none; stroke: #000080; stroke-width: 1.5; stroke-linecap: square"/>
   </g>
  </g>
  <g id="axes_2">
   <g id="patch_3">
    <path d="M 53.0525 165.688 
L 436.0625 165.688 
L 436.0625 70.696 
L 53.0525 70.696 
z
" style="fill: #ffffff"/>
   </g>
   <g id="PathCollection_1">
    <defs>
     <path id="ma486487ea1" d="M 0 0.866025 
C 0.229673 0.866025 0.449969 0.774776 0.612372 0.612372 
C 0.774776 0.449969 0.866025 0.229673 0.866025 0 
C 0.866025 -0.229673 0.774776 -0.449969 0.612372 -0.612372 
C 0.449969 -0.774776 0.229673 -0.866025 0 -0.866025 
C -0.229673 -0.866025 -0.449969 -0.774776 -0.612372 -0.612372 
C -0.774776 -0.449969 -0.866025 -0.229673 -0.866025 0 
C -0.866025 0.229673 -0.774776 0.449969 -0.612372 0.612372 
C -0.449969 0.774776 -0.229673 0.866025 0 0.866025 
z
" style="stroke: #daa520"/>
    </defs>
    <g clip-path="url(#pf6ba296228)">
     <use xlink:href="#ma486487ea1" x="278.18882" y="85.846379" style="fill: #daa520; stroke: #daa520"/>
     <use xlink:href="#ma486487ea1" x="414.319903" y="139.460268" style="fill: #daa520; stroke: #daa520"/>
     <use xlink:href="#ma486487ea1" x="270.207688" y="106.763803" style="fill: #daa520; stroke: #daa520"/>
     <use xlink:href="#ma486487ea1" x="115.935958" y="105.079784" style="fill: #daa520; stroke: #daa520"/>
     <use xlink:href="#ma486487ea1" x="101.133435" y="94.752356" style="fill: #daa520; stroke: #daa520"/>
     <use xlink:href="#ma486487ea1" x="375.357301" y="110.725073" style="fill: #daa520; stroke: #daa520"/>
     <use xlink:href="#ma486487ea1" x="415.358093" y="128.937394" style="fill: #daa520; stroke: #daa520"/>
     <use xlink:href="#ma486487ea1" x="361.965502" y="107.164134" style="fill: #daa520; stroke: #daa520"/>
     <use xlink:href="#ma486487ea1" x="374.006687" y="141.071621" style="fill: #daa520; stroke: #daa520"/>
     <use xlink:href="#ma486487ea1" x="317.688931" y="126.686079" style="fill: #daa520; stroke: #daa520"/>
     <use xlink:href="#ma486487ea1" x="299.203394" y="80.639514" style="fill: #daa520; stroke: #daa520"/>
     <use xlink:href="#ma486487ea1" x="307.26194" y="97.867982" style="fill: #daa520; stroke: #daa520"/>
     <use xlink:href="#ma486487ea1" x="232.629213" y="97.279924" style="fill: #daa520; stroke: #daa520"/>
     <use xlink:href="#ma486487ea1" x="276.933533" y="92.658276" style="fill: #daa520; stroke: #daa520"/>
     <use xlink:href="#ma486487ea1" x="366.848671" y="108.396199" style="fill: #daa520; stroke: #daa520"/>
     <use xlink:href="#ma486487ea1" x="373.592582" y="139.46716" style="fill: #daa520; stroke: #daa520"/>
     <use xlink:href="#ma486487ea1" x="402.575909" y="135.514399" style="fill: #daa520; stroke: #daa520"/>
     <use xlink:href="#ma486487ea1" x="333.827904" y="84.069008" style="fill: #daa520; stroke: #daa520"/>
     <use xlink:href="#ma486487ea1" x="294.601035" y="88.612111" style="fill: #daa520; stroke: #daa520"/>
     <use xlink:href="#ma486487ea1" x="398.718517" y="116.954463" style="fill: #daa520; stroke: #daa520"/>
     <use xlink:href="#ma486487ea1" x="154.957723" y="76.145409" style="fill: #daa520; stroke: #daa520"/>
     <use xlink:href="#ma486487ea1" x="133.915782" y="103.318047" style="fill: #daa520; stroke: #daa520"/>
     <use xlink:href="#ma486487ea1" x="372.692079" y="137.754185" style="fill: #daa520; stroke: #daa520"/>
     <use xlink:href="#ma486487ea1" x="385.640472" y="131.551561" style="fill: #daa520; stroke: #daa520"/>
     <use xlink:href="#ma486487ea1" x="389.334093" y="128.785343" style="fill: #daa520; stroke: #daa520"/>
     <use xlink:href="#ma486487ea1" x="384.544176" y="111.881575" style="fill: #daa520; stroke: #daa520"/>
     <use xlink:href="#ma486487ea1" x="408.718195" y="135.414167" style="fill: #daa520; stroke: #daa520"/>
     <use xlink:href="#ma486487ea1" x="372.268448" y="136.683454" style="fill: #daa520; stroke: #daa520"/>
     <use xlink:href="#ma486487ea1" x="294.129885" y="91.758018" style="fill: #daa520; stroke: #daa520"/>
     <use xlink:href="#ma486487ea1" x="372.62077" y="102.819584" style="fill: #daa520; stroke: #daa520"/>
     <use xlink:href="#ma486487ea1" x="412.393028" y="149.416269" style="fill: #daa520; stroke: #daa520"/>
     <use xlink:href="#ma486487ea1" x="415.828311" y="141.70095" style="fill: #daa520; stroke: #daa520"/>
     <use xlink:href="#ma486487ea1" x="406.061185" y="146.639398" style="fill: #daa520; stroke: #daa520"/>
     <use xlink:href="#ma486487ea1" x="298.603331" y="121.08289" style="fill: #daa520; stroke: #daa520"/>
     <use xlink:href="#ma486487ea1" x="381.209098" y="142.299629" style="fill: #daa520; stroke: #daa520"/>
     <use xlink:href="#ma486487ea1" x="368.637192" y="138.445991" style="fill: #daa520; stroke: #daa520"/>
     <use xlink:href="#ma486487ea1" x="361.811891" y="101.408758" style="fill: #daa520; stroke: #daa520"/>
     <use xlink:href="#ma486487ea1" x="345.307537" y="108.149232" style="fill: #daa520; stroke: #daa520"/>
     <use xlink:href="#ma486487ea1" x="382.448734" y="142.899294" style="fill: #daa520; stroke: #daa520"/>
     <use xlink:href="#ma486487ea1" x="350.215653" y="135.316232" style="fill: #daa520; stroke: #daa520"/>
     <use xlink:href="#ma486487ea1" x="363.288582" y="122.946419" style="fill: #daa520; stroke: #daa520"/>
     <use xlink:href="#ma486487ea1" x="321.48558" y="101.294151" style="fill: #daa520; stroke: #daa520"/>
     <use xlink:href="#ma486487ea1" x="299.774828" y="91.622135" style="fill: #daa520; stroke: #daa520"/>
     <use xlink:href="#ma486487ea1" x="362.951267" y="93.989017" style="fill: #daa520; stroke: #daa520"/>
     <use xlink:href="#ma486487ea1" x="305.127036" y="93.843674" style="fill: #daa520; stroke: #daa520"/>
     <use xlink:href="#ma486487ea1" x="347.895573" y="115.067878" style="fill: #daa520; stroke: #daa520"/>
     <use xlink:href="#ma486487ea1" x="376.774725" y="137.364245" style="fill: #daa520; stroke: #daa520"/>
     <use xlink:href="#ma486487ea1" x="369.109376" y="135.520224" style="fill: #daa520; stroke: #daa520"/>
     <use xlink:href="#ma486487ea1" x="414.630399" y="134.727664" style="fill: #daa520; stroke: #daa520"/>
     <use xlink:href="#ma486487ea1" x="413.000464" y="157.307088" style="fill: #daa520; stroke: #daa520"/>
     <use xlink:href="#ma486487ea1" x="226.536822" y="102.493496" style="fill: #daa520; stroke: #daa520"/>
     <use xlink:href="#ma486487ea1" x="375.73153" y="104.412877" style="fill: #daa520; stroke: #daa520"/>
     <use xlink:href="#ma486487ea1" x="368.691971" y="129.781578" style="fill: #daa520; stroke: #daa520"/>
     <use xlink:href="#ma486487ea1" x="345.904882" y="119.680958" style="fill: #daa520; stroke: #daa520"/>
     <use xlink:href="#ma486487ea1" x="326.048841" y="82.219715" style="fill: #daa520; stroke: #daa520"/>
     <use xlink:href="#ma486487ea1" x="316.759252" y="119.055644" style="fill: #daa520; stroke: #daa520"/>
     <use xlink:href="#ma486487ea1" x="326.515177" y="91.526019" style="fill: #daa520; stroke: #daa520"/>
     <use xlink:href="#ma486487ea1" x="371.635656" y="140.474645" style="fill: #daa520; stroke: #daa520"/>
     <use xlink:href="#ma486487ea1" x="380.090127" y="137.161666" style="fill: #daa520; stroke: #daa520"/>
     <use xlink:href="#ma486487ea1" x="392.463328" y="122.339152" style="fill: #daa520; stroke: #daa520"/>
     <use xlink:href="#ma486487ea1" x="113.648697" y="75.013818" style="fill: #daa520; stroke: #daa520"/>
     <use xlink:href="#ma486487ea1" x="383.753627" y="139.945357" style="fill: #daa520; stroke: #daa520"/>
     <use xlink:href="#ma486487ea1" x="399.919494" y="126.953021" style="fill: #daa520; stroke: #daa520"/>
     <use xlink:href="#ma486487ea1" x="300.793514" y="94.189515" style="fill: #daa520; stroke: #daa520"/>
     <use xlink:href="#ma486487ea1" x="180.603485" y="81.123849" style="fill: #daa520; stroke: #daa520"/>
     <use xlink:href="#ma486487ea1" x="257.767776" y="105.715976" style="fill: #daa520; stroke: #daa520"/>
     <use xlink:href="#ma486487ea1" x="391.214037" y="120.509629" style="fill: #daa520; stroke: #daa520"/>
     <use xlink:href="#ma486487ea1" x="72.642625" y="106.659044" style="fill: #daa520; stroke: #daa520"/>
     <use xlink:href="#ma486487ea1" x="338.03888" y="98.650354" style="fill: #daa520; stroke: #daa520"/>
     <use xlink:href="#ma486487ea1" x="414.005543" y="161.370182" style="fill: #daa520; stroke: #daa520"/>
     <use xlink:href="#ma486487ea1" x="351.169243" y="107.288736" style="fill: #daa520; stroke: #daa520"/>
     <use xlink:href="#ma486487ea1" x="361.671909" y="128.684714" style="fill: #daa520; stroke: #daa520"/>
     <use xlink:href="#ma486487ea1" x="358.631037" y="136.46597" style="fill: #daa520; stroke: #daa520"/>
     <use xlink:href="#ma486487ea1" x="396.122894" y="151.468001" style="fill: #daa520; stroke: #daa520"/>
     <use xlink:href="#ma486487ea1" x="140.59835" y="88.371506" style="fill: #daa520; stroke: #daa520"/>
     <use xlink:href="#ma486487ea1" x="144.106341" y="108.495325" style="fill: #daa520; stroke: #daa520"/>
     <use xlink:href="#ma486487ea1" x="361.519009" y="97.435281" style="fill: #daa520; stroke: #daa520"/>
     <use xlink:href="#ma486487ea1" x="390.677095" y="142.718115" style="fill: #daa520; stroke: #daa520"/>
     <use xlink:href="#ma486487ea1" x="340.909313" y="102.028435" style="fill: #daa520; stroke: #daa520"/>
     <use xlink:href="#ma486487ea1" x="396.322573" y="134.357309" style="fill: #daa520; stroke: #daa520"/>
     <use xlink:href="#ma486487ea1" x="253.385903" y="95.143889" style="fill: #daa520; stroke: #daa520"/>
     <use xlink:href="#ma486487ea1" x="364.678532" y="134.551331" style="fill: #daa520; stroke: #daa520"/>
     <use xlink:href="#ma486487ea1" x="359.622579" y="117.478513" style="fill: #daa520; stroke: #daa520"/>
     <use xlink:href="#ma486487ea1" x="407.192691" y="137.1928" style="fill: #daa520; stroke: #daa520"/>
     <use xlink:href="#ma486487ea1" x="191.154477" y="104.029113" style="fill: #daa520; stroke: #daa520"/>
     <use xlink:href="#ma486487ea1" x="405.047844" y="116.16868" style="fill: #daa520; stroke: #daa520"/>
     <use xlink:href="#ma486487ea1" x="398.66623" y="145.774148" style="fill: #daa520; stroke: #daa520"/>
     <use xlink:href="#ma486487ea1" x="368.28101" y="130.399661" style="fill: #daa520; stroke: #daa520"/>
     <use xlink:href="#ma486487ea1" x="371.023517" y="130.328108" style="fill: #daa520; stroke: #daa520"/>
     <use xlink:href="#ma486487ea1" x="287.364265" y="83.645471" style="fill: #daa520; stroke: #daa520"/>
     <use xlink:href="#ma486487ea1" x="327.961799" y="127.677851" style="fill: #daa520; stroke: #daa520"/>
     <use xlink:href="#ma486487ea1" x="369.137027" y="135.94708" style="fill: #daa520; stroke: #daa520"/>
     <use xlink:href="#ma486487ea1" x="399.903059" y="121.95899" style="fill: #daa520; stroke: #daa520"/>
     <use xlink:href="#ma486487ea1" x="372.843048" y="98.881539" style="fill: #daa520; stroke: #daa520"/>
    </g>
   </g>
   <g id="matplotlib.axis_3"/>
   <g id="matplotlib.axis_4">
    <g id="ytick_1">
     <g id="line2d_3">
      <defs>
       <path id="mbbc4c3d287" d="M 0 0 
L -3.5 0 
" style="stroke: #696969; stroke-width: 0.8"/>
      </defs>
      <g>
       <use xlink:href="#mbbc4c3d287" x="53.0525" y="154.505391" style="fill: #696969; stroke: #696969; stroke-width: 0.8"/>
      </g>
     </g>
     <g id="text_1">
      <!-- −5 -->
      <g style="fill: #696969" transform="translate(22.465 160.584141) scale(0.16 -0.16)">
       <defs>
        <path id="DejaVuSans-2212" d="M 678 2272 
L 4684 2272 
L 4684 1741 
L 678 1741 
L 678 2272 
z
" transform="scale(0.015625)"/>
        <path id="DejaVuSans-35" d="M 691 4666 
L 3169 4666 
L 3169 4134 
L 1269 4134 
L 1269 2991 
Q 1406 3038 1543 3061 
Q 1681 3084 1819 3084 
Q 2600 3084 3056 2656 
Q 3513 2228 3513 1497 
Q 3513 744 3044 326 
Q 2575 -91 1722 -91 
Q 1428 -91 1123 -41 
Q 819 9 494 109 
L 494 744 
Q 775 591 1075 516 
Q 1375 441 1709 441 
Q 2250 441 2565 725 
Q 2881 1009 2881 1497 
Q 2881 1984 2565 2268 
Q 2250 2553 1709 2553 
Q 1456 2553 1204 2497 
Q 953 2441 691 2322 
L 691 4666 
z
" transform="scale(0.015625)"/>
       </defs>
       <use xlink:href="#DejaVuSans-2212"/>
       <use xlink:href="#DejaVuSans-35" x="83.789062"/>
      </g>
     </g>
    </g>
    <g id="ytick_2">
     <g id="line2d_4">
      <g>
       <use xlink:href="#mbbc4c3d287" x="53.0525" y="104.098622" style="fill: #696969; stroke: #696969; stroke-width: 0.8"/>
      </g>
     </g>
     <g id="text_2">
      <!-- 0 -->
      <g style="fill: #696969" transform="translate(35.8725 110.177372) scale(0.16 -0.16)">
       <defs>
        <path id="DejaVuSans-30" d="M 2034 4250 
Q 1547 4250 1301 3770 
Q 1056 3291 1056 2328 
Q 1056 1369 1301 889 
Q 1547 409 2034 409 
Q 2525 409 2770 889 
Q 3016 1369 3016 2328 
Q 3016 3291 2770 3770 
Q 2525 4250 2034 4250 
z
M 2034 4750 
Q 2819 4750 3233 4129 
Q 3647 3509 3647 2328 
Q 3647 1150 3233 529 
Q 2819 -91 2034 -91 
Q 1250 -91 836 529 
Q 422 1150 422 2328 
Q 422 3509 836 4129 
Q 1250 4750 2034 4750 
z
" transform="scale(0.015625)"/>
       </defs>
       <use xlink:href="#DejaVuSans-30"/>
      </g>
     </g>
    </g>
   </g>
   <g id="line2d_5">
    <path d="M 70.462045 100.468604 
L 77.425864 99.185581 
L 84.389682 98.027435 
L 91.3535 97.010512 
L 98.317318 96.146369 
L 105.281136 95.441287 
L 112.244955 94.896063 
L 119.208773 94.506124 
L 126.172591 94.261917 
L 133.136409 94.149606 
L 140.100227 94.15198 
L 147.064045 94.249509 
L 154.027864 94.421424 
L 160.991682 94.646821 
L 167.9555 94.905635 
L 174.919318 95.179467 
L 181.883136 95.452256 
L 188.846955 95.710762 
L 195.810773 95.944905 
L 202.774591 96.147998 
L 209.738409 96.316923 
L 216.702227 96.452248 
L 223.666045 96.558392 
L 230.629864 96.643768 
L 237.593682 96.720921 
L 244.5575 96.806623 
L 251.521318 96.921857 
L 258.485136 97.091575 
L 265.448955 97.34426 
L 272.412773 97.711146 
L 279.376591 98.225082 
L 286.340409 98.919093 
L 293.304227 99.824664 
L 300.268045 100.969778 
L 307.231864 102.376947 
L 314.195682 104.061287 
L 321.1595 106.028849 
L 328.123318 108.275356 
L 335.087136 110.785467 
L 342.050955 113.532701 
L 349.014773 116.480029 
L 355.978591 119.581189 
L 362.942409 122.782583 
L 369.906227 126.02575 
L 376.870045 129.250156 
L 383.833864 132.396159 
L 390.797682 135.407973 
L 397.7615 138.236345 
L 404.725318 140.840864 
L 411.689136 143.191652 
L 418.652955 145.270405 
" clip-path="url(#pf6ba296228)" style="fill: none; stroke: #000000; stroke-width: 2; stroke-linecap: square"/>
   </g>
   <g id="line2d_6">
    <path d="M 70.462045 75.241752 
L 77.425864 76.34852 
L 84.389682 77.455289 
L 91.3535 78.562057 
L 98.317318 79.668825 
L 105.281136 80.775594 
L 112.244955 81.882362 
L 119.208773 82.989131 
L 126.172591 84.095899 
L 133.136409 85.202667 
L 140.100227 86.309436 
L 147.064045 87.416204 
L 154.027864 88.522973 
L 160.991682 89.629741 
L 167.9555 90.736509 
L 174.919318 91.843278 
L 181.883136 92.950046 
L 188.846955 94.056815 
L 195.810773 95.163583 
L 202.774591 96.270351 
L 209.738409 97.37712 
L 216.702227 98.483888 
L 223.666045 99.590657 
L 230.629864 100.697425 
L 237.593682 101.804193 
L 244.5575 102.910962 
L 251.521318 104.01773 
L 258.485136 105.124499 
L 265.448955 106.231267 
L 272.412773 107.338035 
L 279.376591 108.444804 
L 286.340409 109.551572 
L 293.304227 110.658341 
L 300.268045 111.765109 
L 307.231864 112.871877 
L 314.195682 113.978646 
L 321.1595 115.085414 
L 328.123318 116.192183 
L 335.087136 117.298951 
L 342.050955 118.405719 
L 349.014773 119.512488 
L 355.978591 120.619256 
L 362.942409 121.726024 
L 369.906227 122.832793 
L 376.870045 123.939561 
L 383.833864 125.04633 
L 390.797682 126.153098 
L 397.7615 127.259866 
L 404.725318 128.366635 
L 411.689136 129.473403 
L 418.652955 130.580172 
" clip-path="url(#pf6ba296228)" style="fill: none; stroke-dasharray: 7.4,3.2; stroke-dashoffset: 0; stroke: #34b6c6; stroke-width: 2"/>
   </g>
   <g id="line2d_7">
    <path d="M 70.462045 96.092129 
L 77.425864 95.956482 
L 84.389682 95.820914 
L 91.3535 95.685713 
L 98.317318 95.551199 
L 105.281136 95.417726 
L 112.244955 95.285688 
L 119.208773 95.155519 
L 126.172591 95.027704 
L 133.136409 94.90278 
L 140.100227 94.781349 
L 147.064045 94.664089 
L 154.027864 94.551762 
L 160.991682 94.445236 
L 167.9555 94.345502 
L 174.919318 94.253702 
L 181.883136 94.171159 
L 188.846955 94.099424 
L 195.810773 94.040321 
L 202.774591 93.996016 
L 209.738409 93.969101 
L 216.702227 93.9627 
L 223.666045 93.980594 
L 230.629864 94.027393 
L 237.593682 94.108732 
L 244.5575 94.231518 
L 251.521318 94.404225 
L 258.485136 94.637232 
L 265.448955 94.943203 
L 272.412773 95.337486 
L 279.376591 95.83849 
L 286.340409 96.467984 
L 293.304227 97.251218 
L 300.268045 98.21675 
L 307.231864 99.395863 
L 314.195682 100.821439 
L 321.1595 102.526237 
L 328.123318 104.540525 
L 335.087136 106.888905 
L 342.050955 109.585899 
L 349.014773 112.629456 
L 355.978591 115.991662 
L 362.942409 119.607093 
L 369.906227 123.361939 
L 376.870045 127.091508 
L 383.833864 130.598248 
L 390.797682 133.696099 
L 397.7615 136.262657 
L 404.725318 138.26462 
L 411.689136 139.743363 
L 418.652955 140.779814 
" clip-path="url(#pf6ba296228)" style="fill: none; stroke-dasharray: 7.4,3.2; stroke-dashoffset: 0; stroke: #9370db; stroke-width: 2"/>
   </g>
   <g id="line2d_8">
    <path d="M 70.462045 96.131539 
L 77.425864 96.071108 
L 84.389682 96.010758 
L 91.3535 95.950782 
L 98.317318 95.891508 
L 105.281136 95.833298 
L 112.244955 95.776552 
L 119.208773 95.721715 
L 126.172591 95.669281 
L 133.136409 95.619799 
L 140.100227 95.573885 
L 147.064045 95.53223 
L 154.027864 95.495612 
L 160.991682 95.464917 
L 167.9555 95.441158 
L 174.919318 95.4255 
L 181.883136 95.419296 
L 188.846955 95.424128 
L 195.810773 95.441858 
L 202.774591 95.474699 
L 209.738409 95.525299 
L 216.702227 95.596845 
L 223.666045 95.6932 
L 230.629864 95.819071 
L 237.593682 95.980211 
L 244.5575 96.183675 
L 251.521318 96.438114 
L 258.485136 96.754128 
L 265.448955 97.144647 
L 272.412773 97.625345 
L 279.376591 98.215019 
L 286.340409 98.935898 
L 293.304227 99.813766 
L 300.268045 100.877786 
L 307.231864 102.1599 
L 314.195682 103.693684 
L 321.1595 105.512591 
L 328.123318 107.647529 
L 335.087136 110.12362 
L 342.050955 112.955691 
L 349.014773 116.141649 
L 355.978591 119.65299 
L 362.942409 123.422907 
L 369.906227 127.335185 
L 376.870045 131.221653 
L 383.833864 134.880583 
L 390.797682 138.121982 
L 397.7615 140.82086 
L 404.725318 142.943212 
L 411.689136 144.531288 
L 418.652955 145.667725 
" clip-path="url(#pf6ba296228)" style="fill: none; stroke-dasharray: 12.8,3.2,2,3.2; stroke-dashoffset: 0; stroke: #ff0000; stroke-width: 2"/>
   </g>
   <g id="patch_4">
    <path d="M 53.0525 165.688 
L 53.0525 70.696 
" style="fill: none; stroke: #000000; stroke-width: 0.8; stroke-linejoin: miter; stroke-linecap: square"/>
   </g>
   <g id="patch_5">
    <path d="M 436.0625 165.688 
L 436.0625 70.696 
" style="fill: none; stroke: #000000; stroke-width: 0.8; stroke-linejoin: miter; stroke-linecap: square"/>
   </g>
   <g id="patch_6">
    <path d="M 53.0525 165.688 
L 436.0625 165.688 
" style="fill: none; stroke: #000000; stroke-width: 0.8; stroke-linejoin: miter; stroke-linecap: square"/>
   </g>
   <g id="patch_7">
    <path d="M 53.0525 70.696 
L 436.0625 70.696 
" style="fill: none; stroke: #000000; stroke-width: 0.8; stroke-linejoin: miter; stroke-linecap: square"/>
   </g>
  </g>
  <g id="axes_3">
   <g id="patch_8">
    <path d="M 53.0525 276.68 
L 436.0625 276.68 
L 436.0625 181.688 
L 53.0525 181.688 
z
" style="fill: #ffffff"/>
   </g>
   <g id="PathCollection_2">
    <g clip-path="url(#pd48d8c3c25)">
     <use xlink:href="#ma486487ea1" x="278.18882" y="242.850146" style="fill: #daa520; stroke: #daa520"/>
     <use xlink:href="#ma486487ea1" x="414.319903" y="231.753147" style="fill: #daa520; stroke: #daa520"/>
     <use xlink:href="#ma486487ea1" x="270.207688" y="207.197989" style="fill: #daa520; stroke: #daa520"/>
     <use xlink:href="#ma486487ea1" x="115.935958" y="207.146624" style="fill: #daa520; stroke: #daa520"/>
     <use xlink:href="#ma486487ea1" x="101.133435" y="224.422991" style="fill: #daa520; stroke: #daa520"/>
     <use xlink:href="#ma486487ea1" x="375.357301" y="255.094819" style="fill: #daa520; stroke: #daa520"/>
     <use xlink:href="#ma486487ea1" x="415.358093" y="249.437282" style="fill: #daa520; stroke: #daa520"/>
     <use xlink:href="#ma486487ea1" x="361.965502" y="248.569213" style="fill: #daa520; stroke: #daa520"/>
     <use xlink:href="#ma486487ea1" x="374.006687" y="203.674642" style="fill: #daa520; stroke: #daa520"/>
     <use xlink:href="#ma486487ea1" x="317.688931" y="186.005818" style="fill: #daa520; stroke: #daa520"/>
     <use xlink:href="#ma486487ea1" x="299.203394" y="255.752587" style="fill: #daa520; stroke: #daa520"/>
     <use xlink:href="#ma486487ea1" x="307.26194" y="229.685445" style="fill: #daa520; stroke: #daa520"/>
     <use xlink:href="#ma486487ea1" x="232.629213" y="220.23298" style="fill: #daa520; stroke: #daa520"/>
     <use xlink:href="#ma486487ea1" x="276.933533" y="231.402114" style="fill: #daa520; stroke: #daa520"/>
     <use xlink:href="#ma486487ea1" x="366.848671" y="251.041748" style="fill: #daa520; stroke: #daa520"/>
     <use xlink:href="#ma486487ea1" x="373.592582" y="205.945458" style="fill: #daa520; stroke: #daa520"/>
     <use xlink:href="#ma486487ea1" x="402.575909" y="233.878652" style="fill: #daa520; stroke: #daa520"/>
     <use xlink:href="#ma486487ea1" x="333.827904" y="264.877653" style="fill: #daa520; stroke: #daa520"/>
     <use xlink:href="#ma486487ea1" x="294.601035" y="241.403831" style="fill: #daa520; stroke: #daa520"/>
     <use xlink:href="#ma486487ea1" x="398.718517" y="262.581166" style="fill: #daa520; stroke: #daa520"/>
     <use xlink:href="#ma486487ea1" x="154.957723" y="254.567719" style="fill: #daa520; stroke: #daa520"/>
     <use xlink:href="#ma486487ea1" x="133.915782" y="209.840245" style="fill: #daa520; stroke: #daa520"/>
     <use xlink:href="#ma486487ea1" x="372.692079" y="207.944214" style="fill: #daa520; stroke: #daa520"/>
     <use xlink:href="#ma486487ea1" x="385.640472" y="229.550852" style="fill: #daa520; stroke: #daa520"/>
     <use xlink:href="#ma486487ea1" x="389.334093" y="236.960391" style="fill: #daa520; stroke: #daa520"/>
     <use xlink:href="#ma486487ea1" x="384.544176" y="261.191503" style="fill: #daa520; stroke: #daa520"/>
     <use xlink:href="#ma486487ea1" x="408.718195" y="236.633946" style="fill: #daa520; stroke: #daa520"/>
     <use xlink:href="#ma486487ea1" x="372.268448" y="209.321477" style="fill: #daa520; stroke: #daa520"/>
     <use xlink:href="#ma486487ea1" x="294.129885" y="236.090646" style="fill: #daa520; stroke: #daa520"/>
     <use xlink:href="#ma486487ea1" x="372.62077" y="265.644271" style="fill: #daa520; stroke: #daa520"/>
     <use xlink:href="#ma486487ea1" x="412.393028" y="214.722273" style="fill: #daa520; stroke: #daa520"/>
     <use xlink:href="#ma486487ea1" x="415.828311" y="228.455799" style="fill: #daa520; stroke: #daa520"/>
     <use xlink:href="#ma486487ea1" x="406.061185" y="217.035237" style="fill: #daa520; stroke: #daa520"/>
     <use xlink:href="#ma486487ea1" x="298.603331" y="188.716962" style="fill: #daa520; stroke: #daa520"/>
     <use xlink:href="#ma486487ea1" x="381.209098" y="208.095962" style="fill: #daa520; stroke: #daa520"/>
     <use xlink:href="#ma486487ea1" x="368.637192" y="203.021288" style="fill: #daa520; stroke: #daa520"/>
     <use xlink:href="#ma486487ea1" x="361.811891" y="257.945927" style="fill: #daa520; stroke: #daa520"/>
     <use xlink:href="#ma486487ea1" x="345.307537" y="232.91866" style="fill: #daa520; stroke: #daa520"/>
     <use xlink:href="#ma486487ea1" x="382.448734" y="208.161784" style="fill: #daa520; stroke: #daa520"/>
     <use xlink:href="#ma486487ea1" x="350.215653" y="191.837348" style="fill: #daa520; stroke: #daa520"/>
     <use xlink:href="#ma486487ea1" x="363.288582" y="223.684403" style="fill: #daa520; stroke: #daa520"/>
     <use xlink:href="#ma486487ea1" x="321.48558" y="229.707199" style="fill: #daa520; stroke: #daa520"/>
     <use xlink:href="#ma486487ea1" x="299.774828" y="237.747385" style="fill: #daa520; stroke: #daa520"/>
     <use xlink:href="#ma486487ea1" x="362.951267" y="271.257136" style="fill: #daa520; stroke: #daa520"/>
     <use xlink:href="#ma486487ea1" x="305.127036" y="235.647732" style="fill: #daa520; stroke: #daa520"/>
     <use xlink:href="#ma486487ea1" x="347.895573" y="223.469205" style="fill: #daa520; stroke: #daa520"/>
     <use xlink:href="#ma486487ea1" x="376.774725" y="212.335207" style="fill: #daa520; stroke: #daa520"/>
     <use xlink:href="#ma486487ea1" x="369.109376" y="208.30011" style="fill: #daa520; stroke: #daa520"/>
     <use xlink:href="#ma486487ea1" x="414.630399" y="239.665279" style="fill: #daa520; stroke: #daa520"/>
     <use xlink:href="#ma486487ea1" x="413.000464" y="201.859372" style="fill: #daa520; stroke: #daa520"/>
     <use xlink:href="#ma486487ea1" x="226.536822" y="211.413255" style="fill: #daa520; stroke: #daa520"/>
     <use xlink:href="#ma486487ea1" x="375.73153" y="265.874203" style="fill: #daa520; stroke: #daa520"/>
     <use xlink:href="#ma486487ea1" x="368.691971" y="217.399501" style="fill: #daa520; stroke: #daa520"/>
     <use xlink:href="#ma486487ea1" x="345.904882" y="214.302913" style="fill: #daa520; stroke: #daa520"/>
     <use xlink:href="#ma486487ea1" x="326.048841" y="263.515751" style="fill: #daa520; stroke: #daa520"/>
     <use xlink:href="#ma486487ea1" x="316.759252" y="198.226219" style="fill: #daa520; stroke: #daa520"/>
     <use xlink:href="#ma486487ea1" x="326.515177" y="248.372261" style="fill: #daa520; stroke: #daa520"/>
     <use xlink:href="#ma486487ea1" x="371.635656" y="202.464129" style="fill: #daa520; stroke: #daa520"/>
     <use xlink:href="#ma486487ea1" x="380.090127" y="215.621367" style="fill: #daa520; stroke: #daa520"/>
     <use xlink:href="#ma486487ea1" x="392.463328" y="249.829935" style="fill: #daa520; stroke: #daa520"/>
     <use xlink:href="#ma486487ea1" x="113.648697" y="256.892234" style="fill: #daa520; stroke: #daa520"/>
     <use xlink:href="#ma486487ea1" x="383.753627" y="214.137334" style="fill: #daa520; stroke: #daa520"/>
     <use xlink:href="#ma486487ea1" x="399.919494" y="246.697909" style="fill: #daa520; stroke: #daa520"/>
     <use xlink:href="#ma486487ea1" x="300.793514" y="233.784633" style="fill: #daa520; stroke: #daa520"/>
     <use xlink:href="#ma486487ea1" x="180.603485" y="246.217392" style="fill: #daa520; stroke: #daa520"/>
     <use xlink:href="#ma486487ea1" x="257.767776" y="207.700502" style="fill: #daa520; stroke: #daa520"/>
     <use xlink:href="#ma486487ea1" x="391.214037" y="251.994798" style="fill: #daa520; stroke: #daa520"/>
     <use xlink:href="#ma486487ea1" x="72.642625" y="205.139452" style="fill: #daa520; stroke: #daa520"/>
     <use xlink:href="#ma486487ea1" x="338.03888" y="243.462672" style="fill: #daa520; stroke: #daa520"/>
     <use xlink:href="#ma486487ea1" x="414.005543" y="195.434953" style="fill: #daa520; stroke: #daa520"/>
     <use xlink:href="#ma486487ea1" x="351.169243" y="238.959829" style="fill: #daa520; stroke: #daa520"/>
     <use xlink:href="#ma486487ea1" x="361.671909" y="212.716139" style="fill: #daa520; stroke: #daa520"/>
     <use xlink:href="#ma486487ea1" x="358.631037" y="197.10981" style="fill: #daa520; stroke: #daa520"/>
     <use xlink:href="#ma486487ea1" x="396.122894" y="204.008929" style="fill: #daa520; stroke: #daa520"/>
     <use xlink:href="#ma486487ea1" x="140.59835" y="234.482854" style="fill: #daa520; stroke: #daa520"/>
     <use xlink:href="#ma486487ea1" x="144.106341" y="201.171667" style="fill: #daa520; stroke: #daa520"/>
     <use xlink:href="#ma486487ea1" x="361.519009" y="264.249532" style="fill: #daa520; stroke: #daa520"/>
     <use xlink:href="#ma486487ea1" x="390.677095" y="214.893001" style="fill: #daa520; stroke: #daa520"/>
     <use xlink:href="#ma486487ea1" x="340.909313" y="239.838954" style="fill: #daa520; stroke: #daa520"/>
     <use xlink:href="#ma486487ea1" x="396.322573" y="232.42269" style="fill: #daa520; stroke: #daa520"/>
     <use xlink:href="#ma486487ea1" x="253.385903" y="224.847704" style="fill: #daa520; stroke: #daa520"/>
     <use xlink:href="#ma486487ea1" x="364.678532" y="205.777297" style="fill: #daa520; stroke: #daa520"/>
     <use xlink:href="#ma486487ea1" x="359.622579" y="229.39286" style="fill: #daa520; stroke: #daa520"/>
     <use xlink:href="#ma486487ea1" x="407.192691" y="233.11234" style="fill: #daa520; stroke: #daa520"/>
     <use xlink:href="#ma486487ea1" x="191.154477" y="208.356902" style="fill: #daa520; stroke: #daa520"/>
     <use xlink:href="#ma486487ea1" x="405.047844" y="266.991851" style="fill: #daa520; stroke: #daa520"/>
     <use xlink:href="#ma486487ea1" x="398.66623" y="214.897353" style="fill: #daa520; stroke: #daa520"/>
     <use xlink:href="#ma486487ea1" x="368.28101" y="215.993783" style="fill: #daa520; stroke: #daa520"/>
     <use xlink:href="#ma486487ea1" x="371.023517" y="218.671822" style="fill: #daa520; stroke: #daa520"/>
     <use xlink:href="#ma486487ea1" x="287.364265" y="248.058091" style="fill: #daa520; stroke: #daa520"/>
     <use xlink:href="#ma486487ea1" x="327.961799" y="189.369184" style="fill: #daa520; stroke: #daa520"/>
     <use xlink:href="#ma486487ea1" x="369.137027" y="207.620102" style="fill: #daa520; stroke: #daa520"/>
     <use xlink:href="#ma486487ea1" x="399.903059" y="254.947102" style="fill: #daa520; stroke: #daa520"/>
     <use xlink:href="#ma486487ea1" x="372.843048" y="272.362182" style="fill: #daa520; stroke: #daa520"/>
    </g>
   </g>
   <g id="matplotlib.axis_5">
    <g id="xtick_1">
     <g id="line2d_9">
      <defs>
       <path id="ma02ea8cb83" d="M 0 0 
L 0 3.5 
" style="stroke: #696969; stroke-width: 0.8"/>
      </defs>
      <g>
       <use xlink:href="#ma02ea8cb83" x="70.462045" y="276.68" style="fill: #696969; stroke: #696969; stroke-width: 0.8"/>
      </g>
     </g>
     <g id="text_3">
      <!-- −1.0 -->
      <g style="fill: #696969" transform="translate(51.035795 295.8375) scale(0.16 -0.16)">
       <defs>
        <path id="DejaVuSans-31" d="M 794 531 
L 1825 531 
L 1825 4091 
L 703 3866 
L 703 4441 
L 1819 4666 
L 2450 4666 
L 2450 531 
L 3481 531 
L 3481 0 
L 794 0 
L 794 531 
z
" transform="scale(0.015625)"/>
        <path id="DejaVuSans-2e" d="M 684 794 
L 1344 794 
L 1344 0 
L 684 0 
L 684 794 
z
" transform="scale(0.015625)"/>
       </defs>
       <use xlink:href="#DejaVuSans-2212"/>
       <use xlink:href="#DejaVuSans-31" x="83.789062"/>
       <use xlink:href="#DejaVuSans-2e" x="147.412109"/>
       <use xlink:href="#DejaVuSans-30" x="179.199219"/>
      </g>
     </g>
    </g>
    <g id="xtick_2">
     <g id="line2d_10">
      <g>
       <use xlink:href="#ma02ea8cb83" x="157.509773" y="276.68" style="fill: #696969; stroke: #696969; stroke-width: 0.8"/>
      </g>
     </g>
     <g id="text_4">
      <!-- −0.5 -->
      <g style="fill: #696969" transform="translate(138.083523 295.8375) scale(0.16 -0.16)">
       <use xlink:href="#DejaVuSans-2212"/>
       <use xlink:href="#DejaVuSans-30" x="83.789062"/>
       <use xlink:href="#DejaVuSans-2e" x="147.412109"/>
       <use xlink:href="#DejaVuSans-35" x="179.199219"/>
      </g>
     </g>
    </g>
    <g id="xtick_3">
     <g id="line2d_11">
      <g>
       <use xlink:href="#ma02ea8cb83" x="244.5575" y="276.68" style="fill: #696969; stroke: #696969; stroke-width: 0.8"/>
      </g>
     </g>
     <g id="text_5">
      <!-- 0.0 -->
      <g style="fill: #696969" transform="translate(231.835 295.8375) scale(0.16 -0.16)">
       <use xlink:href="#DejaVuSans-30"/>
       <use xlink:href="#DejaVuSans-2e" x="63.623047"/>
       <use xlink:href="#DejaVuSans-30" x="95.410156"/>
      </g>
     </g>
    </g>
    <g id="xtick_4">
     <g id="line2d_12">
      <g>
       <use xlink:href="#ma02ea8cb83" x="331.605227" y="276.68" style="fill: #696969; stroke: #696969; stroke-width: 0.8"/>
      </g>
     </g>
     <g id="text_6">
      <!-- 0.5 -->
      <g style="fill: #696969" transform="translate(318.882727 295.8375) scale(0.16 -0.16)">
       <use xlink:href="#DejaVuSans-30"/>
       <use xlink:href="#DejaVuSans-2e" x="63.623047"/>
       <use xlink:href="#DejaVuSans-35" x="95.410156"/>
      </g>
     </g>
    </g>
    <g id="xtick_5">
     <g id="line2d_13">
      <g>
       <use xlink:href="#ma02ea8cb83" x="418.652955" y="276.68" style="fill: #696969; stroke: #696969; stroke-width: 0.8"/>
      </g>
     </g>
     <g id="text_7">
      <!-- 1.0 -->
      <g style="fill: #696969" transform="translate(405.930455 295.8375) scale(0.16 -0.16)">
       <use xlink:href="#DejaVuSans-31"/>
       <use xlink:href="#DejaVuSans-2e" x="63.623047"/>
       <use xlink:href="#DejaVuSans-30" x="95.410156"/>
      </g>
     </g>
    </g>
    <g id="text_8">
     <!-- $X$ -->
     <g transform="translate(239.0375 315.3225) scale(0.16 -0.16)">
      <defs>
       <path id="DejaVuSans-Oblique-58" d="M 878 4666 
L 1516 4666 
L 2316 2981 
L 3763 4666 
L 4500 4666 
L 2578 2438 
L 3738 0 
L 3103 0 
L 2163 1966 
L 459 0 
L -275 0 
L 1906 2509 
L 878 4666 
z
" transform="scale(0.015625)"/>
      </defs>
      <use xlink:href="#DejaVuSans-Oblique-58" transform="translate(0 0.09375)"/>
     </g>
    </g>
   </g>
   <g id="matplotlib.axis_6">
    <g id="ytick_3">
     <g id="line2d_14">
      <g>
       <use xlink:href="#mbbc4c3d287" x="53.0525" y="264.253642" style="fill: #696969; stroke: #696969; stroke-width: 0.8"/>
      </g>
     </g>
     <g id="text_9">
      <!-- −2.5 -->
      <g style="fill: #696969" transform="translate(7.2 270.332392) scale(0.16 -0.16)">
       <defs>
        <path id="DejaVuSans-32" d="M 1228 531 
L 3431 531 
L 3431 0 
L 469 0 
L 469 531 
Q 828 903 1448 1529 
Q 2069 2156 2228 2338 
Q 2531 2678 2651 2914 
Q 2772 3150 2772 3378 
Q 2772 3750 2511 3984 
Q 2250 4219 1831 4219 
Q 1534 4219 1204 4116 
Q 875 4013 500 3803 
L 500 4441 
Q 881 4594 1212 4672 
Q 1544 4750 1819 4750 
Q 2544 4750 2975 4387 
Q 3406 4025 3406 3419 
Q 3406 3131 3298 2873 
Q 3191 2616 2906 2266 
Q 2828 2175 2409 1742 
Q 1991 1309 1228 531 
z
" transform="scale(0.015625)"/>
       </defs>
       <use xlink:href="#DejaVuSans-2212"/>
       <use xlink:href="#DejaVuSans-32" x="83.789062"/>
       <use xlink:href="#DejaVuSans-2e" x="147.412109"/>
       <use xlink:href="#DejaVuSans-35" x="179.199219"/>
      </g>
     </g>
    </g>
    <g id="ytick_4">
     <g id="line2d_15">
      <g>
       <use xlink:href="#mbbc4c3d287" x="53.0525" y="222.578514" style="fill: #696969; stroke: #696969; stroke-width: 0.8"/>
      </g>
     </g>
     <g id="text_10">
      <!-- 0.0 -->
      <g style="fill: #696969" transform="translate(20.6075 228.657264) scale(0.16 -0.16)">
       <use xlink:href="#DejaVuSans-30"/>
       <use xlink:href="#DejaVuSans-2e" x="63.623047"/>
       <use xlink:href="#DejaVuSans-30" x="95.410156"/>
      </g>
     </g>
    </g>
   </g>
   <g id="line2d_16">
    <path d="M 70.462045 215.406949 
L 77.425864 217.42857 
L 84.389682 219.243832 
L 91.3535 220.826195 
L 98.317318 222.157088 
L 105.281136 223.226725 
L 112.244955 224.03445 
L 119.208773 224.588558 
L 126.172591 224.905664 
L 133.136409 225.009557 
L 140.100227 224.92971 
L 147.064045 224.699561 
L 154.027864 224.354741 
L 160.991682 223.931279 
L 167.9555 223.46403 
L 174.919318 222.985343 
L 181.883136 222.524014 
L 188.846955 222.10455 
L 195.810773 221.7467 
L 202.774591 221.465179 
L 209.738409 221.269522 
L 216.702227 221.16406 
L 223.666045 221.147874 
L 230.629864 221.214833 
L 237.593682 221.353711 
L 244.5575 221.548435 
L 251.521318 221.77862 
L 258.485136 222.020527 
L 265.448955 222.248444 
L 272.412773 222.436637 
L 279.376591 222.561874 
L 286.340409 222.606303 
L 293.304227 222.560495 
L 300.268045 222.426401 
L 307.231864 222.219616 
L 314.195682 221.970663 
L 321.1595 221.724855 
L 328.123318 221.54037 
L 335.087136 221.484115 
L 342.050955 221.624398 
L 349.014773 222.018986 
L 355.978591 222.697242 
L 362.942409 223.637325 
L 369.906227 224.743735 
L 376.870045 225.838489 
L 383.833864 226.68664 
L 390.797682 227.066272 
L 397.7615 226.852146 
L 404.725318 226.054859 
L 411.689136 224.793674 
L 418.652955 223.235503 
" clip-path="url(#pd48d8c3c25)" style="fill: none; stroke: #696969; stroke-width: 2; stroke-linecap: square"/>
   </g>
   <g id="line2d_17">
    <path d="M 70.462045 221.915086 
L 77.425864 222.082875 
L 84.389682 222.250664 
L 91.3535 222.418452 
L 98.317318 222.586241 
L 105.281136 222.75403 
L 112.244955 222.921818 
L 119.208773 223.089607 
L 126.172591 223.257395 
L 133.136409 223.425184 
L 140.100227 223.592973 
L 147.064045 223.760761 
L 154.027864 223.92855 
L 160.991682 224.096338 
L 167.9555 224.264127 
L 174.919318 224.431916 
L 181.883136 224.599704 
L 188.846955 224.767493 
L 195.810773 224.935282 
L 202.774591 225.10307 
L 209.738409 225.270859 
L 216.702227 225.438647 
L 223.666045 225.606436 
L 230.629864 225.774225 
L 237.593682 225.942013 
L 244.5575 226.109802 
L 251.521318 226.277591 
L 258.485136 226.445379 
L 265.448955 226.613168 
L 272.412773 226.780956 
L 279.376591 226.948745 
L 286.340409 227.116534 
L 293.304227 227.284322 
L 300.268045 227.452111 
L 307.231864 227.6199 
L 314.195682 227.787688 
L 321.1595 227.955477 
L 328.123318 228.123265 
L 335.087136 228.291054 
L 342.050955 228.458843 
L 349.014773 228.626631 
L 355.978591 228.79442 
L 362.942409 228.962208 
L 369.906227 229.129997 
L 376.870045 229.297786 
L 383.833864 229.465574 
L 390.797682 229.633363 
L 397.7615 229.801152 
L 404.725318 229.96894 
L 411.689136 230.136729 
L 418.652955 230.304517 
" clip-path="url(#pd48d8c3c25)" style="fill: none; stroke-dasharray: 7.4,3.2; stroke-dashoffset: 0; stroke: #79ad41; stroke-width: 2"/>
   </g>
   <g id="patch_9">
    <path d="M 53.0525 276.68 
L 53.0525 181.688 
" style="fill: none; stroke: #000000; stroke-width: 0.8; stroke-linejoin: miter; stroke-linecap: square"/>
   </g>
   <g id="patch_10">
    <path d="M 436.0625 276.68 
L 436.0625 181.688 
" style="fill: none; stroke: #000000; stroke-width: 0.8; stroke-linejoin: miter; stroke-linecap: square"/>
   </g>
   <g id="patch_11">
    <path d="M 53.0525 276.68 
L 436.0625 276.68 
" style="fill: none; stroke: #000000; stroke-width: 0.8; stroke-linejoin: miter; stroke-linecap: square"/>
   </g>
   <g id="patch_12">
    <path d="M 53.0525 181.688 
L 436.0625 181.688 
" style="fill: none; stroke: #000000; stroke-width: 0.8; stroke-linejoin: miter; stroke-linecap: square"/>
   </g>
  </g>
 </g>
 <defs>
  <clipPath id="p9c04d40f42">
   <rect x="53.0525" y="7.2" width="383.01" height="47.496"/>
  </clipPath>
  <clipPath id="pf6ba296228">
   <rect x="53.0525" y="70.696" width="383.01" height="94.992"/>
  </clipPath>
  <clipPath id="pd48d8c3c25">
   <rect x="53.0525" y="181.688" width="383.01" height="94.992"/>
  </clipPath>
 </defs>
</svg>
