<?xml version="1.0" encoding="utf-8" standalone="no"?>
<!DOCTYPE svg PUBLIC "-//W3C//DTD SVG 1.1//EN"
  "http://www.w3.org/Graphics/SVG/1.1/DTD/svg11.dtd">
<svg xmlns:xlink="http://www.w3.org/1999/xlink" width="443.2075pt" height="325.85pt" viewBox="0 0 443.2075 325.85" xmlns="http://www.w3.org/2000/svg" version="1.1">
 <metadata>
  <rdf:RDF xmlns:dc="http://purl.org/dc/elements/1.1/" xmlns:cc="http://creativecommons.org/ns#" xmlns:rdf="http://www.w3.org/1999/02/22-rdf-syntax-ns#">
   <cc:Work>
    <dc:type rdf:resource="http://purl.org/dc/dcmitype/StillImage"/>
    <dc:date>2024-01-28T20:58:25.243837</dc:date>
    <dc:format>image/svg+xml</dc:format>
    <dc:creator>
     <cc:Agent>
      <dc:title>Matplotlib v3.7.2, https://matplotlib.org/</dc:title>
     </cc:Agent>
    </dc:creator>
   </cc:Work>
  </rdf:RDF>
 </metadata>
 <defs>
  <style type="text/css">*{stroke-linejoin: round; stroke-linecap: butt}</style>
 </defs>
 <g id="figure_1">
  <g id="patch_1">
   <path d="M 0 325.85 
L 443.2075 325.85 
L 443.2075 0 
L 0 0 
z
" style="fill: #ffffff"/>
  </g>
  <g id="axes_1">
   <g id="patch_2">
    <path d="M 37.7875 54.696 
L 436.0075 54.696 
L 436.0075 7.2 
L 37.7875 7.2 
z
" style="fill: #ffffff"/>
   </g>
   <g id="PolyCollection_1">
    <defs>
     <path id="m4be66753b5" d="M 55.888409 -273.312909 
L 55.888409 -309.713679 
L 63.128773 -309.464067 
L 70.369136 -309.142771 
L 77.6095 -308.751743 
L 84.849864 -308.293036 
L 92.090227 -307.769001 
L 99.330591 -307.182524 
L 106.570955 -306.537201 
L 113.811318 -305.837567 
L 121.051682 -305.089166 
L 128.292045 -304.298677 
L 135.532409 -303.473919 
L 142.772773 -302.623792 
L 150.013136 -301.758158 
L 157.2535 -300.887633 
L 164.493864 -300.023381 
L 171.734227 -299.176806 
L 178.974591 -298.35927 
L 186.214955 -297.581871 
L 193.455318 -296.855179 
L 200.695682 -296.189107 
L 207.936045 -295.592786 
L 215.176409 -295.074577 
L 222.416773 -294.642089 
L 229.657136 -294.302275 
L 236.8975 -294.061552 
L 244.137864 -293.925956 
L 251.378227 -293.901238 
L 258.618591 -293.992968 
L 265.858955 -294.206553 
L 273.099318 -294.547168 
L 280.339682 -295.019563 
L 287.580045 -295.627723 
L 294.820409 -296.374402 
L 302.060773 -297.260447 
L 309.301136 -298.284002 
L 316.5415 -299.439651 
L 323.781864 -300.717584 
L 331.022227 -302.102906 
L 338.262591 -303.575371 
L 345.502955 -305.109622 
L 352.743318 -306.676111 
L 359.983682 -308.24272 
L 367.224045 -309.776886 
L 374.464409 -311.248002 
L 381.704773 -312.629657 
L 388.945136 -313.901369 
L 396.1855 -315.049569 
L 403.425864 -316.067706 
L 410.666227 -316.491091 
L 417.906591 -316.491091 
L 417.906591 -273.312909 
L 417.906591 -273.312909 
L 410.666227 -273.312909 
L 403.425864 -273.312909 
L 396.1855 -273.312909 
L 388.945136 -273.312909 
L 381.704773 -273.312909 
L 374.464409 -273.312909 
L 367.224045 -273.312909 
L 359.983682 -273.312909 
L 352.743318 -273.312909 
L 345.502955 -273.312909 
L 338.262591 -273.312909 
L 331.022227 -273.312909 
L 323.781864 -273.312909 
L 316.5415 -273.312909 
L 309.301136 -273.312909 
L 302.060773 -273.312909 
L 294.820409 -273.312909 
L 287.580045 -273.312909 
L 280.339682 -273.312909 
L 273.099318 -273.312909 
L 265.858955 -273.312909 
L 258.618591 -273.312909 
L 251.378227 -273.312909 
L 244.137864 -273.312909 
L 236.8975 -273.312909 
L 229.657136 -273.312909 
L 222.416773 -273.312909 
L 215.176409 -273.312909 
L 207.936045 -273.312909 
L 200.695682 -273.312909 
L 193.455318 -273.312909 
L 186.214955 -273.312909 
L 178.974591 -273.312909 
L 171.734227 -273.312909 
L 164.493864 -273.312909 
L 157.2535 -273.312909 
L 150.013136 -273.312909 
L 142.772773 -273.312909 
L 135.532409 -273.312909 
L 128.292045 -273.312909 
L 121.051682 -273.312909 
L 113.811318 -273.312909 
L 106.570955 -273.312909 
L 99.330591 -273.312909 
L 92.090227 -273.312909 
L 84.849864 -273.312909 
L 77.6095 -273.312909 
L 70.369136 -273.312909 
L 63.128773 -273.312909 
L 55.888409 -273.312909 
z
" style="stroke: #dc143c; stroke-opacity: 0.2"/>
    </defs>
    <g clip-path="url(#p02c2a6bceb)">
     <use xlink:href="#m4be66753b5" x="0" y="325.85" style="fill: #dc143c; fill-opacity: 0.2; stroke: #dc143c; stroke-opacity: 0.2"/>
    </g>
   </g>
   <g id="PolyCollection_2">
    <defs>
     <path id="m1281b021fb" d="M 55.888409 -273.312909 
L 55.888409 -284.887897 
L 63.128773 -285.137509 
L 70.369136 -285.458805 
L 77.6095 -285.849832 
L 84.849864 -286.30854 
L 92.090227 -286.832574 
L 99.330591 -287.419052 
L 106.570955 -288.064375 
L 113.811318 -288.764009 
L 121.051682 -289.51241 
L 128.292045 -290.302898 
L 135.532409 -291.127657 
L 142.772773 -291.977783 
L 150.013136 -292.843417 
L 157.2535 -293.713943 
L 164.493864 -294.578195 
L 171.734227 -295.42477 
L 178.974591 -296.242306 
L 186.214955 -297.019704 
L 193.455318 -297.746397 
L 200.695682 -298.412469 
L 207.936045 -299.00879 
L 215.176409 -299.526999 
L 222.416773 -299.959486 
L 229.657136 -300.299301 
L 236.8975 -300.540024 
L 244.137864 -300.67562 
L 251.378227 -300.700338 
L 258.618591 -300.608608 
L 265.858955 -300.395022 
L 273.099318 -300.054408 
L 280.339682 -299.582013 
L 287.580045 -298.973853 
L 294.820409 -298.227174 
L 302.060773 -297.341128 
L 309.301136 -296.317574 
L 316.5415 -295.161925 
L 323.781864 -293.883992 
L 331.022227 -292.49867 
L 338.262591 -291.026205 
L 345.502955 -289.491954 
L 352.743318 -287.925464 
L 359.983682 -286.358856 
L 367.224045 -284.82469 
L 374.464409 -283.353574 
L 381.704773 -281.971919 
L 388.945136 -280.700207 
L 396.1855 -279.552006 
L 403.425864 -278.53387 
L 410.666227 -278.110485 
L 417.906591 -278.110485 
L 417.906591 -273.312909 
L 417.906591 -273.312909 
L 410.666227 -273.312909 
L 403.425864 -273.312909 
L 396.1855 -273.312909 
L 388.945136 -273.312909 
L 381.704773 -273.312909 
L 374.464409 -273.312909 
L 367.224045 -273.312909 
L 359.983682 -273.312909 
L 352.743318 -273.312909 
L 345.502955 -273.312909 
L 338.262591 -273.312909 
L 331.022227 -273.312909 
L 323.781864 -273.312909 
L 316.5415 -273.312909 
L 309.301136 -273.312909 
L 302.060773 -273.312909 
L 294.820409 -273.312909 
L 287.580045 -273.312909 
L 280.339682 -273.312909 
L 273.099318 -273.312909 
L 265.858955 -273.312909 
L 258.618591 -273.312909 
L 251.378227 -273.312909 
L 244.137864 -273.312909 
L 236.8975 -273.312909 
L 229.657136 -273.312909 
L 222.416773 -273.312909 
L 215.176409 -273.312909 
L 207.936045 -273.312909 
L 200.695682 -273.312909 
L 193.455318 -273.312909 
L 186.214955 -273.312909 
L 178.974591 -273.312909 
L 171.734227 -273.312909 
L 164.493864 -273.312909 
L 157.2535 -273.312909 
L 150.013136 -273.312909 
L 142.772773 -273.312909 
L 135.532409 -273.312909 
L 128.292045 -273.312909 
L 121.051682 -273.312909 
L 113.811318 -273.312909 
L 106.570955 -273.312909 
L 99.330591 -273.312909 
L 92.090227 -273.312909 
L 84.849864 -273.312909 
L 77.6095 -273.312909 
L 70.369136 -273.312909 
L 63.128773 -273.312909 
L 55.888409 -273.312909 
z
" style="stroke: #000080; stroke-opacity: 0.2"/>
    </defs>
    <g clip-path="url(#p02c2a6bceb)">
     <use xlink:href="#m1281b021fb" x="0" y="325.85" style="fill: #000080; fill-opacity: 0.2; stroke: #000080; stroke-opacity: 0.2"/>
    </g>
   </g>
   <g id="matplotlib.axis_1"/>
   <g id="matplotlib.axis_2"/>
   <g id="line2d_1">
    <path d="M 55.888409 16.136321 
L 63.128773 16.385933 
L 70.369136 16.707229 
L 77.6095 17.098257 
L 84.849864 17.556964 
L 92.090227 18.080999 
L 99.330591 18.667476 
L 106.570955 19.312799 
L 113.811318 20.012433 
L 121.051682 20.760834 
L 128.292045 21.551323 
L 135.532409 22.376081 
L 142.772773 23.226208 
L 150.013136 24.091842 
L 157.2535 24.962367 
L 164.493864 25.826619 
L 171.734227 26.673194 
L 178.974591 27.49073 
L 186.214955 28.268129 
L 193.455318 28.994821 
L 200.695682 29.660893 
L 207.936045 30.257214 
L 215.176409 30.775423 
L 222.416773 31.207911 
L 229.657136 31.547725 
L 236.8975 31.788448 
L 244.137864 31.924044 
L 251.378227 31.948762 
L 258.618591 31.857032 
L 265.858955 31.643447 
L 273.099318 31.302832 
L 280.339682 30.830437 
L 287.580045 30.222277 
L 294.820409 29.475598 
L 302.060773 28.589553 
L 309.301136 27.565998 
L 316.5415 26.410349 
L 323.781864 25.132416 
L 331.022227 23.747094 
L 338.262591 22.274629 
L 345.502955 20.740378 
L 352.743318 19.173889 
L 359.983682 17.60728 
L 367.224045 16.073114 
L 374.464409 14.601998 
L 381.704773 13.220343 
L 388.945136 11.948631 
L 396.1855 10.800431 
L 403.425864 9.782294 
L 410.666227 9.358909 
L 417.906591 9.358909 
" clip-path="url(#p02c2a6bceb)" style="fill: none; stroke: #dc143c; stroke-width: 1.5; stroke-linecap: square"/>
   </g>
   <g id="line2d_2">
    <path d="M 55.888409 40.962103 
L 63.128773 40.712491 
L 70.369136 40.391195 
L 77.6095 40.000168 
L 84.849864 39.54146 
L 92.090227 39.017426 
L 99.330591 38.430948 
L 106.570955 37.785625 
L 113.811318 37.085991 
L 121.051682 36.33759 
L 128.292045 35.547102 
L 135.532409 34.722343 
L 142.772773 33.872217 
L 150.013136 33.006583 
L 157.2535 32.136057 
L 164.493864 31.271805 
L 171.734227 30.42523 
L 178.974591 29.607694 
L 186.214955 28.830296 
L 193.455318 28.103603 
L 200.695682 27.437531 
L 207.936045 26.84121 
L 215.176409 26.323001 
L 222.416773 25.890514 
L 229.657136 25.550699 
L 236.8975 25.309976 
L 244.137864 25.17438 
L 251.378227 25.149662 
L 258.618591 25.241392 
L 265.858955 25.454978 
L 273.099318 25.795592 
L 280.339682 26.267987 
L 287.580045 26.876147 
L 294.820409 27.622826 
L 302.060773 28.508872 
L 309.301136 29.532426 
L 316.5415 30.688075 
L 323.781864 31.966008 
L 331.022227 33.35133 
L 338.262591 34.823795 
L 345.502955 36.358046 
L 352.743318 37.924536 
L 359.983682 39.491144 
L 367.224045 41.02531 
L 374.464409 42.496426 
L 381.704773 43.878081 
L 388.945136 45.149793 
L 396.1855 46.297994 
L 403.425864 47.31613 
L 410.666227 47.739515 
L 417.906591 47.739515 
" clip-path="url(#p02c2a6bceb)" style="fill: none; stroke: #000080; stroke-width: 1.5; stroke-linecap: square"/>
   </g>
  </g>
  <g id="axes_2">
   <g id="patch_3">
    <path d="M 37.7875 165.688 
L 436.0075 165.688 
L 436.0075 70.696 
L 37.7875 70.696 
z
" style="fill: #ffffff"/>
   </g>
   <g id="PathCollection_1">
    <defs>
     <path id="m1f1f707e21" d="M 0 0.866025 
C 0.229673 0.866025 0.449969 0.774776 0.612372 0.612372 
C 0.774776 0.449969 0.866025 0.229673 0.866025 0 
C 0.866025 -0.229673 0.774776 -0.449969 0.612372 -0.612372 
C 0.449969 -0.774776 0.229673 -0.866025 0 -0.866025 
C -0.229673 -0.866025 -0.449969 -0.774776 -0.612372 -0.612372 
C -0.774776 -0.449969 -0.866025 -0.229673 -0.866025 0 
C -0.866025 0.229673 -0.774776 0.449969 -0.612372 0.612372 
C -0.449969 0.774776 -0.229673 0.866025 0 0.866025 
z
" style="stroke: #daa520"/>
    </defs>
    <g clip-path="url(#p81c8fd43f5)">
     <use xlink:href="#m1f1f707e21" x="395.728132" y="132.617095" style="fill: #daa520; stroke: #daa520"/>
     <use xlink:href="#m1f1f707e21" x="250.580424" y="108.108759" style="fill: #daa520; stroke: #daa520"/>
     <use xlink:href="#m1f1f707e21" x="216.123425" y="99.079488" style="fill: #daa520; stroke: #daa520"/>
     <use xlink:href="#m1f1f707e21" x="329.457955" y="99.853236" style="fill: #daa520; stroke: #daa520"/>
     <use xlink:href="#m1f1f707e21" x="111.684027" y="155.591971" style="fill: #daa520; stroke: #daa520"/>
     <use xlink:href="#m1f1f707e21" x="173.021187" y="108.476293" style="fill: #daa520; stroke: #daa520"/>
     <use xlink:href="#m1f1f707e21" x="314.678512" y="105.235873" style="fill: #daa520; stroke: #daa520"/>
     <use xlink:href="#m1f1f707e21" x="107.75006" y="133.780406" style="fill: #daa520; stroke: #daa520"/>
     <use xlink:href="#m1f1f707e21" x="76.188398" y="155.451316" style="fill: #daa520; stroke: #daa520"/>
     <use xlink:href="#m1f1f707e21" x="230.550111" y="92.52135" style="fill: #daa520; stroke: #daa520"/>
     <use xlink:href="#m1f1f707e21" x="73.006089" y="154.59368" style="fill: #daa520; stroke: #daa520"/>
     <use xlink:href="#m1f1f707e21" x="370.223299" y="104.119211" style="fill: #daa520; stroke: #daa520"/>
     <use xlink:href="#m1f1f707e21" x="293.059538" y="116.11572" style="fill: #daa520; stroke: #daa520"/>
     <use xlink:href="#m1f1f707e21" x="397.527524" y="95.168957" style="fill: #daa520; stroke: #daa520"/>
     <use xlink:href="#m1f1f707e21" x="262.947243" y="110.345421" style="fill: #daa520; stroke: #daa520"/>
     <use xlink:href="#m1f1f707e21" x="114.116946" y="135.539029" style="fill: #daa520; stroke: #daa520"/>
     <use xlink:href="#m1f1f707e21" x="389.949062" y="88.976035" style="fill: #daa520; stroke: #daa520"/>
     <use xlink:href="#m1f1f707e21" x="187.279719" y="107.338714" style="fill: #daa520; stroke: #daa520"/>
     <use xlink:href="#m1f1f707e21" x="96.04469" y="154.311908" style="fill: #daa520; stroke: #daa520"/>
     <use xlink:href="#m1f1f707e21" x="263.730564" y="100.161946" style="fill: #daa520; stroke: #daa520"/>
     <use xlink:href="#m1f1f707e21" x="213.944842" y="75.013818" style="fill: #daa520; stroke: #daa520"/>
     <use xlink:href="#m1f1f707e21" x="69.808156" y="155.746601" style="fill: #daa520; stroke: #daa520"/>
     <use xlink:href="#m1f1f707e21" x="153.182201" y="134.075048" style="fill: #daa520; stroke: #daa520"/>
     <use xlink:href="#m1f1f707e21" x="404.185123" y="127.331635" style="fill: #daa520; stroke: #daa520"/>
     <use xlink:href="#m1f1f707e21" x="354.186561" y="94.384095" style="fill: #daa520; stroke: #daa520"/>
     <use xlink:href="#m1f1f707e21" x="289.473532" y="106.57331" style="fill: #daa520; stroke: #daa520"/>
     <use xlink:href="#m1f1f707e21" x="316.812131" y="106.120449" style="fill: #daa520; stroke: #daa520"/>
     <use xlink:href="#m1f1f707e21" x="247.107121" y="114.784522" style="fill: #daa520; stroke: #daa520"/>
     <use xlink:href="#m1f1f707e21" x="234.803769" y="109.131337" style="fill: #daa520; stroke: #daa520"/>
     <use xlink:href="#m1f1f707e21" x="164.960827" y="114.365314" style="fill: #daa520; stroke: #daa520"/>
     <use xlink:href="#m1f1f707e21" x="95.570717" y="148.69275" style="fill: #daa520; stroke: #daa520"/>
     <use xlink:href="#m1f1f707e21" x="101.554907" y="138.949325" style="fill: #daa520; stroke: #daa520"/>
     <use xlink:href="#m1f1f707e21" x="317.907469" y="108.219535" style="fill: #daa520; stroke: #daa520"/>
     <use xlink:href="#m1f1f707e21" x="399.861337" y="132.247624" style="fill: #daa520; stroke: #daa520"/>
     <use xlink:href="#m1f1f707e21" x="241.657614" y="93.835265" style="fill: #daa520; stroke: #daa520"/>
     <use xlink:href="#m1f1f707e21" x="388.022617" y="124.603711" style="fill: #daa520; stroke: #daa520"/>
     <use xlink:href="#m1f1f707e21" x="177.765224" y="91.431911" style="fill: #daa520; stroke: #daa520"/>
     <use xlink:href="#m1f1f707e21" x="220.860384" y="115.393519" style="fill: #daa520; stroke: #daa520"/>
     <use xlink:href="#m1f1f707e21" x="220.784367" y="76.638515" style="fill: #daa520; stroke: #daa520"/>
     <use xlink:href="#m1f1f707e21" x="353.656308" y="102.673191" style="fill: #daa520; stroke: #daa520"/>
     <use xlink:href="#m1f1f707e21" x="243.499914" y="100.117199" style="fill: #daa520; stroke: #daa520"/>
     <use xlink:href="#m1f1f707e21" x="339.127367" y="108.216539" style="fill: #daa520; stroke: #daa520"/>
     <use xlink:href="#m1f1f707e21" x="140.750648" y="129.69124" style="fill: #daa520; stroke: #daa520"/>
     <use xlink:href="#m1f1f707e21" x="186.595132" y="82.40488" style="fill: #daa520; stroke: #daa520"/>
     <use xlink:href="#m1f1f707e21" x="344.149892" y="99.626934" style="fill: #daa520; stroke: #daa520"/>
     <use xlink:href="#m1f1f707e21" x="295.672971" y="114.806719" style="fill: #daa520; stroke: #daa520"/>
     <use xlink:href="#m1f1f707e21" x="220.445332" y="102.709539" style="fill: #daa520; stroke: #daa520"/>
     <use xlink:href="#m1f1f707e21" x="62.356316" y="154.39067" style="fill: #daa520; stroke: #daa520"/>
     <use xlink:href="#m1f1f707e21" x="403.963026" y="128.257209" style="fill: #daa520; stroke: #daa520"/>
     <use xlink:href="#m1f1f707e21" x="181.81745" y="126.374818" style="fill: #daa520; stroke: #daa520"/>
     <use xlink:href="#m1f1f707e21" x="151.595822" y="123.575407" style="fill: #daa520; stroke: #daa520"/>
     <use xlink:href="#m1f1f707e21" x="141.657425" y="126.01696" style="fill: #daa520; stroke: #daa520"/>
     <use xlink:href="#m1f1f707e21" x="228.963063" y="96.638903" style="fill: #daa520; stroke: #daa520"/>
     <use xlink:href="#m1f1f707e21" x="83.58753" y="147.061093" style="fill: #daa520; stroke: #daa520"/>
     <use xlink:href="#m1f1f707e21" x="397.172867" y="82.081914" style="fill: #daa520; stroke: #daa520"/>
     <use xlink:href="#m1f1f707e21" x="57.392157" y="153.117801" style="fill: #daa520; stroke: #daa520"/>
     <use xlink:href="#m1f1f707e21" x="334.096406" y="103.227176" style="fill: #daa520; stroke: #daa520"/>
     <use xlink:href="#m1f1f707e21" x="349.577333" y="104.412617" style="fill: #daa520; stroke: #daa520"/>
     <use xlink:href="#m1f1f707e21" x="394.452682" y="123.31104" style="fill: #daa520; stroke: #daa520"/>
     <use xlink:href="#m1f1f707e21" x="336.049741" y="104.387992" style="fill: #daa520; stroke: #daa520"/>
     <use xlink:href="#m1f1f707e21" x="311.634482" y="102.626189" style="fill: #daa520; stroke: #daa520"/>
     <use xlink:href="#m1f1f707e21" x="410.32003" y="101.252728" style="fill: #daa520; stroke: #daa520"/>
     <use xlink:href="#m1f1f707e21" x="380.693578" y="105.368255" style="fill: #daa520; stroke: #daa520"/>
     <use xlink:href="#m1f1f707e21" x="414.339365" y="129.910355" style="fill: #daa520; stroke: #daa520"/>
     <use xlink:href="#m1f1f707e21" x="352.636548" y="105.386675" style="fill: #daa520; stroke: #daa520"/>
     <use xlink:href="#m1f1f707e21" x="311.136996" y="105.909613" style="fill: #daa520; stroke: #daa520"/>
     <use xlink:href="#m1f1f707e21" x="99.863434" y="141.209025" style="fill: #daa520; stroke: #daa520"/>
     <use xlink:href="#m1f1f707e21" x="154.901509" y="112.717628" style="fill: #daa520; stroke: #daa520"/>
     <use xlink:href="#m1f1f707e21" x="343.439954" y="96.930128" style="fill: #daa520; stroke: #daa520"/>
     <use xlink:href="#m1f1f707e21" x="75.574592" y="154.037616" style="fill: #daa520; stroke: #daa520"/>
     <use xlink:href="#m1f1f707e21" x="194.556282" y="115.222226" style="fill: #daa520; stroke: #daa520"/>
     <use xlink:href="#m1f1f707e21" x="59.315127" y="158.821015" style="fill: #daa520; stroke: #daa520"/>
     <use xlink:href="#m1f1f707e21" x="340.29944" y="104.493642" style="fill: #daa520; stroke: #daa520"/>
     <use xlink:href="#m1f1f707e21" x="203.84618" y="89.155875" style="fill: #daa520; stroke: #daa520"/>
     <use xlink:href="#m1f1f707e21" x="320.803" y="102.823279" style="fill: #daa520; stroke: #daa520"/>
     <use xlink:href="#m1f1f707e21" x="368.866684" y="104.068339" style="fill: #daa520; stroke: #daa520"/>
     <use xlink:href="#m1f1f707e21" x="58.847506" y="161.370182" style="fill: #daa520; stroke: #daa520"/>
     <use xlink:href="#m1f1f707e21" x="105.273518" y="134.848617" style="fill: #daa520; stroke: #daa520"/>
     <use xlink:href="#m1f1f707e21" x="357.890316" y="106.501115" style="fill: #daa520; stroke: #daa520"/>
     <use xlink:href="#m1f1f707e21" x="404.780178" y="82.99831" style="fill: #daa520; stroke: #daa520"/>
     <use xlink:href="#m1f1f707e21" x="86.034259" y="152.996719" style="fill: #daa520; stroke: #daa520"/>
     <use xlink:href="#m1f1f707e21" x="388.247358" y="128.617199" style="fill: #daa520; stroke: #daa520"/>
     <use xlink:href="#m1f1f707e21" x="274.974557" y="105.18595" style="fill: #daa520; stroke: #daa520"/>
     <use xlink:href="#m1f1f707e21" x="380.342806" y="87.777188" style="fill: #daa520; stroke: #daa520"/>
     <use xlink:href="#m1f1f707e21" x="86.217722" y="144.910818" style="fill: #daa520; stroke: #daa520"/>
     <use xlink:href="#m1f1f707e21" x="222.107119" y="93.403794" style="fill: #daa520; stroke: #daa520"/>
     <use xlink:href="#m1f1f707e21" x="134.471929" y="133.011587" style="fill: #daa520; stroke: #daa520"/>
     <use xlink:href="#m1f1f707e21" x="59.129767" y="154.416184" style="fill: #daa520; stroke: #daa520"/>
     <use xlink:href="#m1f1f707e21" x="160.473749" y="128.540632" style="fill: #daa520; stroke: #daa520"/>
     <use xlink:href="#m1f1f707e21" x="389.768533" y="87.279727" style="fill: #daa520; stroke: #daa520"/>
    </g>
   </g>
   <g id="matplotlib.axis_3"/>
   <g id="matplotlib.axis_4">
    <g id="ytick_1">
     <g id="line2d_3">
      <defs>
       <path id="m929b130ce0" d="M 0 0 
L -3.5 0 
" style="stroke: #696969; stroke-width: 0.8"/>
      </defs>
      <g>
       <use xlink:href="#m929b130ce0" x="37.7875" y="150.685871" style="fill: #696969; stroke: #696969; stroke-width: 0.8"/>
      </g>
     </g>
     <g id="text_1">
      <!-- −5 -->
      <g style="fill: #696969" transform="translate(7.2 156.764621) scale(0.16 -0.16)">
       <defs>
        <path id="DejaVuSans-2212" d="M 678 2272 
L 4684 2272 
L 4684 1741 
L 678 1741 
L 678 2272 
z
" transform="scale(0.015625)"/>
        <path id="DejaVuSans-35" d="M 691 4666 
L 3169 4666 
L 3169 4134 
L 1269 4134 
L 1269 2991 
Q 1406 3038 1543 3061 
Q 1681 3084 1819 3084 
Q 2600 3084 3056 2656 
Q 3513 2228 3513 1497 
Q 3513 744 3044 326 
Q 2575 -91 1722 -91 
Q 1428 -91 1123 -41 
Q 819 9 494 109 
L 494 744 
Q 775 591 1075 516 
Q 1375 441 1709 441 
Q 2250 441 2565 725 
Q 2881 1009 2881 1497 
Q 2881 1984 2565 2268 
Q 2250 2553 1709 2553 
Q 1456 2553 1204 2497 
Q 953 2441 691 2322 
L 691 4666 
z
" transform="scale(0.015625)"/>
       </defs>
       <use xlink:href="#DejaVuSans-2212"/>
       <use xlink:href="#DejaVuSans-35" x="83.789062"/>
      </g>
     </g>
    </g>
    <g id="ytick_2">
     <g id="line2d_4">
      <g>
       <use xlink:href="#m929b130ce0" x="37.7875" y="119.949135" style="fill: #696969; stroke: #696969; stroke-width: 0.8"/>
      </g>
     </g>
     <g id="text_2">
      <!-- 0 -->
      <g style="fill: #696969" transform="translate(20.6075 126.027885) scale(0.16 -0.16)">
       <defs>
        <path id="DejaVuSans-30" d="M 2034 4250 
Q 1547 4250 1301 3770 
Q 1056 3291 1056 2328 
Q 1056 1369 1301 889 
Q 1547 409 2034 409 
Q 2525 409 2770 889 
Q 3016 1369 3016 2328 
Q 3016 3291 2770 3770 
Q 2525 4250 2034 4250 
z
M 2034 4750 
Q 2819 4750 3233 4129 
Q 3647 3509 3647 2328 
Q 3647 1150 3233 529 
Q 2819 -91 2034 -91 
Q 1250 -91 836 529 
Q 422 1150 422 2328 
Q 422 3509 836 4129 
Q 1250 4750 2034 4750 
z
" transform="scale(0.015625)"/>
       </defs>
       <use xlink:href="#DejaVuSans-30"/>
      </g>
     </g>
    </g>
    <g id="ytick_3">
     <g id="line2d_5">
      <g>
       <use xlink:href="#m929b130ce0" x="37.7875" y="89.212399" style="fill: #696969; stroke: #696969; stroke-width: 0.8"/>
      </g>
     </g>
     <g id="text_3">
      <!-- 5 -->
      <g style="fill: #696969" transform="translate(20.6075 95.291149) scale(0.16 -0.16)">
       <use xlink:href="#DejaVuSans-35"/>
      </g>
     </g>
    </g>
   </g>
   <g id="line2d_6">
    <path d="M 55.888409 159.020388 
L 63.128773 157.092843 
L 70.369136 155.142888 
L 77.6095 153.271316 
L 84.849864 151.449887 
L 92.090227 149.587715 
L 99.330591 147.595868 
L 106.570955 145.41845 
L 113.811318 143.025409 
L 121.051682 140.382485 
L 128.292045 137.42062 
L 135.532409 134.025174 
L 142.772773 130.058706 
L 150.013136 125.41911 
L 157.2535 120.116272 
L 164.493864 114.332496 
L 171.734227 108.428987 
L 178.974591 102.88171 
L 186.214955 98.166261 
L 193.455318 94.639926 
L 200.695682 92.470053 
L 207.936045 91.631173 
L 215.176409 91.95783 
L 222.416773 93.217733 
L 229.657136 95.169871 
L 236.8975 97.589256 
L 244.137864 100.261659 
L 251.378227 102.967009 
L 258.618591 105.473324 
L 265.858955 107.553587 
L 273.099318 109.021814 
L 280.339682 109.771547 
L 287.580045 109.797561 
L 294.820409 109.189988 
L 302.060773 108.103327 
L 309.301136 106.71385 
L 316.5415 105.184175 
L 323.781864 103.651029 
L 331.022227 102.240673 
L 338.262591 101.09818 
L 345.502955 100.401511 
L 352.743318 100.332369 
L 359.983682 101.00046 
L 367.224045 102.355253 
L 374.464409 104.143517 
L 381.704773 105.957747 
L 388.945136 107.370601 
L 396.1855 108.093981 
L 403.425864 108.078405 
L 410.666227 107.498095 
L 417.906591 106.63114 
" clip-path="url(#p81c8fd43f5)" style="fill: none; stroke: #000000; stroke-width: 2; stroke-linecap: square"/>
   </g>
   <g id="line2d_7">
    <path d="M 55.888409 158.863037 
L 63.128773 155.376702 
L 70.369136 153.046053 
L 77.6095 151.330797 
L 84.849864 149.80998 
L 92.090227 148.176011 
L 99.330591 146.224296 
L 106.570955 143.840108 
L 113.811318 140.984004 
L 121.051682 137.676812 
L 128.292045 133.984988 
L 135.532409 130.00691 
L 142.772773 125.86051 
L 150.013136 121.672487 
L 157.2535 117.569235 
L 164.493864 113.66949 
L 171.734227 110.078661 
L 178.974591 106.884719 
L 186.214955 104.1555 
L 193.455318 101.937252 
L 200.695682 100.254229 
L 207.936045 99.109169 
L 215.176409 98.484477 
L 222.416773 98.343957 
L 229.657136 98.634989 
L 236.8975 99.291027 
L 244.137864 100.234369 
L 251.378227 101.379146 
L 258.618591 102.634511 
L 265.858955 103.908042 
L 273.099318 105.109345 
L 280.339682 106.153891 
L 287.580045 106.967079 
L 294.820409 107.488498 
L 302.060773 107.676328 
L 309.301136 107.511748 
L 316.5415 107.003157 
L 323.781864 106.189888 
L 331.022227 105.144987 
L 338.262591 103.976472 
L 345.502955 102.826283 
L 352.743318 101.865959 
L 359.983682 101.287785 
L 367.224045 101.28991 
L 374.464409 102.053584 
L 381.704773 103.710315 
L 388.945136 106.296359 
L 396.1855 109.691472 
L 403.425864 113.538399 
L 410.666227 117.139019 
L 417.906591 119.322457 
" clip-path="url(#p81c8fd43f5)" style="fill: none; stroke-dasharray: 7.4,3.2; stroke-dashoffset: 0; stroke: #34b6c6; stroke-width: 2"/>
   </g>
   <g id="line2d_8">
    <path d="M 55.888409 158.867699 
L 63.128773 155.836551 
L 70.369136 153.202038 
L 77.6095 150.873023 
L 84.849864 148.786119 
L 92.090227 146.899556 
L 99.330591 145.175313 
L 106.570955 143.546327 
L 113.811318 141.877415 
L 121.051682 139.938337 
L 128.292045 137.4236 
L 135.532409 134.06055 
L 142.772773 129.724523 
L 150.013136 124.505607 
L 157.2535 118.895465 
L 164.493864 113.502142 
L 171.734227 108.425529 
L 178.974591 103.840441 
L 186.214955 100.510096 
L 193.455318 98.682707 
L 200.695682 97.885169 
L 207.936045 97.657259 
L 215.176409 97.785975 
L 222.416773 98.229847 
L 229.657136 99.024092 
L 236.8975 100.207951 
L 244.137864 101.79957 
L 251.378227 103.715988 
L 258.618591 105.753827 
L 265.858955 107.3116 
L 273.099318 107.840582 
L 280.339682 107.783408 
L 287.580045 107.499483 
L 294.820409 107.102118 
L 302.060773 106.619349 
L 309.301136 106.056206 
L 316.5415 105.412483 
L 323.781864 104.688912 
L 331.022227 103.891427 
L 338.262591 103.03811 
L 345.502955 102.177908 
L 352.743318 101.45187 
L 359.983682 101.270463 
L 367.224045 102.423423 
L 374.464409 104.786457 
L 381.704773 106.746255 
L 388.945136 108.086231 
L 396.1855 109.611405 
L 403.425864 112.047532 
L 410.666227 116.027109 
L 417.906591 122.235634 
" clip-path="url(#p81c8fd43f5)" style="fill: none; stroke-dasharray: 7.4,3.2; stroke-dashoffset: 0; stroke: #9370db; stroke-width: 2"/>
   </g>
   <g id="line2d_9">
    <path d="M 55.888409 156.809839 
L 63.128773 156.363309 
L 70.369136 155.80464 
L 77.6095 155.127232 
L 84.849864 154.338339 
L 92.090227 153.456681 
L 99.330591 152.48978 
L 106.570955 151.386396 
L 113.811318 149.977984 
L 121.051682 147.93847 
L 128.292045 144.817187 
L 135.532409 140.210668 
L 142.772773 133.945256 
L 150.013136 126.183119 
L 157.2535 117.717573 
L 164.493864 109.523418 
L 171.734227 101.771731 
L 178.974591 94.750282 
L 186.214955 89.674092 
L 193.455318 86.944441 
L 200.695682 85.823521 
L 207.936045 85.593265 
L 215.176409 85.925344 
L 222.416773 86.761916 
L 229.657136 88.16612 
L 236.8975 90.207558 
L 244.137864 92.922793 
L 251.378227 96.189191 
L 258.618591 99.694546 
L 265.858955 102.498918 
L 273.099318 103.746162 
L 280.339682 104.145046 
L 287.580045 104.273354 
L 294.820409 104.320614 
L 302.060773 104.341421 
L 309.301136 104.352972 
L 316.5415 104.361979 
L 323.781864 104.372791 
L 331.022227 104.391773 
L 338.262591 104.435035 
L 345.502955 104.553535 
L 352.743318 104.923823 
L 359.983682 106.120051 
L 367.224045 109.277244 
L 374.464409 114.037438 
L 381.704773 117.625932 
L 388.945136 119.384608 
L 396.1855 120.154466 
L 403.425864 120.507008 
L 410.666227 120.683865 
L 417.906591 120.781228 
" clip-path="url(#p81c8fd43f5)" style="fill: none; stroke-dasharray: 12.8,3.2,2,3.2; stroke-dashoffset: 0; stroke: #ff0000; stroke-width: 2"/>
   </g>
   <g id="patch_4">
    <path d="M 37.7875 165.688 
L 37.7875 70.696 
" style="fill: none; stroke: #000000; stroke-width: 0.8; stroke-linejoin: miter; stroke-linecap: square"/>
   </g>
   <g id="patch_5">
    <path d="M 436.0075 165.688 
L 436.0075 70.696 
" style="fill: none; stroke: #000000; stroke-width: 0.8; stroke-linejoin: miter; stroke-linecap: square"/>
   </g>
   <g id="patch_6">
    <path d="M 37.7875 165.688 
L 436.0075 165.688 
" style="fill: none; stroke: #000000; stroke-width: 0.8; stroke-linejoin: miter; stroke-linecap: square"/>
   </g>
   <g id="patch_7">
    <path d="M 37.7875 70.696 
L 436.0075 70.696 
" style="fill: none; stroke: #000000; stroke-width: 0.8; stroke-linejoin: miter; stroke-linecap: square"/>
   </g>
  </g>
  <g id="axes_3">
   <g id="patch_8">
    <path d="M 37.7875 276.68 
L 436.0075 276.68 
L 436.0075 181.688 
L 37.7875 181.688 
z
" style="fill: #ffffff"/>
   </g>
   <g id="PathCollection_2">
    <g clip-path="url(#p103f3dad2d)">
     <use xlink:href="#m1f1f707e21" x="395.728132" y="211.67296" style="fill: #daa520; stroke: #daa520"/>
     <use xlink:href="#m1f1f707e21" x="250.580424" y="211.910229" style="fill: #daa520; stroke: #daa520"/>
     <use xlink:href="#m1f1f707e21" x="216.123425" y="210.978906" style="fill: #daa520; stroke: #daa520"/>
     <use xlink:href="#m1f1f707e21" x="329.457955" y="232.083432" style="fill: #daa520; stroke: #daa520"/>
     <use xlink:href="#m1f1f707e21" x="111.684027" y="220.474024" style="fill: #daa520; stroke: #daa520"/>
     <use xlink:href="#m1f1f707e21" x="173.021187" y="217.019766" style="fill: #daa520; stroke: #daa520"/>
     <use xlink:href="#m1f1f707e21" x="314.678512" y="225.599595" style="fill: #daa520; stroke: #daa520"/>
     <use xlink:href="#m1f1f707e21" x="107.75006" y="247.510695" style="fill: #daa520; stroke: #daa520"/>
     <use xlink:href="#m1f1f707e21" x="76.188398" y="226.431828" style="fill: #daa520; stroke: #daa520"/>
     <use xlink:href="#m1f1f707e21" x="230.550111" y="221.688781" style="fill: #daa520; stroke: #daa520"/>
     <use xlink:href="#m1f1f707e21" x="73.006089" y="227.822029" style="fill: #daa520; stroke: #daa520"/>
     <use xlink:href="#m1f1f707e21" x="370.223299" y="235.147458" style="fill: #daa520; stroke: #daa520"/>
     <use xlink:href="#m1f1f707e21" x="293.059538" y="212.502426" style="fill: #daa520; stroke: #daa520"/>
     <use xlink:href="#m1f1f707e21" x="397.527524" y="256.701749" style="fill: #daa520; stroke: #daa520"/>
     <use xlink:href="#m1f1f707e21" x="262.947243" y="216.114792" style="fill: #daa520; stroke: #daa520"/>
     <use xlink:href="#m1f1f707e21" x="114.116946" y="243.872233" style="fill: #daa520; stroke: #daa520"/>
     <use xlink:href="#m1f1f707e21" x="389.949062" y="263.275652" style="fill: #daa520; stroke: #daa520"/>
     <use xlink:href="#m1f1f707e21" x="187.279719" y="204.8324" style="fill: #daa520; stroke: #daa520"/>
     <use xlink:href="#m1f1f707e21" x="96.04469" y="225.005875" style="fill: #daa520; stroke: #daa520"/>
     <use xlink:href="#m1f1f707e21" x="263.730564" y="228.658716" style="fill: #daa520; stroke: #daa520"/>
     <use xlink:href="#m1f1f707e21" x="213.944842" y="239.619061" style="fill: #daa520; stroke: #daa520"/>
     <use xlink:href="#m1f1f707e21" x="69.808156" y="226.776362" style="fill: #daa520; stroke: #daa520"/>
     <use xlink:href="#m1f1f707e21" x="153.182201" y="212.771112" style="fill: #daa520; stroke: #daa520"/>
     <use xlink:href="#m1f1f707e21" x="404.185123" y="218.498921" style="fill: #daa520; stroke: #daa520"/>
     <use xlink:href="#m1f1f707e21" x="354.186561" y="239.45355" style="fill: #daa520; stroke: #daa520"/>
     <use xlink:href="#m1f1f707e21" x="289.473532" y="223.9132" style="fill: #daa520; stroke: #daa520"/>
     <use xlink:href="#m1f1f707e21" x="316.812131" y="224.54251" style="fill: #daa520; stroke: #daa520"/>
     <use xlink:href="#m1f1f707e21" x="247.107121" y="201.992111" style="fill: #daa520; stroke: #daa520"/>
     <use xlink:href="#m1f1f707e21" x="234.803769" y="203.177772" style="fill: #daa520; stroke: #daa520"/>
     <use xlink:href="#m1f1f707e21" x="164.960827" y="220.233274" style="fill: #daa520; stroke: #daa520"/>
     <use xlink:href="#m1f1f707e21" x="95.570717" y="231.816946" style="fill: #daa520; stroke: #daa520"/>
     <use xlink:href="#m1f1f707e21" x="101.554907" y="242.496841" style="fill: #daa520; stroke: #daa520"/>
     <use xlink:href="#m1f1f707e21" x="317.907469" y="222.028201" style="fill: #daa520; stroke: #daa520"/>
     <use xlink:href="#m1f1f707e21" x="399.861337" y="212.407474" style="fill: #daa520; stroke: #daa520"/>
     <use xlink:href="#m1f1f707e21" x="241.657614" y="224.351781" style="fill: #daa520; stroke: #daa520"/>
     <use xlink:href="#m1f1f707e21" x="388.022617" y="220.211891" style="fill: #daa520; stroke: #daa520"/>
     <use xlink:href="#m1f1f707e21" x="177.765224" y="231.911805" style="fill: #daa520; stroke: #daa520"/>
     <use xlink:href="#m1f1f707e21" x="220.860384" y="192.06184" style="fill: #daa520; stroke: #daa520"/>
     <use xlink:href="#m1f1f707e21" x="220.784367" y="238.502078" style="fill: #daa520; stroke: #daa520"/>
     <use xlink:href="#m1f1f707e21" x="353.656308" y="229.450645" style="fill: #daa520; stroke: #daa520"/>
     <use xlink:href="#m1f1f707e21" x="243.499914" y="217.708417" style="fill: #daa520; stroke: #daa520"/>
     <use xlink:href="#m1f1f707e21" x="339.127367" y="222.127419" style="fill: #daa520; stroke: #daa520"/>
     <use xlink:href="#m1f1f707e21" x="140.750648" y="234.045715" style="fill: #daa520; stroke: #daa520"/>
     <use xlink:href="#m1f1f707e21" x="186.595132" y="235.125651" style="fill: #daa520; stroke: #daa520"/>
     <use xlink:href="#m1f1f707e21" x="344.149892" y="232.51554" style="fill: #daa520; stroke: #daa520"/>
     <use xlink:href="#m1f1f707e21" x="295.672971" y="214.084936" style="fill: #daa520; stroke: #daa520"/>
     <use xlink:href="#m1f1f707e21" x="220.445332" y="207.198448" style="fill: #daa520; stroke: #daa520"/>
     <use xlink:href="#m1f1f707e21" x="62.356316" y="229.077537" style="fill: #daa520; stroke: #daa520"/>
     <use xlink:href="#m1f1f707e21" x="403.963026" y="217.381169" style="fill: #daa520; stroke: #daa520"/>
     <use xlink:href="#m1f1f707e21" x="181.81745" y="186.005818" style="fill: #daa520; stroke: #daa520"/>
     <use xlink:href="#m1f1f707e21" x="151.595822" y="227.581703" style="fill: #daa520; stroke: #daa520"/>
     <use xlink:href="#m1f1f707e21" x="141.657425" y="237.438359" style="fill: #daa520; stroke: #daa520"/>
     <use xlink:href="#m1f1f707e21" x="228.963063" y="216.300751" style="fill: #daa520; stroke: #daa520"/>
     <use xlink:href="#m1f1f707e21" x="83.58753" y="235.546066" style="fill: #daa520; stroke: #daa520"/>
     <use xlink:href="#m1f1f707e21" x="397.172867" y="272.362182" style="fill: #daa520; stroke: #daa520"/>
     <use xlink:href="#m1f1f707e21" x="57.392157" y="230.974309" style="fill: #daa520; stroke: #daa520"/>
     <use xlink:href="#m1f1f707e21" x="334.096406" y="228.062223" style="fill: #daa520; stroke: #daa520"/>
     <use xlink:href="#m1f1f707e21" x="349.577333" y="227.004297" style="fill: #daa520; stroke: #daa520"/>
     <use xlink:href="#m1f1f707e21" x="394.452682" y="222.708153" style="fill: #daa520; stroke: #daa520"/>
     <use xlink:href="#m1f1f707e21" x="336.049741" y="226.685052" style="fill: #daa520; stroke: #daa520"/>
     <use xlink:href="#m1f1f707e21" x="311.634482" y="228.723154" style="fill: #daa520; stroke: #daa520"/>
     <use xlink:href="#m1f1f707e21" x="410.32003" y="249.933026" style="fill: #daa520; stroke: #daa520"/>
     <use xlink:href="#m1f1f707e21" x="380.693578" y="240.891472" style="fill: #daa520; stroke: #daa520"/>
     <use xlink:href="#m1f1f707e21" x="414.339365" y="215.657934" style="fill: #daa520; stroke: #daa520"/>
     <use xlink:href="#m1f1f707e21" x="352.636548" y="226.083972" style="fill: #daa520; stroke: #daa520"/>
     <use xlink:href="#m1f1f707e21" x="311.136996" y="224.786827" style="fill: #daa520; stroke: #daa520"/>
     <use xlink:href="#m1f1f707e21" x="99.863434" y="240.080922" style="fill: #daa520; stroke: #daa520"/>
     <use xlink:href="#m1f1f707e21" x="154.901509" y="235.946737" style="fill: #daa520; stroke: #daa520"/>
     <use xlink:href="#m1f1f707e21" x="343.439954" y="235.73037" style="fill: #daa520; stroke: #daa520"/>
     <use xlink:href="#m1f1f707e21" x="75.574592" y="228.198299" style="fill: #daa520; stroke: #daa520"/>
     <use xlink:href="#m1f1f707e21" x="194.556282" y="192.453306" style="fill: #daa520; stroke: #daa520"/>
     <use xlink:href="#m1f1f707e21" x="59.315127" y="224.001656" style="fill: #daa520; stroke: #daa520"/>
     <use xlink:href="#m1f1f707e21" x="340.29944" y="226.605693" style="fill: #daa520; stroke: #daa520"/>
     <use xlink:href="#m1f1f707e21" x="203.84618" y="222.437279" style="fill: #daa520; stroke: #daa520"/>
     <use xlink:href="#m1f1f707e21" x="320.803" y="228.501157" style="fill: #daa520; stroke: #daa520"/>
     <use xlink:href="#m1f1f707e21" x="368.866684" y="234.127835" style="fill: #daa520; stroke: #daa520"/>
     <use xlink:href="#m1f1f707e21" x="58.847506" y="220.980205" style="fill: #daa520; stroke: #daa520"/>
     <use xlink:href="#m1f1f707e21" x="105.273518" y="246.728098" style="fill: #daa520; stroke: #daa520"/>
     <use xlink:href="#m1f1f707e21" x="357.890316" y="225.602479" style="fill: #daa520; stroke: #daa520"/>
     <use xlink:href="#m1f1f707e21" x="404.780178" y="271.659344" style="fill: #daa520; stroke: #daa520"/>
     <use xlink:href="#m1f1f707e21" x="86.034259" y="228.092037" style="fill: #daa520; stroke: #daa520"/>
     <use xlink:href="#m1f1f707e21" x="388.247358" y="215.447433" style="fill: #daa520; stroke: #daa520"/>
     <use xlink:href="#m1f1f707e21" x="274.974557" y="225.105669" style="fill: #daa520; stroke: #daa520"/>
     <use xlink:href="#m1f1f707e21" x="380.342806" y="261.809139" style="fill: #daa520; stroke: #daa520"/>
     <use xlink:href="#m1f1f707e21" x="86.217722" y="237.758024" style="fill: #daa520; stroke: #daa520"/>
     <use xlink:href="#m1f1f707e21" x="222.107119" y="218.632637" style="fill: #daa520; stroke: #daa520"/>
     <use xlink:href="#m1f1f707e21" x="134.471929" y="236.210327" style="fill: #daa520; stroke: #daa520"/>
     <use xlink:href="#m1f1f707e21" x="59.129767" y="229.294941" style="fill: #daa520; stroke: #daa520"/>
     <use xlink:href="#m1f1f707e21" x="160.473749" y="209.232079" style="fill: #daa520; stroke: #daa520"/>
     <use xlink:href="#m1f1f707e21" x="389.768533" y="265.278478" style="fill: #daa520; stroke: #daa520"/>
    </g>
   </g>
   <g id="matplotlib.axis_5">
    <g id="xtick_1">
     <g id="line2d_10">
      <defs>
       <path id="m86978c35ec" d="M 0 0 
L 0 3.5 
" style="stroke: #696969; stroke-width: 0.8"/>
      </defs>
      <g>
       <use xlink:href="#m86978c35ec" x="55.888409" y="276.68" style="fill: #696969; stroke: #696969; stroke-width: 0.8"/>
      </g>
     </g>
     <g id="text_4">
      <!-- −1.0 -->
      <g style="fill: #696969" transform="translate(36.462159 295.8375) scale(0.16 -0.16)">
       <defs>
        <path id="DejaVuSans-31" d="M 794 531 
L 1825 531 
L 1825 4091 
L 703 3866 
L 703 4441 
L 1819 4666 
L 2450 4666 
L 2450 531 
L 3481 531 
L 3481 0 
L 794 0 
L 794 531 
z
" transform="scale(0.015625)"/>
        <path id="DejaVuSans-2e" d="M 684 794 
L 1344 794 
L 1344 0 
L 684 0 
L 684 794 
z
" transform="scale(0.015625)"/>
       </defs>
       <use xlink:href="#DejaVuSans-2212"/>
       <use xlink:href="#DejaVuSans-31" x="83.789062"/>
       <use xlink:href="#DejaVuSans-2e" x="147.412109"/>
       <use xlink:href="#DejaVuSans-30" x="179.199219"/>
      </g>
     </g>
    </g>
    <g id="xtick_2">
     <g id="line2d_11">
      <g>
       <use xlink:href="#m86978c35ec" x="146.392955" y="276.68" style="fill: #696969; stroke: #696969; stroke-width: 0.8"/>
      </g>
     </g>
     <g id="text_5">
      <!-- −0.5 -->
      <g style="fill: #696969" transform="translate(126.966705 295.8375) scale(0.16 -0.16)">
       <use xlink:href="#DejaVuSans-2212"/>
       <use xlink:href="#DejaVuSans-30" x="83.789062"/>
       <use xlink:href="#DejaVuSans-2e" x="147.412109"/>
       <use xlink:href="#DejaVuSans-35" x="179.199219"/>
      </g>
     </g>
    </g>
    <g id="xtick_3">
     <g id="line2d_12">
      <g>
       <use xlink:href="#m86978c35ec" x="236.8975" y="276.68" style="fill: #696969; stroke: #696969; stroke-width: 0.8"/>
      </g>
     </g>
     <g id="text_6">
      <!-- 0.0 -->
      <g style="fill: #696969" transform="translate(224.175 295.8375) scale(0.16 -0.16)">
       <use xlink:href="#DejaVuSans-30"/>
       <use xlink:href="#DejaVuSans-2e" x="63.623047"/>
       <use xlink:href="#DejaVuSans-30" x="95.410156"/>
      </g>
     </g>
    </g>
    <g id="xtick_4">
     <g id="line2d_13">
      <g>
       <use xlink:href="#m86978c35ec" x="327.402045" y="276.68" style="fill: #696969; stroke: #696969; stroke-width: 0.8"/>
      </g>
     </g>
     <g id="text_7">
      <!-- 0.5 -->
      <g style="fill: #696969" transform="translate(314.679545 295.8375) scale(0.16 -0.16)">
       <use xlink:href="#DejaVuSans-30"/>
       <use xlink:href="#DejaVuSans-2e" x="63.623047"/>
       <use xlink:href="#DejaVuSans-35" x="95.410156"/>
      </g>
     </g>
    </g>
    <g id="xtick_5">
     <g id="line2d_14">
      <g>
       <use xlink:href="#m86978c35ec" x="417.906591" y="276.68" style="fill: #696969; stroke: #696969; stroke-width: 0.8"/>
      </g>
     </g>
     <g id="text_8">
      <!-- 1.0 -->
      <g style="fill: #696969" transform="translate(405.184091 295.8375) scale(0.16 -0.16)">
       <use xlink:href="#DejaVuSans-31"/>
       <use xlink:href="#DejaVuSans-2e" x="63.623047"/>
       <use xlink:href="#DejaVuSans-30" x="95.410156"/>
      </g>
     </g>
    </g>
    <g id="text_9">
     <!-- $X$ -->
     <g transform="translate(231.3775 315.3225) scale(0.16 -0.16)">
      <defs>
       <path id="DejaVuSans-Oblique-58" d="M 878 4666 
L 1516 4666 
L 2316 2981 
L 3763 4666 
L 4500 4666 
L 2578 2438 
L 3738 0 
L 3103 0 
L 2163 1966 
L 459 0 
L -275 0 
L 1906 2509 
L 878 4666 
z
" transform="scale(0.015625)"/>
      </defs>
      <use xlink:href="#DejaVuSans-Oblique-58" transform="translate(0 0.09375)"/>
     </g>
    </g>
   </g>
   <g id="matplotlib.axis_6">
    <g id="ytick_4">
     <g id="line2d_15">
      <g>
       <use xlink:href="#m929b130ce0" x="37.7875" y="263.491578" style="fill: #696969; stroke: #696969; stroke-width: 0.8"/>
      </g>
     </g>
     <g id="text_10">
      <!-- −5 -->
      <g style="fill: #696969" transform="translate(7.2 269.570328) scale(0.16 -0.16)">
       <use xlink:href="#DejaVuSans-2212"/>
       <use xlink:href="#DejaVuSans-35" x="83.789062"/>
      </g>
     </g>
    </g>
    <g id="ytick_5">
     <g id="line2d_16">
      <g>
       <use xlink:href="#m929b130ce0" x="37.7875" y="226.649838" style="fill: #696969; stroke: #696969; stroke-width: 0.8"/>
      </g>
     </g>
     <g id="text_11">
      <!-- 0 -->
      <g style="fill: #696969" transform="translate(20.6075 232.728588) scale(0.16 -0.16)">
       <use xlink:href="#DejaVuSans-30"/>
      </g>
     </g>
    </g>
    <g id="ytick_6">
     <g id="line2d_17">
      <g>
       <use xlink:href="#m929b130ce0" x="37.7875" y="189.808099" style="fill: #696969; stroke: #696969; stroke-width: 0.8"/>
      </g>
     </g>
     <g id="text_12">
      <!-- 5 -->
      <g style="fill: #696969" transform="translate(20.6075 195.886849) scale(0.16 -0.16)">
       <use xlink:href="#DejaVuSans-35"/>
      </g>
     </g>
    </g>
   </g>
   <g id="line2d_18">
    <path d="M 55.888409 224.000226 
L 63.128773 225.775403 
L 70.369136 227.443029 
L 77.6095 228.874381 
L 84.849864 230.112002 
L 92.090227 231.287268 
L 99.330591 232.51579 
L 106.570955 233.803152 
L 113.811318 234.98335 
L 121.051682 235.706611 
L 128.292045 235.515529 
L 135.532409 234.063909 
L 142.772773 231.308343 
L 150.013136 227.565597 
L 157.2535 223.774704 
L 164.493864 220.88557 
L 171.734227 218.670303 
L 178.974591 216.903327 
L 186.214955 216.470934 
L 193.455318 217.425858 
L 200.695682 218.683157 
L 207.936045 219.412666 
L 215.176409 219.419166 
L 222.416773 218.911751 
L 229.657136 218.254986 
L 236.8975 217.80197 
L 244.137864 217.85331 
L 251.378227 218.525794 
L 258.618591 219.723266 
L 265.858955 220.5912 
L 273.099318 220.326324 
L 280.339682 219.905789 
L 287.580045 220.0284 
L 294.820409 220.813299 
L 302.060773 222.140734 
L 309.301136 223.820038 
L 316.5415 225.664336 
L 323.781864 227.514958 
L 331.022227 229.228195 
L 338.262591 230.649467 
L 345.502955 231.626548 
L 352.743318 232.153259 
L 359.983682 232.786295 
L 367.224045 234.946691 
L 374.464409 238.508913 
L 381.704773 240.635586 
L 388.945136 241.050097 
L 396.1855 241.105806 
L 403.425864 241.547039 
L 410.666227 242.454597 
L 417.906591 243.61045 
" clip-path="url(#p103f3dad2d)" style="fill: none; stroke: #696969; stroke-width: 2; stroke-linecap: square"/>
   </g>
   <g id="line2d_19">
    <path d="M 55.888409 221.872749 
L 63.128773 227.786153 
L 70.369136 231.674256 
L 77.6095 233.997305 
L 84.849864 235.124733 
L 92.090227 235.352122 
L 99.330591 234.915161 
L 106.570955 234.001083 
L 113.811318 232.758014 
L 121.051682 231.30257 
L 128.292045 229.72604 
L 135.532409 228.099381 
L 142.772773 226.477265 
L 150.013136 224.901352 
L 157.2535 223.402935 
L 164.493864 222.005075 
L 171.734227 220.724341 
L 178.974591 219.572211 
L 186.214955 218.55622 
L 193.455318 217.680884 
L 200.695682 216.948461 
L 207.936045 216.359559 
L 215.176409 215.913637 
L 222.416773 215.609406 
L 229.657136 215.445152 
L 236.8975 215.418993 
L 244.137864 215.529087 
L 251.378227 215.773787 
L 258.618591 216.151769 
L 265.858955 216.662109 
L 273.099318 217.30433 
L 280.339682 218.078389 
L 287.580045 218.984599 
L 294.820409 220.023449 
L 302.060773 221.195279 
L 309.301136 222.499755 
L 316.5415 223.935055 
L 323.781864 225.496668 
L 331.022227 227.175675 
L 338.262591 228.956338 
L 345.502955 230.812805 
L 352.743318 232.704673 
L 359.983682 234.57112 
L 367.224045 236.323264 
L 374.464409 237.834314 
L 381.704773 238.927061 
L 388.945136 239.358128 
L 396.1855 238.798363 
L 403.425864 236.808624 
L 410.666227 232.810141 
L 417.906591 226.04851 
" clip-path="url(#p103f3dad2d)" style="fill: none; stroke-dasharray: 7.4,3.2; stroke-dashoffset: 0; stroke: #79ad41; stroke-width: 2"/>
   </g>
   <g id="patch_9">
    <path d="M 37.7875 276.68 
L 37.7875 181.688 
" style="fill: none; stroke: #000000; stroke-width: 0.8; stroke-linejoin: miter; stroke-linecap: square"/>
   </g>
   <g id="patch_10">
    <path d="M 436.0075 276.68 
L 436.0075 181.688 
" style="fill: none; stroke: #000000; stroke-width: 0.8; stroke-linejoin: miter; stroke-linecap: square"/>
   </g>
   <g id="patch_11">
    <path d="M 37.7875 276.68 
L 436.0075 276.68 
" style="fill: none; stroke: #000000; stroke-width: 0.8; stroke-linejoin: miter; stroke-linecap: square"/>
   </g>
   <g id="patch_12">
    <path d="M 37.7875 181.688 
L 436.0075 181.688 
" style="fill: none; stroke: #000000; stroke-width: 0.8; stroke-linejoin: miter; stroke-linecap: square"/>
   </g>
  </g>
 </g>
 <defs>
  <clipPath id="p02c2a6bceb">
   <rect x="37.7875" y="7.2" width="398.22" height="47.496"/>
  </clipPath>
  <clipPath id="p81c8fd43f5">
   <rect x="37.7875" y="70.696" width="398.22" height="94.992"/>
  </clipPath>
  <clipPath id="p103f3dad2d">
   <rect x="37.7875" y="181.688" width="398.22" height="94.992"/>
  </clipPath>
 </defs>
</svg>
