<?xml version="1.0" encoding="utf-8" standalone="no"?>
<!DOCTYPE svg PUBLIC "-//W3C//DTD SVG 1.1//EN"
  "http://www.w3.org/Graphics/SVG/1.1/DTD/svg11.dtd">
<svg xmlns:xlink="http://www.w3.org/1999/xlink" width="443.2625pt" height="325.85pt" viewBox="0 0 443.2625 325.85" xmlns="http://www.w3.org/2000/svg" version="1.1">
 <metadata>
  <rdf:RDF xmlns:dc="http://purl.org/dc/elements/1.1/" xmlns:cc="http://creativecommons.org/ns#" xmlns:rdf="http://www.w3.org/1999/02/22-rdf-syntax-ns#">
   <cc:Work>
    <dc:type rdf:resource="http://purl.org/dc/dcmitype/StillImage"/>
    <dc:date>2024-01-28T20:54:39.929563</dc:date>
    <dc:format>image/svg+xml</dc:format>
    <dc:creator>
     <cc:Agent>
      <dc:title>Matplotlib v3.7.2, https://matplotlib.org/</dc:title>
     </cc:Agent>
    </dc:creator>
   </cc:Work>
  </rdf:RDF>
 </metadata>
 <defs>
  <style type="text/css">*{stroke-linejoin: round; stroke-linecap: butt}</style>
 </defs>
 <g id="figure_1">
  <g id="patch_1">
   <path d="M 0 325.85 
L 443.2625 325.85 
L 443.2625 0 
L 0 0 
z
" style="fill: #ffffff"/>
  </g>
  <g id="axes_1">
   <g id="patch_2">
    <path d="M 53.0525 53.331561 
L 436.0625 53.331561 
L 436.0625 7.2 
L 53.0525 7.2 
z
" style="fill: #ffffff"/>
   </g>
   <g id="PolyCollection_1">
    <defs>
     <path id="md88d090b8a" d="M 70.462045 -274.615328 
L 70.462045 -279.8854 
L 77.425864 -279.621473 
L 84.389682 -279.350656 
L 91.3535 -279.275082 
L 98.317318 -279.275082 
L 105.281136 -279.275082 
L 112.244955 -279.275082 
L 119.208773 -279.275082 
L 126.172591 -279.275082 
L 133.136409 -279.275082 
L 140.100227 -279.275082 
L 147.064045 -279.275082 
L 154.027864 -279.275082 
L 160.991682 -279.275082 
L 167.9555 -279.275082 
L 174.919318 -279.275082 
L 181.883136 -279.275082 
L 188.846955 -279.275082 
L 195.810773 -279.275082 
L 202.774591 -279.275082 
L 209.738409 -279.275082 
L 216.702227 -279.275082 
L 223.666045 -279.275082 
L 230.629864 -279.275082 
L 237.593682 -279.275082 
L 244.5575 -279.275082 
L 251.521318 -279.557872 
L 258.485136 -280.243514 
L 265.448955 -281.068701 
L 272.412773 -282.052564 
L 279.376591 -283.212686 
L 286.340409 -284.562612 
L 293.304227 -286.108825 
L 300.268045 -287.847501 
L 307.231864 -289.761878 
L 314.195682 -291.820963 
L 321.1595 -293.980453 
L 328.123318 -296.186098 
L 335.087136 -298.379127 
L 342.050955 -300.502552 
L 349.014773 -302.506931 
L 355.978591 -304.354337 
L 362.942409 -306.02002 
L 369.906227 -307.491839 
L 376.870045 -308.76821 
L 383.833864 -309.855288 
L 390.797682 -310.764104 
L 397.7615 -311.508082 
L 404.725318 -312.101112 
L 411.689136 -312.556196 
L 418.652955 -312.884591 
L 418.652955 -274.615328 
L 418.652955 -274.615328 
L 411.689136 -274.615328 
L 404.725318 -274.615328 
L 397.7615 -274.615328 
L 390.797682 -274.615328 
L 383.833864 -274.615328 
L 376.870045 -274.615328 
L 369.906227 -274.615328 
L 362.942409 -274.615328 
L 355.978591 -274.615328 
L 349.014773 -274.615328 
L 342.050955 -274.615328 
L 335.087136 -274.615328 
L 328.123318 -274.615328 
L 321.1595 -274.615328 
L 314.195682 -274.615328 
L 307.231864 -274.615328 
L 300.268045 -274.615328 
L 293.304227 -274.615328 
L 286.340409 -274.615328 
L 279.376591 -274.615328 
L 272.412773 -274.615328 
L 265.448955 -274.615328 
L 258.485136 -274.615328 
L 251.521318 -274.615328 
L 244.5575 -274.615328 
L 237.593682 -274.615328 
L 230.629864 -274.615328 
L 223.666045 -274.615328 
L 216.702227 -274.615328 
L 209.738409 -274.615328 
L 202.774591 -274.615328 
L 195.810773 -274.615328 
L 188.846955 -274.615328 
L 181.883136 -274.615328 
L 174.919318 -274.615328 
L 167.9555 -274.615328 
L 160.991682 -274.615328 
L 154.027864 -274.615328 
L 147.064045 -274.615328 
L 140.100227 -274.615328 
L 133.136409 -274.615328 
L 126.172591 -274.615328 
L 119.208773 -274.615328 
L 112.244955 -274.615328 
L 105.281136 -274.615328 
L 98.317318 -274.615328 
L 91.3535 -274.615328 
L 84.389682 -274.615328 
L 77.425864 -274.615328 
L 70.462045 -274.615328 
z
" style="stroke: #dc143c; stroke-opacity: 0.2"/>
    </defs>
    <g clip-path="url(#padaaa6f1b7)">
     <use xlink:href="#md88d090b8a" x="0" y="325.85" style="fill: #dc143c; fill-opacity: 0.2; stroke: #dc143c; stroke-opacity: 0.2"/>
    </g>
   </g>
   <g id="PolyCollection_2">
    <defs>
     <path id="m290a3dc5ad" d="M 70.462045 -274.615328 
L 70.462045 -315.942792 
L 77.425864 -316.20672 
L 84.389682 -316.477536 
L 91.3535 -316.553111 
L 98.317318 -316.553111 
L 105.281136 -316.553111 
L 112.244955 -316.553111 
L 119.208773 -316.553111 
L 126.172591 -316.553111 
L 133.136409 -316.553111 
L 140.100227 -316.553111 
L 147.064045 -316.553111 
L 154.027864 -316.553111 
L 160.991682 -316.553111 
L 167.9555 -316.553111 
L 174.919318 -316.553111 
L 181.883136 -316.553111 
L 188.846955 -316.553111 
L 195.810773 -316.553111 
L 202.774591 -316.553111 
L 209.738409 -316.553111 
L 216.702227 -316.553111 
L 223.666045 -316.553111 
L 230.629864 -316.553111 
L 237.593682 -316.553111 
L 244.5575 -316.553111 
L 251.521318 -316.270321 
L 258.485136 -315.584679 
L 265.448955 -314.759492 
L 272.412773 -313.775629 
L 279.376591 -312.615507 
L 286.340409 -311.265581 
L 293.304227 -309.719367 
L 300.268045 -307.980692 
L 307.231864 -306.066314 
L 314.195682 -304.00723 
L 321.1595 -301.84774 
L 328.123318 -299.642094 
L 335.087136 -297.449065 
L 342.050955 -295.32564 
L 349.014773 -293.321262 
L 355.978591 -291.473856 
L 362.942409 -289.808173 
L 369.906227 -288.336354 
L 376.870045 -287.059983 
L 383.833864 -285.972905 
L 390.797682 -285.064089 
L 397.7615 -284.32011 
L 404.725318 -283.727081 
L 411.689136 -283.271996 
L 418.652955 -282.943601 
L 418.652955 -274.615328 
L 418.652955 -274.615328 
L 411.689136 -274.615328 
L 404.725318 -274.615328 
L 397.7615 -274.615328 
L 390.797682 -274.615328 
L 383.833864 -274.615328 
L 376.870045 -274.615328 
L 369.906227 -274.615328 
L 362.942409 -274.615328 
L 355.978591 -274.615328 
L 349.014773 -274.615328 
L 342.050955 -274.615328 
L 335.087136 -274.615328 
L 328.123318 -274.615328 
L 321.1595 -274.615328 
L 314.195682 -274.615328 
L 307.231864 -274.615328 
L 300.268045 -274.615328 
L 293.304227 -274.615328 
L 286.340409 -274.615328 
L 279.376591 -274.615328 
L 272.412773 -274.615328 
L 265.448955 -274.615328 
L 258.485136 -274.615328 
L 251.521318 -274.615328 
L 244.5575 -274.615328 
L 237.593682 -274.615328 
L 230.629864 -274.615328 
L 223.666045 -274.615328 
L 216.702227 -274.615328 
L 209.738409 -274.615328 
L 202.774591 -274.615328 
L 195.810773 -274.615328 
L 188.846955 -274.615328 
L 181.883136 -274.615328 
L 174.919318 -274.615328 
L 167.9555 -274.615328 
L 160.991682 -274.615328 
L 154.027864 -274.615328 
L 147.064045 -274.615328 
L 140.100227 -274.615328 
L 133.136409 -274.615328 
L 126.172591 -274.615328 
L 119.208773 -274.615328 
L 112.244955 -274.615328 
L 105.281136 -274.615328 
L 98.317318 -274.615328 
L 91.3535 -274.615328 
L 84.389682 -274.615328 
L 77.425864 -274.615328 
L 70.462045 -274.615328 
z
" style="stroke: #000080; stroke-opacity: 0.2"/>
    </defs>
    <g clip-path="url(#padaaa6f1b7)">
     <use xlink:href="#m290a3dc5ad" x="0" y="325.85" style="fill: #000080; fill-opacity: 0.2; stroke: #000080; stroke-opacity: 0.2"/>
    </g>
   </g>
   <g id="matplotlib.axis_1"/>
   <g id="matplotlib.axis_2"/>
   <g id="line2d_1">
    <path d="M 70.462045 45.9646 
L 77.425864 46.228527 
L 84.389682 46.499344 
L 91.3535 46.574918 
L 98.317318 46.574918 
L 105.281136 46.574918 
L 112.244955 46.574918 
L 119.208773 46.574918 
L 126.172591 46.574918 
L 133.136409 46.574918 
L 140.100227 46.574918 
L 147.064045 46.574918 
L 154.027864 46.574918 
L 160.991682 46.574918 
L 167.9555 46.574918 
L 174.919318 46.574918 
L 181.883136 46.574918 
L 188.846955 46.574918 
L 195.810773 46.574918 
L 202.774591 46.574918 
L 209.738409 46.574918 
L 216.702227 46.574918 
L 223.666045 46.574918 
L 230.629864 46.574918 
L 237.593682 46.574918 
L 244.5575 46.574918 
L 251.521318 46.292128 
L 258.485136 45.606486 
L 265.448955 44.781299 
L 272.412773 43.797436 
L 279.376591 42.637314 
L 286.340409 41.287388 
L 293.304227 39.741175 
L 300.268045 38.002499 
L 307.231864 36.088122 
L 314.195682 34.029037 
L 321.1595 31.869547 
L 328.123318 29.663902 
L 335.087136 27.470873 
L 342.050955 25.347448 
L 349.014773 23.343069 
L 355.978591 21.495663 
L 362.942409 19.82998 
L 369.906227 18.358161 
L 376.870045 17.08179 
L 383.833864 15.994712 
L 390.797682 15.085896 
L 397.7615 14.341918 
L 404.725318 13.748888 
L 411.689136 13.293804 
L 418.652955 12.965409 
" clip-path="url(#padaaa6f1b7)" style="fill: none; stroke: #dc143c; stroke-width: 1.5; stroke-linecap: square"/>
   </g>
   <g id="line2d_2">
    <path d="M 70.462045 9.907208 
L 77.425864 9.64328 
L 84.389682 9.372464 
L 91.3535 9.296889 
L 98.317318 9.296889 
L 105.281136 9.296889 
L 112.244955 9.296889 
L 119.208773 9.296889 
L 126.172591 9.296889 
L 133.136409 9.296889 
L 140.100227 9.296889 
L 147.064045 9.296889 
L 154.027864 9.296889 
L 160.991682 9.296889 
L 167.9555 9.296889 
L 174.919318 9.296889 
L 181.883136 9.296889 
L 188.846955 9.296889 
L 195.810773 9.296889 
L 202.774591 9.296889 
L 209.738409 9.296889 
L 216.702227 9.296889 
L 223.666045 9.296889 
L 230.629864 9.296889 
L 237.593682 9.296889 
L 244.5575 9.296889 
L 251.521318 9.579679 
L 258.485136 10.265321 
L 265.448955 11.090508 
L 272.412773 12.074371 
L 279.376591 13.234493 
L 286.340409 14.584419 
L 293.304227 16.130633 
L 300.268045 17.869308 
L 307.231864 19.783686 
L 314.195682 21.84277 
L 321.1595 24.00226 
L 328.123318 26.207906 
L 335.087136 28.400935 
L 342.050955 30.52436 
L 349.014773 32.528738 
L 355.978591 34.376144 
L 362.942409 36.041827 
L 369.906227 37.513646 
L 376.870045 38.790017 
L 383.833864 39.877095 
L 390.797682 40.785911 
L 397.7615 41.52989 
L 404.725318 42.122919 
L 411.689136 42.578004 
L 418.652955 42.906399 
" clip-path="url(#padaaa6f1b7)" style="fill: none; stroke: #000080; stroke-width: 1.5; stroke-linecap: square"/>
   </g>
  </g>
  <g id="axes_2">
   <g id="patch_3">
    <path d="M 53.0525 165.005781 
L 436.0625 165.005781 
L 436.0625 72.742658 
L 53.0525 72.742658 
z
" style="fill: #ffffff"/>
   </g>
   <g id="PathCollection_1">
    <defs>
     <path id="m681983a54b" d="M 0 0.866025 
C 0.229673 0.866025 0.449969 0.774776 0.612372 0.612372 
C 0.774776 0.449969 0.866025 0.229673 0.866025 0 
C 0.866025 -0.229673 0.774776 -0.449969 0.612372 -0.612372 
C 0.449969 -0.774776 0.229673 -0.866025 0 -0.866025 
C -0.229673 -0.866025 -0.449969 -0.774776 -0.612372 -0.612372 
C -0.774776 -0.449969 -0.866025 -0.229673 -0.866025 0 
C -0.866025 0.229673 -0.774776 0.449969 -0.612372 0.612372 
C -0.449969 0.774776 -0.229673 0.866025 0 0.866025 
z
" style="stroke: #daa520"/>
    </defs>
    <g clip-path="url(#pae81958ea8)">
     <use xlink:href="#m681983a54b" x="331.875451" y="135.271074" style="fill: #daa520; stroke: #daa520"/>
     <use xlink:href="#m681983a54b" x="396.83927" y="151.785196" style="fill: #daa520; stroke: #daa520"/>
     <use xlink:href="#m681983a54b" x="365.519677" y="142.885363" style="fill: #daa520; stroke: #daa520"/>
     <use xlink:href="#m681983a54b" x="342.84605" y="138.147564" style="fill: #daa520; stroke: #daa520"/>
     <use xlink:href="#m681983a54b" x="388.423094" y="150.325988" style="fill: #daa520; stroke: #daa520"/>
     <use xlink:href="#m681983a54b" x="411.889713" y="158.025451" style="fill: #daa520; stroke: #daa520"/>
     <use xlink:href="#m681983a54b" x="412.031346" y="148.285478" style="fill: #daa520; stroke: #daa520"/>
     <use xlink:href="#m681983a54b" x="411.180587" y="160.812002" style="fill: #daa520; stroke: #daa520"/>
     <use xlink:href="#m681983a54b" x="329.457338" y="134.297626" style="fill: #daa520; stroke: #daa520"/>
     <use xlink:href="#m681983a54b" x="367.230783" y="142.091054" style="fill: #daa520; stroke: #daa520"/>
     <use xlink:href="#m681983a54b" x="387.3191" y="140.986468" style="fill: #daa520; stroke: #daa520"/>
     <use xlink:href="#m681983a54b" x="178.585664" y="106.748605" style="fill: #daa520; stroke: #daa520"/>
     <use xlink:href="#m681983a54b" x="208.332579" y="97.742382" style="fill: #daa520; stroke: #daa520"/>
     <use xlink:href="#m681983a54b" x="237.024351" y="95.217657" style="fill: #daa520; stroke: #daa520"/>
     <use xlink:href="#m681983a54b" x="291.045702" y="96.42098" style="fill: #daa520; stroke: #daa520"/>
     <use xlink:href="#m681983a54b" x="166.260195" y="116.498827" style="fill: #daa520; stroke: #daa520"/>
     <use xlink:href="#m681983a54b" x="412.657291" y="137.698449" style="fill: #daa520; stroke: #daa520"/>
     <use xlink:href="#m681983a54b" x="418.300728" y="155.678814" style="fill: #daa520; stroke: #daa520"/>
     <use xlink:href="#m681983a54b" x="329.990363" y="116.811799" style="fill: #daa520; stroke: #daa520"/>
     <use xlink:href="#m681983a54b" x="418.396205" y="138.072018" style="fill: #daa520; stroke: #daa520"/>
     <use xlink:href="#m681983a54b" x="408.293414" y="150.710547" style="fill: #daa520; stroke: #daa520"/>
     <use xlink:href="#m681983a54b" x="404.719521" y="140.091313" style="fill: #daa520; stroke: #daa520"/>
     <use xlink:href="#m681983a54b" x="114.700682" y="117.129313" style="fill: #daa520; stroke: #daa520"/>
     <use xlink:href="#m681983a54b" x="311.355568" y="97.690684" style="fill: #daa520; stroke: #daa520"/>
     <use xlink:href="#m681983a54b" x="384.976576" y="120.145549" style="fill: #daa520; stroke: #daa520"/>
     <use xlink:href="#m681983a54b" x="405.993301" y="141.221278" style="fill: #daa520; stroke: #daa520"/>
     <use xlink:href="#m681983a54b" x="103.120612" y="110.260649" style="fill: #daa520; stroke: #daa520"/>
     <use xlink:href="#m681983a54b" x="78.243751" y="113.512152" style="fill: #daa520; stroke: #daa520"/>
     <use xlink:href="#m681983a54b" x="377.454864" y="134.701949" style="fill: #daa520; stroke: #daa520"/>
     <use xlink:href="#m681983a54b" x="380.027121" y="108.750782" style="fill: #daa520; stroke: #daa520"/>
     <use xlink:href="#m681983a54b" x="305.534034" y="128.008552" style="fill: #daa520; stroke: #daa520"/>
     <use xlink:href="#m681983a54b" x="358.151393" y="141.167873" style="fill: #daa520; stroke: #daa520"/>
     <use xlink:href="#m681983a54b" x="71.391423" y="105.397225" style="fill: #daa520; stroke: #daa520"/>
     <use xlink:href="#m681983a54b" x="218.953651" y="103.069431" style="fill: #daa520; stroke: #daa520"/>
     <use xlink:href="#m681983a54b" x="234.804809" y="105.765113" style="fill: #daa520; stroke: #daa520"/>
     <use xlink:href="#m681983a54b" x="334.323113" y="99.073398" style="fill: #daa520; stroke: #daa520"/>
     <use xlink:href="#m681983a54b" x="290.16104" y="97.036016" style="fill: #daa520; stroke: #daa520"/>
     <use xlink:href="#m681983a54b" x="319.702521" y="86.26195" style="fill: #daa520; stroke: #daa520"/>
     <use xlink:href="#m681983a54b" x="403.79153" y="138.261292" style="fill: #daa520; stroke: #daa520"/>
     <use xlink:href="#m681983a54b" x="85.723561" y="95.048776" style="fill: #daa520; stroke: #daa520"/>
     <use xlink:href="#m681983a54b" x="381.41806" y="141.789063" style="fill: #daa520; stroke: #daa520"/>
     <use xlink:href="#m681983a54b" x="356.673613" y="106.684221" style="fill: #daa520; stroke: #daa520"/>
     <use xlink:href="#m681983a54b" x="351.827415" y="137.915049" style="fill: #daa520; stroke: #daa520"/>
     <use xlink:href="#m681983a54b" x="142.481956" y="103.152834" style="fill: #daa520; stroke: #daa520"/>
     <use xlink:href="#m681983a54b" x="264.828756" y="88.439809" style="fill: #daa520; stroke: #daa520"/>
     <use xlink:href="#m681983a54b" x="310.191521" y="128.509533" style="fill: #daa520; stroke: #daa520"/>
     <use xlink:href="#m681983a54b" x="309.095485" y="129.1281" style="fill: #daa520; stroke: #daa520"/>
     <use xlink:href="#m681983a54b" x="363.159489" y="134.361277" style="fill: #daa520; stroke: #daa520"/>
     <use xlink:href="#m681983a54b" x="127.195181" y="115.30064" style="fill: #daa520; stroke: #daa520"/>
     <use xlink:href="#m681983a54b" x="353.900319" y="137.776163" style="fill: #daa520; stroke: #daa520"/>
     <use xlink:href="#m681983a54b" x="355.088613" y="140.580278" style="fill: #daa520; stroke: #daa520"/>
     <use xlink:href="#m681983a54b" x="77.627088" y="109.586092" style="fill: #daa520; stroke: #daa520"/>
     <use xlink:href="#m681983a54b" x="410.46157" y="140.134806" style="fill: #daa520; stroke: #daa520"/>
     <use xlink:href="#m681983a54b" x="397.506782" y="155.27109" style="fill: #daa520; stroke: #daa520"/>
     <use xlink:href="#m681983a54b" x="368.404102" y="123.319327" style="fill: #daa520; stroke: #daa520"/>
     <use xlink:href="#m681983a54b" x="288.374232" y="97.835752" style="fill: #daa520; stroke: #daa520"/>
     <use xlink:href="#m681983a54b" x="128.586636" y="80.072661" style="fill: #daa520; stroke: #daa520"/>
     <use xlink:href="#m681983a54b" x="382.561528" y="118.947104" style="fill: #daa520; stroke: #daa520"/>
     <use xlink:href="#m681983a54b" x="78.74788" y="115.247491" style="fill: #daa520; stroke: #daa520"/>
     <use xlink:href="#m681983a54b" x="283.168333" y="121.291174" style="fill: #daa520; stroke: #daa520"/>
     <use xlink:href="#m681983a54b" x="98.411116" y="108.92884" style="fill: #daa520; stroke: #daa520"/>
     <use xlink:href="#m681983a54b" x="265.98845" y="115.443814" style="fill: #daa520; stroke: #daa520"/>
     <use xlink:href="#m681983a54b" x="367.671751" y="141.127141" style="fill: #daa520; stroke: #daa520"/>
     <use xlink:href="#m681983a54b" x="340.757065" y="137.049839" style="fill: #daa520; stroke: #daa520"/>
     <use xlink:href="#m681983a54b" x="265.556431" y="112.388557" style="fill: #daa520; stroke: #daa520"/>
     <use xlink:href="#m681983a54b" x="195.500551" y="94.935547" style="fill: #daa520; stroke: #daa520"/>
     <use xlink:href="#m681983a54b" x="398.87628" y="155.266018" style="fill: #daa520; stroke: #daa520"/>
     <use xlink:href="#m681983a54b" x="413.165466" y="153.350224" style="fill: #daa520; stroke: #daa520"/>
     <use xlink:href="#m681983a54b" x="106.310806" y="117.093675" style="fill: #daa520; stroke: #daa520"/>
     <use xlink:href="#m681983a54b" x="411.76777" y="143.068552" style="fill: #daa520; stroke: #daa520"/>
     <use xlink:href="#m681983a54b" x="247.925283" y="102.347355" style="fill: #daa520; stroke: #daa520"/>
     <use xlink:href="#m681983a54b" x="321.370013" y="114.47612" style="fill: #daa520; stroke: #daa520"/>
     <use xlink:href="#m681983a54b" x="98.00758" y="92.998536" style="fill: #daa520; stroke: #daa520"/>
     <use xlink:href="#m681983a54b" x="327.345022" y="133.434545" style="fill: #daa520; stroke: #daa520"/>
     <use xlink:href="#m681983a54b" x="368.139388" y="109.455676" style="fill: #daa520; stroke: #daa520"/>
     <use xlink:href="#m681983a54b" x="288.967888" y="81.951039" style="fill: #daa520; stroke: #daa520"/>
     <use xlink:href="#m681983a54b" x="359.547663" y="105.631714" style="fill: #daa520; stroke: #daa520"/>
     <use xlink:href="#m681983a54b" x="132.526425" y="76.936437" style="fill: #daa520; stroke: #daa520"/>
     <use xlink:href="#m681983a54b" x="395.722739" y="155.81893" style="fill: #daa520; stroke: #daa520"/>
     <use xlink:href="#m681983a54b" x="362.234231" y="134.207739" style="fill: #daa520; stroke: #daa520"/>
     <use xlink:href="#m681983a54b" x="344.4733" y="100.681572" style="fill: #daa520; stroke: #daa520"/>
     <use xlink:href="#m681983a54b" x="318.948016" y="101.200268" style="fill: #daa520; stroke: #daa520"/>
     <use xlink:href="#m681983a54b" x="411.649656" y="144.226134" style="fill: #daa520; stroke: #daa520"/>
     <use xlink:href="#m681983a54b" x="367.006211" y="143.785327" style="fill: #daa520; stroke: #daa520"/>
     <use xlink:href="#m681983a54b" x="396.160431" y="145.741204" style="fill: #daa520; stroke: #daa520"/>
     <use xlink:href="#m681983a54b" x="370.52236" y="140.308226" style="fill: #daa520; stroke: #daa520"/>
     <use xlink:href="#m681983a54b" x="327.493635" y="133.868587" style="fill: #daa520; stroke: #daa520"/>
     <use xlink:href="#m681983a54b" x="220.888251" y="87.935432" style="fill: #daa520; stroke: #daa520"/>
     <use xlink:href="#m681983a54b" x="334.015991" y="111.845223" style="fill: #daa520; stroke: #daa520"/>
     <use xlink:href="#m681983a54b" x="283.213013" y="121.385173" style="fill: #daa520; stroke: #daa520"/>
     <use xlink:href="#m681983a54b" x="409.503668" y="138.873763" style="fill: #daa520; stroke: #daa520"/>
     <use xlink:href="#m681983a54b" x="97.047311" y="78.735296" style="fill: #daa520; stroke: #daa520"/>
     <use xlink:href="#m681983a54b" x="387.831241" y="128.788238" style="fill: #daa520; stroke: #daa520"/>
     <use xlink:href="#m681983a54b" x="317.363998" y="97.221752" style="fill: #daa520; stroke: #daa520"/>
    </g>
   </g>
   <g id="matplotlib.axis_3"/>
   <g id="matplotlib.axis_4">
    <g id="ytick_1">
     <g id="line2d_3">
      <defs>
       <path id="m4ff6779ee4" d="M 0 0 
L -3.5 0 
" style="stroke: #696969; stroke-width: 0.8"/>
      </defs>
      <g>
       <use xlink:href="#m4ff6779ee4" x="53.0525" y="158.454658" style="fill: #696969; stroke: #696969; stroke-width: 0.8"/>
      </g>
     </g>
     <g id="text_1">
      <!-- −5 -->
      <g style="fill: #696969" transform="translate(22.465 164.533408) scale(0.16 -0.16)">
       <defs>
        <path id="DejaVuSans-2212" d="M 678 2272 
L 4684 2272 
L 4684 1741 
L 678 1741 
L 678 2272 
z
" transform="scale(0.015625)"/>
        <path id="DejaVuSans-35" d="M 691 4666 
L 3169 4666 
L 3169 4134 
L 1269 4134 
L 1269 2991 
Q 1406 3038 1543 3061 
Q 1681 3084 1819 3084 
Q 2600 3084 3056 2656 
Q 3513 2228 3513 1497 
Q 3513 744 3044 326 
Q 2575 -91 1722 -91 
Q 1428 -91 1123 -41 
Q 819 9 494 109 
L 494 744 
Q 775 591 1075 516 
Q 1375 441 1709 441 
Q 2250 441 2565 725 
Q 2881 1009 2881 1497 
Q 2881 1984 2565 2268 
Q 2250 2553 1709 2553 
Q 1456 2553 1204 2497 
Q 953 2441 691 2322 
L 691 4666 
z
" transform="scale(0.015625)"/>
       </defs>
       <use xlink:href="#DejaVuSans-2212"/>
       <use xlink:href="#DejaVuSans-35" x="83.789062"/>
      </g>
     </g>
    </g>
    <g id="ytick_2">
     <g id="line2d_4">
      <g>
       <use xlink:href="#m4ff6779ee4" x="53.0525" y="109.569373" style="fill: #696969; stroke: #696969; stroke-width: 0.8"/>
      </g>
     </g>
     <g id="text_2">
      <!-- 0 -->
      <g style="fill: #696969" transform="translate(35.8725 115.648123) scale(0.16 -0.16)">
       <defs>
        <path id="DejaVuSans-30" d="M 2034 4250 
Q 1547 4250 1301 3770 
Q 1056 3291 1056 2328 
Q 1056 1369 1301 889 
Q 1547 409 2034 409 
Q 2525 409 2770 889 
Q 3016 1369 3016 2328 
Q 3016 3291 2770 3770 
Q 2525 4250 2034 4250 
z
M 2034 4750 
Q 2819 4750 3233 4129 
Q 3647 3509 3647 2328 
Q 3647 1150 3233 529 
Q 2819 -91 2034 -91 
Q 1250 -91 836 529 
Q 422 1150 422 2328 
Q 422 3509 836 4129 
Q 1250 4750 2034 4750 
z
" transform="scale(0.015625)"/>
       </defs>
       <use xlink:href="#DejaVuSans-30"/>
      </g>
     </g>
    </g>
   </g>
   <g id="line2d_5">
    <path d="M 70.462045 106.048923 
L 77.425864 104.804627 
L 84.389682 103.681439 
L 91.3535 102.695211 
L 98.317318 101.857152 
L 105.281136 101.173352 
L 112.244955 100.644584 
L 119.208773 100.266416 
L 126.172591 100.02958 
L 133.136409 99.920659 
L 140.100227 99.922961 
L 147.064045 100.017547 
L 154.027864 100.184272 
L 160.991682 100.402866 
L 167.9555 100.653868 
L 174.919318 100.919435 
L 181.883136 101.18399 
L 188.846955 101.434693 
L 195.810773 101.661768 
L 202.774591 101.858732 
L 209.738409 102.022558 
L 216.702227 102.153797 
L 223.666045 102.256738 
L 230.629864 102.339537 
L 237.593682 102.414361 
L 244.5575 102.497477 
L 251.521318 102.609232 
L 258.485136 102.773828 
L 265.448955 103.018886 
L 272.412773 103.374697 
L 279.376591 103.87312 
L 286.340409 104.546183 
L 293.304227 105.42442 
L 300.268045 106.53497 
L 307.231864 107.899665 
L 314.195682 109.533165 
L 321.1595 111.441338 
L 328.123318 113.620035 
L 335.087136 116.054381 
L 342.050955 118.718692 
L 349.014773 121.577058 
L 355.978591 124.584612 
L 362.942409 127.689374 
L 369.906227 130.834649 
L 376.870045 133.96173 
L 383.833864 137.012774 
L 390.797682 139.933678 
L 397.7615 142.676679 
L 404.725318 145.202582 
L 411.689136 147.482414 
L 418.652955 149.498422 
" clip-path="url(#pae81958ea8)" style="fill: none; stroke: #000000; stroke-width: 2; stroke-linecap: square"/>
   </g>
   <g id="line2d_6">
    <path d="M 70.462045 107.37847 
L 77.425864 106.108964 
L 84.389682 104.977521 
L 91.3535 103.976177 
L 98.317318 103.097378 
L 105.281136 102.333988 
L 112.244955 101.679284 
L 119.208773 101.126958 
L 126.172591 100.671116 
L 133.136409 100.306279 
L 140.100227 100.027384 
L 147.064045 99.829779 
L 154.027864 99.709231 
L 160.991682 99.661917 
L 167.9555 99.684433 
L 174.919318 99.773786 
L 181.883136 99.927401 
L 188.846955 100.143113 
L 195.810773 100.419177 
L 202.774591 100.754258 
L 209.738409 101.147438 
L 216.702227 101.598212 
L 223.666045 102.106493 
L 230.629864 102.672603 
L 237.593682 103.297284 
L 244.5575 103.98169 
L 251.521318 104.727389 
L 258.485136 105.536365 
L 265.448955 106.411016 
L 272.412773 107.354154 
L 279.376591 108.369007 
L 286.340409 109.459216 
L 293.304227 110.628838 
L 300.268045 111.882344 
L 307.231864 113.224619 
L 314.195682 114.660963 
L 321.1595 116.197091 
L 328.123318 117.839133 
L 335.087136 119.593631 
L 342.050955 121.467544 
L 349.014773 123.468246 
L 355.978591 125.603523 
L 362.942409 127.881578 
L 369.906227 130.311028 
L 376.870045 132.900904 
L 383.833864 135.660651 
L 390.797682 138.60013 
L 397.7615 141.729617 
L 404.725318 145.0598 
L 411.689136 148.601784 
L 418.652955 152.367088 
" clip-path="url(#pae81958ea8)" style="fill: none; stroke-dasharray: 7.4,3.2; stroke-dashoffset: 0; stroke: #34b6c6; stroke-width: 2"/>
   </g>
   <g id="line2d_7">
    <path d="M 70.462045 109.607613 
L 77.425864 107.971996 
L 84.389682 106.297318 
L 91.3535 104.605507 
L 98.317318 102.954132 
L 105.281136 101.417834 
L 112.244955 100.05707 
L 119.208773 98.903069 
L 126.172591 97.967101 
L 133.136409 97.257153 
L 140.100227 96.78618 
L 147.064045 96.567034 
L 154.027864 96.596383 
L 160.991682 96.837562 
L 167.9555 97.219484 
L 174.919318 97.66066 
L 181.883136 98.102885 
L 188.846955 98.528281 
L 195.810773 98.95171 
L 202.774591 99.400917 
L 209.738409 99.898559 
L 216.702227 100.45265 
L 223.666045 101.05625 
L 230.629864 101.694322 
L 237.593682 102.35343 
L 244.5575 103.029415 
L 251.521318 103.730148 
L 258.485136 104.473642 
L 265.448955 105.283639 
L 272.412773 106.184766 
L 279.376591 107.19845 
L 286.340409 108.340071 
L 293.304227 109.617671 
L 300.268045 111.032514 
L 307.231864 112.581556 
L 314.195682 114.261267 
L 321.1595 116.071332 
L 328.123318 118.016227 
L 335.087136 120.103062 
L 342.050955 122.335735 
L 349.014773 124.707699 
L 355.978591 127.197043 
L 362.942409 129.766835 
L 369.906227 132.371241 
L 376.870045 134.96559 
L 383.833864 137.516845 
L 390.797682 140.01052 
L 397.7615 142.451667 
L 404.725318 144.86072 
L 411.689136 147.267122 
L 418.652955 149.703542 
" clip-path="url(#pae81958ea8)" style="fill: none; stroke-dasharray: 7.4,3.2; stroke-dashoffset: 0; stroke: #9370db; stroke-width: 2"/>
   </g>
   <g id="line2d_8">
    <path d="M 70.462045 95.918202 
L 77.425864 95.150057 
L 84.389682 94.211874 
L 91.3535 93.143884 
L 98.317318 92.039361 
L 105.281136 91.016763 
L 112.244955 90.172848 
L 119.208773 89.560094 
L 126.172591 89.20061 
L 133.136409 89.111157 
L 140.100227 89.31552 
L 147.064045 89.836904 
L 154.027864 90.673807 
L 160.991682 91.774298 
L 167.9555 93.034372 
L 174.919318 94.333995 
L 181.883136 95.587642 
L 188.846955 96.769858 
L 195.810773 97.903882 
L 202.774591 99.031853 
L 209.738409 100.187854 
L 216.702227 101.383569 
L 223.666045 102.607829 
L 230.629864 103.836882 
L 237.593682 105.048958 
L 244.5575 106.235778 
L 251.521318 107.406684 
L 258.485136 108.585807 
L 265.448955 109.805448 
L 272.412773 111.09881 
L 279.376591 112.493868 
L 286.340409 114.009098 
L 293.304227 115.651546 
L 300.268045 117.417657 
L 307.231864 119.29699 
L 314.195682 121.27795 
L 321.1595 123.353337 
L 328.123318 125.522714 
L 335.087136 127.789169 
L 342.050955 130.150545 
L 349.014773 132.58859 
L 355.978591 135.061577 
L 362.942409 137.504812 
L 369.906227 139.839828 
L 376.870045 141.98947 
L 383.833864 143.893615 
L 390.797682 145.519542 
L 397.7615 146.863421 
L 404.725318 147.944066 
L 411.689136 148.793385 
L 418.652955 149.447698 
" clip-path="url(#pae81958ea8)" style="fill: none; stroke-dasharray: 12.8,3.2,2,3.2; stroke-dashoffset: 0; stroke: #ff0000; stroke-width: 2"/>
   </g>
   <g id="patch_4">
    <path d="M 53.0525 165.005781 
L 53.0525 72.742658 
" style="fill: none; stroke: #000000; stroke-width: 0.8; stroke-linejoin: miter; stroke-linecap: square"/>
   </g>
   <g id="patch_5">
    <path d="M 436.0625 165.005781 
L 436.0625 72.742658 
" style="fill: none; stroke: #000000; stroke-width: 0.8; stroke-linejoin: miter; stroke-linecap: square"/>
   </g>
   <g id="patch_6">
    <path d="M 53.0525 165.005781 
L 436.0625 165.005781 
" style="fill: none; stroke: #000000; stroke-width: 0.8; stroke-linejoin: miter; stroke-linecap: square"/>
   </g>
   <g id="patch_7">
    <path d="M 53.0525 72.742658 
L 436.0625 72.742658 
" style="fill: none; stroke: #000000; stroke-width: 0.8; stroke-linejoin: miter; stroke-linecap: square"/>
   </g>
  </g>
  <g id="axes_3">
   <g id="patch_8">
    <path d="M 53.0525 276.68 
L 436.0625 276.68 
L 436.0625 184.416878 
L 53.0525 184.416878 
z
" style="fill: #ffffff"/>
   </g>
   <g id="PathCollection_2">
    <g clip-path="url(#p3325d311cb)">
     <use xlink:href="#m681983a54b" x="331.875451" y="213.124529" style="fill: #daa520; stroke: #daa520"/>
     <use xlink:href="#m681983a54b" x="396.83927" y="217.663564" style="fill: #daa520; stroke: #daa520"/>
     <use xlink:href="#m681983a54b" x="365.519677" y="218.431501" style="fill: #daa520; stroke: #daa520"/>
     <use xlink:href="#m681983a54b" x="342.84605" y="214.198287" style="fill: #daa520; stroke: #daa520"/>
     <use xlink:href="#m681983a54b" x="388.423094" y="217.342023" style="fill: #daa520; stroke: #daa520"/>
     <use xlink:href="#m681983a54b" x="411.889713" y="212.24268" style="fill: #daa520; stroke: #daa520"/>
     <use xlink:href="#m681983a54b" x="412.031346" y="225.057182" style="fill: #daa520; stroke: #daa520"/>
     <use xlink:href="#m681983a54b" x="411.180587" y="208.481829" style="fill: #daa520; stroke: #daa520"/>
     <use xlink:href="#m681983a54b" x="329.457338" y="213.375476" style="fill: #daa520; stroke: #daa520"/>
     <use xlink:href="#m681983a54b" x="367.230783" y="220.229963" style="fill: #daa520; stroke: #daa520"/>
     <use xlink:href="#m681983a54b" x="387.3191" y="229.276867" style="fill: #daa520; stroke: #daa520"/>
     <use xlink:href="#m681983a54b" x="178.585664" y="208.912417" style="fill: #daa520; stroke: #daa520"/>
     <use xlink:href="#m681983a54b" x="208.332579" y="227.243854" style="fill: #daa520; stroke: #daa520"/>
     <use xlink:href="#m681983a54b" x="237.024351" y="237.127972" style="fill: #daa520; stroke: #daa520"/>
     <use xlink:href="#m681983a54b" x="291.045702" y="248.886091" style="fill: #daa520; stroke: #daa520"/>
     <use xlink:href="#m681983a54b" x="166.260195" y="193.104919" style="fill: #daa520; stroke: #daa520"/>
     <use xlink:href="#m681983a54b" x="412.657291" y="239.050597" style="fill: #daa520; stroke: #daa520"/>
     <use xlink:href="#m681983a54b" x="418.300728" y="216.118667" style="fill: #daa520; stroke: #daa520"/>
     <use xlink:href="#m681983a54b" x="329.990363" y="236.570715" style="fill: #daa520; stroke: #daa520"/>
     <use xlink:href="#m681983a54b" x="418.396205" y="239.257961" style="fill: #daa520; stroke: #daa520"/>
     <use xlink:href="#m681983a54b" x="408.293414" y="221.314633" style="fill: #daa520; stroke: #daa520"/>
     <use xlink:href="#m681983a54b" x="404.719521" y="234.656756" style="fill: #daa520; stroke: #daa520"/>
     <use xlink:href="#m681983a54b" x="114.700682" y="188.610656" style="fill: #daa520; stroke: #daa520"/>
     <use xlink:href="#m681983a54b" x="311.355568" y="254.250611" style="fill: #daa520; stroke: #daa520"/>
     <use xlink:href="#m681983a54b" x="384.976576" y="255.914585" style="fill: #daa520; stroke: #daa520"/>
     <use xlink:href="#m681983a54b" x="405.993301" y="233.397839" style="fill: #daa520; stroke: #daa520"/>
     <use xlink:href="#m681983a54b" x="103.120612" y="199.459166" style="fill: #daa520; stroke: #daa520"/>
     <use xlink:href="#m681983a54b" x="78.243751" y="200.08749" style="fill: #daa520; stroke: #daa520"/>
     <use xlink:href="#m681983a54b" x="377.454864" y="234.138623" style="fill: #daa520; stroke: #daa520"/>
     <use xlink:href="#m681983a54b" x="380.027121" y="269.183146" style="fill: #daa520; stroke: #daa520"/>
     <use xlink:href="#m681983a54b" x="305.534034" y="212.283583" style="fill: #daa520; stroke: #daa520"/>
     <use xlink:href="#m681983a54b" x="358.151393" y="217.330943" style="fill: #daa520; stroke: #daa520"/>
     <use xlink:href="#m681983a54b" x="71.391423" y="211.768602" style="fill: #daa520; stroke: #daa520"/>
     <use xlink:href="#m681983a54b" x="218.953651" y="222.644729" style="fill: #daa520; stroke: #daa520"/>
     <use xlink:href="#m681983a54b" x="234.804809" y="222.767606" style="fill: #daa520; stroke: #daa520"/>
     <use xlink:href="#m681983a54b" x="334.323113" y="261.731299" style="fill: #daa520; stroke: #daa520"/>
     <use xlink:href="#m681983a54b" x="290.16104" y="247.801659" style="fill: #daa520; stroke: #daa520"/>
     <use xlink:href="#m681983a54b" x="319.702521" y="272.486222" style="fill: #daa520; stroke: #daa520"/>
     <use xlink:href="#m681983a54b" x="403.79153" y="236.890098" style="fill: #daa520; stroke: #daa520"/>
     <use xlink:href="#m681983a54b" x="85.723561" y="222.984362" style="fill: #daa520; stroke: #daa520"/>
     <use xlink:href="#m681983a54b" x="381.41806" y="226.279069" style="fill: #daa520; stroke: #daa520"/>
     <use xlink:href="#m681983a54b" x="356.673613" y="261.94336" style="fill: #daa520; stroke: #daa520"/>
     <use xlink:href="#m681983a54b" x="351.827415" y="218.655872" style="fill: #daa520; stroke: #daa520"/>
     <use xlink:href="#m681983a54b" x="142.481956" y="206.351378" style="fill: #daa520; stroke: #daa520"/>
     <use xlink:href="#m681983a54b" x="264.828756" y="252.262819" style="fill: #daa520; stroke: #daa520"/>
     <use xlink:href="#m681983a54b" x="310.191521" y="213.330622" style="fill: #daa520; stroke: #daa520"/>
     <use xlink:href="#m681983a54b" x="309.095485" y="212.111508" style="fill: #daa520; stroke: #daa520"/>
     <use xlink:href="#m681983a54b" x="363.159489" y="228.569923" style="fill: #daa520; stroke: #daa520"/>
     <use xlink:href="#m681983a54b" x="127.195181" y="190.016094" style="fill: #daa520; stroke: #daa520"/>
     <use xlink:href="#m681983a54b" x="353.900319" y="219.806403" style="fill: #daa520; stroke: #daa520"/>
     <use xlink:href="#m681983a54b" x="355.088613" y="216.677557" style="fill: #daa520; stroke: #daa520"/>
     <use xlink:href="#m681983a54b" x="77.627088" y="205.345883" style="fill: #daa520; stroke: #daa520"/>
     <use xlink:href="#m681983a54b" x="410.46157" y="235.53966" style="fill: #daa520; stroke: #daa520"/>
     <use xlink:href="#m681983a54b" x="397.506782" y="213.239266" style="fill: #daa520; stroke: #daa520"/>
     <use xlink:href="#m681983a54b" x="368.404102" y="245.399767" style="fill: #daa520; stroke: #daa520"/>
     <use xlink:href="#m681983a54b" x="288.374232" y="246.200866" style="fill: #daa520; stroke: #daa520"/>
     <use xlink:href="#m681983a54b" x="128.586636" y="236.250668" style="fill: #daa520; stroke: #daa520"/>
     <use xlink:href="#m681983a54b" x="382.561528" y="256.682322" style="fill: #daa520; stroke: #daa520"/>
     <use xlink:href="#m681983a54b" x="78.74788" y="197.724016" style="fill: #daa520; stroke: #daa520"/>
     <use xlink:href="#m681983a54b" x="283.168333" y="213.848954" style="fill: #daa520; stroke: #daa520"/>
     <use xlink:href="#m681983a54b" x="98.411116" y="202.136363" style="fill: #daa520; stroke: #daa520"/>
     <use xlink:href="#m681983a54b" x="265.98845" y="217.063015" style="fill: #daa520; stroke: #daa520"/>
     <use xlink:href="#m681983a54b" x="367.671751" y="221.688804" style="fill: #daa520; stroke: #daa520"/>
     <use xlink:href="#m681983a54b" x="340.757065" y="214.69391" style="fill: #daa520; stroke: #daa520"/>
     <use xlink:href="#m681983a54b" x="265.556431" y="220.974258" style="fill: #daa520; stroke: #daa520"/>
     <use xlink:href="#m681983a54b" x="195.500551" y="228.175678" style="fill: #daa520; stroke: #daa520"/>
     <use xlink:href="#m681983a54b" x="398.87628" y="213.553735" style="fill: #daa520; stroke: #daa520"/>
     <use xlink:href="#m681983a54b" x="413.165466" y="218.558122" style="fill: #daa520; stroke: #daa520"/>
     <use xlink:href="#m681983a54b" x="106.310806" y="189.905556" style="fill: #daa520; stroke: #daa520"/>
     <use xlink:href="#m681983a54b" x="411.76777" y="231.873538" style="fill: #daa520; stroke: #daa520"/>
     <use xlink:href="#m681983a54b" x="247.925283" y="230.195002" style="fill: #daa520; stroke: #daa520"/>
     <use xlink:href="#m681983a54b" x="321.370013" y="236.087899" style="fill: #daa520; stroke: #daa520"/>
     <use xlink:href="#m681983a54b" x="98.00758" y="223.145519" style="fill: #daa520; stroke: #daa520"/>
     <use xlink:href="#m681983a54b" x="327.345022" y="213.624116" style="fill: #daa520; stroke: #daa520"/>
     <use xlink:href="#m681983a54b" x="368.139388" y="263.496907" style="fill: #daa520; stroke: #daa520"/>
     <use xlink:href="#m681983a54b" x="288.967888" y="267.249184" style="fill: #daa520; stroke: #daa520"/>
     <use xlink:href="#m681983a54b" x="359.547663" y="264.658371" style="fill: #daa520; stroke: #daa520"/>
     <use xlink:href="#m681983a54b" x="132.526425" y="240.330681" style="fill: #daa520; stroke: #daa520"/>
     <use xlink:href="#m681983a54b" x="395.722739" y="212.098369" style="fill: #daa520; stroke: #daa520"/>
     <use xlink:href="#m681983a54b" x="362.234231" y="228.351615" style="fill: #daa520; stroke: #daa520"/>
     <use xlink:href="#m681983a54b" x="344.4733" y="264.158381" style="fill: #daa520; stroke: #daa520"/>
     <use xlink:href="#m681983a54b" x="318.948016" y="252.564192" style="fill: #daa520; stroke: #daa520"/>
     <use xlink:href="#m681983a54b" x="411.649656" y="230.336292" style="fill: #daa520; stroke: #daa520"/>
     <use xlink:href="#m681983a54b" x="367.006211" y="217.905893" style="fill: #daa520; stroke: #daa520"/>
     <use xlink:href="#m681983a54b" x="396.160431" y="225.442328" style="fill: #daa520; stroke: #daa520"/>
     <use xlink:href="#m681983a54b" x="370.52236" y="223.987871" style="fill: #daa520; stroke: #daa520"/>
     <use xlink:href="#m681983a54b" x="327.493635" y="213.115832" style="fill: #daa520; stroke: #daa520"/>
     <use xlink:href="#m681983a54b" x="220.888251" y="242.972181" style="fill: #daa520; stroke: #daa520"/>
     <use xlink:href="#m681983a54b" x="334.015991" y="244.820371" style="fill: #daa520; stroke: #daa520"/>
     <use xlink:href="#m681983a54b" x="283.213013" y="213.738292" style="fill: #daa520; stroke: #daa520"/>
     <use xlink:href="#m681983a54b" x="409.503668" y="237.052626" style="fill: #daa520; stroke: #daa520"/>
     <use xlink:href="#m681983a54b" x="97.047311" y="242.079963" style="fill: #daa520; stroke: #daa520"/>
     <use xlink:href="#m681983a54b" x="387.831241" y="245.456967" style="fill: #daa520; stroke: #daa520"/>
     <use xlink:href="#m681983a54b" x="317.363998" y="257.168471" style="fill: #daa520; stroke: #daa520"/>
    </g>
   </g>
   <g id="matplotlib.axis_5">
    <g id="xtick_1">
     <g id="line2d_9">
      <defs>
       <path id="m76e0187c8d" d="M 0 0 
L 0 3.5 
" style="stroke: #696969; stroke-width: 0.8"/>
      </defs>
      <g>
       <use xlink:href="#m76e0187c8d" x="70.462045" y="276.68" style="fill: #696969; stroke: #696969; stroke-width: 0.8"/>
      </g>
     </g>
     <g id="text_3">
      <!-- −1.0 -->
      <g style="fill: #696969" transform="translate(51.035795 295.8375) scale(0.16 -0.16)">
       <defs>
        <path id="DejaVuSans-31" d="M 794 531 
L 1825 531 
L 1825 4091 
L 703 3866 
L 703 4441 
L 1819 4666 
L 2450 4666 
L 2450 531 
L 3481 531 
L 3481 0 
L 794 0 
L 794 531 
z
" transform="scale(0.015625)"/>
        <path id="DejaVuSans-2e" d="M 684 794 
L 1344 794 
L 1344 0 
L 684 0 
L 684 794 
z
" transform="scale(0.015625)"/>
       </defs>
       <use xlink:href="#DejaVuSans-2212"/>
       <use xlink:href="#DejaVuSans-31" x="83.789062"/>
       <use xlink:href="#DejaVuSans-2e" x="147.412109"/>
       <use xlink:href="#DejaVuSans-30" x="179.199219"/>
      </g>
     </g>
    </g>
    <g id="xtick_2">
     <g id="line2d_10">
      <g>
       <use xlink:href="#m76e0187c8d" x="157.509773" y="276.68" style="fill: #696969; stroke: #696969; stroke-width: 0.8"/>
      </g>
     </g>
     <g id="text_4">
      <!-- −0.5 -->
      <g style="fill: #696969" transform="translate(138.083523 295.8375) scale(0.16 -0.16)">
       <use xlink:href="#DejaVuSans-2212"/>
       <use xlink:href="#DejaVuSans-30" x="83.789062"/>
       <use xlink:href="#DejaVuSans-2e" x="147.412109"/>
       <use xlink:href="#DejaVuSans-35" x="179.199219"/>
      </g>
     </g>
    </g>
    <g id="xtick_3">
     <g id="line2d_11">
      <g>
       <use xlink:href="#m76e0187c8d" x="244.5575" y="276.68" style="fill: #696969; stroke: #696969; stroke-width: 0.8"/>
      </g>
     </g>
     <g id="text_5">
      <!-- 0.0 -->
      <g style="fill: #696969" transform="translate(231.835 295.8375) scale(0.16 -0.16)">
       <use xlink:href="#DejaVuSans-30"/>
       <use xlink:href="#DejaVuSans-2e" x="63.623047"/>
       <use xlink:href="#DejaVuSans-30" x="95.410156"/>
      </g>
     </g>
    </g>
    <g id="xtick_4">
     <g id="line2d_12">
      <g>
       <use xlink:href="#m76e0187c8d" x="331.605227" y="276.68" style="fill: #696969; stroke: #696969; stroke-width: 0.8"/>
      </g>
     </g>
     <g id="text_6">
      <!-- 0.5 -->
      <g style="fill: #696969" transform="translate(318.882727 295.8375) scale(0.16 -0.16)">
       <use xlink:href="#DejaVuSans-30"/>
       <use xlink:href="#DejaVuSans-2e" x="63.623047"/>
       <use xlink:href="#DejaVuSans-35" x="95.410156"/>
      </g>
     </g>
    </g>
    <g id="xtick_5">
     <g id="line2d_13">
      <g>
       <use xlink:href="#m76e0187c8d" x="418.652955" y="276.68" style="fill: #696969; stroke: #696969; stroke-width: 0.8"/>
      </g>
     </g>
     <g id="text_7">
      <!-- 1.0 -->
      <g style="fill: #696969" transform="translate(405.930455 295.8375) scale(0.16 -0.16)">
       <use xlink:href="#DejaVuSans-31"/>
       <use xlink:href="#DejaVuSans-2e" x="63.623047"/>
       <use xlink:href="#DejaVuSans-30" x="95.410156"/>
      </g>
     </g>
    </g>
    <g id="text_8">
     <!-- $X$ -->
     <g transform="translate(239.0375 315.3225) scale(0.16 -0.16)">
      <defs>
       <path id="DejaVuSans-Oblique-58" d="M 878 4666 
L 1516 4666 
L 2316 2981 
L 3763 4666 
L 4500 4666 
L 2578 2438 
L 3738 0 
L 3103 0 
L 2163 1966 
L 459 0 
L -275 0 
L 1906 2509 
L 878 4666 
z
" transform="scale(0.015625)"/>
      </defs>
      <use xlink:href="#DejaVuSans-Oblique-58" transform="translate(0 0.09375)"/>
     </g>
    </g>
   </g>
   <g id="matplotlib.axis_6">
    <g id="ytick_3">
     <g id="line2d_14">
      <g>
       <use xlink:href="#m4ff6779ee4" x="53.0525" y="256.450884" style="fill: #696969; stroke: #696969; stroke-width: 0.8"/>
      </g>
     </g>
     <g id="text_9">
      <!-- −2.5 -->
      <g style="fill: #696969" transform="translate(7.2 262.529634) scale(0.16 -0.16)">
       <defs>
        <path id="DejaVuSans-32" d="M 1228 531 
L 3431 531 
L 3431 0 
L 469 0 
L 469 531 
Q 828 903 1448 1529 
Q 2069 2156 2228 2338 
Q 2531 2678 2651 2914 
Q 2772 3150 2772 3378 
Q 2772 3750 2511 3984 
Q 2250 4219 1831 4219 
Q 1534 4219 1204 4116 
Q 875 4013 500 3803 
L 500 4441 
Q 881 4594 1212 4672 
Q 1544 4750 1819 4750 
Q 2544 4750 2975 4387 
Q 3406 4025 3406 3419 
Q 3406 3131 3298 2873 
Q 3191 2616 2906 2266 
Q 2828 2175 2409 1742 
Q 1991 1309 1228 531 
z
" transform="scale(0.015625)"/>
       </defs>
       <use xlink:href="#DejaVuSans-2212"/>
       <use xlink:href="#DejaVuSans-32" x="83.789062"/>
       <use xlink:href="#DejaVuSans-2e" x="147.412109"/>
       <use xlink:href="#DejaVuSans-35" x="179.199219"/>
      </g>
     </g>
    </g>
    <g id="ytick_4">
     <g id="line2d_15">
      <g>
       <use xlink:href="#m4ff6779ee4" x="53.0525" y="224.342145" style="fill: #696969; stroke: #696969; stroke-width: 0.8"/>
      </g>
     </g>
     <g id="text_10">
      <!-- 0.0 -->
      <g style="fill: #696969" transform="translate(20.6075 230.420895) scale(0.16 -0.16)">
       <use xlink:href="#DejaVuSans-30"/>
       <use xlink:href="#DejaVuSans-2e" x="63.623047"/>
       <use xlink:href="#DejaVuSans-30" x="95.410156"/>
      </g>
     </g>
    </g>
    <g id="ytick_5">
     <g id="line2d_16">
      <g>
       <use xlink:href="#m4ff6779ee4" x="53.0525" y="192.233407" style="fill: #696969; stroke: #696969; stroke-width: 0.8"/>
      </g>
     </g>
     <g id="text_11">
      <!-- 2.5 -->
      <g style="fill: #696969" transform="translate(20.6075 198.312157) scale(0.16 -0.16)">
       <use xlink:href="#DejaVuSans-32"/>
       <use xlink:href="#DejaVuSans-2e" x="63.623047"/>
       <use xlink:href="#DejaVuSans-35" x="95.410156"/>
      </g>
     </g>
    </g>
   </g>
   <g id="line2d_17">
    <path d="M 70.462045 211.034063 
L 77.425864 211.659553 
L 84.389682 211.902582 
L 91.3535 211.795177 
L 98.317318 211.44514 
L 105.281136 211.000084 
L 112.244955 210.586093 
L 119.208773 210.277934 
L 126.172591 210.116819 
L 133.136409 210.142394 
L 140.100227 210.407828 
L 147.064045 210.968485 
L 154.027864 211.848855 
L 160.991682 213.007347 
L 167.9555 214.3329 
L 174.919318 215.691274 
L 181.883136 216.990581 
L 188.846955 218.21425 
L 195.810773 219.405651 
L 202.774591 220.628655 
L 209.738409 221.932012 
L 216.702227 223.330346 
L 223.666045 224.803352 
L 230.629864 226.309111 
L 237.593682 227.803047 
L 244.5575 229.252913 
L 251.521318 230.644252 
L 258.485136 231.976972 
L 265.448955 233.257219 
L 272.412773 234.488819 
L 279.376591 235.666671 
L 286.340409 236.772973 
L 293.304227 237.776868 
L 300.268045 238.638036 
L 307.231864 239.314084 
L 314.195682 239.77052 
L 321.1595 239.990179 
L 328.123318 239.977934 
L 335.087136 239.757386 
L 342.050955 239.359441 
L 349.014773 238.807293 
L 355.978591 238.105066 
L 362.942409 237.236059 
L 369.906227 236.171674 
L 376.870045 234.887676 
L 383.833864 233.381067 
L 390.797682 231.679939 
L 397.7615 229.842001 
L 404.725318 227.943457 
L 411.689136 226.064284 
L 418.652955 224.275512 
" clip-path="url(#p3325d311cb)" style="fill: none; stroke: #696969; stroke-width: 2; stroke-linecap: square"/>
   </g>
   <g id="line2d_18">
    <path d="M 70.462045 204.894371 
L 77.425864 206.274501 
L 84.389682 207.598973 
L 91.3535 208.872183 
L 98.317318 210.098241 
L 105.281136 211.280969 
L 112.244955 212.423903 
L 119.208773 213.530291 
L 126.172591 214.603095 
L 133.136409 215.644987 
L 140.100227 216.658354 
L 147.064045 217.645297 
L 154.027864 218.607626 
L 160.991682 219.546867 
L 167.9555 220.464257 
L 174.919318 221.360748 
L 181.883136 222.237002 
L 188.846955 223.093396 
L 195.810773 223.930018 
L 202.774591 224.74667 
L 209.738409 225.542867 
L 216.702227 226.317835 
L 223.666045 227.070516 
L 230.629864 227.799561 
L 237.593682 228.503337 
L 244.5575 229.179922 
L 251.521318 229.827107 
L 258.485136 230.442396 
L 265.448955 231.023007 
L 272.412773 231.565868 
L 279.376591 232.067622 
L 286.340409 232.524625 
L 293.304227 232.932944 
L 300.268045 233.28836 
L 307.231864 233.586368 
L 314.195682 233.822172 
L 321.1595 233.990693 
L 328.123318 234.086562 
L 335.087136 234.104124 
L 342.050955 234.037437 
L 349.014773 233.88027 
L 355.978591 233.626108 
L 362.942409 233.268147 
L 369.906227 232.799294 
L 376.870045 232.212171 
L 383.833864 231.499114 
L 390.797682 230.652168 
L 397.7615 229.663094 
L 404.725318 228.523364 
L 411.689136 227.224164 
L 418.652955 225.756393 
" clip-path="url(#p3325d311cb)" style="fill: none; stroke-dasharray: 7.4,3.2; stroke-dashoffset: 0; stroke: #79ad41; stroke-width: 2"/>
   </g>
   <g id="patch_9">
    <path d="M 53.0525 276.68 
L 53.0525 184.416878 
" style="fill: none; stroke: #000000; stroke-width: 0.8; stroke-linejoin: miter; stroke-linecap: square"/>
   </g>
   <g id="patch_10">
    <path d="M 436.0625 276.68 
L 436.0625 184.416878 
" style="fill: none; stroke: #000000; stroke-width: 0.8; stroke-linejoin: miter; stroke-linecap: square"/>
   </g>
   <g id="patch_11">
    <path d="M 53.0525 276.68 
L 436.0625 276.68 
" style="fill: none; stroke: #000000; stroke-width: 0.8; stroke-linejoin: miter; stroke-linecap: square"/>
   </g>
   <g id="patch_12">
    <path d="M 53.0525 184.416878 
L 436.0625 184.416878 
" style="fill: none; stroke: #000000; stroke-width: 0.8; stroke-linejoin: miter; stroke-linecap: square"/>
   </g>
  </g>
 </g>
 <defs>
  <clipPath id="padaaa6f1b7">
   <rect x="53.0525" y="7.2" width="383.01" height="46.131561"/>
  </clipPath>
  <clipPath id="pae81958ea8">
   <rect x="53.0525" y="72.742658" width="383.01" height="92.263122"/>
  </clipPath>
  <clipPath id="p3325d311cb">
   <rect x="53.0525" y="184.416878" width="383.01" height="92.263122"/>
  </clipPath>
 </defs>
</svg>
